<svg width="900" height="655" viewBox="0 0 900 655" fill="none" xmlns="http://www.w3.org/2000/svg">
<path d="M338.118 323.83C320.841 346.153 296.63 357.315 265.485 357.315C234.34 357.315 210.015 346.153 192.51 323.83C175.233 301.281 166.594 271.291 166.594 233.86C166.594 196.204 175.233 166.327 192.51 144.229C209.788 121.681 234.112 110.406 265.485 110.406C296.63 110.406 320.841 121.681 338.118 144.229C355.623 166.778 364.376 196.655 364.376 233.86C364.376 271.066 355.623 301.056 338.118 323.83ZM265.485 169.258C240.251 169.258 227.633 190.792 227.633 233.86C227.633 276.929 240.251 298.463 265.485 298.463C290.719 298.463 303.336 276.929 303.336 233.86C303.336 190.792 290.719 169.258 265.485 169.258Z" fill="url(#paint0_linear_1003_22399)"/>
<path d="M319.252 326.661L319.254 326.658C335.797 304.958 344.022 276.441 344.022 241.197C344.022 205.956 335.798 177.543 319.254 156.055C302.883 134.515 279.926 123.761 250.511 123.761C220.887 123.761 197.823 134.512 181.451 156.052C165.114 177.121 157 205.538 157 241.197C157 276.648 165.116 305.167 181.448 326.657L181.455 326.666C198.039 347.988 221.099 358.633 250.511 358.633C279.922 358.633 302.879 347.988 319.252 326.661ZM216.102 241.197C216.102 220.951 219.049 205.93 224.819 196.002C230.54 186.157 239.062 181.267 250.511 181.267C261.96 181.267 270.482 186.157 276.203 196.002C281.973 205.93 284.92 220.951 284.92 241.197C284.92 261.443 281.973 276.464 276.203 286.392C270.482 296.237 261.96 301.127 250.511 301.127C239.062 301.127 230.54 296.237 224.819 286.392C219.049 276.464 216.102 261.443 216.102 241.197Z" fill="url(#paint1_linear_1003_22399)" stroke="white" stroke-width="2"/>
<path d="M547.675 97.0002H611.999L317.949 527.764H253.625L547.675 97.0002Z" fill="url(#paint2_linear_1003_22399)"/>
<path d="M547.653 97.0002L502.074 116.662H565.974L611.553 97.0002H547.653Z" fill="white"/>
<path d="M253.626 526.87L208.047 549.213H271.946L317.525 526.87H253.626Z" fill="#CDDAF7"/>
<path d="M502.097 115.662H501.569L501.271 116.098L207.221 546.862L206.153 548.426H208.047H272.37H272.899L273.196 547.99L567.247 117.226L568.314 115.662H566.421H502.097Z" fill="url(#paint3_linear_1003_22399)" stroke="white" stroke-width="2"/>
<path d="M581.275 526.118C563.997 548.441 539.786 559.603 508.641 559.603C477.496 559.603 453.171 548.441 435.666 526.118C418.389 503.569 409.75 473.58 409.75 436.149C409.75 398.492 418.389 368.615 435.666 346.518C452.944 323.969 477.269 312.695 508.641 312.695C539.786 312.695 563.997 323.969 581.275 346.518C598.78 369.066 607.532 398.943 607.532 436.149C607.532 473.354 598.78 503.344 581.275 526.118ZM508.641 371.547C483.407 371.547 470.79 393.081 470.79 436.149C470.79 479.217 483.407 500.751 508.641 500.751C533.875 500.751 546.492 479.217 546.492 436.149C546.492 393.081 533.875 371.547 508.641 371.547Z" fill="url(#paint4_linear_1003_22399)"/>
<path d="M562.408 528.95L562.41 528.947C578.953 507.248 587.178 478.73 587.178 443.486C587.178 408.245 578.955 379.832 562.41 358.344C546.039 336.804 523.082 326.05 493.667 326.05C464.044 326.05 440.979 336.801 424.607 358.341C408.27 379.41 400.156 407.827 400.156 443.486C400.156 478.938 408.272 507.457 424.604 528.946L424.611 528.955C441.195 550.277 464.256 560.922 493.667 560.922C523.079 560.922 546.036 550.277 562.408 528.95ZM459.258 443.486C459.258 423.24 462.205 408.219 467.975 398.291C473.696 388.446 482.218 383.557 493.667 383.557C505.116 383.557 513.638 388.446 519.36 398.291C525.129 408.219 528.077 423.24 528.077 443.486C528.077 463.732 525.129 478.753 519.36 488.681C513.638 498.526 505.116 503.416 493.667 503.416C482.218 503.416 473.696 498.526 467.975 488.681C462.205 478.753 459.258 463.732 459.258 443.486Z" fill="url(#paint5_linear_1003_22399)" stroke="white" stroke-width="2"/>
<circle cx="690" cy="381" r="55" fill="url(#paint6_linear_1003_22399)"/>
<circle cx="690" cy="381" r="55" fill="url(#paint7_radial_1003_22399)"/>
<circle cx="690" cy="381" r="55" fill="url(#paint8_radial_1003_22399)"/>
<circle cx="690" cy="381" r="55" fill="url(#paint9_radial_1003_22399)"/>
<circle cx="690" cy="381" r="55" fill="url(#paint10_radial_1003_22399)"/>
<g style="mix-blend-mode:lighten">
<ellipse cx="687.017" cy="367.084" rx="34.1265" ry="30.4819" fill="url(#paint11_linear_1003_22399)"/>
</g>
<g style="mix-blend-mode:lighten">
<path d="M667.069 364.091C664.861 363.405 663.597 361.036 664.638 358.971C666.449 355.378 669.102 352.251 672.395 349.869C675.687 347.487 679.488 345.947 683.467 345.351C685.754 345.009 687.608 346.951 687.569 349.263V349.263C687.529 351.575 685.596 353.366 683.345 353.894C681.181 354.402 679.125 355.335 677.302 356.654C675.479 357.972 673.95 359.633 672.79 361.529C671.584 363.501 669.278 364.777 667.069 364.091V364.091Z" fill="url(#paint12_linear_1003_22399)"/>
</g>
<circle cx="82" cy="336" r="36" fill="url(#paint13_linear_1003_22399)"/>
<circle cx="82" cy="336" r="36" fill="url(#paint14_radial_1003_22399)"/>
<circle cx="82" cy="336" r="36" fill="url(#paint15_radial_1003_22399)"/>
<circle cx="82" cy="336" r="36" fill="url(#paint16_radial_1003_22399)"/>
<circle cx="82" cy="336" r="36" fill="url(#paint17_radial_1003_22399)"/>
<g style="mix-blend-mode:lighten">
<ellipse cx="80.0483" cy="326.891" rx="22.3374" ry="19.9518" fill="url(#paint18_linear_1003_22399)"/>
</g>
<g style="mix-blend-mode:lighten">
<path d="M66.9889 324.932C65.5435 324.483 64.7162 322.933 65.3975 321.581C66.5829 319.23 68.3192 317.182 70.4745 315.624C72.6297 314.065 75.1175 313.056 77.722 312.667C79.2189 312.443 80.4326 313.714 80.4067 315.227V315.227C80.3808 316.74 79.1152 317.912 77.6418 318.258C76.2256 318.591 74.88 319.201 73.6868 320.065C72.4936 320.928 71.4924 322.014 70.7333 323.255C69.9435 324.547 68.4342 325.382 66.9889 324.932V324.932Z" fill="url(#paint19_linear_1003_22399)"/>
</g>
<path d="M181 448.919C181 452.785 177.866 455.919 174 455.919C170.134 455.919 167 452.785 167 448.919C167 445.053 170.134 441.919 174 441.919C177.866 441.919 181 445.053 181 448.919Z" fill="#07ECEF"/>
<path d="M838 477.919C838 480.68 835.761 482.919 833 482.919C830.239 482.919 828 480.68 828 477.919C828 475.158 830.239 472.919 833 472.919C835.761 472.919 838 475.158 838 477.919Z" fill="#07ECEF"/>
<path d="M846 454.919C846 456.024 845.105 456.919 844 456.919C842.895 456.919 842 456.024 842 454.919C842 453.814 842.895 452.919 844 452.919C845.105 452.919 846 453.814 846 454.919Z" fill="#07ECEF"/>
<path d="M14 231.919C14 235.785 10.866 238.919 7 238.919C3.13401 238.919 0 235.785 0 231.919C0 228.053 3.13401 224.919 7 224.919C10.866 224.919 14 228.053 14 231.919Z" fill="#0D4EFF"/>
<path d="M585 173C585 177.971 580.971 182 576 182C571.029 182 567 177.971 567 173C567 168.029 571.029 164 576 164C580.971 164 585 168.029 585 173Z" fill="#0D4EFF"/>
<path d="M856 178L860.321 189.314L872 193.5L860.321 197.686L856 209L851.679 197.686L840 193.5L851.679 189.314L856 178Z" fill="white"/>
<path d="M822.5 229L825.336 236.664L833 239.5L825.336 242.336L822.5 250L819.664 242.336L812 239.5L819.664 236.664L822.5 229Z" fill="white"/>
<defs>
<linearGradient id="paint0_linear_1003_22399" x1="260.321" y1="39.716" x2="323.085" y2="444.891" gradientUnits="userSpaceOnUse">
<stop stop-color="#F0F5FF"/>
<stop offset="0.440625" stop-color="#E3FCFF"/>
<stop offset="1" stop-color="#76B7FF"/>
</linearGradient>
<linearGradient id="paint1_linear_1003_22399" x1="245.681" y1="58.0891" x2="305.339" y2="440.084" gradientUnits="userSpaceOnUse">
<stop stop-color="#03F9D5"/>
<stop offset="0.440625" stop-color="#00DFFF"/>
<stop offset="1" stop-color="#3A98FF"/>
</linearGradient>
<linearGradient id="paint2_linear_1003_22399" x1="423.456" y1="-26.328" x2="529.067" y2="681.763" gradientUnits="userSpaceOnUse">
<stop stop-color="#FEFFFF"/>
<stop offset="1" stop-color="#BACCF3"/>
</linearGradient>
<linearGradient id="paint3_linear_1003_22399" x1="377.878" y1="-6.66615" x2="483.489" y2="701.425" gradientUnits="userSpaceOnUse">
<stop stop-color="#03F9D5"/>
<stop offset="0.440625" stop-color="#00DFFF"/>
<stop offset="1" stop-color="#3A98FF"/>
</linearGradient>
<linearGradient id="paint4_linear_1003_22399" x1="503.478" y1="242.004" x2="566.242" y2="647.18" gradientUnits="userSpaceOnUse">
<stop stop-color="#F0F5FF"/>
<stop offset="0.440625" stop-color="#E3FCFF"/>
<stop offset="1" stop-color="#76B7FF"/>
</linearGradient>
<linearGradient id="paint5_linear_1003_22399" x1="488.837" y1="260.378" x2="548.495" y2="642.373" gradientUnits="userSpaceOnUse">
<stop stop-color="#03F9D5"/>
<stop offset="0.440625" stop-color="#00DFFF"/>
<stop offset="1" stop-color="#3A98FF"/>
</linearGradient>
<linearGradient id="paint6_linear_1003_22399" x1="690" y1="326" x2="690" y2="436" gradientUnits="userSpaceOnUse">
<stop stop-color="#40FFC6"/>
<stop offset="0.492708" stop-color="#4AE6FF"/>
<stop offset="1" stop-color="#2595FF"/>
</linearGradient>
<radialGradient id="paint7_radial_1003_22399" cx="0" cy="0" r="1" gradientUnits="userSpaceOnUse" gradientTransform="translate(667.411 347.607) rotate(62.6223) scale(123.875)">
<stop offset="0.462106" stop-color="#2AA8FF" stop-opacity="0"/>
<stop offset="0.894737" stop-color="#2595FF"/>
</radialGradient>
<radialGradient id="paint8_radial_1003_22399" cx="0" cy="0" r="1" gradientUnits="userSpaceOnUse" gradientTransform="translate(663.482 349.571) rotate(56.6259) scale(148.186)">
<stop stop-color="#6EFFCE"/>
<stop offset="0.570035" stop-color="#A5FFFD" stop-opacity="0"/>
</radialGradient>
<radialGradient id="paint9_radial_1003_22399" cx="0" cy="0" r="1" gradientUnits="userSpaceOnUse" gradientTransform="translate(679.196 359.393) rotate(63.4349) scale(79.0016)">
<stop offset="0.672439" stop-color="#9EC6FD" stop-opacity="0"/>
<stop offset="1" stop-color="white"/>
</radialGradient>
<radialGradient id="paint10_radial_1003_22399" cx="0" cy="0" r="1" gradientUnits="userSpaceOnUse" gradientTransform="translate(684.054 369.108) rotate(62.0378) scale(68.1599)">
<stop offset="0.961458" stop-color="#2AA8FF" stop-opacity="0"/>
<stop offset="1" stop-color="#058AFF" stop-opacity="0.26"/>
</radialGradient>
<linearGradient id="paint11_linear_1003_22399" x1="667.516" y1="344.468" x2="692.121" y2="371.794" gradientUnits="userSpaceOnUse">
<stop stop-color="white" stop-opacity="0.86"/>
<stop offset="1" stop-color="#D9D9D9" stop-opacity="0"/>
</linearGradient>
<linearGradient id="paint12_linear_1003_22399" x1="687.03" y1="347.554" x2="672.165" y2="364.649" gradientUnits="userSpaceOnUse">
<stop stop-color="white"/>
<stop offset="1" stop-color="#FFFFE9" stop-opacity="0.38"/>
</linearGradient>
<linearGradient id="paint13_linear_1003_22399" x1="82" y1="300" x2="82" y2="372" gradientUnits="userSpaceOnUse">
<stop stop-color="#40FFC6"/>
<stop offset="0.492708" stop-color="#4AE6FF"/>
<stop offset="1" stop-color="#2595FF"/>
</linearGradient>
<radialGradient id="paint14_radial_1003_22399" cx="0" cy="0" r="1" gradientUnits="userSpaceOnUse" gradientTransform="translate(67.2143 314.143) rotate(62.6223) scale(81.0816)">
<stop offset="0.462106" stop-color="#2AA8FF" stop-opacity="0"/>
<stop offset="0.894737" stop-color="#2595FF"/>
</radialGradient>
<radialGradient id="paint15_radial_1003_22399" cx="0" cy="0" r="1" gradientUnits="userSpaceOnUse" gradientTransform="translate(64.6429 315.429) rotate(56.6259) scale(96.9948)">
<stop stop-color="#6EFFCE"/>
<stop offset="0.570035" stop-color="#A5FFFD" stop-opacity="0"/>
</radialGradient>
<radialGradient id="paint16_radial_1003_22399" cx="0" cy="0" r="1" gradientUnits="userSpaceOnUse" gradientTransform="translate(74.9286 321.857) rotate(63.4349) scale(51.7101)">
<stop offset="0.672439" stop-color="#9EC6FD" stop-opacity="0"/>
<stop offset="1" stop-color="white"/>
</radialGradient>
<radialGradient id="paint17_radial_1003_22399" cx="0" cy="0" r="1" gradientUnits="userSpaceOnUse" gradientTransform="translate(78.1081 328.216) rotate(62.0378) scale(44.6138)">
<stop offset="0.961458" stop-color="#2AA8FF" stop-opacity="0"/>
<stop offset="1" stop-color="#058AFF" stop-opacity="0.26"/>
</radialGradient>
<linearGradient id="paint18_linear_1003_22399" x1="67.2841" y1="312.088" x2="83.389" y2="329.974" gradientUnits="userSpaceOnUse">
<stop stop-color="white" stop-opacity="0.86"/>
<stop offset="1" stop-color="#D9D9D9" stop-opacity="0"/>
</linearGradient>
<linearGradient id="paint19_linear_1003_22399" x1="80.054" y1="314.109" x2="70.3242" y2="325.298" gradientUnits="userSpaceOnUse">
<stop stop-color="white"/>
<stop offset="1" stop-color="#FFFFE9" stop-opacity="0.38"/>
</linearGradient>
</defs>
</svg>
