<svg width="766" height="615" viewBox="0 0 766 615" fill="none" xmlns="http://www.w3.org/2000/svg">
<g clip-path="url(#clip0_932_35672)">
<rect x="1.73205" width="243.268" height="183.653" rx="29" transform="matrix(0.866025 -0.5 0.866025 0.5 215.662 310.384)" stroke="#D8ECFF" stroke-width="2"/>
<rect x="1.73205" width="292.373" height="363.755" rx="29" transform="matrix(0.866025 -0.5 0.866025 0.5 111.865 386.747)" stroke="#D8ECFF" stroke-width="2"/>
<rect x="1.73205" width="325.452" height="315.561" rx="29" transform="matrix(0.866025 -0.5 0.866025 0.5 -8.83826 371.315)" stroke="#D8ECFF" stroke-width="2"/>
<ellipse rx="5.91093" ry="5.91092" transform="matrix(0.866025 -0.5 0.866025 0.5 313.238 500.911)" fill="#23FBB2"/>
<ellipse rx="3.69434" ry="3.69433" transform="matrix(0.866025 -0.5 0.866025 0.5 421.61 183.287)" fill="#3A98FF"/>
<ellipse rx="5.91093" ry="5.91092" transform="matrix(0.866025 -0.5 0.866025 0.5 490.074 533.141)" fill="#3A98FF"/>
<ellipse rx="5.91092" ry="5.91093" transform="matrix(0.866025 -0.5 0.866025 0.5 141.238 455.911)" fill="#3A98FF"/>
<g opacity="0.5" filter="url(#filter0_f_932_35672)">
<rect width="117.562" height="117.562" transform="matrix(0.866025 0.5 -0.866025 0.5 374.812 158.806)" fill="#C2D5E7" fill-opacity="0.56"/>
</g>
<rect width="116.317" height="151.395" transform="matrix(0.866025 0.5 -3.0016e-08 1 274.078 95.7576)" fill="#E6ECF3"/>
<rect width="116.317" height="151.395" transform="matrix(0.866025 0.5 -3.0016e-08 1 274.078 95.7576)" fill="url(#paint0_linear_932_35672)"/>
<rect width="116.317" height="151.899" transform="matrix(0.866025 -0.5 1.4045e-08 1 374.852 153.917)" fill="#FAFDFF"/>
<rect width="116.317" height="151.899" transform="matrix(0.866025 -0.5 1.4045e-08 1 374.852 153.917)" fill="url(#paint1_linear_932_35672)"/>
<rect width="116.317" height="116.317" transform="matrix(0.866025 0.5 -0.866025 0.5 374.812 37.5997)" fill="url(#paint2_linear_932_35672)"/>
<g opacity="0.5" filter="url(#filter1_f_932_35672)">
<rect width="168.4" height="168.4" transform="matrix(0.866025 0.5 -0.866025 0.5 537.16 237.1)" fill="#C2D5E7" fill-opacity="0.56"/>
</g>
<rect width="166.616" height="88.3426" transform="matrix(0.866025 0.5 -3.0016e-08 1 392.867 267.665)" fill="#E6ECF3"/>
<rect width="166.616" height="88.3426" transform="matrix(0.866025 0.5 -3.0016e-08 1 392.867 267.665)" fill="url(#paint3_linear_932_35672)"/>
<rect width="166.616" height="88.4586" transform="matrix(0.866025 -0.5 1.4045e-08 1 537.219 350.973)" fill="#FAFDFF"/>
<rect width="166.616" height="88.4586" transform="matrix(0.866025 -0.5 1.4045e-08 1 537.219 350.973)" fill="url(#paint4_linear_932_35672)"/>
<rect width="166.616" height="166.616" transform="matrix(0.866025 0.5 -0.866025 0.5 537.16 184.356)" fill="url(#paint5_linear_932_35672)"/>
<path fill-rule="evenodd" clip-rule="evenodd" d="M385 103.213C385 96.1018 390.765 90.3369 397.876 90.3369H454.138C464.874 90.3369 474.382 97.2992 477.669 107.567L506.36 197.204C507.09 199.485 508.356 201.558 510.051 203.249L563.949 257.034C568.955 262.029 568.982 270.13 564.011 275.159C559.006 280.221 550.84 280.248 545.801 275.22L489.25 218.789C486.445 215.989 484.349 212.554 483.138 208.772L456.809 126.516C454.82 120.304 449.046 116.089 442.523 116.089H397.876C390.765 116.089 385 110.324 385 103.213Z" fill="#D0DFEE" fill-opacity="0.24"/>
<path fill-rule="evenodd" clip-rule="evenodd" d="M391.576 91.0427L373.528 43.1602L349.496 52.2183L367.86 100.939C372.604 113.526 386.528 120.024 399.222 115.577L509.251 77.0293L549.475 268.897C550.93 275.838 557.736 280.285 564.678 278.83C571.619 277.375 576.066 270.569 574.611 263.627L534.172 70.7367C531.104 56.0994 515.86 47.5009 501.746 52.4458L391.576 91.0427Z" fill="url(#paint6_linear_932_35672)"/>
<path d="M351.674 20.0843L388.952 53.1826L341.649 68.9177L351.674 20.0843Z" fill="#40FFC6"/>
<g clip-path="url(#clip1_932_35672)">
<g filter="url(#filter2_f_932_35672)">
<path d="M395.24 380.418C396.646 364.218 386.693 347.74 365.182 335.364C324.892 312.201 259.909 312.182 219.928 335.324C199.993 346.866 190.06 361.973 190.07 377.091C190.07 377.041 190.06 377.001 190.06 376.952L190 397.83C189.96 413.086 200.063 428.372 220.307 440.013L286.128 401.912L277.032 435.802L276.973 456.68C277.581 456.739 278.179 456.789 278.788 456.839C281.949 457.097 285.07 457.236 288.182 457.345C288.641 457.355 289.109 457.405 289.558 457.415C289.598 457.415 289.648 457.425 289.688 457.425C293.278 457.514 296.828 457.504 300.339 457.385C300.568 457.375 300.778 457.355 301.007 457.345C302.413 457.296 303.779 457.157 305.166 457.067C307.22 456.938 309.284 456.859 311.299 456.66C311.638 456.63 311.967 456.551 312.306 456.521C314.909 456.253 317.442 455.855 319.985 455.458C321.212 455.269 322.488 455.16 323.705 454.942C323.924 454.902 324.124 454.842 324.343 454.803C325.271 454.634 326.168 454.405 327.086 454.217C329.609 453.7 332.112 453.154 334.555 452.518C335.752 452.21 336.919 451.853 338.096 451.515C339.332 451.157 340.609 450.85 341.825 450.462C342.454 450.263 343.032 449.985 343.66 449.767C346.333 448.873 348.926 447.87 351.479 446.817C352.656 446.33 353.863 445.883 355.009 445.367C358.64 443.738 362.17 441.99 365.541 440.043C365.96 439.795 366.378 439.556 366.797 439.308C367.735 438.742 368.543 438.136 369.44 437.55C370.697 436.735 371.983 435.931 373.15 435.087C374.167 434.352 375.075 433.587 376.022 432.832C377.099 431.968 378.196 431.114 379.183 430.23C379.383 430.051 379.622 429.882 379.822 429.703C381.138 428.491 382.365 427.25 383.512 425.988C383.751 425.73 383.96 425.462 384.19 425.204C384.878 424.429 385.576 423.664 386.194 422.87C386.683 422.244 387.122 421.618 387.571 420.992C387.73 420.764 387.91 420.545 388.069 420.317C388.887 419.145 389.655 417.953 390.333 416.751C390.473 416.493 390.562 416.235 390.692 415.976C391.26 414.924 391.729 413.851 392.188 412.788C392.457 412.162 392.826 411.556 393.066 410.931C393.145 410.722 393.175 410.504 393.245 410.295C393.604 409.282 393.853 408.259 394.123 407.236C394.302 406.54 394.581 405.865 394.721 405.17C394.761 404.991 394.751 404.802 394.781 404.614C394.98 403.541 395.05 402.468 395.15 401.395C395.21 400.69 395.369 399.995 395.389 399.29C395.399 398.992 395.399 398.694 395.399 398.386L395.459 377.508C395.479 378.501 395.329 379.455 395.24 380.418Z" fill="#C7DEF3"/>
</g>
<path d="M395.24 378.636C396.646 362.436 386.693 345.958 365.182 333.582C324.892 310.419 259.909 310.4 219.928 333.542C199.993 345.084 190.06 360.191 190.07 375.309C190.07 375.259 190.06 375.219 190.06 375.17L190 396.048C189.96 411.304 200.063 426.59 220.307 438.231L286.128 400.13L277.032 434.02L276.973 454.898C277.581 454.958 278.179 455.007 278.788 455.057C281.949 455.315 285.07 455.454 288.182 455.563C288.641 455.573 289.109 455.623 289.558 455.633C289.598 455.633 289.648 455.643 289.688 455.643C293.278 455.732 296.828 455.722 300.339 455.603C300.568 455.593 300.778 455.573 301.007 455.563C302.413 455.514 303.779 455.375 305.166 455.285C307.22 455.156 309.284 455.077 311.299 454.878C311.638 454.848 311.967 454.769 312.306 454.739C314.909 454.471 317.442 454.074 319.985 453.676C321.212 453.487 322.488 453.378 323.705 453.16C323.924 453.12 324.124 453.06 324.343 453.021C325.271 452.852 326.168 452.623 327.086 452.435C329.609 451.918 332.112 451.372 334.555 450.736C335.752 450.428 336.919 450.071 338.096 449.733C339.332 449.375 340.609 449.068 341.825 448.68C342.454 448.482 343.032 448.203 343.66 447.985C346.333 447.091 348.926 446.088 351.479 445.035C352.656 444.548 353.863 444.101 355.009 443.585C358.64 441.956 362.17 440.208 365.541 438.261C365.96 438.013 366.378 437.774 366.797 437.526C367.735 436.96 368.543 436.354 369.44 435.768C370.697 434.953 371.983 434.149 373.15 433.305C374.167 432.57 375.075 431.805 376.022 431.05C377.099 430.186 378.196 429.332 379.183 428.448C379.383 428.269 379.622 428.1 379.822 427.921C381.138 426.709 382.365 425.468 383.512 424.206C383.751 423.948 383.96 423.68 384.19 423.422C384.878 422.647 385.576 421.882 386.194 421.088C386.683 420.462 387.122 419.836 387.571 419.21C387.73 418.982 387.91 418.763 388.069 418.535C388.887 417.363 389.655 416.171 390.333 414.969C390.473 414.711 390.562 414.453 390.692 414.194C391.26 413.142 391.729 412.069 392.188 411.006C392.457 410.38 392.826 409.774 393.066 409.149C393.145 408.94 393.175 408.722 393.245 408.513C393.604 407.5 393.853 406.477 394.123 405.454C394.302 404.759 394.581 404.083 394.721 403.388C394.761 403.209 394.751 403.02 394.781 402.832C394.98 401.759 395.05 400.686 395.15 399.613C395.21 398.908 395.369 398.213 395.389 397.508C395.399 397.21 395.399 396.912 395.399 396.604L395.459 375.726C395.479 376.719 395.329 377.673 395.24 378.636Z" fill="white"/>
<path d="M292.761 375.748L292.701 396.627L220.309 438.522L220.368 417.654L292.761 375.748Z" fill="url(#paint7_linear_932_35672)"/>
<path d="M365.174 332.289C405.424 355.432 405.603 392.957 365.613 416.1C341.628 429.986 310.663 435.806 277.024 432.727L292.742 374.165L220.349 416.06C180.099 392.917 179.92 355.392 219.91 332.25C259.911 309.107 324.894 309.127 365.174 332.289Z" fill="url(#paint8_linear_932_35672)"/>
<path d="M190.06 375.47L190 396.348C189.96 411.605 200.063 426.881 220.307 438.522L220.367 417.644C200.122 406.013 190.02 390.727 190.06 375.47Z" fill="#DFF0FF"/>
<path d="M395.231 379.046C395.131 380.119 395.062 381.202 394.862 382.275C394.702 383.149 394.433 384.023 394.204 384.897C393.935 385.92 393.685 386.943 393.326 387.956C393.027 388.79 392.628 389.625 392.269 390.449C391.8 391.512 391.342 392.585 390.773 393.637C389.985 395.097 389.138 396.548 388.15 397.968C387.991 398.196 387.811 398.425 387.652 398.653C386.625 400.074 385.498 401.484 384.271 402.865C384.042 403.123 383.832 403.391 383.603 403.649C382.276 405.09 380.82 406.5 379.275 407.881C378.287 408.765 377.19 409.619 376.113 410.483C375.166 411.238 374.258 412.003 373.241 412.738C372.074 413.582 370.798 414.386 369.541 415.201C368.255 416.035 367.028 416.899 365.642 417.694C362.281 419.641 358.741 421.389 355.111 423.018C353.964 423.534 352.757 423.981 351.58 424.468C349.027 425.521 346.424 426.524 343.762 427.418C341.927 428.034 340.082 428.62 338.197 429.166C337.02 429.504 335.853 429.851 334.656 430.169C332.203 430.805 329.71 431.361 327.187 431.868C326.269 432.056 325.372 432.285 324.444 432.454C323.018 432.712 321.542 432.881 320.106 433.099C317.563 433.497 315.02 433.894 312.407 434.162C310.064 434.41 307.68 434.559 305.297 434.708C303.89 434.798 302.514 434.937 301.098 434.986C297.328 435.126 293.519 435.165 289.659 435.066C289.181 435.056 288.692 435.006 288.213 434.986C284.523 434.867 280.814 434.669 277.064 434.331L277.004 455.209C277.612 455.269 278.211 455.318 278.819 455.368C281.98 455.626 285.102 455.765 288.213 455.875C288.672 455.884 289.141 455.934 289.59 455.944C289.629 455.944 289.679 455.954 289.719 455.954C293.309 456.043 296.86 456.024 300.37 455.904C300.599 455.894 300.809 455.875 301.038 455.865C302.444 455.815 303.811 455.676 305.197 455.587C307.251 455.457 309.316 455.378 311.33 455.179C311.669 455.14 311.998 455.07 312.337 455.04C314.94 454.772 317.473 454.375 320.016 453.977C321.243 453.789 322.52 453.679 323.736 453.461C323.956 453.421 324.155 453.362 324.375 453.322C325.302 453.153 326.2 452.925 327.117 452.736C329.64 452.219 332.143 451.673 334.587 451.037C335.783 450.73 336.95 450.382 338.127 450.034C339.364 449.677 340.64 449.369 341.857 448.981C342.485 448.783 343.064 448.505 343.692 448.286C346.364 447.392 348.957 446.389 351.51 445.336C352.687 444.849 353.894 444.402 355.041 443.886C358.671 442.257 362.201 440.509 365.572 438.562C365.991 438.314 366.41 438.075 366.829 437.827C367.766 437.261 368.574 436.655 369.471 436.069C370.728 435.255 372.014 434.45 373.181 433.606C374.198 432.871 375.106 432.106 376.053 431.351C377.13 430.487 378.227 429.633 379.215 428.749C379.414 428.57 379.654 428.401 379.853 428.222C381.169 427.011 382.396 425.769 383.543 424.508C383.782 424.249 383.992 423.981 384.221 423.723C384.909 422.948 385.607 422.183 386.226 421.389C386.714 420.763 387.153 420.137 387.602 419.512C387.761 419.283 387.941 419.065 388.101 418.836C388.918 417.664 389.686 416.472 390.364 415.27C390.504 415.012 390.594 414.754 390.723 414.496C391.292 413.443 391.761 412.37 392.219 411.307C392.489 410.682 392.858 410.076 393.097 409.45C393.177 409.241 393.207 409.023 393.276 408.814C393.635 407.801 393.885 406.778 394.154 405.755C394.334 405.06 394.613 404.384 394.752 403.689C394.792 403.51 394.782 403.322 394.812 403.133C395.012 402.06 395.081 400.987 395.181 399.915C395.241 399.209 395.401 398.514 395.421 397.809C395.43 397.511 395.431 397.213 395.431 396.905L395.49 376.027C395.48 377.05 395.321 378.053 395.231 379.046Z" fill="url(#paint9_linear_932_35672)"/>
<path d="M293.255 317.233L293.195 338.608L379.26 322.468L379.32 301.093L293.255 317.233Z" fill="white"/>
<path d="M356.964 279.201C366.897 284.913 374.626 292.064 379.333 300.328L293.258 316.468L293.557 368.713C268.535 368.723 245.837 362.873 229.382 353.407C212.937 343.952 202.725 330.89 202.645 316.468C202.436 287.604 242.856 264.213 292.929 264.213C317.901 264.213 340.469 269.726 356.964 279.201Z" fill="url(#paint10_linear_932_35672)"/>
<path d="M379.32 300.328L379.26 321.703L293.195 337.853L293.255 316.468L379.32 300.328Z" fill="url(#paint11_linear_932_35672)"/>
<path d="M293.545 368.713C291.262 368.713 289.028 368.614 286.784 368.515C285.348 368.455 283.912 368.386 282.496 368.286C280.94 368.177 279.414 368.038 277.888 367.879C276.452 367.73 275.026 367.581 273.62 367.402C272.194 367.214 270.788 366.995 269.381 366.776C267.826 366.528 266.27 366.27 264.744 365.972C263.487 365.734 262.251 365.465 261.024 365.187C259.149 364.77 257.314 364.323 255.499 363.836C254.452 363.558 253.405 363.27 252.378 362.972C249.037 361.989 245.776 360.926 242.684 359.714C241.099 359.099 239.603 358.413 238.087 357.738C237.329 357.4 236.521 357.092 235.783 356.745C233.559 355.692 231.425 354.569 229.391 353.407C221.163 348.679 214.501 343.048 209.884 336.8C205.266 330.553 202.693 323.679 202.654 316.468L202.594 337.843C202.674 352.265 212.886 365.316 229.331 374.782C231.365 375.954 233.499 377.067 235.723 378.129C236.461 378.477 237.269 378.785 238.027 379.123C239.503 379.778 240.959 380.454 242.505 381.059C242.545 381.079 242.585 381.079 242.624 381.099C245.716 382.311 248.977 383.374 252.318 384.357C252.707 384.476 253.056 384.625 253.455 384.735C254.103 384.913 254.791 385.042 255.449 385.221C257.264 385.708 259.099 386.155 260.964 386.572C261.633 386.721 262.261 386.92 262.939 387.059C263.507 387.178 264.106 387.247 264.684 387.357C266.21 387.655 267.766 387.913 269.322 388.161C270.169 388.3 270.987 388.479 271.845 388.598C272.403 388.678 272.992 388.717 273.56 388.787C274.976 388.966 276.402 389.115 277.838 389.264C278.756 389.353 279.643 389.492 280.571 389.572C281.189 389.621 281.827 389.631 282.446 389.671C283.862 389.77 285.298 389.84 286.734 389.899C287.651 389.939 288.539 390.019 289.467 390.048C290.803 390.078 292.149 390.098 293.496 390.098L293.545 368.713Z" fill="url(#paint12_linear_932_35672)"/>
<path d="M346.172 234.495C360.304 242.62 368.751 253.963 367.983 266.349C366.577 289.938 332.26 308.324 291.372 307.4C275.017 307.052 261.254 304.112 248.359 298.272L293.985 264.69L296.538 222C315.965 222.437 333.387 227.145 346.172 234.495Z" fill="url(#paint13_linear_932_35672)"/>
<path d="M368.022 264.859C368.022 265.356 368.003 265.852 367.973 266.359C367.893 267.69 367.673 269.001 367.394 270.292C367.245 270.957 367.025 271.613 366.826 272.278C366.606 273.013 366.397 273.748 366.108 274.464C365.819 275.199 365.44 275.924 365.081 276.649C364.761 277.284 364.472 277.93 364.103 278.556C363.515 279.559 362.817 280.532 362.109 281.506C361.819 281.893 361.59 282.29 361.281 282.678C360.054 284.207 358.658 285.687 357.142 287.108C356.604 287.614 356.015 288.101 355.447 288.598C354.679 289.263 353.891 289.919 353.063 290.554C352.405 291.061 351.707 291.548 350.999 292.034C350.131 292.64 349.244 293.236 348.316 293.812C347.708 294.19 347.08 294.547 346.451 294.905C344.267 296.166 341.984 297.378 339.55 298.471C339.411 298.53 339.291 298.6 339.161 298.659C336.598 299.792 333.876 300.795 331.063 301.728C330.236 302.007 329.408 302.275 328.57 302.533C327.423 302.881 326.247 303.208 325.06 303.526C324.023 303.804 322.985 304.063 321.928 304.311C320.712 304.599 319.475 304.857 318.228 305.105C317.221 305.304 316.214 305.493 315.187 305.672C312.823 306.079 310.42 306.417 307.967 306.675C307.518 306.724 307.079 306.804 306.62 306.844C304.057 307.092 301.454 307.271 298.812 307.36C296.348 307.45 293.855 307.469 291.342 307.41C287.632 307.33 284.092 307.072 280.631 306.724C279.903 306.655 279.185 306.575 278.477 306.486C275.166 306.089 271.935 305.602 268.803 304.947C268.405 304.867 268.036 304.748 267.647 304.668C265.014 304.082 262.461 303.377 259.938 302.593C258.591 302.175 257.265 301.718 255.939 301.242C253.376 300.328 250.823 299.404 248.329 298.282L248.27 319.657C249.815 320.352 251.371 321.017 252.947 321.633C253.904 322.011 254.911 322.279 255.879 322.617C257.195 323.083 258.532 323.55 259.878 323.957C260.566 324.176 261.234 324.454 261.932 324.653C263.787 325.179 265.682 325.606 267.587 326.033C267.976 326.123 268.355 326.232 268.744 326.321C268.873 326.351 268.993 326.381 269.113 326.411C271.317 326.868 273.57 327.255 275.874 327.583C276.702 327.702 277.57 327.762 278.417 327.861C279.125 327.95 279.843 328.03 280.571 328.099C281.349 328.179 282.087 328.288 282.875 328.358C285.438 328.566 288.061 328.705 290.744 328.775C290.923 328.775 291.103 328.785 291.282 328.785C293.765 328.844 296.219 328.824 298.652 328.745C298.692 328.745 298.722 328.745 298.762 328.735C301.404 328.646 304.007 328.467 306.57 328.218C306.66 328.209 306.75 328.209 306.84 328.199C307.209 328.159 307.548 328.089 307.907 328.05C310.36 327.781 312.773 327.444 315.137 327.046C315.496 326.987 315.885 326.957 316.244 326.897C316.902 326.778 317.52 326.619 318.169 326.49C319.415 326.242 320.652 325.984 321.869 325.706C322.926 325.457 323.973 325.189 325.01 324.921C326.197 324.603 327.364 324.275 328.52 323.928C329.019 323.779 329.538 323.659 330.026 323.501C330.365 323.391 330.665 323.242 331.004 323.133C333.816 322.199 336.538 321.196 339.101 320.054C339.231 319.994 339.351 319.925 339.48 319.875C341.924 318.773 344.218 317.571 346.402 316.299C346.701 316.131 347.04 315.992 347.329 315.823C347.658 315.624 347.937 315.406 348.256 315.207C349.184 314.631 350.072 314.035 350.939 313.429C351.637 312.942 352.335 312.465 352.994 311.959C353.831 311.323 354.609 310.658 355.387 309.992C355.816 309.625 356.295 309.287 356.693 308.92C356.833 308.79 356.933 308.641 357.072 308.512C358.588 307.082 359.994 305.612 361.211 304.072C361.241 304.033 361.291 303.993 361.331 303.943C361.59 303.616 361.78 303.258 362.019 302.92C362.737 301.947 363.435 300.964 364.023 299.951C364.093 299.821 364.203 299.712 364.273 299.583C364.552 299.086 364.741 298.56 364.991 298.053C365.35 297.328 365.729 296.603 366.018 295.868C366.078 295.719 366.178 295.57 366.237 295.411C366.447 294.845 366.566 294.259 366.736 293.683C366.935 293.028 367.165 292.372 367.304 291.697C367.334 291.548 367.404 291.409 367.434 291.26C367.663 290.107 367.823 288.935 367.893 287.763C367.913 287.495 367.923 287.237 367.933 286.969C367.943 286.74 367.943 286.502 367.943 286.273L368.022 264.859Z" fill="url(#paint14_linear_932_35672)"/>
</g>
<path d="M76.3066 134.658C76.3066 131.754 78.3452 130.577 80.8598 132.029L165.001 180.608C167.516 182.06 169.555 185.591 169.555 188.494L169.555 257.18C169.555 260.084 167.516 261.261 165.001 259.809L80.8598 211.23C78.3452 209.778 76.3066 206.247 76.3066 203.343L76.3066 134.658Z" fill="url(#paint15_linear_932_35672)" fill-opacity="0.29"/>
<path d="M70 137.775C70 134.872 72.0385 133.695 74.5532 135.147L158.695 183.726C161.209 185.178 163.248 188.709 163.248 191.612L163.248 260.298C163.248 263.202 161.209 264.379 158.695 262.927L74.5532 214.348C72.0385 212.896 70 209.365 70 206.461L70 137.775Z" fill="#3A98FF"/>
<path d="M118.502 246.307C118.502 247.455 117.695 247.92 116.7 247.346C115.705 246.771 114.898 245.374 114.898 244.226C114.898 243.077 115.705 242.612 116.7 243.187C117.695 243.761 118.502 245.158 118.502 246.307Z" fill="#3A98FF"/>
<path d="M118.502 256.705C118.502 257.853 117.695 258.319 116.7 257.744C115.705 257.17 114.898 255.773 114.898 254.624C114.898 253.476 115.705 253.01 116.7 253.585C117.695 254.159 118.502 255.556 118.502 256.705Z" fill="#3A98FF"/>
<path d="M118.502 267.103C118.502 268.252 117.695 268.717 116.7 268.143C115.705 267.568 114.898 266.171 114.898 265.023C114.898 263.874 115.705 263.409 116.7 263.983C117.695 264.558 118.502 265.955 118.502 267.103Z" fill="#3A98FF"/>
<path d="M118.502 277.502C118.502 278.65 117.695 279.116 116.7 278.541C115.705 277.966 114.898 276.57 114.898 275.421C114.898 274.272 115.705 273.807 116.7 274.382C117.695 274.956 118.502 276.353 118.502 277.502Z" fill="#3A98FF"/>
<path d="M118.502 287.9C118.502 289.049 117.695 289.514 116.7 288.939C115.705 288.365 114.898 286.968 114.898 285.819C114.898 284.671 115.705 284.205 116.7 284.78C117.695 285.355 118.502 286.751 118.502 287.9Z" fill="#3A98FF"/>
<path d="M120.153 301.158C120.153 303.36 118.607 304.252 116.7 303.15C114.792 302.049 113.246 299.372 113.246 297.17C113.246 294.969 114.792 294.077 116.7 295.178C118.607 296.28 120.153 298.957 120.153 301.158Z" fill="#3A98FF"/>
<path fill-rule="evenodd" clip-rule="evenodd" d="M151.623 193.192C152.067 193.962 152.067 194.795 151.623 195.051L137.402 203.262L125.33 196.291L110.013 211.7L94.2873 190.957L77.4061 200.703C76.9615 200.96 76.2408 200.544 75.7963 199.774C75.3518 199.004 75.3518 198.172 75.7963 197.915L93.9745 187.42L109.438 207.817L124.172 192.994L136.459 200.088L150.013 192.263C150.457 192.006 151.178 192.422 151.623 193.192Z" fill="white"/>
<path d="M99.1392 194.052C99.1392 197.318 96.8458 198.642 94.0168 197.009C91.1879 195.376 88.8945 191.403 88.8945 188.137C88.8945 184.87 91.1879 183.546 94.0168 185.179C96.8458 186.813 99.1392 190.785 99.1392 194.052Z" fill="#3A98FF"/>
<path fill-rule="evenodd" clip-rule="evenodd" d="M94.0168 194.38C95.5885 195.288 96.8626 194.552 96.8626 192.737C96.8626 190.922 95.5885 188.716 94.0168 187.808C92.4452 186.901 91.1711 187.636 91.1711 189.451C91.1711 191.266 92.4452 193.473 94.0168 194.38ZM94.0168 197.009C96.8458 198.642 99.1392 197.318 99.1392 194.052C99.1392 190.785 96.8458 186.813 94.0168 185.179C91.1879 183.546 88.8945 184.87 88.8945 188.137C88.8945 191.403 91.1879 195.376 94.0168 197.009Z" fill="white"/>
<path d="M130.1 197.995C130.1 201.261 127.807 202.585 124.978 200.952C122.149 199.319 119.855 195.347 119.855 192.08C119.855 188.813 122.149 187.489 124.978 189.123C127.807 190.756 130.1 194.728 130.1 197.995Z" fill="#3A98FF"/>
<path fill-rule="evenodd" clip-rule="evenodd" d="M124.978 198.323C126.549 199.231 127.824 198.495 127.824 196.68C127.824 194.865 126.549 192.659 124.978 191.751C123.406 190.844 122.132 191.58 122.132 193.394C122.132 195.209 123.406 197.416 124.978 198.323ZM124.978 200.952C127.807 202.585 130.1 201.261 130.1 197.995C130.1 194.728 127.807 190.756 124.978 189.123C122.149 187.489 119.855 188.813 119.855 192.08C119.855 195.347 122.149 199.319 124.978 200.952Z" fill="white"/>
<g clip-path="url(#clip2_932_35672)">
<g opacity="0.3" filter="url(#filter3_f_932_35672)">
<path d="M431.133 528.26C427.165 525.961 426.956 521.989 431.133 519.69L507.982 474.96C511.95 472.661 518.633 472.661 522.601 474.96L599.868 519.69C603.836 521.989 604.044 525.961 599.868 528.26L523.227 572.99C519.259 575.29 512.577 575.29 508.609 572.99L431.133 528.26Z" fill="#96AEE5"/>
</g>
<path d="M603.002 465.345C603.002 465.554 603.002 465.554 603.002 465.763L603.002 465.972C603.002 466.181 603.002 466.181 603.002 466.39L603.002 466.599C603.002 466.808 603.002 466.808 602.793 467.017C602.793 467.226 602.584 467.226 602.584 467.435C602.584 467.644 602.375 467.644 602.166 467.853C601.957 468.062 601.957 468.062 601.749 468.271C601.749 468.271 601.54 468.48 601.331 468.48L601.122 468.689C600.913 468.689 600.913 468.898 600.704 468.898C600.496 468.898 600.496 469.107 600.287 469.107L523.228 514.047L523.02 569.228L599.869 524.498C599.869 524.498 599.869 524.498 600.078 524.498L600.287 524.289C600.496 524.289 600.496 524.08 600.704 524.08L600.913 523.871C601.122 523.871 601.122 523.662 601.331 523.662C601.54 523.453 601.54 523.453 601.749 523.244L601.957 523.035C601.957 523.035 601.957 522.826 602.166 522.826C602.166 522.617 602.375 522.617 602.375 522.407C602.375 522.198 602.375 522.198 602.584 521.989L602.584 521.78C602.584 521.78 602.584 521.571 602.584 521.362L602.584 521.153C602.584 521.153 602.584 520.944 602.584 520.735L602.584 520.526L602.793 465.345C603.002 465.136 603.002 465.345 603.002 465.345Z" fill="#E4E7FB"/>
<path d="M431.132 469.316C429.044 468.062 428 466.599 428 464.927L428 520.108C428 521.571 429.044 523.244 431.132 524.498L508.4 569.228L508.609 514.047L431.132 469.316Z" fill="#EFF1FE"/>
<path d="M599.87 460.746C603.838 463.045 604.047 467.017 599.87 469.316L523.229 514.046C519.261 516.346 512.579 516.346 508.611 514.046L431.344 469.316C427.376 467.017 427.167 463.045 431.344 460.746L507.985 416.225C511.952 413.925 518.635 413.925 522.603 416.225L599.87 460.746Z" fill="white"/>
<path d="M431.133 465.972C427.165 463.673 426.956 459.701 431.133 457.402L507.982 412.672C511.95 410.372 518.633 410.372 522.601 412.672L599.868 457.402C603.836 459.701 604.044 463.673 599.868 465.972L523.227 510.702C519.259 513.002 512.577 513.002 508.609 510.702L431.133 465.972Z" fill="url(#paint16_linear_932_35672)"/>
<path d="M521.974 569.647C522.391 569.438 523.644 568.811 523.853 568.602L523.853 513.63C523.644 513.839 522.391 514.466 522.182 514.466C522.182 514.466 521.974 514.466 521.974 514.675C521.765 514.884 521.347 514.884 521.138 514.884C521.138 514.884 520.929 514.884 520.929 515.093C520.721 515.093 520.512 515.093 520.303 515.302C520.094 515.302 520.094 515.302 519.885 515.511C519.676 515.511 519.468 515.511 519.259 515.72C519.05 515.72 519.05 515.72 518.841 515.72C518.423 515.72 518.006 515.929 517.588 515.929C517.379 515.929 517.379 515.929 517.171 515.929C516.962 515.929 516.753 515.929 516.544 515.929C516.335 515.929 516.335 515.929 516.126 515.929C515.918 515.929 515.709 515.929 515.5 515.929C515.291 515.929 515.082 515.929 515.082 515.929C514.873 515.929 514.665 515.929 514.665 515.929C514.456 515.929 514.247 515.929 514.247 515.929C514.038 515.929 513.829 515.929 513.829 515.929C513.62 515.929 513.412 515.929 513.412 515.929C513.203 515.929 512.994 515.929 512.785 515.929C512.576 515.929 512.576 515.929 512.367 515.929C512.159 515.929 511.95 515.929 511.741 515.72C511.532 515.72 511.532 515.72 511.323 515.72C510.906 515.511 510.488 515.511 510.279 515.302C510.07 515.302 509.861 515.093 509.861 515.093C509.861 515.093 509.653 515.093 509.653 514.884C509.026 514.257 507.564 513.421 507.355 513.421L507.355 568.602C507.564 568.811 508.817 569.438 509.235 569.647C509.235 569.647 509.444 569.647 509.444 569.856C509.653 569.856 509.653 570.065 509.861 570.065C510.279 570.275 510.488 570.275 510.906 570.484H511.114C511.323 570.484 511.532 570.693 511.741 570.693H511.95H512.159C512.367 570.693 512.576 570.693 512.785 570.693H512.994H513.203C513.412 570.693 513.62 570.693 513.62 570.693H513.829H514.038C514.247 570.693 514.456 570.693 514.456 570.693H514.665H514.873C515.082 570.693 515.291 570.693 515.5 570.693H515.709H515.918C516.126 570.693 516.335 570.693 516.544 570.693H516.753C517.171 570.693 517.588 570.693 518.006 570.484C518.215 570.484 518.215 570.484 518.423 570.484C518.632 570.484 518.841 570.484 519.05 570.274C519.259 570.274 519.259 570.275 519.468 570.065C519.676 570.065 519.885 570.065 520.094 569.856C520.094 569.856 520.094 569.856 520.303 569.856H520.512C520.721 569.856 521.138 569.647 521.347 569.438C521.974 569.647 521.974 569.647 521.974 569.647Z" fill="url(#paint17_linear_932_35672)"/>
<path d="M488.562 515.928L484.594 513.629C483.341 513.002 482.297 513.42 482.297 514.883C482.297 516.346 483.341 518.018 484.594 518.645L488.353 520.945C489.606 521.572 490.65 521.154 490.65 519.69C490.65 518.227 489.815 516.555 488.562 515.928Z" fill="#96AEE5"/>
<path d="M488.562 524.079L484.594 521.78C483.341 521.153 482.297 521.571 482.297 523.034C482.297 524.497 483.341 526.17 484.594 526.797L488.353 529.096C489.606 529.723 490.65 529.305 490.65 527.842C490.65 526.588 489.815 524.916 488.562 524.079Z" fill="#96AEE5"/>
<path d="M488.562 532.441L484.594 530.142C483.341 529.514 482.297 529.933 482.297 531.396C482.297 532.859 483.341 534.531 484.594 535.158L488.353 537.457C489.606 538.084 490.65 537.666 490.65 536.203C490.65 534.74 489.815 533.068 488.562 532.441Z" fill="#40FFC6"/>
<path d="M488.562 540.592L484.594 538.293C483.341 537.666 482.297 538.084 482.297 539.547C482.297 541.01 483.341 542.682 484.594 543.31L488.353 545.609C489.606 546.236 490.65 545.818 490.65 544.355C490.65 543.101 489.815 541.219 488.562 540.592Z" fill="#96AEE5"/>
<path d="M499.628 521.78L495.66 519.48C494.407 518.853 493.363 519.271 493.363 520.735C493.363 522.198 494.407 523.87 495.66 524.497L499.628 526.796C500.881 527.423 501.925 527.005 501.925 525.542C501.925 524.079 500.881 522.407 499.628 521.78Z" fill="#2595FF"/>
<path d="M499.628 529.934L495.66 527.635C494.407 527.008 493.363 527.426 493.363 528.889C493.363 530.352 494.407 532.024 495.66 532.651L499.628 534.95C500.881 535.578 501.925 535.159 501.925 533.696C501.925 532.442 500.881 530.561 499.628 529.934Z" fill="#96AEE5"/>
<path d="M499.628 538.084L495.66 535.785C494.407 535.158 493.363 535.576 493.363 537.039C493.363 538.502 494.407 540.175 495.66 540.802L499.628 543.101C500.881 543.728 501.925 543.31 501.925 541.847C501.925 540.593 500.881 538.92 499.628 538.084Z" fill="#96AEE5"/>
<path d="M499.628 546.447L495.66 544.147C494.407 543.52 493.363 543.938 493.363 545.401C493.363 546.865 494.407 548.537 495.66 549.164L499.628 551.463C500.881 552.09 501.925 551.672 501.925 550.209C501.925 548.955 500.881 547.074 499.628 546.447Z" fill="#96AEE5"/>
<path d="M474.153 532.231L435.102 509.657C433.849 509.03 432.805 509.448 432.805 510.911C432.805 512.374 433.849 514.047 435.102 514.674L474.153 537.248C475.406 537.875 476.45 537.457 476.45 535.994C476.45 534.74 475.406 533.067 474.153 532.231Z" fill="url(#paint18_linear_932_35672)"/>
<path d="M474.153 520.735L435.102 498.161C433.849 497.534 432.805 497.952 432.805 499.415C432.805 500.878 433.849 502.551 435.102 503.178L474.153 525.752C475.406 526.379 476.45 525.961 476.45 524.498C476.45 523.035 475.406 521.362 474.153 520.735Z" fill="url(#paint19_linear_932_35672)"/>
<path d="M474.153 509.029L435.102 486.455C433.849 485.828 432.805 486.246 432.805 487.709C432.805 489.172 433.849 490.845 435.102 491.472L474.153 514.046C475.406 514.673 476.45 514.255 476.45 512.792C476.45 511.329 475.406 509.656 474.153 509.029Z" fill="url(#paint20_linear_932_35672)"/>
<path d="M585.876 522.198L536.801 550.833L536.801 516.136L585.876 487.5L585.876 522.198Z" fill="url(#paint21_linear_932_35672)"/>
<path d="M513.414 465.441L532.995 454.121C537.063 451.769 543.755 451.732 547.897 454.127L520.87 469.751L513.414 465.441Z" fill="url(#paint22_linear_932_35672)"/>
<path fill-rule="evenodd" clip-rule="evenodd" d="M521.283 469.514C529.142 464.97 529.134 457.631 521.264 453.082C513.394 448.532 500.7 448.527 492.84 453.071C484.98 457.615 484.988 464.953 492.858 469.503C500.728 474.053 513.423 474.057 521.283 469.514ZM513.62 465.084C517.205 463.011 517.201 459.661 513.611 457.586C510.021 455.51 504.157 455.468 500.572 457.541C496.987 459.613 496.991 462.964 500.58 465.039C504.17 467.114 510.034 467.156 513.62 465.084Z" fill="url(#paint23_radial_932_35672)"/>
</g>
</g>
<defs>
<filter id="filter0_f_932_35672" x="238" y="123.806" width="273.625" height="187.562" filterUnits="userSpaceOnUse" color-interpolation-filters="sRGB">
<feFlood flood-opacity="0" result="BackgroundImageFix"/>
<feBlend mode="normal" in="SourceGraphic" in2="BackgroundImageFix" result="shape"/>
<feGaussianBlur stdDeviation="17.5" result="effect1_foregroundBlur_932_35672"/>
</filter>
<filter id="filter1_f_932_35672" x="356.32" y="202.1" width="361.68" height="238.4" filterUnits="userSpaceOnUse" color-interpolation-filters="sRGB">
<feFlood flood-opacity="0" result="BackgroundImageFix"/>
<feBlend mode="normal" in="SourceGraphic" in2="BackgroundImageFix" result="shape"/>
<feGaussianBlur stdDeviation="17.5" result="effect1_foregroundBlur_932_35672"/>
</filter>
<filter id="filter2_f_932_35672" x="179" y="306.98" width="227.461" height="161.505" filterUnits="userSpaceOnUse" color-interpolation-filters="sRGB">
<feFlood flood-opacity="0" result="BackgroundImageFix"/>
<feBlend mode="normal" in="SourceGraphic" in2="BackgroundImageFix" result="shape"/>
<feGaussianBlur stdDeviation="5.5" result="effect1_foregroundBlur_932_35672"/>
</filter>
<filter id="filter3_f_932_35672" x="424.078" y="469.235" width="182.844" height="109.479" filterUnits="userSpaceOnUse" color-interpolation-filters="sRGB">
<feFlood flood-opacity="0" result="BackgroundImageFix"/>
<feBlend mode="normal" in="SourceGraphic" in2="BackgroundImageFix" result="shape"/>
<feGaussianBlur stdDeviation="2" result="effect1_foregroundBlur_932_35672"/>
</filter>
<linearGradient id="paint0_linear_932_35672" x1="58.1585" y1="0" x2="58.1585" y2="151.395" gradientUnits="userSpaceOnUse">
<stop stop-color="#E5F2FF" stop-opacity="0"/>
<stop offset="1" stop-color="#C9DAEC" stop-opacity="0.89"/>
</linearGradient>
<linearGradient id="paint1_linear_932_35672" x1="58.1585" y1="0" x2="58.1585" y2="151.899" gradientUnits="userSpaceOnUse">
<stop offset="0.442975" stop-color="#E5F2FF" stop-opacity="0"/>
<stop offset="1" stop-color="#D4E4F3" stop-opacity="0.47"/>
</linearGradient>
<linearGradient id="paint2_linear_932_35672" x1="58.1585" y1="0" x2="58.1585" y2="116.317" gradientUnits="userSpaceOnUse">
<stop stop-color="#E9F3FF"/>
<stop offset="1" stop-color="#F4F7FF"/>
</linearGradient>
<linearGradient id="paint3_linear_932_35672" x1="83.3081" y1="0" x2="83.3081" y2="88.3426" gradientUnits="userSpaceOnUse">
<stop stop-color="#E5F2FF" stop-opacity="0"/>
<stop offset="1" stop-color="#C9DAEC" stop-opacity="0.89"/>
</linearGradient>
<linearGradient id="paint4_linear_932_35672" x1="83.3081" y1="0" x2="83.3081" y2="88.4586" gradientUnits="userSpaceOnUse">
<stop offset="0.442975" stop-color="#E5F2FF" stop-opacity="0"/>
<stop offset="1" stop-color="#D4E4F3" stop-opacity="0.47"/>
</linearGradient>
<linearGradient id="paint5_linear_932_35672" x1="83.3081" y1="0" x2="83.3081" y2="166.616" gradientUnits="userSpaceOnUse">
<stop stop-color="#E9F3FF"/>
<stop offset="1" stop-color="#F4F7FF"/>
</linearGradient>
<linearGradient id="paint6_linear_932_35672" x1="463.095" y1="47.6892" x2="463.095" y2="278.83" gradientUnits="userSpaceOnUse">
<stop stop-color="#40FFC6"/>
<stop offset="1" stop-color="#2595FF"/>
</linearGradient>
<linearGradient id="paint7_linear_932_35672" x1="282.714" y1="382.463" x2="229.119" y2="431.221" gradientUnits="userSpaceOnUse">
<stop stop-color="#9ED3FC"/>
<stop offset="1" stop-color="#D2E6F8"/>
</linearGradient>
<linearGradient id="paint8_linear_932_35672" x1="200.294" y1="339.776" x2="385.644" y2="407.511" gradientUnits="userSpaceOnUse">
<stop stop-color="#40FFC6"/>
<stop offset="0.482292" stop-color="#00DFFF"/>
<stop offset="1" stop-color="#2595FF"/>
</linearGradient>
<linearGradient id="paint9_linear_932_35672" x1="284.039" y1="444.484" x2="400.448" y2="420.505" gradientUnits="userSpaceOnUse">
<stop stop-color="#DEEFFF"/>
<stop offset="0.951042" stop-color="#E4EBF9"/>
</linearGradient>
<linearGradient id="paint10_linear_932_35672" x1="356.199" y1="306.94" x2="206.822" y2="220.849" gradientUnits="userSpaceOnUse">
<stop stop-color="#40FFC6"/>
<stop offset="0.482292" stop-color="#00DFFF"/>
<stop offset="1" stop-color="#2595FF"/>
</linearGradient>
<linearGradient id="paint11_linear_932_35672" x1="293.191" y1="319.089" x2="379.325" y2="319.089" gradientUnits="userSpaceOnUse">
<stop stop-color="#4CD9ED"/>
<stop offset="0.2713" stop-color="#4AC5ED"/>
<stop offset="0.8256" stop-color="#4591EC"/>
<stop offset="1" stop-color="#437FEC"/>
</linearGradient>
<linearGradient id="paint12_linear_932_35672" x1="202.57" y1="353.281" x2="293.548" y2="353.281" gradientUnits="userSpaceOnUse">
<stop stop-color="#9ED3FC"/>
<stop offset="0.386072" stop-color="white"/>
<stop offset="1" stop-color="#EEF5FB"/>
</linearGradient>
<linearGradient id="paint13_linear_932_35672" x1="254.333" y1="239.912" x2="366.885" y2="273.18" gradientUnits="userSpaceOnUse">
<stop stop-color="#40FFC6"/>
<stop offset="0.482292" stop-color="#00DFFF"/>
<stop offset="1" stop-color="#2595FF"/>
</linearGradient>
<linearGradient id="paint14_linear_932_35672" x1="248.283" y1="296.833" x2="368.025" y2="296.833" gradientUnits="userSpaceOnUse">
<stop stop-color="#F3F8FC"/>
<stop offset="0.6277" stop-color="#EEF5FB"/>
<stop offset="1" stop-color="#96CFFC"/>
</linearGradient>
<linearGradient id="paint15_linear_932_35672" x1="122.931" y1="156.318" x2="88.6356" y2="215.719" gradientUnits="userSpaceOnUse">
<stop offset="0.51875" stop-color="#1383FE"/>
<stop offset="1" stop-color="#3A98FF" stop-opacity="0"/>
</linearGradient>
<linearGradient id="paint16_linear_932_35672" x1="515.578" y1="512.36" x2="515.578" y2="411" gradientUnits="userSpaceOnUse">
<stop stop-color="#F1F4FE"/>
<stop offset="0.5797" stop-color="#F7F9FE"/>
<stop offset="1" stop-color="white"/>
</linearGradient>
<linearGradient id="paint17_linear_932_35672" x1="507.321" y1="542.094" x2="523.957" y2="542.094" gradientUnits="userSpaceOnUse">
<stop stop-color="#EFF1FE"/>
<stop offset="1" stop-color="#E4E7FB"/>
</linearGradient>
<linearGradient id="paint18_linear_932_35672" x1="432.876" y1="523.476" x2="476.351" y2="523.476" gradientUnits="userSpaceOnUse">
<stop stop-color="#48FAC9"/>
<stop offset="0.505208" stop-color="#4AE6FF"/>
<stop offset="1" stop-color="#2595FF"/>
</linearGradient>
<linearGradient id="paint19_linear_932_35672" x1="432.876" y1="511.98" x2="476.351" y2="511.98" gradientUnits="userSpaceOnUse">
<stop stop-color="#48FAC9"/>
<stop offset="0.505208" stop-color="#4AE6FF"/>
<stop offset="1" stop-color="#2595FF"/>
</linearGradient>
<linearGradient id="paint20_linear_932_35672" x1="432.876" y1="500.274" x2="476.351" y2="500.274" gradientUnits="userSpaceOnUse">
<stop stop-color="#48FAC9"/>
<stop offset="0.505208" stop-color="#4AE6FF"/>
<stop offset="1" stop-color="#2595FF"/>
</linearGradient>
<linearGradient id="paint21_linear_932_35672" x1="518.609" y1="489.717" x2="585.792" y2="519.156" gradientUnits="userSpaceOnUse">
<stop stop-color="#48FAC9"/>
<stop offset="0.505208" stop-color="#4AE6FF"/>
<stop offset="1" stop-color="#2595FF"/>
</linearGradient>
<linearGradient id="paint22_linear_932_35672" x1="517.154" y1="467.576" x2="529.099" y2="446.913" gradientUnits="userSpaceOnUse">
<stop offset="0.2862" stop-color="#2499FF"/>
<stop offset="1" stop-color="#05D6FF"/>
</linearGradient>
<radialGradient id="paint23_radial_932_35672" cx="0" cy="0" r="1" gradientUnits="userSpaceOnUse" gradientTransform="translate(513.049 448.333) rotate(86.5229) scale(17.3816 28.2907)">
<stop stop-color="#00FFB3"/>
<stop offset="1" stop-color="#2499FF"/>
</radialGradient>
<clipPath id="clip0_932_35672">
<rect width="766" height="615" fill="white"/>
</clipPath>
<clipPath id="clip1_932_35672">
<rect width="249" height="237" fill="white" transform="translate(190 222)"/>
</clipPath>
<clipPath id="clip2_932_35672">
<rect width="175" height="169" fill="white" transform="translate(428 411)"/>
</clipPath>
</defs>
</svg>
