<svg width="766" height="615" viewBox="0 0 766 615" fill="none" xmlns="http://www.w3.org/2000/svg">
<g clip-path="url(#clip0_962_22397)">
<path fill-rule="evenodd" clip-rule="evenodd" d="M395.673 235.271L22.7206 450.595C9.32843 458.327 9.32841 470.863 22.7206 478.595L131.897 541.628C145.289 549.36 167.002 549.36 180.395 541.628L553.347 326.304C566.739 318.572 566.739 306.036 553.347 298.304L444.17 235.271C430.778 227.539 409.065 227.539 395.673 235.271ZM20.9886 449.595C6.6398 457.879 6.63978 471.31 20.9886 479.595L130.165 542.628C144.514 550.912 167.778 550.912 182.127 542.628L555.079 327.304C569.428 319.02 569.428 305.588 555.079 297.304L445.902 234.271C431.554 225.986 408.29 225.986 393.941 234.271L20.9886 449.595Z" fill="#D8ECFF"/>
<path fill-rule="evenodd" clip-rule="evenodd" d="M510.186 353.659L250.361 503.669C236.969 511.401 236.969 523.937 250.361 531.669L373.36 602.682C386.752 610.414 408.465 610.414 421.857 602.682L681.682 452.672C695.074 444.94 695.074 432.404 681.682 424.672L558.683 353.659C545.291 345.927 523.578 345.927 510.186 353.659ZM248.629 502.669C234.28 510.953 234.28 524.385 248.629 532.669L371.628 603.682C385.977 611.967 409.241 611.967 423.589 603.682L683.414 453.672C697.763 445.388 697.763 431.957 683.414 423.672L560.415 352.659C546.067 344.375 522.803 344.375 508.454 352.659L248.629 502.669Z" fill="#D8ECFF"/>
<path d="M417.212 245.787C420.04 247.419 420.04 250.066 417.213 251.698C414.385 253.33 409.802 253.33 406.974 251.698C404.147 250.066 404.147 247.419 406.974 245.787C409.802 244.155 414.385 244.155 417.212 245.787Z" fill="#23FBB2"/>
<path d="M647.465 435.059C645.795 435.059 643.709 434.225 641.623 433.391L394.784 290.473C386.856 285.885 380.18 274.624 380.18 265.449L380.18 97.8325C380.18 92.4106 391.698 86 395.871 86C397.54 86 399.627 86.8341 401.713 87.6682L646.791 228.018C654.719 232.606 661.396 243.866 661.396 253.042L661.396 420.578C660.978 426 651.22 435.059 647.465 435.059Z" fill="#DEECFB"/>
<path d="M402.116 88.3881C402.116 88.3881 401.698 88.388 401.698 87.971C401.281 87.971 401.281 87.5539 400.864 87.5539C400.864 87.5539 400.446 87.5539 400.446 87.1368C400.446 87.1368 400.029 87.1368 400.029 86.7198C399.612 86.7198 399.612 86.7198 399.195 86.3027H398.777C398.36 86.3027 398.36 86.3027 397.943 86.3027H397.526C397.108 86.3027 397.108 86.3027 396.691 86.3027C396.274 86.3027 396.274 86.3027 395.856 86.3027C395.439 86.3027 395.439 86.3027 395.022 86.3027C394.605 86.3027 394.605 86.3027 394.187 86.3027C393.77 86.3027 393.77 86.3027 393.353 86.3027C392.935 86.3027 392.518 86.3027 392.101 86.7198C391.684 86.7198 391.266 87.1368 390.849 87.1368L384.59 90.8904C385.007 90.4733 385.424 90.4734 385.842 90.4734C385.842 90.4734 385.842 90.4734 386.259 90.4734C386.676 90.4734 387.094 90.0563 387.511 90.0563C387.928 90.0563 388.345 90.0563 389.18 90.0563C389.597 90.0563 390.432 90.0563 390.849 90.4734C391.266 90.4734 391.684 90.8904 392.101 90.8904C392.518 90.8904 392.935 91.3075 393.77 91.3075C394.187 91.7245 394.605 91.7245 395.439 92.1416L639.547 233.109L645.807 229.355L402.116 88.3881Z" fill="url(#paint0_linear_962_22397)"/>
<path d="M655.402 259.39L654.985 422.879C654.985 423.296 654.985 424.13 654.985 424.547C654.985 424.964 654.985 425.382 654.567 425.799C654.567 426.216 654.567 426.633 654.15 427.05C654.15 427.05 654.15 427.05 654.15 427.467C654.15 427.884 653.733 428.301 653.733 428.718C653.733 429.135 653.316 429.552 653.316 429.969C652.898 430.386 652.481 430.803 652.064 431.22C652.064 431.22 652.064 431.22 651.646 431.637C651.229 432.055 650.812 432.472 650.395 432.472C652.481 431.22 654.567 429.969 656.654 428.718C657.071 428.301 657.488 428.301 657.906 427.884C657.906 427.884 657.906 427.884 658.323 427.467C658.74 427.05 659.157 426.633 659.575 426.216C659.992 425.799 659.992 425.382 659.992 424.965C659.992 424.547 660.409 424.547 660.409 424.13L660.409 423.713C660.409 423.713 660.409 423.713 660.409 423.296C660.409 423.296 660.409 423.296 660.409 422.879C660.409 422.462 660.409 422.462 660.827 422.045C660.827 422.045 660.827 422.045 660.827 421.628C660.827 421.628 660.827 421.628 660.827 421.211C660.827 420.794 660.827 420.794 660.827 420.377L660.827 419.96C660.827 419.543 660.827 419.543 660.827 419.126C660.827 418.709 660.827 418.709 660.827 418.291L661.244 254.803L655.402 259.39Z" fill="url(#paint1_linear_962_22397)"/>
<path d="M639.965 234.359C648.311 239.364 655.404 251.459 655.404 261.051L654.987 424.54C654.987 434.549 647.893 438.303 639.548 433.298L395.439 292.331C386.676 287.326 380 275.231 380 265.639L380.417 102.15C380.417 92.1405 387.511 88.387 395.857 93.3917L639.965 234.359Z" fill="#CFE8FF"/>
<path d="M639.965 232.692C648.311 237.697 655.404 249.792 655.404 259.384L654.987 422.873C654.987 432.882 647.893 436.636 639.548 431.631L395.439 290.664C386.676 285.659 380 273.564 380 263.972L380.417 100.483C380.417 90.4736 387.511 86.72 395.857 91.7247L639.965 232.692Z" fill="white"/>
<path d="M646.641 432.05C644.972 432.05 642.885 431.216 640.799 430.382L396.691 289.414C388.762 284.827 382.086 273.566 382.086 264.391L382.503 100.902C382.503 95.4801 385.007 92.1436 389.18 92.1436C390.849 92.1436 392.935 92.9777 395.022 93.8118L639.13 234.779C647.058 239.367 653.735 250.628 653.735 259.803L653.317 423.292C652.9 428.713 650.397 432.05 646.641 432.05Z" fill="url(#paint2_linear_962_22397)"/>
<path d="M400.864 199.337L402.533 198.503L400.864 199.337C400.446 199.337 400.446 199.337 400.864 199.337Z" fill="#75797F"/>
<path d="M425.402 166.976C432.905 171.591 439.253 181.974 439.253 191.204L439.253 202.164C439.253 210.817 432.905 214.855 425.402 210.24L415.59 204.471C408.087 199.857 401.738 189.473 401.738 180.243L401.738 169.283C401.738 160.63 408.087 156.592 415.59 161.207L425.402 166.976Z" fill="white"/>
<path d="M483.484 275.163L485.154 274.329L485.154 289.343L483.484 290.177L483.484 275.163Z" fill="#E4E7FB"/>
<path d="M439.254 249.727L440.923 248.893L485.155 274.333L483.485 275.168L439.254 249.727Z" fill="url(#paint3_linear_962_22397)"/>
<path d="M483.485 275.169L483.485 290.184L439.254 264.743L439.254 249.729L483.485 275.169Z" fill="#48FAC9"/>
<path d="M536.02 305.566L537.689 304.731L537.689 319.746L536.02 320.58L536.02 305.566Z" fill="#E4E7FB"/>
<path d="M491.789 280.129L493.458 279.295L537.69 304.736L536.021 305.57L491.789 280.129Z" fill="url(#paint4_linear_962_22397)"/>
<path d="M536.021 305.572L536.021 320.586L491.789 295.145L491.789 280.131L536.021 305.572Z" fill="#48FAC9"/>
<path d="M589.605 336.06L591.275 335.226L591.275 350.24L589.605 351.074L589.605 336.06Z" fill="#E4E7FB"/>
<path d="M545.375 310.623L547.044 309.789L591.276 335.23L589.607 336.064L545.375 310.623Z" fill="url(#paint5_linear_962_22397)"/>
<path d="M589.607 336.066L589.607 351.08L545.375 325.639L545.375 310.625L589.607 336.066Z" fill="#48FAC9"/>
<path d="M643.191 366.539L644.861 365.705L644.861 380.719L643.191 381.553L643.191 366.539Z" fill="#E4E7FB"/>
<path d="M598.961 341.103L600.63 340.269L644.862 365.709L643.193 366.544L598.961 341.103Z" fill="url(#paint6_linear_962_22397)"/>
<path d="M643.193 366.545L643.193 381.56L598.961 356.119L598.961 341.104L643.193 366.545Z" fill="#48FAC9"/>
<path d="M614.787 378.648L614.787 389.074L594.34 376.979L594.34 366.97L614.787 378.648Z" fill="url(#paint7_linear_962_22397)"/>
<path d="M614.789 378.644L616.458 377.81L616.458 388.236L614.789 389.07L614.789 378.644Z" fill="#E4E7FB"/>
<path d="M594.34 366.968L596.009 366.134L616.456 377.812L614.787 378.646L594.34 366.968Z" fill="url(#paint8_linear_962_22397)"/>
<path d="M642.373 394.378L642.373 404.805L621.926 392.71L621.926 382.7L642.373 394.378Z" fill="url(#paint9_linear_962_22397)"/>
<path d="M642.375 394.374L644.044 393.54L644.044 403.967L642.375 404.801L642.375 394.374Z" fill="#E4E7FB"/>
<path d="M621.926 382.698L623.595 381.864L644.042 393.542L642.373 394.376L621.926 382.698Z" fill="url(#paint10_linear_962_22397)"/>
<path d="M135.101 477.184L133.773 478.211L132.637 479.287L131.693 480.41L130.951 481.581L130.401 482.764L130.042 483.97L129.887 485.189L129.887 502.824L129.923 504.055L130.15 505.262L130.568 506.468L131.178 507.639L131.992 508.798L132.996 509.898L134.18 510.961L135.113 511.654L136.584 512.586L225.284 563.759L226.922 564.608L228.704 565.372L230.57 566.029L232.519 566.567L234.54 566.997L236.597 567.32L238.69 567.523L240.794 567.618L242.911 567.595L245.016 567.463L247.097 567.224L249.142 566.866L251.139 566.4L253.064 565.826L254.894 565.133L256.09 564.608L257.716 563.759L346.416 512.586L347.899 511.642L349.227 510.614L350.363 509.539L351.296 508.416L352.049 507.257L352.599 506.062L352.958 504.855L353.113 503.649L353.113 486.001L353.077 484.783L352.85 483.564L352.432 482.369L351.822 481.186L351.009 480.039L350.004 478.928L348.82 477.865L347.887 477.172L135.101 477.184Z" fill="#CFE8FF"/>
<path d="M136.584 475.427L135.101 476.371L133.773 477.399L132.637 478.474L131.693 479.597L130.951 480.756L130.401 481.951L130.042 483.158L129.887 484.365L129.887 502.012L129.923 503.231L130.15 504.449L130.568 505.644L131.178 506.827L131.992 507.974L132.996 509.085L134.18 510.148L135.113 510.841L136.584 511.773L225.284 562.935L226.922 563.795L228.704 564.56L230.57 565.217L232.519 565.755L234.54 566.185L236.597 566.507L238.69 566.71L240.794 566.806L242.911 566.782L245.016 566.651L247.097 566.412L249.142 566.053L251.139 565.587L253.064 565.014L254.894 564.321L256.09 563.783L257.716 562.935L346.416 511.773L347.899 510.829L349.227 509.802L350.363 508.727L351.296 507.603L352.049 506.445L352.599 505.25L352.958 504.043L353.113 502.824L353.113 485.189L353.077 483.958L352.85 482.752L352.432 481.545L351.822 480.374L351.009 479.215L350.004 478.104L348.82 477.052L347.887 476.359L345.914 475.188L136.584 475.427Z" fill="url(#paint11_linear_962_22397)"/>
<path d="M349.728 489.442L348.7 490.422L347.492 491.354L346.105 492.238L256.269 543.937L254.75 544.738L253.674 545.215L251.999 545.849L250.253 546.374L248.448 546.793L246.582 547.115L244.692 547.33L242.779 547.45L240.854 547.474L238.94 547.39L237.039 547.199L235.173 546.912L233.343 546.518L231.573 546.028L229.875 545.431L228.249 544.738L226.73 543.937L136.81 492.238L135.435 491.354L134.61 490.744L133.522 489.777L132.613 488.761L131.871 487.721L131.309 486.646L130.926 485.559L130.723 484.46L130.699 483.349L130.843 482.237L131.166 481.138L131.668 480.063L132.35 479.011L133.199 477.984L134.227 477.004L135.435 476.072L136.81 475.188L226.73 424.648L228.249 423.847L229.325 423.381L230.999 422.748L232.745 422.222L234.551 421.804L236.417 421.482L238.306 421.255L240.22 421.135L242.145 421.123L244.059 421.207L245.96 421.386L247.826 421.685L249.655 422.067L251.425 422.557L253.123 423.154L254.75 423.847L256.269 424.648L346.105 475.188L347.492 476.072L348.317 476.693L349.405 477.661L350.314 478.665L351.056 479.704L351.606 480.78L351.989 481.867L352.204 482.978L352.228 484.089L352.084 485.189L351.761 486.288L351.259 487.363L350.577 488.426L349.728 489.442Z" fill="white"/>
<path d="M348.522 488.797L347.494 489.777L346.286 490.721L344.91 491.593L256.27 542.718L254.752 543.519L253.675 543.985L252.001 544.618L250.255 545.144L248.449 545.574L246.584 545.897L244.694 546.112L242.781 546.231L240.855 546.243L238.942 546.159L237.04 545.98L235.175 545.693L233.345 545.299L231.575 544.809L229.877 544.212L228.25 543.519L226.732 542.718L138.092 491.593L136.716 490.721L135.891 490.099L134.803 489.131L133.894 488.116L133.152 487.076L132.59 486.001L132.208 484.914L132.004 483.815L131.98 482.703L132.124 481.592L132.447 480.505L132.949 479.418L133.619 478.366L134.48 477.339L135.508 476.359L136.716 475.427L138.092 474.555L226.732 423.429L228.25 422.629L229.327 422.151L231.001 421.529L232.747 421.004L234.553 420.574L236.418 420.251L238.308 420.036L240.221 419.916L242.147 419.893L244.06 419.976L245.962 420.167L247.827 420.454L249.657 420.848L251.427 421.338L253.125 421.936L254.752 422.629L256.27 423.429L344.91 474.555L346.286 475.427L347.111 476.048L348.199 477.016L349.108 478.02L349.849 479.059L350.412 480.135L350.794 481.234L350.998 482.333L351.021 483.444L350.878 484.543L350.555 485.643L350.053 486.718L349.383 487.781L348.522 488.797Z" fill="url(#paint12_linear_962_22397)"/>
<path d="M286.715 513.302C285.663 512.693 283.953 512.693 282.912 513.302C281.86 513.912 281.872 514.891 282.924 515.501C283.977 516.11 285.687 516.11 286.727 515.501C287.78 514.903 287.78 513.912 286.715 513.302Z" fill="#2595FF"/>
<path d="M282.914 513.684C283.966 513.075 285.665 513.075 286.717 513.684C287.159 513.947 287.423 514.27 287.494 514.604C287.59 514.138 287.339 513.661 286.717 513.314C285.665 512.705 283.954 512.705 282.914 513.314C282.304 513.661 282.053 514.138 282.149 514.604C282.22 514.258 282.472 513.935 282.914 513.684Z" fill="#2595FF"/>
<path d="M292.528 509.981C291.475 509.372 289.765 509.372 288.725 509.981C287.672 510.591 287.684 511.582 288.737 512.18C289.789 512.789 291.499 512.789 292.54 512.18C293.58 511.57 293.58 510.591 292.528 509.981Z" fill="#4CD9ED"/>
<path d="M288.715 510.363C289.767 509.754 291.465 509.754 292.518 510.363C292.96 510.626 293.223 510.949 293.295 511.283C293.391 510.817 293.14 510.34 292.518 509.993C291.465 509.384 289.755 509.384 288.715 509.993C288.105 510.34 287.854 510.817 287.949 511.283C288.021 510.937 288.272 510.614 288.715 510.363Z" fill="#4CD9ED"/>
<path d="M298.329 506.647C297.276 506.038 295.566 506.038 294.526 506.647C293.473 507.257 293.485 508.248 294.537 508.846C295.59 509.455 297.3 509.455 298.34 508.846C299.381 508.248 299.381 507.257 298.329 506.647Z" fill="#2595FF"/>
<path d="M294.516 507.029C295.568 506.42 297.266 506.42 298.319 507.029C298.761 507.292 299.024 507.615 299.096 507.949C299.192 507.483 298.94 507.006 298.319 506.659C297.266 506.05 295.556 506.05 294.516 506.659C293.906 507.006 293.655 507.483 293.75 507.949C293.822 507.603 294.073 507.292 294.516 507.029Z" fill="#2595FF"/>
<path d="M196.428 513.302C197.48 512.693 199.19 512.693 200.23 513.302C201.283 513.912 201.271 514.891 200.219 515.501C199.166 516.11 197.456 516.11 196.416 515.501C195.375 514.903 195.375 513.912 196.428 513.302Z" fill="#2595FF"/>
<path d="M200.241 513.684C199.188 513.075 197.49 513.075 196.438 513.684C195.995 513.947 195.732 514.27 195.66 514.604C195.565 514.138 195.816 513.661 196.438 513.314C197.49 512.705 199.2 512.705 200.241 513.314C200.851 513.661 201.102 514.138 201.006 514.604C200.934 514.258 200.683 513.935 200.241 513.684Z" fill="#2595FF"/>
<path d="M190.627 509.981C191.679 509.372 193.389 509.372 194.43 509.981C195.482 510.591 195.47 511.582 194.418 512.18C193.365 512.789 191.655 512.789 190.615 512.18C189.574 511.57 189.574 510.591 190.627 509.981Z" fill="#4CD9ED"/>
<path d="M194.44 510.363C193.387 509.754 191.689 509.754 190.637 510.363C190.194 510.626 189.931 510.949 189.86 511.283C189.764 510.817 190.015 510.34 190.637 509.993C191.689 509.384 193.399 509.384 194.44 509.993C195.05 510.34 195.301 510.817 195.205 511.283C195.133 510.937 194.882 510.614 194.44 510.363Z" fill="#4CD9ED"/>
<path d="M184.826 506.647C185.878 506.038 187.588 506.038 188.629 506.647C189.681 507.257 189.669 508.248 188.617 508.846C187.565 509.455 185.854 509.455 184.814 508.846C183.774 508.248 183.774 507.257 184.826 506.647Z" fill="#2595FF"/>
<path d="M188.639 507.029C187.587 506.42 185.889 506.42 184.836 507.029C184.394 507.292 184.131 507.615 184.059 507.949C183.963 507.483 184.214 507.006 184.836 506.659C185.889 506.05 187.599 506.05 188.639 506.659C189.249 507.006 189.5 507.483 189.404 507.949C189.333 507.603 189.07 507.292 188.639 507.029Z" fill="#2595FF"/>
<path d="M311.698 487.936L311.028 488.581L310.239 489.191L309.33 489.764L251.413 523.171L250.42 523.697L249.727 524.007L248.626 524.414L247.49 524.76L246.306 525.035L245.086 525.25L243.855 525.393L242.599 525.465L241.343 525.477L240.088 525.429L238.844 525.298L237.624 525.118L236.428 524.856L235.28 524.545L234.168 524.151L233.104 523.697L232.111 523.171L174.194 489.764L173.285 489.191L172.758 488.785L172.041 488.163L171.443 487.494L170.965 486.813L170.594 486.12L170.355 485.403L170.211 484.686L170.199 483.958L170.295 483.229L170.498 482.524L170.833 481.819L171.276 481.126L171.826 480.457L172.507 479.812L173.285 479.202L174.194 478.629L232.111 445.222L233.104 444.696L233.809 444.398L234.897 443.979L236.045 443.633L237.229 443.358L238.437 443.155L239.681 443.012L240.925 442.928L242.18 442.916L243.436 442.976L244.68 443.095L245.9 443.286L247.096 443.537L248.256 443.86L249.368 444.254L250.42 444.696L251.413 445.222L309.33 478.629L310.239 479.202L310.777 479.608L311.483 480.242L312.081 480.899L312.559 481.58L312.93 482.285L313.181 483.002L313.313 483.719L313.325 484.435L313.241 485.164L313.026 485.881L312.703 486.586L312.26 487.279L311.698 487.936Z" fill="url(#paint13_linear_962_22397)"/>
<path d="M309.403 285.918L309.391 285.178L309.247 284.437L308.996 283.708L308.613 282.991L308.123 282.286L307.513 281.617L306.796 280.972L306.233 280.554L305.026 279.837L177.746 297.902L176.837 298.476L176.036 299.097L175.342 299.754L174.768 300.435L174.326 301.14L173.979 301.869L173.764 302.598L173.668 303.339L173.668 470.623L173.668 470.695L173.668 482.691L173.764 483.419L173.979 484.16L174.314 484.877L174.768 485.582L175.342 486.275L176.036 486.932L176.837 487.553L177.746 488.127L231.681 519.228L232.662 519.753L233.391 520.076L234.503 520.494L235.675 520.841L236.883 521.127L238.127 521.343L239.395 521.486L240.674 521.57L241.966 521.581L243.245 521.522L244.513 521.402L245.769 521.211L246.989 520.948L248.173 520.614L249.309 520.219L250.397 519.753L251.389 519.228L305.325 488.127L306.221 487.553L306.784 487.135L307.513 486.49L308.123 485.821L308.613 485.116L308.984 484.399L309.235 483.67L309.379 482.93L309.403 482.189L309.403 473.001L309.403 285.918Z" fill="url(#paint14_linear_962_22397)"/>
<path d="M308.804 286.935L308.78 286.194L308.649 285.465L308.398 284.748L308.027 284.032L307.537 283.339L306.927 282.669L306.209 282.036L305.659 281.618L304.463 280.913L178.308 298.811L177.411 299.385L176.61 299.994L175.928 300.651L175.366 301.332L174.911 302.025L174.589 302.742L174.373 303.471L174.278 304.2L174.278 470.003L174.266 470.074L174.266 481.963L174.373 482.691L174.589 483.42L174.911 484.137L175.366 484.83L175.928 485.511L176.61 486.156L177.411 486.778L178.308 487.351L231.764 518.177L232.745 518.691L233.463 519.014L234.563 519.432L235.723 519.778L236.931 520.053L238.163 520.268L239.418 520.423L240.686 520.495L241.954 520.507L243.233 520.447L244.489 520.328L245.733 520.137L246.94 519.874L248.112 519.551L249.249 519.157L250.313 518.691L251.305 518.177L304.762 487.351L305.647 486.79L306.209 486.371L306.927 485.726L307.525 485.057L308.015 484.364L308.386 483.659L308.637 482.93L308.78 482.202L308.792 481.473L308.792 472.368H308.804L308.804 286.935Z" fill="url(#paint15_linear_962_22397)"/>
<path d="M307.347 288.499L306.725 289.097L305.984 289.67L305.111 290.399L250.518 339.565L249.597 340.043L248.951 340.33L247.923 340.712L246.859 341.035L245.758 341.298L244.634 341.489L243.486 341.62L242.314 341.692L241.154 341.704L239.982 341.656L238.822 341.537L237.686 341.369L236.574 341.13L235.498 340.832L234.469 340.473L233.489 340.043L232.556 339.565L177.891 308.118L177.042 307.58L176.54 307.21L175.882 306.625L175.332 306.015L174.877 305.37L174.543 304.725L174.303 304.056L174.184 303.387L174.172 302.718L174.256 302.036L174.447 301.379L174.758 300.722L175.164 300.077L175.691 299.456L176.313 298.858L177.042 298.297L177.891 297.759L232.556 249.107L233.489 248.617L234.134 248.33L235.151 247.948L236.215 247.637L237.315 247.374L238.451 247.183L239.6 247.04L240.76 246.968L241.932 246.956L243.092 247.016L244.252 247.123L245.388 247.303L246.5 247.542L247.576 247.84L248.617 248.199L249.597 248.617L250.518 249.107L305.147 279.837L305.984 280.375L306.486 280.745L307.156 281.342L307.706 281.952L308.149 282.585L308.495 283.242L308.723 283.899L308.854 284.568L308.866 285.25L308.782 285.919L308.579 286.588L308.28 287.245L307.862 287.878L307.347 288.499Z" fill="#2595FF"/>
<path d="M306.618 288.118L305.984 288.715L305.254 289.277L304.417 289.814L250.518 338.813L249.597 339.303L248.951 339.59L247.923 339.972L246.859 340.295L245.758 340.546L244.634 340.749L243.486 340.88L242.314 340.952L241.154 340.964L239.982 340.916L238.822 340.796L237.686 340.617L236.574 340.39L235.498 340.092L234.469 339.721L233.489 339.303L232.556 338.813L178.668 307.724L177.819 307.199L177.317 306.816L176.659 306.231L176.109 305.621L175.655 304.988L175.32 304.331L175.081 303.674L174.961 302.993L174.949 302.324L175.033 301.655L175.224 300.986L175.535 300.328L175.942 299.683L176.468 299.062L177.09 298.465L177.819 297.903L178.668 297.365L231.037 249.74L233.489 247.877L234.134 247.59L235.151 247.208L236.215 246.885L237.315 246.634L238.451 246.431L239.6 246.299L240.76 246.228L241.932 246.216L243.092 246.264L244.252 246.383L245.388 246.562L246.5 246.801L247.576 247.1L248.617 247.458L249.597 247.877L250.518 248.366L304.417 279.455L305.254 279.981L305.757 280.363L306.414 280.949L306.977 281.558L307.419 282.191L307.766 282.848L307.993 283.506L308.125 284.187L308.137 284.856L308.053 285.525L307.85 286.194L307.551 286.851L307.132 287.496L306.618 288.118Z" fill="url(#paint16_linear_962_22397)"/>
<path opacity="0.65" d="M306.618 277.902L305.996 278.499L305.266 279.073C296.68 286.839 252.467 328.502 247.325 329.971C246.452 330.222 245.543 330.401 244.646 330.533L243.498 330.664L242.338 330.736L241.166 330.748L239.994 330.7L238.834 330.593L237.698 330.413L236.586 330.174L235.509 329.876L234.469 329.517L233.488 329.099L232.555 328.597L178.668 297.508L177.831 296.971L177.329 296.6L176.671 296.015L176.121 295.406L175.678 294.772L175.344 294.127L175.104 293.458L174.985 292.789L174.961 292.12L175.033 291.439L175.224 290.77L175.523 290.113L175.93 289.467L176.444 288.846L177.066 288.249C178.573 286.887 180.091 285.525 181.598 284.163C185.305 280.805 189.025 277.46 192.732 274.102C197.432 269.861 202.12 265.619 206.82 261.378C211.28 257.351 215.741 253.325 220.202 249.298C223.204 246.586 226.217 243.862 229.219 241.15C231.312 239.262 233.464 237.482 236.191 236.669L237.291 236.406L238.427 236.215L239.575 236.084L240.735 236.012L241.931 236L243.091 236.048L244.251 236.155L245.387 236.335L246.5 236.574L247.576 236.872L248.616 237.231L249.597 237.649L250.53 238.139L304.417 269.227L305.254 269.765L305.756 270.136L306.414 270.721L306.964 271.33L307.407 271.964L307.742 272.621L307.969 273.29L308.1 273.959L308.112 274.628L308.017 275.297L307.825 275.966L307.526 276.623L307.12 277.269L306.618 277.902Z" fill="#40FFC6"/>
<path opacity="0.4" d="M308.052 274.64L307.861 275.309L307.562 275.966L307.155 276.611L306.641 277.233L305.983 277.818L305.254 278.392C296.667 286.158 252.455 327.821 247.312 329.29C246.439 329.541 245.53 329.72 244.634 329.852L243.486 329.983L242.325 330.055L241.154 330.067L239.982 330.019L238.821 329.9L237.685 329.72L236.573 329.481L235.497 329.195L234.456 328.836L233.476 328.418L232.555 327.928L178.668 296.839L177.831 296.302L177.328 295.931L176.671 295.346L176.12 294.737L175.678 294.103L175.343 293.446L175.116 292.777L174.996 292.108L174.996 291.988L174.984 292.108L175.008 292.777L175.128 293.446L175.355 294.115L175.69 294.76L176.132 295.394L176.683 296.003L177.34 296.588L177.843 296.959L178.68 297.497L232.555 328.597L233.476 329.087L234.456 329.505L235.497 329.864L236.573 330.162L237.685 330.401L238.821 330.581L239.982 330.688L241.154 330.736L242.325 330.724L243.486 330.652L244.634 330.521C245.53 330.377 246.439 330.21 247.312 329.959C252.455 328.49 296.667 286.827 305.254 279.061L305.983 278.487L306.605 277.89L307.119 277.268L307.526 276.623L307.825 275.966L308.016 275.297L308.1 274.628L308.088 274.066L308.052 274.64Z" fill="#40FFC6"/>
<path d="M217.257 285.107L221.192 272.896L237.013 267.543L248.877 274.389L244.942 286.6L229.12 291.953L217.257 285.107ZM249.02 274.342L237.025 267.424L221.12 272.824H221.084L217.125 285.119L217.102 285.143L229.096 292.06L245.002 286.66L245.038 286.648L248.996 274.354L249.02 274.342Z" fill="white"/>
<path d="M216.566 285.728L220.201 272.836L236.717 266.862L249.597 273.744L245.937 286.66L229.422 292.634L216.566 285.728ZM249.716 273.697L236.777 266.779L236.729 266.755L220.13 272.777L220.106 272.801L216.398 285.776L216.398 285.812L229.338 292.73L229.386 292.754L246.009 286.72L246.033 286.696L249.716 273.733L249.716 273.697Z" fill="white"/>
<path d="M215.834 286.361L219.207 272.764L236.44 266.145L250.288 273.111L246.94 286.684L229.707 293.303L215.834 286.361ZM250.42 273.075L236.512 266.074L236.464 266.05L219.123 272.729L219.099 272.752L215.715 286.397L215.715 286.433L229.647 293.411L229.695 293.435L247.012 286.779L247.035 286.756L250.42 273.111L250.42 273.075Z" fill="white"/>
<path d="M215.14 286.982L218.201 272.728L236.152 265.476L251.005 272.477L247.931 286.755L229.981 294.008L215.14 286.982ZM251.136 272.429L236.212 265.392L236.164 265.368L218.13 272.668L218.106 272.692L214.984 287.03L214.984 287.066L229.921 294.091L229.945 294.103L247.979 286.839L248.003 286.815L251.124 272.477L251.136 272.429Z" fill="white"/>
<path d="M214.424 287.627L217.235 272.692L235.867 264.807L251.712 271.868L248.902 286.803L230.27 294.689L214.424 287.627ZM251.856 271.82L251.832 271.808L235.927 264.711L235.903 264.699L217.151 272.609L217.127 272.633L214.305 287.651L214.305 287.687L230.21 294.784L230.246 294.772L249.01 286.863L249.034 286.839L251.856 271.82Z" fill="white"/>
<path d="M213.73 288.249L216.241 272.633L235.567 264.126L252.429 271.235L249.894 286.875L230.568 295.382L213.73 288.249ZM252.549 271.176L235.627 264.031L235.579 264.007L216.146 272.574H216.098L213.562 288.273L213.562 288.309L230.484 295.454L230.508 295.466L249.966 286.911H250.002L252.537 271.211L252.549 271.176Z" fill="white"/>
<path d="M213.015 288.883L215.239 272.586L235.282 263.433L253.125 270.602L250.901 286.899L230.857 296.052L213.015 288.883ZM253.269 270.531L235.33 263.35L235.306 263.338L215.155 272.514L215.119 272.526L212.895 288.919L212.871 288.943L230.786 296.147L230.81 296.159L250.96 286.983L251.02 286.959L253.245 270.566L253.269 270.531Z" fill="white"/>
<path d="M212.308 289.504L214.233 272.525L235.006 262.74L253.841 269.969L251.892 286.971L231.119 296.732L212.308 289.504ZM253.973 269.909L235.054 262.668L235.03 262.656L214.173 272.454L214.113 272.478L212.188 289.551L212.164 289.575L231.083 296.816L231.107 296.828L251.976 287.006L251.999 286.983L253.949 269.921L253.973 269.909Z" fill="white"/>
<path d="M211.588 290.149L213.25 272.466L234.741 262.071L254.545 269.347L252.883 287.03L231.392 297.425L211.588 290.149ZM254.664 269.264L234.777 261.975H234.729L213.155 272.418L213.131 272.442L211.48 290.185L211.48 290.22L231.368 297.509L231.392 297.521L252.966 287.078L252.99 287.054L254.664 269.299L254.664 269.264Z" fill="white"/>
<path d="M210.897 290.77L212.261 272.406L234.445 261.39L255.265 268.702L253.902 287.066L231.694 298.106L210.897 290.77ZM255.361 268.642L234.481 261.294L234.457 261.282L212.165 272.358L212.141 272.382L210.754 290.818L210.754 290.854L231.658 298.19L231.682 298.202L253.974 287.126L253.998 287.102L255.361 268.678L255.361 268.642Z" fill="white"/>
<path d="M210.178 291.403L211.278 272.37L234.156 260.697L255.969 268.069L254.869 287.102L231.991 298.775L210.178 291.403ZM256.089 267.997L234.192 260.613L234.168 260.601L211.159 272.322L211.135 272.346L210.07 291.439L210.07 291.475L231.943 298.883H231.991L254.976 287.186L255 287.162L256.089 268.045L256.089 267.997Z" fill="white"/>
<path d="M209.471 292.025L210.272 272.31L233.856 260.016L256.673 267.424L255.848 287.15L232.277 299.456L209.471 292.025ZM256.781 267.376L233.891 259.92L233.868 259.908L210.189 272.263L210.153 272.275L209.352 292.072L209.352 292.108L232.241 299.564L232.265 299.576L255.944 287.222H255.98L256.781 267.424L256.781 267.376Z" fill="white"/>
<path d="M208.756 292.67L209.282 272.263L233.583 259.335L257.369 266.826L256.855 287.222L232.566 300.137L208.756 292.67ZM257.501 266.743L233.607 259.251L233.583 259.239L209.199 272.203L209.163 272.215L208.648 292.694L208.648 292.73L232.519 300.245L232.543 300.257L256.951 287.257H256.999L257.501 266.778L257.501 266.743Z" fill="white"/>
<path d="M208.061 293.292L208.276 272.227L233.295 258.654L258.074 266.169L257.859 287.27L232.84 300.831L208.061 293.292ZM258.193 266.122L233.307 258.571L233.283 258.559L208.193 272.167L208.169 272.191L207.93 293.339L207.93 293.375L232.816 300.926L232.84 300.938L257.942 287.329L257.966 287.306L258.205 266.158L258.193 266.122Z" fill="white"/>
<path d="M207.355 293.936L207.283 272.155L232.995 257.961L258.767 265.536L258.839 287.317L233.127 301.511L207.355 293.936ZM258.898 265.5L233.043 257.865L233.007 257.877L207.2 272.107L207.176 272.131L207.236 293.96L207.236 293.996L233.115 301.607L233.139 301.619L258.934 287.377L258.958 287.353L258.898 265.5Z" fill="white"/>
<path d="M206.662 294.558L206.291 272.096L232.709 257.28L259.485 264.903L259.856 287.365L233.426 302.193L206.662 294.558ZM259.616 264.855L232.756 257.185H232.709L206.208 272.048L206.184 272.072L206.53 294.618L206.506 294.642L233.39 302.288L233.414 302.3L259.939 287.413L259.963 287.389L259.592 264.867L259.616 264.855Z" fill="white"/>
<path d="M205.945 295.203L205.287 272.059L232.422 256.611L260.191 264.293L260.825 287.425L233.714 302.873L205.945 295.203ZM260.311 264.234L260.287 264.222L232.446 256.503L232.434 256.491L205.204 272.012L205.18 272.036L205.837 295.239L205.837 295.275L233.678 302.993L233.714 302.981L260.933 287.484L260.956 287.461L260.311 264.234Z" fill="white"/>
<path d="M229.791 277.185C229.11 276.791 229.026 276.205 229.6 275.692C230.174 275.178 230.975 275.13 231.633 275.512C232.398 275.955 232.363 276.588 231.884 277.018C231.358 277.484 230.473 277.579 229.791 277.185ZM232.004 275.154C231.131 274.652 229.935 274.736 229.134 275.453C228.356 276.146 228.464 276.958 229.361 277.484C229.983 277.842 230.784 277.914 231.466 277.615L231.143 277.938C229.971 278.977 228.751 279.157 227.794 278.595C227.447 278.404 227.196 278.189 227.125 277.902L226.562 278.117C226.67 278.428 227.005 278.703 227.4 278.93C228.619 279.635 230.21 279.431 231.669 278.141C233.044 276.922 233.2 275.847 232.004 275.154Z" fill="white"/>
<path d="M233.702 279.443C232.996 279.037 232.937 278.463 233.511 277.95C234.085 277.436 234.886 277.388 235.52 277.758C236.285 278.201 236.261 278.846 235.795 279.276C235.269 279.742 234.384 279.837 233.702 279.443ZM235.891 277.4C235.018 276.898 233.822 276.982 233.02 277.699C232.243 278.392 232.363 279.216 233.248 279.73C233.869 280.088 234.671 280.16 235.352 279.861L235.03 280.184C233.858 281.223 232.638 281.403 231.681 280.841C231.334 280.638 231.083 280.435 231.011 280.148L230.449 280.363C230.581 280.686 230.88 280.949 231.286 281.176C232.506 281.88 234.097 281.677 235.556 280.387C236.931 279.168 237.086 278.093 235.891 277.4Z" fill="white"/>
<path d="M237.985 284.629C237.578 284.39 237.626 283.936 238.188 283.446C238.738 282.957 239.372 282.801 239.778 283.04C240.209 283.291 240.137 283.757 239.575 284.247C239.025 284.737 238.415 284.88 237.985 284.629ZM240.041 282.801C239.444 282.455 238.559 282.646 237.865 283.267C237.171 283.889 237.1 284.546 237.697 284.892C238.319 285.251 239.192 285.059 239.898 284.438C240.592 283.817 240.663 283.16 240.041 282.801ZM242.421 281.224L242.039 280.997L234.672 283.064L235.031 283.279L242.421 281.224ZM237.291 281.236C236.86 280.985 236.908 280.531 237.47 280.041C238.02 279.551 238.654 279.396 239.085 279.647C239.491 279.886 239.42 280.352 238.869 280.842C238.295 281.344 237.686 281.475 237.291 281.236ZM239.336 279.42C238.714 279.061 237.841 279.253 237.135 279.874C236.442 280.495 236.37 281.152 236.992 281.511C237.59 281.857 238.475 281.666 239.168 281.045C239.886 280.4 239.934 279.754 239.336 279.42Z" fill="white"/>
<path d="M291.907 286.947L272.234 275.608L271.66 276.11L291.333 287.461L291.907 286.947Z" fill="white"/>
<path d="M283.835 284.067L271.027 276.683L270.477 277.173L283.285 284.557L283.835 284.067Z" fill="white"/>
<path d="M282.577 285.179L269.769 277.795L269.219 278.285L282.027 285.681L282.577 285.179Z" fill="white"/>
<path d="M282.098 286.828L268.465 278.966L267.879 279.48L281.524 287.341L282.098 286.828Z" fill="white"/>
<path d="M270.261 295.537L269.256 294.964L267.929 295.394L267.594 296.433L268.598 297.019L269.938 296.553L270.261 295.537Z" fill="white"/>
<path d="M267.595 296.434L267.917 295.394L269.257 294.964L270.261 295.549L269.927 296.565L268.599 297.031L267.595 296.434ZM272.223 294.868L269.747 293.435L266.447 294.546L265.609 297.103L268.085 298.536L271.398 297.401L272.223 294.868Z" fill="#4CD9ED"/>
<path d="M264.663 300.52L263.659 299.946L262.296 300.4L261.973 301.44L262.977 302.025L264.305 301.559L264.663 300.52Z" fill="white"/>
<path d="M261.973 301.44L262.296 300.4L263.647 299.946L264.652 300.52L264.305 301.547L262.977 302.013L261.973 301.44ZM266.601 299.863L264.125 298.429L260.837 299.54L260.023 302.085L262.499 303.519L265.788 302.408L266.601 299.863Z" fill="#4CD9ED"/>
<path d="M259.031 305.526L258.026 304.952L256.675 305.406L256.34 306.446L257.344 307.031L258.684 306.565L259.031 305.526Z" fill="white"/>
<path d="M256.34 306.445L256.675 305.406L258.026 304.952L259.031 305.537L258.684 306.565L257.356 307.031L256.34 306.445ZM260.968 304.868L258.493 303.435L255.204 304.546L254.391 307.091L256.866 308.524L260.155 307.413L260.968 304.868Z" fill="#4CD9ED"/>
<path d="M253.41 310.532L252.405 309.959L251.042 310.401L250.719 311.452L251.723 312.026L253.051 311.56L253.41 310.532Z" fill="white"/>
<path d="M250.719 311.452L251.054 310.412L252.405 309.958L253.41 310.544L253.063 311.571L251.735 312.037L250.719 311.452ZM255.371 309.851L252.895 308.417L249.583 309.552L248.77 312.097L251.245 313.531L254.534 312.42L255.371 309.851Z" fill="#4CD9ED"/>
<path d="M346.357 262.956C349.184 264.588 349.184 267.234 346.357 268.867C343.53 270.499 338.946 270.499 336.119 268.867C333.292 267.234 333.292 264.588 336.119 262.956C338.946 261.323 343.53 261.323 346.357 262.956Z" fill="#40FFC6"/>
<path d="M524.964 197.602C514.503 211.076 500.803 209.194 494.364 193.398C487.925 177.601 491.185 153.872 501.646 140.398C512.106 126.923 525.806 128.805 532.245 144.602C538.684 160.398 535.424 184.127 524.964 197.602Z" fill="url(#paint17_linear_962_22397)"/>
<path fill-rule="evenodd" clip-rule="evenodd" d="M495.591 191.818C501.613 206.591 514.425 208.352 524.209 195.75C533.992 183.147 537.041 160.955 531.018 146.182C524.996 131.408 512.184 129.648 502.4 142.25C492.617 154.852 489.568 177.044 495.591 191.818ZM494.364 193.398C500.803 209.194 514.503 211.076 524.964 197.602C535.424 184.127 538.684 160.398 532.245 144.602C525.806 128.805 512.106 126.923 501.646 140.398C491.185 153.872 487.925 177.601 494.364 193.398Z" fill="url(#paint18_linear_962_22397)"/>
<g filter="url(#filter0_f_962_22397)">
<path d="M681.145 350.005C665.761 369.821 645.614 367.053 636.145 343.822C626.675 320.592 631.469 285.696 646.853 265.88C662.236 246.064 682.384 248.832 691.853 272.062C701.322 295.293 696.528 330.189 681.145 350.005Z" fill="url(#paint19_linear_962_22397)"/>
</g>
<g filter="url(#filter1_f_962_22397)">
<path fill-rule="evenodd" clip-rule="evenodd" d="M637.371 342.243C646.424 364.45 665.684 367.096 680.39 348.153C695.096 329.209 699.679 295.85 690.627 273.642C681.574 251.435 662.314 248.789 647.608 267.732C632.902 286.676 628.319 320.035 637.371 342.243ZM636.145 343.822C645.614 367.053 665.761 369.821 681.145 350.005C696.528 330.189 701.322 295.293 691.853 272.062C682.384 248.832 662.236 246.064 646.853 265.88C631.469 285.696 626.675 320.592 636.145 343.822Z" fill="url(#paint20_linear_962_22397)"/>
</g>
<path d="M512.363 183.116C511.023 184.843 509.651 185.619 508.248 185.444C506.861 185.249 505.639 184.175 504.581 182.222L502.523 184.873L501.555 182.498L503.59 179.877C502.874 177.772 502.547 175.599 502.608 173.358C502.67 171.117 503.121 168.986 503.961 166.966L507.294 169.106C506.34 171.488 506.165 173.714 506.77 175.781L510.815 170.57L510.801 170.535L510.795 170.434C510.551 168.551 510.431 166.741 510.436 165.004C510.451 162.066 511.295 159.412 512.967 157.041C514.355 155.254 515.728 154.511 517.088 154.814C518.508 155.148 519.667 156.213 520.566 158.01L522.6 155.389L523.568 157.764L521.487 160.445C522.532 164 522.358 167.684 520.964 171.497L517.698 169.434C518.402 167.662 518.605 166.031 518.307 164.541L514.402 169.571C514.728 172.646 514.871 174.716 514.828 175.779C514.697 178.723 513.875 181.169 512.363 183.116ZM514.923 161.927C514.58 162.369 514.344 162.925 514.214 163.598C514.099 164.25 514.073 165.148 514.136 166.293L517.409 162.076C516.625 160.852 515.796 160.802 514.923 161.927ZM511.152 173.758L507.785 178.095C508.604 179.347 509.458 179.4 510.346 178.255C511.048 177.352 511.316 175.853 511.152 173.758Z" fill="white"/>
<g filter="url(#filter2_f_962_22397)">
<path d="M662.617 328.703C660.646 331.243 658.628 332.384 656.566 332.126C654.526 331.839 652.728 330.26 651.173 327.388L648.147 331.286L646.723 327.794L649.715 323.94C648.662 320.844 648.181 317.648 648.271 314.352C648.361 311.056 649.025 307.923 650.261 304.953L655.162 308.099C653.759 311.603 653.502 314.875 654.391 317.915L660.341 310.252L660.319 310.2L660.311 310.052C659.951 307.282 659.776 304.621 659.783 302.067C659.805 297.746 661.046 293.842 663.506 290.356C665.546 287.728 667.566 286.636 669.566 287.081C671.653 287.571 673.358 289.138 674.68 291.781L677.672 287.927L679.096 291.419L676.035 295.362C677.572 300.589 677.315 306.007 675.266 311.615L670.463 308.581C671.498 305.975 671.797 303.577 671.358 301.386L665.616 308.783C666.095 313.306 666.304 316.349 666.243 317.912C666.049 322.242 664.841 325.839 662.617 328.703ZM666.382 297.541C665.878 298.191 665.53 299.01 665.339 299.998C665.17 300.957 665.132 302.279 665.224 303.962L670.038 297.761C668.885 295.961 667.666 295.887 666.382 297.541ZM660.836 314.94L655.884 321.319C657.088 323.159 658.344 323.238 659.651 321.554C660.682 320.225 661.077 318.021 660.836 314.94Z" fill="white"/>
</g>
<path d="M127.467 399.631C127.467 410.389 119.914 414.75 110.597 409.371C101.28 403.991 93.7266 390.909 93.7266 380.151C93.7266 369.392 101.28 365.032 110.597 370.411C119.914 375.79 127.467 388.872 127.467 399.631Z" fill="url(#paint21_linear_962_22397)"/>
<path fill-rule="evenodd" clip-rule="evenodd" d="M110.597 407.371C118.957 412.197 125.735 408.284 125.735 398.631C125.735 388.977 118.957 377.238 110.597 372.411C102.236 367.584 95.4586 371.497 95.4586 381.151C95.4586 390.805 102.236 402.544 110.597 407.371ZM110.597 409.371C119.914 414.75 127.467 410.389 127.467 399.631C127.467 388.872 119.914 375.79 110.597 370.411C101.28 365.032 93.7266 369.392 93.7266 380.151C93.7266 390.909 101.28 403.991 110.597 409.371Z" fill="url(#paint22_linear_962_22397)"/>
<path d="M124.826 401.328C124.826 412.086 117.273 416.447 107.956 411.068C98.6389 405.689 91.0859 392.607 91.0859 381.848C91.0859 371.09 98.6389 366.729 107.956 372.108C117.273 377.487 124.826 390.57 124.826 401.328Z" fill="url(#paint23_linear_962_22397)"/>
<path fill-rule="evenodd" clip-rule="evenodd" d="M107.956 409.068C116.316 413.895 123.094 409.982 123.094 400.328C123.094 390.674 116.316 378.935 107.956 374.108C99.5955 369.281 92.818 373.194 92.818 382.848C92.818 392.502 99.5955 404.241 107.956 409.068ZM107.956 411.068C117.273 416.447 124.826 412.086 124.826 401.328C124.826 390.57 117.273 377.487 107.956 372.108C98.6389 366.729 91.0859 371.09 91.0859 381.848C91.0859 392.607 98.6389 405.689 107.956 411.068Z" fill="url(#paint24_linear_962_22397)"/>
<path d="M112.947 398.984C112.947 400.363 112.564 401.28 111.798 401.735C111.031 402.175 110.007 402.112 108.724 401.548L108.724 403.665L107.324 402.856L107.324 400.764C106.153 399.992 105.15 399.035 104.313 397.895C103.477 396.755 102.878 395.519 102.516 394.188L105.003 393.965C105.449 395.521 106.223 396.697 107.324 397.493L107.324 393.332L107.303 393.32L107.261 393.272C106.411 392.429 105.651 391.573 104.982 390.706C103.854 389.237 103.247 387.588 103.164 385.76C103.164 384.333 103.561 383.432 104.355 383.057C105.191 382.674 106.181 382.756 107.324 383.304L107.324 381.212L108.724 382.02L108.724 384.161C110.62 385.528 111.958 387.43 112.738 389.869L110.313 390.104C109.979 388.949 109.449 388.058 108.724 387.431L108.724 391.448C110.076 392.853 110.947 393.829 111.338 394.375C112.411 395.893 112.947 397.429 112.947 398.984ZM106.028 387.438C106.028 387.79 106.125 388.159 106.32 388.545C106.515 388.914 106.85 389.371 107.324 389.917L107.324 386.551C106.46 386.244 106.028 386.54 106.028 387.438ZM108.724 394.79L108.724 398.254C109.616 398.56 110.062 398.256 110.062 397.343C110.062 396.621 109.616 395.77 108.724 394.79Z" fill="white"/>
<path d="M22.1992 298.226C22.1992 293.447 25.5545 291.509 29.6934 293.899L91.5628 329.619C95.7017 332.009 99.057 337.82 99.057 342.6L99.057 390.572C99.057 395.352 95.7017 397.289 91.5628 394.899L29.6934 359.179C25.5545 356.789 22.1992 350.978 22.1992 346.199L22.1992 298.226Z" fill="url(#paint25_linear_962_22397)" fill-opacity="0.29"/>
<path d="M17 300.795C17 296.016 20.3553 294.079 24.4942 296.468L86.3636 332.189C90.5025 334.578 93.8578 340.39 93.8578 345.169L93.8578 393.142C93.8578 397.921 90.5025 399.858 86.3636 397.469L24.4942 361.748C20.3553 359.359 17 353.547 17 348.768L17 300.795Z" fill="#2595FF"/>
<path d="M56.9743 385.93C56.9743 386.877 56.3093 387.26 55.4891 386.787C54.6688 386.313 54.0039 385.162 54.0039 384.215C54.0039 383.268 54.6688 382.885 55.4891 383.358C56.3093 383.832 56.9743 384.983 56.9743 385.93Z" fill="#2595FF"/>
<path d="M56.9743 394.5C56.9743 395.447 56.3093 395.831 55.4891 395.357C54.6688 394.884 54.0039 393.732 54.0039 392.786C54.0039 391.839 54.6688 391.455 55.4891 391.929C56.3093 392.402 56.9743 393.554 56.9743 394.5Z" fill="#2595FF"/>
<path d="M56.9743 403.072C56.9743 404.018 56.3093 404.402 55.4891 403.928C54.6688 403.455 54.0039 402.303 54.0039 401.357C54.0039 400.41 54.6688 400.026 55.4891 400.5C56.3093 400.974 56.9743 402.125 56.9743 403.072Z" fill="#2595FF"/>
<path d="M56.9743 411.642C56.9743 412.589 56.3093 412.972 55.4891 412.498C54.6688 412.025 54.0039 410.874 54.0039 409.927C54.0039 408.98 54.6688 408.597 55.4891 409.07C56.3093 409.544 56.9743 410.695 56.9743 411.642Z" fill="#2595FF"/>
<path d="M56.9743 420.213C56.9743 421.159 56.3093 421.543 55.4891 421.069C54.6688 420.596 54.0039 419.444 54.0039 418.498C54.0039 417.551 54.6688 417.167 55.4891 417.641C56.3093 418.114 56.9743 419.266 56.9743 420.213Z" fill="#2595FF"/>
<path d="M58.3377 431.14C58.3377 432.955 57.0632 433.69 55.4911 432.782C53.919 431.875 52.6445 429.668 52.6445 427.854C52.6445 426.039 53.919 425.304 55.4911 426.212C57.0632 427.119 58.3377 429.326 58.3377 431.14Z" fill="#2595FF"/>
<path d="M67.4518 352.474C67.4518 361.86 60.8623 365.665 52.7337 360.972C44.6051 356.279 38.0156 344.865 38.0156 335.479C38.0156 326.093 44.6051 322.289 52.7337 326.982C60.8623 331.675 67.4518 343.088 67.4518 352.474Z" fill="white"/>
<path d="M44.4129 342.539C44.4129 343.747 44.6281 345.067 45.0462 346.424C45.4642 347.781 46.077 349.148 46.8495 350.448C47.622 351.748 48.5391 352.955 49.5484 354C50.5576 355.045 51.6394 355.907 52.7319 356.538C53.8243 357.168 54.9061 357.555 55.9154 357.676C56.9247 357.796 57.8417 357.648 58.6142 357.241C59.3867 356.833 59.9995 356.173 60.4175 355.299C60.8356 354.424 61.0508 353.353 61.0508 352.145C61.0508 352.145 56.0059 348.083 52.7319 346.193C49.4578 344.303 44.4129 342.539 44.4129 342.539Z" fill="#2595FF"/>
<path d="M48.9338 337.35C49.2649 337.541 49.5381 337.387 49.4883 336.98C49.4558 336.714 49.4056 336.442 49.3385 336.17C49.2099 335.647 49.0213 335.131 48.7836 334.651C48.5459 334.17 48.2638 333.735 47.9532 333.37C47.6427 333.005 47.3098 332.718 46.9737 332.523C46.6375 332.329 46.3047 332.233 45.9941 332.239C45.6836 332.246 45.4014 332.355 45.1637 332.561C44.926 332.766 44.7375 333.065 44.6088 333.439C44.5417 333.634 44.4916 333.848 44.459 334.076C44.4092 334.426 44.6824 334.895 45.0136 335.086V335.086C45.3447 335.278 45.6039 335.111 45.698 334.799C45.704 334.779 45.7102 334.76 45.7167 334.741C45.7851 334.542 45.8853 334.383 46.0116 334.274C46.138 334.165 46.2879 334.107 46.453 334.103C46.6181 334.1 46.795 334.151 46.9737 334.254C47.1523 334.357 47.3293 334.51 47.4943 334.704C47.6594 334.898 47.8094 335.13 47.9357 335.385C48.0621 335.64 48.1623 335.915 48.2307 336.192C48.2372 336.219 48.2434 336.245 48.2493 336.272C48.3435 336.693 48.6027 337.159 48.9338 337.35V337.35Z" fill="#2595FF"/>
<path d="M60.4533 344C60.7844 344.191 61.0576 344.037 61.0079 343.63C60.9753 343.364 60.9252 343.092 60.858 342.82C60.7294 342.297 60.5408 341.781 60.3032 341.301C60.0655 340.82 59.7833 340.385 59.4727 340.02C59.1622 339.655 58.8293 339.368 58.4932 339.174C58.1571 338.98 57.8242 338.883 57.5137 338.889C57.2031 338.896 56.9209 339.005 56.6832 339.211C56.4456 339.417 56.257 339.715 56.1284 340.089C56.0613 340.284 56.0111 340.498 55.9785 340.727C55.9288 341.076 56.202 341.545 56.5331 341.737V341.737C56.8642 341.928 57.1234 341.761 57.2176 341.449C57.2235 341.429 57.2297 341.41 57.2362 341.391C57.3046 341.192 57.4048 341.034 57.5312 340.924C57.6575 340.815 57.8075 340.757 57.9725 340.753C58.1376 340.75 58.3145 340.801 58.4932 340.904C58.6719 341.008 58.8488 341.16 59.0139 341.354C59.1789 341.548 59.3289 341.78 59.4553 342.035C59.5816 342.29 59.6818 342.565 59.7502 342.842C59.7567 342.869 59.7629 342.895 59.7688 342.922C59.863 343.343 60.1222 343.809 60.4533 344V344Z" fill="#2595FF"/>
<path d="M352.357 442.956C355.184 444.588 355.184 447.234 352.357 448.867C349.53 450.499 344.946 450.499 342.119 448.867C339.292 447.234 339.292 444.588 342.119 442.956C344.946 441.323 349.53 441.323 352.357 442.956Z" fill="#3A98FF"/>
<path d="M409.539 391.98C409.539 385.049 414.405 382.24 420.407 385.705L510.129 437.506C516.131 440.971 520.996 449.399 520.996 456.33L520.996 525.899C520.996 532.829 516.131 535.639 510.129 532.173L420.407 480.373C414.405 476.907 409.539 468.479 409.539 461.549L409.539 391.98Z" fill="url(#paint26_linear_962_22397)" fill-opacity="0.29"/>
<path d="M402 395.706C402 388.776 406.866 385.966 412.868 389.432L502.59 441.233C508.592 444.698 513.457 453.126 513.457 460.056L513.457 529.625C513.457 536.556 508.592 539.365 502.589 535.9L412.868 484.099C406.866 480.634 402 472.206 402 465.275L402 395.706Z" fill="#2595FF"/>
<path d="M459.972 519.167C459.972 520.54 459.007 521.096 457.818 520.409C456.628 519.723 455.664 518.053 455.664 516.68C455.664 515.307 456.628 514.751 457.818 515.438C459.007 516.124 459.972 517.794 459.972 519.167Z" fill="#2595FF"/>
<path d="M459.972 531.596C459.972 532.969 459.007 533.525 457.818 532.838C456.628 532.151 455.664 530.482 455.664 529.109C455.664 527.736 456.628 527.18 457.818 527.867C459.007 528.553 459.972 530.223 459.972 531.596Z" fill="#2595FF"/>
<path d="M459.972 544.025C459.972 545.397 459.007 545.954 457.818 545.267C456.628 544.58 455.664 542.91 455.664 541.538C455.664 540.165 456.628 539.608 457.818 540.295C459.007 540.982 459.972 542.652 459.972 544.025Z" fill="#2595FF"/>
<path d="M459.972 556.454C459.972 557.827 459.007 558.383 457.818 557.697C456.628 557.01 455.664 555.34 455.664 553.967C455.664 552.594 456.628 552.038 457.818 552.725C459.007 553.412 459.972 555.081 459.972 556.454Z" fill="#2595FF"/>
<path d="M459.972 568.883C459.972 570.256 459.007 570.812 457.818 570.125C456.628 569.438 455.664 567.769 455.664 566.396C455.664 565.023 456.628 564.467 457.818 565.154C459.007 565.84 459.972 567.51 459.972 568.883Z" fill="#2595FF"/>
<path d="M461.948 584.73C461.948 587.362 460.099 588.428 457.819 587.111C455.54 585.795 453.691 582.595 453.691 579.964C453.691 577.332 455.54 576.266 457.819 577.582C460.099 578.899 461.948 582.099 461.948 584.73Z" fill="#2595FF"/>
<path d="M475.164 470.65C475.164 484.261 465.608 489.778 453.82 482.973C442.033 476.167 432.477 459.616 432.477 446.004C432.477 432.393 442.033 426.876 453.82 433.681C465.608 440.487 475.164 457.038 475.164 470.65Z" fill="white"/>
<path d="M441.755 456.244C441.755 457.995 442.067 459.909 442.673 461.877C443.28 463.845 444.168 465.828 445.288 467.713C446.409 469.598 447.739 471.348 449.202 472.863C450.666 474.378 452.235 475.629 453.819 476.544C455.403 477.458 456.972 478.019 458.436 478.194C459.899 478.369 461.229 478.155 462.349 477.563C463.47 476.972 464.358 476.015 464.965 474.747C465.571 473.479 465.883 471.925 465.883 470.174C465.883 470.174 458.567 464.283 453.819 461.542C449.071 458.801 441.755 456.244 441.755 456.244Z" fill="#2595FF"/>
<path d="M448.31 448.717C448.79 448.994 449.187 448.771 449.114 448.181C449.067 447.795 448.995 447.401 448.897 447.005C448.711 446.248 448.437 445.499 448.093 444.803C447.748 444.106 447.339 443.475 446.888 442.946C446.438 442.417 445.955 441.999 445.468 441.718C444.98 441.436 444.498 441.296 444.047 441.306C443.597 441.315 443.188 441.473 442.843 441.772C442.498 442.07 442.225 442.503 442.038 443.045C441.941 443.328 441.868 443.638 441.821 443.97C441.749 444.477 442.145 445.157 442.625 445.435V445.435C443.105 445.712 443.481 445.47 443.618 445.017C443.626 444.989 443.635 444.961 443.645 444.933C443.744 444.645 443.889 444.415 444.073 444.256C444.256 444.098 444.473 444.014 444.713 444.009C444.952 444.004 445.209 444.078 445.468 444.228C445.727 444.377 445.983 444.599 446.223 444.881C446.462 445.162 446.68 445.497 446.863 445.867C447.046 446.238 447.191 446.636 447.291 447.038C447.3 447.077 447.309 447.115 447.318 447.153C447.454 447.764 447.83 448.44 448.31 448.717V448.717Z" fill="#2595FF"/>
<path d="M465.013 458.361C465.494 458.638 465.89 458.415 465.818 457.825C465.77 457.439 465.698 457.045 465.6 456.65C465.414 455.892 465.14 455.143 464.796 454.447C464.451 453.75 464.042 453.12 463.591 452.59C463.141 452.061 462.658 451.644 462.171 451.362C461.683 451.081 461.201 450.941 460.75 450.95C460.3 450.959 459.891 451.118 459.546 451.416C459.201 451.715 458.928 452.147 458.741 452.69C458.644 452.973 458.571 453.283 458.524 453.614C458.452 454.121 458.848 454.802 459.328 455.079V455.079C459.809 455.356 460.184 455.114 460.321 454.662C460.33 454.633 460.339 454.605 460.348 454.578C460.447 454.29 460.593 454.06 460.776 453.901C460.959 453.742 461.176 453.658 461.416 453.653C461.655 453.648 461.912 453.723 462.171 453.872C462.43 454.022 462.687 454.244 462.926 454.525C463.165 454.806 463.383 455.142 463.566 455.512C463.749 455.882 463.895 456.28 463.994 456.683C464.003 456.721 464.012 456.759 464.021 456.798C464.157 457.408 464.533 458.084 465.013 458.361V458.361Z" fill="#2595FF"/>
<path d="M645.346 483.027C645.346 499.63 633.69 506.36 619.311 498.059C604.932 489.757 593.276 469.568 593.276 452.965C593.276 436.362 604.932 429.632 619.311 437.934C633.69 446.235 645.346 466.424 645.346 483.027Z" fill="url(#paint27_linear_962_22397)" stroke="url(#paint28_linear_962_22397)" stroke-width="2"/>
<path d="M641.143 485.734C641.143 502.337 629.487 509.067 615.108 500.765C600.729 492.464 589.073 472.275 589.073 455.672C589.073 439.069 600.729 432.339 615.108 440.64C629.487 448.942 641.143 469.131 641.143 485.734Z" fill="url(#paint29_linear_962_22397)" stroke="url(#paint30_linear_962_22397)" stroke-width="2"/>
<path d="M636.936 488.442C636.936 505.045 625.28 511.774 610.901 503.473C596.522 495.171 584.866 474.982 584.866 458.379C584.866 441.776 596.522 435.046 610.901 443.348C625.28 451.649 636.936 471.839 636.936 488.442Z" fill="url(#paint31_linear_962_22397)" stroke="url(#paint32_linear_962_22397)" stroke-width="2"/>
<path d="M632.729 491.149C632.729 507.752 621.072 514.482 606.694 506.181C592.315 497.879 580.659 477.69 580.659 461.087C580.659 444.484 592.315 437.754 606.694 446.056C621.073 454.357 632.729 474.546 632.729 491.149Z" fill="url(#paint33_linear_962_22397)" stroke="url(#paint34_linear_962_22397)" stroke-width="2"/>
<path d="M628.526 493.856C628.526 510.459 616.869 517.189 602.491 508.887C588.112 500.586 576.456 480.397 576.456 463.794C576.456 447.191 588.112 440.461 602.491 448.763C616.869 457.064 628.526 477.253 628.526 493.856Z" fill="url(#paint35_linear_962_22397)" stroke="url(#paint36_linear_962_22397)" stroke-width="2"/>
<path d="M624.319 496.564C624.319 513.167 612.662 519.896 598.284 511.595C583.905 503.293 572.249 483.104 572.249 466.501C572.249 449.898 583.905 443.168 598.284 451.47C612.662 459.771 624.319 479.961 624.319 496.564Z" fill="url(#paint37_linear_962_22397)" stroke="url(#paint38_linear_962_22397)" stroke-width="2"/>
<path d="M606.244 493.326C606.244 495.525 605.633 496.987 604.41 497.713C603.188 498.413 601.555 498.314 599.51 497.415L599.51 500.79L597.277 499.5L597.277 496.164C595.41 494.933 593.81 493.408 592.476 491.59C591.143 489.772 590.187 487.801 589.609 485.678L593.576 485.322C594.287 487.804 595.521 489.679 597.277 490.948L597.277 484.314L597.243 484.295L597.177 484.218C595.821 482.873 594.61 481.509 593.543 480.126C591.743 477.783 590.776 475.154 590.643 472.239C590.643 469.964 591.276 468.527 592.543 467.929C593.876 467.318 595.454 467.449 597.277 468.323L597.277 464.986L599.51 466.276L599.51 469.689C602.532 471.868 604.666 474.902 605.91 478.791L602.043 479.166C601.51 477.324 600.666 475.904 599.51 474.904L599.51 481.308C601.666 483.55 603.055 485.106 603.677 485.977C605.388 488.396 606.244 490.846 606.244 493.326ZM595.21 474.914C595.21 475.477 595.365 476.065 595.676 476.679C595.988 477.268 596.521 477.998 597.277 478.868L597.277 473.5C595.899 473.011 595.21 473.482 595.21 474.914ZM599.51 486.639L599.51 492.161C600.932 492.65 601.643 492.166 601.643 490.708C601.643 489.558 600.932 488.201 599.51 486.639Z" fill="white"/>
</g>
<defs>
<filter id="filter0_f_962_22397" x="620.285" y="241.655" width="87.4258" height="132.576" filterUnits="userSpaceOnUse" color-interpolation-filters="sRGB">
<feFlood flood-opacity="0" result="BackgroundImageFix"/>
<feBlend mode="normal" in="SourceGraphic" in2="BackgroundImageFix" result="shape"/>
<feGaussianBlur stdDeviation="5.5" result="effect1_foregroundBlur_962_22397"/>
</filter>
<filter id="filter1_f_962_22397" x="620.285" y="241.655" width="87.4258" height="132.576" filterUnits="userSpaceOnUse" color-interpolation-filters="sRGB">
<feFlood flood-opacity="0" result="BackgroundImageFix"/>
<feBlend mode="normal" in="SourceGraphic" in2="BackgroundImageFix" result="shape"/>
<feGaussianBlur stdDeviation="5.5" result="effect1_foregroundBlur_962_22397"/>
</filter>
<filter id="filter2_f_962_22397" x="635.723" y="275.984" width="54.3711" height="67.1774" filterUnits="userSpaceOnUse" color-interpolation-filters="sRGB">
<feFlood flood-opacity="0" result="BackgroundImageFix"/>
<feBlend mode="normal" in="SourceGraphic" in2="BackgroundImageFix" result="shape"/>
<feGaussianBlur stdDeviation="5.5" result="effect1_foregroundBlur_962_22397"/>
</filter>
<linearGradient id="paint0_linear_962_22397" x1="384.837" y1="159.408" x2="646.191" y2="159.408" gradientUnits="userSpaceOnUse">
<stop stop-color="#DEECFB"/>
<stop offset="0.5797" stop-color="#F7F9FE"/>
<stop offset="1" stop-color="#DEECFB"/>
</linearGradient>
<linearGradient id="paint1_linear_962_22397" x1="650.553" y1="344.568" x2="661.706" y2="344.568" gradientUnits="userSpaceOnUse">
<stop stop-color="#D8ECFF"/>
<stop offset="0.2785" stop-color="#D8ECFF"/>
<stop offset="1" stop-color="#E4E7FB"/>
</linearGradient>
<linearGradient id="paint2_linear_962_22397" x1="461.842" y1="91.8034" x2="517.91" y2="432.05" gradientUnits="userSpaceOnUse">
<stop stop-color="#5CEEC4"/>
<stop offset="0.503125" stop-color="#00CCFF"/>
<stop offset="1" stop-color="#2595FF"/>
</linearGradient>
<linearGradient id="paint3_linear_962_22397" x1="439.231" y1="261.945" x2="485.111" y2="261.945" gradientUnits="userSpaceOnUse">
<stop stop-color="#F1F4FE"/>
<stop offset="0.5797" stop-color="#F7F9FE"/>
<stop offset="1" stop-color="white"/>
</linearGradient>
<linearGradient id="paint4_linear_962_22397" x1="491.766" y1="292.347" x2="537.646" y2="292.347" gradientUnits="userSpaceOnUse">
<stop stop-color="#F1F4FE"/>
<stop offset="0.5797" stop-color="#F7F9FE"/>
<stop offset="1" stop-color="white"/>
</linearGradient>
<linearGradient id="paint5_linear_962_22397" x1="545.352" y1="322.841" x2="591.232" y2="322.841" gradientUnits="userSpaceOnUse">
<stop stop-color="#F1F4FE"/>
<stop offset="0.5797" stop-color="#F7F9FE"/>
<stop offset="1" stop-color="white"/>
</linearGradient>
<linearGradient id="paint6_linear_962_22397" x1="598.938" y1="353.321" x2="644.818" y2="353.321" gradientUnits="userSpaceOnUse">
<stop stop-color="#F1F4FE"/>
<stop offset="0.5797" stop-color="#F7F9FE"/>
<stop offset="1" stop-color="white"/>
</linearGradient>
<linearGradient id="paint7_linear_962_22397" x1="608.53" y1="386.49" x2="601.134" y2="367.091" gradientUnits="userSpaceOnUse">
<stop stop-color="#4CD9ED"/>
<stop offset="1" stop-color="#2595FF"/>
</linearGradient>
<linearGradient id="paint8_linear_962_22397" x1="594.465" y1="372.434" x2="616.356" y2="372.434" gradientUnits="userSpaceOnUse">
<stop stop-color="white"/>
<stop offset="0.4203" stop-color="#F7F9FE"/>
<stop offset="1" stop-color="#F1F4FE"/>
</linearGradient>
<linearGradient id="paint9_linear_962_22397" x1="636.116" y1="402.221" x2="628.72" y2="382.821" gradientUnits="userSpaceOnUse">
<stop stop-color="#4CD9ED"/>
<stop offset="1" stop-color="#2595FF"/>
</linearGradient>
<linearGradient id="paint10_linear_962_22397" x1="622.051" y1="388.164" x2="643.941" y2="388.164" gradientUnits="userSpaceOnUse">
<stop stop-color="white"/>
<stop offset="0.4203" stop-color="#F7F9FE"/>
<stop offset="1" stop-color="#F1F4FE"/>
</linearGradient>
<linearGradient id="paint11_linear_962_22397" x1="129.885" y1="520.998" x2="353.115" y2="520.998" gradientUnits="userSpaceOnUse">
<stop stop-color="white"/>
<stop offset="0.2148" stop-color="#ECEEFD"/>
<stop offset="0.3799" stop-color="#E2E6FA"/>
<stop offset="0.5275" stop-color="#CFE8FF"/>
</linearGradient>
<linearGradient id="paint12_linear_962_22397" x1="351.026" y1="483.072" x2="131.977" y2="483.072" gradientUnits="userSpaceOnUse">
<stop stop-color="#F1F4FE"/>
<stop offset="0.5797" stop-color="#F7F9FE"/>
<stop offset="1" stop-color="white"/>
</linearGradient>
<linearGradient id="paint13_linear_962_22397" x1="170.196" y1="484.199" x2="313.33" y2="484.199" gradientUnits="userSpaceOnUse">
<stop stop-color="#4CD9ED"/>
<stop offset="0.5" stop-color="#47AAEC"/>
<stop offset="1" stop-color="#437FEC"/>
</linearGradient>
<linearGradient id="paint14_linear_962_22397" x1="173.669" y1="400.711" x2="309.406" y2="400.711" gradientUnits="userSpaceOnUse">
<stop stop-color="#CAE2FF"/>
<stop offset="0.161458" stop-color="#CBE3FF"/>
<stop offset="1" stop-color="white"/>
</linearGradient>
<linearGradient id="paint15_linear_962_22397" x1="174.271" y1="400.712" x2="308.803" y2="400.712" gradientUnits="userSpaceOnUse">
<stop stop-color="#CFE8FF"/>
<stop offset="0.3125" stop-color="#EBF5FF"/>
<stop offset="0.583333" stop-color="#DAEAFE"/>
<stop offset="0.807292" stop-color="#F1F7FF"/>
<stop offset="0.828125" stop-color="#EAF5FF"/>
<stop offset="0.901042" stop-color="#EEF6FF"/>
<stop offset="1" stop-color="#DAEAFE"/>
</linearGradient>
<linearGradient id="paint16_linear_962_22397" x1="174.943" y1="293.591" x2="308.137" y2="293.591" gradientUnits="userSpaceOnUse">
<stop stop-color="#2595FF"/>
<stop offset="1" stop-color="#0083FF"/>
</linearGradient>
<linearGradient id="paint17_linear_962_22397" x1="526.375" y1="131.844" x2="475.713" y2="164.148" gradientUnits="userSpaceOnUse">
<stop stop-color="#40FFC6"/>
<stop offset="0.505208" stop-color="#00DAFF"/>
<stop offset="1" stop-color="#2595FF"/>
</linearGradient>
<linearGradient id="paint18_linear_962_22397" x1="532.245" y1="144.602" x2="482.705" y2="164.796" gradientUnits="userSpaceOnUse">
<stop stop-color="white"/>
<stop offset="1" stop-color="#FBFDFF" stop-opacity="0"/>
</linearGradient>
<linearGradient id="paint19_linear_962_22397" x1="683.221" y1="253.3" x2="608.716" y2="300.807" gradientUnits="userSpaceOnUse">
<stop stop-color="#40FFC6"/>
<stop offset="0.505208" stop-color="#00DAFF"/>
<stop offset="1" stop-color="#2595FF"/>
</linearGradient>
<linearGradient id="paint20_linear_962_22397" x1="691.853" y1="272.062" x2="618.999" y2="301.76" gradientUnits="userSpaceOnUse">
<stop stop-color="white"/>
<stop offset="1" stop-color="#FBFDFF" stop-opacity="0"/>
</linearGradient>
<linearGradient id="paint21_linear_962_22397" x1="102.738" y1="366.325" x2="89.9927" y2="402.012" gradientUnits="userSpaceOnUse">
<stop stop-color="#40FFC6"/>
<stop offset="0.505208" stop-color="#00DAFF"/>
<stop offset="1" stop-color="#2595FF"/>
</linearGradient>
<linearGradient id="paint22_linear_962_22397" x1="110.597" y1="370.411" x2="93.7266" y2="399.631" gradientUnits="userSpaceOnUse">
<stop stop-color="white"/>
<stop offset="1" stop-color="#FBFDFF" stop-opacity="0"/>
</linearGradient>
<linearGradient id="paint23_linear_962_22397" x1="100.098" y1="368.022" x2="87.3521" y2="403.709" gradientUnits="userSpaceOnUse">
<stop stop-color="#40FFC6"/>
<stop offset="0.505208" stop-color="#00DAFF"/>
<stop offset="1" stop-color="#2595FF"/>
</linearGradient>
<linearGradient id="paint24_linear_962_22397" x1="107.956" y1="372.108" x2="91.0859" y2="401.328" gradientUnits="userSpaceOnUse">
<stop stop-color="white"/>
<stop offset="1" stop-color="#FBFDFF" stop-opacity="0"/>
</linearGradient>
<linearGradient id="paint25_linear_962_22397" x1="60.6281" y1="311.759" x2="32.3611" y2="360.719" gradientUnits="userSpaceOnUse">
<stop offset="0.51875" stop-color="#2595FF"/>
<stop offset="1" stop-color="#3A98FF" stop-opacity="0"/>
</linearGradient>
<linearGradient id="paint26_linear_962_22397" x1="465.268" y1="411.606" x2="424.276" y2="482.606" gradientUnits="userSpaceOnUse">
<stop offset="0.51875" stop-color="#2595FF"/>
<stop offset="1" stop-color="#3A98FF" stop-opacity="0"/>
</linearGradient>
<linearGradient id="paint27_linear_962_22397" x1="606.78" y1="430.418" x2="586.456" y2="487.325" gradientUnits="userSpaceOnUse">
<stop stop-color="#40FFC6"/>
<stop offset="0.505208" stop-color="#00DAFF"/>
<stop offset="1" stop-color="#2595FF"/>
</linearGradient>
<linearGradient id="paint28_linear_962_22397" x1="619.311" y1="436.934" x2="592.41" y2="483.527" gradientUnits="userSpaceOnUse">
<stop stop-color="white"/>
<stop offset="1" stop-color="#FBFDFF" stop-opacity="0"/>
</linearGradient>
<linearGradient id="paint29_linear_962_22397" x1="602.577" y1="433.125" x2="582.253" y2="490.031" gradientUnits="userSpaceOnUse">
<stop stop-color="#40FFC6"/>
<stop offset="0.505208" stop-color="#00DAFF"/>
<stop offset="1" stop-color="#2595FF"/>
</linearGradient>
<linearGradient id="paint30_linear_962_22397" x1="615.108" y1="439.64" x2="588.207" y2="486.234" gradientUnits="userSpaceOnUse">
<stop stop-color="white"/>
<stop offset="1" stop-color="#FBFDFF" stop-opacity="0"/>
</linearGradient>
<linearGradient id="paint31_linear_962_22397" x1="598.37" y1="435.833" x2="578.046" y2="492.739" gradientUnits="userSpaceOnUse">
<stop stop-color="#40FFC6"/>
<stop offset="0.505208" stop-color="#00DAFF"/>
<stop offset="1" stop-color="#2595FF"/>
</linearGradient>
<linearGradient id="paint32_linear_962_22397" x1="610.901" y1="442.348" x2="584" y2="488.942" gradientUnits="userSpaceOnUse">
<stop stop-color="white"/>
<stop offset="1" stop-color="#FBFDFF" stop-opacity="0"/>
</linearGradient>
<linearGradient id="paint33_linear_962_22397" x1="594.163" y1="438.54" x2="573.839" y2="495.447" gradientUnits="userSpaceOnUse">
<stop stop-color="#40FFC6"/>
<stop offset="0.505208" stop-color="#00DAFF"/>
<stop offset="1" stop-color="#2595FF"/>
</linearGradient>
<linearGradient id="paint34_linear_962_22397" x1="606.694" y1="445.056" x2="579.793" y2="491.649" gradientUnits="userSpaceOnUse">
<stop stop-color="white"/>
<stop offset="1" stop-color="#FBFDFF" stop-opacity="0"/>
</linearGradient>
<linearGradient id="paint35_linear_962_22397" x1="589.96" y1="441.247" x2="569.636" y2="498.154" gradientUnits="userSpaceOnUse">
<stop stop-color="#40FFC6"/>
<stop offset="0.505208" stop-color="#00DAFF"/>
<stop offset="1" stop-color="#2595FF"/>
</linearGradient>
<linearGradient id="paint36_linear_962_22397" x1="602.491" y1="447.763" x2="575.59" y2="494.356" gradientUnits="userSpaceOnUse">
<stop stop-color="white"/>
<stop offset="1" stop-color="#FBFDFF" stop-opacity="0"/>
</linearGradient>
<linearGradient id="paint37_linear_962_22397" x1="585.753" y1="443.955" x2="565.429" y2="500.861" gradientUnits="userSpaceOnUse">
<stop stop-color="#40FFC6"/>
<stop offset="0.505208" stop-color="#00DAFF"/>
<stop offset="1" stop-color="#2595FF"/>
</linearGradient>
<linearGradient id="paint38_linear_962_22397" x1="598.284" y1="450.47" x2="571.383" y2="497.064" gradientUnits="userSpaceOnUse">
<stop stop-color="white"/>
<stop offset="1" stop-color="#FBFDFF" stop-opacity="0"/>
</linearGradient>
<clipPath id="clip0_962_22397">
<rect width="766" height="615" fill="white"/>
</clipPath>
</defs>
</svg>
