<svg width="422" height="868" viewBox="0 0 422 868" fill="none" xmlns="http://www.w3.org/2000/svg">
<path d="M240.507 107.711C240.289 107.711 240.109 107.531 240.109 107.314V46.8552H181.891V107.314C181.891 107.531 181.712 107.711 181.493 107.711C181.275 107.711 181.095 107.531 181.095 107.314V46.4581C181.095 46.2403 181.275 46.061 181.493 46.061H240.507C240.726 46.061 240.906 46.2403 240.906 46.4581V107.314C240.906 107.531 240.726 107.711 240.507 107.711Z" fill="url(#paint0_linear_2004_5)"/>
<path d="M242.793 46.8552H179.2C178.982 46.8552 178.802 46.6759 178.802 46.4581V5.33491C178.802 5.11716 178.982 4.93783 179.2 4.93783H242.793C243.012 4.93783 243.192 5.11716 243.192 5.33491V46.4581C243.192 46.6759 243.012 46.8552 242.793 46.8552ZM179.598 46.061H242.395V5.73199H179.598V46.061Z" fill="url(#paint1_linear_2004_5)"/>
<path d="M242.794 5.73201H179.201C179.008 5.73201 178.847 5.59752 178.809 5.41179C178.77 5.22606 178.873 5.04033 179.047 4.96988L191.197 0.0320224C191.242 0.012809 191.294 0 191.345 0H229.301C229.346 0 229.397 0.00640449 229.436 0.0256179L242.929 4.96348C243.109 5.02752 243.218 5.21325 243.186 5.40539C243.154 5.59752 242.987 5.73201 242.794 5.73201ZM181.23 4.93786H240.552L229.23 0.794156H191.422L181.23 4.93786Z" fill="url(#paint2_linear_2004_5)"/>
<path d="M389.483 173.433C389.38 173.433 389.278 173.389 389.201 173.318L350.545 134.609C350.391 134.456 350.391 134.206 350.545 134.052L362.869 121.615C362.946 121.538 363.043 121.499 363.152 121.499C363.255 121.499 363.357 121.544 363.434 121.615L402.09 160.323C402.244 160.477 402.244 160.727 402.09 160.881L389.766 173.318C389.689 173.395 389.592 173.433 389.483 173.433ZM351.386 134.328L389.477 172.473L401.242 160.599L363.152 122.454L351.386 134.328Z" fill="url(#paint3_linear_2004_5)"/>
<path d="M401.828 160.989C401.725 160.989 401.622 160.951 401.545 160.874L362.935 122.121C362.806 121.993 362.78 121.788 362.883 121.628C362.98 121.467 363.179 121.403 363.352 121.467L379.112 126.975C379.17 126.994 379.221 127.027 379.26 127.071L396.465 144.344C396.51 144.389 396.542 144.434 396.562 144.492L402.207 160.464C402.271 160.637 402.207 160.836 402.04 160.932C401.975 160.97 401.898 160.989 401.828 160.989ZM364.72 122.787L400.864 159.062L395.836 144.831L378.759 127.686L364.726 122.78L364.72 122.787Z" fill="url(#paint4_linear_2004_5)"/>
<path d="M375.772 184.635C375.573 184.635 375.4 184.488 375.38 184.283L373.884 171.794C373.544 168.969 372.259 166.305 370.256 164.281L359.588 153.496C357.539 151.421 354.816 150.095 351.914 149.756L338.292 148.148C338.074 148.123 337.919 147.924 337.945 147.707C337.971 147.489 338.17 147.329 338.388 147.361L352.01 148.968C355.086 149.333 357.983 150.742 360.153 152.939L370.821 163.724C372.946 165.876 374.314 168.707 374.674 171.704L376.17 184.193C376.196 184.411 376.042 184.609 375.824 184.635C375.804 184.635 375.791 184.635 375.772 184.635Z" fill="url(#paint5_linear_2004_5)"/>
<path d="M381.527 165.524C381.527 165.524 381.488 165.524 381.469 165.524L370.493 163.968C370.41 163.955 370.326 163.916 370.268 163.852L360.115 153.669C360.057 153.611 360.018 153.528 360.006 153.445L358.349 142.333C358.323 142.167 358.413 142 358.561 141.917C358.715 141.84 358.901 141.872 359.023 141.994L381.809 164.839C381.931 164.96 381.957 165.146 381.886 165.293C381.816 165.428 381.681 165.511 381.533 165.511L381.527 165.524ZM370.744 163.199L380.409 164.57L359.312 143.416L360.77 153.202L370.737 163.199H370.744Z" fill="url(#paint6_linear_2004_5)"/>
<path d="M210.997 505.173C160.068 505.173 112.19 485.396 76.1807 449.486C40.1712 413.576 20.3392 365.831 20.3392 315.043C20.3392 264.256 40.1712 216.51 76.1807 180.6C112.19 144.69 160.068 124.913 210.997 124.913C261.925 124.913 309.803 144.69 345.813 180.6C381.822 216.51 401.654 264.256 401.654 315.043C401.654 365.831 381.822 413.576 345.813 449.486C309.803 485.396 261.925 505.173 210.997 505.173ZM210.997 125.707C106.308 125.707 21.1356 210.644 21.1356 315.043C21.1356 419.443 106.308 504.379 210.997 504.379C315.686 504.379 400.858 419.443 400.858 315.043C400.858 210.644 315.686 125.707 210.997 125.707Z" fill="url(#paint7_linear_2004_5)"/>
<path d="M210.997 515.452C157.32 515.452 106.854 494.606 68.8985 456.755C30.943 418.905 10.0385 368.578 10.0385 315.049C10.0385 261.521 30.943 211.194 68.8985 173.344C106.854 135.493 157.32 114.647 210.997 114.647C264.675 114.647 315.141 135.493 353.096 173.344C391.052 211.194 411.956 261.521 411.956 315.049C411.956 368.578 391.052 418.905 353.096 456.755C315.141 494.606 264.675 515.452 210.997 515.452ZM210.997 115.434C100.624 115.434 10.8349 204.982 10.8349 315.043C10.8349 425.104 100.631 514.658 210.997 514.658C321.364 514.658 411.166 425.111 411.166 315.043C411.166 204.976 321.37 115.434 210.997 115.434Z" fill="url(#paint8_linear_2004_5)"/>
<path d="M210.997 525.456C154.635 525.456 101.651 503.572 61.8014 463.826C21.9448 424.086 0 371.249 0 315.043C0 258.837 21.9448 206 61.8014 166.261C101.658 126.521 154.641 104.63 210.997 104.63C267.352 104.63 320.342 126.514 360.199 166.261C400.049 206 422 258.844 422 315.043C422 371.242 400.055 424.086 360.199 463.826C320.349 503.566 267.359 525.456 210.997 525.456ZM210.997 105.424C95.0943 105.424 0.79636 199.455 0.79636 315.043C0.79636 430.631 95.0943 524.662 210.997 524.662C326.899 524.662 421.197 430.625 421.197 315.043C421.197 199.461 326.906 105.424 210.997 105.424Z" fill="url(#paint9_linear_2004_5)"/>
<path d="M190.575 524.053C190.433 524.053 190.305 524.034 190.183 524.009V566.406C190.395 566.259 190.664 566.169 190.979 566.156V524.06C190.844 524.06 190.709 524.06 190.575 524.06V524.053Z" fill="url(#paint10_linear_2004_5)"/>
<path d="M229.455 524.483C229.371 524.502 229.294 524.508 229.211 524.515V566.182C229.211 566.182 229.262 566.189 229.288 566.201C229.564 566.291 229.801 566.4 230.007 566.541V524.258C229.827 524.335 229.641 524.419 229.455 524.483Z" fill="url(#paint11_linear_2004_5)"/>
<path d="M238.042 523.317C237.913 523.317 237.791 523.33 237.663 523.336V562.762C237.663 564.863 226.34 567.2 210.092 567.2C193.844 567.2 182.521 564.863 182.521 562.762V523.285C182.239 523.272 181.962 523.208 181.725 523.08V562.762C181.725 566.163 196.342 567.995 210.092 567.995C223.842 567.995 238.459 566.163 238.459 562.762V523.259C238.331 523.291 238.189 523.317 238.042 523.317Z" fill="url(#paint12_linear_2004_5)"/>
<path d="M210.097 569.961C190.837 569.961 170.369 567.437 170.369 562.762C170.369 560.175 176.727 558.522 182.058 557.587C182.263 557.542 182.482 557.69 182.52 557.908C182.559 558.125 182.411 558.33 182.199 558.369C171.962 560.162 171.165 562.186 171.165 562.762C171.165 565.791 187.157 569.167 210.097 569.167C233.038 569.167 249.029 565.791 249.029 562.762C249.029 562.179 248.22 560.136 237.841 558.343C237.623 558.305 237.482 558.1 237.52 557.882C237.559 557.664 237.758 557.517 237.983 557.562C243.39 558.497 249.832 560.162 249.832 562.762C249.832 567.437 229.364 569.961 210.104 569.961H210.097Z" fill="url(#paint13_linear_2004_5)"/>
<path d="M210.097 689.942C190.837 689.942 170.369 687.419 170.369 682.744V562.762C170.369 562.544 170.549 562.365 170.767 562.365C170.986 562.365 171.165 562.544 171.165 562.762C171.165 565.791 187.157 569.167 210.097 569.167C233.038 569.167 249.029 565.791 249.029 562.762C249.029 562.544 249.209 562.365 249.427 562.365C249.645 562.365 249.825 562.544 249.825 562.762V682.744C249.825 687.419 229.358 689.942 210.097 689.942ZM171.165 564.306V682.744C171.165 685.773 187.157 689.148 210.097 689.148C233.038 689.148 249.029 685.773 249.029 682.744V564.306C245.079 567.995 227.116 569.961 210.097 569.961C193.078 569.961 175.109 567.988 171.165 564.306Z" fill="url(#paint14_linear_2004_5)"/>
<path d="M210.098 868C190.388 868 174.942 863.542 174.942 857.849V685.786C174.942 685.568 175.122 685.389 175.341 685.389C175.559 685.389 175.739 685.568 175.739 685.786C176.388 686.907 190.285 689.148 210.098 689.148C229.911 689.148 243.282 686.785 244.573 685.504C244.688 685.389 244.862 685.357 245.009 685.421C245.157 685.485 245.253 685.626 245.253 685.786V857.849C245.253 863.542 229.814 868 210.098 868ZM175.739 857.849C175.739 862.921 191.473 867.206 210.098 867.206C228.722 867.206 244.457 862.921 244.457 857.849V686.484C241.06 688.021 227.496 689.942 210.098 689.942C195.532 689.942 179.457 688.572 175.739 686.625V857.849Z" fill="url(#paint15_linear_2004_5)"/>
<path d="M234.091 568.738V678.792C234.091 680.278 224.965 682.347 210.097 682.347C195.23 682.347 186.104 680.278 186.104 678.792V568.597H186.148C185.93 568.392 185.782 568.129 185.718 567.803H185.705C185.487 567.803 185.307 567.982 185.307 568.2V678.792C185.307 681.982 200.13 683.141 210.097 683.141C220.064 683.141 234.887 681.982 234.887 678.792V568.296C234.624 568.462 234.36 568.603 234.091 568.738Z" fill="url(#paint16_linear_2004_5)"/>
<path d="M210.097 712.025C204.581 712.025 198.724 710.821 198.724 708.586V682.744C198.724 682.526 198.903 682.347 199.122 682.347H221.073C221.291 682.347 221.471 682.526 221.471 682.744V708.586C221.471 710.821 215.614 712.025 210.097 712.025ZM199.52 683.141V708.586C199.52 709.687 203.547 711.231 210.097 711.231C216.648 711.231 220.675 709.694 220.675 708.586V683.141H199.52Z" fill="url(#paint17_linear_2004_5)"/>
<path d="M189.103 149.577C188.904 149.577 188.737 149.43 188.711 149.231L186.714 134.078C186.688 133.86 186.836 133.662 187.054 133.63C187.266 133.598 187.471 133.751 187.504 133.969L189.501 149.122C189.527 149.34 189.379 149.538 189.161 149.57C189.141 149.57 189.128 149.57 189.109 149.57L189.103 149.577Z" fill="url(#paint18_linear_2004_5)"/>
<path d="M234.893 496.45C234.694 496.45 234.527 496.303 234.501 496.104L232.331 479.683C232.305 479.465 232.453 479.267 232.671 479.235C232.883 479.203 233.088 479.357 233.12 479.574L235.291 495.995C235.317 496.213 235.169 496.412 234.951 496.444C234.932 496.444 234.919 496.444 234.899 496.444L234.893 496.45Z" fill="url(#paint19_linear_2004_5)"/>
<path d="M167.582 153.849C167.409 153.849 167.249 153.733 167.197 153.554L163.228 138.792C163.17 138.58 163.299 138.363 163.511 138.305C163.723 138.254 163.941 138.375 163.999 138.587L167.968 153.349C168.026 153.56 167.897 153.778 167.685 153.836C167.653 153.842 167.615 153.849 167.582 153.849Z" fill="url(#paint20_linear_2004_5)"/>
<path d="M258.38 491.794C258.206 491.794 258.046 491.679 257.994 491.5L253.698 475.501C253.64 475.29 253.769 475.072 253.981 475.014C254.192 474.963 254.411 475.085 254.469 475.296L258.765 491.295C258.823 491.506 258.694 491.724 258.483 491.781C258.45 491.788 258.412 491.794 258.38 491.794Z" fill="url(#paint21_linear_2004_5)"/>
<path d="M146.799 160.881C146.645 160.881 146.497 160.791 146.433 160.637L140.57 146.522C140.486 146.317 140.582 146.086 140.788 146.003C140.993 145.92 141.225 146.016 141.308 146.221L147.172 160.336C147.255 160.541 147.159 160.772 146.953 160.855C146.902 160.874 146.851 160.887 146.799 160.887V160.881Z" fill="url(#paint22_linear_2004_5)"/>
<path d="M281.056 484.115C280.902 484.115 280.754 484.026 280.69 483.872L274.332 468.572C274.248 468.367 274.345 468.136 274.55 468.053C274.756 467.969 274.987 468.066 275.07 468.27L281.428 483.571C281.512 483.776 281.416 484.006 281.21 484.09C281.159 484.109 281.107 484.122 281.056 484.122V484.115Z" fill="url(#paint23_linear_2004_5)"/>
<path d="M127.122 170.558C126.987 170.558 126.852 170.487 126.775 170.359L119.113 157.128C119.004 156.936 119.068 156.692 119.261 156.583C119.454 156.474 119.698 156.538 119.807 156.731L127.468 169.962C127.578 170.154 127.513 170.398 127.321 170.507C127.257 170.545 127.192 170.558 127.122 170.558Z" fill="url(#paint24_linear_2004_5)"/>
<path d="M302.54 473.554C302.405 473.554 302.27 473.484 302.193 473.356L293.889 459.01C293.78 458.817 293.844 458.574 294.037 458.465C294.229 458.356 294.473 458.42 294.582 458.613L302.886 472.959C302.996 473.151 302.931 473.394 302.739 473.503C302.674 473.541 302.61 473.554 302.54 473.554Z" fill="url(#paint25_linear_2004_5)"/>
<path d="M291.88 168.88C291.815 168.88 291.751 168.867 291.687 168.829C291.494 168.72 291.424 168.483 291.533 168.291L298.925 154.905C299.034 154.713 299.278 154.643 299.464 154.752C299.657 154.86 299.728 155.097 299.618 155.29L292.226 168.675C292.156 168.803 292.014 168.88 291.88 168.88Z" fill="url(#paint26_linear_2004_5)"/>
<path d="M122.723 475.392C122.659 475.392 122.595 475.379 122.531 475.341C122.338 475.232 122.267 474.995 122.377 474.803L130.385 460.29C130.494 460.098 130.738 460.028 130.925 460.137C131.117 460.246 131.188 460.483 131.079 460.675L123.07 475.187C123 475.315 122.858 475.392 122.723 475.392Z" fill="url(#paint27_linear_2004_5)"/>
<path d="M272.009 159.6C271.958 159.6 271.913 159.593 271.861 159.574C271.656 159.497 271.553 159.267 271.637 159.062L277.211 144.825C277.288 144.62 277.526 144.517 277.725 144.6C277.93 144.677 278.033 144.908 277.95 145.113L272.375 159.35C272.311 159.504 272.163 159.6 272.003 159.6H272.009Z" fill="url(#paint28_linear_2004_5)"/>
<path d="M144.418 485.511C144.367 485.511 144.322 485.505 144.27 485.486C144.065 485.409 143.962 485.178 144.046 484.973L150.089 469.545C150.166 469.34 150.404 469.237 150.603 469.321C150.808 469.398 150.911 469.628 150.828 469.833L144.784 485.261C144.72 485.415 144.572 485.511 144.412 485.511H144.418Z" fill="url(#paint29_linear_2004_5)"/>
<path d="M251.085 152.997C251.085 152.997 251.021 152.997 250.989 152.984C250.777 152.933 250.642 152.715 250.7 152.504L254.36 137.664C254.412 137.453 254.624 137.325 254.842 137.376C255.054 137.427 255.189 137.645 255.131 137.857L251.47 152.696C251.425 152.875 251.265 152.997 251.085 152.997Z" fill="url(#paint30_linear_2004_5)"/>
<path d="M167.249 492.723C167.249 492.723 167.185 492.723 167.153 492.71C166.941 492.659 166.806 492.441 166.864 492.23L170.833 476.148C170.884 475.937 171.096 475.802 171.315 475.86C171.527 475.911 171.662 476.129 171.604 476.34L167.635 492.422C167.59 492.601 167.429 492.723 167.249 492.723Z" fill="url(#paint31_linear_2004_5)"/>
<path d="M229.48 149.167C229.48 149.167 229.448 149.167 229.435 149.167C229.216 149.141 229.056 148.949 229.082 148.731L230.771 133.54C230.796 133.322 230.989 133.162 231.207 133.188C231.426 133.213 231.586 133.405 231.561 133.623L229.871 148.815C229.846 149.02 229.679 149.167 229.473 149.167H229.48Z" fill="url(#paint32_linear_2004_5)"/>
<path d="M190.825 496.905C190.825 496.905 190.792 496.905 190.78 496.905C190.561 496.879 190.401 496.687 190.426 496.469L192.257 480.01C192.282 479.792 192.475 479.632 192.693 479.658C192.912 479.683 193.072 479.875 193.047 480.093L191.216 496.553C191.191 496.758 191.024 496.905 190.818 496.905H190.825Z" fill="url(#paint33_linear_2004_5)"/>
<path d="M362.999 244.664C362.851 244.664 362.703 244.581 362.639 244.434C362.543 244.235 362.633 243.998 362.832 243.908L376.717 237.44C376.916 237.35 377.153 237.433 377.243 237.632C377.333 237.831 377.25 238.068 377.051 238.157L363.166 244.626C363.114 244.651 363.057 244.664 362.999 244.664Z" fill="url(#paint34_linear_2004_5)"/>
<path d="M45.1097 392.685C44.962 392.685 44.8142 392.601 44.75 392.454C44.6537 392.255 44.7436 392.019 44.9427 391.929L59.99 384.922C60.1891 384.826 60.4267 384.916 60.5167 385.114C60.6066 385.313 60.5231 385.55 60.324 385.64L45.2766 392.646C45.2253 392.672 45.1675 392.685 45.1097 392.685Z" fill="url(#paint35_linear_2004_5)"/>
<path d="M352.434 225.483C352.306 225.483 352.177 225.419 352.1 225.297C351.985 225.111 352.036 224.868 352.222 224.746L365.144 216.529C365.33 216.414 365.574 216.465 365.696 216.651C365.812 216.837 365.76 217.08 365.574 217.202L352.652 225.419C352.588 225.464 352.511 225.483 352.441 225.483H352.434Z" fill="url(#paint36_linear_2004_5)"/>
<path d="M56.6378 413.614C56.5093 413.614 56.3809 413.55 56.3038 413.429C56.1882 413.243 56.2396 413 56.4259 412.878L70.4264 403.969C70.6126 403.854 70.8567 403.905 70.9787 404.091C71.0943 404.277 71.0429 404.52 70.8567 404.642L56.8561 413.55C56.7919 413.595 56.7148 413.614 56.6442 413.614H56.6378Z" fill="url(#paint37_linear_2004_5)"/>
<path d="M339.454 207.838C339.339 207.838 339.23 207.787 339.153 207.697C339.011 207.531 339.031 207.281 339.204 207.14L350.937 197.309C351.104 197.168 351.355 197.188 351.496 197.361C351.637 197.527 351.618 197.777 351.445 197.918L339.711 207.749C339.634 207.813 339.544 207.845 339.454 207.845V207.838Z" fill="url(#paint38_linear_2004_5)"/>
<path d="M70.8109 432.866C70.6953 432.866 70.5861 432.815 70.5091 432.725C70.3678 432.559 70.3871 432.309 70.5605 432.168L83.2765 421.518C83.4435 421.377 83.694 421.396 83.8352 421.569C83.9765 421.735 83.9573 421.985 83.7839 422.126L71.0678 432.777C70.9907 432.841 70.9008 432.873 70.8109 432.873V432.866Z" fill="url(#paint39_linear_2004_5)"/>
<path d="M324.272 192.045C324.176 192.045 324.08 192.013 324.003 191.942C323.842 191.795 323.829 191.545 323.977 191.379L334.323 180.107C334.471 179.947 334.721 179.934 334.888 180.081C335.049 180.229 335.062 180.478 334.914 180.645L324.568 191.917C324.491 192 324.381 192.045 324.272 192.045Z" fill="url(#paint40_linear_2004_5)"/>
<path d="M87.3813 450.114C87.285 450.114 87.1886 450.082 87.1116 450.011C86.951 449.864 86.9382 449.614 87.0859 449.448L98.2991 437.228C98.4469 437.068 98.6973 437.055 98.8643 437.202C99.0249 437.349 99.0377 437.599 98.89 437.766L87.6767 449.986C87.5997 450.069 87.4905 450.114 87.3813 450.114Z" fill="url(#paint41_linear_2004_5)"/>
<path d="M390.146 353.079C390.146 353.079 390.088 353.079 390.062 353.073L375.067 349.922C374.855 349.877 374.713 349.666 374.758 349.454C374.803 349.243 375.015 349.102 375.227 349.147L390.223 352.298C390.435 352.343 390.576 352.554 390.531 352.765C390.493 352.951 390.326 353.079 390.14 353.079H390.146Z" fill="url(#paint42_linear_2004_5)"/>
<path d="M48.1026 281.215C48.1026 281.215 48.0448 281.215 48.0191 281.208L31.7644 277.795C31.5524 277.75 31.4111 277.538 31.4561 277.327C31.501 277.109 31.713 276.975 31.9249 277.02L48.1796 280.433C48.3916 280.478 48.5329 280.689 48.4879 280.901C48.4494 281.086 48.2824 281.215 48.0961 281.215H48.1026Z" fill="url(#paint43_linear_2004_5)"/>
<path d="M393.544 329.44C393.544 329.44 393.525 329.44 393.512 329.44L378.233 328.268C378.015 328.249 377.848 328.063 377.867 327.846C377.886 327.628 378.086 327.455 378.291 327.481L393.57 328.653C393.788 328.672 393.955 328.858 393.936 329.075C393.923 329.287 393.743 329.44 393.538 329.44H393.544Z" fill="url(#paint44_linear_2004_5)"/>
<path d="M45.021 302.708C45.021 302.708 45.0018 302.708 44.9889 302.708L28.4323 301.44C28.214 301.421 28.047 301.235 28.0663 301.017C28.0855 300.8 28.2975 300.633 28.4901 300.652L45.0467 301.92C45.2651 301.94 45.4321 302.125 45.4128 302.343C45.3999 302.554 45.2201 302.708 45.0146 302.708H45.021Z" fill="url(#paint45_linear_2004_5)"/>
<path d="M378.509 306.391C378.297 306.391 378.124 306.224 378.111 306.013C378.098 305.795 378.265 305.609 378.484 305.596L393.788 304.77C394.038 304.751 394.192 304.924 394.205 305.142C394.218 305.359 394.051 305.545 393.833 305.558L378.528 306.384C378.528 306.384 378.516 306.384 378.509 306.384V306.391Z" fill="url(#paint46_linear_2004_5)"/>
<path d="M28.1877 325.316C27.9757 325.316 27.8023 325.149 27.7895 324.938C27.7766 324.72 27.9436 324.534 28.162 324.522L44.7442 323.625C44.9947 323.612 45.1488 323.779 45.1617 323.996C45.1745 324.214 45.0076 324.4 44.7892 324.413L28.2069 325.309C28.2069 325.309 28.1941 325.309 28.1877 325.309V325.316Z" fill="url(#paint47_linear_2004_5)"/>
<path d="M375.889 284.66C375.703 284.66 375.536 284.526 375.498 284.333C375.459 284.116 375.6 283.911 375.819 283.872L390.879 281.061C391.091 281.022 391.303 281.163 391.341 281.381C391.38 281.599 391.238 281.804 391.02 281.842L375.96 284.654C375.96 284.654 375.909 284.66 375.883 284.66H375.889Z" fill="url(#paint48_linear_2004_5)"/>
<path d="M31.0393 349.032C30.853 349.032 30.686 348.897 30.6475 348.705C30.609 348.487 30.7503 348.282 30.9686 348.244L47.294 345.195C47.5059 345.157 47.7179 345.298 47.7564 345.516C47.7949 345.733 47.6536 345.938 47.4353 345.977L31.1099 349.025C31.1099 349.025 31.0585 349.032 31.0328 349.032H31.0393Z" fill="url(#paint49_linear_2004_5)"/>
<path d="M337.612 447.321C337.509 447.321 337.4 447.283 337.323 447.2L326.726 436.158C326.572 435.998 326.578 435.748 326.739 435.595C326.899 435.441 327.15 435.447 327.304 435.607L337.901 446.649C338.055 446.809 338.049 447.059 337.888 447.212C337.811 447.289 337.715 447.321 337.612 447.321Z" fill="url(#paint50_linear_2004_5)"/>
<path d="M95.8722 195.529C95.7695 195.529 95.6603 195.49 95.5832 195.407L84.1002 183.444C83.9461 183.284 83.9525 183.034 84.1131 182.88C84.2737 182.726 84.5241 182.733 84.6783 182.893L96.1612 194.856C96.3154 195.017 96.309 195.266 96.1484 195.42C96.0713 195.497 95.975 195.529 95.8722 195.529Z" fill="url(#paint51_linear_2004_5)"/>
<path d="M353.791 429.709C353.701 429.709 353.617 429.683 353.54 429.619L341.588 420.057C341.415 419.923 341.389 419.673 341.524 419.5C341.665 419.327 341.916 419.301 342.083 419.436L354.035 428.998C354.208 429.132 354.234 429.382 354.099 429.555C354.022 429.651 353.906 429.702 353.791 429.702V429.709Z" fill="url(#paint52_linear_2004_5)"/>
<path d="M81.1656 211.534C81.0757 211.534 80.9922 211.508 80.9151 211.444L67.9614 201.075C67.788 200.941 67.7623 200.691 67.8972 200.518C68.0321 200.345 68.2889 200.319 68.4559 200.454L81.4096 210.823C81.583 210.957 81.6087 211.207 81.4738 211.38C81.3968 211.476 81.2812 211.527 81.1656 211.527V211.534Z" fill="url(#paint53_linear_2004_5)"/>
<path d="M367.521 410.143C367.451 410.143 367.38 410.124 367.316 410.086L354.215 402.157C354.028 402.042 353.964 401.798 354.08 401.613C354.195 401.427 354.439 401.369 354.626 401.478L367.727 409.407C367.913 409.522 367.977 409.765 367.862 409.951C367.785 410.073 367.656 410.143 367.521 410.143Z" fill="url(#paint54_linear_2004_5)"/>
<path d="M68.674 229.325C68.6033 229.325 68.5327 229.306 68.4684 229.268L54.2688 220.679C54.0826 220.564 54.0184 220.321 54.134 220.135C54.2496 219.949 54.4936 219.892 54.6799 220L68.8795 228.589C69.0657 228.704 69.1299 228.947 69.0143 229.133C68.9373 229.255 68.8088 229.325 68.674 229.325Z" fill="url(#paint55_linear_2004_5)"/>
<path d="M378.579 388.964C378.528 388.964 378.47 388.951 378.419 388.932L364.393 382.777C364.193 382.687 364.097 382.457 364.187 382.252C364.277 382.053 364.508 381.963 364.714 382.047L378.74 388.201C378.939 388.291 379.035 388.522 378.945 388.727C378.881 388.874 378.733 388.964 378.579 388.964Z" fill="url(#paint56_linear_2004_5)"/>
<path d="M58.623 248.59C58.5716 248.59 58.5138 248.577 58.4624 248.558L43.2609 241.891C43.0618 241.801 42.9655 241.571 43.0554 241.366C43.1453 241.167 43.3765 241.078 43.582 241.161L58.7835 247.828C58.9826 247.918 59.079 248.148 58.989 248.353C58.9248 248.5 58.7771 248.59 58.623 248.59Z" fill="url(#paint57_linear_2004_5)"/>
<path d="M210.997 160.855C210.778 160.855 210.599 160.676 210.599 160.458V132.47C210.599 132.253 210.778 132.073 210.997 132.073C211.215 132.073 211.395 132.253 211.395 132.47V160.458C211.395 160.676 211.215 160.855 210.997 160.855Z" fill="url(#paint58_linear_2004_5)"/>
<path d="M210.997 498.013C210.778 498.013 210.599 497.833 210.599 497.616V469.628C210.599 469.41 210.778 469.231 210.997 469.231C211.215 469.231 211.395 469.41 211.395 469.628V497.616C211.395 497.833 211.215 498.013 210.997 498.013Z" fill="url(#paint59_linear_2004_5)"/>
<path d="M119.884 190.373C119.762 190.373 119.64 190.316 119.563 190.207L103.064 167.567C102.935 167.388 102.974 167.144 103.154 167.01C103.334 166.882 103.578 166.92 103.712 167.099L120.211 189.739C120.34 189.919 120.301 190.162 120.121 190.296C120.051 190.348 119.967 190.373 119.89 190.373H119.884Z" fill="url(#paint60_linear_2004_5)"/>
<path d="M318.607 463.147C318.485 463.147 318.363 463.089 318.286 462.98L301.787 440.34C301.659 440.161 301.698 439.918 301.877 439.783C302.057 439.655 302.301 439.693 302.436 439.873L318.935 462.513C319.063 462.692 319.025 462.935 318.845 463.07C318.774 463.121 318.691 463.147 318.614 463.147H318.607Z" fill="url(#paint61_linear_2004_5)"/>
<path d="M63.567 267.669C63.5285 267.669 63.4835 267.669 63.445 267.65L36.7541 259.004C36.5422 258.933 36.433 258.709 36.4972 258.504C36.5615 258.299 36.7927 258.184 36.9982 258.248L63.6891 266.894C63.901 266.965 64.0102 267.189 63.9459 267.394C63.8946 267.56 63.734 267.669 63.567 267.669Z" fill="url(#paint62_linear_2004_5)"/>
<path d="M385.116 371.857C385.078 371.857 385.033 371.857 384.994 371.838L358.303 363.192C358.091 363.122 357.982 362.897 358.047 362.692C358.111 362.487 358.342 362.372 358.547 362.436L385.238 371.082C385.45 371.153 385.559 371.377 385.495 371.582C385.444 371.748 385.283 371.857 385.116 371.857Z" fill="url(#paint63_linear_2004_5)"/>
<path d="M36.8761 371.857C36.7091 371.857 36.555 371.748 36.4972 371.582C36.4265 371.37 36.5421 371.146 36.7541 371.082L63.4449 362.436C63.6505 362.372 63.8817 362.481 63.9459 362.692C64.0101 362.904 63.9009 363.128 63.689 363.192L36.9981 371.838C36.9596 371.851 36.9146 371.857 36.8761 371.857Z" fill="url(#paint64_linear_2004_5)"/>
<path d="M358.425 267.669C358.258 267.669 358.104 267.56 358.046 267.394C357.976 267.182 358.091 266.958 358.303 266.894L384.994 258.248C385.206 258.184 385.431 258.293 385.495 258.504C385.559 258.716 385.45 258.94 385.238 259.004L358.547 267.65C358.509 267.663 358.464 267.669 358.425 267.669Z" fill="url(#paint65_linear_2004_5)"/>
<path d="M103.385 463.147C103.301 463.147 103.224 463.121 103.154 463.07C102.974 462.942 102.935 462.692 103.064 462.513L119.563 439.873C119.691 439.693 119.941 439.655 120.121 439.783C120.301 439.911 120.34 440.161 120.211 440.34L103.712 462.98C103.635 463.089 103.513 463.147 103.391 463.147H103.385Z" fill="url(#paint66_linear_2004_5)"/>
<path d="M302.115 190.373C302.031 190.373 301.954 190.348 301.884 190.296C301.704 190.168 301.665 189.919 301.794 189.739L318.292 167.099C318.421 166.92 318.671 166.882 318.851 167.01C319.031 167.138 319.07 167.388 318.941 167.567L302.442 190.207C302.365 190.316 302.243 190.373 302.121 190.373H302.115Z" fill="url(#paint67_linear_2004_5)"/>
<path d="M215.319 180.222C215.319 181.868 214.921 183.162 214.124 184.11C213.328 185.058 212.23 185.525 210.836 185.525C209.442 185.525 208.344 185.051 207.535 184.103C206.726 183.155 206.321 181.862 206.321 180.222V175.976C206.321 174.343 206.719 173.049 207.522 172.101C208.325 171.147 209.423 170.673 210.81 170.673C212.198 170.673 213.302 171.147 214.105 172.101C214.908 173.056 215.312 174.343 215.312 175.976V180.222H215.319ZM214.124 175.79C214.124 174.529 213.835 173.53 213.264 172.793C212.692 172.057 211.876 171.685 210.81 171.685C209.744 171.685 208.935 172.057 208.357 172.793C207.785 173.536 207.496 174.529 207.496 175.79V180.402C207.496 181.65 207.786 182.65 208.364 183.399C208.942 184.148 209.764 184.526 210.823 184.526C211.883 184.526 212.686 184.155 213.257 183.405C213.829 182.656 214.111 181.657 214.111 180.402V175.79H214.124Z" fill="url(#paint68_linear_2004_5)"/>
<path d="M342.185 278.448H333.373V277.538L338.139 271.999C338.986 271 339.571 270.18 339.898 269.546C340.219 268.905 340.386 268.278 340.386 267.656C340.386 266.779 340.149 266.081 339.674 265.575C339.198 265.069 338.498 264.819 337.573 264.819C336.539 264.819 335.743 265.127 335.184 265.735C334.626 266.343 334.349 267.125 334.349 268.079H333.238L333.219 268.021C333.187 266.843 333.566 265.85 334.362 265.031C335.159 264.211 336.225 263.807 337.573 263.807C338.813 263.807 339.789 264.153 340.508 264.851C341.228 265.543 341.581 266.484 341.581 267.669C341.581 268.451 341.343 269.232 340.874 270.007C340.406 270.788 339.712 271.73 338.794 272.844L334.876 277.404L334.895 277.455H342.185V278.454V278.448Z" fill="url(#paint69_linear_2004_5)"/>
<path d="M353.282 273.356C353.282 275.002 352.884 276.296 352.081 277.244C351.285 278.192 350.187 278.659 348.793 278.659C347.399 278.659 346.301 278.185 345.492 277.237C344.683 276.29 344.278 274.996 344.278 273.356V269.11C344.278 267.477 344.676 266.19 345.479 265.235C346.282 264.281 347.38 263.807 348.767 263.807C350.154 263.807 351.259 264.281 352.062 265.235C352.865 266.19 353.269 267.477 353.269 269.11V273.356H353.282ZM352.088 268.924C352.088 267.663 351.799 266.664 351.227 265.927C350.655 265.191 349.84 264.819 348.774 264.819C347.708 264.819 346.898 265.191 346.32 265.927C345.749 266.67 345.46 267.663 345.46 268.924V273.536C345.46 274.785 345.749 275.784 346.327 276.533C346.905 277.282 347.727 277.66 348.786 277.66C349.846 277.66 350.649 277.289 351.221 276.539C351.792 275.796 352.075 274.791 352.075 273.536V268.924H352.088Z" fill="url(#paint70_linear_2004_5)"/>
<path d="M288.449 209.702H287.254V196.285L283.825 196.701V195.747L288.449 195.055V209.702Z" fill="url(#paint71_linear_2004_5)"/>
<path d="M303.323 204.604C303.323 206.25 302.924 207.544 302.122 208.492C301.325 209.44 300.227 209.907 298.834 209.907C297.44 209.907 296.342 209.433 295.532 208.485C294.723 207.537 294.319 206.244 294.319 204.604V200.358C294.319 198.725 294.717 197.431 295.52 196.483C296.322 195.529 297.421 195.055 298.808 195.055C300.195 195.055 301.3 195.529 302.102 196.483C302.905 197.438 303.31 198.725 303.31 200.358V204.604H303.323ZM302.128 200.172C302.128 198.911 301.839 197.911 301.268 197.175C300.696 196.438 299.88 196.067 298.814 196.067C297.748 196.067 296.939 196.438 296.361 197.175C295.789 197.918 295.5 198.911 295.5 200.172V204.783C295.5 206.032 295.789 207.031 296.367 207.781C296.945 208.53 297.767 208.908 298.827 208.908C299.887 208.908 300.69 208.536 301.261 207.787C301.833 207.038 302.115 206.039 302.115 204.783V200.172H302.128Z" fill="url(#paint72_linear_2004_5)"/>
<path d="M338.697 354.905C339.75 354.905 340.553 354.642 341.092 354.123C341.638 353.605 341.908 352.926 341.908 352.1C341.908 351.273 341.657 350.543 341.15 349.999C340.649 349.454 339.898 349.185 338.915 349.185C337.99 349.185 337.22 349.461 336.609 350.012C335.999 350.562 335.698 351.28 335.698 352.157H334.586L334.567 352.1C334.535 350.979 334.933 350.044 335.768 349.294C336.603 348.545 337.656 348.174 338.921 348.174C340.187 348.174 341.227 348.519 341.978 349.217C342.73 349.909 343.109 350.889 343.109 352.144C343.109 352.862 342.903 353.508 342.486 354.085C342.068 354.661 341.503 355.097 340.784 355.385C341.619 355.648 342.261 356.083 342.711 356.685C343.16 357.287 343.379 358.024 343.379 358.907C343.379 360.195 342.974 361.207 342.158 361.937C341.343 362.667 340.283 363.032 338.979 363.032C337.753 363.032 336.667 362.673 335.723 361.943C334.779 361.219 334.323 360.227 334.355 358.965L334.375 358.907H335.486C335.486 359.798 335.813 360.541 336.468 361.136C337.123 361.732 337.958 362.026 338.973 362.026C339.988 362.026 340.771 361.751 341.343 361.194C341.914 360.637 342.197 359.887 342.197 358.946C342.197 357.928 341.895 357.172 341.285 356.672C340.681 356.173 339.821 355.923 338.703 355.923H337.374V354.911H338.703L338.697 354.905Z" fill="url(#paint73_linear_2004_5)"/>
<path d="M354.643 357.716C354.643 359.362 354.245 360.656 353.442 361.604C352.646 362.552 351.547 363.019 350.154 363.019C348.76 363.019 347.662 362.545 346.853 361.597C346.044 360.649 345.639 359.356 345.639 357.716V353.47C345.639 351.837 346.037 350.543 346.84 349.595C347.643 348.641 348.741 348.167 350.128 348.167C351.515 348.167 352.62 348.641 353.423 349.595C354.226 350.55 354.63 351.837 354.63 353.47V357.716H354.643ZM353.448 353.284C353.448 352.023 353.159 351.024 352.588 350.287C352.016 349.551 351.201 349.179 350.135 349.179C349.069 349.179 348.259 349.551 347.681 350.287C347.11 351.03 346.821 352.023 346.821 353.284V357.896C346.821 359.144 347.11 360.144 347.688 360.893C348.266 361.642 349.088 362.02 350.147 362.02C351.207 362.02 352.01 361.649 352.581 360.899C353.153 360.15 353.436 359.151 353.436 357.896V353.284H353.448Z" fill="url(#paint74_linear_2004_5)"/>
<path d="M292.374 427.819H294.641V428.819H292.374V432.469H291.192V428.819H284.539V428.146L291.07 418.033H292.374V427.819ZM285.951 427.819H291.192V419.59L291.134 419.571L290.627 420.653L285.951 427.819Z" fill="url(#paint75_linear_2004_5)"/>
<path d="M305.251 427.378C305.251 429.024 304.852 430.317 304.05 431.265C303.253 432.213 302.155 432.681 300.761 432.681C299.368 432.681 298.27 432.207 297.46 431.259C296.651 430.311 296.247 429.017 296.247 427.378V423.131C296.247 421.498 296.645 420.205 297.448 419.257C298.25 418.303 299.349 417.829 300.736 417.829C302.123 417.829 303.228 418.303 304.03 419.257C304.833 420.211 305.238 421.498 305.238 423.131V427.378H305.251ZM304.056 422.946C304.056 421.684 303.767 420.685 303.195 419.948C302.624 419.212 301.808 418.84 300.742 418.84C299.676 418.84 298.867 419.212 298.289 419.948C297.717 420.691 297.428 421.684 297.428 422.946V427.557C297.428 428.806 297.717 429.805 298.295 430.554C298.873 431.304 299.695 431.681 300.755 431.681C301.815 431.681 302.617 431.31 303.189 430.561C303.761 429.811 304.043 428.812 304.043 427.557V422.946H304.056Z" fill="url(#paint76_linear_2004_5)"/>
<path d="M199.713 456.256L200.509 448.314H207.548V449.416H201.53L200.991 454.61C201.357 454.289 201.762 454.033 202.198 453.847C202.641 453.662 203.232 453.559 203.971 453.54C205.21 453.521 206.206 453.924 206.957 454.757C207.709 455.589 208.087 456.723 208.087 458.145C208.087 459.567 207.721 460.771 206.983 461.642C206.244 462.513 205.146 462.948 203.669 462.948C202.474 462.948 201.485 462.615 200.689 461.956C199.893 461.289 199.514 460.31 199.546 459.003L199.565 458.945H200.638C200.638 459.919 200.914 460.662 201.46 461.174C202.012 461.693 202.744 461.949 203.669 461.949C204.748 461.949 205.557 461.629 206.09 460.976C206.623 460.329 206.893 459.387 206.893 458.158C206.893 457.082 206.623 456.224 206.09 455.589C205.557 454.955 204.806 454.635 203.836 454.635C202.866 454.635 202.211 454.783 201.723 455.077C201.235 455.372 200.882 455.814 200.663 456.409L199.7 456.243L199.713 456.256Z" fill="url(#paint77_linear_2004_5)"/>
<path d="M219.275 457.652C219.275 459.298 218.877 460.591 218.074 461.539C217.278 462.487 216.18 462.955 214.786 462.955C213.392 462.955 212.294 462.481 211.485 461.533C210.676 460.585 210.271 459.291 210.271 457.652V453.406C210.271 451.772 210.669 450.479 211.472 449.531C212.275 448.577 213.373 448.103 214.76 448.103C216.148 448.103 217.252 448.577 218.055 449.531C218.858 450.485 219.262 451.772 219.262 453.406V457.652H219.275ZM218.081 453.22C218.081 451.958 217.792 450.959 217.22 450.222C216.648 449.486 215.833 449.115 214.767 449.115C213.701 449.115 212.891 449.486 212.313 450.222C211.742 450.965 211.453 451.958 211.453 453.22V457.831C211.453 459.08 211.742 460.079 212.32 460.828C212.898 461.578 213.72 461.956 214.78 461.956C215.839 461.956 216.642 461.584 217.214 460.835C217.785 460.085 218.068 459.086 218.068 457.831V453.22H218.081Z" fill="url(#paint78_linear_2004_5)"/>
<path d="M123.481 418.034C124.021 418.034 124.554 418.091 125.087 418.2C125.62 418.315 126.082 418.475 126.474 418.687L126.166 419.66C125.767 419.455 125.363 419.302 124.945 419.199C124.528 419.097 124.04 419.045 123.481 419.045C122.466 419.045 121.632 419.449 120.97 420.256C120.309 421.063 119.981 422.113 119.981 423.401V425.386C120.379 424.829 120.893 424.387 121.522 424.054C122.152 423.721 122.845 423.554 123.61 423.554C124.888 423.554 125.883 423.971 126.602 424.803C127.322 425.636 127.675 426.763 127.675 428.185C127.675 429.607 127.27 430.727 126.468 431.598C125.665 432.463 124.605 432.898 123.288 432.898C121.972 432.898 120.919 432.405 120.065 431.419C119.217 430.433 118.793 429.101 118.793 427.423V423.516C118.793 421.915 119.242 420.602 120.142 419.577C121.041 418.552 122.152 418.04 123.475 418.04L123.481 418.034ZM123.282 424.515C122.499 424.515 121.811 424.726 121.208 425.143C120.61 425.565 120.199 426.097 119.981 426.744V427.499C119.981 428.825 120.289 429.888 120.919 430.689C121.542 431.483 122.332 431.88 123.295 431.88C124.258 431.88 125.055 431.528 125.626 430.83C126.198 430.132 126.487 429.241 126.487 428.172C126.487 427.006 126.217 426.11 125.678 425.469C125.138 424.829 124.342 424.515 123.288 424.515H123.282Z" fill="url(#paint79_linear_2004_5)"/>
<path d="M138.683 427.583C138.683 429.229 138.285 430.522 137.489 431.47C136.692 432.418 135.594 432.886 134.201 432.886C132.807 432.886 131.709 432.412 130.899 431.464C130.09 430.516 129.686 429.222 129.686 427.583V423.337C129.686 421.703 130.084 420.41 130.887 419.462C131.689 418.508 132.788 418.034 134.175 418.034C135.562 418.034 136.667 418.508 137.469 419.462C138.272 420.416 138.677 421.703 138.677 423.337V427.583H138.683ZM137.489 423.151C137.489 421.889 137.2 420.89 136.628 420.153C136.057 419.417 135.241 419.045 134.175 419.045C133.109 419.045 132.3 419.417 131.722 420.153C131.15 420.896 130.861 421.889 130.861 423.151V427.762C130.861 429.011 131.15 430.01 131.728 430.759C132.306 431.509 133.128 431.886 134.188 431.886C135.247 431.886 136.05 431.515 136.622 430.766C137.193 430.016 137.476 429.017 137.476 427.762V423.151H137.489Z" fill="url(#paint80_linear_2004_5)"/>
<path d="M74.7939 356.013C73.1691 357.902 71.9489 359.798 71.1333 361.687C70.3112 363.583 69.9066 365.69 69.9066 368.008V369.436H68.7121V368.008C68.7121 365.715 69.1359 363.595 69.9901 361.642C70.8443 359.689 72.0324 357.812 73.5673 356.013H65.3853V355.001H74.8004V356.013H74.7939Z" fill="url(#paint81_linear_2004_5)"/>
<path d="M85.8978 364.338C85.8978 365.984 85.4996 367.278 84.7033 368.226C83.9069 369.174 82.8087 369.641 81.4151 369.641C80.0215 369.641 78.9232 369.167 78.114 368.22C77.3048 367.272 76.9002 365.978 76.9002 364.338V360.092C76.9002 358.459 77.2984 357.165 78.1012 356.218C78.904 355.263 80.0022 354.789 81.3894 354.789C82.7766 354.789 83.8812 355.263 84.684 356.218C85.4868 357.172 85.8914 358.459 85.8914 360.092V364.338H85.8978ZM84.7033 359.906C84.7033 358.645 84.4143 357.646 83.8427 356.909C83.2711 356.173 82.4555 355.801 81.3894 355.801C80.3233 355.801 79.5141 356.173 78.9361 356.909C78.3645 357.652 78.0755 358.645 78.0755 359.906V364.518C78.0755 365.767 78.3645 366.766 78.9425 367.515C79.5205 368.264 80.3426 368.642 81.4022 368.642C82.4619 368.642 83.2647 368.271 83.8363 367.521C84.4078 366.772 84.6904 365.773 84.6904 364.518V359.906H84.7033Z" fill="url(#paint82_linear_2004_5)"/>
<path d="M76.3926 268.303C76.3926 269.084 76.1679 269.77 75.7119 270.353C75.2559 270.942 74.6586 271.364 73.9072 271.633C74.7678 271.902 75.4678 272.357 76.0009 272.991C76.5339 273.625 76.8037 274.362 76.8037 275.201C76.8037 276.494 76.3734 277.506 75.5064 278.23C74.6394 278.954 73.554 279.319 72.2503 279.319C70.8566 279.319 69.7199 278.96 68.8272 278.236C67.9345 277.519 67.4914 276.507 67.4914 275.201C67.4914 274.355 67.7611 273.612 68.307 272.978C68.8529 272.344 69.5722 271.89 70.4713 271.621C69.6814 271.358 69.0584 270.929 68.5896 270.346C68.1272 269.763 67.896 269.078 67.896 268.297C67.896 267.067 68.3006 266.119 69.1098 265.453C69.919 264.787 70.9594 264.46 72.231 264.46C73.432 264.46 74.4274 264.793 75.2109 265.453C76.0009 266.119 76.3926 267.067 76.3926 268.297V268.303ZM75.6091 275.214C75.6091 274.31 75.2816 273.568 74.6265 272.991C73.9714 272.415 73.1687 272.127 72.231 272.127C71.2163 272.127 70.3686 272.415 69.6878 272.991C69.007 273.568 68.6667 274.31 68.6667 275.214C68.6667 276.117 69.007 276.911 69.6814 277.474C70.3557 278.038 71.2099 278.313 72.2439 278.313C73.1943 278.313 73.9907 278.031 74.6329 277.468C75.2816 276.904 75.6027 276.149 75.6027 275.214H75.6091ZM75.2045 268.29C75.2045 267.464 74.9155 266.792 74.3375 266.26C73.7595 265.735 73.0595 265.472 72.231 265.472C71.3191 265.472 70.5612 265.722 69.9704 266.228C69.3795 266.734 69.0777 267.419 69.0777 268.284C69.0777 269.148 69.3795 269.821 69.9832 270.34C70.5869 270.858 71.3447 271.121 72.2503 271.121C73.0787 271.121 73.7788 270.858 74.3504 270.34C74.9219 269.815 75.2045 269.136 75.2045 268.284V268.29Z" fill="url(#paint83_linear_2004_5)"/>
<path d="M87.9211 274.009C87.9211 275.655 87.5229 276.949 86.7265 277.897C85.9302 278.838 84.832 279.312 83.4383 279.312C82.0447 279.312 80.9465 278.838 80.1373 277.891C79.3281 276.943 78.9235 275.649 78.9235 274.009V269.763C78.9235 268.13 79.3217 266.836 80.1245 265.889C80.9272 264.941 82.0255 264.46 83.4127 264.46C84.7999 264.46 85.9045 264.934 86.7073 265.889C87.5101 266.843 87.9147 268.13 87.9147 269.763V274.009H87.9211ZM86.7265 269.578C86.7265 268.316 86.4375 267.317 85.866 266.58C85.2944 265.844 84.4788 265.472 83.4127 265.472C82.3466 265.472 81.5374 265.844 80.9594 266.58C80.3878 267.323 80.0988 268.316 80.0988 269.571V274.182C80.0988 275.431 80.3878 276.43 80.9658 277.18C81.5438 277.929 82.3658 278.307 83.4255 278.307C84.4852 278.307 85.288 277.935 85.8595 277.186C86.4311 276.437 86.7137 275.438 86.7137 274.182V269.571L86.7265 269.578Z" fill="url(#paint84_linear_2004_5)"/>
<path d="M120.867 209.113C121.927 209.113 122.775 208.761 123.404 208.062C124.033 207.364 124.348 206.384 124.348 205.129V203.029C123.995 203.618 123.526 204.066 122.942 204.386C122.357 204.707 121.709 204.86 120.996 204.86C119.686 204.86 118.632 204.425 117.842 203.554C117.052 202.683 116.654 201.555 116.654 200.159C116.654 198.763 117.072 197.585 117.894 196.656C118.722 195.727 119.756 195.266 121.009 195.266C122.376 195.266 123.475 195.715 124.322 196.605C125.164 197.495 125.588 198.763 125.588 200.415V205.116C125.588 206.685 125.151 207.909 124.277 208.793C123.404 209.676 122.267 210.118 120.874 210.118C120.379 210.118 119.872 210.067 119.364 209.958C118.857 209.849 118.363 209.696 117.887 209.491L118.106 208.53C118.542 208.741 118.973 208.895 119.39 208.978C119.814 209.068 120.302 209.113 120.867 209.113ZM120.996 203.861C121.837 203.861 122.55 203.65 123.121 203.227C123.699 202.804 124.104 202.279 124.342 201.658V200.281C124.342 199 124.046 198.014 123.449 197.316C122.852 196.618 122.055 196.272 121.054 196.272C120.116 196.272 119.358 196.643 118.767 197.393C118.176 198.142 117.881 199.064 117.881 200.159C117.881 201.254 118.157 202.1 118.709 202.804C119.262 203.509 120.026 203.861 120.989 203.861H120.996Z" fill="url(#paint85_linear_2004_5)"/>
<path d="M137.142 204.809C137.142 206.455 136.744 207.749 135.941 208.696C135.138 209.644 134.046 210.112 132.653 210.112C131.259 210.112 130.161 209.638 129.352 208.69C128.542 207.742 128.138 206.449 128.138 204.809V200.563C128.138 198.93 128.536 197.636 129.339 196.688C130.142 195.734 131.24 195.26 132.627 195.26C134.014 195.26 135.119 195.734 135.922 196.688C136.724 197.642 137.129 198.93 137.129 200.563V204.809H137.142ZM135.947 200.377C135.947 199.115 135.658 198.116 135.087 197.38C134.515 196.643 133.699 196.272 132.633 196.272C131.567 196.272 130.758 196.643 130.18 197.38C129.608 198.123 129.319 199.115 129.319 200.377V204.988C129.319 206.237 129.608 207.236 130.186 207.986C130.765 208.735 131.587 209.113 132.646 209.113C133.706 209.113 134.509 208.741 135.08 207.992C135.652 207.243 135.934 206.244 135.934 204.988V200.377H135.947Z" fill="url(#paint86_linear_2004_5)"/>
<path d="M210.997 426.18C149.542 426.18 99.5512 376.321 99.5512 315.043C99.5512 253.765 149.549 203.906 210.997 203.906C272.445 203.906 322.442 253.765 322.442 315.043C322.442 376.321 272.445 426.18 210.997 426.18ZM210.997 204.694C149.985 204.694 100.348 254.194 100.348 315.037C100.348 375.879 149.985 425.379 210.997 425.379C272.008 425.379 321.646 375.879 321.646 315.037C321.646 254.194 272.008 204.694 210.997 204.694Z" fill="url(#paint87_linear_2004_5)"/>
<path d="M55.8222 218.169L200.837 306.339L281.898 345.407V358.03L270.923 364.108L198.358 310.899L55.8222 218.169Z" fill="url(#paint88_linear_2004_5)"/>
<path d="M211.921 327.512C218.046 327.512 223.012 322.561 223.012 316.452C223.012 310.343 218.046 305.391 211.921 305.391C205.795 305.391 200.83 310.343 200.83 316.452C200.83 322.561 205.795 327.512 211.921 327.512Z" fill="url(#paint89_linear_2004_5)"/>
<path d="M229.314 223.248L213.958 248.353L202.623 271.742H198.962L197.196 268.579L212.635 247.642L229.314 223.248Z" fill="url(#paint90_linear_2004_5)"/>
<path d="M210.997 255.078C213.494 255.078 215.518 253.059 215.518 250.569C215.518 248.079 213.494 246.06 210.997 246.06C208.5 246.06 206.476 248.079 206.476 250.569C206.476 253.059 208.5 255.078 210.997 255.078Z" fill="url(#paint91_linear_2004_5)"/>
<path d="M210.997 284.66C192.148 284.66 176.805 269.366 176.805 250.563C176.805 231.759 192.142 216.465 210.997 216.465C229.853 216.465 245.189 231.759 245.189 250.563C245.189 269.366 229.853 284.66 210.997 284.66ZM210.997 217.266C192.585 217.266 177.602 232.207 177.602 250.569C177.602 268.931 192.585 283.872 210.997 283.872C229.41 283.872 244.393 268.931 244.393 250.569C244.393 232.207 229.41 217.266 210.997 217.266Z" fill="url(#paint92_linear_2004_5)"/>
<path d="M210.997 225.912C210.778 225.912 210.599 225.733 210.599 225.515V220.98C210.599 220.763 210.778 220.583 210.997 220.583C211.215 220.583 211.395 220.763 211.395 220.98V225.515C211.395 225.733 211.215 225.912 210.997 225.912Z" fill="url(#paint93_linear_2004_5)"/>
<path d="M210.997 280.555C210.778 280.555 210.599 280.376 210.599 280.158V275.624C210.599 275.406 210.778 275.227 210.997 275.227C211.215 275.227 211.395 275.406 211.395 275.624V280.158C211.395 280.376 211.215 280.555 210.997 280.555Z" fill="url(#paint94_linear_2004_5)"/>
<path d="M196.233 230.696C196.111 230.696 195.989 230.638 195.912 230.53L193.24 226.86C193.112 226.68 193.15 226.437 193.33 226.303C193.51 226.175 193.754 226.213 193.889 226.392L196.56 230.062C196.689 230.241 196.65 230.485 196.47 230.619C196.4 230.67 196.316 230.696 196.239 230.696H196.233Z" fill="url(#paint95_linear_2004_5)"/>
<path d="M228.441 274.9C228.319 274.9 228.197 274.842 228.12 274.733L225.448 271.064C225.319 270.884 225.358 270.641 225.538 270.506C225.718 270.378 225.962 270.417 226.097 270.596L228.768 274.266C228.897 274.445 228.858 274.689 228.678 274.823C228.608 274.874 228.524 274.9 228.447 274.9H228.441Z" fill="url(#paint96_linear_2004_5)"/>
<path d="M187.107 243.223C187.068 243.223 187.023 243.223 186.985 243.204L182.656 241.801C182.444 241.731 182.335 241.507 182.399 241.302C182.463 241.097 182.695 240.982 182.9 241.046L187.229 242.448C187.441 242.519 187.55 242.743 187.485 242.948C187.434 243.114 187.274 243.223 187.107 243.223Z" fill="url(#paint97_linear_2004_5)"/>
<path d="M239.217 260.106C239.179 260.106 239.134 260.106 239.095 260.086L234.767 258.684C234.555 258.613 234.445 258.389 234.51 258.184C234.574 257.979 234.805 257.864 235.011 257.928L239.339 259.331C239.551 259.401 239.66 259.625 239.596 259.83C239.545 259.997 239.384 260.106 239.217 260.106Z" fill="url(#paint98_linear_2004_5)"/>
<path d="M182.778 260.105C182.611 260.105 182.457 259.997 182.399 259.83C182.328 259.619 182.444 259.395 182.656 259.331L186.984 257.928C187.19 257.864 187.421 257.973 187.485 258.184C187.55 258.396 187.44 258.62 187.229 258.684L182.9 260.086C182.861 260.099 182.816 260.105 182.778 260.105Z" fill="url(#paint99_linear_2004_5)"/>
<path d="M234.895 243.223C234.728 243.223 234.574 243.114 234.516 242.948C234.445 242.736 234.561 242.512 234.773 242.448L239.101 241.046C239.307 240.982 239.538 241.091 239.602 241.302C239.667 241.513 239.557 241.737 239.345 241.801L235.017 243.204C234.978 243.217 234.933 243.223 234.895 243.223Z" fill="url(#paint100_linear_2004_5)"/>
<path d="M193.561 274.9C193.478 274.9 193.401 274.874 193.33 274.823C193.15 274.695 193.112 274.445 193.24 274.266L195.912 270.596C196.04 270.417 196.291 270.378 196.47 270.506C196.65 270.634 196.689 270.884 196.56 271.064L193.889 274.733C193.812 274.842 193.69 274.9 193.568 274.9H193.561Z" fill="url(#paint101_linear_2004_5)"/>
<path d="M225.769 230.696C225.686 230.696 225.608 230.67 225.538 230.619C225.358 230.491 225.319 230.241 225.448 230.062L228.12 226.392C228.248 226.213 228.498 226.175 228.678 226.303C228.858 226.431 228.897 226.68 228.768 226.86L226.097 230.53C226.019 230.638 225.897 230.696 225.775 230.696H225.769Z" fill="url(#paint102_linear_2004_5)"/>
<defs>
<linearGradient id="paint0_linear_2004_5" x1="-10.5396" y1="-223.207" x2="-7.68672" y2="1500.38" gradientUnits="userSpaceOnUse">
<stop stop-color="#28BCDD"/>
<stop offset="1" stop-color="#34DB63"/>
</linearGradient>
<linearGradient id="paint1_linear_2004_5" x1="-10.5396" y1="-223.207" x2="-7.68672" y2="1500.38" gradientUnits="userSpaceOnUse">
<stop stop-color="#28BCDD"/>
<stop offset="1" stop-color="#34DB63"/>
</linearGradient>
<linearGradient id="paint2_linear_2004_5" x1="-10.5396" y1="-223.207" x2="-7.68672" y2="1500.38" gradientUnits="userSpaceOnUse">
<stop stop-color="#28BCDD"/>
<stop offset="1" stop-color="#34DB63"/>
</linearGradient>
<linearGradient id="paint3_linear_2004_5" x1="-10.5396" y1="-223.207" x2="-7.68672" y2="1500.38" gradientUnits="userSpaceOnUse">
<stop stop-color="#28BCDD"/>
<stop offset="1" stop-color="#34DB63"/>
</linearGradient>
<linearGradient id="paint4_linear_2004_5" x1="-10.5396" y1="-223.207" x2="-7.68672" y2="1500.38" gradientUnits="userSpaceOnUse">
<stop stop-color="#28BCDD"/>
<stop offset="1" stop-color="#34DB63"/>
</linearGradient>
<linearGradient id="paint5_linear_2004_5" x1="-10.5396" y1="-223.207" x2="-7.68672" y2="1500.38" gradientUnits="userSpaceOnUse">
<stop stop-color="#28BCDD"/>
<stop offset="1" stop-color="#34DB63"/>
</linearGradient>
<linearGradient id="paint6_linear_2004_5" x1="-10.5396" y1="-223.207" x2="-7.68672" y2="1500.38" gradientUnits="userSpaceOnUse">
<stop stop-color="#28BCDD"/>
<stop offset="1" stop-color="#34DB63"/>
</linearGradient>
<linearGradient id="paint7_linear_2004_5" x1="-10.5396" y1="-223.207" x2="-7.68672" y2="1500.38" gradientUnits="userSpaceOnUse">
<stop stop-color="#28BCDD"/>
<stop offset="1" stop-color="#34DB63"/>
</linearGradient>
<linearGradient id="paint8_linear_2004_5" x1="-10.5396" y1="-223.207" x2="-7.68672" y2="1500.38" gradientUnits="userSpaceOnUse">
<stop stop-color="#28BCDD"/>
<stop offset="1" stop-color="#34DB63"/>
</linearGradient>
<linearGradient id="paint9_linear_2004_5" x1="-10.5396" y1="-223.207" x2="-7.68672" y2="1500.38" gradientUnits="userSpaceOnUse">
<stop stop-color="#28BCDD"/>
<stop offset="1" stop-color="#34DB63"/>
</linearGradient>
<linearGradient id="paint10_linear_2004_5" x1="-10.5396" y1="-223.207" x2="-7.68672" y2="1500.38" gradientUnits="userSpaceOnUse">
<stop stop-color="#28BCDD"/>
<stop offset="1" stop-color="#34DB63"/>
</linearGradient>
<linearGradient id="paint11_linear_2004_5" x1="-10.5396" y1="-223.207" x2="-7.68672" y2="1500.38" gradientUnits="userSpaceOnUse">
<stop stop-color="#28BCDD"/>
<stop offset="1" stop-color="#34DB63"/>
</linearGradient>
<linearGradient id="paint12_linear_2004_5" x1="-10.5396" y1="-223.207" x2="-7.68672" y2="1500.38" gradientUnits="userSpaceOnUse">
<stop stop-color="#28BCDD"/>
<stop offset="1" stop-color="#34DB63"/>
</linearGradient>
<linearGradient id="paint13_linear_2004_5" x1="-10.5396" y1="-223.207" x2="-7.68672" y2="1500.38" gradientUnits="userSpaceOnUse">
<stop stop-color="#28BCDD"/>
<stop offset="1" stop-color="#34DB63"/>
</linearGradient>
<linearGradient id="paint14_linear_2004_5" x1="-10.5396" y1="-223.207" x2="-7.68672" y2="1500.38" gradientUnits="userSpaceOnUse">
<stop stop-color="#28BCDD"/>
<stop offset="1" stop-color="#34DB63"/>
</linearGradient>
<linearGradient id="paint15_linear_2004_5" x1="-10.5396" y1="-223.207" x2="-7.68672" y2="1500.38" gradientUnits="userSpaceOnUse">
<stop stop-color="#28BCDD"/>
<stop offset="1" stop-color="#34DB63"/>
</linearGradient>
<linearGradient id="paint16_linear_2004_5" x1="-10.5396" y1="-223.207" x2="-7.68672" y2="1500.38" gradientUnits="userSpaceOnUse">
<stop stop-color="#28BCDD"/>
<stop offset="1" stop-color="#34DB63"/>
</linearGradient>
<linearGradient id="paint17_linear_2004_5" x1="-10.5396" y1="-223.207" x2="-7.68672" y2="1500.38" gradientUnits="userSpaceOnUse">
<stop stop-color="#28BCDD"/>
<stop offset="1" stop-color="#34DB63"/>
</linearGradient>
<linearGradient id="paint18_linear_2004_5" x1="-10.5396" y1="-223.207" x2="-7.68672" y2="1500.38" gradientUnits="userSpaceOnUse">
<stop stop-color="#28BCDD"/>
<stop offset="1" stop-color="#34DB63"/>
</linearGradient>
<linearGradient id="paint19_linear_2004_5" x1="-10.5396" y1="-223.207" x2="-7.68672" y2="1500.38" gradientUnits="userSpaceOnUse">
<stop stop-color="#28BCDD"/>
<stop offset="1" stop-color="#34DB63"/>
</linearGradient>
<linearGradient id="paint20_linear_2004_5" x1="-10.5396" y1="-223.207" x2="-7.68672" y2="1500.38" gradientUnits="userSpaceOnUse">
<stop stop-color="#28BCDD"/>
<stop offset="1" stop-color="#34DB63"/>
</linearGradient>
<linearGradient id="paint21_linear_2004_5" x1="-10.5396" y1="-223.207" x2="-7.68672" y2="1500.38" gradientUnits="userSpaceOnUse">
<stop stop-color="#28BCDD"/>
<stop offset="1" stop-color="#34DB63"/>
</linearGradient>
<linearGradient id="paint22_linear_2004_5" x1="-10.5396" y1="-223.207" x2="-7.68672" y2="1500.38" gradientUnits="userSpaceOnUse">
<stop stop-color="#28BCDD"/>
<stop offset="1" stop-color="#34DB63"/>
</linearGradient>
<linearGradient id="paint23_linear_2004_5" x1="-10.5396" y1="-223.207" x2="-7.68672" y2="1500.38" gradientUnits="userSpaceOnUse">
<stop stop-color="#28BCDD"/>
<stop offset="1" stop-color="#34DB63"/>
</linearGradient>
<linearGradient id="paint24_linear_2004_5" x1="-10.5396" y1="-223.207" x2="-7.68672" y2="1500.38" gradientUnits="userSpaceOnUse">
<stop stop-color="#28BCDD"/>
<stop offset="1" stop-color="#34DB63"/>
</linearGradient>
<linearGradient id="paint25_linear_2004_5" x1="-10.5396" y1="-223.207" x2="-7.68672" y2="1500.38" gradientUnits="userSpaceOnUse">
<stop stop-color="#28BCDD"/>
<stop offset="1" stop-color="#34DB63"/>
</linearGradient>
<linearGradient id="paint26_linear_2004_5" x1="-10.5396" y1="-223.207" x2="-7.68672" y2="1500.38" gradientUnits="userSpaceOnUse">
<stop stop-color="#28BCDD"/>
<stop offset="1" stop-color="#34DB63"/>
</linearGradient>
<linearGradient id="paint27_linear_2004_5" x1="-10.5396" y1="-223.207" x2="-7.68672" y2="1500.38" gradientUnits="userSpaceOnUse">
<stop stop-color="#28BCDD"/>
<stop offset="1" stop-color="#34DB63"/>
</linearGradient>
<linearGradient id="paint28_linear_2004_5" x1="-10.5396" y1="-223.207" x2="-7.68672" y2="1500.38" gradientUnits="userSpaceOnUse">
<stop stop-color="#28BCDD"/>
<stop offset="1" stop-color="#34DB63"/>
</linearGradient>
<linearGradient id="paint29_linear_2004_5" x1="-10.5396" y1="-223.207" x2="-7.68672" y2="1500.38" gradientUnits="userSpaceOnUse">
<stop stop-color="#28BCDD"/>
<stop offset="1" stop-color="#34DB63"/>
</linearGradient>
<linearGradient id="paint30_linear_2004_5" x1="-10.5396" y1="-223.207" x2="-7.68672" y2="1500.38" gradientUnits="userSpaceOnUse">
<stop stop-color="#28BCDD"/>
<stop offset="1" stop-color="#34DB63"/>
</linearGradient>
<linearGradient id="paint31_linear_2004_5" x1="-10.5396" y1="-223.207" x2="-7.68672" y2="1500.38" gradientUnits="userSpaceOnUse">
<stop stop-color="#28BCDD"/>
<stop offset="1" stop-color="#34DB63"/>
</linearGradient>
<linearGradient id="paint32_linear_2004_5" x1="-10.5396" y1="-223.207" x2="-7.68672" y2="1500.38" gradientUnits="userSpaceOnUse">
<stop stop-color="#28BCDD"/>
<stop offset="1" stop-color="#34DB63"/>
</linearGradient>
<linearGradient id="paint33_linear_2004_5" x1="-10.5396" y1="-223.207" x2="-7.68672" y2="1500.38" gradientUnits="userSpaceOnUse">
<stop stop-color="#28BCDD"/>
<stop offset="1" stop-color="#34DB63"/>
</linearGradient>
<linearGradient id="paint34_linear_2004_5" x1="-10.5396" y1="-223.207" x2="-7.68672" y2="1500.38" gradientUnits="userSpaceOnUse">
<stop stop-color="#28BCDD"/>
<stop offset="1" stop-color="#34DB63"/>
</linearGradient>
<linearGradient id="paint35_linear_2004_5" x1="-10.5396" y1="-223.207" x2="-7.68672" y2="1500.38" gradientUnits="userSpaceOnUse">
<stop stop-color="#28BCDD"/>
<stop offset="1" stop-color="#34DB63"/>
</linearGradient>
<linearGradient id="paint36_linear_2004_5" x1="-10.5396" y1="-223.207" x2="-7.68672" y2="1500.38" gradientUnits="userSpaceOnUse">
<stop stop-color="#28BCDD"/>
<stop offset="1" stop-color="#34DB63"/>
</linearGradient>
<linearGradient id="paint37_linear_2004_5" x1="-10.5396" y1="-223.207" x2="-7.68672" y2="1500.38" gradientUnits="userSpaceOnUse">
<stop stop-color="#28BCDD"/>
<stop offset="1" stop-color="#34DB63"/>
</linearGradient>
<linearGradient id="paint38_linear_2004_5" x1="-10.5396" y1="-223.207" x2="-7.68672" y2="1500.38" gradientUnits="userSpaceOnUse">
<stop stop-color="#28BCDD"/>
<stop offset="1" stop-color="#34DB63"/>
</linearGradient>
<linearGradient id="paint39_linear_2004_5" x1="-10.5396" y1="-223.207" x2="-7.68672" y2="1500.38" gradientUnits="userSpaceOnUse">
<stop stop-color="#28BCDD"/>
<stop offset="1" stop-color="#34DB63"/>
</linearGradient>
<linearGradient id="paint40_linear_2004_5" x1="-10.5396" y1="-223.207" x2="-7.68672" y2="1500.38" gradientUnits="userSpaceOnUse">
<stop stop-color="#28BCDD"/>
<stop offset="1" stop-color="#34DB63"/>
</linearGradient>
<linearGradient id="paint41_linear_2004_5" x1="-10.5396" y1="-223.207" x2="-7.68672" y2="1500.38" gradientUnits="userSpaceOnUse">
<stop stop-color="#28BCDD"/>
<stop offset="1" stop-color="#34DB63"/>
</linearGradient>
<linearGradient id="paint42_linear_2004_5" x1="-10.5396" y1="-223.207" x2="-7.68672" y2="1500.38" gradientUnits="userSpaceOnUse">
<stop stop-color="#28BCDD"/>
<stop offset="1" stop-color="#34DB63"/>
</linearGradient>
<linearGradient id="paint43_linear_2004_5" x1="-10.5396" y1="-223.207" x2="-7.68672" y2="1500.38" gradientUnits="userSpaceOnUse">
<stop stop-color="#28BCDD"/>
<stop offset="1" stop-color="#34DB63"/>
</linearGradient>
<linearGradient id="paint44_linear_2004_5" x1="-10.5396" y1="-223.207" x2="-7.68672" y2="1500.38" gradientUnits="userSpaceOnUse">
<stop stop-color="#28BCDD"/>
<stop offset="1" stop-color="#34DB63"/>
</linearGradient>
<linearGradient id="paint45_linear_2004_5" x1="-10.5396" y1="-223.207" x2="-7.68672" y2="1500.38" gradientUnits="userSpaceOnUse">
<stop stop-color="#28BCDD"/>
<stop offset="1" stop-color="#34DB63"/>
</linearGradient>
<linearGradient id="paint46_linear_2004_5" x1="-10.5396" y1="-223.207" x2="-7.68672" y2="1500.38" gradientUnits="userSpaceOnUse">
<stop stop-color="#28BCDD"/>
<stop offset="1" stop-color="#34DB63"/>
</linearGradient>
<linearGradient id="paint47_linear_2004_5" x1="-10.5396" y1="-223.207" x2="-7.68672" y2="1500.38" gradientUnits="userSpaceOnUse">
<stop stop-color="#28BCDD"/>
<stop offset="1" stop-color="#34DB63"/>
</linearGradient>
<linearGradient id="paint48_linear_2004_5" x1="-10.5396" y1="-223.207" x2="-7.68672" y2="1500.38" gradientUnits="userSpaceOnUse">
<stop stop-color="#28BCDD"/>
<stop offset="1" stop-color="#34DB63"/>
</linearGradient>
<linearGradient id="paint49_linear_2004_5" x1="-10.5396" y1="-223.207" x2="-7.68672" y2="1500.38" gradientUnits="userSpaceOnUse">
<stop stop-color="#28BCDD"/>
<stop offset="1" stop-color="#34DB63"/>
</linearGradient>
<linearGradient id="paint50_linear_2004_5" x1="-10.5396" y1="-223.207" x2="-7.68672" y2="1500.38" gradientUnits="userSpaceOnUse">
<stop stop-color="#28BCDD"/>
<stop offset="1" stop-color="#34DB63"/>
</linearGradient>
<linearGradient id="paint51_linear_2004_5" x1="-10.5396" y1="-223.207" x2="-7.68672" y2="1500.38" gradientUnits="userSpaceOnUse">
<stop stop-color="#28BCDD"/>
<stop offset="1" stop-color="#34DB63"/>
</linearGradient>
<linearGradient id="paint52_linear_2004_5" x1="-10.5396" y1="-223.207" x2="-7.68672" y2="1500.38" gradientUnits="userSpaceOnUse">
<stop stop-color="#28BCDD"/>
<stop offset="1" stop-color="#34DB63"/>
</linearGradient>
<linearGradient id="paint53_linear_2004_5" x1="-10.5396" y1="-223.207" x2="-7.68672" y2="1500.38" gradientUnits="userSpaceOnUse">
<stop stop-color="#28BCDD"/>
<stop offset="1" stop-color="#34DB63"/>
</linearGradient>
<linearGradient id="paint54_linear_2004_5" x1="-10.5396" y1="-223.207" x2="-7.68672" y2="1500.38" gradientUnits="userSpaceOnUse">
<stop stop-color="#28BCDD"/>
<stop offset="1" stop-color="#34DB63"/>
</linearGradient>
<linearGradient id="paint55_linear_2004_5" x1="-10.5396" y1="-223.207" x2="-7.68672" y2="1500.38" gradientUnits="userSpaceOnUse">
<stop stop-color="#28BCDD"/>
<stop offset="1" stop-color="#34DB63"/>
</linearGradient>
<linearGradient id="paint56_linear_2004_5" x1="-10.5396" y1="-223.207" x2="-7.68672" y2="1500.38" gradientUnits="userSpaceOnUse">
<stop stop-color="#28BCDD"/>
<stop offset="1" stop-color="#34DB63"/>
</linearGradient>
<linearGradient id="paint57_linear_2004_5" x1="-10.5396" y1="-223.207" x2="-7.68672" y2="1500.38" gradientUnits="userSpaceOnUse">
<stop stop-color="#28BCDD"/>
<stop offset="1" stop-color="#34DB63"/>
</linearGradient>
<linearGradient id="paint58_linear_2004_5" x1="-10.5396" y1="-223.207" x2="-7.68672" y2="1500.38" gradientUnits="userSpaceOnUse">
<stop stop-color="#28BCDD"/>
<stop offset="1" stop-color="#34DB63"/>
</linearGradient>
<linearGradient id="paint59_linear_2004_5" x1="-10.5396" y1="-223.207" x2="-7.68672" y2="1500.38" gradientUnits="userSpaceOnUse">
<stop stop-color="#28BCDD"/>
<stop offset="1" stop-color="#34DB63"/>
</linearGradient>
<linearGradient id="paint60_linear_2004_5" x1="-10.5396" y1="-223.207" x2="-7.68672" y2="1500.38" gradientUnits="userSpaceOnUse">
<stop stop-color="#28BCDD"/>
<stop offset="1" stop-color="#34DB63"/>
</linearGradient>
<linearGradient id="paint61_linear_2004_5" x1="-10.5396" y1="-223.207" x2="-7.68672" y2="1500.38" gradientUnits="userSpaceOnUse">
<stop stop-color="#28BCDD"/>
<stop offset="1" stop-color="#34DB63"/>
</linearGradient>
<linearGradient id="paint62_linear_2004_5" x1="-10.5396" y1="-223.207" x2="-7.68672" y2="1500.38" gradientUnits="userSpaceOnUse">
<stop stop-color="#28BCDD"/>
<stop offset="1" stop-color="#34DB63"/>
</linearGradient>
<linearGradient id="paint63_linear_2004_5" x1="-10.5396" y1="-223.207" x2="-7.68672" y2="1500.38" gradientUnits="userSpaceOnUse">
<stop stop-color="#28BCDD"/>
<stop offset="1" stop-color="#34DB63"/>
</linearGradient>
<linearGradient id="paint64_linear_2004_5" x1="-10.5396" y1="-223.207" x2="-7.68672" y2="1500.38" gradientUnits="userSpaceOnUse">
<stop stop-color="#28BCDD"/>
<stop offset="1" stop-color="#34DB63"/>
</linearGradient>
<linearGradient id="paint65_linear_2004_5" x1="-10.5396" y1="-223.207" x2="-7.68672" y2="1500.38" gradientUnits="userSpaceOnUse">
<stop stop-color="#28BCDD"/>
<stop offset="1" stop-color="#34DB63"/>
</linearGradient>
<linearGradient id="paint66_linear_2004_5" x1="-10.5396" y1="-223.207" x2="-7.68672" y2="1500.38" gradientUnits="userSpaceOnUse">
<stop stop-color="#28BCDD"/>
<stop offset="1" stop-color="#34DB63"/>
</linearGradient>
<linearGradient id="paint67_linear_2004_5" x1="-10.5396" y1="-223.207" x2="-7.68672" y2="1500.38" gradientUnits="userSpaceOnUse">
<stop stop-color="#28BCDD"/>
<stop offset="1" stop-color="#34DB63"/>
</linearGradient>
<linearGradient id="paint68_linear_2004_5" x1="-10.5396" y1="-223.207" x2="-7.68672" y2="1500.38" gradientUnits="userSpaceOnUse">
<stop stop-color="#28BCDD"/>
<stop offset="1" stop-color="#34DB63"/>
</linearGradient>
<linearGradient id="paint69_linear_2004_5" x1="-10.5396" y1="-223.207" x2="-7.68672" y2="1500.38" gradientUnits="userSpaceOnUse">
<stop stop-color="#28BCDD"/>
<stop offset="1" stop-color="#34DB63"/>
</linearGradient>
<linearGradient id="paint70_linear_2004_5" x1="-10.5396" y1="-223.207" x2="-7.68672" y2="1500.38" gradientUnits="userSpaceOnUse">
<stop stop-color="#28BCDD"/>
<stop offset="1" stop-color="#34DB63"/>
</linearGradient>
<linearGradient id="paint71_linear_2004_5" x1="-10.5396" y1="-223.207" x2="-7.68672" y2="1500.38" gradientUnits="userSpaceOnUse">
<stop stop-color="#28BCDD"/>
<stop offset="1" stop-color="#34DB63"/>
</linearGradient>
<linearGradient id="paint72_linear_2004_5" x1="-10.5396" y1="-223.207" x2="-7.68672" y2="1500.38" gradientUnits="userSpaceOnUse">
<stop stop-color="#28BCDD"/>
<stop offset="1" stop-color="#34DB63"/>
</linearGradient>
<linearGradient id="paint73_linear_2004_5" x1="-10.5396" y1="-223.207" x2="-7.68672" y2="1500.38" gradientUnits="userSpaceOnUse">
<stop stop-color="#28BCDD"/>
<stop offset="1" stop-color="#34DB63"/>
</linearGradient>
<linearGradient id="paint74_linear_2004_5" x1="-10.5396" y1="-223.207" x2="-7.68672" y2="1500.38" gradientUnits="userSpaceOnUse">
<stop stop-color="#28BCDD"/>
<stop offset="1" stop-color="#34DB63"/>
</linearGradient>
<linearGradient id="paint75_linear_2004_5" x1="-10.5396" y1="-223.207" x2="-7.68672" y2="1500.38" gradientUnits="userSpaceOnUse">
<stop stop-color="#28BCDD"/>
<stop offset="1" stop-color="#34DB63"/>
</linearGradient>
<linearGradient id="paint76_linear_2004_5" x1="-10.5396" y1="-223.207" x2="-7.68672" y2="1500.38" gradientUnits="userSpaceOnUse">
<stop stop-color="#28BCDD"/>
<stop offset="1" stop-color="#34DB63"/>
</linearGradient>
<linearGradient id="paint77_linear_2004_5" x1="-10.5396" y1="-223.207" x2="-7.68672" y2="1500.38" gradientUnits="userSpaceOnUse">
<stop stop-color="#28BCDD"/>
<stop offset="1" stop-color="#34DB63"/>
</linearGradient>
<linearGradient id="paint78_linear_2004_5" x1="-10.5396" y1="-223.207" x2="-7.68672" y2="1500.38" gradientUnits="userSpaceOnUse">
<stop stop-color="#28BCDD"/>
<stop offset="1" stop-color="#34DB63"/>
</linearGradient>
<linearGradient id="paint79_linear_2004_5" x1="-10.5396" y1="-223.207" x2="-7.68672" y2="1500.38" gradientUnits="userSpaceOnUse">
<stop stop-color="#28BCDD"/>
<stop offset="1" stop-color="#34DB63"/>
</linearGradient>
<linearGradient id="paint80_linear_2004_5" x1="-10.5396" y1="-223.207" x2="-7.68672" y2="1500.38" gradientUnits="userSpaceOnUse">
<stop stop-color="#28BCDD"/>
<stop offset="1" stop-color="#34DB63"/>
</linearGradient>
<linearGradient id="paint81_linear_2004_5" x1="-10.5396" y1="-223.207" x2="-7.68672" y2="1500.38" gradientUnits="userSpaceOnUse">
<stop stop-color="#28BCDD"/>
<stop offset="1" stop-color="#34DB63"/>
</linearGradient>
<linearGradient id="paint82_linear_2004_5" x1="-10.5396" y1="-223.207" x2="-7.68672" y2="1500.38" gradientUnits="userSpaceOnUse">
<stop stop-color="#28BCDD"/>
<stop offset="1" stop-color="#34DB63"/>
</linearGradient>
<linearGradient id="paint83_linear_2004_5" x1="-10.5396" y1="-223.207" x2="-7.68672" y2="1500.38" gradientUnits="userSpaceOnUse">
<stop stop-color="#28BCDD"/>
<stop offset="1" stop-color="#34DB63"/>
</linearGradient>
<linearGradient id="paint84_linear_2004_5" x1="-10.5396" y1="-223.207" x2="-7.68672" y2="1500.38" gradientUnits="userSpaceOnUse">
<stop stop-color="#28BCDD"/>
<stop offset="1" stop-color="#34DB63"/>
</linearGradient>
<linearGradient id="paint85_linear_2004_5" x1="-10.5396" y1="-223.207" x2="-7.68672" y2="1500.38" gradientUnits="userSpaceOnUse">
<stop stop-color="#28BCDD"/>
<stop offset="1" stop-color="#34DB63"/>
</linearGradient>
<linearGradient id="paint86_linear_2004_5" x1="-10.5396" y1="-223.207" x2="-7.68672" y2="1500.38" gradientUnits="userSpaceOnUse">
<stop stop-color="#28BCDD"/>
<stop offset="1" stop-color="#34DB63"/>
</linearGradient>
<linearGradient id="paint87_linear_2004_5" x1="-10.5396" y1="-223.207" x2="-7.68672" y2="1500.38" gradientUnits="userSpaceOnUse">
<stop stop-color="#28BCDD"/>
<stop offset="1" stop-color="#34DB63"/>
</linearGradient>
<linearGradient id="paint88_linear_2004_5" x1="-10.5396" y1="-223.207" x2="-7.68672" y2="1500.38" gradientUnits="userSpaceOnUse">
<stop stop-color="#28BCDD"/>
<stop offset="1" stop-color="#34DB63"/>
</linearGradient>
<linearGradient id="paint89_linear_2004_5" x1="-10.5396" y1="-223.207" x2="-7.68672" y2="1500.38" gradientUnits="userSpaceOnUse">
<stop stop-color="#28BCDD"/>
<stop offset="1" stop-color="#34DB63"/>
</linearGradient>
<linearGradient id="paint90_linear_2004_5" x1="-10.5396" y1="-223.207" x2="-7.68672" y2="1500.38" gradientUnits="userSpaceOnUse">
<stop stop-color="#28BCDD"/>
<stop offset="1" stop-color="#34DB63"/>
</linearGradient>
<linearGradient id="paint91_linear_2004_5" x1="-10.5396" y1="-223.207" x2="-7.68672" y2="1500.38" gradientUnits="userSpaceOnUse">
<stop stop-color="#28BCDD"/>
<stop offset="1" stop-color="#34DB63"/>
</linearGradient>
<linearGradient id="paint92_linear_2004_5" x1="-10.5396" y1="-223.207" x2="-7.68672" y2="1500.38" gradientUnits="userSpaceOnUse">
<stop stop-color="#28BCDD"/>
<stop offset="1" stop-color="#34DB63"/>
</linearGradient>
<linearGradient id="paint93_linear_2004_5" x1="-10.5396" y1="-223.207" x2="-7.68672" y2="1500.38" gradientUnits="userSpaceOnUse">
<stop stop-color="#28BCDD"/>
<stop offset="1" stop-color="#34DB63"/>
</linearGradient>
<linearGradient id="paint94_linear_2004_5" x1="-10.5396" y1="-223.207" x2="-7.68672" y2="1500.38" gradientUnits="userSpaceOnUse">
<stop stop-color="#28BCDD"/>
<stop offset="1" stop-color="#34DB63"/>
</linearGradient>
<linearGradient id="paint95_linear_2004_5" x1="-10.5396" y1="-223.207" x2="-7.68672" y2="1500.38" gradientUnits="userSpaceOnUse">
<stop stop-color="#28BCDD"/>
<stop offset="1" stop-color="#34DB63"/>
</linearGradient>
<linearGradient id="paint96_linear_2004_5" x1="-10.5396" y1="-223.207" x2="-7.68672" y2="1500.38" gradientUnits="userSpaceOnUse">
<stop stop-color="#28BCDD"/>
<stop offset="1" stop-color="#34DB63"/>
</linearGradient>
<linearGradient id="paint97_linear_2004_5" x1="-10.5396" y1="-223.207" x2="-7.68672" y2="1500.38" gradientUnits="userSpaceOnUse">
<stop stop-color="#28BCDD"/>
<stop offset="1" stop-color="#34DB63"/>
</linearGradient>
<linearGradient id="paint98_linear_2004_5" x1="-10.5396" y1="-223.207" x2="-7.68672" y2="1500.38" gradientUnits="userSpaceOnUse">
<stop stop-color="#28BCDD"/>
<stop offset="1" stop-color="#34DB63"/>
</linearGradient>
<linearGradient id="paint99_linear_2004_5" x1="-10.5396" y1="-223.207" x2="-7.68672" y2="1500.38" gradientUnits="userSpaceOnUse">
<stop stop-color="#28BCDD"/>
<stop offset="1" stop-color="#34DB63"/>
</linearGradient>
<linearGradient id="paint100_linear_2004_5" x1="-10.5396" y1="-223.207" x2="-7.68672" y2="1500.38" gradientUnits="userSpaceOnUse">
<stop stop-color="#28BCDD"/>
<stop offset="1" stop-color="#34DB63"/>
</linearGradient>
<linearGradient id="paint101_linear_2004_5" x1="-10.5396" y1="-223.207" x2="-7.68672" y2="1500.38" gradientUnits="userSpaceOnUse">
<stop stop-color="#28BCDD"/>
<stop offset="1" stop-color="#34DB63"/>
</linearGradient>
<linearGradient id="paint102_linear_2004_5" x1="-10.5396" y1="-223.207" x2="-7.68672" y2="1500.38" gradientUnits="userSpaceOnUse">
<stop stop-color="#28BCDD"/>
<stop offset="1" stop-color="#34DB63"/>
</linearGradient>
</defs>
</svg>
