<svg width="504" height="428" viewBox="0 0 504 428" fill="none" xmlns="http://www.w3.org/2000/svg">
<g clip-path="url(#clip0_1_5853)">
<path d="M503.061 205.566L415.281 256.425L340.992 299.74L251.99 352.328L87.8178 257.002L0.419922 205.626C0.419922 205.626 70.902 0 244.056 0C417.21 0 503.061 205.566 503.061 205.566Z" fill="url(#paint0_radial_1_5853)"/>
<path fill-rule="evenodd" clip-rule="evenodd" d="M503.822 306.419L415.799 256.42L503.822 205.882C503.936 205.825 504 205.704 504 205.576C504 205.455 503.936 205.334 503.829 205.27L340.749 109.161C340.642 109.097 340.507 109.09 340.393 109.154L252.007 159.366L163.614 109.154C163.5 109.09 163.365 109.097 163.258 109.161L0.177725 205.27C0.063981 205.334 0 205.448 0 205.576C0 205.704 0.063981 205.818 0.177725 205.882L86.0829 256.598L0.177725 306.426C0.07109 306.49 0 306.603 0 306.731C0 306.852 0.063981 306.973 0.170616 307.037L86.4313 358.329V448.816C86.4313 448.944 86.4953 449.065 86.6019 449.129L251.815 545.949H251.822C251.872 545.985 251.936 545.999 252 545.999C252 545.999 252.014 545.992 252.028 545.992C252.078 545.985 252.128 545.977 252.171 545.949H252.178L417.391 449.129C417.498 449.065 417.569 448.944 417.569 448.816V358.329L503.822 307.037C503.929 306.973 504 306.852 503.993 306.724C503.993 306.603 503.929 306.482 503.815 306.419H503.822ZM1.05924 205.576L163.443 109.879L251.289 159.778L86.7938 256.186L1.05924 205.576ZM251.645 545.025L87.1422 448.617V358.755L165.384 405.285H165.405C165.428 405.298 165.452 405.31 165.478 405.319C165.507 405.329 165.538 405.335 165.569 405.335C165.633 405.335 165.697 405.314 165.754 405.278L251.645 353.162V545.025ZM416.858 448.617L252.355 545.025V353.162L338.246 405.278C338.296 405.314 338.36 405.335 338.424 405.335C338.45 405.335 338.476 405.332 338.502 405.325C338.539 405.317 338.575 405.302 338.609 405.285L416.858 358.755V448.617ZM502.934 306.738L338.431 404.56L252.69 352.536L415.081 256.832L502.934 306.738ZM415.073 256.008L252.704 159.785L340.564 109.879L502.934 205.569L415.073 256.008ZM252.355 351.896V160.396L414.377 256.42L341.808 299.184L340.863 299.738L336.839 302.112L336.185 302.495L334.486 303.498L333.839 303.874L252.355 351.896ZM216.021 331.229L251.645 351.915V160.396L87.4905 256.598L213.953 330.028L214.756 330.497L216.021 331.229ZM86.7867 257.01L1.05924 306.731L165.569 404.56L251.303 352.536L245.95 349.431C245.886 349.409 245.822 349.381 245.758 349.352L245.787 349.338L199.237 322.31L198.654 321.969L86.7867 257.01Z" fill="white"/>
</g>
<defs>
<radialGradient id="paint0_radial_1_5853" cx="0" cy="0" r="1" gradientUnits="userSpaceOnUse" gradientTransform="translate(255.118 352.725) scale(430.244 430.128)">
<stop offset="0.02" stop-color="#FBFA7D"/>
<stop offset="0.03" stop-color="#FBFA7D" stop-opacity="0.95"/>
<stop offset="0.09" stop-color="#FBFA7D" stop-opacity="0.76"/>
<stop offset="0.15" stop-color="#FBFA7D" stop-opacity="0.58"/>
<stop offset="0.21" stop-color="#FBFA7D" stop-opacity="0.42"/>
<stop offset="0.28" stop-color="#FBFA7D" stop-opacity="0.29"/>
<stop offset="0.35" stop-color="#FBFA7D" stop-opacity="0.18"/>
<stop offset="0.43" stop-color="#FBFA7D" stop-opacity="0.1"/>
<stop offset="0.52" stop-color="#FBFA7D" stop-opacity="0.04"/>
<stop offset="0.63" stop-color="#FBFA7D" stop-opacity="0.01"/>
<stop offset="0.8" stop-color="#FBFA7D" stop-opacity="0"/>
</radialGradient>
<clipPath id="clip0_1_5853">
<rect width="504" height="428" fill="white"/>
</clipPath>
</defs>
</svg>
