<svg width="370" height="236" viewBox="0 0 370 236" fill="none" xmlns="http://www.w3.org/2000/svg">
<path fill-rule="evenodd" clip-rule="evenodd" d="M185.323 37.4753C181.02 37.4753 177.643 35.041 177.643 31.9371C177.643 28.8332 181.014 26.3989 185.323 26.3989C189.631 26.3989 193.002 28.8332 193.002 31.9371C193.002 35.041 189.631 37.4753 185.323 37.4753ZM185.323 28.2011C182.14 28.2011 179.45 29.9095 179.45 31.9308C179.45 33.9521 182.14 35.6605 185.323 35.6605C188.506 35.6605 191.195 33.9521 191.195 31.9308C191.195 29.9095 188.506 28.2011 185.323 28.2011Z" fill="url(#paint0_linear_1_145)"/>
<path fill-rule="evenodd" clip-rule="evenodd" d="M165.017 47.7195C160.714 47.7195 157.337 45.2852 157.337 42.1813C157.337 39.0774 160.708 36.6431 165.017 36.6431C169.325 36.6431 172.696 39.0774 172.696 42.1813C172.696 45.2852 169.325 47.7195 165.017 47.7195ZM165.017 38.4453C161.833 38.4453 159.144 40.1537 159.144 42.175C159.144 44.1963 161.833 45.9047 165.017 45.9047C168.2 45.9047 170.889 44.1963 170.889 42.175C170.889 40.1537 168.2 38.4453 165.017 38.4453Z" fill="url(#paint1_linear_1_145)"/>
<path fill-rule="evenodd" clip-rule="evenodd" d="M179.075 0.122028L114.047 37.9407C114.009 37.9561 113.973 37.974 113.937 37.9947C113.662 38.1574 113.487 38.4515 113.487 38.7769V55.5104C113.487 55.8358 113.662 56.13 113.937 56.2927L303.345 166.6C303.364 166.613 303.384 166.626 303.404 166.637C303.529 166.712 303.67 166.749 303.812 166.755C303.826 166.756 303.841 166.757 303.855 166.757L303.867 166.769C304.023 166.769 304.18 166.732 304.317 166.65C304.374 166.618 304.427 166.579 304.475 166.535L369.549 128.602C369.83 128.439 369.999 128.139 369.999 127.82V110.458C370 110.445 370 110.431 370 110.417C370 110.098 369.831 109.797 369.556 109.635L359.706 103.784C359.425 103.621 359.075 103.621 358.793 103.784L354.939 106.008L348.9 103.078V98.5678C348.902 98.5467 348.904 98.5254 348.904 98.504C348.905 98.4908 348.905 98.4776 348.905 98.4644C348.905 98.139 348.73 97.8449 348.449 97.6822L337.536 91.4744C337.255 91.3117 336.917 91.3117 336.636 91.4744L333.265 93.4213L327.073 90.4697V85.2791C327.073 84.96 326.898 84.6596 326.617 84.4969C326.578 84.4744 326.538 84.4551 326.497 84.4388L316.112 79.1401C315.843 79.0024 315.517 79.0087 315.255 79.1589L311.395 81.3709L305.893 78.5802V73.8021C305.893 73.5147 305.761 73.2518 305.536 73.0822C305.511 73.0623 305.483 73.0436 305.455 73.0262L295.187 66.7746C294.905 66.6056 294.555 66.5994 294.267 66.7621L290.596 68.8607L284.374 65.5167C284.233 65.4433 284.078 65.4073 283.924 65.4105V61.4554C283.924 61.4003 283.919 61.3461 283.91 61.2934C283.866 61.0393 283.716 60.8175 283.492 60.6794L273.223 54.4278C272.942 54.2589 272.591 54.2526 272.304 54.4153L268.63 56.5153L262.805 53.385V48.6544L262.806 48.6391C262.812 48.32 262.649 48.0259 262.374 47.8569L252.106 41.6053C251.824 41.4363 251.474 41.4301 251.186 41.5928L247.051 43.9612L241.368 40.9068V36.1174C241.368 35.8647 241.266 35.631 241.088 35.4629C241.036 35.4118 240.977 35.3666 240.911 35.3288L179.982 0.122028C179.701 -0.0406761 179.357 -0.0406761 179.075 0.122028ZM284.033 141.324L348.041 104.671L353.046 107.1L292.63 141.969L292.623 141.973C292.619 141.975 292.615 141.978 292.612 141.98C292.375 142.124 292.218 142.371 292.185 142.643L292.184 142.659C292.183 142.664 292.183 142.67 292.182 142.676C292.181 142.69 292.18 142.703 292.18 142.717L292.179 142.733L292.179 142.738C292.179 142.742 292.179 142.747 292.179 142.751V146.012L284.033 141.324ZM347.099 103.122V100.035L283.117 136.922V139.759L347.099 103.122ZM281.304 141.329V141.325V136.92L272.249 131.793V135.367C272.249 135.677 272.089 135.971 271.825 136.133L271.819 136.137L271.804 136.146C271.792 136.154 271.779 136.161 271.766 136.168C271.629 136.243 271.479 136.281 271.329 136.281L271.335 136.274C271.172 136.274 271.003 136.231 270.86 136.143L260.191 129.572C259.922 129.403 259.753 129.109 259.759 128.79C259.76 128.76 259.762 128.731 259.765 128.701V124.103L250.705 119.229V122.845C250.705 123.171 250.53 123.465 250.255 123.627C250.055 123.742 249.825 123.776 249.608 123.728C249.515 123.71 249.424 123.677 249.341 123.627L238.879 117.588C238.597 117.426 238.428 117.125 238.428 116.806C238.428 116.795 238.428 116.785 238.429 116.774C238.429 116.765 238.43 116.756 238.43 116.747C238.431 116.732 238.433 116.718 238.434 116.703V111.887L229.717 106.794V110.148C229.717 110.461 229.555 110.749 229.292 110.918C229.026 111.079 228.698 111.099 228.424 110.965C228.417 110.962 228.41 110.959 228.404 110.955L217.02 105.293L217.017 105.292C216.987 105.28 216.958 105.266 216.93 105.25L216.916 105.242C216.771 105.158 216.656 105.039 216.579 104.9C216.508 104.775 216.468 104.633 216.465 104.484C216.464 104.458 216.465 104.431 216.466 104.405V99.5269L214.181 98.1389L207.836 94.4847V97.9137C207.836 98.2329 207.667 98.527 207.398 98.6897C207.123 98.8524 206.785 98.8587 206.504 98.7085L195.429 92.7447C195.379 92.7185 195.333 92.688 195.291 92.6539C195.08 92.4891 194.955 92.2409 194.947 91.9687L194.947 91.9562L194.947 91.9499L194.947 91.9437V86.9338L186.242 81.9249V85.2854C186.242 85.6108 186.067 85.9111 185.785 86.0676C185.504 86.2303 185.16 86.2303 184.879 86.0676L174.366 79.9099C174.337 79.8923 174.308 79.8733 174.281 79.8529C174.21 79.8015 174.148 79.7409 174.095 79.6732C173.972 79.5156 173.903 79.3192 173.903 79.1152C173.903 79.0799 173.905 79.0449 173.909 79.0104V74.2052L115.307 40.3539V54.9947L302.947 164.281V149.149L293.993 144.285V147.589C293.993 147.914 293.824 148.208 293.542 148.371C293.274 148.526 292.949 148.533 292.681 148.393C292.674 148.389 292.666 148.385 292.659 148.381C292.649 148.376 292.639 148.37 292.629 148.365L281.839 142.149C281.828 142.145 281.818 142.14 281.807 142.135C281.789 142.126 281.772 142.117 281.754 142.107C281.544 141.986 281.397 141.791 281.336 141.566C281.314 141.489 281.303 141.41 281.304 141.329ZM346.185 98.4707L282.21 135.355L273.161 130.229H273.167L337.098 93.3017L346.185 98.4707ZM270.434 133.752L262.439 128.829L326.208 92.0517L331.373 94.5141L270.885 129.453C270.603 129.616 270.434 129.916 270.434 130.242L270.434 133.752ZM325.26 90.4982L261.574 127.231V124.09L325.26 86.8613V90.4982ZM241.151 116.811L305.014 80.1647L309.501 82.4442L249.341 116.925C249.059 117.082 248.884 117.382 248.884 117.707V121.274L241.151 116.811ZM219.287 104.404L283.961 67.344L288.745 69.916L228.376 104.419C228.367 104.424 228.357 104.429 228.348 104.434C228.067 104.591 227.891 104.891 227.891 105.217V108.678L219.287 104.404ZM266.783 57.5567L206.939 91.7595C206.775 91.7544 206.61 91.7934 206.46 91.8749C206.219 92.0115 206.056 92.2451 206.011 92.509C205.974 92.5978 205.951 92.6929 205.943 92.791C205.941 92.8171 205.94 92.8434 205.94 92.8699C205.939 92.8903 205.94 92.9107 205.941 92.931V96.2804L197.724 91.9061L261.999 54.9847L266.783 57.5567ZM260.998 53.4453L196.754 90.3793V87.0251L260.998 50.1912V53.4453ZM281.695 63.2488L218.273 99.5407V102.895L282.117 66.2614V63.0079L281.695 63.2488ZM214.912 96.47L208.83 92.7729L272.735 56.2489L281.24 61.4241L217.365 97.8824L214.912 96.47ZM176.621 79.1292L240.483 42.4833L245.201 45.0202L184.98 79.5074C184.939 79.5237 184.899 79.5431 184.86 79.5657C184.579 79.7284 184.41 80.0225 184.41 80.3479V83.6951L176.621 79.1292ZM239.56 40.9191V37.6694L175.717 74.2028V77.5543L239.56 40.9191ZM187.142 80.3509L195.841 85.3603L260.123 48.6016L251.618 43.4263L247.801 45.6122C247.735 45.6879 247.656 45.7534 247.565 45.8046L187.142 80.3509ZM359.244 105.617L367.314 110.415L303.839 147.568L294.937 142.733V142.726L359.244 105.617ZM304.768 164.274V149.124L368.192 112V127.301L304.768 164.274ZM116.198 38.7769L174.813 72.6364L238.641 36.111L179.532 1.94933L116.201 38.7769H116.198ZM240.242 115.242V111.887L304.085 75.3541V78.6082L240.242 115.242ZM239.329 110.229L230.629 105.22L294.699 68.5956L303.204 73.7709L239.329 110.229ZM251.655 117.689L260.648 122.526L324.279 85.3291L315.724 80.9674L251.655 117.689Z" fill="url(#paint2_linear_1_145)"/>
<path fill-rule="evenodd" clip-rule="evenodd" d="M71.7686 103.508C67.466 103.508 64.0891 101.074 64.0891 97.9701C64.0891 94.8662 67.4598 92.4319 71.7686 92.4319C76.0773 92.4319 79.4481 94.8662 79.4481 97.9701C79.4481 101.074 76.0773 103.508 71.7686 103.508ZM71.7686 94.2341C68.5854 94.2341 65.8964 95.9426 65.8964 97.9638C65.8964 99.9851 68.5854 101.694 71.7686 101.694C74.9517 101.694 77.6407 99.9851 77.6407 97.9638C77.6407 95.9426 74.9517 94.2341 71.7686 94.2341Z" fill="url(#paint3_linear_1_145)"/>
<path fill-rule="evenodd" clip-rule="evenodd" d="M51.4686 113.759C47.1661 113.759 43.7891 111.324 43.7891 108.22C43.7891 105.117 47.1598 102.682 51.4686 102.682C55.7774 102.682 59.1481 105.117 59.1481 108.22C59.1481 111.324 55.7774 113.759 51.4686 113.759ZM51.4686 104.484C48.2855 104.484 45.5964 106.193 45.5964 108.214C45.5964 110.235 48.2855 111.944 51.4686 111.944C54.6517 111.944 57.3408 110.235 57.3408 108.214C57.3408 106.193 54.6517 104.484 51.4686 104.484Z" fill="url(#paint4_linear_1_145)"/>
<path fill-rule="evenodd" clip-rule="evenodd" d="M189.426 235.853C189.432 235.856 189.437 235.86 189.443 235.863C189.45 235.867 189.456 235.871 189.462 235.875C189.6 235.956 189.756 235.994 189.913 235.994L189.919 236C190.075 236 190.232 235.962 190.369 235.881L255.983 198.059C256.258 197.896 256.433 197.602 256.433 197.276V179.748C256.433 179.722 256.432 179.696 256.429 179.67C256.409 179.374 256.239 179.106 255.981 178.953L67.0455 69.4967C66.7704 69.334 66.4264 69.334 66.145 69.4967L0.488325 107.151C0.473595 107.159 0.459027 107.167 0.44464 107.175C0.172397 107.339 -0.000350738 107.631 5.3471e-07 107.95V107.951C5.3471e-07 107.965 0.000304063 107.978 0.000905768 107.992L0.538445 125.642C0.550952 125.955 0.719801 126.243 0.988708 126.4L60.3985 160.924C60.6549 161.068 60.9613 161.087 61.2303 160.962L65.7454 158.878L71.036 162.163L71.5863 166.994C71.6176 167.282 71.7802 167.533 72.0303 167.676L81.9486 173.44C82.205 173.59 82.5177 173.603 82.7866 173.477L87.6582 171.206L92.4173 174.354V178.997C92.4173 179.322 92.5861 179.616 92.8675 179.779L103.342 185.862C103.593 186.006 103.899 186.024 104.162 185.906L108.908 183.809L114.092 186.926V191.581C114.092 191.907 114.261 192.201 114.543 192.364L124.661 198.24C124.911 198.39 125.224 198.403 125.487 198.284L130.421 196.062L135.417 199.46L135.811 204.266C135.836 204.56 136.005 204.823 136.262 204.973L146.255 210.781C146.518 210.931 146.837 210.943 147.112 210.806L151.852 208.446L157.105 211.719L157.437 216.813C157.455 217.12 157.624 217.389 157.887 217.539L167.63 223.196C167.893 223.346 168.205 223.365 168.474 223.234L173.315 220.925L178.918 224.335V229.229C178.918 229.554 179.087 229.848 179.368 230.011L189.409 235.841C189.414 235.845 189.42 235.849 189.426 235.853ZM190.825 233.519L254.626 196.738V181.325L190.825 219.176V233.519ZM2.70892 107.963L189.913 217.613L253.742 179.748L66.589 71.324L2.70892 107.963ZM189.005 233.515L180.725 228.709H180.738V223.822C180.738 223.509 180.575 223.215 180.306 223.052L173.852 219.129C173.596 218.972 173.271 218.953 172.996 219.085L168.143 221.394L159.231 216.219L158.9 211.144C158.881 210.856 158.725 210.593 158.475 210.436L152.396 206.65C152.127 206.481 151.796 206.469 151.514 206.607L146.755 208.972L137.587 203.647L137.2 198.884C137.175 198.609 137.031 198.365 136.806 198.209L131.034 194.285C130.771 194.11 130.44 194.078 130.152 194.21L125.18 196.444L115.912 191.062V186.413C115.912 186.093 115.75 185.799 115.475 185.637L109.446 182.019C109.19 181.869 108.883 181.851 108.614 181.969L103.861 184.066L94.2371 178.478V173.865C94.2371 173.559 94.0807 173.277 93.8306 173.108L88.2461 169.416C87.9834 169.241 87.6457 169.216 87.3643 169.347L82.4614 171.631L73.3436 166.337L72.7995 161.519C72.7683 161.243 72.6182 160.993 72.3805 160.849L66.302 157.076C66.0393 156.919 65.7204 156.9 65.4452 157.026L60.9176 159.116L2.33325 125.085L1.85797 109.56L189.005 219.185V233.515Z" fill="url(#paint5_linear_1_145)"/>
<defs>
<linearGradient id="paint0_linear_1_145" x1="15.935" y1="171.519" x2="341.376" y2="171.519" gradientUnits="userSpaceOnUse">
<stop stop-color="#A5305F"/>
<stop offset="0.97" stop-color="#8CE9FA"/>
</linearGradient>
<linearGradient id="paint1_linear_1_145" x1="15.935" y1="171.519" x2="341.376" y2="171.519" gradientUnits="userSpaceOnUse">
<stop stop-color="#A5305F"/>
<stop offset="0.97" stop-color="#8CE9FA"/>
</linearGradient>
<linearGradient id="paint2_linear_1_145" x1="15.935" y1="171.519" x2="341.376" y2="171.519" gradientUnits="userSpaceOnUse">
<stop stop-color="#A5305F"/>
<stop offset="0.97" stop-color="#8CE9FA"/>
</linearGradient>
<linearGradient id="paint3_linear_1_145" x1="15.935" y1="171.519" x2="341.376" y2="171.519" gradientUnits="userSpaceOnUse">
<stop stop-color="#A5305F"/>
<stop offset="0.97" stop-color="#8CE9FA"/>
</linearGradient>
<linearGradient id="paint4_linear_1_145" x1="15.935" y1="171.519" x2="341.376" y2="171.519" gradientUnits="userSpaceOnUse">
<stop stop-color="#A5305F"/>
<stop offset="0.97" stop-color="#8CE9FA"/>
</linearGradient>
<linearGradient id="paint5_linear_1_145" x1="15.935" y1="171.519" x2="341.376" y2="171.519" gradientUnits="userSpaceOnUse">
<stop stop-color="#A5305F"/>
<stop offset="0.97" stop-color="#8CE9FA"/>
</linearGradient>
</defs>
</svg>
