<svg width="330" height="726" viewBox="0 0 330 726" fill="none" xmlns="http://www.w3.org/2000/svg">
<g clip-path="url(#clip0_1_3142)">
<path fill-rule="evenodd" clip-rule="evenodd" d="M236.713 500.925L122.826 434.739H122.818C118.745 432.375 116.214 427.964 116.214 423.243V384.203C116.214 382.526 117.08 381.03 118.526 380.192C119.98 379.346 121.704 379.354 123.15 380.192L237.037 446.431C241.111 448.802 243.641 453.206 243.641 457.926V496.922C243.641 498.598 242.775 500.094 241.329 500.932C240.607 501.348 239.816 501.559 239.025 501.559C238.235 501.559 237.436 501.348 236.713 500.925ZM119.663 382.148C118.925 382.571 118.481 383.342 118.481 384.195V423.251C118.481 427.171 120.582 430.827 123.963 432.79L237.851 498.976C238.588 499.399 239.47 499.407 240.207 498.976C240.945 498.553 241.39 497.783 241.39 496.929V457.934C241.39 454.014 239.296 450.358 235.915 448.394L122.02 382.156C121.651 381.937 121.237 381.831 120.838 381.831C120.439 381.831 120.032 381.937 119.663 382.148Z" fill="url(#paint0_linear_1_3142)"/>
<path fill-rule="evenodd" clip-rule="evenodd" d="M92.9457 395.351L67.4182 381.431V403.961L92.9457 417.39V395.351ZM90.6866 413.636L69.6772 402.587V385.238L90.6866 396.695V413.636Z" fill="url(#paint1_linear_1_3142)"/>
<path d="M131.508 505.147C131.96 505.419 132.352 505.766 132.675 506.197L132.66 506.189C132.984 506.62 133.233 507.065 133.391 507.526C133.549 507.987 133.639 508.432 133.639 508.878C133.677 509.618 133.519 510.124 133.172 510.411C132.826 510.698 132.291 510.623 131.568 510.192C130.559 509.588 129.912 508.667 129.633 507.428L130.221 507.617C130.424 508.553 130.883 509.241 131.614 509.679C132.02 509.92 132.359 509.966 132.615 509.807C132.879 509.648 133.014 509.309 133.029 508.772L131.32 507.753V507.179L132.999 508.183C132.969 507.677 132.826 507.209 132.57 506.771C132.314 506.333 131.96 505.985 131.516 505.713C130.853 505.321 130.439 505.411 130.273 505.985L129.678 505.464C129.791 505.086 130.002 504.867 130.318 504.807C130.635 504.747 131.034 504.86 131.508 505.147Z" fill="url(#paint2_linear_1_3142)"/>
<path d="M134.505 510.66L134.475 508.341H134.483L137.081 509.897L137.126 513.409L136.569 513.077L136.531 510.056L135.048 509.165L135.07 510.917C135.07 511.325 135.063 511.589 135.04 511.702C135.017 511.816 134.95 511.891 134.837 511.921C134.724 511.952 134.566 511.906 134.355 511.778C134.219 511.702 134.069 511.604 133.895 511.483V510.985L134.144 511.128C134.257 511.196 134.34 511.242 134.392 511.242C134.445 511.249 134.475 511.226 134.49 511.181C134.505 511.143 134.505 510.962 134.505 510.66Z" fill="url(#paint3_linear_1_3142)"/>
<path fill-rule="evenodd" clip-rule="evenodd" d="M138.15 510.962C138.428 510.803 138.797 510.864 139.249 511.136C139.686 511.4 140.047 511.778 140.326 512.261C140.605 512.745 140.755 513.281 140.755 513.855V514.013L138.315 512.548C138.338 512.941 138.444 513.296 138.632 513.613C138.812 513.93 139.046 514.165 139.317 514.331C139.52 514.459 139.694 514.504 139.837 514.474C139.98 514.452 140.093 514.331 140.175 514.134L140.748 514.55C140.665 514.852 140.499 515.026 140.258 515.078C140.017 515.131 139.709 515.041 139.325 514.814C138.843 514.527 138.466 514.142 138.18 513.658C137.894 513.175 137.743 512.646 137.743 512.08C137.736 511.491 137.871 511.121 138.15 510.962ZM138.617 511.513C138.444 511.589 138.353 511.778 138.338 512.072L140.168 513.168C140.138 512.858 140.07 512.601 139.95 512.382C139.769 512.05 139.535 511.793 139.257 511.627C139.001 511.476 138.79 511.438 138.617 511.513Z" fill="url(#paint4_linear_1_3142)"/>
<path d="M142.834 514.814C142.766 514.86 142.66 514.875 142.517 514.86L142.525 514.867C142.766 515.071 142.999 515.449 143.233 515.993L143.843 517.435L143.24 517.073L142.638 515.638C142.51 515.351 142.404 515.139 142.314 515.018C142.224 514.898 142.118 514.799 141.99 514.724L142.005 516.34L141.456 516.008L141.418 512.511L141.968 512.843L141.983 514.354C142.156 514.459 142.284 514.497 142.352 514.467C142.419 514.437 142.517 514.286 142.653 514.021C142.758 513.81 142.841 513.681 142.909 513.636C142.977 513.591 143.052 513.576 143.142 513.598C143.233 513.621 143.368 513.697 143.564 513.81L143.677 513.878V514.369L143.526 514.271C143.383 514.18 143.285 514.15 143.248 514.172C143.21 514.195 143.142 514.293 143.06 514.482C142.977 514.656 142.901 514.769 142.834 514.814Z" fill="url(#paint5_linear_1_3142)"/>
<path d="M146.569 516.098L145.53 515.471L145.56 518.462L145.018 518.138L144.988 515.147L143.941 514.52L143.933 514.029L146.569 515.607V516.098Z" fill="url(#paint6_linear_1_3142)"/>
<path fill-rule="evenodd" clip-rule="evenodd" d="M149.897 519.308C149.905 519.663 149.844 519.95 149.732 520.161L149.739 520.154C149.619 520.373 149.453 520.486 149.227 520.501C149.001 520.516 148.768 520.456 148.519 520.305C148.338 520.199 148.173 520.056 148.03 519.89C147.879 519.716 147.766 519.542 147.668 519.361L147.683 521.053L147.134 520.728L147.088 515.924L147.593 516.226V516.68C147.706 516.574 147.834 516.521 147.985 516.521C148.128 516.521 148.308 516.581 148.519 516.71C148.798 516.876 149.039 517.095 149.25 517.374C149.46 517.654 149.619 517.964 149.732 518.303C149.837 518.643 149.897 518.976 149.897 519.308ZM148.474 519.807C148.715 519.95 148.918 519.965 149.091 519.844H149.099C149.272 519.731 149.347 519.436 149.347 518.976C149.34 518.538 149.257 518.16 149.084 517.835C148.911 517.51 148.707 517.284 148.474 517.14C148.241 516.997 148.03 516.989 147.856 517.118C147.683 517.246 147.6 517.533 147.6 517.979C147.608 518.424 147.691 518.802 147.864 519.119C148.03 519.436 148.233 519.663 148.474 519.807Z" fill="url(#paint7_linear_1_3142)"/>
<path fill-rule="evenodd" clip-rule="evenodd" d="M153.346 521.355C153.354 521.801 153.293 522.11 153.173 522.291C153.052 522.473 152.872 522.563 152.638 522.563C152.405 522.563 152.149 522.48 151.87 522.314C151.418 522.042 151.057 521.672 150.778 521.196C150.5 520.72 150.349 520.184 150.349 519.603C150.341 518.961 150.507 518.591 150.831 518.477C151.102 518.387 151.433 518.455 151.832 518.696C152.277 518.961 152.638 519.338 152.917 519.814C153.195 520.29 153.346 520.804 153.346 521.355ZM151.185 521.098C151.366 521.423 151.591 521.672 151.863 521.831L151.855 521.838C152.126 521.997 152.352 522.02 152.525 521.906C152.698 521.793 152.781 521.506 152.781 521.053C152.774 520.622 152.683 520.245 152.503 519.92C152.322 519.588 152.096 519.346 151.832 519.187C151.561 519.029 151.343 518.998 151.162 519.112C150.989 519.225 150.906 519.497 150.906 519.943C150.914 520.388 151.004 520.773 151.185 521.098Z" fill="url(#paint8_linear_1_3142)"/>
<path d="M156.855 525.207L156.832 522.443L155.914 524.648L155.432 524.361L154.521 520.925L154.543 523.833L154.016 523.515L153.986 520.064L154.829 520.57L155.688 523.833L156.591 521.627L157.359 522.095L157.39 525.532L156.855 525.207Z" fill="url(#paint9_linear_1_3142)"/>
<path fill-rule="evenodd" clip-rule="evenodd" d="M160.266 526.831C160.063 526.891 159.875 526.914 159.694 526.876H159.724C159.543 526.838 159.348 526.763 159.137 526.634C158.783 526.423 158.519 526.174 158.331 525.879C158.143 525.585 158.045 525.29 158.045 525.003C158.045 524.829 158.082 524.701 158.15 524.603C158.218 524.512 158.308 524.452 158.421 524.437C158.534 524.421 158.662 524.429 158.805 524.474C158.911 524.505 159.069 524.573 159.28 524.671C159.709 524.875 160.025 524.996 160.229 525.041V524.89C160.221 524.656 160.176 524.459 160.07 524.301C159.935 524.089 159.732 523.9 159.46 523.742C159.212 523.591 159.024 523.53 158.903 523.553C158.783 523.576 158.692 523.689 158.64 523.9L158.113 523.508C158.158 523.296 158.241 523.145 158.346 523.062C158.459 522.979 158.617 522.956 158.82 523.002C159.024 523.047 159.265 523.145 159.536 523.311C159.807 523.477 160.025 523.636 160.191 523.81C160.357 523.983 160.477 524.142 160.56 524.293C160.635 524.452 160.695 524.61 160.726 524.792C160.748 524.905 160.763 525.086 160.763 525.343V526.113C160.763 526.65 160.778 526.997 160.801 527.156C160.823 527.314 160.869 527.473 160.936 527.647L160.379 527.314C160.319 527.163 160.281 527.005 160.266 526.831ZM158.587 525.335C158.587 525.486 158.647 525.653 158.753 525.819H158.76C158.866 525.985 159.024 526.136 159.235 526.257C159.445 526.378 159.626 526.438 159.784 526.438C159.942 526.438 160.055 526.37 160.131 526.249C160.191 526.151 160.214 525.977 160.214 525.721V525.509C160.018 525.479 159.724 525.381 159.34 525.207C159.122 525.109 158.963 525.056 158.873 525.041C158.783 525.026 158.715 525.048 158.662 525.101C158.61 525.154 158.587 525.237 158.587 525.335Z" fill="url(#paint10_linear_1_3142)"/>
<path d="M163.376 525.706V526.189L162.104 525.419L162.126 528.364L161.592 528.039L161.569 524.626L163.376 525.706Z" fill="url(#paint11_linear_1_3142)"/>
<path d="M164.317 528.168L164.325 529.678L163.798 529.361L163.775 525.947L164.302 526.265L164.317 527.685L165.778 528.568L165.771 527.148L166.298 527.465L166.32 530.872L165.793 530.555L165.786 529.044L164.317 528.168Z" fill="url(#paint12_linear_1_3142)"/>
<path d="M169.129 529.98L167.684 531.687L167.111 531.347L167.096 527.941L167.623 528.258L167.638 530.857L169.084 529.134L169.649 529.474L169.664 532.866L169.137 532.556L169.129 529.98Z" fill="url(#paint13_linear_1_3142)"/>
<path d="M170.153 529.784L172.661 531.287L172.669 531.763L171.675 531.166L171.682 534.074L171.163 533.765L171.155 530.857L170.153 530.26V529.784Z" fill="url(#paint14_linear_1_3142)"/>
<path fill-rule="evenodd" clip-rule="evenodd" d="M177.104 532.722C177.307 532.881 177.481 533.062 177.624 533.251V533.258C177.767 533.447 177.88 533.666 177.963 533.908C178.045 534.15 178.091 534.391 178.091 534.618C178.091 535.018 177.978 535.283 177.752 535.419C177.526 535.555 177.112 535.441 176.517 535.086L175.44 534.437V536.325L174.883 535.993L174.868 531.332L176.464 532.292C176.743 532.458 176.953 532.601 177.104 532.722ZM176.524 534.535C176.886 534.754 177.142 534.837 177.292 534.777C177.443 534.716 177.518 534.558 177.518 534.286C177.518 534.089 177.473 533.893 177.383 533.704C177.292 533.515 177.172 533.357 177.029 533.221C176.938 533.138 176.765 533.017 176.509 532.866L175.432 532.216V533.878L176.524 534.535Z" fill="url(#paint15_linear_1_3142)"/>
<path d="M181.965 535.617L181.969 535.607L181.961 535.615L181.965 535.617Z" fill="url(#paint16_linear_1_3142)"/>
<path d="M181.965 535.617L180.975 538.228C180.877 538.493 180.801 538.697 180.756 538.84C180.73 538.739 180.696 538.605 180.655 538.441C180.625 538.322 180.591 538.188 180.553 538.039L179.551 534.165L178.715 533.659L178.731 538.296L179.265 538.613L179.25 534.671L180.47 539.339L180.967 539.641L182.172 536.499V540.366L182.714 540.683V536.061L181.965 535.617Z" fill="url(#paint17_linear_1_3142)"/>
<path d="M183.346 539.097V539.663L184.913 540.608V540.034L183.346 539.097Z" fill="url(#paint18_linear_1_3142)"/>
<path d="M186.795 540.063C186.524 539.897 186.261 539.836 186.012 539.882L186.23 538.779L187.88 539.769V539.232L185.824 537.994L185.425 540.116L185.899 540.471C185.974 540.388 186.08 540.343 186.208 540.335C186.336 540.335 186.487 540.38 186.652 540.479C186.916 540.637 187.127 540.856 187.292 541.143C187.458 541.43 187.533 541.732 187.533 542.049C187.533 542.389 187.45 542.608 187.277 542.714C187.112 542.82 186.901 542.797 186.66 542.654C186.456 542.533 186.283 542.352 186.14 542.125C185.997 541.891 185.907 541.619 185.862 541.309L185.327 541.037C185.365 541.445 185.5 541.838 185.733 542.216C185.974 542.593 186.283 542.895 186.66 543.114C187.119 543.386 187.481 543.417 187.744 543.205C187.962 543.031 188.068 542.737 188.068 542.321C188.068 541.883 187.94 541.453 187.691 541.03C187.443 540.607 187.142 540.282 186.78 540.063H186.795Z" fill="url(#paint19_linear_1_3142)"/>
<path d="M149.378 535.781L149.385 536.264L151.433 537.465V536.982L149.378 535.781Z" fill="url(#paint20_linear_1_3142)"/>
<path d="M148.316 531.279L148.353 534.973L146.139 530.003L145.544 529.648L145.597 534.429L146.147 534.754L146.109 531.068L148.338 536.03L148.926 536.377L148.88 531.612L148.316 531.279Z" fill="url(#paint21_linear_1_3142)"/>
<path fill-rule="evenodd" clip-rule="evenodd" d="M150.387 533.455C150.055 533.258 149.792 533.221 149.596 533.326C149.4 533.44 149.302 533.681 149.302 534.067C149.302 534.535 149.415 534.943 149.634 535.283C149.852 535.615 150.1 535.872 150.387 536.038C150.718 536.234 150.982 536.272 151.185 536.159C151.388 536.045 151.486 535.789 151.479 535.388C151.479 534.996 151.373 534.618 151.177 534.27C150.982 533.923 150.718 533.651 150.387 533.462V533.455ZM150.786 535.615C150.673 535.69 150.545 535.683 150.394 535.6C150.236 535.509 150.108 535.358 149.995 535.147C149.89 534.935 149.829 534.686 149.829 534.399C149.829 534.119 149.882 533.946 149.988 533.863C150.093 533.787 150.228 533.795 150.379 533.885C150.522 533.968 150.65 534.112 150.771 534.316C150.891 534.52 150.951 534.776 150.951 535.079C150.951 535.366 150.899 535.547 150.786 535.622V535.615Z" fill="url(#paint22_linear_1_3142)"/>
<path d="M152.691 538.024C152.751 537.956 152.827 537.896 152.917 537.843C153.007 537.79 153.218 537.715 153.534 537.616C153.918 537.488 154.197 537.375 154.363 537.269C154.528 537.163 154.649 537.042 154.717 536.899C154.784 536.755 154.822 536.589 154.822 536.4C154.822 536.03 154.694 535.645 154.446 535.245C154.197 534.845 153.866 534.527 153.444 534.278C153.022 534.029 152.691 533.953 152.45 534.036C152.202 534.127 152.066 534.384 152.028 534.807L152.586 535.192C152.586 534.897 152.661 534.709 152.819 534.633C152.977 534.558 153.181 534.595 153.444 534.746C153.693 534.89 153.888 535.086 154.046 535.335C154.197 535.585 154.28 535.826 154.28 536.053C154.28 536.272 154.197 536.453 154.031 536.604C153.866 536.755 153.549 536.899 153.075 537.042C152.766 537.133 152.533 537.231 152.375 537.345C152.217 537.458 152.096 537.594 152.021 537.767C151.976 537.873 151.953 537.994 151.961 538.138L154.867 539.837V539.278L152.706 538.017L152.691 538.024Z" fill="url(#paint23_linear_1_3142)"/>
<path d="M157.066 536.415L157.064 536.418L157.059 536.415H157.066Z" fill="url(#paint24_linear_1_3142)"/>
<path d="M156.592 536.763C156.816 536.68 156.973 536.568 157.064 536.418L157.405 536.619L157.443 541.355L156.908 541.038L156.878 537.344C156.75 537.397 156.584 537.435 156.373 537.442C156.17 537.457 155.982 537.442 155.809 537.412V536.853C156.11 536.876 156.366 536.846 156.592 536.763Z" fill="url(#paint25_linear_1_3142)"/>
<path fill-rule="evenodd" clip-rule="evenodd" d="M160.816 538.78C160.989 538.984 161.14 539.218 161.253 539.475V539.459C161.366 539.724 161.456 540.011 161.524 540.321C161.592 540.638 161.629 541.023 161.629 541.491C161.629 542.043 161.584 542.458 161.479 542.737C161.381 543.017 161.223 543.191 161.019 543.251C160.816 543.319 160.552 543.259 160.236 543.07C159.814 542.828 159.483 542.473 159.242 542.005C158.956 541.446 158.798 540.721 158.798 539.837C158.798 539.278 158.843 538.863 158.948 538.583C159.054 538.311 159.204 538.138 159.415 538.077C159.619 538.017 159.882 538.077 160.198 538.266C160.432 538.402 160.643 538.576 160.816 538.78ZM160.229 542.594C160.477 542.737 160.68 542.73 160.846 542.571V542.564C161.012 542.405 161.087 541.944 161.087 541.174C161.079 540.396 160.989 539.837 160.823 539.482C160.658 539.127 160.447 538.878 160.198 538.734C159.95 538.591 159.754 538.591 159.611 538.727C159.43 538.908 159.348 539.384 159.348 540.154C159.355 540.932 159.445 541.491 159.611 541.846C159.777 542.201 159.98 542.45 160.229 542.594Z" fill="url(#paint26_linear_1_3142)"/>
<path d="M162.872 541.725C163.128 541.687 163.399 541.748 163.685 541.914H163.692C164.069 542.133 164.385 542.458 164.649 542.896C164.905 543.334 165.04 543.772 165.04 544.218C165.048 544.641 164.935 544.943 164.709 545.116C164.43 545.335 164.061 545.305 163.58 545.026C163.188 544.792 162.864 544.49 162.616 544.104C162.367 543.719 162.224 543.319 162.186 542.903L162.744 543.175C162.789 543.493 162.887 543.772 163.037 544.006C163.188 544.248 163.369 544.429 163.58 544.55C163.836 544.701 164.054 544.724 164.227 544.618C164.4 544.52 164.483 544.293 164.483 543.946C164.483 543.613 164.4 543.304 164.227 543.017C164.054 542.722 163.836 542.496 163.557 542.337C163.391 542.239 163.233 542.193 163.098 542.193C162.962 542.193 162.849 542.239 162.774 542.329L162.277 541.967L162.676 539.799L164.822 541.061V541.612L163.098 540.6L162.872 541.725Z" fill="url(#paint27_linear_1_3142)"/>
<path fill-rule="evenodd" clip-rule="evenodd" d="M167.744 545.743L168.324 546.083L168.331 546.091V546.612L167.759 546.272V547.39L167.224 547.08V545.963L165.357 544.875V544.346L167.299 542.466L167.729 542.715L167.744 545.743ZM167.209 543.327L165.876 544.648H165.884L167.224 545.434L167.209 543.327Z" fill="url(#paint28_linear_1_3142)"/>
<path d="M169.534 547.859C169.591 547.797 169.656 547.741 169.739 547.692C169.83 547.639 170.026 547.564 170.342 547.458C170.718 547.33 170.982 547.216 171.148 547.111C171.306 547.005 171.426 546.884 171.494 546.748C171.562 546.612 171.599 546.446 171.599 546.257C171.599 545.895 171.479 545.517 171.238 545.124C170.997 544.739 170.673 544.422 170.267 544.18C169.86 543.938 169.536 543.863 169.295 543.953C169.054 544.044 168.919 544.293 168.881 544.709L169.423 545.086C169.423 544.792 169.499 544.611 169.649 544.535C169.8 544.46 170.003 544.497 170.252 544.641C170.493 544.784 170.681 544.973 170.831 545.215C170.982 545.456 171.057 545.691 171.057 545.917C171.057 546.136 170.974 546.318 170.816 546.461C170.658 546.605 170.342 546.756 169.883 546.899C169.581 546.99 169.355 547.095 169.197 547.201C169.039 547.314 168.926 547.45 168.858 547.617C168.813 547.715 168.798 547.836 168.798 547.979L171.615 549.626V549.074L169.534 547.859Z" fill="url(#paint29_linear_1_3142)"/>
<path d="M110.251 521.846L110.318 525.388L112.133 526.423L112.141 527.072L109.701 525.69L109.543 516.619L111.99 518.032L111.998 518.681L110.183 517.639L110.243 521.189L112.058 522.231L112.073 522.88L110.251 521.846Z" fill="url(#paint30_linear_1_3142)"/>
<path fill-rule="evenodd" clip-rule="evenodd" d="M113.187 518.726L113.338 527.775L113.963 528.13L113.895 523.923L115.732 524.973L115.8 529.172L116.418 529.527L116.275 520.501L113.195 518.726H113.187ZM113.88 523.281L113.82 519.739L115.657 520.796L115.717 524.331L113.88 523.281Z" fill="url(#paint31_linear_1_3142)"/>
<path d="M117.238 521.053L120.266 522.797L120.273 523.447L117.863 522.057L117.969 529.746L119.942 530.864L119.949 531.506L117.359 530.041L117.238 521.053Z" fill="url(#paint32_linear_1_3142)"/>
<path fill-rule="evenodd" clip-rule="evenodd" d="M213.52 542.866L107.735 481.34C106.365 480.547 104.731 480.539 103.36 481.34C101.99 482.133 101.176 483.553 101.176 485.139V521.408C101.176 525.826 103.541 529.943 107.351 532.156L213.136 593.636C213.821 594.036 214.574 594.233 215.327 594.233C216.08 594.233 216.826 594.036 217.511 593.643C218.882 592.85 219.702 591.43 219.702 589.844V553.621C219.702 549.202 217.338 545.086 213.528 542.873L213.52 542.866ZM217.436 589.837C217.436 590.6 217.044 591.287 216.382 591.672C215.719 592.05 214.928 592.05 214.273 591.672L108.488 530.192C105.371 528.379 103.435 525.011 103.435 521.4V485.131C103.435 484.369 103.827 483.681 104.49 483.296C104.821 483.107 105.182 483.009 105.544 483.009C105.905 483.009 106.274 483.107 106.598 483.296L212.383 544.822C215.493 546.634 217.428 550.003 217.428 553.606V589.829L217.436 589.837Z" fill="url(#paint33_linear_1_3142)"/>
<path fill-rule="evenodd" clip-rule="evenodd" d="M114.693 562.141C115.183 560.222 114.829 558.092 113.729 556.295C111.629 552.835 107.374 551.514 104.249 553.349C102.848 554.172 101.847 555.532 101.425 557.178C100.943 559.074 101.274 561.189 102.351 562.979C103.805 565.411 106.32 566.808 108.775 566.808C109.836 566.808 110.883 566.551 111.832 566C113.255 565.177 114.264 563.81 114.686 562.148L114.693 562.141ZM108.398 562.986L105.461 561.121L105.228 557.745L107.683 556.31L110.627 558.153L110.875 561.551L108.398 562.986Z" fill="url(#paint34_linear_1_3142)"/>
<path fill-rule="evenodd" clip-rule="evenodd" d="M114.188 569.799C112.773 570.615 111.756 571.967 111.327 573.621C110.822 575.554 111.169 577.73 112.276 579.58C113.782 582.103 116.387 583.553 118.91 583.553C119.964 583.553 121.003 583.304 121.937 582.767C123.368 581.952 124.399 580.584 124.829 578.915C125.333 576.959 124.972 574.769 123.835 572.903C121.681 569.368 117.351 567.971 114.173 569.791L114.188 569.799ZM118.451 579.716L115.401 577.745L115.145 574.27L117.66 572.828L120.717 574.776L120.988 578.273L118.451 579.716Z" fill="url(#paint35_linear_1_3142)"/>
<path fill-rule="evenodd" clip-rule="evenodd" d="M132.351 604.232C134.46 603.039 137.367 603.379 140.326 605.169V605.177C145.703 608.424 149.92 615.418 149.935 621.098C149.935 623.893 148.91 626.03 147.035 627.103C146.207 627.586 145.243 627.82 144.197 627.82C142.638 627.82 140.898 627.291 139.144 626.249C133.76 623.062 129.4 615.856 129.422 610.184C129.437 607.405 130.476 605.29 132.351 604.232ZM131.702 610.57C131.706 610.632 131.709 610.695 131.711 610.758H131.719C131.725 610.749 131.733 610.735 131.74 610.722L131.747 610.71L131.751 610.701L131.757 610.69L135.341 606.4C135.695 605.977 136.312 605.871 136.787 606.158L141.877 609.225C141.026 608.409 140.115 607.692 139.166 607.118C137.721 606.242 136.35 605.796 135.183 605.796C134.535 605.796 133.955 605.932 133.466 606.211C132.329 606.846 131.696 608.266 131.689 610.192C131.689 610.318 131.696 610.444 131.702 610.57ZM132.065 613.039L133.88 617.427C133.067 615.992 132.434 614.489 132.065 613.039ZM145.921 625.131C147.066 624.474 147.683 623.047 147.683 621.098H147.676C147.676 620.939 147.66 620.773 147.653 620.615L144.144 624.935C143.925 625.207 143.602 625.35 143.27 625.35C143.075 625.35 142.879 625.297 142.698 625.192L137.465 622.087C138.353 622.956 139.309 623.711 140.296 624.293C142.517 625.607 144.566 625.909 145.921 625.131ZM147.209 617.933L145.635 614.134C146.32 615.381 146.855 616.665 147.209 617.933ZM143.009 622.749L137.073 619.225L133.925 611.619L136.448 608.598L142.367 612.163L145.484 619.701L143.009 622.749Z" fill="url(#paint36_linear_1_3142)"/>
<path fill-rule="evenodd" clip-rule="evenodd" d="M139.121 658.477C140.258 659.126 141.396 659.459 142.435 659.459C143.195 659.459 143.903 659.278 144.521 658.923C145.869 658.137 146.614 656.611 146.614 654.632C146.614 650.818 143.82 646.219 140.258 644.157C138.27 643.009 136.29 642.827 134.829 643.673C133.474 644.451 132.728 645.969 132.721 647.941C132.706 651.793 135.522 656.423 139.121 658.477ZM144.234 655.66C144.084 656.264 143.798 656.717 143.384 656.959C143.301 657.004 143.21 657.042 143.12 657.08L144.234 655.66ZM135.085 646.974C135.236 646.347 135.522 645.886 135.951 645.645C136.049 645.592 136.147 645.546 136.26 645.509L135.085 646.974ZM137.706 647.321L141.042 649.247L142.887 653.711L141.652 655.282L138.308 653.371L136.456 648.885L137.706 647.321Z" fill="url(#paint37_linear_1_3142)"/>
<path fill-rule="evenodd" clip-rule="evenodd" d="M140.236 663.122C138.256 661.997 136.275 661.838 134.807 662.699C133.436 663.5 132.676 665.04 132.668 667.042C132.653 670.947 135.492 675.592 139.122 677.623C140.244 678.25 141.358 678.568 142.382 678.568C143.165 678.568 143.888 678.386 144.521 678.009C145.891 677.2 146.644 675.652 146.644 673.636C146.644 669.768 143.828 665.146 140.244 663.114L140.236 663.122ZM135.033 666.053C135.183 665.395 135.492 664.912 135.936 664.655C136.034 664.602 136.132 664.557 136.237 664.519L135.033 666.06V666.053ZM143.12 676.173L144.254 674.707C144.102 675.334 143.802 675.805 143.369 676.06C143.328 676.085 143.282 676.107 143.236 676.127C143.197 676.144 143.158 676.16 143.12 676.173ZM138.271 672.495L141.631 674.38L142.902 672.737L141.042 668.228L137.683 666.324L136.396 667.963L138.271 672.495Z" fill="url(#paint38_linear_1_3142)"/>
<path fill-rule="evenodd" clip-rule="evenodd" d="M188.354 629.912C186.479 630.969 185.44 633.084 185.425 635.864C185.402 641.536 189.762 648.741 195.146 651.929C196.901 652.971 198.64 653.5 200.199 653.5C201.246 653.5 202.21 653.266 203.038 652.782C204.913 651.702 205.937 649.572 205.937 646.778C205.922 641.098 201.705 634.104 196.329 630.856C193.369 629.066 190.462 628.726 188.354 629.92V629.912ZM188.068 638.719L189.883 643.107C189.069 641.672 188.437 640.176 188.068 638.719ZM203.686 646.778C203.686 648.726 203.068 650.154 201.924 650.811C200.568 651.589 198.52 651.287 196.298 649.972C195.312 649.391 194.356 648.636 193.467 647.767L198.701 650.871C198.881 650.977 199.077 651.03 199.273 651.03C199.604 651.03 199.928 650.886 200.146 650.614L203.655 646.294C203.663 646.453 203.678 646.619 203.678 646.778H203.686ZM203.204 643.605L201.637 639.814C202.323 641.06 202.857 642.344 203.204 643.605ZM201.494 645.38L199.017 648.432L193.075 644.904L189.928 637.299L192.45 634.278L198.369 637.843L201.487 645.38H201.494ZM192.789 631.838C192.315 631.551 191.697 631.657 191.344 632.08L187.759 636.37C187.759 636.37 187.737 636.415 187.721 636.438C187.72 636.392 187.717 636.346 187.715 636.3L187.712 636.248C187.71 636.208 187.708 636.168 187.706 636.129C187.704 636.093 187.703 636.057 187.702 636.021C187.7 635.971 187.699 635.921 187.699 635.871C187.706 633.945 188.339 632.525 189.476 631.883C189.966 631.604 190.545 631.468 191.193 631.468C192.36 631.468 193.731 631.914 195.176 632.79C196.125 633.364 197.036 634.081 197.887 634.897L192.797 631.83L192.789 631.838Z" fill="url(#paint39_linear_1_3142)"/>
<path fill-rule="evenodd" clip-rule="evenodd" d="M198.445 685.131C197.405 685.131 196.268 684.799 195.131 684.149C191.532 682.087 188.716 677.465 188.731 673.613C188.738 671.642 189.484 670.124 190.839 669.346C192.3 668.5 194.28 668.681 196.268 669.829C199.83 671.891 202.624 676.491 202.624 680.305C202.624 682.284 201.878 683.809 200.531 684.595C199.913 684.95 199.205 685.131 198.445 685.131ZM199.393 682.631C199.808 682.389 200.094 681.936 200.244 681.332L199.13 682.752C199.22 682.714 199.311 682.676 199.393 682.631ZM191.961 671.309C191.532 671.559 191.246 672.019 191.095 672.646L192.255 671.196C192.149 671.226 192.051 671.257 191.961 671.309ZM197.052 674.912L193.716 672.986L192.466 674.55L194.318 679.036L197.662 680.947L198.896 679.376L197.052 674.912Z" fill="url(#paint40_linear_1_3142)"/>
<path fill-rule="evenodd" clip-rule="evenodd" d="M196.238 688.802C194.25 687.676 192.27 687.518 190.809 688.379C189.438 689.179 188.678 690.72 188.67 692.722C188.655 696.626 191.494 701.271 195.124 703.303C196.246 703.93 197.36 704.247 198.384 704.247C199.167 704.247 199.89 704.066 200.523 703.688C201.893 702.88 202.646 701.332 202.646 699.315C202.646 695.448 199.83 690.826 196.246 688.794L196.238 688.802ZM191.035 691.732C191.185 691.075 191.494 690.592 191.938 690.335C191.995 690.299 192.062 690.277 192.13 690.255L192.131 690.254L192.132 690.254C192.163 690.244 192.194 690.233 192.225 690.222L191.035 691.732ZM199.122 701.845L200.259 700.368C200.108 701.001 199.807 701.476 199.371 701.732C199.342 701.75 199.311 701.766 199.278 701.781C199.253 701.793 199.227 701.804 199.201 701.815C199.175 701.826 199.148 701.836 199.122 701.845ZM197.639 700.055L194.28 698.167L192.405 693.636L193.693 691.997L197.051 693.9L198.911 698.409L197.639 700.055Z" fill="url(#paint41_linear_1_3142)"/>
<path fill-rule="evenodd" clip-rule="evenodd" d="M218.543 618.953C219.891 618.16 221.608 618.274 223.377 619.278C224.951 620.169 226.427 621.695 227.519 623.576C229.017 626.144 229.567 628.938 229.002 631.053C228.686 632.239 228.023 633.145 227.097 633.674C226.517 633.999 225.877 634.157 225.2 634.157C222.813 634.157 220.011 632.209 218.151 628.999C215.772 624.897 215.937 620.479 218.543 618.953ZM222.519 629.233L224.913 629.875V629.867L225.554 627.496L223.136 623.349L220.749 622.73L220.117 625.101L222.519 629.233Z" fill="url(#paint42_linear_1_3142)"/>
<path fill-rule="evenodd" clip-rule="evenodd" d="M131.953 295.011C135.484 297.224 316.067 400.404 320.502 402.934L320.487 402.904C321.602 403.364 330.842 407.662 329.938 424.157C329.179 438.106 329.538 511.797 329.674 539.732V539.736L329.674 539.875C329.697 544.709 329.712 547.956 329.712 548.961C329.712 556.091 328.876 556.627 320.834 561.778L320.608 561.922C318.206 563.462 313.989 565.947 309.245 568.674V587.261C310.578 589.172 310.984 594.618 311.082 599.187C311.308 610.109 305.962 613.1 305.261 613.447L271.797 632.616C271.398 632.881 271.097 633.032 270.968 633.092L250.336 644.625L249.65 706C249.643 706.4 249.432 706.77 249.086 706.967L216.487 725.856C216.427 725.894 216.359 725.917 216.291 725.94C216.285 725.941 216.279 725.944 216.273 725.946C216.266 725.949 216.26 725.953 216.254 725.956C216.241 725.963 216.228 725.97 216.216 725.97C216.141 725.992 216.058 726 215.975 726H215.93C215.809 726 215.681 725.977 215.561 725.932C215.493 725.909 215.425 725.887 215.365 725.849L174.679 701.997C174.333 701.801 174.122 701.423 174.122 701.023V687.065C169.875 689.399 165.673 691.778 161.336 694.255L161.328 694.26L161.316 694.268L161.296 694.28C161.277 694.291 161.26 694.301 161.26 694.301L158.037 696.136C158.024 696.144 158.009 696.151 157.995 696.157L157.989 696.159L157.978 696.164C157.959 696.171 157.939 696.178 157.919 696.185L157.894 696.193L157.877 696.199L157.864 696.204C157.834 696.219 157.804 696.234 157.774 696.242C157.676 696.264 157.586 696.279 157.488 696.279H157.48C157.405 696.279 157.33 696.272 157.254 696.257C157.239 696.249 157.232 696.249 157.217 696.249C157.209 696.242 157.194 696.242 157.186 696.242C157.171 696.234 157.149 696.227 157.134 696.227C157.111 696.219 157.096 696.204 157.073 696.196C157.055 696.187 157.035 696.18 157.015 696.173C156.986 696.164 156.957 696.154 156.93 696.136L121.327 675.841C120.973 675.645 120.755 675.267 120.755 674.86V608.122L113.27 594.709C112.811 594.882 112.404 594.958 112.043 594.958C110.487 594.958 109.742 593.574 109.29 592.735L109.287 592.73L109.251 592.666C109.023 592.251 108.806 591.855 108.541 591.589C108.466 591.514 108.405 591.431 108.353 591.34C103.451 582.496 98.6613 574.036 94.0227 565.857L93.9456 565.72C85.8264 551.39 78.1531 537.847 69.9635 522.405C66.0855 520.192 62.5613 518.228 60.483 517.186C53.2539 513.561 52.1169 505.615 52.0717 505.275C52.0679 505.249 52.0661 505.225 52.0651 505.2C52.0641 505.176 52.0641 505.151 52.0641 505.124V433.41C52.0641 418.092 58.495 411.952 60.5056 410.411L60.4651 409.637C60.2611 405.741 59.6697 394.449 59.2857 384.573C58.2841 384.686 56.7028 384.83 54.9784 384.83C52.3051 384.83 49.3231 384.49 47.7945 383.16C47.0415 382.503 46.6424 381.65 46.6424 380.683C46.6424 376.038 55.4603 374.392 58.9619 373.923C58.9468 373.062 58.9393 372.254 58.9393 371.544C58.9393 368.259 59.9634 365.6 61.974 363.644C64.6698 361.023 68.4123 360.404 70.2874 360.26V333.161C66.2361 330.593 61.7932 329.528 58.7209 329.097C55.8217 328.689 53.4874 326.544 52.9075 323.757C52.8096 323.281 52.7419 322.813 52.6816 322.36L52.5235 322.315C51.9888 322.164 39.3456 318.553 26.6044 309.686C9.20196 297.579 0 282.42 0 263.213C0 244.007 7.01066 229.173 20.2714 220.328C45.5505 203.47 91.7335 208.961 157.533 236.658C184.19 247.874 213.942 242.254 241.322 220.834C283.07 188.168 306.662 128.765 298.687 76.3783C293.235 40.5702 271.089 -8.82553 196.555 -40.8195C195.982 -41.0687 195.711 -41.7334 195.96 -42.3074C196.208 -42.8814 196.871 -43.1533 197.443 -42.904C272.934 -10.5023 295.374 39.6638 300.916 76.0233C309.011 129.18 285.073 189.46 242.707 222.609C214.657 244.558 184.092 250.283 156.652 238.735C91.5904 211.356 46.1228 205.789 21.5139 222.201C8.91582 230.608 2.25154 244.784 2.25154 263.206C2.25154 280.729 11.1146 296.151 27.8845 307.813C38.9464 315.502 49.8879 319.135 52.531 319.943C52.5611 317.594 53.0732 315.585 53.7283 313.984C46.9135 311.748 8.27574 297.526 8.27574 263.206C8.27574 246.673 13.8481 234.573 24.8498 227.239C40.5429 216.771 75.7468 211.242 154.325 244.309C169.506 250.698 185.553 252.224 202.006 248.833C217.315 245.676 232.255 238.455 246.42 227.375C266.993 211.272 284.402 187.859 295.419 161.439C307.212 133.176 311.173 103.327 306.88 75.117C302.776 48.1608 291.406 23.8028 273.077 2.70769C258.318 -14.2787 239.093 -28.9312 215.945 -40.8572C215.388 -41.1442 215.169 -41.824 215.456 -42.3829C215.742 -42.9418 216.419 -43.1608 216.977 -42.8738C240.381 -30.8195 259.831 -15.9856 274.779 1.21978C293.386 22.6397 304.937 47.3904 309.109 74.7771C313.462 103.402 309.448 133.674 297.498 162.322C286.33 189.097 268.679 212.836 247.798 229.173C233.355 240.472 218.099 247.836 202.451 251.061C185.545 254.543 169.054 252.979 153.444 246.408C75.7844 213.727 41.326 218.976 26.0923 229.135C15.7683 236.023 10.5273 247.488 10.5273 263.213C10.5273 296.658 49.406 310.245 54.7524 311.952C56.0175 309.966 58.3143 308.742 60.739 308.833C72.7723 309.241 82.9532 311.929 85.2123 312.564C88.6461 310.619 92.6544 308.323 96.7022 306.005L98.9399 304.724C107.683 299.709 115.943 294.981 117.976 293.954C122.675 291.582 128.383 292.775 131.953 295.011ZM48.8864 380.691C48.8864 381 48.9993 381.227 49.2554 381.453C50.8066 382.798 55.8669 382.715 59.1802 382.315C59.1049 380.139 59.0372 378.077 58.992 376.219C54.5341 376.861 48.8864 378.553 48.8864 380.691ZM55.1064 323.296C55.4904 325.154 57.0642 326.582 59.0146 326.854L59.0221 326.861C62.0191 327.277 66.2361 328.259 70.2798 330.517V327.028C70.2798 327.006 70.28 326.986 70.2803 326.965C70.2808 326.937 70.2815 326.911 70.2824 326.884C70.2838 326.84 70.2856 326.797 70.2874 326.755C70.2912 326.668 70.2949 326.581 70.2949 326.491C70.2572 323.364 70.4154 321.854 71.56 320.593C71.8612 320.117 72.2151 319.724 72.6293 319.414C73.0735 319.082 73.5555 318.878 74.06 318.757C74.685 318.395 75.4004 318.009 76.2513 317.556L76.9441 317.186C78.179 316.522 80.0767 315.464 82.3885 314.165C78.3447 313.168 70.0916 311.416 60.6637 311.099C58.9393 311.046 57.2901 311.945 56.4919 313.41C55.3549 315.494 54.1952 318.901 55.1064 323.296ZM72.5314 360.691L101.696 377.269H101.681C103.3 377.602 111.907 380.041 111.907 394.21V428.206C111.907 428.334 111.892 428.463 111.847 428.583C111.794 428.742 110.544 432.994 117.924 437.518C125.215 441.988 235.426 505.541 260.797 520.171L260.875 520.216L260.88 520.219L262.038 520.887C265.471 522.866 268.431 525.471 270.84 528.636L281.564 542.73C281.097 504.527 280.464 451.665 280.464 447.171C280.464 440.932 277.098 435.978 270.185 432.012C269.683 431.725 267.18 430.272 263.101 427.906C261.184 426.794 258.92 425.481 256.352 423.991C141.042 357.065 81.2213 322.624 78.5706 321.635C77.1926 321.204 75.807 320.781 74.7904 320.917C74.1579 321.295 73.691 321.62 73.3597 321.945C72.9455 322.692 72.5916 324.006 72.5314 326.31C72.5357 326.523 72.54 326.74 72.5443 326.968L72.554 327.496L72.5604 327.806L72.5604 327.807C72.5819 328.84 72.6067 330.033 72.6067 331.438V332.579L72.5314 360.691ZM54.3082 505.049C54.4211 505.758 55.6485 512.246 61.477 515.169L61.4544 515.192C67.087 518.017 82.6219 527.178 88.0889 530.419C87.8253 529.052 87.8931 527.896 88.006 527.133C88.1566 525.872 88.2846 503.968 88.2846 502.277C88.2846 502.272 88.285 502.267 88.2855 502.262C88.2862 502.255 88.2872 502.247 88.2883 502.24L88.2884 502.239L88.2905 502.223C88.291 502.22 88.2914 502.216 88.2917 502.212L88.292 502.206L88.2922 502.201C88.2997 502.156 88.2997 502.118 88.3072 502.073C88.3098 502.06 88.3131 502.048 88.3168 502.037L88.3223 502.02C88.3279 502.003 88.3336 501.986 88.3374 501.967C88.3413 501.947 88.3453 501.929 88.3504 501.911C88.355 501.895 88.3604 501.879 88.3675 501.861C88.3753 501.846 88.3823 501.831 88.3889 501.816C88.4014 501.79 88.413 501.765 88.4277 501.74C88.4353 501.718 88.4428 501.695 88.4578 501.672C88.4578 501.665 88.4654 501.657 88.4654 501.657L88.4743 501.645L88.4854 501.629C88.5018 501.606 88.5194 501.58 88.5407 501.559C88.5518 501.548 88.5612 501.535 88.5705 501.522L88.5792 501.51C88.582 501.506 88.5847 501.502 88.5876 501.499C88.5918 501.493 88.5962 501.488 88.6009 501.484C88.631 501.461 88.6536 501.438 88.6837 501.416C88.7063 501.393 88.7365 501.37 88.7666 501.348C88.7754 501.341 88.7842 501.335 88.793 501.329C88.8142 501.316 88.8353 501.306 88.8564 501.295C88.8865 501.28 88.9172 501.257 88.9548 501.242C88.9699 501.238 88.9868 501.232 89.0038 501.227L89.0056 501.226L89.0063 501.226L89.0269 501.219C89.0359 501.216 89.0446 501.214 89.0527 501.212C89.0904 501.197 89.128 501.181 89.1657 501.174C89.1792 501.167 89.1926 501.163 89.2061 501.161C89.2128 501.16 89.2195 501.16 89.2262 501.159C89.2361 501.159 89.2461 501.159 89.2561 501.159C89.2789 501.151 89.3017 501.147 89.3245 501.146C89.3468 501.144 89.3692 501.144 89.3916 501.144H89.482C89.5045 501.147 89.5271 501.149 89.5497 501.151C89.5723 501.153 89.5949 501.155 89.6175 501.159C89.6552 501.166 89.6853 501.174 89.7154 501.181C89.7342 501.189 89.753 501.195 89.7719 501.2C89.781 501.203 89.7901 501.206 89.7993 501.209C89.809 501.212 89.8187 501.215 89.8283 501.219C89.8433 501.222 89.8571 501.228 89.8706 501.234C89.8783 501.238 89.886 501.242 89.8937 501.246C89.9066 501.252 89.9196 501.259 89.9338 501.265C89.9564 501.272 89.979 501.28 90.0015 501.295L90.0091 501.298L90.0158 501.301C90.0735 501.326 90.2761 501.414 90.4308 501.34C90.5211 501.295 90.9805 501 91.244 499.414C91.5904 497.337 90.2199 495.472 89.0151 494.271C87.9759 493.228 87.3735 491.839 87.3208 490.358L86.5828 468.651C86.5 466.151 87.8178 463.863 90.0166 462.685L98.2698 458.259C98.8345 457.911 100.83 457.367 105.86 460.691C108.345 462.33 141.96 481.612 174.476 500.26C207.564 519.233 238.822 537.163 241.42 538.863C247.083 542.571 249.839 547.443 249.839 553.749V576.408C249.839 576.423 249.838 576.439 249.838 576.454C249.837 576.465 249.836 576.477 249.836 576.488C249.833 576.527 249.828 576.564 249.822 576.602C249.811 576.661 249.797 576.72 249.778 576.778C249.726 576.929 248.513 580.283 244.04 580.857C245.245 583.304 247.971 585.917 249.093 586.846L249.153 586.906C249.59 587.284 249.846 587.828 249.846 588.417V593.545C252.203 594.92 261.443 600.283 266.541 603.062C268.724 604.248 270.276 604.935 271.571 605.222C271.789 605.215 271.993 605.169 272.181 605.071C272.241 605.041 272.301 605.018 272.362 604.996C272.437 604.973 272.52 604.935 272.633 604.867C272.911 604.701 273.25 604.663 273.559 604.769C273.807 604.852 274.018 605.018 274.154 605.237C275.072 605.018 276.006 604.573 277.143 603.923C279.914 602.344 281.466 600.947 282.046 600.373V582.08C282.038 581.521 281.85 566.431 281.609 546.529L269.048 530.011C266.827 527.088 264.086 524.678 260.916 522.851C228.927 504.414 124.001 443.901 116.749 439.452C108.579 434.437 109.369 429.188 109.655 428.047V394.21C109.655 380.751 101.5 379.52 101.154 379.475C101.011 379.46 100.868 379.414 100.74 379.339L71.1006 362.488C70.0614 362.511 66.0855 362.775 63.5177 365.283C61.9664 366.801 61.1833 368.908 61.1833 371.552C61.1833 381.615 62.6681 408.869 62.7739 410.81L62.7797 410.917C62.8023 411.34 62.5914 411.733 62.23 411.952C62.1547 411.997 54.3082 417.035 54.3082 433.417V505.049ZM251.751 609.565C252.105 610.169 252.489 610.728 252.888 611.264V611.257L250.825 607.783C251.104 608.394 251.412 608.991 251.751 609.565ZM250.411 599.21C250.366 599.792 250.366 600.381 250.366 600.993L251.179 598.085C251.239 597.873 251.352 597.692 251.503 597.556C251.431 597.514 251.36 597.471 251.288 597.428L251.2 597.374C251.169 597.356 251.138 597.337 251.107 597.319L251.074 597.299C250.87 597.458 250.69 597.647 250.516 597.866C250.539 598.311 250.509 598.764 250.411 599.21ZM253.062 599.746L251.661 604.754L251.653 604.769L255.961 612.042L261.134 613.311L262.58 608.289L258.89 602.088C258.476 601.808 258.054 601.536 257.64 601.272C257.301 601.061 256.947 600.849 256.601 600.638L256.443 600.539L253.062 599.746ZM261.932 615.789C261.842 615.789 261.751 615.781 261.661 615.758L255.833 614.331C258.31 616.287 260.953 617.05 262.776 616.023C264.621 614.988 265.276 612.292 264.703 609.112L263.017 614.973C262.873 615.464 262.422 615.789 261.932 615.789ZM263.183 604.843L263.626 605.592C263.529 605.373 263.431 605.147 263.325 604.928C263.309 604.917 263.293 604.906 263.278 604.896C263.248 604.877 263.219 604.859 263.19 604.844C263.188 604.844 263.185 604.844 263.183 604.843ZM188.399 611.725L197.624 606.521L204.875 602.231C198.58 598.591 191.396 594.437 183.776 590.048C186.088 596.476 187.601 603.606 188.399 611.725ZM191.984 614.829L198.354 610.018L198.347 610.011L197.774 609.029L188.234 614.414C189.905 614.444 191.261 614.678 191.984 614.829ZM123.966 553.073C124.124 553.163 124.309 553.27 124.528 553.394L124.498 553.387C162.555 575.177 226.118 611.808 229.492 613.983C231.721 615.426 233.445 616.483 235.117 616.997C236.156 616.121 236.058 613.976 236.058 613.976L235.945 593.553C233.792 592.45 227.105 588.644 226.57 583.795C226.088 579.429 227.632 575.97 229.326 574.935C230.094 574.467 230.923 574.452 231.6 574.905C233.076 575.887 238.603 578.681 242.707 578.681H242.926C246.202 578.606 247.331 576.725 247.587 576.189V553.757C247.587 548.19 245.238 544.067 240.192 540.766C237.647 539.104 204.966 520.358 173.361 502.231C139.317 482.707 107.163 464.263 104.625 462.586C100.89 460.117 99.452 460.26 99.2788 460.29L91.0934 464.678C89.6627 465.449 88.8042 466.944 88.8569 468.576L89.5949 490.283C89.625 491.189 89.994 492.027 90.6266 492.662C92.863 494.898 93.8796 497.42 93.488 499.784C93.1718 501.695 92.4564 502.919 91.3645 503.41C91.0934 503.538 90.8223 503.598 90.5663 503.621V531C90.8751 531.952 91.4022 532.979 92.2606 534.021C92.6221 534.044 92.9685 534.24 93.1718 534.573C93.2847 534.754 93.3299 534.958 93.3299 535.154C93.3582 535.18 93.3865 535.207 93.4151 535.234C93.4702 535.286 93.5264 535.339 93.5859 535.388C93.6914 535.434 93.7968 535.487 93.8871 535.57C94.2185 535.879 94.595 536.113 95.0167 536.272C95.3405 536.4 95.5815 536.657 95.6869 536.974C96.1236 537.261 96.598 537.541 97.1026 537.813C99.7758 539.263 109.806 544.973 123.225 552.654C123.359 552.724 123.58 552.851 123.966 553.073ZM138.742 580.779L138.731 580.785C138.716 580.794 138.7 580.804 138.7 580.804V580.811C138.433 580.938 138.175 581.073 137.917 581.208C137.744 581.298 137.572 581.388 137.397 581.476L144.942 594.467C147.454 592.867 150.092 591.174 152.773 589.453L152.779 589.45L152.844 589.408L152.888 589.38L152.924 589.356L152.934 589.35L153.117 589.233C154.133 588.58 155.155 587.925 156.177 587.269L157.946 586.135L157.986 586.109L158.134 586.014L158.16 585.997C161.163 584.071 164.132 582.168 166.953 580.366C163.976 578.656 160.986 576.937 158.008 575.224L157.636 575.01C156.015 574.079 154.399 573.149 152.789 572.224L138.79 580.758C138.782 580.766 138.767 580.774 138.752 580.774C138.75 580.775 138.746 580.777 138.742 580.779ZM128.819 558.503C127.72 557.865 126.691 557.267 125.785 556.74L138.594 578.221L150.394 571.03C147.753 569.513 142.295 566.339 135.03 562.114L134.257 561.665C133.545 561.251 132.83 560.835 132.123 560.424C130.987 559.763 129.87 559.114 128.819 558.503ZM91.9616 536.936L91.9271 536.905L91.8809 536.864C91.8648 536.849 91.8487 536.834 91.8329 536.82L91.8023 536.792C91.7893 536.78 91.7764 536.768 91.7636 536.755L90.8374 537.307C91.289 537.292 91.7481 537.239 92.1846 537.133C92.1396 537.093 92.0938 537.053 92.048 537.012L91.9616 536.936ZM233.167 618.681C232.67 618.47 232.173 618.236 231.676 617.964H231.668L231.525 618.485L233.972 622.662L236.465 623.311L237.143 620.864L236.375 619.557C236.066 619.527 235.765 619.474 235.463 619.414C235.132 619.535 234.756 619.61 234.341 619.633H234.274C233.716 619.633 233.257 619.225 233.167 618.681ZM237.086 591.587C234.532 590.302 229.228 586.965 228.844 583.553C228.43 579.792 229.838 577.261 230.501 576.884C231.894 577.767 236.977 580.502 241.623 580.902C242.474 583.266 244.522 585.6 246.006 587.073L237.086 591.587ZM247.61 588.802L238.235 593.545H238.227L238.34 613.923C238.385 614.837 238.242 616.189 237.67 617.352C238.739 617.307 239.869 617.027 241.171 616.461C243.735 615.341 244.307 615.191 244.627 615.108L244.65 615.101C244.781 615.056 245.159 614.846 245.823 614.478L246.156 614.293C247.467 613.455 248.137 604.286 247.61 594.27V588.802ZM85.1445 531.28L85.1897 531.982L90.1672 535.064L90.2199 535.033C89.866 534.565 89.5573 534.097 89.3012 533.636C89.1506 533.613 89.0076 533.568 88.872 533.485C88.8456 533.472 88.5542 533.299 88.0473 532.998C87.3983 532.613 86.396 532.018 85.1445 531.28ZM84.1204 533.976C85.2274 535.403 86.6958 536.461 88.3599 536.974C88.6913 537.08 89.0226 537.156 89.3539 537.216L84.1204 533.976ZM82.268 529.58C82.3733 530.396 82.5991 531.203 82.9301 531.973L82.8026 529.897C82.6316 529.793 82.4531 529.689 82.2746 529.584L82.2739 529.584L82.268 529.58ZM112.954 592.397C113.014 592.337 113.082 592.284 113.165 592.239L113.157 592.231C113.3 592.156 113.458 592.11 113.609 592.095C118.383 589.965 122.374 587.564 126.576 585.018C129.739 583.1 133.014 581.136 136.614 579.316L121.764 554.414C108.541 546.846 98.6764 541.234 96.0257 539.792C95.4083 539.452 94.8435 539.104 94.3164 538.757C93.1492 539.301 91.8841 539.588 90.5889 539.588C89.6326 539.588 88.6536 539.444 87.6898 539.142C85.1445 538.349 82.9532 536.589 81.5225 534.187C80.4306 532.352 79.896 530.29 79.9411 528.213C77.9531 527.05 75.7995 525.796 73.6458 524.55C81.2213 538.704 88.4051 551.385 95.9806 564.754L96.4621 565.604C100.928 573.489 105.54 581.631 110.25 590.132C110.688 590.608 110.987 591.157 111.255 591.65L111.255 591.65L111.267 591.672C111.899 592.858 111.93 592.903 112.811 592.458C112.863 592.443 112.909 592.42 112.954 592.397ZM127.743 586.967C123.88 589.308 119.882 591.718 115.333 593.81H115.326L121.614 605.071C122.916 601.718 125.861 595.94 131.282 593.568C134.46 592.186 137.984 592.178 141.795 593.561L135.386 582.518C132.721 583.961 130.198 585.479 127.743 586.967ZM156.238 693.168C155.372 679.301 155.967 665.094 156.561 651.332H156.569L156.578 651.125C156.944 642.64 157.322 633.885 157.322 625.494C156.019 615.132 152.427 606.521 146.629 599.829C146.593 599.803 146.558 599.776 146.524 599.746C146.5 599.725 146.477 599.703 146.456 599.678L143.88 596.967C139.49 594.625 135.567 594.18 132.201 595.645C125.943 598.379 123.338 606.861 123.014 608.009V674.225L156.238 693.168ZM174.122 684.505V629.769H174.129C174.129 623.908 175.824 619.633 179.152 617.065C179.709 616.642 180.289 616.279 180.884 615.97L186.253 612.941C185.425 603.704 183.67 595.781 180.884 588.757C180.831 588.621 180.809 588.477 180.809 588.342C178.683 587.115 176.529 585.875 174.358 584.625C172.637 583.634 170.905 582.636 169.167 581.635C166.226 583.51 163.097 585.517 159.924 587.552L159.494 587.828C158.796 588.275 158.097 588.724 157.397 589.172L155.339 590.492L155.312 590.509L155.143 590.618C152.144 592.542 149.174 594.446 146.373 596.234C153.64 603.553 158.075 613.319 159.566 625.283C159.574 625.335 159.574 625.381 159.574 625.426C159.574 633.891 159.195 642.705 158.829 651.241L158.817 651.515C158.223 665.281 157.61 679.495 158.489 693.304C163.828 690.252 168.919 687.352 174.122 684.505ZM214.8 722.929V659.316C213.219 632.246 193.61 618.349 191.78 617.11C190.817 616.891 185.613 615.864 181.562 618.175L181.321 618.311C181.042 618.485 180.771 618.666 180.508 618.87C177.767 620.985 176.381 624.656 176.381 629.769V700.403L214.8 722.929ZM199.506 611.99L194.16 616.03C198.866 619.565 214.755 633.205 216.924 657.292L223.498 653.017L199.506 611.99ZM217.075 722.949L247.414 705.366L248.077 645.932L227.398 657.488C227.225 657.586 227.037 657.631 226.849 657.631C226.465 657.631 226.088 657.435 225.877 657.073L224.65 654.973L217.075 659.897V722.949ZM227.255 654.973L269.884 631.151L269.892 631.166C275.976 627.292 275.63 618.953 274.575 613.387C274.146 611.65 273.544 609.746 272.731 607.677C272.324 607.669 271.91 607.616 271.473 607.533C271.27 607.556 271.059 607.556 270.863 607.541C270.464 607.511 269.944 607.458 269.425 607.337C269.214 607.284 269.003 607.216 268.807 607.133L268.634 607.065L268.503 607.011C268.234 606.9 267.956 606.785 267.678 606.642C267.196 606.544 266.737 606.416 266.285 606.264C268.002 611.408 267.128 616.196 263.883 618.024C262.979 618.53 261.97 618.772 260.916 618.772C257.173 618.772 252.768 615.736 249.816 610.751L249.797 610.719C249.789 610.706 249.781 610.693 249.773 610.679C249.755 610.648 249.737 610.616 249.72 610.584C249.673 610.5 249.628 610.414 249.583 610.328C249.176 613.296 248.461 615.615 247.256 616.287L247.038 616.407C245.626 617.188 245.58 617.213 245.2 617.307L245.196 617.308C244.991 617.361 244.508 617.487 242.067 618.545C241.405 618.832 240.78 619.044 240.177 619.21C241.435 622.707 240.863 625.872 238.664 627.125C238.061 627.465 237.399 627.624 236.706 627.624C234.281 627.624 231.442 625.66 229.56 622.435C228.234 620.169 227.655 617.722 227.933 615.683C225.945 614.467 218.076 609.89 207.082 603.523C207.022 603.583 206.954 603.636 206.879 603.681L199.732 607.911L200.809 609.746L227.255 654.973ZM304.184 611.499C304.222 611.476 304.29 611.446 304.29 611.446C304.471 611.363 309.034 609.089 308.831 599.278C308.695 593.024 308.1 590.351 307.724 589.27L275.547 608.024C275.908 609.119 276.488 611.106 276.917 613.515C278.401 620.026 277.595 624.527 276.149 627.564L304.184 611.499ZM284.32 583.304V600.29L284.327 600.298L307.008 587.08V570.018C297.769 575.298 287.354 581.083 284.5 582.662C284.463 582.873 284.418 583.077 284.342 583.266C284.338 583.273 284.333 583.283 284.328 583.29C284.323 583.298 284.32 583.304 284.32 583.304ZM327.438 539.928C327.295 512.08 326.933 438.115 327.701 424.074L327.686 424.059C328.53 408.636 319.968 405.154 319.606 405.011C319.585 405.002 319.563 404.992 319.541 404.982C319.528 404.976 319.514 404.97 319.5 404.963L319.491 404.958L319.482 404.954C319.471 404.948 319.459 404.942 319.448 404.935C311.895 400.623 134.347 299.18 130.755 296.929C127.728 295.026 122.909 293.991 118.993 295.97C117.02 296.975 108.782 301.688 100.062 306.688C91.1009 311.824 81.8463 317.126 78.1037 319.127C78.4803 319.233 78.8568 319.346 79.2182 319.46C81.515 320.17 138.15 352.76 257.497 422.035L258.993 422.904C266.151 427.059 270.631 429.66 271.322 430.056C279.003 434.46 282.738 440.064 282.738 447.186C282.738 453.757 284.094 563.931 284.297 580.101L307.581 567.035C307.641 567.005 307.709 566.982 307.769 566.959C312.626 564.172 316.971 561.619 319.411 560.056L319.636 559.913C324.862 556.564 327.475 552.926 327.475 548.999C327.475 547.994 327.46 544.754 327.438 539.928Z" fill="url(#paint43_linear_1_3142)"/>
</g>
<defs>
<linearGradient id="paint0_linear_1_3142" x1="118.082" y1="743.575" x2="118.082" y2="-32.4125" gradientUnits="userSpaceOnUse">
<stop offset="0.04" stop-color="#807FE9"/>
<stop offset="1" stop-color="#FC6DDC"/>
</linearGradient>
<linearGradient id="paint1_linear_1_3142" x1="118.082" y1="743.575" x2="118.082" y2="-32.4125" gradientUnits="userSpaceOnUse">
<stop offset="0.04" stop-color="#807FE9"/>
<stop offset="1" stop-color="#FC6DDC"/>
</linearGradient>
<linearGradient id="paint2_linear_1_3142" x1="118.082" y1="743.575" x2="118.082" y2="-32.4125" gradientUnits="userSpaceOnUse">
<stop offset="0.04" stop-color="#807FE9"/>
<stop offset="1" stop-color="#FC6DDC"/>
</linearGradient>
<linearGradient id="paint3_linear_1_3142" x1="118.082" y1="743.575" x2="118.082" y2="-32.4125" gradientUnits="userSpaceOnUse">
<stop offset="0.04" stop-color="#807FE9"/>
<stop offset="1" stop-color="#FC6DDC"/>
</linearGradient>
<linearGradient id="paint4_linear_1_3142" x1="118.082" y1="743.575" x2="118.082" y2="-32.4125" gradientUnits="userSpaceOnUse">
<stop offset="0.04" stop-color="#807FE9"/>
<stop offset="1" stop-color="#FC6DDC"/>
</linearGradient>
<linearGradient id="paint5_linear_1_3142" x1="118.082" y1="743.575" x2="118.082" y2="-32.4125" gradientUnits="userSpaceOnUse">
<stop offset="0.04" stop-color="#807FE9"/>
<stop offset="1" stop-color="#FC6DDC"/>
</linearGradient>
<linearGradient id="paint6_linear_1_3142" x1="118.082" y1="743.575" x2="118.082" y2="-32.4125" gradientUnits="userSpaceOnUse">
<stop offset="0.04" stop-color="#807FE9"/>
<stop offset="1" stop-color="#FC6DDC"/>
</linearGradient>
<linearGradient id="paint7_linear_1_3142" x1="118.082" y1="743.575" x2="118.082" y2="-32.4125" gradientUnits="userSpaceOnUse">
<stop offset="0.04" stop-color="#807FE9"/>
<stop offset="1" stop-color="#FC6DDC"/>
</linearGradient>
<linearGradient id="paint8_linear_1_3142" x1="118.082" y1="743.575" x2="118.082" y2="-32.4125" gradientUnits="userSpaceOnUse">
<stop offset="0.04" stop-color="#807FE9"/>
<stop offset="1" stop-color="#FC6DDC"/>
</linearGradient>
<linearGradient id="paint9_linear_1_3142" x1="118.082" y1="743.575" x2="118.082" y2="-32.4125" gradientUnits="userSpaceOnUse">
<stop offset="0.04" stop-color="#807FE9"/>
<stop offset="1" stop-color="#FC6DDC"/>
</linearGradient>
<linearGradient id="paint10_linear_1_3142" x1="118.082" y1="743.575" x2="118.082" y2="-32.4125" gradientUnits="userSpaceOnUse">
<stop offset="0.04" stop-color="#807FE9"/>
<stop offset="1" stop-color="#FC6DDC"/>
</linearGradient>
<linearGradient id="paint11_linear_1_3142" x1="118.082" y1="743.575" x2="118.082" y2="-32.4125" gradientUnits="userSpaceOnUse">
<stop offset="0.04" stop-color="#807FE9"/>
<stop offset="1" stop-color="#FC6DDC"/>
</linearGradient>
<linearGradient id="paint12_linear_1_3142" x1="118.082" y1="743.575" x2="118.082" y2="-32.4125" gradientUnits="userSpaceOnUse">
<stop offset="0.04" stop-color="#807FE9"/>
<stop offset="1" stop-color="#FC6DDC"/>
</linearGradient>
<linearGradient id="paint13_linear_1_3142" x1="118.082" y1="743.575" x2="118.082" y2="-32.4125" gradientUnits="userSpaceOnUse">
<stop offset="0.04" stop-color="#807FE9"/>
<stop offset="1" stop-color="#FC6DDC"/>
</linearGradient>
<linearGradient id="paint14_linear_1_3142" x1="118.082" y1="743.575" x2="118.082" y2="-32.4125" gradientUnits="userSpaceOnUse">
<stop offset="0.04" stop-color="#807FE9"/>
<stop offset="1" stop-color="#FC6DDC"/>
</linearGradient>
<linearGradient id="paint15_linear_1_3142" x1="118.082" y1="743.575" x2="118.082" y2="-32.4125" gradientUnits="userSpaceOnUse">
<stop offset="0.04" stop-color="#807FE9"/>
<stop offset="1" stop-color="#FC6DDC"/>
</linearGradient>
<linearGradient id="paint16_linear_1_3142" x1="118.082" y1="743.575" x2="118.082" y2="-32.4125" gradientUnits="userSpaceOnUse">
<stop offset="0.04" stop-color="#807FE9"/>
<stop offset="1" stop-color="#FC6DDC"/>
</linearGradient>
<linearGradient id="paint17_linear_1_3142" x1="118.082" y1="743.575" x2="118.082" y2="-32.4125" gradientUnits="userSpaceOnUse">
<stop offset="0.04" stop-color="#807FE9"/>
<stop offset="1" stop-color="#FC6DDC"/>
</linearGradient>
<linearGradient id="paint18_linear_1_3142" x1="118.082" y1="743.575" x2="118.082" y2="-32.4125" gradientUnits="userSpaceOnUse">
<stop offset="0.04" stop-color="#807FE9"/>
<stop offset="1" stop-color="#FC6DDC"/>
</linearGradient>
<linearGradient id="paint19_linear_1_3142" x1="118.082" y1="743.575" x2="118.082" y2="-32.4125" gradientUnits="userSpaceOnUse">
<stop offset="0.04" stop-color="#807FE9"/>
<stop offset="1" stop-color="#FC6DDC"/>
</linearGradient>
<linearGradient id="paint20_linear_1_3142" x1="118.082" y1="743.575" x2="118.082" y2="-32.4125" gradientUnits="userSpaceOnUse">
<stop offset="0.04" stop-color="#807FE9"/>
<stop offset="1" stop-color="#FC6DDC"/>
</linearGradient>
<linearGradient id="paint21_linear_1_3142" x1="118.082" y1="743.575" x2="118.082" y2="-32.4125" gradientUnits="userSpaceOnUse">
<stop offset="0.04" stop-color="#807FE9"/>
<stop offset="1" stop-color="#FC6DDC"/>
</linearGradient>
<linearGradient id="paint22_linear_1_3142" x1="118.082" y1="743.575" x2="118.082" y2="-32.4125" gradientUnits="userSpaceOnUse">
<stop offset="0.04" stop-color="#807FE9"/>
<stop offset="1" stop-color="#FC6DDC"/>
</linearGradient>
<linearGradient id="paint23_linear_1_3142" x1="118.082" y1="743.575" x2="118.082" y2="-32.4125" gradientUnits="userSpaceOnUse">
<stop offset="0.04" stop-color="#807FE9"/>
<stop offset="1" stop-color="#FC6DDC"/>
</linearGradient>
<linearGradient id="paint24_linear_1_3142" x1="118.082" y1="743.575" x2="118.082" y2="-32.4125" gradientUnits="userSpaceOnUse">
<stop offset="0.04" stop-color="#807FE9"/>
<stop offset="1" stop-color="#FC6DDC"/>
</linearGradient>
<linearGradient id="paint25_linear_1_3142" x1="118.082" y1="743.575" x2="118.082" y2="-32.4125" gradientUnits="userSpaceOnUse">
<stop offset="0.04" stop-color="#807FE9"/>
<stop offset="1" stop-color="#FC6DDC"/>
</linearGradient>
<linearGradient id="paint26_linear_1_3142" x1="118.082" y1="743.575" x2="118.082" y2="-32.4125" gradientUnits="userSpaceOnUse">
<stop offset="0.04" stop-color="#807FE9"/>
<stop offset="1" stop-color="#FC6DDC"/>
</linearGradient>
<linearGradient id="paint27_linear_1_3142" x1="118.082" y1="743.575" x2="118.082" y2="-32.4125" gradientUnits="userSpaceOnUse">
<stop offset="0.04" stop-color="#807FE9"/>
<stop offset="1" stop-color="#FC6DDC"/>
</linearGradient>
<linearGradient id="paint28_linear_1_3142" x1="118.082" y1="743.575" x2="118.082" y2="-32.4125" gradientUnits="userSpaceOnUse">
<stop offset="0.04" stop-color="#807FE9"/>
<stop offset="1" stop-color="#FC6DDC"/>
</linearGradient>
<linearGradient id="paint29_linear_1_3142" x1="118.082" y1="743.575" x2="118.082" y2="-32.4125" gradientUnits="userSpaceOnUse">
<stop offset="0.04" stop-color="#807FE9"/>
<stop offset="1" stop-color="#FC6DDC"/>
</linearGradient>
<linearGradient id="paint30_linear_1_3142" x1="118.082" y1="743.575" x2="118.082" y2="-32.4125" gradientUnits="userSpaceOnUse">
<stop offset="0.04" stop-color="#807FE9"/>
<stop offset="1" stop-color="#FC6DDC"/>
</linearGradient>
<linearGradient id="paint31_linear_1_3142" x1="118.082" y1="743.575" x2="118.082" y2="-32.4125" gradientUnits="userSpaceOnUse">
<stop offset="0.04" stop-color="#807FE9"/>
<stop offset="1" stop-color="#FC6DDC"/>
</linearGradient>
<linearGradient id="paint32_linear_1_3142" x1="118.082" y1="743.575" x2="118.082" y2="-32.4125" gradientUnits="userSpaceOnUse">
<stop offset="0.04" stop-color="#807FE9"/>
<stop offset="1" stop-color="#FC6DDC"/>
</linearGradient>
<linearGradient id="paint33_linear_1_3142" x1="118.082" y1="743.575" x2="118.082" y2="-32.4125" gradientUnits="userSpaceOnUse">
<stop offset="0.04" stop-color="#807FE9"/>
<stop offset="1" stop-color="#FC6DDC"/>
</linearGradient>
<linearGradient id="paint34_linear_1_3142" x1="118.082" y1="743.575" x2="118.082" y2="-32.4125" gradientUnits="userSpaceOnUse">
<stop offset="0.04" stop-color="#807FE9"/>
<stop offset="1" stop-color="#FC6DDC"/>
</linearGradient>
<linearGradient id="paint35_linear_1_3142" x1="118.082" y1="743.575" x2="118.082" y2="-32.4125" gradientUnits="userSpaceOnUse">
<stop offset="0.04" stop-color="#807FE9"/>
<stop offset="1" stop-color="#FC6DDC"/>
</linearGradient>
<linearGradient id="paint36_linear_1_3142" x1="118.082" y1="743.575" x2="118.082" y2="-32.4125" gradientUnits="userSpaceOnUse">
<stop offset="0.04" stop-color="#807FE9"/>
<stop offset="1" stop-color="#FC6DDC"/>
</linearGradient>
<linearGradient id="paint37_linear_1_3142" x1="118.082" y1="743.575" x2="118.082" y2="-32.4125" gradientUnits="userSpaceOnUse">
<stop offset="0.04" stop-color="#807FE9"/>
<stop offset="1" stop-color="#FC6DDC"/>
</linearGradient>
<linearGradient id="paint38_linear_1_3142" x1="118.082" y1="743.575" x2="118.082" y2="-32.4125" gradientUnits="userSpaceOnUse">
<stop offset="0.04" stop-color="#807FE9"/>
<stop offset="1" stop-color="#FC6DDC"/>
</linearGradient>
<linearGradient id="paint39_linear_1_3142" x1="118.082" y1="743.575" x2="118.082" y2="-32.4125" gradientUnits="userSpaceOnUse">
<stop offset="0.04" stop-color="#807FE9"/>
<stop offset="1" stop-color="#FC6DDC"/>
</linearGradient>
<linearGradient id="paint40_linear_1_3142" x1="118.082" y1="743.575" x2="118.082" y2="-32.4125" gradientUnits="userSpaceOnUse">
<stop offset="0.04" stop-color="#807FE9"/>
<stop offset="1" stop-color="#FC6DDC"/>
</linearGradient>
<linearGradient id="paint41_linear_1_3142" x1="118.082" y1="743.575" x2="118.082" y2="-32.4125" gradientUnits="userSpaceOnUse">
<stop offset="0.04" stop-color="#807FE9"/>
<stop offset="1" stop-color="#FC6DDC"/>
</linearGradient>
<linearGradient id="paint42_linear_1_3142" x1="118.082" y1="743.575" x2="118.082" y2="-32.4125" gradientUnits="userSpaceOnUse">
<stop offset="0.04" stop-color="#807FE9"/>
<stop offset="1" stop-color="#FC6DDC"/>
</linearGradient>
<linearGradient id="paint43_linear_1_3142" x1="118.082" y1="743.575" x2="118.082" y2="-32.4125" gradientUnits="userSpaceOnUse">
<stop offset="0.04" stop-color="#807FE9"/>
<stop offset="1" stop-color="#FC6DDC"/>
</linearGradient>
<clipPath id="clip0_1_3142">
<rect width="330" height="726" fill="white"/>
</clipPath>
</defs>
</svg>
