<svg width="302" height="786" viewBox="0 0 302 786" fill="none" xmlns="http://www.w3.org/2000/svg">
<path d="M289.544 -1C289.746 -1 289.909 -0.837025 289.909 -0.635985V785.636C289.909 785.837 289.746 786 289.544 786C289.343 786 289.18 785.837 289.18 785.636V-0.635985C289.18 -0.837025 289.343 -1 289.544 -1Z" fill="#DBFF51"/>
<path d="M136.687 186.599C136.888 186.599 137.051 186.762 137.051 186.963V785.636C137.051 785.837 136.888 786 136.687 786C136.486 786 136.323 785.837 136.323 785.636V186.963C136.323 186.762 136.486 186.599 136.687 186.599Z" fill="#DBFF51"/>
<path d="M132.221 286.31C132.422 286.31 132.586 286.473 132.586 286.674V785.636C132.586 785.837 132.422 786 132.221 786C132.02 786 131.857 785.837 131.857 785.636V286.674C131.857 286.473 132.02 286.31 132.221 286.31Z" fill="#DBFF51"/>
<path d="M130.357 363.998C130.357 363.797 130.194 363.634 129.993 363.634C129.792 363.634 129.628 363.797 129.628 363.998V785.636C129.628 785.837 129.792 786 129.993 786C130.194 786 130.357 785.837 130.357 785.636V363.998Z" fill="#DBFF51"/>
<path d="M127.756 426.462C127.957 426.462 128.12 426.625 128.12 426.826V785.636C128.12 785.837 127.957 786 127.756 786C127.555 786 127.392 785.837 127.392 785.636V426.826C127.392 426.625 127.555 426.462 127.756 426.462Z" fill="#DBFF51"/>
<path d="M125.892 522.737C125.892 522.536 125.729 522.373 125.528 522.373C125.326 522.373 125.163 522.536 125.163 522.737V785.636C125.163 785.837 125.326 786 125.528 786C125.729 786 125.892 785.837 125.892 785.636V522.737Z" fill="#DBFF51"/>
<path d="M123.298 610.858C123.499 610.858 123.662 611.021 123.662 611.222V785.636C123.662 785.837 123.499 786 123.298 786C123.097 786 122.934 785.837 122.934 785.636V611.222C122.934 611.021 123.097 610.858 123.298 610.858Z" fill="#DBFF51"/>
<path d="M121.427 704.533C121.427 704.332 121.264 704.169 121.062 704.169C120.861 704.169 120.698 704.332 120.698 704.533V785.636C120.698 785.837 120.861 786 121.062 786C121.264 786 121.427 785.837 121.427 785.636V704.533Z" fill="#DBFF51"/>
<path d="M118.833 749.336C119.034 749.336 119.197 749.499 119.197 749.7V785.636C119.197 785.837 119.034 786 118.833 786C118.632 786 118.469 785.837 118.469 785.636V749.7C118.469 749.499 118.632 749.336 118.833 749.336Z" fill="#DBFF51"/>
<path d="M116.597 752.678C116.799 752.678 116.962 752.841 116.962 753.042V785.636C116.962 785.837 116.799 786 116.597 786C116.396 786 116.233 785.837 116.233 785.636V753.042C116.233 752.841 116.396 752.678 116.597 752.678Z" fill="#DBFF51"/>
<path d="M112.314 756.893C112.314 756.692 112.151 756.529 111.949 756.529C111.748 756.529 111.585 756.692 111.585 756.893V785.636C111.585 785.837 111.748 786 111.949 786C112.151 786 112.314 785.837 112.314 785.636V756.893Z" fill="#DBFF51"/>
<path d="M114.186 756.027C114.387 756.027 114.55 756.19 114.55 756.391V785.636C114.55 785.837 114.387 786 114.186 786C113.985 786 113.822 785.837 113.822 785.636V756.391C113.822 756.19 113.985 756.027 114.186 756.027Z" fill="#DBFF51"/>
<path d="M107.667 762.943C107.667 762.742 107.504 762.579 107.303 762.579C107.102 762.579 106.939 762.742 106.939 762.943V785.636C106.939 785.837 107.102 786 107.303 786C107.504 786 107.667 785.837 107.667 785.636V762.943Z" fill="#DBFF51"/>
<path d="M109.532 759.187C109.733 759.187 109.896 759.35 109.896 759.551V785.636C109.896 785.837 109.733 786 109.532 786C109.331 786 109.167 785.837 109.167 785.636V759.551C109.167 759.35 109.331 759.187 109.532 759.187Z" fill="#DBFF51"/>
<path d="M103.019 776.354C103.019 776.153 102.856 775.99 102.655 775.99C102.454 775.99 102.291 776.153 102.291 776.354V785.636C102.291 785.837 102.454 786 102.655 786C102.856 786 103.019 785.837 103.019 785.636V776.354Z" fill="#DBFF51"/>
<path d="M104.884 764.763C105.086 764.763 105.249 764.926 105.249 765.127V785.636C105.249 785.837 105.086 786 104.884 786C104.683 786 104.52 785.837 104.52 785.636V765.127C104.52 764.926 104.683 764.763 104.884 764.763Z" fill="#DBFF51"/>
<path d="M98.365 768.178C98.365 767.977 98.2019 767.814 98.0008 767.814C97.7997 767.814 97.6366 767.977 97.6366 768.178V785.636C97.6366 785.837 97.7997 786 98.0008 786C98.2019 786 98.365 785.837 98.365 785.636V768.178Z" fill="#DBFF51"/>
<path d="M100.237 776.412C100.438 776.412 100.601 776.575 100.601 776.776V785.636C100.601 785.837 100.438 786 100.237 786C100.036 786 99.873 785.837 99.873 785.636V776.776C99.873 776.575 100.036 776.412 100.237 776.412Z" fill="#DBFF51"/>
<path d="M93.7178 770.078C93.7178 769.877 93.5547 769.714 93.3536 769.714C93.1525 769.714 92.9894 769.877 92.9894 770.078V785.636C92.9894 785.837 93.1525 786 93.3536 786C93.5547 786 93.7178 785.837 93.7178 785.636V770.078Z" fill="#DBFF51"/>
<path d="M95.5822 767.814C95.7834 767.814 95.9464 767.977 95.9464 768.178V785.636C95.9464 785.837 95.7834 786 95.5822 786C95.3811 786 95.218 785.837 95.218 785.636V768.178C95.218 767.977 95.3811 767.814 95.5822 767.814Z" fill="#DBFF51"/>
<path d="M89.0706 773.07C89.0706 772.869 88.9076 772.706 88.7064 772.706C88.5053 772.706 88.3422 772.869 88.3422 773.07V785.636C88.3422 785.837 88.5053 786 88.7064 786C88.9076 786 89.0706 785.837 89.0706 785.636V773.07Z" fill="#DBFF51"/>
<path d="M90.935 769.488C91.1362 769.488 91.2993 769.651 91.2993 769.852V785.636C91.2993 785.837 91.1362 786 90.935 786C90.7339 786 90.5708 785.837 90.5708 785.636V769.852C90.5708 769.651 90.7339 769.488 90.935 769.488Z" fill="#DBFF51"/>
<path d="M84.4156 768.178C84.4156 767.977 84.2525 767.814 84.0514 767.814C83.8502 767.814 83.6872 767.977 83.6872 768.178V785.636C83.6872 785.837 83.8502 786 84.0514 786C84.2525 786 84.4156 785.837 84.4156 785.636V768.178Z" fill="#DBFF51"/>
<path d="M86.2878 769.714C86.489 769.714 86.6521 769.877 86.6521 770.078V785.636C86.6521 785.837 86.489 786 86.2878 786C86.0867 786 85.9236 785.837 85.9236 785.636V770.078C85.9236 769.877 86.0867 769.714 86.2878 769.714Z" fill="#DBFF51"/>
<path d="M79.7684 771.01C79.7684 770.809 79.6053 770.646 79.4042 770.646C79.203 770.646 79.04 770.809 79.04 771.01V785.636C79.04 785.837 79.203 786 79.4042 786C79.6053 786 79.7684 785.837 79.7684 785.636V771.01Z" fill="#DBFF51"/>
<path d="M81.6335 767.814C81.8347 767.814 81.9977 767.977 81.9977 768.178V785.636C81.9977 785.837 81.8347 786 81.6335 786C81.4324 786 81.2693 785.837 81.2693 785.636V768.178C81.2693 767.977 81.4324 767.814 81.6335 767.814Z" fill="#DBFF51"/>
<path d="M75.1212 769.226C75.1212 769.025 74.9582 768.862 74.757 768.862C74.5559 768.862 74.3928 769.025 74.3928 769.226V785.636C74.3928 785.837 74.5559 786 74.757 786C74.9582 786 75.1212 785.837 75.1212 785.636V769.226Z" fill="#DBFF51"/>
<path d="M76.9856 768.513C77.1868 768.513 77.3498 768.676 77.3498 768.877V785.636C77.3498 785.837 77.1868 786 76.9856 786C76.7845 786 76.6214 785.837 76.6214 785.636V768.877C76.6214 768.676 76.7845 768.513 76.9856 768.513Z" fill="#DBFF51"/>
<path d="M70.4669 768.178C70.4669 767.977 70.3038 767.814 70.1027 767.814C69.9016 767.814 69.7385 767.977 69.7385 768.178V785.636C69.7385 785.837 69.9016 786 70.1027 786C70.3038 786 70.4669 785.837 70.4669 785.636V768.178Z" fill="#DBFF51"/>
<path d="M72.3392 769.488C72.5403 769.488 72.7034 769.651 72.7034 769.852V785.636C72.7034 785.837 72.5403 786 72.3392 786C72.138 786 71.975 785.837 71.975 785.636V769.852C71.975 769.651 72.138 769.488 72.3392 769.488Z" fill="#DBFF51"/>
<path d="M65.8197 767.064C65.8197 766.863 65.6567 766.7 65.4555 766.7C65.2544 766.7 65.0913 766.863 65.0913 767.064V785.636C65.0913 785.837 65.2544 786 65.4555 786C65.6567 786 65.8197 785.837 65.8197 785.636V767.064Z" fill="#DBFF51"/>
<path d="M67.6913 769.488C67.8924 769.488 68.0555 769.651 68.0555 769.852V785.636C68.0555 785.837 67.8924 786 67.6913 786C67.4901 786 67.327 785.837 67.327 785.636V769.852C67.327 769.651 67.4901 769.488 67.6913 769.488Z" fill="#DBFF51"/>
<path d="M61.1725 765.127C61.1725 764.926 61.0095 764.763 60.8083 764.763C60.6072 764.763 60.4441 764.926 60.4441 765.127V785.636C60.4441 785.837 60.6072 786 60.8083 786C61.0095 786 61.1725 785.837 61.1725 785.636V765.127Z" fill="#DBFF51"/>
<path d="M63.0369 764.763C63.2381 764.763 63.4012 764.926 63.4012 765.127V785.636C63.4012 785.837 63.2381 786 63.0369 786C62.8358 786 62.6727 785.837 62.6727 785.636V765.127C62.6727 764.926 62.8358 764.763 63.0369 764.763Z" fill="#DBFF51"/>
<path d="M56.5246 762.943C56.5246 762.742 56.3616 762.579 56.1604 762.579C55.9593 762.579 55.7962 762.742 55.7962 762.943V785.636C55.7962 785.837 55.9593 786 56.1604 786C56.3616 786 56.5246 785.837 56.5246 785.636V762.943Z" fill="#DBFF51"/>
<path d="M58.3898 762.579C58.5909 762.579 58.754 762.742 58.754 762.943V785.636C58.754 785.837 58.5909 786 58.3898 786C58.1886 786 58.0255 785.837 58.0255 785.636V762.943C58.0255 762.742 58.1886 762.579 58.3898 762.579Z" fill="#DBFF51"/>
<path d="M51.8703 757.876C51.8703 757.675 51.7072 757.512 51.5061 757.512C51.305 757.512 51.1419 757.675 51.1419 757.876V785.636C51.1419 785.837 51.305 786 51.5061 786C51.7072 786 51.8703 785.837 51.8703 785.636V757.876Z" fill="#DBFF51"/>
<path d="M53.7426 760.148C53.9437 760.148 54.1068 760.311 54.1068 760.512V785.636C54.1068 785.837 53.9437 786 53.7426 786C53.5414 786 53.3783 785.837 53.3783 785.636V760.512C53.3783 760.311 53.5414 760.148 53.7426 760.148Z" fill="#DBFF51"/>
<path d="M47.2231 764.013C47.2231 763.812 47.0601 763.649 46.8589 763.649C46.6578 763.649 46.4947 763.812 46.4947 764.013V785.636C46.4947 785.837 46.6578 786 46.8589 786C47.0601 786 47.2231 785.837 47.2231 785.636V764.013Z" fill="#DBFF51"/>
<path d="M49.0875 756.027C49.2887 756.027 49.4517 756.19 49.4517 756.391V785.636C49.4517 785.837 49.2887 786 49.0875 786C48.8864 786 48.7233 785.837 48.7233 785.636V756.391C48.7233 756.19 48.8864 756.027 49.0875 756.027Z" fill="#DBFF51"/>
<path d="M42.5759 774.825C42.5759 774.624 42.4129 774.461 42.2117 774.461C42.0106 774.461 41.8475 774.624 41.8475 774.825V785.636C41.8475 785.837 42.0106 786 42.2117 786C42.4129 786 42.5759 785.837 42.5759 785.636V774.825Z" fill="#DBFF51"/>
<path d="M44.4403 765.695C44.6415 765.695 44.8046 765.858 44.8046 766.059V785.636C44.8046 785.837 44.6415 786 44.4403 786C44.2392 786 44.0761 785.837 44.0761 785.636V766.059C44.0761 765.858 44.2392 765.695 44.4403 765.695Z" fill="#DBFF51"/>
<path d="M37.9216 771.068C37.9216 770.867 37.7586 770.704 37.5574 770.704C37.3563 770.704 37.1932 770.867 37.1932 771.068V785.636C37.1932 785.837 37.3563 786 37.5574 786C37.7586 786 37.9216 785.837 37.9216 785.636V771.068Z" fill="#DBFF51"/>
<path d="M39.7932 775.291C39.9943 775.291 40.1574 775.454 40.1574 775.655V785.636C40.1574 785.837 39.9943 786 39.7932 786C39.592 786 39.4289 785.837 39.4289 785.636V775.655C39.4289 775.454 39.592 775.291 39.7932 775.291Z" fill="#DBFF51"/>
<path d="M33.2737 775.349C33.2737 775.148 33.1106 774.985 32.9095 774.985C32.7084 774.985 32.5453 775.148 32.5453 775.349V785.636C32.5453 785.837 32.7084 786 32.9095 786C33.1106 786 33.2737 785.837 33.2737 785.636V775.349Z" fill="#DBFF51"/>
<path d="M35.1388 773.682C35.34 773.682 35.5031 773.845 35.5031 774.046V785.636C35.5031 785.837 35.34 786 35.1388 786C34.9377 786 34.7746 785.837 34.7746 785.636V774.046C34.7746 773.845 34.9377 773.682 35.1388 773.682Z" fill="#DBFF51"/>
<path d="M28.6265 777.213C28.6265 777.012 28.4635 776.849 28.2623 776.849C28.0612 776.849 27.8981 777.012 27.8981 777.213V785.636C27.8981 785.837 28.0612 786 28.2623 786C28.4635 786 28.6265 785.837 28.6265 785.636V777.213Z" fill="#DBFF51"/>
<path d="M30.4917 776.849C30.6928 776.849 30.8559 777.012 30.8559 777.213V785.636C30.8559 785.837 30.6928 786 30.4917 786C30.2905 786 30.1274 785.837 30.1274 785.636V777.213C30.1274 777.012 30.2905 776.849 30.4917 776.849Z" fill="#DBFF51"/>
<path d="M23.9722 778.523C23.9722 778.322 23.8091 778.159 23.608 778.159C23.4069 778.159 23.2438 778.322 23.2438 778.523V785.636C23.2438 785.837 23.4069 786 23.608 786C23.8091 786 23.9722 785.837 23.9722 785.636V778.523Z" fill="#DBFF51"/>
<path d="M25.8445 778.159C26.0456 778.159 26.2087 778.322 26.2087 778.523V785.636C26.2087 785.837 26.0456 786 25.8445 786C25.6433 786 25.4803 785.837 25.4803 785.636V778.523C25.4803 778.322 25.6433 778.159 25.8445 778.159Z" fill="#DBFF51"/>
<path d="M19.325 781.457C19.325 781.256 19.162 781.093 18.9608 781.093C18.7597 781.093 18.5966 781.256 18.5966 781.457V785.636C18.5966 785.837 18.7597 786 18.9608 786C19.162 786 19.325 785.837 19.325 785.636V781.457Z" fill="#DBFF51"/>
<path d="M21.1966 778.778C21.3977 778.778 21.5608 778.941 21.5608 779.142V785.636C21.5608 785.837 21.3977 786 21.1966 786C20.9954 786 20.8323 785.837 20.8323 785.636V779.142C20.8323 778.941 20.9954 778.778 21.1966 778.778Z" fill="#DBFF51"/>
<path d="M14.6778 782.6C14.6778 782.399 14.5148 782.236 14.3136 782.236C14.1125 782.236 13.9494 782.399 13.9494 782.6V785.636C13.9494 785.837 14.1125 786 14.3136 786C14.5148 786 14.6778 785.837 14.6778 785.636V782.6Z" fill="#DBFF51"/>
<path d="M16.5422 780.03C16.7434 780.03 16.9065 780.193 16.9065 780.394V785.636C16.9065 785.837 16.7434 786 16.5422 786C16.3411 786 16.178 785.837 16.178 785.636V780.394C16.178 780.193 16.3411 780.03 16.5422 780.03Z" fill="#DBFF51"/>
<path d="M10.0299 782.6C10.0299 782.399 9.86685 782.236 9.66571 782.236C9.46456 782.236 9.3015 782.399 9.3015 782.6V785.636C9.3015 785.837 9.46456 786 9.66571 786C9.86685 786 10.0299 785.837 10.0299 785.636V782.6Z" fill="#DBFF51"/>
<path d="M11.8951 781.093C12.0962 781.093 12.2593 781.256 12.2593 781.457V785.636C12.2593 785.837 12.0962 786 11.8951 786C11.6939 786 11.5308 785.837 11.5308 785.636V781.457C11.5308 781.256 11.6939 781.093 11.8951 781.093Z" fill="#DBFF51"/>
<path d="M5.37561 783.532C5.37561 783.331 5.21255 783.168 5.0114 783.168C4.81025 783.168 4.64719 783.331 4.64719 783.532V785.636C4.64719 785.837 4.81025 786 5.0114 786C5.21255 786 5.37561 785.837 5.37561 785.636V783.532Z" fill="#DBFF51"/>
<path d="M7.24786 783.168C7.449 783.168 7.61206 783.331 7.61206 783.532V785.636C7.61206 785.837 7.449 786 7.24786 786C7.04671 786 6.88365 785.837 6.88365 785.636V783.532C6.88365 783.331 7.04671 783.168 7.24786 783.168Z" fill="#DBFF51"/>
<path d="M0.728414 784.456C0.728414 784.255 0.565353 784.092 0.364207 784.092C0.163061 784.092 0 784.255 0 784.456V785.636C0 785.837 0.163061 786 0.364207 786C0.565353 786 0.728414 785.837 0.728414 785.636V784.456Z" fill="#DBFF51"/>
<path d="M2.59355 784.092C2.7947 784.092 2.95776 784.255 2.95776 784.456V785.636C2.95776 785.837 2.7947 786 2.59355 786C2.39241 786 2.22934 785.837 2.22934 785.636V784.456C2.22934 784.255 2.39241 784.092 2.59355 784.092Z" fill="#DBFF51"/>
<path d="M134.822 286.674C134.822 286.473 134.659 286.31 134.458 286.31C134.257 286.31 134.094 286.473 134.094 286.674V785.636C134.094 785.837 134.257 786 134.458 786C134.659 786 134.822 785.837 134.822 785.636V286.674Z" fill="#DBFF51"/>
<path d="M139.28 278.862C139.28 278.661 139.117 278.498 138.916 278.498C138.715 278.498 138.552 278.661 138.552 278.862V785.636C138.552 785.837 138.715 786 138.916 786C139.117 786 139.28 785.837 139.28 785.636V278.862Z" fill="#DBFF51"/>
<path d="M141.152 202.659C141.353 202.659 141.516 202.822 141.516 203.023V785.636C141.516 785.837 141.353 786 141.152 786C140.951 786 140.788 785.837 140.788 785.636V203.023C140.788 202.822 140.951 202.659 141.152 202.659Z" fill="#DBFF51"/>
<path d="M143.745 186.963C143.745 186.762 143.582 186.599 143.381 186.599C143.18 186.599 143.017 186.762 143.017 186.963V785.636C143.017 785.837 143.18 786 143.381 786C143.582 786 143.745 785.837 143.745 785.636V186.963Z" fill="#DBFF51"/>
<path d="M145.61 186.599C145.811 186.599 145.974 186.762 145.974 186.963V785.636C145.974 785.837 145.811 786 145.61 786C145.409 786 145.246 785.837 145.246 785.636V186.963C145.246 186.762 145.409 186.599 145.61 186.599Z" fill="#DBFF51"/>
<path d="M148.21 186.963C148.21 186.762 148.047 186.599 147.846 186.599C147.645 186.599 147.482 186.762 147.482 186.963V785.636C147.482 785.837 147.645 786 147.846 786C148.047 786 148.21 785.837 148.21 785.636V186.963Z" fill="#DBFF51"/>
<path d="M150.075 198.204C150.276 198.204 150.439 198.366 150.439 198.568V785.636C150.439 785.837 150.276 786 150.075 786C149.874 786 149.711 785.837 149.711 785.636V198.568C149.711 198.366 149.874 198.204 150.075 198.204Z" fill="#DBFF51"/>
<path d="M152.675 218.639C152.675 218.438 152.512 218.275 152.311 218.275C152.11 218.275 151.947 218.438 151.947 218.639V785.636C151.947 785.837 152.11 786 152.311 786C152.512 786 152.675 785.837 152.675 785.636V218.639Z" fill="#DBFF51"/>
<path d="M154.54 222.367C154.742 222.367 154.905 222.53 154.905 222.731V785.636C154.905 785.837 154.742 786 154.54 786C154.339 786 154.176 785.837 154.176 785.636V222.731C154.176 222.53 154.339 222.367 154.54 222.367Z" fill="#DBFF51"/>
<path d="M157.133 236.112C157.133 235.911 156.97 235.748 156.769 235.748C156.568 235.748 156.405 235.911 156.405 236.112V785.636C156.405 785.837 156.568 786 156.769 786C156.97 786 157.133 785.837 157.133 785.636V236.112Z" fill="#DBFF51"/>
<path d="M159.005 243.181C159.207 243.181 159.37 243.344 159.37 243.545V785.636C159.37 785.837 159.207 786 159.005 786C158.804 786 158.641 785.837 158.641 785.636V243.545C158.641 243.344 158.804 243.181 159.005 243.181Z" fill="#DBFF51"/>
<path d="M161.598 269.943C161.598 269.742 161.435 269.579 161.234 269.579C161.033 269.579 160.87 269.742 160.87 269.943V785.636C160.87 785.837 161.033 786 161.234 786C161.435 786 161.598 785.837 161.598 785.636V269.943Z" fill="#DBFF51"/>
<path d="M163.653 750.013C163.854 750.013 164.017 750.176 164.017 750.377V785.636C164.017 785.837 163.854 786 163.653 786C163.451 786 163.288 785.837 163.288 785.636V750.377C163.288 750.176 163.451 750.013 163.653 750.013Z" fill="#DBFF51"/>
<path d="M166.435 759.835C166.435 759.634 166.272 759.471 166.071 759.471C165.87 759.471 165.707 759.634 165.707 759.835V785.636C165.707 785.837 165.87 786 166.071 786C166.272 786 166.435 785.837 166.435 785.636V759.835Z" fill="#DBFF51"/>
<path d="M168.49 769.794C168.691 769.794 168.854 769.957 168.854 770.158V785.636C168.854 785.837 168.691 786 168.49 786C168.289 786 168.126 785.837 168.126 785.636V770.158C168.126 769.957 168.289 769.794 168.49 769.794Z" fill="#DBFF51"/>
<path d="M171.272 769.743C171.272 769.542 171.109 769.379 170.908 769.379C170.706 769.379 170.543 769.542 170.543 769.743V785.636C170.543 785.837 170.706 786 170.908 786C171.109 786 171.272 785.837 171.272 785.636V769.743Z" fill="#DBFF51"/>
<path d="M173.326 757.083C173.527 757.083 173.69 757.246 173.69 757.447V785.636C173.69 785.837 173.527 786 173.326 786C173.125 786 172.962 785.837 172.962 785.636V757.447C172.962 757.246 173.125 757.083 173.326 757.083Z" fill="#DBFF51"/>
<path d="M176.108 753.85C176.108 753.649 175.945 753.486 175.744 753.486C175.543 753.486 175.38 753.649 175.38 753.85V785.636C175.38 785.837 175.543 786 175.744 786C175.945 786 176.108 785.837 176.108 785.636V753.85Z" fill="#DBFF51"/>
<path d="M178.163 752.678C178.364 752.678 178.527 752.841 178.527 753.042V785.636C178.527 785.837 178.364 786 178.163 786C177.961 786 177.798 785.837 177.798 785.636V753.042C177.798 752.841 177.961 752.678 178.163 752.678Z" fill="#DBFF51"/>
<path d="M180.938 750.377C180.938 750.176 180.775 750.013 180.574 750.013C180.373 750.013 180.21 750.176 180.21 750.377V785.636C180.21 785.837 180.373 786 180.574 786C180.775 786 180.938 785.837 180.938 785.636V750.377Z" fill="#DBFF51"/>
<path d="M182.992 746.053C183.193 746.053 183.356 746.216 183.356 746.417V785.636C183.356 785.837 183.193 786 182.992 786C182.791 786 182.628 785.837 182.628 785.636V746.417C182.628 746.216 182.791 746.053 182.992 746.053Z" fill="#DBFF51"/>
<path d="M185.775 741.211C185.775 741.01 185.612 740.847 185.41 740.847C185.209 740.847 185.046 741.01 185.046 741.211V785.636C185.046 785.837 185.209 786 185.41 786C185.612 786 185.775 785.837 185.775 785.636V741.211Z" fill="#DBFF51"/>
<path d="M187.828 736.181C188.029 736.181 188.192 736.344 188.192 736.545V785.636C188.192 785.837 188.029 786 187.828 786C187.627 786 187.464 785.837 187.464 785.636V736.545C187.464 736.344 187.627 736.181 187.828 736.181Z" fill="#DBFF51"/>
<path d="M190.611 728.078C190.611 727.877 190.448 727.714 190.247 727.714C190.046 727.714 189.883 727.877 189.883 728.078V785.636C189.883 785.837 190.046 786 190.247 786C190.448 786 190.611 785.837 190.611 785.636V728.078Z" fill="#DBFF51"/>
<path d="M192.665 725.122C192.867 725.122 193.03 725.285 193.03 725.486V785.636C193.03 785.837 192.867 786 192.665 786C192.464 786 192.301 785.837 192.301 785.636V725.486C192.301 725.285 192.464 725.122 192.665 725.122Z" fill="#DBFF51"/>
<path d="M195.448 729.905C195.448 729.704 195.285 729.541 195.084 729.541C194.883 729.541 194.72 729.704 194.72 729.905V785.636C194.72 785.837 194.883 786 195.084 786C195.285 786 195.448 785.837 195.448 785.636V729.905Z" fill="#DBFF51"/>
<path d="M197.503 729.541C197.704 729.541 197.867 729.704 197.867 729.905V785.636C197.867 785.837 197.704 786 197.503 786C197.301 786 197.138 785.837 197.138 785.636V729.905C197.138 729.704 197.301 729.541 197.503 729.541Z" fill="#DBFF51"/>
<path d="M200.285 732.038C200.285 731.837 200.122 731.674 199.92 731.674C199.719 731.674 199.556 731.837 199.556 732.038V785.636C199.556 785.837 199.719 786 199.92 786C200.122 786 200.285 785.837 200.285 785.636V732.038Z" fill="#DBFF51"/>
<path d="M202.339 732.519C202.54 732.519 202.703 732.682 202.703 732.883V785.636C202.703 785.837 202.54 786 202.339 786C202.138 786 201.975 785.837 201.975 785.636V732.883C201.975 732.682 202.138 732.519 202.339 732.519Z" fill="#DBFF51"/>
<path d="M205.121 733.276C205.121 733.075 204.958 732.912 204.757 732.912C204.556 732.912 204.393 733.075 204.393 733.276V785.636C204.393 785.837 204.556 786 204.757 786C204.958 786 205.121 785.837 205.121 785.636V733.276Z" fill="#DBFF51"/>
<path d="M207.168 732.912C207.369 732.912 207.532 733.075 207.532 733.276V785.636C207.532 785.837 207.369 786 207.168 786C206.967 786 206.804 785.837 206.804 785.636V733.276C206.804 733.075 206.967 732.912 207.168 732.912Z" fill="#DBFF51"/>
<path d="M209.951 733.276C209.951 733.075 209.788 732.912 209.587 732.912C209.386 732.912 209.223 733.075 209.223 733.276V785.636C209.223 785.837 209.386 786 209.587 786C209.788 786 209.951 785.837 209.951 785.636V733.276Z" fill="#DBFF51"/>
<path d="M212.005 733.909C212.206 733.909 212.369 734.072 212.369 734.273V785.636C212.369 785.837 212.206 786 212.005 786C211.803 786 211.64 785.837 211.64 785.636V734.273C211.64 734.072 211.803 733.909 212.005 733.909Z" fill="#DBFF51"/>
<path d="M214.787 738.365C214.787 738.164 214.624 738.001 214.423 738.001C214.222 738.001 214.059 738.164 214.059 738.365V785.636C214.059 785.837 214.222 786 214.423 786C214.624 786 214.787 785.837 214.787 785.636V738.365Z" fill="#DBFF51"/>
<path d="M216.841 733.909C217.042 733.909 217.205 734.072 217.205 734.273V785.636C217.205 785.837 217.042 786 216.841 786C216.64 786 216.477 785.837 216.477 785.636V734.273C216.477 734.072 216.64 733.909 216.841 733.909Z" fill="#DBFF51"/>
<path d="M219.624 737.091C219.624 736.89 219.461 736.727 219.26 736.727C219.058 736.727 218.895 736.89 218.895 737.091V785.636C218.895 785.837 219.058 786 219.26 786C219.461 786 219.624 785.837 219.624 785.636V737.091Z" fill="#DBFF51"/>
<path d="M221.678 732.519C221.879 732.519 222.042 732.682 222.042 732.883V785.636C222.042 785.837 221.879 786 221.678 786C221.477 786 221.314 785.837 221.314 785.636V732.883C221.314 732.682 221.477 732.519 221.678 732.519Z" fill="#DBFF51"/>
<path d="M224.461 729.192C224.461 728.991 224.298 728.828 224.097 728.828C223.896 728.828 223.733 728.991 223.733 729.192V785.636C223.733 785.837 223.896 786 224.097 786C224.298 786 224.461 785.837 224.461 785.636V729.192Z" fill="#DBFF51"/>
<path d="M226.515 728.828C226.716 728.828 226.879 728.991 226.879 729.192V785.636C226.879 785.837 226.716 786 226.515 786C226.313 786 226.15 785.837 226.15 785.636V729.192C226.15 728.991 226.313 728.828 226.515 728.828Z" fill="#DBFF51"/>
<path d="M229.297 747.727C229.297 747.526 229.134 747.363 228.933 747.363C228.732 747.363 228.569 747.526 228.569 747.727V785.636C228.569 785.837 228.732 786 228.933 786C229.134 786 229.297 785.837 229.297 785.636V747.727Z" fill="#DBFF51"/>
<path d="M231.351 746.613C231.552 746.613 231.715 746.776 231.715 746.977V785.636C231.715 785.837 231.552 786 231.351 786C231.15 786 230.987 785.837 230.987 785.636V746.977C230.987 746.776 231.15 746.613 231.351 746.613Z" fill="#DBFF51"/>
<path d="M234.134 726.833C234.134 726.632 233.971 726.469 233.77 726.469C233.568 726.469 233.405 726.632 233.405 726.833V785.636C233.405 785.837 233.568 786 233.77 786C233.971 786 234.134 785.837 234.134 785.636V726.833Z" fill="#DBFF51"/>
<path d="M236.181 725.122C236.382 725.122 236.545 725.285 236.545 725.486V785.636C236.545 785.837 236.382 786 236.181 786C235.98 786 235.817 785.837 235.817 785.636V725.486C235.817 725.285 235.98 725.122 236.181 725.122Z" fill="#DBFF51"/>
<path d="M238.964 722.872C238.964 722.672 238.801 722.508 238.6 722.508C238.398 722.508 238.235 722.672 238.235 722.872V785.636C238.235 785.837 238.398 786 238.6 786C238.801 786 238.964 785.837 238.964 785.636V722.872Z" fill="#DBFF51"/>
<path d="M241.017 718.664C241.219 718.664 241.382 718.827 241.382 719.028V785.636C241.382 785.837 241.219 786 241.017 786C240.816 786 240.653 785.837 240.653 785.636V719.028C240.653 718.827 240.816 718.664 241.017 718.664Z" fill="#DBFF51"/>
<path d="M243.8 717.543C243.8 717.342 243.637 717.179 243.436 717.179C243.235 717.179 243.072 717.342 243.072 717.543V785.636C243.072 785.837 243.235 786 243.436 786C243.637 786 243.8 785.837 243.8 785.636V717.543Z" fill="#DBFF51"/>
<path d="M245.854 712.964C246.055 712.964 246.218 713.127 246.218 713.328V785.636C246.218 785.837 246.055 786 245.854 786C245.653 786 245.49 785.837 245.49 785.636V713.328C245.49 713.127 245.653 712.964 245.854 712.964Z" fill="#DBFF51"/>
<path d="M248.637 708.312C248.637 708.111 248.474 707.948 248.272 707.948C248.071 707.948 247.908 708.111 247.908 708.312V785.636C247.908 785.837 248.071 786 248.272 786C248.474 786 248.637 785.837 248.637 785.636V708.312Z" fill="#DBFF51"/>
<path d="M250.859 700.573C251.06 700.573 251.223 700.736 251.223 700.937V785.636C251.223 785.837 251.06 786 250.859 786C250.658 786 250.495 785.837 250.495 785.636V700.937C250.495 700.736 250.658 700.573 250.859 700.573Z" fill="#DBFF51"/>
<path d="M253.641 688.546C253.641 688.345 253.478 688.182 253.277 688.182C253.076 688.182 252.912 688.345 252.912 688.546V785.636C252.912 785.837 253.076 786 253.277 786C253.478 786 253.641 785.837 253.641 785.636V688.546Z" fill="#DBFF51"/>
<path d="M255.695 677.589C255.896 677.589 256.059 677.752 256.059 677.953V785.636C256.059 785.837 255.896 786 255.695 786C255.494 786 255.331 785.837 255.331 785.636V677.953C255.331 677.752 255.494 677.589 255.695 677.589Z" fill="#DBFF51"/>
<path d="M258.477 666.392C258.477 666.191 258.314 666.028 258.113 666.028C257.912 666.028 257.749 666.191 257.749 666.392V785.636C257.749 785.837 257.912 786 258.113 786C258.314 786 258.477 785.837 258.477 785.636V666.392Z" fill="#DBFF51"/>
<path d="M260.532 641.988C260.733 641.988 260.896 642.151 260.896 642.352V785.636C260.896 785.837 260.733 786 260.532 786C260.331 786 260.167 785.837 260.167 785.636V642.352C260.167 642.151 260.331 641.988 260.532 641.988Z" fill="#DBFF51"/>
<path d="M263.314 658.74C263.314 658.539 263.151 658.376 262.95 658.376C262.749 658.376 262.586 658.539 262.586 658.74V785.636C262.586 785.837 262.749 786 262.95 786C263.151 786 263.314 785.837 263.314 785.636V658.74Z" fill="#DBFF51"/>
<path d="M265.369 641.988C265.57 641.988 265.733 642.151 265.733 642.352V785.636C265.733 785.837 265.57 786 265.369 786C265.168 786 265.005 785.837 265.005 785.636V642.352C265.005 642.151 265.168 641.988 265.369 641.988Z" fill="#DBFF51"/>
<path d="M268.151 575.927C268.151 575.726 267.988 575.563 267.787 575.563C267.585 575.563 267.422 575.726 267.422 575.927V785.636C267.422 785.837 267.585 786 267.787 786C267.988 786 268.151 785.837 268.151 785.636V575.927Z" fill="#DBFF51"/>
<path d="M270.205 551.116C270.406 551.116 270.569 551.279 270.569 551.48V785.636C270.569 785.837 270.406 786 270.205 786C270.004 786 269.841 785.837 269.841 785.636V551.48C269.841 551.279 270.004 551.116 270.205 551.116Z" fill="#DBFF51"/>
<path d="M272.987 527.913C272.987 527.712 272.824 527.549 272.623 527.549C272.422 527.549 272.259 527.712 272.259 527.913V785.636C272.259 785.837 272.422 786 272.623 786C272.824 786 272.987 785.837 272.987 785.636V527.913Z" fill="#DBFF51"/>
<path d="M275.042 482.914C275.243 482.914 275.406 483.077 275.406 483.278V785.636C275.406 785.837 275.243 786 275.042 786C274.84 786 274.677 785.837 274.677 785.636V483.278C274.677 483.077 274.84 482.914 275.042 482.914Z" fill="#DBFF51"/>
<path d="M277.817 438.49C277.817 438.288 277.654 438.125 277.453 438.125C277.252 438.125 277.089 438.288 277.089 438.49V785.636C277.089 785.837 277.252 786 277.453 786C277.654 786 277.817 785.837 277.817 785.636V438.49Z" fill="#DBFF51"/>
<path d="M279.871 386.829C280.072 386.829 280.235 386.992 280.235 387.193V785.636C280.235 785.837 280.072 786 279.871 786C279.67 786 279.507 785.837 279.507 785.636V387.193C279.507 386.992 279.67 386.829 279.871 386.829Z" fill="#DBFF51"/>
<path d="M282.654 312.562C282.654 312.361 282.491 312.198 282.289 312.198C282.088 312.198 281.925 312.361 281.925 312.562V785.636C281.925 785.837 282.088 786 282.289 786C282.491 786 282.654 785.837 282.654 785.636V312.562Z" fill="#DBFF51"/>
<path d="M284.707 235.049C284.908 235.049 285.072 235.212 285.072 235.413V785.636C285.072 785.837 284.908 786 284.707 786C284.506 786 284.343 785.837 284.343 785.636V235.413C284.343 235.212 284.506 235.049 284.707 235.049Z" fill="#DBFF51"/>
<path d="M287.49 187.712C287.49 187.511 287.327 187.348 287.126 187.348C286.925 187.348 286.762 187.511 286.762 187.712V785.636C286.762 785.837 286.925 786 287.126 786C287.327 786 287.49 785.837 287.49 785.636V187.712Z" fill="#DBFF51"/>
<path d="M292.327 -0.635985C292.327 -0.837025 292.164 -1 291.963 -1C291.762 -1 291.599 -0.837025 291.599 -0.635985V785.636C291.599 785.837 291.762 786 291.963 786C292.164 786 292.327 785.837 292.327 785.636V-0.635985Z" fill="#DBFF51"/>
<path d="M294.382 -1C294.583 -1 294.746 -0.837025 294.746 -0.635985V785.636C294.746 785.837 294.583 786 294.382 786C294.18 786 294.017 785.837 294.017 785.636V-0.635985C294.017 -0.837025 294.18 -1 294.382 -1Z" fill="#DBFF51"/>
<path d="M297.164 -0.635985C297.164 -0.837025 297.001 -1 296.799 -1C296.598 -1 296.435 -0.837025 296.435 -0.635985V785.636C296.435 785.837 296.598 786 296.799 786C297.001 786 297.164 785.837 297.164 785.636V-0.635985Z" fill="#DBFF51"/>
<path d="M299.218 -1C299.419 -1 299.582 -0.837025 299.582 -0.635985V785.636C299.582 785.837 299.419 786 299.218 786C299.017 786 298.854 785.837 298.854 785.636V-0.635985C298.854 -0.837025 299.017 -1 299.218 -1Z" fill="#DBFF51"/>
<path d="M302 -0.635985C302 -0.837025 301.837 -1 301.636 -1C301.435 -1 301.272 -0.837025 301.272 -0.635985V785.636C301.272 785.837 301.435 786 301.636 786C301.837 786 302 785.837 302 785.636V-0.635985Z" fill="#DBFF51"/>
</svg>
