<svg width="354" height="289" viewBox="0 0 354 289" fill="none" xmlns="http://www.w3.org/2000/svg">
<path fill-rule="evenodd" clip-rule="evenodd" d="M369.137 12.7445C365.747 12.8044 362.389 12.9488 359.07 13.1701L359.02 12.4271C362.351 12.205 365.722 12.0601 369.124 12L369.137 12.7445ZM384.245 13.0511C382.563 12.9518 380.885 12.875 379.213 12.8199L379.237 12.0757C380.916 12.131 382.6 12.2081 384.289 12.3077L384.245 13.0511ZM349.036 14.0807C345.655 14.4685 342.327 14.9322 339.059 15.463L338.939 14.728C342.218 14.1954 345.559 13.7301 348.951 13.341L349.036 14.0807ZM329.152 17.31C325.799 18.0166 322.525 18.7899 319.342 19.6193L319.155 18.8987C322.348 18.0664 325.633 17.2904 328.999 16.5814L329.152 17.31ZM309.661 22.3959C306.354 23.4336 303.173 24.5267 300.134 25.6606L299.874 24.963C302.926 23.8244 306.118 22.727 309.438 21.6854L309.661 22.3959ZM290.804 29.4573C287.556 30.8977 284.534 32.3739 281.762 33.8608L281.41 33.2046C284.199 31.7082 287.239 30.224 290.502 28.7766L290.804 29.4573ZM273.149 39.053C271.678 40.0621 270.339 41.062 269.14 42.0447L268.904 41.7566L269.14 42.0447C268.002 42.9767 266.862 43.9492 265.721 44.9604L265.227 44.4032C266.375 43.3859 267.522 42.4071 268.668 41.4686C269.886 40.4709 271.242 39.4584 272.728 38.439L273.149 39.053ZM259.193 51.1396C257.135 53.2073 255.072 55.3885 253.004 57.6728L252.452 57.1732C254.527 54.8811 256.598 52.6912 258.665 50.6143L259.193 51.1396ZM247.092 64.4614C245.199 66.7143 243.302 69.0443 241.401 71.4437L240.817 70.9813C242.722 68.5769 244.624 66.2412 246.522 63.9824L247.092 64.4614ZM235.89 78.5716C234.105 80.9333 232.318 83.3487 230.526 85.8114L229.924 85.3734C231.718 82.9075 233.508 80.4884 235.296 78.1227L235.89 78.5716ZM225.281 93.1381C223.567 95.5677 221.849 98.0344 220.129 100.532L219.516 100.11C221.238 97.61 222.956 95.141 224.672 92.7088L225.281 93.1381ZM215.051 107.979C214.212 109.22 213.373 110.467 212.533 111.72C211.736 112.908 210.947 114.055 210.169 115.163L209.56 114.734C210.335 113.631 211.12 112.489 211.914 111.305C212.755 110.052 213.595 108.804 214.434 107.562L215.051 107.979ZM205.2 121.88C203.35 124.253 201.57 126.392 199.872 128.318L199.313 127.826C201.001 125.911 202.772 123.784 204.613 121.423L205.2 121.88ZM194.118 134.386C193.046 135.43 192.024 136.377 191.055 137.234L190.562 136.677C191.521 135.827 192.535 134.888 193.598 133.853L194.118 134.386Z" fill="white"/>
<g filter="url(#filter0_d_1_3119)">
<path fill-rule="evenodd" clip-rule="evenodd" d="M333.705 14.4754C334.108 14.4625 334.499 14.6136 334.789 14.8941C335.079 15.1747 335.242 15.5606 335.242 15.9638V15.9713C335.242 16.6142 334.83 17.1845 334.219 17.3857C286.788 33.0168 265.096 62.8723 246.305 98.0116C242.519 105.091 238.848 112.396 235.106 119.843C220.285 149.334 204.339 181.064 175.678 209.943C139.739 246.156 99.6806 262.343 68.6157 269.474C53.0841 273.04 39.7944 274.343 30.3789 274.755C25.6706 274.961 21.9293 274.944 19.3587 274.875C18.0733 274.84 17.0805 274.793 16.4056 274.754C16.0682 274.734 15.8103 274.717 15.635 274.704C15.5473 274.697 15.4803 274.692 15.4344 274.689L15.3813 274.684L15.3625 274.683C15.3611 274.682 15.3602 274.682 15.4892 273.199L15.3602 274.682C14.5901 274.615 13.9992 273.97 14 273.197C14.0008 272.424 14.5929 271.78 15.3631 271.715L15.3826 271.713C15.4007 271.711 15.4304 271.708 15.4714 271.704C15.5534 271.695 15.6808 271.681 15.8517 271.659C16.1935 271.615 16.7094 271.54 17.385 271.42C18.7362 271.181 20.7261 270.762 23.2398 270.044C28.2668 268.608 35.3893 265.978 43.6907 261.21C60.2812 251.681 81.6402 233.576 100.394 199.259C105.576 189.778 109.612 180.566 113.984 170.326C114.454 169.225 114.928 168.112 115.407 166.986C119.384 157.647 123.75 147.396 129.54 135.372C147.061 98.9787 180.032 72.6842 197.089 60.9118C229.051 38.8408 263.196 27.2382 289.327 21.1508C302.397 18.1059 313.476 16.4378 321.293 15.5306C325.201 15.077 328.296 14.8134 330.417 14.6632C331.478 14.5881 332.296 14.5413 332.85 14.5132C333.127 14.4991 333.339 14.4897 333.482 14.4838C333.554 14.4809 333.609 14.4788 333.646 14.4774L333.689 14.4759L333.704 14.4754C333.705 14.4754 333.705 14.4754 333.753 15.9638L333.705 14.4754ZM322.946 18.3408C322.521 18.3878 322.084 18.4372 321.636 18.4892C313.913 19.3856 302.947 21.0361 290.003 24.0516C264.106 30.0845 230.342 41.5688 198.781 63.3629C181.854 75.0459 149.403 100.979 132.224 136.664C126.465 148.623 122.125 158.813 118.147 168.154C117.668 169.279 117.194 170.393 116.723 171.496C112.349 181.74 108.265 191.069 103.008 200.687C83.9946 235.478 62.2477 253.986 45.1742 263.793C38.3122 267.734 32.2147 270.265 27.3663 271.882C28.2803 271.857 29.2418 271.824 30.2488 271.779C39.5152 271.374 52.6221 270.09 67.9493 266.571C98.6018 259.535 138.11 243.569 173.564 207.845C201.858 179.336 217.547 148.128 232.352 118.679C236.12 111.183 239.831 103.802 243.679 96.6071C261.225 63.794 281.539 35.0953 322.946 18.3408Z" fill="#009DFF"/>
</g>
<defs>
<filter id="filter0_d_1_3119" x="0" y="0.474609" width="349.242" height="288.447" filterUnits="userSpaceOnUse" color-interpolation-filters="sRGB">
<feFlood flood-opacity="0" result="BackgroundImageFix"/>
<feColorMatrix in="SourceAlpha" type="matrix" values="0 0 0 0 0 0 0 0 0 0 0 0 0 0 0 0 0 0 127 0" result="hardAlpha"/>
<feOffset/>
<feGaussianBlur stdDeviation="7"/>
<feColorMatrix type="matrix" values="0 0 0 0 0 0 0 0 0 0.443137 0 0 0 0 0.737255 0 0 0 1 0"/>
<feBlend mode="normal" in2="BackgroundImageFix" result="effect1_dropShadow_1_3119"/>
<feBlend mode="normal" in="SourceGraphic" in2="effect1_dropShadow_1_3119" result="shape"/>
</filter>
</defs>
</svg>
