<svg width="315" height="299" viewBox="0 0 315 299" fill="none" xmlns="http://www.w3.org/2000/svg">
<path fill-rule="evenodd" clip-rule="evenodd" d="M244.659 24.2879C244.659 24.4819 244.569 25.1264 243.423 25.1264C242.278 25.1264 242.188 24.4819 242.188 24.2879C242.188 24.0939 242.278 23.4495 243.423 23.4495C244.569 23.4495 244.659 24.0939 244.659 24.2879ZM243.576 24.2949C243.576 24.1147 243.507 23.9692 243.423 23.8722C243.34 23.9761 243.271 24.1216 243.271 24.2949C243.271 24.4681 243.34 24.6136 243.423 24.7106C243.507 24.6136 243.576 24.475 243.576 24.2949Z" fill="url(#paint0_linear_1_2444)"/>
<path fill-rule="evenodd" clip-rule="evenodd" d="M243.423 26.5538C245.152 26.5538 246.055 25.6669 246.311 25.1403L246.381 24.9948V24.1355L246.36 23.9554C246.339 23.8791 245.825 22.0429 243.43 22.0152H243.389C241.48 22.0152 240.681 23.2832 240.522 23.9554L240.501 24.974L240.563 25.1126C240.806 25.6461 241.674 26.5469 243.423 26.5469V26.5538ZM241.889 24.2187C241.966 24.0247 242.264 23.4149 243.417 23.401C244.548 23.4079 244.909 24.0385 244.999 24.2464V24.6136C244.833 24.8007 244.388 25.168 243.423 25.168C242.459 25.168 242.042 24.8077 241.889 24.6275V24.2187Z" fill="url(#paint1_linear_1_2444)"/>
<path d="M124.47 123.715V123.73L124.484 123.723L124.47 123.715Z" fill="url(#paint2_linear_1_2444)"/>
<path fill-rule="evenodd" clip-rule="evenodd" d="M92.9543 110.932C92.9543 111.126 92.864 111.77 91.7186 111.77C90.5731 111.77 90.4829 111.126 90.4829 110.932C90.4829 110.738 90.5731 110.093 91.7186 110.093C92.864 110.093 92.9543 110.738 92.9543 110.932ZM91.8713 110.932C91.8713 110.759 91.8019 110.613 91.7186 110.516C91.6353 110.613 91.5658 110.759 91.5658 110.932C91.5658 111.105 91.6353 111.251 91.7186 111.348C91.8019 111.251 91.8713 111.105 91.8713 110.932Z" fill="url(#paint3_linear_1_2444)"/>
<path fill-rule="evenodd" clip-rule="evenodd" d="M91.7174 113.198C93.446 113.198 94.3485 112.311 94.6053 111.784L94.6748 111.639V110.779L94.6539 110.599C94.6331 110.523 94.1194 108.687 91.7244 108.659H91.6827C89.7737 108.659 88.9753 109.927 88.8157 110.599L88.7948 111.618L88.8573 111.757C89.1003 112.29 89.968 113.191 91.7174 113.191V113.198ZM90.1902 110.87C90.2735 110.655 90.6206 110.045 91.7174 110.052C92.849 110.059 93.21 110.689 93.3002 110.897V111.265C93.1336 111.452 92.6893 111.819 91.7244 111.819C90.7594 111.819 90.3429 111.459 90.1971 111.278V110.877L90.1902 110.87Z" fill="url(#paint4_linear_1_2444)"/>
<path fill-rule="evenodd" clip-rule="evenodd" d="M85.2199 130.258L85.0255 130.341C84.8867 130.424 83.6718 131.193 83.3941 132.44C83.2483 133.078 83.3941 133.736 83.7898 134.332C84.3868 135.219 85.1088 135.732 85.9488 135.843C86.0738 135.857 86.1918 135.87 86.3098 135.87C87.3719 135.87 88.1564 135.233 88.2466 135.15L88.3646 135.046L88.4271 134.907C88.4896 134.769 89.0033 133.528 88.1286 131.789C87.3442 130.216 85.8863 130.105 85.2268 130.258H85.2199ZM87.1914 134.194C86.9832 134.325 86.5736 134.533 86.1293 134.471C85.7058 134.415 85.3032 134.103 84.9353 133.563C84.7409 133.272 84.6784 133.016 84.7409 132.745C84.852 132.246 85.3518 131.796 85.6364 131.595C85.8933 131.574 86.4833 131.623 86.8721 132.406C87.3095 133.272 87.247 133.916 87.1845 134.194H87.1914Z" fill="url(#paint5_linear_1_2444)"/>
<path fill-rule="evenodd" clip-rule="evenodd" d="M99.7218 137.208L99.9162 137.125L99.9231 137.132C100.583 136.972 102.04 137.09 102.825 138.663C103.693 140.395 103.186 141.643 103.123 141.781L103.061 141.92L102.943 142.024C102.853 142.107 102.068 142.744 101.006 142.744C100.894 142.744 100.782 142.732 100.665 142.719L100.645 142.717C99.8051 142.599 99.0832 142.086 98.4861 141.199C98.0905 140.603 97.9447 139.945 98.0904 139.307C98.3681 138.06 99.583 137.291 99.7218 137.208ZM100.826 141.338C101.27 141.4 101.679 141.192 101.888 141.061H101.881C101.943 140.79 102.006 140.139 101.568 139.273C101.18 138.49 100.59 138.441 100.333 138.462C100.048 138.663 99.5483 139.113 99.4372 139.612C99.3747 139.883 99.4372 140.139 99.6316 140.43C99.9995 140.97 100.402 141.282 100.826 141.338Z" fill="url(#paint6_linear_1_2444)"/>
<path fill-rule="evenodd" clip-rule="evenodd" d="M191.184 160.04L143.971 187.764V170.441L191.184 143.451V160.04ZM189.795 145.842L145.359 171.245V185.332L189.795 159.243V145.842Z" fill="url(#paint7_linear_1_2444)"/>
<path fill-rule="evenodd" clip-rule="evenodd" d="M124.179 132.385C124.179 132.191 124.269 131.547 125.415 131.547C126.56 131.547 126.65 132.191 126.65 132.385C126.65 132.579 126.56 133.223 125.415 133.223C124.269 133.223 124.179 132.579 124.179 132.385ZM125.262 132.378C125.262 132.558 125.331 132.704 125.415 132.801C125.498 132.697 125.567 132.551 125.567 132.378C125.567 132.205 125.498 132.059 125.415 131.962C125.331 132.059 125.262 132.198 125.262 132.378Z" fill="url(#paint8_linear_1_2444)"/>
<path fill-rule="evenodd" clip-rule="evenodd" d="M125.422 130.119C123.513 130.078 122.673 131.38 122.513 132.059L122.492 133.078L122.555 133.217C122.798 133.75 123.666 134.651 125.415 134.651C127.164 134.651 128.046 133.764 128.303 133.237L128.372 133.092V132.233L128.351 132.052C128.331 131.976 127.817 130.133 125.422 130.112V130.119ZM126.991 132.718C126.824 132.905 126.38 133.272 125.415 133.272C124.45 133.272 124.033 132.912 123.881 132.731V132.33C123.964 132.115 124.297 131.512 125.408 131.512C126.54 131.519 126.901 132.149 126.991 132.357V132.718Z" fill="url(#paint9_linear_1_2444)"/>
<path fill-rule="evenodd" clip-rule="evenodd" d="M275.891 45.7411C275.891 45.5471 275.981 44.9027 277.126 44.9027C278.272 44.9027 278.362 45.5471 278.362 45.7411C278.362 45.9351 278.272 46.5795 277.126 46.5795C275.981 46.5795 275.891 45.9351 275.891 45.7411ZM276.973 45.7342C276.973 45.9143 277.043 46.0598 277.126 46.1569C277.209 46.0529 277.279 45.9074 277.279 45.7342C277.279 45.5609 277.209 45.4154 277.126 45.3184C277.043 45.4154 276.973 45.554 276.973 45.7342Z" fill="url(#paint10_linear_1_2444)"/>
<path fill-rule="evenodd" clip-rule="evenodd" d="M277.133 43.4752H277.092C275.183 43.4752 274.384 44.7432 274.225 45.4154L274.204 46.434L274.266 46.5726C274.509 47.1061 275.377 48.0069 277.126 48.0069C278.876 48.0069 279.757 47.12 280.014 46.5933L280.084 46.4478V45.5886L280.063 45.4084C280.042 45.3322 279.521 43.496 277.133 43.4682V43.4752ZM278.702 46.0737C278.536 46.2607 278.091 46.628 277.126 46.628C276.161 46.628 275.745 46.2677 275.592 46.0875V45.6856C275.676 45.4777 276.002 44.868 277.092 44.868H277.119C278.251 44.8818 278.612 45.5055 278.702 45.7133V46.0737Z" fill="url(#paint11_linear_1_2444)"/>
<path fill-rule="evenodd" clip-rule="evenodd" d="M247.894 0.582832C251.469 2.37059 309.928 35.1254 312.448 37.2596L312.42 37.2527C315.17 39.5755 315.003 43.5466 314.996 43.7303L314.996 43.7316L314.565 189.358L308.803 192.718L308.748 192.621C308.421 192.753 308.095 192.815 307.776 192.815C307.623 192.815 307.47 192.802 307.318 192.774C306.061 192.517 304.562 191.693 304.02 191.381C303.5 191.915 302.903 192.386 302.215 192.739C301.861 192.926 300.112 193.917 297.238 195.566C297.21 196.426 297.134 198.477 296.967 199.571C296.71 201.235 294.364 205.226 290.06 205.226C286.943 205.226 285.339 203.701 284.666 202.801C253.226 220.936 187.688 258.914 154.987 277.864L150.441 280.499L150.42 287.608C149.871 289.805 147.719 293.817 143.436 293.817C143.29 293.817 143.143 293.811 142.991 293.804L142.99 293.804L142.971 293.803C138.695 293.526 137.14 290.2 136.626 288.509C136.119 288.807 135.786 289.001 135.64 289.084C135.633 291.683 135.633 293.263 135.633 293.554C135.633 295.979 131.94 297.663 129.698 298.46C129.031 298.924 128.393 299 128.053 299C127.928 299 127.81 298.986 127.81 298.986L126.095 298.071C116.924 292.909 70.0445 266.515 65.4628 263.12C60.2562 259.26 60.0549 253.703 60.0549 253.468V237.904C56.1534 240.087 52.9393 241.799 52.6338 241.958C52.4186 242.055 49.7529 243.185 45.775 243.185C42.9774 243.185 39.5341 242.623 35.8271 240.759L30.8704 243.85L32.7587 241.986C28.9405 242.984 22.2484 243.032 14.3066 235.784C2.53287 225.044 -0.216197 211.545 0.0128913 205.26C0.269748 198.29 2.41485 193.896 6.55927 191.838C6.52456 189.656 6.78836 180.668 13.3764 175.624C13.5291 175.492 14.3344 174.799 15.8616 174.196L34.154 163.775L37.1322 161.031L37.4793 161.412L37.2085 160.968C37.2779 160.92 37.5348 160.747 37.986 160.539L59.2496 148.932V117.411C59.2496 114.168 61.0407 112.851 61.6516 112.498C61.7279 112.401 61.8182 112.311 61.9362 112.221C62.443 111.75 63.5051 110.973 65.3656 110.537C65.796 109.588 66.7887 107.841 68.9755 105.763C72.0091 102.873 101.888 86.5754 105.706 84.4966V74.8164C105.734 74.6085 105.984 72.7446 107.365 72.0516L107.416 72.0294C107.508 71.9886 107.597 71.9493 107.691 71.92L107.678 71.8992L111.336 69.862C111.725 69.5571 114.036 67.8871 116.057 69.2453C116.848 69.7857 118.403 70.6727 120.208 71.6982L120.543 71.8897L120.544 71.8903C121.648 72.5204 122.813 73.1856 123.915 73.8394L201.16 29.7898C201.173 27.1706 201.208 23.692 201.291 22.1191C201.437 19.3474 203.048 18.502 203.43 18.3426C203.735 18.1763 205.915 16.9706 206.956 16.25C208.872 14.9334 210.698 14.6978 212.385 15.5363C213.065 15.8758 213.614 16.2223 214.245 16.6242L214.273 16.6417C215.281 17.2759 216.51 18.0484 218.896 19.2088C231.087 12.0993 237.626 8.48916 238.313 8.48916H238.688L238.702 4.60875L238.703 4.60622C238.754 4.40053 239.173 2.72828 240.521 2.10728C240.625 2.05877 240.75 2.01027 240.875 1.97562V1.96176L242.923 0.908509C243.34 0.568974 245.228 -0.747593 247.894 0.582832ZM243.027 11.3718C239.855 9.9166 239.133 9.86809 238.39 9.86809C237.203 10.2631 227.22 15.9659 220.41 19.9294C225.533 22.566 225.533 30.0473 225.533 30.3914V39.5601L258.487 19.9987C255.342 18.1694 245.818 12.6537 243.027 11.3718ZM281.688 33.5594L259.855 20.7956V20.8025L225.547 41.1608L225.533 41.1331V65.4411L220.042 68.6909V68.975L281.688 33.5594ZM211.767 16.7697C210.545 16.1599 209.233 16.3608 207.748 17.3795L207.754 17.3864C207.289 17.6982 206.637 18.1001 206.012 18.4674C206.866 18.7445 207.914 19.1741 208.851 19.7978C209.735 20.3903 211.038 21.0614 212.309 21.7156L212.42 21.7726C213.752 22.4517 215.009 23.1031 215.884 23.6851C217.515 24.7799 220.243 27.3992 220.139 32.6793C220.056 36.8646 220.042 61.3251 220.042 67.0833L224.145 64.6581V30.3857C224.145 30.3095 224.145 23.1862 219.556 21.052C216.279 19.5353 214.707 18.546 213.566 17.8285L213.503 17.7883L213.368 17.7035C212.806 17.3471 212.34 17.0524 211.767 16.7697ZM203.957 19.6107C203.922 19.6245 202.791 20.0819 202.68 22.1815V22.1745C202.576 24.1702 202.548 29.4711 202.548 31.8617L207.241 29.1593L207.324 29.1385C207.532 29.083 212.558 27.7457 216.488 34.7859C220.375 41.7498 217.591 45.457 217.473 45.6094L217.39 45.7134L217.272 45.7826L202.784 54.1948V57.8396L218.654 67.0902C218.654 61.332 218.667 36.8508 218.751 32.6447C218.841 28.2515 216.821 25.9649 215.113 24.8285C214.301 24.288 213.079 23.6574 211.781 22.9922C210.434 22.3062 209.053 21.5925 208.074 20.9411C206.692 20.0195 204.943 19.5622 204.311 19.4236C204.172 19.4998 204.068 19.5622 204.068 19.5622L203.957 19.6107ZM215.273 35.4649C212.114 29.7968 208.365 30.3372 207.775 30.462H207.768L127.782 76.521C129.927 78.8077 130.135 81.815 130.142 81.9674V94.7659L216.439 44.667C216.807 44.0919 218.39 41.0499 215.273 35.4649ZM201.16 32.6724V31.3766L201.153 31.3836L125.276 74.6501C125.664 74.8857 126.039 75.1213 126.386 75.343C126.453 75.387 126.516 75.4338 126.578 75.4799L126.628 75.5167C126.647 75.5306 126.666 75.5444 126.685 75.5578L201.16 32.6724ZM112.162 70.9637L112.058 71.033L112.051 71.0399L109.948 72.211C109.969 72.2222 109.99 72.2333 110.011 72.2442L110.066 72.2718C110.102 72.2906 110.14 72.3095 110.176 72.3289C110.218 72.3508 110.26 72.3736 110.302 72.3981C111.232 72.9305 112.497 73.6454 113.864 74.4174L114.141 74.5739C117.341 76.3824 120.958 78.4266 122.402 79.3412C124.605 80.7385 124.492 84.5453 124.443 86.1786L124.443 86.1874C124.436 86.3468 124.436 86.4784 124.436 86.5685C124.436 86.7944 124.438 88.9734 124.441 92.1574C124.449 100.793 124.463 116.82 124.463 121.326L128.754 118.817V82.009C128.754 82.009 128.497 78.3573 125.63 76.5072C123.998 75.4545 121.79 74.193 119.798 73.0552L119.521 72.897L119.04 72.6217C117.421 71.6944 116.044 70.9063 115.279 70.3886C113.981 69.5155 112.162 70.9637 112.162 70.9637ZM107.99 73.285C107.393 73.5761 107.143 74.5392 107.087 74.9342L107.101 74.9411V112.172L123.089 121.34C123.082 115.187 123.061 87.4139 123.061 86.5685C123.061 86.542 123.062 86.5128 123.062 86.4811L123.064 86.4098C123.066 86.3322 123.068 86.2434 123.068 86.1458C123.103 84.9886 123.207 81.4824 121.666 80.5054C120.262 79.6152 116.677 77.5914 113.507 75.8022L113.467 75.7796C111.989 74.9481 110.614 74.172 109.614 73.5969C108.92 73.195 108.379 73.091 107.99 73.285ZM124.47 122.927V123.715L105.713 112.962V110.031L87.7676 121.097L108.705 132.939L219.591 69.2314L201.402 58.6296V54.9986L130.149 96.3665V119.607L124.47 122.927ZM105.706 86.0696C93.7934 92.5623 72.3007 104.508 69.9404 106.76V106.767C68.4617 108.174 67.587 109.401 67.0733 110.274C67.469 110.239 67.8786 110.218 68.3229 110.218H68.5034L86.3862 120.328L105.706 108.41V86.0696ZM105.053 167.773C89.5171 141.435 71.551 144.283 70.1764 144.546V144.539L42.7552 159.513H42.9982C48.9892 159.513 59.3329 163.22 72.7867 182.401C83.9287 198.29 84.5812 209.681 83.1651 216.437C82.4361 219.93 81.1102 222.57 79.8953 224.399L105.977 209.189C106.9 208.302 120.673 194.243 105.053 167.773ZM38.3887 161.897L38.0138 162.105V162.098L37.5001 162.569C41.3599 161.807 48.3991 162.098 57.7224 169.63C71.1622 180.495 77.7294 196.543 79.2706 206.986C80.3535 214.352 79.1803 221.821 76.4451 226.381C77.0907 225.792 80.5201 222.397 81.8183 216.056C83.1512 209.577 82.4639 198.622 71.6412 183.191C53.0642 156.7 40.7073 160.788 38.3887 161.897ZM15.2577 234.765C26.4691 245 34.7233 239.858 35.3619 239.436V239.443C36.0978 238.687 45.0461 228.778 32.4601 208.864C19.7492 188.748 7.9338 192.781 7.54504 192.919C3.60194 194.672 1.65122 198.608 1.40825 205.316C1.19304 211.358 3.8588 224.365 15.2577 234.765ZM22.4288 185.858C27.2328 186.094 44.1853 194.998 48.4339 213.971V213.977C51.3634 227.053 47.7744 232.631 45.2752 234.835C47.0524 234.46 49.6071 233.296 51.8077 230.836C55.2579 226.991 56.9587 215.606 49.9264 202.343C42.8177 188.935 32.4879 182.546 25.4001 182.165C20.9849 181.916 18.4302 184.459 17.2292 186.163C18.3608 185.928 20.0477 185.741 22.4288 185.858ZM47.0802 214.275C43.0537 196.308 26.7538 187.459 22.3594 187.244H22.3664C17.854 187.016 16.0838 187.958 16.0838 187.958L10.7315 191.076C15.5354 191.076 24.3865 193.481 33.6403 208.122C43.2551 223.339 40.7143 233.102 38.3193 237.593L42.7969 234.821C42.8733 234.793 50.9399 231.509 47.0802 214.275ZM52.0437 240.718C52.0576 240.711 52.3908 240.538 52.9393 240.24H52.9462C59.8675 235.853 61.9223 225.272 58.4304 211.919C55.1538 199.398 45.9486 183.939 32.7517 177.633C24.3726 173.628 19.0689 174.446 16.3962 175.492L14.2233 176.733C8.79462 180.89 8.04487 188.235 7.96851 191.069L15.2091 186.856C15.7853 185.706 18.7981 180.419 25.4764 180.772C32.953 181.181 43.7966 187.799 51.1552 201.685C58.4929 215.53 56.563 227.601 52.8421 231.751C49.9958 234.918 46.3929 236.345 44.1298 236.345C43.7549 236.352 43.4147 236.304 43.1232 236.227L37.2432 239.893C45.2036 243.516 51.8434 240.8 52.0398 240.719L52.0437 240.718ZM59.7633 211.573C62.6582 222.653 61.8112 231.959 57.6113 237.69L57.6043 237.696C63.0122 234.703 70.7596 230.282 73.2726 228.12C77.2365 224.718 79.1734 215.918 77.8891 207.201C76.3827 197.001 69.9682 181.334 56.8407 170.718C43.4944 159.924 35.0715 164.85 34.9327 164.931L34.9315 164.932L34.8066 164.766L34.9107 164.946L20.3046 173.268C23.4771 173.088 27.7881 173.732 33.3418 176.386C47.8716 183.329 56.6533 199.682 59.7633 211.573ZM130.468 292.223C130.468 288.544 130.524 247.792 130.579 211.843V211.829C130.621 183.877 130.656 159 130.656 157.254C130.656 153.7 128.774 150.297 125.616 148.149C122.52 146.043 67.476 114.764 64.9005 113.641C63.6509 113.101 63.033 113.17 62.8178 113.281C62.7345 113.364 62.6929 113.42 62.6929 113.42L60.8324 115.873C60.7213 116.302 60.645 116.808 60.645 117.397V148.156L69.6835 143.222L69.7738 143.202C69.9682 143.153 89.6142 138.85 106.254 167.059C122.922 195.317 107.025 210.111 106.865 210.256L106.747 210.34L77.1324 227.614L77.0005 227.427L77.1046 227.628L74.1265 229.208C71.9328 231.065 66.3791 234.35 61.4641 237.121V253.447C61.4641 253.481 61.6655 258.561 66.3097 262.004C71.0307 265.506 123.754 295.148 128 297.535L128.007 297.539L128.01 297.54L128.012 297.542L128.018 297.545C128.337 297.455 128.684 297.344 129.066 297.212C129.087 297.198 129.101 297.178 129.122 297.164C129.733 296.616 130.468 295.307 130.468 292.223ZM134.298 278.566C134.314 271.464 134.334 262.335 134.356 252.262V252.255C134.439 213.867 134.55 161.287 134.55 155.986C134.55 148.232 129.948 146.5 129.753 146.431L129.642 146.382L68.1285 111.597C66.7193 111.618 65.6294 111.84 64.8102 112.131C65.0185 112.2 65.2267 112.283 65.4489 112.38C68.0383 113.51 123.29 144.899 126.393 147.013C129.934 149.417 132.044 153.249 132.044 157.268C132.044 159.014 132.009 183.89 131.968 211.843C131.947 227.288 131.924 243.615 131.904 257.51L131.903 257.586C131.877 276.002 131.857 290.127 131.857 292.223C131.857 293.872 131.655 295.237 131.26 296.304C132.863 295.521 134.266 294.531 134.266 293.547C134.266 292.977 134.278 287.441 134.297 278.887L134.298 278.566ZM143.096 292.424C147.428 292.722 148.886 288.045 149.08 287.352V281.309C148.024 281.922 147.021 282.503 146.074 283.052C144.775 283.805 143.583 284.496 142.504 285.121L137.889 287.795C138.174 288.987 139.292 292.175 143.096 292.424ZM290.087 203.847C293.718 203.847 295.475 200.313 295.62 199.364L295.627 199.371C295.738 198.629 295.808 197.347 295.849 196.391C293.218 197.902 289.851 199.842 285.908 202.115C286.457 202.78 287.706 203.847 290.087 203.847ZM137.518 286.404L137.52 286.403C159.211 273.829 298.051 193.346 301.604 191.513H301.597C304.881 189.822 305.881 184.798 305.978 184.251C305.999 180.987 306.853 59.9946 306.929 53.1485C307.005 46.8082 302.965 45.9282 302.923 45.9212L302.812 45.9004L302.715 45.845L283.069 34.3632L110.093 133.743L130.274 145.156C130.954 145.419 135.939 147.623 135.939 155.993C135.939 161.301 135.828 213.88 135.744 252.269C135.71 267.319 135.682 280.256 135.668 287.477L137.518 286.404ZM309.643 188.478C309.581 156.333 309.414 51.1459 309.789 47.2517V47.2586C310.095 44.0711 308.859 41.5627 306.11 39.7957C304.055 38.4792 245.138 4.92057 242.43 3.52778C241.896 3.25061 241.465 3.20211 241.111 3.36148C240.521 3.63172 240.181 4.47017 240.077 4.85128V8.70397C240.833 8.91878 241.903 9.32068 243.603 10.1037C246.741 11.5381 257.71 17.9269 259.848 19.1811L303.333 44.6047C304.145 44.8403 308.394 46.3786 308.317 53.1693C308.271 57.3115 307.942 103.367 307.683 139.748C307.51 163.922 307.368 183.825 307.359 184.32V184.424C307.332 184.604 306.79 187.771 304.957 190.307C305.547 190.633 306.707 191.229 307.623 191.416C308.116 191.506 308.602 191.187 308.852 190.986C309.407 190.529 309.643 189.995 309.643 189.857V188.478ZM313.212 188.568L313.635 43.6969L313.628 43.69C313.635 43.6276 313.767 40.1838 311.545 38.3059C309.22 36.3311 250.615 3.47928 247.269 1.80932C245.193 0.769923 243.832 1.94097 243.777 1.98948L243.631 2.09342L243.159 2.33594C246.838 4.28308 304.819 37.3081 306.86 38.6178C310.039 40.6619 311.532 43.69 311.171 47.3833C310.803 51.2221 310.969 156.347 311.032 188.478V189.836L313.212 188.568Z" fill="url(#paint12_linear_1_2444)"/>
<defs>
<linearGradient id="paint0_linear_1_2444" x1="277.126" y1="280.596" x2="277.126" y2="-14.0656" gradientUnits="userSpaceOnUse">
<stop stop-color="#FDF540"/>
<stop offset="0.21" stop-color="#FAF440"/>
<stop offset="0.36" stop-color="#F1F342"/>
<stop offset="0.49" stop-color="#E1F144"/>
<stop offset="0.6" stop-color="#CCEE48"/>
<stop offset="0.71" stop-color="#B0EB4D"/>
<stop offset="0.81" stop-color="#8DE653"/>
<stop offset="0.9" stop-color="#65E15A"/>
<stop offset="0.99" stop-color="#37DB62"/>
<stop offset="1" stop-color="#34DB63"/>
</linearGradient>
<linearGradient id="paint1_linear_1_2444" x1="277.126" y1="280.596" x2="277.126" y2="-14.0656" gradientUnits="userSpaceOnUse">
<stop stop-color="#FDF540"/>
<stop offset="0.21" stop-color="#FAF440"/>
<stop offset="0.36" stop-color="#F1F342"/>
<stop offset="0.49" stop-color="#E1F144"/>
<stop offset="0.6" stop-color="#CCEE48"/>
<stop offset="0.71" stop-color="#B0EB4D"/>
<stop offset="0.81" stop-color="#8DE653"/>
<stop offset="0.9" stop-color="#65E15A"/>
<stop offset="0.99" stop-color="#37DB62"/>
<stop offset="1" stop-color="#34DB63"/>
</linearGradient>
<linearGradient id="paint2_linear_1_2444" x1="277.126" y1="280.596" x2="277.126" y2="-14.0656" gradientUnits="userSpaceOnUse">
<stop stop-color="#FDF540"/>
<stop offset="0.21" stop-color="#FAF440"/>
<stop offset="0.36" stop-color="#F1F342"/>
<stop offset="0.49" stop-color="#E1F144"/>
<stop offset="0.6" stop-color="#CCEE48"/>
<stop offset="0.71" stop-color="#B0EB4D"/>
<stop offset="0.81" stop-color="#8DE653"/>
<stop offset="0.9" stop-color="#65E15A"/>
<stop offset="0.99" stop-color="#37DB62"/>
<stop offset="1" stop-color="#34DB63"/>
</linearGradient>
<linearGradient id="paint3_linear_1_2444" x1="277.126" y1="280.596" x2="277.126" y2="-14.0656" gradientUnits="userSpaceOnUse">
<stop stop-color="#FDF540"/>
<stop offset="0.21" stop-color="#FAF440"/>
<stop offset="0.36" stop-color="#F1F342"/>
<stop offset="0.49" stop-color="#E1F144"/>
<stop offset="0.6" stop-color="#CCEE48"/>
<stop offset="0.71" stop-color="#B0EB4D"/>
<stop offset="0.81" stop-color="#8DE653"/>
<stop offset="0.9" stop-color="#65E15A"/>
<stop offset="0.99" stop-color="#37DB62"/>
<stop offset="1" stop-color="#34DB63"/>
</linearGradient>
<linearGradient id="paint4_linear_1_2444" x1="277.126" y1="280.596" x2="277.126" y2="-14.0656" gradientUnits="userSpaceOnUse">
<stop stop-color="#FDF540"/>
<stop offset="0.21" stop-color="#FAF440"/>
<stop offset="0.36" stop-color="#F1F342"/>
<stop offset="0.49" stop-color="#E1F144"/>
<stop offset="0.6" stop-color="#CCEE48"/>
<stop offset="0.71" stop-color="#B0EB4D"/>
<stop offset="0.81" stop-color="#8DE653"/>
<stop offset="0.9" stop-color="#65E15A"/>
<stop offset="0.99" stop-color="#37DB62"/>
<stop offset="1" stop-color="#34DB63"/>
</linearGradient>
<linearGradient id="paint5_linear_1_2444" x1="277.126" y1="280.596" x2="277.126" y2="-14.0656" gradientUnits="userSpaceOnUse">
<stop stop-color="#FDF540"/>
<stop offset="0.21" stop-color="#FAF440"/>
<stop offset="0.36" stop-color="#F1F342"/>
<stop offset="0.49" stop-color="#E1F144"/>
<stop offset="0.6" stop-color="#CCEE48"/>
<stop offset="0.71" stop-color="#B0EB4D"/>
<stop offset="0.81" stop-color="#8DE653"/>
<stop offset="0.9" stop-color="#65E15A"/>
<stop offset="0.99" stop-color="#37DB62"/>
<stop offset="1" stop-color="#34DB63"/>
</linearGradient>
<linearGradient id="paint6_linear_1_2444" x1="277.126" y1="280.596" x2="277.126" y2="-14.0656" gradientUnits="userSpaceOnUse">
<stop stop-color="#FDF540"/>
<stop offset="0.21" stop-color="#FAF440"/>
<stop offset="0.36" stop-color="#F1F342"/>
<stop offset="0.49" stop-color="#E1F144"/>
<stop offset="0.6" stop-color="#CCEE48"/>
<stop offset="0.71" stop-color="#B0EB4D"/>
<stop offset="0.81" stop-color="#8DE653"/>
<stop offset="0.9" stop-color="#65E15A"/>
<stop offset="0.99" stop-color="#37DB62"/>
<stop offset="1" stop-color="#34DB63"/>
</linearGradient>
<linearGradient id="paint7_linear_1_2444" x1="277.126" y1="280.596" x2="277.126" y2="-14.0656" gradientUnits="userSpaceOnUse">
<stop stop-color="#FDF540"/>
<stop offset="0.21" stop-color="#FAF440"/>
<stop offset="0.36" stop-color="#F1F342"/>
<stop offset="0.49" stop-color="#E1F144"/>
<stop offset="0.6" stop-color="#CCEE48"/>
<stop offset="0.71" stop-color="#B0EB4D"/>
<stop offset="0.81" stop-color="#8DE653"/>
<stop offset="0.9" stop-color="#65E15A"/>
<stop offset="0.99" stop-color="#37DB62"/>
<stop offset="1" stop-color="#34DB63"/>
</linearGradient>
<linearGradient id="paint8_linear_1_2444" x1="277.126" y1="280.596" x2="277.126" y2="-14.0656" gradientUnits="userSpaceOnUse">
<stop stop-color="#FDF540"/>
<stop offset="0.21" stop-color="#FAF440"/>
<stop offset="0.36" stop-color="#F1F342"/>
<stop offset="0.49" stop-color="#E1F144"/>
<stop offset="0.6" stop-color="#CCEE48"/>
<stop offset="0.71" stop-color="#B0EB4D"/>
<stop offset="0.81" stop-color="#8DE653"/>
<stop offset="0.9" stop-color="#65E15A"/>
<stop offset="0.99" stop-color="#37DB62"/>
<stop offset="1" stop-color="#34DB63"/>
</linearGradient>
<linearGradient id="paint9_linear_1_2444" x1="277.126" y1="280.596" x2="277.126" y2="-14.0656" gradientUnits="userSpaceOnUse">
<stop stop-color="#FDF540"/>
<stop offset="0.21" stop-color="#FAF440"/>
<stop offset="0.36" stop-color="#F1F342"/>
<stop offset="0.49" stop-color="#E1F144"/>
<stop offset="0.6" stop-color="#CCEE48"/>
<stop offset="0.71" stop-color="#B0EB4D"/>
<stop offset="0.81" stop-color="#8DE653"/>
<stop offset="0.9" stop-color="#65E15A"/>
<stop offset="0.99" stop-color="#37DB62"/>
<stop offset="1" stop-color="#34DB63"/>
</linearGradient>
<linearGradient id="paint10_linear_1_2444" x1="277.126" y1="280.596" x2="277.126" y2="-14.0656" gradientUnits="userSpaceOnUse">
<stop stop-color="#FDF540"/>
<stop offset="0.21" stop-color="#FAF440"/>
<stop offset="0.36" stop-color="#F1F342"/>
<stop offset="0.49" stop-color="#E1F144"/>
<stop offset="0.6" stop-color="#CCEE48"/>
<stop offset="0.71" stop-color="#B0EB4D"/>
<stop offset="0.81" stop-color="#8DE653"/>
<stop offset="0.9" stop-color="#65E15A"/>
<stop offset="0.99" stop-color="#37DB62"/>
<stop offset="1" stop-color="#34DB63"/>
</linearGradient>
<linearGradient id="paint11_linear_1_2444" x1="277.126" y1="280.596" x2="277.126" y2="-14.0656" gradientUnits="userSpaceOnUse">
<stop stop-color="#FDF540"/>
<stop offset="0.21" stop-color="#FAF440"/>
<stop offset="0.36" stop-color="#F1F342"/>
<stop offset="0.49" stop-color="#E1F144"/>
<stop offset="0.6" stop-color="#CCEE48"/>
<stop offset="0.71" stop-color="#B0EB4D"/>
<stop offset="0.81" stop-color="#8DE653"/>
<stop offset="0.9" stop-color="#65E15A"/>
<stop offset="0.99" stop-color="#37DB62"/>
<stop offset="1" stop-color="#34DB63"/>
</linearGradient>
<linearGradient id="paint12_linear_1_2444" x1="277.126" y1="280.596" x2="277.126" y2="-14.0656" gradientUnits="userSpaceOnUse">
<stop stop-color="#FDF540"/>
<stop offset="0.21" stop-color="#FAF440"/>
<stop offset="0.36" stop-color="#F1F342"/>
<stop offset="0.49" stop-color="#E1F144"/>
<stop offset="0.6" stop-color="#CCEE48"/>
<stop offset="0.71" stop-color="#B0EB4D"/>
<stop offset="0.81" stop-color="#8DE653"/>
<stop offset="0.9" stop-color="#65E15A"/>
<stop offset="0.99" stop-color="#37DB62"/>
<stop offset="1" stop-color="#34DB63"/>
</linearGradient>
</defs>
</svg>
