<svg width="181" height="180" viewBox="0 0 181 180" fill="none" xmlns="http://www.w3.org/2000/svg">
<path d="M0.5 14.4C0.5 6.4471 6.9471 0 14.9 0H166.1C174.053 0 180.5 6.4471 180.5 14.4V165.6C180.5 173.553 174.053 180 166.1 180H14.9C6.9471 180 0.5 173.553 0.5 165.6V14.4Z" fill="#244A66"/>
<path d="M87.0756 37.4401L37.9399 37.4401L37.9399 85.7777L59.4368 85.7777L59.4368 92.7825L37.9399 92.7825L37.9399 141.12L87.0756 141.12L87.0756 119.962L93.9243 119.962L93.9243 141.12L143.06 141.12L143.06 92.7825L121.563 92.7825L121.563 85.7777L143.06 85.7777L143.06 37.4401L93.9243 37.4401L93.9243 58.5983L87.0756 58.5983L87.0756 37.4401ZM50.1751 73.7593L50.1751 49.4826L74.8404 49.4826L74.8404 73.7593L50.1751 73.7593ZM50.1751 129.078L50.1751 104.801L74.8404 104.801L74.8404 129.078L50.1751 129.078ZM130.825 104.801L130.825 129.078L106.16 129.078L106.16 104.801L130.825 104.801ZM130.825 49.4826L130.825 73.7593L106.16 73.7593L106.16 49.4826L130.825 49.4826ZM93.9243 64.6196L93.9243 85.7777L115.421 85.7777L115.421 92.7825L93.9243 92.7825L93.9243 113.917L87.0756 113.917L87.0756 92.7825L65.5787 92.7825L65.5787 85.7777L87.0756 85.7777L87.0756 64.6196L93.9243 64.6196Z" fill="white"/>
</svg>
