<svg width="1660" height="253" viewBox="0 0 1660 253" fill="none" xmlns="http://www.w3.org/2000/svg">
<path d="M56.4996 0L0 250.831H29.8089L48.3926 168.284H143.931L161.392 250.831H191.076L138.069 0H56.4996ZM55.1277 138.557L79.5734 29.7272H114.496L137.57 138.557H55.1277Z" fill="white"/>
<path d="M448.226 0L391.727 250.831H421.535L440.119 168.284H535.657L553.118 250.831H582.927L529.795 0H448.226ZM446.854 138.557L471.425 29.7272H506.347L529.421 138.557H446.854Z" fill="white"/>
<path d="M837.197 140.343H936.103V110.488H837.197V29.7272H954.936V0H808.137V250.831H959.551V221.104H837.197V140.343Z" fill="white"/>
<path d="M1115.51 215.745L1025.21 0H993.531V249.938H1022.59V69.1508L1098.42 250.448H1132.85L1206.43 70.6818V250.448H1235.49V0H1203.81L1115.51 215.745Z" fill="white"/>
<path d="M1305.94 213.194V0H1276.88V250.703H1319.53L1430.78 28.9617V250.576H1459.84V0.255169H1414.07L1305.94 213.194Z" fill="white"/>
<path d="M345.635 0L275.915 110.488H242.24V0H213.055V250.703H242.24V140.215H276.414L341.27 250.448H377.814L301.858 125.798L378.562 0H345.635Z" fill="white"/>
<path d="M1524.95 0L1520.59 5.10338C1500.38 28.8341 1474.44 82.1644 1520.46 137.026L1524.83 142.129H1550.4L1491.4 251.341H1521.46L1583.95 142.129H1630.34V251.341H1659.4V0H1524.95ZM1630.47 112.402H1538.55C1510.61 74.1266 1529.94 42.996 1538.8 29.7272H1630.47V112.402Z" fill="white"/>
<path d="M605.945 0V253H740.023C740.023 253 823.338 130.774 738.651 0H605.945ZM718.57 223.018H635.38V29.9823H717.573C778.936 126.564 718.57 223.018 718.57 223.018Z" fill="white"/>
</svg>
