<svg width="1660" height="253" viewBox="0 0 1660 253" fill="none" xmlns="http://www.w3.org/2000/svg">
<path d="M48.3926 167.284H47.5927L47.417 168.064L29.009 249.831H1.2503L57.2994 1H137.258L189.843 249.831H162.202L144.909 168.077L144.741 167.284H143.931H48.3926ZM54.152 138.338L53.8781 139.557H55.1277H137.57H138.804L138.548 138.349L115.474 29.5198L115.306 28.7272H114.496H79.5734H78.7731L78.5977 29.508L54.152 138.338Z" stroke="#B99C7E" stroke-width="2"/>
<path d="M440.119 167.284H439.319L439.144 168.064L420.736 249.831H392.977L449.026 1H528.985L581.693 249.831H553.929L536.635 168.077L536.468 167.284H535.657H440.119ZM445.879 138.337L445.603 139.557H446.854H529.421H530.655L530.399 138.349L507.325 29.5198L507.157 28.7272H506.347H471.425H470.625L470.449 29.507L445.879 138.337Z" stroke="#B99C7E" stroke-width="2"/>
<path d="M837.197 139.343H836.197V140.343V221.104V222.104H837.197H958.551V249.831H809.137V1H953.936V28.7272H837.197H836.197V29.7272V110.488V111.488H837.197H935.103V139.343H837.197Z" stroke="#B99C7E" stroke-width="2"/>
<path d="M1114.59 216.131L1115.52 218.36L1116.44 216.124L1204.49 1H1234.49V249.448H1207.43V70.6818L1205.51 70.303L1132.18 249.448H1099.09L1023.51 68.7649L1021.59 69.1508V248.938H994.531V1H1024.55L1114.59 216.131Z" stroke="#B99C7E" stroke-width="2"/>
<path d="M1304.94 213.194L1306.83 213.646L1414.68 1.25517H1458.84V249.576H1431.78V28.9617L1429.89 28.5132L1318.91 249.703H1277.88V1H1304.94V213.194Z" stroke="#B99C7E" stroke-width="2"/>
<path d="M275.915 111.488H276.467L276.761 111.022L346.187 1H376.781L301.004 125.278L300.686 125.798L301.004 126.319L376.034 249.448H341.842L277.276 139.708L276.986 139.215H276.414H242.24H241.24V140.215V249.703H214.055V1H241.24V110.488V111.488H242.24H275.915Z" stroke="#B99C7E" stroke-width="2"/>
<path d="M1525.41 1H1658.4V250.341H1631.34V142.129V141.129H1630.34H1583.95H1583.37L1583.08 141.632L1520.88 250.341H1493.08L1551.28 142.604L1552.07 141.129H1550.4H1525.29L1521.23 136.383C1521.23 136.382 1521.23 136.381 1521.23 136.379C1498.4 109.169 1493.46 82.4075 1496.68 59.5299C1499.91 36.6099 1511.33 17.5156 1521.35 5.75261C1521.35 5.75229 1521.35 5.75198 1521.35 5.75166L1525.41 1ZM1630.47 113.402H1631.47V112.402V29.7272V28.7272H1630.47H1538.8H1538.26L1537.97 29.1721C1533.53 35.8248 1526.37 47.0723 1523.89 61.5175C1521.4 76.0075 1523.61 93.6333 1537.74 112.991L1538.04 113.402H1538.55H1630.47Z" stroke="#B99C7E" stroke-width="2"/>
<path d="M606.945 252V1H738.106C779.979 65.9511 780.294 128.729 770.117 175.327C765.016 198.687 757.278 217.977 750.816 231.426C747.586 238.149 744.675 243.41 742.575 246.986C741.525 248.774 740.677 250.141 740.094 251.059C739.84 251.459 739.636 251.773 739.487 252H606.945ZM719.124 224.018L719.418 223.548L718.57 223.018C719.418 223.548 719.419 223.547 719.419 223.546L719.422 223.542L719.431 223.528L719.465 223.472C719.476 223.454 719.488 223.434 719.503 223.411C719.528 223.369 719.56 223.317 719.597 223.256C719.712 223.066 719.88 222.785 720.096 222.416C720.529 221.677 721.153 220.584 721.924 219.161C723.465 216.315 725.595 212.146 727.957 206.845C732.68 196.243 738.334 181.098 742.063 162.919C749.52 126.556 749.275 78.014 718.417 29.4461L718.122 28.9823H717.573H635.38H634.38V29.9823V223.018V224.018H635.38H718.57H719.124Z" stroke="#B99C7E" stroke-width="2"/>
</svg>
