<svg width="1670" height="254" viewBox="0 0 1670 254" fill="none" xmlns="http://www.w3.org/2000/svg">
<g clip-path="url(#clip0_686_10275)">
<path d="M56.8646 0.896484L0.195312 252.719H30.0937L48.7332 169.846H144.558L162.072 252.719H191.845L138.679 0.896484H56.8646ZM55.4885 140.001L80.0077 30.7412H115.035L138.178 140.001H55.4885Z" fill="#B99C7E"/>
<path d="M451.172 0.896484L394.503 252.719H424.401L443.041 169.846H538.866L556.379 252.719H586.278L532.986 0.896484H451.172ZM449.796 140.001L474.44 30.7412H509.468L532.611 140.001H449.796Z" fill="#B99C7E"/>
<path d="M842.729 141.794H941.931V111.821H842.729V30.7412H960.821V0.896484H813.581V252.719H965.45V222.874H842.729V141.794Z" fill="#B99C7E"/>
<path d="M1122.7 217.879L1032.13 1.28125H1000.35V252.207H1029.5V70.7054L1105.56 252.719H1140.09L1213.89 72.2424V252.719H1243.04V1.28125H1211.27L1122.7 217.879Z" fill="#B99C7E"/>
<path d="M1314.6 214.933V0.896484H1285.45V252.591H1328.23L1439.82 29.9726V252.463H1468.97V1.15266H1423.06L1314.6 214.933Z" fill="#B99C7E"/>
<path d="M347.592 1.15234L277.663 112.077H243.886V1.15234H214.613V252.847H243.886V141.922H278.163L343.214 252.591H379.867L303.683 127.448L380.618 1.15234H347.592Z" fill="#B99C7E"/>
<path d="M1535.02 0.255859L1530.64 5.37941C1510.38 29.2039 1484.35 82.745 1530.52 137.823L1534.89 142.947H1560.54L1501.37 252.591H1531.52L1594.19 142.947H1640.73V252.591H1669.87V0.255859H1535.02ZM1640.85 113.102H1548.66C1520.63 74.6754 1540.02 43.4218 1548.91 30.1005H1640.85V113.102Z" fill="#B99C7E"/>
<path d="M610.172 0V254H744.652C744.652 254 828.217 131.291 743.276 0H610.172ZM723.135 223.899H639.695V30.1009H722.134C783.682 127.064 723.135 223.899 723.135 223.899Z" fill="#B99C7E"/>
</g>
<defs>
<clipPath id="clip0_686_10275">
<rect width="1670" height="254" fill="white"/>
</clipPath>
</defs>
</svg>
