<svg width="204" height="73" viewBox="0 0 204 73" fill="none" xmlns="http://www.w3.org/2000/svg">
<path fill-rule="evenodd" clip-rule="evenodd" d="M102 2.02786C81.9092 2.02786 62.2633 8.09495 45.5158 19.4719C28.7682 30.8489 15.661 47.0318 7.83201 66L6 65.2131C13.9801 45.8789 27.3407 29.3823 44.414 17.784C61.4874 6.18572 81.5165 0 102 0C122.483 0 142.513 6.18572 159.586 17.784C176.659 29.3823 190.02 45.8789 198 65.2131L196.168 66C188.339 47.0318 175.232 30.8489 158.484 19.4719C141.737 8.09495 122.091 2.02786 102 2.02786Z" fill="url(#paint0_linear_134_3)"/>
<path d="M7 73C10.866 73 14 69.866 14 66C14 62.134 10.866 59 7 59C3.13401 59 0 62.134 0 66C0 69.866 3.13401 73 7 73Z" fill="#43D4F1"/>
<path d="M197 73C200.866 73 204 69.866 204 66C204 62.134 200.866 59 197 59C193.134 59 190 62.134 190 66C190 69.866 193.134 73 197 73Z" fill="#E1448F"/>
<defs>
<linearGradient id="paint0_linear_134_3" x1="203.944" y1="36.5184" x2="0.0669576" y2="36.5184" gradientUnits="userSpaceOnUse">
<stop stop-color="#E11476"/>
<stop offset="0.01" stop-color="#DE1577"/>
<stop offset="0.53993" stop-color="#7170B5"/>
<stop offset="1" stop-color="#09C7EF"/>
</linearGradient>
</defs>
</svg>
