<svg width="17" height="18" viewBox="0 0 17 18" fill="none" xmlns="http://www.w3.org/2000/svg">
<path d="M16.3884 8.02576C16.5744 8.12649 16.7288 8.27104 16.8362 8.44493C16.9435 8.61881 17 8.81595 17 9.0166C17 9.21725 16.9435 9.41439 16.8362 9.58828C16.7288 9.76216 16.5744 9.90672 16.3884 10.0074L9.11882 13.9294L1.83822 17.8411C1.64906 17.9458 1.43301 18.0007 1.21306 18C0.993111 17.9993 0.777454 17.9431 0.589047 17.8372C0.400641 17.7313 0.246519 17.5798 0.143053 17.3988C0.0395872 17.2177 -0.00932973 17.0139 0.00146825 16.809V1.18292C-0.0056538 0.97921 0.0455991 0.777464 0.149975 0.598399C0.254352 0.419333 0.408055 0.269479 0.595227 0.164304C0.782398 0.0591287 0.996254 0.00243846 1.21475 7.69831e-05C1.43324 -0.00228449 1.64849 0.0497214 1.83822 0.150823L9.11882 4.07286L16.3884 8.02576Z" fill="url(#paint0_linear_14_1123)"/>
<defs>
<linearGradient id="paint0_linear_14_1123" x1="-19.1074" y1="8.84115" x2="29.1564" y2="9.33935" gradientUnits="userSpaceOnUse">
<stop stop-color="#00C9F1"/>
<stop offset="1" stop-color="#E41476"/>
</linearGradient>
</defs>
</svg>
