<svg width="180" height="180" viewBox="0 0 180 180" fill="none" xmlns="http://www.w3.org/2000/svg">
<g clip-path="url(#clip0_31_2)">
<path d="M0 8C0 3.58172 3.58172 0 8 0H172C176.418 0 180 3.58172 180 8V172C180 176.418 176.418 180 172 180H8C3.58172 180 0 176.418 0 172V8Z" fill="white"/>
<path d="M66.3718 27H43.6282C40.5198 27 38 29.6096 38 32.8286V146.171C38 149.39 40.5198 152 43.6282 152H66.3718C69.4802 152 72 149.39 72 146.171V32.8286C72 29.6096 69.4802 27 66.3718 27Z" fill="url(#paint0_linear_31_2)"/>
<path d="M136.163 152H109.104C108.062 151.997 107.039 151.732 106.14 151.234C105.241 150.735 104.497 150.02 103.984 149.161L99.7574 142.058C99.2608 141.221 99 140.278 99 139.319C99 138.36 99.2608 137.417 99.7574 136.581L113.243 113.857C113.749 112.992 114.491 112.27 115.391 111.768C116.291 111.265 117.317 111 118.362 111C119.407 111 120.433 111.265 121.334 111.768C122.234 112.27 122.976 112.992 123.482 113.857L141.238 143.685C141.742 144.529 142.005 145.483 142 146.453C141.995 147.423 141.723 148.375 141.21 149.215C140.698 150.055 139.962 150.754 139.077 151.242C138.192 151.73 137.187 151.992 136.163 152Z" fill="url(#paint1_linear_31_2)"/>
<path d="M86.9443 55.0002H127.04C128.081 54.9911 129.106 55.2506 130.012 55.7526C130.917 56.2545 131.671 56.981 132.195 57.8583C132.72 58.7357 132.998 59.7328 133 60.7485C133.002 61.7643 132.729 62.7625 132.208 63.6422L92.1205 133.037C89.1226 138.237 81.0001 136.155 81.0001 130.192V60.7975C80.9952 60.0349 81.1456 59.2789 81.4426 58.5733C81.7396 57.8678 82.1772 57.2268 82.7302 56.6876C83.2831 56.1483 83.9404 55.7214 84.6638 55.4318C85.3872 55.1421 86.1623 54.9955 86.9443 55.0002Z" fill="url(#paint2_linear_31_2)"/>
</g>
<defs>
<linearGradient id="paint0_linear_31_2" x1="55.0035" y1="24.0821" x2="55.0035" y2="148.228" gradientUnits="userSpaceOnUse">
<stop stop-color="#E41476"/>
<stop offset="1" stop-color="#00C9F1"/>
</linearGradient>
<linearGradient id="paint1_linear_31_2" x1="120.527" y1="44.8006" x2="120.527" y2="148.836" gradientUnits="userSpaceOnUse">
<stop stop-color="#E41476"/>
<stop offset="1" stop-color="#00C9F1"/>
</linearGradient>
<linearGradient id="paint2_linear_31_2" x1="106.992" y1="30.0826" x2="106.992" y2="132.871" gradientUnits="userSpaceOnUse">
<stop stop-color="#E41476"/>
<stop offset="1" stop-color="#00C9F1"/>
</linearGradient>
<clipPath id="clip0_31_2">
<rect width="180" height="180" fill="white"/>
</clipPath>
</defs>
</svg>
