<svg width="200" height="55" viewBox="0 0 200 55" fill="none" xmlns="http://www.w3.org/2000/svg">
<path d="M12.2388 0H2.42786C1.08699 0 0 1.1482 0 2.56459V52.4354C0 53.8518 1.08699 55 2.42786 55H12.2388C13.5797 55 14.6667 53.8518 14.6667 52.4354V2.56459C14.6667 1.1482 13.5797 0 12.2388 0Z" fill="url(#paint0_linear_1_5)"/>
<path d="M42.7997 54.9992H31.0531C30.6007 54.9978 30.1568 54.8767 29.7665 54.6483C29.3762 54.4199 29.0533 54.0924 28.8308 53.6989L26.9958 50.445C26.7802 50.062 26.667 49.6301 26.667 49.1907C26.667 48.7513 26.7802 48.3194 26.9958 47.9364L32.85 37.5276C33.0697 37.1311 33.3916 36.8005 33.7824 36.5703C34.1733 36.3402 34.6187 36.2188 35.0724 36.2188C35.526 36.2188 35.9714 36.3402 36.3623 36.5703C36.7531 36.8005 37.075 37.1311 37.2947 37.5276L45.003 51.1903C45.2218 51.5771 45.3358 52.0143 45.3336 52.4586C45.3315 52.9029 45.2133 53.3389 44.9908 53.7236C44.7683 54.1083 44.4491 54.4284 44.0648 54.6521C43.6805 54.8758 43.2445 54.9955 42.7997 54.9992Z" fill="url(#paint1_linear_1_5)"/>
<path d="M21.2581 12.0743H38.7355C39.1895 12.0702 39.6365 12.1863 40.0311 12.4107C40.4258 12.6352 40.7542 12.96 40.9829 13.3523C41.2116 13.7447 41.3326 14.1905 41.3337 14.6447C41.3347 15.0989 41.2156 15.5453 40.9886 15.9386L23.5144 46.9688C22.2076 49.2938 18.667 48.3631 18.667 45.6968V14.6666C18.6649 14.3256 18.7305 13.9875 18.8599 13.6721C18.9894 13.3566 19.1801 13.07 19.4212 12.8288C19.6622 12.5877 19.9487 12.3968 20.264 12.2673C20.5793 12.1378 20.9172 12.0722 21.2581 12.0743Z" fill="url(#paint2_linear_1_5)"/>
<path d="M67.0814 54.9829H61.6668C61.4961 55.0137 61.3207 55.0022 61.1554 54.9493C60.9901 54.8964 60.8397 54.8037 60.7172 54.679C60.5947 54.5544 60.5035 54.4015 60.4515 54.2334C60.3995 54.0652 60.3881 53.8868 60.4184 53.7133V30.6919C60.3881 30.5183 60.3995 30.3399 60.4515 30.1718C60.5035 30.0036 60.5947 29.8508 60.7172 29.7261C60.8397 29.6015 60.9901 29.5088 61.1554 29.4559C61.3207 29.403 61.4961 29.3914 61.6668 29.4223H67.0814C67.252 29.3914 67.4274 29.403 67.5927 29.4559C67.7581 29.5088 67.9084 29.6015 68.0309 29.7261C68.1535 29.8508 68.2446 30.0036 68.2966 30.1718C68.3486 30.3399 68.36 30.5183 68.3297 30.6919V38.8492H69.7278L73.3261 30.5713C73.4439 30.2028 73.6774 29.8838 73.9908 29.6635C74.3199 29.4726 74.6953 29.3802 75.0737 29.3969H80.454C80.6021 29.3782 80.7525 29.3958 80.8926 29.4483C81.0326 29.5008 81.1583 29.5865 81.2592 29.6984C81.3277 29.8348 81.3602 29.9869 81.3537 30.1399C81.3471 30.2928 81.3016 30.4415 81.2217 30.5713L77.6671 38.8492C78.2531 38.8592 78.8311 38.9885 79.3671 39.2295C79.9031 39.4705 80.3862 39.8182 80.7879 40.2521C81.5681 41.1197 81.9593 42.2634 81.9614 43.6833V53.7038C81.9909 53.8772 81.979 54.0553 81.9268 54.2231C81.8745 54.3909 81.7833 54.5434 81.661 54.6679C81.5386 54.7923 81.3886 54.885 81.2236 54.9382C81.0587 54.9914 80.8835 55.0034 80.713 54.9734H75.339C75.1684 55.0042 74.9929 54.9927 74.8276 54.9398C74.6623 54.8868 74.512 54.7942 74.3895 54.6695C74.2669 54.5449 74.1758 54.392 74.1237 54.2239C74.0717 54.0557 74.0604 53.8773 74.0907 53.7038V46.7748C74.1089 46.4539 74.01 46.1374 73.8129 45.8861C73.7038 45.7746 73.5723 45.6886 73.4274 45.6338C73.2825 45.579 73.1276 45.5568 72.9734 45.5687H68.339V53.7038C68.3693 53.8773 68.358 54.0557 68.306 54.2239C68.254 54.392 68.1628 54.5449 68.0403 54.6695C67.9177 54.7942 67.7674 54.8868 67.6021 54.9398C67.4368 54.9927 67.2614 55.0042 67.0907 54.9734L67.0814 54.9829Z" fill="#101B37"/>
<path d="M103.944 54.9828H87.7312C87.5606 55.0136 87.3851 55.0021 87.2198 54.9492C87.0545 54.8963 86.9042 54.8035 86.7817 54.6789C86.6591 54.5543 86.568 54.4014 86.5159 54.2333C86.4639 54.0651 86.4526 53.8867 86.4829 53.7132V30.6918C86.4526 30.5182 86.4639 30.3398 86.5159 30.1717C86.568 30.0035 86.6591 29.8506 86.7817 29.726C86.9042 29.6014 87.0545 29.5087 87.2198 29.4558C87.3851 29.4029 87.5606 29.3913 87.7312 29.4221H103.944C104.114 29.3913 104.29 29.4029 104.455 29.4558C104.62 29.5087 104.771 29.6014 104.893 29.726C105.016 29.8506 105.107 30.0035 105.159 30.1717C105.211 30.3398 105.222 30.5182 105.192 30.6918V34.8498C105.222 35.0233 105.211 35.2017 105.159 35.3699C105.107 35.538 105.016 35.6909 104.893 35.8155C104.771 35.9402 104.62 36.0329 104.455 36.0858C104.29 36.1387 104.114 36.1502 103.944 36.1194H94.3005V38.8554H101.113C101.284 38.8246 101.459 38.8361 101.625 38.889C101.79 38.9419 101.94 39.0347 102.063 39.1593C102.185 39.2839 102.276 39.4368 102.328 39.605C102.381 39.7731 102.392 39.9515 102.362 40.125V43.9339C102.392 44.1074 102.381 44.2859 102.328 44.454C102.276 44.6221 102.185 44.775 102.063 44.8997C101.94 45.0243 101.79 45.117 101.625 45.1699C101.459 45.2228 101.284 45.2343 101.113 45.2035H94.3005V48.2601H103.944C104.114 48.2293 104.29 48.2409 104.455 48.2938C104.62 48.3467 104.771 48.4394 104.893 48.564C105.016 48.6887 105.107 48.8415 105.159 49.0097C105.211 49.1778 105.222 49.3562 105.192 49.5298V53.6878C105.222 53.8613 105.211 54.0397 105.159 54.2079C105.107 54.376 105.016 54.5289 104.893 54.6535C104.771 54.7782 104.62 54.8709 104.455 54.9238C104.29 54.9767 104.114 54.9882 103.944 54.9574V54.9828Z" fill="#101B37"/>
<path d="M115.997 54.9828H110.582C110.41 54.9996 110.237 54.9816 110.072 54.9298C109.907 54.878 109.754 54.7936 109.621 54.6813C109.394 54.4102 109.282 54.0587 109.309 53.7036V30.6918C109.279 30.5182 109.29 30.3398 109.342 30.1717C109.394 30.0035 109.485 29.8506 109.608 29.726C109.73 29.6014 109.881 29.5087 110.046 29.4558C110.211 29.4029 110.387 29.3913 110.557 29.4221H121.249C124.416 29.4221 126.582 30.0622 127.747 31.3424C128.912 32.6226 129.494 34.2922 129.494 36.3511V40.8995C129.494 42.9626 128.912 44.6333 127.747 45.9114C126.582 47.1894 124.416 47.8242 121.249 47.8158H117.255V53.7036C117.286 54.0565 117.18 54.4078 116.958 54.6813C116.825 54.7936 116.672 54.878 116.507 54.9298C116.342 54.9816 116.169 54.9996 115.997 54.9828ZM117.186 36.0432V41.4074H120.332C121.006 41.4074 121.449 41.2296 121.658 40.8741C121.869 40.509 121.977 40.0916 121.97 39.668V37.7826C121.977 37.359 121.869 36.9417 121.658 36.5764C121.449 36.221 121.006 36.0432 120.332 36.0432H117.186Z" fill="#101B37"/>
<path d="M139.826 54.9821H134.408C134.238 55.0121 134.063 55 133.898 54.9469C133.733 54.8937 133.583 54.801 133.46 54.6765C133.338 54.5521 133.247 54.3995 133.194 54.2317C133.142 54.064 133.13 53.8859 133.16 53.7124V30.691C133.13 30.5176 133.142 30.3395 133.194 30.1717C133.247 30.0039 133.338 29.8514 133.46 29.7269C133.583 29.6025 133.733 29.5098 133.898 29.4566C134.063 29.4034 134.238 29.3914 134.408 29.4214H145.1C148.271 29.4214 150.438 30.0615 151.601 31.3417C152.764 32.6219 153.346 34.2915 153.348 36.3504V40.8988C153.348 42.9619 152.766 44.6325 151.601 45.9106C150.436 47.1887 148.269 47.8235 145.1 47.815H141.084V53.7029C141.114 53.8765 141.103 54.0549 141.051 54.223C140.999 54.3912 140.907 54.544 140.785 54.6687C140.662 54.7933 140.512 54.886 140.347 54.9389C140.181 54.9918 140.006 55.0033 139.835 54.9725L139.826 54.9821ZM141.015 36.0425V41.4066H144.158C144.835 41.4066 145.275 41.2289 145.487 40.8734C145.698 40.5083 145.806 40.0909 145.799 39.6673V37.7819C145.806 37.3583 145.698 36.9409 145.487 36.5757C145.275 36.2202 144.835 36.0425 144.158 36.0425H141.015Z" fill="#101B37"/>
<path d="M176.026 54.9828H158.237C158.066 55.0136 157.891 55.0021 157.726 54.9492C157.56 54.8963 157.41 54.8035 157.288 54.6789C157.165 54.5543 157.074 54.4014 157.022 54.2333C156.97 54.0651 156.958 53.8867 156.989 53.7132V30.6918C156.958 30.5182 156.97 30.3398 157.022 30.1717C157.074 30.0035 157.165 29.8506 157.288 29.726C157.41 29.6014 157.56 29.5087 157.726 29.4558C157.891 29.4029 158.066 29.3913 158.237 29.4221H163.658C163.829 29.3913 164.004 29.4029 164.169 29.4558C164.335 29.5087 164.485 29.6014 164.607 29.726C164.73 29.8506 164.821 30.0035 164.873 30.1717C164.925 30.3398 164.937 30.5182 164.906 30.6918V48.2824H169.69V42.5088C169.661 42.3353 169.673 42.1572 169.725 41.9894C169.777 41.8217 169.868 41.6691 169.991 41.5447C170.113 41.4202 170.263 41.3275 170.428 41.2743C170.593 41.2212 170.768 41.2091 170.939 41.2391H176.004C176.174 41.2083 176.35 41.2199 176.515 41.2728C176.681 41.3257 176.831 41.4184 176.953 41.543C177.076 41.6676 177.167 41.8205 177.219 41.9886C177.271 42.1568 177.282 42.3352 177.252 42.5088V53.7036C177.282 53.8772 177.271 54.0556 177.219 54.2237C177.167 54.3919 177.076 54.5448 176.953 54.6694C176.831 54.794 176.681 54.8867 176.515 54.9396C176.35 54.9925 176.174 55.0041 176.004 54.9733L176.026 54.9828Z" fill="#101B37"/>
<path d="M198.735 54.9828H182.522C182.352 55.0129 182.177 55.0008 182.012 54.9476C181.847 54.8944 181.697 54.8017 181.575 54.6772C181.452 54.5528 181.361 54.4002 181.309 54.2325C181.256 54.0647 181.245 53.8866 181.274 53.7132V30.6918C181.245 30.5183 181.256 30.3402 181.309 30.1724C181.361 30.0047 181.452 29.8521 181.575 29.7277C181.697 29.6032 181.847 29.5105 182.012 29.4573C182.177 29.4041 182.352 29.3921 182.522 29.4221H198.735C198.906 29.3913 199.081 29.4029 199.246 29.4558C199.412 29.5087 199.562 29.6014 199.685 29.726C199.807 29.8506 199.898 30.0035 199.95 30.1717C200.002 30.3398 200.014 30.5182 199.983 30.6918V34.8498C200 35.0245 199.982 35.2009 199.931 35.3687C199.88 35.5365 199.797 35.6924 199.687 35.8274C199.42 36.0584 199.075 36.1725 198.726 36.1448H189.092V38.8808H195.904C196.075 38.85 196.251 38.8615 196.416 38.9144C196.581 38.9673 196.731 39.06 196.854 39.1847C196.977 39.3093 197.068 39.4622 197.12 39.6303C197.172 39.7985 197.183 39.9769 197.153 40.1504V43.9593C197.183 44.1328 197.172 44.3113 197.12 44.4794C197.068 44.6475 196.977 44.8004 196.854 44.9251C196.731 45.0497 196.581 45.1424 196.416 45.1953C196.251 45.2482 196.075 45.2597 195.904 45.2289H189.092V48.2855H198.735C198.906 48.2547 199.081 48.2663 199.246 48.3192C199.412 48.3721 199.562 48.4648 199.685 48.5894C199.807 48.714 199.898 48.8669 199.95 49.0351C200.002 49.2032 200.014 49.3816 199.983 49.5552V53.7132C200.014 53.8867 200.002 54.0651 199.95 54.2333C199.898 54.4014 199.807 54.5543 199.685 54.6789C199.562 54.8035 199.412 54.8963 199.246 54.9492C199.081 55.0021 198.906 55.0136 198.735 54.9828Z" fill="#101B37"/>
<defs>
<linearGradient id="paint0_linear_1_5" x1="22.6715" y1="-1.28389" x2="22.6715" y2="53.3402" gradientUnits="userSpaceOnUse">
<stop stop-color="#E41476"/>
<stop offset="1" stop-color="#00C9F1"/>
</linearGradient>
<linearGradient id="paint1_linear_1_5" x1="22.6954" y1="-88.8041" x2="22.6954" y2="50.7554" gradientUnits="userSpaceOnUse">
<stop stop-color="#E41476"/>
<stop offset="1" stop-color="#00C9F1"/>
</linearGradient>
<linearGradient id="paint2_linear_1_5" x1="29.9968" y1="0.932311" x2="29.9968" y2="46.8947" gradientUnits="userSpaceOnUse">
<stop stop-color="#E41476"/>
<stop offset="1" stop-color="#00C9F1"/>
</linearGradient>
</defs>
</svg>
