<svg width="150" height="60" viewBox="0 0 150 60" fill="none" xmlns="http://www.w3.org/2000/svg">
<g clip-path="url(#clip0_1494_7766)">
<path fill-rule="evenodd" clip-rule="evenodd" d="M0 57H16.6901V1H0V57Z" fill="#3575AA"/>
<path fill-rule="evenodd" clip-rule="evenodd" d="M37.9805 57H54.6705V1H37.9805V57Z" fill="#3575AA"/>
<path fill-rule="evenodd" clip-rule="evenodd" d="M30.0615 1.00073H19.3442V27.0537H30.0615C33.5372 27.0537 35.3249 23.7734 35.3249 20.7747V7.28497C35.3249 4.28178 33.5372 1.00073 30.0615 1.00073Z" fill="#3575AA"/>
<path fill-rule="evenodd" clip-rule="evenodd" d="M30.0615 30.2561H19.3442V57H30.0615C33.5372 57 35.3249 53.6341 35.3249 50.5522V36.7076C35.3249 33.6253 33.5372 30.2561 30.0615 30.2561Z" fill="#3575AA"/>
<path fill-rule="evenodd" clip-rule="evenodd" d="M67.1115 17.7084C68.8774 17.7084 70.1245 17.6289 70.8848 17.1121C71.6438 16.5962 72.1065 15.7007 72.1065 14.6421C72.1065 13.4204 71.5897 12.4717 70.6122 11.9561C69.8791 11.5754 69.011 11.5225 68.0611 11.5225H66.0279V17.7084H67.1115ZM67.2205 9.13286C70.0704 9.13286 71.3462 8.48115 71.3462 6.44685C71.3462 4.03175 70.0151 3.57105 67.2205 3.57105H66.0279V9.13286H67.2205ZM62.9321 0.938354H67.8176C69.8791 0.938354 71.4261 1.02075 72.6212 1.91455C73.8154 2.78295 74.5203 4.27685 74.5203 6.01245C74.5203 8.07585 73.5433 9.51315 71.7245 10.057C73.9777 10.409 75.3621 12.227 75.3621 14.8339C75.3621 16.4331 74.765 17.8986 73.7871 18.8756C72.4032 20.2604 70.5594 20.3407 67.8455 20.3407H62.9321V0.938354Z" fill="#3575AA"/>
<path fill-rule="evenodd" clip-rule="evenodd" d="M78.5708 0.938354H89.3988V3.62515H81.7187V8.48115H89.3988V11.25H81.7187V17.5187H89.3988V20.3407H78.5708V0.938354Z" fill="#3575AA"/>
<path fill-rule="evenodd" clip-rule="evenodd" d="M94.419 15.2924C94.88 17.0305 96.1828 17.9538 98.1643 17.9538C100.065 17.9538 101.23 16.8145 101.23 15.0773C101.23 13.1761 99.7926 12.7159 97.7857 11.7384C94.3378 10.0569 92.4387 8.75285 92.4387 5.82385C92.4387 2.70215 94.7439 0.503052 98.2729 0.503052C101.149 0.503052 103.131 1.67105 103.864 3.70545L101.393 4.98165C100.633 3.78745 99.7401 3.21815 98.5176 3.21815C96.8074 3.21815 95.7497 4.19475 95.7497 5.65945C95.7497 7.53115 97.2697 8.10165 99.4393 9.10525C102.86 10.6799 104.461 12.0638 104.461 14.8597C104.461 18.4686 102.046 20.8566 98.0295 20.8566C94.7169 20.8566 92.5473 19.2821 91.8965 16.46L94.419 15.2924Z" fill="#3575AA"/>
<path fill-rule="evenodd" clip-rule="evenodd" d="M107.962 20.3407H111.11V0.938354H107.962V20.3407Z" fill="#3575AA"/>
<path fill-rule="evenodd" clip-rule="evenodd" d="M115.64 0.178589L127.96 12.0364C128.748 12.7983 129.427 13.5835 130.078 14.3986V0.938389H132.981V21.1005L120.417 9.02499C119.71 8.34719 119.088 7.61359 118.545 6.85339V20.3407H115.64V0.178589Z" fill="#3575AA"/>
<path fill-rule="evenodd" clip-rule="evenodd" d="M138.843 15.2924C139.304 17.0305 140.606 17.9538 142.588 17.9538C144.486 17.9538 145.654 16.8145 145.654 15.0773C145.654 13.1761 144.215 12.7159 142.209 11.7384C138.761 10.0569 136.862 8.75285 136.862 5.82385C136.862 2.70215 139.168 0.503052 142.698 0.503052C145.574 0.503052 147.555 1.67105 148.287 3.70545L145.818 4.98165C145.057 3.78745 144.161 3.21815 142.942 3.21815C141.231 3.21815 140.173 4.19475 140.173 5.65945C140.173 7.53115 141.694 8.10165 143.864 9.10525C147.284 10.6799 148.883 12.0638 148.883 14.8597C148.883 18.4686 146.469 20.8566 142.453 20.8566C139.143 20.8566 136.97 19.2821 136.319 16.46L138.843 15.2924Z" fill="#3575AA"/>
<path fill-rule="evenodd" clip-rule="evenodd" d="M69.9549 31.902V27.3312H71.2102V38.5977H69.9549V33.0676H64.1878V38.5977H62.9321V27.3312H64.1878V31.902H69.9549Z" fill="#3575AA"/>
<path fill-rule="evenodd" clip-rule="evenodd" d="M73.54 27.3312H79.3841V28.4968H74.7953V31.8434H79.2473V33.0085H74.7953V37.4314H79.3841V38.5977H73.54V27.3312Z" fill="#3575AA"/>
<path fill-rule="evenodd" clip-rule="evenodd" d="M85.6437 29.7211L83.7151 34.2337H87.524L85.6437 29.7211ZM83.2069 35.3984L81.8475 38.5975H80.4722L85.6724 26.7921L90.737 38.5975H89.3473L88.0183 35.3984H83.2069Z" fill="#3575AA"/>
<path fill-rule="evenodd" clip-rule="evenodd" d="M93.217 37.4314H96.3259V38.5977H91.9629V27.3312H93.217V37.4314Z" fill="#3575AA"/>
<path fill-rule="evenodd" clip-rule="evenodd" d="M99.3622 38.5977H98.1056V28.4968H95.3877V27.3312H102.11V28.4968H99.3622V38.5977Z" fill="#3575AA"/>
<path fill-rule="evenodd" clip-rule="evenodd" d="M110.477 31.902V27.3312H111.733V38.5977H110.477V33.0676H104.71V38.5977H103.455V27.3312H104.71V31.902H110.477Z" fill="#3575AA"/>
<path fill-rule="evenodd" clip-rule="evenodd" d="M122.655 29.7957C121.758 28.87 120.519 28.3007 119.217 28.3007C116.708 28.3007 114.675 30.4834 114.675 32.9625C114.675 35.4435 116.723 37.6242 119.248 37.6242C120.519 37.6242 121.758 37.0259 122.655 36.1308V37.6849C121.684 38.3861 120.487 38.7902 119.293 38.7902C116.11 38.7902 113.422 36.205 113.422 33.0084C113.422 29.7806 116.066 27.1368 119.293 27.1368C120.548 27.1368 121.654 27.4958 122.655 28.2425V29.7957Z" fill="#3575AA"/>
<path fill-rule="evenodd" clip-rule="evenodd" d="M128.899 29.7211L126.972 34.2337H130.783L128.899 29.7211ZM126.464 35.3984L125.106 38.5975H123.73L128.93 26.7921L133.994 38.5975H132.605L131.275 35.3984H126.464Z" fill="#3575AA"/>
<path fill-rule="evenodd" clip-rule="evenodd" d="M136.473 32.5458H136.863C138.282 32.5458 139.718 32.2778 139.718 30.5283C139.718 28.6742 138.357 28.4968 136.849 28.4968H136.473V32.5458ZM136.473 38.5977H135.22V27.3312H136.849C138.984 27.3312 140.971 27.8984 140.971 30.4377C140.971 32.1733 139.882 33.3971 138.148 33.5462L141.734 38.5977H140.196L136.788 33.6516H136.473V38.5977Z" fill="#3575AA"/>
<path fill-rule="evenodd" clip-rule="evenodd" d="M143.2 27.3151H149.042V28.4803H144.454V31.8269H148.906V32.9928H144.454V37.4148H149.042V38.5808H143.2V27.3151Z" fill="#3575AA"/>
<path fill-rule="evenodd" clip-rule="evenodd" d="M62.9321 44.3248H148.911V43.5216H62.9321V44.3248Z" fill="#3575AA"/>
<path d="M146.729 51.7073C147.189 51.7073 147.582 51.8073 147.909 52.0073C148.242 52.2073 148.496 52.4906 148.669 52.8573C148.849 53.2173 148.939 53.6406 148.939 54.1273V54.6573H145.269C145.282 55.2639 145.436 55.7273 145.729 56.0473C146.029 56.3606 146.446 56.5173 146.979 56.5173C147.319 56.5173 147.619 56.4873 147.879 56.4273C148.146 56.3606 148.419 56.2673 148.699 56.1473V56.9173C148.426 57.0373 148.156 57.1239 147.889 57.1773C147.622 57.2373 147.306 57.2673 146.939 57.2673C146.432 57.2673 145.982 57.1639 145.589 56.9573C145.202 56.7506 144.899 56.4439 144.679 56.0373C144.466 55.6239 144.359 55.1206 144.359 54.5273C144.359 53.9406 144.456 53.4373 144.649 53.0173C144.849 52.5973 145.126 52.2739 145.479 52.0473C145.839 51.8206 146.256 51.7073 146.729 51.7073ZM146.719 52.4273C146.299 52.4273 145.966 52.5639 145.719 52.8373C145.479 53.1039 145.336 53.4773 145.289 53.9573H148.019C148.019 53.6506 147.972 53.3839 147.879 53.1573C147.786 52.9306 147.642 52.7539 147.449 52.6273C147.262 52.4939 147.019 52.4273 146.719 52.4273Z" fill="#3575AA"/>
<path d="M143.931 52.4873H142.581V57.1673H141.701V52.4873H140.761V52.0773L141.701 51.7773V51.4673C141.701 51.0073 141.768 50.634 141.901 50.3473C142.041 50.0607 142.241 49.8507 142.501 49.7173C142.761 49.584 143.075 49.5173 143.441 49.5173C143.655 49.5173 143.848 49.5373 144.021 49.5773C144.201 49.6107 144.355 49.6507 144.481 49.6973L144.251 50.3873C144.145 50.354 144.021 50.3207 143.881 50.2873C143.741 50.254 143.598 50.2373 143.451 50.2373C143.158 50.2373 142.938 50.3373 142.791 50.5373C142.651 50.7307 142.581 51.0373 142.581 51.4573V51.8073H143.931V52.4873Z" fill="#3575AA"/>
<path d="M140.003 51.8074V57.1674H139.123V51.8074H140.003ZM139.573 49.7974C139.707 49.7974 139.823 49.844 139.923 49.9374C140.03 50.024 140.083 50.164 140.083 50.3574C140.083 50.544 140.03 50.684 139.923 50.7774C139.823 50.8707 139.707 50.9174 139.573 50.9174C139.427 50.9174 139.303 50.8707 139.203 50.7774C139.103 50.684 139.053 50.544 139.053 50.3574C139.053 50.164 139.103 50.024 139.203 49.9374C139.303 49.844 139.427 49.7974 139.573 49.7974Z" fill="#3575AA"/>
<path d="M137.765 57.1674H136.885V49.5674H137.765V57.1674Z" fill="#3575AA"/>
<path d="M133.151 51.7073C133.251 51.7073 133.358 51.7139 133.471 51.7273C133.591 51.7339 133.694 51.7473 133.781 51.7673L133.671 52.5773C133.584 52.5573 133.488 52.5406 133.381 52.5273C133.281 52.5139 133.184 52.5073 133.091 52.5073C132.884 52.5073 132.688 52.5506 132.501 52.6373C132.314 52.7239 132.148 52.8473 132.001 53.0073C131.854 53.1606 131.738 53.3473 131.651 53.5673C131.571 53.7873 131.531 54.0339 131.531 54.3073V57.1673H130.651V51.8073H131.371L131.471 52.7873H131.511C131.624 52.5873 131.761 52.4073 131.921 52.2473C132.081 52.0806 132.264 51.9506 132.471 51.8573C132.678 51.7573 132.904 51.7073 133.151 51.7073Z" fill="#3575AA"/>
<path d="M129.596 54.4773C129.596 54.9239 129.536 55.3206 129.416 55.6673C129.303 56.0073 129.136 56.2973 128.916 56.5373C128.703 56.7773 128.44 56.9606 128.126 57.0873C127.82 57.2073 127.476 57.2673 127.096 57.2673C126.743 57.2673 126.416 57.2073 126.116 57.0873C125.816 56.9606 125.556 56.7773 125.336 56.5373C125.116 56.2973 124.943 56.0073 124.816 55.6673C124.696 55.3206 124.636 54.9239 124.636 54.4773C124.636 53.8839 124.736 53.3839 124.936 52.9773C125.136 52.5639 125.423 52.2506 125.796 52.0373C126.17 51.8173 126.613 51.7073 127.126 51.7073C127.613 51.7073 128.04 51.8173 128.406 52.0373C128.78 52.2506 129.07 52.5639 129.276 52.9773C129.49 53.3839 129.596 53.8839 129.596 54.4773ZM125.546 54.4773C125.546 54.8973 125.6 55.2639 125.706 55.5773C125.82 55.8839 125.993 56.1206 126.226 56.2873C126.46 56.4539 126.756 56.5373 127.116 56.5373C127.476 56.5373 127.773 56.4539 128.006 56.2873C128.24 56.1206 128.41 55.8839 128.516 55.5773C128.63 55.2639 128.686 54.8973 128.686 54.4773C128.686 54.0506 128.63 53.6873 128.516 53.3873C128.403 53.0873 128.23 52.8573 127.996 52.6973C127.77 52.5306 127.473 52.4473 127.106 52.4473C126.56 52.4473 126.163 52.6273 125.916 52.9873C125.67 53.3473 125.546 53.8439 125.546 54.4773Z" fill="#3575AA"/>
<path d="M124.109 52.4873H122.759V57.1673H121.879V52.4873H120.939V52.0773L121.879 51.7773V51.4673C121.879 51.0073 121.946 50.634 122.079 50.3473C122.219 50.0607 122.419 49.8507 122.679 49.7173C122.939 49.584 123.252 49.5173 123.619 49.5173C123.832 49.5173 124.026 49.5373 124.199 49.5773C124.379 49.6107 124.532 49.6507 124.659 49.6973L124.429 50.3873C124.322 50.354 124.199 50.3207 124.059 50.2873C123.919 50.254 123.776 50.2373 123.629 50.2373C123.336 50.2373 123.116 50.3373 122.969 50.5373C122.829 50.7307 122.759 51.0373 122.759 51.4573V51.8073H124.109V52.4873Z" fill="#3575AA"/>
<path d="M113.718 51.7073C114.178 51.7073 114.571 51.8073 114.898 52.0073C115.231 52.2073 115.485 52.4906 115.658 52.8573C115.838 53.2173 115.928 53.6406 115.928 54.1273V54.6573H112.258C112.271 55.2639 112.425 55.7273 112.718 56.0473C113.018 56.3606 113.435 56.5173 113.968 56.5173C114.308 56.5173 114.608 56.4873 114.868 56.4273C115.135 56.3606 115.408 56.2673 115.688 56.1473V56.9173C115.415 57.0373 115.145 57.1239 114.878 57.1773C114.611 57.2373 114.295 57.2673 113.928 57.2673C113.421 57.2673 112.971 57.1639 112.578 56.9573C112.191 56.7506 111.888 56.4439 111.668 56.0373C111.455 55.6239 111.348 55.1206 111.348 54.5273C111.348 53.9406 111.445 53.4373 111.638 53.0173C111.838 52.5973 112.115 52.2739 112.468 52.0473C112.828 51.8206 113.245 51.7073 113.718 51.7073ZM113.708 52.4273C113.288 52.4273 112.955 52.5639 112.708 52.8373C112.468 53.1039 112.325 53.4773 112.278 53.9573H115.008C115.008 53.6506 114.961 53.3839 114.868 53.1573C114.775 52.9306 114.631 52.7539 114.438 52.6273C114.251 52.4939 114.008 52.4273 113.708 52.4273Z" fill="#3575AA"/>
<path d="M107.536 57.2674C106.869 57.2674 106.336 57.0374 105.936 56.5774C105.536 56.1107 105.336 55.4174 105.336 54.4974C105.336 53.5774 105.536 52.884 105.936 52.4174C106.342 51.9441 106.879 51.7074 107.546 51.7074C107.826 51.7074 108.069 51.744 108.276 51.8174C108.482 51.884 108.662 51.9774 108.816 52.0974C108.969 52.2174 109.099 52.3507 109.206 52.4974H109.266C109.259 52.4107 109.246 52.284 109.226 52.1174C109.212 51.944 109.206 51.8074 109.206 51.7074V49.5674H110.086V57.1674H109.376L109.246 56.4474H109.206C109.099 56.6007 108.969 56.7407 108.816 56.8674C108.662 56.9874 108.479 57.084 108.266 57.1574C108.059 57.2307 107.816 57.2674 107.536 57.2674ZM107.676 56.5374C108.242 56.5374 108.639 56.384 108.866 56.0774C109.099 55.764 109.216 55.294 109.216 54.6674V54.5074C109.216 53.8407 109.106 53.3307 108.886 52.9774C108.666 52.6174 108.259 52.4374 107.666 52.4374C107.192 52.4374 106.836 52.6274 106.596 53.0074C106.362 53.3807 106.246 53.884 106.246 54.5174C106.246 55.1574 106.362 55.654 106.596 56.0074C106.836 56.3607 107.196 56.5374 107.676 56.5374Z" fill="#3575AA"/>
<path d="M104.278 51.8074V57.1674H103.398V51.8074H104.278ZM103.848 49.7974C103.981 49.7974 104.098 49.844 104.198 49.9374C104.304 50.024 104.358 50.164 104.358 50.3574C104.358 50.544 104.304 50.684 104.198 50.7774C104.098 50.8707 103.981 50.9174 103.848 50.9174C103.701 50.9174 103.578 50.8707 103.478 50.7774C103.378 50.684 103.328 50.544 103.328 50.3574C103.328 50.164 103.378 50.024 103.478 49.9374C103.578 49.844 103.701 49.7974 103.848 49.7974Z" fill="#3575AA"/>
<path d="M102.342 55.6873C102.342 56.0339 102.256 56.3239 102.082 56.5573C101.909 56.7906 101.662 56.9673 101.342 57.0873C101.022 57.2073 100.642 57.2673 100.202 57.2673C99.8291 57.2673 99.5058 57.2373 99.2325 57.1773C98.9658 57.1173 98.7291 57.0339 98.5225 56.9273V56.1273C98.7358 56.2339 98.9925 56.3339 99.2925 56.4273C99.5991 56.5139 99.9091 56.5573 100.222 56.5573C100.669 56.5573 100.992 56.4873 101.192 56.3473C101.392 56.2006 101.492 56.0073 101.492 55.7673C101.492 55.6339 101.456 55.5139 101.382 55.4073C101.309 55.3006 101.176 55.1939 100.982 55.0873C100.796 54.9806 100.526 54.8606 100.172 54.7273C99.8258 54.5939 99.5291 54.4606 99.2825 54.3273C99.0358 54.1939 98.8458 54.0339 98.7125 53.8473C98.5791 53.6606 98.5125 53.4206 98.5125 53.1273C98.5125 52.6739 98.6958 52.3239 99.0625 52.0773C99.4358 51.8306 99.9225 51.7073 100.522 51.7073C100.849 51.7073 101.152 51.7406 101.432 51.8073C101.719 51.8673 101.986 51.9539 102.232 52.0673L101.932 52.7673C101.786 52.7006 101.629 52.6439 101.462 52.5973C101.302 52.5439 101.139 52.5039 100.972 52.4773C100.806 52.4439 100.636 52.4273 100.462 52.4273C100.102 52.4273 99.8258 52.4873 99.6325 52.6073C99.4458 52.7206 99.3525 52.8773 99.3525 53.0773C99.3525 53.2239 99.3958 53.3506 99.4825 53.4573C99.5691 53.5573 99.7125 53.6573 99.9125 53.7573C100.119 53.8506 100.392 53.9639 100.732 54.0973C101.072 54.2239 101.362 54.3539 101.602 54.4873C101.842 54.6206 102.026 54.7839 102.152 54.9773C102.279 55.1639 102.342 55.4006 102.342 55.6873Z" fill="#3575AA"/>
<path d="M95.0183 51.7073C95.1183 51.7073 95.225 51.7139 95.3383 51.7273C95.4583 51.7339 95.5616 51.7473 95.6483 51.7673L95.5383 52.5773C95.4516 52.5573 95.355 52.5406 95.2483 52.5273C95.1483 52.5139 95.0516 52.5073 94.9583 52.5073C94.7516 52.5073 94.555 52.5506 94.3683 52.6373C94.1816 52.7239 94.015 52.8473 93.8683 53.0073C93.7216 53.1606 93.605 53.3473 93.5183 53.5673C93.4383 53.7873 93.3983 54.0339 93.3983 54.3073V57.1673H92.5183V51.8073H93.2383L93.3383 52.7873H93.3783C93.4916 52.5873 93.6283 52.4073 93.7883 52.2473C93.9483 52.0806 94.1316 51.9506 94.3383 51.8573C94.545 51.7573 94.7716 51.7073 95.0183 51.7073Z" fill="#3575AA"/>
<path d="M91.2168 51.8074V57.1674H90.4968L90.3668 56.4574H90.3268C90.2134 56.644 90.0668 56.7974 89.8868 56.9174C89.7068 57.0374 89.5101 57.124 89.2968 57.1774C89.0834 57.2374 88.8601 57.2674 88.6268 57.2674C88.2001 57.2674 87.8401 57.2007 87.5468 57.0674C87.2601 56.9274 87.0434 56.714 86.8968 56.4274C86.7501 56.1407 86.6768 55.7707 86.6768 55.3174V51.8074H87.5668V55.2574C87.5668 55.684 87.6634 56.004 87.8568 56.2174C88.0501 56.4307 88.3501 56.5374 88.7568 56.5374C89.1568 56.5374 89.4701 56.464 89.6968 56.3174C89.9301 56.164 90.0934 55.944 90.1868 55.6574C90.2868 55.364 90.3368 55.0107 90.3368 54.5974V51.8074H91.2168Z" fill="#3575AA"/>
<path d="M85.5821 54.4773C85.5821 54.9239 85.5221 55.3206 85.4021 55.6673C85.2887 56.0073 85.1221 56.2973 84.9021 56.5373C84.6887 56.7773 84.4254 56.9606 84.1121 57.0873C83.8054 57.2073 83.4621 57.2673 83.0821 57.2673C82.7287 57.2673 82.4021 57.2073 82.1021 57.0873C81.8021 56.9606 81.5421 56.7773 81.3221 56.5373C81.1021 56.2973 80.9287 56.0073 80.8021 55.6673C80.6821 55.3206 80.6221 54.9239 80.6221 54.4773C80.6221 53.8839 80.7221 53.3839 80.9221 52.9773C81.1221 52.5639 81.4087 52.2506 81.7821 52.0373C82.1554 51.8173 82.5987 51.7073 83.1121 51.7073C83.5987 51.7073 84.0254 51.8173 84.3921 52.0373C84.7654 52.2506 85.0554 52.5639 85.2621 52.9773C85.4754 53.3839 85.5821 53.8839 85.5821 54.4773ZM81.5321 54.4773C81.5321 54.8973 81.5854 55.2639 81.6921 55.5773C81.8054 55.8839 81.9787 56.1206 82.2121 56.2873C82.4454 56.4539 82.7421 56.5373 83.1021 56.5373C83.4621 56.5373 83.7587 56.4539 83.9921 56.2873C84.2254 56.1206 84.3954 55.8839 84.5021 55.5773C84.6154 55.2639 84.6721 54.8973 84.6721 54.4773C84.6721 54.0506 84.6154 53.6873 84.5021 53.3873C84.3887 53.0873 84.2154 52.8573 83.9821 52.6973C83.7554 52.5306 83.4587 52.4473 83.0921 52.4473C82.5454 52.4473 82.1487 52.6273 81.9021 52.9873C81.6554 53.3473 81.5321 53.8439 81.5321 54.4773Z" fill="#3575AA"/>
<path d="M75.2244 51.8074H76.1644L77.3244 54.8574C77.391 55.0374 77.451 55.2107 77.5044 55.3774C77.5644 55.544 77.6177 55.7074 77.6644 55.8674C77.711 56.0207 77.7477 56.1707 77.7744 56.3174H77.8144C77.8544 56.1507 77.9177 55.934 78.0044 55.6674C78.091 55.394 78.181 55.1207 78.2744 54.8474L79.3644 51.8074H80.3144L78.0044 57.9074C77.8777 58.2407 77.7277 58.5307 77.5544 58.7774C77.3877 59.0307 77.181 59.224 76.9344 59.3574C76.6944 59.4974 76.401 59.5674 76.0544 59.5674C75.8944 59.5674 75.7544 59.5574 75.6344 59.5374C75.5144 59.524 75.411 59.5074 75.3244 59.4874V58.7874C75.3977 58.8007 75.4844 58.814 75.5844 58.8274C75.691 58.8407 75.801 58.8474 75.9144 58.8474C76.121 58.8474 76.2977 58.8074 76.4444 58.7274C76.5977 58.654 76.7277 58.544 76.8344 58.3974C76.941 58.2574 77.031 58.0907 77.1044 57.8974L77.3844 57.1874L75.2244 51.8074Z" fill="#3575AA"/>
<path d="M68.0234 51.8074H68.9634L70.1234 54.8574C70.1901 55.0374 70.2501 55.2107 70.3034 55.3774C70.3634 55.544 70.4168 55.7074 70.4634 55.8674C70.5101 56.0207 70.5468 56.1707 70.5734 56.3174H70.6134C70.6534 56.1507 70.7168 55.934 70.8034 55.6674C70.8901 55.394 70.9801 55.1207 71.0734 54.8474L72.1634 51.8074H73.1134L70.8034 57.9074C70.6768 58.2407 70.5268 58.5307 70.3534 58.7774C70.1868 59.0307 69.9801 59.224 69.7334 59.3574C69.4934 59.4974 69.2001 59.5674 68.8534 59.5674C68.6934 59.5674 68.5534 59.5574 68.4334 59.5374C68.3134 59.524 68.2101 59.5074 68.1234 59.4874V58.7874C68.1968 58.8007 68.2834 58.814 68.3834 58.8274C68.4901 58.8407 68.6001 58.8474 68.7134 58.8474C68.9201 58.8474 69.0968 58.8074 69.2434 58.7274C69.3968 58.654 69.5268 58.544 69.6334 58.3974C69.7401 58.2574 69.8301 58.0907 69.9034 57.8974L70.1834 57.1874L68.0234 51.8074Z" fill="#3575AA"/>
<path d="M64.8596 50.0273C65.4529 50.0273 65.9496 50.084 66.3496 50.1973C66.7562 50.3107 67.0596 50.4973 67.2596 50.7573C67.4662 51.0173 67.5696 51.364 67.5696 51.7973C67.5696 52.0773 67.5162 52.3273 67.4096 52.5473C67.3096 52.7607 67.1562 52.9407 66.9496 53.0873C66.7496 53.2273 66.5029 53.324 66.2096 53.3773V53.4273C66.5096 53.474 66.7796 53.5607 67.0196 53.6873C67.2662 53.814 67.4596 53.994 67.5996 54.2273C67.7396 54.4607 67.8096 54.764 67.8096 55.1373C67.8096 55.5707 67.7096 55.9407 67.5096 56.2473C67.3096 56.5473 67.0229 56.7773 66.6496 56.9373C66.2829 57.0907 65.8429 57.1673 65.3296 57.1673H62.8196V50.0273H64.8596ZM65.0396 53.0673C65.6529 53.0673 66.0729 52.9707 66.2996 52.7773C66.5262 52.5773 66.6396 52.284 66.6396 51.8973C66.6396 51.504 66.4996 51.224 66.2196 51.0573C65.9462 50.884 65.5062 50.7973 64.8996 50.7973H63.7196V53.0673H65.0396ZM63.7196 53.8173V56.4073H65.1596C65.7929 56.4073 66.2329 56.284 66.4796 56.0373C66.7262 55.7907 66.8496 55.4673 66.8496 55.0673C66.8496 54.814 66.7929 54.594 66.6796 54.4073C66.5729 54.2207 66.3896 54.0773 66.1296 53.9773C65.8762 53.8707 65.5296 53.8173 65.0896 53.8173H63.7196Z" fill="#3575AA"/>
<path d="M116.542 58.4189C116.625 58.3235 116.924 56.7675 117.063 56.0015H118.034C117.926 56.7893 117.422 57.9414 117.183 58.4189H116.542Z" fill="#3575AA"/>
</g>
<defs>
<clipPath id="clip0_1494_7766">
<rect width="150" height="60" fill="white"/>
</clipPath>
</defs>
</svg>
