<svg width="110" height="110" viewBox="0 0 110 110" fill="none" xmlns="http://www.w3.org/2000/svg">
<path d="M9.01777 14.25H82.2819C83.0142 14.25 83.7393 14.3942 84.4159 14.6745C85.0925 14.9547 85.7072 15.3655 86.225 15.8833C86.7429 16.4011 87.1536 17.0159 87.4339 17.6925C87.7141 18.369 87.8584 19.0942 87.8584 19.8265V32.3H9.00828C7.82559 32.2988 6.65473 32.0646 5.56255 31.6108C4.47036 31.1571 3.47825 30.4927 2.64284 29.6555C1.80744 28.8183 1.14511 27.8248 0.693669 26.7317C0.242227 25.6385 0.0105156 24.4672 0.0117638 23.2845C0.00801357 22.0994 0.238193 20.9253 0.689108 19.8293C1.14002 18.7334 1.80281 17.7372 2.63947 16.8979C3.47612 16.0586 4.47021 15.3926 5.56473 14.9383C6.65925 14.4839 7.83269 14.25 9.01777 14.25Z" fill="url(#paint0_linear_1_174)"/>
<g opacity="0.6">
<path d="M9.01777 14.25H82.2819C83.0142 14.25 83.7393 14.3942 84.4159 14.6745C85.0925 14.9547 85.7072 15.3655 86.225 15.8833C86.7429 16.4011 87.1536 17.0159 87.4339 17.6925C87.7141 18.369 87.8584 19.0942 87.8584 19.8265V32.3H9.00828C7.82559 32.2988 6.65473 32.0646 5.56255 31.6108C4.47036 31.1571 3.47825 30.4927 2.64284 29.6555C1.80744 28.8183 1.14511 27.8248 0.693669 26.7317C0.242227 25.6385 0.0105156 24.4672 0.0117638 23.2845C0.00801357 22.0994 0.238193 20.9253 0.689108 19.8293C1.14002 18.7334 1.80281 17.7372 2.63947 16.8979C3.47612 16.0586 4.47021 15.3926 5.56473 14.9383C6.65925 14.4839 7.83269 14.25 9.01777 14.25Z" fill="url(#paint1_linear_1_174)" style="mix-blend-mode:multiply"/>
</g>
<path d="M82.2796 14.9641C83.5764 14.9666 84.8194 15.4828 85.7364 16.3998C86.6533 17.3168 87.1696 18.5597 87.1721 19.8566V32.3016H9.01551C1.7765 32.3016 0.693516 26.6586 0.693516 23.2861C0.696031 21.0797 1.57362 18.9644 3.13375 17.4043C4.69388 15.8442 6.80914 14.9666 9.01551 14.9641H82.2796ZM82.2796 14.28H9.01551C7.83167 14.2775 6.659 14.5087 5.56468 14.9603C4.47036 15.4119 3.47591 16.075 2.63837 16.9117C1.80083 17.7484 1.13664 18.7421 0.683891 19.8359C0.231146 20.9298 -0.0012477 22.1022 5.03782e-06 23.2861C5.03782e-06 28.2641 2.16602 32.9951 9.00603 32.9951H87.8561V19.8566C87.8561 18.3776 87.2686 16.9592 86.2228 15.9134C85.177 14.8676 83.7586 14.28 82.2796 14.28Z" fill="url(#paint2_linear_1_174)"/>
<path d="M44.6892 61.7691C61.7463 61.7691 75.5738 47.9416 75.5738 30.8845C75.5738 13.8275 61.7463 0 44.6892 0C27.6322 0 13.8047 13.8275 13.8047 30.8845C13.8047 47.9416 27.6322 61.7691 44.6892 61.7691Z" fill="url(#paint3_linear_1_174)"/>
<path d="M44.6524 0.627006C50.6368 0.627006 56.4868 2.40158 61.4626 5.72632C66.4384 9.05106 70.3166 13.7766 72.6067 19.3055C74.8968 24.8343 75.496 30.9181 74.3285 36.7875C73.161 42.6569 70.2793 48.0483 66.0477 52.2799C61.8161 56.5115 56.4247 59.3932 50.5553 60.5607C44.686 61.7282 38.6022 61.129 33.0733 58.8389C27.5445 56.5487 22.8189 52.6706 19.4942 47.6947C16.1694 42.7189 14.3949 36.8689 14.3949 30.8845C14.4049 22.8628 17.596 15.1725 23.2682 9.50033C28.9404 3.82812 36.6307 0.637061 44.6524 0.627006ZM44.6524 1.46123e-06C38.5444 0.00188026 32.5741 1.81482 27.4965 5.2096C22.4188 8.60438 18.4617 13.4286 16.1256 19.0721C13.7895 24.7157 13.1792 30.9252 14.372 36.9156C15.5647 42.906 18.5069 48.4082 22.8266 52.7266C27.1462 57.0449 32.6494 59.9854 38.6401 61.1763C44.6309 62.3673 50.8402 61.7551 56.4831 59.4172C62.1259 57.0794 66.9489 53.1208 70.3421 48.0421C73.7353 42.9633 75.5464 36.9925 75.5464 30.8845C75.5464 26.8279 74.7473 22.811 73.1946 19.0633C71.6419 15.3156 69.3661 11.9105 66.4972 9.04251C63.6283 6.17449 60.2225 3.89975 56.4743 2.34822C52.7261 0.796681 48.709 -0.00124634 44.6524 1.46123e-06Z" fill="url(#paint4_linear_1_174)"/>
<path d="M44.6846 51.5091C56.0752 51.5091 65.3091 42.2751 65.3091 30.8845C65.3091 19.4939 56.0752 10.26 44.6846 10.26C33.294 10.26 24.0601 19.4939 24.0601 30.8845C24.0601 42.2751 33.294 51.5091 44.6846 51.5091Z" fill="url(#paint5_linear_1_174)" style="mix-blend-mode:multiply"/>
<path d="M44.6852 50.2455C55.378 50.2455 64.0463 41.5773 64.0463 30.8845C64.0463 20.1917 55.378 11.5234 44.6852 11.5234C33.9924 11.5234 25.3242 20.1917 25.3242 30.8845C25.3242 41.5773 33.9924 50.2455 44.6852 50.2455Z" fill="url(#paint6_linear_1_174)"/>
<path d="M44.6852 50.2455C55.378 50.2455 64.0463 41.5773 64.0463 30.8845C64.0463 20.1917 55.378 11.5234 44.6852 11.5234C33.9924 11.5234 25.3242 20.1917 25.3242 30.8845C25.3242 41.5773 33.9924 50.2455 44.6852 50.2455Z" fill="url(#paint7_linear_1_174)" style="mix-blend-mode:screen"/>
<path d="M42.79 16.9492H37.4985C36.7745 16.9492 36.1875 17.5362 36.1875 18.2602V43.7297C36.1875 44.4538 36.7745 45.0408 37.4985 45.0408H42.79C43.5141 45.0408 44.101 44.4538 44.101 43.7297V18.2602C44.101 17.5362 43.5141 16.9492 42.79 16.9492Z" fill="white"/>
<path d="M58.4347 45.0383H52.4212C52.1881 45.0379 51.9592 44.9763 51.7575 44.8596C51.5557 44.7428 51.3882 44.5752 51.2717 44.3733L50.3217 42.7013C50.2144 42.5046 50.1582 42.2841 50.1582 42.0601C50.1582 41.836 50.2144 41.6155 50.3217 41.4188L53.3332 36.0798C53.4455 35.8758 53.6106 35.7057 53.8111 35.5872C54.0116 35.4687 54.2403 35.4063 54.4732 35.4062C54.7061 35.4063 54.9347 35.4687 55.1352 35.5872C55.3357 35.7057 55.5008 35.8758 55.6132 36.0798L59.5652 43.0908C59.6784 43.2888 59.7376 43.513 59.7368 43.7411C59.7361 43.9691 59.6754 44.193 59.5609 44.3902C59.4464 44.5875 59.2821 44.7511 59.0845 44.8649C58.8868 44.9786 58.6627 45.0384 58.4347 45.0383Z" fill="white"/>
<path d="M47.2635 23.0547H56.0985C56.3204 23.0584 56.5377 23.1183 56.7301 23.2288C56.9225 23.3394 57.0837 23.497 57.1985 23.6869C57.3134 23.8767 57.3782 24.0927 57.3868 24.3144C57.3955 24.5361 57.3477 24.7565 57.248 24.9547L48.451 40.6867C48.3081 40.9383 48.0861 41.1355 47.8195 41.2477C47.5528 41.3599 47.2566 41.3807 46.9769 41.307C46.6972 41.2333 46.4496 41.0691 46.273 40.8401C46.0963 40.611 46.0003 40.33 46 40.0407V24.3277C46.0072 23.9939 46.1423 23.6757 46.3774 23.4388C46.6126 23.2019 46.9298 23.0644 47.2635 23.0547Z" fill="white"/>
<path d="M24.4435 32.2968H9.01551C7.83122 32.298 6.65833 32.0657 5.56395 31.613C4.46958 31.1604 3.4752 30.4964 2.63779 29.659C1.80037 28.8216 1.13635 27.8272 0.683717 26.7328C0.231088 25.6385 -0.00124489 24.4655 5.01646e-06 23.2812V90.8263C-0.00124339 92.0098 0.230783 93.182 0.682818 94.2757C1.13485 95.3695 1.79804 96.3634 2.63445 97.2007C3.47086 98.038 4.46409 98.7022 5.55737 99.1554C6.65065 99.6086 7.82254 99.8418 9.00603 99.8418H97.5461C98.1956 99.8418 98.8388 99.7138 99.4388 99.4649C100.039 99.2161 100.584 98.8513 101.043 98.3916C101.501 97.9319 101.865 97.3862 102.113 96.7857C102.361 96.1853 102.487 95.5419 102.486 94.8923V37.2368C102.486 35.9266 101.966 34.6701 101.039 33.7437C100.113 32.8172 98.8563 32.2968 97.5461 32.2968H24.4435Z" fill="url(#paint8_linear_1_174)"/>
<path d="M0.693516 28.2586C1.54993 29.7037 2.76732 30.9015 4.22627 31.7342C5.68523 32.5669 7.33562 33.0061 9.01551 33.0086H97.5556C98.6836 33.0111 99.7647 33.4603 100.562 34.2579C101.36 35.0555 101.809 36.1366 101.812 37.2645V94.9486C101.812 96.0783 101.364 97.1618 100.566 97.9614C99.7678 98.7611 98.6852 99.2116 97.5556 99.2141H9.01551C6.8075 99.2116 4.69079 98.3327 3.13039 96.7705C1.56998 95.2084 0.693515 93.0906 0.693516 90.8826V28.2775M5.01101e-06 23.29V90.8351C-0.00124339 92.0186 0.230783 93.1908 0.682818 94.2845C1.13485 95.3783 1.79804 96.3722 2.63445 97.2095C3.47086 98.0468 4.46409 98.711 5.55737 99.1642C6.65065 99.6174 7.82254 99.8506 9.00603 99.8506H97.5461C98.1956 99.8506 98.8388 99.7226 99.4388 99.4737C100.039 99.2249 100.584 98.8601 101.043 98.4004C101.501 97.9406 101.865 97.3949 102.113 96.7945C102.361 96.194 102.487 95.5507 102.486 94.9011V37.2456C102.486 35.9354 101.966 34.6789 101.039 33.7525C100.113 32.826 98.8563 32.3056 97.5461 32.3056H9.00603C7.82254 32.3056 6.65065 32.0723 5.55737 31.6191C4.46409 31.1659 3.47086 30.5017 2.63445 29.6644C1.79804 28.8271 1.13485 27.8332 0.682818 26.7394C0.230783 25.6457 -0.00124339 24.4735 5.01101e-06 23.29Z" fill="url(#paint9_linear_1_174)"/>
<path d="M81.2899 53.5977H101.819V80.7487H84.7194C81.1601 80.7563 77.7432 79.3509 75.2192 76.8412C72.6952 74.3314 71.2705 70.9226 71.2579 67.3632V63.6487C71.2517 62.3286 71.5067 61.0204 72.0084 59.7993C72.5101 58.5783 73.2485 57.4686 74.1811 56.5343C75.1136 55.6 76.2219 54.8595 77.442 54.3555C78.6621 53.8515 79.9699 53.5939 81.2899 53.5977Z" fill="url(#paint10_linear_1_174)" style="mix-blend-mode:multiply"/>
<path d="M82.6578 52.3828H106.151C107.172 52.3828 108.15 52.7882 108.872 53.5097C109.593 54.2313 109.999 55.2099 109.999 56.2303V71.4303C109.999 72.4508 109.593 73.4294 108.872 74.1509C108.15 74.8725 107.172 75.2778 106.151 75.2778H82.6578C79.63 75.2653 76.7305 74.0537 74.5939 71.9082C72.4573 69.7627 71.2578 66.8582 71.2578 63.8303C71.2578 60.8025 72.4573 57.8979 74.5939 55.7525C76.7305 53.607 79.63 52.3954 82.6578 52.3828Z" fill="url(#paint11_linear_1_174)"/>
<path d="M106.19 53.0639C107.028 53.0664 107.831 53.4005 108.424 53.9932C109.017 54.5859 109.351 55.3891 109.353 56.2274V71.4274C109.351 72.2656 109.017 73.0688 108.424 73.6616C107.831 74.2543 107.028 74.5884 106.19 74.5909H82.6487C79.794 74.5909 77.0563 73.4569 75.0377 71.4383C73.0192 69.4198 71.8852 66.682 71.8852 63.8274C71.8852 60.9727 73.0192 58.235 75.0377 56.2164C77.0563 54.1979 79.794 53.0639 82.6487 53.0639H106.152M106.152 52.3799H82.6487C79.6126 52.3799 76.7009 53.586 74.5541 55.7328C72.4072 57.8796 71.2012 60.7913 71.2012 63.8274C71.2012 66.8635 72.4072 69.7752 74.5541 71.922C76.7009 74.0688 79.6126 75.2749 82.6487 75.2749H106.152C107.172 75.2749 108.151 74.8696 108.872 74.148C109.594 73.4265 109.999 72.4478 109.999 71.4274V56.2274C109.997 55.2077 109.591 54.2306 108.87 53.5096C108.149 52.7886 107.171 52.3824 106.152 52.3799Z" fill="url(#paint12_linear_1_174)"/>
<path d="M83.2787 70.3465C86.878 70.3465 89.7957 67.4288 89.7957 63.8295C89.7957 60.2303 86.878 57.3125 83.2787 57.3125C79.6795 57.3125 76.7617 60.2303 76.7617 63.8295C76.7617 67.4288 79.6795 70.3465 83.2787 70.3465Z" fill="white"/>
<path fill-rule="evenodd" clip-rule="evenodd" d="M83.2787 57.6724C79.8783 57.6724 77.1217 60.429 77.1217 63.8294C77.1217 67.2298 79.8783 69.9864 83.2787 69.9864C86.6792 69.9864 89.4357 67.2298 89.4357 63.8294C89.4357 60.429 86.6792 57.6724 83.2787 57.6724ZM76.4017 63.8294C76.4017 60.0313 79.4807 56.9524 83.2787 56.9524C87.0768 56.9524 90.1557 60.0313 90.1557 63.8294C90.1557 67.6275 87.0768 70.7064 83.2787 70.7064C79.4807 70.7064 76.4017 67.6275 76.4017 63.8294Z" fill="#0DAEE2"/>
<g opacity="0.35">
<path d="M13.8047 30.8828C13.8047 31.3198 13.8047 31.7568 13.8047 32.1938H75.5548C75.5548 31.7568 75.5548 31.3198 75.5548 30.8828C75.5601 27.6582 75.06 24.4526 74.0728 21.3828H15.2867C14.2995 24.4526 13.7994 27.6582 13.8047 30.8828Z" fill="url(#paint13_linear_1_174)" style="mix-blend-mode:multiply"/>
</g>
<defs>
<linearGradient id="paint0_linear_1_174" x1="0.0117638" y1="23.2845" x2="87.8584" y2="23.2845" gradientUnits="userSpaceOnUse">
<stop stop-color="#AA0E67"/>
<stop offset="1" stop-color="#2C8ECA"/>
</linearGradient>
<linearGradient id="paint1_linear_1_174" x1="43.9398" y1="32.3" x2="43.9398" y2="14.2785" gradientUnits="userSpaceOnUse">
<stop stop-opacity="0.7"/>
<stop offset="1" stop-opacity="0"/>
</linearGradient>
<linearGradient id="paint2_linear_1_174" x1="0.00950505" y1="23.6376" x2="87.8561" y2="23.6376" gradientUnits="userSpaceOnUse">
<stop stop-opacity="0"/>
<stop offset="1" stop-color="#42BFDE"/>
</linearGradient>
<linearGradient id="paint3_linear_1_174" x1="13.8047" y1="30.8845" x2="75.5833" y2="30.8845" gradientUnits="userSpaceOnUse">
<stop stop-color="#E41476"/>
<stop offset="1" stop-color="#00C9F1"/>
</linearGradient>
<linearGradient id="paint4_linear_1_174" x1="13.8059" y1="30.8845" x2="75.5844" y2="30.8845" gradientUnits="userSpaceOnUse">
<stop stop-color="#B10102"/>
<stop offset="0.510163" stop-color="#45439D"/>
<stop offset="1" stop-color="#03D4D4"/>
</linearGradient>
<linearGradient id="paint5_linear_1_174" x1="24.0601" y1="30.8845" x2="65.3186" y2="30.8845" gradientUnits="userSpaceOnUse">
<stop stop-color="#90043A" stop-opacity="0.69"/>
<stop offset="1" stop-color="#066FBC" stop-opacity="0.64"/>
</linearGradient>
<linearGradient id="paint6_linear_1_174" x1="25.3242" y1="30.8845" x2="64.0558" y2="30.8845" gradientUnits="userSpaceOnUse">
<stop stop-color="#E41476"/>
<stop offset="1" stop-color="#00C9F1"/>
</linearGradient>
<linearGradient id="paint7_linear_1_174" x1="25.3242" y1="30.8845" x2="64.0558" y2="30.8845" gradientUnits="userSpaceOnUse">
<stop stop-color="#E41476"/>
<stop offset="1" stop-color="#00C9F1"/>
</linearGradient>
<linearGradient id="paint8_linear_1_174" x1="-1.3585" y1="90.9023" x2="100.349" y2="32.1828" gradientUnits="userSpaceOnUse">
<stop stop-color="#E2238C"/>
<stop offset="1" stop-color="#1FC3EA"/>
</linearGradient>
<linearGradient id="paint9_linear_1_174" x1="8.39801" y1="102.986" x2="89.3476" y2="22.0455" gradientUnits="userSpaceOnUse">
<stop stop-color="#C00327"/>
<stop offset="1" stop-color="#40FFFF"/>
</linearGradient>
<linearGradient id="paint10_linear_1_174" x1="84.3014" y1="83.6272" x2="88.0539" y2="63.8292" gradientUnits="userSpaceOnUse">
<stop stop-opacity="0"/>
<stop offset="1" stop-opacity="0.7"/>
</linearGradient>
<linearGradient id="paint11_linear_1_174" x1="71.2388" y1="63.8303" x2="110.037" y2="63.8303" gradientUnits="userSpaceOnUse">
<stop stop-color="#87EAFF"/>
<stop offset="1" stop-color="#00D5FF"/>
</linearGradient>
<linearGradient id="paint12_linear_1_174" x1="71.2392" y1="63.8274" x2="110.037" y2="63.8274" gradientUnits="userSpaceOnUse">
<stop stop-color="#19D6FF"/>
<stop offset="1" stop-color="#04FEFF"/>
</linearGradient>
<linearGradient id="paint13_linear_1_174" x1="44.6893" y1="32.1938" x2="44.6893" y2="21.4208" gradientUnits="userSpaceOnUse">
<stop stop-opacity="0.7"/>
<stop offset="1" stop-opacity="0"/>
</linearGradient>
</defs>
</svg>
