<svg width="110" height="110" viewBox="0 0 110 110" fill="none" xmlns="http://www.w3.org/2000/svg">
<g clip-path="url(#clip0_1_292)">
<path d="M15.8242 14.1055H7.91211V102.177H15.8242V14.1055Z" fill="url(#paint0_linear_1_292)"/>
<path d="M44.5781 0H36.666V102.174H44.5781V0Z" fill="url(#paint1_linear_1_292)"/>
<path d="M73.332 0H65.4199V102.174H73.332V0Z" fill="url(#paint2_linear_1_292)"/>
<path d="M102.098 0H94.1855V102.174H102.098V0Z" fill="url(#paint3_linear_1_292)"/>
<g opacity="0.25">
<path d="M102.098 14.332H94.1855V21.7442H102.098V14.332Z" fill="url(#paint4_linear_1_292)" style="mix-blend-mode:multiply"/>
</g>
<g opacity="0.25">
<path d="M73.332 4.32812H65.4199V11.7403H73.332V4.32812Z" fill="url(#paint5_linear_1_292)" style="mix-blend-mode:multiply"/>
</g>
<g opacity="0.25">
<path d="M44.5781 43.8203H36.666V51.2325H44.5781V43.8203Z" fill="url(#paint6_linear_1_292)" style="mix-blend-mode:multiply"/>
</g>
<g opacity="0.25">
<path d="M15.8242 24.7188H7.91211V32.1309H15.8242V24.7188Z" fill="url(#paint7_linear_1_292)" style="mix-blend-mode:multiply"/>
</g>
<g opacity="0.6">
<path d="M44.5781 79.0312H36.666V89.7217H44.5781V79.0312Z" fill="url(#paint8_linear_1_292)" style="mix-blend-mode:multiply"/>
</g>
<g opacity="0.6">
<path d="M15.8242 69.8242H7.91211V80.5147H15.8242V69.8242Z" fill="url(#paint9_linear_1_292)" style="mix-blend-mode:multiply"/>
</g>
<g opacity="0.6">
<path d="M73.332 79.0312H65.4199V89.7217H73.332V79.0312Z" fill="url(#paint10_linear_1_292)" style="mix-blend-mode:multiply"/>
</g>
<g opacity="0.6">
<path d="M102.098 49.5234H94.1855V60.2139H102.098V49.5234Z" fill="url(#paint11_linear_1_292)" style="mix-blend-mode:multiply"/>
</g>
<path d="M19.3908 32.082H4.33578C1.9412 32.082 0 34.0232 0 36.4178V65.4897C0 67.8842 1.9412 69.8254 4.33578 69.8254H19.3908C21.7854 69.8254 23.7266 67.8842 23.7266 65.4897V36.4178C23.7266 34.0232 21.7854 32.082 19.3908 32.082Z" fill="url(#paint12_linear_1_292)"/>
<path d="M105.664 21.6484H90.6092C88.2146 21.6484 86.2734 23.5896 86.2734 25.9842V45.202C86.2734 47.5966 88.2146 49.5378 90.6092 49.5378H105.664C108.059 49.5378 110 47.5966 110 45.202V25.9842C110 23.5896 108.059 21.6484 105.664 21.6484Z" fill="url(#paint13_linear_1_292)"/>
<path d="M48.1448 51.1328H33.0897C30.6951 51.1328 28.7539 53.074 28.7539 55.4686V74.6864C28.7539 77.081 30.6951 79.0222 33.0897 79.0222H48.1448C50.5393 79.0222 52.4805 77.081 52.4805 74.6864V55.4686C52.4805 53.074 50.5393 51.1328 48.1448 51.1328Z" fill="url(#paint14_linear_1_292)"/>
<path d="M76.9104 11.6719H61.8553C59.4607 11.6719 57.5195 13.6131 57.5195 16.0077V74.6897C57.5195 77.0843 59.4607 79.0255 61.8553 79.0255H76.9104C79.305 79.0255 81.2462 77.0843 81.2462 74.6897V16.0077C81.2462 13.6131 79.305 11.6719 76.9104 11.6719Z" fill="url(#paint15_linear_1_292)"/>
<path d="M19.3812 32.8011C20.3408 32.8011 21.2612 33.1817 21.9407 33.8593C22.6201 34.5369 23.0031 35.4563 23.0056 36.4159V65.4877C23.0031 66.4473 22.6201 67.3667 21.9407 68.0443C21.2612 68.7219 20.3408 69.1025 19.3812 69.1025H4.33579C3.37788 69.0999 2.45994 68.7183 1.78259 68.0409C1.10524 67.3636 0.723565 66.4456 0.721028 65.4877V36.4159C0.723565 35.458 1.10524 34.54 1.78259 33.8626C2.45994 33.1853 3.37788 32.8037 4.33579 32.8011H19.3812ZM19.3812 32.0801H4.33579C3.18587 32.0801 2.08304 32.5369 1.26993 33.35C0.456809 34.1631 0 35.266 0 36.4159V65.4877C0 66.6376 0.456809 67.7405 1.26993 68.5536C2.08304 69.3667 3.18587 69.8235 4.33579 69.8235H19.3812C19.9514 69.8248 20.5163 69.7135 21.0434 69.4962C21.5706 69.2789 22.0497 68.9597 22.4533 68.557C22.8569 68.1542 23.1772 67.6758 23.3957 67.1492C23.6142 66.6225 23.7266 66.0579 23.7266 65.4877V36.4159C23.7266 35.8457 23.6142 35.2811 23.3957 34.7544C23.1772 34.2277 22.8569 33.7494 22.4533 33.3466C22.0497 32.9439 21.5706 32.6247 21.0434 32.4074C20.5163 32.19 19.9514 32.0788 19.3812 32.0801Z" fill="url(#paint16_linear_1_292)"/>
<path d="M105.663 22.3709C106.623 22.3735 107.542 22.7564 108.22 23.4359C108.897 24.1153 109.278 25.0357 109.278 25.9953V45.2227C109.278 46.1823 108.897 47.1027 108.22 47.7821C107.542 48.4615 106.623 48.8445 105.663 48.8471H90.6463C89.6868 48.8445 88.7674 48.4615 88.0897 47.7821C87.4121 47.1027 87.0316 46.1823 87.0316 45.2227V25.9953C87.0316 25.0357 87.4121 24.1153 88.0897 23.4359C88.7674 22.7564 89.6868 22.3735 90.6463 22.3709H105.701M105.701 21.6499H90.6463C90.0762 21.6499 89.5116 21.7624 88.9849 21.9809C88.4582 22.1994 87.9798 22.5196 87.5771 22.9232C87.1743 23.3269 86.8552 23.806 86.6378 24.3331C86.4205 24.8603 86.3093 25.4251 86.3106 25.9953V45.2227C86.3093 45.7929 86.4205 46.3577 86.6378 46.8849C86.8552 47.412 87.1743 47.8911 87.5771 48.2948C87.9798 48.6984 88.4582 49.0186 88.9849 49.2371C89.5116 49.4556 90.0762 49.5681 90.6463 49.5681H105.701C106.272 49.5681 106.836 49.4556 107.363 49.2371C107.89 49.0186 108.368 48.6984 108.771 48.2948C109.173 47.8911 109.493 47.412 109.71 46.8849C109.927 46.3577 110.038 45.7929 110.037 45.2227V25.9953C110.038 25.4251 109.927 24.8603 109.71 24.3331C109.493 23.806 109.173 23.3269 108.771 22.9232C108.368 22.5196 107.89 22.1994 107.363 21.9809C106.836 21.7624 106.272 21.6499 105.701 21.6499Z" fill="url(#paint17_linear_1_292)"/>
<path d="M48.1448 51.8509C49.1035 51.8509 50.0229 52.2317 50.7008 52.9096C51.3787 53.5875 51.7595 54.507 51.7595 55.4657V74.6931C51.7595 75.6526 51.379 76.5731 50.7014 77.2525C50.0237 77.9319 49.1043 78.3149 48.1448 78.3174H33.0993C32.1381 78.3174 31.2162 77.9356 30.5365 77.2559C29.8568 76.5762 29.4749 75.6543 29.4749 74.6931V55.4657C29.4749 54.9901 29.5688 54.5193 29.751 54.0801C29.9333 53.6409 30.2004 53.242 30.5371 52.9062C30.8738 52.5704 31.2734 52.3044 31.713 52.1233C32.1527 51.9422 32.6238 51.8497 33.0993 51.8509H48.1448ZM48.1448 51.1299H33.0993C32.5291 51.1286 31.9643 51.2398 31.4371 51.4572C30.91 51.6745 30.4309 51.9936 30.0272 52.3964C29.6236 52.7991 29.3034 53.2775 29.0849 53.8042C28.8664 54.3309 28.7539 54.8955 28.7539 55.4657V74.6931C28.7539 75.8455 29.2117 76.9508 30.0266 77.7657C30.8416 78.5807 31.9468 79.0385 33.0993 79.0385H48.1448C48.715 79.0385 49.2795 78.926 49.8062 78.7075C50.3329 78.489 50.8113 78.1688 51.214 77.7651C51.6168 77.3615 51.9359 76.8824 52.1532 76.3552C52.3706 75.8281 52.4818 75.2633 52.4805 74.6931V55.4657C52.4805 54.3157 52.0237 53.2129 51.2106 52.3998C50.3975 51.5867 49.2947 51.1299 48.1448 51.1299Z" fill="url(#paint18_linear_1_292)"/>
<path d="M76.9013 12.3909C77.8625 12.3909 78.7844 12.7728 79.4641 13.4525C80.1438 14.1322 80.5256 15.0541 80.5256 16.0153V74.6589C80.5256 75.6202 80.1438 76.542 79.4641 77.2217C78.7844 77.9014 77.8625 78.2833 76.9013 78.2833H61.8558C60.8962 78.2807 59.9768 77.8978 59.2992 77.2183C58.6216 76.5389 58.2411 75.6185 58.2411 74.6589V16.0153C58.2411 15.0558 58.6216 14.1353 59.2992 13.4559C59.9768 12.7765 60.8962 12.3935 61.8558 12.3909H76.9013ZM76.9013 11.6699H61.8558C61.2856 11.6699 60.721 11.7824 60.1943 12.0009C59.6677 12.2194 59.1893 12.5396 58.7866 12.9433C58.3838 13.3469 58.0646 13.826 57.8473 14.3532C57.63 14.8803 57.5188 15.4451 57.52 16.0153V74.6589C57.5188 75.2291 57.63 75.794 57.8473 76.3211C58.0646 76.8483 58.3838 77.3273 58.7866 77.731C59.1893 78.1346 59.6677 78.4548 60.1943 78.6733C60.721 78.8918 61.2856 79.0043 61.8558 79.0043H76.9013C78.0537 79.0043 79.159 78.5465 79.9739 77.7316C80.7888 76.9166 81.2466 75.8114 81.2466 74.6589V16.0153C81.2466 14.8629 80.7888 13.7576 79.9739 12.9427C79.159 12.1277 78.0537 11.6699 76.9013 11.6699Z" fill="url(#paint19_linear_1_292)"/>
</g>
<defs>
<linearGradient id="paint0_linear_1_292" x1="11.8633" y1="-16.4373" x2="11.8633" y2="115.53" gradientUnits="userSpaceOnUse">
<stop stop-color="#00C9F1"/>
<stop offset="1" stop-color="#E41476"/>
</linearGradient>
<linearGradient id="paint1_linear_1_292" x1="40.6172" y1="-16.4394" x2="40.6172" y2="115.528" gradientUnits="userSpaceOnUse">
<stop stop-color="#00C9F1"/>
<stop offset="1" stop-color="#E41476"/>
</linearGradient>
<linearGradient id="paint2_linear_1_292" x1="69.3808" y1="-16.4394" x2="69.3808" y2="115.528" gradientUnits="userSpaceOnUse">
<stop stop-color="#00C9F1"/>
<stop offset="1" stop-color="#E41476"/>
</linearGradient>
<linearGradient id="paint3_linear_1_292" x1="98.1368" y1="-16.4394" x2="98.1368" y2="115.528" gradientUnits="userSpaceOnUse">
<stop stop-color="#00C9F1"/>
<stop offset="1" stop-color="#E41476"/>
</linearGradient>
<linearGradient id="paint4_linear_1_292" x1="98.1368" y1="21.7442" x2="98.1368" y2="14.332" gradientUnits="userSpaceOnUse">
<stop stop-opacity="0.7"/>
<stop offset="1" stop-opacity="0"/>
</linearGradient>
<linearGradient id="paint5_linear_1_292" x1="69.3808" y1="11.7403" x2="69.3808" y2="4.32812" gradientUnits="userSpaceOnUse">
<stop stop-opacity="0.7"/>
<stop offset="1" stop-opacity="0"/>
</linearGradient>
<linearGradient id="paint6_linear_1_292" x1="40.6172" y1="51.2421" x2="40.6172" y2="43.8203" gradientUnits="userSpaceOnUse">
<stop stop-opacity="0.7"/>
<stop offset="1" stop-opacity="0"/>
</linearGradient>
<linearGradient id="paint7_linear_1_292" x1="11.8633" y1="32.1309" x2="11.8633" y2="24.7188" gradientUnits="userSpaceOnUse">
<stop stop-opacity="0.7"/>
<stop offset="1" stop-opacity="0"/>
</linearGradient>
<linearGradient id="paint8_linear_1_292" x1="40.6172" y1="89.7217" x2="40.6172" y2="79.0312" gradientUnits="userSpaceOnUse">
<stop stop-opacity="0"/>
<stop offset="1" stop-opacity="0.7"/>
</linearGradient>
<linearGradient id="paint9_linear_1_292" x1="11.8633" y1="80.5147" x2="11.8633" y2="69.8242" gradientUnits="userSpaceOnUse">
<stop stop-opacity="0"/>
<stop offset="1" stop-opacity="0.7"/>
</linearGradient>
<linearGradient id="paint10_linear_1_292" x1="69.3808" y1="89.7217" x2="69.3808" y2="79.0312" gradientUnits="userSpaceOnUse">
<stop stop-opacity="0"/>
<stop offset="1" stop-opacity="0.7"/>
</linearGradient>
<linearGradient id="paint11_linear_1_292" x1="98.1368" y1="60.2043" x2="98.1368" y2="49.5234" gradientUnits="userSpaceOnUse">
<stop stop-opacity="0"/>
<stop offset="1" stop-opacity="0.7"/>
</linearGradient>
<linearGradient id="paint12_linear_1_292" x1="11.8633" y1="69.8254" x2="11.8633" y2="32.082" gradientUnits="userSpaceOnUse">
<stop stop-color="#E41476"/>
<stop offset="1" stop-color="#00C9F1"/>
</linearGradient>
<linearGradient id="paint13_linear_1_292" x1="98.1367" y1="49.5474" x2="98.1367" y2="21.6484" gradientUnits="userSpaceOnUse">
<stop stop-color="#E41476"/>
<stop offset="1" stop-color="#00C9F1"/>
</linearGradient>
<linearGradient id="paint14_linear_1_292" x1="40.6172" y1="79.0222" x2="40.6172" y2="51.1328" gradientUnits="userSpaceOnUse">
<stop stop-color="#E41476"/>
<stop offset="1" stop-color="#00C9F1"/>
</linearGradient>
<linearGradient id="paint15_linear_1_292" x1="69.3828" y1="79.0255" x2="69.3828" y2="11.6719" gradientUnits="userSpaceOnUse">
<stop stop-color="#E41476"/>
<stop offset="1" stop-color="#00C9F1"/>
</linearGradient>
<linearGradient id="paint16_linear_1_292" x1="11.8633" y1="69.8235" x2="11.8633" y2="32.0801" gradientUnits="userSpaceOnUse">
<stop stop-color="#D30D3F"/>
<stop offset="0.464256" stop-color="#6D74B7"/>
<stop offset="1" stop-color="#0AECF8"/>
</linearGradient>
<linearGradient id="paint17_linear_1_292" x1="98.1739" y1="49.5761" x2="98.1739" y2="21.6499" gradientUnits="userSpaceOnUse">
<stop stop-color="#D50B3C"/>
<stop offset="0.498264" stop-color="#736BB2"/>
<stop offset="1" stop-color="#03F4FC"/>
</linearGradient>
<linearGradient id="paint18_linear_1_292" x1="40.6172" y1="79.0464" x2="40.6172" y2="51.1299" gradientUnits="userSpaceOnUse">
<stop stop-color="#D50B3C"/>
<stop offset="0.498264" stop-color="#736BB2"/>
<stop offset="1" stop-color="#03F4FC"/>
</linearGradient>
<linearGradient id="paint19_linear_1_292" x1="69.3833" y1="79.0235" x2="69.3833" y2="11.6699" gradientUnits="userSpaceOnUse">
<stop stop-color="#D50B3C"/>
<stop offset="0.498264" stop-color="#736BB2"/>
<stop offset="1" stop-color="#03F4FC"/>
</linearGradient>
<clipPath id="clip0_1_292">
<rect width="110" height="110" fill="white"/>
</clipPath>
</defs>
</svg>
