<svg width="110" height="110" viewBox="0 0 110 110" fill="none" xmlns="http://www.w3.org/2000/svg">
<g clip-path="url(#clip0_1_343)">
<path d="M5.50001 33.7816V76.2196C5.49912 78.424 6.07876 80.5897 7.18055 82.4989C8.28235 84.4082 9.86746 85.9937 11.7765 87.0959L48.5388 108.319C50.4471 109.421 52.6118 110.001 54.8153 110.001C57.0188 110.001 59.1835 109.421 61.0918 108.319L97.8541 87.0959C99.7631 85.9937 101.348 84.4082 102.45 82.4989C103.552 80.5897 104.131 78.424 104.131 76.2196V33.7816C104.133 31.5757 103.554 29.4081 102.452 27.4971C101.35 25.5861 99.7645 23.9993 97.8541 22.8963L61.0918 1.68178C59.1835 0.580023 57.0188 0 54.8153 0C52.6118 0 50.4471 0.580023 48.5388 1.68178L11.7765 22.8963C9.86614 23.9993 8.28013 25.5861 7.17826 27.4971C6.07638 29.4081 5.49754 31.5757 5.50001 33.7816Z" fill="url(#paint0_linear_1_343)"/>
<g style="mix-blend-mode:overlay">
<path d="M54.8153 0.690404C56.9025 0.6922 58.9526 1.2426 60.76 2.28643L97.5223 23.501C99.327 24.5491 100.825 26.0519 101.869 27.8595C102.912 29.6671 103.463 31.7164 103.467 33.8034V76.2414C103.464 78.3274 102.913 80.376 101.87 82.1823C100.827 83.9887 99.3275 85.4895 97.5223 86.5349L60.76 107.758C58.9514 108.798 56.9016 109.346 54.8153 109.346C52.729 109.346 50.6792 108.798 48.8706 107.758L12.1083 86.5349C10.3031 85.4895 8.80399 83.9887 7.76077 82.1823C6.71755 80.376 6.16678 78.3274 6.16351 76.2414V33.7854C6.16792 31.6985 6.71905 29.6492 7.76208 27.8415C8.80511 26.0339 10.3036 24.5312 12.1083 23.483L48.8706 2.2685C50.679 1.22701 52.7284 0.676787 54.8153 0.672481M54.8153 0C52.6114 0.0011873 50.4467 0.582558 48.5388 1.68568L11.7765 22.9002C9.86614 24.0032 8.28013 25.59 7.17826 27.501C6.07638 29.412 5.49754 31.5796 5.50001 33.7854V76.2235C5.49912 78.4279 6.07876 80.5936 7.18055 82.5029C8.28235 84.4121 9.86746 85.9976 11.7765 87.0998L48.5388 108.323C50.4489 109.42 52.6129 109.997 54.8153 109.997C57.0177 109.997 59.1817 109.42 61.0918 108.323L97.8541 87.0998C99.7631 85.9976 101.348 84.4121 102.45 82.5029C103.552 80.5936 104.131 78.4279 104.131 76.2235V33.7854C104.133 31.5796 103.554 29.412 102.452 27.501C101.35 25.59 99.7645 24.0032 97.8541 22.9002L61.0918 1.68568C59.1839 0.582558 57.0192 0.0011873 54.8153 0Z" fill="url(#paint1_linear_1_343)"/>
</g>
<path style="mix-blend-mode:multiply" opacity="0.8" d="M51.2107 93.3863C71.41 93.3863 87.7847 77.0116 87.7847 56.8123C87.7847 36.613 71.41 20.2383 51.2107 20.2383C31.0115 20.2383 14.6367 36.613 14.6367 56.8123C14.6367 77.0116 31.0115 93.3863 51.2107 93.3863Z" fill="url(#paint2_linear_1_343)"/>
<path d="M54.7986 91.5933C74.9979 91.5933 91.3726 75.2186 91.3726 55.0193C91.3726 34.8201 74.9979 18.4453 54.7986 18.4453C34.5994 18.4453 18.2246 34.8201 18.2246 55.0193C18.2246 75.2186 34.5994 91.5933 54.7986 91.5933Z" fill="url(#paint3_linear_1_343)"/>
<path d="M54.8129 19.1224C61.9065 19.1224 68.8407 21.2259 74.7388 25.1669C80.6369 29.1079 85.2339 34.7093 87.9485 41.2629C90.6631 47.8165 91.3734 55.0279 89.9895 61.9851C88.6056 68.9424 85.1897 75.3331 80.1738 80.349C75.1579 85.3649 68.7672 88.7807 61.81 90.1646C54.8527 91.5485 47.6413 90.8382 41.0877 88.1237C34.5341 85.4091 28.9327 80.8121 24.9917 74.914C21.0507 69.0159 18.9473 62.0817 18.9473 54.9881C18.9686 45.4825 22.7541 36.3723 29.4756 29.6508C36.1971 22.9293 45.3073 19.1437 54.8129 19.1224ZM54.8129 18.45C47.5771 18.45 40.5038 20.5957 34.4876 24.6159C28.4713 28.6361 23.7825 34.3501 21.0139 41.0353C18.2452 47.7205 17.5213 55.0766 18.9336 62.1732C20.3459 69.2699 23.8309 75.7883 28.948 80.9042C34.0651 86.02 40.5844 89.5035 47.6814 90.9141C54.7784 92.3246 62.1343 91.5989 68.8188 88.8286C75.5033 86.0584 81.2162 81.368 85.2349 75.3508C89.2537 69.3336 91.3977 62.2598 91.396 55.024C91.396 50.2202 90.4496 45.4636 88.611 41.0256C86.7725 36.5877 84.0776 32.5554 80.6805 29.1591C77.2833 25.7627 73.2503 23.0689 68.8119 21.2314C64.3735 19.3939 59.6167 18.4488 54.8129 18.45Z" fill="url(#paint4_linear_1_343)"/>
<path d="M41.8569 65.1773L33.4016 52.9561V65.1773H28.748V44.8594H32.7829L41.1934 57.1075V44.8594H45.8201V65.1773H41.8569Z" fill="#F5F9FF"/>
<path d="M45.6079 45.0811V64.9597H42.0213L33.297 52.4515H33.1445V64.9597H28.9483V45.0811H32.6335L41.2143 57.5803H41.3847V45.0811H45.572M46.0203 44.6328H40.9364V56.3878L33.0012 44.8301L32.8666 44.6328H28.5V65.408H33.5929V53.6709L41.573 65.2107L41.7075 65.408H46.0203V44.6328Z" fill="#615FA7"/>
<path d="M48.8438 65.1773V44.8594H62.4458V48.7687H53.4973V53.0547H61.5761V56.973H53.4973V65.1773H48.8438Z" fill="#F5F9FF"/>
<path d="M62.2314 45.0811V48.5511H53.265V53.2854H61.3347V56.7464H53.265V64.9597H49.0596V45.0811H62.2224M62.6707 44.6328H48.6113V65.408H53.7133V57.1947H61.7831V52.8371H53.7133V49.0264H62.6797V44.6328H62.6707Z" fill="#615FA7"/>
<path d="M70.1566 65.1773V48.7687H64.0684V44.8594H80.8356V48.7687H74.7563V65.1773H70.1566Z" fill="#F5F9FF"/>
<path d="M80.6208 45.0811V48.5511H74.5415V64.9597H70.3901V48.5511H64.3018V45.0811H80.6298M81.0781 44.6328H63.8535V49.0264H69.9417V65.4349H74.9898V49.0264H81.0781V44.6328Z" fill="#615FA7"/>
</g>
<defs>
<linearGradient id="paint0_linear_1_343" x1="7.16776" y1="82.514" x2="102.436" y2="27.514" gradientUnits="userSpaceOnUse">
<stop stop-color="#E41476"/>
<stop offset="1" stop-color="#00C9F1"/>
</linearGradient>
<linearGradient id="paint1_linear_1_343" x1="7.16776" y1="82.5179" x2="102.436" y2="27.5179" gradientUnits="userSpaceOnUse">
<stop stop-opacity="0.7"/>
<stop offset="1" stop-color="white" stop-opacity="0.8"/>
</linearGradient>
<linearGradient id="paint2_linear_1_343" x1="51.2107" y1="93.3953" x2="51.2107" y2="20.2383" gradientUnits="userSpaceOnUse">
<stop stop-opacity="0"/>
<stop offset="1" stop-opacity="0.7"/>
</linearGradient>
<linearGradient id="paint3_linear_1_343" x1="23.1203" y1="73.3108" x2="86.4859" y2="36.7278" gradientUnits="userSpaceOnUse">
<stop stop-color="#E41476"/>
<stop offset="1" stop-color="#00C9F1"/>
</linearGradient>
<linearGradient id="paint4_linear_1_343" x1="23.1167" y1="73.3154" x2="86.4824" y2="36.7325" gradientUnits="userSpaceOnUse">
<stop stop-color="#C50103"/>
<stop offset="0.504484" stop-color="#736AAF"/>
<stop offset="1" stop-color="#07FEFF"/>
</linearGradient>
<clipPath id="clip0_1_343">
<rect width="110" height="110" fill="white"/>
</clipPath>
</defs>
</svg>
