<svg width="110" height="110" viewBox="0 0 110 110" fill="none" xmlns="http://www.w3.org/2000/svg">
<g clip-path="url(#clip0_1_322)">
<path d="M93.4925 33.7815H15.9248C13.5247 33.7815 11.2228 34.735 9.52563 36.4321C7.82845 38.1293 6.875 40.4312 6.875 42.8314V81.1246C6.875 83.5248 7.82845 85.8266 9.52563 87.5238C11.2228 89.221 13.5247 90.1745 15.9248 90.1745H36.7842C37.1719 90.1761 37.554 90.2661 37.9017 90.4376C38.2493 90.6092 38.5533 90.8577 38.7904 91.1644L52.0892 108.537C52.4392 108.995 52.89 109.366 53.4066 109.621C53.9232 109.876 54.4916 110.009 55.0679 110.009C55.6441 110.009 56.2126 109.876 56.7292 109.621C57.2458 109.366 57.6966 108.995 58.0466 108.537L71.1877 91.1907C71.4235 90.8792 71.7279 90.6262 72.0774 90.4514C72.4269 90.2767 72.8119 90.1849 73.2026 90.1832H93.5013C94.6898 90.1832 95.8665 89.9492 96.9645 89.4944C98.0625 89.0396 99.0602 88.373 99.9005 87.5326C100.741 86.6922 101.407 85.6946 101.862 84.5966C102.317 83.4986 102.551 82.3218 102.551 81.1334V42.8314C102.551 41.6422 102.317 40.4647 101.861 39.3661C101.406 38.2676 100.739 37.2695 99.8974 36.429C99.0561 35.5886 98.0574 34.9221 96.9585 34.4679C95.8595 34.0136 94.6817 33.7803 93.4925 33.7815Z" fill="url(#paint0_linear_1_322)"/>
<path d="M93.4974 34.4368C95.7226 34.4392 97.856 35.3241 99.4295 36.8976C101.003 38.471 101.888 40.6045 101.89 42.8297V81.1229C101.888 83.3481 101.003 85.4815 99.4295 87.0549C97.856 88.6284 95.7226 89.5134 93.4974 89.5157H73.1812C72.6896 89.5183 72.2051 89.6334 71.7647 89.852C71.3244 90.0707 70.9399 90.3872 70.6406 90.7772L57.4995 108.124C57.2118 108.501 56.8407 108.807 56.4152 109.018C55.9897 109.229 55.5213 109.338 55.0465 109.338C54.5717 109.338 54.1033 109.229 53.6778 109.018C53.2523 108.807 52.8812 108.501 52.5935 108.124L39.2859 90.751C38.9885 90.3639 38.6066 90.0498 38.1693 89.8327C37.732 89.6156 37.251 89.5012 36.7628 89.4982H15.9297C13.7045 89.4959 11.5711 88.6109 9.99769 87.0375C8.42424 85.464 7.53926 83.3306 7.53694 81.1054V42.8297C7.53926 40.6045 8.42424 38.471 9.99769 36.8976C11.5711 35.3241 13.7045 34.4392 15.9297 34.4368H93.4974ZM93.4974 33.7798H15.9297C13.5296 33.7798 11.2277 34.7332 9.53051 36.4304C7.83334 38.1276 6.87988 40.4295 6.87988 42.8297V81.1229C6.87988 83.5231 7.83334 85.8249 9.53051 87.5221C11.2277 89.2193 13.5296 90.1727 15.9297 90.1727H36.7891C37.1767 90.1744 37.5589 90.2644 37.9066 90.4359C38.2542 90.6075 38.5582 90.856 38.7953 91.1627L52.0941 108.535C52.4431 108.995 52.8935 109.367 53.4102 109.623C53.9269 109.88 54.4959 110.013 55.0728 110.013C55.6496 110.013 56.2186 109.88 56.7353 109.623C57.252 109.367 57.7025 108.995 58.0514 108.535L71.1926 91.189C71.4283 90.8775 71.7328 90.6245 72.0823 90.4497C72.4317 90.275 72.8168 90.1832 73.2075 90.1815H93.5062C94.6946 90.1815 95.8714 89.9474 96.9694 89.4926C98.0674 89.0378 99.0651 88.3712 99.9054 87.5309C100.746 86.6905 101.412 85.6929 101.867 84.5949C102.322 83.4969 102.556 82.3201 102.556 81.1316V42.8297C102.556 40.4295 101.603 38.1276 99.9054 36.4304C98.2082 34.7332 95.9064 33.7798 93.5062 33.7798H93.4974Z" fill="url(#paint1_linear_1_322)"/>
<g opacity="0.6">
<path d="M29.0803 33.7815C28.7523 34.6633 28.4787 35.5671 28.2618 36.488C27.4365 39.993 27.4578 43.6443 28.3241 47.1394C29.1904 50.6346 30.8768 53.8732 33.2436 56.587C33.2436 56.587 34.0233 57.4017 34.7854 58.1464C36.5601 59.8156 37.9704 61.8338 38.9277 64.0742C39.8851 66.3145 40.3688 68.7286 40.3485 71.1649V74.9145H40.4361V82.6677C40.4361 84.2407 41.061 85.7493 42.1733 86.8616C43.2856 87.9739 44.7941 88.5988 46.3672 88.5988H54.2518C55.8248 88.5988 57.3334 87.9739 58.4457 86.8616C59.558 85.7493 60.1829 84.2407 60.1829 82.6677V71.1649C60.1696 68.7245 60.6634 66.3079 61.6331 64.0684C62.6028 61.8289 64.0272 59.8153 65.816 58.1552C66.622 57.3755 67.3754 56.587 67.3754 56.587C71.3324 52.0845 73.3397 46.1951 72.956 40.2132C72.8125 38.0065 72.3475 35.8404 71.5818 33.7815H29.0803Z" fill="url(#paint2_linear_1_322)" style="mix-blend-mode:multiply"/>
</g>
<path d="M44.8184 74.9141H64.6001V82.6673C64.6001 84.2427 63.9743 85.7535 62.8604 86.8674C61.7465 87.9813 60.2357 88.6071 58.6603 88.6071H50.7757C49.2003 88.6071 47.6895 87.9813 46.5756 86.8674C45.4617 85.7535 44.8359 84.2427 44.8359 82.6673V74.9141H44.8184Z" fill="url(#paint3_linear_1_322)"/>
<path d="M71.7915 56.5874C74.6536 53.3074 76.5109 49.2728 77.1416 44.9656C77.7723 40.6584 77.1497 36.2606 75.3482 32.2978C73.5467 28.3349 70.6424 24.9743 66.9824 22.6177C63.3223 20.261 59.0612 19.0078 54.708 19.0078C50.3548 19.0078 46.0937 20.261 42.4336 22.6177C38.7735 24.9743 35.8693 28.3349 34.0678 32.2978C32.2663 36.2606 31.6437 40.6584 32.2744 44.9656C32.9051 49.2728 34.7624 53.3074 37.6245 56.5874C37.6245 56.5874 38.4042 57.4022 39.1664 58.1468C40.9411 59.8161 42.3514 61.8343 43.3087 64.0746C44.2661 66.315 44.7498 68.7291 44.7295 71.1653V74.9149H64.5989V71.1653C64.5856 68.7249 65.0794 66.3084 66.0491 64.0688C67.0188 61.8293 68.4432 59.8157 70.2321 58.1556C71.038 57.3759 71.7915 56.5874 71.7915 56.5874Z" fill="url(#paint4_linear_1_322)"/>
<path d="M54.7097 19.6646C55.1828 19.6646 55.6646 19.6646 56.1377 19.6646C60.2325 19.9291 64.1718 21.3331 67.5108 23.7181C70.8497 26.1032 73.4554 29.3742 75.0335 33.1619C76.6117 36.9496 77.0994 41.1031 76.4417 45.1534C75.7839 49.2036 74.0069 52.9894 71.3113 56.083C71.3113 56.083 70.5667 56.8715 69.7782 57.6337C67.924 59.3537 66.4479 61.4406 65.4434 63.7617C64.4389 66.0828 63.9282 68.5874 63.9435 71.1165V74.209H45.3883V71.1165C45.4073 68.5972 44.9051 66.1013 43.913 63.7855C42.921 61.4697 41.4606 59.3842 39.6237 57.66C38.8878 56.9328 38.1256 56.1356 38.1256 56.1356C35.3435 52.9521 33.5373 49.0346 32.923 44.8516C32.3087 40.6686 32.9123 36.3972 34.6617 32.5482C36.4111 28.6993 39.2321 25.4357 42.7874 23.1478C46.3427 20.8599 50.4819 19.6445 54.7097 19.647M54.7097 18.99C50.3574 18.9908 46.0974 20.2443 42.4382 22.6007C38.779 24.9571 35.8754 28.3169 34.0741 32.2789C32.2728 36.2409 31.6499 40.6377 32.2797 44.9441C32.9096 49.2506 34.7657 53.2847 37.6263 56.5649C37.6263 56.5649 38.4059 57.3796 39.1681 58.1243C40.9428 59.7935 42.3531 61.8117 43.3104 64.052C44.2678 66.2924 44.7515 68.7065 44.7312 71.1428V74.8923H64.6006V71.1428C64.5873 68.7024 65.0811 66.2858 66.0508 64.0463C67.0205 61.8067 68.445 59.7931 70.2338 58.133C71.0398 57.3533 71.7932 56.5649 71.7932 56.5649C74.5727 53.3792 76.4062 49.4798 77.0865 45.3071C77.7668 41.1343 77.2668 36.8545 75.6431 32.9509C74.0193 29.0474 71.3364 25.6756 67.8975 23.2163C64.4585 20.7571 60.4004 19.3083 56.1815 19.0338C55.6909 19.0338 55.2003 19.0338 54.7097 19.0338V18.99Z" fill="url(#paint5_linear_1_322)"/>
<path d="M76.5859 18.6166L83.1126 12.0898C83.4804 11.7239 83.9781 11.5185 84.4969 11.5185C85.0156 11.5185 85.5133 11.7239 85.881 12.0898L86.2052 12.4227C86.3885 12.6037 86.534 12.8192 86.6334 13.0568C86.7327 13.2944 86.7839 13.5494 86.7839 13.807C86.7839 14.0645 86.7327 14.3195 86.6334 14.5571C86.534 14.7947 86.3885 15.0102 86.2052 15.1912L79.6872 21.7442C79.5063 21.9275 79.2908 22.0731 79.0531 22.1724C78.8155 22.2717 78.5605 22.3229 78.303 22.3229C78.0455 22.3229 77.7905 22.2717 77.5528 22.1724C77.3152 22.0731 77.0997 21.9275 76.9188 21.7442L76.5859 21.42C76.3994 21.2373 76.2512 21.0192 76.1501 20.7786C76.049 20.5379 75.9969 20.2794 75.9969 20.0183C75.9969 19.7573 76.049 19.4988 76.1501 19.2581C76.2512 19.0174 76.3994 18.7993 76.5859 18.6166ZM54.4825 13.1411H54.9381C55.1954 13.1423 55.4504 13.0926 55.6884 12.9949C55.9264 12.8973 56.1428 12.7536 56.3252 12.572C56.5075 12.3905 56.6522 12.1748 56.7509 11.9372C56.8497 11.6996 56.9005 11.4448 56.9005 11.1875V1.9624C56.9005 1.44194 56.6937 0.942787 56.3257 0.574764C55.9577 0.206741 55.4585 0 54.9381 0H54.4825C53.962 0 53.4629 0.206741 53.0949 0.574764C52.7269 0.942787 52.5201 1.44194 52.5201 1.9624V11.2313C52.5316 11.7433 52.7437 12.2304 53.1107 12.5876C53.4777 12.9448 53.9704 13.1436 54.4825 13.1411ZM32.5018 21.7442L32.8347 21.42C33.2006 21.0523 33.406 20.5546 33.406 20.0358C33.406 19.5171 33.2006 19.0194 32.8347 18.6516L26.3079 12.1074C25.9402 11.7414 25.4425 11.536 24.9237 11.536C24.405 11.536 23.9073 11.7414 23.5395 12.1074L23.2154 12.4403C23.0321 12.6212 22.8865 12.8367 22.7872 13.0743C22.6879 13.312 22.6367 13.5669 22.6367 13.8245C22.6367 14.082 22.6879 14.337 22.7872 14.5746C22.8865 14.8122 23.0321 15.0277 23.2154 15.2087L29.7334 21.7267C29.9131 21.9111 30.1277 22.058 30.3647 22.1589C30.6017 22.2597 30.8564 22.3125 31.1139 22.3141C31.3715 22.3157 31.6268 22.2662 31.865 22.1684C32.1033 22.0705 32.3197 21.9263 32.5018 21.7442Z" fill="url(#paint6_linear_1_322)"/>
</g>
<defs>
<linearGradient id="paint0_linear_1_322" x1="9.49446" y1="88.0806" x2="99.923" y2="35.8666" gradientUnits="userSpaceOnUse">
<stop stop-color="#E41476"/>
<stop offset="1" stop-color="#00C9F1"/>
</linearGradient>
<linearGradient id="paint1_linear_1_322" x1="9.49935" y1="88.0789" x2="99.9278" y2="35.8648" gradientUnits="userSpaceOnUse">
<stop stop-color="#D00624"/>
<stop offset="0.47743" stop-color="#7462AA"/>
<stop offset="1" stop-color="#03F4FC"/>
</linearGradient>
<linearGradient id="paint2_linear_1_322" x1="50.327" y1="88.5988" x2="50.327" y2="19.0121" gradientUnits="userSpaceOnUse">
<stop stop-opacity="0"/>
<stop offset="1" stop-opacity="0.7"/>
</linearGradient>
<linearGradient id="paint3_linear_1_322" x1="45.6594" y1="85.7248" x2="64.5476" y2="74.8177" gradientUnits="userSpaceOnUse">
<stop stop-color="#15A7DD"/>
<stop offset="0.446518" stop-color="#695AA2"/>
<stop offset="1" stop-color="#C22074"/>
</linearGradient>
<linearGradient id="paint4_linear_1_322" x1="35.6008" y1="59.093" x2="77.0917" y2="35.1411" gradientUnits="userSpaceOnUse">
<stop stop-color="#1CC4EB"/>
<stop offset="0.481406" stop-color="#887ABF"/>
<stop offset="1" stop-color="#DE288F"/>
</linearGradient>
<linearGradient id="paint5_linear_1_322" x1="35.6025" y1="59.088" x2="77.0934" y2="35.1361" gradientUnits="userSpaceOnUse">
<stop stop-color="#2EF3FB"/>
<stop offset="0.488549" stop-color="#8568B4"/>
<stop offset="1" stop-color="#D90835"/>
</linearGradient>
<linearGradient id="paint6_linear_1_322" x1="22.6372" y1="11.1437" x2="86.7834" y2="11.1437" gradientUnits="userSpaceOnUse">
<stop stop-color="#00C9F1"/>
<stop offset="1" stop-color="#E41476"/>
</linearGradient>
<clipPath id="clip0_1_322">
<rect width="110" height="110" fill="white"/>
</clipPath>
</defs>
</svg>
