<svg width="110" height="78" viewBox="0 0 110 78" fill="none" xmlns="http://www.w3.org/2000/svg">
<g clip-path="url(#clip0_110_5)">
<path d="M102.506 0H7.49426C3.35529 0 0 3.35529 0 7.49426V70.4891C0 74.628 3.35529 77.9833 7.49426 77.9833H102.506C106.645 77.9833 110 74.628 110 70.4891V7.49426C110 3.35529 106.645 0 102.506 0Z" fill="url(#paint0_linear_110_5)"/>
<path d="M109.281 19.125H0.693359V30.3524H109.281V19.125Z" fill="url(#paint1_linear_110_5)"/>
<path d="M43.8066 77.2821L43.8066 0.636719L32.5793 0.636719L32.5793 77.2821H43.8066Z" fill="url(#paint2_linear_110_5)"/>
<g opacity="0.6">
<path d="M53.882 17.2057L46.2287 20.3025C45.1568 20.7388 44.2521 21.5058 43.6464 22.4919C42.7808 20.9679 41.5403 19.6902 40.0426 18.7799C38.5448 17.8696 36.8395 17.3569 35.0881 17.2904C33.3367 17.2239 31.5972 17.6057 30.0348 18.3997C28.4723 19.1937 27.1385 20.3736 26.1598 21.8276C25.596 21.156 24.8765 20.6325 24.0641 20.3025L16.4107 17.2057C15.5847 16.8695 14.6887 16.7417 13.8017 16.8336C12.9146 16.9255 12.0639 17.2342 11.3243 17.7324C10.5848 18.2307 9.97919 18.9033 9.56091 19.6909C9.14263 20.4785 8.92447 21.3569 8.92579 22.2486V32.8772C8.92447 33.7689 9.14263 34.6473 9.56091 35.4349C9.97919 36.2225 10.5848 36.8951 11.3243 37.3933C12.0639 37.8916 12.9146 38.2003 13.8017 38.2922C14.6887 38.384 15.5847 38.2563 16.4107 37.9201L23.5213 35.0478L17.0563 46.2751L14.6611 50.4293C14.4619 50.7717 14.3324 51.1502 14.2801 51.5429C14.2278 51.9356 14.2537 52.3347 14.3563 52.7174C14.4589 53.1 14.6362 53.4586 14.878 53.7724C15.1198 54.0863 15.4213 54.3491 15.7652 54.5459L20.256 57.147C20.9497 57.5472 21.7739 57.6558 22.5476 57.4488C23.3212 57.2418 23.981 56.7361 24.3821 56.0429L33.0365 41.0731L34.702 38.1914L37.7052 43.3934L45.0217 56.071C45.4228 56.7642 46.0827 57.2698 46.8564 57.4768C47.63 57.6838 48.4541 57.5753 49.1478 57.175L53.6388 54.574C53.9835 54.3781 54.2858 54.1157 54.5284 53.802C54.7709 53.4882 54.9486 53.1295 55.0513 52.7465C55.154 52.3635 55.1797 51.9639 55.1267 51.5709C55.0737 51.178 54.9432 50.7994 54.7427 50.4573L52.8715 47.2949L45.5176 34.5519C45.7314 34.6759 45.9534 34.7854 46.182 34.8794L53.8352 37.9669C54.6612 38.303 55.5572 38.4308 56.4442 38.3389C57.3312 38.2471 58.182 37.9384 58.9216 37.4401C59.6611 36.9418 60.2668 36.2693 60.6851 35.4817C61.1034 34.6941 61.3214 33.8157 61.3201 32.9239V22.2299C61.3153 21.3456 61.0948 20.4758 60.6778 19.696C60.2608 18.9161 59.6598 18.2498 58.9269 17.7548C58.1941 17.2598 57.3517 16.9511 56.4726 16.8554C55.5934 16.7597 54.7042 16.8799 53.882 17.2057Z" fill="url(#paint3_linear_110_5)" style="mix-blend-mode:multiply"/>
</g>
<path d="M102.506 0.711075C104.307 0.71355 106.033 1.42999 107.306 2.70331C108.579 3.97662 109.296 5.7029 109.298 7.50363V70.5078C109.296 72.3085 108.579 74.0348 107.306 75.3081C106.033 76.5814 104.307 77.2979 102.506 77.3003H7.4849C5.68503 77.2979 3.95977 76.5811 2.68795 75.3075C1.41612 74.0339 0.701708 72.3076 0.70171 70.5078V7.49427C0.701708 5.69439 1.41612 3.96809 2.68795 2.69451C3.95977 1.42093 5.68503 0.704189 7.4849 0.70171H102.506M102.506 0H7.4849C5.49978 0 3.59596 0.78858 2.19227 2.19227C0.78858 3.59596 0 5.49978 0 7.4849V70.4891C0 72.4742 0.78858 74.378 2.19227 75.7817C3.59596 77.1854 5.49978 77.974 7.4849 77.974H102.506C104.491 77.974 106.395 77.1854 107.798 75.7817C109.202 74.378 109.991 72.4742 109.991 70.4891V7.49427C109.991 5.50915 109.202 3.60533 107.798 2.20164C106.395 0.797945 104.491 0.00936527 102.506 0.00936527V0Z" fill="url(#paint4_linear_110_5)"/>
<g opacity="0.3">
<path d="M78.2083 19.125H62.9766V30.3524H78.2083V19.125Z" fill="url(#paint5_linear_110_5)" style="mix-blend-mode:multiply"/>
</g>
<g opacity="0.6">
<path d="M32.5781 7.23075V17.0547H43.8055V7.23075H32.5781Z" fill="url(#paint6_linear_110_5)" style="mix-blend-mode:multiply"/>
</g>
<path d="M44.5645 23.9141L58.6641 48.3354C58.9495 48.8297 59.0268 49.4171 58.8791 49.9684C58.7314 50.5197 58.3707 50.9896 57.8764 51.275L51.8805 54.7367C51.3862 55.0221 50.7989 55.0995 50.2476 54.9518C49.6963 54.804 49.2263 54.4434 48.941 53.9491L34.8413 29.5277L44.5645 23.9141Z" fill="url(#paint7_linear_110_5)"/>
<path d="M44.3928 24.5511L58.2585 48.5683C58.3692 48.7599 58.441 48.9715 58.4699 49.1909C58.4988 49.4103 58.4842 49.6333 58.4268 49.8471C58.3695 50.0608 58.2706 50.2612 58.1357 50.4367C58.0009 50.6122 57.8328 50.7594 57.6411 50.8699L51.6438 54.3316C51.3913 54.4796 51.1037 54.5571 50.8111 54.5562C50.5139 54.5571 50.2217 54.4797 49.9638 54.3319C49.706 54.1841 49.4915 53.9711 49.3421 53.7142L35.4764 29.7157L44.3928 24.5698M44.5611 23.9336L34.8401 29.5473L48.9398 53.9667C49.1294 54.295 49.4022 54.5674 49.7307 54.7563C50.0593 54.9453 50.432 55.0441 50.8111 55.0427C51.1861 55.0428 51.5543 54.9426 51.8777 54.7527L57.875 51.2909C58.1203 51.1504 58.3352 50.9627 58.5076 50.7386C58.68 50.5146 58.8064 50.2587 58.8795 49.9856C58.9525 49.7125 58.9708 49.4277 58.9333 49.1475C58.8957 48.8673 58.8032 48.5973 58.6609 48.3531L44.5611 23.9336Z" fill="url(#paint8_linear_110_5)"/>
<path d="M41.5312 29.5273L27.4316 53.9487C27.1462 54.443 26.6761 54.8036 26.1249 54.9513C25.5736 55.099 24.9862 55.0218 24.4919 54.7364L18.496 51.2746C18.0017 50.9893 17.6411 50.5192 17.4934 49.968C17.3457 49.4167 17.423 48.8293 17.7084 48.335L31.8081 23.9137L41.5312 29.5273Z" fill="url(#paint9_linear_110_5)"/>
<path d="M31.9832 24.5535L40.8997 29.6994L27.0338 53.7166C26.8859 53.9728 26.6732 54.1855 26.417 54.3333C26.1607 54.4811 25.8701 54.5588 25.5743 54.5586C25.2786 54.5607 24.9877 54.4832 24.7322 54.3341L18.7349 50.8723C18.3509 50.6468 18.0693 50.2813 17.949 49.8525C17.8345 49.4197 17.8951 48.9592 18.1175 48.5707L31.9832 24.5535ZM31.8148 23.9173L17.7151 48.3368C17.4443 48.8306 17.3778 49.4109 17.53 49.9532C17.6822 50.4954 18.0409 50.9564 18.5291 51.2372L24.5264 54.699C24.7707 54.8413 25.0406 54.9339 25.3208 54.9714C25.601 55.0089 25.8859 54.9907 26.159 54.9176C26.432 54.8446 26.6879 54.7182 26.9119 54.5458C27.136 54.3733 27.3237 54.1583 27.4643 53.913L41.5639 29.4936L31.8429 23.8799L31.8148 23.9173Z" fill="url(#paint10_linear_110_5)"/>
<g opacity="0.6">
<path d="M32.8318 44.5963L38.291 35.1406L28.5678 29.5269L23.1086 38.9827L32.8318 44.5963Z" fill="url(#paint11_linear_110_5)" style="mix-blend-mode:multiply"/>
</g>
<g opacity="0.6">
<path d="M53.0161 38.5576L47.8047 29.5312L38.0815 35.1449L43.2929 44.1713L53.0161 38.5576Z" fill="url(#paint12_linear_110_5)" style="mix-blend-mode:multiply"/>
</g>
<path d="M19.9009 35.0953L27.5543 32.0078C28.5584 31.6013 29.4183 30.904 30.0234 30.0055C30.6285 29.107 30.9514 28.0481 30.9506 26.9648V22.5207C30.9514 21.4373 30.6285 20.3785 30.0234 19.48C29.4183 18.5814 28.5584 17.8842 27.5543 17.4777L19.9009 14.3808C19.0741 14.0468 18.1779 13.9209 17.2911 14.0143C16.4043 14.1077 15.5539 14.4174 14.8148 14.9163C14.0757 15.4152 13.4704 16.0881 13.0522 16.8756C12.6339 17.6632 12.4155 18.5414 12.416 19.4331V30.0523C12.4147 30.9441 12.6329 31.8225 13.0511 32.6101C13.4694 33.3977 14.075 34.0702 14.8146 34.5685C15.5541 35.0668 16.4049 35.3755 17.2919 35.4673C18.1789 35.5592 19.0749 35.4314 19.9009 35.0953Z" fill="url(#paint13_linear_110_5)"/>
<path d="M57.0637 14.3776L49.4103 17.4651C48.4062 17.8716 47.5463 18.5689 46.9412 19.4674C46.3361 20.3659 46.0132 21.4248 46.014 22.5081V26.9522C46.0132 28.0356 46.3361 29.0944 46.9412 29.9929C47.5463 30.8915 48.4062 31.5887 49.4103 31.9952L57.0637 35.0921C57.8905 35.4261 58.7867 35.552 59.6735 35.4586C60.5603 35.3652 61.4107 35.0555 62.1498 34.5566C62.8889 34.0577 63.4942 33.3848 63.9124 32.5973C64.3307 31.8097 64.5491 30.9315 64.5486 30.0398V19.4206C64.5499 18.5288 64.3317 17.6504 63.9135 16.8628C63.4952 16.0752 62.8896 15.4027 62.15 14.9044C61.4105 14.4061 60.5597 14.0974 59.6727 14.0056C58.7857 13.9137 57.8897 14.0415 57.0637 14.3776Z" fill="url(#paint14_linear_110_5)"/>
<path d="M17.8565 14.4537C18.4981 14.4522 19.1338 14.5762 19.7278 14.8186L27.381 17.9061C28.3012 18.2754 29.0893 18.9125 29.6432 19.7349C30.197 20.5574 30.4911 21.5272 30.4873 22.5187V26.9629C30.4911 27.9544 30.197 28.9242 29.6432 29.7466C29.0893 30.5691 28.3012 31.2062 27.381 31.5754L19.7278 34.663C18.9732 34.9704 18.1545 35.0873 17.3441 35.0031C16.5336 34.9189 15.7564 34.6363 15.0812 34.1802C14.406 33.7242 13.8535 33.1089 13.4727 32.3886C13.0918 31.6682 12.8944 30.8652 12.8977 30.0504V19.4218C12.8977 18.1034 13.4209 16.8387 14.3523 15.9055C15.2838 14.9723 16.5474 14.4468 17.8659 14.4444M17.8659 13.9766C16.4233 13.979 15.0407 14.5539 14.0216 15.5748C13.0024 16.5957 12.4299 17.9793 12.4299 19.4218V30.041C12.4294 30.9328 12.6478 31.811 13.0661 32.5985C13.4843 33.3861 14.0896 34.0589 14.8287 34.5578C15.5678 35.0567 16.4182 35.3665 17.305 35.4599C18.1918 35.5532 19.088 35.4274 19.9148 35.0934L27.5682 31.9965C28.5724 31.59 29.4322 30.8928 30.0373 29.9943C30.6425 29.0957 30.9653 28.0368 30.9645 26.9535V22.5093C30.9653 21.426 30.6425 20.3672 30.0373 19.4687C29.4322 18.5701 28.5724 17.8729 27.5682 17.4664L19.9148 14.3695C19.2662 14.1098 18.574 13.9764 17.8753 13.9766H17.8659Z" fill="url(#paint15_linear_110_5)"/>
<path d="M59.1079 35.0192C58.4664 35.0207 57.8307 34.8967 57.2367 34.6543L49.5835 31.5668C48.6633 31.1975 47.8752 30.5604 47.3213 29.738C46.7675 28.9155 46.4733 27.9457 46.4772 26.9542V22.51C46.4733 21.5185 46.7675 20.5487 47.3213 19.7263C47.8752 18.9038 48.6633 18.2667 49.5835 17.8975L57.2367 14.8099C57.9913 14.5025 58.81 14.3856 59.6204 14.4698C60.4308 14.554 61.208 14.8366 61.8833 15.2927C62.5585 15.7487 63.111 16.364 63.4918 17.0843C63.8726 17.8047 64.0701 18.6077 64.0667 19.4225V30.0511C64.0667 31.3695 63.5436 32.6342 62.6122 33.5674C61.6807 34.5006 60.4171 35.0261 59.0986 35.0285M59.0986 35.4963C60.5411 35.4939 61.9237 34.919 62.9429 33.8981C63.9621 32.8772 64.5345 31.4936 64.5345 30.0511V19.4319C64.5351 18.5401 64.3167 17.6619 63.8984 16.8744C63.4801 16.0868 62.8749 15.414 62.1358 14.9151C61.3967 14.4162 60.5463 14.1064 59.6595 14.013C58.7726 13.9197 57.8765 14.0455 57.0496 14.3795L49.3963 17.4764C48.3921 17.8829 47.5323 18.5801 46.9272 19.4786C46.322 20.3772 45.9992 21.4361 46 22.5194V26.9636C45.9992 28.0469 46.322 29.1057 46.9272 30.0042C47.5323 30.9028 48.3921 31.6 49.3963 32.0065L57.0496 35.1034C57.6983 35.3631 58.3905 35.4965 59.0892 35.4963H59.0986Z" fill="url(#paint16_linear_110_5)"/>
<path d="M38.1921 35.0288C43.8761 35.0288 48.4839 30.421 48.4839 24.7371C48.4839 19.0531 43.8761 14.4453 38.1921 14.4453C32.5082 14.4453 27.9004 19.0531 27.9004 24.7371C27.9004 30.421 32.5082 35.0288 38.1921 35.0288Z" fill="#F5F9FF"/>
<path fill-rule="evenodd" clip-rule="evenodd" d="M38.1922 14.8003C32.7042 14.8003 28.2554 19.2492 28.2554 24.7371C28.2554 30.225 32.7042 34.6738 38.1922 34.6738C43.6801 34.6738 48.1289 30.225 48.1289 24.7371C48.1289 19.2492 43.6801 14.8003 38.1922 14.8003ZM27.5454 24.7371C27.5454 18.857 32.3121 14.0903 38.1922 14.0903C44.0722 14.0903 48.8389 18.857 48.8389 24.7371C48.8389 30.6171 44.0722 35.3838 38.1922 35.3838C32.3121 35.3838 27.5454 30.6171 27.5454 24.7371Z" fill="#615FA7"/>
</g>
<defs>
<linearGradient id="paint0_linear_110_5" x1="-0.757847" y1="71.1908" x2="110.758" y2="6.8019" gradientUnits="userSpaceOnUse">
<stop stop-color="#E41476"/>
<stop offset="1" stop-color="#00C9F1"/>
</linearGradient>
<linearGradient id="paint1_linear_110_5" x1="11.8365" y1="49.654" x2="98.1374" y2="-0.176706" gradientUnits="userSpaceOnUse">
<stop stop-color="#00C9F1"/>
<stop offset="1" stop-color="#E41476"/>
</linearGradient>
<linearGradient id="paint2_linear_110_5" x1="38.193" y1="0.627363" x2="38.193" y2="77.2727" gradientUnits="userSpaceOnUse">
<stop stop-color="#E41476"/>
<stop offset="1" stop-color="#00C9F1"/>
</linearGradient>
<linearGradient id="paint3_linear_110_5" x1="47.8941" y1="15.587" x2="9.92691" y2="66.1101" gradientUnits="userSpaceOnUse">
<stop stop-opacity="0.7"/>
<stop offset="1" stop-opacity="0"/>
</linearGradient>
<linearGradient id="paint4_linear_110_5" x1="-0.767204" y1="71.1908" x2="110.758" y2="6.8019" gradientUnits="userSpaceOnUse">
<stop stop-color="#D00725"/>
<stop offset="0.490115" stop-color="#7E408C"/>
<stop offset="1" stop-color="#02F4FC"/>
</linearGradient>
<linearGradient id="paint5_linear_110_5" x1="62.9766" y1="24.7387" x2="78.2083" y2="24.7387" gradientUnits="userSpaceOnUse">
<stop stop-opacity="0.7"/>
<stop offset="1" stop-opacity="0"/>
</linearGradient>
<linearGradient id="paint6_linear_110_5" x1="38.1918" y1="17.0547" x2="38.1918" y2="7.24011" gradientUnits="userSpaceOnUse">
<stop stop-opacity="0.7"/>
<stop offset="1" stop-opacity="0"/>
</linearGradient>
<linearGradient id="paint7_linear_110_5" x1="39.7029" y1="26.7209" x2="54.8785" y2="53.0058" gradientUnits="userSpaceOnUse">
<stop stop-color="#E41476"/>
<stop offset="1" stop-color="#00C9F1"/>
</linearGradient>
<linearGradient id="paint8_linear_110_5" x1="35.8401" y1="32" x2="57.8401" y2="50" gradientUnits="userSpaceOnUse">
<stop stop-color="#980080"/>
<stop offset="1" stop-color="#0DF4FC"/>
</linearGradient>
<linearGradient id="paint9_linear_110_5" x1="36.6743" y1="26.7124" x2="21.494" y2="53.0055" gradientUnits="userSpaceOnUse">
<stop stop-color="#E41476"/>
<stop offset="1" stop-color="#00C9F1"/>
</linearGradient>
<linearGradient id="paint10_linear_110_5" x1="17.9999" y1="49.4999" x2="37.9999" y2="31.9999" gradientUnits="userSpaceOnUse">
<stop stop-color="#0DF3FB"/>
<stop offset="1" stop-color="#980080"/>
</linearGradient>
<linearGradient id="paint11_linear_110_5" x1="33.4308" y1="32.3501" x2="27.9785" y2="41.7939" gradientUnits="userSpaceOnUse">
<stop stop-opacity="0.7"/>
<stop offset="1" stop-opacity="0"/>
</linearGradient>
<linearGradient id="paint12_linear_110_5" x1="43.1449" y1="32.6689" x2="48.3567" y2="41.696" gradientUnits="userSpaceOnUse">
<stop stop-opacity="0.7"/>
<stop offset="1" stop-opacity="0"/>
</linearGradient>
<linearGradient id="paint13_linear_110_5" x1="29.5565" y1="18.6472" x2="11.1342" y2="29.2945" gradientUnits="userSpaceOnUse">
<stop stop-color="#00C9F1"/>
<stop offset="1" stop-color="#E41476"/>
</linearGradient>
<linearGradient id="paint14_linear_110_5" x1="47.4081" y1="30.8257" x2="65.8304" y2="20.1784" gradientUnits="userSpaceOnUse">
<stop stop-color="#00C9F1"/>
<stop offset="1" stop-color="#E41476"/>
</linearGradient>
<linearGradient id="paint15_linear_110_5" x1="29.5611" y1="18.6453" x2="11.1294" y2="29.2926" gradientUnits="userSpaceOnUse">
<stop stop-color="#0DF0FB"/>
<stop offset="0.50868" stop-color="#7559A3"/>
<stop offset="1" stop-color="#CD0726"/>
</linearGradient>
<linearGradient id="paint16_linear_110_5" x1="47.4034" y1="30.8276" x2="65.835" y2="20.1803" gradientUnits="userSpaceOnUse">
<stop stop-color="#0DF0FB"/>
<stop offset="0.50868" stop-color="#7559A3"/>
<stop offset="1" stop-color="#CD0726"/>
</linearGradient>
<clipPath id="clip0_110_5">
<rect width="110" height="78" fill="white"/>
</clipPath>
</defs>
</svg>
