<svg width="110" height="110" viewBox="0 0 110 110" fill="none" xmlns="http://www.w3.org/2000/svg">
<path d="M66.5694 28.4039H61.0809V19.0581C61.1269 17.1943 60.7995 15.3401 60.118 13.6048C59.4365 11.8694 58.4147 10.2879 57.1127 8.95345C55.8107 7.61898 54.2549 6.5585 52.5369 5.83443C50.8188 5.11036 48.9733 4.7373 47.1089 4.7373C45.2445 4.7373 43.399 5.11036 41.681 5.83443C39.9629 6.5585 38.4071 7.61898 37.1052 8.95345C35.8032 10.2879 34.7814 11.8694 34.0999 13.6048C33.4184 15.3401 33.091 17.1943 33.137 19.0581V28.4039H27.6484V19.0581C27.7548 13.9673 29.8519 9.12083 33.4898 5.55809C37.1278 1.99535 42.017 0 47.1089 0C52.2009 0 57.0901 1.99535 60.7281 5.55809C64.366 9.12083 66.4631 13.9673 66.5694 19.0581V28.4039Z" fill="url(#paint0_linear_1_203)"/>
<g opacity="0.6">
<path d="M66.5686 19.0312H61.0801V28.4025H66.5686V19.0312Z" fill="url(#paint1_linear_1_203)" style="mix-blend-mode:multiply"/>
</g>
<g opacity="0.6">
<path d="M33.137 19.0312H27.6484V28.4025H33.137V19.0312Z" fill="url(#paint2_linear_1_203)" style="mix-blend-mode:multiply"/>
</g>
<path d="M84.5644 88.4225H9.65364C8.74651 88.4232 7.84971 88.2299 7.02337 87.8556C6.19704 87.4814 5.46027 86.9348 4.86246 86.2525C4.26465 85.5702 3.81964 84.768 3.55723 83.8997C3.29482 83.0313 3.22109 82.1169 3.34099 81.2177L9.74711 32.7895C9.94898 31.2578 10.7005 29.8516 11.8617 28.8326C13.0229 27.8136 14.5148 27.2512 16.0598 27.25H78.1583C79.7033 27.2512 81.1952 27.8136 82.3564 28.8326C83.5176 29.8516 84.2691 31.2578 84.471 32.7895L90.8771 81.2177C90.997 82.1169 90.9233 83.0313 90.6609 83.8997C90.3984 84.768 89.9534 85.5702 89.3556 86.2525C88.7578 86.9348 88.021 87.4814 87.1947 87.8556C86.3684 88.2299 85.4716 88.4232 84.5644 88.4225Z" fill="url(#paint3_linear_1_203)"/>
<g opacity="0.6">
<path d="M66.9849 43.8984H68.3686V68.9645C67.4464 69.3861 66.6016 69.9703 65.8769 70.6944C64.6783 71.8918 63.8618 73.4177 63.5307 75.0793C63.1995 76.7408 63.3686 78.4632 64.0166 80.0285C64.6645 81.5939 65.7622 82.932 67.1708 83.8734C67.5532 84.129 67.9538 84.3522 68.3686 84.5418V88.4258H50.3087C50.3902 88.2215 50.4533 88.0093 50.4967 87.7916C50.6363 87.0908 50.5653 86.3644 50.2927 85.7038C50.0202 85.0433 49.5582 84.4782 48.965 84.0798C48.3718 83.6814 47.6739 83.4676 46.9594 83.4651H40.8506C40.3774 83.4651 39.9236 83.2771 39.589 82.9425C39.2544 82.6079 39.0664 82.1541 39.0664 81.6809V71.8254C39.0664 71.3522 39.2544 70.8983 39.589 70.5638C39.9236 70.2291 40.3774 70.0412 40.8506 70.0412H46.9594C47.6739 70.0364 48.371 69.8207 48.9634 69.4212C49.5558 69.0218 50.0171 68.4563 50.2893 67.7956C50.5616 67.135 50.6327 66.4087 50.4937 65.7078C50.3547 65.007 50.0119 64.3627 49.5082 63.8559L45.1922 59.5399C45.0226 59.3738 44.8879 59.1755 44.796 58.9566C44.704 58.7378 44.6566 58.5028 44.6566 58.2654C44.6566 58.0281 44.704 57.7931 44.796 57.5743C44.8879 57.3555 45.0226 57.1571 45.1922 56.991L52.159 50.0242C52.3257 49.8557 52.5242 49.7219 52.743 49.6306C52.9617 49.5393 53.1964 49.4923 53.4334 49.4923C53.6705 49.4923 53.9052 49.5393 54.1239 49.6306C54.3427 49.7219 54.5412 49.8557 54.7079 50.0242L59.0239 54.3402C59.5296 54.8451 60.1734 55.189 60.8742 55.3287C61.575 55.4683 62.3014 55.3973 62.9619 55.1248C63.6225 54.8522 64.1875 54.3902 64.5859 53.797C64.9843 53.2038 65.1982 52.5059 65.2007 51.7914V45.6826C65.2007 45.4483 65.2468 45.2163 65.3365 44.9999C65.4261 44.7834 65.5576 44.5867 65.7232 44.421C65.8889 44.2553 66.0856 44.1239 66.3021 44.0342C66.5185 43.9446 66.7505 43.8984 66.9849 43.8984Z" fill="url(#paint4_linear_1_203)" style="mix-blend-mode:multiply"/>
</g>
<path d="M78.1632 27.9182C79.5528 27.924 80.8935 28.4321 81.938 29.3486C82.9826 30.2651 83.6606 31.5283 83.8471 32.9054L90.2448 81.2827C90.3526 82.092 90.2861 82.9151 90.0497 83.6966C89.8133 84.4782 89.4125 85.2001 88.8742 85.8141C88.3359 86.428 87.6725 86.9198 86.9286 87.2563C86.1846 87.5928 85.3773 87.7663 84.5608 87.7652H9.65852C8.84201 87.7663 8.0347 87.5928 7.29075 87.2563C6.54681 86.9198 5.88345 86.428 5.34515 85.8141C4.80684 85.2001 4.40605 84.4782 4.16966 83.6966C3.93328 82.9151 3.86676 82.092 3.97458 81.2827L10.3807 32.8544C10.5672 31.4774 11.2452 30.2141 12.2898 29.2976C13.3343 28.3811 14.675 27.8731 16.0646 27.8672H78.1632M78.1632 27.23H16.0646C14.5197 27.2312 13.0278 27.7936 11.8666 28.8126C10.7053 29.8316 9.95387 31.2378 9.752 32.7695L3.34587 81.1977C3.22597 82.0969 3.2997 83.0113 3.56211 83.8796C3.82452 84.748 4.26953 85.5502 4.86734 86.2325C5.46515 86.9148 6.20192 87.4614 7.02826 87.8356C7.85459 88.2099 8.75139 88.4031 9.65852 88.4025H84.5693C85.4765 88.4031 86.3733 88.2099 87.1996 87.8356C88.0259 87.4614 88.7627 86.9148 89.3605 86.2325C89.9583 85.5502 90.4033 84.748 90.6657 83.8796C90.9281 83.0113 91.0019 82.0969 90.882 81.1977L84.4759 32.7695C84.274 31.2378 83.5225 29.8316 82.3613 28.8126C81.2 27.7936 79.7081 27.2312 78.1632 27.23Z" fill="url(#paint5_linear_1_203)"/>
<path d="M106.135 66.8836H100.035C99.3207 66.8811 98.6228 66.6672 98.0296 66.2688C97.4364 65.8704 96.9744 65.3054 96.7019 64.6449C96.4293 63.9843 96.3583 63.2579 96.498 62.5571C96.6376 61.8563 96.9815 61.2125 97.4864 60.7069L101.802 56.3908C101.972 56.2247 102.107 56.0264 102.199 55.8076C102.291 55.5887 102.338 55.3537 102.338 55.1164C102.338 54.879 102.291 54.644 102.199 54.4252C102.107 54.2063 101.972 54.0081 101.802 53.8419L94.8356 46.8751C94.6707 46.7034 94.4728 46.5668 94.2538 46.4735C94.0348 46.3802 93.7992 46.3321 93.5612 46.3321C93.3231 46.3321 93.0875 46.3802 92.8685 46.4735C92.6495 46.5668 92.4516 46.7034 92.2867 46.8751L87.9707 51.1911C87.465 51.696 86.8212 52.04 86.1204 52.1796C85.4197 52.3192 84.6932 52.2482 84.0327 51.9756C83.3721 51.7031 82.8071 51.2411 82.4087 50.6479C82.0103 50.0547 81.7964 49.3568 81.7939 48.6423V42.542C81.7917 42.0681 81.6018 41.6143 81.2659 41.2799C80.9299 40.9455 80.4753 40.7578 80.0013 40.7578H70.1457C69.9114 40.7578 69.6794 40.804 69.4629 40.8936C69.2464 40.9833 69.0498 41.1147 68.8841 41.2804C68.7184 41.4461 68.587 41.6428 68.4973 41.8592C68.4076 42.0757 68.3615 42.3077 68.3615 42.542V48.6423C68.3591 49.3568 68.1452 50.0547 67.7468 50.6479C67.3484 51.2411 66.7833 51.7031 66.1228 51.9756C65.4622 52.2482 64.7358 52.3192 64.035 52.1796C63.3342 52.04 62.6904 51.696 62.1848 51.1911L57.8687 46.8751C57.7038 46.7034 57.5059 46.5668 57.2869 46.4735C57.0679 46.3802 56.8323 46.3321 56.5943 46.3321C56.3562 46.3321 56.1207 46.3802 55.9017 46.4735C55.6827 46.5668 55.4848 46.7034 55.3199 46.8751L48.3445 53.8419C48.175 54.0081 48.0403 54.2063 47.9483 54.4252C47.8563 54.644 47.809 54.879 47.809 55.1164C47.809 55.3537 47.8563 55.5887 47.9483 55.8076C48.0403 56.0264 48.175 56.2247 48.3445 56.3908L52.6606 60.7069C53.1654 61.2125 53.5094 61.8563 53.649 62.5571C53.7886 63.2579 53.7176 63.9843 53.4451 64.6449C53.1725 65.3054 52.7105 65.8704 52.1173 66.2688C51.5241 66.6672 50.8263 66.8811 50.1117 66.8836H44.0029C43.7679 66.8836 43.5352 66.93 43.3182 67.0202C43.1012 67.1104 42.9041 67.2425 42.7383 67.4091C42.5725 67.5757 42.4413 67.7734 42.3521 67.9908C42.263 68.2083 42.2177 68.4412 42.2188 68.6762V78.5318C42.2188 79.005 42.4067 79.4588 42.7413 79.7934C43.0759 80.128 43.5297 80.316 44.0029 80.316H50.1117C50.8263 80.3184 51.5241 80.5324 52.1173 80.9308C52.7105 81.3292 53.1725 81.8942 53.4451 82.5548C53.7176 83.2153 53.7886 83.9417 53.649 84.6425C53.5094 85.3433 53.1654 85.9871 52.6606 86.4927L48.3445 90.8088C48.175 90.9749 48.0403 91.1732 47.9483 91.392C47.8563 91.6109 47.809 91.8459 47.809 92.0832C47.809 92.3206 47.8563 92.5555 47.9483 92.7744C48.0403 92.9932 48.175 93.1915 48.3445 93.3577L55.3199 100.333C55.486 100.503 55.6843 100.637 55.9031 100.729C56.1219 100.821 56.3569 100.869 56.5943 100.869C56.8317 100.869 57.0666 100.821 57.2855 100.729C57.5043 100.637 57.7026 100.503 57.8687 100.333L62.1848 96.017C62.6904 95.5121 63.3342 95.1681 64.035 95.0285C64.7358 94.8889 65.4622 94.9599 66.1228 95.2324C66.7833 95.505 67.3484 95.967 67.7468 96.5602C68.1452 97.1534 68.3591 97.8513 68.3615 98.5658V104.675C68.3615 105.148 68.5495 105.602 68.8841 105.936C69.2187 106.271 69.6725 106.459 70.1457 106.459H80.0437C80.5177 106.459 80.9724 106.271 81.3084 105.937C81.6443 105.602 81.8342 105.149 81.8364 104.675V98.5658C81.8389 97.8513 82.0528 97.1534 82.4512 96.5602C82.8495 95.967 83.4146 95.505 84.0752 95.2324C84.7357 94.9599 85.4621 94.8889 86.1629 95.0285C86.8637 95.1681 87.5075 95.5121 88.0132 96.017L92.3292 100.333C92.4953 100.503 92.6936 100.637 92.9125 100.729C93.1313 100.821 93.3663 100.869 93.6036 100.869C93.841 100.869 94.076 100.821 94.2948 100.729C94.5137 100.637 94.7119 100.503 94.8781 100.333L101.845 93.3577C102.014 93.1915 102.149 92.9932 102.241 92.7744C102.333 92.5555 102.38 92.3206 102.38 92.0832C102.38 91.8459 102.333 91.6109 102.241 91.392C102.149 91.1732 102.014 90.9749 101.845 90.8088L97.5289 86.4927C97.024 85.9871 96.6801 85.3433 96.5404 84.6425C96.4008 83.9417 96.4718 83.2153 96.7443 82.5548C97.0169 81.8942 97.4789 81.3292 98.0721 80.9308C98.6653 80.5324 99.3632 80.3184 100.078 80.316H106.178C106.651 80.316 107.105 80.128 107.44 79.7934C107.774 79.4588 107.962 79.005 107.962 78.5318V68.6762C107.963 68.4376 107.917 68.2012 107.825 67.9809C107.733 67.7606 107.598 67.561 107.428 67.3938C107.257 67.2267 107.055 67.0954 106.833 67.0077C106.611 66.9201 106.374 66.8779 106.135 66.8836ZM75.082 82.1767C73.3871 82.1767 71.7302 81.6738 70.3213 80.7316C68.9124 79.7894 67.8148 78.4504 67.1673 76.884C66.5199 75.3176 66.3518 73.5943 66.6843 71.9324C67.0168 70.2704 67.835 68.7444 69.0353 67.5477C70.2355 66.351 71.7639 65.5374 73.4269 65.2098C75.0898 64.8823 76.8126 65.0555 78.377 65.7077C79.9415 66.3598 81.2772 67.4614 82.2152 68.8731C83.1532 70.2848 83.6512 71.9431 83.6461 73.638C83.6304 75.8983 82.7209 78.0604 81.1163 79.6523C79.5117 81.2442 77.3423 82.1365 75.082 82.1342V82.1767Z" fill="url(#paint6_linear_1_203)"/>
<path d="M80.048 41.4033C80.1993 41.4022 80.3494 41.431 80.4895 41.4881C80.6297 41.5453 80.7571 41.6296 80.8645 41.7362C80.9719 41.8428 81.0572 41.9697 81.1154 42.1094C81.1735 42.2491 81.2035 42.3989 81.2035 42.5503V48.6506C81.1986 49.4943 81.445 50.3204 81.9115 51.0236C82.3779 51.7267 83.0432 52.275 83.8225 52.5986C84.6018 52.9222 85.4598 53.0063 86.2871 52.8404C87.1144 52.6744 87.8735 52.2658 88.4677 51.6667L92.7838 47.3506C92.8883 47.2423 93.0138 47.1564 93.1525 47.098C93.2912 47.0396 93.4404 47.0099 93.5909 47.0108C93.7483 47.0061 93.9049 47.0339 94.0511 47.0923C94.1972 47.1508 94.3298 47.2387 94.4405 47.3506L101.407 54.3175C101.514 54.424 101.599 54.5505 101.656 54.6897C101.714 54.8289 101.744 54.9782 101.744 55.1289C101.744 55.2796 101.714 55.4288 101.656 55.568C101.599 55.7072 101.514 55.8337 101.407 55.9402L97.0403 60.2563C96.4412 60.8505 96.0326 61.6096 95.8667 62.4369C95.7007 63.2642 95.7849 64.1222 96.1084 64.9015C96.432 65.6808 96.9803 66.3461 97.6834 66.8125C98.3866 67.279 99.2127 67.5254 100.056 67.5205H106.157C106.308 67.5205 106.458 67.5505 106.598 67.6086C106.737 67.6668 106.864 67.7521 106.971 67.8595C107.077 67.9669 107.162 68.0944 107.219 68.2345C107.276 68.3746 107.305 68.5247 107.304 68.676V78.5316C107.304 78.8358 107.183 79.1275 106.968 79.3426C106.753 79.5577 106.461 79.6786 106.157 79.6786H100.056C99.2127 79.6737 98.3866 79.9202 97.6834 80.3866C96.9803 80.8531 96.432 81.5183 96.1084 82.2976C95.7849 83.0769 95.7007 83.9349 95.8667 84.7622C96.0326 85.5895 96.4412 86.3486 97.0403 86.9428L101.356 91.2589C101.463 91.3654 101.548 91.4919 101.605 91.6311C101.663 91.7703 101.693 91.9195 101.693 92.0703C101.693 92.221 101.663 92.3702 101.605 92.5094C101.548 92.6486 101.463 92.7751 101.356 92.8817L94.3895 99.857C94.2772 99.9662 94.1442 100.052 93.9983 100.109C93.8523 100.166 93.6965 100.193 93.5399 100.188C93.3902 100.189 93.2418 100.16 93.1033 100.103C92.9648 100.046 92.8389 99.9626 92.7328 99.857L88.4167 95.541C87.8231 94.9424 87.0647 94.5339 86.2382 94.3677C85.4117 94.2015 84.5544 94.2849 83.7755 94.6074C82.9965 94.9299 82.3312 95.4769 81.8641 96.1787C81.397 96.8806 81.1493 97.7055 81.1525 98.5486V104.657C81.1502 104.962 81.0275 105.254 80.8111 105.469C80.5946 105.684 80.302 105.804 79.997 105.804H70.1415C69.8373 105.804 69.5455 105.683 69.3304 105.468C69.1153 105.253 68.9945 104.962 68.9945 104.657V98.5486C68.9977 97.7055 68.75 96.8806 68.2829 96.1787C67.8158 95.4769 67.1504 94.9299 66.3715 94.6074C65.5925 94.2849 64.7353 94.2015 63.9088 94.3677C63.0823 94.5339 62.3239 94.9424 61.7302 95.541L57.4142 99.857C57.3019 99.9662 57.1688 100.052 57.0229 100.109C56.877 100.166 56.7211 100.193 56.5646 100.188C56.4148 100.189 56.2665 100.16 56.128 100.103C55.9895 100.046 55.8636 99.9626 55.7574 99.857L48.7821 92.8817C48.5665 92.6681 48.4443 92.3779 48.4422 92.0745C48.4395 91.9174 48.4681 91.7613 48.5265 91.6154C48.5849 91.4695 48.6718 91.3368 48.7821 91.2249L53.0981 86.9088C53.6967 86.3151 54.1051 85.5568 54.2713 84.7303C54.4376 83.9038 54.3541 83.0465 54.0316 82.2676C53.7091 81.4886 53.1621 80.8233 52.4603 80.3562C51.7585 79.8891 50.9335 79.6414 50.0905 79.6446H43.9817C43.6782 79.6424 43.3878 79.5208 43.1731 79.3062C42.9585 79.0916 42.837 78.8011 42.8348 78.4976V68.642C42.8347 68.337 42.9553 68.0444 43.1702 67.828C43.385 67.6115 43.6767 67.4888 43.9817 67.4866H50.0905C50.9335 67.4898 51.7585 67.242 52.4603 66.7749C53.1621 66.3078 53.7091 65.6425 54.0316 64.8636C54.3541 64.0846 54.4376 63.2273 54.2713 62.4008C54.1051 61.5743 53.6967 60.816 53.0981 60.2223L48.7821 55.9063C48.5665 55.6928 48.4443 55.4025 48.4422 55.0991C48.4395 54.942 48.4681 54.786 48.5265 54.6401C48.5849 54.4942 48.6718 54.3614 48.7821 54.2495L55.7574 47.2826C55.862 47.1744 55.9874 47.0884 56.1262 47.03C56.2649 46.9716 56.414 46.9419 56.5646 46.9428C56.7219 46.9381 56.8786 46.9659 57.0247 47.0243C57.1709 47.0828 57.3035 47.1707 57.4142 47.2826L61.7302 51.5987C62.3244 52.1978 63.0836 52.6064 63.9109 52.7724C64.7382 52.9383 65.5962 52.8542 66.3754 52.5306C67.1547 52.2071 67.82 51.6587 68.2864 50.9556C68.7529 50.2524 68.9994 49.4264 68.9945 48.5826V42.4823C68.9933 42.3314 69.0222 42.1817 69.0795 42.0421C69.1367 41.9024 69.2212 41.7755 69.3279 41.6687C69.4346 41.562 69.5615 41.4776 69.7012 41.4204C69.8409 41.3631 69.9905 41.3342 70.1415 41.3353H80.048M75.1202 82.7287C76.9437 82.7235 78.7244 82.1767 80.2365 81.1576C81.7486 80.1385 82.9238 78.6931 83.613 77.0049C84.3021 75.3167 84.4741 73.4618 84.1072 71.6757C83.7402 69.8896 82.8508 68.2527 81.5519 66.9729C80.253 65.6932 78.6032 64.8282 76.8118 64.4878C75.0204 64.1474 73.1683 64.3469 71.4905 65.061C69.8127 65.7752 68.3849 66.9717 67.3884 68.4987C66.3918 70.0258 65.8715 71.8145 65.8934 73.6378C65.8979 76.0745 66.8678 78.4102 68.5909 80.1332C70.3139 81.8562 72.6495 82.8262 75.0862 82.8307M80.014 40.8H70.1584C69.6852 40.8 69.2314 40.9881 68.8968 41.3227C68.5622 41.6573 68.3743 42.1111 68.3743 42.5843V48.6845C68.3754 49.1627 68.2817 49.6363 68.0988 50.0781C67.9158 50.5199 67.6471 50.921 67.3082 51.2584C66.9693 51.5957 66.5669 51.8625 66.1243 52.0434C65.6816 52.2243 65.2075 52.3158 64.7294 52.3124C64.2552 52.3141 63.7855 52.2209 63.3478 52.0386C62.9101 51.8562 62.5132 51.5882 62.1805 51.2504L57.8645 46.9343C57.529 46.5979 57.0737 46.4085 56.5985 46.4076C56.3645 46.4077 56.1328 46.4543 55.917 46.5448C55.7011 46.6352 55.5054 46.7676 55.3411 46.9343L48.3657 53.9012C48.1962 54.0673 48.0615 54.2656 47.9696 54.4844C47.8776 54.7033 47.8302 54.9382 47.8302 55.1756C47.8302 55.413 47.8776 55.6479 47.9696 55.8668C48.0615 56.0856 48.1962 56.2839 48.3657 56.45L52.6818 60.7661C53.1867 61.2717 53.5306 61.9155 53.6702 62.6163C53.8098 63.3171 53.7389 64.0435 53.4663 64.7041C53.1938 65.3646 52.7318 65.9297 52.1386 66.3281C51.5454 66.7265 50.8475 66.9404 50.133 66.9428H44.0242C43.7892 66.9428 43.5565 66.9892 43.3394 67.0794C43.1224 67.1696 42.9254 67.3018 42.7596 67.4684C42.5938 67.6349 42.4625 67.8326 42.3734 68.0501C42.2842 68.2675 42.2389 68.5005 42.24 68.7355V78.5911C42.24 79.0643 42.428 79.5181 42.7626 79.8527C43.0972 80.1873 43.551 80.3753 44.0242 80.3753H50.133C50.8475 80.3777 51.5454 80.5916 52.1386 80.99C52.7318 81.3884 53.1938 81.9535 53.4663 82.614C53.7389 83.2745 53.8098 84.001 53.6702 84.7017C53.5306 85.4025 53.1867 86.0463 52.6818 86.552L48.3657 90.8681C48.1962 91.0342 48.0615 91.2325 47.9696 91.4513C47.8776 91.6701 47.8302 91.9051 47.8302 92.1425C47.8302 92.3799 47.8776 92.6148 47.9696 92.8336C48.0615 93.0525 48.1962 93.2508 48.3657 93.4169L55.3411 100.392C55.5058 100.558 55.7018 100.689 55.9177 100.778C56.1336 100.867 56.365 100.912 56.5985 100.91C56.8333 100.912 57.0659 100.866 57.2832 100.778C57.5004 100.689 57.6979 100.558 57.8645 100.392L62.1805 96.0762C62.5117 95.7356 62.908 95.4654 63.346 95.2814C63.7839 95.0975 64.2544 95.0037 64.7294 95.0057C65.2075 95.0023 65.6816 95.0937 66.1243 95.2746C66.5669 95.4555 66.9693 95.7224 67.3082 96.0597C67.6471 96.397 67.9158 96.7982 68.0988 97.2399C68.2817 97.6817 68.3754 98.1554 68.3743 98.6335V104.742C68.3743 105.215 68.5622 105.669 68.8968 106.004C69.2314 106.339 69.6852 106.527 70.1584 106.527H80.048C80.522 106.527 80.9767 106.339 81.3126 106.004C81.6486 105.67 81.8384 105.216 81.8407 104.742V98.6335C81.8395 98.1554 81.9332 97.6817 82.1162 97.2399C82.2991 96.7982 82.5678 96.397 82.9067 96.0597C83.2457 95.7224 83.6481 95.4555 84.0907 95.2746C84.5333 95.0937 85.0074 95.0023 85.4855 95.0057C85.9604 95.0047 86.4306 95.0989 86.8684 95.2828C87.3062 95.4666 87.7027 95.7364 88.0344 96.0762L92.3505 100.392C92.5152 100.558 92.7112 100.689 92.9271 100.778C93.143 100.867 93.3744 100.912 93.6079 100.91C93.8426 100.912 94.0753 100.866 94.2925 100.778C94.5097 100.689 94.7073 100.558 94.8738 100.392L101.841 93.4169C102.01 93.2508 102.145 93.0525 102.237 92.8336C102.329 92.6148 102.376 92.3799 102.376 92.1425C102.376 91.9051 102.329 91.6701 102.237 91.4513C102.145 91.2325 102.01 91.0342 101.841 90.8681L97.5246 86.552C97.0197 86.0463 96.6758 85.4025 96.5362 84.7017C96.3966 84.001 96.4676 83.2745 96.7401 82.614C97.0127 81.9535 97.4747 81.3884 98.0679 80.99C98.6611 80.5916 99.3589 80.3777 100.073 80.3753H106.174C106.647 80.3753 107.101 80.1873 107.435 79.8527C107.77 79.5181 107.958 79.0643 107.958 78.5911V68.7355C107.959 68.5005 107.914 68.2675 107.825 68.0501C107.735 67.8326 107.604 67.6349 107.438 67.4684C107.273 67.3018 107.076 67.1696 106.858 67.0794C106.641 66.9892 106.409 66.9428 106.174 66.9428H100.073C99.3589 66.9404 98.6611 66.7265 98.0679 66.3281C97.4747 65.9297 97.0127 65.3646 96.7401 64.7041C96.4676 64.0435 96.3966 63.3171 96.5362 62.6163C96.6758 61.9155 97.0197 61.2717 97.5246 60.7661L101.841 56.45C102.01 56.2839 102.145 56.0856 102.237 55.8668C102.329 55.6479 102.376 55.413 102.376 55.1756C102.376 54.9382 102.329 54.7033 102.237 54.4844C102.145 54.2656 102.01 54.0673 101.841 53.9012L94.8738 46.9343C94.5383 46.5979 94.083 46.4085 93.6079 46.4076C93.3739 46.4077 93.1422 46.4543 92.9263 46.5448C92.7105 46.6352 92.5147 46.7676 92.3505 46.9343L88.0344 51.2504C87.7011 51.5875 87.3042 51.8549 86.8666 52.0373C86.429 52.2196 85.9596 52.3131 85.4855 52.3124C85.0074 52.3158 84.5333 52.2243 84.0907 52.0434C83.6481 51.8625 83.2457 51.5957 82.9067 51.2584C82.5678 50.921 82.2991 50.5199 82.1162 50.0781C81.9332 49.6363 81.8395 49.1627 81.8407 48.6845V42.5843C81.8384 42.1103 81.6486 41.6565 81.3126 41.3221C80.9767 40.9878 80.522 40.8 80.048 40.8H80.014ZM75.0862 82.134C73.3895 82.1339 71.7311 81.6299 70.3213 80.6858C68.9115 79.7417 67.8138 78.4001 67.1677 76.8313C66.5215 75.2624 66.356 73.537 66.692 71.8739C67.0279 70.2108 67.8504 68.685 69.0549 67.49C70.2594 66.295 71.7918 65.4848 73.4575 65.162C75.1232 64.8393 76.8473 65.0186 78.411 65.6772C79.9746 66.3359 81.3074 67.4442 82.2402 68.8614C83.173 70.2787 83.6638 71.9411 83.6504 73.6378C83.6347 75.898 82.7252 78.0602 81.1205 79.6521C79.5159 81.244 77.3465 82.1363 75.0862 82.134Z" fill="url(#paint7_linear_1_203)"/>
<path d="M75.0809 82.6187C80.0594 82.6187 84.0953 78.5828 84.0953 73.6043C84.0953 68.6257 80.0594 64.5898 75.0809 64.5898C70.1023 64.5898 66.0664 68.6257 66.0664 73.6043C66.0664 78.5828 70.1023 82.6187 75.0809 82.6187Z" fill="#F5F9FF"/>
<path fill-rule="evenodd" clip-rule="evenodd" d="M75.0809 64.9648C70.3094 64.9648 66.4414 68.8329 66.4414 73.6043C66.4414 78.3757 70.3094 82.2437 75.0809 82.2437C79.8523 82.2437 83.7203 78.3757 83.7203 73.6043C83.7203 68.8329 79.8523 64.9648 75.0809 64.9648ZM65.6914 73.6043C65.6914 68.4186 69.8952 64.2148 75.0809 64.2148C80.2665 64.2148 84.4703 68.4186 84.4703 73.6043C84.4703 78.7899 80.2665 82.9937 75.0809 82.9937C69.8952 82.9937 65.6914 78.7899 65.6914 73.6043Z" fill="#615FA7"/>
<defs>
<linearGradient id="paint0_linear_1_203" x1="28.0563" y1="29.1006" x2="63.5533" y2="8.6078" gradientUnits="userSpaceOnUse">
<stop stop-color="#E41476"/>
<stop offset="1" stop-color="#00C9F1"/>
</linearGradient>
<linearGradient id="paint1_linear_1_203" x1="63.8243" y1="28.411" x2="63.8243" y2="19.0312" gradientUnits="userSpaceOnUse">
<stop stop-opacity="0.7"/>
<stop offset="1" stop-opacity="0"/>
</linearGradient>
<linearGradient id="paint2_linear_1_203" x1="30.3927" y1="28.411" x2="30.3927" y2="19.0312" gradientUnits="userSpaceOnUse">
<stop stop-opacity="0.7"/>
<stop offset="1" stop-opacity="0"/>
</linearGradient>
<linearGradient id="paint3_linear_1_203" x1="3.82527" y1="84.7011" x2="87.1898" y2="36.5618" gradientUnits="userSpaceOnUse">
<stop stop-color="#E41476"/>
<stop offset="1" stop-color="#00C9F1"/>
</linearGradient>
<linearGradient id="paint4_linear_1_203" x1="71.9466" y1="109.574" x2="71.9466" y2="43.8984" gradientUnits="userSpaceOnUse">
<stop stop-opacity="0"/>
<stop offset="1" stop-opacity="0.7"/>
</linearGradient>
<linearGradient id="paint5_linear_1_203" x1="3.83015" y1="84.6981" x2="87.1946" y2="36.5588" gradientUnits="userSpaceOnUse">
<stop stop-color="#D00725"/>
<stop offset="0.461805" stop-color="#784D99"/>
<stop offset="1" stop-color="#04F4FC"/>
</linearGradient>
<linearGradient id="paint6_linear_1_203" x1="42.2443" y1="73.604" x2="107.92" y2="73.604" gradientUnits="userSpaceOnUse">
<stop stop-color="#00C9F1"/>
<stop offset="1" stop-color="#E41476"/>
</linearGradient>
<linearGradient id="paint7_linear_1_203" x1="42.2485" y1="73.6038" x2="107.924" y2="73.6038" gradientUnits="userSpaceOnUse">
<stop stop-color="#44DCF0"/>
<stop offset="0.529514" stop-color="#764E99"/>
<stop offset="1" stop-color="#D00624"/>
</linearGradient>
</defs>
</svg>
