<svg width="180" height="180" viewBox="0 0 180 180" fill="none" xmlns="http://www.w3.org/2000/svg">
<path d="M180 90C180 139.706 139.706 180 90 180C40.2944 180 0 139.706 0 90C0 40.2944 40.2944 0 90 0C139.706 0 180 40.2944 180 90Z" fill="#181D24"/>
<path d="M0.0947601 85.8329L145.2 65.4V161.089C129.958 172.942 110.803 180 90 180C40.2944 180 0 139.706 0 90C0 88.6033 0.0318151 87.2141 0.0947601 85.8329Z" fill="#987F62"/>
<path d="M10.0734 48.5906L108 34.8V178.2C105.08 178.793 102.108 179.245 99.0891 179.548V45.0633L5.80781 58.1227C7.05 54.8484 8.475 51.668 10.0734 48.5906Z" fill="white"/>
</svg>
