<svg width="180" height="180" viewBox="0 0 180 180" fill="none" xmlns="http://www.w3.org/2000/svg">
<path d="M180 90C180 139.706 139.706 180 90 180C40.2944 180 0 139.706 0 90C0 40.2944 40.2944 0 90 0C139.706 0 180 40.2944 180 90Z" fill="#181D24"/>
<path d="M77.7647 124.5V81.7363L38 97.91V124.5H77.7647Z" fill="white"/>
<path fill-rule="evenodd" clip-rule="evenodd" d="M77.7646 66.0647L142 40.5V124.498H127.751L127.746 124.5H114.764L114.769 124.498H101.784L101.78 124.5H88.7975L88.8018 124.498H77.7646V66.0647ZM82.6126 70.0402V75.2204L137.152 53.4825V48.3023L82.6126 70.0402ZM137.152 58.6567L82.6126 80.3946V85.5689L137.152 63.831V58.6567ZM137.152 69.0052L82.6126 90.7431V95.9174L137.152 74.1795V69.0052ZM137.152 79.3537L82.6126 101.092V106.261L137.152 84.5232V79.3537ZM137.152 89.6974L82.6126 111.435V116.611L137.152 94.8728V89.6974ZM137.152 100.047L87.8476 119.698H100.845L137.152 105.227V100.047ZM137.152 110.401L113.827 119.698H126.811L137.152 115.577V110.401Z" fill="#987F62"/>
</svg>
