<svg width="310" height="100" viewBox="0 0 310 100" fill="none" xmlns="http://www.w3.org/2000/svg">
<g clip-path="url(#clip0_458_257)">
<mask id="mask0_458_257" style="mask-type:luminance" maskUnits="userSpaceOnUse" x="0" y="0" width="310" height="100">
<path d="M310 0H0V99.3902H310V0Z" fill="white"/>
</mask>
<g mask="url(#mask0_458_257)">
<path d="M0 39.5134H8.6996C13.9684 39.5134 16.664 41.5866 16.664 45.611C16.664 48.2939 15.4387 50.0012 12.9881 50.8549C14.581 51.0988 15.6838 51.8305 16.5415 52.8061C17.3992 53.9037 17.8893 55.1232 17.8893 56.7086C17.8893 61.0988 15.0711 63.2939 9.55731 63.2939H0V39.5134ZM2.69565 41.9525V49.8793H8.94466C12.3755 49.8793 14.0909 48.5378 14.0909 45.9768C14.0909 44.7573 13.7233 43.7817 12.9881 43.172C12.253 42.4403 10.9051 42.0744 8.94466 42.0744L2.69565 41.9525ZM2.69565 52.0744V60.8549H10.0474C13.6008 60.8549 15.4387 59.3915 15.4387 56.4647C15.4387 55.1232 14.9486 54.0256 14.0909 53.2939C13.2332 52.4403 11.8854 52.0744 10.0474 52.0744H2.69565ZM27.0791 56.9525L24.5059 63.2939H21.5652L31.4901 39.5134H32.9605L42.8854 63.2939H39.9447L37.3715 56.9525C37.249 56.9525 27.0791 56.9525 27.0791 56.9525ZM32.2253 44.3915L28.0593 54.5134H36.3913L32.2253 44.3915ZM77.0712 63.2939H48.2767V39.5134H50.9723V60.8549H61.2648V39.5134H63.9605V60.8549H74.3755V39.5134H77.0712V63.2939ZM102.68 63.2939H99.9842V44.6354L86.0158 63.2939H84.5455V39.5134H87.2411V58.172L101.209 39.5134H102.68V63.2939ZM140.787 43.9037V63.2939H136.008V43.9037H129.391V39.5134H147.281V43.9037C147.403 43.9037 140.787 43.9037 140.787 43.9037ZM157.451 49.1476H167.866V53.5378H157.451V58.9037H168.723V63.2939H152.794V39.5134H168.723V43.9037H157.451V49.1476ZM174.85 39.5134H182.692C186 39.5134 188.573 40.3671 190.534 42.0744C192.494 43.7817 193.352 45.9768 193.352 48.6598C193.352 51.3427 192.372 53.5378 190.534 55.2451C188.573 56.9525 186 57.8061 182.692 57.8061H179.506V63.2939H174.727L174.85 39.5134ZM179.506 53.4159H183.059C184.775 53.4159 186.123 53.05 187.225 52.1964C188.328 51.3427 188.941 50.2451 188.941 48.6598C188.941 47.1964 188.328 45.9768 187.225 45.1232C186.123 44.2695 184.775 43.9037 183.059 43.9037H179.506V53.4159ZM199.356 39.5134H207.198C210.506 39.5134 213.079 40.3671 215.04 42.0744C217 43.7817 217.858 45.9768 217.858 48.6598C217.858 51.3427 216.877 53.5378 215.04 55.2451C213.079 56.9525 210.506 57.8061 207.198 57.8061H204.012V63.2939H199.233L199.356 39.5134ZM204.012 53.4159H207.565C209.281 53.4159 210.628 53.05 211.731 52.1964C212.834 51.3427 213.447 50.2451 213.447 48.6598C213.447 47.1964 212.834 45.9768 211.731 45.1232C210.628 44.2695 209.281 43.9037 207.565 43.9037H204.012V53.4159ZM226.312 58.9037L224.597 63.2939H219.328L229.13 39.5134H231.949L241.628 63.2939H236.482L234.767 58.9037H226.312ZM230.601 48.05L228.028 54.5134H233.174L230.601 48.05ZM255.229 39.2695C258.783 39.2695 261.846 40.611 264.296 43.172L261.233 45.9768C259.64 44.3915 257.68 43.6598 255.229 43.6598C253.146 43.6598 251.308 44.3915 249.838 45.8549C248.368 47.3183 247.755 49.1476 247.755 51.4647C247.755 53.7817 248.49 55.611 249.838 57.0744C251.308 58.5378 253.024 59.2695 255.229 59.2695C257.68 59.2695 259.64 58.5378 261.233 56.9525L264.296 59.7573C261.846 62.4403 258.783 63.6598 255.229 63.6598C251.798 63.6598 248.98 62.4403 246.652 60.1232C244.324 57.6842 243.099 54.8793 243.099 51.4647C243.099 48.05 244.324 45.2451 246.652 42.9281C248.98 40.489 251.921 39.2695 255.229 39.2695ZM274.589 48.2939H279.98C282.676 48.2939 284.759 49.0256 286.107 50.3671C287.455 51.7086 288.19 53.5378 288.19 55.8549C288.19 58.172 287.455 60.0012 286.107 61.3427C284.759 62.6842 282.676 63.2939 279.98 63.2939H269.933V39.5134H274.711V48.2939H274.589ZM295.296 63.2939H290.518V39.5134H295.296V63.2939ZM274.589 58.9037H279.98C282.431 58.9037 283.656 57.9281 283.656 55.8549C283.656 53.7817 282.431 52.8061 279.98 52.8061H274.589V58.9037Z" fill="white"/>
<path fill-rule="evenodd" clip-rule="evenodd" d="M118.976 31.4634V73.9024H114.32V27.561L310 0V74.0244H305.344V5.36585L118.976 31.4634Z" fill="url(#paint0_linear_458_257)"/>
<path d="M4.5336 89.1443V97.437H2.69565V89.1443H0V87.1931H7.22925V89.1443H4.5336ZM13.8459 91.3395H18.0119V93.2907H13.8459V95.6078H18.3794V97.559H11.8854V87.3151H18.3794V89.2663H13.8459V91.3395ZM23.2806 87.1931H26.4664C27.8142 87.1931 28.7945 87.559 29.6522 88.2907C30.3874 89.0224 30.7549 89.998 30.7549 91.0956C30.7549 92.3151 30.3874 93.1687 29.6522 93.9004C28.917 94.6322 27.8142 94.998 26.4664 94.998H25.2411V97.3151H23.2806C23.2806 97.437 23.2806 87.1931 23.2806 87.1931ZM25.2411 93.1687H26.7115C27.3241 93.1687 27.9368 93.0468 28.4269 92.6809C28.917 92.3151 29.1621 91.8273 29.1621 91.0956C29.1621 90.4858 28.917 89.998 28.4269 89.6322C27.9368 89.2663 27.4466 89.1443 26.7115 89.1443H25.2411V93.1687ZM35.6561 87.1931H38.8419C40.1897 87.1931 41.17 87.559 42.0277 88.2907C42.7628 89.0224 43.1304 89.998 43.1304 91.0956C43.1304 92.3151 42.7628 93.1687 42.0277 93.9004C41.2925 94.6322 40.1897 94.998 38.8419 94.998H37.6166V97.3151H35.6561V87.1931ZM37.6166 93.1687H39.087C39.8221 93.1687 40.3123 93.0468 40.8024 92.6809C41.2925 92.3151 41.5376 91.8273 41.5376 91.0956C41.5376 90.4858 41.2925 89.998 40.8024 89.6322C40.3123 89.2663 39.8221 89.1443 39.087 89.1443H37.6166V93.1687ZM49.1344 95.6078L48.3992 97.437H46.3162L50.2372 87.1931H51.3399L55.2609 97.437H53.1779L52.4427 95.6078H49.1344ZM50.8498 90.8517L49.747 93.6565H51.83L50.8498 90.8517ZM63.2253 87.1931C64.6957 87.1931 65.921 87.8029 66.9012 88.9004L65.6759 90.12C65.0632 89.5102 64.2055 89.1443 63.2253 89.1443C62.3676 89.1443 61.6324 89.5102 61.0198 90.12C60.4071 90.7297 60.1621 91.5834 60.1621 92.559C60.1621 93.5346 60.4071 94.3883 61.0198 94.998C61.6324 95.6078 62.3676 95.9736 63.2253 95.9736C64.2055 95.9736 64.9407 95.6078 65.6759 94.998L66.9012 96.2175C65.921 97.3151 64.6957 97.9248 63.2253 97.9248C61.8775 97.9248 60.6522 97.437 59.7945 96.4614C58.8142 95.4858 58.3241 94.1443 58.3241 92.8029C58.3241 91.3395 58.8142 90.12 59.7945 89.1443C60.7747 87.6809 61.8775 87.1931 63.2253 87.1931ZM73.5178 90.9736H75.7233C76.8261 90.9736 77.6838 91.2175 78.1739 91.8273C78.7866 92.437 79.0316 93.1687 79.0316 94.1443C79.0316 95.12 78.7866 95.9736 78.1739 96.4614C77.6838 97.0712 76.8261 97.3151 75.7233 97.3151H71.6798V87.0712H73.5178V90.9736ZM81.9723 97.437H80.0119V87.1931H81.9723V97.437ZM73.5178 95.6078H75.7233C76.7036 95.6078 77.1937 95.12 77.1937 94.2663C77.1937 93.4126 76.7036 92.9248 75.7233 92.9248H73.5178V95.6078ZM102.19 97.437H100.229V90.9736L95.6957 97.437H94.5929V87.1931H96.5534V93.6565L101.087 87.1931H102.19V97.437ZM114.933 87.1931H118.609C119.221 87.1931 119.834 87.3151 120.324 87.437C120.814 87.559 121.182 87.8029 121.304 88.1687C121.549 88.4126 121.672 88.7785 121.794 89.0224C121.917 89.2663 121.917 89.6321 121.917 89.876C121.917 90.9736 121.549 91.7053 120.692 92.0712C121.182 92.1931 121.549 92.437 121.917 92.9248C122.162 93.4126 122.407 93.9004 122.407 94.5102C122.407 96.4614 121.182 97.437 118.854 97.437H115.055L114.933 87.1931ZM116.771 89.1443V91.3395H118.854C119.344 91.3395 119.589 91.2175 119.834 90.9736C120.079 90.8517 120.079 90.4858 120.079 90.2419C120.079 89.5102 119.711 89.1443 118.854 89.1443H116.771ZM116.771 93.0468V95.4858H119.099C119.589 95.4858 119.957 95.3639 120.202 95.12C120.447 94.8761 120.569 94.6321 120.569 94.2663C120.569 93.9004 120.447 93.6565 120.202 93.4126C119.957 93.1687 119.589 93.0468 119.221 93.0468H116.771ZM129.024 91.3395H133.19V93.2907H129.024V95.6078H133.557V97.559H127.063V87.3151H133.557V89.2663H129.024V91.3395ZM138.459 87.1931H141.644C142.992 87.1931 143.972 87.559 144.83 88.2907C145.565 89.0224 145.933 89.998 145.933 91.0956C145.933 92.3151 145.565 93.1687 144.83 93.9004C144.095 94.6322 142.992 94.998 141.644 94.998H140.419V97.3151H138.459V87.1931ZM140.419 93.1687H141.889C142.502 93.1687 143.115 93.0468 143.605 92.6809C144.095 92.3151 144.34 91.8273 144.34 91.0956C144.34 90.4858 144.095 89.998 143.605 89.6322C143.115 89.2663 142.625 89.1443 141.889 89.1443H140.419V93.1687ZM151.937 95.6078L151.202 97.437H149.119L153.04 87.1931H154.142L158.063 97.437H155.98L155.245 95.6078H151.937ZM153.652 90.8517L152.549 93.6565H154.632L153.652 90.8517ZM170.194 97.437H168.233V93.2907H164.435V97.437H162.474V87.1931H164.435V91.3395H168.233V87.1931H170.194V97.437ZM184.775 99.3882H182.814V97.559H176.565V99.3882H174.605V95.6078H175.953L179.138 87.3151H180.241L183.427 95.6078H184.652L184.775 99.3882ZM179.751 90.9736L178.036 95.6078H181.466L179.751 90.9736ZM191.146 90.9736H193.352C194.455 90.9736 195.312 91.2175 195.802 91.8273C196.415 92.437 196.66 93.1687 196.66 94.1443C196.66 95.12 196.415 95.9736 195.802 96.4614C195.312 97.0712 194.455 97.3151 193.352 97.3151H189.308V87.0712H191.269L191.146 90.9736ZM199.478 97.437H197.518V87.1931H199.478V97.437ZM191.146 95.6078H193.352C194.332 95.6078 194.822 95.12 194.822 94.2663C194.822 93.4126 194.332 92.9248 193.352 92.9248H191.146V95.6078ZM219.696 97.437H217.735V89.1443H214.059V97.437H212.099V87.1931H219.573L219.696 97.437ZM225.822 88.6565C226.802 87.6809 227.905 87.0712 229.253 87.0712C230.601 87.0712 231.826 87.559 232.684 88.6565C233.664 89.6321 234.154 90.8517 234.154 92.3151C234.154 93.7785 233.664 94.998 232.684 95.9736C231.704 96.9492 230.601 97.437 229.253 97.437C227.905 97.437 226.68 96.9492 225.822 95.9736C224.842 94.998 224.352 93.6565 224.352 92.3151C224.474 90.9736 224.964 89.6321 225.822 88.6565ZM231.581 89.998C231.091 89.3882 230.233 89.0224 229.376 89.0224C228.518 89.0224 227.783 89.3882 227.17 89.998C226.557 90.6078 226.312 91.4614 226.312 92.437C226.312 93.4126 226.557 94.2663 227.17 94.876C227.783 95.4858 228.518 95.8517 229.376 95.8517C230.233 95.8517 230.968 95.4858 231.581 94.876C232.194 94.2663 232.439 93.4126 232.439 92.437C232.439 91.3395 232.071 90.6078 231.581 89.998ZM248 99.3882H246.04V97.559H239.791V99.3882H237.83V95.6078H239.178L242.364 87.3151H243.466L246.652 95.6078H247.877V99.3882H248ZM242.854 90.9736L241.138 95.6078H244.569L242.854 90.9736ZM266.012 97.437L264.051 94.1443C263.806 93.7785 263.684 93.5346 263.439 93.4126C263.316 93.2907 263.071 93.1687 262.704 93.1687H261.846V97.437H259.885V87.1931H261.846V91.2175H262.704C263.071 91.2175 263.316 91.0956 263.439 90.9736C263.561 90.8517 263.806 90.6078 264.051 90.2419L266.012 87.0712H268.217L265.889 90.8517C265.399 91.4614 265.032 91.9492 264.787 92.0712C265.154 92.1931 265.522 92.6809 266.012 93.4126L268.34 97.3151L266.012 97.437ZM276.427 90.9736L273.976 97.559H271.893L275.814 87.3151H276.917L280.838 97.559H278.755L276.427 90.9736ZM293.336 87.1931C294.684 87.1931 295.909 87.6809 296.767 88.7785C297.747 89.7541 298.237 90.9736 298.237 92.437C298.237 93.9004 297.747 95.12 296.767 96.0956C295.787 97.0712 294.684 97.559 293.336 97.559C292.111 97.559 291.13 97.1931 290.15 96.3395C289.17 95.4858 288.68 94.5102 288.435 93.2907H287.087V97.437H285.126V87.1931H287.087V91.4614H288.435C288.68 90.2419 289.17 89.2663 290.15 88.4126C291.13 87.559 292.111 87.1931 293.336 87.1931ZM293.336 95.7297C294.194 95.7297 294.929 95.3639 295.542 94.7541C296.154 94.1443 296.399 93.2907 296.399 92.3151C296.399 91.3395 296.154 90.6078 295.542 89.876C295.051 89.2663 294.194 88.9004 293.336 88.9004C292.478 88.9004 291.743 89.2663 291.13 89.876C290.518 90.4858 290.273 91.3395 290.273 92.3151C290.273 93.2907 290.518 94.1443 291.13 94.7541C291.743 95.3639 292.601 95.7297 293.336 95.7297ZM310 97.437H308.04V93.9004C307.549 94.6322 306.937 94.876 305.957 94.876C305.466 94.876 304.976 94.7541 304.609 94.6321C304.241 94.5102 303.874 94.2663 303.506 93.9004C303.138 93.5346 302.893 93.1687 302.771 92.559C302.648 91.9492 302.526 91.3395 302.526 90.6078V86.9492H304.486V90.6078C304.486 91.9492 305.099 92.6809 306.447 92.6809C306.937 92.6809 307.427 92.559 307.672 92.1931C308.04 91.8273 308.162 91.3395 308.162 90.6078V86.9492H310.123V97.437H310Z" fill="white"/>
</g>
</g>
<defs>
<linearGradient id="paint0_linear_458_257" x1="212.15" y1="34.7634" x2="212.15" y2="74.1439" gradientUnits="userSpaceOnUse">
<stop stop-color="#987F62"/>
<stop offset="1" stop-color="#987F62" stop-opacity="0"/>
</linearGradient>
<clipPath id="clip0_458_257">
<rect width="310" height="100" fill="white"/>
</clipPath>
</defs>
</svg>
