<svg width="384" height="66" viewBox="0 0 384 66" fill="none" xmlns="http://www.w3.org/2000/svg">
<path d="M95 43.7506V42.1297H100.939V43.7506H98.9302V53.4763H97.0088V43.7506H95Z" fill="#987F62"/>
<path d="M108.947 43.7506V46.9115H111.585V48.5324H108.947V51.8554H112.266V53.4763H107.026V42.1297H112.266V43.7506H108.947Z" fill="#987F62"/>
<path fill-rule="evenodd" clip-rule="evenodd" d="M121.527 42.1297C123.436 42.1297 124.391 43.0644 124.391 44.9339V46.409C124.391 48.2785 123.436 49.2132 121.527 49.2132H120.618V53.4763H118.697V42.1297H121.527ZM121.527 43.7506H120.618V47.5923H121.527C121.841 47.5923 122.074 47.5112 122.225 47.3491C122.388 47.187 122.47 46.9115 122.47 46.5224V44.8204C122.47 44.4314 122.388 44.1559 122.225 43.9938C122.074 43.8317 121.841 43.7506 121.527 43.7506Z" fill="#987F62"/>
<path fill-rule="evenodd" clip-rule="evenodd" d="M133.351 42.1297C135.261 42.1297 136.216 43.0644 136.216 44.9339V46.409C136.216 48.2785 135.261 49.2132 133.351 49.2132H132.443V53.4763H130.522V42.1297H133.351ZM133.351 43.7506H132.443V47.5923H133.351C133.666 47.5923 133.899 47.5112 134.05 47.3491C134.213 47.187 134.295 46.9115 134.295 46.5224V44.8204C134.295 44.4314 134.213 44.1559 134.05 43.9938C133.899 43.8317 133.666 43.7506 133.351 43.7506Z" fill="#987F62"/>
<path fill-rule="evenodd" clip-rule="evenodd" d="M146.608 42.1297L148.565 53.4763H146.626L146.294 51.4177H143.936L143.604 53.4763H141.84L143.796 42.1297H146.608ZM145.106 44.1397L144.18 49.8778H146.032L145.106 44.1397Z" fill="#987F62"/>
<path d="M158.455 49.2456H160.272V50.7531C160.272 51.6717 160.028 52.3795 159.538 52.8766C159.049 53.3628 158.339 53.606 157.407 53.606C156.476 53.606 155.765 53.3628 155.276 52.8766C154.787 52.3795 154.543 51.6717 154.543 50.7531V44.8529C154.543 43.9343 154.787 43.2319 155.276 42.7456C155.765 42.2485 156.476 42 157.407 42C158.339 42 159.049 42.2485 159.538 42.7456C160.028 43.2319 160.272 43.9343 160.272 44.8529V45.9551H158.455V44.7394C158.455 43.9938 158.124 43.6209 157.46 43.6209C156.796 43.6209 156.464 43.9938 156.464 44.7394V50.8666C156.464 51.6014 156.796 51.9688 157.46 51.9688C158.124 51.9688 158.455 51.6014 158.455 50.8666V49.2456Z" fill="#987F62"/>
<path fill-rule="evenodd" clip-rule="evenodd" d="M169.508 53.4763H166.678V42.1297H168.6V46.3928H169.508C171.418 46.3928 172.373 47.3275 172.373 49.197V50.6721C172.373 52.5416 171.418 53.4763 169.508 53.4763ZM168.6 51.8554H169.508C169.822 51.8554 170.055 51.7743 170.207 51.6122C170.37 51.4501 170.451 51.1746 170.451 50.7855V49.0835C170.451 48.6945 170.37 48.419 170.207 48.2569C170.055 48.0948 169.822 48.0137 169.508 48.0137H168.6V51.8554Z" fill="#987F62"/>
<path d="M175.395 53.4763H173.473V42.1297H175.395V53.4763Z" fill="#987F62"/>
<path fill-rule="evenodd" clip-rule="evenodd" d="M200.839 42.1297C201.829 42.1297 202.551 42.3458 203.005 42.7781C203.459 43.1995 203.686 43.8533 203.686 44.7394V45.1446C203.686 46.3117 203.273 47.0736 202.446 47.4302C203.401 47.776 203.878 48.5865 203.878 49.8616V50.7855C203.878 51.6608 203.628 52.3308 203.127 52.7955C202.638 53.2494 201.916 53.4763 200.961 53.4763H197.939V42.1297H200.839ZM200.717 48.3703H199.861V51.8554H200.961C201.299 51.8554 201.549 51.7743 201.712 51.6122C201.875 51.4393 201.957 51.1475 201.957 50.7369V49.7481C201.957 49.2294 201.858 48.8728 201.66 48.6783C201.473 48.473 201.159 48.3703 200.717 48.3703ZM200.786 43.7506H199.861V46.7494H200.612C200.996 46.7494 201.281 46.6575 201.468 46.4738C201.666 46.2901 201.765 45.9821 201.765 45.5499V44.9177C201.765 44.1397 201.439 43.7506 200.786 43.7506Z" fill="#987F62"/>
<path d="M212.197 43.7506V46.9115H214.835V48.5324H212.197V51.8554H215.516V53.4763H210.276V42.1297H215.516V43.7506H212.197Z" fill="#987F62"/>
<path fill-rule="evenodd" clip-rule="evenodd" d="M224.777 42.1297C226.687 42.1297 227.641 43.0644 227.641 44.9339V46.409C227.641 48.2785 226.687 49.2132 224.777 49.2132H223.868V53.4763H221.947V42.1297H224.777ZM224.777 43.7506H223.868V47.5923H224.777C225.091 47.5923 225.324 47.5112 225.475 47.3491C225.638 47.187 225.72 46.9115 225.72 46.5224V44.8204C225.72 44.4314 225.638 44.1559 225.475 43.9938C225.324 43.8317 225.091 43.7506 224.777 43.7506Z" fill="#987F62"/>
<path fill-rule="evenodd" clip-rule="evenodd" d="M238.034 42.1297L239.99 53.4763H238.051L237.719 51.4177H235.361L235.029 53.4763H233.265L235.222 42.1297H238.034ZM236.532 44.1397L235.606 49.8778H237.457L236.532 44.1397Z" fill="#987F62"/>
<path d="M248.047 48.6135V53.4763H246.125V42.1297H248.047V46.9925H250.23V42.1297H252.187V53.4763H250.23V48.6135H248.047Z" fill="#987F62"/>
<path fill-rule="evenodd" clip-rule="evenodd" d="M266.279 55H264.375V53.4763H260.27V55H258.401V51.8878H259.152C259.431 51.5636 259.589 51.0719 259.624 50.4127L260.06 42.1297H265.44V51.8878H266.279V55ZM261.859 43.7506L261.51 50.3803C261.464 51.1043 261.283 51.6068 260.969 51.8878H263.484V43.7506H261.859Z" fill="#987F62"/>
<path fill-rule="evenodd" clip-rule="evenodd" d="M275.419 53.4763H272.59V42.1297H274.511V46.3928H275.419C277.329 46.3928 278.284 47.3275 278.284 49.197V50.6721C278.284 52.5416 277.329 53.4763 275.419 53.4763ZM274.511 51.8554H275.419C275.734 51.8554 275.967 51.7743 276.118 51.6122C276.281 51.4501 276.363 51.1746 276.363 50.7855V49.0835C276.363 48.6945 276.281 48.419 276.118 48.2569C275.967 48.0948 275.734 48.0137 275.419 48.0137H274.511V51.8554Z" fill="#987F62"/>
<path d="M281.306 53.4763H279.384V42.1297H281.306V53.4763Z" fill="#987F62"/>
<path fill-rule="evenodd" clip-rule="evenodd" d="M306.907 53.4763H303.868V42.1297H309.248V43.7506H305.789V46.6521H306.907C307.862 46.6521 308.584 46.8953 309.073 47.3815C309.562 47.857 309.807 48.5486 309.807 49.4564V50.6721C309.807 51.5798 309.562 52.2768 309.073 52.7631C308.584 53.2386 307.862 53.4763 306.907 53.4763ZM305.789 51.8554H306.907C307.559 51.8554 307.886 51.4988 307.886 50.7855V49.3429C307.886 48.6297 307.559 48.2731 306.907 48.2731H305.789V51.8554Z" fill="#987F62"/>
<path d="M318.262 43.7506V46.9115H320.9V48.5324H318.262V51.8554H321.581V53.4763H316.341V42.1297H321.581V43.7506H318.262Z" fill="#987F62"/>
<path d="M331.767 49.2456H333.584V50.7531C333.584 51.6717 333.339 52.3795 332.85 52.8766C332.361 53.3628 331.651 53.606 330.719 53.606C329.788 53.606 329.077 53.3628 328.588 52.8766C328.099 52.3795 327.855 51.6717 327.855 50.7531V44.8529C327.855 43.9343 328.099 43.2319 328.588 42.7456C329.077 42.2485 329.788 42 330.719 42C331.651 42 332.361 42.2485 332.85 42.7456C333.339 43.2319 333.584 43.9343 333.584 44.8529V45.9551H331.767V44.7394C331.767 43.9938 331.435 43.6209 330.772 43.6209C330.108 43.6209 329.776 43.9938 329.776 44.7394V50.8666C329.776 51.6014 330.108 51.9688 330.772 51.9688C331.435 51.9688 331.767 51.6014 331.767 50.8666V49.2456Z" fill="#987F62"/>
<path d="M341.912 43.7506V46.9115H344.549V48.5324H341.912V51.8554H345.23V53.4763H339.99V42.1297H345.23V43.7506H341.912Z" fill="#987F62"/>
<path fill-rule="evenodd" clip-rule="evenodd" d="M359.12 55H357.216V53.4763H353.111V55H351.242V51.8878H351.993C352.273 51.5636 352.43 51.0719 352.465 50.4127L352.902 42.1297H358.282V51.8878H359.12V55ZM354.701 43.7506L354.351 50.3803C354.305 51.1043 354.124 51.6068 353.81 51.8878H356.325V43.7506H354.701Z" fill="#987F62"/>
<path d="M369.815 53.4763L367.946 48.9539L367.352 49.9913V53.4763H365.431V42.1297H367.352V47.0736L369.868 42.1297H371.789L369.116 47.187L371.789 53.4763H369.815Z" fill="#987F62"/>
<path d="M381.485 48.2731L379.878 53.4763H377.904V42.1297H379.616V49.3105L380.314 46.8142L381.886 42.1297H384V53.4763H382.271V45.485L381.485 48.2731Z" fill="#987F62"/>
<path d="M186.951 46.3059L188.639 47.8721L186.951 49.4383L185.263 47.8721L186.951 46.3059Z" fill="#987F62"/>
<path d="M294.231 47.8721L292.544 46.3059L290.856 47.8721L292.544 49.4383L294.231 47.8721Z" fill="#987F62"/>
<path fill-rule="evenodd" clip-rule="evenodd" d="M122.478 29.0909L124.886 23.6364H132.535L134.956 29.0909H137.532L128.717 10L119.901 29.0909H122.478ZM131.625 21.5584H125.815L128.717 15.013L131.625 21.5584Z" fill="white"/>
<path d="M200.214 15.5567V29.0909H202.52V10L188.144 24.4433V10.9091H185.838V30L200.214 15.5567Z" fill="white"/>
<path fill-rule="evenodd" clip-rule="evenodd" d="M236.008 23.6364L233.6 29.0909H231.023L239.838 10L248.654 29.0909H246.077L243.656 23.6364H236.008ZM236.937 21.5584H242.747L239.838 15.013L236.937 21.5584Z" fill="white"/>
<path fill-rule="evenodd" clip-rule="evenodd" d="M347.519 29.0909L349.927 23.6364H357.576L359.997 29.0909H362.574L353.758 10L344.942 29.0909H347.519ZM356.667 21.5584H350.857L353.758 15.013L356.667 21.5584Z" fill="white"/>
<path d="M370.844 20.0007C370.844 21.4033 371.17 22.6414 371.821 23.715C372.49 24.7886 373.358 25.6284 374.425 26.2345C375.492 26.8405 376.649 27.1436 377.897 27.1436C378.801 27.1436 379.624 27.031 380.365 26.8059C381.125 26.5808 381.812 26.2691 382.427 25.8709C383.042 25.4553 383.566 24.9791 384 24.4423V27.3514C383.204 28.0267 382.336 28.5289 381.396 28.8579C380.456 29.1869 379.289 29.3514 377.897 29.3514C376.577 29.3514 375.338 29.1263 374.181 28.676C373.042 28.2085 372.038 27.5592 371.17 26.728C370.302 25.8795 369.624 24.8838 369.136 23.741C368.647 22.5981 368.403 21.3514 368.403 20.0007C368.403 18.6501 368.647 17.4033 369.136 16.2605C369.624 15.1176 370.302 14.1306 371.17 13.2994C372.038 12.4509 373.042 11.8016 374.181 11.3514C375.338 10.8838 376.577 10.6501 377.897 10.6501C379.289 10.6501 380.456 10.8146 381.396 11.1436C382.336 11.4726 383.204 11.9747 384 12.6501V15.5592C383.566 15.0224 383.042 14.5548 382.427 14.1566C381.812 13.741 381.125 13.4206 380.365 13.1955C379.624 12.9704 378.801 12.8579 377.897 12.8579C376.649 12.8579 375.492 13.1609 374.425 13.767C373.358 14.373 372.49 15.2128 371.821 16.2864C371.17 17.3427 370.844 18.5808 370.844 20.0007Z" fill="white"/>
<path fill-rule="evenodd" clip-rule="evenodd" d="M328.601 10.9075V29.0893H330.907V21.8166H333.755C334.985 21.8166 336.079 21.6001 337.037 21.1672C338.014 20.717 338.782 20.0849 339.343 19.2711C339.921 18.4399 340.211 17.4702 340.211 16.362C340.211 15.2365 339.921 14.2668 339.343 13.4529C338.782 12.6391 338.014 12.0157 337.037 11.5828C336.079 11.1326 334.985 10.9075 333.755 10.9075H328.601ZM330.907 12.9854V19.7386H333.755C334.985 19.7386 335.979 19.4529 336.739 18.8815C337.516 18.3101 337.905 17.4702 337.905 16.362C337.905 15.2365 337.516 14.3966 336.739 13.8425C335.979 13.2711 334.985 12.9854 333.755 12.9854H330.907Z" fill="white"/>
<path fill-rule="evenodd" clip-rule="evenodd" d="M308.318 10.9075H313.471C314.701 10.9075 315.795 11.1326 316.754 11.5828C317.73 12.0157 318.499 12.6391 319.059 13.4529C319.638 14.2668 319.927 15.2365 319.927 16.362C319.927 17.4702 319.638 18.4399 319.059 19.2711C318.499 20.0849 317.73 20.717 316.754 21.1672C315.795 21.6001 314.701 21.8166 313.471 21.8166H310.623V29.0893H308.318V10.9075ZM310.623 19.7386V12.9854H313.471C314.701 12.9854 315.696 13.2711 316.455 13.8425C317.233 14.3966 317.622 15.2365 317.622 16.362C317.622 17.4702 317.233 18.3101 316.455 18.8815C315.696 19.4529 314.701 19.7386 313.471 19.7386H310.623Z" fill="white"/>
<path d="M298.829 27.0114H290.285V20.2581H298.287V18.1802H290.285V12.9854H298.829V10.9075H287.979V29.0893H298.829V27.0114Z" fill="white"/>
<path d="M268.047 12.9854V10.9075H280.118V12.9854H275.235V29.0893H272.93V12.9854H268.047Z" fill="white"/>
<path d="M212.29 10.9075H214.596V18.7385L222.055 10.9075H224.903L216.684 19.4269L225.31 29.0893H222.462L214.596 20.2696V29.0893H212.29V10.9075Z" fill="white"/>
<path fill-rule="evenodd" clip-rule="evenodd" d="M165.548 10.9075H170.701C171.931 10.9075 173.025 11.1326 173.983 11.5828C174.96 12.0157 175.729 12.6391 176.289 13.4529C176.868 14.2668 177.157 15.2365 177.157 16.362C177.157 17.4702 176.868 18.4399 176.289 19.2711C175.729 20.0849 174.96 20.717 173.983 21.1672C173.025 21.6001 171.931 21.8166 170.701 21.8166H167.853V29.0893H165.548V10.9075ZM167.853 19.7386V12.9854H170.701C171.931 12.9854 172.926 13.2711 173.685 13.8425C174.463 14.3966 174.851 15.2365 174.851 16.362C174.851 17.4702 174.463 18.3101 173.685 18.8815C172.926 19.4529 171.931 19.7386 170.701 19.7386H167.853Z" fill="white"/>
<path fill-rule="evenodd" clip-rule="evenodd" d="M147.57 18.1802H150.418C151.648 18.1802 152.742 18.4053 153.7 18.8555C154.676 19.2884 155.445 19.9118 156.006 20.7256C156.584 21.5395 156.874 22.5092 156.874 23.6347C156.874 24.743 156.584 25.7127 156.006 26.5438C155.445 27.3577 154.676 27.9897 153.7 28.4399C152.742 28.8728 151.648 29.0893 150.418 29.0893H145.264V10.9075H155.436V12.9854H147.57V18.1802ZM147.57 20.2581V27.0114H150.418C151.232 27.0114 151.946 26.8901 152.561 26.6477C153.194 26.388 153.682 26.007 154.026 25.5049C154.387 25.0027 154.568 24.3793 154.568 23.6347C154.568 22.8901 154.387 22.2668 154.026 21.7646C153.682 21.2624 153.194 20.8901 152.561 20.6477C151.946 20.388 151.232 20.2581 150.418 20.2581H147.57Z" fill="white"/>
<path fill-rule="evenodd" clip-rule="evenodd" d="M105.687 10.9075H103.382V12.9885C101.837 13.0208 100.445 13.3055 99.2044 13.8425C97.9024 14.3966 96.8716 15.1932 96.1121 16.2321C95.3707 17.2711 95 18.5265 95 19.9984C95 21.4529 95.3707 22.7083 96.1121 23.7646C96.8716 24.8036 97.9024 25.6088 99.2044 26.1802C100.445 26.701 101.837 26.977 103.382 27.0083V29.0893H105.687V27.0083C107.23 26.977 108.614 26.701 109.837 26.1802C111.157 25.6088 112.188 24.8036 112.93 23.7646C113.689 22.7083 114.069 21.4529 114.069 19.9984C114.069 18.5265 113.689 17.2711 112.93 16.2321C112.188 15.1932 111.157 14.3966 109.837 13.8425C108.614 13.3055 107.23 13.0208 105.687 12.9885V10.9075ZM105.687 15.1967C106.813 15.2236 107.817 15.4042 108.698 15.7386C109.656 16.0849 110.407 16.6131 110.949 17.323C111.492 18.033 111.763 18.9248 111.763 19.9984C111.763 21.0546 111.492 21.9464 110.949 22.6737C110.407 23.3836 109.656 23.9204 108.698 24.2841C107.817 24.6025 106.813 24.7746 105.687 24.8002V15.1967ZM103.382 15.1967V24.8002C102.256 24.7746 101.252 24.6025 100.371 24.2841C99.4123 23.9204 98.6619 23.3836 98.1194 22.6737C97.5769 21.9464 97.3056 21.0546 97.3056 19.9984C97.3056 18.9248 97.5769 18.033 98.1194 17.323C98.6619 16.6131 99.4123 16.0849 100.371 15.7386C101.252 15.4042 102.256 15.2236 103.382 15.1967Z" fill="white"/>
<path d="M26.7647 60V31.4909L0 42.2734V60H26.7647Z" fill="white"/>
<path fill-rule="evenodd" clip-rule="evenodd" d="M26.7647 21.0431L70 4V59.9989H60.409L60.4062 60H51.6683L51.6712 59.9989H42.9314L42.9285 60H34.1907L34.1936 59.9989H26.7647V21.0431ZM30.0277 23.6935V27.1469L66.737 12.655V9.20152L30.0277 23.6935ZM66.737 16.1045L30.0277 30.5964V34.0459L66.737 19.554V16.1045ZM66.737 23.0035L30.0277 37.4954V40.9449L66.737 26.453V23.0035ZM66.737 29.9025L30.0277 44.3944V47.8407L66.737 33.3488V29.9025ZM66.737 36.7983L30.0277 51.2902V54.7405L66.737 40.2485V36.7983ZM66.737 43.698L33.5514 56.7989H42.2992L66.737 47.1515V43.698ZM66.737 50.601L51.0371 56.7989H59.7769L66.737 54.0513V50.601Z" fill="#987F62"/>
</svg>
