<svg width="24" height="24" viewBox="0 0 24 24" fill="none" xmlns="http://www.w3.org/2000/svg">
<path fill-rule="evenodd" clip-rule="evenodd" d="M2.41828 20.9145C4.75399 23.2502 8.54098 23.2502 10.8767 20.9145L20.9147 10.8765C23.2504 8.54076 23.2504 4.75378 20.9147 2.41807C18.579 0.0823278 14.792 0.0823164 12.4563 2.41807L2.41828 12.456C0.0825787 14.7918 0.0825772 18.5787 2.41828 20.9145ZM3.83249 19.5003C3.83249 19.5003 3.8325 19.5003 3.83249 19.5003C5.38716 21.0549 7.90782 21.0549 9.46248 19.5003L19.5005 9.46226C21.0552 7.9076 21.0552 5.38695 19.5005 3.83229C17.9458 2.27758 15.4252 2.27759 13.8705 3.83228L3.8325 13.8702C3.8325 13.8702 3.8325 13.8702 3.8325 13.8702C2.27784 15.4249 2.27783 17.9456 3.83249 19.5003Z" fill="#313940"/>
<path fill-rule="evenodd" clip-rule="evenodd" d="M15.8736 15.8734C16.2641 15.4828 16.2641 14.8497 15.8736 14.4592L9.3736 7.95915C8.98308 7.56863 8.34991 7.56863 7.95939 7.95915C7.56886 8.34968 7.56886 8.98284 7.95939 9.37337L14.4594 15.8734C14.8499 16.2639 15.4831 16.2639 15.8736 15.8734Z" fill="#313940"/>
</svg>
