<svg width="24" height="24" viewBox="0 0 24 24" fill="none" xmlns="http://www.w3.org/2000/svg">
<path fill-rule="evenodd" clip-rule="evenodd" d="M4.04004 12C4.04004 11.4698 4.46985 11.04 5.00004 11.04H19C19.5302 11.04 19.96 11.4698 19.96 12C19.96 12.5302 19.5302 12.96 19 12.96H5.00004C4.46985 12.96 4.04004 12.5302 4.04004 12Z" fill="#313940"/>
<path fill-rule="evenodd" clip-rule="evenodd" d="M11.3212 4.32116C11.6961 3.94625 12.304 3.94625 12.6789 4.32116L19.6789 11.3212C20.0538 11.6961 20.0538 12.3039 19.6789 12.6788L12.6789 19.6788C12.304 20.0537 11.6961 20.0537 11.3212 19.6788C10.9463 19.3039 10.9463 18.6961 11.3212 18.3212L17.6424 12L11.3212 5.6788C10.9463 5.3039 10.9463 4.69606 11.3212 4.32116Z" fill="#313940"/>
</svg>
