<svg width="150" height="150" viewBox="0 0 150 150" fill="none" xmlns="http://www.w3.org/2000/svg">
<path d="M52.7344 9.375C52.7344 8.44261 53.1048 7.54843 53.7641 6.88913C54.4234 6.22983 55.3176 5.85942 56.25 5.85938H93.75C94.6824 5.85938 95.5766 6.22977 96.2359 6.88908C96.8952 7.54839 97.2656 8.4426 97.2656 9.375C97.2656 10.3074 96.8952 11.2016 96.2359 11.8609C95.5766 12.5202 94.6824 12.8906 93.75 12.8906H56.25C55.3176 12.8906 54.4234 12.5202 53.7641 11.8609C53.1048 11.2016 52.7344 10.3074 52.7344 9.375ZM120.703 37.5V126.562C120.699 129.98 119.34 133.257 116.923 135.673C114.507 138.09 111.23 139.449 107.812 139.453H42.1875C38.7699 139.449 35.4933 138.09 33.0767 135.673C30.6601 133.257 29.3007 129.98 29.2969 126.562V37.5C29.3007 34.0824 30.6601 30.8058 33.0767 28.3892C35.4933 25.9726 38.7699 24.6132 42.1875 24.6094H107.812C111.23 24.6132 114.507 25.9726 116.923 28.3892C119.34 30.8058 120.699 34.0824 120.703 37.5ZM113.672 37.5C113.67 35.9465 113.052 34.4572 111.954 33.3587C110.855 32.2603 109.366 31.6424 107.812 31.6406H42.1875C40.634 31.6424 39.1447 32.2603 38.0462 33.3587C36.9478 34.4572 36.3299 35.9465 36.3281 37.5V126.562C36.3299 128.116 36.9477 129.605 38.0462 130.704C39.1447 131.802 40.634 132.42 42.1875 132.422H107.812C109.366 132.42 110.855 131.802 111.954 130.704C113.052 129.605 113.67 128.116 113.672 126.562V37.5ZM84.375 78.5156H70.8178L78.2641 59.8994C78.4362 59.4706 78.522 59.0121 78.5167 58.5502C78.5115 58.0882 78.4152 57.6319 78.2334 57.2071C78.0517 56.7824 77.788 56.3977 77.4574 56.0749C77.1269 55.7522 76.7359 55.4977 76.307 55.3262C75.8781 55.1546 75.4195 55.0692 74.9576 55.075C74.4956 55.0808 74.0393 55.1775 73.6148 55.3597C73.1903 55.5419 72.8058 55.806 72.4834 56.1369C72.161 56.4678 71.907 56.859 71.7359 57.2881L62.3609 80.7256C62.1475 81.259 62.0681 81.8366 62.1297 82.4078C62.1912 82.979 62.3918 83.5265 62.7139 84.0022C63.036 84.4779 63.4697 84.8675 63.9772 85.1368C64.4847 85.4061 65.0505 85.5469 65.625 85.5469H79.1822L71.7359 104.163C71.5644 104.592 71.479 105.05 71.4846 105.512C71.4902 105.973 71.5867 106.429 71.7686 106.854C71.9504 107.278 72.2141 107.662 72.5445 107.985C72.8749 108.307 73.2656 108.561 73.6942 108.733C74.1229 108.904 74.5811 108.99 75.0428 108.984C75.5044 108.978 75.9604 108.882 76.3848 108.7C76.8091 108.518 77.1935 108.255 77.516 107.924C77.8384 107.594 78.0927 107.203 78.2641 106.775L87.6391 83.3369C87.8525 82.8034 87.9319 82.2259 87.8703 81.6546C87.8088 81.0835 87.6082 80.536 87.2861 80.0603C86.964 79.5846 86.5302 79.195 86.0227 78.9257C85.5153 78.6564 84.9495 78.5156 84.375 78.5156Z" fill="#1C1C1C"/>
</svg>
