<svg width="151" height="150" viewBox="0 0 151 150" fill="none" xmlns="http://www.w3.org/2000/svg">
<path d="M97.5171 117.188C97.5171 118.12 97.1466 119.014 96.4873 119.673C95.828 120.333 94.9339 120.703 94.0015 120.703H56.5015C55.5691 120.703 54.6749 120.333 54.0155 119.673C53.3562 119.014 52.9858 118.12 52.9858 117.188C52.9858 116.255 53.3562 115.361 54.0155 114.702C54.6749 114.042 55.5691 113.672 56.5015 113.672H94.0015C94.9339 113.672 95.828 114.042 96.4873 114.702C97.1466 115.361 97.5171 116.255 97.5171 117.188ZM89.314 132.422H61.189C60.2566 132.422 59.3624 132.792 58.703 133.452C58.0437 134.111 57.6733 135.005 57.6733 135.938C57.6733 136.87 58.0437 137.764 58.703 138.423C59.3624 139.083 60.2566 139.453 61.189 139.453H89.314C90.2464 139.453 91.1406 139.083 91.7999 138.423C92.4592 137.764 92.8296 136.87 92.8296 135.938C92.8296 135.005 92.4592 134.111 91.7999 133.452C91.1406 132.792 90.2464 132.422 89.314 132.422ZM75.2515 10.5469C64.6758 10.5473 54.3684 13.875 45.7889 20.0586C37.2094 26.2422 30.7928 34.9683 27.4479 45.001C24.1029 55.0337 23.9991 65.8645 27.1513 75.9595C30.3034 86.0545 36.5516 94.9019 45.011 101.249C45.7566 101.807 46.6932 102.046 47.6151 101.915C48.5371 101.783 49.3691 101.291 49.9285 100.546C50.4879 99.8014 50.7289 98.8652 50.5987 97.943C50.4684 97.0208 49.9776 96.188 49.2339 95.6274C41.9541 90.1669 36.5768 82.5543 33.8638 73.868C31.1508 65.1816 31.2396 55.8619 34.1175 47.2288C36.9955 38.5957 42.5168 31.0869 49.8993 25.7661C57.2818 20.4452 66.1513 17.582 75.2514 17.582C84.3516 17.582 93.2211 20.4452 100.604 25.7661C107.986 31.0869 113.507 38.5957 116.385 47.2288C119.263 55.8619 119.352 65.1816 116.639 73.868C113.926 82.5543 108.549 90.1669 101.269 95.6274C100.899 95.9044 100.587 96.2515 100.352 96.6491C100.116 97.0467 99.9612 97.4868 99.8958 97.9442C99.8304 98.4017 99.8559 98.8676 99.9707 99.3153C100.086 99.7629 100.288 100.183 100.565 100.553C100.843 100.922 101.19 101.234 101.588 101.469C101.986 101.704 102.427 101.858 102.884 101.922C103.342 101.987 103.808 101.961 104.255 101.845C104.703 101.73 105.123 101.527 105.492 101.249C113.951 94.9019 120.2 86.0545 123.352 75.9595C126.504 65.8646 126.4 55.0337 123.055 45.001C119.71 34.9683 113.294 26.2422 104.714 20.0586C96.1346 13.875 85.8271 10.5473 75.2515 10.5469Z" fill="#1C1C1C"/>
</svg>
