<svg width="150" height="150" viewBox="0 0 150 150" fill="none" xmlns="http://www.w3.org/2000/svg">
<path d="M140.625 66.7969H133.534L116.949 29.4806C116.304 28.0312 115.253 26.7999 113.923 25.9354C112.592 25.071 111.04 24.6104 109.454 24.6094H40.5464C38.9599 24.6104 37.4076 25.071 36.0773 25.9356C34.747 26.8002 33.6957 28.0317 33.0505 29.4811L16.4656 66.7969H9.375C8.4426 66.7969 7.54839 67.1673 6.88908 67.8266C6.22977 68.4859 5.85938 69.3801 5.85938 70.3125C5.85938 71.2449 6.22977 72.1391 6.88908 72.7984C7.54839 73.4577 8.4426 73.8281 9.375 73.8281H15.2344V121.875C15.2368 124.05 16.1019 126.135 17.6397 127.673C19.1776 129.211 21.2626 130.076 23.4375 130.078H37.5C39.6749 130.076 41.7599 129.211 43.2978 127.673C44.8357 126.135 45.7007 124.05 45.7031 121.875V111.328H104.297V121.875C104.299 124.05 105.164 126.135 106.702 127.673C108.24 129.211 110.325 130.076 112.5 130.078H126.563C128.737 130.076 130.822 129.211 132.36 127.673C133.898 126.135 134.763 124.05 134.766 121.875V73.8281H140.625C141.557 73.8281 142.452 73.4577 143.111 72.7984C143.77 72.1391 144.141 71.2449 144.141 70.3125C144.141 69.3801 143.77 68.4859 143.111 67.8266C142.452 67.1673 141.557 66.7969 140.625 66.7969ZM39.4753 32.337C39.5675 32.1299 39.7178 31.954 39.9078 31.8304C40.0979 31.7068 40.3197 31.6409 40.5464 31.6406H109.454C109.68 31.6409 109.902 31.7067 110.092 31.8302C110.282 31.9537 110.432 32.1295 110.525 32.3364L125.84 66.7969H24.1598L39.4753 32.337ZM127.734 121.875C127.734 122.186 127.61 122.484 127.391 122.703C127.171 122.923 126.873 123.046 126.563 123.047H112.5C112.189 123.046 111.891 122.923 111.672 122.703C111.452 122.484 111.329 122.186 111.328 121.875V107.813C111.328 106.88 110.958 105.986 110.298 105.327C109.639 104.667 108.745 104.297 107.813 104.297H42.1875C41.2551 104.297 40.3609 104.667 39.7016 105.327C39.0423 105.986 38.6719 106.88 38.6719 107.813V121.875C38.6715 122.186 38.5479 122.484 38.3282 122.703C38.1085 122.923 37.8107 123.046 37.5 123.047H23.4375C23.1268 123.046 22.829 122.923 22.6093 122.703C22.3896 122.484 22.266 122.186 22.2656 121.875V73.8281H127.734V121.875Z" fill="#1C1C1C"/>
</svg>
