<svg width="151" height="150" viewBox="0 0 151 150" fill="none" xmlns="http://www.w3.org/2000/svg">
<path d="M131.75 29.2969H19.25C17.0752 29.2993 14.9901 30.1644 13.4522 31.7022C11.9144 33.2401 11.0493 35.3251 11.0469 37.5V56.6817C11.0465 56.7043 11.0435 56.7266 11.0435 56.7495C11.0435 56.7724 11.0465 56.7947 11.0469 56.8173V112.5C11.0493 114.675 11.9144 116.76 13.4522 118.298C14.9901 119.836 17.0752 120.701 19.25 120.703H131.75C133.925 120.701 136.01 119.836 137.548 118.298C139.086 116.76 139.951 114.675 139.953 112.5V37.5C139.951 35.3251 139.086 33.2401 137.548 31.7022C136.01 30.1644 133.925 29.2993 131.75 29.2969ZM19.25 36.3281H131.75C132.061 36.3285 132.359 36.4521 132.578 36.6718C132.798 36.8914 132.922 37.1893 132.922 37.5V53.2339H18.0781V37.5C18.0785 37.1893 18.2021 36.8914 18.4218 36.6718C18.6415 36.4521 18.9393 36.3285 19.25 36.3281ZM131.75 113.672H19.25C18.9393 113.672 18.6415 113.548 18.4218 113.328C18.2021 113.109 18.0785 112.811 18.0781 112.5V60.2652H132.922V112.5C132.922 112.811 132.798 113.109 132.578 113.328C132.359 113.548 132.061 113.672 131.75 113.672ZM121.2 98.4375C121.2 99.3699 120.829 100.264 120.17 100.923C119.511 101.583 118.616 101.953 117.684 101.953H98.9341C98.0017 101.953 97.1075 101.583 96.4482 100.923C95.7888 100.264 95.4185 99.3699 95.4185 98.4375C95.4185 97.5051 95.7888 96.6109 96.4482 95.9516C97.1075 95.2923 98.0017 94.9219 98.9341 94.9219H117.684C118.616 94.9219 119.511 95.2923 120.17 95.9516C120.829 96.6109 121.2 97.5051 121.2 98.4375ZM83.6997 98.4375C83.6997 99.3699 83.3293 100.264 82.67 100.923C82.0107 101.583 81.1165 101.953 80.1841 101.953H70.8091C69.8767 101.953 68.9825 101.583 68.3232 100.923C67.6639 100.264 67.2935 99.3699 67.2935 98.4375C67.2935 97.5051 67.6639 96.6109 68.3232 95.9516C68.9825 95.2923 69.8767 94.9219 70.8091 94.9219H80.1841C81.1165 94.9219 82.0107 95.2923 82.67 95.9516C83.3293 96.6109 83.6997 97.5051 83.6997 98.4375Z" fill="#1C1C1C"/>
</svg>
