<svg width="151" height="150" viewBox="0 0 151 150" fill="none" xmlns="http://www.w3.org/2000/svg">
<path d="M75.25 134.766C63.4295 134.766 51.8744 131.26 42.046 124.693C32.2176 118.126 24.5573 108.792 20.0338 97.8713C15.5103 86.9506 14.3267 74.9337 16.6328 63.3403C18.9389 51.7469 24.631 41.0977 32.9893 32.7393C41.3477 24.381 51.9969 18.6889 63.5903 16.3828C75.1837 14.0767 87.2006 15.2603 98.1213 19.7838C109.042 24.3073 118.376 31.9676 124.943 41.796C131.51 51.6244 135.016 63.1795 135.016 75C134.998 90.8454 128.695 106.037 117.491 117.241C106.287 128.445 91.0954 134.748 75.25 134.766ZM75.25 22.2657C64.8202 22.2657 54.6245 25.3585 45.9524 31.153C37.2803 36.9475 30.5212 45.1835 26.5298 54.8195C22.5385 64.4554 21.4942 75.0585 23.5289 85.288C25.5637 95.5175 30.5862 104.914 37.9612 112.289C45.3362 119.664 54.7326 124.686 64.9621 126.721C75.1915 128.756 85.7947 127.712 95.4306 123.72C105.067 119.729 113.303 112.97 119.097 104.298C124.892 95.6256 127.984 85.4299 127.984 75C127.969 61.0189 122.408 47.6148 112.521 37.7287C102.635 27.8425 89.2312 22.2815 75.25 22.2657ZM111.578 75C111.578 74.0676 111.208 73.1734 110.548 72.5141C109.889 71.8548 108.995 71.4844 108.063 71.4844H78.7657V42.1875C78.7657 41.2551 78.3953 40.3609 77.736 39.7016C77.0766 39.0423 76.1824 38.6719 75.25 38.6719C74.3176 38.6719 73.4234 39.0423 72.7641 39.7016C72.1048 40.3609 71.7344 41.2551 71.7344 42.1875V75C71.7344 75.9324 72.1048 76.8266 72.7641 77.486C73.4234 78.1453 74.3176 78.5157 75.25 78.5157H108.063C108.995 78.5157 109.889 78.1453 110.548 77.486C111.208 76.8266 111.578 75.9324 111.578 75Z" fill="#1C1C1C"/>
</svg>
