<svg width="151" height="150" viewBox="0 0 151 150" fill="none" xmlns="http://www.w3.org/2000/svg">
<path d="M48.7969 32.8125V14.0625C48.7969 13.1301 49.1673 12.2359 49.8266 11.5766C50.4859 10.9173 51.3801 10.5469 52.3125 10.5469C53.2449 10.5469 54.1391 10.9173 54.7984 11.5766C55.4577 12.2359 55.8281 13.1301 55.8281 14.0625V32.8125C55.8281 33.7449 55.4577 34.6391 54.7984 35.2984C54.1391 35.9577 53.2449 36.3281 52.3125 36.3281C51.3801 36.3281 50.4859 35.9577 49.8266 35.2984C49.1673 34.6391 48.7969 33.7449 48.7969 32.8125ZM71.0625 36.3281C71.9949 36.3281 72.8891 35.9577 73.5484 35.2984C74.2077 34.6391 74.5781 33.7449 74.5781 32.8125V14.0625C74.5781 13.1301 74.2077 12.2359 73.5484 11.5766C72.8891 10.9173 71.9949 10.5469 71.0625 10.5469C70.1301 10.5469 69.2359 10.9173 68.5766 11.5766C67.9173 12.2359 67.5469 13.1301 67.5469 14.0625V32.8125C67.5469 33.7449 67.9173 34.6391 68.5766 35.2984C69.2359 35.9577 70.1301 36.3281 71.0625 36.3281ZM89.8125 36.3281C90.7449 36.3281 91.6391 35.9577 92.2984 35.2984C92.9577 34.6391 93.3281 33.7449 93.3281 32.8125V14.0625C93.3281 13.1301 92.9577 12.2359 92.2984 11.5766C91.6391 10.9173 90.7449 10.5469 89.8125 10.5469C88.8801 10.5469 87.9859 10.9173 87.3266 11.5766C86.6673 12.2359 86.2969 13.1301 86.2969 14.0625V32.8125C86.2969 33.7449 86.6673 34.6391 87.3266 35.2984C87.9859 35.9577 88.8801 36.3281 89.8125 36.3281ZM144.891 70.3125V75C144.883 80.7946 142.619 86.3585 138.579 90.5121C134.538 94.6657 129.039 97.0824 123.247 97.2499C119.798 107.436 113.461 116.399 105.007 123.047H122.625C123.557 123.047 124.452 123.417 125.111 124.077C125.77 124.736 126.141 125.63 126.141 126.562C126.141 127.495 125.77 128.389 125.111 129.048C124.452 129.708 123.557 130.078 122.625 130.078H92.6309C92.6109 130.078 92.5906 130.081 92.5702 130.081C92.5551 130.081 92.5402 130.078 92.525 130.078H49.5256C49.4935 130.078 49.4615 130.079 49.4294 130.078H19.5C18.5676 130.078 17.6734 129.708 17.0141 129.048C16.3548 128.389 15.9844 127.495 15.9844 126.562C15.9844 125.63 16.3548 124.736 17.0141 124.077C17.6734 123.417 18.5676 123.047 19.5 123.047H37.1176C30.5472 117.887 25.232 111.304 21.5717 103.794C17.9113 96.2841 16.001 88.042 15.9844 79.6875V51.5625C15.9844 50.6301 16.3548 49.7359 17.0141 49.0766C17.6734 48.4173 18.5676 48.0469 19.5 48.0469H122.625C128.528 48.0536 134.188 50.4016 138.362 54.5757C142.536 58.7499 144.884 64.4093 144.891 70.3125ZM117.213 92.997C117.24 92.8747 117.273 92.754 117.313 92.6353C118.503 88.4221 119.107 84.0654 119.109 79.6875V55.0781H23.0156V79.6875C23.0337 88.7543 25.6084 97.6322 30.444 105.302C35.2797 112.971 42.1803 119.122 50.3536 123.047H91.7714C97.887 120.109 103.314 115.914 107.698 110.736C112.082 105.558 115.324 99.5134 117.213 92.997ZM137.859 70.3125C137.855 66.885 136.696 63.5589 134.57 60.8703C132.444 58.1817 129.475 56.2872 126.141 55.4921V79.6875C126.139 83.1557 125.807 86.6158 125.15 90.0212C128.7 89.4201 131.924 87.5824 134.25 84.8334C136.576 82.0843 137.854 78.6011 137.859 75V70.3125Z" fill="#1C1C1C"/>
</svg>
