<?xml version="1.0" encoding="utf-8"?><svg xmlns="http://www.w3.org/2000/svg" xmlns:xlink="http://www.w3.org/1999/xlink"><symbol fill="none" viewBox="0 0 150 150" id="battery" xmlns="http://www.w3.org/2000/svg"><path d="M52.734 9.375a3.516 3.516 0 0 1 3.516-3.516h37.5a3.516 3.516 0 1 1 0 7.032h-37.5a3.516 3.516 0 0 1-3.516-3.516ZM120.703 37.5v89.062a12.903 12.903 0 0 1-12.891 12.891H42.188a12.904 12.904 0 0 1-12.891-12.891V37.5a12.905 12.905 0 0 1 12.89-12.89h65.625a12.904 12.904 0 0 1 12.891 12.89Zm-7.031 0a5.869 5.869 0 0 0-5.86-5.86H42.188a5.867 5.867 0 0 0-5.86 5.86v89.062a5.868 5.868 0 0 0 5.86 5.86h65.624a5.87 5.87 0 0 0 4.142-1.718 5.87 5.87 0 0 0 1.718-4.142V37.5ZM84.375 78.516H70.818l7.446-18.617a3.514 3.514 0 0 0-4.65-4.54 3.516 3.516 0 0 0-1.878 1.93L62.36 80.725a3.514 3.514 0 0 0 3.264 4.82h13.557l-7.446 18.617a3.518 3.518 0 0 0 1.958 4.57 3.517 3.517 0 0 0 4.57-1.958l9.375-23.438a3.515 3.515 0 0 0-3.264-4.821Z" fill="#1C1C1C"/></symbol><symbol fill="none" viewBox="0 0 151 150" id="bulb" xmlns="http://www.w3.org/2000/svg"><path d="M97.517 117.188a3.514 3.514 0 0 1-3.516 3.515h-37.5a3.513 3.513 0 0 1-3.515-3.515 3.514 3.514 0 0 1 3.516-3.516h37.5a3.513 3.513 0 0 1 3.515 3.516Zm-8.203 15.234H61.189a3.513 3.513 0 0 0-3.516 3.516 3.514 3.514 0 0 0 3.516 3.515h28.125a3.513 3.513 0 0 0 3.516-3.515 3.514 3.514 0 0 0-3.516-3.516ZM75.251 10.547a50.392 50.392 0 0 0-30.24 90.702 3.515 3.515 0 0 0 4.223-5.622 43.36 43.36 0 1 1 52.035 0 3.505 3.505 0 0 0-1.373 2.317 3.517 3.517 0 0 0 5.596 3.305 50.397 50.397 0 0 0 17.563-56.248 50.39 50.39 0 0 0-47.804-34.454Z" fill="#1C1C1C"/></symbol><symbol fill="none" viewBox="0 0 150 150" id="car" xmlns="http://www.w3.org/2000/svg"><path d="M140.625 66.797h-7.091L116.949 29.48a8.209 8.209 0 0 0-7.495-4.872H40.546a8.21 8.21 0 0 0-7.495 4.872L16.465 66.797H9.375a3.516 3.516 0 0 0 0 7.031h5.86v48.047a8.213 8.213 0 0 0 8.203 8.203H37.5a8.21 8.21 0 0 0 8.203-8.203v-10.547h58.594v10.547a8.21 8.21 0 0 0 8.203 8.203h14.063a8.21 8.21 0 0 0 8.203-8.203V73.828h5.859a3.516 3.516 0 0 0 0-7.031Zm-101.15-34.46a1.174 1.174 0 0 1 1.071-.696h68.908a1.175 1.175 0 0 1 1.071.695l15.315 34.46H24.16l15.315-34.459Zm88.259 89.538a1.172 1.172 0 0 1-1.171 1.172H112.5a1.173 1.173 0 0 1-1.172-1.172v-14.062c0-.933-.37-1.827-1.03-2.486a3.511 3.511 0 0 0-2.485-1.03H42.187a3.513 3.513 0 0 0-3.515 3.516v14.062a1.171 1.171 0 0 1-1.172 1.172H23.437a1.175 1.175 0 0 1-1.171-1.172V73.828h105.468v48.047Z" fill="#1C1C1C"/></symbol><symbol fill="none" viewBox="0 0 151 150" id="card" xmlns="http://www.w3.org/2000/svg"><path d="M131.75 29.297H19.25a8.213 8.213 0 0 0-8.203 8.203v19.182c0 .022-.004.045-.004.067 0 .023.004.046.004.068V112.5a8.213 8.213 0 0 0 8.203 8.203h112.5a8.21 8.21 0 0 0 8.203-8.203v-75a8.21 8.21 0 0 0-8.203-8.203Zm-112.5 7.031h112.5a1.171 1.171 0 0 1 1.172 1.172v15.734H18.078V37.5a1.173 1.173 0 0 1 1.172-1.172Zm112.5 77.344H19.25a1.17 1.17 0 0 1-1.172-1.172V60.265h114.844V112.5c0 .311-.124.609-.344.828-.219.22-.517.344-.828.344ZM121.2 98.438a3.516 3.516 0 0 1-3.516 3.515h-18.75a3.513 3.513 0 0 1-3.516-3.516 3.515 3.515 0 0 1 3.516-3.515h18.75a3.516 3.516 0 0 1 3.516 3.516Zm-37.5 0a3.514 3.514 0 0 1-3.516 3.515H70.81a3.513 3.513 0 0 1-3.516-3.516 3.516 3.516 0 0 1 3.516-3.515h9.375a3.516 3.516 0 0 1 3.516 3.516Z" fill="#1C1C1C"/></symbol><symbol fill="none" viewBox="0 0 151 150" id="clock" xmlns="http://www.w3.org/2000/svg"><path d="M75.25 134.766A59.767 59.767 0 0 1 32.99 32.739 59.766 59.766 0 0 1 135.015 75a59.835 59.835 0 0 1-59.766 59.766Zm0-112.5A52.735 52.735 0 1 0 127.984 75 52.793 52.793 0 0 0 75.25 22.266ZM111.578 75a3.513 3.513 0 0 0-3.515-3.516H78.766V42.188a3.516 3.516 0 0 0-7.032 0V75a3.516 3.516 0 0 0 3.516 3.516h32.813A3.514 3.514 0 0 0 111.578 75Z" fill="#1C1C1C"/></symbol><symbol fill="none" viewBox="0 0 150 150" id="close" xmlns="http://www.w3.org/2000/svg"><g clip-path="url(#fa)"><path d="M118.989 114.092a3.458 3.458 0 0 1-.003 4.892 3.462 3.462 0 0 1-4.893.003L75 79.897l-39.093 39.09a3.46 3.46 0 0 1-4.893-.003 3.46 3.46 0 0 1-.003-4.892l39.093-39.091-39.093-39.09a3.461 3.461 0 0 1 4.896-4.896L75 70.105l39.093-39.09A3.464 3.464 0 0 1 120 33.463a3.46 3.46 0 0 1-1.011 2.447L79.896 75.001l39.093 39.091Z" fill="#757575"/></g><defs><clipPath id="fa"><path fill="#fff" transform="translate(30 30)" d="M0 0h90v90H0z"/></clipPath></defs></symbol><symbol fill="none" viewBox="0 0 151 150" id="coffee" xmlns="http://www.w3.org/2000/svg"><path d="M48.797 32.813v-18.75a3.516 3.516 0 0 1 7.031 0v18.75a3.516 3.516 0 0 1-7.031 0Zm22.266 3.515a3.516 3.516 0 0 0 3.515-3.516v-18.75a3.516 3.516 0 0 0-7.031 0v18.75a3.516 3.516 0 0 0 3.516 3.516Zm18.75 0a3.516 3.516 0 0 0 3.515-3.516v-18.75a3.516 3.516 0 0 0-7.031 0v18.75a3.516 3.516 0 0 0 3.516 3.516Zm55.078 33.984V75a22.292 22.292 0 0 1-21.644 22.25 55.434 55.434 0 0 1-18.24 25.797h17.618a3.513 3.513 0 0 1 3.516 3.515 3.516 3.516 0 0 1-3.516 3.516H92.631l-.06.003c-.016 0-.03-.003-.046-.003H19.5a3.513 3.513 0 0 1-3.516-3.516 3.514 3.514 0 0 1 3.516-3.515h17.618a55.271 55.271 0 0 1-21.134-43.36V51.564a3.516 3.516 0 0 1 3.516-3.516h103.125a22.292 22.292 0 0 1 22.266 22.266Zm-27.678 22.685c.027-.122.06-.243.1-.362a47.714 47.714 0 0 0 1.796-12.948V55.078H23.016v24.61a48.208 48.208 0 0 0 27.338 43.359H91.77a48.238 48.238 0 0 0 25.442-30.05Zm20.646-22.684a15.252 15.252 0 0 0-11.718-14.82v24.194a54.717 54.717 0 0 1-.991 10.334A15.258 15.258 0 0 0 137.859 75v-4.688Z" fill="#1C1C1C"/></symbol><symbol fill="none" viewBox="0 0 150 150" id="down" xmlns="http://www.w3.org/2000/svg"><path d="M78.616 119.305V21.967a3.616 3.616 0 0 0-7.23 0v97.338L34.467 82.387a3.616 3.616 0 0 0-5.113 5.114l43.089 43.089a3.616 3.616 0 0 0 5.113 0l43.09-43.09a3.616 3.616 0 1 0-5.114-5.113l-36.917 36.918Z" fill="#1C1C1C" stroke="#1C1C1C" stroke-width=".2"/></symbol><symbol fill="none" viewBox="0 0 150 150" id="left" xmlns="http://www.w3.org/2000/svg"><path d="M30.696 71.386h97.337a3.617 3.617 0 0 1 3.614 3.615 3.618 3.618 0 0 1-3.613 3.616H30.696l36.917 36.917a3.616 3.616 0 0 1-5.113 5.113L19.41 77.558a3.616 3.616 0 0 1 0-5.113l43.09-43.09a3.616 3.616 0 0 1 5.113 5.114L30.696 71.386Z" fill="#1C1C1C" stroke="#1C1C1C" stroke-width=".2"/></symbol><symbol fill="none" viewBox="0 0 150 150" id="link" xmlns="http://www.w3.org/2000/svg"><path d="M108.884 103.771 40.057 34.944a3.616 3.616 0 0 0-5.114 5.112l68.828 68.828H51.562a3.616 3.616 0 0 0 0 7.232H112.5a3.618 3.618 0 0 0 3.616-3.616V51.562a3.616 3.616 0 0 0-7.232 0v52.209Z" fill="#1C1C1C" stroke="#1C1C1C" stroke-width=".2"/></symbol><symbol fill="none" viewBox="0 0 150 150" id="mail" xmlns="http://www.w3.org/2000/svg"><path d="M139.461 28.955a3.707 3.707 0 0 0-.17-.718l-.031-.085a3.783 3.783 0 0 0-.279-.59c-.015-.027-.031-.052-.047-.078a3.812 3.812 0 0 0-.404-.542c-.011-.01-.017-.024-.027-.035-.01-.01-.022-.018-.031-.028a3.865 3.865 0 0 0-.505-.45l-.071-.053a3.785 3.785 0 0 0-.569-.332l-.074-.035a3.743 3.743 0 0 0-.617-.213l-.078-.02a3.804 3.804 0 0 0-.632-.089l-.104-.005c-.039-.001-.077-.006-.116-.006H14.294c-.04 0-.078.005-.118.006l-.1.005a3.771 3.771 0 0 0-.635.09c-.026.005-.05.012-.076.019-.212.053-.42.124-.619.213-.025.01-.048.023-.073.035-.199.094-.39.205-.57.332l-.07.053c-.181.135-.35.285-.505.45-.01.01-.021.017-.03.028-.011.01-.017.024-.027.035a3.8 3.8 0 0 0-.731 1.21l-.031.085a3.77 3.77 0 0 0-.155.623l-.015.095c-.025.17-.038.343-.039.515v86a8.86 8.86 0 0 0 8.853 8.853h111.294a8.86 8.86 0 0 0 8.853-8.853v-86a3.703 3.703 0 0 0-.039-.515Zm-7.549 82.949L91.652 75l40.26-36.904v73.808ZM18.088 38.096 58.348 75l-40.26 36.904V38.096ZM75 79.97 24.048 33.264h101.904L75 79.97Zm-11.037.176 8.473 7.767a3.794 3.794 0 0 0 5.128 0l8.474-7.767 39.914 36.588H24.049l39.914-36.588Z" fill="#1C1C1C"/></symbol><symbol fill="none" viewBox="0 0 151 150" id="phone" xmlns="http://www.w3.org/2000/svg"><path d="M103.625 130.078c-45.878 0-83.203-37.325-83.203-83.203a31.68 31.68 0 0 1 27.64-31.39 8.22 8.22 0 0 1 8.532 4.915l11.772 27.467a8.187 8.187 0 0 1-.676 7.725l-9.747 14.893a1.129 1.129 0 0 0-.098 1.106 46.018 46.018 0 0 0 21.251 21.156 1.128 1.128 0 0 0 1.109-.106l14.669-9.782a8.176 8.176 0 0 1 7.782-.715L130.1 93.906a8.217 8.217 0 0 1 4.915 8.533 31.682 31.682 0 0 1-31.39 27.639ZM49.075 22.453c-.044 0-.089.003-.133.008a24.636 24.636 0 0 0-21.489 24.414 76.26 76.26 0 0 0 76.172 76.172 24.64 24.64 0 0 0 24.414-21.489 1.158 1.158 0 0 0-.709-1.19L99.887 88.607a1.173 1.173 0 0 0-1.113.102l-14.668 9.782a8.185 8.185 0 0 1-8.066.588 53.08 53.08 0 0 1-24.514-24.402 8.192 8.192 0 0 1 .533-8.042l9.748-14.894a1.171 1.171 0 0 0 .096-1.105L50.132 23.17a1.167 1.167 0 0 0-1.056-.717Z" fill="#1C1C1C"/></symbol><symbol fill="none" viewBox="0 0 150 150" id="pin" xmlns="http://www.w3.org/2000/svg"><path d="M75 38.672a22.266 22.266 0 1 0 22.265 22.266A22.29 22.29 0 0 0 75 38.672Zm0 37.5a15.234 15.234 0 1 1 15.234-15.234A15.251 15.251 0 0 1 75 76.171Zm0-65.625a50.448 50.448 0 0 0-50.39 50.39c0 18.11 8.402 37.346 24.3 55.628a147.82 147.82 0 0 0 24.074 22.252 3.513 3.513 0 0 0 4.032 0 147.82 147.82 0 0 0 24.074-22.252c15.898-18.282 24.3-37.518 24.3-55.627A50.45 50.45 0 0 0 75 10.547Zm0 121.003c-8.802-6.789-43.36-35.677-43.36-70.613a43.36 43.36 0 0 1 86.719 0c0 34.936-34.558 63.825-43.36 70.613Z" fill="#1C1C1C"/></symbol><symbol fill="none" viewBox="0 0 150 150" id="right" xmlns="http://www.w3.org/2000/svg"><path d="M119.304 71.386H21.967a3.616 3.616 0 0 0 0 7.23h97.337l-36.917 36.918a3.616 3.616 0 0 0 5.113 5.113l43.089-43.089a3.616 3.616 0 0 0 0-5.113l-43.09-43.09a3.616 3.616 0 0 0-5.112 5.114l36.917 36.917Z" fill="#1C1C1C" stroke="#1C1C1C" stroke-width=".2"/></symbol><symbol fill="none" viewBox="0 0 143 150" id="stack" xmlns="http://www.w3.org/2000/svg"><path d="m7.974 63.99 62.125 37.5a3.196 3.196 0 0 0 1.651.463c.58 0 1.148-.16 1.651-.463l62.125-37.5c.51-.308.933-.752 1.228-1.288a3.673 3.673 0 0 0 .449-1.764c0-.62-.155-1.229-.449-1.765a3.426 3.426 0 0 0-1.228-1.288l-62.125-37.5a3.19 3.19 0 0 0-1.651-.463c-.58 0-1.148.16-1.651.463l-62.125 37.5c-.51.308-.933.752-1.227 1.288a3.668 3.668 0 0 0-.45 1.764c0 .62.155 1.229.45 1.765.294.536.718.98 1.227 1.288ZM71.75 27.486l55.417 33.451L71.75 94.39 16.333 60.938 71.75 27.486Zm65.015 55.145c.217.4.356.843.412 1.3a3.71 3.71 0 0 1-.091 1.369 3.59 3.59 0 0 1-.58 1.228c-.267.364-.6.67-.98.9l-62.125 37.499a3.188 3.188 0 0 1-1.651.464c-.58 0-1.148-.16-1.651-.464l-62.125-37.5a3.388 3.388 0 0 1-.98-.9 3.597 3.597 0 0 1-.58-1.227 3.706 3.706 0 0 1 .322-2.67c.216-.4.506-.752.851-1.034a3.26 3.26 0 0 1 1.162-.612 3.155 3.155 0 0 1 1.296-.096c.433.058.852.206 1.231.435l60.474 36.503 60.474-36.503c.379-.23.798-.377 1.231-.435a3.158 3.158 0 0 1 1.296.095c.422.122.816.33 1.162.612.345.283.635.635.852 1.036Z" fill="#1C1C1C"/></symbol></svg>