<svg width="151" height="150" viewBox="0 0 151 150" fill="none" xmlns="http://www.w3.org/2000/svg">
<path d="M103.625 130.078C57.7468 130.078 20.4219 92.7533 20.4219 46.8751C20.4297 39.1784 23.2391 31.7476 28.3255 25.971C33.4119 20.1944 40.4272 16.467 48.0611 15.4851C49.8234 15.2731 51.607 15.6373 53.1451 16.5232C54.6833 17.4091 55.8933 18.7691 56.5944 20.3998L68.3663 47.8673C68.9007 49.1104 69.1187 50.4666 69.0007 51.8146C68.8826 53.1625 68.4323 54.4602 67.69 55.5915L57.9425 70.4854C57.8323 70.6456 57.7654 70.8316 57.7482 71.0253C57.7311 71.219 57.7643 71.4138 57.8446 71.5909C62.3677 80.8178 69.849 88.2659 79.0963 92.7471C79.2745 92.8267 79.4703 92.8588 79.6645 92.8401C79.8588 92.8215 80.0449 92.7527 80.2047 92.6406L94.8737 82.8588C96.0081 82.0994 97.3146 81.6362 98.6741 81.5113C100.033 81.3865 101.402 81.604 102.656 82.1441L130.1 93.9058C131.731 94.6065 133.091 95.8165 133.977 97.3547C134.863 98.8929 135.227 100.677 135.015 102.439C134.033 110.073 130.306 117.088 124.529 122.175C118.752 127.261 111.322 130.07 103.625 130.078ZM49.0756 22.4529C49.031 22.4529 48.9865 22.4557 48.9423 22.4614C43.006 23.2259 37.551 26.1254 33.5964 30.6182C29.6418 35.111 27.4581 40.8898 27.4531 46.8751C27.4759 67.0702 35.5084 86.4316 49.7885 100.712C64.0686 114.992 83.4299 123.024 103.625 123.047C109.61 123.042 115.389 120.858 119.882 116.904C124.375 112.949 127.274 107.494 128.039 101.558C128.065 101.31 128.01 101.06 127.882 100.845C127.754 100.631 127.56 100.463 127.33 100.368L99.8868 88.6066C99.7075 88.5298 99.5118 88.4989 99.3176 88.5168C99.1234 88.5347 98.9367 88.6008 98.7744 88.709L84.106 98.4908C82.9275 99.2791 81.5645 99.7478 80.1505 99.8509C78.7365 99.954 77.3199 99.6881 76.0396 99.079C65.3732 93.91 56.7438 85.3196 51.5264 74.6768C50.9146 73.4041 50.6421 71.9949 50.7355 70.5859C50.8288 69.1769 51.2847 67.8159 52.0591 66.6351L61.8066 51.7406C61.9127 51.5788 61.9771 51.3933 61.994 51.2006C62.0109 51.0078 61.9797 50.8139 61.9033 50.6362L50.1319 23.1698C50.0445 22.9606 49.8981 22.7814 49.7105 22.6541C49.5229 22.5268 49.3023 22.4568 49.0756 22.4529Z" fill="#1C1C1C"/>
</svg>
