<svg width="150" height="150" viewBox="0 0 150 150" fill="none" xmlns="http://www.w3.org/2000/svg">
<path d="M74.9998 38.6719C70.596 38.6719 66.2912 39.9777 62.6296 42.4243C58.9681 44.8709 56.1142 48.3483 54.429 52.4168C52.7438 56.4853 52.3028 60.9622 53.162 65.2813C54.0211 69.6004 56.1417 73.5678 59.2556 76.6817C62.3695 79.7956 66.3368 81.9162 70.6559 82.7753C74.9751 83.6344 79.4519 83.1935 83.5204 81.5083C87.589 79.823 91.0664 76.9692 93.5129 73.3076C95.9595 69.6461 97.2654 65.3412 97.2654 60.9375C97.2587 55.0343 94.9107 49.3749 90.7365 45.2007C86.5624 41.0266 80.9029 38.6786 74.9998 38.6719ZM74.9998 76.1719C71.9867 76.1719 69.0413 75.2784 66.536 73.6044C64.0307 71.9304 62.0781 69.5512 60.925 66.7674C59.772 63.9837 59.4703 60.9206 60.0581 57.9654C60.6459 55.0102 62.0969 52.2957 64.2274 50.1652C66.358 48.0346 69.0725 46.5837 72.0277 45.9958C74.9829 45.408 78.046 45.7097 80.8297 46.8628C83.6134 48.0158 85.9927 49.9685 87.6667 52.4737C89.3407 54.979 90.2341 57.9244 90.2341 60.9375C90.2296 64.9765 88.6231 68.8488 85.7671 71.7048C82.9111 74.5609 79.0388 76.1674 74.9998 76.1719ZM74.9998 10.5469C61.64 10.562 48.8317 15.8758 39.3849 25.3226C29.9381 34.7694 24.6242 47.5777 24.6091 60.9375C24.6091 79.0472 33.012 98.2827 48.9095 116.565C56.0843 124.852 64.1588 132.315 72.9839 138.817C73.5747 139.231 74.2785 139.453 74.9998 139.453C75.721 139.453 76.4248 139.231 77.0156 138.817C85.8407 132.315 93.9152 124.852 101.09 116.565C116.988 98.2827 125.39 79.0472 125.39 60.9375C125.375 47.5777 120.061 34.7694 110.615 25.3226C101.168 15.8758 88.3596 10.562 74.9998 10.5469ZM74.9998 131.55C66.1975 124.761 31.6404 95.8735 31.6404 60.9375C31.6404 49.4379 36.2086 38.4093 44.34 30.2778C52.4715 22.1463 63.5001 17.5781 74.9998 17.5781C86.4994 17.5781 97.528 22.1463 105.659 30.2778C113.791 38.4093 118.359 49.4379 118.359 60.9375C118.359 95.8734 83.8008 124.762 74.9998 131.55Z" fill="#1C1C1C"/>
</svg>
