<svg width="143" height="150" viewBox="0 0 143 150" fill="none" xmlns="http://www.w3.org/2000/svg">
<path d="M7.97396 63.9897L70.099 101.49C70.6017 101.793 71.1708 101.953 71.75 101.953C72.3292 101.953 72.8983 101.793 73.4011 101.49L135.526 63.9897C136.036 63.6823 136.459 63.238 136.754 62.702C137.048 62.166 137.203 61.5573 137.203 60.9375C137.203 60.3177 137.048 59.709 136.754 59.173C136.459 58.637 136.036 58.1928 135.526 57.8854L73.4011 20.3854C72.8983 20.0816 72.3292 19.9219 71.75 19.9219C71.1708 19.9219 70.6017 20.0816 70.099 20.3854L7.97396 57.8854C7.4645 58.1928 7.04105 58.637 6.74653 59.173C6.452 59.709 6.29688 60.3177 6.29688 60.9375C6.29688 61.5573 6.452 62.166 6.74653 62.702C7.04105 63.238 7.4645 63.6823 7.97396 63.9897ZM71.75 27.4864L127.167 60.9375L71.75 94.3886L16.333 60.9375L71.75 27.4864ZM136.765 82.6309C136.982 83.0317 137.121 83.4738 137.177 83.9317C137.232 84.3897 137.201 84.8547 137.086 85.3C136.971 85.7454 136.774 86.1625 136.506 86.5275C136.239 86.8925 135.906 87.1982 135.526 87.4271L73.4011 124.927C72.8983 125.231 72.3292 125.391 71.75 125.391C71.1708 125.391 70.6017 125.231 70.099 124.927L7.97396 87.4271C7.59452 87.1981 7.2615 86.8924 6.99392 86.5274C6.72634 86.1624 6.52944 85.7453 6.41445 85.2999C6.29946 84.8546 6.26864 84.3896 6.32376 83.9317C6.37887 83.4737 6.51883 83.0317 6.73565 82.6309C6.95247 82.2301 7.2419 81.8783 7.58742 81.5957C7.93294 81.313 8.32778 81.105 8.7494 80.9836C9.17102 80.8621 9.61116 80.8295 10.0447 80.8878C10.4782 80.946 10.8966 81.0938 11.2761 81.3229L71.75 117.826L132.224 81.3229C132.603 81.0937 133.022 80.9458 133.455 80.8875C133.889 80.8292 134.329 80.8617 134.751 80.9832C135.173 81.1047 135.567 81.3127 135.913 81.5954C136.258 81.8782 136.548 82.23 136.765 82.6309Z" fill="#1C1C1C"/>
</svg>
