<svg width="91" height="40" viewBox="0 0 91 40" fill="none" xmlns="http://www.w3.org/2000/svg">
<mask id="mask0_3012_11510" style="mask-type:luminance" maskUnits="userSpaceOnUse" x="0" y="0" width="90" height="40">
<path d="M90 0H0V40H90V0Z" fill="white"/>
</mask>
<g mask="url(#mask0_3012_11510)">
<path d="M8.34499 0.519531H-0.199219V29.4824H8.34499V0.519531Z" fill="#29366B"/>
<path d="M27.7868 0.519531H19.2461V29.4824H27.7868V0.519531Z" fill="#29366B"/>
<path d="M15.1923 0.519531H9.70312V13.9956H15.1923C16.9562 13.9956 17.8875 12.2952 17.8875 10.75V3.77212C17.8875 2.21991 16.9703 0.519531 15.1923 0.519531Z" fill="#29366B"/>
<path d="M15.1923 15.6543H9.70312V29.4831H15.1923C16.9562 29.4831 17.8875 27.7403 17.8875 26.1493V18.9915C17.8875 17.3935 16.9703 15.6543 15.1923 15.6543Z" fill="#29366B"/>
<path d="M35.9438 11.8515C37.1044 11.8515 37.9229 11.8021 38.4132 11.4634C38.6735 11.2775 38.8838 11.0301 39.0253 10.7433C39.1669 10.4565 39.2354 10.1391 39.2246 9.81947C39.2449 9.46278 39.1634 9.10769 38.9898 8.79542C38.8162 8.48319 38.5575 8.22665 38.2439 8.0556C37.7167 7.82615 37.1417 7.7281 36.5682 7.76983H35.2383V11.8515H35.9438ZM36.0214 6.17883C37.8876 6.17883 38.7237 5.74492 38.7237 4.41496C38.7237 2.81336 37.8488 2.50644 36.0214 2.50644H35.2383V6.17883H36.0214ZM33.1992 0.746094H36.4024C37.7535 0.746094 38.7695 0.806066 39.5562 1.39873C39.9606 1.721 40.2837 2.13375 40.4994 2.60373C40.715 3.07371 40.8174 3.58777 40.798 4.10451C40.798 5.47683 40.1595 6.42578 38.9671 6.79265C40.4417 7.02551 41.3519 8.22847 41.3519 9.96765C41.3663 10.9605 40.9929 11.9198 40.3112 12.6417C39.4045 13.5624 38.1945 13.6153 36.4306 13.6153H33.2063L33.1992 0.746094Z" fill="#29366B"/>
<path d="M43.4609 0.75H50.559V2.52799H45.5213V5.74528H50.559V7.57619H45.5213V11.7354H50.559V13.6016H43.4609V0.75Z" fill="#29366B"/>
<path d="M53.8514 10.2579C54.155 11.4079 55.0087 12.0217 56.3209 12.0217C57.5664 12.0217 58.3318 11.2668 58.3318 10.1203C58.3318 8.86088 57.3864 8.55397 56.0741 7.90842C53.8128 6.79715 52.5673 5.92933 52.5673 3.9926C52.5673 1.92533 54.0737 0.464844 56.3878 0.464844C58.2787 0.464844 59.5628 1.23742 60.0568 2.58149L58.4378 3.42463C57.94 2.63441 57.3546 2.25694 56.5537 2.25694C55.4282 2.25694 54.7405 2.90605 54.7405 3.87265C54.7405 5.11442 55.7355 5.49542 57.1605 6.1516C59.4041 7.20992 60.4482 8.11656 60.4482 9.96156C60.4482 12.3534 58.8678 13.9373 56.2328 13.9373C54.0596 13.9373 52.6378 12.879 52.2109 11.0305L53.8514 10.2579Z" fill="#29366B"/>
<path d="M64.7938 0.757812H62.7266V13.6024H64.7938V0.757812Z" fill="#29366B"/>
<path d="M67.7578 0.251953L75.8328 8.09768C76.3374 8.58795 76.8087 9.11118 77.2442 9.66399V0.745839H79.1492V14.1019L70.8942 6.10804C70.4428 5.66622 70.0305 5.18577 69.6628 4.67222V13.6009H67.7578V0.251953Z" fill="#29366B"/>
<path d="M82.972 10.2579C83.2757 11.4079 84.1257 12.0217 85.4416 12.0217C86.6834 12.0217 87.4489 11.2668 87.4489 10.1203C87.4489 8.86088 86.5034 8.55397 85.1911 7.90842C82.9334 6.79715 81.6848 5.92933 81.6848 3.9926C81.6848 1.92533 83.1979 0.464844 85.512 0.464844C87.3961 0.464844 88.687 1.23742 89.1775 2.58149L87.5584 3.42463C87.0611 2.63441 86.4684 2.25694 85.6743 2.25694C84.5525 2.25694 83.8579 2.90605 83.8579 3.87265C83.8579 5.11442 84.8561 5.49542 86.2779 6.1516C88.5179 7.20992 89.5657 8.11656 89.5657 9.96156C89.5657 12.3534 87.9852 13.9373 85.3498 13.9373C83.1802 13.9373 81.7552 12.879 81.332 11.0305L82.972 10.2579Z" fill="#29366B"/>
<path d="M37.8143 21.2592V18.2324H38.6363V25.6901H37.8143V22.0318H34.0325V25.6901H33.207V18.2324H34.0325V21.2592H37.8143Z" fill="#29366B"/>
<path d="M40.1641 18.2324H43.9917V19.0015H40.9861V21.2204H43.9V21.9895H40.9861V24.914H43.9917V25.6901H40.1641V18.2324Z" fill="#29366B"/>
<path d="M48.0929 19.8133L46.8266 22.8049H49.3275L48.0929 19.8133ZM46.4948 23.5774L45.5989 25.6941H44.6992L48.107 17.873L51.4302 25.6941H50.5375L49.6734 23.5774H46.4948Z" fill="#29366B"/>
<path d="M53.0562 24.914H55.0989V25.6901H52.2344V18.2324H53.0562V24.914Z" fill="#29366B"/>
<path d="M57.088 25.6901H56.2626V19.0015H54.4844V18.2324H58.8907V19.0015H57.088V25.6901Z" fill="#29366B"/>
<path d="M64.3734 21.2592V18.2324H65.1957V25.6901H64.3734V22.0318H60.5953V25.6901H59.7734V18.2324H60.5953V21.2592H64.3734Z" fill="#29366B"/>
<path d="M72.3623 19.859C72.0714 19.552 71.7223 19.3061 71.335 19.1359C70.9482 18.9656 70.5309 18.8745 70.1082 18.8677C69.3141 18.9083 68.5659 19.253 68.0195 19.8302C67.4727 20.4075 67.1695 21.1731 67.1723 21.9681C67.175 22.7631 67.4836 23.5266 68.0341 24.1001C68.5845 24.6736 69.335 25.0132 70.1291 25.0483C70.9741 25.021 71.775 24.6654 72.3623 24.057V25.0906C71.7918 25.5046 71.1182 25.7525 70.4155 25.8067C69.7127 25.8609 69.0091 25.7194 68.3818 25.3978C67.755 25.0762 67.2291 24.5872 66.8632 23.985C66.4973 23.3828 66.3055 22.6909 66.3086 21.9862C66.3086 20.9625 66.7132 19.9803 67.4341 19.2535C68.155 18.5266 69.1336 18.1141 70.1573 18.1057C70.9536 18.0967 71.73 18.3551 72.3623 18.8395V19.859Z" fill="#29366B"/>
<path d="M76.4569 19.8133L75.19 22.8049H77.7055L76.4569 19.8133ZM74.8587 23.5774L73.9696 25.6941H73.0664L76.4778 17.873L79.7941 25.6941H78.8837L78.0159 23.5774H74.8587Z" fill="#29366B"/>
<path d="M81.4163 21.6822H81.6704C82.6017 21.6822 83.5472 21.5058 83.5472 20.3452C83.5472 19.114 82.6508 19.0011 81.6631 19.0011H81.4163V21.6822ZM81.4163 25.6897H80.5977V18.2285H81.6563C83.0672 18.2285 84.3586 18.6025 84.3586 20.2852C84.374 20.5425 84.3386 20.8004 84.2536 21.0438C84.1686 21.2873 84.0363 21.5114 83.8636 21.7031C83.6913 21.8948 83.4827 22.0504 83.2495 22.1607C83.0167 22.2709 82.764 22.3337 82.5063 22.3454L84.8663 25.6932H83.8577L81.6245 22.4195H81.4163V25.6897Z" fill="#29366B"/>
<path d="M85.8281 18.2148V25.6796H89.6631V24.907H86.6536V21.9789H89.5713V21.2064H86.6536V18.9909H89.6631V18.2148H85.8281Z" fill="#29366B"/>
<path d="M89.5692 28.9492H33.1992V29.4819H89.5692V28.9492Z" fill="#29366B"/>
<path d="M3.17684 38.3192H2.65826V36.2026H0.319361V38.3192H-0.199219V33.8672H0.319361V35.7616H2.65826V33.8672H3.17684V38.3192Z" fill="#29366B"/>
<path d="M5.42033 34.9217C5.7386 34.8973 6.05451 34.9929 6.30579 35.1898C6.4117 35.3044 6.49247 35.4399 6.54288 35.5875C6.59329 35.7351 6.61229 35.8917 6.5986 36.0471V38.3189H6.2282L6.13292 37.825H6.10824C6.02038 37.9374 5.92106 38.0402 5.81192 38.132C5.70647 38.2141 5.58692 38.2763 5.45915 38.3154C5.29947 38.3595 5.13438 38.3809 4.96879 38.3789C4.78351 38.3807 4.59988 38.3447 4.42903 38.2731C4.28205 38.202 4.15932 38.0891 4.07625 37.9485C3.97918 37.7831 3.93144 37.5934 3.93867 37.4017C3.93086 37.2508 3.96215 37.1003 4.02952 36.965C4.09688 36.8296 4.19804 36.714 4.3232 36.6291C4.69106 36.4231 5.10833 36.3219 5.5297 36.3364L6.10824 36.3116V36.107C6.11947 35.9985 6.1087 35.8889 6.07656 35.7846C6.04442 35.6804 5.9916 35.5836 5.92129 35.5003C5.7757 35.3781 5.58888 35.3163 5.39915 35.3274C5.22906 35.3257 5.05983 35.3519 4.89824 35.405C4.74365 35.4543 4.59274 35.5144 4.44667 35.5849L4.28792 35.218C4.45326 35.134 4.6271 35.0677 4.80651 35.0205C5.00538 34.9585 5.21206 34.9253 5.42033 34.9217ZM6.09765 36.6856L5.58965 36.7068C5.28279 36.6961 4.97856 36.7667 4.70774 36.9114C4.62533 36.9674 4.55851 37.0434 4.51349 37.1322C4.46845 37.221 4.44668 37.3198 4.4502 37.4194C4.44435 37.4988 4.45726 37.5785 4.4879 37.6521C4.51854 37.7256 4.56606 37.7909 4.6266 37.8427C4.75874 37.9406 4.92097 37.9893 5.0852 37.9803C5.34979 37.9918 5.6091 37.9037 5.81192 37.7334C5.91156 37.637 5.9881 37.5194 6.03574 37.3892C6.08342 37.2591 6.10097 37.1198 6.08706 36.982L6.09765 36.6856Z" fill="#29366B"/>
<path d="M11.6138 35.8152C11.6196 35.9052 11.6063 35.9955 11.5747 36.08C11.543 36.1645 11.4938 36.2414 11.4303 36.3055C11.2977 36.4265 11.1341 36.5083 10.9577 36.5418V36.5666C11.1553 36.5909 11.3428 36.6677 11.5009 36.7888C11.5789 36.8561 11.6405 36.9403 11.6809 37.0352C11.7213 37.1299 11.7393 37.2328 11.7338 37.3356C11.7379 37.5147 11.6901 37.6911 11.5962 37.8436C11.4927 38.0029 11.3423 38.1262 11.1658 38.1964C10.9237 38.2877 10.666 38.3308 10.4073 38.3234H8.96094V34.9826H10.372C10.5864 34.9798 10.8002 35.0071 11.007 35.0638C11.1748 35.1068 11.3258 35.199 11.4409 35.3283C11.558 35.4629 11.6198 35.6368 11.6138 35.8152ZM11.0988 35.8751C11.1036 35.8063 11.0901 35.7374 11.0598 35.6755C11.0294 35.6135 10.9832 35.5607 10.9259 35.5223C10.7521 35.4283 10.5548 35.3867 10.3579 35.4024H9.46894V36.3619H10.2662C10.4795 36.3729 10.6923 36.333 10.8871 36.2455C10.9536 36.2098 11.0087 36.1562 11.0461 36.0907C11.0835 36.0252 11.1018 35.9505 11.0988 35.8751ZM11.2011 37.3391C11.2072 37.2549 11.1892 37.1708 11.1492 37.0964C11.1092 37.0221 11.0489 36.9607 10.9753 36.9193C10.7754 36.8154 10.551 36.7679 10.3262 36.7818H9.46894V37.9036H10.3227C10.544 37.9163 10.7649 37.8726 10.9647 37.7766C11.042 37.7332 11.1053 37.6687 11.1471 37.5905C11.189 37.5124 11.2077 37.424 11.2011 37.3356V37.3391Z" fill="#29366B"/>
<path d="M13.6428 34.9217C13.9611 34.8973 14.277 34.9929 14.5283 35.1898C14.6335 35.3047 14.7136 35.4403 14.7634 35.5879C14.8133 35.7355 14.8317 35.8919 14.8175 36.0471V38.3189H14.4648L14.366 37.825H14.3448C14.257 37.9374 14.1577 38.0402 14.0485 38.132C13.9426 38.2134 13.8232 38.2755 13.6957 38.3154C13.536 38.3595 13.371 38.3809 13.2054 38.3789C13.0201 38.3807 12.8364 38.3447 12.6656 38.2731C12.5118 38.204 12.3817 38.0911 12.2917 37.9485C12.1974 37.7821 12.151 37.5929 12.1576 37.4017C12.1491 37.2506 12.1801 37.1 12.2475 36.9645C12.3149 36.829 12.4165 36.7135 12.5421 36.6291C12.91 36.4231 13.3273 36.3219 13.7486 36.3364L14.3237 36.3116V36.107C14.3354 35.9988 14.3252 35.8893 14.2936 35.785C14.2621 35.6808 14.2099 35.5839 14.1402 35.5003C13.9929 35.3788 13.8053 35.3171 13.6146 35.3274C13.4445 35.3259 13.2753 35.3521 13.1136 35.405C12.9604 35.4549 12.8108 35.515 12.6656 35.5849L12.5104 35.218C12.6745 35.1339 12.8472 35.0677 13.0254 35.0205C13.2256 34.9587 13.4334 34.9255 13.6428 34.9217ZM14.3201 36.6856L13.8086 36.7068C13.5028 36.6954 13.1995 36.766 12.9302 36.9114C12.8474 36.9669 12.7801 37.0428 12.735 37.1317C12.6899 37.2207 12.6685 37.3197 12.6727 37.4194C12.6669 37.4985 12.6795 37.5779 12.7095 37.6513C12.7395 37.7247 12.7861 37.7902 12.8455 37.8427C12.9794 37.9398 13.1424 37.9884 13.3077 37.9803C13.5723 37.9918 13.8316 37.9037 14.0344 37.7334C14.134 37.6395 14.2114 37.5246 14.2608 37.3971C14.3102 37.2695 14.3305 37.1324 14.3201 36.996V36.6856Z" fill="#29366B"/>
<path d="M20.2022 34.9805V38.3212H15.7148V34.9805H16.2158V37.8909H17.6939V34.9805H18.2019V37.8909H19.6836V34.9805H20.2022Z" fill="#29366B"/>
<path d="M22.3981 34.919C22.6542 34.9123 22.907 34.977 23.1284 35.1059C23.3324 35.2325 23.4944 35.4166 23.594 35.6351C23.7076 35.8839 23.7631 36.1554 23.7563 36.4288V36.7428H21.4527C21.4349 37.067 21.538 37.3863 21.7419 37.6388C21.8453 37.7439 21.9699 37.8256 22.1074 37.8785C22.2449 37.9315 22.3921 37.9544 22.5392 37.9458C22.7277 37.9472 22.9157 37.9283 23.1001 37.8893C23.2745 37.8476 23.4445 37.7898 23.6081 37.7165V38.161C23.447 38.2325 23.2792 38.2881 23.1072 38.3268C22.9143 38.3645 22.7181 38.3822 22.5216 38.3797C22.2294 38.3868 21.9403 38.3188 21.682 38.1821C21.4421 38.0499 21.2478 37.8482 21.1246 37.6036C20.9834 37.314 20.9155 36.9942 20.927 36.6723C20.9191 36.3525 20.9804 36.0348 21.1069 35.7409C21.2127 35.4929 21.3894 35.2818 21.6149 35.1342C21.8476 34.9834 22.1211 34.9082 22.3981 34.919ZM22.3981 35.3317C22.2774 35.3262 22.157 35.3474 22.0454 35.3937C21.9338 35.4401 21.8338 35.5104 21.7525 35.5998C21.5788 35.8075 21.4784 36.0666 21.4668 36.3371H23.2307C23.2309 36.1576 23.1987 35.9795 23.1354 35.8115C23.082 35.6695 22.9874 35.5466 22.8638 35.4587C22.7233 35.3681 22.558 35.3237 22.391 35.3317H22.3981Z" fill="#29366B"/>
<path d="M24.9407 34.9797V37.2339V37.4386C24.9407 37.5126 24.9407 37.5796 24.9407 37.6467C24.9407 37.7137 24.9407 37.7666 24.9407 37.809L26.761 34.9867H27.3854V38.3276H26.8774V36.2779C26.8774 36.2109 26.8774 36.1297 26.8774 36.0275V35.7276C26.8774 35.6288 26.8774 35.5547 26.8774 35.4983L25.0606 38.3205H24.4609V34.9797H24.9407ZM27.0997 33.6074C27.0894 33.7874 27.0375 33.9625 26.948 34.1189C26.8658 34.2577 26.7426 34.3674 26.5952 34.4329C26.3968 34.5117 26.1841 34.5478 25.9708 34.5387C25.7555 34.5479 25.5407 34.5131 25.3393 34.4364C25.1886 34.3781 25.0636 34.2681 24.9866 34.126C24.9023 33.9657 24.8552 33.7884 24.849 33.6074H25.3252C25.3239 33.7767 25.3884 33.9399 25.5051 34.0625C25.6454 34.1562 25.8133 34.1997 25.9814 34.186C26.1441 34.1955 26.3053 34.1508 26.44 34.059C26.5028 34.0016 26.5531 33.9319 26.5877 33.8542C26.6223 33.7765 26.6405 33.6925 26.6411 33.6074H27.0997Z" fill="#29366B"/>
<path d="M31.0882 38.3945C30.811 38.4 30.5368 38.3357 30.2909 38.2075C30.058 38.0791 29.8716 37.8803 29.7582 37.6396C29.6186 37.3408 29.5521 37.0131 29.5642 36.6836C29.5506 36.3406 29.6195 35.9994 29.7653 35.6887C29.8878 35.4454 30.0825 35.2458 30.3227 35.1172C30.5746 34.9923 30.8528 34.9294 31.1341 34.9338C31.2976 34.9339 31.4607 34.9505 31.6209 34.9832C31.753 35.0083 31.8811 35.051 32.0019 35.1102L31.8466 35.5335C31.7322 35.4876 31.6142 35.451 31.4939 35.4242C31.372 35.3907 31.2463 35.3729 31.12 35.3712C30.9165 35.3651 30.7156 35.4178 30.5414 35.5229C30.3809 35.6283 30.2576 35.7812 30.1886 35.9604C30.0351 36.4182 30.0351 36.9136 30.1886 37.3715C30.2496 37.548 30.3659 37.7002 30.5202 37.8054C30.684 37.914 30.8777 37.9684 31.0741 37.9606C31.2357 37.9609 31.3967 37.942 31.5539 37.9042C31.6855 37.8685 31.8141 37.8225 31.9384 37.7666V38.2217C31.8192 38.2787 31.6937 38.3213 31.5645 38.3487C31.4079 38.3814 31.2481 38.3968 31.0882 38.3945Z" fill="#29366B"/>
<path d="M34.8623 35.4109H33.7651V38.3212H33.2536V35.4109H32.1953V34.9805H34.8799L34.8623 35.4109Z" fill="#29366B"/>
<path d="M38.2532 36.6304C38.258 36.8794 38.221 37.1274 38.1439 37.3642C38.0811 37.566 37.9766 37.7523 37.837 37.911C37.7041 38.0646 37.5375 38.1853 37.3501 38.2638C37.1461 38.3457 36.9279 38.3865 36.7081 38.3837C36.4975 38.3852 36.2888 38.3444 36.0942 38.2638C35.9095 38.1843 35.7454 38.0636 35.6145 37.911C35.4738 37.7519 35.367 37.5658 35.3005 37.3642C35.1275 36.8178 35.1538 36.2279 35.3746 35.6991C35.4869 35.4534 35.6715 35.2478 35.9037 35.1099C36.1559 34.9702 36.441 34.9007 36.7292 34.9088C37.0099 34.9027 37.2868 34.9735 37.53 35.1135C37.7604 35.2548 37.9452 35.4593 38.0627 35.7026C38.1955 35.9935 38.2606 36.3107 38.2532 36.6304ZM35.7238 36.6304C35.7192 36.8702 35.7562 37.1088 35.8332 37.3359C35.8912 37.5197 36.0061 37.6803 36.1613 37.7946C36.3302 37.9065 36.5303 37.9621 36.7328 37.9533C36.9313 37.9697 37.1294 37.9173 37.2939 37.8048C37.4583 37.6924 37.579 37.5269 37.6359 37.3359C37.7115 37.1086 37.7474 36.8699 37.7417 36.6304C37.7487 36.3908 37.7129 36.1518 37.6359 35.9248C37.5729 35.7455 37.4589 35.5886 37.3078 35.4733C37.1357 35.3625 36.9338 35.3071 36.7292 35.3146C36.5828 35.3041 36.436 35.3309 36.3027 35.3927C36.1695 35.4543 36.054 35.5488 35.9672 35.6673C35.7881 35.9553 35.703 36.2919 35.7238 36.6304Z" fill="#29366B"/>
<path d="M40.5419 34.9192C40.7296 34.9108 40.9169 34.9449 41.0897 35.0188C41.2626 35.0927 41.4165 35.2045 41.5402 35.346C41.809 35.7202 41.9341 36.1784 41.893 36.6372C41.9025 36.9653 41.8449 37.2918 41.7236 37.5968C41.6249 37.834 41.4579 38.0366 41.2439 38.1788C41.0254 38.3158 40.7715 38.3857 40.5136 38.3799C40.3546 38.3801 40.1964 38.3563 40.0445 38.3093C39.9158 38.2689 39.7961 38.2043 39.6917 38.1188C39.6002 38.0442 39.5206 37.9562 39.4553 37.8578H39.4201C39.4201 37.9425 39.4201 38.0377 39.4412 38.1471C39.4624 38.2564 39.4412 38.3552 39.4412 38.4399V39.8051H38.9297V34.9792H39.3495L39.4165 35.473H39.4412C39.509 35.3703 39.5883 35.2756 39.6776 35.1908C39.7814 35.1029 39.9011 35.0358 40.0303 34.9933C40.1948 34.9373 40.3682 34.9122 40.5419 34.9192ZM40.4572 35.3425C40.2608 35.3328 40.0659 35.3806 39.8963 35.4801C39.7512 35.5738 39.6428 35.7145 39.5894 35.8788C39.5161 36.0945 39.4802 36.3212 39.4836 36.549V36.6302C39.4799 36.8685 39.5108 37.1062 39.5753 37.3357C39.6272 37.512 39.7349 37.6667 39.8822 37.7767C40.0552 37.8848 40.257 37.9377 40.4607 37.9283C40.6476 37.9348 40.8308 37.8762 40.9793 37.7626C41.1245 37.6381 41.232 37.4756 41.2897 37.2933C41.3594 37.0708 41.3927 36.8386 41.3885 36.6054C41.404 36.2764 41.3257 35.9498 41.1627 35.6635C41.0824 35.5542 40.9753 35.4673 40.8518 35.411C40.7283 35.3548 40.5924 35.3313 40.4572 35.3425Z" fill="#29366B"/>
<path d="M45.5201 36.6303C45.5242 36.879 45.4883 37.1267 45.4142 37.3641C45.3501 37.5653 45.2457 37.7513 45.1073 37.9109C44.9745 38.0645 44.8078 38.1852 44.6205 38.2636C44.4164 38.3453 44.1982 38.3861 43.9784 38.3836C43.7678 38.3854 43.559 38.3446 43.3646 38.2636C43.1789 38.1842 43.0136 38.0636 42.8813 37.9109C42.7418 37.7516 42.6361 37.5656 42.5709 37.3641C42.4924 37.1276 42.4543 36.8795 42.458 36.6303C42.4485 36.3101 42.5112 35.9918 42.6414 35.699C42.755 35.4531 42.9408 35.2476 43.1741 35.1099C43.4252 34.9705 43.709 34.9011 43.996 34.9088C44.2778 34.9022 44.556 34.9729 44.8004 35.1134C45.0302 35.2543 45.214 35.459 45.3295 35.7025C45.4637 35.9929 45.5292 36.3105 45.5201 36.6303ZM42.9801 36.6303C42.9737 36.8702 43.0107 37.1092 43.0895 37.3359C43.1475 37.5196 43.2624 37.6802 43.4175 37.7945C43.5865 37.9064 43.7865 37.962 43.989 37.9532C44.1875 37.9672 44.385 37.9138 44.5495 37.8018C44.7139 37.6898 44.8359 37.5257 44.8956 37.3359C44.9713 37.1086 45.0071 36.8698 45.0015 36.6303C45.0085 36.3907 44.9726 36.1518 44.8956 35.9248C44.8327 35.7445 44.7172 35.5872 44.564 35.4732C44.3935 35.3619 44.1925 35.3064 43.989 35.3145C43.8425 35.3043 43.696 35.3313 43.5627 35.393C43.4295 35.4547 43.314 35.549 43.227 35.6672C43.0466 35.9548 42.9603 36.2914 42.9801 36.6303Z" fill="#29366B"/>
<path d="M46.7548 34.9805V36.3916H48.6139V34.9805H49.1289V38.3212H48.6207V36.8114H46.7616V38.3212H46.2539V34.9805H46.7548Z" fill="#29366B"/>
<path d="M51.331 34.919C51.587 34.9127 51.8397 34.9773 52.0615 35.1059C52.2642 35.2328 52.4251 35.4169 52.5233 35.6351C52.637 35.8839 52.6924 36.1554 52.6856 36.4288V36.7428H50.382C50.3638 37.0677 50.4683 37.3876 50.6751 37.6388C50.7779 37.7444 50.9024 37.8265 51.0401 37.8795C51.1774 37.9325 51.3251 37.9551 51.472 37.9458C51.6606 37.947 51.8488 37.9281 52.0333 37.8893C52.2074 37.8471 52.3774 37.7892 52.541 37.7165V38.161C52.3788 38.2326 52.2097 38.2881 52.0365 38.3268C51.8424 38.3648 51.6451 38.3826 51.4474 38.3797C51.1565 38.3856 50.8688 38.3176 50.6115 38.1821C50.3733 38.0487 50.1806 37.8472 50.0574 37.6036C49.9151 37.3143 49.846 36.9945 49.8565 36.6723C49.8497 36.3522 49.9124 36.0345 50.0401 35.7409C50.146 35.4888 50.3265 35.2751 50.557 35.1282C50.7879 34.9813 51.0579 34.9083 51.331 34.919ZM51.331 35.3317C51.2101 35.3269 51.0892 35.3483 50.977 35.3946C50.8651 35.4409 50.7642 35.5109 50.682 35.5999C50.511 35.8092 50.411 36.0673 50.396 36.3371H52.1601C52.1633 36.1577 52.132 35.9793 52.0683 35.8115C52.016 35.6688 51.9215 35.5457 51.797 35.4587C51.656 35.3685 51.491 35.3242 51.3242 35.3317H51.331Z" fill="#29366B"/>
<path d="M53.3228 38.0026C53.3169 37.9528 53.3214 37.9024 53.3369 37.8546C53.3519 37.8067 53.3769 37.7627 53.4101 37.7253C53.4433 37.6879 53.4846 37.6581 53.5301 37.6378C53.576 37.6175 53.6255 37.6072 53.676 37.6075C53.7724 37.6054 53.866 37.6379 53.9405 37.6992C53.981 37.7378 54.0114 37.7854 54.0296 37.8382C54.0483 37.8909 54.0537 37.9473 54.046 38.0026C54.0533 38.0542 54.0483 38.1066 54.0328 38.1561C54.0169 38.2057 53.9905 38.2511 53.9551 38.2892C53.9196 38.3273 53.876 38.3571 53.8278 38.3765C53.7796 38.3958 53.7278 38.4043 53.676 38.4012C53.5833 38.4037 53.4933 38.3695 53.4255 38.306C53.3883 38.2654 53.3596 38.2174 53.3419 38.1652C53.3246 38.1129 53.3178 38.0575 53.3228 38.0026Z" fill="#29366B"/>
<path d="M57.5981 33.8685C58.0459 33.8353 58.4918 33.9601 58.8572 34.2213C58.9922 34.3412 59.0977 34.4903 59.1663 34.6571C59.235 34.824 59.2641 35.0044 59.2527 35.1844C59.2545 35.3672 59.2236 35.5489 59.1609 35.7206C59.099 35.8911 58.9959 36.0438 58.8609 36.1651C58.7059 36.3078 58.52 36.4128 58.3177 36.472C58.05 36.5527 57.7713 36.5908 57.4922 36.5849H56.9522V38.3488H56.4336V33.8685H57.5981ZM57.5486 34.306H56.9522V36.1228H57.4359C57.674 36.1279 57.9118 36.097 58.1413 36.031C58.3131 35.9803 58.4645 35.8751 58.5718 35.7312C58.6745 35.5681 58.724 35.3769 58.7127 35.1844C58.7222 35.0602 58.7018 34.9355 58.6531 34.8208C58.6045 34.7061 58.5295 34.6046 58.434 34.5247C58.1695 34.3603 57.8595 34.2837 57.5486 34.306Z" fill="#29366B"/>
<path d="M61.2047 34.9219C61.5233 34.8968 61.8392 34.9925 62.0901 35.19C62.1956 35.3049 62.2756 35.4405 62.3256 35.588C62.3751 35.7357 62.3938 35.8921 62.3797 36.0472V38.3191H62.0269L61.9315 37.8252H61.9033C61.8178 37.9373 61.721 38.0402 61.6138 38.1321C61.5079 38.2133 61.3883 38.2753 61.261 38.3156C61.101 38.3652 60.9347 38.3913 60.7674 38.3932C60.581 38.395 60.396 38.359 60.2242 38.2874C60.0719 38.2172 59.9433 38.1045 59.8538 37.9628C59.7579 37.797 59.7115 37.6073 59.7197 37.416C59.7129 37.2645 59.7456 37.1139 59.8151 36.979C59.8842 36.8441 59.9874 36.7297 60.1147 36.647C60.4815 36.4414 60.8974 36.3402 61.3179 36.3542L61.896 36.3295V36.1249C61.9069 36.0166 61.8965 35.9073 61.8651 35.8032C61.8338 35.699 61.7819 35.6021 61.7129 35.5181C61.5651 35.397 61.3779 35.3353 61.1869 35.3452C61.0169 35.344 60.8479 35.3702 60.686 35.4228C60.5319 35.4727 60.381 35.5328 60.2347 35.6028L60.0619 35.2182C60.2274 35.1347 60.401 35.0685 60.5801 35.0207C60.7828 34.958 60.9929 34.9248 61.2047 34.9219ZM61.8788 36.6858L61.3742 36.707C61.066 36.6966 60.761 36.7672 60.4888 36.9115C60.4065 36.9677 60.3406 37.0438 60.296 37.1327C60.2515 37.2215 60.2306 37.3203 60.2347 37.4195C60.2288 37.4986 60.2415 37.578 60.2715 37.6515C60.3015 37.7249 60.3478 37.7904 60.4074 37.8429C60.5397 37.9408 60.7019 37.9895 60.866 37.9805C61.1319 37.9929 61.3929 37.9047 61.5965 37.7335C61.6947 37.639 61.771 37.5238 61.8197 37.3964C61.8688 37.269 61.8888 37.1323 61.8788 36.9962V36.6858Z" fill="#29366B"/>
<path d="M65.7098 34.9797V37.8901H66.1894V39.4705H65.7098V38.3205H63.3462V39.4705H62.8594V37.8901H63.1203C63.3139 37.6213 63.4739 37.3299 63.5966 37.0223C63.7239 36.7016 63.8207 36.3697 63.8862 36.031C63.9503 35.6818 63.9848 35.3277 63.9885 34.9727L65.7098 34.9797ZM65.2194 35.3819H64.4257C64.408 35.6835 64.3653 35.9832 64.2989 36.2779C64.2312 36.5747 64.1416 36.8659 64.0307 37.1493C63.9289 37.4071 63.7976 37.6522 63.6389 37.8795H65.2194V35.3819Z" fill="#29366B"/>
<path d="M67.1884 34.9805V37.2347V37.4393C67.1884 37.5134 67.1884 37.5804 67.1884 37.6475C67.1884 37.7145 67.1884 37.7674 67.1884 37.8097L69.0157 34.9875H69.587V38.3283H69.1284V36.0282C69.1284 35.9259 69.1284 35.8272 69.1284 35.7284C69.1284 35.6296 69.1284 35.5555 69.1284 35.4991L67.3152 38.3212H66.6875V34.9805H67.1884Z" fill="#29366B"/>
<path d="M75.9077 34.9805L74.5141 36.6032L76.0241 38.3212H75.4455L73.9814 36.6315V38.3283H73.5123V36.6315L72.0591 38.3212H71.4805L72.9905 36.6032L71.5791 34.9805H72.1364L73.5018 36.5997V34.9805H73.9709V36.5997L75.3432 34.9805H75.9077Z" fill="#29366B"/>
<path d="M76.9144 34.9805V37.0971C76.9144 37.1395 76.9144 37.1888 76.9144 37.2523C76.918 37.3205 76.918 37.3888 76.9144 37.457C76.9144 37.5311 76.9144 37.5981 76.9144 37.6651C76.9144 37.7321 76.9144 37.7851 76.9144 37.8274L78.738 35.0051H79.359V38.346H78.8862V36.2787C78.8862 36.2117 78.8862 36.1305 78.8862 36.0282C78.8862 35.9259 78.8862 35.8272 78.8862 35.7284C78.8862 35.6296 78.8862 35.5555 78.8862 35.4991L77.0694 38.3212H76.4453V34.9805H76.9144Z" fill="#29366B"/>
<path d="M81.1029 34.9205C81.3238 34.9148 81.5438 34.9495 81.752 35.0228C81.9184 35.0773 82.0647 35.1805 82.172 35.3191C82.2756 35.4544 82.3293 35.6215 82.3234 35.7918C82.3316 35.9675 82.2738 36.1399 82.1611 36.2751C82.037 36.4022 81.8793 36.4915 81.7061 36.5327V36.5573C81.8361 36.5918 81.9606 36.644 82.0766 36.7126C82.1843 36.7819 82.2747 36.8748 82.3411 36.9842C82.4111 37.1088 82.4456 37.2505 82.4397 37.3934C82.4415 37.5731 82.3888 37.749 82.2884 37.8979C82.1729 38.0589 82.012 38.1817 81.8261 38.2507C81.5743 38.3436 81.3075 38.3879 81.0393 38.3812C80.8897 38.3809 80.7402 38.3715 80.5915 38.353C80.4638 38.3392 80.3375 38.3144 80.2138 38.2789C80.1106 38.2496 80.0102 38.2106 79.9138 38.1625V37.6898C80.0747 37.7666 80.2425 37.828 80.4152 37.8732C80.6161 37.927 80.8238 37.9531 81.0325 37.9508C81.1875 37.9541 81.342 37.9338 81.4911 37.8908C81.6165 37.8587 81.7302 37.7914 81.8188 37.6968C81.9025 37.5988 81.9438 37.4723 81.9356 37.344C81.9402 37.2256 81.9025 37.1093 81.8297 37.016C81.7443 36.9226 81.6343 36.8553 81.512 36.8219C81.337 36.7783 81.1565 36.7582 80.9761 36.762H80.5243V36.3457H80.8947C81.1288 36.3564 81.3625 36.3154 81.5793 36.2258C81.6588 36.1927 81.7265 36.1354 81.772 36.062C81.8175 35.9886 81.8388 35.9028 81.8334 35.8165C81.8388 35.7423 81.8238 35.6679 81.7897 35.6018C81.7552 35.5358 81.7034 35.4806 81.6393 35.4426C81.4652 35.3492 81.2684 35.3064 81.0711 35.3191C80.9084 35.3162 80.7456 35.3352 80.5879 35.3756C80.432 35.4159 80.2797 35.469 80.1329 35.5343L79.9529 35.1322C80.1284 35.0544 80.3115 34.9953 80.4997 34.9558C80.6993 34.9241 80.9011 34.9123 81.1029 34.9205Z" fill="#29366B"/>
<path d="M83.621 34.9805V36.3916H85.4837V34.9805H85.9883V38.3212H85.4837V36.8114H83.621V38.3212H83.1133V34.9805H83.621Z" fill="#29366B"/>
<path d="M87.3902 34.9805V37.0971C87.3902 37.1395 87.3902 37.1888 87.3902 37.2523C87.3933 37.3205 87.3933 37.3888 87.3902 37.457C87.3938 37.5263 87.3938 37.5958 87.3902 37.6651C87.3902 37.7286 87.3902 37.7851 87.3902 37.8274L89.2138 35.0051H89.8347V38.346H89.3442V36.2787C89.3442 36.2117 89.3442 36.1305 89.3442 36.0282C89.3442 35.9259 89.3442 35.8272 89.3442 35.7284C89.3442 35.6296 89.3442 35.5555 89.3442 35.4991L87.5274 38.3212H86.9102V34.9805H87.3902Z" fill="#29366B"/>
</g>
</svg>
