<svg width="214" height="54" viewBox="0 0 214 54" fill="none" xmlns="http://www.w3.org/2000/svg">
<path d="M13.1913 17.8365C14.3078 18.1679 15.1626 18.7087 15.7557 19.4589C16.3489 20.209 16.6454 21.1336 16.6454 22.2326C16.6454 23.855 16.0261 25.1198 14.7875 26.0269C13.5664 26.9341 11.8131 27.3877 9.52784 27.3877H0.5V9.07031H9.03065C11.159 9.07031 12.8162 9.48027 14.0025 10.3002C15.1888 11.1201 15.7819 12.2889 15.7819 13.8067C15.7819 14.7138 15.5551 15.5163 15.1015 16.2141C14.648 16.8944 14.0112 17.4352 13.1913 17.8365ZM4.71299 16.6589H8.6643C9.58889 16.6589 10.2867 16.4758 10.7577 16.1094C11.2287 15.7256 11.4642 15.1674 11.4642 14.4347C11.4642 13.7194 11.22 13.1699 10.7315 12.7861C10.2605 12.4023 9.57145 12.2104 8.6643 12.2104H4.71299V16.6589ZM9.37083 24.2475C11.3596 24.2475 12.3539 23.4625 12.3539 21.8925C12.3539 20.3747 11.3596 19.6159 9.37083 19.6159H4.71299V24.2475H9.37083Z" fill="#29366B"/>
<path d="M19.998 9.07031H24.2109V21.0028L32.9509 9.07031H36.9284V27.3877H32.7416V15.4814L24.0016 27.3877H19.998V9.07031Z" fill="#29366B"/>
<path d="M55.4888 12.5244H49.6273V27.3877H45.4405V12.5244H39.6051V9.07031H55.4888V12.5244Z" fill="#29366B"/>
<path d="M69.6341 23.4625H61.1296L59.5072 27.3877H55.1634L63.3277 9.07031H67.5145L75.705 27.3877H71.2565L69.6341 23.4625ZM68.2995 20.2439L65.3949 13.231L62.4903 20.2439H68.2995Z" fill="#29366B"/>
<path d="M106.372 9.07031H110.585V21.0028L119.325 9.07031H123.302V27.3877H119.115V15.4814L110.375 27.3877H106.372V9.07031Z" fill="#29366B"/>
<path d="M144.662 9.07031V27.3877H140.423V19.8776H132.102V27.3877H127.863V9.07031H132.102V16.2926H140.423V9.07031H144.662Z" fill="#29366B"/>
<path d="M161.655 23.4625H153.151L151.528 27.3877H147.185L155.349 9.07031H159.536L167.726 27.3877H163.278L161.655 23.4625ZM160.321 20.2439L157.416 13.231L154.511 20.2439H160.321Z" fill="#29366B"/>
<path d="M186.637 9.07031V27.3877H182.45V12.5244H176.17L176.039 16.3449C175.952 18.9442 175.743 21.0551 175.411 22.6775C175.08 24.2824 174.522 25.521 173.736 26.3933C172.969 27.2481 171.887 27.6755 170.492 27.6755C169.916 27.6755 169.218 27.5796 168.398 27.3877L168.66 23.8027C168.887 23.8725 169.14 23.9074 169.419 23.9074C170.431 23.9074 171.137 23.3142 171.538 22.128C171.94 20.9243 172.193 19.0489 172.297 16.5019L172.559 9.07031H186.637Z" fill="#29366B"/>
<path d="M200.083 15.0889C202.316 15.0889 204.025 15.5861 205.212 16.5804C206.415 17.5748 207.017 19.0489 207.017 21.0028C207.017 23.0787 206.354 24.6662 205.029 25.7653C203.72 26.8469 201.871 27.3877 199.481 27.3877H191.212V9.07031H195.425V15.0889H200.083ZM199.245 24.2475C200.344 24.2475 201.199 23.9771 201.81 23.4364C202.438 22.8956 202.752 22.1105 202.752 21.0813C202.752 19.1797 201.583 18.229 199.245 18.229H195.425V24.2475H199.245Z" fill="#29366B"/>
<path d="M94.7521 20.0084H92.083V27.3877H87.9223V20.0084H85.2009L81.0926 27.3877H76.1992L81.6944 17.8103L76.5394 9.07031H81.0141L85.1224 16.4758H87.9223V9.07031H92.083V16.4758H94.8044L98.9389 9.07031H103.414L98.2847 17.8103L103.754 27.3877H98.8604L94.7521 20.0084Z" fill="#FF5A90"/>
<path d="M208.589 0.130859C209.51 0.130859 210.343 0.344853 211.087 0.772839C211.841 1.20083 212.431 1.79163 212.859 2.54526C213.287 3.28958 213.501 4.11764 213.501 5.02944C213.501 5.94124 213.283 6.7786 212.845 7.54153C212.408 8.29516 211.813 8.89062 211.059 9.32791C210.305 9.7652 209.473 9.98385 208.561 9.98385C207.649 9.98385 206.816 9.7652 206.063 9.32791C205.319 8.89062 204.728 8.29516 204.29 7.54153C203.862 6.78791 203.648 5.95985 203.648 5.05735C203.648 4.15486 203.862 3.3268 204.29 2.57317C204.728 1.81954 205.323 1.22408 206.077 0.786795C206.83 0.349505 207.668 0.130859 208.589 0.130859ZM208.561 9.0767C209.305 9.0767 209.98 8.89993 210.585 8.54637C211.199 8.18351 211.678 7.69505 212.022 7.08098C212.376 6.45761 212.552 5.77377 212.552 5.02944C212.552 4.27581 212.38 3.59662 212.036 2.99185C211.701 2.38709 211.231 1.91258 210.626 1.56833C210.022 1.21478 209.343 1.038 208.589 1.038C207.835 1.038 207.156 1.21478 206.551 1.56833C205.947 1.92189 205.472 2.4057 205.128 3.01977C204.784 3.63383 204.611 4.31303 204.611 5.05735C204.611 5.80168 204.784 6.48087 205.128 7.09494C205.472 7.70901 205.942 8.19282 206.537 8.54637C207.142 8.89993 207.817 9.0767 208.561 9.0767ZM211.157 4.27581C211.157 4.66658 211.068 5.00618 210.892 5.29461C210.724 5.57373 210.473 5.79237 210.138 5.95054L211.324 7.76483H209.873L208.854 6.20175H208.798H207.891V7.76483H206.44V2.34987H208.798C209.533 2.34987 210.11 2.52665 210.529 2.88021C210.947 3.22446 211.157 3.68966 211.157 4.27581ZM208.701 5.11318C209.026 5.11318 209.277 5.0434 209.454 4.90384C209.64 4.75497 209.733 4.54563 209.733 4.27581C209.733 4.006 209.64 3.79665 209.454 3.64779C209.277 3.49892 209.026 3.42449 208.701 3.42449H207.877V5.11318H208.701Z" fill="#29366B"/>
<path d="M0.5 35.2363H4.71299V47.1687L13.453 35.2363H17.4305V53.5536H13.2436V41.6473L4.50365 53.5536H0.5V35.2363Z" fill="#FF5A90"/>
<path d="M38.7908 35.2363V53.5536H34.5517V46.0435H26.2304V53.5536H21.9912V35.2363H26.2304V42.4585H34.5517V35.2363H38.7908Z" fill="#FF5A90"/>
<path d="M52.1202 53.8676C50.2186 53.8676 48.5003 53.4577 46.9651 52.6377C45.4474 51.8178 44.2524 50.6926 43.3802 49.2621C42.5254 47.8142 42.098 46.1918 42.098 44.3949C42.098 42.5981 42.5254 40.9844 43.3802 39.5539C44.2524 38.106 45.4474 36.9721 46.9651 36.1521C48.5003 35.3322 50.2186 34.9223 52.1202 34.9223C54.0217 34.9223 55.7313 35.3322 57.249 36.1521C58.7667 36.9721 59.9617 38.106 60.834 39.5539C61.7062 40.9844 62.1424 42.5981 62.1424 44.3949C62.1424 46.1918 61.7062 47.8142 60.834 49.2621C59.9617 50.6926 58.7667 51.8178 57.249 52.6377C55.7313 53.4577 54.0217 53.8676 52.1202 53.8676ZM52.1202 50.2565C53.2018 50.2565 54.1787 50.0123 55.0509 49.5238C55.9232 49.0179 56.6035 48.3201 57.092 47.4304C57.5979 46.5407 57.8509 45.5289 57.8509 44.3949C57.8509 43.261 57.5979 42.2492 57.092 41.3595C56.6035 40.4698 55.9232 39.7807 55.0509 39.2922C54.1787 38.7863 53.2018 38.5334 52.1202 38.5334C51.0386 38.5334 50.0616 38.7863 49.1894 39.2922C48.3171 39.7807 47.628 40.4698 47.1221 41.3595C46.6337 42.2492 46.3895 43.261 46.3895 44.3949C46.3895 45.5289 46.6337 46.5407 47.1221 47.4304C47.628 48.3201 48.3171 49.0179 49.1894 49.5238C50.0616 50.0123 51.0386 50.2565 52.1202 50.2565Z" fill="#FF5A90"/>
<path d="M75.3116 44.0024C76.3758 44.3688 77.2044 44.9445 77.7976 45.7295C78.4081 46.4971 78.7134 47.3955 78.7134 48.4248C78.7134 49.5412 78.3471 50.5094 77.6144 51.3294C76.8817 52.1493 75.8873 52.7773 74.6313 53.2134C73.3927 53.6496 72.032 53.8676 70.5491 53.8676C69.2931 53.8676 68.037 53.7106 66.781 53.3966C65.5424 53.0826 64.3648 52.6029 63.2484 51.9574L64.5567 48.9219C65.3592 49.4104 66.2402 49.7855 67.1997 50.0472C68.1766 50.2914 69.1273 50.4135 70.0519 50.4135C71.308 50.4135 72.346 50.1867 73.1659 49.7331C74.0033 49.2796 74.4219 48.6428 74.4219 47.8229C74.4219 47.1425 74.1341 46.6279 73.5584 46.279C73.0002 45.9301 72.2326 45.7557 71.2557 45.7557H66.781V42.5632H70.9416C71.7964 42.5632 72.4594 42.3888 72.9304 42.0399C73.4188 41.6909 73.6631 41.2112 73.6631 40.6006C73.6631 39.8854 73.3142 39.3271 72.6164 38.9259C71.936 38.5247 71.055 38.324 69.9734 38.324C69.171 38.324 68.3423 38.4374 67.4875 38.6642C66.6327 38.8736 65.8215 39.1963 65.0539 39.6324L63.7717 36.3353C65.7081 35.3409 67.8015 34.8438 70.0519 34.8438C71.4824 34.8438 72.7995 35.0531 74.0033 35.4718C75.207 35.8905 76.1665 36.501 76.8817 37.3035C77.5969 38.106 77.9546 39.0393 77.9546 40.1034C77.9546 40.9757 77.7191 41.752 77.248 42.4324C76.777 43.1127 76.1316 43.6361 75.3116 44.0024Z" fill="#FF5A90"/>
<path d="M82.0694 35.2363H86.2824V47.1687L95.0224 35.2363H98.9999V53.5536H94.8131V41.6473L86.0731 53.5536H82.0694V35.2363Z" fill="#FF5A90"/>
<path d="M117.56 38.6904H111.699V53.5536H107.512V38.6904H101.677V35.2363H117.56V38.6904Z" fill="#FF5A90"/>
</svg>
