<svg width="24" height="24" viewBox="0 0 24 24" fill="none" xmlns="http://www.w3.org/2000/svg">
<path d="M18.7266 20.702L18.727 20.7018C20.0536 19.6678 20.708 18.1671 20.708 16.232C20.708 14.3732 20.092 12.9372 18.8391 11.9584C17.5953 10.9867 15.7988 10.516 13.48 10.516H7.34402C7.17833 10.516 7.04402 10.3817 7.04402 10.216V4.16002C7.04402 3.99434 7.17833 3.86002 7.34402 3.86002H18.888C19.2746 3.86002 19.588 3.54662 19.588 3.16003V2.90002C19.588 2.51342 19.2746 2.20002 18.888 2.20002H5.91602C5.52942 2.20002 5.21602 2.51343 5.21602 2.90003V21.5C5.21602 21.8866 5.52942 22.2 5.91602 22.2H13.088C15.5367 22.2 17.4266 21.711 18.7266 20.702ZM7.34402 20.596C7.17833 20.596 7.04402 20.4617 7.04402 20.296V12.392C7.04402 12.2263 7.17833 12.092 7.34402 12.092H13.116C15.0853 12.092 16.526 12.456 17.4704 13.152C18.4033 13.8397 18.88 14.8728 18.88 16.288C18.88 17.731 18.3963 18.7956 17.448 19.516C16.489 20.226 15.055 20.596 13.116 20.596H7.34402Z" fill="#FE548B" stroke="#FE548B" stroke-width="0.4"/>
</svg>
