<svg width="18" height="18" viewBox="0 0 18 18" fill="none" xmlns="http://www.w3.org/2000/svg">
    <g clip-path="url(#clip0_567_38831)">
        <path d="M6.01767 10.9998L1.61231 6.57921C1.33813 6.30506 1.33813 5.859 1.61119 5.58597L6.01571 1.20143C6.29091 0.927454 6.29189 0.482271 6.01792 0.207068C5.74398 -0.0681706 5.2988 -0.0691198 5.02356 0.204818L0.617885 4.59049C-0.204525 5.41293 -0.204525 6.75112 0.617077 7.57272L5.02159 11.9924C5.15895 12.1303 5.33926 12.1992 5.51962 12.1992C5.69916 12.1992 5.87874 12.1309 6.01599 11.9941C6.29101 11.72 6.29182 11.2748 6.01767 10.9998Z"
              fill="white"/>
        <path d="M11.6895 5.37891H4.18359C3.79526 5.37891 3.48047 5.6937 3.48047 6.08203C3.48047 6.47037 3.79526 6.78516 4.18359 6.78516H11.6895C14.3937 6.78516 16.5938 8.98523 16.5938 11.6895C16.5938 14.3937 14.3937 16.5938 11.6895 16.5938C11.3011 16.5938 10.9863 16.9085 10.9863 17.2969C10.9863 17.6852 11.3011 18 11.6895 18C15.1691 18 18 15.1691 18 11.6895C18 8.20979 15.1691 5.37891 11.6895 5.37891Z"
              fill="white"/>
    </g>
    <defs>
        <clipPath id="clip0_567_38831">
            <rect width="18" height="18" fill="white"/>
        </clipPath>
    </defs>
</svg>
