<svg width="24" height="24" viewBox="0 0 24 24" fill="none" xmlns="http://www.w3.org/2000/svg">
<path d="M12.002 21.9996C17.5248 21.9996 22.002 17.5225 22.002 11.9996C22.002 6.47679 17.5248 1.99963 12.002 1.99963C6.47911 1.99963 2.00195 6.47679 2.00195 11.9996C2.00195 17.5225 6.47911 21.9996 12.002 21.9996Z" stroke="#FE548B" stroke-width="2" stroke-linecap="round" stroke-linejoin="round"/>
<path d="M9.08789 9.00045C9.32299 8.33212 9.78704 7.76855 10.3978 7.40958C11.0086 7.05061 11.7268 6.91939 12.4251 7.03916C13.1233 7.15893 13.7567 7.52197 14.213 8.06398C14.6692 8.60598 14.9189 9.29197 14.9179 10.0004C14.9179 12.0004 11.9179 13.0004 11.9179 13.0004V14.4999" stroke="#FE548B" stroke-width="2" stroke-linecap="round" stroke-linejoin="round"/>
<path d="M11.9941 17.4999H12.0041" stroke="#FE548B" stroke-width="2" stroke-linecap="round" stroke-linejoin="round"/>
</svg>
