<svg width="140" height="140" viewBox="0 0 140 140" fill="none" xmlns="http://www.w3.org/2000/svg">
<circle cx="70" cy="70" r="50" fill="url(#paint0_linear_63_18)"/>
<path fill-rule="evenodd" clip-rule="evenodd" d="M70 139C108.108 139 139 108.108 139 70C139 31.8924 108.108 1 70 1C31.8924 1 1 31.8924 1 70C1 108.108 31.8924 139 70 139ZM70 140C108.66 140 140 108.66 140 70C140 31.3401 108.66 0 70 0C31.3401 0 0 31.3401 0 70C0 108.66 31.3401 140 70 140Z" fill="url(#paint1_linear_63_18)"/>
<path d="M54.6904 54.6904C55.6109 53.7699 57.1034 53.7699 58.0239 54.6904L70.5 67.1665L82.9761 54.6904C83.8966 53.7699 85.3891 53.7699 86.3096 54.6904C87.2301 55.6109 87.2301 57.1034 86.3096 58.0239L73.8335 70.5L86.3096 82.9761C87.2301 83.8966 87.2301 85.3891 86.3096 86.3096C85.3891 87.2301 83.8966 87.2301 82.9761 86.3096L70.5 73.8335L58.0239 86.3096C57.1034 87.2301 55.6109 87.2301 54.6904 86.3096C53.7699 85.3891 53.7699 83.8966 54.6904 82.9761L67.1665 70.5L54.6904 58.0239C53.7699 57.1034 53.7699 55.6109 54.6904 54.6904Z" fill="white"/>
<defs>
<linearGradient id="paint0_linear_63_18" x1="16.2812" y1="20.0001" x2="130.158" y2="28.5865" gradientUnits="userSpaceOnUse">
<stop stop-color="#E41476"/>
<stop offset="1" stop-color="#00C9F1"/>
</linearGradient>
<linearGradient id="paint1_linear_63_18" x1="-5.20626" y1="0.000170836" x2="154.222" y2="12.0211" gradientUnits="userSpaceOnUse">
<stop stop-color="#E41476"/>
<stop offset="1" stop-color="#00C9F1"/>
</linearGradient>
</defs>
</svg>
