<svg width="17" height="16" viewBox="0 0 17 16" fill="none" xmlns="http://www.w3.org/2000/svg">
<path d="M7.81644 14.2263C7.4216 14.6458 6.75487 14.6458 6.36003 14.2263L1.14505 8.68536C0.782649 8.30031 0.78265 7.69968 1.14505 7.31463L6.36004 1.77371C6.75487 1.3542 7.4216 1.3542 7.81643 1.77371L7.85495 1.81464C8.21735 2.19969 8.21735 2.80031 7.85495 3.18536L3.96858 7.31464C3.60618 7.69969 3.60618 8.30031 3.96858 8.68536L7.85495 12.8146C8.21735 13.1997 8.21735 13.8003 7.85495 14.1854L7.81644 14.2263Z" fill="#F3F5FB"/>
<path d="M13.8164 14.2263C13.4216 14.6458 12.7549 14.6458 12.36 14.2263L7.14505 8.68536C6.78265 8.30031 6.78265 7.69968 7.14505 7.31463L12.36 1.77371C12.7549 1.3542 13.4216 1.3542 13.8164 1.77371L13.855 1.81464C14.2174 2.19969 14.2174 2.80031 13.855 3.18536L9.96858 7.31464C9.60618 7.69969 9.60618 8.30031 9.96858 8.68536L13.855 12.8146C14.2174 13.1997 14.2174 13.8003 13.855 14.1854L13.8164 14.2263Z" fill="#F3F5FB"/>
</svg>
