<svg width="17" height="17" viewBox="0 0 17 17" fill="none" xmlns="http://www.w3.org/2000/svg">
<path d="M7.54906 1.16608C7.84841 0.244769 9.15182 0.244771 9.45117 1.16608L10.7453 5.14886C10.8791 5.56088 11.2631 5.83984 11.6963 5.83984H15.8841C16.8528 5.83984 17.2556 7.07946 16.4718 7.64886L13.0839 10.1104C12.7334 10.365 12.5867 10.8164 12.7206 11.2284L14.0147 15.2112C14.314 16.1325 13.2596 16.8986 12.4759 16.3292L9.0879 13.8677C8.73741 13.6131 8.26282 13.6131 7.91233 13.8677L4.52437 16.3292C3.74066 16.8986 2.68618 16.1325 2.98553 15.2112L4.27962 11.2284C4.41349 10.8164 4.26683 10.365 3.91634 10.1104L0.528389 7.64886C-0.255325 7.07946 0.147453 5.83984 1.11618 5.83984H5.30392C5.73714 5.83984 6.1211 5.56088 6.25497 5.14886L7.54906 1.16608Z" fill="#39D8B4"/>
</svg>
