<svg width="17" height="16" viewBox="0 0 17 16" fill="none" xmlns="http://www.w3.org/2000/svg">
<path d="M9.18357 1.77371C9.5784 1.3542 10.2451 1.3542 10.64 1.77371L15.855 7.31464C16.2174 7.69969 16.2174 8.30032 15.855 8.68537L10.64 14.2263C10.2451 14.6458 9.5784 14.6458 9.18357 14.2263L9.14505 14.1854C8.78265 13.8003 8.78265 13.1997 9.14505 12.8146L13.0314 8.68537C13.3938 8.30032 13.3938 7.69969 13.0314 7.31464L9.14505 3.18536C8.78265 2.80031 8.78265 2.19969 9.14505 1.81464L9.18357 1.77371Z" fill="#F3F5FB"/>
<path d="M3.18357 1.77371C3.5784 1.3542 4.24513 1.3542 4.63997 1.77371L9.85495 7.31464C10.2174 7.69969 10.2174 8.30032 9.85495 8.68537L4.63996 14.2263C4.24513 14.6458 3.5784 14.6458 3.18357 14.2263L3.14505 14.1854C2.78265 13.8003 2.78265 13.1997 3.14505 12.8146L7.03142 8.68537C7.39382 8.30032 7.39382 7.69969 7.03142 7.31464L3.14505 3.18536C2.78265 2.80031 2.78265 2.19969 3.14505 1.81464L3.18357 1.77371Z" fill="#F3F5FB"/>
</svg>
