<svg width="20" height="20" viewBox="0 0 20 20" fill="none" xmlns="http://www.w3.org/2000/svg">
<path d="M13.9513 12.5477L13.4452 13.0272C13.4452 13.0272 12.2424 14.167 8.95902 11.0559C5.67568 7.94484 6.87856 6.80507 6.87856 6.80507L7.19724 6.50311C7.9823 5.75924 8.05631 4.56497 7.37138 3.6931L5.97028 1.90962C5.12254 0.8305 3.4844 0.687949 2.51272 1.60864L0.768721 3.26114C0.286921 3.71766 -0.0359425 4.30945 0.00320841 4.96594C0.103372 6.64546 0.900794 10.259 5.3504 14.4752C10.069 18.9462 14.4965 19.1239 16.307 18.9631C16.8796 18.9122 17.3777 18.6343 17.779 18.254L19.3574 16.7584C20.4228 15.7489 20.1225 14.0182 18.7592 13.312L16.6365 12.2123C15.7414 11.7486 14.6509 11.8848 13.9513 12.5477Z" fill="#507EF5"/>
</svg>
