<svg width="180" height="180" viewBox="0 0 180 180" fill="none" xmlns="http://www.w3.org/2000/svg">
<path d="M0 150V30C0 13.4315 13.4315 0 30 0H150C166.569 0 180 13.4315 180 30V150C180 166.569 166.569 180 150 180H30C13.4315 180 0 166.569 0 150Z" fill="url(#paint0_linear_1_207)"/>
<path d="M100.976 137.761C99.1784 138.784 96.9961 138.208 95.3273 137.185C95.3273 137.185 68.4339 121.835 59.5122 116.591C53.8639 113.265 51.5533 111.027 51.5533 102.904C51.5533 92.6712 51.6816 61.9079 51.6816 61.9079C51.6816 59.9892 52.2593 57.8786 53.9923 56.7914L42.439 63.5068C41.5404 64.0185 40.8986 64.9139 40.5777 65.8733C40.2567 66.7687 40.1284 67.664 40.1284 68.6234C40.1284 68.6234 40 99.3866 40 109.62C40 116.271 43.5944 120.62 47.1887 122.859C49.371 124.202 83.7741 143.901 83.7741 143.901C84.7368 144.476 85.828 144.86 86.9833 144.988C87.8177 145.052 88.7163 144.86 89.4223 144.476L100.976 137.761Z" fill="white"/>
<path d="M103.8 118.126C103.8 115.248 102.709 113.649 100.398 112.37C93.9153 108.788 74.7882 97.5959 74.7882 97.5959L63.2349 104.311C63.2349 104.311 82.5546 115.248 88.8447 119.085C90.8344 120.301 92.2465 121.772 92.2465 124.969C92.2465 128.487 92.1823 138.976 92.1823 138.976C92.1823 140.959 91.6046 143.133 89.8074 144.22L101.361 137.505C102.131 137.057 102.773 136.354 103.158 135.458C103.607 134.435 103.8 133.348 103.8 132.26C103.736 132.069 103.8 120.748 103.8 118.126Z" fill="white"/>
<path d="M121.964 104.311C121.9 105.335 122.092 122.603 121.707 122.987C121.451 124.33 120.68 125.545 119.525 126.249L107.972 132.964C109.769 131.877 110.347 129.702 110.347 127.72L110.411 111.027L121.964 104.311Z" fill="white"/>
<path d="M103.8 91.7118C103.8 85.2522 101.168 81.3508 96.7394 78.6646C92.3748 76.0424 59.8331 57.303 59.8331 57.303C58.6778 56.6635 57.3299 56.1518 55.982 56.2158C55.276 56.2158 54.6341 56.4076 53.9923 56.7914L42.439 63.5068C44.3004 62.4835 46.5469 63.0592 48.2799 64.0825C48.2799 64.0825 79.2169 81.7985 84.095 84.6766C89.3582 87.8104 92.2465 90.3687 92.2465 97.7877C92.2465 101.561 92.2465 106.358 92.2465 106.998L103.8 100.282C103.8 100.282 103.8 96.3807 103.8 91.7118Z" fill="white"/>
<path d="M121.964 81.6066C121.964 75.147 119.332 71.2456 114.904 68.5595C110.539 65.9372 77.9974 47.1979 77.9974 47.1979C76.8421 46.5583 75.4942 46.0466 74.1463 46.1106C73.4403 46.1106 72.7985 46.3025 72.1566 46.6862L60.6033 53.4017C62.4647 52.3784 64.7112 52.954 66.4442 53.9773C66.4442 53.9773 97.3813 71.6933 102.259 74.5714C107.522 77.7053 110.411 80.2636 110.411 87.6825C110.411 91.456 110.411 96.2528 110.411 96.8923L121.964 90.1769C121.964 90.1769 121.964 86.2755 121.964 81.6066Z" fill="white"/>
<path d="M140 71.5015C140 65.0418 137.368 61.1404 132.94 58.4543C128.575 55.832 96.0334 37.0927 96.0334 37.0927C94.878 36.4531 93.5302 35.9415 92.1823 36.0054C91.4762 36.0054 90.8344 36.1973 90.1926 36.581L78.6393 43.2965C80.5006 42.2732 82.7471 42.8488 84.4801 43.8721C84.4801 43.8721 115.417 61.5881 120.295 64.4662C125.558 67.6001 128.447 70.1584 128.447 77.5774C128.447 81.3508 128.447 86.1476 128.447 86.7872L140 80.0717C140 80.0717 140 76.1703 140 71.5015Z" fill="white"/>
<path d="M140 94.6538C139.936 95.6771 140.128 112.946 139.743 113.329C139.487 114.672 138.716 115.887 137.561 116.591L126.008 123.306C127.805 122.219 128.383 120.045 128.383 118.062L128.447 101.369L140 94.6538Z" fill="white"/>
<defs>
<linearGradient id="paint0_linear_1_207" x1="29" y1="165" x2="202.923" y2="39.1884" gradientUnits="userSpaceOnUse">
<stop stop-color="#341E67"/>
<stop offset="1" stop-color="#FE2142"/>
</linearGradient>
</defs>
</svg>
