<svg width="441" height="137" viewBox="0 0 441 137" fill="none" xmlns="http://www.w3.org/2000/svg">
<path d="M223.104 39.7448H239.133V99.3518C239.133 109.046 235.878 116.417 229.369 121.544C222.86 126.672 215.049 129.155 205.936 129.155C199.101 129.155 192.999 127.873 187.791 125.31C182.584 122.746 178.597 118.9 175.749 113.933L189.744 106.082C192.999 111.93 198.531 114.814 206.424 114.814C211.631 114.814 215.699 113.452 218.629 110.809C221.558 108.165 223.104 104.319 223.104 99.4319V92.7021C218.303 99.0313 211.468 102.236 202.762 102.236C193.812 102.236 186.245 99.1115 180.224 92.9424C174.203 86.6933 171.111 79.1623 171.111 70.1892C171.111 61.3764 174.122 53.7653 180.224 47.5161C186.327 41.267 193.812 38.1424 202.762 38.1424C211.468 38.1424 218.303 41.3471 223.104 47.6764V39.7448ZM192.51 82.367C195.846 85.5717 200.077 87.174 205.285 87.174C210.492 87.174 214.723 85.5717 218.059 82.367C221.395 79.1623 223.104 75.0764 223.104 70.029C223.104 65.1419 221.395 61.0559 218.059 57.8512C214.723 54.6465 210.492 53.0442 205.285 53.0442C200.077 53.0442 195.846 54.6465 192.51 57.8512C189.174 61.0559 187.466 65.1419 187.466 70.029C187.466 75.0764 189.174 79.1623 192.51 82.367Z" fill="white"/>
<path d="M259.881 32.2138C257.196 32.2138 254.836 31.2524 252.802 29.2495C250.849 27.3267 249.792 25.0033 249.792 22.2793C249.792 19.5553 250.768 17.2319 252.802 15.229C254.755 13.2261 257.114 12.2647 259.881 12.2647C262.647 12.2647 265.088 13.2261 267.041 15.229C268.994 17.2319 270.052 19.5553 270.052 22.2793C270.052 25.0033 269.075 27.2465 267.041 29.2495C265.088 31.2524 262.729 32.2138 259.881 32.2138ZM251.744 102.316V39.7448H268.18V102.316H251.744Z" fill="white"/>
<path d="M319.033 28.4483C310.083 27.8074 305.527 31.3325 305.527 39.1039V39.7448H319.033V55.2875H305.527V102.316H289.091V55.2875H279.897V39.7448H289.091V39.1039C289.091 30.291 291.613 23.5612 296.577 18.9144C301.54 14.3477 309.026 12.3448 318.952 12.9056V28.4483H319.033Z" fill="white"/>
<path d="M353.532 55.4477V80.7647C353.532 82.9278 354.102 84.5302 355.16 85.4916C356.299 86.453 357.845 87.0939 359.96 87.174C362.076 87.3343 364.679 87.2542 367.853 87.0939V101.755C356.543 103.037 348.65 101.996 344.013 98.6308C339.375 95.2658 337.097 89.3372 337.097 80.7647V55.4477H326.112V39.5846H337.178V27.8074H353.614V39.5846H368.015V55.4477H353.532Z" fill="white"/>
<path d="M430.829 94.5448C424.32 100.954 416.346 104.159 406.908 104.159C397.47 104.159 389.577 100.954 383.068 94.5448C376.559 88.1354 373.304 80.3641 373.304 71.0705C373.304 61.777 376.559 54.0056 383.068 47.5963C389.577 41.1869 397.47 37.9822 406.908 37.9822C416.346 37.9822 424.32 41.1869 430.829 47.5963C437.339 54.0056 440.593 61.777 440.593 71.0705C440.593 80.3641 437.42 88.1354 430.829 94.5448ZM394.703 83.4085C397.958 86.6933 402.026 88.2957 406.989 88.2957C411.871 88.2957 416.021 86.6933 419.357 83.4085C422.693 80.1237 424.32 76.0378 424.32 70.9904C424.32 65.943 422.693 61.8571 419.357 58.5723C416.021 55.2875 411.953 53.6851 406.989 53.6851C402.107 53.6851 397.958 55.2875 394.703 58.5723C391.449 61.8571 389.821 65.943 389.821 70.9904C389.821 76.0378 391.449 80.2038 394.703 83.4085Z" fill="white"/>
<path d="M77.2971 127.473C75.0188 128.755 72.2524 128.034 70.1369 126.752C70.1369 126.752 36.0448 107.524 24.7351 100.954C17.5749 96.7881 14.6458 93.984 14.6458 83.8091C14.6458 70.9904 14.8085 32.4541 14.8085 32.4541C14.8085 30.0506 15.5408 27.4068 17.7376 26.0448L3.09188 34.4571C1.95277 35.098 1.13912 36.2196 0.732295 37.4214C0.325469 38.543 0.162728 39.6647 0.162728 40.8664C0.162728 40.8664 0 79.4027 0 92.2214C0 100.554 4.55646 106.002 9.11291 108.806C11.8793 110.488 55.4911 135.164 55.4911 135.164C56.7116 135.885 58.0948 136.366 59.5594 136.526C60.6172 136.606 61.7563 136.366 62.6513 135.885L77.2971 127.473Z" fill="white"/>
<path d="M80.8771 102.877C80.8771 99.2717 79.4939 97.2688 76.5648 95.6664C68.3469 91.1799 44.1 77.1594 44.1 77.1594L29.4542 85.5717C29.4542 85.5717 53.9452 99.2717 61.919 104.079C64.4413 105.601 66.2314 107.444 66.2314 111.449C66.2314 115.856 66.15 128.995 66.15 128.995C66.15 131.479 65.4177 134.203 63.1395 135.565L77.7852 127.152C78.7616 126.592 79.5753 125.71 80.0635 124.589C80.633 123.307 80.8771 121.945 80.8771 120.583C80.7958 120.342 80.8771 106.162 80.8771 102.877Z" fill="white"/>
<path d="M103.904 85.5717C103.822 86.8536 104.066 108.485 103.578 108.966C103.253 110.648 102.276 112.171 100.812 113.052L86.1659 121.464C88.4441 120.102 89.1764 117.378 89.1764 114.895L89.2578 93.984L103.904 85.5717Z" fill="white"/>
<path d="M80.8771 69.7887C80.8771 61.6968 77.5412 56.8097 71.9269 53.4448C66.3941 50.16 25.1419 26.6857 25.1419 26.6857C23.6773 25.8846 21.9686 25.2436 20.26 25.3237C19.365 25.3237 18.5513 25.5641 17.7376 26.0448L3.09188 34.4571C5.45148 33.1752 8.29927 33.8963 10.4961 35.1781C10.4961 35.1781 49.7142 57.3705 55.898 60.9758C62.5699 64.9015 66.2314 68.1062 66.2314 77.3998C66.2314 82.1267 66.2314 88.1354 66.2314 88.9366L80.8771 80.5243C80.8771 80.5243 80.8771 75.6372 80.8771 69.7887Z" fill="white"/>
<path d="M103.904 57.1302C103.904 49.0384 100.568 44.1512 94.9533 40.7863C89.4205 37.5015 48.1683 14.0272 48.1683 14.0272C46.7037 13.2261 44.995 12.5852 43.2863 12.6653C42.3913 12.6653 41.5777 12.9056 40.764 13.3863L26.1183 21.7986C28.4779 20.5167 31.3256 21.2378 33.5225 22.5196C33.5225 22.5196 72.7406 44.7121 78.9244 48.3173C85.5963 52.243 89.2578 55.4477 89.2578 64.7413C89.2578 69.4682 89.2578 75.477 89.2578 76.2781L103.904 67.8659C103.904 67.8659 103.904 62.9787 103.904 57.1302Z" fill="white"/>
<path d="M126.767 44.4717C126.767 36.3799 123.431 31.4927 117.817 28.1278C112.284 24.843 71.0319 1.36877 71.0319 1.36877C69.5674 0.567604 67.8587 -0.0733412 66.15 0.00677574C65.255 0.00677574 64.4413 0.247146 63.6277 0.727848L48.9819 9.14013C51.3415 7.85826 54.1893 8.5793 56.3862 9.86118C56.3862 9.86118 95.6043 32.0536 101.788 35.6588C108.46 39.5846 112.121 42.7892 112.121 52.0828C112.121 56.8097 112.121 62.8185 112.121 63.6197L126.767 55.2074C126.767 55.2074 126.767 50.3202 126.767 44.4717Z" fill="white"/>
<path d="M126.767 73.474C126.686 74.7559 126.93 96.3875 126.442 96.8682C126.116 98.5507 125.14 100.073 123.675 100.954L109.03 109.366C111.308 108.004 112.04 105.28 112.04 102.797L112.121 81.8863L126.767 73.474Z" fill="white"/>
</svg>
