<svg width="404" height="85" viewBox="0 0 404 85" fill="none" xmlns="http://www.w3.org/2000/svg">
<rect x="15" y="30.9189" width="2.21936" height="35.1613" rx="1.10968" fill="#DFDFDF"/>
<rect x="21.7188" y="37.9512" width="2.21936" height="21.0968" rx="1.10968" fill="#DFDFDF"/>
<rect x="28.4375" y="37.9512" width="2.21936" height="21.0968" rx="1.10968" fill="#DFDFDF"/>
<rect x="35.1562" y="37.9512" width="2.21936" height="21.0968" rx="1.10968" fill="#DFDFDF"/>
<rect x="41.875" y="37.9512" width="2.21936" height="21.0968" rx="1.10968" fill="#DFDFDF"/>
<rect x="48.5938" y="37.9512" width="2.21936" height="21.0968" rx="1.10968" fill="#DFDFDF"/>
<rect x="55.3125" y="37.9512" width="2.21936" height="21.0968" rx="1.10968" fill="#DFDFDF"/>
<rect x="62.0391" y="30.9189" width="2.21936" height="35.1613" rx="1.10968" fill="#DFDFDF"/>
<rect x="68.7578" y="37.9512" width="2.21936" height="21.0968" rx="1.10968" fill="#DFDFDF"/>
<rect x="75.4766" y="37.9512" width="2.21936" height="21.0968" rx="1.10968" fill="#DFDFDF"/>
<rect x="82.1953" y="37.9512" width="2.21936" height="21.0968" rx="1.10968" fill="#DFDFDF"/>
<rect x="88.9141" y="37.9512" width="2.21936" height="21.0968" rx="1.10968" fill="#DFDFDF"/>
<rect x="95.6328" y="37.9512" width="2.21936" height="21.0968" rx="1.10968" fill="#DFDFDF"/>
<rect x="102.352" y="37.9512" width="2.21936" height="21.0968" rx="1.10968" fill="#DFDFDF"/>
<rect x="109.07" y="30.9189" width="2.21936" height="35.1613" rx="1.10968" fill="#DFDFDF"/>
<rect x="115.789" y="37.9512" width="2.21936" height="21.0968" rx="1.10968" fill="#DFDFDF"/>
<rect x="122.508" y="37.9512" width="2.21936" height="21.0968" rx="1.10968" fill="#DFDFDF"/>
<rect x="129.227" y="37.9512" width="2.21936" height="21.0968" rx="1.10968" fill="#DFDFDF"/>
<rect x="135.945" y="37.9512" width="2.21936" height="21.0968" rx="1.10968" fill="#DFDFDF"/>
<rect x="142.664" y="37.9512" width="2.21936" height="21.0968" rx="1.10968" fill="#DFDFDF"/>
<rect x="149.383" y="37.9512" width="2.21936" height="21.0968" rx="1.10968" fill="#DFDFDF"/>
<rect x="156.109" y="30.9189" width="2.21936" height="35.1613" rx="1.10968" fill="#DFDFDF"/>
<rect x="162.828" y="37.9512" width="2.21936" height="21.0968" rx="1.10968" fill="#DFDFDF"/>
<rect x="169.547" y="37.9512" width="2.21936" height="21.0968" rx="1.10968" fill="#DFDFDF"/>
<rect x="176.266" y="37.9512" width="2.21936" height="21.0968" rx="1.10968" fill="#DFDFDF"/>
<rect x="182.984" y="37.9512" width="2.21936" height="21.0968" rx="1.10968" fill="#DFDFDF"/>
<rect x="189.703" y="37.9512" width="2.21936" height="21.0968" rx="1.10968" fill="#DFDFDF"/>
<rect x="196.422" y="37.9512" width="2.21936" height="21.0968" rx="1.10968" fill="#DFDFDF"/>
<rect x="203.141" y="30.9189" width="2.21936" height="35.1613" rx="1.10968" fill="#9B1D32"/>
<rect x="209.859" y="37.9512" width="2.21936" height="21.0968" rx="1.10968" fill="#9B1D32"/>
<rect x="216.578" y="37.9512" width="2.21936" height="21.0968" rx="1.10968" fill="#9B1D32"/>
<rect x="223.297" y="37.9512" width="2.21936" height="21.0968" rx="1.10968" fill="#9B1D32"/>
<rect x="230.016" y="37.9512" width="2.21936" height="21.0968" rx="1.10968" fill="#9B1D32"/>
<rect x="236.734" y="37.9512" width="2.21936" height="21.0968" rx="1.10968" fill="#9B1D32"/>
<rect x="243.453" y="37.9512" width="2.21936" height="21.0968" rx="1.10968" fill="#9B1D32"/>
<rect x="250.18" y="30.9189" width="2.21936" height="35.1613" rx="1.10968" fill="#9B1D32"/>
<rect x="256.898" y="37.9512" width="2.21936" height="21.0968" rx="1.10968" fill="#9B1D32"/>
<rect x="263.617" y="37.9512" width="2.21936" height="21.0968" rx="1.10968" fill="#9B1D32"/>
<rect x="270.336" y="37.9512" width="2.21936" height="21.0968" rx="1.10968" fill="#9B1D32"/>
<rect x="277.055" y="37.9512" width="2.21936" height="21.0968" rx="1.10968" fill="#9B1D32"/>
<rect x="283.773" y="37.9512" width="2.21936" height="21.0968" rx="1.10968" fill="#9B1D32"/>
<rect x="290.492" y="37.9512" width="2.21936" height="21.0968" rx="1.10968" fill="#9B1D32"/>
<rect x="297.211" y="30.9189" width="2.21936" height="35.1613" rx="1.10968" fill="#9B1D32"/>
<rect x="303.93" y="37.9512" width="2.21936" height="21.0968" rx="1.10968" fill="#9B1D32"/>
<rect x="310.648" y="37.9512" width="2.21936" height="21.0968" rx="1.10968" fill="#9B1D32"/>
<rect x="317.367" y="37.9512" width="2.21936" height="21.0968" rx="1.10968" fill="#9B1D32"/>
<rect x="324.086" y="37.9512" width="2.21936" height="21.0968" rx="1.10968" fill="#9B1D32"/>
<rect x="330.805" y="37.9512" width="2.21936" height="21.0968" rx="1.10968" fill="#9B1D32"/>
<rect x="337.523" y="37.9512" width="2.21936" height="21.0968" rx="1.10968" fill="#9B1D32"/>
<rect x="344.25" y="30.9189" width="2.21936" height="35.1613" rx="1.10968" fill="#9B1D32"/>
<rect x="350.969" y="37.9512" width="2.21936" height="21.0968" rx="1.10968" fill="#9B1D32"/>
<rect x="357.688" y="37.9512" width="2.21936" height="21.0968" rx="1.10968" fill="#9B1D32"/>
<rect x="364.406" y="37.9512" width="2.21936" height="21.0968" rx="1.10968" fill="#9B1D32"/>
<rect x="371.125" y="37.9512" width="2.21936" height="21.0968" rx="1.10968" fill="#9B1D32"/>
<rect x="377.844" y="37.9512" width="2.21936" height="21.0968" rx="1.10968" fill="#9B1D32"/>
<rect x="384.562" y="37.9512" width="2.21936" height="21.0968" rx="1.10968" fill="#9B1D32"/>
<rect x="370" width="33.5993" height="33.5993" rx="16.7996" fill="#9B1D32"/>
<path d="M381.649 15.5282C383.156 15.5282 384.271 15.8235 384.994 16.414C385.717 16.9944 386.078 17.7885 386.078 18.7965C386.078 19.438 385.921 20.0183 385.605 20.5376C385.289 21.0568 384.816 21.4692 384.185 21.7746C383.553 22.0801 382.775 22.2328 381.848 22.2328C381.084 22.2328 380.346 22.1259 379.633 21.9121C378.921 21.6881 378.32 21.3826 377.831 20.9957L378.671 19.4532C379.068 19.779 379.542 20.0387 380.092 20.2321C380.652 20.4154 381.227 20.507 381.817 20.507C382.52 20.507 383.07 20.3645 383.467 20.0794C383.874 19.7841 384.078 19.382 384.078 18.8729C384.078 18.3231 383.859 17.9107 383.421 17.6358C382.993 17.3507 382.255 17.2082 381.207 17.2082H378.626L379.175 11.3894H385.452V13.0541H380.855L380.626 15.5282H381.649ZM391.775 15.4824C392.477 15.4824 393.109 15.6199 393.669 15.8948C394.229 16.1595 394.666 16.5413 394.982 17.0402C395.298 17.5391 395.455 18.1143 395.455 18.766C395.455 19.4583 395.282 20.0692 394.936 20.5987C394.59 21.1179 394.122 21.5201 393.531 21.8052C392.941 22.0903 392.279 22.2328 391.546 22.2328C390.08 22.2328 388.939 21.7746 388.125 20.8583C387.32 19.9419 386.918 18.6285 386.918 16.918C386.918 15.7166 387.137 14.6933 387.575 13.8483C388.013 12.993 388.624 12.3465 389.408 11.9087C390.202 11.4607 391.118 11.2367 392.157 11.2367C392.706 11.2367 393.221 11.2978 393.699 11.42C394.188 11.5319 394.61 11.6999 394.967 11.9239L394.234 13.4206C393.704 13.0745 393.027 12.9014 392.202 12.9014C391.174 12.9014 390.37 13.217 389.789 13.8483C389.209 14.4795 388.919 15.3908 388.919 16.582V16.5973C389.234 16.2308 389.637 15.9558 390.125 15.7726C390.614 15.5791 391.164 15.4824 391.775 15.4824ZM391.439 20.675C392.06 20.675 392.564 20.5121 392.951 20.1863C393.338 19.8503 393.531 19.4074 393.531 18.8576C393.531 18.2976 393.338 17.8547 392.951 17.5289C392.564 17.2031 392.045 17.0402 391.393 17.0402C390.752 17.0402 390.227 17.2133 389.82 17.5595C389.423 17.9056 389.224 18.3434 389.224 18.8729C389.224 19.3921 389.418 19.8249 389.805 20.171C390.202 20.507 390.746 20.675 391.439 20.675Z" fill="white"/>
<rect width="33.5993" height="33.5993" rx="16.7996" fill="#DFDFDF"/>
<path d="M16.1315 22.2328C15.2763 22.2328 14.5126 22.019 13.8407 21.5914C13.1687 21.1536 12.6392 20.5223 12.2523 19.6976C11.8654 18.8627 11.672 17.8751 11.672 16.7347C11.672 15.5944 11.8654 14.6119 12.2523 13.7872C12.6392 12.9523 13.1687 12.321 13.8407 11.8934C14.5126 11.4556 15.2763 11.2367 16.1315 11.2367C16.9868 11.2367 17.7504 11.4556 18.4224 11.8934C19.1045 12.321 19.6391 12.9523 20.026 13.7872C20.4129 14.6119 20.6063 15.5944 20.6063 16.7347C20.6063 17.8751 20.4129 18.8627 20.026 19.6976C19.6391 20.5223 19.1045 21.1536 18.4224 21.5914C17.7504 22.019 16.9868 22.2328 16.1315 22.2328ZM16.1315 20.507C16.8951 20.507 17.4959 20.1914 17.9337 19.5601C18.3817 18.9289 18.6057 17.9871 18.6057 16.7347C18.6057 15.4824 18.3817 14.5406 17.9337 13.9093C17.4959 13.2781 16.8951 12.9625 16.1315 12.9625C15.3781 12.9625 14.7774 13.2781 14.3294 13.9093C13.8916 14.5406 13.6727 15.4824 13.6727 16.7347C13.6727 17.9871 13.8916 18.9289 14.3294 19.5601C14.7774 20.1914 15.3781 20.507 16.1315 20.507Z" fill="white"/>
</svg>
