<svg width="501" height="357" viewBox="0 0 501 357" fill="none" xmlns="http://www.w3.org/2000/svg">
<g clip-path="url(#clip0_3001_23718)">
<rect width="525" height="372" transform="translate(-14 -3)" fill="white"/>
<line x1="47" y1="257.5" x2="501" y2="257.5" stroke="#DFDFDF" stroke-dasharray="2 2"/>
<line x1="47" y1="207.5" x2="501" y2="207.5" stroke="#DFDFDF" stroke-dasharray="2 2"/>
<line x1="47" y1="57.5" x2="501" y2="57.5" stroke="#DFDFDF" stroke-dasharray="2 2"/>
<line x1="47" y1="107.5" x2="501" y2="107.5" stroke="#DFDFDF" stroke-dasharray="2 2"/>
<line x1="47" y1="7.5" x2="501" y2="7.5" stroke="#DFDFDF" stroke-dasharray="2 2"/>
<line x1="47" y1="157.5" x2="501" y2="157.5" stroke="#DFDFDF" stroke-dasharray="2 2"/>
<line x1="46" y1="307.5" x2="505" y2="307.5" stroke="#2A292A"/>
<line x1="274.5" y1="7" x2="274.5" y2="339" stroke="#DFDFDF" stroke-dasharray="2 2"/>
<mask id="path-9-inside-1_3001_23718" fill="white">
<path d="M38 7H47V17H38V7Z"/>
</mask>
<path d="M38 7V8H47V7V6H38V7Z" fill="#2A292A" mask="url(#path-9-inside-1_3001_23718)"/>
<mask id="path-11-inside-2_3001_23718" fill="white">
<path d="M41 17H47V27H41V17Z"/>
</mask>
<path d="M41 17V18H47V17V16H41V17Z" fill="#2A292A" mask="url(#path-11-inside-2_3001_23718)"/>
<mask id="path-13-inside-3_3001_23718" fill="white">
<path d="M41 27H47V37H41V27Z"/>
</mask>
<path d="M41 27V28H47V27V26H41V27Z" fill="#2A292A" mask="url(#path-13-inside-3_3001_23718)"/>
<mask id="path-15-inside-4_3001_23718" fill="white">
<path d="M41 37H47V47H41V37Z"/>
</mask>
<path d="M41 37V38H47V37V36H41V37Z" fill="#2A292A" mask="url(#path-15-inside-4_3001_23718)"/>
<mask id="path-17-inside-5_3001_23718" fill="white">
<path d="M41 47H47V57H41V47Z"/>
</mask>
<path d="M41 47V48H47V47V46H41V47Z" fill="#2A292A" mask="url(#path-17-inside-5_3001_23718)"/>
<mask id="path-19-inside-6_3001_23718" fill="white">
<path d="M38 57H47V67H38V57Z"/>
</mask>
<path d="M38 57V58H47V57V56H38V57Z" fill="#2A292A" mask="url(#path-19-inside-6_3001_23718)"/>
<mask id="path-21-inside-7_3001_23718" fill="white">
<path d="M41 67H47V77H41V67Z"/>
</mask>
<path d="M41 67V68H47V67V66H41V67Z" fill="#2A292A" mask="url(#path-21-inside-7_3001_23718)"/>
<mask id="path-23-inside-8_3001_23718" fill="white">
<path d="M41 77H47V87H41V77Z"/>
</mask>
<path d="M41 77V78H47V77V76H41V77Z" fill="#2A292A" mask="url(#path-23-inside-8_3001_23718)"/>
<mask id="path-25-inside-9_3001_23718" fill="white">
<path d="M41 87H47V97H41V87Z"/>
</mask>
<path d="M41 87V88H47V87V86H41V87Z" fill="#2A292A" mask="url(#path-25-inside-9_3001_23718)"/>
<mask id="path-27-inside-10_3001_23718" fill="white">
<path d="M41 97H47V107H41V97Z"/>
</mask>
<path d="M41 97V98H47V97V96H41V97Z" fill="#2A292A" mask="url(#path-27-inside-10_3001_23718)"/>
<mask id="path-29-inside-11_3001_23718" fill="white">
<path d="M38 107H47V117H38V107Z"/>
</mask>
<path d="M38 107V108H47V107V106H38V107Z" fill="#2A292A" mask="url(#path-29-inside-11_3001_23718)"/>
<mask id="path-31-inside-12_3001_23718" fill="white">
<path d="M41 117H47V127H41V117Z"/>
</mask>
<path d="M41 117V118H47V117V116H41V117Z" fill="#2A292A" mask="url(#path-31-inside-12_3001_23718)"/>
<mask id="path-33-inside-13_3001_23718" fill="white">
<path d="M41 127H47V137H41V127Z"/>
</mask>
<path d="M41 127V128H47V127V126H41V127Z" fill="#2A292A" mask="url(#path-33-inside-13_3001_23718)"/>
<mask id="path-35-inside-14_3001_23718" fill="white">
<path d="M41 137H47V147H41V137Z"/>
</mask>
<path d="M41 137V138H47V137V136H41V137Z" fill="#2A292A" mask="url(#path-35-inside-14_3001_23718)"/>
<mask id="path-37-inside-15_3001_23718" fill="white">
<path d="M41 147H47V157H41V147Z"/>
</mask>
<path d="M41 147V148H47V147V146H41V147Z" fill="#2A292A" mask="url(#path-37-inside-15_3001_23718)"/>
<mask id="path-39-inside-16_3001_23718" fill="white">
<path d="M38 157H47V167H38V157Z"/>
</mask>
<path d="M38 157V158H47V157V156H38V157Z" fill="#2A292A" mask="url(#path-39-inside-16_3001_23718)"/>
<mask id="path-41-inside-17_3001_23718" fill="white">
<path d="M41 167H47V177H41V167Z"/>
</mask>
<path d="M41 167V168H47V167V166H41V167Z" fill="#2A292A" mask="url(#path-41-inside-17_3001_23718)"/>
<mask id="path-43-inside-18_3001_23718" fill="white">
<path d="M41 177H47V187H41V177Z"/>
</mask>
<path d="M41 177V178H47V177V176H41V177Z" fill="#2A292A" mask="url(#path-43-inside-18_3001_23718)"/>
<mask id="path-45-inside-19_3001_23718" fill="white">
<path d="M41 187H47V197H41V187Z"/>
</mask>
<path d="M41 187V188H47V187V186H41V187Z" fill="#2A292A" mask="url(#path-45-inside-19_3001_23718)"/>
<mask id="path-47-inside-20_3001_23718" fill="white">
<path d="M41 197H47V207H41V197Z"/>
</mask>
<path d="M41 197V198H47V197V196H41V197Z" fill="#2A292A" mask="url(#path-47-inside-20_3001_23718)"/>
<mask id="path-49-inside-21_3001_23718" fill="white">
<path d="M38 207H47V217H38V207Z"/>
</mask>
<path d="M38 207V208H47V207V206H38V207Z" fill="#2A292A" mask="url(#path-49-inside-21_3001_23718)"/>
<mask id="path-51-inside-22_3001_23718" fill="white">
<path d="M41 217H47V227H41V217Z"/>
</mask>
<path d="M41 217V218H47V217V216H41V217Z" fill="#2A292A" mask="url(#path-51-inside-22_3001_23718)"/>
<mask id="path-53-inside-23_3001_23718" fill="white">
<path d="M41 227H47V237H41V227Z"/>
</mask>
<path d="M41 227V228H47V227V226H41V227Z" fill="#2A292A" mask="url(#path-53-inside-23_3001_23718)"/>
<mask id="path-55-inside-24_3001_23718" fill="white">
<path d="M41 237H47V247H41V237Z"/>
</mask>
<path d="M41 237V238H47V237V236H41V237Z" fill="#2A292A" mask="url(#path-55-inside-24_3001_23718)"/>
<mask id="path-57-inside-25_3001_23718" fill="white">
<path d="M41 247H47V257H41V247Z"/>
</mask>
<path d="M41 247V248H47V247V246H41V247Z" fill="#2A292A" mask="url(#path-57-inside-25_3001_23718)"/>
<mask id="path-59-inside-26_3001_23718" fill="white">
<path d="M38 257H47V267H38V257Z"/>
</mask>
<path d="M38 257V258H47V257V256H38V257Z" fill="#2A292A" mask="url(#path-59-inside-26_3001_23718)"/>
<mask id="path-61-inside-27_3001_23718" fill="white">
<path d="M41 267H47V277H41V267Z"/>
</mask>
<path d="M41 267V268H47V267V266H41V267Z" fill="#2A292A" mask="url(#path-61-inside-27_3001_23718)"/>
<mask id="path-63-inside-28_3001_23718" fill="white">
<path d="M41 277H47V287H41V277Z"/>
</mask>
<path d="M41 277V278H47V277V276H41V277Z" fill="#2A292A" mask="url(#path-63-inside-28_3001_23718)"/>
<mask id="path-65-inside-29_3001_23718" fill="white">
<path d="M41 287H47V297H41V287Z"/>
</mask>
<path d="M41 287V288H47V287V286H41V287Z" fill="#2A292A" mask="url(#path-65-inside-29_3001_23718)"/>
<mask id="path-67-inside-30_3001_23718" fill="white">
<path d="M41 297H47V307H41V297Z"/>
</mask>
<path d="M41 297V298H47V297V296H41V297Z" fill="#2A292A" mask="url(#path-67-inside-30_3001_23718)"/>
<mask id="path-69-inside-31_3001_23718" fill="white">
<path d="M38 307H47V317H38V307Z"/>
</mask>
<path d="M38 307V308H47V307V306H38V307Z" fill="#2A292A" mask="url(#path-69-inside-31_3001_23718)"/>
<path d="M23.2726 11.072C22.6646 11.072 22.0886 10.976 21.5446 10.784C21.0086 10.584 20.5766 10.32 20.2486 9.992L20.6686 9.308C20.9406 9.588 21.3046 9.82 21.7606 10.004C22.2246 10.188 22.7286 10.28 23.2726 10.28C23.9686 10.28 24.5006 10.128 24.8686 9.824C25.2446 9.52 25.4326 9.112 25.4326 8.6C25.4326 8.088 25.2486 7.68 24.8806 7.376C24.5206 7.072 23.9486 6.92 23.1646 6.92H22.5646V6.284L25.1566 3.032L25.2766 3.368H20.5966V2.6H25.9966V3.212L23.4046 6.464L22.9846 6.188H23.3086C24.3166 6.188 25.0686 6.412 25.5646 6.86C26.0686 7.308 26.3206 7.884 26.3206 8.588C26.3206 9.06 26.2086 9.484 25.9846 9.86C25.7606 10.236 25.4206 10.532 24.9646 10.748C24.5166 10.964 23.9526 11.072 23.2726 11.072ZM30.8861 11.072C30.2381 11.072 29.6621 10.904 29.1581 10.568C28.6541 10.224 28.2581 9.736 27.9701 9.104C27.6821 8.464 27.5381 7.696 27.5381 6.8C27.5381 5.904 27.6821 5.14 27.9701 4.508C28.2581 3.868 28.6541 3.38 29.1581 3.044C29.6621 2.7 30.2381 2.528 30.8861 2.528C31.5341 2.528 32.1101 2.7 32.6141 3.044C33.1181 3.38 33.5141 3.868 33.8021 4.508C34.0981 5.14 34.2461 5.904 34.2461 6.8C34.2461 7.696 34.0981 8.464 33.8021 9.104C33.5141 9.736 33.1181 10.224 32.6141 10.568C32.1101 10.904 31.5341 11.072 30.8861 11.072ZM30.8861 10.28C31.3821 10.28 31.8141 10.148 32.1821 9.884C32.5501 9.612 32.8381 9.22 33.0461 8.708C33.2541 8.188 33.3581 7.552 33.3581 6.8C33.3581 6.048 33.2541 5.416 33.0461 4.904C32.8381 4.384 32.5501 3.992 32.1821 3.728C31.8141 3.456 31.3821 3.32 30.8861 3.32C30.4061 3.32 29.9781 3.456 29.6021 3.728C29.2261 3.992 28.9341 4.384 28.7261 4.904C28.5181 5.416 28.4141 6.048 28.4141 6.8C28.4141 7.552 28.5181 8.188 28.7261 8.708C28.9341 9.22 29.2261 9.612 29.6021 9.884C29.9781 10.148 30.4061 10.28 30.8861 10.28Z" fill="#2A292A"/>
<path d="M21.1594 61V60.388L24.6514 56.968C24.9714 56.656 25.2114 56.384 25.3714 56.152C25.5314 55.912 25.6394 55.688 25.6954 55.48C25.7514 55.272 25.7794 55.076 25.7794 54.892C25.7794 54.404 25.6114 54.02 25.2754 53.74C24.9474 53.46 24.4594 53.32 23.8114 53.32C23.3154 53.32 22.8754 53.396 22.4914 53.548C22.1154 53.7 21.7914 53.936 21.5194 54.256L20.9074 53.728C21.2354 53.344 21.6554 53.048 22.1674 52.84C22.6794 52.632 23.2514 52.528 23.8834 52.528C24.4514 52.528 24.9434 52.62 25.3594 52.804C25.7754 52.98 26.0954 53.24 26.3194 53.584C26.5514 53.928 26.6674 54.332 26.6674 54.796C26.6674 55.068 26.6274 55.336 26.5474 55.6C26.4754 55.864 26.3394 56.144 26.1394 56.44C25.9474 56.728 25.6634 57.056 25.2874 57.424L22.0834 60.568L21.8434 60.232H27.0514V61H21.1594ZM30.7877 61.072C30.1877 61.072 29.6157 60.976 29.0717 60.784C28.5277 60.584 28.0957 60.32 27.7757 59.992L28.1957 59.308C28.4597 59.588 28.8197 59.82 29.2757 60.004C29.7397 60.188 30.2397 60.28 30.7757 60.28C31.4877 60.28 32.0277 60.124 32.3957 59.812C32.7717 59.492 32.9597 59.076 32.9597 58.564C32.9597 58.204 32.8717 57.896 32.6957 57.64C32.5277 57.376 32.2397 57.172 31.8317 57.028C31.4237 56.884 30.8637 56.812 30.1517 56.812H28.3637L28.7957 52.6H33.3917V53.368H29.1437L29.5877 52.948L29.2157 56.476L28.7717 56.044H30.3437C31.1917 56.044 31.8717 56.148 32.3837 56.356C32.8957 56.564 33.2637 56.856 33.4877 57.232C33.7197 57.6 33.8357 58.032 33.8357 58.528C33.8357 59 33.7237 59.432 33.4997 59.824C33.2757 60.208 32.9397 60.512 32.4917 60.736C32.0437 60.96 31.4757 61.072 30.7877 61.072Z" fill="#2A292A"/>
<path d="M20.5969 111V110.388L24.0889 106.968C24.4089 106.656 24.6489 106.384 24.8089 106.152C24.9689 105.912 25.0769 105.688 25.1329 105.48C25.1889 105.272 25.2169 105.076 25.2169 104.892C25.2169 104.404 25.0489 104.02 24.7129 103.74C24.3849 103.46 23.8969 103.32 23.2489 103.32C22.7529 103.32 22.3129 103.396 21.9289 103.548C21.5529 103.7 21.2289 103.936 20.9569 104.256L20.3449 103.728C20.6729 103.344 21.0929 103.048 21.6049 102.84C22.1169 102.632 22.6889 102.528 23.3209 102.528C23.8889 102.528 24.3809 102.62 24.7969 102.804C25.2129 102.98 25.5329 103.24 25.7569 103.584C25.9889 103.928 26.1049 104.332 26.1049 104.796C26.1049 105.068 26.0649 105.336 25.9849 105.6C25.9129 105.864 25.7769 106.144 25.5769 106.44C25.3849 106.728 25.1009 107.056 24.7249 107.424L21.5209 110.568L21.2809 110.232H26.4889V111H20.5969ZM30.8978 111.072C30.2498 111.072 29.6738 110.904 29.1698 110.568C28.6658 110.224 28.2698 109.736 27.9818 109.104C27.6938 108.464 27.5498 107.696 27.5498 106.8C27.5498 105.904 27.6938 105.14 27.9818 104.508C28.2698 103.868 28.6658 103.38 29.1698 103.044C29.6738 102.7 30.2498 102.528 30.8978 102.528C31.5458 102.528 32.1218 102.7 32.6258 103.044C33.1298 103.38 33.5258 103.868 33.8138 104.508C34.1098 105.14 34.2578 105.904 34.2578 106.8C34.2578 107.696 34.1098 108.464 33.8138 109.104C33.5258 109.736 33.1298 110.224 32.6258 110.568C32.1218 110.904 31.5458 111.072 30.8978 111.072ZM30.8978 110.28C31.3938 110.28 31.8258 110.148 32.1938 109.884C32.5618 109.612 32.8498 109.22 33.0578 108.708C33.2658 108.188 33.3698 107.552 33.3698 106.8C33.3698 106.048 33.2658 105.416 33.0578 104.904C32.8498 104.384 32.5618 103.992 32.1938 103.728C31.8258 103.456 31.3938 103.32 30.8978 103.32C30.4178 103.32 29.9898 103.456 29.6138 103.728C29.2378 103.992 28.9458 104.384 28.7378 104.904C28.5298 105.416 28.4258 106.048 28.4258 106.8C28.4258 107.552 28.5298 108.188 28.7378 108.708C28.9458 109.22 29.2378 109.612 29.6138 109.884C29.9898 110.148 30.4178 110.28 30.8978 110.28Z" fill="#2A292A"/>
<path d="M24.0216 161V152.96L24.4056 153.368H22.0416V152.6H24.8856V161H24.0216ZM29.5455 161.072C28.9455 161.072 28.3735 160.976 27.8295 160.784C27.2855 160.584 26.8535 160.32 26.5335 159.992L26.9535 159.308C27.2175 159.588 27.5775 159.82 28.0335 160.004C28.4975 160.188 28.9975 160.28 29.5335 160.28C30.2455 160.28 30.7855 160.124 31.1535 159.812C31.5295 159.492 31.7175 159.076 31.7175 158.564C31.7175 158.204 31.6295 157.896 31.4535 157.64C31.2855 157.376 30.9975 157.172 30.5895 157.028C30.1815 156.884 29.6215 156.812 28.9095 156.812H27.1215L27.5535 152.6H32.1495V153.368H27.9015L28.3455 152.948L27.9735 156.476L27.5295 156.044H29.1015C29.9495 156.044 30.6295 156.148 31.1415 156.356C31.6535 156.564 32.0215 156.856 32.2455 157.232C32.4775 157.6 32.5935 158.032 32.5935 158.528C32.5935 159 32.4815 159.432 32.2575 159.824C32.0335 160.208 31.6975 160.512 31.2495 160.736C30.8015 160.96 30.2335 161.072 29.5455 161.072Z" fill="#2A292A"/>
<path d="M23.4474 211V202.96L23.8314 203.368H21.4674V202.6H24.3114V211H23.4474ZM29.6673 211.072C29.0193 211.072 28.4433 210.904 27.9393 210.568C27.4353 210.224 27.0393 209.736 26.7513 209.104C26.4633 208.464 26.3193 207.696 26.3193 206.8C26.3193 205.904 26.4633 205.14 26.7513 204.508C27.0393 203.868 27.4353 203.38 27.9393 203.044C28.4433 202.7 29.0193 202.528 29.6673 202.528C30.3153 202.528 30.8913 202.7 31.3953 203.044C31.8993 203.38 32.2953 203.868 32.5833 204.508C32.8793 205.14 33.0273 205.904 33.0273 206.8C33.0273 207.696 32.8793 208.464 32.5833 209.104C32.2953 209.736 31.8993 210.224 31.3953 210.568C30.8913 210.904 30.3153 211.072 29.6673 211.072ZM29.6673 210.28C30.1633 210.28 30.5953 210.148 30.9633 209.884C31.3313 209.612 31.6193 209.22 31.8273 208.708C32.0353 208.188 32.1393 207.552 32.1393 206.8C32.1393 206.048 32.0353 205.416 31.8273 204.904C31.6193 204.384 31.3313 203.992 30.9633 203.728C30.5953 203.456 30.1633 203.32 29.6673 203.32C29.1873 203.32 28.7593 203.456 28.3833 203.728C28.0073 203.992 27.7153 204.384 27.5073 204.904C27.2993 205.416 27.1953 206.048 27.1953 206.8C27.1953 207.552 27.2993 208.188 27.5073 208.708C27.7153 209.22 28.0073 209.612 28.3833 209.884C28.7593 210.148 29.1873 210.28 29.6673 210.28Z" fill="#2A292A"/>
<path d="M27.3776 261.072C26.7776 261.072 26.2056 260.976 25.6616 260.784C25.1176 260.584 24.6856 260.32 24.3656 259.992L24.7856 259.308C25.0496 259.588 25.4096 259.82 25.8656 260.004C26.3296 260.188 26.8296 260.28 27.3656 260.28C28.0776 260.28 28.6176 260.124 28.9856 259.812C29.3616 259.492 29.5496 259.076 29.5496 258.564C29.5496 258.204 29.4616 257.896 29.2856 257.64C29.1176 257.376 28.8296 257.172 28.4216 257.028C28.0136 256.884 27.4536 256.812 26.7416 256.812H24.9536L25.3856 252.6H29.9816V253.368H25.7336L26.1776 252.948L25.8056 256.476L25.3616 256.044H26.9336C27.7816 256.044 28.4616 256.148 28.9736 256.356C29.4856 256.564 29.8536 256.856 30.0776 257.232C30.3096 257.6 30.4256 258.032 30.4256 258.528C30.4256 259 30.3136 259.432 30.0896 259.824C29.8656 260.208 29.5296 260.512 29.0816 260.736C28.6336 260.96 28.0656 261.072 27.3776 261.072Z" fill="#2A292A"/>
<path d="M27.4993 311.072C26.8513 311.072 26.2753 310.904 25.7713 310.568C25.2673 310.224 24.8713 309.736 24.5833 309.104C24.2953 308.464 24.1513 307.696 24.1513 306.8C24.1513 305.904 24.2953 305.14 24.5833 304.508C24.8713 303.868 25.2673 303.38 25.7713 303.044C26.2753 302.7 26.8513 302.528 27.4993 302.528C28.1473 302.528 28.7233 302.7 29.2273 303.044C29.7313 303.38 30.1273 303.868 30.4153 304.508C30.7113 305.14 30.8593 305.904 30.8593 306.8C30.8593 307.696 30.7113 308.464 30.4153 309.104C30.1273 309.736 29.7313 310.224 29.2273 310.568C28.7233 310.904 28.1473 311.072 27.4993 311.072ZM27.4993 310.28C27.9953 310.28 28.4273 310.148 28.7953 309.884C29.1633 309.612 29.4513 309.22 29.6593 308.708C29.8673 308.188 29.9713 307.552 29.9713 306.8C29.9713 306.048 29.8673 305.416 29.6593 304.904C29.4513 304.384 29.1633 303.992 28.7953 303.728C28.4273 303.456 27.9953 303.32 27.4993 303.32C27.0193 303.32 26.5913 303.456 26.2153 303.728C25.8393 303.992 25.5473 304.384 25.3393 304.904C25.1313 305.416 25.0273 306.048 25.0273 306.8C25.0273 307.552 25.1313 308.188 25.3393 308.708C25.5473 309.22 25.8393 309.612 26.2153 309.884C26.5913 310.148 27.0193 310.28 27.4993 310.28Z" fill="#2A292A"/>
<rect x="57" y="258" width="16" height="49" rx="3" fill="#2A292A"/>
<path d="M64.898 273.06C64.398 273.06 63.9213 272.98 63.468 272.82C63.0146 272.653 62.6546 272.433 62.388 272.16L62.738 271.59C62.958 271.823 63.258 272.017 63.638 272.17C64.0246 272.323 64.4413 272.4 64.888 272.4C65.4813 272.4 65.9313 272.27 66.238 272.01C66.5513 271.743 66.708 271.397 66.708 270.97C66.708 270.67 66.6346 270.413 66.488 270.2C66.348 269.98 66.108 269.81 65.768 269.69C65.428 269.57 64.9613 269.51 64.368 269.51H62.878L63.238 266H67.068V266.64H63.528L63.898 266.29L63.588 269.23L63.218 268.87H64.528C65.2346 268.87 65.8013 268.957 66.228 269.13C66.6546 269.303 66.9613 269.547 67.148 269.86C67.3413 270.167 67.438 270.527 67.438 270.94C67.438 271.333 67.3446 271.693 67.158 272.02C66.9713 272.34 66.6913 272.593 66.318 272.78C65.9446 272.967 65.4713 273.06 64.898 273.06Z" fill="white"/>
<rect x="80" y="186" width="16" height="121" rx="3" fill="#DFDFDF"/>
<path d="M85.0916 201V194.3L85.4116 194.64H83.4416V194H85.8116V201H85.0916ZM87.3548 201V200.49L90.2648 197.64C90.5315 197.38 90.7315 197.153 90.8648 196.96C90.9982 196.76 91.0882 196.573 91.1348 196.4C91.1815 196.227 91.2048 196.063 91.2048 195.91C91.2048 195.503 91.0648 195.183 90.7848 194.95C90.5115 194.717 90.1048 194.6 89.5648 194.6C89.1515 194.6 88.7848 194.663 88.4648 194.79C88.1515 194.917 87.8815 195.113 87.6548 195.38L87.1448 194.94C87.4182 194.62 87.7682 194.373 88.1948 194.2C88.6215 194.027 89.0982 193.94 89.6248 193.94C90.0982 193.94 90.5082 194.017 90.8548 194.17C91.2015 194.317 91.4682 194.533 91.6548 194.82C91.8482 195.107 91.9448 195.443 91.9448 195.83C91.9448 196.057 91.9115 196.28 91.8448 196.5C91.7848 196.72 91.6715 196.953 91.5048 197.2C91.3448 197.44 91.1082 197.713 90.7948 198.02L88.1248 200.64L87.9248 200.36H92.2648V201H87.3548Z" fill="#2A292A"/>
<rect x="103" y="124" width="16" height="183" rx="3" fill="#C4A587"/>
<path d="M107.745 139V132.3L108.065 132.64H106.095V132H108.465V139H107.745ZM112.798 139.06C112.238 139.06 111.755 138.98 111.348 138.82C110.948 138.66 110.638 138.43 110.418 138.13C110.205 137.823 110.098 137.463 110.098 137.05C110.098 136.65 110.201 136.31 110.408 136.03C110.621 135.743 110.928 135.523 111.328 135.37C111.735 135.217 112.225 135.14 112.798 135.14C113.365 135.14 113.851 135.217 114.258 135.37C114.665 135.523 114.975 135.743 115.188 136.03C115.408 136.31 115.518 136.65 115.518 137.05C115.518 137.463 115.408 137.823 115.188 138.13C114.968 138.43 114.655 138.66 114.248 138.82C113.841 138.98 113.358 139.06 112.798 139.06ZM112.798 138.45C113.418 138.45 113.901 138.323 114.248 138.07C114.601 137.817 114.778 137.473 114.778 137.04C114.778 136.607 114.601 136.267 114.248 136.02C113.901 135.767 113.418 135.64 112.798 135.64C112.178 135.64 111.695 135.767 111.348 136.02C111.001 136.267 110.828 136.607 110.828 137.04C110.828 137.473 111.001 137.817 111.348 138.07C111.695 138.323 112.178 138.45 112.798 138.45ZM112.798 135.07C113.345 135.07 113.771 134.957 114.078 134.73C114.385 134.503 114.538 134.2 114.538 133.82C114.538 133.42 114.378 133.11 114.058 132.89C113.745 132.663 113.325 132.55 112.798 132.55C112.271 132.55 111.851 132.663 111.538 132.89C111.225 133.11 111.068 133.417 111.068 133.81C111.068 134.197 111.218 134.503 111.518 134.73C111.825 134.957 112.251 135.07 112.798 135.07ZM112.798 135.55C112.278 135.55 111.835 135.48 111.468 135.34C111.108 135.2 110.831 135 110.638 134.74C110.445 134.473 110.348 134.157 110.348 133.79C110.348 133.403 110.448 133.073 110.648 132.8C110.855 132.52 111.141 132.307 111.508 132.16C111.875 132.013 112.305 131.94 112.798 131.94C113.291 131.94 113.721 132.013 114.088 132.16C114.461 132.307 114.751 132.52 114.958 132.8C115.165 133.073 115.268 133.403 115.268 133.79C115.268 134.157 115.171 134.473 114.978 134.74C114.785 135 114.501 135.2 114.128 135.34C113.761 135.48 113.318 135.55 112.798 135.55Z" fill="#2A292A"/>
<g clip-path="url(#clip1_3001_23718)">
<rect x="129" y="305" width="16" height="2" rx="1" fill="#2A292A"/>
</g>
<rect x="152" y="37" width="16" height="270" rx="3" fill="#DFDFDF"/>
<path d="M154.614 52V51.49L157.524 48.64C157.79 48.38 157.99 48.1533 158.124 47.96C158.257 47.76 158.347 47.5733 158.394 47.4C158.44 47.2267 158.464 47.0633 158.464 46.91C158.464 46.5033 158.324 46.1833 158.044 45.95C157.77 45.7167 157.364 45.6 156.824 45.6C156.41 45.6 156.044 45.6633 155.724 45.79C155.41 45.9167 155.14 46.1133 154.914 46.38L154.404 45.94C154.677 45.62 155.027 45.3733 155.454 45.2C155.88 45.0267 156.357 44.94 156.884 44.94C157.357 44.94 157.767 45.0167 158.114 45.17C158.46 45.3167 158.727 45.5333 158.914 45.82C159.107 46.1067 159.204 46.4433 159.204 46.83C159.204 47.0567 159.17 47.28 159.104 47.5C159.044 47.72 158.93 47.9533 158.764 48.2C158.604 48.44 158.367 48.7133 158.054 49.02L155.384 51.64L155.184 51.36H159.524V52H154.614ZM161.638 52L164.658 45.32L164.878 45.64H160.548L160.918 45.29V46.95H160.208V45H165.348V45.51L162.418 52H161.638Z" fill="#2A292A"/>
<rect x="175" y="227" width="16" height="80" rx="3" fill="#C4A587"/>
<path d="M183.492 242.06C182.932 242.06 182.448 241.98 182.042 241.82C181.642 241.66 181.332 241.43 181.112 241.13C180.898 240.823 180.792 240.463 180.792 240.05C180.792 239.65 180.895 239.31 181.102 239.03C181.315 238.743 181.622 238.523 182.022 238.37C182.428 238.217 182.918 238.14 183.492 238.14C184.058 238.14 184.545 238.217 184.952 238.37C185.358 238.523 185.668 238.743 185.882 239.03C186.102 239.31 186.212 239.65 186.212 240.05C186.212 240.463 186.102 240.823 185.882 241.13C185.662 241.43 185.348 241.66 184.942 241.82C184.535 241.98 184.052 242.06 183.492 242.06ZM183.492 241.45C184.112 241.45 184.595 241.323 184.942 241.07C185.295 240.817 185.472 240.473 185.472 240.04C185.472 239.607 185.295 239.267 184.942 239.02C184.595 238.767 184.112 238.64 183.492 238.64C182.872 238.64 182.388 238.767 182.042 239.02C181.695 239.267 181.522 239.607 181.522 240.04C181.522 240.473 181.695 240.817 182.042 241.07C182.388 241.323 182.872 241.45 183.492 241.45ZM183.492 238.07C184.038 238.07 184.465 237.957 184.772 237.73C185.078 237.503 185.232 237.2 185.232 236.82C185.232 236.42 185.072 236.11 184.752 235.89C184.438 235.663 184.018 235.55 183.492 235.55C182.965 235.55 182.545 235.663 182.232 235.89C181.918 236.11 181.762 236.417 181.762 236.81C181.762 237.197 181.912 237.503 182.212 237.73C182.518 237.957 182.945 238.07 183.492 238.07ZM183.492 238.55C182.972 238.55 182.528 238.48 182.162 238.34C181.802 238.2 181.525 238 181.332 237.74C181.138 237.473 181.042 237.157 181.042 236.79C181.042 236.403 181.142 236.073 181.342 235.8C181.548 235.52 181.835 235.307 182.202 235.16C182.568 235.013 182.998 234.94 183.492 234.94C183.985 234.94 184.415 235.013 184.782 235.16C185.155 235.307 185.445 235.52 185.652 235.8C185.858 236.073 185.962 236.403 185.962 236.79C185.962 237.157 185.865 237.473 185.672 237.74C185.478 238 185.195 238.2 184.822 238.34C184.455 238.48 184.012 238.55 183.492 238.55Z" fill="#2A292A"/>
<g clip-path="url(#clip2_3001_23718)">
<rect x="201" y="305" width="16" height="2" rx="1" fill="#2A292A"/>
</g>
<g clip-path="url(#clip3_3001_23718)">
<rect x="224" y="305" width="16" height="2" rx="1" fill="#DFDFDF"/>
</g>
<rect x="247" y="287" width="16" height="20" rx="3" fill="#C4A587"/>
<path d="M252.548 302V301.49L255.458 298.64C255.725 298.38 255.925 298.153 256.058 297.96C256.192 297.76 256.282 297.573 256.328 297.4C256.375 297.227 256.398 297.063 256.398 296.91C256.398 296.503 256.258 296.183 255.978 295.95C255.705 295.717 255.298 295.6 254.758 295.6C254.345 295.6 253.978 295.663 253.658 295.79C253.345 295.917 253.075 296.113 252.848 296.38L252.338 295.94C252.612 295.62 252.962 295.373 253.388 295.2C253.815 295.027 254.292 294.94 254.818 294.94C255.292 294.94 255.702 295.017 256.048 295.17C256.395 295.317 256.662 295.533 256.848 295.82C257.042 296.107 257.138 296.443 257.138 296.83C257.138 297.057 257.105 297.28 257.038 297.5C256.978 297.72 256.865 297.953 256.698 298.2C256.538 298.44 256.302 298.713 255.988 299.02L253.318 301.64L253.118 301.36H257.458V302H252.548Z" fill="#2A292A"/>
<rect x="285" y="237" width="16" height="70" rx="3" fill="#2A292A"/>
<path d="M291.806 252L294.826 245.32L295.046 245.64H290.716L291.086 245.29V246.95H290.376V245H295.516V245.51L292.586 252H291.806Z" fill="white"/>
<rect x="308" y="177" width="16" height="130" rx="3" fill="#DFDFDF"/>
<path d="M313.111 192V185.3L313.431 185.64H311.461V185H313.831V192H313.111ZM317.594 192.06C317.088 192.06 316.608 191.98 316.154 191.82C315.708 191.653 315.348 191.433 315.074 191.16L315.424 190.59C315.651 190.823 315.954 191.017 316.334 191.17C316.721 191.323 317.141 191.4 317.594 191.4C318.174 191.4 318.618 191.273 318.924 191.02C319.238 190.767 319.394 190.427 319.394 190C319.394 189.573 319.241 189.233 318.934 188.98C318.634 188.727 318.158 188.6 317.504 188.6H317.004V188.07L319.164 185.36L319.264 185.64H315.364V185H319.864V185.51L317.704 188.22L317.354 187.99H317.624C318.464 187.99 319.091 188.177 319.504 188.55C319.924 188.923 320.134 189.403 320.134 189.99C320.134 190.383 320.041 190.737 319.854 191.05C319.668 191.363 319.384 191.61 319.004 191.79C318.631 191.97 318.161 192.06 317.594 192.06Z" fill="#2A292A"/>
<rect x="331" y="158" width="16" height="149" rx="3" fill="#C4A587"/>
<path d="M336.101 173V166.3L336.421 166.64H334.451V166H336.821V173H336.101ZM340.705 173.06C340.205 173.06 339.728 172.98 339.275 172.82C338.821 172.653 338.461 172.433 338.195 172.16L338.545 171.59C338.765 171.823 339.065 172.017 339.445 172.17C339.831 172.323 340.248 172.4 340.695 172.4C341.288 172.4 341.738 172.27 342.045 172.01C342.358 171.743 342.515 171.397 342.515 170.97C342.515 170.67 342.441 170.413 342.295 170.2C342.155 169.98 341.915 169.81 341.575 169.69C341.235 169.57 340.768 169.51 340.175 169.51H338.685L339.045 166H342.875V166.64H339.335L339.705 166.29L339.395 169.23L339.025 168.87H340.335C341.041 168.87 341.608 168.957 342.035 169.13C342.461 169.303 342.768 169.547 342.955 169.86C343.148 170.167 343.245 170.527 343.245 170.94C343.245 171.333 343.151 171.693 342.965 172.02C342.778 172.34 342.498 172.593 342.125 172.78C341.751 172.967 341.278 173.06 340.705 173.06Z" fill="#2A292A"/>
<g clip-path="url(#clip4_3001_23718)">
<rect x="357" y="305" width="16" height="2" rx="1" fill="#2A292A"/>
</g>
<g clip-path="url(#clip5_3001_23718)">
<rect x="380" y="305" width="16" height="2" rx="1" fill="#DFDFDF"/>
</g>
<rect x="403" y="8" width="16" height="299" rx="3" fill="#C4A587"/>
<path d="M407.977 23.06C407.471 23.06 406.991 22.98 406.537 22.82C406.091 22.6533 405.731 22.4333 405.457 22.16L405.807 21.59C406.034 21.8233 406.337 22.0167 406.717 22.17C407.104 22.3233 407.524 22.4 407.977 22.4C408.557 22.4 409.001 22.2733 409.307 22.02C409.621 21.7667 409.777 21.4267 409.777 21C409.777 20.5733 409.624 20.2333 409.317 19.98C409.017 19.7267 408.541 19.6 407.887 19.6H407.387V19.07L409.547 16.36L409.647 16.64H405.747V16H410.247V16.51L408.087 19.22L407.737 18.99H408.007C408.847 18.99 409.474 19.1767 409.887 19.55C410.307 19.9233 410.517 20.4033 410.517 20.99C410.517 21.3833 410.424 21.7367 410.237 22.05C410.051 22.3633 409.767 22.61 409.387 22.79C409.014 22.97 408.544 23.06 407.977 23.06ZM414.322 23.06C413.782 23.06 413.302 22.92 412.882 22.64C412.462 22.3533 412.132 21.9467 411.892 21.42C411.652 20.8867 411.532 20.2467 411.532 19.5C411.532 18.7533 411.652 18.1167 411.892 17.59C412.132 17.0567 412.462 16.65 412.882 16.37C413.302 16.0833 413.782 15.94 414.322 15.94C414.862 15.94 415.342 16.0833 415.762 16.37C416.182 16.65 416.512 17.0567 416.752 17.59C416.998 18.1167 417.122 18.7533 417.122 19.5C417.122 20.2467 416.998 20.8867 416.752 21.42C416.512 21.9467 416.182 22.3533 415.762 22.64C415.342 22.92 414.862 23.06 414.322 23.06ZM414.322 22.4C414.735 22.4 415.095 22.29 415.402 22.07C415.708 21.8433 415.948 21.5167 416.122 21.09C416.295 20.6567 416.382 20.1267 416.382 19.5C416.382 18.8733 416.295 18.3467 416.122 17.92C415.948 17.4867 415.708 17.16 415.402 16.94C415.095 16.7133 414.735 16.6 414.322 16.6C413.922 16.6 413.565 16.7133 413.252 16.94C412.938 17.16 412.695 17.4867 412.522 17.92C412.348 18.3467 412.262 18.8733 412.262 19.5C412.262 20.1267 412.348 20.6567 412.522 21.09C412.695 21.5167 412.938 21.8433 413.252 22.07C413.565 22.29 413.922 22.4 414.322 22.4Z" fill="#2A292A"/>
<g clip-path="url(#clip6_3001_23718)">
<rect x="429" y="305" width="16" height="2" rx="1" fill="#2A292A"/>
</g>
<g clip-path="url(#clip7_3001_23718)">
<rect x="452" y="305" width="16" height="2" rx="1" fill="#DFDFDF"/>
</g>
<g clip-path="url(#clip8_3001_23718)">
<rect x="475" y="305" width="16" height="2" rx="1" fill="#C4A587"/>
</g>
<path d="M58.3821 322.51L57.5721 322.36C57.8388 322.373 58.0588 322.277 58.2321 322.07C58.4121 321.863 58.5488 321.573 58.6421 321.2C58.7421 320.827 58.8155 320.39 58.8621 319.89C58.9088 319.39 58.9421 318.85 58.9621 318.27L59.0421 316H63.7621V322.65H63.0321V316.64H59.6821L59.6221 318.34C59.6021 318.867 59.5688 319.373 59.5221 319.86C59.4821 320.34 59.4155 320.773 59.3221 321.16C59.2355 321.54 59.1155 321.85 58.9621 322.09C58.8155 322.33 58.6221 322.47 58.3821 322.51ZM57.3121 324.57L57.3221 322.36H64.8121V324.57H64.1221V323H58.0121L58.0021 324.57H57.3121ZM68.1651 323.05C67.6585 323.05 67.2018 322.937 66.7951 322.71C66.3951 322.477 66.0785 322.16 65.8451 321.76C65.6118 321.353 65.4951 320.89 65.4951 320.37C65.4951 319.843 65.6118 319.38 65.8451 318.98C66.0785 318.58 66.3951 318.267 66.7951 318.04C67.1951 317.813 67.6518 317.7 68.1651 317.7C68.6851 317.7 69.1451 317.813 69.5451 318.04C69.9518 318.267 70.2685 318.58 70.4951 318.98C70.7285 319.38 70.8451 319.843 70.8451 320.37C70.8451 320.89 70.7285 321.353 70.4951 321.76C70.2685 322.16 69.9518 322.477 69.5451 322.71C69.1385 322.937 68.6785 323.05 68.1651 323.05ZM68.1651 322.42C68.5451 322.42 68.8818 322.337 69.1751 322.17C69.4685 321.997 69.6985 321.757 69.8651 321.45C70.0385 321.137 70.1251 320.777 70.1251 320.37C70.1251 319.957 70.0385 319.597 69.8651 319.29C69.6985 318.983 69.4685 318.747 69.1751 318.58C68.8818 318.407 68.5485 318.32 68.1751 318.32C67.8018 318.32 67.4685 318.407 67.1751 318.58C66.8818 318.747 66.6485 318.983 66.4751 319.29C66.3018 319.597 66.2151 319.957 66.2151 320.37C66.2151 320.777 66.3018 321.137 66.4751 321.45C66.6485 321.757 66.8818 321.997 67.1751 322.17C67.4685 322.337 67.7985 322.42 68.1651 322.42ZM75.9797 323V318.18L76.1597 318.37H73.9897V317.75H78.6797V318.37H76.5097L76.6897 318.18V323H75.9797ZM81.7121 323.05C81.1655 323.05 80.6855 322.937 80.2721 322.71C79.8588 322.477 79.5355 322.16 79.3021 321.76C79.0688 321.353 78.9521 320.89 78.9521 320.37C78.9521 319.85 79.0621 319.39 79.2821 318.99C79.5088 318.59 79.8155 318.277 80.2021 318.05C80.5955 317.817 81.0355 317.7 81.5221 317.7C82.0155 317.7 82.4521 317.813 82.8321 318.04C83.2188 318.26 83.5221 318.573 83.7421 318.98C83.9621 319.38 84.0721 319.843 84.0721 320.37C84.0721 320.403 84.0688 320.44 84.0621 320.48C84.0621 320.513 84.0621 320.55 84.0621 320.59H79.4921V320.06H83.6821L83.4021 320.27C83.4021 319.89 83.3188 319.553 83.1521 319.26C82.9921 318.96 82.7721 318.727 82.4921 318.56C82.2121 318.393 81.8888 318.31 81.5221 318.31C81.1621 318.31 80.8388 318.393 80.5521 318.56C80.2655 318.727 80.0421 318.96 79.8821 319.26C79.7221 319.56 79.6421 319.903 79.6421 320.29V320.4C79.6421 320.8 79.7288 321.153 79.9021 321.46C80.0821 321.76 80.3288 321.997 80.6421 322.17C80.9621 322.337 81.3255 322.42 81.7321 322.42C82.0521 322.42 82.3488 322.363 82.6221 322.25C82.9021 322.137 83.1421 321.963 83.3421 321.73L83.7421 322.19C83.5088 322.47 83.2155 322.683 82.8621 322.83C82.5155 322.977 82.1321 323.05 81.7121 323.05ZM88.3538 323.05C87.9005 323.05 87.4905 322.947 87.1238 322.74C86.7571 322.527 86.4638 322.223 86.2438 321.83C86.0305 321.43 85.9238 320.943 85.9238 320.37C85.9238 319.797 86.0305 319.313 86.2438 318.92C86.4571 318.52 86.7471 318.217 87.1138 318.01C87.4805 317.803 87.8938 317.7 88.3538 317.7C88.8538 317.7 89.3005 317.813 89.6938 318.04C90.0938 318.26 90.4071 318.573 90.6338 318.98C90.8605 319.38 90.9738 319.843 90.9738 320.37C90.9738 320.903 90.8605 321.37 90.6338 321.77C90.4071 322.17 90.0938 322.483 89.6938 322.71C89.3005 322.937 88.8538 323.05 88.3538 323.05ZM85.6438 324.94V317.75H86.3238V319.33L86.2538 320.38L86.3538 321.44V324.94H85.6438ZM88.3038 322.42C88.6771 322.42 89.0105 322.337 89.3038 322.17C89.5971 321.997 89.8305 321.757 90.0038 321.45C90.1771 321.137 90.2638 320.777 90.2638 320.37C90.2638 319.963 90.1771 319.607 90.0038 319.3C89.8305 318.993 89.5971 318.753 89.3038 318.58C89.0105 318.407 88.6771 318.32 88.3038 318.32C87.9305 318.32 87.5938 318.407 87.2938 318.58C87.0005 318.753 86.7671 318.993 86.5938 319.3C86.4271 319.607 86.3438 319.963 86.3438 320.37C86.3438 320.777 86.4271 321.137 86.5938 321.45C86.7671 321.757 87.0005 321.997 87.2938 322.17C87.5938 322.337 87.9305 322.42 88.3038 322.42ZM95.73 323V321.84L95.7 321.65V319.71C95.7 319.263 95.5733 318.92 95.32 318.68C95.0733 318.44 94.7033 318.32 94.21 318.32C93.87 318.32 93.5466 318.377 93.24 318.49C92.9333 318.603 92.6733 318.753 92.46 318.94L92.14 318.41C92.4066 318.183 92.7266 318.01 93.1 317.89C93.4733 317.763 93.8666 317.7 94.28 317.7C94.96 317.7 95.4833 317.87 95.85 318.21C96.2233 318.543 96.41 319.053 96.41 319.74V323H95.73ZM93.92 323.05C93.5266 323.05 93.1833 322.987 92.89 322.86C92.6033 322.727 92.3833 322.547 92.23 322.32C92.0766 322.087 92 321.82 92 321.52C92 321.247 92.0633 321 92.19 320.78C92.3233 320.553 92.5366 320.373 92.83 320.24C93.13 320.1 93.53 320.03 94.03 320.03H95.84V320.56H94.05C93.5433 320.56 93.19 320.65 92.99 320.83C92.7966 321.01 92.7 321.233 92.7 321.5C92.7 321.8 92.8166 322.04 93.05 322.22C93.2833 322.4 93.61 322.49 94.03 322.49C94.43 322.49 94.7733 322.4 95.06 322.22C95.3533 322.033 95.5666 321.767 95.7 321.42L95.86 321.91C95.7266 322.257 95.4933 322.533 95.16 322.74C94.8333 322.947 94.42 323.05 93.92 323.05ZM98.3 323V317.75H103.02V323H102.31V318.18L102.49 318.37H98.83L99.01 318.18V323H98.3ZM105.038 323V317.75H105.748V321.92L109.258 317.75H109.888V323H109.178V318.82L105.678 323H105.038ZM111.923 323V317.75H112.633V321.92L116.143 317.75H116.773V323H116.063V318.82L112.563 323H111.923Z" fill="#8D8D8D"/>
<path d="M142.359 339V346H141.059V340.09H139.579V339H142.359ZM150.611 341.72H147.761V346H146.511V340.66H150.611V341.72ZM154.281 340.6C154.801 340.6 155.265 340.713 155.671 340.94C156.085 341.167 156.408 341.487 156.641 341.9C156.875 342.313 156.991 342.79 156.991 343.33C156.991 343.87 156.875 344.35 156.641 344.77C156.408 345.183 156.085 345.503 155.671 345.73C155.265 345.957 154.801 346.07 154.281 346.07C153.561 346.07 152.991 345.83 152.571 345.35V347.94H151.321V340.66H152.511V341.36C152.718 341.107 152.971 340.917 153.271 340.79C153.578 340.663 153.915 340.6 154.281 340.6ZM154.141 345C154.601 345 154.978 344.847 155.271 344.54C155.571 344.233 155.721 343.83 155.721 343.33C155.721 342.83 155.571 342.427 155.271 342.12C154.978 341.813 154.601 341.66 154.141 341.66C153.841 341.66 153.571 341.73 153.331 341.87C153.091 342.003 152.901 342.197 152.761 342.45C152.621 342.703 152.551 342.997 152.551 343.33C152.551 343.663 152.621 343.957 152.761 344.21C152.901 344.463 153.091 344.66 153.331 344.8C153.571 344.933 153.841 345 154.141 345ZM162.929 340.66L160.429 346.43C160.195 347.01 159.912 347.417 159.579 347.65C159.245 347.89 158.842 348.01 158.369 348.01C158.102 348.01 157.839 347.967 157.579 347.88C157.319 347.793 157.105 347.673 156.939 347.52L157.439 346.6C157.559 346.713 157.699 346.803 157.859 346.87C158.025 346.937 158.192 346.97 158.359 346.97C158.579 346.97 158.759 346.913 158.899 346.8C159.045 346.687 159.179 346.497 159.299 346.23L159.389 346.02L157.059 340.66H158.359L160.039 344.61L161.729 340.66H162.929ZM168.717 340.66V346H167.477V341.72H164.847V346H163.597V340.66H168.717ZM175.324 340.66V346H174.084V341.72H171.454V346H170.204V340.66H175.324ZM178.8 340.6C179.587 340.6 180.187 340.79 180.6 341.17C181.02 341.543 181.23 342.11 181.23 342.87V346H180.05V345.35C179.897 345.583 179.677 345.763 179.39 345.89C179.11 346.01 178.77 346.07 178.37 346.07C177.97 346.07 177.62 346.003 177.32 345.87C177.02 345.73 176.787 345.54 176.62 345.3C176.46 345.053 176.38 344.777 176.38 344.47C176.38 343.99 176.557 343.607 176.91 343.32C177.27 343.027 177.834 342.88 178.6 342.88H179.98V342.8C179.98 342.427 179.867 342.14 179.64 341.94C179.42 341.74 179.09 341.64 178.65 341.64C178.35 341.64 178.054 341.687 177.76 341.78C177.474 341.873 177.23 342.003 177.03 342.17L176.54 341.26C176.82 341.047 177.157 340.883 177.55 340.77C177.944 340.657 178.36 340.6 178.8 340.6ZM178.63 345.16C178.944 345.16 179.22 345.09 179.46 344.95C179.707 344.803 179.88 344.597 179.98 344.33V343.71H178.69C177.97 343.71 177.61 343.947 177.61 344.42C177.61 344.647 177.7 344.827 177.88 344.96C178.06 345.093 178.31 345.16 178.63 345.16ZM158.77 356L158.76 351.36L156.46 355.2H155.88L153.58 351.42V356H152.35V349H153.42L156.19 353.63L158.93 349H159.99L160.01 356H158.77ZM166.519 350.1H163.049L163.059 356H161.779V349H166.529L166.519 350.1ZM172.499 350.1H170.179V356H168.889V350.1H166.579V349H172.499V350.1Z" fill="#424242"/>
<path d="M138.843 323.06C138.337 323.06 137.857 322.98 137.403 322.82C136.957 322.653 136.597 322.433 136.323 322.16L136.673 321.59C136.9 321.823 137.203 322.017 137.583 322.17C137.97 322.323 138.39 322.4 138.843 322.4C139.423 322.4 139.867 322.273 140.173 322.02C140.487 321.767 140.643 321.427 140.643 321C140.643 320.573 140.49 320.233 140.183 319.98C139.883 319.727 139.407 319.6 138.753 319.6H138.253V319.07L140.413 316.36L140.513 316.64H136.613V316H141.113V316.51L138.953 319.22L138.603 318.99H138.873C139.713 318.99 140.34 319.177 140.753 319.55C141.173 319.923 141.383 320.403 141.383 320.99C141.383 321.383 141.29 321.737 141.103 322.05C140.917 322.363 140.633 322.61 140.253 322.79C139.88 322.97 139.41 323.06 138.843 323.06ZM145.505 323V317.75H146.225L148.605 321.78H148.305L150.725 317.75H151.385V323H150.735V318.56L150.865 318.62L148.605 322.36H148.285L146.005 318.58L146.155 318.55V323H145.505ZM155.656 323.05C155.109 323.05 154.629 322.937 154.216 322.71C153.802 322.477 153.479 322.16 153.246 321.76C153.012 321.353 152.896 320.89 152.896 320.37C152.896 319.85 153.006 319.39 153.226 318.99C153.452 318.59 153.759 318.277 154.146 318.05C154.539 317.817 154.979 317.7 155.466 317.7C155.959 317.7 156.396 317.813 156.776 318.04C157.162 318.26 157.466 318.573 157.686 318.98C157.906 319.38 158.016 319.843 158.016 320.37C158.016 320.403 158.012 320.44 158.006 320.48C158.006 320.513 158.006 320.55 158.006 320.59H153.436V320.06H157.626L157.346 320.27C157.346 319.89 157.262 319.553 157.096 319.26C156.936 318.96 156.716 318.727 156.436 318.56C156.156 318.393 155.832 318.31 155.466 318.31C155.106 318.31 154.782 318.393 154.496 318.56C154.209 318.727 153.986 318.96 153.826 319.26C153.666 319.56 153.586 319.903 153.586 320.29V320.4C153.586 320.8 153.672 321.153 153.846 321.46C154.026 321.76 154.272 321.997 154.586 322.17C154.906 322.337 155.269 322.42 155.676 322.42C155.996 322.42 156.292 322.363 156.566 322.25C156.846 322.137 157.086 321.963 157.286 321.73L157.686 322.19C157.452 322.47 157.159 322.683 156.806 322.83C156.459 322.977 156.076 323.05 155.656 323.05ZM161.787 323.05C161.267 323.05 160.8 322.937 160.387 322.71C159.98 322.477 159.66 322.16 159.427 321.76C159.194 321.353 159.077 320.89 159.077 320.37C159.077 319.843 159.194 319.38 159.427 318.98C159.66 318.58 159.98 318.267 160.387 318.04C160.8 317.813 161.267 317.7 161.787 317.7C162.234 317.7 162.637 317.787 162.997 317.96C163.357 318.133 163.64 318.393 163.847 318.74L163.317 319.1C163.137 318.833 162.914 318.637 162.647 318.51C162.38 318.383 162.09 318.32 161.777 318.32C161.404 318.32 161.067 318.407 160.767 318.58C160.467 318.747 160.23 318.983 160.057 319.29C159.884 319.597 159.797 319.957 159.797 320.37C159.797 320.783 159.884 321.143 160.057 321.45C160.23 321.757 160.467 321.997 160.767 322.17C161.067 322.337 161.404 322.42 161.777 322.42C162.09 322.42 162.38 322.357 162.647 322.23C162.914 322.103 163.137 321.91 163.317 321.65L163.847 322.01C163.64 322.35 163.357 322.61 162.997 322.79C162.637 322.963 162.234 323.05 161.787 323.05ZM168.436 323V321.11L168.566 321.26H166.786C166.113 321.26 165.586 321.113 165.206 320.82C164.826 320.527 164.636 320.1 164.636 319.54C164.636 318.94 164.839 318.493 165.246 318.2C165.653 317.9 166.196 317.75 166.876 317.75H169.086V323H168.436ZM164.596 323L166.036 320.98H166.776L165.366 323H164.596ZM168.436 320.9V318.16L168.566 318.37H166.896C166.409 318.37 166.029 318.463 165.756 318.65C165.489 318.837 165.356 319.14 165.356 319.56C165.356 320.34 165.853 320.73 166.846 320.73H168.566L168.436 320.9ZM171.111 323V317.75H171.821V322.38H175.031V317.75H175.741V323H171.111ZM175.921 324.27V322.94L176.101 323H175.031V322.38H176.591V324.27H175.921ZM181.207 323V321.84L181.177 321.65V319.71C181.177 319.263 181.05 318.92 180.797 318.68C180.55 318.44 180.18 318.32 179.687 318.32C179.347 318.32 179.023 318.377 178.717 318.49C178.41 318.603 178.15 318.753 177.937 318.94L177.617 318.41C177.883 318.183 178.203 318.01 178.577 317.89C178.95 317.763 179.343 317.7 179.757 317.7C180.437 317.7 180.96 317.87 181.327 318.21C181.7 318.543 181.887 319.053 181.887 319.74V323H181.207ZM179.397 323.05C179.003 323.05 178.66 322.987 178.367 322.86C178.08 322.727 177.86 322.547 177.707 322.32C177.553 322.087 177.477 321.82 177.477 321.52C177.477 321.247 177.54 321 177.667 320.78C177.8 320.553 178.013 320.373 178.307 320.24C178.607 320.1 179.007 320.03 179.507 320.03H181.317V320.56H179.527C179.02 320.56 178.667 320.65 178.467 320.83C178.273 321.01 178.177 321.233 178.177 321.5C178.177 321.8 178.293 322.04 178.527 322.22C178.76 322.4 179.087 322.49 179.507 322.49C179.907 322.49 180.25 322.4 180.537 322.22C180.83 322.033 181.043 321.767 181.177 321.42L181.337 321.91C181.203 322.257 180.97 322.533 180.637 322.74C180.31 322.947 179.897 323.05 179.397 323.05Z" fill="#8D8D8D"/>
<path d="M210.681 323.06C210.061 323.06 209.538 322.923 209.111 322.65C208.684 322.37 208.361 321.97 208.141 321.45C207.921 320.923 207.811 320.293 207.811 319.56C207.811 318.767 207.944 318.103 208.211 317.57C208.484 317.03 208.861 316.623 209.341 316.35C209.821 316.077 210.378 315.94 211.011 315.94C211.324 315.94 211.624 315.97 211.911 316.03C212.198 316.09 212.451 316.187 212.671 316.32L212.381 316.9C212.201 316.78 211.994 316.697 211.761 316.65C211.528 316.597 211.281 316.57 211.021 316.57C210.268 316.57 209.664 316.81 209.211 317.29C208.764 317.77 208.541 318.487 208.541 319.44C208.541 319.587 208.548 319.77 208.561 319.99C208.581 320.203 208.621 320.417 208.681 320.63L208.431 320.44C208.504 320.093 208.648 319.8 208.861 319.56C209.074 319.313 209.341 319.127 209.661 319C209.981 318.873 210.331 318.81 210.711 318.81C211.178 318.81 211.588 318.897 211.941 319.07C212.294 319.243 212.571 319.487 212.771 319.8C212.971 320.113 213.071 320.483 213.071 320.91C213.071 321.343 212.968 321.723 212.761 322.05C212.554 322.37 212.268 322.62 211.901 322.8C211.541 322.973 211.134 323.06 210.681 323.06ZM210.651 322.45C210.984 322.45 211.278 322.39 211.531 322.27C211.791 322.143 211.994 321.967 212.141 321.74C212.288 321.507 212.361 321.237 212.361 320.93C212.361 320.47 212.201 320.103 211.881 319.83C211.568 319.557 211.141 319.42 210.601 319.42C210.241 319.42 209.928 319.487 209.661 319.62C209.394 319.753 209.184 319.937 209.031 320.17C208.878 320.397 208.801 320.657 208.801 320.95C208.801 321.203 208.871 321.447 209.011 321.68C209.151 321.907 209.358 322.093 209.631 322.24C209.911 322.38 210.251 322.45 210.651 322.45ZM217.012 323V317.75H217.732L220.112 321.78H219.812L222.232 317.75H222.892V323H222.242V318.56L222.372 318.62L220.112 322.36H219.792L217.512 318.58L217.662 318.55V323H217.012ZM227.162 323.05C226.616 323.05 226.136 322.937 225.722 322.71C225.309 322.477 224.986 322.16 224.752 321.76C224.519 321.353 224.402 320.89 224.402 320.37C224.402 319.85 224.512 319.39 224.732 318.99C224.959 318.59 225.266 318.277 225.652 318.05C226.046 317.817 226.486 317.7 226.972 317.7C227.466 317.7 227.902 317.813 228.282 318.04C228.669 318.26 228.972 318.573 229.192 318.98C229.412 319.38 229.522 319.843 229.522 320.37C229.522 320.403 229.519 320.44 229.512 320.48C229.512 320.513 229.512 320.55 229.512 320.59H224.942V320.06H229.132L228.852 320.27C228.852 319.89 228.769 319.553 228.602 319.26C228.442 318.96 228.222 318.727 227.942 318.56C227.662 318.393 227.339 318.31 226.972 318.31C226.612 318.31 226.289 318.393 226.002 318.56C225.716 318.727 225.492 318.96 225.332 319.26C225.172 319.56 225.092 319.903 225.092 320.29V320.4C225.092 320.8 225.179 321.153 225.352 321.46C225.532 321.76 225.779 321.997 226.092 322.17C226.412 322.337 226.776 322.42 227.182 322.42C227.502 322.42 227.799 322.363 228.072 322.25C228.352 322.137 228.592 321.963 228.792 321.73L229.192 322.19C228.959 322.47 228.666 322.683 228.312 322.83C227.966 322.977 227.582 323.05 227.162 323.05ZM233.294 323.05C232.774 323.05 232.307 322.937 231.894 322.71C231.487 322.477 231.167 322.16 230.934 321.76C230.701 321.353 230.584 320.89 230.584 320.37C230.584 319.843 230.701 319.38 230.934 318.98C231.167 318.58 231.487 318.267 231.894 318.04C232.307 317.813 232.774 317.7 233.294 317.7C233.741 317.7 234.144 317.787 234.504 317.96C234.864 318.133 235.147 318.393 235.354 318.74L234.824 319.1C234.644 318.833 234.421 318.637 234.154 318.51C233.887 318.383 233.597 318.32 233.284 318.32C232.911 318.32 232.574 318.407 232.274 318.58C231.974 318.747 231.737 318.983 231.564 319.29C231.391 319.597 231.304 319.957 231.304 320.37C231.304 320.783 231.391 321.143 231.564 321.45C231.737 321.757 231.974 321.997 232.274 322.17C232.574 322.337 232.911 322.42 233.284 322.42C233.597 322.42 233.887 322.357 234.154 322.23C234.421 322.103 234.644 321.91 234.824 321.65L235.354 322.01C235.147 322.35 234.864 322.61 234.504 322.79C234.144 322.963 233.741 323.05 233.294 323.05ZM239.943 323V321.11L240.073 321.26H238.293C237.62 321.26 237.093 321.113 236.713 320.82C236.333 320.527 236.143 320.1 236.143 319.54C236.143 318.94 236.346 318.493 236.753 318.2C237.16 317.9 237.703 317.75 238.383 317.75H240.593V323H239.943ZM236.103 323L237.543 320.98H238.283L236.873 323H236.103ZM239.943 320.9V318.16L240.073 318.37H238.403C237.916 318.37 237.536 318.463 237.263 318.65C236.996 318.837 236.863 319.14 236.863 319.56C236.863 320.34 237.36 320.73 238.353 320.73H240.073L239.943 320.9ZM242.617 323V317.75H243.327V322.38H246.537V317.75H247.247V323H242.617ZM247.427 324.27V322.94L247.607 323H246.537V322.38H248.097V324.27H247.427ZM251.703 323.05C251.157 323.05 250.677 322.937 250.263 322.71C249.85 322.477 249.527 322.16 249.293 321.76C249.06 321.353 248.943 320.89 248.943 320.37C248.943 319.85 249.053 319.39 249.273 318.99C249.5 318.59 249.807 318.277 250.193 318.05C250.587 317.817 251.027 317.7 251.513 317.7C252.007 317.7 252.443 317.813 252.823 318.04C253.21 318.26 253.513 318.573 253.733 318.98C253.953 319.38 254.063 319.843 254.063 320.37C254.063 320.403 254.06 320.44 254.053 320.48C254.053 320.513 254.053 320.55 254.053 320.59H249.483V320.06H253.673L253.393 320.27C253.393 319.89 253.31 319.553 253.143 319.26C252.983 318.96 252.763 318.727 252.483 318.56C252.203 318.393 251.88 318.31 251.513 318.31C251.153 318.31 250.83 318.393 250.543 318.56C250.257 318.727 250.033 318.96 249.873 319.26C249.713 319.56 249.633 319.903 249.633 320.29V320.4C249.633 320.8 249.72 321.153 249.893 321.46C250.073 321.76 250.32 321.997 250.633 322.17C250.953 322.337 251.317 322.42 251.723 322.42C252.043 322.42 252.34 322.363 252.613 322.25C252.893 322.137 253.133 321.963 253.333 321.73L253.733 322.19C253.5 322.47 253.207 322.683 252.853 322.83C252.507 322.977 252.123 323.05 251.703 323.05ZM255.635 323V317.75H257.955C258.548 317.75 259.015 317.863 259.355 318.09C259.702 318.317 259.875 318.65 259.875 319.09C259.875 319.517 259.712 319.847 259.385 320.08C259.058 320.307 258.628 320.42 258.095 320.42L258.235 320.21C258.862 320.21 259.322 320.327 259.615 320.56C259.908 320.793 260.055 321.13 260.055 321.57C260.055 322.023 259.888 322.377 259.555 322.63C259.228 322.877 258.718 323 258.025 323H255.635ZM256.325 322.44H257.995C258.442 322.44 258.778 322.37 259.005 322.23C259.238 322.083 259.355 321.85 259.355 321.53C259.355 321.21 259.252 320.977 259.045 320.83C258.838 320.683 258.512 320.61 258.065 320.61H256.325V322.44ZM256.325 320.08H257.905C258.312 320.08 258.622 320.003 258.835 319.85C259.055 319.697 259.165 319.473 259.165 319.18C259.165 318.887 259.055 318.667 258.835 318.52C258.622 318.373 258.312 318.3 257.905 318.3H256.325V320.08Z" fill="#8D8D8D"/>
<path d="M288.382 322.51L287.572 322.36C287.839 322.373 288.059 322.277 288.232 322.07C288.412 321.863 288.549 321.573 288.642 321.2C288.742 320.827 288.815 320.39 288.862 319.89C288.909 319.39 288.942 318.85 288.962 318.27L289.042 316H293.762V322.65H293.032V316.64H289.682L289.622 318.34C289.602 318.867 289.569 319.373 289.522 319.86C289.482 320.34 289.415 320.773 289.322 321.16C289.235 321.54 289.115 321.85 288.962 322.09C288.815 322.33 288.622 322.47 288.382 322.51ZM287.312 324.57L287.322 322.36H294.812V324.57H294.122V323H288.012L288.002 324.57H287.312ZM298.165 323.05C297.658 323.05 297.202 322.937 296.795 322.71C296.395 322.477 296.078 322.16 295.845 321.76C295.612 321.353 295.495 320.89 295.495 320.37C295.495 319.843 295.612 319.38 295.845 318.98C296.078 318.58 296.395 318.267 296.795 318.04C297.195 317.813 297.652 317.7 298.165 317.7C298.685 317.7 299.145 317.813 299.545 318.04C299.952 318.267 300.268 318.58 300.495 318.98C300.728 319.38 300.845 319.843 300.845 320.37C300.845 320.89 300.728 321.353 300.495 321.76C300.268 322.16 299.952 322.477 299.545 322.71C299.138 322.937 298.678 323.05 298.165 323.05ZM298.165 322.42C298.545 322.42 298.882 322.337 299.175 322.17C299.468 321.997 299.698 321.757 299.865 321.45C300.038 321.137 300.125 320.777 300.125 320.37C300.125 319.957 300.038 319.597 299.865 319.29C299.698 318.983 299.468 318.747 299.175 318.58C298.882 318.407 298.548 318.32 298.175 318.32C297.802 318.32 297.468 318.407 297.175 318.58C296.882 318.747 296.648 318.983 296.475 319.29C296.302 319.597 296.215 319.957 296.215 320.37C296.215 320.777 296.302 321.137 296.475 321.45C296.648 321.757 296.882 321.997 297.175 322.17C297.468 322.337 297.798 322.42 298.165 322.42ZM305.98 323V318.18L306.16 318.37H303.99V317.75H308.68V318.37H306.51L306.69 318.18V323H305.98ZM311.712 323.05C311.165 323.05 310.685 322.937 310.272 322.71C309.859 322.477 309.535 322.16 309.302 321.76C309.069 321.353 308.952 320.89 308.952 320.37C308.952 319.85 309.062 319.39 309.282 318.99C309.509 318.59 309.815 318.277 310.202 318.05C310.595 317.817 311.035 317.7 311.522 317.7C312.015 317.7 312.452 317.813 312.832 318.04C313.219 318.26 313.522 318.573 313.742 318.98C313.962 319.38 314.072 319.843 314.072 320.37C314.072 320.403 314.069 320.44 314.062 320.48C314.062 320.513 314.062 320.55 314.062 320.59H309.492V320.06H313.682L313.402 320.27C313.402 319.89 313.319 319.553 313.152 319.26C312.992 318.96 312.772 318.727 312.492 318.56C312.212 318.393 311.889 318.31 311.522 318.31C311.162 318.31 310.839 318.393 310.552 318.56C310.265 318.727 310.042 318.96 309.882 319.26C309.722 319.56 309.642 319.903 309.642 320.29V320.4C309.642 320.8 309.729 321.153 309.902 321.46C310.082 321.76 310.329 321.997 310.642 322.17C310.962 322.337 311.325 322.42 311.732 322.42C312.052 322.42 312.349 322.363 312.622 322.25C312.902 322.137 313.142 321.963 313.342 321.73L313.742 322.19C313.509 322.47 313.215 322.683 312.862 322.83C312.515 322.977 312.132 323.05 311.712 323.05ZM318.354 323.05C317.9 323.05 317.49 322.947 317.124 322.74C316.757 322.527 316.464 322.223 316.244 321.83C316.03 321.43 315.924 320.943 315.924 320.37C315.924 319.797 316.03 319.313 316.244 318.92C316.457 318.52 316.747 318.217 317.114 318.01C317.48 317.803 317.894 317.7 318.354 317.7C318.854 317.7 319.3 317.813 319.694 318.04C320.094 318.26 320.407 318.573 320.634 318.98C320.86 319.38 320.974 319.843 320.974 320.37C320.974 320.903 320.86 321.37 320.634 321.77C320.407 322.17 320.094 322.483 319.694 322.71C319.3 322.937 318.854 323.05 318.354 323.05ZM315.644 324.94V317.75H316.324V319.33L316.254 320.38L316.354 321.44V324.94H315.644ZM318.304 322.42C318.677 322.42 319.01 322.337 319.304 322.17C319.597 321.997 319.83 321.757 320.004 321.45C320.177 321.137 320.264 320.777 320.264 320.37C320.264 319.963 320.177 319.607 320.004 319.3C319.83 318.993 319.597 318.753 319.304 318.58C319.01 318.407 318.677 318.32 318.304 318.32C317.93 318.32 317.594 318.407 317.294 318.58C317 318.753 316.767 318.993 316.594 319.3C316.427 319.607 316.344 319.963 316.344 320.37C316.344 320.777 316.427 321.137 316.594 321.45C316.767 321.757 317 321.997 317.294 322.17C317.594 322.337 317.93 322.42 318.304 322.42ZM325.73 323V321.84L325.7 321.65V319.71C325.7 319.263 325.573 318.92 325.32 318.68C325.073 318.44 324.703 318.32 324.21 318.32C323.87 318.32 323.547 318.377 323.24 318.49C322.933 318.603 322.673 318.753 322.46 318.94L322.14 318.41C322.407 318.183 322.727 318.01 323.1 317.89C323.473 317.763 323.867 317.7 324.28 317.7C324.96 317.7 325.483 317.87 325.85 318.21C326.223 318.543 326.41 319.053 326.41 319.74V323H325.73ZM323.92 323.05C323.527 323.05 323.183 322.987 322.89 322.86C322.603 322.727 322.383 322.547 322.23 322.32C322.077 322.087 322 321.82 322 321.52C322 321.247 322.063 321 322.19 320.78C322.323 320.553 322.537 320.373 322.83 320.24C323.13 320.1 323.53 320.03 324.03 320.03H325.84V320.56H324.05C323.543 320.56 323.19 320.65 322.99 320.83C322.797 321.01 322.7 321.233 322.7 321.5C322.7 321.8 322.817 322.04 323.05 322.22C323.283 322.4 323.61 322.49 324.03 322.49C324.43 322.49 324.773 322.4 325.06 322.22C325.353 322.033 325.567 321.767 325.7 321.42L325.86 321.91C325.727 322.257 325.493 322.533 325.16 322.74C324.833 322.947 324.42 323.05 323.92 323.05ZM328.3 323V317.75H333.02V323H332.31V318.18L332.49 318.37H328.83L329.01 318.18V323H328.3ZM335.038 323V317.75H335.748V321.92L339.258 317.75H339.888V323H339.178V318.82L335.678 323H335.038ZM341.923 323V317.75H342.633V321.92L346.143 317.75H346.773V323H346.063V318.82L342.563 323H341.923Z" fill="#8D8D8D"/>
<path d="M375.285 344.9V346H370.125V345.13L372.905 342.49C373.219 342.19 373.429 341.93 373.535 341.71C373.649 341.483 373.705 341.26 373.705 341.04C373.705 340.713 373.595 340.463 373.375 340.29C373.155 340.117 372.832 340.03 372.405 340.03C371.692 340.03 371.145 340.273 370.765 340.76L369.855 340.06C370.129 339.693 370.495 339.41 370.955 339.21C371.422 339.003 371.942 338.9 372.515 338.9C373.275 338.9 373.882 339.08 374.335 339.44C374.789 339.8 375.015 340.29 375.015 340.91C375.015 341.29 374.935 341.647 374.775 341.98C374.615 342.313 374.309 342.693 373.855 343.12L371.985 344.9H375.285ZM382.899 341.72H380.049V346H378.799V340.66H382.899V341.72ZM386.569 340.6C387.089 340.6 387.552 340.713 387.959 340.94C388.372 341.167 388.696 341.487 388.929 341.9C389.162 342.313 389.279 342.79 389.279 343.33C389.279 343.87 389.162 344.35 388.929 344.77C388.696 345.183 388.372 345.503 387.959 345.73C387.552 345.957 387.089 346.07 386.569 346.07C385.849 346.07 385.279 345.83 384.859 345.35V347.94H383.609V340.66H384.799V341.36C385.006 341.107 385.259 340.917 385.559 340.79C385.866 340.663 386.202 340.6 386.569 340.6ZM386.429 345C386.889 345 387.266 344.847 387.559 344.54C387.859 344.233 388.009 343.83 388.009 343.33C388.009 342.83 387.859 342.427 387.559 342.12C387.266 341.813 386.889 341.66 386.429 341.66C386.129 341.66 385.859 341.73 385.619 341.87C385.379 342.003 385.189 342.197 385.049 342.45C384.909 342.703 384.839 342.997 384.839 343.33C384.839 343.663 384.909 343.957 385.049 344.21C385.189 344.463 385.379 344.66 385.619 344.8C385.859 344.933 386.129 345 386.429 345ZM395.217 340.66L392.717 346.43C392.483 347.01 392.2 347.417 391.867 347.65C391.533 347.89 391.13 348.01 390.657 348.01C390.39 348.01 390.127 347.967 389.867 347.88C389.607 347.793 389.393 347.673 389.227 347.52L389.727 346.6C389.847 346.713 389.987 346.803 390.147 346.87C390.313 346.937 390.48 346.97 390.647 346.97C390.867 346.97 391.047 346.913 391.187 346.8C391.333 346.687 391.467 346.497 391.587 346.23L391.677 346.02L389.347 340.66H390.647L392.327 344.61L394.017 340.66H395.217ZM401.005 340.66V346H399.765V341.72H397.135V346H395.885V340.66H401.005ZM407.611 340.66V346H406.371V341.72H403.741V346H402.491V340.66H407.611ZM411.088 340.6C411.875 340.6 412.475 340.79 412.888 341.17C413.308 341.543 413.518 342.11 413.518 342.87V346H412.338V345.35C412.185 345.583 411.965 345.763 411.678 345.89C411.398 346.01 411.058 346.07 410.658 346.07C410.258 346.07 409.908 346.003 409.608 345.87C409.308 345.73 409.075 345.54 408.908 345.3C408.748 345.053 408.668 344.777 408.668 344.47C408.668 343.99 408.845 343.607 409.198 343.32C409.558 343.027 410.121 342.88 410.888 342.88H412.268V342.8C412.268 342.427 412.155 342.14 411.928 341.94C411.708 341.74 411.378 341.64 410.938 341.64C410.638 341.64 410.341 341.687 410.048 341.78C409.761 341.873 409.518 342.003 409.318 342.17L408.828 341.26C409.108 341.047 409.445 340.883 409.838 340.77C410.231 340.657 410.648 340.6 411.088 340.6ZM410.918 345.16C411.231 345.16 411.508 345.09 411.748 344.95C411.995 344.803 412.168 344.597 412.268 344.33V343.71H410.978C410.258 343.71 409.898 343.947 409.898 344.42C409.898 344.647 409.988 344.827 410.168 344.96C410.348 345.093 410.598 345.16 410.918 345.16ZM354.632 356L354.622 351.36L352.322 355.2H351.742L349.442 351.42V356H348.212V349H349.282L352.052 353.63L354.792 349H355.852L355.872 356H354.632ZM362.381 350.1H358.911L358.921 356H357.641V349H362.391L362.381 350.1ZM368.36 350.1H366.04V356H364.75V350.1H362.44V349H368.36V350.1ZM373.21 353H371.44V354.75H370.37V353H368.6V352H370.37V350.25H371.44V352H373.21V353ZM382.677 352.49C382.677 353.41 382.357 354.137 381.717 354.67C381.077 355.203 380.167 355.493 378.987 355.54V356.28H377.787V355.54C376.607 355.48 375.694 355.187 375.047 354.66C374.407 354.133 374.087 353.41 374.087 352.49C374.087 351.57 374.407 350.847 375.047 350.32C375.694 349.787 376.607 349.49 377.787 349.43V348.72H378.987V349.43C380.167 349.49 381.077 349.787 381.717 350.32C382.357 350.847 382.677 351.57 382.677 352.49ZM378.987 354.52C379.787 354.46 380.394 354.26 380.807 353.92C381.221 353.573 381.427 353.093 381.427 352.48C381.427 351.867 381.217 351.39 380.797 351.05C380.384 350.71 379.781 350.513 378.987 350.46V354.52ZM375.357 352.49C375.357 353.097 375.564 353.57 375.977 353.91C376.397 354.25 377.001 354.453 377.787 354.52V350.46C376.167 350.58 375.357 351.257 375.357 352.49ZM385.692 350.6C386.479 350.6 387.079 350.79 387.492 351.17C387.912 351.543 388.122 352.11 388.122 352.87V356H386.942V355.35C386.789 355.583 386.569 355.763 386.282 355.89C386.002 356.01 385.662 356.07 385.262 356.07C384.862 356.07 384.512 356.003 384.212 355.87C383.912 355.73 383.679 355.54 383.512 355.3C383.352 355.053 383.272 354.777 383.272 354.47C383.272 353.99 383.449 353.607 383.802 353.32C384.162 353.027 384.726 352.88 385.492 352.88H386.872V352.8C386.872 352.427 386.759 352.14 386.532 351.94C386.312 351.74 385.982 351.64 385.542 351.64C385.242 351.64 384.946 351.687 384.652 351.78C384.366 351.873 384.122 352.003 383.922 352.17L383.432 351.26C383.712 351.047 384.049 350.883 384.442 350.77C384.836 350.657 385.252 350.6 385.692 350.6ZM385.522 355.16C385.836 355.16 386.112 355.09 386.352 354.95C386.599 354.803 386.772 354.597 386.872 354.33V353.71H385.582C384.862 353.71 384.502 353.947 384.502 354.42C384.502 354.647 384.592 354.827 384.772 354.96C384.952 355.093 385.202 355.16 385.522 355.16ZM394.719 356V352.46L392.919 355.44H392.379L390.609 352.45V356H389.469V350.66H390.779L392.679 354L394.669 350.66H395.839L395.849 356H394.719ZM401.196 353.22C401.856 353.42 402.186 353.847 402.186 354.5C402.186 354.98 402.006 355.35 401.646 355.61C401.286 355.87 400.753 356 400.046 356H397.326V350.66H399.936C400.589 350.66 401.099 350.78 401.466 351.02C401.833 351.26 402.016 351.6 402.016 352.04C402.016 352.313 401.943 352.55 401.796 352.75C401.656 352.95 401.456 353.107 401.196 353.22ZM398.516 352.89H399.826C400.473 352.89 400.796 352.667 400.796 352.22C400.796 351.787 400.473 351.57 399.826 351.57H398.516V352.89ZM399.946 355.09C400.633 355.09 400.976 354.867 400.976 354.42C400.976 354.187 400.896 354.013 400.736 353.9C400.576 353.78 400.326 353.72 399.986 353.72H398.516V355.09H399.946ZM403.317 350.66H404.567V354.18L407.517 350.66H408.657V356H407.407V352.48L404.467 356H403.317V350.66ZM414.369 351.72H412.499V356H411.249V351.72H409.369V350.66H414.369V351.72ZM417.066 350.6C417.852 350.6 418.452 350.79 418.866 351.17C419.286 351.543 419.496 352.11 419.496 352.87V356H418.316V355.35C418.162 355.583 417.942 355.763 417.656 355.89C417.376 356.01 417.036 356.07 416.636 356.07C416.236 356.07 415.886 356.003 415.586 355.87C415.286 355.73 415.052 355.54 414.886 355.3C414.726 355.053 414.646 354.777 414.646 354.47C414.646 353.99 414.822 353.607 415.176 353.32C415.536 353.027 416.099 352.88 416.866 352.88H418.246V352.8C418.246 352.427 418.132 352.14 417.906 351.94C417.686 351.74 417.356 351.64 416.916 351.64C416.616 351.64 416.319 351.687 416.026 351.78C415.739 351.873 415.496 352.003 415.296 352.17L414.806 351.26C415.086 351.047 415.422 350.883 415.816 350.77C416.209 350.657 416.626 350.6 417.066 350.6ZM416.896 355.16C417.209 355.16 417.486 355.09 417.726 354.95C417.972 354.803 418.146 354.597 418.246 354.33V353.71H416.956C416.236 353.71 415.876 353.947 415.876 354.42C415.876 354.647 415.966 354.827 416.146 354.96C416.326 355.093 416.576 355.16 416.896 355.16ZM425.682 350.66V356H424.432V351.72H422.432L422.382 352.78C422.349 353.487 422.282 354.08 422.182 354.56C422.089 355.033 421.926 355.41 421.692 355.69C421.466 355.963 421.152 356.1 420.752 356.1C420.566 356.1 420.336 356.063 420.062 355.99L420.122 354.94C420.216 354.96 420.296 354.97 420.362 354.97C420.616 354.97 420.806 354.87 420.932 354.67C421.059 354.463 421.139 354.22 421.172 353.94C421.212 353.653 421.246 353.247 421.272 352.72L421.362 350.66H425.682ZM429.846 352.42C430.526 352.42 431.046 352.573 431.406 352.88C431.772 353.187 431.956 353.62 431.956 354.18C431.956 354.767 431.756 355.22 431.356 355.54C430.956 355.86 430.392 356.017 429.666 356.01L427.166 356V350.66H428.416V352.41L429.846 352.42ZM429.556 355.09C429.922 355.097 430.202 355.02 430.396 354.86C430.589 354.7 430.686 354.467 430.686 354.16C430.686 353.86 430.592 353.64 430.406 353.5C430.219 353.36 429.936 353.287 429.556 353.28L428.416 353.27V355.08L429.556 355.09ZM434.402 347.782C434.798 347.782 435.156 347.874 435.476 348.058C435.8 348.242 436.054 348.496 436.238 348.82C436.422 349.14 436.514 349.496 436.514 349.888C436.514 350.28 436.42 350.64 436.232 350.968C436.044 351.292 435.788 351.548 435.464 351.736C435.14 351.924 434.782 352.018 434.39 352.018C433.998 352.018 433.64 351.924 433.316 351.736C432.996 351.548 432.742 351.292 432.554 350.968C432.37 350.644 432.278 350.288 432.278 349.9C432.278 349.512 432.37 349.156 432.554 348.832C432.742 348.508 432.998 348.252 433.322 348.064C433.646 347.876 434.006 347.782 434.402 347.782ZM434.39 351.688C434.722 351.688 435.022 351.608 435.29 351.448C435.562 351.288 435.776 351.072 435.932 350.8C436.088 350.524 436.166 350.22 436.166 349.888C436.166 349.556 436.09 349.256 435.938 348.988C435.786 348.716 435.576 348.502 435.308 348.346C435.04 348.19 434.738 348.112 434.402 348.112C434.066 348.112 433.762 348.192 433.49 348.352C433.218 348.508 433.004 348.722 432.848 348.994C432.696 349.266 432.62 349.568 432.62 349.9C432.62 350.232 432.696 350.534 432.848 350.806C433.004 351.078 433.216 351.294 433.484 351.454C433.756 351.61 434.058 351.688 434.39 351.688ZM435.488 349.54C435.488 349.716 435.446 349.866 435.362 349.99C435.282 350.114 435.166 350.208 435.014 350.272L435.542 351.082H435.026L434.558 350.362H434.492H434.024V351.082H433.508V348.718H434.492C434.8 348.718 435.042 348.792 435.218 348.94C435.398 349.088 435.488 349.288 435.488 349.54ZM434.462 349.96C434.63 349.96 434.76 349.924 434.852 349.852C434.944 349.776 434.99 349.672 434.99 349.54C434.99 349.408 434.944 349.306 434.852 349.234C434.76 349.162 434.63 349.126 434.462 349.126H434.018V349.96H434.462Z" fill="#424242"/>
<path d="M368.843 323.06C368.337 323.06 367.857 322.98 367.403 322.82C366.957 322.653 366.597 322.433 366.323 322.16L366.673 321.59C366.9 321.823 367.203 322.017 367.583 322.17C367.97 322.323 368.39 322.4 368.843 322.4C369.423 322.4 369.867 322.273 370.173 322.02C370.487 321.767 370.643 321.427 370.643 321C370.643 320.573 370.49 320.233 370.183 319.98C369.883 319.727 369.407 319.6 368.753 319.6H368.253V319.07L370.413 316.36L370.513 316.64H366.613V316H371.113V316.51L368.953 319.22L368.603 318.99H368.873C369.713 318.99 370.34 319.177 370.753 319.55C371.173 319.923 371.383 320.403 371.383 320.99C371.383 321.383 371.29 321.737 371.103 322.05C370.917 322.363 370.633 322.61 370.253 322.79C369.88 322.97 369.41 323.06 368.843 323.06ZM375.505 323V317.75H376.225L378.605 321.78H378.305L380.725 317.75H381.385V323H380.735V318.56L380.865 318.62L378.605 322.36H378.285L376.005 318.58L376.155 318.55V323H375.505ZM385.656 323.05C385.109 323.05 384.629 322.937 384.216 322.71C383.802 322.477 383.479 322.16 383.246 321.76C383.012 321.353 382.896 320.89 382.896 320.37C382.896 319.85 383.006 319.39 383.226 318.99C383.452 318.59 383.759 318.277 384.146 318.05C384.539 317.817 384.979 317.7 385.466 317.7C385.959 317.7 386.396 317.813 386.776 318.04C387.162 318.26 387.466 318.573 387.686 318.98C387.906 319.38 388.016 319.843 388.016 320.37C388.016 320.403 388.012 320.44 388.006 320.48C388.006 320.513 388.006 320.55 388.006 320.59H383.436V320.06H387.626L387.346 320.27C387.346 319.89 387.262 319.553 387.096 319.26C386.936 318.96 386.716 318.727 386.436 318.56C386.156 318.393 385.832 318.31 385.466 318.31C385.106 318.31 384.782 318.393 384.496 318.56C384.209 318.727 383.986 318.96 383.826 319.26C383.666 319.56 383.586 319.903 383.586 320.29V320.4C383.586 320.8 383.672 321.153 383.846 321.46C384.026 321.76 384.272 321.997 384.586 322.17C384.906 322.337 385.269 322.42 385.676 322.42C385.996 322.42 386.292 322.363 386.566 322.25C386.846 322.137 387.086 321.963 387.286 321.73L387.686 322.19C387.452 322.47 387.159 322.683 386.806 322.83C386.459 322.977 386.076 323.05 385.656 323.05ZM391.787 323.05C391.267 323.05 390.8 322.937 390.387 322.71C389.98 322.477 389.66 322.16 389.427 321.76C389.194 321.353 389.077 320.89 389.077 320.37C389.077 319.843 389.194 319.38 389.427 318.98C389.66 318.58 389.98 318.267 390.387 318.04C390.8 317.813 391.267 317.7 391.787 317.7C392.234 317.7 392.637 317.787 392.997 317.96C393.357 318.133 393.64 318.393 393.847 318.74L393.317 319.1C393.137 318.833 392.914 318.637 392.647 318.51C392.38 318.383 392.09 318.32 391.777 318.32C391.404 318.32 391.067 318.407 390.767 318.58C390.467 318.747 390.23 318.983 390.057 319.29C389.884 319.597 389.797 319.957 389.797 320.37C389.797 320.783 389.884 321.143 390.057 321.45C390.23 321.757 390.467 321.997 390.767 322.17C391.067 322.337 391.404 322.42 391.777 322.42C392.09 322.42 392.38 322.357 392.647 322.23C392.914 322.103 393.137 321.91 393.317 321.65L393.847 322.01C393.64 322.35 393.357 322.61 392.997 322.79C392.637 322.963 392.234 323.05 391.787 323.05ZM398.436 323V321.11L398.566 321.26H396.786C396.113 321.26 395.586 321.113 395.206 320.82C394.826 320.527 394.636 320.1 394.636 319.54C394.636 318.94 394.839 318.493 395.246 318.2C395.653 317.9 396.196 317.75 396.876 317.75H399.086V323H398.436ZM394.596 323L396.036 320.98H396.776L395.366 323H394.596ZM398.436 320.9V318.16L398.566 318.37H396.896C396.409 318.37 396.029 318.463 395.756 318.65C395.489 318.837 395.356 319.14 395.356 319.56C395.356 320.34 395.853 320.73 396.846 320.73H398.566L398.436 320.9ZM401.111 323V317.75H401.821V322.38H405.031V317.75H405.741V323H401.111ZM405.921 324.27V322.94L406.101 323H405.031V322.38H406.591V324.27H405.921ZM411.207 323V321.84L411.177 321.65V319.71C411.177 319.263 411.05 318.92 410.797 318.68C410.55 318.44 410.18 318.32 409.687 318.32C409.347 318.32 409.023 318.377 408.717 318.49C408.41 318.603 408.15 318.753 407.937 318.94L407.617 318.41C407.883 318.183 408.203 318.01 408.577 317.89C408.95 317.763 409.343 317.7 409.757 317.7C410.437 317.7 410.96 317.87 411.327 318.21C411.7 318.543 411.887 319.053 411.887 319.74V323H411.207ZM409.397 323.05C409.003 323.05 408.66 322.987 408.367 322.86C408.08 322.727 407.86 322.547 407.707 322.32C407.553 322.087 407.477 321.82 407.477 321.52C407.477 321.247 407.54 321 407.667 320.78C407.8 320.553 408.013 320.373 408.307 320.24C408.607 320.1 409.007 320.03 409.507 320.03H411.317V320.56H409.527C409.02 320.56 408.667 320.65 408.467 320.83C408.273 321.01 408.177 321.233 408.177 321.5C408.177 321.8 408.293 322.04 408.527 322.22C408.76 322.4 409.087 322.49 409.507 322.49C409.907 322.49 410.25 322.4 410.537 322.22C410.83 322.033 411.043 321.767 411.177 321.42L411.337 321.91C411.203 322.257 410.97 322.533 410.637 322.74C410.31 322.947 409.897 323.05 409.397 323.05Z" fill="#8D8D8D"/>
<path d="M440.681 323.06C440.061 323.06 439.538 322.923 439.111 322.65C438.684 322.37 438.361 321.97 438.141 321.45C437.921 320.923 437.811 320.293 437.811 319.56C437.811 318.767 437.944 318.103 438.211 317.57C438.484 317.03 438.861 316.623 439.341 316.35C439.821 316.077 440.378 315.94 441.011 315.94C441.324 315.94 441.624 315.97 441.911 316.03C442.198 316.09 442.451 316.187 442.671 316.32L442.381 316.9C442.201 316.78 441.994 316.697 441.761 316.65C441.528 316.597 441.281 316.57 441.021 316.57C440.268 316.57 439.664 316.81 439.211 317.29C438.764 317.77 438.541 318.487 438.541 319.44C438.541 319.587 438.548 319.77 438.561 319.99C438.581 320.203 438.621 320.417 438.681 320.63L438.431 320.44C438.504 320.093 438.648 319.8 438.861 319.56C439.074 319.313 439.341 319.127 439.661 319C439.981 318.873 440.331 318.81 440.711 318.81C441.178 318.81 441.588 318.897 441.941 319.07C442.294 319.243 442.571 319.487 442.771 319.8C442.971 320.113 443.071 320.483 443.071 320.91C443.071 321.343 442.968 321.723 442.761 322.05C442.554 322.37 442.268 322.62 441.901 322.8C441.541 322.973 441.134 323.06 440.681 323.06ZM440.651 322.45C440.984 322.45 441.278 322.39 441.531 322.27C441.791 322.143 441.994 321.967 442.141 321.74C442.288 321.507 442.361 321.237 442.361 320.93C442.361 320.47 442.201 320.103 441.881 319.83C441.568 319.557 441.141 319.42 440.601 319.42C440.241 319.42 439.928 319.487 439.661 319.62C439.394 319.753 439.184 319.937 439.031 320.17C438.878 320.397 438.801 320.657 438.801 320.95C438.801 321.203 438.871 321.447 439.011 321.68C439.151 321.907 439.358 322.093 439.631 322.24C439.911 322.38 440.251 322.45 440.651 322.45ZM447.012 323V317.75H447.732L450.112 321.78H449.812L452.232 317.75H452.892V323H452.242V318.56L452.372 318.62L450.112 322.36H449.792L447.512 318.58L447.662 318.55V323H447.012ZM457.162 323.05C456.616 323.05 456.136 322.937 455.722 322.71C455.309 322.477 454.986 322.16 454.752 321.76C454.519 321.353 454.402 320.89 454.402 320.37C454.402 319.85 454.512 319.39 454.732 318.99C454.959 318.59 455.266 318.277 455.652 318.05C456.046 317.817 456.486 317.7 456.972 317.7C457.466 317.7 457.902 317.813 458.282 318.04C458.669 318.26 458.972 318.573 459.192 318.98C459.412 319.38 459.522 319.843 459.522 320.37C459.522 320.403 459.519 320.44 459.512 320.48C459.512 320.513 459.512 320.55 459.512 320.59H454.942V320.06H459.132L458.852 320.27C458.852 319.89 458.769 319.553 458.602 319.26C458.442 318.96 458.222 318.727 457.942 318.56C457.662 318.393 457.339 318.31 456.972 318.31C456.612 318.31 456.289 318.393 456.002 318.56C455.716 318.727 455.492 318.96 455.332 319.26C455.172 319.56 455.092 319.903 455.092 320.29V320.4C455.092 320.8 455.179 321.153 455.352 321.46C455.532 321.76 455.779 321.997 456.092 322.17C456.412 322.337 456.776 322.42 457.182 322.42C457.502 322.42 457.799 322.363 458.072 322.25C458.352 322.137 458.592 321.963 458.792 321.73L459.192 322.19C458.959 322.47 458.666 322.683 458.312 322.83C457.966 322.977 457.582 323.05 457.162 323.05ZM463.294 323.05C462.774 323.05 462.307 322.937 461.894 322.71C461.487 322.477 461.167 322.16 460.934 321.76C460.701 321.353 460.584 320.89 460.584 320.37C460.584 319.843 460.701 319.38 460.934 318.98C461.167 318.58 461.487 318.267 461.894 318.04C462.307 317.813 462.774 317.7 463.294 317.7C463.741 317.7 464.144 317.787 464.504 317.96C464.864 318.133 465.147 318.393 465.354 318.74L464.824 319.1C464.644 318.833 464.421 318.637 464.154 318.51C463.887 318.383 463.597 318.32 463.284 318.32C462.911 318.32 462.574 318.407 462.274 318.58C461.974 318.747 461.737 318.983 461.564 319.29C461.391 319.597 461.304 319.957 461.304 320.37C461.304 320.783 461.391 321.143 461.564 321.45C461.737 321.757 461.974 321.997 462.274 322.17C462.574 322.337 462.911 322.42 463.284 322.42C463.597 322.42 463.887 322.357 464.154 322.23C464.421 322.103 464.644 321.91 464.824 321.65L465.354 322.01C465.147 322.35 464.864 322.61 464.504 322.79C464.144 322.963 463.741 323.05 463.294 323.05ZM469.943 323V321.11L470.073 321.26H468.293C467.62 321.26 467.093 321.113 466.713 320.82C466.333 320.527 466.143 320.1 466.143 319.54C466.143 318.94 466.346 318.493 466.753 318.2C467.16 317.9 467.703 317.75 468.383 317.75H470.593V323H469.943ZM466.103 323L467.543 320.98H468.283L466.873 323H466.103ZM469.943 320.9V318.16L470.073 318.37H468.403C467.916 318.37 467.536 318.463 467.263 318.65C466.996 318.837 466.863 319.14 466.863 319.56C466.863 320.34 467.36 320.73 468.353 320.73H470.073L469.943 320.9ZM472.617 323V317.75H473.327V322.38H476.537V317.75H477.247V323H472.617ZM477.427 324.27V322.94L477.607 323H476.537V322.38H478.097V324.27H477.427ZM481.703 323.05C481.157 323.05 480.677 322.937 480.263 322.71C479.85 322.477 479.527 322.16 479.293 321.76C479.06 321.353 478.943 320.89 478.943 320.37C478.943 319.85 479.053 319.39 479.273 318.99C479.5 318.59 479.807 318.277 480.193 318.05C480.587 317.817 481.027 317.7 481.513 317.7C482.007 317.7 482.443 317.813 482.823 318.04C483.21 318.26 483.513 318.573 483.733 318.98C483.953 319.38 484.063 319.843 484.063 320.37C484.063 320.403 484.06 320.44 484.053 320.48C484.053 320.513 484.053 320.55 484.053 320.59H479.483V320.06H483.673L483.393 320.27C483.393 319.89 483.31 319.553 483.143 319.26C482.983 318.96 482.763 318.727 482.483 318.56C482.203 318.393 481.88 318.31 481.513 318.31C481.153 318.31 480.83 318.393 480.543 318.56C480.257 318.727 480.033 318.96 479.873 319.26C479.713 319.56 479.633 319.903 479.633 320.29V320.4C479.633 320.8 479.72 321.153 479.893 321.46C480.073 321.76 480.32 321.997 480.633 322.17C480.953 322.337 481.317 322.42 481.723 322.42C482.043 322.42 482.34 322.363 482.613 322.25C482.893 322.137 483.133 321.963 483.333 321.73L483.733 322.19C483.5 322.47 483.207 322.683 482.853 322.83C482.507 322.977 482.123 323.05 481.703 323.05ZM485.635 323V317.75H487.955C488.548 317.75 489.015 317.863 489.355 318.09C489.702 318.317 489.875 318.65 489.875 319.09C489.875 319.517 489.712 319.847 489.385 320.08C489.058 320.307 488.628 320.42 488.095 320.42L488.235 320.21C488.862 320.21 489.322 320.327 489.615 320.56C489.908 320.793 490.055 321.13 490.055 321.57C490.055 322.023 489.888 322.377 489.555 322.63C489.228 322.877 488.718 323 488.025 323H485.635ZM486.325 322.44H487.995C488.442 322.44 488.778 322.37 489.005 322.23C489.238 322.083 489.355 321.85 489.355 321.53C489.355 321.21 489.252 320.977 489.045 320.83C488.838 320.683 488.512 320.61 488.065 320.61H486.325V322.44ZM486.325 320.08H487.905C488.312 320.08 488.622 320.003 488.835 319.85C489.055 319.697 489.165 319.473 489.165 319.18C489.165 318.887 489.055 318.667 488.835 318.52C488.622 318.373 488.312 318.3 487.905 318.3H486.325V320.08Z" fill="#8D8D8D"/>
<path d="M5.59 267.564C5.59 268.384 5.39333 269.024 5 269.484C4.6 269.938 4.03667 270.164 3.31 270.164L0.999999 270.164L0.999999 269.444L3.23 269.444C3.77 269.444 4.19 269.274 4.49 268.934C4.79 268.588 4.94 268.108 4.94 267.494C4.94 267.134 4.89333 266.764 4.8 266.384C4.7 265.998 4.56 265.611 4.38 265.224L5.04 265.224C5.22 265.631 5.35667 266.034 5.45 266.434C5.54333 266.828 5.59 267.204 5.59 267.564ZM8 265.364L0.999999 265.364L0.999999 264.634L8 264.634L8 265.364ZM8 262.446L2.75 262.446L2.75 261.736L6.92 261.736L2.75 258.226L2.75 257.596L8 257.596L8 258.306L3.82 258.306L8 261.806L8 262.446ZM8.05 253.361C8.05 253.881 7.93667 254.348 7.71 254.761C7.47667 255.168 7.16 255.488 6.76 255.721C6.35333 255.955 5.89 256.071 5.37 256.071C4.84333 256.071 4.38 255.955 3.98 255.721C3.58 255.488 3.26667 255.168 3.04 254.761C2.81333 254.348 2.7 253.881 2.7 253.361C2.7 252.915 2.78667 252.511 2.96 252.151C3.13333 251.791 3.39333 251.508 3.74 251.301L4.1 251.831C3.83333 252.011 3.63667 252.235 3.51 252.501C3.38333 252.768 3.32 253.058 3.32 253.371C3.32 253.745 3.40667 254.081 3.58 254.381C3.74667 254.681 3.98333 254.918 4.29 255.091C4.59667 255.265 4.95667 255.351 5.37 255.351C5.78333 255.351 6.14333 255.265 6.45 255.091C6.75667 254.918 6.99667 254.681 7.17 254.381C7.33667 254.081 7.42 253.745 7.42 253.371C7.42 253.058 7.35667 252.768 7.23 252.501C7.10333 252.235 6.91 252.011 6.65 251.831L7.01 251.301C7.35 251.508 7.61 251.791 7.79 252.151C7.96333 252.511 8.05 252.915 8.05 253.361ZM8.06 250.552C8.06 250.632 8.05333 250.716 8.04 250.802C8.02667 250.882 8.01 250.969 7.99 251.062L7.38 251.012C7.38667 250.966 7.39667 250.922 7.41 250.882C7.41667 250.836 7.42 250.796 7.42 250.762C7.42 250.549 7.34 250.379 7.18 250.252C7.02 250.119 6.80667 250.019 6.54 249.952C6.27333 249.886 5.97333 249.839 5.64 249.812C5.3 249.786 4.96 249.762 4.62 249.742L2.75 249.652L2.75 245.802L8 245.802L8 246.512L3.16 246.512L3.37 246.332L3.37 249.192L3.15 249.022L4.67 249.102C5.12333 249.122 5.55667 249.159 5.97 249.212C6.38333 249.259 6.74667 249.336 7.06 249.442C7.37333 249.542 7.62 249.682 7.8 249.862C7.97333 250.042 8.06 250.272 8.06 250.552ZM8.05 241.624C8.05 242.131 7.93667 242.587 7.71 242.994C7.47667 243.394 7.16 243.711 6.76 243.944C6.35333 244.177 5.89 244.294 5.37 244.294C4.84333 244.294 4.38 244.177 3.98 243.944C3.58 243.711 3.26667 243.394 3.04 242.994C2.81333 242.594 2.7 242.137 2.7 241.624C2.7 241.104 2.81333 240.644 3.04 240.244C3.26667 239.837 3.58 239.521 3.98 239.294C4.38 239.061 4.84333 238.944 5.37 238.944C5.89 238.944 6.35333 239.061 6.76 239.294C7.16 239.521 7.47667 239.837 7.71 240.244C7.93667 240.651 8.05 241.111 8.05 241.624ZM7.42 241.624C7.42 241.244 7.33667 240.907 7.17 240.614C6.99667 240.321 6.75667 240.091 6.45 239.924C6.13667 239.751 5.77667 239.664 5.37 239.664C4.95667 239.664 4.59667 239.751 4.29 239.924C3.98333 240.091 3.74667 240.321 3.58 240.614C3.40667 240.907 3.32 241.241 3.32 241.614C3.32 241.987 3.40667 242.321 3.58 242.614C3.74667 242.907 3.98333 243.141 4.29 243.314C4.59667 243.487 4.95667 243.574 5.37 243.574C5.77667 243.574 6.13667 243.487 6.45 243.314C6.75667 243.141 6.99667 242.907 7.17 242.614C7.33667 242.321 7.42 241.991 7.42 241.624ZM8 234.809L2.75 234.809L2.75 230.089L8 230.089L8 230.799L3.18 230.799L3.37 230.619L3.37 234.279L3.18 234.099L8 234.099L8 234.809ZM8 224.811L6.84 224.811L6.65 224.841L4.71 224.841C4.26333 224.841 3.92 224.968 3.68 225.221C3.44 225.468 3.32 225.838 3.32 226.331C3.32 226.671 3.37666 226.994 3.49 227.301C3.60333 227.608 3.75333 227.868 3.94 228.081L3.41 228.401C3.18333 228.134 3.01 227.814 2.89 227.441C2.76333 227.068 2.7 226.674 2.7 226.261C2.7 225.581 2.87 225.058 3.21 224.691C3.54333 224.318 4.05333 224.131 4.74 224.131L8 224.131L8 224.811ZM8.05 226.621C8.05 227.014 7.98666 227.358 7.86 227.651C7.72666 227.938 7.54666 228.158 7.32 228.311C7.08666 228.464 6.82 228.541 6.52 228.541C6.24666 228.541 6 228.478 5.78 228.351C5.55333 228.218 5.37333 228.004 5.24 227.711C5.1 227.411 5.03 227.011 5.03 226.511L5.03 224.701L5.56 224.701L5.56 226.491C5.56 226.998 5.65 227.351 5.83 227.551C6.01 227.744 6.23333 227.841 6.5 227.841C6.8 227.841 7.04 227.724 7.22 227.491C7.4 227.258 7.49 226.931 7.49 226.511C7.49 226.111 7.4 225.768 7.22 225.481C7.03333 225.188 6.76666 224.974 6.42 224.841L6.91 224.681C7.25666 224.814 7.53333 225.048 7.74 225.381C7.94666 225.708 8.05 226.121 8.05 226.621ZM8 222.241L2.75 222.241L2.75 221.531L7.38 221.531L7.38 218.321L2.75 218.321L2.75 217.611L8 217.611L8 222.241ZM9.27 217.431L7.94 217.431L8 217.251L8 218.321L7.38 218.321L7.38 216.761L9.27 216.761L9.27 217.431ZM8 215.405L2.75 215.405L2.75 214.695L6.92 214.695L2.75 211.185L2.75 210.555L8 210.555L8 211.265L3.82 211.265L8 214.765L8 215.405ZM8.05 206.27C8.05 206.817 7.93666 207.297 7.71 207.71C7.47666 208.124 7.16 208.447 6.76 208.68C6.35333 208.914 5.89 209.03 5.37 209.03C4.85 209.03 4.39 208.92 3.99 208.7C3.59 208.474 3.27666 208.167 3.05 207.78C2.81666 207.387 2.7 206.947 2.7 206.46C2.7 205.967 2.81333 205.53 3.04 205.15C3.26 204.764 3.57333 204.46 3.98 204.24C4.38 204.02 4.84333 203.91 5.37 203.91C5.40333 203.91 5.44 203.914 5.48 203.92C5.51333 203.92 5.55 203.92 5.59 203.92L5.59 208.49L5.06 208.49L5.06 204.3L5.27 204.58C4.89 204.58 4.55333 204.664 4.26 204.83C3.96 204.99 3.72666 205.21 3.56 205.49C3.39333 205.77 3.31 206.094 3.31 206.46C3.31 206.82 3.39333 207.144 3.56 207.43C3.72666 207.717 3.96 207.94 4.26 208.1C4.56 208.26 4.90333 208.34 5.29 208.34L5.4 208.34C5.8 208.34 6.15333 208.254 6.46 208.08C6.76 207.9 6.99666 207.654 7.17 207.34C7.33666 207.02 7.42 206.657 7.42 206.25C7.42 205.93 7.36333 205.634 7.25 205.36C7.13666 205.08 6.96333 204.84 6.73 204.64L7.19 204.24C7.47 204.474 7.68333 204.767 7.83 205.12C7.97666 205.467 8.05 205.85 8.05 206.27ZM8 202.339L2.75 202.339L2.75 201.629L5.07 201.629L5.07 198.319L2.75 198.319L2.75 197.609L8 197.609L8 198.319L5.68 198.319L5.68 201.629L8 201.629L8 202.339ZM8 194.591L3.18 194.591L3.37 194.411L3.37 196.581L2.75 196.581L2.75 191.891L3.37 191.891L3.37 194.061L3.18 193.881L8 193.881L8 194.591ZM8.05 188.948C8.05 189.455 7.93666 189.911 7.71 190.318C7.47666 190.718 7.16 191.035 6.76 191.268C6.35333 191.501 5.89 191.618 5.37 191.618C4.84333 191.618 4.38 191.501 3.98 191.268C3.58 191.035 3.26666 190.718 3.04 190.318C2.81333 189.918 2.7 189.461 2.7 188.948C2.7 188.428 2.81333 187.968 3.04 187.568C3.26666 187.161 3.58 186.845 3.98 186.618C4.38 186.385 4.84333 186.268 5.37 186.268C5.89 186.268 6.35333 186.385 6.76 186.618C7.16 186.845 7.47666 187.161 7.71 187.568C7.93666 187.975 8.05 188.435 8.05 188.948ZM7.42 188.948C7.42 188.568 7.33666 188.231 7.17 187.938C6.99666 187.645 6.75666 187.415 6.45 187.248C6.13666 187.075 5.77666 186.988 5.37 186.988C4.95666 186.988 4.59666 187.075 4.29 187.248C3.98333 187.415 3.74666 187.645 3.58 187.938C3.40666 188.231 3.32 188.565 3.32 188.938C3.32 189.311 3.40666 189.645 3.58 189.938C3.74666 190.231 3.98333 190.465 4.29 190.638C4.59666 190.811 4.95666 190.898 5.37 190.898C5.77666 190.898 6.13666 190.811 6.45 190.638C6.75666 190.465 6.99666 190.231 7.17 189.938C7.33666 189.645 7.42 189.315 7.42 188.948ZM8 180.901L5.4 183.061L5.05 182.471L8 180.061L8 180.901ZM8 184.751L2.75 184.751L2.75 184.041L8 184.041L8 184.751ZM5.66 184.261L5.05 184.261L5.05 182.571L5.66 182.571L5.66 184.261ZM5.45 182.411L5.35 183.071L2.75 180.981L2.75 180.211L5.45 182.411ZM8.05 174.123C8.05 174.643 7.93666 175.11 7.71 175.523C7.47666 175.93 7.16 176.25 6.76 176.483C6.35333 176.716 5.89 176.833 5.37 176.833C4.84333 176.833 4.38 176.716 3.98 176.483C3.58 176.25 3.26666 175.93 3.04 175.523C2.81333 175.11 2.7 174.643 2.7 174.123C2.7 173.676 2.78666 173.273 2.96 172.913C3.13333 172.553 3.39333 172.27 3.74 172.063L4.1 172.593C3.83333 172.773 3.63666 172.996 3.51 173.263C3.38333 173.53 3.32 173.82 3.32 174.133C3.32 174.506 3.40666 174.843 3.58 175.143C3.74666 175.443 3.98333 175.68 4.29 175.853C4.59666 176.026 4.95666 176.113 5.37 176.113C5.78333 176.113 6.14333 176.026 6.45 175.853C6.75666 175.68 6.99666 175.443 7.17 175.143C7.33666 174.843 7.42 174.506 7.42 174.133C7.42 173.82 7.35666 173.53 7.23 173.263C7.10333 172.996 6.91 172.773 6.65 172.593L7.01 172.063C7.35 172.27 7.61 172.553 7.79 172.913C7.96333 173.273 8.05 173.676 8.05 174.123ZM8.05 165.871C8.05 166.391 7.93666 166.858 7.71 167.271C7.47666 167.678 7.16 167.998 6.76 168.231C6.35333 168.464 5.89 168.581 5.37 168.581C4.84333 168.581 4.38 168.464 3.98 168.231C3.58 167.998 3.26666 167.678 3.04 167.271C2.81333 166.858 2.7 166.391 2.7 165.871C2.7 165.424 2.78666 165.021 2.96 164.661C3.13333 164.301 3.39333 164.018 3.74 163.811L4.1 164.341C3.83333 164.521 3.63666 164.744 3.51 165.011C3.38333 165.278 3.32 165.568 3.32 165.881C3.32 166.254 3.40666 166.591 3.58 166.891C3.74666 167.191 3.98333 167.428 4.29 167.601C4.59666 167.774 4.95666 167.861 5.37 167.861C5.78333 167.861 6.14333 167.774 6.45 167.601C6.75666 167.428 6.99666 167.191 7.17 166.891C7.33666 166.591 7.42 166.254 7.42 165.881C7.42 165.568 7.35666 165.278 7.23 165.011C7.10333 164.744 6.91 164.521 6.65 164.341L7.01 163.811C7.35 164.018 7.61 164.301 7.79 164.661C7.96333 165.021 8.05 165.424 8.05 165.871ZM8 162.436L2.74999 162.436L2.74999 161.726L6.92 161.726L2.74999 158.216L2.74999 157.586L8 157.586L8 158.296L3.81999 158.296L8 161.796L8 162.436ZM7.99999 155.552L2.74999 155.552L2.74999 154.832L6.77999 152.452L6.77999 152.752L2.74999 150.332L2.74999 149.672L7.99999 149.672L7.99999 150.322L3.55999 150.322L3.61999 150.192L7.35999 152.452L7.35999 152.772L3.57999 155.052L3.54999 154.902L7.99999 154.902L7.99999 155.552ZM7.99999 147.651L2.74999 147.651L2.74999 142.931L7.99999 142.931L7.99999 143.641L3.17999 143.641L3.36999 143.461L3.36999 147.121L3.17999 146.941L7.99999 146.941L7.99999 147.651ZM7.99999 139.913L3.17999 139.913L3.36999 139.733L3.36999 141.903L2.74999 141.903L2.74999 137.213L3.36999 137.213L3.36999 139.383L3.17999 139.203L7.99999 139.203L7.99999 139.913ZM8.04999 134.27C8.04999 134.777 7.93666 135.234 7.70999 135.64C7.47666 136.04 7.15999 136.357 6.75999 136.59C6.35333 136.824 5.88999 136.94 5.36999 136.94C4.84333 136.94 4.37999 136.824 3.97999 136.59C3.57999 136.357 3.26666 136.04 3.03999 135.64C2.81333 135.24 2.69999 134.784 2.69999 134.27C2.69999 133.75 2.81333 133.29 3.03999 132.89C3.26666 132.484 3.57999 132.167 3.97999 131.94C4.37999 131.707 4.84333 131.59 5.36999 131.59C5.88999 131.59 6.35333 131.707 6.75999 131.94C7.15999 132.167 7.47666 132.484 7.70999 132.89C7.93666 133.297 8.04999 133.757 8.04999 134.27ZM7.41999 134.27C7.41999 133.89 7.33666 133.554 7.16999 133.26C6.99666 132.967 6.75666 132.737 6.44999 132.57C6.13666 132.397 5.77666 132.31 5.36999 132.31C4.95666 132.31 4.59666 132.397 4.28999 132.57C3.98333 132.737 3.74666 132.967 3.57999 133.26C3.40666 133.554 3.31999 133.887 3.31999 134.26C3.31999 134.634 3.40666 134.967 3.57999 135.26C3.74666 135.554 3.98333 135.787 4.28999 135.96C4.59666 136.134 4.95666 136.22 5.36999 136.22C5.77666 136.22 6.13666 136.134 6.44999 135.96C6.75666 135.787 6.99666 135.554 7.16999 135.26C7.33666 134.967 7.41999 134.637 7.41999 134.27ZM7.99999 130.073L2.74999 130.073L2.74999 129.353L6.77999 126.973L6.77999 127.273L2.74999 124.853L2.74999 124.193L7.99999 124.193L7.99999 124.843L3.55999 124.843L3.61999 124.713L7.35999 126.973L7.35999 127.293L3.57999 129.573L3.54999 129.423L7.99999 129.423L7.99999 130.073ZM7.99999 118.913L6.83999 118.913L6.64999 118.943L4.70999 118.943C4.26333 118.943 3.91999 119.069 3.67999 119.323C3.43999 119.569 3.31999 119.939 3.31999 120.433C3.31999 120.773 3.37666 121.096 3.48999 121.403C3.60333 121.709 3.75333 121.969 3.93999 122.183L3.40999 122.503C3.18333 122.236 3.00999 121.916 2.88999 121.543C2.76333 121.169 2.69999 120.776 2.69999 120.363C2.69999 119.683 2.86999 119.159 3.20999 118.793C3.54333 118.419 4.05333 118.233 4.73999 118.233L7.99999 118.233L7.99999 118.913ZM8.04999 120.723C8.04999 121.116 7.98666 121.459 7.85999 121.753C7.72666 122.039 7.54666 122.259 7.31999 122.413C7.08666 122.566 6.81999 122.643 6.51999 122.643C6.24666 122.643 5.99999 122.579 5.77999 122.453C5.55333 122.319 5.37333 122.106 5.23999 121.813C5.09999 121.513 5.02999 121.113 5.02999 120.613L5.02999 118.803L5.55999 118.803L5.55999 120.593C5.55999 121.099 5.64999 121.453 5.82999 121.653C6.00999 121.846 6.23333 121.943 6.49999 121.943C6.79999 121.943 7.03999 121.826 7.21999 121.593C7.39999 121.359 7.48999 121.033 7.48999 120.613C7.48999 120.213 7.39999 119.869 7.21999 119.583C7.03333 119.289 6.76666 119.076 6.41999 118.943L6.90999 118.783C7.25666 118.916 7.53333 119.149 7.73999 119.483C7.94666 119.809 8.04999 120.223 8.04999 120.723ZM7.99999 116.343L2.74999 116.343L2.74999 115.623L6.77999 113.243L6.77999 113.543L2.74999 111.123L2.74999 110.463L7.99999 110.463L7.99999 111.113L3.55999 111.113L3.61999 110.983L7.35999 113.243L7.35999 113.563L3.57999 115.843L3.54999 115.693L7.99999 115.693L7.99999 116.343ZM7.99999 108.442L2.74999 108.442L2.74999 107.732L6.91999 107.732L2.74999 104.222L2.74999 103.592L7.99999 103.592L7.99999 104.302L3.81999 104.302L7.99999 107.802L7.99999 108.442ZM7.99999 97.9402L3.17999 97.9402L3.36999 97.7602L3.36999 99.9302L2.74999 99.9302L2.74999 95.2402L3.36999 95.2402L3.36999 97.4102L3.17999 97.2302L7.99999 97.2302L7.99999 97.9402ZM8.04999 91.5036C8.04999 91.957 7.94666 92.367 7.73999 92.7336C7.52666 93.1003 7.22333 93.3936 6.82999 93.6136C6.42999 93.827 5.94333 93.9336 5.36999 93.9336C4.79666 93.9336 4.31333 93.827 3.91999 93.6136C3.51999 93.4003 3.21666 93.1103 3.00999 92.7436C2.80333 92.377 2.69999 91.9636 2.69999 91.5036C2.69999 91.0036 2.81333 90.557 3.03999 90.1636C3.25999 89.7636 3.57333 89.4503 3.97999 89.2236C4.37999 88.997 4.84333 88.8836 5.36999 88.8836C5.90333 88.8836 6.36999 88.997 6.76999 89.2236C7.16999 89.4503 7.48333 89.7636 7.70999 90.1636C7.93666 90.557 8.04999 91.0036 8.04999 91.5036ZM9.93999 94.2136L2.74999 94.2136L2.74999 93.5336L4.32999 93.5336L5.37999 93.6036L6.43999 93.5036L9.93999 93.5036L9.93999 94.2136ZM7.41999 91.5536C7.41999 91.1803 7.33666 90.847 7.16999 90.5536C6.99666 90.2603 6.75666 90.027 6.44999 89.8536C6.13666 89.6803 5.77666 89.5936 5.36999 89.5936C4.96333 89.5936 4.60666 89.6803 4.29999 89.8536C3.99333 90.027 3.75333 90.2603 3.57999 90.5536C3.40666 90.847 3.31999 91.1803 3.31999 91.5536C3.31999 91.927 3.40666 92.2636 3.57999 92.5636C3.75333 92.857 3.99333 93.0903 4.29999 93.2636C4.60666 93.4303 4.96333 93.5136 5.36999 93.5136C5.77666 93.5136 6.13666 93.4303 6.44999 93.2636C6.75666 93.0903 6.99666 92.857 7.16999 92.5636C7.33666 92.2636 7.41999 91.927 7.41999 91.5536ZM8.04999 85.1082C8.04999 85.6548 7.93666 86.1348 7.70999 86.5482C7.47666 86.9615 7.15999 87.2848 6.75999 87.5182C6.35333 87.7515 5.88999 87.8682 5.36999 87.8682C4.84999 87.8682 4.38999 87.7582 3.98999 87.5382C3.58999 87.3115 3.27666 87.0048 3.04999 86.6182C2.81666 86.2248 2.69999 85.7848 2.69999 85.2982C2.69999 84.8048 2.81332 84.3682 3.03999 83.9882C3.25999 83.6015 3.57332 83.2982 3.97999 83.0782C4.37999 82.8582 4.84333 82.7482 5.36999 82.7482C5.40332 82.7482 5.43999 82.7515 5.47999 82.7582C5.51333 82.7582 5.54999 82.7582 5.58999 82.7582L5.58999 87.3282L5.05999 87.3282L5.05999 83.1382L5.26999 83.4182C4.88999 83.4182 4.55333 83.5015 4.25999 83.6682C3.95999 83.8282 3.72666 84.0482 3.55999 84.3282C3.39332 84.6082 3.30999 84.9315 3.30999 85.2982C3.30999 85.6582 3.39333 85.9815 3.55999 86.2682C3.72666 86.5548 3.95999 86.7782 4.25999 86.9382C4.55999 87.0982 4.90333 87.1782 5.28999 87.1782L5.39999 87.1782C5.79999 87.1782 6.15333 87.0915 6.45999 86.9182C6.75999 86.7382 6.99666 86.4915 7.16999 86.1782C7.33666 85.8582 7.41999 85.4948 7.41999 85.0882C7.41999 84.7682 7.36333 84.4715 7.24999 84.1982C7.13666 83.9182 6.96333 83.6782 6.72999 83.4782L7.18999 83.0782C7.46999 83.3115 7.68333 83.6048 7.82999 83.9582C7.97666 84.3048 8.04999 84.6882 8.04999 85.1082ZM7.99999 81.1765L2.74999 81.1765L2.74999 78.8565C2.74999 78.2632 2.86332 77.7965 3.08999 77.4565C3.31666 77.1099 3.64999 76.9365 4.08999 76.9365C4.51666 76.9365 4.84666 77.0999 5.07999 77.4265C5.30666 77.7532 5.41999 78.1832 5.41999 78.7165L5.20999 78.5765C5.20999 77.9499 5.32666 77.4899 5.55999 77.1965C5.79332 76.9032 6.12999 76.7565 6.56999 76.7565C7.02332 76.7565 7.37666 76.9232 7.62999 77.2565C7.87666 77.5832 7.99999 78.0932 7.99999 78.7865L7.99999 81.1765ZM7.43999 80.4865L7.43999 78.8165C7.43999 78.3699 7.36999 78.0332 7.22999 77.8065C7.08332 77.5732 6.84999 77.4565 6.52999 77.4565C6.20999 77.4565 5.97666 77.5599 5.82999 77.7665C5.68332 77.9732 5.60999 78.2999 5.60999 78.7465L5.60999 80.4865L7.43999 80.4865ZM5.07999 80.4865L5.07999 78.9065C5.07999 78.4999 5.00332 78.1899 4.84999 77.9765C4.69666 77.7565 4.47332 77.6465 4.17999 77.6465C3.88666 77.6465 3.66666 77.7565 3.51999 77.9765C3.37332 78.1899 3.29999 78.4999 3.29999 78.9065L3.29999 80.4865L5.07999 80.4865ZM8.04999 72.9325C8.04999 73.4392 7.93666 73.8959 7.70999 74.3025C7.47666 74.7025 7.15999 75.0192 6.75999 75.2525C6.35332 75.4859 5.88999 75.6025 5.36999 75.6025C4.84332 75.6025 4.37999 75.4859 3.97999 75.2525C3.57999 75.0192 3.26666 74.7025 3.03999 74.3025C2.81332 73.9025 2.69999 73.4459 2.69999 72.9325C2.69999 72.4125 2.81332 71.9525 3.03999 71.5525C3.26666 71.1459 3.57999 70.8292 3.97999 70.6025C4.37999 70.3692 4.84332 70.2525 5.36999 70.2525C5.88999 70.2525 6.35332 70.3692 6.75999 70.6025C7.15999 70.8292 7.47666 71.1459 7.70999 71.5525C7.93666 71.9592 8.04999 72.4192 8.04999 72.9325ZM7.41999 72.9325C7.41999 72.5525 7.33666 72.2159 7.16999 71.9225C6.99666 71.6292 6.75666 71.3992 6.44999 71.2325C6.13666 71.0592 5.77666 70.9725 5.36999 70.9725C4.95666 70.9725 4.59666 71.0592 4.28999 71.2325C3.98332 71.3992 3.74666 71.6292 3.57999 71.9225C3.40666 72.2159 3.31999 72.5492 3.31999 72.9225C3.31999 73.2959 3.40666 73.6292 3.57999 73.9225C3.74666 74.2159 3.98332 74.4492 4.28999 74.6225C4.59666 74.7959 4.95666 74.8825 5.36999 74.8825C5.77666 74.8825 6.13666 74.7959 6.44999 74.6225C6.75666 74.4492 6.99666 74.2159 7.16999 73.9225C7.33666 73.6292 7.41999 73.2992 7.41999 72.9325ZM7.99999 62.6711L5.39999 64.4711L5.04999 63.8811L7.99999 61.8211L7.99999 62.6711ZM7.99999 69.7411L5.04999 67.6811L5.39999 67.1011L7.99999 68.8911L7.99999 69.7411ZM5.44999 67.7411L2.74999 69.5911L2.74999 68.8211L5.34999 67.0811L5.44999 67.7411ZM5.65999 67.5711L5.04999 67.5711L5.04999 65.9211L5.65999 65.9211L5.65999 67.5711ZM7.99999 66.1411L2.74999 66.1411L2.74999 65.4311L7.99999 65.4311L7.99999 66.1411ZM5.65999 65.6511L5.04999 65.6511L5.04999 63.9911L5.65999 63.9911L5.65999 65.6511ZM5.44999 63.8111L5.34999 64.4911L2.74999 62.7411L2.74999 61.9711L5.44999 63.8111ZM7.99999 60.6394L2.74999 60.6394L2.74999 59.9294L5.06999 59.9294L5.06999 56.6194L2.74999 56.6194L2.74999 55.9094L7.99999 55.9094L7.99999 56.6194L5.67999 56.6194L5.67999 59.9294L7.99999 59.9294L7.99999 60.6394ZM8.04999 51.7314C8.04999 52.238 7.93666 52.6947 7.70999 53.1014C7.47666 53.5014 7.15999 53.818 6.75999 54.0514C6.35332 54.2847 5.88999 54.4014 5.36999 54.4014C4.84332 54.4014 4.37999 54.2847 3.97999 54.0514C3.57999 53.818 3.26666 53.5014 3.03999 53.1014C2.81332 52.7014 2.69999 52.2447 2.69999 51.7314C2.69999 51.2114 2.81332 50.7514 3.03999 50.3514C3.26666 49.9447 3.57999 49.628 3.97999 49.4014C4.37999 49.168 4.84332 49.0514 5.36999 49.0514C5.88999 49.0514 6.35332 49.168 6.75999 49.4014C7.15999 49.628 7.47666 49.9447 7.70999 50.3514C7.93666 50.758 8.04999 51.218 8.04999 51.7314ZM7.41999 51.7314C7.41999 51.3514 7.33666 51.0147 7.16999 50.7214C6.99666 50.428 6.75666 50.198 6.44999 50.0314C6.13666 49.858 5.77666 49.7714 5.36999 49.7714C4.95666 49.7714 4.59666 49.858 4.28999 50.0314C3.98332 50.198 3.74666 50.428 3.57999 50.7214C3.40666 51.0147 3.31999 51.348 3.31999 51.7214C3.31999 52.0947 3.40666 52.428 3.57999 52.7214C3.74666 53.0147 3.98332 53.248 4.28999 53.4214C4.59666 53.5947 4.95666 53.6814 5.36999 53.6814C5.77666 53.6814 6.13666 53.5947 6.44999 53.4214C6.75666 53.248 6.99666 53.0147 7.16999 52.7214C7.33666 52.428 7.41999 52.098 7.41999 51.7314ZM8.04999 45.3339C8.04999 45.8539 7.93666 46.3206 7.70999 46.7339C7.47666 47.1406 7.15999 47.4606 6.75999 47.6939C6.35332 47.9273 5.88999 48.0439 5.36999 48.0439C4.84332 48.0439 4.37999 47.9273 3.97999 47.6939C3.57999 47.4606 3.26666 47.1406 3.03999 46.7339C2.81332 46.3206 2.69999 45.8539 2.69999 45.3339C2.69999 44.8873 2.78666 44.4839 2.95999 44.1239C3.13332 43.7639 3.39332 43.4806 3.73999 43.2739L4.09999 43.8039C3.83332 43.9839 3.63666 44.2073 3.50999 44.4739C3.38332 44.7406 3.31999 45.0306 3.31999 45.3439C3.31999 45.7173 3.40666 46.0539 3.57999 46.3539C3.74666 46.6539 3.98332 46.8906 4.28999 47.0639C4.59666 47.2373 4.95666 47.3239 5.36999 47.3239C5.78332 47.3239 6.14332 47.2373 6.44999 47.0639C6.75666 46.8906 6.99666 46.6539 7.16999 46.3539C7.33666 46.0539 7.41999 45.7173 7.41999 45.3439C7.41999 45.0306 7.35666 44.7406 7.22999 44.4739C7.10332 44.2073 6.90999 43.9839 6.64999 43.8039L7.00999 43.2739C7.34999 43.4806 7.60999 43.7639 7.78999 44.1239C7.96332 44.4839 8.04999 44.8873 8.04999 45.3339ZM7.99999 40.9968L3.17999 40.9968L3.36999 40.8168L3.36999 42.9868L2.74999 42.9868L2.74999 38.2968L3.36999 38.2968L3.36999 40.4668L3.17999 40.2868L7.99999 40.2868L7.99999 40.9968ZM7.99999 37.2703L2.74999 37.2703L2.74999 36.5603L6.91999 36.5603L2.74999 33.0503L2.74999 32.4203L7.99999 32.4203L7.99999 33.1303L3.81999 33.1303L7.99999 36.6303L7.99999 37.2703Z" fill="#8D8D8D"/>
</g>
<defs>
<clipPath id="clip0_3001_23718">
<rect width="501" height="357" fill="white"/>
</clipPath>
<clipPath id="clip1_3001_23718">
<rect x="129" y="305" width="16" height="2" rx="1" fill="white"/>
</clipPath>
<clipPath id="clip2_3001_23718">
<rect x="201" y="305" width="16" height="2" rx="1" fill="white"/>
</clipPath>
<clipPath id="clip3_3001_23718">
<rect x="224" y="305" width="16" height="2" rx="1" fill="white"/>
</clipPath>
<clipPath id="clip4_3001_23718">
<rect x="357" y="305" width="16" height="2" rx="1" fill="white"/>
</clipPath>
<clipPath id="clip5_3001_23718">
<rect x="380" y="305" width="16" height="2" rx="1" fill="white"/>
</clipPath>
<clipPath id="clip6_3001_23718">
<rect x="429" y="305" width="16" height="2" rx="1" fill="white"/>
</clipPath>
<clipPath id="clip7_3001_23718">
<rect x="452" y="305" width="16" height="2" rx="1" fill="white"/>
</clipPath>
<clipPath id="clip8_3001_23718">
<rect x="475" y="305" width="16" height="2" rx="1" fill="white"/>
</clipPath>
</defs>
</svg>
