<svg width="967" height="514" viewBox="0 0 967 514" fill="none" xmlns="http://www.w3.org/2000/svg">
<path d="M3.27263 16.072C2.66463 16.072 2.08863 15.976 1.54463 15.784C1.00863 15.584 0.576625 15.32 0.248625 14.992L0.668625 14.308C0.940625 14.588 1.30463 14.82 1.76063 15.004C2.22463 15.188 2.72863 15.28 3.27263 15.28C3.96863 15.28 4.50063 15.128 4.86863 14.824C5.24463 14.52 5.43263 14.112 5.43263 13.6C5.43263 13.088 5.24863 12.68 4.88063 12.376C4.52063 12.072 3.94863 11.92 3.16463 11.92H2.56463V11.284L5.15663 8.032L5.27663 8.368H0.596625V7.6H5.99663V8.212L3.40463 11.464L2.98463 11.188H3.30862C4.31663 11.188 5.06863 11.412 5.56463 11.86C6.06863 12.308 6.32063 12.884 6.32063 13.588C6.32063 14.06 6.20863 14.484 5.98463 14.86C5.76063 15.236 5.42063 15.532 4.96463 15.748C4.51663 15.964 3.95263 16.072 3.27263 16.072ZM10.8861 16.072C10.2381 16.072 9.66206 15.904 9.15806 15.568C8.65406 15.224 8.25806 14.736 7.97006 14.104C7.68206 13.464 7.53806 12.696 7.53806 11.8C7.53806 10.904 7.68206 10.14 7.97006 9.508C8.25806 8.868 8.65406 8.38 9.15806 8.044C9.66206 7.7 10.2381 7.528 10.8861 7.528C11.5341 7.528 12.1101 7.7 12.6141 8.044C13.1181 8.38 13.5141 8.868 13.8021 9.508C14.0981 10.14 14.2461 10.904 14.2461 11.8C14.2461 12.696 14.0981 13.464 13.8021 14.104C13.5141 14.736 13.1181 15.224 12.6141 15.568C12.1101 15.904 11.5341 16.072 10.8861 16.072ZM10.8861 15.28C11.3821 15.28 11.8141 15.148 12.1821 14.884C12.5501 14.612 12.8381 14.22 13.0461 13.708C13.2541 13.188 13.3581 12.552 13.3581 11.8C13.3581 11.048 13.2541 10.416 13.0461 9.904C12.8381 9.384 12.5501 8.992 12.1821 8.728C11.8141 8.456 11.3821 8.32 10.8861 8.32C10.4061 8.32 9.97806 8.456 9.60206 8.728C9.22606 8.992 8.93406 9.384 8.72606 9.904C8.51806 10.416 8.41406 11.048 8.41406 11.8C8.41406 12.552 8.51806 13.188 8.72606 13.708C8.93406 14.22 9.22606 14.612 9.60206 14.884C9.97806 15.148 10.4061 15.28 10.8861 15.28Z" fill="#2A292A"/>
<path d="M1.15941 82V81.388L4.65141 77.968C4.97141 77.656 5.21141 77.384 5.37141 77.152C5.53141 76.912 5.63941 76.688 5.69541 76.48C5.75141 76.272 5.77941 76.076 5.77941 75.892C5.77941 75.404 5.61141 75.02 5.27541 74.74C4.94741 74.46 4.45941 74.32 3.81141 74.32C3.31541 74.32 2.87541 74.396 2.49141 74.548C2.11541 74.7 1.79141 74.936 1.51941 75.256L0.907406 74.728C1.23541 74.344 1.65541 74.048 2.16741 73.84C2.67941 73.632 3.25141 73.528 3.88341 73.528C4.45141 73.528 4.94341 73.62 5.35941 73.804C5.77541 73.98 6.09541 74.24 6.31941 74.584C6.55141 74.928 6.66741 75.332 6.66741 75.796C6.66741 76.068 6.62741 76.336 6.54741 76.6C6.47541 76.864 6.33941 77.144 6.13941 77.44C5.94741 77.728 5.66341 78.056 5.28741 78.424L2.08341 81.568L1.84341 81.232H7.05141V82H1.15941ZM10.7877 82.072C10.1877 82.072 9.61572 81.976 9.07172 81.784C8.52772 81.584 8.09572 81.32 7.77572 80.992L8.19572 80.308C8.45972 80.588 8.81972 80.82 9.27572 81.004C9.73972 81.188 10.2397 81.28 10.7757 81.28C11.4877 81.28 12.0277 81.124 12.3957 80.812C12.7717 80.492 12.9597 80.076 12.9597 79.564C12.9597 79.204 12.8717 78.896 12.6957 78.64C12.5277 78.376 12.2397 78.172 11.8317 78.028C11.4237 77.884 10.8637 77.812 10.1517 77.812H8.36372L8.79572 73.6H13.3917V74.368H9.14372L9.58772 73.948L9.21572 77.476L8.77172 77.044H10.3437C11.1917 77.044 11.8717 77.148 12.3837 77.356C12.8957 77.564 13.2637 77.856 13.4877 78.232C13.7197 78.6 13.8357 79.032 13.8357 79.528C13.8357 80 13.7237 80.432 13.4997 80.824C13.2757 81.208 12.9397 81.512 12.4917 81.736C12.0437 81.96 11.4757 82.072 10.7877 82.072Z" fill="#2A292A"/>
<path d="M0.596906 148V147.388L4.08891 143.968C4.40891 143.656 4.64891 143.384 4.80891 143.152C4.96891 142.912 5.07691 142.688 5.13291 142.48C5.18891 142.272 5.21691 142.076 5.21691 141.892C5.21691 141.404 5.04891 141.02 4.71291 140.74C4.38491 140.46 3.89691 140.32 3.24891 140.32C2.75291 140.32 2.31291 140.396 1.92891 140.548C1.55291 140.7 1.22891 140.936 0.956906 141.256L0.344906 140.728C0.672906 140.344 1.09291 140.048 1.60491 139.84C2.11691 139.632 2.68891 139.528 3.32091 139.528C3.88891 139.528 4.38091 139.62 4.79691 139.804C5.21291 139.98 5.53291 140.24 5.75691 140.584C5.98891 140.928 6.10491 141.332 6.10491 141.796C6.10491 142.068 6.06491 142.336 5.98491 142.6C5.91291 142.864 5.77691 143.144 5.57691 143.44C5.38491 143.728 5.10091 144.056 4.72491 144.424L1.52091 147.568L1.28091 147.232H6.48891V148H0.596906ZM10.8978 148.072C10.2498 148.072 9.67378 147.904 9.16978 147.568C8.66578 147.224 8.26978 146.736 7.98178 146.104C7.69378 145.464 7.54978 144.696 7.54978 143.8C7.54978 142.904 7.69378 142.14 7.98178 141.508C8.26978 140.868 8.66578 140.38 9.16978 140.044C9.67378 139.7 10.2498 139.528 10.8978 139.528C11.5458 139.528 12.1218 139.7 12.6258 140.044C13.1298 140.38 13.5258 140.868 13.8138 141.508C14.1098 142.14 14.2578 142.904 14.2578 143.8C14.2578 144.696 14.1098 145.464 13.8138 146.104C13.5258 146.736 13.1298 147.224 12.6258 147.568C12.1218 147.904 11.5458 148.072 10.8978 148.072ZM10.8978 147.28C11.3938 147.28 11.8258 147.148 12.1938 146.884C12.5618 146.612 12.8498 146.22 13.0578 145.708C13.2658 145.188 13.3698 144.552 13.3698 143.8C13.3698 143.048 13.2658 142.416 13.0578 141.904C12.8498 141.384 12.5618 140.992 12.1938 140.728C11.8258 140.456 11.3938 140.32 10.8978 140.32C10.4178 140.32 9.98978 140.456 9.61378 140.728C9.23778 140.992 8.94578 141.384 8.73778 141.904C8.52978 142.416 8.42578 143.048 8.42578 143.8C8.42578 144.552 8.52978 145.188 8.73778 145.708C8.94578 146.22 9.23778 146.612 9.61378 146.884C9.98978 147.148 10.4178 147.28 10.8978 147.28Z" fill="#2A292A"/>
<path d="M4.02159 214V205.96L4.40559 206.368H2.04159V205.6H4.88559V214H4.02159ZM9.54553 214.072C8.94553 214.072 8.37353 213.976 7.82953 213.784C7.28553 213.584 6.85353 213.32 6.53353 212.992L6.95353 212.308C7.21753 212.588 7.57753 212.82 8.03353 213.004C8.49753 213.188 8.99753 213.28 9.53353 213.28C10.2455 213.28 10.7855 213.124 11.1535 212.812C11.5295 212.492 11.7175 212.076 11.7175 211.564C11.7175 211.204 11.6295 210.896 11.4535 210.64C11.2855 210.376 10.9975 210.172 10.5895 210.028C10.1815 209.884 9.62153 209.812 8.90953 209.812H7.12153L7.55353 205.6H12.1495V206.368H7.90153L8.34553 205.948L7.97353 209.476L7.52953 209.044H9.10153C9.94953 209.044 10.6295 209.148 11.1415 209.356C11.6535 209.564 12.0215 209.856 12.2455 210.232C12.4775 210.6 12.5935 211.032 12.5935 211.528C12.5935 212 12.4815 212.432 12.2575 212.824C12.0335 213.208 11.6975 213.512 11.2495 213.736C10.8015 213.96 10.2335 214.072 9.54553 214.072Z" fill="#2A292A"/>
<path d="M3.44738 280V271.96L3.83138 272.368H1.46738V271.6H4.31138V280H3.44738ZM9.66731 280.072C9.01931 280.072 8.44331 279.904 7.93931 279.568C7.43531 279.224 7.03931 278.736 6.75131 278.104C6.46331 277.464 6.31931 276.696 6.31931 275.8C6.31931 274.904 6.46331 274.14 6.75131 273.508C7.03931 272.868 7.43531 272.38 7.93931 272.044C8.44331 271.7 9.01931 271.528 9.66731 271.528C10.3153 271.528 10.8913 271.7 11.3953 272.044C11.8993 272.38 12.2953 272.868 12.5833 273.508C12.8793 274.14 13.0273 274.904 13.0273 275.8C13.0273 276.696 12.8793 277.464 12.5833 278.104C12.2953 278.736 11.8993 279.224 11.3953 279.568C10.8913 279.904 10.3153 280.072 9.66731 280.072ZM9.66731 279.28C10.1633 279.28 10.5953 279.148 10.9633 278.884C11.3313 278.612 11.6193 278.22 11.8273 277.708C12.0353 277.188 12.1393 276.552 12.1393 275.8C12.1393 275.048 12.0353 274.416 11.8273 273.904C11.6193 273.384 11.3313 272.992 10.9633 272.728C10.5953 272.456 10.1633 272.32 9.66731 272.32C9.18731 272.32 8.75931 272.456 8.38331 272.728C8.00731 272.992 7.71531 273.384 7.50731 273.904C7.29931 274.416 7.19531 275.048 7.19531 275.8C7.19531 276.552 7.29931 277.188 7.50731 277.708C7.71531 278.22 8.00731 278.612 8.38331 278.884C8.75931 279.148 9.18731 279.28 9.66731 279.28Z" fill="#2A292A"/>
<path d="M7.37756 346.072C6.77756 346.072 6.20556 345.976 5.66156 345.784C5.11756 345.584 4.68556 345.32 4.36556 344.992L4.78556 344.308C5.04956 344.588 5.40956 344.82 5.86556 345.004C6.32956 345.188 6.82956 345.28 7.36556 345.28C8.07756 345.28 8.61756 345.124 8.98556 344.812C9.36156 344.492 9.54956 344.076 9.54956 343.564C9.54956 343.204 9.46156 342.896 9.28556 342.64C9.11756 342.376 8.82956 342.172 8.42156 342.028C8.01356 341.884 7.45356 341.812 6.74156 341.812H4.95356L5.38556 337.6H9.98156V338.368H5.73356L6.17756 337.948L5.80556 341.476L5.36156 341.044H6.93356C7.78156 341.044 8.46156 341.148 8.97356 341.356C9.48556 341.564 9.85356 341.856 10.0776 342.232C10.3096 342.6 10.4256 343.032 10.4256 343.528C10.4256 344 10.3136 344.432 10.0896 344.824C9.86556 345.208 9.52956 345.512 9.08156 345.736C8.63356 345.96 8.06556 346.072 7.37756 346.072Z" fill="#2A292A"/>
<path d="M7.49934 412.072C6.85134 412.072 6.27534 411.904 5.77134 411.568C5.26734 411.224 4.87134 410.736 4.58334 410.104C4.29534 409.464 4.15134 408.696 4.15134 407.8C4.15134 406.904 4.29534 406.14 4.58334 405.508C4.87134 404.868 5.26734 404.38 5.77134 404.044C6.27534 403.7 6.85134 403.528 7.49934 403.528C8.14734 403.528 8.72334 403.7 9.22734 404.044C9.73134 404.38 10.1273 404.868 10.4153 405.508C10.7113 406.14 10.8593 406.904 10.8593 407.8C10.8593 408.696 10.7113 409.464 10.4153 410.104C10.1273 410.736 9.73134 411.224 9.22734 411.568C8.72334 411.904 8.14734 412.072 7.49934 412.072ZM7.49934 411.28C7.99534 411.28 8.42734 411.148 8.79534 410.884C9.16334 410.612 9.45134 410.22 9.65934 409.708C9.86734 409.188 9.97134 408.552 9.97134 407.8C9.97134 407.048 9.86734 406.416 9.65934 405.904C9.45134 405.384 9.16334 404.992 8.79534 404.728C8.42734 404.456 7.99534 404.32 7.49934 404.32C7.01934 404.32 6.59134 404.456 6.21534 404.728C5.83934 404.992 5.54734 405.384 5.33934 405.904C5.13134 406.416 5.02734 407.048 5.02734 407.8C5.02734 408.552 5.13134 409.188 5.33934 409.708C5.54734 410.22 5.83934 410.612 6.21534 410.884C6.59134 411.148 7.01934 411.28 7.49934 411.28Z" fill="#2A292A"/>
<mask id="path-8-inside-1_3046_27408" fill="white">
<path d="M22 13H31V26.2H22V13Z"/>
</mask>
<path d="M22 13V14H31V13V12H22V13Z" fill="#2A292A" mask="url(#path-8-inside-1_3046_27408)"/>
<mask id="path-10-inside-2_3046_27408" fill="white">
<path d="M25 26.2002H31V39.4002H25V26.2002Z"/>
</mask>
<path d="M25 26.2002V27.2002H31V26.2002V25.2002H25V26.2002Z" fill="#2A292A" mask="url(#path-10-inside-2_3046_27408)"/>
<mask id="path-12-inside-3_3046_27408" fill="white">
<path d="M25 39.4004H31V52.6004H25V39.4004Z"/>
</mask>
<path d="M25 39.4004V40.4004H31V39.4004V38.4004H25V39.4004Z" fill="#2A292A" mask="url(#path-12-inside-3_3046_27408)"/>
<mask id="path-14-inside-4_3046_27408" fill="white">
<path d="M25 52.5996H31V65.7996H25V52.5996Z"/>
</mask>
<path d="M25 52.5996V53.5996H31V52.5996V51.5996H25V52.5996Z" fill="#2A292A" mask="url(#path-14-inside-4_3046_27408)"/>
<mask id="path-16-inside-5_3046_27408" fill="white">
<path d="M25 65.7998H31V78.9998H25V65.7998Z"/>
</mask>
<path d="M25 65.7998V66.7998H31V65.7998V64.7998H25V65.7998Z" fill="#2A292A" mask="url(#path-16-inside-5_3046_27408)"/>
<mask id="path-18-inside-6_3046_27408" fill="white">
<path d="M22 79H31V92.2H22V79Z"/>
</mask>
<path d="M22 79V80H31V79V78H22V79Z" fill="#2A292A" mask="url(#path-18-inside-6_3046_27408)"/>
<mask id="path-20-inside-7_3046_27408" fill="white">
<path d="M25 92.2002H31V105.4H25V92.2002Z"/>
</mask>
<path d="M25 92.2002V93.2002H31V92.2002V91.2002H25V92.2002Z" fill="#2A292A" mask="url(#path-20-inside-7_3046_27408)"/>
<mask id="path-22-inside-8_3046_27408" fill="white">
<path d="M25 105.4H31V118.6H25V105.4Z"/>
</mask>
<path d="M25 105.4V106.4H31V105.4V104.4H25V105.4Z" fill="#2A292A" mask="url(#path-22-inside-8_3046_27408)"/>
<mask id="path-24-inside-9_3046_27408" fill="white">
<path d="M25 118.6H31V131.8H25V118.6Z"/>
</mask>
<path d="M25 118.6V119.6H31V118.6V117.6H25V118.6Z" fill="#2A292A" mask="url(#path-24-inside-9_3046_27408)"/>
<mask id="path-26-inside-10_3046_27408" fill="white">
<path d="M25 131.8H31V145H25V131.8Z"/>
</mask>
<path d="M25 131.8V132.8H31V131.8V130.8H25V131.8Z" fill="#2A292A" mask="url(#path-26-inside-10_3046_27408)"/>
<mask id="path-28-inside-11_3046_27408" fill="white">
<path d="M22 145H31V158.2H22V145Z"/>
</mask>
<path d="M22 145V146H31V145V144H22V145Z" fill="#2A292A" mask="url(#path-28-inside-11_3046_27408)"/>
<mask id="path-30-inside-12_3046_27408" fill="white">
<path d="M25 158.2H31V171.4H25V158.2Z"/>
</mask>
<path d="M25 158.2V159.2H31V158.2V157.2H25V158.2Z" fill="#2A292A" mask="url(#path-30-inside-12_3046_27408)"/>
<mask id="path-32-inside-13_3046_27408" fill="white">
<path d="M25 171.4H31V184.6H25V171.4Z"/>
</mask>
<path d="M25 171.4V172.4H31V171.4V170.4H25V171.4Z" fill="#2A292A" mask="url(#path-32-inside-13_3046_27408)"/>
<mask id="path-34-inside-14_3046_27408" fill="white">
<path d="M25 184.6H31V197.8H25V184.6Z"/>
</mask>
<path d="M25 184.6V185.6H31V184.6V183.6H25V184.6Z" fill="#2A292A" mask="url(#path-34-inside-14_3046_27408)"/>
<mask id="path-36-inside-15_3046_27408" fill="white">
<path d="M25 197.8H31V211H25V197.8Z"/>
</mask>
<path d="M25 197.8V198.8H31V197.8V196.8H25V197.8Z" fill="#2A292A" mask="url(#path-36-inside-15_3046_27408)"/>
<mask id="path-38-inside-16_3046_27408" fill="white">
<path d="M22 211H31V224H22V211Z"/>
</mask>
<path d="M22 211V212H31V211V210H22V211Z" fill="#2A292A" mask="url(#path-38-inside-16_3046_27408)"/>
<mask id="path-40-inside-17_3046_27408" fill="white">
<path d="M25 224H31V237H25V224Z"/>
</mask>
<path d="M25 224V225H31V224V223H25V224Z" fill="#2A292A" mask="url(#path-40-inside-17_3046_27408)"/>
<mask id="path-42-inside-18_3046_27408" fill="white">
<path d="M25 237H31V250H25V237Z"/>
</mask>
<path d="M25 237V238H31V237V236H25V237Z" fill="#2A292A" mask="url(#path-42-inside-18_3046_27408)"/>
<mask id="path-44-inside-19_3046_27408" fill="white">
<path d="M25 250H31V263H25V250Z"/>
</mask>
<path d="M25 250V251H31V250V249H25V250Z" fill="#2A292A" mask="url(#path-44-inside-19_3046_27408)"/>
<mask id="path-46-inside-20_3046_27408" fill="white">
<path d="M25 263H31V276H25V263Z"/>
</mask>
<path d="M25 263V264H31V263V262H25V263Z" fill="#2A292A" mask="url(#path-46-inside-20_3046_27408)"/>
<mask id="path-48-inside-21_3046_27408" fill="white">
<path d="M22 276H31V289.2H22V276Z"/>
</mask>
<path d="M22 276V277H31V276V275H22V276Z" fill="#2A292A" mask="url(#path-48-inside-21_3046_27408)"/>
<mask id="path-50-inside-22_3046_27408" fill="white">
<path d="M25 289.2H31V302.4H25V289.2Z"/>
</mask>
<path d="M25 289.2V290.2H31V289.2V288.2H25V289.2Z" fill="#2A292A" mask="url(#path-50-inside-22_3046_27408)"/>
<mask id="path-52-inside-23_3046_27408" fill="white">
<path d="M25 302.4H31V315.6H25V302.4Z"/>
</mask>
<path d="M25 302.4V303.4H31V302.4V301.4H25V302.4Z" fill="#2A292A" mask="url(#path-52-inside-23_3046_27408)"/>
<mask id="path-54-inside-24_3046_27408" fill="white">
<path d="M25 315.6H31V328.8H25V315.6Z"/>
</mask>
<path d="M25 315.6V316.6H31V315.6V314.6H25V315.6Z" fill="#2A292A" mask="url(#path-54-inside-24_3046_27408)"/>
<mask id="path-56-inside-25_3046_27408" fill="white">
<path d="M25 328.8H31V342H25V328.8Z"/>
</mask>
<path d="M25 328.8V329.8H31V328.8V327.8H25V328.8Z" fill="#2A292A" mask="url(#path-56-inside-25_3046_27408)"/>
<mask id="path-58-inside-26_3046_27408" fill="white">
<path d="M22 342H31V355.2H22V342Z"/>
</mask>
<path d="M22 342V343H31V342V341H22V342Z" fill="#2A292A" mask="url(#path-58-inside-26_3046_27408)"/>
<mask id="path-60-inside-27_3046_27408" fill="white">
<path d="M25 355.2H31V368.4H25V355.2Z"/>
</mask>
<path d="M25 355.2V356.2H31V355.2V354.2H25V355.2Z" fill="#2A292A" mask="url(#path-60-inside-27_3046_27408)"/>
<mask id="path-62-inside-28_3046_27408" fill="white">
<path d="M25 368.4H31V381.6H25V368.4Z"/>
</mask>
<path d="M25 368.4V369.4H31V368.4V367.4H25V368.4Z" fill="#2A292A" mask="url(#path-62-inside-28_3046_27408)"/>
<mask id="path-64-inside-29_3046_27408" fill="white">
<path d="M25 381.6H31V394.8H25V381.6Z"/>
</mask>
<path d="M25 381.6V382.6H31V381.6V380.6H25V381.6Z" fill="#2A292A" mask="url(#path-64-inside-29_3046_27408)"/>
<mask id="path-66-inside-30_3046_27408" fill="white">
<path d="M25 394.8H31V408H25V394.8Z"/>
</mask>
<path d="M25 394.8V395.8H31V394.8V393.8H25V394.8Z" fill="#2A292A" mask="url(#path-66-inside-30_3046_27408)"/>
<line x1="33" y1="13.5" x2="967" y2="13.5" stroke="#DFDFDF" stroke-dasharray="2 2"/>
<line x1="33" y1="79.5" x2="967" y2="79.5" stroke="#DFDFDF" stroke-dasharray="2 2"/>
<line x1="33" y1="145.5" x2="967" y2="145.5" stroke="#DFDFDF" stroke-dasharray="2 2"/>
<line x1="33" y1="211.5" x2="967" y2="211.5" stroke="#DFDFDF" stroke-dasharray="2 2"/>
<line x1="33" y1="276.5" x2="967" y2="276.5" stroke="#DFDFDF" stroke-dasharray="2 2"/>
<line x1="33" y1="342.5" x2="967" y2="342.5" stroke="#DFDFDF" stroke-dasharray="2 2"/>
<line x1="25" y1="407.5" x2="967" y2="407.5" stroke="#2A292A"/>
<path d="M69.652 438.314L68.518 438.104C68.8913 438.123 69.1993 437.987 69.442 437.698C69.694 437.409 69.8853 437.003 70.016 436.48C70.156 435.957 70.2587 435.346 70.324 434.646C70.3893 433.946 70.436 433.19 70.464 432.378L70.576 429.2H77.184V438.51H76.162V430.096H71.472L71.388 432.476C71.36 433.213 71.3133 433.923 71.248 434.604C71.192 435.276 71.0987 435.883 70.968 436.424C70.8467 436.956 70.6787 437.39 70.464 437.726C70.2587 438.062 69.988 438.258 69.652 438.314ZM68.154 441.198L68.168 438.104H78.654V441.198H77.688V439H69.134L69.12 441.198H68.154ZM83.3482 439.07C82.6388 439.07 81.9995 438.911 81.4302 438.594C80.8702 438.267 80.4268 437.824 80.1002 437.264C79.7735 436.695 79.6102 436.046 79.6102 435.318C79.6102 434.581 79.7735 433.932 80.1002 433.372C80.4268 432.812 80.8702 432.373 81.4302 432.056C81.9902 431.739 82.6295 431.58 83.3482 431.58C84.0762 431.58 84.7202 431.739 85.2802 432.056C85.8495 432.373 86.2928 432.812 86.6102 433.372C86.9368 433.932 87.1002 434.581 87.1002 435.318C87.1002 436.046 86.9368 436.695 86.6102 437.264C86.2928 437.824 85.8495 438.267 85.2802 438.594C84.7108 438.911 84.0668 439.07 83.3482 439.07ZM83.3482 438.188C83.8802 438.188 84.3515 438.071 84.7622 437.838C85.1728 437.595 85.4948 437.259 85.7282 436.83C85.9708 436.391 86.0922 435.887 86.0922 435.318C86.0922 434.739 85.9708 434.235 85.7282 433.806C85.4948 433.377 85.1728 433.045 84.7622 432.812C84.3515 432.569 83.8848 432.448 83.3622 432.448C82.8395 432.448 82.3728 432.569 81.9622 432.812C81.5515 433.045 81.2248 433.377 80.9822 433.806C80.7395 434.235 80.6182 434.739 80.6182 435.318C80.6182 435.887 80.7395 436.391 80.9822 436.83C81.2248 437.259 81.5515 437.595 81.9622 437.838C82.3728 438.071 82.8348 438.188 83.3482 438.188ZM94.2886 439V432.252L94.5406 432.518H91.5026V431.65H98.0686V432.518H95.0306L95.2826 432.252V439H94.2886ZM102.314 439.07C101.549 439.07 100.877 438.911 100.298 438.594C99.7193 438.267 99.2667 437.824 98.94 437.264C98.6133 436.695 98.45 436.046 98.45 435.318C98.45 434.59 98.604 433.946 98.912 433.386C99.2293 432.826 99.6587 432.387 100.2 432.07C100.751 431.743 101.367 431.58 102.048 431.58C102.739 431.58 103.35 431.739 103.882 432.056C104.423 432.364 104.848 432.803 105.156 433.372C105.464 433.932 105.618 434.581 105.618 435.318C105.618 435.365 105.613 435.416 105.604 435.472C105.604 435.519 105.604 435.57 105.604 435.626H99.206V434.884H105.072L104.68 435.178C104.68 434.646 104.563 434.175 104.33 433.764C104.106 433.344 103.798 433.017 103.406 432.784C103.014 432.551 102.561 432.434 102.048 432.434C101.544 432.434 101.091 432.551 100.69 432.784C100.289 433.017 99.976 433.344 99.752 433.764C99.528 434.184 99.416 434.665 99.416 435.206V435.36C99.416 435.92 99.5373 436.415 99.78 436.844C100.032 437.264 100.377 437.595 100.816 437.838C101.264 438.071 101.773 438.188 102.342 438.188C102.79 438.188 103.205 438.109 103.588 437.95C103.98 437.791 104.316 437.549 104.596 437.222L105.156 437.866C104.829 438.258 104.419 438.557 103.924 438.762C103.439 438.967 102.902 439.07 102.314 439.07ZM111.612 439.07C110.978 439.07 110.404 438.925 109.89 438.636C109.377 438.337 108.966 437.913 108.658 437.362C108.36 436.802 108.21 436.121 108.21 435.318C108.21 434.515 108.36 433.839 108.658 433.288C108.957 432.728 109.363 432.303 109.876 432.014C110.39 431.725 110.968 431.58 111.612 431.58C112.312 431.58 112.938 431.739 113.488 432.056C114.048 432.364 114.487 432.803 114.804 433.372C115.122 433.932 115.28 434.581 115.28 435.318C115.28 436.065 115.122 436.718 114.804 437.278C114.487 437.838 114.048 438.277 113.488 438.594C112.938 438.911 112.312 439.07 111.612 439.07ZM107.818 441.716V431.65H108.77V433.862L108.672 435.332L108.812 436.816V441.716H107.818ZM111.542 438.188C112.065 438.188 112.532 438.071 112.942 437.838C113.353 437.595 113.68 437.259 113.922 436.83C114.165 436.391 114.286 435.887 114.286 435.318C114.286 434.749 114.165 434.249 113.922 433.82C113.68 433.391 113.353 433.055 112.942 432.812C112.532 432.569 112.065 432.448 111.542 432.448C111.02 432.448 110.548 432.569 110.128 432.812C109.718 433.055 109.391 433.391 109.148 433.82C108.915 434.249 108.798 434.749 108.798 435.318C108.798 435.887 108.915 436.391 109.148 436.83C109.391 437.259 109.718 437.595 110.128 437.838C110.548 438.071 111.02 438.188 111.542 438.188ZM121.939 439V437.376L121.897 437.11V434.394C121.897 433.769 121.72 433.288 121.365 432.952C121.02 432.616 120.502 432.448 119.811 432.448C119.335 432.448 118.882 432.527 118.453 432.686C118.024 432.845 117.66 433.055 117.361 433.316L116.913 432.574C117.286 432.257 117.734 432.014 118.257 431.846C118.78 431.669 119.33 431.58 119.909 431.58C120.861 431.58 121.594 431.818 122.107 432.294C122.63 432.761 122.891 433.475 122.891 434.436V439H121.939ZM119.405 439.07C118.854 439.07 118.374 438.981 117.963 438.804C117.562 438.617 117.254 438.365 117.039 438.048C116.824 437.721 116.717 437.348 116.717 436.928C116.717 436.545 116.806 436.2 116.983 435.892C117.17 435.575 117.468 435.323 117.879 435.136C118.299 434.94 118.859 434.842 119.559 434.842H122.093V435.584H119.587C118.878 435.584 118.383 435.71 118.103 435.962C117.832 436.214 117.697 436.527 117.697 436.9C117.697 437.32 117.86 437.656 118.187 437.908C118.514 438.16 118.971 438.286 119.559 438.286C120.119 438.286 120.6 438.16 121.001 437.908C121.412 437.647 121.71 437.273 121.897 436.788L122.121 437.474C121.934 437.959 121.608 438.347 121.141 438.636C120.684 438.925 120.105 439.07 119.405 439.07ZM125.537 439V431.65H132.145V439H131.151V432.252L131.403 432.518H126.279L126.531 432.252V439H125.537ZM134.971 439V431.65H135.965V437.488L140.879 431.65H141.761V439H140.767V433.148L135.867 439H134.971ZM144.609 439V431.65H145.603V437.488L150.517 431.65H151.399V439H150.405V433.148L145.505 439H144.609Z" fill="#8D8D8D"/>
<path d="M537.652 438.314L536.518 438.104C536.891 438.123 537.199 437.987 537.442 437.698C537.694 437.409 537.885 437.003 538.016 436.48C538.156 435.957 538.259 435.346 538.324 434.646C538.389 433.946 538.436 433.19 538.464 432.378L538.576 429.2H545.184V438.51H544.162V430.096H539.472L539.388 432.476C539.36 433.213 539.313 433.923 539.248 434.604C539.192 435.276 539.099 435.883 538.968 436.424C538.847 436.956 538.679 437.39 538.464 437.726C538.259 438.062 537.988 438.258 537.652 438.314ZM536.154 441.198L536.168 438.104H546.654V441.198H545.688V439H537.134L537.12 441.198H536.154ZM551.348 439.07C550.639 439.07 549.999 438.911 549.43 438.594C548.87 438.267 548.427 437.824 548.1 437.264C547.773 436.695 547.61 436.046 547.61 435.318C547.61 434.581 547.773 433.932 548.1 433.372C548.427 432.812 548.87 432.373 549.43 432.056C549.99 431.739 550.629 431.58 551.348 431.58C552.076 431.58 552.72 431.739 553.28 432.056C553.849 432.373 554.293 432.812 554.61 433.372C554.937 433.932 555.1 434.581 555.1 435.318C555.1 436.046 554.937 436.695 554.61 437.264C554.293 437.824 553.849 438.267 553.28 438.594C552.711 438.911 552.067 439.07 551.348 439.07ZM551.348 438.188C551.88 438.188 552.351 438.071 552.762 437.838C553.173 437.595 553.495 437.259 553.728 436.83C553.971 436.391 554.092 435.887 554.092 435.318C554.092 434.739 553.971 434.235 553.728 433.806C553.495 433.377 553.173 433.045 552.762 432.812C552.351 432.569 551.885 432.448 551.362 432.448C550.839 432.448 550.373 432.569 549.962 432.812C549.551 433.045 549.225 433.377 548.982 433.806C548.739 434.235 548.618 434.739 548.618 435.318C548.618 435.887 548.739 436.391 548.982 436.83C549.225 437.259 549.551 437.595 549.962 437.838C550.373 438.071 550.835 438.188 551.348 438.188ZM562.289 439V432.252L562.541 432.518H559.503V431.65H566.069V432.518H563.031L563.283 432.252V439H562.289ZM570.314 439.07C569.549 439.07 568.877 438.911 568.298 438.594C567.719 438.267 567.267 437.824 566.94 437.264C566.613 436.695 566.45 436.046 566.45 435.318C566.45 434.59 566.604 433.946 566.912 433.386C567.229 432.826 567.659 432.387 568.2 432.07C568.751 431.743 569.367 431.58 570.048 431.58C570.739 431.58 571.35 431.739 571.882 432.056C572.423 432.364 572.848 432.803 573.156 433.372C573.464 433.932 573.618 434.581 573.618 435.318C573.618 435.365 573.613 435.416 573.604 435.472C573.604 435.519 573.604 435.57 573.604 435.626H567.206V434.884H573.072L572.68 435.178C572.68 434.646 572.563 434.175 572.33 433.764C572.106 433.344 571.798 433.017 571.406 432.784C571.014 432.551 570.561 432.434 570.048 432.434C569.544 432.434 569.091 432.551 568.69 432.784C568.289 433.017 567.976 433.344 567.752 433.764C567.528 434.184 567.416 434.665 567.416 435.206V435.36C567.416 435.92 567.537 436.415 567.78 436.844C568.032 437.264 568.377 437.595 568.816 437.838C569.264 438.071 569.773 438.188 570.342 438.188C570.79 438.188 571.205 438.109 571.588 437.95C571.98 437.791 572.316 437.549 572.596 437.222L573.156 437.866C572.829 438.258 572.419 438.557 571.924 438.762C571.439 438.967 570.902 439.07 570.314 439.07ZM579.612 439.07C578.978 439.07 578.404 438.925 577.89 438.636C577.377 438.337 576.966 437.913 576.658 437.362C576.36 436.802 576.21 436.121 576.21 435.318C576.21 434.515 576.36 433.839 576.658 433.288C576.957 432.728 577.363 432.303 577.876 432.014C578.39 431.725 578.968 431.58 579.612 431.58C580.312 431.58 580.938 431.739 581.488 432.056C582.048 432.364 582.487 432.803 582.804 433.372C583.122 433.932 583.28 434.581 583.28 435.318C583.28 436.065 583.122 436.718 582.804 437.278C582.487 437.838 582.048 438.277 581.488 438.594C580.938 438.911 580.312 439.07 579.612 439.07ZM575.818 441.716V431.65H576.77V433.862L576.672 435.332L576.812 436.816V441.716H575.818ZM579.542 438.188C580.065 438.188 580.532 438.071 580.942 437.838C581.353 437.595 581.68 437.259 581.922 436.83C582.165 436.391 582.286 435.887 582.286 435.318C582.286 434.749 582.165 434.249 581.922 433.82C581.68 433.391 581.353 433.055 580.942 432.812C580.532 432.569 580.065 432.448 579.542 432.448C579.02 432.448 578.548 432.569 578.128 432.812C577.718 433.055 577.391 433.391 577.148 433.82C576.915 434.249 576.798 434.749 576.798 435.318C576.798 435.887 576.915 436.391 577.148 436.83C577.391 437.259 577.718 437.595 578.128 437.838C578.548 438.071 579.02 438.188 579.542 438.188ZM589.939 439V437.376L589.897 437.11V434.394C589.897 433.769 589.72 433.288 589.365 432.952C589.02 432.616 588.502 432.448 587.811 432.448C587.335 432.448 586.882 432.527 586.453 432.686C586.024 432.845 585.66 433.055 585.361 433.316L584.913 432.574C585.286 432.257 585.734 432.014 586.257 431.846C586.78 431.669 587.33 431.58 587.909 431.58C588.861 431.58 589.594 431.818 590.107 432.294C590.63 432.761 590.891 433.475 590.891 434.436V439H589.939ZM587.405 439.07C586.854 439.07 586.374 438.981 585.963 438.804C585.562 438.617 585.254 438.365 585.039 438.048C584.824 437.721 584.717 437.348 584.717 436.928C584.717 436.545 584.806 436.2 584.983 435.892C585.17 435.575 585.468 435.323 585.879 435.136C586.299 434.94 586.859 434.842 587.559 434.842H590.093V435.584H587.587C586.878 435.584 586.383 435.71 586.103 435.962C585.832 436.214 585.697 436.527 585.697 436.9C585.697 437.32 585.86 437.656 586.187 437.908C586.514 438.16 586.971 438.286 587.559 438.286C588.119 438.286 588.6 438.16 589.001 437.908C589.412 437.647 589.71 437.273 589.897 436.788L590.121 437.474C589.934 437.959 589.608 438.347 589.141 438.636C588.684 438.925 588.105 439.07 587.405 439.07ZM593.537 439V431.65H600.145V439H599.151V432.252L599.403 432.518H594.279L594.531 432.252V439H593.537ZM602.971 439V431.65H603.965V437.488L608.879 431.65H609.761V439H608.767V433.148L603.867 439H602.971ZM612.609 439V431.65H613.603V437.488L618.517 431.65H619.399V439H618.405V433.148L613.505 439H612.609Z" fill="#8D8D8D"/>
<path d="M235.654 439.084C234.945 439.084 234.273 438.972 233.638 438.748C233.013 438.515 232.509 438.207 232.126 437.824L232.616 437.026C232.933 437.353 233.358 437.623 233.89 437.838C234.431 438.053 235.019 438.16 235.654 438.16C236.466 438.16 237.087 437.983 237.516 437.628C237.955 437.273 238.174 436.797 238.174 436.2C238.174 435.603 237.959 435.127 237.53 434.772C237.11 434.417 236.443 434.24 235.528 434.24H234.828V433.498L237.852 429.704L237.992 430.096H232.532V429.2H238.832V429.914L235.808 433.708L235.318 433.386H235.696C236.872 433.386 237.749 433.647 238.328 434.17C238.916 434.693 239.21 435.365 239.21 436.186C239.21 436.737 239.079 437.231 238.818 437.67C238.557 438.109 238.16 438.454 237.628 438.706C237.105 438.958 236.447 439.084 235.654 439.084ZM244.98 439V431.65H245.988L249.32 437.292H248.9L252.288 431.65H253.212V439H252.302V432.784L252.484 432.868L249.32 438.104H248.872L245.68 432.812L245.89 432.77V439H244.98ZM259.191 439.07C258.426 439.07 257.754 438.911 257.175 438.594C256.596 438.267 256.144 437.824 255.817 437.264C255.49 436.695 255.327 436.046 255.327 435.318C255.327 434.59 255.481 433.946 255.789 433.386C256.106 432.826 256.536 432.387 257.077 432.07C257.628 431.743 258.244 431.58 258.925 431.58C259.616 431.58 260.227 431.739 260.759 432.056C261.3 432.364 261.725 432.803 262.033 433.372C262.341 433.932 262.495 434.581 262.495 435.318C262.495 435.365 262.49 435.416 262.481 435.472C262.481 435.519 262.481 435.57 262.481 435.626H256.083V434.884H261.949L261.557 435.178C261.557 434.646 261.44 434.175 261.207 433.764C260.983 433.344 260.675 433.017 260.283 432.784C259.891 432.551 259.438 432.434 258.925 432.434C258.421 432.434 257.968 432.551 257.567 432.784C257.166 433.017 256.853 433.344 256.629 433.764C256.405 434.184 256.293 434.665 256.293 435.206V435.36C256.293 435.92 256.414 436.415 256.657 436.844C256.909 437.264 257.254 437.595 257.693 437.838C258.141 438.071 258.65 438.188 259.219 438.188C259.667 438.188 260.082 438.109 260.465 437.95C260.857 437.791 261.193 437.549 261.473 437.222L262.033 437.866C261.706 438.258 261.296 438.557 260.801 438.762C260.316 438.967 259.779 439.07 259.191 439.07ZM267.775 439.07C267.047 439.07 266.394 438.911 265.815 438.594C265.246 438.267 264.798 437.824 264.471 437.264C264.145 436.695 263.981 436.046 263.981 435.318C263.981 434.581 264.145 433.932 264.471 433.372C264.798 432.812 265.246 432.373 265.815 432.056C266.394 431.739 267.047 431.58 267.775 431.58C268.401 431.58 268.965 431.701 269.469 431.944C269.973 432.187 270.37 432.551 270.659 433.036L269.917 433.54C269.665 433.167 269.353 432.891 268.979 432.714C268.606 432.537 268.2 432.448 267.761 432.448C267.239 432.448 266.767 432.569 266.347 432.812C265.927 433.045 265.596 433.377 265.353 433.806C265.111 434.235 264.989 434.739 264.989 435.318C264.989 435.897 265.111 436.401 265.353 436.83C265.596 437.259 265.927 437.595 266.347 437.838C266.767 438.071 267.239 438.188 267.761 438.188C268.2 438.188 268.606 438.099 268.979 437.922C269.353 437.745 269.665 437.474 269.917 437.11L270.659 437.614C270.37 438.09 269.973 438.454 269.469 438.706C268.965 438.949 268.401 439.07 267.775 439.07ZM277.084 439V436.354L277.266 436.564H274.774C273.831 436.564 273.094 436.359 272.562 435.948C272.03 435.537 271.764 434.94 271.764 434.156C271.764 433.316 272.048 432.691 272.618 432.28C273.187 431.86 273.948 431.65 274.9 431.65H277.994V439H277.084ZM271.708 439L273.724 436.172H274.76L272.786 439H271.708ZM277.084 436.06V432.224L277.266 432.518H274.928C274.246 432.518 273.714 432.649 273.332 432.91C272.958 433.171 272.772 433.596 272.772 434.184C272.772 435.276 273.467 435.822 274.858 435.822H277.266L277.084 436.06ZM280.828 439V431.65H281.822V438.132H286.316V431.65H287.31V439H280.828ZM287.562 440.778V438.916L287.814 439H286.316V438.132H288.5V440.778H287.562ZM294.962 439V437.376L294.92 437.11V434.394C294.92 433.769 294.743 433.288 294.388 432.952C294.043 432.616 293.525 432.448 292.834 432.448C292.358 432.448 291.906 432.527 291.476 432.686C291.047 432.845 290.683 433.055 290.384 433.316L289.936 432.574C290.31 432.257 290.758 432.014 291.28 431.846C291.803 431.669 292.354 431.58 292.932 431.58C293.884 431.58 294.617 431.818 295.13 432.294C295.653 432.761 295.914 433.475 295.914 434.436V439H294.962ZM292.428 439.07C291.878 439.07 291.397 438.981 290.986 438.804C290.585 438.617 290.277 438.365 290.062 438.048C289.848 437.721 289.74 437.348 289.74 436.928C289.74 436.545 289.829 436.2 290.006 435.892C290.193 435.575 290.492 435.323 290.902 435.136C291.322 434.94 291.882 434.842 292.582 434.842H295.116V435.584H292.61C291.901 435.584 291.406 435.71 291.126 435.962C290.856 436.214 290.72 436.527 290.72 436.9C290.72 437.32 290.884 437.656 291.21 437.908C291.537 438.16 291.994 438.286 292.582 438.286C293.142 438.286 293.623 438.16 294.024 437.908C294.435 437.647 294.734 437.273 294.92 436.788L295.144 437.474C294.958 437.959 294.631 438.347 294.164 438.636C293.707 438.925 293.128 439.07 292.428 439.07Z" fill="#8D8D8D"/>
<path d="M703.654 439.084C702.945 439.084 702.273 438.972 701.638 438.748C701.013 438.515 700.509 438.207 700.126 437.824L700.616 437.026C700.933 437.353 701.358 437.623 701.89 437.838C702.431 438.053 703.019 438.16 703.654 438.16C704.466 438.16 705.087 437.983 705.516 437.628C705.955 437.273 706.174 436.797 706.174 436.2C706.174 435.603 705.959 435.127 705.53 434.772C705.11 434.417 704.443 434.24 703.528 434.24H702.828V433.498L705.852 429.704L705.992 430.096H700.532V429.2H706.832V429.914L703.808 433.708L703.318 433.386H703.696C704.872 433.386 705.749 433.647 706.328 434.17C706.916 434.693 707.21 435.365 707.21 436.186C707.21 436.737 707.079 437.231 706.818 437.67C706.557 438.109 706.16 438.454 705.628 438.706C705.105 438.958 704.447 439.084 703.654 439.084ZM712.98 439V431.65H713.988L717.32 437.292H716.9L720.288 431.65H721.212V439H720.302V432.784L720.484 432.868L717.32 438.104H716.872L713.68 432.812L713.89 432.77V439H712.98ZM727.191 439.07C726.426 439.07 725.754 438.911 725.175 438.594C724.596 438.267 724.144 437.824 723.817 437.264C723.49 436.695 723.327 436.046 723.327 435.318C723.327 434.59 723.481 433.946 723.789 433.386C724.106 432.826 724.536 432.387 725.077 432.07C725.628 431.743 726.244 431.58 726.925 431.58C727.616 431.58 728.227 431.739 728.759 432.056C729.3 432.364 729.725 432.803 730.033 433.372C730.341 433.932 730.495 434.581 730.495 435.318C730.495 435.365 730.49 435.416 730.481 435.472C730.481 435.519 730.481 435.57 730.481 435.626H724.083V434.884H729.949L729.557 435.178C729.557 434.646 729.44 434.175 729.207 433.764C728.983 433.344 728.675 433.017 728.283 432.784C727.891 432.551 727.438 432.434 726.925 432.434C726.421 432.434 725.968 432.551 725.567 432.784C725.166 433.017 724.853 433.344 724.629 433.764C724.405 434.184 724.293 434.665 724.293 435.206V435.36C724.293 435.92 724.414 436.415 724.657 436.844C724.909 437.264 725.254 437.595 725.693 437.838C726.141 438.071 726.65 438.188 727.219 438.188C727.667 438.188 728.082 438.109 728.465 437.95C728.857 437.791 729.193 437.549 729.473 437.222L730.033 437.866C729.706 438.258 729.296 438.557 728.801 438.762C728.316 438.967 727.779 439.07 727.191 439.07ZM735.775 439.07C735.047 439.07 734.394 438.911 733.815 438.594C733.246 438.267 732.798 437.824 732.471 437.264C732.145 436.695 731.981 436.046 731.981 435.318C731.981 434.581 732.145 433.932 732.471 433.372C732.798 432.812 733.246 432.373 733.815 432.056C734.394 431.739 735.047 431.58 735.775 431.58C736.401 431.58 736.965 431.701 737.469 431.944C737.973 432.187 738.37 432.551 738.659 433.036L737.917 433.54C737.665 433.167 737.353 432.891 736.979 432.714C736.606 432.537 736.2 432.448 735.761 432.448C735.239 432.448 734.767 432.569 734.347 432.812C733.927 433.045 733.596 433.377 733.353 433.806C733.111 434.235 732.989 434.739 732.989 435.318C732.989 435.897 733.111 436.401 733.353 436.83C733.596 437.259 733.927 437.595 734.347 437.838C734.767 438.071 735.239 438.188 735.761 438.188C736.2 438.188 736.606 438.099 736.979 437.922C737.353 437.745 737.665 437.474 737.917 437.11L738.659 437.614C738.37 438.09 737.973 438.454 737.469 438.706C736.965 438.949 736.401 439.07 735.775 439.07ZM745.084 439V436.354L745.266 436.564H742.774C741.831 436.564 741.094 436.359 740.562 435.948C740.03 435.537 739.764 434.94 739.764 434.156C739.764 433.316 740.048 432.691 740.618 432.28C741.187 431.86 741.948 431.65 742.9 431.65H745.994V439H745.084ZM739.708 439L741.724 436.172H742.76L740.786 439H739.708ZM745.084 436.06V432.224L745.266 432.518H742.928C742.246 432.518 741.714 432.649 741.332 432.91C740.958 433.171 740.772 433.596 740.772 434.184C740.772 435.276 741.467 435.822 742.858 435.822H745.266L745.084 436.06ZM748.828 439V431.65H749.822V438.132H754.316V431.65H755.31V439H748.828ZM755.562 440.778V438.916L755.814 439H754.316V438.132H756.5V440.778H755.562ZM762.962 439V437.376L762.92 437.11V434.394C762.92 433.769 762.743 433.288 762.388 432.952C762.043 432.616 761.525 432.448 760.834 432.448C760.358 432.448 759.906 432.527 759.476 432.686C759.047 432.845 758.683 433.055 758.384 433.316L757.936 432.574C758.31 432.257 758.758 432.014 759.28 431.846C759.803 431.669 760.354 431.58 760.932 431.58C761.884 431.58 762.617 431.818 763.13 432.294C763.653 432.761 763.914 433.475 763.914 434.436V439H762.962ZM760.428 439.07C759.878 439.07 759.397 438.981 758.986 438.804C758.585 438.617 758.277 438.365 758.062 438.048C757.848 437.721 757.74 437.348 757.74 436.928C757.74 436.545 757.829 436.2 758.006 435.892C758.193 435.575 758.492 435.323 758.902 435.136C759.322 434.94 759.882 434.842 760.582 434.842H763.116V435.584H760.61C759.901 435.584 759.406 435.71 759.126 435.962C758.856 436.214 758.72 436.527 758.72 436.9C758.72 437.32 758.884 437.656 759.21 437.908C759.537 438.16 759.994 438.286 760.582 438.286C761.142 438.286 761.623 438.16 762.024 437.908C762.435 437.647 762.734 437.273 762.92 436.788L763.144 437.474C762.958 437.959 762.631 438.347 762.164 438.636C761.707 438.925 761.128 439.07 760.428 439.07Z" fill="#8D8D8D"/>
<path d="M385.746 439.084C384.878 439.084 384.145 438.893 383.548 438.51C382.951 438.118 382.498 437.558 382.19 436.83C381.882 436.093 381.728 435.211 381.728 434.184C381.728 433.073 381.915 432.145 382.288 431.398C382.671 430.642 383.198 430.073 383.87 429.69C384.542 429.307 385.321 429.116 386.208 429.116C386.647 429.116 387.067 429.158 387.468 429.242C387.869 429.326 388.224 429.461 388.532 429.648L388.126 430.46C387.874 430.292 387.585 430.175 387.258 430.11C386.931 430.035 386.586 429.998 386.222 429.998C385.167 429.998 384.323 430.334 383.688 431.006C383.063 431.678 382.75 432.681 382.75 434.016C382.75 434.221 382.759 434.478 382.778 434.786C382.806 435.085 382.862 435.383 382.946 435.682L382.596 435.416C382.699 434.931 382.899 434.52 383.198 434.184C383.497 433.839 383.87 433.577 384.318 433.4C384.766 433.223 385.256 433.134 385.788 433.134C386.441 433.134 387.015 433.255 387.51 433.498C388.005 433.741 388.392 434.081 388.672 434.52C388.952 434.959 389.092 435.477 389.092 436.074C389.092 436.681 388.947 437.213 388.658 437.67C388.369 438.118 387.967 438.468 387.454 438.72C386.95 438.963 386.381 439.084 385.746 439.084ZM385.704 438.23C386.171 438.23 386.581 438.146 386.936 437.978C387.3 437.801 387.585 437.553 387.79 437.236C387.995 436.909 388.098 436.531 388.098 436.102C388.098 435.458 387.874 434.945 387.426 434.562C386.987 434.179 386.39 433.988 385.634 433.988C385.13 433.988 384.691 434.081 384.318 434.268C383.945 434.455 383.651 434.711 383.436 435.038C383.221 435.355 383.114 435.719 383.114 436.13C383.114 436.485 383.212 436.825 383.408 437.152C383.604 437.469 383.893 437.731 384.276 437.936C384.668 438.132 385.144 438.23 385.704 438.23ZM394.609 439V431.65H395.617L398.949 437.292H398.529L401.917 431.65H402.841V439H401.931V432.784L402.113 432.868L398.949 438.104H398.501L395.309 432.812L395.519 432.77V439H394.609ZM408.82 439.07C408.055 439.07 407.383 438.911 406.804 438.594C406.225 438.267 405.773 437.824 405.446 437.264C405.119 436.695 404.956 436.046 404.956 435.318C404.956 434.59 405.11 433.946 405.418 433.386C405.735 432.826 406.165 432.387 406.706 432.07C407.257 431.743 407.873 431.58 408.554 431.58C409.245 431.58 409.856 431.739 410.388 432.056C410.929 432.364 411.354 432.803 411.662 433.372C411.97 433.932 412.124 434.581 412.124 435.318C412.124 435.365 412.119 435.416 412.11 435.472C412.11 435.519 412.11 435.57 412.11 435.626H405.712V434.884H411.578L411.186 435.178C411.186 434.646 411.069 434.175 410.836 433.764C410.612 433.344 410.304 433.017 409.912 432.784C409.52 432.551 409.067 432.434 408.554 432.434C408.05 432.434 407.597 432.551 407.196 432.784C406.795 433.017 406.482 433.344 406.258 433.764C406.034 434.184 405.922 434.665 405.922 435.206V435.36C405.922 435.92 406.043 436.415 406.286 436.844C406.538 437.264 406.883 437.595 407.322 437.838C407.77 438.071 408.279 438.188 408.848 438.188C409.296 438.188 409.711 438.109 410.094 437.95C410.486 437.791 410.822 437.549 411.102 437.222L411.662 437.866C411.335 438.258 410.925 438.557 410.43 438.762C409.945 438.967 409.408 439.07 408.82 439.07ZM417.404 439.07C416.676 439.07 416.023 438.911 415.444 438.594C414.875 438.267 414.427 437.824 414.1 437.264C413.773 436.695 413.61 436.046 413.61 435.318C413.61 434.581 413.773 433.932 414.1 433.372C414.427 432.812 414.875 432.373 415.444 432.056C416.023 431.739 416.676 431.58 417.404 431.58C418.029 431.58 418.594 431.701 419.098 431.944C419.602 432.187 419.999 432.551 420.288 433.036L419.546 433.54C419.294 433.167 418.981 432.891 418.608 432.714C418.235 432.537 417.829 432.448 417.39 432.448C416.867 432.448 416.396 432.569 415.976 432.812C415.556 433.045 415.225 433.377 414.982 433.806C414.739 434.235 414.618 434.739 414.618 435.318C414.618 435.897 414.739 436.401 414.982 436.83C415.225 437.259 415.556 437.595 415.976 437.838C416.396 438.071 416.867 438.188 417.39 438.188C417.829 438.188 418.235 438.099 418.608 437.922C418.981 437.745 419.294 437.474 419.546 437.11L420.288 437.614C419.999 438.09 419.602 438.454 419.098 438.706C418.594 438.949 418.029 439.07 417.404 439.07ZM426.713 439V436.354L426.895 436.564H424.403C423.46 436.564 422.723 436.359 422.191 435.948C421.659 435.537 421.393 434.94 421.393 434.156C421.393 433.316 421.677 432.691 422.247 432.28C422.816 431.86 423.577 431.65 424.529 431.65H427.623V439H426.713ZM421.337 439L423.353 436.172H424.389L422.415 439H421.337ZM426.713 436.06V432.224L426.895 432.518H424.557C423.875 432.518 423.343 432.649 422.961 432.91C422.587 433.171 422.401 433.596 422.401 434.184C422.401 435.276 423.096 435.822 424.487 435.822H426.895L426.713 436.06ZM430.457 439V431.65H431.451V438.132H435.945V431.65H436.939V439H430.457ZM437.191 440.778V438.916L437.443 439H435.945V438.132H438.129V440.778H437.191ZM443.177 439.07C442.412 439.07 441.74 438.911 441.161 438.594C440.583 438.267 440.13 437.824 439.803 437.264C439.477 436.695 439.313 436.046 439.313 435.318C439.313 434.59 439.467 433.946 439.775 433.386C440.093 432.826 440.522 432.387 441.063 432.07C441.614 431.743 442.23 431.58 442.911 431.58C443.602 431.58 444.213 431.739 444.745 432.056C445.287 432.364 445.711 432.803 446.019 433.372C446.327 433.932 446.481 434.581 446.481 435.318C446.481 435.365 446.477 435.416 446.467 435.472C446.467 435.519 446.467 435.57 446.467 435.626H440.069V434.884H445.935L445.543 435.178C445.543 434.646 445.427 434.175 445.193 433.764C444.969 433.344 444.661 433.017 444.269 432.784C443.877 432.551 443.425 432.434 442.911 432.434C442.407 432.434 441.955 432.551 441.553 432.784C441.152 433.017 440.839 433.344 440.615 433.764C440.391 434.184 440.279 434.665 440.279 435.206V435.36C440.279 435.92 440.401 436.415 440.643 436.844C440.895 437.264 441.241 437.595 441.679 437.838C442.127 438.071 442.636 438.188 443.205 438.188C443.653 438.188 444.069 438.109 444.451 437.95C444.843 437.791 445.179 437.549 445.459 437.222L446.019 437.866C445.693 438.258 445.282 438.557 444.787 438.762C444.302 438.967 443.765 439.07 443.177 439.07ZM448.682 439V431.65H451.93C452.76 431.65 453.414 431.809 453.89 432.126C454.375 432.443 454.618 432.91 454.618 433.526C454.618 434.123 454.389 434.585 453.932 434.912C453.474 435.229 452.872 435.388 452.126 435.388L452.322 435.094C453.199 435.094 453.843 435.257 454.254 435.584C454.664 435.911 454.87 436.382 454.87 436.998C454.87 437.633 454.636 438.127 454.17 438.482C453.712 438.827 452.998 439 452.028 439H448.682ZM449.648 438.216H451.986C452.611 438.216 453.082 438.118 453.4 437.922C453.726 437.717 453.89 437.39 453.89 436.942C453.89 436.494 453.745 436.167 453.456 435.962C453.166 435.757 452.709 435.654 452.084 435.654H449.648V438.216ZM449.648 434.912H451.86C452.429 434.912 452.863 434.805 453.162 434.59C453.47 434.375 453.624 434.063 453.624 433.652C453.624 433.241 453.47 432.933 453.162 432.728C452.863 432.523 452.429 432.42 451.86 432.42H449.648V434.912Z" fill="#8D8D8D"/>
<path d="M853.746 439.084C852.878 439.084 852.145 438.893 851.548 438.51C850.951 438.118 850.498 437.558 850.19 436.83C849.882 436.093 849.728 435.211 849.728 434.184C849.728 433.073 849.915 432.145 850.288 431.398C850.671 430.642 851.198 430.073 851.87 429.69C852.542 429.307 853.321 429.116 854.208 429.116C854.647 429.116 855.067 429.158 855.468 429.242C855.869 429.326 856.224 429.461 856.532 429.648L856.126 430.46C855.874 430.292 855.585 430.175 855.258 430.11C854.931 430.035 854.586 429.998 854.222 429.998C853.167 429.998 852.323 430.334 851.688 431.006C851.063 431.678 850.75 432.681 850.75 434.016C850.75 434.221 850.759 434.478 850.778 434.786C850.806 435.085 850.862 435.383 850.946 435.682L850.596 435.416C850.699 434.931 850.899 434.52 851.198 434.184C851.497 433.839 851.87 433.577 852.318 433.4C852.766 433.223 853.256 433.134 853.788 433.134C854.441 433.134 855.015 433.255 855.51 433.498C856.005 433.741 856.392 434.081 856.672 434.52C856.952 434.959 857.092 435.477 857.092 436.074C857.092 436.681 856.947 437.213 856.658 437.67C856.369 438.118 855.967 438.468 855.454 438.72C854.95 438.963 854.381 439.084 853.746 439.084ZM853.704 438.23C854.171 438.23 854.581 438.146 854.936 437.978C855.3 437.801 855.585 437.553 855.79 437.236C855.995 436.909 856.098 436.531 856.098 436.102C856.098 435.458 855.874 434.945 855.426 434.562C854.987 434.179 854.39 433.988 853.634 433.988C853.13 433.988 852.691 434.081 852.318 434.268C851.945 434.455 851.651 434.711 851.436 435.038C851.221 435.355 851.114 435.719 851.114 436.13C851.114 436.485 851.212 436.825 851.408 437.152C851.604 437.469 851.893 437.731 852.276 437.936C852.668 438.132 853.144 438.23 853.704 438.23ZM862.609 439V431.65H863.617L866.949 437.292H866.529L869.917 431.65H870.841V439H869.931V432.784L870.113 432.868L866.949 438.104H866.501L863.309 432.812L863.519 432.77V439H862.609ZM876.82 439.07C876.055 439.07 875.383 438.911 874.804 438.594C874.225 438.267 873.773 437.824 873.446 437.264C873.119 436.695 872.956 436.046 872.956 435.318C872.956 434.59 873.11 433.946 873.418 433.386C873.735 432.826 874.165 432.387 874.706 432.07C875.257 431.743 875.873 431.58 876.554 431.58C877.245 431.58 877.856 431.739 878.388 432.056C878.929 432.364 879.354 432.803 879.662 433.372C879.97 433.932 880.124 434.581 880.124 435.318C880.124 435.365 880.119 435.416 880.11 435.472C880.11 435.519 880.11 435.57 880.11 435.626H873.712V434.884H879.578L879.186 435.178C879.186 434.646 879.069 434.175 878.836 433.764C878.612 433.344 878.304 433.017 877.912 432.784C877.52 432.551 877.067 432.434 876.554 432.434C876.05 432.434 875.597 432.551 875.196 432.784C874.795 433.017 874.482 433.344 874.258 433.764C874.034 434.184 873.922 434.665 873.922 435.206V435.36C873.922 435.92 874.043 436.415 874.286 436.844C874.538 437.264 874.883 437.595 875.322 437.838C875.77 438.071 876.279 438.188 876.848 438.188C877.296 438.188 877.711 438.109 878.094 437.95C878.486 437.791 878.822 437.549 879.102 437.222L879.662 437.866C879.335 438.258 878.925 438.557 878.43 438.762C877.945 438.967 877.408 439.07 876.82 439.07ZM885.404 439.07C884.676 439.07 884.023 438.911 883.444 438.594C882.875 438.267 882.427 437.824 882.1 437.264C881.773 436.695 881.61 436.046 881.61 435.318C881.61 434.581 881.773 433.932 882.1 433.372C882.427 432.812 882.875 432.373 883.444 432.056C884.023 431.739 884.676 431.58 885.404 431.58C886.029 431.58 886.594 431.701 887.098 431.944C887.602 432.187 887.999 432.551 888.288 433.036L887.546 433.54C887.294 433.167 886.981 432.891 886.608 432.714C886.235 432.537 885.829 432.448 885.39 432.448C884.867 432.448 884.396 432.569 883.976 432.812C883.556 433.045 883.225 433.377 882.982 433.806C882.739 434.235 882.618 434.739 882.618 435.318C882.618 435.897 882.739 436.401 882.982 436.83C883.225 437.259 883.556 437.595 883.976 437.838C884.396 438.071 884.867 438.188 885.39 438.188C885.829 438.188 886.235 438.099 886.608 437.922C886.981 437.745 887.294 437.474 887.546 437.11L888.288 437.614C887.999 438.09 887.602 438.454 887.098 438.706C886.594 438.949 886.029 439.07 885.404 439.07ZM894.713 439V436.354L894.895 436.564H892.403C891.46 436.564 890.723 436.359 890.191 435.948C889.659 435.537 889.393 434.94 889.393 434.156C889.393 433.316 889.677 432.691 890.247 432.28C890.816 431.86 891.577 431.65 892.529 431.65H895.623V439H894.713ZM889.337 439L891.353 436.172H892.389L890.415 439H889.337ZM894.713 436.06V432.224L894.895 432.518H892.557C891.875 432.518 891.343 432.649 890.961 432.91C890.587 433.171 890.401 433.596 890.401 434.184C890.401 435.276 891.096 435.822 892.487 435.822H894.895L894.713 436.06ZM898.457 439V431.65H899.451V438.132H903.945V431.65H904.939V439H898.457ZM905.191 440.778V438.916L905.443 439H903.945V438.132H906.129V440.778H905.191ZM911.177 439.07C910.412 439.07 909.74 438.911 909.161 438.594C908.583 438.267 908.13 437.824 907.803 437.264C907.477 436.695 907.313 436.046 907.313 435.318C907.313 434.59 907.467 433.946 907.775 433.386C908.093 432.826 908.522 432.387 909.063 432.07C909.614 431.743 910.23 431.58 910.911 431.58C911.602 431.58 912.213 431.739 912.745 432.056C913.287 432.364 913.711 432.803 914.019 433.372C914.327 433.932 914.481 434.581 914.481 435.318C914.481 435.365 914.477 435.416 914.467 435.472C914.467 435.519 914.467 435.57 914.467 435.626H908.069V434.884H913.935L913.543 435.178C913.543 434.646 913.427 434.175 913.193 433.764C912.969 433.344 912.661 433.017 912.269 432.784C911.877 432.551 911.425 432.434 910.911 432.434C910.407 432.434 909.955 432.551 909.553 432.784C909.152 433.017 908.839 433.344 908.615 433.764C908.391 434.184 908.279 434.665 908.279 435.206V435.36C908.279 435.92 908.401 436.415 908.643 436.844C908.895 437.264 909.241 437.595 909.679 437.838C910.127 438.071 910.636 438.188 911.205 438.188C911.653 438.188 912.069 438.109 912.451 437.95C912.843 437.791 913.179 437.549 913.459 437.222L914.019 437.866C913.693 438.258 913.282 438.557 912.787 438.762C912.302 438.967 911.765 439.07 911.177 439.07ZM916.682 439V431.65H919.93C920.76 431.65 921.414 431.809 921.89 432.126C922.375 432.443 922.618 432.91 922.618 433.526C922.618 434.123 922.389 434.585 921.932 434.912C921.474 435.229 920.872 435.388 920.126 435.388L920.322 435.094C921.199 435.094 921.843 435.257 922.254 435.584C922.664 435.911 922.87 436.382 922.87 436.998C922.87 437.633 922.636 438.127 922.17 438.482C921.712 438.827 920.998 439 920.028 439H916.682ZM917.648 438.216H919.986C920.611 438.216 921.082 438.118 921.4 437.922C921.726 437.717 921.89 437.39 921.89 436.942C921.89 436.494 921.745 436.167 921.456 435.962C921.166 435.757 920.709 435.654 920.084 435.654H917.648V438.216ZM917.648 434.912H919.86C920.429 434.912 920.863 434.805 921.162 434.59C921.47 434.375 921.624 434.063 921.624 433.652C921.624 433.241 921.47 432.933 921.162 432.728C920.863 432.523 920.429 432.42 919.86 432.42H917.648V434.912Z" fill="#8D8D8D"/>
<path d="M228.647 480.4V493H226.307V482.362H223.643V480.4H228.647ZM243.501 485.296H238.371V493H236.121V483.388H243.501V485.296ZM250.106 483.28C251.042 483.28 251.876 483.484 252.608 483.892C253.352 484.3 253.934 484.876 254.354 485.62C254.774 486.364 254.984 487.222 254.984 488.194C254.984 489.166 254.774 490.03 254.354 490.786C253.934 491.53 253.352 492.106 252.608 492.514C251.876 492.922 251.042 493.126 250.106 493.126C248.81 493.126 247.784 492.694 247.028 491.83V496.492H244.778V483.388H246.92V484.648C247.292 484.192 247.748 483.85 248.288 483.622C248.84 483.394 249.446 483.28 250.106 483.28ZM249.854 491.2C250.682 491.2 251.36 490.924 251.888 490.372C252.428 489.82 252.698 489.094 252.698 488.194C252.698 487.294 252.428 486.568 251.888 486.016C251.36 485.464 250.682 485.188 249.854 485.188C249.314 485.188 248.828 485.314 248.396 485.566C247.964 485.806 247.622 486.154 247.37 486.61C247.118 487.066 246.992 487.594 246.992 488.194C246.992 488.794 247.118 489.322 247.37 489.778C247.622 490.234 247.964 490.588 248.396 490.84C248.828 491.08 249.314 491.2 249.854 491.2ZM265.672 483.388L261.172 493.774C260.752 494.818 260.242 495.55 259.642 495.97C259.042 496.402 258.316 496.618 257.464 496.618C256.984 496.618 256.51 496.54 256.042 496.384C255.574 496.228 255.19 496.012 254.89 495.736L255.79 494.08C256.006 494.284 256.258 494.446 256.546 494.566C256.846 494.686 257.146 494.746 257.446 494.746C257.842 494.746 258.166 494.644 258.418 494.44C258.682 494.236 258.922 493.894 259.138 493.414L259.3 493.036L255.106 483.388H257.446L260.47 490.498L263.512 483.388H265.672ZM276.091 483.388V493H273.859V485.296H269.125V493H266.875V483.388H276.091ZM287.983 483.388V493H285.751V485.296H281.017V493H278.767V483.388H287.983ZM294.241 483.28C295.657 483.28 296.737 483.622 297.481 484.306C298.237 484.978 298.615 485.998 298.615 487.366V493H296.491V491.83C296.215 492.25 295.819 492.574 295.303 492.802C294.799 493.018 294.187 493.126 293.467 493.126C292.747 493.126 292.117 493.006 291.577 492.766C291.037 492.514 290.617 492.172 290.317 491.74C290.029 491.296 289.885 490.798 289.885 490.246C289.885 489.382 290.203 488.692 290.839 488.176C291.487 487.648 292.501 487.384 293.881 487.384H296.365V487.24C296.365 486.568 296.161 486.052 295.753 485.692C295.357 485.332 294.763 485.152 293.971 485.152C293.431 485.152 292.897 485.236 292.369 485.404C291.853 485.572 291.415 485.806 291.055 486.106L290.173 484.468C290.677 484.084 291.283 483.79 291.991 483.586C292.699 483.382 293.449 483.28 294.241 483.28ZM293.935 491.488C294.499 491.488 294.997 491.362 295.429 491.11C295.873 490.846 296.185 490.474 296.365 489.994V488.878H294.043C292.747 488.878 292.099 489.304 292.099 490.156C292.099 490.564 292.261 490.888 292.585 491.128C292.909 491.368 293.359 491.488 293.935 491.488ZM258.186 511L258.168 502.648L254.028 509.56H252.984L248.844 502.756V511H246.63V498.4H248.556L253.542 506.734L258.474 498.4H260.382L260.418 511H258.186ZM272.134 500.38H265.888L265.906 511H263.602V498.4H272.152L272.134 500.38ZM282.898 500.38H278.722V511H276.4V500.38H272.242V498.4H282.898V500.38Z" fill="#424242"/>
<path d="M701.913 491.02V493H692.625V491.434L697.629 486.682C698.193 486.142 698.571 485.674 698.763 485.278C698.967 484.87 699.069 484.468 699.069 484.072C699.069 483.484 698.871 483.034 698.475 482.722C698.079 482.41 697.497 482.254 696.729 482.254C695.445 482.254 694.461 482.692 693.777 483.568L692.139 482.308C692.631 481.648 693.291 481.138 694.119 480.778C694.959 480.406 695.895 480.22 696.927 480.22C698.295 480.22 699.387 480.544 700.203 481.192C701.019 481.84 701.427 482.722 701.427 483.838C701.427 484.522 701.283 485.164 700.995 485.764C700.707 486.364 700.155 487.048 699.339 487.816L695.973 491.02H701.913ZM715.619 485.296H710.489V493H708.239V483.388H715.619V485.296ZM722.224 483.28C723.16 483.28 723.994 483.484 724.726 483.892C725.47 484.3 726.052 484.876 726.472 485.62C726.892 486.364 727.102 487.222 727.102 488.194C727.102 489.166 726.892 490.03 726.472 490.786C726.052 491.53 725.47 492.106 724.726 492.514C723.994 492.922 723.16 493.126 722.224 493.126C720.928 493.126 719.902 492.694 719.146 491.83V496.492H716.896V483.388H719.038V484.648C719.41 484.192 719.866 483.85 720.406 483.622C720.958 483.394 721.564 483.28 722.224 483.28ZM721.972 491.2C722.8 491.2 723.478 490.924 724.006 490.372C724.546 489.82 724.816 489.094 724.816 488.194C724.816 487.294 724.546 486.568 724.006 486.016C723.478 485.464 722.8 485.188 721.972 485.188C721.432 485.188 720.946 485.314 720.514 485.566C720.082 485.806 719.74 486.154 719.488 486.61C719.236 487.066 719.11 487.594 719.11 488.194C719.11 488.794 719.236 489.322 719.488 489.778C719.74 490.234 720.082 490.588 720.514 490.84C720.946 491.08 721.432 491.2 721.972 491.2ZM737.79 483.388L733.29 493.774C732.87 494.818 732.36 495.55 731.76 495.97C731.16 496.402 730.434 496.618 729.582 496.618C729.102 496.618 728.628 496.54 728.16 496.384C727.692 496.228 727.308 496.012 727.008 495.736L727.908 494.08C728.124 494.284 728.376 494.446 728.664 494.566C728.964 494.686 729.264 494.746 729.564 494.746C729.96 494.746 730.284 494.644 730.536 494.44C730.8 494.236 731.04 493.894 731.256 493.414L731.418 493.036L727.224 483.388H729.564L732.588 490.498L735.63 483.388H737.79ZM748.209 483.388V493H745.977V485.296H741.243V493H738.993V483.388H748.209ZM760.1 483.388V493H757.868V485.296H753.134V493H750.884V483.388H760.1ZM766.358 483.28C767.774 483.28 768.854 483.622 769.598 484.306C770.354 484.978 770.732 485.998 770.732 487.366V493H768.608V491.83C768.332 492.25 767.936 492.574 767.42 492.802C766.916 493.018 766.304 493.126 765.584 493.126C764.864 493.126 764.234 493.006 763.694 492.766C763.154 492.514 762.734 492.172 762.434 491.74C762.146 491.296 762.002 490.798 762.002 490.246C762.002 489.382 762.32 488.692 762.956 488.176C763.604 487.648 764.618 487.384 765.998 487.384H768.482V487.24C768.482 486.568 768.278 486.052 767.87 485.692C767.474 485.332 766.88 485.152 766.088 485.152C765.548 485.152 765.014 485.236 764.486 485.404C763.97 485.572 763.532 485.806 763.172 486.106L762.29 484.468C762.794 484.084 763.4 483.79 764.108 483.586C764.816 483.382 765.566 483.28 766.358 483.28ZM766.052 491.488C766.616 491.488 767.114 491.362 767.546 491.11C767.99 490.846 768.302 490.474 768.482 489.994V488.878H766.16C764.864 488.878 764.216 489.304 764.216 490.156C764.216 490.564 764.378 490.888 764.702 491.128C765.026 491.368 765.476 491.488 766.052 491.488ZM664.737 511L664.719 502.648L660.579 509.56H659.535L655.395 502.756V511H653.181V498.4H655.107L660.093 506.734L665.025 498.4H666.933L666.969 511H664.737ZM678.685 500.38H672.439L672.457 511H670.153V498.4H678.703L678.685 500.38ZM689.449 500.38H685.273V511H682.951V500.38H678.793V498.4H689.449V500.38ZM698.178 505.6H694.992V508.75H693.066V505.6H689.88V503.8H693.066V500.65H694.992V503.8H698.178V505.6ZM715.219 504.682C715.219 506.338 714.643 507.646 713.491 508.606C712.339 509.566 710.701 510.088 708.577 510.172V511.504H706.417V510.172C704.293 510.064 702.649 509.536 701.485 508.588C700.333 507.64 699.757 506.338 699.757 504.682C699.757 503.026 700.333 501.724 701.485 500.776C702.649 499.816 704.293 499.282 706.417 499.174V497.896H708.577V499.174C710.701 499.282 712.339 499.816 713.491 500.776C714.643 501.724 715.219 503.026 715.219 504.682ZM708.577 508.336C710.017 508.228 711.109 507.868 711.853 507.256C712.597 506.632 712.969 505.768 712.969 504.664C712.969 503.56 712.591 502.702 711.835 502.09C711.091 501.478 710.005 501.124 708.577 501.028V508.336ZM702.043 504.682C702.043 505.774 702.415 506.626 703.159 507.238C703.915 507.85 705.001 508.216 706.417 508.336V501.028C703.501 501.244 702.043 502.462 702.043 504.682ZM720.646 501.28C722.062 501.28 723.142 501.622 723.886 502.306C724.642 502.978 725.02 503.998 725.02 505.366V511H722.896V509.83C722.62 510.25 722.224 510.574 721.708 510.802C721.204 511.018 720.592 511.126 719.872 511.126C719.152 511.126 718.522 511.006 717.982 510.766C717.442 510.514 717.022 510.172 716.722 509.74C716.434 509.296 716.29 508.798 716.29 508.246C716.29 507.382 716.608 506.692 717.244 506.176C717.892 505.648 718.906 505.384 720.286 505.384H722.77V505.24C722.77 504.568 722.566 504.052 722.158 503.692C721.762 503.332 721.168 503.152 720.376 503.152C719.836 503.152 719.302 503.236 718.774 503.404C718.258 503.572 717.82 503.806 717.46 504.106L716.578 502.468C717.082 502.084 717.688 501.79 718.396 501.586C719.104 501.382 719.854 501.28 720.646 501.28ZM720.34 509.488C720.904 509.488 721.402 509.362 721.834 509.11C722.278 508.846 722.59 508.474 722.77 507.994V506.878H720.448C719.152 506.878 718.504 507.304 718.504 508.156C718.504 508.564 718.666 508.888 718.99 509.128C719.314 509.368 719.764 509.488 720.34 509.488ZM736.895 511V504.628L733.655 509.992H732.683L729.497 504.61V511H727.445V501.388H729.803L733.223 507.4L736.805 501.388H738.911L738.929 511H736.895ZM748.553 505.996C749.741 506.356 750.335 507.124 750.335 508.3C750.335 509.164 750.011 509.83 749.363 510.298C748.715 510.766 747.755 511 746.483 511H741.587V501.388H746.285C747.461 501.388 748.379 501.604 749.039 502.036C749.699 502.468 750.029 503.08 750.029 503.872C750.029 504.364 749.897 504.79 749.633 505.15C749.381 505.51 749.021 505.792 748.553 505.996ZM743.729 505.402H746.087C747.251 505.402 747.833 505 747.833 504.196C747.833 503.416 747.251 503.026 746.087 503.026H743.729V505.402ZM746.303 509.362C747.539 509.362 748.157 508.96 748.157 508.156C748.157 507.736 748.013 507.424 747.725 507.22C747.437 507.004 746.987 506.896 746.375 506.896H743.729V509.362H746.303ZM752.371 501.388H754.621V507.724L759.931 501.388H761.983V511H759.733V504.664L754.441 511H752.371V501.388ZM772.264 503.296H768.898V511H766.648V503.296H763.264V501.388H772.264V503.296ZM777.118 501.28C778.534 501.28 779.614 501.622 780.358 502.306C781.114 502.978 781.492 503.998 781.492 505.366V511H779.368V509.83C779.092 510.25 778.696 510.574 778.18 510.802C777.676 511.018 777.064 511.126 776.344 511.126C775.624 511.126 774.994 511.006 774.454 510.766C773.914 510.514 773.494 510.172 773.194 509.74C772.906 509.296 772.762 508.798 772.762 508.246C772.762 507.382 773.08 506.692 773.716 506.176C774.364 505.648 775.378 505.384 776.758 505.384H779.242V505.24C779.242 504.568 779.038 504.052 778.63 503.692C778.234 503.332 777.64 503.152 776.848 503.152C776.308 503.152 775.774 503.236 775.246 503.404C774.73 503.572 774.292 503.806 773.932 504.106L773.05 502.468C773.554 502.084 774.16 501.79 774.868 501.586C775.576 501.382 776.326 501.28 777.118 501.28ZM776.812 509.488C777.376 509.488 777.874 509.362 778.306 509.11C778.75 508.846 779.062 508.474 779.242 507.994V506.878H776.92C775.624 506.878 774.976 507.304 774.976 508.156C774.976 508.564 775.138 508.888 775.462 509.128C775.786 509.368 776.236 509.488 776.812 509.488ZM792.628 501.388V511H790.378V503.296H786.778L786.688 505.204C786.628 506.476 786.508 507.544 786.328 508.408C786.16 509.26 785.866 509.938 785.446 510.442C785.038 510.934 784.474 511.18 783.754 511.18C783.418 511.18 783.004 511.114 782.512 510.982L782.62 509.092C782.788 509.128 782.932 509.146 783.052 509.146C783.508 509.146 783.85 508.966 784.078 508.606C784.306 508.234 784.45 507.796 784.51 507.292C784.582 506.776 784.642 506.044 784.69 505.096L784.852 501.388H792.628ZM800.122 504.556C801.346 504.556 802.282 504.832 802.93 505.384C803.59 505.936 803.92 506.716 803.92 507.724C803.92 508.78 803.56 509.596 802.84 510.172C802.12 510.748 801.106 511.03 799.798 511.018L795.298 511V501.388H797.548V504.538L800.122 504.556ZM799.6 509.362C800.26 509.374 800.764 509.236 801.112 508.948C801.46 508.66 801.634 508.24 801.634 507.688C801.634 507.148 801.466 506.752 801.13 506.5C800.794 506.248 800.284 506.116 799.6 506.104L797.548 506.086V509.344L799.6 509.362ZM808.324 497.408C809.037 497.408 809.682 497.573 810.258 497.904C810.841 498.236 811.298 498.693 811.629 499.276C811.96 499.852 812.126 500.493 812.126 501.198C812.126 501.904 811.957 502.552 811.618 503.142C811.28 503.726 810.819 504.186 810.236 504.525C809.653 504.863 809.008 505.032 808.303 505.032C807.597 505.032 806.953 504.863 806.37 504.525C805.794 504.186 805.336 503.726 804.998 503.142C804.667 502.559 804.501 501.918 804.501 501.22C804.501 500.522 804.667 499.881 804.998 499.298C805.336 498.714 805.797 498.254 806.38 497.915C806.964 497.577 807.612 497.408 808.324 497.408ZM808.303 504.438C808.9 504.438 809.44 504.294 809.923 504.006C810.412 503.718 810.798 503.33 811.078 502.84C811.359 502.343 811.5 501.796 811.5 501.198C811.5 500.601 811.363 500.061 811.089 499.578C810.816 499.089 810.438 498.704 809.955 498.423C809.473 498.142 808.929 498.002 808.324 498.002C807.72 498.002 807.172 498.146 806.683 498.434C806.193 498.714 805.808 499.1 805.527 499.589C805.254 500.079 805.117 500.622 805.117 501.22C805.117 501.818 805.254 502.361 805.527 502.851C805.808 503.34 806.19 503.729 806.672 504.017C807.162 504.298 807.705 504.438 808.303 504.438ZM810.279 500.572C810.279 500.889 810.204 501.159 810.052 501.382C809.908 501.605 809.7 501.774 809.426 501.89L810.376 503.348H809.448L808.605 502.052H808.486H807.644V503.348H806.715V499.092H808.486C809.041 499.092 809.476 499.226 809.793 499.492C810.117 499.758 810.279 500.118 810.279 500.572ZM808.432 501.328C808.735 501.328 808.969 501.263 809.134 501.134C809.3 500.997 809.383 500.81 809.383 500.572C809.383 500.334 809.3 500.151 809.134 500.021C808.969 499.892 808.735 499.827 808.432 499.827H807.633V501.328H808.432Z" fill="#424242"/>
<line x1="496.5" y1="14" x2="496.5" y2="504" stroke="#DFDFDF" stroke-dasharray="2 2"/>
<rect x="51" y="343" width="31" height="64" rx="8" fill="#2A292A"/>
<path d="M66.3776 362.072C65.7776 362.072 65.2056 361.976 64.6616 361.784C64.1176 361.584 63.6856 361.32 63.3656 360.992L63.7856 360.308C64.0496 360.588 64.4096 360.82 64.8656 361.004C65.3296 361.188 65.8296 361.28 66.3656 361.28C67.0776 361.28 67.6176 361.124 67.9856 360.812C68.3616 360.492 68.5496 360.076 68.5496 359.564C68.5496 359.204 68.4616 358.896 68.2856 358.64C68.1176 358.376 67.8296 358.172 67.4216 358.028C67.0136 357.884 66.4536 357.812 65.7416 357.812H63.9536L64.3856 353.6H68.9816V354.368H64.7336L65.1776 353.948L64.8056 357.476L64.3616 357.044H65.9336C66.7816 357.044 67.4616 357.148 67.9736 357.356C68.4856 357.564 68.8536 357.856 69.0776 358.232C69.3096 358.6 69.4256 359.032 69.4256 359.528C69.4256 360 69.3136 360.432 69.0896 360.824C68.8656 361.208 68.5296 361.512 68.0816 361.736C67.6336 361.96 67.0656 362.072 66.3776 362.072Z" fill="white"/>
<rect x="93" y="250" width="31" height="157" rx="8" fill="#DFDFDF"/>
<path d="M105.51 269V260.96L105.894 261.368H103.53V260.6H106.374V269H105.51ZM108.226 269V268.388L111.718 264.968C112.038 264.656 112.278 264.384 112.438 264.152C112.598 263.912 112.706 263.688 112.762 263.48C112.818 263.272 112.846 263.076 112.846 262.892C112.846 262.404 112.678 262.02 112.342 261.74C112.014 261.46 111.526 261.32 110.878 261.32C110.382 261.32 109.942 261.396 109.558 261.548C109.182 261.7 108.858 261.936 108.586 262.256L107.974 261.728C108.302 261.344 108.722 261.048 109.234 260.84C109.746 260.632 110.318 260.528 110.95 260.528C111.518 260.528 112.01 260.62 112.426 260.804C112.842 260.98 113.162 261.24 113.386 261.584C113.618 261.928 113.734 262.332 113.734 262.796C113.734 263.068 113.694 263.336 113.614 263.6C113.542 263.864 113.406 264.144 113.206 264.44C113.014 264.728 112.73 265.056 112.354 265.424L109.15 268.568L108.91 268.232H114.118V269H108.226Z" fill="#2A292A"/>
<rect x="135" y="164" width="31" height="243" rx="8" fill="#C4A587"/>
<path d="M147.094 183V174.96L147.478 175.368H145.114V174.6H147.958V183H147.094ZM153.158 183.072C152.486 183.072 151.906 182.976 151.418 182.784C150.938 182.592 150.566 182.316 150.302 181.956C150.046 181.588 149.918 181.156 149.918 180.66C149.918 180.18 150.042 179.772 150.29 179.436C150.546 179.092 150.914 178.828 151.394 178.644C151.882 178.46 152.47 178.368 153.158 178.368C153.838 178.368 154.422 178.46 154.91 178.644C155.398 178.828 155.77 179.092 156.026 179.436C156.29 179.772 156.422 180.18 156.422 180.66C156.422 181.156 156.29 181.588 156.026 181.956C155.762 182.316 155.386 182.592 154.898 182.784C154.41 182.976 153.83 183.072 153.158 183.072ZM153.158 182.34C153.902 182.34 154.482 182.188 154.898 181.884C155.322 181.58 155.534 181.168 155.534 180.648C155.534 180.128 155.322 179.72 154.898 179.424C154.482 179.12 153.902 178.968 153.158 178.968C152.414 178.968 151.834 179.12 151.418 179.424C151.002 179.72 150.794 180.128 150.794 180.648C150.794 181.168 151.002 181.58 151.418 181.884C151.834 182.188 152.414 182.34 153.158 182.34ZM153.158 178.284C153.814 178.284 154.326 178.148 154.694 177.876C155.062 177.604 155.246 177.24 155.246 176.784C155.246 176.304 155.054 175.932 154.67 175.668C154.294 175.396 153.79 175.26 153.158 175.26C152.526 175.26 152.022 175.396 151.646 175.668C151.27 175.932 151.082 176.3 151.082 176.772C151.082 177.236 151.262 177.604 151.622 177.876C151.99 178.148 152.502 178.284 153.158 178.284ZM153.158 178.86C152.534 178.86 152.002 178.776 151.562 178.608C151.13 178.44 150.798 178.2 150.566 177.888C150.334 177.568 150.218 177.188 150.218 176.748C150.218 176.284 150.338 175.888 150.578 175.56C150.826 175.224 151.17 174.968 151.61 174.792C152.05 174.616 152.566 174.528 153.158 174.528C153.75 174.528 154.266 174.616 154.706 174.792C155.154 174.968 155.502 175.224 155.75 175.56C155.998 175.888 156.122 176.284 156.122 176.748C156.122 177.188 156.006 177.568 155.774 177.888C155.542 178.2 155.202 178.44 154.754 178.608C154.314 178.776 153.782 178.86 153.158 178.86Z" fill="#2A292A"/>
<g clip-path="url(#clip0_3046_27408)">
<rect x="206" y="403" width="31" height="4" rx="2" fill="#2A292A"/>
</g>
<rect x="248" y="53" width="31" height="354" rx="8" fill="#DFDFDF"/>
<path d="M257.536 72V71.388L261.028 67.968C261.348 67.656 261.588 67.384 261.748 67.152C261.908 66.912 262.016 66.688 262.072 66.48C262.128 66.272 262.156 66.076 262.156 65.892C262.156 65.404 261.988 65.02 261.652 64.74C261.324 64.46 260.836 64.32 260.188 64.32C259.692 64.32 259.252 64.396 258.868 64.548C258.492 64.7 258.168 64.936 257.896 65.256L257.284 64.728C257.612 64.344 258.032 64.048 258.544 63.84C259.056 63.632 259.628 63.528 260.26 63.528C260.828 63.528 261.32 63.62 261.736 63.804C262.152 63.98 262.472 64.24 262.696 64.584C262.928 64.928 263.044 65.332 263.044 65.796C263.044 66.068 263.004 66.336 262.924 66.6C262.852 66.864 262.716 67.144 262.516 67.44C262.324 67.728 262.04 68.056 261.664 68.424L258.46 71.568L258.22 71.232H263.428V72H257.536ZM265.965 72L269.589 63.984L269.853 64.368H264.657L265.101 63.948V65.94H264.249V63.6H270.417V64.212L266.901 72H265.965Z" fill="#2A292A"/>
<rect x="290" y="302" width="31" height="105" rx="8" fill="#C4A587"/>
<path d="M305.99 321.072C305.318 321.072 304.738 320.976 304.25 320.784C303.77 320.592 303.398 320.316 303.134 319.956C302.878 319.588 302.75 319.156 302.75 318.66C302.75 318.18 302.874 317.772 303.122 317.436C303.378 317.092 303.746 316.828 304.226 316.644C304.714 316.46 305.302 316.368 305.99 316.368C306.67 316.368 307.254 316.46 307.742 316.644C308.23 316.828 308.602 317.092 308.858 317.436C309.122 317.772 309.254 318.18 309.254 318.66C309.254 319.156 309.122 319.588 308.858 319.956C308.594 320.316 308.218 320.592 307.73 320.784C307.242 320.976 306.662 321.072 305.99 321.072ZM305.99 320.34C306.734 320.34 307.314 320.188 307.73 319.884C308.154 319.58 308.366 319.168 308.366 318.648C308.366 318.128 308.154 317.72 307.73 317.424C307.314 317.12 306.734 316.968 305.99 316.968C305.246 316.968 304.666 317.12 304.25 317.424C303.834 317.72 303.626 318.128 303.626 318.648C303.626 319.168 303.834 319.58 304.25 319.884C304.666 320.188 305.246 320.34 305.99 320.34ZM305.99 316.284C306.646 316.284 307.158 316.148 307.526 315.876C307.894 315.604 308.078 315.24 308.078 314.784C308.078 314.304 307.886 313.932 307.502 313.668C307.126 313.396 306.622 313.26 305.99 313.26C305.358 313.26 304.854 313.396 304.478 313.668C304.102 313.932 303.914 314.3 303.914 314.772C303.914 315.236 304.094 315.604 304.454 315.876C304.822 316.148 305.334 316.284 305.99 316.284ZM305.99 316.86C305.366 316.86 304.834 316.776 304.394 316.608C303.962 316.44 303.63 316.2 303.398 315.888C303.166 315.568 303.05 315.188 303.05 314.748C303.05 314.284 303.17 313.888 303.41 313.56C303.658 313.224 304.002 312.968 304.442 312.792C304.882 312.616 305.398 312.528 305.99 312.528C306.582 312.528 307.098 312.616 307.538 312.792C307.986 312.968 308.334 313.224 308.582 313.56C308.83 313.888 308.954 314.284 308.954 314.748C308.954 315.188 308.838 315.568 308.606 315.888C308.374 316.2 308.034 316.44 307.586 316.608C307.146 316.776 306.614 316.86 305.99 316.86Z" fill="#2A292A"/>
<g clip-path="url(#clip1_3046_27408)">
<rect x="361" y="403" width="31" height="4" rx="2" fill="#2A292A"/>
</g>
<g clip-path="url(#clip2_3046_27408)">
<rect x="403" y="403" width="31" height="4" rx="2" fill="#DFDFDF"/>
</g>
<rect x="445" y="382" width="31" height="25" rx="8" fill="#C4A587"/>
<path d="M457.558 399V398.388L461.05 394.968C461.37 394.656 461.61 394.384 461.77 394.152C461.93 393.912 462.038 393.688 462.094 393.48C462.15 393.272 462.178 393.076 462.178 392.892C462.178 392.404 462.01 392.02 461.674 391.74C461.346 391.46 460.858 391.32 460.21 391.32C459.714 391.32 459.274 391.396 458.89 391.548C458.514 391.7 458.19 391.936 457.918 392.256L457.306 391.728C457.634 391.344 458.054 391.048 458.566 390.84C459.078 390.632 459.65 390.528 460.282 390.528C460.85 390.528 461.342 390.62 461.758 390.804C462.174 390.98 462.494 391.24 462.718 391.584C462.95 391.928 463.066 392.332 463.066 392.796C463.066 393.068 463.026 393.336 462.946 393.6C462.874 393.864 462.738 394.144 462.538 394.44C462.346 394.728 462.062 395.056 461.686 395.424L458.482 398.568L458.242 398.232H463.45V399H457.558Z" fill="#2A292A"/>
<rect x="516" y="316" width="31" height="91" rx="8" fill="#2A292A"/>
<path d="M529.567 335L533.191 326.984L533.455 327.368H528.259L528.703 326.948V328.94H527.851V326.6H534.019V327.212L530.503 335H529.567Z" fill="white"/>
<rect x="558" y="237" width="31" height="170" rx="8" fill="#DFDFDF"/>
<path d="M570.533 256V247.96L570.917 248.368H568.553V247.6H571.397V256H570.533ZM575.913 256.072C575.305 256.072 574.729 255.976 574.185 255.784C573.649 255.584 573.217 255.32 572.889 254.992L573.309 254.308C573.581 254.588 573.945 254.82 574.401 255.004C574.865 255.188 575.369 255.28 575.913 255.28C576.609 255.28 577.141 255.128 577.509 254.824C577.885 254.52 578.073 254.112 578.073 253.6C578.073 253.088 577.889 252.68 577.521 252.376C577.161 252.072 576.589 251.92 575.805 251.92H575.205V251.284L577.797 248.032L577.917 248.368H573.237V247.6H578.637V248.212L576.045 251.464L575.625 251.188H575.949C576.957 251.188 577.709 251.412 578.205 251.86C578.709 252.308 578.961 252.884 578.961 253.588C578.961 254.06 578.849 254.484 578.625 254.86C578.401 255.236 578.061 255.532 577.605 255.748C577.157 255.964 576.593 256.072 575.913 256.072Z" fill="#2A292A"/>
<rect x="600" y="164" width="31" height="243" rx="8" fill="#C4A587"/>
<path d="M612.522 183V174.96L612.906 175.368H610.542V174.6H613.386V183H612.522ZM618.046 183.072C617.446 183.072 616.874 182.976 616.33 182.784C615.786 182.584 615.354 182.32 615.034 181.992L615.454 181.308C615.718 181.588 616.078 181.82 616.534 182.004C616.998 182.188 617.498 182.28 618.034 182.28C618.746 182.28 619.286 182.124 619.654 181.812C620.03 181.492 620.218 181.076 620.218 180.564C620.218 180.204 620.13 179.896 619.954 179.64C619.786 179.376 619.498 179.172 619.09 179.028C618.682 178.884 618.122 178.812 617.41 178.812H615.622L616.054 174.6H620.65V175.368H616.402L616.846 174.948L616.474 178.476L616.03 178.044H617.602C618.45 178.044 619.13 178.148 619.642 178.356C620.154 178.564 620.522 178.856 620.746 179.232C620.978 179.6 621.094 180.032 621.094 180.528C621.094 181 620.982 181.432 620.758 181.824C620.534 182.208 620.198 182.512 619.75 182.736C619.302 182.96 618.734 183.072 618.046 183.072Z" fill="#2A292A"/>
<g clip-path="url(#clip3_3046_27408)">
<rect x="671" y="403" width="31" height="4" rx="2" fill="#2A292A"/>
</g>
<g clip-path="url(#clip4_3046_27408)">
<rect x="713" y="403" width="31" height="4" rx="2" fill="#DFDFDF"/>
</g>
<rect x="755" y="14" width="31" height="393" rx="8" fill="#C4A587"/>
<path d="M767.273 33.072C766.665 33.072 766.089 32.976 765.545 32.784C765.009 32.584 764.577 32.32 764.249 31.992L764.669 31.308C764.941 31.588 765.305 31.82 765.761 32.004C766.225 32.188 766.729 32.28 767.273 32.28C767.969 32.28 768.501 32.128 768.869 31.824C769.245 31.52 769.433 31.112 769.433 30.6C769.433 30.088 769.249 29.68 768.881 29.376C768.521 29.072 767.949 28.92 767.165 28.92H766.565V28.284L769.157 25.032L769.277 25.368H764.597V24.6H769.997V25.212L767.405 28.464L766.985 28.188H767.309C768.317 28.188 769.069 28.412 769.565 28.86C770.069 29.308 770.321 29.884 770.321 30.588C770.321 31.06 770.209 31.484 769.985 31.86C769.761 32.236 769.421 32.532 768.965 32.748C768.517 32.964 767.953 33.072 767.273 33.072ZM774.886 33.072C774.238 33.072 773.662 32.904 773.158 32.568C772.654 32.224 772.258 31.736 771.97 31.104C771.682 30.464 771.538 29.696 771.538 28.8C771.538 27.904 771.682 27.14 771.97 26.508C772.258 25.868 772.654 25.38 773.158 25.044C773.662 24.7 774.238 24.528 774.886 24.528C775.534 24.528 776.11 24.7 776.614 25.044C777.118 25.38 777.514 25.868 777.802 26.508C778.098 27.14 778.246 27.904 778.246 28.8C778.246 29.696 778.098 30.464 777.802 31.104C777.514 31.736 777.118 32.224 776.614 32.568C776.11 32.904 775.534 33.072 774.886 33.072ZM774.886 32.28C775.382 32.28 775.814 32.148 776.182 31.884C776.55 31.612 776.838 31.22 777.046 30.708C777.254 30.188 777.358 29.552 777.358 28.8C777.358 28.048 777.254 27.416 777.046 26.904C776.838 26.384 776.55 25.992 776.182 25.728C775.814 25.456 775.382 25.32 774.886 25.32C774.406 25.32 773.978 25.456 773.602 25.728C773.226 25.992 772.934 26.384 772.726 26.904C772.518 27.416 772.414 28.048 772.414 28.8C772.414 29.552 772.518 30.188 772.726 30.708C772.934 31.22 773.226 31.612 773.602 31.884C773.978 32.148 774.406 32.28 774.886 32.28Z" fill="#2A292A"/>
<g clip-path="url(#clip5_3046_27408)">
<rect x="826" y="403" width="31" height="4" rx="2" fill="#2A292A"/>
</g>
<g clip-path="url(#clip6_3046_27408)">
<rect x="868" y="403" width="31" height="4" rx="2" fill="#DFDFDF"/>
</g>
<g clip-path="url(#clip7_3046_27408)">
<rect x="910" y="403" width="31" height="4" rx="2" fill="#C4A587"/>
</g>
<defs>
<clipPath id="clip0_3046_27408">
<rect x="206" y="403" width="31" height="4" rx="2" fill="white"/>
</clipPath>
<clipPath id="clip1_3046_27408">
<rect x="361" y="403" width="31" height="4" rx="2" fill="white"/>
</clipPath>
<clipPath id="clip2_3046_27408">
<rect x="403" y="403" width="31" height="4" rx="2" fill="white"/>
</clipPath>
<clipPath id="clip3_3046_27408">
<rect x="671" y="403" width="31" height="4" rx="2" fill="white"/>
</clipPath>
<clipPath id="clip4_3046_27408">
<rect x="713" y="403" width="31" height="4" rx="2" fill="white"/>
</clipPath>
<clipPath id="clip5_3046_27408">
<rect x="826" y="403" width="31" height="4" rx="2" fill="white"/>
</clipPath>
<clipPath id="clip6_3046_27408">
<rect x="868" y="403" width="31" height="4" rx="2" fill="white"/>
</clipPath>
<clipPath id="clip7_3046_27408">
<rect x="910" y="403" width="31" height="4" rx="2" fill="white"/>
</clipPath>
</defs>
</svg>
