<svg width="33" height="33" viewBox="0 0 33 33" fill="none" xmlns="http://www.w3.org/2000/svg">
<g clip-path="url(#clip0_82_3544)"> 
<g clip-path="url(#clip1_82_3544)">
<path d="M16.7479 19.7472C16.9413 19.5575 19.1913 17.35 19.2778 17.2651C19.8929 16.6621 19.8923 15.6816 19.2779 15.0801C18.6694 14.4831 17.6795 14.4831 17.071 15.0801L16.488 15.6524L15.9046 15.08C15.2966 14.4838 14.3067 14.4838 13.6976 15.0802C13.0837 15.6833 13.0833 16.6613 13.6979 17.2652C14.9921 18.534 14.9427 18.4857 16.2281 19.7472C16.3002 19.818 16.6035 19.8888 16.7479 19.7472Z" fill="#6C529C"/>
<path d="M16.488 11.6571C16.693 11.6571 16.8591 11.4909 16.8591 11.286V10.5098C16.8591 10.3048 16.693 10.1387 16.488 10.1387C16.2831 10.1387 16.1169 10.3048 16.1169 10.5098V11.286C16.1169 11.491 16.2831 11.6571 16.488 11.6571Z" fill="#6C529C"/>
<path d="M13.1887 12.2695C13.2574 12.3885 13.3821 12.4551 13.5104 12.4551C13.7927 12.4551 13.9751 12.1472 13.8314 11.8984L13.4433 11.2261C13.3408 11.0487 13.1138 10.9878 12.9363 11.0903C12.7589 11.1928 12.698 11.4197 12.8005 11.5972L13.1887 12.2695Z" fill="#6C529C"/>
<path d="M11.5154 13.9428L10.8432 13.5547C10.6657 13.4521 10.4388 13.513 10.3363 13.6905C10.2338 13.868 10.2946 14.095 10.4721 14.1974L11.1443 14.5855C11.3215 14.6878 11.5485 14.6276 11.6513 14.4497C11.7537 14.2722 11.6929 14.0453 11.5154 13.9428Z" fill="#6C529C"/>
<path d="M10.903 17.2422C10.903 17.0373 10.7368 16.8711 10.5319 16.8711H9.75562C9.55066 16.8711 9.38452 17.0373 9.38452 17.2422C9.38452 17.4471 9.55066 17.6133 9.75562 17.6133H10.5319C10.7368 17.6133 10.903 17.4471 10.903 17.2422Z" fill="#6C529C"/>
<path d="M11.1444 19.8989L10.4721 20.287C10.2946 20.3895 10.2338 20.6164 10.3363 20.7939C10.4391 20.972 10.6662 21.0319 10.8432 20.9297L11.5154 20.5416C11.6929 20.4391 11.7538 20.2122 11.6513 20.0347C11.5488 19.8573 11.3219 19.7964 11.1444 19.8989Z" fill="#6C529C"/>
<path d="M13.6956 22.0791C13.518 21.9766 13.2911 22.0374 13.1887 22.2149L12.8005 22.8871C12.698 23.0646 12.7589 23.2916 12.9363 23.3941C13.1135 23.4963 13.3405 23.4361 13.4433 23.2582L13.8314 22.586C13.9339 22.4085 13.8731 22.1816 13.6956 22.0791Z" fill="#6C529C"/>
<path d="M16.488 22.8271C16.2831 22.8271 16.1169 22.9933 16.1169 23.1982V23.9745C16.1169 24.1795 16.2831 24.3456 16.488 24.3456C16.693 24.3456 16.8591 24.1795 16.8591 23.9745V23.1982C16.8591 22.9933 16.693 22.8271 16.488 22.8271Z" fill="#6C529C"/>
<path d="M19.7875 22.2149C19.685 22.0374 19.4581 21.9766 19.2806 22.0791C19.1031 22.1816 19.0423 22.4085 19.1448 22.586L19.5329 23.2582C19.6357 23.4363 19.8628 23.4962 20.0398 23.394C20.2173 23.2915 20.2781 23.0646 20.1756 22.8871L19.7875 22.2149Z" fill="#6C529C"/>
<path d="M22.504 20.287L21.8317 19.8989C21.6542 19.7964 21.4272 19.8573 21.3248 20.0347C21.2223 20.2122 21.2831 20.4392 21.4606 20.5416L22.1329 20.9298C22.3101 21.032 22.5372 20.9718 22.6398 20.7939C22.7423 20.6165 22.6815 20.3895 22.504 20.287Z" fill="#6C529C"/>
<path d="M22.0731 17.2422C22.0731 17.4471 22.2393 17.6133 22.4442 17.6133H23.2205C23.4254 17.6133 23.5916 17.4471 23.5916 17.2422C23.5916 17.0373 23.4254 16.8711 23.2205 16.8711H22.4442C22.2393 16.8711 22.0731 17.0373 22.0731 17.2422Z" fill="#6C529C"/>
<path d="M21.3248 14.4497C21.4275 14.6275 21.6544 14.6879 21.8317 14.5855L22.504 14.1974C22.6815 14.0949 22.7423 13.868 22.6398 13.6905C22.5374 13.5131 22.3105 13.4522 22.1329 13.5547L21.4606 13.9428C21.2831 14.0452 21.2223 14.2722 21.3248 14.4497Z" fill="#6C529C"/>
<path d="M20.0398 11.0903C19.8623 10.9878 19.6354 11.0487 19.5329 11.2261L19.1448 11.8984C19.0423 12.0759 19.1031 12.3028 19.2806 12.4053C19.4577 12.5076 19.6848 12.4473 19.7875 12.2695L20.1756 11.5972C20.2781 11.4197 20.2173 11.1928 20.0398 11.0903Z" fill="#6C529C"/>
<path d="M25.951 10.7963C25.951 8.72347 24.2646 7.03711 22.1918 7.03711C20.8294 7.03711 19.6219 7.76419 18.9605 8.87566C17.3616 8.40559 15.6373 8.40292 14.0345 8.8702C13.3729 7.76534 12.1689 7.04045 10.8081 7.04045C8.73535 7.04045 7.04895 8.72662 7.04895 10.7993C7.04895 11.9638 7.58195 13.0474 8.48909 13.7579C8.01075 14.8553 7.76639 16.045 7.7662 17.2422C7.76557 22.0389 11.6485 25.9629 16.4881 25.9629C21.3078 25.9629 25.2088 22.0625 25.2088 17.2422C25.2088 16.0275 24.9616 14.851 24.492 13.7693C25.411 13.0593 25.951 11.9703 25.951 10.7963ZM16.4881 25.2207C12.0887 25.2207 8.50958 21.6416 8.50958 17.2422C8.50958 12.8428 12.0887 9.26367 16.4881 9.26367C20.8875 9.26367 24.4666 12.8428 24.4666 17.2422C24.4666 21.6416 20.8874 25.2207 16.4881 25.2207Z" fill="#6C529C"/>
</g>
</g>
<defs>
<clipPath id="clip0_82_3544">
<rect width="33" height="33" fill="white"/>
</clipPath>
<clipPath id="clip1_82_3544">
<rect width="19" height="19" fill="white" transform="translate(7 7)"/>
</clipPath>
</defs>
</svg>
