<svg width="34" height="33" viewBox="0 0 34 33" fill="none" xmlns="http://www.w3.org/2000/svg">
<g clip-path="url(#clip0_82_3552)"> 
<path d="M17 14.625C14.0623 14.625 12.1875 15.4393 12.1875 16C12.1875 16.2877 12.7946 16.8171 14.4415 17.1412C14.7475 16.7828 15.1277 16.495 15.5559 16.298C15.9841 16.1009 16.4499 15.9993 16.9213 16H17.0787C17.5501 15.9993 18.0159 16.1009 18.4441 16.298C18.8723 16.495 19.2525 16.7828 19.5585 17.1412C21.2054 16.8171 21.8125 16.2877 21.8125 16C21.8125 15.4393 19.9377 14.625 17 14.625Z" fill="#E04178"/>
<path d="M15.625 9.8125H18.375C18.5573 9.8125 18.7322 9.74007 18.8611 9.61114C18.9901 9.4822 19.0625 9.30734 19.0625 9.125C19.0625 8.94266 18.9901 8.7678 18.8611 8.63886C18.7322 8.50993 18.5573 8.4375 18.375 8.4375H15.625C15.4427 8.4375 15.2678 8.50993 15.1389 8.63886C15.0099 8.7678 14.9375 8.94266 14.9375 9.125C14.9375 9.30734 15.0099 9.4822 15.1389 9.61114C15.2678 9.74007 15.4427 9.8125 15.625 9.8125Z" fill="#E04178"/>
<path d="M11.9929 19.4375C12.3879 19.4388 12.7741 19.321 13.1012 19.0996C13.4282 18.8782 13.681 18.5634 13.8265 18.1962L13.8818 18.0587C13.9257 17.9558 13.9748 17.8553 14.029 17.7575C12.4158 17.3928 11.5 16.7641 11.5 16C11.5 14.6459 14.2668 13.9375 17 13.9375C19.7332 13.9375 22.5 14.6459 22.5 16C22.5 16.7641 21.5843 17.3928 19.971 17.7565C20.0252 17.8543 20.0743 17.9548 20.1182 18.0576L20.1735 18.1951C20.3188 18.5625 20.5715 18.8776 20.8986 19.0992C21.2257 19.3208 21.612 19.4387 22.0071 19.4375C22.6363 19.4367 23.2563 19.2862 23.8158 18.9983C24.3753 18.7105 24.8582 18.2935 25.2246 17.782C25.4654 17.4461 25.5946 17.043 25.5938 16.6297C25.5927 16.2875 25.5036 15.9514 25.335 15.6536C25.1665 15.3559 24.9241 15.1065 24.6313 14.9295C24.4011 14.7906 24.2106 14.5947 24.0781 14.3607C23.9457 14.1267 23.8757 13.8626 23.875 13.5937C23.8745 13.3824 23.8011 13.1778 23.6671 13.0145C23.5331 12.8511 23.3468 12.739 23.1397 12.6972C22.865 12.6411 22.6114 12.5095 22.4073 12.3173C22.2032 12.1251 22.0568 11.8797 21.9844 11.6089L21.4117 9.43158C21.1552 8.45713 20.5833 7.59501 19.7853 6.97983C18.9873 6.36464 18.008 6.03101 17.0003 6.03101C15.9927 6.03101 15.0134 6.36464 14.2154 6.97983C13.4174 7.59501 12.8455 8.45713 12.589 9.43158L12.0156 11.6085C11.9433 11.8795 11.7968 12.1249 11.5926 12.3172C11.3885 12.5095 11.1347 12.6411 10.8599 12.6972C10.6529 12.7391 10.4667 12.8512 10.3328 13.0145C10.1989 13.1779 10.1255 13.3825 10.125 13.5937C10.1243 13.8626 10.0543 14.1267 9.92185 14.3607C9.78939 14.5946 9.59891 14.7905 9.36875 14.9295C9.07591 15.1065 8.83355 15.3559 8.66498 15.6536C8.49641 15.9514 8.40731 16.2875 8.40625 16.6297C8.4054 17.0429 8.53456 17.4459 8.77544 17.7816C9.14174 18.2933 9.62463 18.7103 10.1841 18.9983C10.7436 19.2862 11.3637 19.4368 11.9929 19.4375ZM15.625 7.74995H18.375C18.7397 7.74995 19.0894 7.89482 19.3473 8.15268C19.6051 8.41054 19.75 8.76028 19.75 9.12495C19.75 9.48963 19.6051 9.83936 19.3473 10.0972C19.0894 10.3551 18.7397 10.5 18.375 10.5H15.625C15.2603 10.5 14.9106 10.3551 14.6527 10.0972C14.3949 9.83936 14.25 9.48963 14.25 9.12495C14.25 8.76028 14.3949 8.41054 14.6527 8.15268C14.9106 7.89482 15.2603 7.74995 15.625 7.74995Z" fill="#E04178"/>
<path d="M18.7188 21.5H18.6596C18.5916 21.4997 18.5253 21.4793 18.4689 21.4413C18.4125 21.4033 18.3687 21.3494 18.3429 21.2865C18.3172 21.2236 18.3107 21.1544 18.3242 21.0878C18.3377 21.0212 18.3707 20.9601 18.419 20.9122L18.4609 20.8706C18.4928 20.8386 18.5181 20.8006 18.5353 20.7589C18.5525 20.7171 18.5613 20.6723 18.5612 20.6272C18.5611 20.582 18.5521 20.5373 18.5347 20.4956C18.5173 20.4539 18.4919 20.4161 18.4599 20.3842C18.4279 20.3523 18.3899 20.3271 18.3482 20.3099C18.3064 20.2927 18.2617 20.2839 18.2165 20.284C18.1713 20.2841 18.1266 20.2931 18.0849 20.3104C18.0432 20.3278 18.0054 20.3532 17.9735 20.3852L17.9319 20.4268C17.8839 20.4753 17.8225 20.5085 17.7556 20.522C17.6887 20.5356 17.6193 20.5289 17.5562 20.5028C17.4931 20.4767 17.4392 20.4325 17.4014 20.3756C17.3636 20.3188 17.3435 20.252 17.3438 20.1838V20.125C17.3438 20.0338 17.3075 19.9464 17.2431 19.8819C17.1786 19.8175 17.0912 19.7812 17 19.7812C16.9088 19.7812 16.8214 19.8175 16.7569 19.8819C16.6925 19.9464 16.6562 20.0338 16.6562 20.125V20.1838C16.6562 20.2518 16.6361 20.3182 16.5983 20.3747C16.5605 20.4312 16.5068 20.4753 16.444 20.5013C16.3812 20.5273 16.3121 20.5341 16.2455 20.5209C16.1788 20.5076 16.1175 20.4749 16.0695 20.4268L16.0279 20.3852C15.9634 20.3208 15.8759 20.2846 15.7847 20.2846C15.6935 20.2846 15.6061 20.3209 15.5416 20.3854C15.4772 20.4499 15.441 20.5374 15.441 20.6285C15.4411 20.7197 15.4773 20.8072 15.5418 20.8716L15.5824 20.9122C15.6306 20.9601 15.6636 21.0212 15.6772 21.0878C15.6907 21.1544 15.6842 21.2236 15.6584 21.2865C15.6327 21.3494 15.5888 21.4033 15.5325 21.4413C15.4761 21.4793 15.4097 21.4997 15.3418 21.5H15.2812C15.1901 21.5 15.1026 21.5362 15.0382 21.6007C14.9737 21.6651 14.9375 21.7526 14.9375 21.8438C14.9375 21.9349 14.9737 22.0224 15.0382 22.0868C15.1026 22.1513 15.1901 22.1875 15.2812 22.1875H15.3404C15.4084 22.1878 15.4747 22.2082 15.5311 22.2462C15.5875 22.2842 15.6313 22.3381 15.6571 22.401C15.6828 22.4639 15.6893 22.5331 15.6758 22.5997C15.6623 22.6663 15.6293 22.7274 15.581 22.7753L15.5391 22.8169C15.4747 22.8815 15.4386 22.9691 15.4388 23.0603C15.439 23.1515 15.4755 23.2389 15.5401 23.3033C15.6047 23.3677 15.6923 23.4037 15.7835 23.4035C15.8747 23.4033 15.9621 23.3669 16.0265 23.3023L16.0674 23.261C16.1153 23.2123 16.1767 23.179 16.2436 23.1653C16.3106 23.1516 16.3801 23.1582 16.4433 23.1842C16.5065 23.2102 16.5605 23.2544 16.5985 23.3113C16.6364 23.3682 16.6565 23.435 16.6562 23.5034V23.5625C16.6562 23.6537 16.6925 23.7411 16.7569 23.8056C16.8214 23.87 16.9088 23.9062 17 23.9062C17.0912 23.9062 17.1786 23.87 17.2431 23.8056C17.3075 23.7411 17.3438 23.6537 17.3438 23.5625V23.5034C17.3438 23.4353 17.364 23.3688 17.4018 23.3122C17.4397 23.2557 17.4935 23.2116 17.5564 23.1857C17.6193 23.1597 17.6885 23.153 17.7553 23.1664C17.822 23.1799 17.8832 23.2128 17.9312 23.261L17.9728 23.3026C18.0377 23.3652 18.1246 23.3997 18.2147 23.3988C18.3049 23.3979 18.391 23.3616 18.4547 23.2978C18.5183 23.2339 18.5544 23.1477 18.555 23.0575C18.5557 22.9674 18.5209 22.8806 18.4582 22.8159L18.4176 22.7753C18.3694 22.7274 18.3364 22.6663 18.3228 22.5997C18.3093 22.5331 18.3158 22.4639 18.3416 22.401C18.3673 22.3381 18.4112 22.2842 18.4675 22.2462C18.5239 22.2082 18.5903 22.1878 18.6583 22.1875H18.7188C18.8099 22.1875 18.8974 22.1513 18.9618 22.0868C19.0263 22.0224 19.0625 21.9349 19.0625 21.8438C19.0625 21.7526 19.0263 21.6651 18.9618 21.6007C18.8974 21.5362 18.8099 21.5 18.7188 21.5ZM17 22.5312C16.864 22.5312 16.7311 22.4909 16.618 22.4154C16.505 22.3398 16.4169 22.2325 16.3648 22.1068C16.3128 21.9812 16.2992 21.843 16.3257 21.7096C16.3522 21.5763 16.4177 21.4538 16.5139 21.3576C16.61 21.2615 16.7325 21.196 16.8659 21.1695C16.9992 21.1429 17.1375 21.1565 17.2631 21.2086C17.3887 21.2606 17.4961 21.3487 17.5716 21.4618C17.6472 21.5749 17.6875 21.7078 17.6875 21.8438C17.6875 22.0261 17.6151 22.201 17.4861 22.3299C17.3572 22.4588 17.1823 22.5312 17 22.5312Z" fill="#E04178"/>
<path d="M22.0071 20.125C21.4746 20.1267 20.954 19.9679 20.5131 19.6694C20.0722 19.3709 19.7314 18.9466 19.5352 18.4516L19.4798 18.3141C19.2895 17.8331 18.9586 17.4205 18.5302 17.1304C18.1019 16.8402 17.5961 16.6859 17.0787 16.6875H16.9213C16.404 16.6858 15.8983 16.8399 15.47 17.1299C15.0417 17.4199 14.7107 17.8322 14.5202 18.3131L14.4648 18.4506C14.2687 18.9458 13.928 19.3703 13.4871 19.669C13.0462 19.9677 12.5255 20.1266 11.9929 20.125C11.3059 20.1231 10.6279 19.9689 10.0077 19.6734C9.38747 19.3779 8.84053 18.9486 8.40625 18.4162V21.5C8.40761 22.6848 8.87887 23.8206 9.71662 24.6584C10.5544 25.4961 11.6902 25.9674 12.875 25.9688H21.125C22.3098 25.9674 23.4456 25.4961 24.2834 24.6584C25.1211 23.8206 25.5924 22.6848 25.5938 21.5V18.4162C25.1595 18.9486 24.6125 19.3779 23.9923 19.6734C23.3721 19.9689 22.6941 20.1231 22.0071 20.125ZM19.2 22.7554C19.2552 22.9346 19.2605 23.1254 19.2153 23.3073C19.1701 23.4893 19.0762 23.6555 18.9436 23.7881C18.8111 23.9206 18.6449 24.0146 18.4629 24.0597C18.2809 24.1049 18.0901 24.0996 17.9109 24.0445C17.8232 24.2099 17.692 24.3483 17.5315 24.4448C17.371 24.5413 17.1873 24.5923 17 24.5923C16.8127 24.5923 16.629 24.5413 16.4685 24.4448C16.308 24.3483 16.1768 24.2099 16.0891 24.0445C15.9099 24.0996 15.7191 24.1049 15.5371 24.0597C15.3551 24.0146 15.1889 23.9206 15.0564 23.7881C14.9238 23.6555 14.8299 23.4893 14.7847 23.3073C14.7395 23.1254 14.7448 22.9346 14.8 22.7554C14.6346 22.6676 14.4962 22.5364 14.3997 22.3759C14.3031 22.2155 14.2521 22.0317 14.2521 21.8445C14.2521 21.6572 14.3031 21.4734 14.3997 21.313C14.4962 21.1525 14.6346 21.0213 14.8 20.9335C14.7448 20.7543 14.7395 20.5635 14.7847 20.3816C14.8299 20.1996 14.9238 20.0334 15.0564 19.9008C15.1889 19.7683 15.3551 19.6743 15.5371 19.6292C15.7191 19.584 15.9099 19.5893 16.0891 19.6445C16.1768 19.479 16.308 19.3406 16.4685 19.2441C16.629 19.1476 16.8127 19.0966 17 19.0966C17.1873 19.0966 17.371 19.1476 17.5315 19.2441C17.692 19.3406 17.8232 19.479 17.9109 19.6445C18.0901 19.5892 18.281 19.5839 18.463 19.629C18.645 19.6741 18.8113 19.768 18.9439 19.9006C19.0765 20.0332 19.1705 20.1994 19.2157 20.3814C19.2608 20.5634 19.2555 20.7543 19.2003 20.9335C19.3658 21.0213 19.5042 21.1525 19.6007 21.313C19.6972 21.4734 19.7482 21.6572 19.7482 21.8445C19.7482 22.0317 19.6972 22.2155 19.6007 22.3759C19.5042 22.5364 19.3654 22.6676 19.2 22.7554Z" fill="#E04178"/>
</g>
<defs>
<clipPath id="clip0_82_3552">
<rect width="33" height="33" fill="white" transform="translate(0.5)"/>
</clipPath>
</defs>
</svg>
