<svg width="54" height="54" viewBox="0 0 54 54" fill="none" xmlns="http://www.w3.org/2000/svg">
<path d="M37.5321 19.5333C35.6055 17.9333 33.2936 17.1333 30.8532 17L30.4679 17.4C32.6514 17.9333 34.578 19 36.3761 20.4667C34.1927 19.2667 31.7523 18.4667 29.1835 18.2C28.4128 18.0667 27.7706 18.0667 27 18.0667C26.2294 18.0667 25.5872 18.0667 24.8165 18.2C22.2477 18.4667 19.8073 19.2667 17.6239 20.4667C19.422 19 21.3486 17.9333 23.5321 17.4L23.1468 17C20.7064 17.1333 18.3945 17.9333 16.4679 19.5333C14.2844 23.8 13.1284 28.6 13 33.5333C14.9266 35.6667 17.6239 37 20.4495 37C20.4495 37 21.3486 35.9333 21.9908 35C20.3211 34.6 18.7798 33.6667 17.7523 32.2C18.6514 32.7333 19.5505 33.2667 20.4495 33.6667C21.6055 34.2 22.7615 34.4667 23.9174 34.7333C24.945 34.8667 25.9725 35 27 35C28.0275 35 29.055 34.8667 30.0826 34.7333C31.2385 34.4667 32.3945 34.2 33.5505 33.6667C34.4495 33.2667 35.3486 32.7333 36.2477 32.2C35.2202 33.6667 33.6789 34.6 32.0092 35C32.6514 35.9333 33.5505 37 33.5505 37C36.3761 37 39.0734 35.6667 41 33.5333C40.8716 28.6 39.7156 23.8 37.5321 19.5333ZM22.7615 31.1333C21.4771 31.1333 20.3211 29.9333 20.3211 28.4667C20.3211 27 21.4771 25.8 22.7615 25.8C24.0459 25.8 25.2018 27 25.2018 28.4667C25.2018 29.9333 24.0459 31.1333 22.7615 31.1333ZM31.2385 31.1333C29.9541 31.1333 28.7982 29.9333 28.7982 28.4667C28.7982 27 29.9541 25.8 31.2385 25.8C32.5229 25.8 33.6789 27 33.6789 28.4667C33.6789 29.9333 32.5229 31.1333 31.2385 31.1333Z" fill="url(#paint0_linear_1_425)"/>
<defs>
<linearGradient id="paint0_linear_1_425" x1="15.5" y1="20.5" x2="34.5" y2="37" gradientUnits="userSpaceOnUse">
<stop stop-color="#E41476"/>
<stop offset="1" stop-color="#00C9F1"/>
</linearGradient>
</defs>
</svg>
