<svg width="54" height="54" viewBox="0 0 54 54" fill="none" xmlns="http://www.w3.org/2000/svg">
<path fill-rule="evenodd" clip-rule="evenodd" d="M28.865 16.2746L38.6435 21.3961C39.0954 21.6328 39.1025 22.3057 38.6557 22.5527L25.9557 29.574C25.2476 29.9655 24.4027 29.9752 23.6866 29.6001L15.7128 25.4237C14.7413 25.0149 13.6552 25.7616 13.6552 26.8862C13.6552 27.7904 14.1428 28.617 14.9149 29.0213L22.9092 33.2084C23.3972 32.6879 24.0767 32.3651 24.8282 32.3651C25.5583 32.3651 26.2203 32.6697 26.7049 33.1643L36.6622 27.6593C36.6349 27.4984 36.6207 27.3327 36.6207 27.1635C36.6207 25.6075 37.8249 24.3461 39.3104 24.3461C40.7958 24.3461 42 25.6075 42 27.1635C42 28.7196 40.7958 29.981 39.3104 29.981C38.584 29.981 37.9249 29.6794 37.441 29.1893L27.4781 34.6973C27.5043 34.8549 27.5179 35.0171 27.5179 35.1825C27.5179 36.7386 26.3137 38 24.8282 38C23.3428 38 22.1386 36.7386 22.1386 35.1825C22.1386 35.0386 22.1489 34.8972 22.1688 34.7591L14.0586 30.5114C12.797 29.8505 12 28.4997 12 27.0221V26.1991C12 25.0737 12.5946 24.0408 13.5447 23.5156L26.5959 16.3007C27.304 15.9092 28.1489 15.8995 28.865 16.2746ZM24.8282 36.2662C25.3996 36.2662 25.8627 35.781 25.8627 35.1825C25.8627 34.5841 25.3996 34.0989 24.8282 34.0989C24.2569 34.0989 23.7938 34.5841 23.7938 35.1825C23.7938 35.781 24.2569 36.2662 24.8282 36.2662ZM40.3448 27.1635C40.3448 27.762 39.8817 28.2472 39.3104 28.2472C38.739 28.2472 38.2759 27.762 38.2759 27.1635C38.2759 26.565 38.739 26.0799 39.3104 26.0799C39.8817 26.0799 40.3448 26.565 40.3448 27.1635Z" fill="url(#paint0_linear_1_435)"/>
<defs>
<linearGradient id="paint0_linear_1_435" x1="14.6786" y1="19.85" x2="35.4946" y2="37.4575" gradientUnits="userSpaceOnUse">
<stop stop-color="#E41476"/>
<stop offset="1" stop-color="#00C9F1"/>
</linearGradient>
</defs>
</svg>
