<svg width="54" height="54" viewBox="0 0 54 54" fill="none" xmlns="http://www.w3.org/2000/svg">
<path d="M28.7936 26.9999C28.7936 31.4181 25.2581 35 20.8967 35C16.5353 35 13 31.4192 13 26.9999C13 22.5805 16.5355 19 20.8967 19C25.2578 19 28.7936 22.5816 28.7936 26.9999ZM37.4567 26.9999C37.4567 31.1591 35.6888 34.5305 33.5082 34.5305C31.3276 34.5305 29.5597 31.158 29.5597 26.9999C29.5597 22.8417 31.3276 19.4692 33.5082 19.4692C35.6888 19.4692 37.4567 22.8417 37.4567 26.9999ZM41 26.9999C41 30.7264 40.3782 33.747 39.6113 33.747C38.8444 33.747 38.2225 30.7253 38.2225 26.9999C38.2225 23.2745 38.8444 20.2527 39.6115 20.2527C40.3787 20.2527 41 23.2736 41 26.9999Z" fill="url(#paint0_linear_1_433)"/>
<defs>
<linearGradient id="paint0_linear_1_433" x1="15.5" y1="21.8" x2="30.8" y2="38.4085" gradientUnits="userSpaceOnUse">
<stop stop-color="#E41476"/>
<stop offset="1" stop-color="#00C9F1"/>
</linearGradient>
</defs>
</svg>
