<svg width="54" height="54" viewBox="0 0 54 54" fill="none" xmlns="http://www.w3.org/2000/svg">
<path fill-rule="evenodd" clip-rule="evenodd" d="M26.6245 21.8523L26.6808 22.8039L25.7415 22.6874C22.3224 22.2407 19.3353 20.726 16.7992 18.182L15.5593 16.9198L15.2399 17.8519C14.5636 19.9298 14.9957 22.1242 16.4047 23.6001C17.1561 24.4157 16.987 24.5323 15.6908 24.0468C15.2399 23.8914 14.8454 23.7749 14.8078 23.8331C14.6763 23.9691 15.1272 25.7363 15.4841 26.4354C15.9726 27.4064 16.9683 28.3579 18.0579 28.9211L18.9784 29.3677L17.8888 29.3872C16.8368 29.3872 16.7992 29.4066 16.9119 29.8144C17.2876 31.0767 18.7718 32.4166 20.425 32.9992L21.5897 33.407L20.5753 34.0285C19.0723 34.9218 17.3064 35.4267 15.5405 35.4655C14.6951 35.4849 14 35.5626 14 35.6209C14 35.8151 16.2919 36.9026 17.6258 37.3298C21.6273 38.5921 26.3803 38.0483 29.9497 35.8927C32.4859 34.3586 35.022 31.3097 36.2056 28.3579C36.8443 26.7849 37.483 23.9108 37.483 22.532C37.483 21.6387 37.5394 21.5222 38.5914 20.4541C39.2114 19.8327 39.7938 19.153 39.9065 18.9588C40.0944 18.5898 40.0756 18.5898 39.1175 18.92C37.5206 19.5026 37.2952 19.4249 38.0842 18.551C38.6666 17.9296 39.3617 16.8032 39.3617 16.4731C39.3617 16.4148 39.0799 16.5119 38.7605 16.6867C38.4224 16.8809 37.6709 17.1722 37.1073 17.347L36.0928 17.6771L35.1723 17.0363C34.6651 16.6867 33.9512 16.2983 33.5755 16.1818C32.6174 15.9099 31.152 15.9488 30.2878 16.2595C27.9395 17.1334 26.4554 19.3861 26.6245 21.8523Z" fill="url(#paint0_linear_1_423)"/>
<defs>
<linearGradient id="paint0_linear_1_423" x1="15.5" y1="18.5" x2="30" y2="40.5" gradientUnits="userSpaceOnUse">
<stop stop-color="#E41476"/>
<stop offset="1" stop-color="#00C9F1"/>
</linearGradient>
</defs>
</svg>
