<svg width="141" height="104" viewBox="0 0 141 104" fill="none" xmlns="http://www.w3.org/2000/svg">
<path d="M21.1851 86.5003C21.2521 86.8995 21.3859 87.2322 21.6202 87.4984C22.1222 87.9974 22.9924 88.1638 23.8626 88.1638C26.9751 88.1638 27.9122 86.3007 27.9456 83.9053C27.9456 83.8388 27.9122 83.8055 27.8787 83.8055C27.6779 83.8055 24.0299 83.8388 23.6283 83.872C23.0593 83.9053 22.9255 84.1382 22.8585 84.604C22.8585 84.7038 22.8251 84.7703 22.7581 84.7703C22.7247 84.7703 22.6577 84.737 22.6577 84.6372C22.6577 84.5374 22.7247 83.8388 22.7247 83.5061C22.7247 83.2066 22.6912 83.007 22.6912 82.9072C22.6912 82.8407 22.6912 82.7741 22.7581 82.7741C22.7916 82.7741 22.8251 82.8074 22.8585 82.874C22.9589 83.1401 23.0593 83.2066 23.5948 83.2399C24.1303 83.2732 27.6779 83.2732 27.8452 83.2732C27.8787 83.2732 27.9122 83.2399 27.9122 83.2066C27.8787 81.9424 27.4102 81.0109 26.8412 80.4453C26.3727 79.9795 25.5025 79.3474 23.963 79.3474C22.892 79.3474 22.2226 79.547 21.7876 79.8797C21.4864 80.1459 21.3525 80.5118 21.3525 81.1772C21.3525 81.3103 21.319 81.3768 21.2521 81.3768C21.1851 81.3768 21.1517 81.3103 21.1517 81.1772C21.1517 80.9776 21.1517 80.3788 21.1517 79.9463C21.1182 79.5803 21.1182 79.5137 21.1182 79.4139C21.1182 79.3474 21.1517 79.2809 21.2521 79.2809C21.6202 79.2476 21.9549 79.1478 22.4235 79.0812C22.9924 78.9814 23.6952 78.9149 24.1972 78.9149C25.971 78.9149 27.1089 79.4805 27.8452 80.2457C28.8493 81.277 29.0836 82.7409 29.0836 83.6059C29.0836 84.8036 28.7489 86.2674 27.5775 87.3653C26.6069 88.2636 25.4356 88.6628 23.6952 88.6628C22.9255 88.6628 22.0888 88.563 21.5868 88.3634C21.3859 88.2636 21.319 88.1971 21.2855 87.9974C21.1517 87.4984 21.0513 86.6334 21.0513 86.467C21.0513 86.3672 21.0513 86.2674 21.1517 86.2674C21.1517 86.3007 21.1851 86.3672 21.1851 86.5003ZM36.6808 84.9367C36.6808 86.1344 36.6808 87.1324 36.6138 87.6315C36.5803 87.9974 36.5134 88.2636 36.2457 88.3301C36.1453 88.3634 35.9779 88.3634 35.8775 88.3634C35.8106 88.3634 35.7771 88.3967 35.7771 88.4299C35.7771 88.4965 35.8441 88.5297 35.9779 88.5297C36.3461 88.5297 37.1158 88.4965 37.1493 88.4965C37.2162 88.4965 37.986 88.5297 38.6554 88.5297C38.7892 88.5297 38.8562 88.4965 38.8562 88.4299C38.8562 88.3967 38.8227 88.3634 38.7558 88.3634C38.6554 88.3634 38.3876 88.3301 38.2203 88.3301C37.8521 88.2636 37.7852 87.9974 37.7517 87.6315C37.6848 87.0992 37.6848 86.1344 37.6848 84.9367V79.8132C37.6848 79.6801 37.7183 79.6136 37.7852 79.5803C37.8856 79.5137 38.0864 79.5137 38.3207 79.5137C38.5884 79.5137 39.3582 79.4805 39.9941 80.1459C40.63 80.8113 40.6634 81.643 40.6634 81.9757C40.6634 83.2732 39.7263 84.1049 38.5549 84.1049C38.2872 84.1049 38.2203 84.1049 38.2203 84.2047C38.2203 84.2713 38.2872 84.3045 38.3541 84.3045C38.4211 84.3045 38.555 84.3045 38.6219 84.3045C40.3622 84.3045 41.6005 83.1068 41.6005 81.4766C41.6005 80.6782 41.2658 80.1126 40.9981 79.8464C40.7973 79.6468 40.2618 79.1478 38.7223 79.1478C38.1533 79.1478 37.4505 79.1811 37.1828 79.1811C37.0824 79.1811 36.3461 79.1478 35.8106 79.1478C35.6767 79.1478 35.6098 79.1811 35.6098 79.2476C35.6098 79.3141 35.6432 79.3141 35.7102 79.3141C35.8106 79.3141 36.0114 79.3141 36.1118 79.3474C36.5134 79.4472 36.6138 79.6468 36.6473 80.0461C36.6808 80.4453 36.6808 80.778 36.6808 82.7409V84.9367ZM57.5982 79.2809C57.5647 79.048 57.5312 78.9482 57.4643 78.9482C57.3639 78.9482 57.3304 79.048 57.2969 79.1478L53.7159 86.9661L50.0009 79.1478C49.934 79.0147 49.9005 78.9482 49.8336 78.9482C49.7667 78.9482 49.6997 79.048 49.6997 79.1811L48.8296 87.2655C48.7626 87.7645 48.7292 88.2303 48.3276 88.2969C48.1602 88.3301 48.0598 88.3301 47.9594 88.3301C47.8925 88.3301 47.8255 88.3634 47.8255 88.3967C47.8255 88.4965 47.9259 88.4965 48.0263 88.4965C48.361 88.4965 48.93 88.4632 49.0639 88.4632C49.1643 88.4632 49.7667 88.4965 50.2352 88.4965C50.3691 88.4965 50.4026 88.4632 50.4026 88.3967C50.4026 88.3634 50.3691 88.3301 50.2687 88.3301C50.2018 88.3301 50.0344 88.3301 49.8336 88.2969C49.6663 88.2636 49.4989 88.1638 49.4989 87.8644C49.4989 87.6647 49.4989 87.4651 49.5324 87.2655L50.0344 81.4101C50.1683 81.7428 51.5739 84.8368 51.6743 85.0365C51.7413 85.1695 52.7788 87.2988 53.1135 87.9309C53.3477 88.3634 53.4147 88.4965 53.4816 88.4965C53.582 88.4965 53.6155 88.3967 53.8832 87.8311L56.8953 81.277L57.4977 87.7645C57.5312 87.9974 57.5312 88.1638 57.4643 88.1971C57.3973 88.2303 57.3639 88.2303 57.3639 88.2969C57.3639 88.3634 57.4308 88.3967 57.6986 88.4299C58.1336 88.4632 59.5393 88.4965 59.807 88.4965C59.9409 88.4965 59.9744 88.4632 59.9744 88.3967C59.9744 88.3301 59.9074 88.3301 59.8405 88.3301C59.7066 88.3301 59.4389 88.3301 59.0707 88.2303C58.5352 88.064 58.4683 87.3653 58.4014 86.8996L57.5982 79.2809ZM67.605 80.6116C67.6385 79.547 67.7054 79.4139 68.0401 79.3474C68.1405 79.3141 68.2075 79.3141 68.3413 79.3141C68.4752 79.3141 68.5087 79.2809 68.5087 79.2143C68.5087 79.1811 68.4417 79.1478 68.3079 79.1478C67.9732 79.1478 67.4712 79.1811 67.103 79.1811C66.9022 79.1811 66.1324 79.1478 65.7643 79.1478C65.6304 79.1478 65.53 79.1478 65.53 79.2476C65.53 79.3141 65.5635 79.3141 65.6639 79.3474C65.7643 79.3474 65.8982 79.3474 66.0655 79.3807C66.4671 79.4472 66.601 79.547 66.601 80.9111C66.6345 83.3065 66.601 86.1011 66.601 88.1638C66.601 88.6628 66.6345 88.7626 66.7683 88.7626C66.8353 88.7626 66.9691 88.6961 67.2034 88.4299C67.7054 87.8644 72.7925 81.4101 73.4284 80.6116C73.395 82.7409 73.4284 84.8036 73.395 86.8663C73.395 87.7978 73.328 88.3301 72.9934 88.3967C72.893 88.4299 72.7591 88.4299 72.6252 88.4299C72.4579 88.4299 72.4579 88.4632 72.4579 88.5297C72.4579 88.563 72.4913 88.5963 72.6252 88.5963C73.0603 88.5963 73.4619 88.563 73.7296 88.563C73.9305 88.563 75.0014 88.5963 75.4365 88.5963C75.5704 88.5963 75.6038 88.5963 75.6038 88.4965C75.6038 88.4632 75.5704 88.4299 75.4365 88.3967C75.2357 88.3967 75.0349 88.3634 74.968 88.3634C74.5663 88.2969 74.4659 87.9642 74.4659 87.0659C74.4325 84.737 74.4325 82.508 74.4325 80.1791C74.4325 79.0812 74.3655 78.9814 74.2651 78.9814C74.1313 78.9814 73.9305 79.1811 73.4619 79.7466C72.2571 81.2438 69.1446 85.2361 67.605 87.0992V80.6116ZM85.7781 79.6801C86.2801 79.6801 86.8156 79.6801 87.3176 79.7134C88.489 79.7466 88.7902 80.0128 88.8236 80.412C88.8236 80.4786 88.8236 80.5118 88.8236 80.5451C88.8236 80.7114 88.8571 80.7447 88.924 80.7447C88.9575 80.7447 89.0245 80.7114 89.0245 80.5784C89.0245 80.4453 89.0579 79.5803 89.0579 79.2143C89.0579 79.1478 89.0579 79.048 88.991 79.048C88.9575 79.048 88.8236 79.0813 88.6563 79.1145C88.4555 79.1478 88.1878 79.1811 87.7861 79.1811H83.2345C83.1006 79.1811 82.6321 79.1478 82.2639 79.1145C81.9293 79.0813 81.8289 78.9482 81.7285 78.9482C81.695 78.9482 81.6281 79.1145 81.5946 79.1811C81.5611 79.2809 81.3268 80.3455 81.3268 80.4786C81.3268 80.5451 81.3603 80.5784 81.3938 80.5784C81.4272 80.5784 81.4942 80.5451 81.5277 80.4453C81.5611 80.3455 81.5946 80.2789 81.7285 80.0461C81.9293 79.7466 82.2305 79.6468 82.9668 79.6468C83.5692 79.6468 84.1716 79.6468 84.774 79.6136V84.8701C84.774 86.0678 84.774 87.0326 84.7071 87.5649C84.6736 87.9309 84.6067 88.197 84.339 88.2636C84.2385 88.2969 84.0712 88.2969 83.9708 88.2969C83.9039 88.2969 83.8704 88.3301 83.8704 88.3634C83.8704 88.4299 83.9373 88.4632 84.0712 88.4632C84.4394 88.4632 85.2091 88.4299 85.2761 88.4299C85.343 88.4299 86.1127 88.4632 86.7821 88.4632C86.916 88.4632 86.9829 88.4299 86.9829 88.3634C86.9829 88.3301 86.9494 88.2969 86.8825 88.2969C86.7821 88.2969 86.5144 88.2636 86.347 88.2636C85.9789 88.2303 85.9119 87.9309 85.8785 87.5649C85.8115 87.0326 85.8115 86.0678 85.8115 84.8701V79.6801H85.7781ZM99.0313 84.8701C99.0983 84.8701 99.1317 84.9034 99.1317 84.9367L100.27 87.9974C100.337 88.1971 100.27 88.2969 100.203 88.3301C100.169 88.3301 100.102 88.3634 100.102 88.4299C100.102 88.4965 100.236 88.4965 100.47 88.5297C101.307 88.563 102.211 88.563 102.378 88.563C102.512 88.563 102.612 88.5297 102.612 88.4632C102.612 88.3967 102.545 88.3967 102.479 88.3967C102.378 88.3967 102.177 88.3967 102.01 88.3301C101.742 88.2636 101.408 88.064 100.972 86.9328C100.236 85.0365 98.3285 79.913 98.1277 79.4139C97.9938 79.0147 97.9269 78.9814 97.86 78.9814C97.793 78.9814 97.7261 79.048 97.5922 79.4805L94.8144 87.199C94.5801 87.8311 94.3458 88.2969 93.7769 88.3634C93.6765 88.3634 93.5761 88.3967 93.4757 88.3967C93.3753 88.3967 93.3083 88.4299 93.3083 88.4632C93.3083 88.5297 93.3753 88.563 93.5426 88.563C94.1116 88.563 94.7809 88.5297 94.9148 88.5297C95.0487 88.5297 95.5507 88.563 95.8184 88.563C95.9188 88.563 96.0527 88.5297 96.0527 88.4632C96.0527 88.3967 96.0192 88.3967 95.8854 88.3967H95.785C95.5842 88.3967 95.3499 88.2969 95.3499 88.0307C95.3499 87.7978 95.4168 87.4984 95.5172 87.199L96.2535 85.0032C96.287 84.9367 96.3204 84.9034 96.3874 84.9034H99.0313V84.8701ZM96.5547 84.4376C96.5212 84.4376 96.4878 84.4043 96.5212 84.3378L97.5922 80.9776C97.6592 80.778 97.7261 80.778 97.7596 80.9776L98.9309 84.3378C98.9309 84.3711 98.9309 84.4376 98.8975 84.4376H96.5547ZM114.259 82.7409C114.259 80.8113 114.259 80.4453 114.293 80.0461C114.326 79.6136 114.427 79.4139 114.728 79.3474C114.862 79.3141 114.962 79.3141 115.029 79.3141C115.062 79.3141 115.129 79.2809 115.129 79.2476C115.129 79.1811 115.062 79.1478 114.929 79.1478C114.56 79.1478 113.824 79.1811 113.757 79.1811C113.69 79.1811 112.954 79.1478 112.552 79.1478C112.418 79.1478 112.352 79.1811 112.352 79.2476C112.352 79.3141 112.385 79.3141 112.452 79.3141C112.552 79.3141 112.686 79.3141 112.82 79.3807C113.088 79.4472 113.222 79.6468 113.222 80.0793C113.255 80.4786 113.255 80.8113 113.255 82.7741V83.5726C112.72 83.007 111.281 81.5432 110.511 80.7114C109.741 79.913 109.641 79.6801 109.641 79.547C109.641 79.4472 109.674 79.3807 109.942 79.3141C110.076 79.2809 110.109 79.2809 110.109 79.2143C110.109 79.1478 110.076 79.1478 109.975 79.1478C109.674 79.1478 109.339 79.1811 108.938 79.1811C108.57 79.1811 107.934 79.1478 107.733 79.1478C107.566 79.1478 107.499 79.1811 107.499 79.2476C107.499 79.3141 107.566 79.3141 107.733 79.3474C107.9 79.3807 108.101 79.4139 108.268 79.4805C108.637 79.6136 108.904 79.7799 109.607 80.5118C109.975 80.8778 112.184 83.1401 112.485 83.4728C111.548 84.5374 109.975 86.2674 109.239 87.0326C108.302 87.9642 107.766 88.2969 107.298 88.3634C107.064 88.3967 107.03 88.3967 106.896 88.3967C106.762 88.3967 106.729 88.4299 106.729 88.4965C106.729 88.563 106.796 88.5963 106.896 88.5963H107.833C108.904 88.5963 109.206 88.3301 109.908 87.6315C110.879 86.6667 112.184 85.103 113.021 84.1049C113.088 84.0051 113.188 83.9053 113.289 83.7722V85.0032C113.289 86.2009 113.255 87.199 113.222 87.698C113.188 88.1305 113.088 88.3301 112.854 88.3967C112.753 88.4299 112.653 88.4299 112.552 88.4299C112.485 88.4299 112.418 88.4632 112.418 88.4965C112.418 88.563 112.452 88.5963 112.586 88.5963C112.954 88.5963 113.724 88.563 113.791 88.563C113.858 88.563 114.594 88.5963 115.263 88.5963C115.397 88.5963 115.431 88.563 115.431 88.4965C115.431 88.4632 115.397 88.4299 115.263 88.4299C115.163 88.4299 114.995 88.4299 114.761 88.3967C114.393 88.3634 114.326 88.064 114.293 87.698C114.226 87.1657 114.226 86.2009 114.226 85.0032V83.7722C114.326 83.872 114.427 83.9718 114.527 84.1049C115.498 85.3026 116.669 86.6999 117.573 87.6647C118.275 88.3967 118.577 88.5963 119.681 88.5963H120.585C120.718 88.5963 120.785 88.563 120.785 88.4965C120.785 88.4299 120.718 88.3967 120.618 88.3967C120.518 88.3967 120.317 88.3967 120.15 88.3301C119.714 88.2303 119.246 87.9309 118.443 87.1657C117.706 86.467 115.498 83.9386 115.029 83.4063C115.33 83.0736 116.937 81.4766 117.874 80.5118C118.61 79.7799 118.844 79.6136 119.212 79.4805C119.38 79.4139 119.581 79.3807 119.781 79.3474C119.949 79.3141 120.016 79.3141 120.016 79.2476C120.016 79.1811 119.982 79.1478 119.815 79.1478C119.614 79.1478 118.978 79.1811 118.61 79.1811C118.175 79.1811 117.907 79.1478 117.573 79.1478C117.472 79.1478 117.405 79.1811 117.405 79.2143C117.405 79.2476 117.439 79.2809 117.573 79.3141C117.807 79.3807 117.84 79.4472 117.84 79.547C117.84 79.6801 117.74 79.8797 117.004 80.6782C116.267 81.4766 114.627 83.1734 114.226 83.5393V82.7409H114.259ZM2.67743 96.6807H0V102.802H0.635889V97.2796H2.67743V96.6807ZM7.06171 96.5809L4.31735 102.802H4.98671L5.68953 101.139H8.40043L9.10325 102.802H9.77261L7.06171 96.5809ZM5.95727 100.54L7.06171 97.945L8.16615 100.54H5.95727ZM16.5331 96.6807H12.9186V101.139C12.9186 101.571 12.8851 101.871 12.7847 102.004C12.7178 102.137 12.5839 102.203 12.3831 102.203C12.3162 102.203 12.2158 102.17 12.0819 102.137L11.9815 102.736C12.1823 102.769 12.3496 102.802 12.4835 102.802C12.8851 102.802 13.1529 102.669 13.3202 102.37C13.4541 102.104 13.5545 101.704 13.5545 101.106V97.2463H15.9307V102.802H16.5666V96.6807H16.5331ZM23.1597 96.6807H20.0472V102.802H23.1597V102.203H20.6831V99.7415H23.0928V99.1427H20.6831V97.2796H23.1597V96.6807ZM29.5856 98.3775C29.5856 97.2463 28.8827 96.6807 27.4771 96.6807H26.4396V102.802H27.0755V100.141H27.611C28.2134 100.141 28.7154 99.9744 29.0501 99.675C29.4182 99.3756 29.5856 98.9431 29.5856 98.3775ZM28.9831 98.4107C28.9831 98.7767 28.8493 99.0761 28.615 99.2757C28.3473 99.4754 28.0126 99.5752 27.544 99.5752H27.0755V97.3129H27.4771C28.4811 97.2796 28.9831 97.6455 28.9831 98.4107ZM35.8106 96.6807H32.6981V102.802H35.8106V102.203H33.334V99.7415H35.7437V99.1427H33.334V97.2796H35.8106V96.6807ZM42.0356 96.6807H40.8977C40.2618 96.6807 39.7933 96.8471 39.4251 97.1465C39.0904 97.4459 38.9231 97.9117 38.9231 98.4773C38.9231 98.9098 39.057 99.2757 39.3247 99.5752C39.5925 99.8746 39.9941 100.074 40.4626 100.107L38.5884 102.802H39.3582L41.1654 100.107L41.4332 100.074V102.802H42.0691V96.6807H42.0356ZM41.3997 99.5086C41.2993 99.5419 41.132 99.5752 40.8977 99.5752C39.9941 99.5752 39.559 99.1759 39.559 98.4107C39.559 97.6455 40.0275 97.2796 40.9312 97.2796H41.3997V99.5086ZM54.5526 96.6807H53.9167V99.1759H50.8376V96.6807H50.2018V102.802H50.8376V99.8081H53.9167V102.802H54.5526V96.6807ZM61.1123 96.6807H57.9998V102.802H61.1123V102.203H58.6357V99.7415H61.0453V99.1427H58.6357V97.2796H61.1123V96.6807ZM68.9103 102.203H68.3413V96.714H64.6599V100.673C64.6599 101.139 64.5929 101.538 64.4256 101.804C64.2917 102.07 64.0909 102.203 63.8901 102.203V104H64.4925V102.802H68.3413V104H68.9437V102.203H68.9103ZM64.7937 102.203C64.9276 102.137 65.028 101.971 65.1284 101.671C65.2288 101.405 65.2623 101.072 65.2623 100.706V97.2796H67.7054V102.203H64.7937ZM75.3361 101.072C75.3361 100.706 75.2357 100.374 75.0014 100.074C74.7672 99.7748 74.4994 99.5752 74.0978 99.4754C74.2986 99.3756 74.4659 99.2092 74.5998 98.9763C74.7337 98.7434 74.7672 98.5438 74.7672 98.3109C74.7672 97.8119 74.6333 97.4127 74.3321 97.1465C74.0309 96.8471 73.5623 96.6807 72.9599 96.6807H71.8554V102.802H73.2611C73.897 102.802 74.4325 102.636 74.8006 102.337C75.1688 102.037 75.3361 101.605 75.3361 101.072ZM74.1982 98.3442C74.1982 99.0429 73.83 99.3756 73.0938 99.3756H72.5248V97.2796H72.9599C73.7966 97.2796 74.1982 97.6455 74.1982 98.3442ZM74.7002 101.072C74.7002 101.837 74.2317 102.203 73.2611 102.203H72.4913V99.9079H73.1272C74.1647 99.9079 74.7002 100.307 74.7002 101.072ZM83.268 96.5809L79.1514 101.305V96.6807H78.5155V102.902L82.6321 98.1779V102.802H83.268V96.5809ZM90.5974 99.5752L92.9736 96.6807H92.1704L89.9281 99.4088V96.6807H89.2922V99.4088L87.0499 96.6807H86.2801L88.6563 99.5752L86.1127 102.802H86.916L89.2922 99.7748V102.802H89.9281V99.7748L92.3043 102.802H93.1075L90.5974 99.5752ZM100.772 96.5809L96.6551 101.305V96.6807H96.0192V102.902L100.136 98.1779V102.802H100.772V96.5809ZM109.239 96.5809L107.064 101.472L104.888 96.5809L103.75 102.802H104.386L105.156 98.4773L107.097 102.902L109.005 98.4773L109.775 102.802H110.41L109.239 96.5809ZM119.313 99.7415C119.313 98.8765 119.012 98.1446 118.409 97.5125C117.807 96.8804 117.071 96.5809 116.2 96.5809C115.364 96.5809 114.627 96.8804 113.991 97.5125C113.389 98.1446 113.054 98.8765 113.054 99.7415C113.054 100.607 113.356 101.338 113.991 101.971C114.594 102.603 115.33 102.902 116.2 102.902C117.037 102.902 117.773 102.603 118.409 101.971C119.012 101.338 119.313 100.607 119.313 99.7415ZM118.677 99.7415C118.677 100.473 118.443 101.072 117.974 101.571C117.506 102.07 116.903 102.303 116.234 102.303C115.531 102.303 114.962 102.07 114.493 101.571C114.025 101.072 113.791 100.473 113.791 99.7415C113.791 99.0096 114.025 98.4107 114.493 97.9117C114.962 97.4127 115.564 97.1798 116.234 97.1798C116.937 97.1798 117.506 97.4127 117.974 97.9117C118.443 98.4107 118.677 99.0096 118.677 99.7415ZM127.01 101.571C126.508 102.037 125.939 102.303 125.304 102.303C124.634 102.303 124.032 102.07 123.563 101.605C123.061 101.106 122.827 100.507 122.827 99.7415C122.827 98.9763 123.061 98.3775 123.563 97.8784C124.032 97.4127 124.601 97.1798 125.304 97.1798C125.973 97.1798 126.575 97.4127 127.01 97.9117V97.1132C126.575 96.7805 126.006 96.5809 125.371 96.5809C124.5 96.5809 123.764 96.8803 123.128 97.4459C122.492 98.0448 122.191 98.81 122.191 99.7415C122.191 100.673 122.459 101.438 123.028 102.037C123.597 102.636 124.4 102.935 125.371 102.935C125.906 102.935 126.441 102.769 126.977 102.403V101.571H127.01ZM133.269 96.6807H129.621V97.2796H131.127V102.802H131.763V97.2796H133.269V96.6807ZM141 96.5809L136.883 101.305V96.6807H136.248V102.902L140.364 98.1779V102.802H141V96.5809ZM97.793 6.68714H41.7009V7.58541H97.8265V6.68714H97.793ZM36.8146 0L38.5215 0.598848C39.5255 0.964811 40.3622 1.6302 40.9312 2.52847C41.3997 3.2604 41.6675 4.1254 41.6675 5.02367H97.8265C97.86 4.1254 98.1277 3.2604 98.5963 2.52847C98.6632 2.42866 98.7301 2.32885 98.7971 2.22905C99.3995 1.43058 100.203 0.831734 101.173 0.49904L102.646 0.0332694H36.8146V0ZM97.793 9.28215H41.7009V12.975H97.8265V9.28215H97.793ZM54.2514 15.1708C54.4187 15.3039 54.6195 15.4702 54.7868 15.6366C55.7574 16.6347 56.3933 18.032 56.3933 19.5624V63.611C58.9369 65.0083 61.2461 65.9399 64.1913 66.4722L64.1244 19.8285C64.1244 19.5291 64.1578 19.1964 64.2248 18.9303C64.526 17.3666 65.597 16.0358 67.0026 15.2041H54.2514V15.1708ZM41.7009 15.1708V38.5259C41.7009 43.7159 43.0731 48.6065 45.4828 52.7985V19.5624C45.4828 18.8305 45.6167 18.1318 45.8844 17.4997C46.2526 16.5681 46.855 15.7697 47.6247 15.1708H41.7009ZM73.0938 15.1708C73.4284 15.3704 73.7297 15.6366 73.9974 15.9028C74.8006 16.7012 75.3361 17.7326 75.5034 18.897C75.5704 19.1964 75.5704 19.4958 75.5704 19.8285V66.4056C78.2143 65.84 80.7244 64.8752 83.0337 63.611V19.5624C83.0337 17.7658 83.8704 16.2022 85.1757 15.1708H73.0938ZM91.8692 15.1708C92.0366 15.3039 92.2374 15.4702 92.4047 15.6366C93.3753 16.6347 94.0112 18.032 94.0112 19.5624V52.865C96.4208 48.6398 97.8265 43.7492 97.8265 38.5259V15.1708H91.8692Z" fill="url(#paint0_linear_242_40)"/>
<defs>
<linearGradient id="paint0_linear_242_40" x1="288.5" y1="32.5" x2="46.229" y2="-13.0589" gradientUnits="userSpaceOnUse">
<stop stop-color="#FFF0A9"/>
<stop offset="0.241115" stop-color="#A87119"/>
<stop offset="0.447008" stop-color="#8D5600"/>
<stop offset="0.735455" stop-color="#FFEB9A"/>
<stop offset="1" stop-color="#F2CD78"/>
</linearGradient>
</defs>
</svg>
