<svg width="582" height="288" viewBox="0 0 582 288" fill="none" xmlns="http://www.w3.org/2000/svg">
<path opacity="0.1" d="M480.304 167.635C473.376 171.032 465.404 171.588 458.087 169.186C454.254 167.837 450.825 165.559 446.947 164.268L446.401 164.088L446.149 163.973L444.84 163.614C443.964 163.383 443.076 163.177 442.174 163.002C440.4 162.653 438.607 162.409 436.804 162.273C436.294 162.228 435.789 162.195 435.28 162.171L434.599 162.136L434.211 162.127L433.862 162.116L433.174 162.119L431.975 162.124C430.068 162.173 428.16 162.289 426.267 162.481C422.476 162.907 418.711 163.538 414.986 164.369C413.996 164.575 413.017 164.786 412.049 165.002L411.236 165.193L410.046 165.479C407.991 166.024 405.887 166.363 403.766 166.492C401.968 166.607 400.177 166.814 398.4 167.112L397.863 167.193C394.221 169.619 390.667 172.169 387.199 174.845C386.14 175.642 385.078 176.488 384.024 177.338C389.184 175.137 394.69 173.866 400.286 173.581C404.27 173.394 408.257 173.842 412.098 174.907C422.52 177.885 432.218 185.563 443.598 183.327C448.623 182.334 453.219 179.867 458.128 178.418C463.036 176.969 468.762 176.699 472.847 179.758C473.572 180.214 474.102 180.921 474.338 181.745C474.675 183.443 472.91 184.757 471.4 185.596L448.922 198.121C443.983 200.846 438.87 203.629 433.263 204.111C424.633 204.852 416.644 200.106 409.045 195.971C392.132 186.764 374.997 190.606 359.856 200.7C359.697 200.814 359.532 200.917 359.376 201.023L359.076 201.359C354.912 206.113 350.988 211.058 347.304 216.194C348.612 215.844 349.925 215.525 351.259 215.266C363.472 212.86 376.129 214.772 387.073 220.677C394.472 224.799 401.564 231.322 410.553 231.129C411.191 231.125 411.828 231.086 412.461 231.012C412.844 230.969 413.226 230.907 413.611 230.836C413.687 230.821 413.829 230.768 413.944 230.751C414.458 230.591 414.981 230.435 415.482 230.24C415.791 230.058 416.115 229.902 416.449 229.774C416.541 229.728 416.63 229.677 416.716 229.62C417.242 229.277 417.743 228.896 418.215 228.481C419.66 227.268 421.913 227.623 423.295 228.684C424.853 229.875 424.973 231.899 424.41 233.611C422.073 240.758 415.142 245.746 408.067 247.45C384.449 253.118 360.123 233.432 336.486 231.63L336.315 231.641C334.604 231.132 332.24 230.288 330.897 228.793C330.528 228.382 330.259 227.89 330.112 227.357C329.964 226.824 329.942 226.263 330.048 225.719C330.448 224.291 330.7 222.826 330.8 221.347C330.81 221.233 330.81 221.122 330.812 220.926L330.813 220.821C330.816 220.556 330.81 220.288 330.805 220.02C330.777 219.368 330.709 218.785 330.639 218.054C330.568 217.324 330.452 216.631 330.315 215.939L330.229 215.545C330.206 215.463 330.188 215.379 330.176 215.295C330.094 215.021 329.987 214.589 329.987 214.589C329.597 213.181 329.127 211.796 328.619 210.433C326.72 205.415 324.296 200.602 322.259 195.63C320.051 190.236 318.505 184.68 318.732 178.808C319.007 171.506 321.851 164.274 324.505 157.523L324.626 157.215C327.205 150.681 330.695 143.979 336.876 140.206C337.474 139.81 338.179 139.612 338.894 139.638C339.609 139.665 340.297 139.915 340.862 140.354C342.819 141.855 337.812 163.418 338.184 167.82C339.056 177.902 342.159 187.651 343.249 197.685C343.769 202.045 343.793 206.451 343.321 210.819L343.504 210.559C343.889 210.01 344.277 209.457 344.669 208.912C346.208 206.758 347.801 204.637 349.43 202.543C349.511 202.236 349.6 201.932 349.677 201.612C350.055 200.292 350.596 199.023 351.286 197.836C351.816 196.783 352.28 195.699 352.675 194.589C353.135 193.373 353.674 192.187 354.288 191.041C361.458 177.174 365.814 166.409 365.487 150.599C365.228 138.502 363.157 125.64 367.723 114.457C371.809 104.568 379.387 96.5264 389.006 91.8701C390.506 91.0078 392.225 90.6051 393.949 90.7122C395.665 90.9315 397.29 92.4086 397.111 94.1186C396.924 95.05 396.487 95.9132 395.848 96.6153C384.903 110.97 384.095 122.523 385.976 140.181C386.469 144.086 386.427 148.041 385.851 151.936C385.041 156.255 383.592 160.43 381.552 164.323C379.598 168.146 377.435 171.858 375.072 175.442C378.65 172.351 382.346 169.376 386.159 166.516C392.404 161.82 398.925 157.505 405.686 153.594C406.74 152.813 407.484 150.081 407.724 148.812C407.878 148.537 408.032 148.263 408.203 147.996L408.273 147.841C408.404 147.704 408.475 147.549 408.549 147.386V147.385C408.802 146.959 409.055 146.533 409.34 146.121C410.269 144.575 411.173 143.018 411.915 141.386C412.699 139.732 413.397 138.039 414.006 136.313L414.043 136.207C414.184 135.799 414.326 135.384 414.459 134.974C414.476 134.785 414.546 134.63 414.621 134.466L414.687 134.32C414.921 133.461 415.139 132.635 415.348 131.746C416.106 128.594 416.582 125.381 416.77 122.145C416.774 122.157 416.786 121.7 416.792 121.535C416.798 121.481 416.8 121.426 416.798 121.371C416.799 120.958 416.809 120.549 416.802 120.132C416.798 119.363 416.771 118.603 416.76 117.83C416.743 116.132 416.63 114.437 416.419 112.753C415.816 109.437 415.466 106.08 415.373 102.709C415.433 99.4487 415.999 96.2159 417.051 93.1275C421.054 81.3051 431.774 72.5373 443 67.8782C445.696 66.7617 448.643 70.533 446.416 72.7096C441.118 77.8684 437.193 84.2735 435 91.3386C431.127 103.89 434.854 117.318 431.888 130.163C430.835 135.094 428.659 139.717 425.529 143.67C427.852 142.646 430.178 141.611 432.506 140.563C433.387 139.92 434.256 139.262 435.133 138.607C436.544 137.558 437.884 136.414 439.143 135.185C441.782 132.824 444.032 130.06 445.811 126.996C449.282 120.335 449.141 112.466 453.114 105.995C456.877 99.8801 462.504 95.4901 468.366 91.3837C474.228 87.2773 480.074 83.3117 484.938 78.033C490.03 72.5258 494.093 66.1486 496.936 59.2056C497.243 58.5415 497.779 58.0107 498.446 57.7113C499.112 57.4118 499.864 57.3641 500.562 57.5768C501.255 57.7936 501.849 58.2499 502.238 58.8646C502.627 59.4794 502.785 60.2127 502.685 60.9346C502.231 68.4379 500.836 75.8562 498.532 83.0143C496.609 89.6417 494.303 96.1524 491.627 102.514C489.295 108.025 485.986 113.071 481.861 117.405C477.906 121.632 473.164 125.043 467.903 127.446C466.977 127.842 466.026 128.207 465.066 128.548C462.355 131.305 459.425 133.837 456.304 136.119C451.027 139.818 445.407 142.997 439.522 145.614C440.414 145.488 441.31 145.394 442.208 145.32C445.516 145.031 448.847 145.17 452.119 145.732C455.696 146.508 459.201 147.588 462.594 148.96C465.61 150.175 468.784 150.955 472.021 151.279L472.839 151.336L473.011 151.345L473.699 151.343C474.402 151.328 475.033 151.3 475.795 151.223C476.556 151.146 477.296 151.05 478.044 150.917C478.426 150.855 478.791 150.785 479.168 150.71C479.276 150.69 479.763 150.567 479.879 150.551C485.641 149.037 490.987 146.389 496.274 143.675C497.743 142.926 499.622 143.8 500.537 144.984C500.984 145.648 501.208 146.438 501.176 147.24C501.143 148.041 500.856 148.812 500.355 149.439C495.027 156.84 488.639 163.699 480.304 167.635Z" fill="#3575AA"/>
<path opacity="0.1" d="M275.454 277.383C276.184 269.387 274.293 261.685 271.471 254.242C270.743 252.323 269.5 250.427 268.932 248.381C268.221 245.766 269.336 243.789 269.618 241.235C269.74 240.094 270.328 239.036 270.544 237.914C271.109 234.802 271.479 231.657 271.654 228.499C272.04 222.446 271.364 216.406 271.722 210.352C271.802 207.225 272.567 204.153 273.963 201.354C274.263 200.83 274.364 200.216 274.248 199.624C274.132 199.032 273.806 198.502 273.33 198.131C272.418 197.448 270.863 197.35 270.054 198.313C262.184 207.85 258.194 220.003 258.879 232.349C258.823 231.373 256 229.154 255.29 228.455C253.9 227.068 252.439 225.755 250.915 224.518C247.636 221.866 242.828 220.436 243.475 215.386C243.662 213.726 243.737 212.055 243.7 210.385C243.502 206.031 242.867 201.707 241.805 197.48C239.86 189.347 236.825 181.515 235.117 173.317C234.111 168.843 233.733 164.25 233.993 159.671C234.163 157.215 230.279 156.11 229.223 158.393C224.975 167.603 220.671 177.13 220.147 187.415C219.727 196.191 222.517 204.818 227.993 211.683C228.634 212.505 229.314 213.288 230.028 214.052C224.506 212.62 218.909 211.496 213.262 210.683C206.833 209.668 200.478 208.481 194.197 206.911C194.07 206.628 193.861 206.389 193.597 206.227C193.825 204.373 194.054 202.518 194.269 200.661C194.425 200.08 194.578 199.507 194.681 198.912C195.026 196.94 195.362 194.967 195.689 192.99C196.344 188.981 196.949 184.966 197.504 180.945C198.636 172.766 199.544 164.572 200.228 156.363C200.613 151.816 200.934 147.263 201.191 142.704C201.34 140.065 197.503 139.178 196.262 141.383C193.428 146.444 190.592 151.503 187.754 156.562C184.792 161.639 182.177 166.91 179.925 172.34C177.825 177.385 176.655 182.769 176.472 188.23C176.399 192.861 177.288 197.456 179.085 201.723C179.175 201.939 179.274 202.149 179.373 202.359C171.897 199.577 164.663 196.185 157.743 192.216C155.369 190.85 153.026 189.421 150.714 187.93C151.33 187.788 151.929 187.579 152.499 187.305C153.067 186.92 153.601 186.486 154.096 186.009C154.972 185.293 155.794 184.514 156.556 183.678C158.084 181.949 159.513 180.135 160.837 178.245C163.366 174.596 165.563 170.728 167.401 166.687C171.265 158.328 173.996 149.532 176.583 140.719C178.227 135.137 179.86 129.517 180.094 123.664C180.083 123.048 179.871 122.453 179.491 121.968C179.111 121.484 178.584 121.137 177.989 120.979C177.395 120.835 176.77 120.88 176.203 121.108C175.635 121.336 175.153 121.736 174.823 122.252C168.779 131.051 162.736 139.9 157.302 149.088C152.281 157.575 147.441 166.809 146.041 176.697C145.626 179.297 145.523 181.936 145.735 184.56C137.403 178.765 129.971 171.772 123.678 163.807C123.754 163.311 123.822 162.82 123.877 162.326C127.405 159.987 130.704 157.318 133.731 154.357C136.776 151.47 139.647 148.404 142.328 145.175C147.749 138.685 152.403 131.59 156.198 124.032C158.379 119.661 160.267 115.149 161.851 110.527C162.793 107.775 159.059 105.948 157.14 107.788C153.378 111.393 149.621 115.002 145.871 118.615C142.326 122.04 138.729 125.423 135.326 128.979C128.831 135.72 122.957 143.335 120.735 152.6C120.29 154.465 120.017 156.367 119.919 158.283C119.693 157.939 119.465 157.603 119.253 157.263C116.117 152.308 113.669 146.948 111.976 141.332C112.061 141.186 112.097 141.017 112.079 140.849C112.06 140.681 111.988 140.523 111.872 140.4L111.641 140.182C111.467 139.542 111.281 138.891 111.13 138.243C112.385 137.617 113.571 136.859 114.666 135.982C116.37 134.656 117.98 133.215 119.487 131.668C122.177 129.088 124.721 126.36 127.107 123.496C132.07 117.556 136.348 111.075 139.861 104.175C141.853 100.229 143.594 96.1603 145.074 91.9942C145.953 89.5297 142.335 87.4576 140.631 89.3901C135.013 95.8083 128.348 101.182 122.351 107.223C119.007 110.529 116.02 114.178 113.439 118.109C113.458 118.037 113.478 117.964 113.497 117.892C114.628 113.198 115.866 108.525 116.898 103.804C118.983 94.1319 120.574 84.3596 121.664 74.5255C122.294 69.0115 122.779 63.4867 123.118 57.9513C123.246 55.7592 120.304 54.7234 118.853 56.1864C111.745 63.3433 106.832 72.403 103.956 82.0297C100.988 91.9712 100.375 102.508 101.159 112.812C101.347 115.828 101.744 118.828 102.348 121.789C102.422 122.12 102.487 122.455 102.559 122.793C101.713 121.548 100.866 120.31 100.018 119.101C95.7723 113.245 91.2292 107.611 86.4063 102.222C83.6965 99.1843 80.9153 96.255 78.0458 93.3656C77.6098 92.9261 77.0408 92.6433 76.4273 92.5614C75.8138 92.4795 75.1903 92.6032 74.6542 92.9131C74.1181 93.2229 73.6994 93.7016 73.4635 94.2744C73.2276 94.8472 73.1876 95.482 73.35 96.0797C73.9937 97.9107 74.375 99.8239 74.4825 101.762C74.6501 103.772 74.6753 105.786 74.8082 107.794C75.029 111.978 76.0321 116.083 77.7656 119.895C81.2573 127.447 87.6486 133.4 94.7809 137.432C97.1013 138.719 99.5022 139.856 101.969 140.835C103.178 141.329 104.401 141.788 105.638 142.214L106.225 142.421C107.223 145.897 108.491 149.29 110.017 152.569C110.711 154.063 111.472 155.518 112.267 156.953L112.087 156.835C108.838 154.657 105.441 152.707 101.921 151.001C98.3026 149.228 94.5164 147.82 90.6187 146.799C86.8851 145.869 83.0365 145.474 79.2596 144.759C77.2079 144.409 75.1829 143.919 73.1988 143.29C72.3616 143.037 71.5445 142.721 70.7545 142.346C69.7302 141.857 68.7437 141.292 67.8032 140.657C65.7128 139.235 63.1034 141.568 63.6925 143.797C65.8687 152.225 72.1375 159.058 79.6871 163.166C88.3119 167.873 98.4589 168.903 108.14 168.139C111.091 167.905 114.028 167.512 116.914 167.02C117.488 166.935 118.056 166.818 118.617 166.67C125.546 175.758 134.308 183.484 143.658 189.99C142.046 189.339 140.457 188.631 138.808 188.062C135.364 186.87 131.9 185.645 128.295 185.132C126.34 184.825 124.355 184.748 122.382 184.904C120.514 185.098 118.659 185.404 116.827 185.819C112.946 186.617 109.074 187.441 105.212 188.291C100.78 189.228 96.3519 190.162 91.927 191.092C91.3897 191.244 90.9164 191.567 90.5792 192.013C90.2419 192.458 90.059 193.002 90.0582 193.56C90.0794 194.112 90.2722 194.643 90.6098 195.08C90.9474 195.516 91.4128 195.836 91.9411 195.994C107.326 202.039 124.881 205.62 140.847 199.535C142.903 198.764 144.901 197.844 146.824 196.783C147.659 196.3 148.495 195.817 149.352 195.255C149.715 195.006 150.134 194.758 150.54 194.457C159.18 199.772 168.334 204.202 177.863 207.68C174.147 207.781 170.472 208.494 166.987 209.791C160.019 212.264 153.905 216.45 147.339 219.737C145.649 220.605 143.902 221.358 142.11 221.99C140.208 222.663 138.247 223.16 136.254 223.475C135.767 223.61 135.331 223.887 135.002 224.271C134.673 224.654 134.465 225.128 134.405 225.63C134.352 226.126 134.439 226.627 134.655 227.076C134.872 227.525 135.21 227.904 135.631 228.171C139.604 231.158 145.146 231.795 149.981 232.016C154.311 232.209 158.649 231.841 162.886 230.922C171.456 229.077 179.43 225.117 186.083 219.403C187.994 217.805 189.738 216.018 191.291 214.07C191.744 213.484 192.211 212.902 192.649 212.242C195.172 212.919 197.722 213.468 200.279 213.969C209.271 215.749 218.486 216.515 227.388 218.738L226.841 218.909C222.694 220.3 218.699 222.112 214.92 224.317C211.109 226.498 207.502 229.015 204.14 231.84C201.011 234.479 198.16 237.426 195.172 240.223C191.78 243.393 188.681 245.997 184.391 247.937C182.353 248.875 182.913 252.241 185.016 252.691C194.696 254.848 204.787 254.246 214.144 250.954C223.295 247.692 231.362 241.953 237.448 234.375C239.186 232.224 240.759 229.945 242.156 227.558C242.577 226.829 242.995 226.086 243.369 225.324C246.228 227.104 248.896 229.174 251.332 231.501C253.886 233.954 256.217 236.63 258.299 239.496C255.541 239.144 252.74 239.46 250.129 240.416C247.42 241.449 244.817 242.743 242.357 244.278C239.118 246.195 236.033 247.906 233.115 250.284C230.313 252.572 227.175 254.347 224.113 256.262C224.004 256.315 223.918 256.404 223.868 256.514C223.808 256.738 224.018 256.929 224.215 257.038C226.154 258.13 228.127 257.776 230.22 257.714C232.442 257.645 234.655 257.949 236.878 257.851C240.063 257.775 243.213 257.153 246.19 256.014C251.565 253.849 256.086 250.127 261.346 247.755L261.587 247.65L261.945 247.498C262.282 247.363 262.627 247.236 262.979 247.118L263.11 247.075C263.617 248.003 264.109 248.934 264.581 249.887C268.114 256.997 270.051 264.577 272.363 272.131C272.916 273.94 273.521 275.714 274.141 277.512C274.193 277.654 274.291 277.773 274.419 277.853C274.546 277.933 274.697 277.968 274.847 277.954C274.996 277.939 275.137 277.875 275.247 277.772C275.357 277.669 275.429 277.532 275.454 277.383Z" fill="#3575AA"/>
<path opacity="0.1" d="M327.255 231.315C329.684 224.982 329.914 218.287 329.328 211.589C329.176 209.861 328.601 208.035 328.609 206.242C328.63 203.952 329.991 202.601 330.806 200.59C331.167 199.69 331.887 198.965 332.321 198.102C333.494 195.702 334.517 193.231 335.384 190.703C337.086 185.871 337.923 180.805 339.603 175.966C340.386 173.443 341.712 171.121 343.49 169.166C343.854 168.809 344.077 168.333 344.118 167.824C344.16 167.316 344.016 166.811 343.714 166.4C343.13 165.636 341.888 165.199 341.009 165.797C332.424 171.744 326.391 180.708 324.115 190.902C324.293 190.095 322.507 187.643 322.091 186.912C321.279 185.466 320.393 184.063 319.437 182.708C317.38 179.799 313.8 177.534 315.485 173.577C316.017 172.27 316.462 170.929 316.815 169.563C317.654 165.978 318.13 162.317 318.236 158.637C318.522 151.579 317.851 144.515 318.343 137.459C318.552 133.591 319.299 129.771 320.561 126.108C321.264 124.15 318.359 122.361 316.976 123.974C311.41 130.487 305.725 137.244 302.939 145.485C300.584 152.523 300.872 160.177 303.749 167.014C304.081 167.829 304.454 168.622 304.859 169.406C300.699 166.975 296.407 164.777 292.003 162.821C287.009 160.52 282.115 158.097 277.37 155.379C277.332 155.12 277.216 154.878 277.038 154.685C277.65 153.231 278.261 151.776 278.862 150.315C279.122 149.879 279.378 149.447 279.598 148.988C280.331 147.464 281.057 145.936 281.776 144.405C283.229 141.296 284.642 138.171 286.016 135.029C288.813 128.64 291.432 122.188 293.871 115.671C295.228 112.062 296.534 108.434 297.788 104.787C298.515 102.676 295.599 101.075 294.085 102.583C290.62 106.046 287.153 109.509 283.685 112.97C280.112 116.418 276.776 120.103 273.7 124C270.835 127.62 268.649 131.728 267.247 136.125C266.124 139.873 265.793 143.813 266.274 147.694C266.298 147.89 266.331 148.084 266.363 148.277C260.924 144.3 255.821 139.882 251.106 135.068C249.49 133.413 247.913 131.714 246.376 129.971C246.909 129.997 247.444 129.964 247.97 129.873C248.52 129.689 249.054 129.459 249.566 129.185C250.442 128.804 251.289 128.36 252.101 127.855C253.74 126.8 255.318 125.653 256.827 124.42C259.721 122.035 262.395 119.394 264.816 116.531C269.875 110.622 274.114 104.098 278.239 97.5272C280.857 93.3669 283.474 89.1729 285.007 84.468C285.139 83.9647 285.103 83.4323 284.906 82.9513C284.708 82.4704 284.359 82.0671 283.912 81.8025C283.462 81.5486 282.944 81.4418 282.43 81.497C281.916 81.5522 281.432 81.7667 281.046 82.1104C274.114 87.8767 267.171 93.6837 260.644 99.9062C254.615 105.653 248.561 112.05 245.154 119.767C244.221 121.785 243.531 123.907 243.101 126.089C237.658 119.466 233.22 112.076 229.933 104.156C230.108 103.771 230.276 103.387 230.434 102.998C233.839 101.906 237.133 100.494 240.273 98.7808C243.411 97.1328 246.449 95.2989 249.369 93.2888C255.265 89.257 260.677 84.5576 265.496 79.2842C268.272 76.2305 270.843 72.9961 273.191 69.6021C274.588 67.5814 271.972 65.2393 269.99 66.2942C266.104 68.3616 262.222 70.4336 258.344 72.5102C254.677 74.4815 250.976 76.4064 247.394 78.5158C240.567 82.5058 234.044 87.3479 230.112 94.3701C229.322 95.7845 228.663 97.2683 228.144 98.8028C228.039 98.4719 227.931 98.146 227.836 97.8211C226.425 93.073 225.664 88.1545 225.576 83.2004C225.679 83.1014 225.747 82.9719 225.771 82.8311C225.794 82.6902 225.772 82.5456 225.706 82.4188L225.568 82.1889C225.573 81.6282 225.572 81.0567 225.598 80.495C226.762 80.274 227.9 79.9298 228.991 79.4681C230.68 78.781 232.321 77.979 233.9 77.0678C236.679 75.5873 239.373 73.9532 241.97 72.1731C247.368 68.4826 252.333 64.1954 256.772 59.3928C259.297 56.6416 261.646 53.7336 263.805 50.6863C265.085 48.8846 262.619 46.3699 260.79 47.5498C254.751 51.4783 248.099 54.3177 241.838 57.8526C238.361 59.7726 235.095 62.0534 232.095 64.6573C232.127 64.6028 232.159 64.5483 232.192 64.4938C234.188 60.9371 236.267 57.4225 238.189 53.8216C242.104 46.437 245.639 38.8578 248.782 31.1134C250.56 26.7754 252.222 22.3953 253.768 17.9732C254.375 16.2206 252.221 14.7033 250.705 15.5597C243.285 19.7468 237.211 25.9844 232.664 33.1504C227.971 40.5513 225.054 48.9766 223.327 57.5327C222.788 60.0281 222.423 62.5577 222.234 65.1034C222.218 65.3892 222.194 65.6771 222.175 65.9679C221.773 64.7621 221.368 63.5613 220.957 62.3832C218.849 56.6486 216.449 51.0262 213.764 45.5383C212.259 42.4473 210.67 39.4278 209 36.4204C208.747 35.963 208.349 35.6025 207.869 35.3952C207.389 35.1879 206.854 35.1453 206.347 35.2742C205.84 35.4031 205.39 35.6961 205.066 36.1077C204.743 36.5192 204.565 37.0261 204.56 37.5493C204.663 39.1855 204.534 40.8282 204.177 42.4286C203.852 44.101 203.41 45.7442 203.057 47.4068C202.277 50.8586 202.15 54.4259 202.685 57.9233C203.79 64.8634 207.62 71.1698 212.493 76.0839C214.084 77.663 215.775 79.1381 217.555 80.4999C218.425 81.1787 219.314 81.8331 220.222 82.4631L220.652 82.7659C220.665 85.8211 220.917 88.8703 221.405 91.8858C221.627 93.2594 221.912 94.6169 222.229 95.9663L222.11 95.8284C219.968 93.3122 217.654 90.948 215.184 88.7529C212.649 86.4814 209.894 84.4683 206.96 82.7436C204.138 81.131 201.1 79.9267 198.194 78.4786C196.606 77.7237 195.072 76.8601 193.604 75.8941C192.981 75.4959 192.389 75.0517 191.833 74.5652C191.113 73.9328 190.44 73.2476 189.822 72.5153C188.449 70.8793 185.792 72.1772 185.759 74.1243C185.594 81.4758 189.123 88.4687 194.317 93.5407C200.249 99.3464 208.261 102.512 216.307 104.113C218.759 104.599 221.237 104.954 223.696 105.216C224.182 105.279 224.671 105.314 225.161 105.323C228.709 114.3 234.059 122.592 240.167 130.027C239.006 129.128 237.876 128.187 236.667 127.346C234.14 125.587 231.605 123.796 228.792 122.552C227.273 121.853 225.678 121.336 224.038 121.01C222.474 120.739 220.896 120.562 219.312 120.479C215.973 120.237 212.637 120.018 209.302 119.823C205.484 119.568 201.67 119.311 197.859 119.052C197.388 119.052 196.929 119.206 196.553 119.491C196.176 119.776 195.903 120.175 195.774 120.629C195.665 121.083 195.699 121.559 195.874 121.991C196.048 122.423 196.353 122.79 196.746 123.04C207.866 131.485 221.316 138.424 235.691 137.141C237.54 136.986 239.375 136.697 241.182 136.275C241.972 136.074 242.762 135.873 243.587 135.613C243.94 135.494 244.338 135.389 244.737 135.237C250.541 141.54 256.966 147.242 263.914 152.256C260.87 151.485 257.719 151.222 254.588 151.477C248.356 151.888 242.425 153.888 236.333 155.054C234.76 155.371 233.167 155.582 231.565 155.686C229.864 155.796 228.157 155.75 226.464 155.549C226.037 155.547 225.619 155.672 225.263 155.908C224.908 156.145 224.63 156.482 224.467 156.877C224.31 157.267 224.265 157.695 224.338 158.109C224.411 158.524 224.599 158.91 224.88 159.223C227.425 162.563 231.784 164.353 235.663 165.642C239.14 166.793 242.75 167.489 246.405 167.714C253.796 168.181 261.187 166.792 267.907 163.673C269.827 162.812 271.655 161.76 273.364 160.532C273.867 160.16 274.38 159.794 274.887 159.358C276.783 160.487 278.731 161.518 280.694 162.512C287.596 166.023 294.911 168.76 301.638 172.61L301.154 172.624C297.463 172.803 293.8 173.36 290.222 174.284C286.624 175.183 283.113 176.402 279.732 177.927C276.583 179.354 273.589 181.095 270.518 182.684C267.033 184.482 263.916 185.889 259.983 186.481C258.111 186.776 257.794 189.641 259.401 190.49C266.775 194.464 275.116 196.29 283.479 195.761C291.666 195.209 299.541 192.395 306.228 187.631C308.134 186.281 309.936 184.789 311.62 183.169C312.129 182.674 312.639 182.165 313.118 181.631C315.034 183.734 316.728 186.029 318.174 188.48C319.687 191.061 320.969 193.771 322.003 196.578C319.842 195.66 317.492 195.274 315.15 195.452C312.711 195.67 310.298 196.124 307.946 196.808C304.873 197.623 301.972 198.306 299.055 199.569C296.251 200.787 293.293 201.509 290.365 202.363C290.264 202.382 290.174 202.435 290.108 202.513C290.008 202.681 290.135 202.884 290.27 203.018C291.595 204.351 293.281 204.515 294.996 204.946C296.818 205.399 298.548 206.154 300.377 206.585C302.984 207.254 305.687 207.471 308.369 207.228C313.235 206.701 317.765 204.713 322.586 203.992L322.805 203.961L323.131 203.921C323.437 203.888 323.746 203.864 324.059 203.849L324.175 203.844C324.375 204.715 324.561 205.584 324.726 206.467C325.966 213.058 325.802 219.665 325.948 226.336C325.983 227.934 326.067 229.514 326.158 231.119C326.169 231.246 326.221 231.366 326.306 231.46C326.391 231.554 326.506 231.617 326.631 231.639C326.756 231.662 326.885 231.642 326.998 231.584C327.111 231.525 327.201 231.431 327.255 231.315Z" fill="#3575AA"/>
</svg>
