<svg width="216" height="40" viewBox="0 0 216 40" fill="none" xmlns="http://www.w3.org/2000/svg">
<g clip-path="url(#clip0_94_3031)">
<path d="M19.9953 0.145508C9.29523 0.145508 0.605469 9.07609 0.605469 20.0727C0.605469 24.6046 2.097 28.8033 4.62611 32.2023L22.5244 0.345446C21.6814 0.212154 20.8384 0.145508 19.9953 0.145508Z" fill="#2E2E2E"/>
<path d="M17.985 29.3365C13.7698 29.3365 9.81403 31.6691 7.67402 35.468C11.0462 38.2671 15.3262 39.9999 19.9953 39.9999C24.6645 39.9999 28.9445 38.3337 32.2518 35.468C30.1118 31.6691 26.156 29.3365 21.9408 29.3365H17.985Z" fill="#2E2E2E"/>
<path d="M53.4201 39.9333L53.4574 39.9999V39.9333H53.4201Z" fill="#2E2E2E"/>
<path d="M53.4201 39.9333L36.9209 10.409C36.856 10.2757 36.775 10.1424 36.6939 10.0091C36.6129 9.87586 36.5318 9.74257 36.467 9.60928L36.3373 9.34269C34.0675 5.7438 30.7602 2.87802 26.8045 1.34516C24.0808 6.14368 24.0808 12.0752 26.8045 16.9404L26.8693 17.0736L39.6446 39.9333H53.4201Z" fill="#2E2E2E"/>
<path d="M77.3278 39.8062C73.9977 39.8062 71.2677 38.9334 69.138 37.188C67.0082 35.4037 65.9434 33.0183 65.9434 30.0316C65.9434 26.9286 66.9501 24.5044 68.9637 22.7589C70.9773 21.0134 73.8041 20.1407 77.444 20.1407C80.9678 20.1407 84.0075 20.8583 86.5632 22.2934V21.5371C86.5632 19.5589 85.9436 18.1237 84.7045 17.2316C83.5041 16.3395 81.5486 15.8934 78.838 15.8934C77.1342 15.8934 75.4498 16.068 73.7847 16.4171C72.1196 16.7274 70.6482 17.1734 69.3703 17.7553V11.9953C70.532 11.4522 72.0809 11.0062 74.017 10.6571C75.9919 10.308 77.8893 10.1334 79.7093 10.1334C84.5496 10.1334 88.1315 11.1807 90.4548 13.2753C92.7782 15.331 93.9399 18.2013 93.9399 21.8862V38.9334H87.0279V36.1989C85.8275 37.3625 84.4528 38.2547 82.9039 38.8753C81.3937 39.4959 79.535 39.8062 77.3278 39.8062ZM79.1284 34.4534C80.7548 34.4534 82.2262 34.1431 83.5428 33.5225C84.8594 32.8631 85.8662 31.971 86.5632 30.8462V27.7625C84.4334 26.2498 81.9939 25.4934 79.2446 25.4934C75.3336 25.4934 73.3781 27.0062 73.3781 30.0316C73.3781 31.5056 73.8621 32.611 74.8302 33.348C75.837 34.085 77.2697 34.4534 79.1284 34.4534Z" fill="#2E2E2E"/>
<path d="M110.639 39.8062C108.625 39.8062 106.476 39.5734 104.192 39.108C101.907 38.6425 100.126 38.0025 98.848 37.188V30.9625C100.358 31.8934 102.159 32.6498 104.25 33.2316C106.341 33.7747 108.316 34.0462 110.174 34.0462C112.033 34.0462 113.388 33.891 114.24 33.5807C115.092 33.2316 115.518 32.611 115.518 31.7189C115.518 31.0207 115.286 30.4583 114.821 30.0316C114.395 29.5662 113.679 29.1589 112.672 28.8098C111.704 28.4219 110.194 27.9565 108.141 27.4134C105.818 26.754 103.979 26.0753 102.623 25.3771C101.307 24.6789 100.3 23.8062 99.6031 22.7589C98.9448 21.6728 98.6156 20.2765 98.6156 18.5698C98.6156 15.7771 99.7192 13.6825 101.926 12.2862C104.134 10.851 107.115 10.1334 110.871 10.1334C112.807 10.1334 114.724 10.3274 116.622 10.7153C118.558 11.0644 120.068 11.5686 121.152 12.228V18.2207C119.991 17.5225 118.577 16.9601 116.912 16.5334C115.247 16.1068 113.543 15.8934 111.801 15.8934C109.903 15.8934 108.471 16.0874 107.502 16.4753C106.534 16.8244 106.05 17.5225 106.05 18.5698C106.05 19.268 106.302 19.8304 106.805 20.2571C107.348 20.645 108.045 20.9941 108.897 21.3044C109.748 21.5759 111.297 22.0025 113.543 22.5844C115.944 23.2437 117.822 23.9613 119.177 24.7371C120.533 25.5128 121.501 26.4437 122.082 27.5298C122.662 28.6159 122.953 29.9734 122.953 31.6025C122.953 34.085 121.888 36.0825 119.758 37.5953C117.667 39.0692 114.627 39.8062 110.639 39.8062Z" fill="#2E2E2E"/>
<path d="M139.122 39.8062C136.063 39.8062 133.74 38.9528 132.152 37.2462C130.564 35.5395 129.77 33.1347 129.77 30.0316V16.5916H125.588V11.0062H129.77V0H137.089V11.0062H143.769V16.5916H137.089V29.1007C137.089 30.885 137.418 32.165 138.076 32.9407C138.735 33.6777 139.935 34.0462 141.678 34.0462C142.878 34.0462 144.059 33.7747 145.221 33.2316V38.8171C143.556 39.4765 141.523 39.8062 139.122 39.8062Z" fill="#2E2E2E"/>
<path d="M150.431 11.0062H157.517V15.4862C158.64 13.9734 160.228 12.8486 162.28 12.1116C164.371 11.3747 166.752 11.0062 169.424 11.0062V16.5916C166.597 16.5916 164.139 17.0377 162.047 17.9298C159.995 18.7831 158.562 20.1407 157.749 22.0025V38.9334H150.431V11.0062Z" fill="#2E2E2E"/>
<path d="M188.393 39.8062C185.14 39.8062 182.275 39.2243 179.797 38.0607C177.357 36.8583 175.46 35.1516 174.104 32.9407C172.749 30.691 172.072 28.034 172.072 24.9698C172.072 21.9831 172.73 19.3844 174.046 17.1734C175.402 14.9237 177.318 13.1977 179.797 11.9953C182.275 10.754 185.14 10.1334 188.393 10.1334C191.646 10.1334 194.492 10.754 196.931 11.9953C199.41 13.1977 201.326 14.9237 202.682 17.1734C204.037 19.3844 204.715 21.9831 204.715 24.9698C204.715 28.034 204.037 30.691 202.682 32.9407C201.326 35.1516 199.41 36.8583 196.931 38.0607C194.492 39.2243 191.646 39.8062 188.393 39.8062ZM188.393 34.0462C191.065 34.0462 193.195 33.2122 194.782 31.5444C196.37 29.8377 197.164 27.6462 197.164 24.9698C197.164 22.1383 196.37 19.9274 194.782 18.3371C193.233 16.708 191.104 15.8934 188.393 15.8934C185.683 15.8934 183.533 16.708 181.946 18.3371C180.397 19.9274 179.622 22.1383 179.622 24.9698C179.622 27.6462 180.416 29.8377 182.004 31.5444C183.592 33.2122 185.721 34.0462 188.393 34.0462Z" fill="#2E2E2E"/>
<path d="M210.306 -0.253906C211.318 2.48581 213.475 4.64591 216.21 5.6597C213.475 6.67349 211.318 8.83358 210.306 11.5733C209.294 8.83358 207.137 6.67349 204.402 5.6597C207.137 4.64591 209.294 2.48581 210.306 -0.253906Z" fill="#2E2E2E"/>
</g>
<defs>
<clipPath id="clip0_94_3031">
<rect width="216" height="40" fill="white"/>
</clipPath>
</defs>
</svg>
