<svg width="170" height="31" viewBox="0 0 170 31" fill="none" xmlns="http://www.w3.org/2000/svg">
<g clip-path="url(#clip0_66_4807)">
<path d="M15.7371 0.112793C7.31573 0.112793 0.476562 7.03399 0.476562 15.5564C0.476562 19.0686 1.65045 22.3226 3.64095 24.9568L17.7276 0.267745C17.0641 0.164444 16.4006 0.112793 15.7371 0.112793Z" fill="url(#paint0_linear_66_4807)"/>
<path d="M14.1549 22.7358C10.8374 22.7358 7.72404 24.5436 6.03977 27.4877C8.69378 29.657 12.0623 30.9999 15.7371 30.9999C19.4119 30.9999 22.7804 29.7087 25.3834 27.4877C23.6991 24.5436 20.5858 22.7358 17.2683 22.7358H14.1549Z" fill="url(#paint1_linear_66_4807)"/>
<path d="M42.0437 30.9483L42.073 31V30.9483H42.0437Z" fill="url(#paint2_linear_66_4807)"/>
<path d="M42.0437 30.9483L29.0581 8.06702C29.0071 7.96372 28.9433 7.86042 28.8795 7.75711C28.8157 7.65381 28.7519 7.55051 28.7009 7.44721L28.5988 7.24061C26.8125 4.45147 24.2095 2.23049 21.0961 1.04252C18.9525 4.76138 18.9525 9.35829 21.0961 13.1288L21.1472 13.2321L31.2018 30.9483H42.0437Z" fill="url(#paint3_linear_66_4807)"/>
<path d="M60.8604 30.8498C58.2394 30.8498 56.0909 30.1734 54.4147 28.8207C52.7385 27.4379 51.9004 25.5892 51.9004 23.2745C51.9004 20.8697 52.6928 18.9909 54.2775 17.6381C55.8623 16.2854 58.0871 15.6091 60.9518 15.6091C63.7252 15.6091 66.1175 16.1652 68.129 17.2774V16.6912C68.129 15.1581 67.6413 14.0459 66.6661 13.3545C65.7213 12.6631 64.1823 12.3174 62.049 12.3174C60.708 12.3174 59.3823 12.4527 58.0718 12.7232C56.7613 12.9637 55.6032 13.3094 54.5975 13.7603V9.29633C55.5118 8.87548 56.7309 8.52978 58.2547 8.25924C59.809 7.98869 61.3023 7.85342 62.7347 7.85342C66.5442 7.85342 69.3632 8.66505 71.1918 10.2883C73.0204 11.8815 73.9347 14.106 73.9347 16.9618V30.1734H68.4947V28.0541C67.5499 28.956 66.468 29.6474 65.249 30.1283C64.0604 30.6093 62.5975 30.8498 60.8604 30.8498ZM62.2775 26.7014C63.5575 26.7014 64.7156 26.4609 65.7518 25.98C66.788 25.4689 67.5804 24.7775 68.129 23.9058V21.516C66.4528 20.3436 64.5328 19.7574 62.369 19.7574C59.2909 19.7574 57.7518 20.9298 57.7518 23.2745C57.7518 24.4168 58.1328 25.2735 58.8947 25.8447C59.6871 26.4158 60.8147 26.7014 62.2775 26.7014Z" fill="#2E2E2E"/>
<path d="M87.0775 30.8498C85.4928 30.8498 83.8013 30.6694 82.0032 30.3087C80.2052 29.948 78.8032 29.452 77.7975 28.8207V23.996C78.9861 24.7174 80.4032 25.3036 82.049 25.7545C83.6947 26.1754 85.249 26.3858 86.7118 26.3858C88.1747 26.3858 89.2413 26.2655 89.9118 26.0251C90.5823 25.7545 90.9175 25.2735 90.9175 24.5821C90.9175 24.0411 90.7347 23.6052 90.369 23.2745C90.0337 22.9138 89.4699 22.5981 88.6775 22.3276C87.9156 22.027 86.7271 21.6663 85.1118 21.2454C83.2832 20.7344 81.8356 20.2083 80.769 19.6672C79.7328 19.1261 78.9404 18.4498 78.3918 17.6381C77.8737 16.7964 77.6147 15.7143 77.6147 14.3916C77.6147 12.2272 78.4832 10.604 80.2204 9.52178C81.9575 8.40954 84.3042 7.85342 87.2604 7.85342C88.7842 7.85342 90.2928 8.00372 91.7861 8.30433C93.3099 8.57487 94.4985 8.96566 95.3518 9.47669V14.1211C94.4375 13.58 93.3252 13.1441 92.0147 12.8134C90.7042 12.4828 89.3632 12.3174 87.9918 12.3174C86.4985 12.3174 85.3709 12.4677 84.609 12.7683C83.8471 13.0389 83.4661 13.58 83.4661 14.3916C83.4661 14.9327 83.6642 15.3686 84.0604 15.6992C84.4871 15.9998 85.0356 16.2704 85.7061 16.5109C86.3766 16.7213 87.5956 17.052 89.3632 17.5029C91.2528 18.0139 92.7309 18.57 93.7975 19.1712C94.8642 19.7724 95.6261 20.4939 96.0832 21.3356C96.5404 22.1773 96.769 23.2294 96.769 24.492C96.769 26.4158 95.9309 27.964 94.2547 29.1363C92.609 30.2786 90.2166 30.8498 87.0775 30.8498Z" fill="#2E2E2E"/>
<path d="M109.495 30.8498C107.087 30.8498 105.258 30.1884 104.009 28.8658C102.759 27.5431 102.135 25.6794 102.135 23.2745V12.8585H98.8432V8.52978H102.135V0H107.895V8.52978H113.152V12.8585H107.895V22.5531C107.895 23.9358 108.154 24.9278 108.672 25.5291C109.19 26.1002 110.135 26.3858 111.506 26.3858C112.451 26.3858 113.38 26.1754 114.295 25.7545V30.0832C112.984 30.5943 111.384 30.8498 109.495 30.8498Z" fill="#2E2E2E"/>
<path d="M118.395 8.52978H123.972V12.0018C124.856 10.8294 126.106 9.95766 127.721 9.38651C129.366 8.81536 131.241 8.52978 133.344 8.52978V12.8585C131.119 12.8585 129.184 13.2042 127.538 13.8956C125.923 14.5569 124.795 15.6091 124.155 17.052V30.1734H118.395V8.52978Z" fill="#2E2E2E"/>
<path d="M148.273 30.8498C145.713 30.8498 143.458 30.3989 141.507 29.4971C139.587 28.5652 138.094 27.2425 137.027 25.5291C135.961 23.7855 135.427 21.7264 135.427 19.3516C135.427 17.0369 135.945 15.0229 136.981 13.3094C138.048 11.5659 139.557 10.2282 141.507 9.29633C143.458 8.33439 145.713 7.85342 148.273 7.85342C150.833 7.85342 153.073 8.33439 154.993 9.29633C156.943 10.2282 158.452 11.5659 159.519 13.3094C160.585 15.0229 161.119 17.0369 161.119 19.3516C161.119 21.7264 160.585 23.7855 159.519 25.5291C158.452 27.2425 156.943 28.5652 154.993 29.4971C153.073 30.3989 150.833 30.8498 148.273 30.8498ZM148.273 26.3858C150.376 26.3858 152.052 25.7395 153.301 24.4469C154.551 23.1242 155.176 21.4258 155.176 19.3516C155.176 17.1572 154.551 15.4437 153.301 14.2112C152.082 12.9487 150.406 12.3174 148.273 12.3174C146.14 12.3174 144.448 12.9487 143.199 14.2112C141.98 15.4437 141.37 17.1572 141.37 19.3516C141.37 21.4258 141.995 23.1242 143.244 24.4469C144.494 25.7395 146.17 26.3858 148.273 26.3858Z" fill="#2E2E2E"/>
<path d="M165.517 -0.196777C166.314 1.9265 168.011 3.60058 170.164 4.38627C168.011 5.17195 166.314 6.84603 165.517 8.96931C164.721 6.84603 163.024 5.17195 160.871 4.38627C163.024 3.60058 164.721 1.9265 165.517 -0.196777Z" fill="#39D8B4"/>
</g>
<defs>
<linearGradient id="paint0_linear_66_4807" x1="-4.99963" y1="-12" x2="23.0147" y2="40.0976" gradientUnits="userSpaceOnUse">
<stop offset="0.0467458" stop-color="#681BEB"/>
<stop offset="0.475652" stop-color="#00C6FF"/>
<stop offset="0.760417" stop-color="#39D8B4"/>
<stop offset="1" stop-color="#A7FC22"/>
</linearGradient>
<linearGradient id="paint1_linear_66_4807" x1="-4.99963" y1="-12" x2="23.0147" y2="40.0976" gradientUnits="userSpaceOnUse">
<stop offset="0.0467458" stop-color="#681BEB"/>
<stop offset="0.475652" stop-color="#00C6FF"/>
<stop offset="0.760417" stop-color="#39D8B4"/>
<stop offset="1" stop-color="#A7FC22"/>
</linearGradient>
<linearGradient id="paint2_linear_66_4807" x1="-4.99963" y1="-12" x2="23.0147" y2="40.0976" gradientUnits="userSpaceOnUse">
<stop offset="0.0467458" stop-color="#681BEB"/>
<stop offset="0.475652" stop-color="#00C6FF"/>
<stop offset="0.760417" stop-color="#39D8B4"/>
<stop offset="1" stop-color="#A7FC22"/>
</linearGradient>
<linearGradient id="paint3_linear_66_4807" x1="-4.99963" y1="-12" x2="23.0147" y2="40.0976" gradientUnits="userSpaceOnUse">
<stop offset="0.0467458" stop-color="#681BEB"/>
<stop offset="0.475652" stop-color="#00C6FF"/>
<stop offset="0.760417" stop-color="#39D8B4"/>
<stop offset="1" stop-color="#A7FC22"/>
</linearGradient>
<clipPath id="clip0_66_4807">
<rect width="170" height="31" fill="white"/>
</clipPath>
</defs>
</svg>
