<svg width="24" height="24" viewBox="0 0 24 24" fill="none" xmlns="http://www.w3.org/2000/svg">
<path d="M0.149482 5.37699C0.299765 4.71878 0.669197 4.13108 1.19728 3.71015C1.72535 3.28922 2.38078 3.06001 3.0562 3.06006H20.9437C21.6191 3.06001 22.2745 3.28922 22.8026 3.71015C23.3307 4.13108 23.7001 4.71878 23.8504 5.37699L12 12.6168L0.149482 5.37699ZM0.0749512 7.07856V17.6634L8.72505 12.3621L0.0749512 7.07856ZM10.1531 13.2367L0.359661 19.2369C0.601629 19.7469 0.983527 20.1777 1.46091 20.4792C1.93829 20.7807 2.49151 20.9405 3.0562 20.9399H20.9437C21.5083 20.94 22.0613 20.7799 22.5384 20.4782C23.0155 20.1764 23.3971 19.7454 23.6388 19.2354L13.8453 13.2352L12 14.3631L10.1531 13.2352V13.2367ZM15.2749 12.3635L23.925 17.6634V7.07856L15.2749 12.3621V12.3635Z" fill="#E9D284"/>
</svg>
