<svg width="24" height="24" viewBox="0 0 24 24" fill="none" xmlns="http://www.w3.org/2000/svg">
<path fill-rule="evenodd" clip-rule="evenodd" d="M2.88539 0.841179C3.14621 0.580869 3.45939 0.378937 3.80418 0.248763C4.14897 0.118589 4.51751 0.0631471 4.88536 0.0861104C5.25321 0.109074 5.61198 0.209918 5.93789 0.381961C6.2638 0.554004 6.54942 0.793316 6.7758 1.08404L9.45139 4.51985C9.94179 5.15009 10.1147 5.97105 9.92092 6.74582L9.10558 10.0088C9.06342 10.1778 9.0657 10.3548 9.11219 10.5227C9.15868 10.6906 9.2478 10.8435 9.3709 10.9668L13.0332 14.6276C13.1567 14.7509 13.31 14.8401 13.4783 14.8866C13.6465 14.9331 13.8239 14.9352 13.9932 14.8928L17.2561 14.0778C17.6386 13.9822 18.0378 13.9748 18.4236 14.0561C18.8094 14.1374 19.1717 14.3053 19.483 14.5472L22.9203 17.2201C24.1559 18.1811 24.2692 20.0063 23.1632 21.1103L21.622 22.6509C20.5189 23.7535 18.8704 24.2377 17.3336 23.6969C13.4002 22.3135 9.82891 20.0627 6.88461 17.1113C3.93221 14.1687 1.68042 10.5995 0.296259 6.66834C-0.243331 5.1337 0.241107 3.48434 1.34414 2.38178L2.88539 0.841179Z" fill="#E9D284"/>
</svg>
