<svg width="60" height="54" viewBox="0 0 60 54" fill="none" xmlns="http://www.w3.org/2000/svg">
<path d="M16.5759 35.5325C19.3774 35.5325 21.5564 36.3896 23.1128 38.1039C24.8249 39.8182 25.6809 42 25.6809 44.6494C25.6809 50.8831 22.1012 54 14.9416 54C10.2724 54 6.61479 52.2857 3.96887 48.8571C1.32296 45.2727 0 40.2078 0 33.6623C0 27.4286 1.40078 21.6623 4.20234 16.3637C7.00389 10.9091 11.1284 5.53248 16.5759 0.233779C16.7315 0.0779276 16.965 0 17.2763 0C17.7432 0 18.1323 0.233772 18.4436 0.701307C18.7549 1.16884 18.7549 1.55845 18.4436 1.87014C10.8171 9.66234 7.00389 18.8571 7.00389 29.4546C7.00389 33.8182 7.7821 37.013 9.33852 39.039C10.7393 36.7013 13.1518 35.5325 16.5759 35.5325ZM50.8949 35.5325C53.6965 35.5325 55.8755 36.3896 57.4319 38.1039C59.144 39.8182 60 42 60 44.6494C60 50.8831 56.4202 54 49.2607 54C44.5914 54 40.9339 52.2857 38.2879 48.8571C35.642 45.2727 34.3191 40.2078 34.3191 33.6623C34.3191 27.4286 35.7198 21.6623 38.5214 16.3637C41.323 10.9091 45.4475 5.53248 50.8949 0.233779C51.0506 0.0779276 51.2841 0 51.5953 0C52.0623 0 52.4514 0.233772 52.7626 0.701307C53.0739 1.16884 53.0739 1.55845 52.7626 1.87014C45.1362 9.66234 41.323 18.8571 41.323 29.4546C41.323 33.8182 42.1012 37.013 43.6576 39.039C45.0584 36.7013 47.4708 35.5325 50.8949 35.5325Z" fill="#D7B566"/>
</svg>
