<svg width="11" height="11" viewBox="0 0 11 11" fill="none" xmlns="http://www.w3.org/2000/svg">
<path d="M8.07294 7.11096C8.73862 6.20246 9.03677 5.07609 8.90774 3.95717C8.77872 2.83826 8.23203 1.80933 7.37705 1.07624C6.52208 0.343145 5.42187 -0.0400504 4.29653 0.0033169C3.1712 0.0466842 2.10373 0.513416 1.30769 1.31014C0.511652 2.10686 0.0457503 3.17481 0.00319437 4.30033C-0.0393615 5.42585 0.344567 6.52595 1.07817 7.38052C1.81177 8.23509 2.84095 8.78112 3.95979 8.90936C5.07864 9.0376 6.20465 8.73861 7.11254 8.07218C7.13316 8.09969 7.15447 8.12582 7.17922 8.15126L9.826 10.7984C9.9549 10.9274 10.1298 10.9999 10.3121 11C10.4945 11.0001 10.6694 10.9277 10.7984 10.7987C10.9274 10.6698 10.9999 10.4949 11 10.3125C11.0001 10.1301 10.9277 9.95519 10.7988 9.82618L8.152 7.17903C8.12742 7.15415 8.10099 7.13185 8.07294 7.11096ZM8.25031 4.46794C8.25031 4.96455 8.15251 5.4563 7.96249 5.91511C7.77247 6.37392 7.49396 6.7908 7.14285 7.14196C6.79174 7.49312 6.37491 7.77167 5.91617 7.96172C5.45742 8.15176 4.96574 8.24958 4.4692 8.24958C3.97266 8.24958 3.48098 8.15176 3.02223 7.96172C2.56349 7.77167 2.14666 7.49312 1.79555 7.14196C1.44444 6.7908 1.16593 6.37392 0.975911 5.91511C0.785893 5.4563 0.688091 4.96455 0.688091 4.46794C0.688092 3.46498 1.08646 2.50311 1.79555 1.79391C2.50465 1.08472 3.46639 0.686297 4.4692 0.686297C5.47201 0.686297 6.43375 1.08472 7.14285 1.79391C7.85194 2.50311 8.25031 3.46498 8.25031 4.46794Z" fill="black"/>
</svg>
