<svg width="8" height="9" viewBox="0 0 8 9" fill="none" xmlns="http://www.w3.org/2000/svg">
<path d="M5.87123 5.32542C6.35536 4.66469 6.5722 3.84551 6.47836 3.03175C6.38452 2.218 5.98693 1.46969 5.36513 0.936528C4.74333 0.403369 3.94318 0.124681 3.12475 0.156221C2.30632 0.187761 1.52998 0.527202 0.951047 1.10663C0.372111 1.68607 0.0332729 2.46276 0.00232318 3.28132C-0.0286266 4.09988 0.250594 4.89995 0.784123 5.52146C1.31765 6.14297 2.06614 6.54008 2.87985 6.63334C3.69356 6.72661 4.51247 6.50916 5.17275 6.02449C5.18775 6.04449 5.20325 6.06349 5.22125 6.08199L7.14618 8.00719C7.23993 8.10102 7.36711 8.15376 7.49974 8.15381C7.63237 8.15386 7.75959 8.10121 7.8534 8.00744C7.94722 7.91368 7.99995 7.78648 8 7.65383C8.00005 7.52118 7.9474 7.39395 7.85365 7.30012L5.92873 5.37492C5.91085 5.35682 5.89163 5.34061 5.87123 5.32542ZM6.00022 3.40322C6.00022 3.76439 5.9291 4.12203 5.7909 4.45571C5.65271 4.78939 5.45015 5.09257 5.1948 5.34796C4.93945 5.60335 4.6363 5.80593 4.30267 5.94415C3.96903 6.08236 3.61145 6.1535 3.25033 6.1535C2.88921 6.1535 2.53162 6.08236 2.19799 5.94415C1.86435 5.80593 1.56121 5.60335 1.30586 5.34796C1.0505 5.09257 0.847949 4.78939 0.709754 4.45571C0.571558 4.12203 0.50043 3.76439 0.50043 3.40322C0.50043 2.6738 0.790151 1.97425 1.30586 1.45847C1.82156 0.942695 2.52101 0.652934 3.25033 0.652934C3.97965 0.652934 4.67909 0.942695 5.1948 1.45847C5.7105 1.97425 6.00022 2.6738 6.00022 3.40322Z" fill="white"/>
</svg>
