<svg width="30" height="28" viewBox="0 0 30 28" fill="none" xmlns="http://www.w3.org/2000/svg">
<path d="M27.3913 6.82606H23.2565L20.8696 4.21736H13.0435V6.82606H19.7217L22.1087 9.43476H27.3913V25.0869H6.52174V13.3478H3.91304V25.0869C3.91304 26.5217 5.08696 27.6956 6.52174 27.6956H27.3913C28.8261 27.6956 30 26.5217 30 25.0869V9.43476C30 7.99997 28.8261 6.82606 27.3913 6.82606ZM10.4348 17.2608C10.4348 20.8608 13.3565 23.7826 16.9565 23.7826C20.5565 23.7826 23.4783 20.8608 23.4783 17.2608C23.4783 13.6608 20.5565 10.7391 16.9565 10.7391C13.3565 10.7391 10.4348 13.6608 10.4348 17.2608ZM16.9565 13.3478C19.1087 13.3478 20.8696 15.1087 20.8696 17.2608C20.8696 19.413 19.1087 21.1739 16.9565 21.1739C14.8043 21.1739 13.0435 19.413 13.0435 17.2608C13.0435 15.1087 14.8043 13.3478 16.9565 13.3478ZM6.52174 6.82606H10.4348V4.21736H6.52174V0.304321H3.91304V4.21736H0V6.82606H3.91304V10.7391H6.52174V6.82606Z" fill="#D7B566"/>
</svg>
