<svg width="28" height="28" viewBox="0 0 28 28" fill="none" xmlns="http://www.w3.org/2000/svg">
<path fill-rule="evenodd" clip-rule="evenodd" d="M14.9491 17.2321C14.9934 16.6701 15.3005 15.7952 16.0681 16.2724C16.5318 16.5614 16.8998 16.9801 17.3165 17.3476C17.7233 17.7056 18.2086 18.0183 19.1129 17.9992C19.6491 17.9877 21.1892 18.0298 21.5904 17.9092C22.8029 17.5462 20.6546 15.8875 20.13 15.5163C19.9092 15.3601 19.6618 15.1378 19.4726 14.9725C19.2385 14.7684 19.1261 14.5616 19.3121 14.2415L20.125 13.2982C20.3657 13.0813 21.2562 12.0307 21.4714 11.7431C21.7813 11.3285 22.4172 10.5135 21.5976 10.3829C21.1366 10.3094 19.6402 10.3779 19.0708 10.3811C17.9491 10.3871 18.1771 10.2848 17.6237 11.339C17.2551 12.0403 16.1173 13.6932 15.5141 13.8817C14.3957 14.2315 15.2706 10.8847 14.7991 10.3058C14.513 9.95467 13.1871 9.9985 12.5668 10.0054C11.8462 10.0127 10.8501 10.0442 10.6398 10.5345C10.704 10.5797 10.6337 10.5491 10.7583 10.5911C10.8479 10.6213 10.9879 10.6281 11.1401 10.6952C11.2751 10.7541 11.398 10.8578 11.4683 10.9509C11.808 11.3993 11.7671 13.2882 11.486 13.7461C10.9597 14.6017 9.42236 12.1979 9.15895 11.7696C8.78264 11.1582 8.63488 10.5637 8.20877 10.4117C7.89997 10.3021 6.14958 10.3633 5.67864 10.3697C5.24755 10.3752 4.87567 10.4313 5.03947 10.8528C5.12193 11.0651 5.31783 11.3641 5.43626 11.5783C6.16618 12.9001 7.30728 14.5228 8.3128 15.6222C9.44782 16.8627 11.1257 17.9617 13.2469 17.9759C14.7704 17.9859 14.8855 18.0416 14.9491 17.2321Z" fill="#2595FF"/>
</svg>
