<svg width="28" height="28" viewBox="0 0 28 28" fill="none" xmlns="http://www.w3.org/2000/svg">
<path d="M14.0017 7H13.9983C10.1386 7 7 10.1395 7 14C7 15.5312 7.4935 16.9505 8.33263 18.1029L7.46025 20.7034L10.1509 19.8433C11.2578 20.5765 12.5781 21 14.0017 21C17.8614 21 21 17.8596 21 14C21 10.1404 17.8614 7 14.0017 7ZM18.0749 16.8849C17.906 17.3617 17.2358 17.7572 16.7011 17.8727C16.3354 17.9506 15.8576 18.0128 14.2494 17.346C12.1922 16.4938 10.8675 14.4034 10.7643 14.2677C10.6654 14.1321 9.933 13.1609 9.933 12.1564C9.933 11.1519 10.4431 10.6628 10.6488 10.4528C10.8176 10.2804 11.0967 10.2016 11.3645 10.2016C11.4511 10.2016 11.529 10.206 11.599 10.2095C11.8046 10.2183 11.9079 10.2305 12.0435 10.5551C12.2124 10.962 12.6236 11.9665 12.6726 12.0698C12.7225 12.173 12.7724 12.313 12.7024 12.4486C12.6368 12.5886 12.579 12.6507 12.4757 12.7697C12.3725 12.8888 12.2745 12.9798 12.1712 13.1075C12.0767 13.2186 11.97 13.3376 12.089 13.5433C12.208 13.7445 12.6192 14.4156 13.2248 14.9546C14.0061 15.6502 14.6396 15.8725 14.8663 15.967C15.0351 16.037 15.2364 16.0204 15.3597 15.8891C15.5164 15.7203 15.7098 15.4403 15.9066 15.1646C16.0466 14.9669 16.2234 14.9424 16.4089 15.0124C16.5979 15.078 17.598 15.5724 17.8036 15.6747C18.0092 15.778 18.1449 15.827 18.1947 15.9136C18.2437 16.0002 18.2437 16.4071 18.0749 16.8849Z" fill="#2595FF"/>
</svg>
