<svg width="82" height="64" viewBox="0 0 82 64" fill="none" xmlns="http://www.w3.org/2000/svg">
<path d="M51.0778 26.6376L47.2149 24.1682C45.6723 23.182 43.9133 26.7719 43.8137 28.697C43.7429 30.066 42.6826 31.1335 41.406 31.1212L26.5331 28.5151C25.207 28.5024 24.1189 29.6393 24.0943 31.0633L24.0141 35.7148C23.9881 37.2228 25.1574 38.4371 26.5593 38.347C34.0311 37.8671 42.9541 34.1867 43.0772 34.3189C43.122 34.367 43.4214 34.9154 43.8137 35.7148C44.8314 37.7888 49.6352 41.3368 50.9662 39.4786L52.3532 37.5422C52.4238 37.4436 52.501 37.3505 52.5842 37.2637L56.281 33.4038C57.4613 32.1714 57.1746 30.0602 55.7157 29.2412L51.0778 26.6376Z" fill="white"/>
</svg>
