<svg width="82" height="64" viewBox="0 0 82 64" fill="none" xmlns="http://www.w3.org/2000/svg">
<path d="M29.9495 26.6376L33.8124 24.1682C35.3551 23.182 37.1141 26.7719 37.2137 28.697C37.2845 30.066 38.3447 31.1335 39.6214 31.1212L54.4942 28.5151C55.8204 28.5024 56.9085 29.6393 56.933 31.0633L57.0132 35.7148C57.0392 37.2228 55.8699 38.4371 54.468 38.347C46.9962 37.8671 38.0732 34.1867 37.9501 34.3189C37.9054 34.367 37.606 34.9154 37.2137 35.7148C36.196 37.7888 31.3921 41.3368 30.0612 39.4786L28.6742 37.5422C28.6035 37.4436 28.5263 37.3505 28.4432 37.2637L24.7463 33.4038C23.5661 32.1714 23.8528 30.0602 25.3116 29.2412L29.9495 26.6376Z" fill="white"/>
</svg>
