<svg width="34" height="33" viewBox="0 0 34 33" fill="none" xmlns="http://www.w3.org/2000/svg">
<g clip-path="url(#clip0_82_4905)"> 
<g clip-path="url(#clip1_82_4905)">
<g clip-path="url(#clip2_82_4905)">
<path d="M8.92065 19.3452C9.27067 20.5221 9.98983 21.5553 10.972 22.2922C11.9541 23.0291 13.1471 23.4306 14.375 23.4376H19.625C20.8528 23.4306 22.0458 23.0291 23.028 22.2922C24.0101 21.5553 24.7293 20.5221 25.0793 19.3452C22.4517 20.085 19.7291 20.4321 17 20.3751C14.2708 20.4321 11.5482 20.085 8.92065 19.3452Z" fill="#00C5E4"/>
<path d="M10.7297 14.7426C10.5668 14.6839 10.3901 14.6749 10.2221 14.7167C10.054 14.7585 9.90214 14.8492 9.78568 14.9774C9.66922 15.1055 9.5934 15.2654 9.56782 15.4366C9.54225 15.6079 9.56806 15.7829 9.642 15.9395C9.71594 16.0961 9.83468 16.2272 9.98319 16.3163C10.1317 16.4053 10.3033 16.4483 10.4762 16.4398C10.6492 16.4313 10.8157 16.3717 10.9548 16.2684C11.0938 16.1652 11.1991 16.0231 11.2573 15.86C11.2835 15.7899 11.3273 15.7277 11.3845 15.6793C11.4416 15.631 11.5102 15.5981 11.5837 15.5838C11.6572 15.5696 11.7331 15.5744 11.8042 15.5978C11.8753 15.6213 11.9391 15.6626 11.9897 15.7178C12.1085 15.8483 12.2645 15.9393 12.4366 15.9784C12.6087 16.0175 12.7886 16.0029 12.9522 15.9366C13.0096 15.9136 13.0713 15.9031 13.1331 15.9058C13.1948 15.9084 13.2554 15.9241 13.3106 15.9519C13.3659 15.9796 13.4147 16.0187 13.4537 16.0667C13.4928 16.1147 13.5212 16.1704 13.5371 16.2301C13.5916 16.435 13.719 16.6129 13.8953 16.7306C14.0716 16.8483 14.2848 16.8977 14.4949 16.8694C14.705 16.8412 14.8976 16.7373 15.0366 16.5773C15.1756 16.4172 15.2514 16.212 15.2499 16C15.2499 15.884 15.296 15.7727 15.3781 15.6906C15.4601 15.6086 15.5714 15.5625 15.6874 15.5625C15.6979 15.5625 15.7255 15.5564 15.7364 15.5555C15.832 15.5492 15.927 15.5745 16.0068 15.6275C16.0867 15.6804 16.1469 15.7581 16.1783 15.8486C16.2415 16.0353 16.3665 16.1949 16.5326 16.301C16.6987 16.4072 16.896 16.4535 17.092 16.4324C17.288 16.4113 17.4709 16.324 17.6106 16.185C17.7504 16.0459 17.8385 15.8634 17.8605 15.6675C17.8717 15.5745 17.9124 15.4876 17.9767 15.4195C18.041 15.3514 18.1254 15.3057 18.2175 15.2892C18.3097 15.2726 18.4047 15.2861 18.4887 15.3276C18.5726 15.369 18.641 15.4364 18.6839 15.5196C18.7355 15.6251 18.8083 15.7189 18.8978 15.7951C18.9872 15.8713 19.0913 15.9283 19.2036 15.9626C19.316 15.9969 19.4342 16.0077 19.5509 15.9944C19.6677 15.9812 19.7804 15.944 19.8822 15.8854C19.9458 15.8516 20.0167 15.8339 20.0887 15.8337C20.1889 15.8338 20.2861 15.8682 20.364 15.9312C20.4418 15.9943 20.4957 16.0822 20.5166 16.1802C20.5597 16.387 20.6764 16.5712 20.8449 16.6985C21.0135 16.8258 21.2225 16.8876 21.4332 16.8726C21.6439 16.8575 21.842 16.7665 21.9908 16.6165C22.1395 16.4665 22.2288 16.2677 22.2421 16.0569C22.2478 15.9746 22.2767 15.8956 22.3254 15.829C22.3742 15.7624 22.4407 15.711 22.5174 15.6806C22.5941 15.6502 22.6779 15.6422 22.759 15.6573C22.8401 15.6725 22.9152 15.7103 22.9757 15.7664C23.1347 15.9156 23.3444 15.9991 23.5624 16C23.7945 16 24.0171 15.9078 24.1812 15.7437C24.3453 15.5796 24.4374 15.3571 24.4374 15.125C24.4374 14.8929 24.3453 14.6704 24.1812 14.5063C24.0171 14.3422 23.7945 14.25 23.5624 14.25C23.3462 14.2492 23.1378 14.3312 22.9801 14.4792C22.9189 14.5359 22.8427 14.5738 22.7606 14.5886C22.6785 14.6034 22.5939 14.5944 22.5167 14.5627C22.4395 14.5309 22.373 14.4778 22.3251 14.4095C22.2771 14.3413 22.2497 14.2607 22.246 14.1774C22.2388 14.0301 22.1945 13.8871 22.1173 13.7616C22.04 13.636 21.9323 13.532 21.8042 13.4592C21.676 13.3864 21.5315 13.3472 21.3841 13.3452C21.2367 13.3431 21.0912 13.3784 20.9611 13.4476C20.8906 13.4846 20.8114 13.5016 20.732 13.4969C20.6526 13.4922 20.576 13.466 20.5104 13.421C20.4447 13.376 20.3927 13.314 20.3597 13.2416C20.3267 13.1692 20.3141 13.0892 20.3232 13.0101C20.3232 13.0049 20.3293 12.9633 20.3302 12.9585C20.3387 12.7335 20.2595 12.514 20.1093 12.3463C19.9591 12.1785 19.7497 12.0756 19.5252 12.0592C19.3006 12.0428 19.0785 12.1143 18.9056 12.2584C18.7326 12.4026 18.6224 12.6082 18.5981 12.8321C18.5869 12.925 18.5462 13.0119 18.4819 13.08C18.4177 13.1481 18.3333 13.1938 18.2411 13.2104C18.1489 13.2269 18.0539 13.2135 17.97 13.172C17.886 13.1305 17.8176 13.0632 17.7747 12.9799C17.7024 12.8363 17.5917 12.7154 17.455 12.6307C17.3183 12.546 17.1608 12.5008 16.9999 12.5C16.8839 12.5 16.7726 12.4539 16.6906 12.3719C16.6085 12.2898 16.5624 12.1785 16.5624 12.0625C16.5606 11.8581 16.4871 11.6607 16.3549 11.5048C16.2227 11.3488 16.0401 11.2441 15.8387 11.2087C15.6374 11.1734 15.43 11.2097 15.2526 11.3113C15.0752 11.4129 14.939 11.5734 14.8676 11.765C14.8413 11.8351 14.7975 11.8973 14.7404 11.9457C14.6833 11.994 14.6147 12.0269 14.5412 12.0412C14.4677 12.0554 14.3918 12.0506 14.3207 12.0271C14.2496 12.0037 14.1857 11.9624 14.1352 11.9072C14.0546 11.8187 13.9565 11.748 13.8472 11.6994C13.7378 11.6508 13.6196 11.6255 13.4999 11.625C13.2679 11.625 13.0453 11.7172 12.8812 11.8813C12.7171 12.0454 12.6249 12.2679 12.6249 12.5C12.6253 12.6 12.644 12.699 12.6801 12.7922C12.705 12.8584 12.7134 12.9297 12.7048 12.9999C12.6961 13.0701 12.6705 13.1371 12.6303 13.1953C12.59 13.2534 12.5363 13.3009 12.4736 13.3338C12.411 13.3666 12.3413 13.3837 12.2706 13.3837C12.2482 13.3837 12.1831 13.3776 12.1625 13.3746C11.9344 13.3802 11.7176 13.475 11.5587 13.6387C11.3997 13.8024 11.3113 14.0218 11.3124 14.25C11.319 14.2772 11.322 14.3051 11.3212 14.3331C11.3212 14.4038 11.304 14.4735 11.2712 14.5362C11.2384 14.5988 11.1909 14.6526 11.1327 14.6928C11.0746 14.7331 11.0075 14.7586 10.9373 14.7673C10.8671 14.776 10.7959 14.7675 10.7297 14.7426ZM19.1874 13.8125H20.0624V14.6875H19.1874V13.8125ZM13.9374 12.9375H14.8124V13.8125H13.9374V12.9375Z" fill="#00C5E4"/>
<path d="M30.0734 8.5625C29.628 8.56155 29.1933 8.69915 28.8296 8.95625L22.8035 13.2109C22.8648 13.2963 22.9179 13.3873 22.9623 13.4826C23.183 13.4002 23.4185 13.3644 23.6537 13.3777C23.889 13.3909 24.1189 13.4529 24.329 13.5596L30.5052 10.309C30.6884 10.2125 30.834 10.0574 30.9188 9.86852C31.0036 9.67961 31.0227 9.46774 30.973 9.26672C30.9233 9.06571 30.8077 8.88713 30.6446 8.75949C30.4816 8.63185 30.2805 8.5625 30.0734 8.5625Z" fill="#00C5E4"/>
<path d="M25.7211 13.8155L25.0303 14.1791C25.2311 14.4879 25.329 14.8525 25.3099 15.2204C25.2909 15.5883 25.1559 15.9407 24.9243 16.2273C24.6927 16.5138 24.3764 16.7197 24.0207 16.8154C23.6649 16.9112 23.288 16.8919 22.9439 16.7603C22.8047 17.0507 22.5879 17.2969 22.3174 17.4716C22.0469 17.6463 21.7334 17.7427 21.4115 17.7502C21.0895 17.7576 20.7719 17.6757 20.4936 17.5137C20.2153 17.3516 19.9874 17.1157 19.835 16.8321C19.5956 16.8859 19.3475 16.8882 19.1072 16.8388C18.8669 16.7894 18.6398 16.6894 18.4411 16.5455C18.3047 16.7483 18.1269 16.9201 17.9196 17.0495C17.7122 17.1789 17.4798 17.2631 17.2376 17.2966C16.9955 17.33 16.749 17.312 16.5143 17.2436C16.2796 17.1753 16.062 17.0581 15.8756 16.8999C15.719 17.1626 15.4959 17.3794 15.229 17.5287C14.962 17.678 14.6605 17.7544 14.3546 17.7503C14.0488 17.7463 13.7494 17.6618 13.4865 17.5055C13.2236 17.3491 13.0065 17.1264 12.8569 16.8596C12.4903 16.9088 12.1176 16.8394 11.7933 16.6614C11.6059 16.8933 11.3623 17.0735 11.0857 17.1848C10.8091 17.2962 10.5086 17.335 10.2128 17.2976C9.91701 17.2602 9.63566 17.1478 9.39545 16.9712C9.15525 16.7945 8.96417 16.5594 8.84034 16.2882C8.71651 16.0169 8.66403 15.7186 8.68789 15.4213C8.71175 15.1241 8.81116 14.8379 8.97668 14.5899C9.1422 14.3419 9.36834 14.1403 9.63365 14.0043C9.89896 13.8682 10.1946 13.8022 10.4926 13.8124C10.5647 13.5377 10.7029 13.2848 10.8951 13.0757C7.73331 13.7306 5.625 14.8725 5.625 15.9999C5.625 17.6554 10.2966 19.4999 17 19.4999C23.7034 19.4999 28.375 17.6554 28.375 15.9999C28.375 15.2457 27.4064 14.4551 25.7211 13.8155Z" fill="#00C5E4"/>
</g>
</g>
</g>
<defs>
<clipPath id="clip0_82_4905">
<rect width="33" height="33" fill="white" transform="translate(0.5)"/>
</clipPath>
<clipPath id="clip1_82_4905">
<rect width="28" height="28" fill="white" transform="translate(3 2)"/>
</clipPath>
<clipPath id="clip2_82_4905">
<rect width="28" height="28" fill="white" transform="translate(3 2)"/>
</clipPath>
</defs>
</svg>
