<svg width="108" height="120" viewBox="0 0 108 120" fill="none" xmlns="http://www.w3.org/2000/svg">
<path d="M88 118.577V63.5578C88 50.7876 81.6215 38.8611 71 31.7715" stroke="#8D8D8D" stroke-width="1.4" stroke-linecap="round"/>
<path d="M20 118.577V63.5578C20 50.7876 26.3785 38.8611 37 31.7715" stroke="#8D8D8D" stroke-width="1.4" stroke-linecap="round"/>
<path d="M37 34.0664V69.2381C37 78.6269 44.6112 86.2381 54 86.2381C63.3888 86.2381 71 78.6269 71 69.2381V34.0664C71 24.6776 63.3888 17.0664 54 17.0664C44.6112 17.0664 37 24.6776 37 34.0664Z" stroke="#9B1D32" stroke-width="2" stroke-linecap="round"/>
<path d="M70.0972 31.7734L64.6141 37.2571C63.8848 37.9865 62.7203 38.0416 61.9254 37.3843L56.4501 32.8573C55.6943 32.2325 54.5969 32.2477 53.8589 32.8934L51.3594 35.0799" stroke="#9B1D32" stroke-width="1.59" stroke-linecap="round"/>
</svg>
