<svg width="186" height="181" viewBox="0 0 186 181" fill="none" xmlns="http://www.w3.org/2000/svg">
<path d="M121.6 21.1855H64.4004V46.6025C64.4004 57.8904 69.5029 68.5732 78.2832 75.667L82.25 78.8721C85.7805 81.7244 87.8331 86.0199 87.8331 90.5586C87.833 94.8607 85.988 98.956 82.7666 101.808L78.3311 105.734C69.4719 113.577 64.4004 124.841 64.4004 136.673V159.558H121.6V136.673C121.6 124.841 116.528 113.577 107.669 105.734L103.233 101.808C100.012 98.956 98.1671 94.8607 98.1671 90.5586C98.1671 86.0199 100.22 81.7244 103.75 78.8721L107.717 75.667C116.497 68.5732 121.6 57.8904 121.6 46.6025V21.1855ZM122.996 47.1504C122.834 58.6583 117.564 69.5112 108.597 76.7559L104.63 79.9609L104.333 80.207C101.313 82.7909 99.5675 86.5714 99.5675 90.5586L99.5723 90.9238C99.6732 94.6909 101.331 98.2547 104.161 100.76L108.597 104.687C117.756 112.795 123 124.44 123 136.673V160.958H63V136.673C63 124.631 68.0817 113.158 76.9776 105.068L77.4033 104.687L81.8389 100.76C84.6687 98.2547 86.3269 94.6909 86.4278 90.9238L86.4327 90.5586C86.4327 86.4428 84.5716 82.5475 81.3702 79.9609L77.4033 76.7559C68.4363 69.5112 63.1663 58.6583 63.0039 47.1504L63 46.6025V19.7852H123V46.6025L122.996 47.1504Z" fill="#9B1D32"/>
<path d="M75.6757 49.0049H110.4C113.217 49.0051 115.477 51.3338 115.392 54.1494L115.365 54.751C115.018 60.9526 112.23 66.7511 107.895 71.2256L106.913 72.25C106.587 72.5936 106.264 72.9388 105.945 73.2832L105.412 73.8477C102.686 76.677 99.1121 79.5817 96.9667 81.252L96.7372 81.4229C95.5756 82.2486 94.1794 82.6719 92.748 82.6719V81.2725C93.9811 81.2725 95.1609 80.8834 96.1064 80.1475C98.3865 78.3723 102.223 75.2438 104.917 72.332C105.563 71.634 106.228 70.9352 106.89 70.252C111.15 65.8538 113.81 60.1466 113.992 54.1074C114.053 52.0812 112.427 50.4055 110.4 50.4053H75.6757C73.6069 50.4055 71.9472 52.1157 72.0097 54.1836C72.1913 60.1928 74.7895 65.8837 78.9609 70.3242C79.5853 70.9889 80.212 71.669 80.8222 72.3477C83.4169 75.2338 87.1096 78.3262 89.3407 80.1084C90.2931 80.8689 91.4931 81.2724 92.748 81.2725V82.6719C91.2909 82.6718 89.8707 82.2321 88.6982 81.3779L88.4667 81.2021C86.3665 79.5245 82.9225 76.6488 80.2948 73.8428L79.7812 73.2832C79.48 72.9482 79.1747 72.6124 78.8671 72.2783L77.9403 71.2832C73.5633 66.6238 70.8033 60.6155 70.6103 54.2256C70.524 51.3683 72.8171 49.0051 75.6757 49.0049Z" fill="#A5A5A5"/>
<path d="M89.1074 138.489C91.1423 136.949 93.9533 136.949 95.9883 138.489L112.237 150.79C115.14 152.987 116.846 156.418 116.846 160.059V160.758H69.1543V160.059C69.1543 155.987 71.0617 152.151 74.3076 149.693L89.1074 138.489ZM95.1436 139.606C93.6084 138.443 91.4873 138.443 89.9521 139.606L75.1533 150.81C72.4436 152.861 70.7795 155.989 70.5762 159.358H115.42C115.219 156.42 113.759 153.698 111.393 151.906L95.1436 139.606Z" fill="#A5A5A5"/>
<path d="M56.9579 92.6464C58.2139 90.0433 57.1216 86.9148 54.5186 85.6587C51.9154 84.4027 48.7869 85.4948 47.5309 88.098C46.2751 90.7012 47.3671 93.8298 49.9702 95.0858L49.3621 96.3462L49.0581 96.1897C46.0779 94.5609 44.8102 90.9299 46.1294 87.8003L46.2696 87.4895C47.8616 84.1898 51.8275 82.8054 55.1272 84.3974L55.4303 84.5534C58.5099 86.2365 59.7606 90.058 58.2184 93.2546L58.0623 93.5577C56.3793 96.6372 52.5586 97.8882 49.3621 96.3462L49.9702 95.0858C52.5733 96.3415 55.7019 95.2493 56.9579 92.6464Z" fill="#A5A5A5"/>
<path d="M138.397 92.6464C139.653 90.0433 138.561 86.9148 135.958 85.6587C133.355 84.4027 130.226 85.4948 128.97 88.098C127.715 90.7012 128.807 93.8298 131.41 95.0858L130.802 96.3462L130.498 96.1897C127.517 94.5609 126.25 90.9299 127.569 87.8003L127.709 87.4895C129.301 84.1898 133.267 82.8054 136.567 84.3974L136.87 84.5534C139.949 86.2365 141.2 90.058 139.658 93.2546L139.502 93.5577C137.819 96.6372 133.998 97.8882 130.802 96.3462L131.41 95.0858C134.013 96.3415 137.141 95.2493 138.397 92.6464Z" fill="#A5A5A5"/>
<path d="M96.2432 104.975C96.7688 103.885 96.3116 102.576 95.2222 102.05C94.1326 101.524 92.8233 101.982 92.2976 103.071C91.7721 104.161 92.229 105.47 93.3185 105.996L92.7104 107.256L92.545 107.172C90.9322 106.29 90.2467 104.325 90.9605 102.631L91.0363 102.463C91.898 100.677 94.0448 99.9272 95.8307 100.789L95.9949 100.874C97.6616 101.785 98.3383 103.853 97.5035 105.583L97.4198 105.747C96.5089 107.414 94.4405 108.091 92.7104 107.256L93.3185 105.996C94.4079 106.521 95.7174 106.064 96.2432 104.975Z" fill="#A5A5A5"/>
<path d="M102.255 123.087C102.732 122.099 102.318 120.912 101.329 120.435C100.341 119.958 99.154 120.373 98.6773 121.361C98.2005 122.349 98.6149 123.536 99.6031 124.013L98.9946 125.274L98.8392 125.194C97.318 124.362 96.6713 122.509 97.3449 120.911L97.416 120.752C98.2288 119.068 100.253 118.361 101.938 119.174L102.092 119.254C103.665 120.113 104.304 122.064 103.516 123.696L103.436 123.85C102.577 125.423 100.627 126.062 98.9946 125.274L99.6031 124.013C100.591 124.49 101.778 124.075 102.255 123.087Z" fill="#A5A5A5"/>
<path d="M81.7405 137.626C82.2173 136.638 81.8029 135.451 80.8147 134.974C79.8265 134.497 78.6394 134.912 78.1626 135.9C77.6859 136.888 78.1003 138.075 79.0884 138.552L78.4799 139.813L78.3246 139.733C76.8033 138.901 76.1566 137.048 76.8302 135.45L76.9014 135.291C77.7141 133.607 79.7387 132.9 81.4232 133.713L81.5777 133.793C83.1501 134.652 83.7892 136.603 83.0018 138.235L82.9218 138.389C82.0627 139.962 80.1119 140.601 78.4799 139.813L79.0884 138.552C80.0766 139.029 81.2637 138.614 81.7405 137.626Z" fill="#A5A5A5"/>
<path d="M47.6172 77.9658C47.6172 79.4017 48.781 80.5653 50.2168 80.5654L53.834 80.5654C55.2699 80.5654 56.4336 79.4018 56.4336 77.9658L56.4336 21.1855L47.6172 21.1855L47.6172 77.9658ZM46.2168 19.7852L57.834 19.7852L57.834 77.9658C57.834 80.175 56.0431 81.9658 53.834 81.9658L50.2168 81.9658L50.0107 81.9609C47.8975 81.8536 46.2168 80.1058 46.2168 77.9658L46.2168 19.7852Z" fill="#A5A5A5"/>
<path d="M137.873 103.229C137.873 101.793 136.709 100.629 135.273 100.629L131.656 100.629C130.22 100.629 129.057 101.793 129.057 103.229L129.057 159.558L137.873 159.558L137.873 103.229ZM139.273 160.958L127.656 160.958L127.656 103.229C127.656 101.019 129.447 99.2285 131.656 99.2285L135.273 99.2285L135.479 99.2334C137.593 99.3408 139.273 101.089 139.273 103.229L139.273 160.958Z" fill="#A5A5A5"/>
<path d="M129.057 77.9658C129.057 79.4017 130.22 80.5653 131.656 80.5654L135.273 80.5654C136.709 80.5654 137.873 79.4018 137.873 77.9658L137.873 21.1855L129.057 21.1855L129.057 77.9658ZM127.656 19.7852L139.273 19.7852L139.273 77.9658C139.273 80.175 137.483 81.9658 135.273 81.9658L131.656 81.9658L131.45 81.9609C129.337 81.8536 127.656 80.1058 127.656 77.9658L127.656 19.7852Z" fill="#A5A5A5"/>
<path d="M56.4336 103.229C56.4336 101.793 55.2698 100.629 53.834 100.629L50.2168 100.629C48.7809 100.629 47.6172 101.793 47.6172 103.229L47.6172 159.558L56.4336 159.558L56.4336 103.229ZM57.834 160.958L46.2168 160.958L46.2168 103.229C46.2168 101.019 48.0077 99.2285 50.2168 99.2285L53.834 99.2285L54.04 99.2334C56.1533 99.3408 57.834 101.089 57.834 103.229L57.834 160.958Z" fill="#A5A5A5"/>
<path d="M42.458 17.1758L41.0576 17.1758L41.0576 13.6582L42.458 13.6582L42.458 17.1758ZM45.0576 19.7754L140.942 19.7754C142.378 19.7754 143.542 18.6116 143.542 17.1758L143.542 13.6582C143.542 12.2223 142.378 11.0586 140.942 11.0586L45.0576 11.0586C43.6218 11.0587 42.458 12.2223 42.458 13.6582L41.0576 13.6582L41.0635 13.4521C41.1673 11.4068 42.8071 9.76651 44.8525 9.66308L45.0576 9.6582L140.942 9.6582C143.152 9.6582 144.942 11.4491 144.942 13.6582L144.942 17.1758L144.937 17.3818C144.83 19.4951 143.082 21.1758 140.942 21.1758L45.0576 21.1758L44.8525 21.1699C42.8072 21.0665 41.1674 19.4271 41.0635 17.3818L41.0576 17.1758L42.458 17.1758C42.4581 18.6115 43.6219 19.7752 45.0576 19.7754Z" fill="#A5A5A5"/>
<path d="M42.458 167.175L41.0576 167.175L41.0576 163.558L42.458 163.558L42.458 167.175ZM45.0576 169.774L140.942 169.774C142.378 169.774 143.542 168.611 143.542 167.175L143.542 163.558C143.542 162.122 142.378 160.958 140.942 160.958L45.0576 160.958C43.6218 160.958 42.458 162.122 42.458 163.558L41.0576 163.558L41.0635 163.352C41.1673 161.306 42.8071 159.666 44.8525 159.562L45.0576 159.558L140.942 159.558C143.152 159.558 144.942 161.348 144.942 163.558L144.942 167.175L144.937 167.381C144.83 169.494 143.082 171.175 140.942 171.175L45.0576 171.175L44.8525 171.169C42.8072 171.065 41.1674 169.426 41.0635 167.381L41.0576 167.175L42.458 167.175C42.4581 168.611 43.6219 169.774 45.0576 169.774Z" fill="#A5A5A5"/>
</svg>
