<svg width="138" height="134" viewBox="0 0 138 134" fill="none" xmlns="http://www.w3.org/2000/svg">
<path d="M109.65 56.8563C103.452 59.5795 88.9257 65.757 69.0002 65.757C59.0542 65.757 49.7359 64.3913 42.384 62.685C38.7076 61.8318 35.5143 60.8917 32.9729 59.9898C30.4493 59.0942 28.5138 58.218 27.3926 57.479L28.4657 56.2182C29.3981 56.8327 31.1599 57.6482 33.6417 58.529C36.1057 59.4035 39.2274 60.3242 42.8407 61.1628C50.069 62.8403 59.2324 64.182 69.0002 64.182C88.5033 64.182 102.727 58.1392 108.851 55.4482L109.65 56.8563Z" fill="#A5A5A5"/>
<path d="M68.1052 129.94V107.826C65.2916 103.708 57.9471 94.6898 50.0179 89.9862C46.0694 87.644 40.2309 86.1444 34.4462 85.236C28.6845 84.3313 23.0895 84.0301 19.7144 84.0301V82.4551C23.1844 82.4551 28.8844 82.7627 34.7594 83.6852C40.6112 84.6041 46.7517 86.1501 51.0174 88.6803C59.3974 93.6513 67.0101 103.112 69.7698 107.205L69.8946 107.39V129.94C69.8945 130.374 69.4938 130.727 68.9999 130.727C68.506 130.727 68.1053 130.374 68.1052 129.94Z" fill="#A5A5A5"/>
<path d="M69.8948 129.94V107.826C72.7084 103.708 80.0529 94.6898 87.9821 89.9862C91.9306 87.644 97.7691 86.1444 103.554 85.236C109.316 84.3313 114.911 84.0301 118.286 84.0301V82.4551C114.816 82.4551 109.116 82.7627 103.241 83.6852C97.3888 84.6041 91.2483 86.1501 86.9826 88.6803C78.6026 93.6513 70.9899 103.112 68.2302 107.205L68.1054 107.39V129.94C68.1055 130.374 68.5062 130.727 69.0001 130.727C69.494 130.727 69.8947 130.374 69.8948 129.94Z" fill="#A5A5A5"/>
<path d="M18.4365 79.1812C18.4366 71.7945 21.6387 64.9955 25.508 58.3648C29.4213 51.6586 33.9552 45.2053 37.003 38.1745C39.3474 32.766 39.2161 25.7263 38.0125 19.0056C36.8141 12.3144 34.5839 6.10318 32.9051 2.45176C32.6404 1.87598 32.956 1.2207 33.6101 0.987705C34.2643 0.754724 35.0088 1.03248 35.2735 1.60825C37.0173 5.40115 39.3051 11.7775 40.5368 18.6552C41.7633 25.5036 41.9741 33.0151 39.3901 38.9762C36.2771 46.1575 31.5691 52.9021 27.7815 59.3928C23.9502 65.9586 20.9922 72.3563 20.9921 79.1812C20.9921 84.6944 23.3376 94.1994 26.3378 103.962C29.3234 113.678 32.9091 123.499 35.2972 129.571C35.5281 130.158 35.1742 130.799 34.5073 131.002C33.8405 131.205 33.1123 130.894 32.8814 130.307C30.4779 124.196 26.8759 114.324 23.8721 104.549C20.8827 94.8212 18.4365 85.0377 18.4365 79.1812Z" fill="#9B1D32"/>
<path d="M119.45 79.1812C119.45 71.7945 116.247 64.9955 112.378 58.3648C108.465 51.6586 103.931 45.2053 100.883 38.1745C98.5388 32.766 98.6702 25.7263 99.8738 19.0056C101.072 12.3144 103.302 6.10318 104.981 2.45176C105.246 1.87598 104.93 1.2207 104.276 0.987705C103.622 0.754724 102.877 1.03248 102.613 1.60825C100.869 5.40115 98.5812 11.7775 97.3494 18.6552C96.1229 25.5036 95.9121 33.0151 98.4961 38.9762C101.609 46.1575 106.317 52.9021 110.105 59.3928C113.936 65.9586 116.894 72.3563 116.894 79.1812C116.894 84.6944 114.549 94.1994 111.548 103.962C108.563 113.678 104.977 123.499 102.589 129.571C102.358 130.158 102.712 130.799 103.379 131.002C104.046 131.205 104.774 130.894 105.005 130.307C107.408 124.196 111.01 114.324 114.014 104.549C117.004 94.8212 119.45 85.0377 119.45 79.1812Z" fill="#9B1D32"/>
<path d="M67.3007 38.2337C68.2392 37.3059 69.7608 37.3059 70.6993 38.2337L71.4 38.9265C72.3384 39.8543 72.3384 41.3587 71.4 42.2865L70.6993 42.9793C69.7608 43.9071 68.2392 43.9071 67.3007 42.9793L66.6 42.2865C65.6616 41.3587 65.6616 39.8543 66.6 38.9265L67.3007 38.2337Z" fill="#A5A5A5"/>
</svg>
