<svg width="140" height="137" viewBox="0 0 140 137" fill="none" xmlns="http://www.w3.org/2000/svg">
<path d="M69.9963 13.4619C68.3655 14.4655 65.3296 16.9243 66.2329 18.7307C67.3619 20.9888 72.6307 20.6125 70.749 23.2469C68.8672 25.8813 66.2328 28.5157 66.9855 29.6447" stroke="#8D8D8D" stroke-width="1.07678"/>
<path d="M83.9222 13.4623C82.7932 10.3261 78.5028 4.27952 70.3738 5.18275C60.2125 6.31178 62.8469 8.9462 60.5889 9.69889C58.3308 10.4516 54.9437 9.69889 54.5674 10.8279C54.191 11.957 56.0727 13.4623 54.5674 14.215C53.3631 14.8172 52.5602 16.2222 52.3093 16.8494C51.4312 17.2258 49.7502 18.3548 50.0513 19.8602C50.4276 21.7419 56.0726 22.4946 55.32 29.2688" stroke="#8D8D8D" stroke-width="1.07678"/>
<path d="M69.9963 6.68848C69.2436 8.3193 67.9641 11.9573 68.8673 13.4627" stroke="#8D8D8D" stroke-width="1.07678"/>
<path d="M84.6732 31.5273C85.6768 33.1582 87.0818 36.7962 84.6732 38.3015C81.6625 40.1833 78.6517 39.0542 79.0281 40.9359C79.3291 42.4413 80.6589 44.323 81.2861 45.0757" stroke="#8D8D8D" stroke-width="1.07678"/>
<path d="M119.297 74.0536C121.931 73.5518 127.351 72.8493 127.953 74.0536C128.705 75.559 133.598 101.903 133.222 112.817C132.845 123.731 131.34 127.495 129.082 129" stroke="#9B1D32" stroke-width="1.07678"/>
<path d="M53.062 36.4189C51.1803 38.4261 46.1372 43.0426 41.019 45.4512C34.6211 48.462 31.234 52.6017 30.4813 58.9996C29.8792 64.1179 28.976 69.4118 28.5996 71.4189C29.2268 72.6734 32.8899 75.5587 42.5243 77.0641C52.1587 78.5695 56.3236 78.6949 57.2018 78.5695C57.5781 77.4405 58.8577 74.4297 60.9652 71.4189C63.0727 68.4082 63.3487 65.3974 63.2233 64.2684" stroke="#9B1D32" stroke-width="1.07678"/>
<path d="M53.4367 42.8174C50.5514 46.079 45.383 53.8066 47.7916 58.6238C50.2002 63.441 58.3292 64.1435 62.0927 63.8927" stroke="#9B1D32" stroke-width="1.07678"/>
<path d="M28.9746 72.9248C29.1001 76.061 29.8778 83.2366 31.9854 86.8495C34.6198 91.3657 37.6305 95.5055 37.6305 98.8925" stroke="#8D8D8D" stroke-width="1.07678"/>
<path d="M43.6523 46.5808C46.2868 45.7027 53.1362 42.8174 59.4588 38.3012C67.362 32.6561 68.8674 32.6561 75.2652 23.2475C81.6631 13.8389 88.0609 10.8281 90.319 10.8281C92.5771 10.8281 111.394 23.2475 115.91 27.7636" stroke="#8D8D8D" stroke-width="1.07678"/>
<path d="M118.168 28.5166C119.548 28.642 122.684 29.6456 124.189 32.6564C125.695 35.6671 126.071 39.6815 126.071 41.3123" stroke="#8D8D8D" stroke-width="1.07678"/>
<path d="M79.7812 6.68798C80.7848 5.1826 83.5447 2.62346 86.5554 4.42991C90.3189 6.68798 92.5769 9.69871 96.3404 11.5804C99.3511 13.0858 102.864 16.9747 104.244 18.731" stroke="#8D8D8D" stroke-width="1.07678"/>
<path d="M63.9746 63.1396C64.9782 62.2614 67.2112 59.7525 68.1144 56.7417C69.0176 53.731 71.2506 50.4693 72.2542 49.2148" stroke="#8D8D8D" stroke-width="1.07678"/>
<path d="M56.4476 80.0752C55.695 81.8315 55.7702 85.7956 62.0928 87.6021C69.996 89.8601 77.8993 89.8601 81.2864 95.8816C83.996 100.699 84.1717 102.907 83.9208 103.409" stroke="#9B1D32" stroke-width="1.07678"/>
<path d="M85.8027 102.656C87.0572 103.534 91.3726 105.516 98.5984 106.42C105.824 107.323 113.903 111.061 117.039 112.818" stroke="#9B1D32" stroke-width="1.07678"/>
<path d="M54.5664 113.57C58.4553 117.208 70.7492 124.861 88.8137 126.366C106.878 127.871 121.179 128.75 126.072 129" stroke="#9B1D32" stroke-width="1.07678"/>
<path d="M119.298 115.828C117.667 113.946 114.782 107.097 116.287 94.7526C117.792 82.4086 118.169 75.81 118.169 74.0537" stroke="#9B1D32" stroke-width="1.07678"/>
<path d="M57.2014 87.2256C56.0723 88.8564 52.8358 92.5697 48.9218 94.3761C45.0078 96.1826 40.015 99.394 38.0078 100.774C38.1333 102.781 39.739 107.699 45.1583 111.312C50.5777 114.925 52.6852 116.831 53.0616 117.333" stroke="#9B1D32" stroke-width="1.07678"/>
<path d="M72.2539 46.9574C73.8847 45.452 77.5227 41.538 79.0281 37.9251C80.5335 34.3122 87.1822 26.8857 90.3184 23.624" stroke="#8D8D8D" stroke-width="1.07678"/>
<path d="M91.0723 22.1182C91.4486 22.4945 91.5991 23.2472 99.7282 26.2579C109.889 30.0214 112.148 30.3977 114.782 34.9139C116.89 38.5268 123.187 41.6881 126.072 42.8171" stroke="#8D8D8D" stroke-width="1.07678"/>
<path d="M120.049 42.0645C120.551 43.5698 121.254 47.1827 120.049 49.5913C118.845 51.9999 119.046 53.8566 119.297 54.4838C117.666 56.6164 114.404 61.4085 114.404 63.5161C114.404 65.6236 116.913 67.9067 118.168 68.7849V72.5483" stroke="#8D8D8D" stroke-width="1.07678"/>
<path d="M124.566 44.6992C124.692 46.7064 125.244 51.5487 126.448 54.8605C127.652 58.1723 127.954 67.7817 127.954 72.1723" stroke="#8D8D8D" stroke-width="1.07678"/>
<path d="M56.0723 44.3225C56.5741 44.5734 58.4056 44.3225 61.7174 41.3118C65.0293 38.301 66.1081 36.5448 66.2336 36.043" stroke="#8D8D8D" stroke-width="1.07678"/>
<path d="M36.1249 102.656C31.8596 102.405 22.2754 102.28 18.0604 103.785C12.7915 105.667 2.25389 107.549 2.25391 112.817C2.25392 117.396 3.75926 122.602 14.2969 123.731C24.8345 124.86 39.5119 124.484 41.77 125.613M12.7915 112.065C14.046 111.312 18.2862 110.033 25.2109 110.936C32.1356 111.839 43.15 115.828 47.7915 117.71C46.5371 118.588 44.1034 120.871 44.4044 122.979" stroke="#9B1D32" stroke-width="1.07678"/>
<path d="M44.7812 126.366C49.5483 127.746 60.8888 128.774 68.1146 121.85" stroke="#8D8D8D" stroke-width="1.07678"/>
</svg>
