<svg width="108" height="106" viewBox="0 0 108 106" fill="none" xmlns="http://www.w3.org/2000/svg">
<path d="M87.2966 104.499V56.012C87.2965 44.9641 81.035 34.646 70.6081 28.5126C70.2867 28.3234 70.2002 27.9404 70.4148 27.6571C70.6294 27.3738 71.064 27.2976 71.3855 27.4867C82.2014 33.8491 88.6969 44.5518 88.697 56.012V104.499C88.697 104.84 88.3834 105.116 87.9968 105.116C87.6102 105.116 87.2966 104.84 87.2966 104.499Z" fill="#8D8D8D"/>
<path d="M20.7034 104.499V56.012C20.7035 44.9641 26.965 34.646 37.3919 28.5126C37.7133 28.3234 37.7998 27.9404 37.5852 27.6571C37.3706 27.3738 36.936 27.2976 36.6145 27.4867C25.7986 33.8491 19.3031 44.5518 19.303 56.012V104.499C19.303 104.84 19.6166 105.116 20.0032 105.116C20.3898 105.116 20.7034 104.84 20.7034 104.499Z" fill="#8D8D8D"/>
<path d="M70 18.9821C70 11.1947 62.8366 4.88169 54 4.88169C45.1634 4.88169 38 11.1947 38 18.9821V61.0191C38.0002 68.8064 45.1636 75.1195 54 75.1195C62.8364 75.1195 69.9998 68.8064 70 61.0191V18.9821ZM72 61.0191C71.9998 69.7798 63.941 76.8821 54 76.8821C44.059 76.8821 36.0002 69.7798 36 61.0191V18.9821C36 10.2212 44.0589 3.11914 54 3.11914C63.9411 3.11914 72 10.2212 72 18.9821V61.0191Z" fill="#9B1D32"/>
</svg>
