<svg width="108" height="105" viewBox="0 0 108 105" fill="none" xmlns="http://www.w3.org/2000/svg">
<g clip-path="url(#clip0_1675_25047)">
<path d="M69.5404 61.5154C69.886 61.3423 70.3067 61.4821 70.4799 61.8276C73.1187 67.0979 76.2159 74.4603 77.9861 81.3006C78.8707 84.719 79.4327 88.0382 79.4272 90.916C79.4216 93.7767 78.8547 96.3133 77.3638 98.0483C74.511 101.368 70.71 102.157 67.2064 101.829C63.7212 101.503 60.4599 100.073 58.5069 98.8494C58.1794 98.6442 58.0804 98.2127 58.2855 97.8851C58.4907 97.5575 58.9226 97.4576 59.2502 97.6627C61.0639 98.799 64.1179 100.134 67.3372 100.435C70.5383 100.735 73.8313 100.011 76.3023 97.1361C77.4728 95.7739 78.0211 93.6418 78.0264 90.9133C78.0316 88.2015 77.5001 85.0105 76.6308 81.6511C74.8929 74.9356 71.8389 67.669 69.2282 62.4549C69.0551 62.1093 69.1949 61.6885 69.5404 61.5154Z" fill="#8D8D8D"/>
<path d="M45 23.9229C45 12.7561 53.6222 3.1416 60.8807 3.1416L61.2157 3.14941C68.1348 3.47738 67.9998 14.0537 67.9998 25.0459L67.9939 26.083C67.8668 36.7003 65.7219 44.1416 58.6903 44.1416V42.1416C60.1154 42.1416 61.1697 41.7618 61.9999 41.1338C62.8549 40.4868 63.6067 39.4731 64.2235 38.0059C65.481 35.0141 65.9998 30.5774 65.9998 25.0459C65.9998 19.3692 66.0234 14.1476 65.2059 10.3242C64.7997 8.42445 64.2299 7.10774 63.534 6.29199C62.9139 5.56508 62.1215 5.14161 60.8807 5.1416C58.0863 5.1416 54.6312 7.05706 51.7753 10.5996C48.9669 14.0834 47 18.845 47 23.9229C47.0001 29.1391 48.5058 33.7911 50.7714 37.0869C53.0564 40.4107 55.9371 42.1416 58.6903 42.1416V44.1416L58.3505 44.1348C51.3453 43.8622 45.1983 35.1964 45.0049 24.4443L45 23.9229Z" fill="#9B1D32"/>
<path d="M88.1255 49.6181C96.6225 57.168 96.8297 67.7964 91.6418 73.6352C90.2782 75.1697 88.6631 75.7791 86.8925 75.6545C85.1721 75.5333 83.3608 74.724 81.5264 73.5619C77.8669 71.2435 73.7806 67.2948 69.6953 63.6649C69.4063 63.4081 69.3803 62.9653 69.6369 62.6763C69.8937 62.3873 70.3365 62.3612 70.6255 62.618C74.796 66.3237 78.7435 70.1417 82.2763 72.3797C84.0379 73.4957 85.6138 74.1613 86.9914 74.2583C88.3185 74.3516 89.5134 73.9221 90.5949 72.705C95.188 67.5358 95.2103 57.7866 87.1954 50.665C83.0884 47.0157 78.0362 45.7356 73.5983 45.3387C73.2133 45.3043 72.9285 44.9643 72.9628 44.5793C72.9972 44.1943 73.3378 43.91 73.7229 43.9444C78.3142 44.355 83.7054 45.6907 88.1255 49.6181Z" fill="#8D8D8D"/>
<path d="M40.2087 60.7123C40.4454 61.0179 40.3898 61.4573 40.0843 61.6942C38.2433 63.1215 36.4434 65.1925 34.7053 67.4418C33.8392 68.5626 32.9964 69.7181 32.1753 70.8488C31.3564 71.9765 30.557 73.0835 29.7887 74.0941C28.2772 76.0821 26.7967 77.8213 25.4059 78.6238C24.691 79.0362 23.9038 79.2576 23.1085 79.0334C22.3186 78.8106 21.69 78.1956 21.1818 77.3154C20.1887 75.5953 19.5943 73.1923 19.4155 70.4981C19.236 67.793 19.4725 64.7427 20.1842 61.6929C21.6042 55.6078 24.9469 49.4169 30.8053 46.0345C31.1401 45.8412 31.5685 45.956 31.7618 46.2908C31.9551 46.6256 31.8403 47.054 31.5055 47.2473C26.0947 50.3712 22.914 56.1545 21.5473 62.011C20.8657 64.9318 20.6421 67.8438 20.8122 70.4056C20.9829 72.9784 21.547 75.1471 22.3946 76.6152C22.8067 77.3289 23.1871 77.6012 23.4888 77.6862C23.7851 77.7696 24.1725 77.7198 24.707 77.4114C25.8151 76.7719 27.1367 75.2694 28.6747 73.2465C29.4312 72.2515 30.2184 71.1598 31.0417 70.0261C31.8629 68.8953 32.7176 67.725 33.5977 66.586C35.3522 64.3155 37.2402 62.1282 39.2269 60.5879C39.5324 60.3511 39.9719 60.4068 40.2087 60.7123Z" fill="#8D8D8D"/>
<path d="M66.41 14.3321C72.3189 10.0439 79.5572 7.98191 85.9945 7.90557C92.3756 7.82998 98.2504 9.7148 101.124 13.674C102.597 15.7046 102.931 17.8446 102.364 20.003C101.812 22.1021 100.427 24.1563 98.6004 26.1536C94.9534 30.1425 89.2101 34.2523 83.5196 38.382C77.7963 42.5355 72.6072 45.8132 68.1429 47.1134C65.8939 47.7684 63.7554 47.9443 61.7908 47.4204C59.8063 46.8911 58.0996 45.6742 56.6881 43.7294C56.3637 43.2825 56.4632 42.6571 56.9101 42.3327C57.357 42.0083 57.9824 42.1077 58.3067 42.5547C59.4873 44.1814 60.8251 45.0929 62.3057 45.4878C63.8062 45.8881 65.5545 45.7837 67.584 45.1927C71.6774 44.0005 76.6144 40.922 82.3449 36.7633C88.1078 32.581 93.6474 28.6071 97.1241 24.8045C98.8599 22.906 99.9975 21.137 100.429 19.4943C100.845 17.911 100.623 16.3899 99.505 14.8487C97.1937 11.6639 92.1363 9.83314 86.0185 9.90561C79.957 9.97743 73.1293 11.927 67.5847 15.9508C67.1377 16.2752 66.5124 16.1758 66.188 15.7288C65.8636 15.2818 65.963 14.6565 66.41 14.3321Z" fill="#9B1D32"/>
<path d="M46.0501 20.035C39.8482 16.9217 31.7708 14.8519 24.9194 15.2289C21.4989 15.4172 18.4516 16.2113 16.0974 17.7227C13.7687 19.2177 12.0706 21.4425 11.3483 24.6212C10.3146 29.1713 12.8832 37.844 25.2642 44.0591C31.4192 47.1487 39.0366 48.5172 45.3961 48.5561C48.5733 48.5755 51.39 48.2619 53.5194 47.6915C54.5846 47.4062 55.4467 47.0648 56.0877 46.6894C56.7369 46.3092 57.091 45.9349 57.2502 45.6164L59.039 46.511C58.6428 47.3035 57.9335 47.9262 57.0986 48.4152C56.2555 48.909 55.2118 49.3092 54.0365 49.624C51.6848 50.2539 48.6795 50.576 45.3834 50.5559C38.7959 50.5155 30.8598 49.1057 24.3669 45.8465C11.4521 39.3635 8.0961 29.906 9.39729 24.1783C10.2379 20.4781 12.2555 17.8124 15.0169 16.0396C17.7531 14.283 21.1708 13.4314 24.8099 13.2311C32.0779 12.8312 40.5013 15.0118 46.9473 18.2475L46.0501 20.035Z" fill="#9B1D32"/>
<path d="M66.7928 77.7518C58.7224 89.3769 38.5966 94.4926 35.1387 91.1945C31.0528 88.3679 32.8711 69.9809 40.9415 58.3555L41.3209 57.8176C49.3107 46.6648 58.6866 44.6399 63.3271 46.9584C68.3312 49.4589 74.8631 66.1266 66.7928 77.7518ZM65.6424 76.9533C69.39 71.5549 69.7923 64.9117 68.5936 59.2214C67.9963 56.3859 67.0105 53.8421 65.8969 51.8808C64.7542 49.8683 63.5796 48.6498 62.7013 48.2109C60.8153 47.2686 57.6825 47.1203 53.9377 48.7037C50.2246 50.2739 46.0034 53.5195 42.0919 59.1541C38.2077 64.7493 35.7958 72.0352 34.8665 78.2805C34.4024 81.3996 34.3178 84.1949 34.5764 86.3378C34.7058 87.4099 34.9157 88.2744 35.1791 88.9186C35.4474 89.5748 35.7287 89.9009 35.9343 90.0432L36.025 90.1062L36.1045 90.1816C36.2456 90.3162 36.619 90.5282 37.3958 90.6608C38.143 90.7883 39.1217 90.8178 40.2984 90.7249C42.6476 90.5392 45.6161 89.8793 48.7631 88.7514C55.0894 86.484 61.8372 82.4346 65.6424 76.9533Z" fill="#8D8D8D"/>
<path d="M69.9048 35.9251C70.2904 35.9525 70.5806 36.2871 70.5533 36.6726C70.5259 37.0581 70.1914 37.3484 69.8058 37.3211C67.7013 37.1722 65.551 38.4795 63.6439 40.3779C61.7607 42.2524 60.2524 44.5688 59.4469 46.1203C59.2688 46.4634 58.846 46.5975 58.5029 46.4195C58.1599 46.2415 58.0258 45.8187 58.2037 45.4756C59.0599 43.8263 60.649 41.3842 62.6563 39.3861C64.6396 37.4118 67.1733 35.7319 69.9048 35.9251Z" fill="#8D8D8D"/>
<path d="M54.9231 22.0832C58.636 24.901 60.1419 28.6644 60.4058 32.8849C60.6675 37.0699 59.7117 41.7404 58.4951 46.4588C58.3985 46.8331 58.0168 47.059 57.6425 46.9625C57.2682 46.8659 57.0435 46.4838 57.14 46.1095C58.3542 41.4008 59.2555 36.9182 59.0089 32.973C58.7644 29.0633 57.3961 25.7186 54.0768 23.1993C53.7689 22.9657 53.7084 22.526 53.9419 22.2181C54.1755 21.9102 54.6151 21.8497 54.9231 22.0832Z" fill="#8D8D8D"/>
<path d="M37.0579 35.8283C37.3502 35.5753 37.7921 35.6072 38.0451 35.8994C40.9235 39.2236 45.0115 41.622 48.9949 43.2675C52.9736 44.9111 56.7907 45.7796 59.0677 46.0745C59.451 46.1243 59.7216 46.4756 59.6719 46.859C59.6222 47.2423 59.2708 47.5128 58.8875 47.4632C56.4916 47.1528 52.5553 46.2534 48.4603 44.5618C44.3697 42.8721 40.0625 40.3677 36.9868 36.8155C36.7338 36.5232 36.7657 36.0813 37.0579 35.8283Z" fill="#8D8D8D"/>
<path d="M55.6896 22.4026C55.0409 23.597 53.5467 24.0393 52.3523 23.3905C51.158 22.7418 50.7156 21.2476 51.3644 20.0532C52.0131 18.8589 53.5073 18.4165 54.7017 19.0653C55.8961 19.714 56.3384 21.2082 55.6896 22.4026Z" fill="#8D8D8D"/>
<path d="M38.6896 35.4026C38.0409 36.597 36.5467 37.0393 35.3523 36.3905C34.158 35.7418 33.7156 34.2476 34.3644 33.0532C35.0131 31.8589 36.5073 31.4165 37.7017 32.0653C38.8961 32.714 39.3384 34.2082 38.6896 35.4026Z" fill="#8D8D8D"/>
<path d="M72.6172 38.7315C71.3883 39.361 69.8818 38.8752 69.2523 37.6463C68.6228 36.4175 69.1086 34.911 70.3375 34.2814C71.5663 33.6519 73.0728 34.1378 73.7023 35.3666C74.3319 36.5955 73.846 38.102 72.6172 38.7315Z" fill="#8D8D8D"/>
</g>
<defs>
<clipPath id="clip0_1675_25047">
<rect width="108" height="105" fill="white"/>
</clipPath>
</defs>
</svg>
