<svg width="108" height="105" viewBox="0 0 108 105" fill="none" xmlns="http://www.w3.org/2000/svg">
<path d="M75.3363 2.17225C76.0083 1.85116 76.8182 2.09098 77.2123 2.72735L76.0277 3.29622V3.29708L77.2123 2.72735C77.6078 3.36526 77.4606 4.19623 76.8754 4.6603L76.5453 4.93053C73.1267 7.81034 69.6537 13.4651 65.0589 24.1172L64.6283 25.1448C60.3331 35.7355 60.6237 45.4255 62.0482 57.1125C62.6894 62.3719 63.3509 67.8115 63.3509 73.065C63.3495 73.3434 63.3427 73.5163 63.3295 73.6872C63.0646 77.5661 60.651 80.8553 57.0336 82.2711C55.841 82.738 54.6056 82.9664 53.3851 82.9664V81.2039C54.3195 81.2039 55.2792 81.03 56.222 80.6608L56.4867 80.5515C59.1919 79.3809 61.1142 76.7914 61.3334 73.5814V73.5736L61.3343 73.5667C61.3439 73.4428 61.3495 73.3103 61.3509 73.065C61.3509 67.9222 60.7032 62.5779 60.0599 57.301C58.5799 45.159 58.2746 34.8834 63.1888 23.4907C67.1185 14.3806 70.33 8.65263 73.5599 5.19044C66.7489 9.29141 60.3061 16.4398 55.1498 24.7764C49.3332 34.1805 45.3199 44.8263 44.265 53.6873C43.4701 60.3591 43.4439 65.8271 44.1341 70.0976C44.8285 74.3932 46.2178 77.2924 48.0599 79.036C49.6011 80.4946 51.5017 81.2038 53.3851 81.2039V82.9664C51.0609 82.9664 48.7894 82.1408 46.9564 80.5627L46.5961 80.2365C42.2611 76.1333 40.7601 67.5645 42.1332 54.7562L42.2757 53.504C44.4167 35.5199 58.2855 10.8145 74.5589 2.55264L75.3363 2.17225Z" fill="#9B1D32"/>
<path d="M25.292 64.4746C30.887 64.4746 35.7923 67.7697 37.2754 72.524L39.2578 78.8788C40.9811 84.4035 46.6812 88.2319 53.1826 88.232C59.963 88.232 65.8306 84.0753 67.2871 78.2394L68.7061 72.555C69.8837 67.8362 74.6278 64.4746 80.1104 64.4746H97.9639C98.3503 64.4747 98.6641 64.7511 98.6641 65.0917C98.6641 65.4323 98.3503 65.7086 97.9639 65.7087H80.1104C75.2851 65.7087 71.1097 68.667 70.0732 72.82L68.6543 78.5036C67.0567 84.9055 60.6205 89.4662 53.1826 89.4662C46.0509 89.466 39.7986 85.2661 37.9082 79.2059L35.9258 72.851C34.6097 68.6323 30.2567 65.7087 25.292 65.7087H13.4814C13.0948 65.7087 12.7812 65.4324 12.7812 65.0917C12.7812 64.751 13.0948 64.4746 13.4814 64.4746H25.292Z" fill="#8D8D8D"/>
<path d="M97.9639 98.626C98.3503 98.6261 98.6641 98.9024 98.6641 99.243C98.6641 99.5837 98.3503 99.86 97.9639 99.8601H13.4814C13.0948 99.8601 12.7812 99.5837 12.7812 99.243C12.7812 98.9023 13.0948 98.626 13.4814 98.626H97.9639Z" fill="#8D8D8D"/>
</svg>
