<svg width="108" height="105" viewBox="0 0 108 105" fill="none" xmlns="http://www.w3.org/2000/svg">
<path d="M51.0114 31.4459C52.0136 31.2979 53.2856 31.3624 54.609 31.5318C57.2712 31.8727 60.3491 32.6671 62.3698 33.2935C62.7389 33.408 62.9459 33.8004 62.8317 34.1695C62.7172 34.5387 62.3249 34.7457 61.9557 34.6314C59.9773 34.0181 56.9838 33.2474 54.4313 32.9205C53.1477 32.7561 52.0266 32.7108 51.2155 32.8306C50.3373 32.9604 50.1568 33.2219 50.1256 33.3492C50.063 33.605 50.0873 33.7652 50.1285 33.8697C50.1706 33.9761 50.2568 34.092 50.4313 34.2115C50.8083 34.4696 51.4645 34.6574 52.3649 34.7672C54.1654 34.9867 56.3871 34.8507 58.0963 34.8824C60.859 34.9336 63.7091 36.2495 64.8004 36.9C65.1324 37.0979 65.2413 37.5279 65.0436 37.8599C64.8457 38.1919 64.4157 38.3008 64.0836 38.1031C63.0954 37.514 60.4906 36.3268 58.0709 36.2818C56.5412 36.2535 54.0834 36.3871 52.1949 36.1568C51.2509 36.0417 50.3092 35.8247 49.6403 35.3668C49.292 35.1283 48.9932 34.8078 48.8258 34.3844C48.6578 33.9589 48.649 33.4949 48.7662 33.0162C49.0231 31.9678 50.0762 31.584 51.0114 31.4459Z" fill="#8D8D8D"/>
<path d="M33.1198 27.1921C34.2656 27.4093 36.0014 27.8094 37.4889 28.3083C38.2292 28.5566 38.9378 28.839 39.487 29.1491C39.7609 29.3038 40.0206 29.4796 40.2282 29.6794C40.4044 29.849 40.5863 30.0774 40.6716 30.3659L40.7018 30.4938L40.7487 30.7731C40.8457 31.4123 40.8574 31.9545 40.7634 32.3776C40.7091 32.6219 40.6072 32.8809 40.4147 33.0886C40.2048 33.3151 39.9229 33.4391 39.6159 33.4391C39.4831 33.4391 39.36 33.4057 39.2995 33.3884C39.2205 33.3658 39.1345 33.3363 39.0485 33.3044C38.8757 33.2401 38.6628 33.1516 38.4294 33.0514C38.1941 32.9505 37.9273 32.8324 37.6462 32.7087C37.3639 32.5844 37.0652 32.4531 36.7604 32.322C36.1485 32.0585 35.5244 31.8015 34.9802 31.611C34.4064 31.4103 34.0158 31.3192 33.8288 31.319C33.4422 31.319 33.1286 31.0054 33.1286 30.6188C33.1286 30.2322 33.4422 29.9186 33.8288 29.9186C34.2825 29.9188 34.8803 30.0931 35.4421 30.2897C36.0338 30.4968 36.6939 30.7692 37.3132 31.0358C37.624 31.1696 37.9285 31.3033 38.2106 31.4274C38.4937 31.5521 38.7533 31.6666 38.9811 31.7643C39.1478 31.8358 39.2931 31.8937 39.4128 31.9411C39.4374 31.7074 39.4287 31.3293 39.3288 30.7702C39.321 30.7583 39.3015 30.7305 39.2575 30.6882C39.1665 30.6005 39.0169 30.4922 38.7985 30.3688C38.3628 30.1228 37.751 29.8727 37.0436 29.6354C35.6356 29.1632 33.9653 28.777 32.8581 28.5671C32.4785 28.4948 32.2295 28.1284 32.3014 27.7487C32.3737 27.3692 32.7401 27.1201 33.1198 27.1921Z" fill="#8D8D8D"/>
<path d="M40.0964 13.6881C43.1686 11.8131 47.443 11.053 53.0095 13.11C59.8125 15.6241 62.8261 18.0041 64.6794 20.4664C65.5897 21.6759 66.2073 22.8916 66.8395 24.0484C67.477 25.2148 68.1481 26.3612 69.1931 27.5455C72.677 31.494 76.1275 34.5427 77.3981 35.5592C77.6998 35.8007 77.748 36.2418 77.5065 36.5436C77.265 36.845 76.8249 36.8941 76.5231 36.6529C75.1923 35.5883 71.6831 32.4841 68.1432 28.4723C66.9936 27.1693 66.263 25.9133 65.611 24.7203C64.9537 23.5176 64.3937 22.4155 63.5602 21.3082C61.926 19.1371 59.1833 16.8841 52.5251 14.4234C47.3221 12.5006 43.4994 13.2517 40.8259 14.8834C38.1182 16.536 36.5105 19.14 35.8698 21.0162C35.7449 21.3821 35.347 21.5777 34.9811 21.4527C34.6155 21.3277 34.4207 20.9298 34.5456 20.5641C35.2707 18.4407 37.0581 15.5425 40.0964 13.6881Z" fill="#8D8D8D"/>
<path d="M43.6379 7.14413C49.1252 2.72684 57.0951 -0.380938 67.4534 1.95468C67.8301 2.03985 68.0664 2.41374 67.9817 2.79062C67.8966 3.16775 67.5219 3.40495 67.1448 3.31991C57.2569 1.09047 49.7158 4.04899 44.5159 8.23495C41.9089 10.3336 39.8889 12.7424 38.4651 14.9644C37.0332 17.1992 36.2324 19.2005 36.0159 20.4703C35.9508 20.8512 35.5891 21.1073 35.2082 21.0426C34.8272 20.9776 34.5702 20.616 34.635 20.235C34.8945 18.7134 35.7975 16.5332 37.2864 14.2096C38.7833 11.8734 40.9015 9.34701 43.6379 7.14413Z" fill="#8D8D8D"/>
<path d="M36.9864 59.0216C37.789 58.8733 38.6976 59.0304 39.6163 59.6797C39.9968 59.4676 40.4744 59.2549 40.9854 59.1256C41.7135 58.9414 42.6517 58.8924 43.4366 59.4494C43.7249 59.6539 44.2711 59.9505 44.9766 60.305C45.6705 60.6537 46.4658 61.0325 47.234 61.4061C47.9932 61.7753 48.7287 62.1413 49.2738 62.4498C49.543 62.6021 49.7908 62.7539 49.9767 62.8966C50.0673 62.9663 50.1711 63.0545 50.2569 63.1582C50.318 63.2321 50.4988 63.4638 50.4653 63.792C50.4422 64.0174 50.3268 64.1854 50.2748 64.2567C50.2065 64.3503 50.1241 64.4385 50.0432 64.5169C49.8797 64.6756 49.6642 64.8503 49.4197 65.029C48.9266 65.3893 48.2596 65.807 47.5205 66.1993C46.7814 66.5916 45.9538 66.9676 45.1379 67.237C44.3322 67.5029 43.4871 67.6818 42.7323 67.6362C42.1636 67.602 41.2287 67.5884 40.3425 67.5079C39.4394 67.4258 38.4384 67.2665 37.6087 66.8933C36.7372 66.5012 36.1294 65.8526 35.7074 65.3026C35.4963 65.0274 35.3206 64.762 35.1878 64.5649C35.119 64.4628 35.0655 64.3835 35.0192 64.3213C34.9748 64.2614 34.9533 64.2391 34.9506 64.2363C34.6662 63.9745 34.648 63.531 34.9099 63.2466C35.1717 62.9624 35.6143 62.9441 35.8986 63.2058C36.0682 63.3619 36.2305 63.6057 36.3494 63.7823C36.4906 63.9919 36.6391 64.2169 36.8182 64.4504C37.1766 64.9176 37.6144 65.3603 38.1829 65.6162C38.7948 65.8915 39.6066 66.0359 40.4687 66.1143C41.3473 66.1942 42.1306 66.198 42.8165 66.2394C43.3158 66.2695 43.9661 66.1491 44.6986 65.9073C45.4209 65.6688 46.1755 65.3285 46.8648 64.9626C47.5539 64.5968 48.1623 64.2144 48.5936 63.8993C48.6539 63.8553 48.7076 63.8105 48.7588 63.7709C48.705 63.7389 48.6474 63.7036 48.5844 63.6679C48.0827 63.384 47.3841 63.0361 46.6214 62.6651C45.8678 62.2986 45.0527 61.9104 44.3482 61.5565C43.6554 61.2083 43.0144 60.8668 42.626 60.5912C42.3281 60.3799 41.8861 60.3413 41.3293 60.4821C40.7851 60.6198 40.2658 60.8978 39.9681 61.1054L39.5205 61.4186L39.108 61.0603C38.3392 60.3917 37.7013 60.3128 37.2408 60.3979C36.7417 60.4902 36.3465 60.795 36.1512 61.033C35.906 61.3319 35.4651 61.3755 35.1662 61.1303C34.8675 60.8851 34.8238 60.4441 35.0689 60.1453C35.4321 59.7026 36.103 59.1849 36.9864 59.0216Z" fill="#8D8D8D"/>
<path d="M36.4221 62.0437C36.6578 61.7373 37.0979 61.6798 37.4043 61.9155C38.7208 62.928 40.8363 63.3529 43.0741 63.4188C45.2819 63.4839 47.4654 63.1969 48.788 62.9145C49.166 62.8337 49.5385 63.0749 49.6192 63.453C49.6998 63.8309 49.4586 64.2024 49.0808 64.2833C47.6666 64.5853 45.3699 64.8867 43.0329 64.8179C40.7259 64.7499 38.2314 64.3188 36.5504 63.0259C36.244 62.7903 36.1865 62.3502 36.4221 62.0437Z" fill="#8D8D8D"/>
<path d="M78.5549 61.1587C79.1025 61.2296 79.4888 61.7312 79.4181 62.2788C79.1796 64.1227 78.9028 67.5425 78.9836 71.0103C79.0239 72.7432 79.1532 74.4683 79.4152 76.0044C79.6796 77.5543 80.0679 78.8445 80.5881 79.7505C81.2801 80.9557 82.5954 82.518 84.2677 84.2915C85.9262 86.0504 87.8698 87.9484 89.7756 89.8267C91.671 91.6948 93.5321 93.5462 94.9875 95.1792C95.7156 95.9962 96.3574 96.7754 96.8566 97.4878C97.3446 98.1842 97.7458 98.8857 97.926 99.5405C98.0724 100.073 97.76 100.623 97.2277 100.77C96.6952 100.916 96.1447 100.603 95.9982 100.071C95.91 99.7504 95.6665 99.2739 95.2189 98.6353C94.7822 98.0121 94.1966 97.2982 93.4943 96.5103C92.089 94.9334 90.2739 93.1266 88.3713 91.2515C86.479 89.3866 84.5028 87.456 82.8127 85.6636C81.1365 83.8859 79.674 82.1744 78.8537 80.7456C78.1642 79.5446 77.7248 77.9902 77.4435 76.3413C77.1599 74.6787 77.0253 72.8501 76.9836 71.0571C76.9001 67.4732 77.1853 63.9512 77.4347 62.023C77.5056 61.4754 78.0073 61.088 78.5549 61.1587Z" fill="#9B1D32"/>
<path d="M47.2254 78.701C47.63 78.3252 48.2626 78.3483 48.6385 78.7527C50.1263 80.3545 51.2597 82.578 52.0115 84.8836C52.7655 87.1959 53.1612 89.6696 53.1199 91.824C53.0778 94.0205 52.5188 95.4974 51.868 96.4695C51.2152 97.4447 50.5164 97.8415 50.3367 97.9442C49.8573 98.2179 49.2464 98.0514 48.9725 97.5721C48.6985 97.0927 48.8653 96.4819 49.3445 96.2078C49.3925 96.1804 49.7953 95.9704 50.2059 95.3572C50.6184 94.7411 51.0852 93.6473 51.1209 91.7859C51.1574 89.8825 50.8039 87.6315 50.1102 85.5037C49.4141 83.3691 48.4007 81.4352 47.1736 80.1141C46.7978 79.7095 46.8209 79.0769 47.2254 78.701Z" fill="#9B1D32"/>
<path d="M34.0716 20.8465C34.2556 20.3258 34.8263 20.0532 35.347 20.2371C35.8676 20.4211 36.1411 20.9919 35.9573 21.5125C35.4872 22.8425 34.7767 24.881 34.1751 26.6726C33.8741 27.5691 33.6017 28.3993 33.4007 29.0457C33.3001 29.3692 33.2197 29.6406 33.1624 29.8484C33.1005 30.0734 33.0832 30.164 33.0823 30.1677C33.0652 30.321 33.0576 30.808 33.0511 31.5818C33.045 32.3153 33.0397 33.2371 33.015 34.1687C32.9903 35.0973 32.9467 36.0565 32.8636 36.867C32.8221 37.2717 32.7686 37.6568 32.6985 37.991C32.6333 38.302 32.536 38.6594 32.3665 38.95C32.3361 39.0021 32.2509 39.1943 32.1185 39.5759C31.9951 39.9317 31.8502 40.3917 31.6946 40.9295C31.3838 42.0042 31.0351 43.3598 30.722 44.7508C30.4085 46.1433 30.1346 47.5559 29.9691 48.7488C29.8862 49.3455 29.8323 49.8746 29.8128 50.3113C29.7926 50.7646 29.8129 51.0566 29.846 51.2088C29.9518 51.6953 30.3405 52.8771 30.9095 54.4978C31.4682 56.0892 32.1731 58.0286 32.8812 59.9822C33.5878 61.9318 34.298 63.8954 34.8616 65.5252C35.4149 67.1249 35.8562 68.4838 35.9944 69.1746C36.2016 70.2093 36.9505 71.7656 37.8548 73.1697C38.2983 73.8582 38.7563 74.4737 39.1653 74.9353C39.3699 75.1661 39.5512 75.3467 39.7034 75.4754C39.7788 75.5391 39.8411 75.5848 39.889 75.616C39.9005 75.6235 39.9116 75.6285 39.9202 75.6336C39.9478 75.6359 39.9935 75.6407 40.0618 75.6424C40.2334 75.6465 40.4753 75.6413 40.7874 75.6228C41.4091 75.586 42.254 75.5016 43.2659 75.3728C45.2873 75.1156 47.9323 74.6844 50.7132 74.1101C53.4957 73.5355 56.3971 72.8218 58.9368 72.0027C61.5027 71.1751 63.6045 70.2689 64.8577 69.3455C66.9181 67.8272 68.8439 65.2517 70.428 62.5613C72.0012 59.8895 73.1799 57.2037 73.7786 55.5652C73.9682 55.0465 74.5431 54.779 75.0618 54.9685C75.5804 55.1581 75.847 55.7331 75.6575 56.2517C75.0205 57.9951 73.7901 60.7916 72.1507 63.5759C70.5222 66.3417 68.432 69.1963 66.0443 70.9558C64.5172 72.081 62.1554 73.0661 59.5511 73.906C56.9207 74.7544 53.9441 75.4853 51.1175 76.0691C48.2894 76.6532 45.5936 77.0931 43.5179 77.3572C42.4816 77.489 41.5886 77.5784 40.9056 77.6189C40.5654 77.6391 40.2621 77.6484 40.013 77.6424C39.8131 77.6375 39.5014 77.6226 39.2405 77.5222C38.9314 77.4033 38.6489 77.2026 38.4124 77.0027C38.1654 76.7939 37.9147 76.5395 37.6683 76.2615C37.175 75.7049 36.6564 75.003 36.1732 74.2527C35.2243 72.7794 34.3146 70.971 34.0335 69.5672C33.9277 69.0386 33.5404 67.8232 32.972 66.1795C32.4139 64.5658 31.7088 62.615 31.0013 60.6629C30.2951 58.7145 29.5857 56.7633 29.0228 55.1599C28.4704 53.5866 28.0301 52.2692 27.8919 51.6336C27.803 51.2248 27.7923 50.726 27.8148 50.2224C27.838 49.7024 27.9007 49.1074 27.9886 48.4744C28.1644 47.2072 28.4503 45.7355 28.7708 44.3113C29.0918 42.8854 29.4506 41.4909 29.7737 40.3738C29.9351 39.8159 30.0901 39.3195 30.2288 38.9197C30.3585 38.5458 30.4987 38.1826 30.639 37.9422C30.6425 37.9345 30.6541 37.9088 30.6702 37.8591C30.6921 37.7918 30.7165 37.7 30.7415 37.5808C30.7919 37.3408 30.8356 37.031 30.8734 36.6629C30.9487 35.9279 30.9908 35.0275 31.015 34.115C31.0391 33.2054 31.0459 32.304 31.0521 31.5652C31.0579 30.8667 31.0622 30.2317 31.0941 29.9461C31.114 29.7676 31.1753 29.5303 31.2337 29.3181C31.2993 29.08 31.3879 28.7849 31.4915 28.4519C31.6991 27.7846 31.9768 26.9385 32.2796 26.0369C32.8856 24.2321 33.5992 22.1828 34.0716 20.8465Z" fill="#9B1D32"/>
<path d="M85.6616 38.7183C85.968 38.6252 86.3259 38.5633 86.6724 38.6402C87.3805 38.7975 87.9654 39.3757 88.3814 40.0611C88.812 40.7706 89.132 41.7033 89.2642 42.774C89.5297 44.9256 89.0442 47.6839 87.0933 50.4566C85.2688 53.0494 84.4036 54.9807 83.5611 56.5025C82.7149 58.0307 81.8749 59.1645 80.1216 59.7867C78.7882 60.2597 77.7497 60.1804 77.0093 59.691C76.2914 59.2163 76.0166 58.4605 75.9712 57.9165C75.9391 57.5314 76.2248 57.193 76.6099 57.1607C76.9951 57.1286 77.3336 57.4151 77.3657 57.8003C77.3855 58.0368 77.5112 58.3441 77.7818 58.523C78.0299 58.6869 78.5686 58.8514 79.6538 58.4663C80.9244 58.0154 81.5488 57.2464 82.3364 55.8238C83.1277 54.3946 84.0668 52.3255 85.9487 49.6509C87.7042 47.156 88.0966 44.744 87.8745 42.9449C87.7628 42.0404 87.4982 41.3025 87.1851 40.7867C86.8573 40.2466 86.5387 40.0442 86.3687 40.0064C86.3644 40.0058 86.3416 40.0036 86.2954 40.0083C86.2409 40.014 86.1661 40.0286 86.0689 40.0581C85.8713 40.1182 85.6218 40.227 85.3247 40.3872C84.7314 40.7072 84.0214 41.1912 83.272 41.7622C81.7772 42.9014 80.1988 44.3264 79.2036 45.2896C78.9258 45.558 78.4831 45.5505 78.2144 45.273C77.9455 44.9952 77.9522 44.5516 78.23 44.2828C79.2507 43.2949 80.8725 41.8315 82.4243 40.649C83.198 40.0594 83.9734 39.525 84.6597 39.1548C85.0025 38.97 85.3427 38.8152 85.6616 38.7183Z" fill="#8D8D8D"/>
<path d="M73.5865 32.4927C73.9716 32.4604 74.3099 32.7462 74.3423 33.1314C74.4712 34.6594 74.7469 37.0398 75.1529 39.2046C75.3561 40.288 75.5895 41.3022 75.8482 42.1226C76.1177 42.9771 76.3817 43.5088 76.5933 43.733C76.8587 44.014 76.846 44.4568 76.565 44.7222C76.2839 44.9876 75.8412 44.975 75.5757 44.6939C75.1242 44.2157 74.7847 43.4045 74.5132 42.5435C74.2309 41.648 73.9852 40.5731 73.7769 39.4625C73.3599 37.2392 73.0794 34.8098 72.9478 33.2486C72.9155 32.8635 73.2013 32.5252 73.5865 32.4927Z" fill="#8D8D8D"/>
<path d="M41.1394 42.1643C41.2715 41.801 41.6736 41.6134 42.0369 41.7454C42.4002 41.8775 42.5879 42.2795 42.4558 42.6428C42.1765 43.4111 41.7116 44.6118 41.2234 45.7249C40.9794 46.281 40.7263 46.8238 40.4841 47.2825C40.251 47.7241 39.9985 48.145 39.7507 48.4153C39.6187 48.5593 39.4509 48.72 39.2917 48.8733C39.1255 49.0335 38.9523 49.202 38.78 49.385C38.4329 49.754 38.1184 50.1553 37.9216 50.595C37.7303 51.0225 37.6494 51.4857 37.7673 52.009C37.8875 52.5422 38.228 53.2014 38.9919 53.9846C39.2619 54.2614 39.257 54.7049 38.9802 54.9749C38.7035 55.2448 38.2599 55.2389 37.99 54.9622C37.1012 54.051 36.5945 53.1707 36.4021 52.3167C36.2075 51.4527 36.349 50.6803 36.6433 50.0227C36.9321 49.3776 37.3665 48.8439 37.7605 48.4251C37.9588 48.2143 38.1545 48.0249 38.321 47.8645C38.4946 47.6973 38.6242 47.5739 38.7195 47.47C38.8353 47.3436 39.0166 47.0634 39.2458 46.6292C39.4662 46.2118 39.7043 45.7023 39.9412 45.1624C40.4145 44.0833 40.8677 42.9117 41.1394 42.1643Z" fill="#8D8D8D"/>
<path d="M50.3455 41.2615C50.635 41.0055 51.0776 41.0327 51.3338 41.3221C51.8761 41.9344 53.5767 43.252 55.7693 43.3396C57.1723 43.3957 58.5765 43.0304 59.949 42.6892C60.617 42.5232 61.2898 42.3613 61.9129 42.283C62.5337 42.205 63.1754 42.2003 63.7635 42.4031C64.1286 42.5293 64.3229 42.9275 64.1971 43.2928C64.071 43.6582 63.6719 43.8524 63.3064 43.7264C63.0117 43.6248 62.6179 43.6051 62.0877 43.6717C61.5599 43.738 60.9657 43.8799 60.2869 44.0486C58.9652 44.3772 57.3543 44.8037 55.7127 44.7381C53.0343 44.6309 51.0008 43.0583 50.285 42.2498C50.0289 41.9603 50.0561 41.5177 50.3455 41.2615Z" fill="#8D8D8D"/>
<path d="M30.1211 36.7002C30.4079 36.4411 30.8512 36.4633 31.1103 36.75C31.3724 37.0401 31.8456 37.5115 32.3896 37.9531C32.9463 38.405 33.5166 38.7767 33.9785 38.9307C34.3911 39.0682 35.0976 39.0548 35.9141 38.9267C36.698 38.8038 37.4638 38.5954 37.9199 38.4433L38.2412 38.3359L38.5254 38.5215L40.291 39.6787C40.6141 39.8907 40.704 40.3242 40.4922 40.6474C40.2803 40.9707 39.8468 41.0614 39.5234 40.8496L38.0332 39.873C37.5225 40.026 36.8369 40.1998 36.1308 40.3105C35.2912 40.4422 34.2925 40.5108 33.5361 40.2588C32.829 40.0231 32.1 39.5207 31.5078 39.04C30.9032 38.5493 30.3775 38.0284 30.0713 37.6894C29.8122 37.4026 29.8344 36.9594 30.1211 36.7002Z" fill="#8D8D8D"/>
<path d="M65.5971 1.95356C71.7592 1.75167 78.2488 3.71445 83.0082 7.98579C87.7887 12.2762 90.769 18.8479 89.9623 27.7231C89.9273 28.1081 89.5866 28.3918 89.2016 28.3569C88.8167 28.3219 88.533 27.982 88.5678 27.5971C89.3372 19.1338 86.504 13.0047 82.0727 9.02778C77.6201 5.03183 71.4984 3.16099 65.642 3.35298C61.026 3.50442 58.0036 5.29158 56.0815 7.42622C54.1407 9.58158 53.2964 12.12 53.1137 13.7641C53.071 14.1483 52.7254 14.4249 52.3412 14.3823C51.9571 14.3396 51.6805 13.9939 51.7231 13.6098C51.9345 11.7073 52.8839 8.88584 55.0414 6.48969C57.2175 4.07304 60.5988 2.11742 65.5971 1.95356Z" fill="#8D8D8D"/>
<path d="M61.307 86.4417C61.5539 85.9477 62.1548 85.7475 62.6488 85.9944C63.1427 86.2414 63.343 86.8422 63.096 87.3362C62.5225 88.4833 61.4572 90.2635 60.0941 91.9378C58.7486 93.5903 57.0189 95.2574 55.0941 96.0208C52.9535 96.8695 48.7339 98.4308 44.8695 100.06C42.9415 100.873 41.1346 101.689 39.7513 102.425C39.0583 102.794 38.4936 103.131 38.0804 103.427C37.8742 103.575 37.7191 103.702 37.6107 103.807C37.4995 103.915 37.4678 103.97 37.4671 103.971C37.2134 104.461 36.6099 104.653 36.1195 104.4C35.629 104.146 35.4363 103.542 35.6898 103.052C35.9437 102.561 36.4396 102.141 36.9163 101.8C37.4305 101.432 38.0808 101.048 38.8109 100.659C40.2742 99.8806 42.147 99.0364 44.0931 98.2161C47.9771 96.5788 52.2872 94.982 54.3568 94.1614C55.7998 93.5891 57.2639 92.2442 58.5423 90.6741C59.8031 89.1255 60.7917 87.4722 61.307 86.4417Z" fill="#9B1D32"/>
<path d="M92.7793 35.3571C93.1175 35.1701 93.5433 35.2925 93.7305 35.6305C94.331 36.7148 95.1705 38.4623 95.7432 40.1999C96.0294 41.0681 96.2563 41.9566 96.3477 42.7712C96.4372 43.5687 96.4072 44.3855 96.0889 45.0485C95.7226 45.8114 95.0919 46.3215 94.6377 46.7311C94.1554 47.1661 93.7738 47.5576 93.5557 48.155C93.3369 48.7543 93.2514 49.6564 93.5899 51.1462C93.9291 52.6393 94.6829 54.6741 96.085 57.5026C97.2727 59.8987 97.4652 61.9469 96.8506 63.6618C96.2404 65.3642 94.8839 66.5989 93.2598 67.4821C90.033 69.2368 85.4695 69.7602 82.2871 69.7272C81.9006 69.7232 81.5898 69.4068 81.5938 69.0202C81.5978 68.6338 81.9145 68.324 82.3008 68.3278C85.3917 68.3599 89.673 67.8393 92.5909 66.2526C94.0389 65.4652 95.0796 64.4549 95.5332 63.1891C95.9825 61.9355 95.9056 60.2914 94.8311 58.1237C93.4055 55.2478 92.5985 53.1014 92.2246 51.4557C91.8501 49.8071 91.8986 48.6119 92.2403 47.6755C92.5828 46.737 93.1892 46.1529 93.7002 45.6921C94.2394 45.2058 94.6082 44.899 94.8272 44.443C94.977 44.131 95.0347 43.627 94.9561 42.9264C94.8793 42.2429 94.6826 41.455 94.4131 40.6374C93.8743 39.0028 93.0756 37.3368 92.5059 36.3083C92.3187 35.9701 92.4412 35.5444 92.7793 35.3571Z" fill="#8D8D8D"/>
</svg>
