<svg width="108" height="105" viewBox="0 0 108 105" fill="none" xmlns="http://www.w3.org/2000/svg">
<path d="M85.8125 44.5516C80.9624 46.6854 69.5939 51.526 54 51.526C46.2161 51.526 38.9236 50.4558 33.1699 49.1189C30.2927 48.4503 27.7937 47.7137 25.8047 47.0069C23.8297 46.3051 22.315 45.6186 21.4375 45.0395L22.2773 44.0515C23.0071 44.533 24.3859 45.1721 26.3281 45.8623C28.2564 46.5475 30.6995 47.2689 33.5273 47.9261C39.1842 49.2405 46.3557 50.2919 54 50.2919C69.2633 50.2919 80.3948 45.5568 85.1875 43.4482L85.8125 44.5516Z" fill="#8D8D8D"/>
<path d="M53.3008 101.818V84.4907C51.0988 81.2636 45.351 74.1973 39.1455 70.5116C36.0554 68.6763 31.4861 67.5012 26.959 66.7894C22.4498 66.0805 18.0711 65.8445 15.4297 65.8445V64.6104C18.1454 64.6104 22.6063 64.8514 27.2041 65.5742C31.7838 66.2943 36.5894 67.5057 39.9277 69.4883C46.486 73.3835 52.4437 80.7966 54.6035 84.0036L54.7012 84.149V101.818C54.7011 102.159 54.3875 102.435 54.001 102.435C53.6145 102.435 53.3008 102.159 53.3008 101.818Z" fill="#8D8D8D"/>
<path d="M54.6992 101.818V84.4907C56.9012 81.2636 62.649 74.1973 68.8545 70.5116C71.9446 68.6763 76.5139 67.5012 81.041 66.7894C85.5502 66.0805 89.9289 65.8445 92.5703 65.8445V64.6104C89.8546 64.6104 85.3937 64.8514 80.7959 65.5742C76.2162 66.2943 71.4106 67.5057 68.0723 69.4883C61.514 73.3835 55.5563 80.7966 53.3965 84.0036L53.2988 84.149V101.818C53.2989 102.159 53.6125 102.435 53.999 102.435C54.3855 102.435 54.6992 102.159 54.6992 101.818Z" fill="#8D8D8D"/>
<path d="M14.4297 62.0446C14.4298 56.2565 16.9358 50.929 19.9639 45.7333C23.0265 40.4784 26.5748 35.4217 28.96 29.9125C30.7947 25.6745 30.6919 20.1583 29.75 14.8921C28.8122 9.64898 27.0667 4.78197 25.7529 1.92078C25.5458 1.46961 25.7927 0.956149 26.3047 0.773576C26.8166 0.591017 27.3993 0.80866 27.6064 1.25983C28.9712 4.23187 30.7616 9.22824 31.7256 14.6175C32.6854 19.9838 32.8504 25.8696 30.8281 30.5407C28.3919 36.1678 24.7074 41.4528 21.7432 46.5388C18.7447 51.6836 16.4298 56.6967 16.4297 62.0446C16.4297 66.3646 18.2653 73.8126 20.6133 81.4628C22.9499 89.0758 25.756 96.7716 27.625 101.529C27.8057 101.989 27.5287 102.491 27.0068 102.65C26.485 102.81 25.9151 102.566 25.7344 102.106C23.8534 97.3175 21.0344 89.5817 18.6836 81.9223C16.3441 74.2999 14.4297 66.6336 14.4297 62.0446Z" fill="#9B1D32"/>
<path d="M93.4844 62.0446C93.4843 56.2565 90.9783 50.929 87.9502 45.7333C84.8876 40.4784 81.3393 35.4217 78.9541 29.9125C77.1193 25.6745 77.2221 20.1583 78.1641 14.8921C79.1019 9.64898 80.8473 4.78197 82.1611 1.92078C82.3683 1.46961 82.1213 0.956149 81.6094 0.773576C81.0974 0.591017 80.5148 0.80866 80.3076 1.25983C78.9429 4.23187 77.1525 9.22824 76.1885 14.6175C75.2286 19.9838 75.0636 25.8696 77.0859 30.5407C79.5222 36.1678 83.2067 41.4528 86.1709 46.5388C89.1693 51.6836 91.4843 56.6967 91.4844 62.0446C91.4844 66.3646 89.6488 73.8126 87.3008 81.4628C84.9642 89.0758 82.158 96.7716 80.2891 101.529C80.1084 101.989 80.3853 102.491 80.9072 102.65C81.4291 102.81 81.999 102.566 82.1797 102.106C84.0607 97.3175 86.8797 89.5817 89.2305 81.9223C91.57 74.2999 93.4844 66.6336 93.4844 62.0446Z" fill="#9B1D32"/>
<path d="M52.6701 29.959C53.4046 29.232 54.5954 29.232 55.3299 29.959L55.8782 30.5018C56.6127 31.2289 56.6127 32.4077 55.8782 33.1347L55.3299 33.6775C54.5954 34.4046 53.4046 34.4046 52.6701 33.6775L52.1218 33.1347C51.3873 32.4077 51.3873 31.2289 52.1218 30.5018L52.6701 29.959Z" fill="#8D8D8D"/>
</svg>
