<svg width="138" height="134" viewBox="0 0 138 134" fill="none" xmlns="http://www.w3.org/2000/svg">
<path d="M50.508 67.3591C51.5111 66.3674 53.1374 66.3674 54.1404 67.3591L54.9147 68.1246C55.9178 69.1163 55.9178 70.7242 54.9147 71.7158L54.1404 72.4814C53.1374 73.4731 51.5111 73.4731 50.508 72.4814L49.7337 71.7158C48.7307 70.7242 48.7307 69.1163 49.7337 68.1246L50.508 67.3591Z" fill="#A5A5A5"/>
<path d="M72.7273 17.7449C75.6445 17.5015 80.2608 17.7186 84.7514 19.1569C89.2422 20.5953 93.767 23.3121 96.199 28.1825C99.0038 33.7993 100.411 37.4948 101.368 39.9336C101.852 41.1677 102.192 42.0017 102.526 42.6131C102.844 43.1968 103.112 43.4877 103.405 43.6837C103.532 43.7683 103.803 43.9004 104.262 44.065C104.703 44.2229 105.249 44.3864 105.873 44.5561C107.127 44.8964 108.616 45.2381 110.106 45.5892C111.575 45.9353 113.053 46.2922 114.211 46.6561C114.788 46.8371 115.331 47.0339 115.771 47.2493C115.992 47.3571 116.218 47.4858 116.421 47.6394C116.612 47.7835 116.865 48.012 117.033 48.3473C117.221 48.7251 117.298 49.1444 117.33 49.5038C117.364 49.881 117.358 50.291 117.327 50.7052C117.266 51.5345 117.099 52.4783 116.869 53.3984C116.639 54.3202 116.336 55.2543 115.991 56.0655C115.677 56.8025 115.276 57.5557 114.785 58.0807C114.853 58.2493 115.015 58.5105 115.326 58.8995C115.595 59.2362 116.087 59.7973 116.399 60.2218C116.701 60.6322 117.167 61.3247 117.168 62.1286C117.168 63.0097 116.812 63.8202 116.474 64.4031C116.431 64.477 116.382 64.5466 116.338 64.6174C116.606 64.8473 116.869 65.1111 117.103 65.4076C117.734 66.2089 118.257 67.406 117.796 68.79C117.37 70.0719 116.685 71.1744 116.112 71.9319C116.751 72.8868 117.47 74.1248 118.006 75.4052C118.361 76.2535 118.655 77.1658 118.775 78.0561C118.893 78.9367 118.856 79.9078 118.422 80.778C118.175 81.2713 117.7 81.7864 117.219 82.2511C116.7 82.752 116.034 83.3248 115.271 83.9423C113.742 85.1794 111.754 86.6487 109.616 88.1672C105.336 91.2066 100.389 94.4868 97.1374 96.5795C96.5442 96.9613 95.7528 96.7906 95.3705 96.1982C94.9882 95.6058 95.1593 94.8153 95.7523 94.4334C98.9827 92.354 103.897 89.0973 108.136 86.0871C110.257 84.5808 112.194 83.1473 113.662 81.9594C114.398 81.3647 114.999 80.8443 115.442 80.4165C115.663 80.2027 115.834 80.0224 115.957 79.8769C116.018 79.8048 116.063 79.7467 116.094 79.7024C116.125 79.6583 116.136 79.6378 116.136 79.6389C116.257 79.3964 116.324 78.9991 116.243 78.3963C116.163 77.8036 115.953 77.1172 115.649 76.3898C115.039 74.9335 114.126 73.4944 113.478 72.6285L112.815 71.7449L113.596 70.9623C113.953 70.6054 114.892 69.4257 115.372 67.9849C115.467 67.7 115.412 67.3894 115.094 66.9854C114.763 66.566 114.269 66.2211 113.928 66.0507L112.347 65.2593L113.596 64.0093C113.756 63.8493 114.034 63.5189 114.264 63.1232C114.493 62.7288 114.597 62.3933 114.607 62.1623C114.591 62.1281 114.533 61.9958 114.34 61.7336C114.045 61.3323 113.753 61.0236 113.328 60.491C112.978 60.0531 112.535 59.4563 112.327 58.7961C112.216 58.4434 112.154 58.0202 112.244 57.566C112.336 57.0993 112.569 56.6926 112.901 56.3596C113.07 56.1907 113.341 55.7696 113.64 55.0672C113.924 54.4009 114.186 53.5967 114.39 52.7803C114.594 51.9621 114.73 51.1666 114.778 50.5183C114.802 50.1942 114.802 49.9304 114.784 49.7319C114.78 49.6804 114.77 49.6381 114.764 49.6035C114.732 49.5857 114.694 49.5641 114.647 49.5412C114.377 49.409 113.975 49.2578 113.445 49.0913C112.39 48.7599 111.002 48.4224 109.52 48.0731C108.059 47.729 106.511 47.3737 105.203 47.0187C104.548 46.8407 103.931 46.6577 103.4 46.4679C102.889 46.285 102.379 46.0691 101.985 45.8061C101.237 45.3067 100.723 44.6413 100.282 43.8345C99.8564 43.0554 99.4584 42.0638 98.9879 40.8646C98.0351 38.436 96.6636 34.8301 93.913 29.3216C91.9005 25.2913 88.092 22.907 83.9715 21.5871C79.8511 20.2673 75.578 20.0684 72.9395 20.2885C72.2364 20.347 71.6194 19.8243 71.5606 19.122C71.5022 18.4199 72.0243 17.8035 72.7273 17.7449Z" fill="#9B1D32"/>
<path d="M38.0387 42.4666C39.1101 41.2165 40.572 40.8758 42.0717 41.0621C43.5357 41.2439 45.1052 41.9281 46.6063 42.8119C49.6199 44.5863 52.6453 47.3366 54.5126 49.3212C54.8507 49.6807 54.8326 50.2458 54.4726 50.5837C54.1127 50.9212 53.5468 50.9044 53.2086 50.545C51.4051 48.6282 48.5117 46.0078 45.6979 44.351C44.2852 43.5193 42.9623 42.9724 41.8508 42.8343C40.7756 42.7008 39.978 42.951 39.3976 43.6282C37.637 45.6829 37.5456 48.9006 38.7787 52.1079C40.0045 55.2961 42.4423 58.1848 45.2761 59.4447C48.2698 60.7756 51.4158 61.4324 54.0322 61.4325C56.7187 61.4325 58.5725 60.7475 59.3392 59.7251C59.6353 59.3302 60.1966 59.2499 60.592 59.5457C60.987 59.8414 61.0674 60.4009 60.7717 60.7957C59.4734 62.5273 56.8519 63.2197 54.0322 63.2197C51.1423 63.2196 47.7494 62.4991 44.5487 61.0761C41.1879 59.5818 38.4643 56.2731 37.1091 52.7485C35.7612 49.2429 35.6696 45.2315 38.0387 42.4666Z" fill="#A5A5A5"/>
<path d="M61.0626 66.5792C61.5333 66.4301 62.0361 66.6899 62.1856 67.1599C62.6068 68.4864 63.5721 70.5857 65.0731 72.4766C66.576 74.3698 68.5499 75.9734 70.9728 76.4821C74.1962 77.1589 78.4362 76.8243 83.2165 76.4659C87.9287 76.1126 93.094 75.7471 97.9372 76.4734C105.528 77.6117 107.339 78.3879 109.072 79.4271C109.495 79.6812 109.632 80.2293 109.377 80.6522C109.123 81.075 108.574 81.2115 108.151 80.9575C106.731 80.1061 105.209 79.3698 97.6714 78.2394C93.0595 77.5478 88.0942 77.8912 83.3513 78.2468C78.6762 78.5974 74.1353 78.9719 70.6047 78.2306C67.6247 77.6049 65.3207 75.664 63.6718 73.587C62.0212 71.5078 60.9605 69.2103 60.4811 67.7008C60.3318 67.2307 60.592 66.7285 61.0626 66.5792Z" fill="#A5A5A5"/>
<path d="M82.7049 38.2101C90.0316 35.0971 94.7418 39.9465 96.3774 41.1974C96.7694 41.4974 96.8436 42.0583 96.5434 42.4499C96.243 42.8415 95.6814 42.9156 95.2893 42.6157C93.4173 41.1839 89.6084 37.2191 83.4062 39.8539C82.9516 40.0471 82.4254 39.8356 82.232 39.3816C82.0391 38.9278 82.2508 38.4033 82.7049 38.2101Z" fill="#A5A5A5"/>
<path d="M68.5632 8.3926C74.7678 4.00751 82.1524 0.733141 89.3546 1.89575C93.7973 2.61296 96.562 4.25453 98.2478 6.49826C99.9124 8.71379 100.423 11.386 100.641 13.9385C100.75 15.2132 100.788 16.5121 100.847 17.7123C100.907 18.9308 100.988 20.0647 101.175 21.0947C101.546 23.1382 102.305 24.6323 104.008 25.4916C107.907 27.4587 112.474 27.4679 116.748 27.6439C118.84 27.73 120.886 27.8608 122.637 28.3455C124.411 28.8371 125.969 29.7155 126.982 31.3503C128 32.9939 128.066 34.8488 127.709 36.6607C127.354 38.462 126.562 40.3189 125.745 42.0546C124.908 43.833 124.063 45.4501 123.489 46.9251C122.902 48.4316 122.724 49.5019 122.959 50.2115C123.153 50.8001 123.479 51.0977 123.875 51.2596C124.312 51.4386 124.91 51.4792 125.644 51.3706C127.114 51.1528 128.78 50.3863 129.869 49.7267C130.292 49.471 130.842 49.6064 131.098 50.0283C131.354 50.45 131.219 50.9988 130.797 51.2547C129.603 51.978 127.704 52.8715 125.907 53.1378C125.008 53.2711 124.046 53.2605 123.196 52.9122C122.304 52.5468 121.613 51.8417 121.259 50.7711C120.808 49.4064 121.231 47.7969 121.822 46.2783C122.425 44.728 123.336 42.9734 124.127 41.2944C124.937 39.5726 125.644 37.8853 125.953 36.3155C126.26 34.7567 126.156 33.4136 125.461 32.2913C124.76 31.1603 123.661 30.4827 122.159 30.0667C120.633 29.644 118.78 29.5153 116.675 29.4286C112.554 29.2589 107.526 29.2671 103.202 27.0856C100.793 25.8704 99.8372 23.7339 99.4158 21.4125C99.2067 20.2602 99.1219 19.0279 99.0614 17.7995C99 16.5526 98.9633 15.3225 98.858 14.0906C98.6478 11.6301 98.1727 9.37503 96.8178 7.57131C95.4838 5.79577 93.1929 4.32501 89.0688 3.65923C82.5643 2.6094 75.6707 5.55776 69.5964 9.85075C63.5463 14.1267 58.4701 19.6232 55.6594 23.3667C55.3631 23.7613 54.803 23.8419 54.4078 23.5461C54.0126 23.2501 53.933 22.6896 54.2294 22.2949C57.13 18.4318 62.3343 12.7949 68.5632 8.3926Z" fill="#A5A5A5"/>
<path d="M92.614 86.1818C92.9453 85.816 93.5117 85.7875 93.878 86.1183C94.2443 86.4492 94.2729 87.0149 93.9417 87.3808C88.6407 93.233 82.8366 102.968 79.3533 113.853C78.3366 117.03 78.9687 120.529 80.0184 123.706C80.5398 125.284 81.1518 126.748 81.688 128.026C82.2083 129.265 82.6935 130.407 82.8909 131.242C83.0043 131.722 82.7064 132.204 82.2258 132.318C81.7451 132.431 81.2625 132.134 81.1489 131.654C80.9944 131 80.5885 130.027 80.0384 128.716C79.5038 127.443 78.8651 125.919 78.3188 124.266C77.2333 120.98 76.4583 117.034 77.65 113.31C81.2033 102.205 87.126 92.2407 92.614 86.1818Z" fill="#A5A5A5"/>
<path d="M35.719 71.6597C36.203 71.1468 37.011 71.1229 37.5247 71.6062C40.4774 74.3849 44.2604 79.4774 46.1284 85.8324C48.0088 92.2299 47.9477 99.923 43.1386 107.736C33.8807 122.776 24.6871 130.379 21.057 132.36C20.4377 132.698 19.6608 132.47 19.3226 131.851C18.9843 131.233 19.2124 130.457 19.8317 130.119C22.9535 128.416 31.8543 121.193 40.9612 106.399C45.3346 99.2935 45.3858 92.367 43.6765 86.5515C41.9547 80.694 38.4464 75.9792 35.7727 73.4631C35.2592 72.9798 35.2352 72.1727 35.719 71.6597Z" fill="#9B1D32"/>
</svg>
