<svg width="186" height="181" viewBox="0 0 186 181" fill="none" xmlns="http://www.w3.org/2000/svg">
<path d="M82.5283 51.6885C82.9149 51.6885 83.2285 52.0021 83.2285 52.3887C83.2285 52.7753 82.9149 53.0889 82.5283 53.0889H72.25C71.8634 53.0889 71.5498 52.7753 71.5498 52.3887C71.5498 52.0021 71.8634 51.6885 72.25 51.6885H82.5283Z" fill="#A5A5A5"/>
<path d="M82.5283 56.8555C82.9149 56.8555 83.2285 57.1691 83.2285 57.5557C83.2285 57.9423 82.9149 58.2559 82.5283 58.2559H72.25C71.8634 58.2559 71.5498 57.9423 71.5498 57.5557C71.5498 57.1691 71.8634 56.8555 72.25 56.8555H82.5283Z" fill="#A5A5A5"/>
<path d="M82.5283 46.5225C82.9149 46.5225 83.2285 46.8361 83.2285 47.2227C83.2285 47.6093 82.9149 47.9229 82.5283 47.9229H72.25C71.8634 47.9229 71.5498 47.6093 71.5498 47.2227C71.5498 46.8361 71.8634 46.5225 72.25 46.5225H82.5283Z" fill="#A5A5A5"/>
<path d="M153.866 50.2589L153.864 51.6583L133.996 51.6334L133.998 50.234L153.866 50.2589ZM157.619 46.5156C157.621 44.4456 155.945 42.7656 153.875 42.7628L134.007 42.7379C131.937 42.7353 130.257 44.4112 130.254 46.4812C130.252 48.5511 131.928 50.2314 133.998 50.234L133.996 51.6334L133.73 51.6262C131.098 51.4893 128.991 49.3765 128.86 46.7441L128.854 46.4795C128.857 43.7252 131.023 41.4787 133.743 41.344L134.009 41.3375L153.877 41.3624L154.142 41.3696C156.861 41.5109 159.021 43.763 159.018 46.5173L159.011 46.7819C158.874 49.4141 156.761 51.5216 154.129 51.6518L153.864 51.6583L153.866 50.2589C155.936 50.2613 157.616 48.5853 157.619 46.5156Z" fill="#A5A5A5"/>
<path d="M133.285 95.0935L133.285 95.1248L133.282 95.157L127.014 164.173C126.411 170.803 131.617 176.526 138.274 176.555L151.112 176.61C157.934 176.639 163.241 170.689 162.437 163.915L154.273 95.1862L154.273 95.1452L154.266 50.3219L155.666 50.3217L155.672 95.1021L163.827 163.75C164.73 171.359 158.768 178.042 151.106 178.009L138.269 177.955C130.79 177.924 124.944 171.494 125.62 164.046L131.883 95.0625L131.877 50.2655L133.276 50.2653L133.285 95.0935Z" fill="#A5A5A5"/>
<path d="M98.6314 32.7333L98.6296 34.1327L71.1316 34.0982L71.1334 32.6988L98.6314 32.7333ZM102.384 28.99C102.387 26.9201 100.711 25.24 98.6408 25.2372L71.1428 25.2027C69.0728 25.2001 67.3926 26.8761 67.39 28.9461C67.3876 31.016 69.0635 32.6962 71.1334 32.6988L71.1316 34.0982L70.866 34.0911C68.234 33.9542 66.1263 31.8413 65.9961 29.209L65.9896 28.9443C65.9931 26.1901 68.1588 23.9435 70.8789 23.8089L71.1445 23.8024L98.6426 23.8368L98.9072 23.844C101.627 23.9854 103.787 26.2374 103.784 28.9917L103.776 29.2564C103.64 31.8885 101.527 33.996 98.8943 34.1262L98.6296 34.1327L98.6314 32.7333C100.701 32.7357 102.381 31.0597 102.384 28.99Z" fill="#9B1D32"/>
<path d="M72.7524 69.0768C72.7524 79.2141 69.9037 89.1478 64.5309 97.7442L30.8804 151.584C24.1001 162.432 31.889 176.507 44.6821 176.523L125.105 176.627C138.041 176.644 145.841 162.308 138.801 151.456L104.715 98.9108C98.6885 89.6206 95.6583 78.7045 96.0345 67.6372L97.1864 33.7617L97.8856 33.785L98.5857 33.8093L97.4339 67.6849C97.0675 78.4658 100.019 89.0998 105.89 98.1496L139.975 150.693C147.62 162.478 139.15 178.044 125.103 178.026L44.6804 177.923C30.7884 177.905 22.3311 162.623 29.6938 150.842L63.3434 97.0015C68.5771 88.6277 71.3529 78.9518 71.353 69.077L71.3524 33.7254L72.7528 33.7252L72.7524 69.0768Z" fill="#9B1D32"/>
<path d="M69.2771 158.452C68.458 157.514 66.9752 157.039 64.9508 157.356C62.9476 157.67 60.6278 158.747 58.5293 160.58C56.4308 162.412 55.0505 164.566 54.4696 166.509C53.8827 168.472 54.1543 170.005 54.9731 170.943C55.7922 171.881 57.2749 172.357 59.2994 172.04C61.3027 171.726 63.6231 170.648 65.7216 168.816L66.6427 169.871L66.2147 170.233C61.7575 173.881 56.3352 174.632 53.9183 171.864C51.4239 169.007 53.0759 163.483 57.6082 159.525L58.0362 159.163C62.4932 155.515 67.915 154.763 70.3319 157.531L70.5534 157.807C72.7206 160.732 71.0335 166.036 66.6427 169.871L65.7216 168.816C67.82 166.983 69.1996 164.83 69.7806 162.887C70.3676 160.924 70.0962 159.39 69.2771 158.452Z" fill="#A5A5A5"/>
<path d="M96.5528 167.954C96.8796 166.752 96.4533 165.255 95.0676 163.745C93.6963 162.252 91.5144 160.917 88.8262 160.186C86.1379 159.454 83.5799 159.499 81.6408 160.092C79.6815 160.691 78.5559 161.766 78.2288 162.968C77.9019 164.169 78.3271 165.667 79.7128 167.177C81.0841 168.671 83.2668 170.005 85.9551 170.737L85.5874 172.088L85.0489 171.932C79.5422 170.243 75.9128 166.145 76.8776 162.6C77.8737 158.94 83.3879 157.255 89.1939 158.834L89.7325 158.99C95.2388 160.679 98.8684 164.776 97.904 168.321L97.7971 168.659C96.5629 172.084 91.2123 173.618 85.5874 172.088L85.9551 170.737C88.6433 171.468 91.2005 171.423 93.1396 170.83C95.0993 170.231 96.2258 169.155 96.5528 167.954Z" fill="#A5A5A5"/>
<path d="M103.325 160.267C104.428 159.688 105.234 158.357 105.396 156.314C105.557 154.293 105.049 151.786 103.754 149.319C102.46 146.852 100.685 145.009 98.9309 143.992C97.158 142.965 95.604 142.873 94.5014 143.451C93.3988 144.03 92.591 145.361 92.4288 147.404C92.2684 149.425 92.777 151.933 94.0715 154.4L92.8315 155.05L92.5788 154.55C90.0667 149.367 90.5971 143.919 93.8507 142.211C97.2093 140.449 102.198 143.34 104.994 148.668L105.247 149.169C107.759 154.352 107.229 159.8 103.976 161.507L103.656 161.659C100.307 163.086 95.5401 160.212 92.8315 155.05L94.0715 154.4C95.366 156.867 97.1399 158.709 98.8943 159.726C100.667 160.753 102.222 160.846 103.325 160.267Z" fill="#A5A5A5"/>
<path d="M65.8644 146.313C65.4619 147.491 65.792 149.013 67.0789 150.607C68.3525 152.185 70.4451 153.656 73.0813 154.557C75.7177 155.458 78.2733 155.576 80.2462 155.107C82.2397 154.634 83.4314 153.632 83.8342 152.454C84.2369 151.276 83.9078 149.754 82.6209 148.159C81.3473 146.581 79.2539 145.111 76.6175 144.21L77.0704 142.884L77.598 143.074C82.9861 145.11 86.3476 149.43 85.1593 152.907C83.9325 156.496 78.3223 157.828 72.6285 155.882L72.1009 155.692C66.7131 153.656 63.3513 149.337 64.5393 145.86L64.6674 145.53C66.1169 142.191 71.5543 140.999 77.0704 142.884L76.6175 144.21C73.9814 143.309 71.4264 143.191 69.4536 143.659C67.4597 144.132 66.2671 145.134 65.8644 146.313Z" fill="#A5A5A5"/>
<path d="M37.2794 167.535C38.2685 168.292 39.816 168.463 41.7371 167.75C43.6381 167.044 45.6979 165.528 47.3906 163.315C49.0834 161.103 50.0085 158.717 50.192 156.698C50.3773 154.657 49.8068 153.209 48.818 152.452C47.829 151.696 46.2812 151.524 44.3601 152.236C42.459 152.942 40.3988 154.459 38.706 156.672L37.5937 155.821L37.9413 155.381C41.5852 150.92 46.7505 149.108 49.6689 151.34C52.681 153.645 52.1589 159.387 48.5029 164.166L48.1553 164.606C44.5115 169.067 39.3468 170.88 36.4285 168.647L36.1566 168.421C33.4518 165.985 34.0518 160.451 37.5937 155.821L38.706 156.672C37.0133 158.884 36.0888 161.269 35.9052 163.288C35.7197 165.329 36.2903 166.779 37.2794 167.535Z" fill="#A5A5A5"/>
<path d="M104.323 170.499C104.885 171.61 106.205 172.436 108.245 172.629C110.264 172.819 112.778 172.349 115.264 171.091C117.75 169.834 119.619 168.087 120.662 166.348C121.715 164.591 121.831 163.038 121.269 161.927C120.707 160.816 119.388 159.988 117.348 159.796C115.329 159.605 112.814 160.076 110.328 161.334L109.696 160.084L110.2 159.839C115.42 157.405 120.86 158.016 122.519 161.295C124.23 164.679 121.265 169.625 115.896 172.341L115.392 172.586C110.172 175.02 104.732 174.409 103.074 171.131L102.927 170.809C101.549 167.439 104.494 162.715 109.696 160.084L110.328 161.334C107.842 162.591 105.973 164.337 104.931 166.076C103.877 167.834 103.761 169.387 104.323 170.499Z" fill="#A5A5A5"/>
</svg>
