<svg width="108" height="105" viewBox="0 0 108 105" fill="none" xmlns="http://www.w3.org/2000/svg">
<path d="M12.5116 44.1399C12.835 43.928 13.2694 44.0187 13.4813 44.342C13.6932 44.6654 13.6025 45.0999 13.2792 45.3117C12.2488 45.9869 10.763 47.184 9.66784 48.5569C8.54271 49.9674 7.99138 51.3535 8.37487 52.5041C8.95345 54.2401 9.71583 54.9994 10.4188 55.7024C10.7753 56.0589 11.1695 56.4489 11.4813 56.9475C11.8044 57.4641 12.0258 58.0724 12.1102 58.8742C12.2635 60.3301 12.3869 62.8428 12.993 65.3762C13.6027 67.9242 14.6601 70.2938 16.5428 71.549C19.8335 73.7428 22.2332 73.9739 22.87 73.883C23.2527 73.8284 23.6073 74.0941 23.662 74.4768C23.7166 74.8594 23.4509 75.214 23.0682 75.2688C21.9765 75.4247 19.2307 75.0235 15.7665 72.7141C13.4274 71.1547 12.2627 68.3391 11.6317 65.7024C10.9974 63.0514 10.8616 60.3796 10.7186 59.0207C10.6549 58.4153 10.4962 58.0133 10.2938 57.6897C10.0803 57.3483 9.80327 57.0673 9.42859 56.6926C8.66871 55.9327 7.72715 54.988 7.04675 52.9465C6.4232 51.0752 7.39113 49.1657 8.57312 47.6838C9.78503 46.1645 11.3941 44.8721 12.5116 44.1399Z" fill="#8D8D8D"/>
<path d="M66.3951 34.222C67.8824 34.0675 69.493 34.1161 70.8717 34.2884C71.5622 34.3747 72.2054 34.4932 72.7535 34.637C73.289 34.7775 73.7803 34.9536 74.1373 35.1751C74.4658 35.379 74.5668 35.8105 74.3629 36.139C74.159 36.4673 73.7275 36.5684 73.3991 36.3646C73.2187 36.2527 72.8859 36.1185 72.3981 35.9905C71.9225 35.8658 71.3424 35.7575 70.6989 35.6771C69.4093 35.5159 67.9058 35.4717 66.5397 35.6136C65.9212 35.6779 65.5721 35.8467 65.3776 36.0062C65.191 36.1592 65.1012 36.341 65.066 36.5364C65.0287 36.744 65.0534 36.9735 65.1168 37.1761C65.157 37.3043 65.2018 37.3883 65.2301 37.4349C65.2588 37.4426 65.2958 37.4545 65.3434 37.4642C65.5113 37.4984 65.7486 37.5306 66.0485 37.5599C66.6451 37.6182 67.429 37.6581 68.278 37.6849C69.9732 37.7383 71.8774 37.7385 72.9537 37.7386C74.0909 37.7387 74.9809 38.3758 75.5944 39.0521C76.2111 39.7319 76.6296 40.5355 76.8336 41.0843C76.9683 41.4467 76.7829 41.85 76.4205 41.9847C76.0583 42.119 75.6558 41.9346 75.5211 41.5726C75.3671 41.1581 75.0328 40.5167 74.5573 39.9925C74.0785 39.4648 73.5361 39.1382 72.9537 39.138C71.8805 39.1379 69.9547 39.1385 68.234 39.0843C67.3753 39.0572 66.5547 39.0163 65.9117 38.9534C65.5921 38.9222 65.3007 38.8835 65.0641 38.8353C64.9462 38.8112 64.8267 38.7821 64.7184 38.7444C64.6252 38.7121 64.4725 38.6519 64.3395 38.5364C64.0776 38.3091 63.8898 37.942 63.7809 37.5941C63.6649 37.2233 63.6028 36.7622 63.6881 36.2884C63.7756 35.8023 64.0184 35.3109 64.4899 34.9241C64.9533 34.544 65.5876 34.3059 66.3951 34.222Z" fill="#8D8D8D"/>
<path d="M40.1339 27.5005C41.6026 26.96 45.3842 26.2264 49.1241 27.4946C50.2146 27.8645 51.1985 28.1468 52.0714 28.3882C52.9348 28.627 53.7172 28.8331 54.3633 29.0386C55.0045 29.2425 55.5872 29.4685 56.0382 29.7769C56.5123 30.1012 56.871 30.5389 56.9923 31.145C57.1488 31.9277 57.298 32.9009 57.2657 33.7154C57.2497 34.1169 57.1882 34.5494 57.0118 34.9126C56.8205 35.3063 56.469 35.6563 55.9239 35.7193C55.7311 35.7415 55.5456 35.7035 55.4151 35.6695C55.2705 35.6317 55.1148 35.5764 54.9581 35.5132C54.6444 35.3868 54.2662 35.2056 53.8516 34.9956C53.4343 34.7842 52.9624 34.5351 52.46 34.27C51.9556 34.0039 51.4169 33.7198 50.8575 33.4341C49.7367 32.8617 48.5465 32.2902 47.4112 31.853C46.2656 31.412 45.2269 31.1282 44.3966 31.0943C41.4757 30.9751 37.071 31.8232 35.2159 32.271C34.8401 32.3616 34.4619 32.1302 34.3712 31.7544C34.2807 31.3787 34.5121 31.0004 34.8878 30.9097C36.7616 30.4574 41.3267 29.5672 44.4542 29.6948C45.5138 29.7381 46.7223 30.0871 47.9151 30.5464C49.1182 31.0097 50.3585 31.607 51.4942 32.187C52.0631 32.4775 52.6095 32.7659 53.1133 33.0318C53.6192 33.2987 54.0797 33.5416 54.4844 33.7466C54.8916 33.9529 55.2258 34.1123 55.4815 34.2154C55.5966 34.2617 55.6847 34.2902 55.7481 34.3081C55.7493 34.3058 55.7517 34.3039 55.753 34.3013C55.8054 34.1933 55.8543 33.9867 55.8673 33.6607C55.8927 33.0192 55.7722 32.1795 55.6202 31.4195C55.5871 31.2543 55.4973 31.1032 55.2471 30.9321C54.9737 30.7452 54.5556 30.5688 53.9385 30.3726C53.3262 30.1778 52.5912 29.9848 51.6983 29.7378C50.8149 29.4935 49.8022 29.2022 48.6749 28.8198C45.3171 27.6811 41.8743 28.3514 40.6173 28.814C40.2545 28.9475 39.8524 28.7617 39.7188 28.3989C39.5853 28.0361 39.771 27.634 40.1339 27.5005Z" fill="#8D8D8D"/>
<path d="M52.698 61.0014C55.2427 60.4237 57.0768 60.6663 58.0818 61.976C58.2633 62.2123 58.4864 62.2945 58.9111 62.3011C59.1416 62.3046 59.3728 62.2859 59.6751 62.2699C59.958 62.2551 60.2875 62.2439 60.6235 62.2846C61.4057 62.3794 62.0062 62.8291 62.4286 63.3979C62.8459 63.9598 63.1138 64.6654 63.2576 65.3782C63.3997 66.0821 63.4283 66.7377 63.3721 67.2673C63.3441 67.5309 63.2934 67.7822 63.2138 67.9998C63.1419 68.1963 63.0124 68.4609 62.7675 68.6377C62.454 68.8639 62.0162 68.793 61.79 68.4795C61.5821 68.1914 61.6267 67.8001 61.8784 67.5628C61.8828 67.5536 61.891 67.5395 61.8988 67.5185C61.9282 67.4379 61.9604 67.3056 61.9801 67.1195C62.0195 66.7492 62.0026 66.238 61.885 65.6554C61.7693 65.0816 61.5664 64.5847 61.3053 64.2329C61.0494 63.8883 60.7635 63.7122 60.4553 63.6748C60.246 63.6495 60.0175 63.6535 59.7484 63.6676C59.4989 63.6808 59.1831 63.7052 58.8891 63.7006C58.2644 63.6909 57.5253 63.5503 56.9708 62.8277C56.5038 62.2195 55.4545 61.8116 53.0081 62.3669C51.3257 62.7489 48.3699 62.8975 46.3989 62.9441C46.6848 63.147 47.0716 63.3448 47.5539 63.5238C48.2067 63.7661 48.9837 63.9569 49.8064 64.0914C51.461 64.362 53.2173 64.3897 54.409 64.1893L54.8205 64.1198L55.0771 64.449C55.3374 64.7832 56.2628 65.492 57.604 65.1229L57.96 65.0252L58.2419 65.2634C58.3769 65.3778 58.6599 65.5786 59.019 65.7557C59.3801 65.9338 59.7754 66.0673 60.1444 66.0909C60.53 66.1157 60.8223 66.4478 60.7977 66.8335C60.7731 67.2192 60.4408 67.5123 60.0551 67.4877C59.4379 67.4483 58.8571 67.2369 58.3996 67.0112C58.1016 66.8642 57.8384 66.7005 57.6284 66.5527C56.0799 66.8499 54.8925 66.2072 54.2655 65.6237C52.9244 65.7922 51.1882 65.7369 49.58 65.4739C48.6939 65.329 47.8255 65.118 47.0668 64.8364C46.3186 64.5587 45.6242 64.1924 45.1354 63.7096C44.9312 63.5077 44.791 63.2479 44.7648 62.9505C44.739 62.6572 44.8303 62.3929 44.9708 62.1867C45.2427 61.7875 45.7205 61.5589 46.2089 61.5484C48.1952 61.5058 51.1288 61.3576 52.698 61.0014Z" fill="#8D8D8D"/>
<path d="M45.951 63.3376C46.273 63.1237 46.707 63.2112 46.9209 63.5332C47.4337 64.3052 48.4198 65.5337 49.6791 66.6545C50.9457 67.7818 52.4293 68.7461 53.9356 69.0822C57.1439 69.7976 59.5523 69.1967 60.2669 68.8676C60.618 68.7059 61.0342 68.8594 61.196 69.2105C61.3575 69.5615 61.2041 69.9769 60.8532 70.1387C59.8378 70.6065 57.1139 71.2254 53.6311 70.4488C51.7917 70.0386 50.096 68.8998 48.7484 67.7005C47.3935 66.4946 46.3303 65.173 45.7554 64.3075C45.5415 63.9855 45.629 63.5515 45.951 63.3376Z" fill="#8D8D8D"/>
<path d="M56.8671 84.6768C57.0075 84.3166 57.4133 84.1381 57.7734 84.2783C58.1335 84.4187 58.312 84.8245 58.1718 85.1846C57.9164 85.8398 57.4677 87.1806 57.3877 88.459C57.3049 89.7795 57.6193 90.691 58.4794 91.0498C58.8622 91.2094 59.5798 91.2688 60.6865 91.1758C61.7611 91.0854 63.0914 90.8643 64.6201 90.5596C66.146 90.2554 67.8479 89.873 69.666 89.4658C71.4809 89.0593 73.4079 88.6284 75.3701 88.2314C79.2891 87.4385 83.3831 86.7723 87.0625 86.6963C90.7199 86.6207 94.0929 87.124 96.4716 88.791C100.08 91.3194 101.955 93.9113 103.042 96.4551C104.108 98.9516 104.41 101.423 104.874 103.502C104.958 103.879 104.721 104.254 104.344 104.338C103.966 104.422 103.592 104.185 103.508 103.808C103.006 101.56 102.754 99.3441 101.755 97.0059C100.776 94.7148 99.0739 92.3244 95.6679 89.9375C93.6629 88.5325 90.6644 88.0219 87.0918 88.0957C83.541 88.169 79.546 88.8149 75.6484 89.6035C73.7024 89.9972 71.7888 90.4252 69.9726 90.832C68.1596 91.2381 66.4391 91.6245 64.8935 91.9326C63.3508 92.2401 61.9594 92.4742 60.8046 92.5713C59.6824 92.6656 58.6625 92.643 57.9404 92.3418C56.1966 91.6143 55.9003 89.8224 55.9912 88.3711C56.0848 86.8781 56.5932 85.3794 56.8671 84.6768Z" fill="#8D8D8D"/>
<path d="M59.8722 9.77943C64.0926 10.0183 73.0388 14.1802 78.7501 28.0421C78.8971 28.3995 78.7266 28.808 78.3693 28.9552C78.0119 29.1024 77.6025 28.9327 77.4552 28.5753C71.8967 15.0841 63.3517 11.3795 59.7941 11.1779C59.4083 11.156 59.1124 10.8253 59.1339 10.4396C59.1558 10.0538 59.4864 9.75787 59.8722 9.77943Z" fill="#8D8D8D"/>
<path d="M52.7463 1.78139C55.0011 1.65324 58.9503 2.07379 63.0558 3.60366C67.1675 5.13583 71.4974 7.80425 74.4279 12.2189C79.7121 20.1795 78.702 27.2241 78.6535 28.4816C78.6386 28.8678 78.3132 29.1692 77.9269 29.1544C77.5406 29.1396 77.2392 28.8142 77.2541 28.4279C77.3037 27.1399 78.2672 20.5337 73.2619 12.9933C70.5427 8.89684 66.4954 6.38018 62.5666 4.91616C58.6317 3.44991 54.8765 3.06337 52.8263 3.17983C52.4405 3.20176 52.1092 2.90648 52.0871 2.52065C52.0652 2.13477 52.3604 1.80348 52.7463 1.78139Z" fill="#8D8D8D"/>
<path d="M58.6997 53.5174C59.7208 53.599 60.4078 54.0002 60.6919 54.3474C60.9364 54.6467 60.8923 55.0881 60.5932 55.3328C60.2941 55.5775 59.8527 55.5332 59.6079 55.2342C59.6287 55.2596 59.5726 55.1902 59.3862 55.1043C59.214 55.025 58.9513 54.9419 58.5883 54.9129C58.3364 54.8928 58.1043 54.9723 57.8989 55.1053C57.6865 55.2429 57.539 55.4147 57.4829 55.5017C57.2734 55.8266 56.841 55.9201 56.5161 55.7107C56.1912 55.5012 56.0976 55.0679 56.3071 54.743C56.4651 54.498 56.7502 54.1811 57.1372 53.9305C57.5312 53.6752 58.0664 53.4669 58.6997 53.5174Z" fill="#8D8D8D"/>
<path d="M63.2915 55.4199C63.409 55.0518 63.8032 54.8486 64.1714 54.9658C64.5396 55.0832 64.7428 55.4774 64.6255 55.8457C64.4244 56.4768 63.974 56.8277 63.522 56.9883C63.0987 57.1386 62.6697 57.1281 62.3853 57.0723C62.006 56.9978 61.7592 56.6302 61.8335 56.251C61.9079 55.8716 62.2755 55.6238 62.6548 55.6982C62.7466 55.7162 62.9133 55.7186 63.0532 55.6689C63.1163 55.6465 63.163 55.6175 63.1968 55.585C63.228 55.5547 63.264 55.5063 63.2915 55.4199Z" fill="#8D8D8D"/>
<path d="M40.1003 34.3054C40.4634 34.1728 40.8651 34.3594 40.9978 34.7224C41.8317 37.0057 43.3998 38.1733 45.1345 38.7732C46.9009 39.384 48.8352 39.4013 50.3259 39.3366C51.5647 39.2829 52.4031 39.3581 52.9587 39.4988C53.2346 39.5686 53.4758 39.6636 53.6667 39.7937C53.8352 39.9086 54.0914 40.1414 54.1169 40.5134C54.1431 40.8988 53.8519 41.2329 53.4665 41.2595C53.1964 41.278 52.9535 41.139 52.822 40.9226C52.8194 40.9215 52.817 40.9198 52.8142 40.9187C52.7695 40.9004 52.7043 40.8788 52.615 40.8562C52.2467 40.7629 51.5613 40.6841 50.3864 40.7351C48.8597 40.8013 46.7041 40.7976 44.6765 40.0964C42.6172 39.3842 40.6864 37.9491 39.6833 35.2029C39.5507 34.8398 39.7373 34.4381 40.1003 34.3054ZM52.7195 40.6091C52.7221 40.6469 52.7289 40.6814 52.737 40.7126C52.7296 40.6789 52.7219 40.6446 52.7195 40.6091Z" fill="#8D8D8D"/>
<path d="M73.4746 53.0217C73.4746 51.2011 73.7022 49.3873 74.1523 47.6232L75.6103 41.9074C75.9498 40.577 76.1748 39.2196 76.2822 37.8508L77.0312 28.301C77.0744 27.7504 77.5558 27.3389 78.1064 27.382C78.657 27.4252 79.0685 27.9067 79.0254 28.4572L78.2763 38.007C78.16 39.4898 77.9165 40.9604 77.5488 42.4015L76.0898 48.1174C75.6809 49.7199 75.4746 51.3678 75.4746 53.0217C75.4745 57.2139 74.2667 61.3173 71.997 64.842L64.8476 75.9465C62.1361 80.1573 56.9028 81.9776 52.163 80.3596C51.6241 80.1755 51.1003 79.9496 50.5966 79.6838L32.1455 69.9426L32.1367 69.9387L32.1289 69.9338C27.8099 67.547 24.7362 63.4063 23.7021 58.5812L23.1709 56.1017C23.0552 55.5618 23.3986 55.0301 23.9384 54.9142C24.4785 54.7985 25.0102 55.1428 25.1259 55.6828L25.6572 58.1623C26.5699 62.4209 29.283 66.0749 33.0947 68.1818L51.5302 77.9152C51.9415 78.1323 52.3694 78.3167 52.8095 78.467C56.6795 79.7881 60.9521 78.3015 63.166 74.8635L70.3164 63.759C72.3779 60.5573 73.4745 56.8297 73.4746 53.0217Z" fill="#9B1D32"/>
<path d="M20.5437 57.4468C20.9219 57.3672 21.2941 57.6087 21.3738 57.9869C22.2533 62.1646 23.3523 68.8388 23.7957 75.3023C24.0173 78.5338 24.0764 81.7289 23.8572 84.5406C23.6393 87.3354 23.1426 89.8248 22.2048 91.5962C18.6971 98.2222 15.1574 102.329 13.7732 103.591C13.4876 103.852 13.0444 103.831 12.784 103.545C12.5238 103.26 12.5445 102.818 12.8298 102.557C14.069 101.427 17.5166 97.4595 20.9675 90.941C21.7693 89.4263 22.2484 87.1684 22.4617 84.4322C22.6737 81.7127 22.6182 78.5916 22.3992 75.399C21.9612 69.014 20.873 62.4054 20.0037 58.2759C19.9241 57.8978 20.1657 57.5267 20.5437 57.4468Z" fill="#8D8D8D"/>
<path d="M39.5518 0.969271C43.7404 -0.265248 48.3094 0.269707 52.0645 1.64798C53.9462 2.33863 55.6444 3.24827 57.0069 4.27494C58.3612 5.29547 59.4246 6.46249 59.9756 7.68411C60.4905 8.82576 60.6256 9.88452 59.9395 10.6958C59.6278 11.0643 59.1987 11.3081 58.7403 11.4839C58.2794 11.6607 57.7373 11.7877 57.1465 11.8911C55.9801 12.0954 54.4597 12.234 52.7872 12.4429C51.0898 12.6549 49.1679 12.9454 47.0958 13.4634C45.1527 13.9492 43.1151 15.2934 41.0928 17.1861C39.0796 19.0703 37.1331 21.45 35.3702 23.9243C31.844 28.8736 29.0999 34.1322 28.0587 36.3814C27.2105 38.2133 26.4721 39.2272 25.795 39.6597C25.4306 39.8924 25.0096 40.0005 24.5948 39.8658C24.1984 39.7368 23.9608 39.4344 23.837 39.1744C23.6708 38.8253 23.819 38.4079 24.168 38.2417C24.4831 38.0918 24.8516 38.1993 25.043 38.4781C25.3513 38.2799 25.9495 37.6048 26.7881 35.7935C27.8575 33.4836 30.6437 28.1462 34.2305 23.1118C36.0242 20.5943 38.0305 18.1341 40.1358 16.1636C42.2318 14.2019 44.4787 12.6755 46.7569 12.106C48.9058 11.5688 50.8889 11.2687 52.6133 11.0533C54.3626 10.8348 55.7817 10.709 56.9053 10.5122C57.4595 10.4152 57.9005 10.3072 58.2393 10.1773C58.5807 10.0464 58.7689 9.91123 58.8702 9.79154C59.0096 9.62662 59.1551 9.27113 58.6993 8.26029C58.2793 7.32908 57.4111 6.33277 56.1641 5.3931C54.9252 4.45952 53.3519 3.61202 51.5821 2.96244C48.0342 1.66024 43.7804 1.18268 39.9483 2.31204C36.0138 3.47168 30.4543 5.91293 25.7393 10.731C21.0372 15.5359 17.1378 22.7409 16.5557 33.5074C16.5349 33.8934 16.2045 34.1894 15.8184 34.1685C15.4326 34.1475 15.1365 33.8181 15.1573 33.4322C15.7573 22.3317 19.7945 14.8035 24.7383 9.7515C29.6692 4.71288 35.4656 2.17366 39.5518 0.969271Z" fill="#8D8D8D"/>
<path d="M16.9676 31.6864C17.66 31.1072 18.4473 30.9842 19.2068 31.1728C19.9263 31.3514 20.5985 31.8006 21.1814 32.3183C22.3522 33.3581 23.3752 34.8686 23.9627 35.9325C24.1495 36.2709 24.0266 36.6968 23.6883 36.8837C23.3498 37.0706 22.924 36.9477 22.7371 36.6093C22.1901 35.6186 21.2579 34.2587 20.2517 33.3651C19.7463 32.9162 19.2743 32.6327 18.8689 32.5321C18.5037 32.4416 18.1852 32.4928 17.866 32.7597C16.825 33.6304 16.2358 35.4193 16.0379 37.4257C15.8429 39.4029 16.0517 41.3431 16.3777 42.3007C16.7327 43.3434 18.3237 47.0939 20.1687 49.5058C20.6261 50.1037 21.0816 50.5952 21.5174 50.9394C21.9587 51.2879 22.3275 51.4435 22.6209 51.4647C22.879 51.4833 23.1638 51.4051 23.49 51.078C23.8362 50.7307 24.2137 50.1139 24.576 49.0985C24.7058 48.7346 25.1065 48.5441 25.4705 48.6737C25.8345 48.8036 26.025 49.2042 25.8953 49.5683C25.4989 50.6793 25.0331 51.5128 24.4812 52.0663C23.9091 52.64 23.2395 52.9131 22.5203 52.8612C21.8365 52.8119 21.2036 52.4758 20.6492 52.038C20.089 51.5955 19.5533 51.0059 19.0564 50.3563C17.0843 47.7782 15.4337 43.8714 15.0525 42.7519C14.6426 41.5477 14.4368 39.3938 14.6443 37.289C14.8489 35.2136 15.4789 32.9317 16.9676 31.6864Z" fill="#8D8D8D"/>
<path d="M64.364 43.9084C65.1784 43.5271 67.2099 43.0626 69.0545 44.2102C70.0588 44.8351 71.2838 45.6223 72.5379 46.0901C73.799 46.5604 74.9116 46.6403 75.7937 46.091C76.1218 45.8869 76.5532 45.9877 76.7576 46.3156C76.9619 46.6437 76.8619 47.0751 76.534 47.2795C75.0981 48.1735 73.4553 47.9262 72.0486 47.4016C70.6347 46.8743 69.2783 45.9994 68.3142 45.3996C67.0094 44.5879 65.5135 44.9168 64.9578 45.177C64.6077 45.3408 64.191 45.1892 64.0271 44.8391C63.8633 44.489 64.014 44.0723 64.364 43.9084Z" fill="#8D8D8D"/>
</svg>
