<svg width="186" height="181" viewBox="0 0 186 181" fill="none" xmlns="http://www.w3.org/2000/svg">
<path d="M125.098 34.835L156.891 53.5283L157.185 90.4229L156.891 127.304L125.098 145.999L93 164.19L60.9043 145.999L29.1094 127.303L28.8174 90.4229L29.1094 53.5293L60.9043 34.835L93 16.6426L125.098 34.835Z" stroke="#8D8D8D" stroke-width="1.4"/>
<path d="M29.4629 127.553C78.5407 101.534 107.658 80.023 156.736 54.0039" stroke="#8D8D8D" stroke-width="1.4" stroke-linecap="round" stroke-dasharray="7 7"/>
<path d="M156.736 127.553C107.659 101.534 78.5413 80.023 29.4634 54.0039" stroke="#8D8D8D" stroke-width="1.4" stroke-linecap="round" stroke-dasharray="7 7"/>
<circle cx="92.9998" cy="90.4178" r="7.62483" fill="#8D8D8D"/>
<circle cx="92.9998" cy="18.5721" r="7.62483" fill="#8D8D8D"/>
<circle cx="7.62483" cy="7.62483" r="7.62483" transform="matrix(1 0 0 -1 148.686 136.039)" fill="#8D8D8D"/>
<circle cx="7.62483" cy="7.62483" r="7.62483" transform="matrix(1 0 0 -1 85.375 171.469)" fill="#9B1D32"/>
<circle cx="156.31" cy="54.0037" r="7.62483" fill="#9B1D32"/>
<circle cx="29.0369" cy="54.0037" r="7.62483" fill="#9B1D32"/>
<circle cx="7.62483" cy="7.62483" r="7.62483" transform="matrix(1 0 0 -1 21.4121 136.039)" fill="#8D8D8D"/>
<path d="M90.2445 70.5355C91.5135 68.3374 94.6862 68.3374 95.9552 70.5355L114.881 103.315C116.15 105.514 114.563 108.261 112.025 108.261H74.1743C71.6362 108.261 70.0499 105.514 71.319 103.315L90.2445 70.5355Z" fill="#9B1D32"/>
<line x1="93.0469" y1="82.6953" x2="93.0469" y2="93.0444" stroke="white" stroke-width="2" stroke-linecap="round"/>
<line x1="93.0469" y1="98.2168" x2="93.0469" y2="98.8599" stroke="white" stroke-width="2" stroke-linecap="round"/>
</svg>
