<svg width="138" height="134" viewBox="0 0 138 134" fill="none" xmlns="http://www.w3.org/2000/svg">
<path d="M109.648 56.8563C103.45 59.5795 88.9238 65.757 68.9983 65.757C59.0522 65.757 49.7339 64.3913 42.3821 62.685C38.7056 61.8318 35.5124 60.8917 32.9709 59.9898C30.4474 59.0942 28.5119 58.218 27.3906 57.479L28.4638 56.2182C29.3962 56.8327 31.158 57.6482 33.6398 58.529C36.1037 59.4035 39.2254 60.3242 42.8388 61.1628C50.067 62.8403 59.2305 64.182 68.9983 64.182C88.5013 64.182 102.725 58.1392 108.849 55.4482L109.648 56.8563Z" fill="#8D8D8D"/>
<path d="M69.8979 94.4534V91.3713C69.8979 79.9466 77.4698 69.7575 88.5916 67.4976C89.7405 67.2641 90.8323 67.0585 91.831 66.8919C95.9386 66.2067 101.26 65.6588 105.571 65.2817C107.723 65.0935 109.617 64.9486 110.973 64.8505C111.65 64.8015 112.193 64.7646 112.566 64.7396C112.753 64.7271 112.898 64.7172 112.995 64.7109C113.044 64.7078 113.081 64.705 113.105 64.7034C113.117 64.7027 113.126 64.7026 113.133 64.7022C113.136 64.702 113.139 64.7023 113.14 64.7022L113.141 64.7009C113.634 64.6702 114.01 64.2462 113.979 63.7538C113.948 63.2616 113.523 62.888 113.03 62.9188H113.02C113.014 62.9192 113.004 62.9205 112.992 62.9213C112.966 62.9229 112.929 62.9243 112.879 62.9275C112.781 62.9339 112.634 62.9436 112.446 62.9562C112.07 62.9813 111.524 63.0191 110.843 63.0683C109.48 63.1669 107.578 63.3128 105.415 63.502C101.096 63.8798 95.7164 64.4324 91.5365 65.1297C90.5119 65.3006 89.3983 65.5101 88.2347 65.7466C76.1936 68.1934 68.1085 79.1879 68.1085 91.3713V94.4534C68.1085 105.115 75.3717 114.409 85.7266 117C86.2056 117.119 86.6909 116.829 86.8109 116.351C86.9308 115.872 86.6398 115.387 86.1608 115.267C76.6019 112.876 69.8979 104.295 69.8979 94.4534Z" fill="#8D8D8D"/>
<path d="M67.4615 94.4534V91.3713C67.4615 79.9466 59.8896 69.7575 48.7678 67.4976C47.6189 67.2641 46.527 67.0585 45.5284 66.8919C41.4208 66.2067 36.099 65.6588 31.7886 65.2817C29.6366 65.0935 27.7423 64.9486 26.3867 64.8505C25.7093 64.8015 25.1665 64.7646 24.7932 64.7396C24.6065 64.7271 24.4614 64.7172 24.364 64.7109C24.3156 64.7078 24.2788 64.705 24.2542 64.7034C24.2421 64.7027 24.2329 64.7026 24.2267 64.7022C24.2236 64.702 24.2207 64.7023 24.2192 64.7022L24.218 64.7009C23.7249 64.6702 23.3499 64.2462 23.3807 63.7538C23.4117 63.2616 23.8361 62.888 24.329 62.9188H24.339C24.3455 62.9192 24.3552 62.9205 24.3677 62.9213C24.3931 62.9229 24.4308 62.9243 24.48 62.9275C24.5788 62.9339 24.7249 62.9436 24.913 62.9562C25.2892 62.9813 25.8356 63.0191 26.5165 63.0683C27.8789 63.1669 29.7819 63.3128 31.9445 63.502C36.2635 63.8798 41.6429 64.4324 45.8229 65.1297C46.8475 65.3006 47.961 65.5101 49.1247 65.7466C61.1658 68.1934 69.2509 79.1879 69.2509 91.3713V94.4534C69.2509 105.115 61.9877 114.409 51.6328 117C51.1537 117.119 50.6684 116.829 50.5484 116.351C50.4285 115.872 50.7195 115.387 51.1985 115.267C60.7575 112.876 67.4615 104.295 67.4615 94.4534Z" fill="#8D8D8D"/>
<path d="M18.4375 79.1812C18.4376 71.7945 21.6397 64.9955 25.509 58.3648C29.4223 51.6586 33.9562 45.2053 37.004 38.1745C39.3484 32.766 39.217 25.7263 38.0135 19.0056C36.8151 12.3144 34.5848 6.10318 32.9061 2.45176C32.6414 1.87598 32.957 1.2207 33.6111 0.987705C34.2653 0.754724 35.0098 1.03248 35.2745 1.60825C37.0183 5.40115 39.3061 11.7775 40.5378 18.6552C41.7643 25.5036 41.9751 33.0151 39.3911 38.9762C36.2781 46.1575 31.5701 52.9021 27.7825 59.3928C23.9512 65.9586 20.9931 72.3563 20.9931 79.1812C20.9931 84.6944 23.3386 94.1994 26.3388 103.962C29.3244 113.678 32.91 123.499 35.2982 129.571C35.5291 130.158 35.1752 130.799 34.5083 131.002C33.8414 131.205 33.1133 130.894 32.8824 130.307C30.4789 124.196 26.8769 114.324 23.873 104.549C20.8837 94.8212 18.4375 85.0377 18.4375 79.1812Z" fill="#9B1D32"/>
<path d="M119.453 79.1812C119.453 71.7945 116.251 64.9955 112.382 58.3648C108.468 51.6586 103.934 45.2053 100.887 38.1745C98.5422 32.766 98.6736 25.7263 99.8772 19.0056C101.075 12.3144 103.306 6.10318 104.985 2.45176C105.249 1.87598 104.934 1.2207 104.28 0.987705C103.625 0.754724 102.881 1.03248 102.616 1.60825C100.872 5.40115 98.5846 11.7775 97.3528 18.6552C96.1264 25.5036 95.9155 33.0151 98.4996 38.9762C101.613 46.1575 106.321 52.9021 110.108 59.3928C113.939 65.9586 116.897 72.3563 116.898 79.1812C116.898 84.6944 114.552 94.1994 111.552 103.962C108.566 113.678 104.981 123.499 102.592 129.571C102.362 130.158 102.715 130.799 103.382 131.002C104.049 131.205 104.777 130.894 105.008 130.307C107.412 124.196 111.014 114.324 114.018 104.549C117.007 94.8212 119.453 85.0377 119.453 79.1812Z" fill="#9B1D32"/>
</svg>
