<svg width="108" height="105" viewBox="0 0 108 105" fill="none" xmlns="http://www.w3.org/2000/svg">
<g clip-path="url(#clip0_1675_25005)">
<path d="M54.0915 16.5228C64.2937 15.098 75.1378 18.249 84.2321 22.3284C93.3408 26.4143 100.781 31.4709 104.207 33.9603C104.732 34.342 104.807 34.9712 104.581 35.4349C104.356 35.895 103.82 36.2214 103.201 36.0599C97.0557 34.4571 80.7529 30.6646 68.9938 32.0355C59.6935 33.1197 47.3685 35.0631 37.1667 37.2982C32.063 38.4163 27.5102 39.6035 24.1393 40.7864C22.4519 41.3787 21.0846 41.9617 20.0993 42.5228C19.6072 42.803 19.2277 43.0676 18.9557 43.3128C18.6792 43.5622 18.5486 43.7597 18.4977 43.8968C18.2494 44.567 17.9397 45.8276 17.6013 47.4612C17.2661 49.0793 16.9118 51.0198 16.5681 53.0218C15.9394 56.6829 15.3503 60.5351 14.988 62.971C17.6473 59.793 23.3675 53.3421 30.2819 47.8724C33.9343 44.9832 37.9406 42.3498 42.0222 40.6204C46.1015 38.892 50.3033 38.0472 54.3181 38.8011C69.2383 41.6028 81.6891 50.1563 88.3073 56.0706C88.5542 56.2913 88.6949 56.585 88.7057 56.8997C88.716 57.2007 88.6069 57.4727 88.446 57.6771C88.1248 58.0851 87.4954 58.3297 86.8864 57.9935C77.8361 52.9938 62.2796 47.7862 49.0456 50.7249C41.3539 52.433 33.9186 56.6878 27.7888 61.4915C22.1338 65.9231 17.6402 70.7838 15.1159 74.4544C21.2854 75.3797 30.5828 76.4267 39.7018 76.7444C44.5358 76.9129 49.3074 76.876 53.53 76.5111C57.7648 76.145 61.3946 75.4525 63.9753 74.3382C74.6673 69.7216 81.1349 65.218 82.9899 63.5902C83.2805 63.3352 83.7222 63.3642 83.9772 63.6546C84.2322 63.9452 84.2034 64.3869 83.9128 64.6419C81.9157 66.3944 75.3109 70.9687 64.5309 75.6234C61.7437 76.8269 57.9364 77.5352 53.6511 77.9056C49.3532 78.277 44.5207 78.3135 39.653 78.1439C29.9179 77.8047 19.9921 76.6414 13.819 75.6722L12.7663 75.5071L13.3356 74.6068C15.8111 70.6911 20.6986 65.2681 26.9245 60.389C33.1521 55.5086 40.7769 51.1265 48.7419 49.3577C61.7337 46.4727 76.7055 51.153 86.0524 55.9652C79.2895 50.2467 67.7063 42.7397 54.0593 40.1771C50.4073 39.4914 46.4961 40.2452 42.5681 41.9095C38.6423 43.5728 34.7462 46.1262 31.1511 48.97C23.9602 54.6584 18.0587 61.4431 15.6452 64.3665C14.8576 65.3199 13.3303 64.6063 13.5065 63.4114C13.8551 61.0488 14.4979 56.8041 15.1882 52.7845C15.5332 50.7751 15.8913 48.8174 16.2311 47.1771C16.5677 45.5523 16.8952 44.1933 17.1852 43.4105C17.3442 42.9817 17.651 42.6049 18.0182 42.2737C18.3901 41.9384 18.8615 41.6165 19.4069 41.306C20.4973 40.6851 21.9538 40.0697 23.6765 39.4652C27.1264 38.2545 31.7423 37.0527 36.8669 35.93C47.1213 33.6834 59.4931 31.7336 68.8317 30.6448C80.2206 29.3171 95.6165 32.6968 102.447 34.4212C98.7516 31.8007 91.8913 27.2982 83.6599 23.6058C74.6585 19.568 64.1038 16.5375 54.2858 17.9085C30.6546 21.2087 10.0394 38.0907 2.70087 46.1185C2.44 46.4037 1.9969 46.4232 1.71161 46.1624C1.42662 45.9016 1.40713 45.4594 1.66766 45.1741C9.11728 37.0249 30.0076 19.8864 54.0915 16.5228Z" fill="#8D8D8D"/>
<path d="M92.3445 59.1335C92.7292 58.7373 93.3618 58.7278 93.758 59.1125C95.2174 60.5298 97.0466 62.9478 97.6631 65.6034C97.9759 66.9512 97.985 68.4006 97.4283 69.8055C96.8692 71.2162 95.7775 72.4852 94.0614 73.5326C93.59 73.8201 92.975 73.6716 92.6873 73.2003C92.3996 72.7289 92.5491 72.1137 93.0206 71.8259C94.4364 70.9618 95.1978 70.0052 95.5689 69.0686C95.9423 68.1262 95.9587 67.1063 95.7149 66.056C95.218 63.9153 93.6751 61.82 92.3646 60.5472C91.9685 60.1625 91.9598 59.5297 92.3445 59.1335Z" fill="#9B1D32"/>
<path d="M98.1872 54.1149C98.6012 53.7495 99.2327 53.7889 99.5982 54.2028C102.753 57.7752 106.177 63.5641 105.687 69.1529C105.437 72.0023 104.17 74.7489 101.439 77.0402C98.735 79.3096 94.6411 81.0968 88.7781 82.175C88.235 82.2748 87.7135 81.9152 87.6135 81.3721C87.5136 80.829 87.8731 80.3074 88.4163 80.2075C94.0817 79.1656 97.8071 77.4776 100.154 75.5084C102.474 73.5611 103.49 71.304 103.695 68.9779C104.113 64.216 101.134 58.9621 98.0993 55.5259C97.7339 55.112 97.7733 54.4805 98.1872 54.1149Z" fill="#9B1D32"/>
<path d="M65.4951 63.6025C65.495 56.4717 59.3543 50.5586 51.6113 50.5586C43.8684 50.5586 37.7286 56.4718 37.7285 63.6025C37.7285 70.7334 43.8683 76.6474 51.6113 76.6475V78.0469C43.1706 78.0468 36.3281 71.58 36.3281 63.6025C36.3282 55.6252 43.1707 49.1583 51.6113 49.1582C60.052 49.1582 66.8944 55.6251 66.8945 63.6025C66.8945 71.58 60.0521 78.0469 51.6113 78.0469V76.6475C59.3544 76.6475 65.4951 70.7334 65.4951 63.6025Z" fill="#8D8D8D"/>
<path d="M57.1029 63.1921C57.1029 66.2278 54.6419 68.6888 51.6061 68.6888C48.5703 68.6888 46.1094 66.2278 46.1094 63.1921C46.1094 60.1563 48.5703 57.6953 51.6061 57.6953C54.6419 57.6953 57.1029 60.1563 57.1029 63.1921Z" fill="#8D8D8D"/>
<path d="M85.0015 69.566C85.2563 69.0762 85.8595 68.8855 86.3494 69.1402C86.8393 69.3951 87.0299 69.9982 86.7752 70.4881C84.2074 75.4243 79.7832 78.9146 74.4099 81.3262C69.0408 83.7357 62.6689 85.0952 56.0942 85.7483C42.9462 87.0544 28.7966 85.5529 19.7702 83.7677C19.2285 83.6606 18.8761 83.1348 18.9832 82.5931C19.0903 82.0514 19.616 81.6991 20.1578 81.8061C29.0501 83.5648 42.9957 85.0393 55.8965 83.7578C62.3457 83.1171 68.4864 81.7924 73.5907 79.5017C78.691 77.2127 82.7019 73.9863 85.0015 69.566Z" fill="#9B1D32"/>
</g>
<defs>
<clipPath id="clip0_1675_25005">
<rect width="108" height="105" fill="white"/>
</clipPath>
</defs>
</svg>
