<svg width="138" height="134" viewBox="0 0 138 134" fill="none" xmlns="http://www.w3.org/2000/svg">
<path d="M96.2655 2.77298C97.1242 2.36321 98.159 2.66927 98.6626 3.48139L97.149 4.20738V4.20848L98.6626 3.48139C99.1681 4.29549 98.98 5.35597 98.2321 5.94821L97.8103 6.29308C93.4421 9.96827 89.0045 17.1849 83.1334 30.7789L82.5831 32.0903C77.0948 45.6061 77.4661 57.9723 79.2863 72.8873C80.1056 79.5993 80.9509 86.5412 80.9509 93.2456C80.949 93.601 80.9404 93.8216 80.9235 94.0397C80.5851 98.9899 77.501 103.188 72.8787 104.994C71.3549 105.59 69.7763 105.882 68.2168 105.882V103.632C69.4108 103.632 70.637 103.411 71.8418 102.939L72.1799 102.8C75.6366 101.306 78.0929 98.0012 78.3729 93.9046V93.8947L78.3741 93.886C78.3864 93.7277 78.3936 93.5587 78.3954 93.2456C78.3953 86.6824 77.5677 79.8621 76.7457 73.1278C74.8546 57.6323 74.4645 44.5186 80.7438 29.9794C85.765 18.3532 89.8686 11.0432 93.9957 6.62477C85.2927 11.8584 77.0603 20.9811 70.4716 31.6202C63.0394 43.6216 57.9113 57.2076 56.5633 68.516C55.5477 77.0305 55.5141 84.0087 56.3961 89.4586C57.2834 94.9407 59.0585 98.6406 61.4124 100.866C63.3817 102.727 65.8102 103.632 68.2168 103.632V105.882C65.2469 105.882 62.3445 104.828 60.0023 102.814L59.5419 102.398C54.0028 97.1614 52.0848 86.226 53.8393 69.8801L54.0215 68.282C56.7572 45.3309 74.4785 13.8022 95.2723 3.25844L96.2655 2.77298Z" fill="#9B1D32"/>
<path d="M32.3185 82.2812C39.4676 82.2812 45.7355 86.4864 47.6306 92.5538L50.1637 100.664C52.3657 107.714 59.6491 112.6 67.9565 112.6C76.6204 112.6 84.1177 107.295 85.9789 99.8477L87.792 92.5933C89.2968 86.5712 95.3587 82.2812 102.364 82.2812H125.177C125.671 82.2814 126.072 82.634 126.072 83.0687C126.072 83.5034 125.671 83.8561 125.177 83.8562H102.364C96.1986 83.8562 90.8633 87.6315 89.539 92.9316L87.7259 100.185C85.6845 108.355 77.4605 114.175 67.9565 114.175C58.8437 114.175 50.8547 108.815 48.4392 101.081L45.9061 92.9712C44.2245 87.5872 38.6623 83.8562 32.3185 83.8562H17.2272C16.7332 83.8562 16.3325 83.5035 16.3325 83.0687C16.3325 82.6339 16.7332 82.2812 17.2272 82.2812H32.3185Z" fill="#A5A5A5"/>
<path d="M125.177 125.865C125.671 125.865 126.072 126.218 126.072 126.653C126.072 127.087 125.671 127.44 125.177 127.44H17.2272C16.7332 127.44 16.3325 127.088 16.3325 126.653C16.3325 126.218 16.7332 125.865 17.2272 125.865H125.177Z" fill="#A5A5A5"/>
</svg>
