<svg width="108" height="105" viewBox="0 0 108 105" fill="none" xmlns="http://www.w3.org/2000/svg">
<path d="M85.8125 44.5525C80.9624 46.6864 69.5939 51.527 54 51.527C46.2161 51.527 38.9236 50.4568 33.1699 49.1198C30.2927 48.4513 27.7937 47.7146 25.8047 47.0079C23.8297 46.3061 22.315 45.6196 21.4375 45.0405L22.2773 44.0525C23.0071 44.534 24.3859 45.1731 26.3281 45.8633C28.2564 46.5485 30.6995 47.2699 33.5273 47.927C39.1842 49.2415 46.3557 50.2928 54 50.2929C69.2633 50.2929 80.3948 45.5578 85.1875 43.4492L85.8125 44.5525Z" fill="#8D8D8D"/>
<path d="M54.7037 74.0121V71.5971C54.7037 62.6449 60.6296 54.6609 69.3336 52.8901C70.2327 52.7071 71.0872 52.546 71.8687 52.4155C75.0834 51.8785 79.2483 51.4492 82.6217 51.1537C84.3058 51.0062 85.7883 50.8927 86.8492 50.8158C87.3793 50.7774 87.8041 50.7485 88.0963 50.7289C88.2424 50.7191 88.356 50.7114 88.4322 50.7065C88.4701 50.704 88.4988 50.7018 88.5181 50.7006C88.5276 50.7 88.5348 50.6999 88.5396 50.6996C88.542 50.6995 88.5443 50.6997 88.5455 50.6996L88.5465 50.6987C88.9323 50.6745 89.2258 50.3423 89.2017 49.9565C89.1775 49.5708 88.8453 49.2781 88.4596 49.3022H88.4517C88.4467 49.3025 88.439 49.3035 88.4293 49.3041C88.4094 49.3054 88.3799 49.3065 88.3414 49.309C88.2641 49.314 88.1497 49.3216 88.0025 49.3315C87.7081 49.3512 87.2805 49.3808 86.7476 49.4194C85.6814 49.4966 84.1921 49.611 82.4996 49.7592C79.1195 50.0552 74.9095 50.4882 71.6383 51.0346C70.8364 51.1685 69.9649 51.3327 69.0543 51.518C59.6308 53.4352 53.3033 62.0504 53.3033 71.5971V74.0121C53.3033 82.3664 58.9876 89.6491 67.0914 91.6791C67.4663 91.7729 67.8461 91.5452 67.94 91.1703C68.0339 90.7954 67.8061 90.4157 67.4312 90.3217C59.9503 88.4477 54.7037 81.7242 54.7037 74.0121Z" fill="#8D8D8D"/>
<path d="M52.7963 74.0121V71.5971C52.7963 62.6449 46.8704 54.6609 38.1664 52.8901C37.2673 52.7071 36.4128 52.546 35.6313 52.4155C32.4166 51.8785 28.2517 51.4492 24.8783 51.1537C23.1942 51.0062 21.7117 50.8927 20.6508 50.8158C20.1207 50.7774 19.6959 50.7485 19.4037 50.7289C19.2576 50.7191 19.144 50.7114 19.0678 50.7065C19.0299 50.704 19.0012 50.7018 18.9819 50.7006C18.9724 50.7 18.9652 50.6999 18.9604 50.6996C18.958 50.6995 18.9557 50.6997 18.9545 50.6996L18.9535 50.6987C18.5677 50.6745 18.2742 50.3423 18.2983 49.9565C18.3225 49.5708 18.6547 49.2781 19.0404 49.3022H19.0483C19.0533 49.3025 19.061 49.3035 19.0707 49.3041C19.0906 49.3054 19.1201 49.3065 19.1586 49.309C19.2359 49.314 19.3503 49.3216 19.4975 49.3315C19.7919 49.3512 20.2195 49.3808 20.7524 49.4194C21.8186 49.4966 23.3079 49.611 25.0004 49.7592C28.3805 50.0552 32.5905 50.4882 35.8617 51.0346C36.6636 51.1685 37.5351 51.3327 38.4457 51.518C47.8692 53.4352 54.1967 62.0504 54.1967 71.5971V74.0121C54.1967 82.3664 48.5124 89.6491 40.4086 91.6791C40.0337 91.7729 39.6539 91.5452 39.56 91.1703C39.4661 90.7954 39.6939 90.4157 40.0688 90.3217C47.5497 88.4477 52.7963 81.7242 52.7963 74.0121Z" fill="#8D8D8D"/>
<path d="M14.4297 62.0446C14.4298 56.2565 16.9358 50.929 19.9639 45.7333C23.0265 40.4784 26.5748 35.4217 28.96 29.9125C30.7947 25.6745 30.6919 20.1583 29.75 14.8921C28.8122 9.64898 27.0667 4.78197 25.7529 1.92078C25.5458 1.46961 25.7927 0.956149 26.3047 0.773576C26.8166 0.591017 27.3993 0.80866 27.6064 1.25983C28.9712 4.23187 30.7616 9.22824 31.7256 14.6175C32.6854 19.9838 32.8504 25.8696 30.8281 30.5407C28.3919 36.1678 24.7074 41.4528 21.7432 46.5388C18.7447 51.6836 16.4298 56.6967 16.4297 62.0446C16.4297 66.3646 18.2653 73.8126 20.6133 81.4628C22.9499 89.0758 25.756 96.7716 27.625 101.529C27.8057 101.989 27.5287 102.491 27.0068 102.65C26.485 102.81 25.9151 102.566 25.7344 102.106C23.8534 97.3175 21.0344 89.5817 18.6836 81.9223C16.3441 74.2999 14.4297 66.6336 14.4297 62.0446Z" fill="#9B1D32"/>
<path d="M93.4844 62.0446C93.4843 56.2565 90.9783 50.929 87.9502 45.7333C84.8876 40.4784 81.3393 35.4217 78.9541 29.9125C77.1193 25.6745 77.2221 20.1583 78.1641 14.8921C79.1019 9.64898 80.8473 4.78197 82.1611 1.92078C82.3683 1.46961 82.1213 0.956149 81.6094 0.773576C81.0974 0.591017 80.5148 0.80866 80.3076 1.25983C78.9429 4.23187 77.1525 9.22824 76.1885 14.6175C75.2286 19.9838 75.0636 25.8696 77.0859 30.5407C79.5222 36.1678 83.2067 41.4528 86.1709 46.5388C89.1693 51.6836 91.4843 56.6967 91.4844 62.0446C91.4844 66.3646 89.6488 73.8126 87.3008 81.4628C84.9642 89.0758 82.158 96.7716 80.2891 101.529C80.1084 101.989 80.3853 102.491 80.9072 102.65C81.4291 102.81 81.999 102.566 82.1797 102.106C84.0607 97.3175 86.8797 89.5817 89.2305 81.9223C91.57 74.2999 93.4844 66.6336 93.4844 62.0446Z" fill="#9B1D32"/>
</svg>
