<svg width="108" height="120" viewBox="0 0 108 120" fill="none" xmlns="http://www.w3.org/2000/svg">
<path d="M28.5732 17.5424C56.1652 13.6459 76.2015 19.7671 82.8573 23.3852C83.1968 23.5699 83.3221 23.9949 83.1376 24.3344C82.953 24.674 82.528 24.8002 82.1884 24.6157C75.8286 21.1585 56.1016 15.0681 28.7685 18.9282C11.6596 21.3443 4.82392 26.6294 2.75871 31.1489C1.72996 33.4002 1.85464 35.5114 2.50969 37.1078C3.17948 38.7401 4.35808 39.7504 5.35832 39.9545C6.02128 40.0898 6.92545 40.0385 8.08976 39.7846C9.2442 39.5329 10.5979 39.0951 12.1347 38.5102C15.2118 37.339 18.9357 35.6113 23.1405 33.6977C31.5201 29.8842 41.7427 25.3628 52.1171 23.3139C60.555 21.6476 71.4295 24.3705 81.496 28.3549C91.5944 32.352 101.019 37.6759 106.622 41.3666C106.945 41.5793 107.035 42.0135 106.822 42.3364C106.61 42.659 106.175 42.748 105.852 42.5356C100.317 38.8889 90.9766 33.6129 80.9814 29.6567C70.9542 25.6878 60.4053 23.1038 52.3886 24.6869C42.1951 26.7 32.1103 31.1535 23.7196 34.9721C19.5396 36.8744 15.7627 38.6275 12.6327 39.8188C11.0659 40.4151 9.63871 40.879 8.38762 41.1518C7.14671 41.4224 6.02007 41.5189 5.07805 41.3266C3.47888 41.0002 1.99778 39.5497 1.21379 37.6391C0.415182 35.6926 0.292072 33.178 1.48527 30.5668C3.86416 25.361 11.3541 19.9741 28.5732 17.5424Z" fill="#8D8D8D"/>
<path d="M83.6219 74.323C83.8902 74.0451 84.3329 74.0374 84.6111 74.3054C84.8894 74.5738 84.898 75.0174 84.6297 75.2957C80.5043 79.5737 68.0891 88.6519 51.0662 91.1873C33.9575 93.7353 19.683 85.5874 14.6443 81.1609C14.3541 80.9059 14.3252 80.464 14.5799 80.1736C14.835 79.8832 15.2777 79.8541 15.5682 80.1092C20.392 84.3469 34.268 92.2733 50.8592 89.8025C67.5359 87.3188 79.6802 78.4107 83.6219 74.323Z" fill="#8D8D8D"/>
<path d="M10.1581 83.7225C10.5559 83.3398 11.1891 83.3522 11.5721 83.7499C14.4197 86.7063 19.7312 91.1593 26.3407 94.8231C32.9554 98.4897 40.7876 101.32 48.701 101.146C64.8124 100.792 79.3369 94.7895 84.5311 91.8631C85.0121 91.5923 85.6212 91.7623 85.8924 92.243C86.1635 92.7242 85.9936 93.3342 85.5126 93.6053C80.1003 96.6545 65.256 102.782 48.745 103.145C40.3471 103.33 32.157 100.334 25.371 96.5721C18.5799 92.8077 13.1105 88.2304 10.1307 85.1366C9.748 84.7388 9.76042 84.1055 10.1581 83.7225Z" fill="#9B1D32"/>
<path d="M26.2101 59.7373C33.4648 57.0774 41.6788 55.0979 48.9953 55.6465C49.3808 55.6754 49.6707 56.0119 49.6417 56.3975C49.6127 56.7828 49.2762 57.0719 48.8908 57.043C41.8648 56.5161 33.8703 58.4197 26.6915 61.0518C19.5235 63.6799 13.2384 67.0082 9.65542 69.2617C9.32817 69.4675 8.89543 69.3692 8.6896 69.042C8.48378 68.7148 8.58213 68.282 8.90932 68.0762C12.5705 65.7734 18.9446 62.4011 26.2101 59.7373Z" fill="#8D8D8D"/>
<path d="M30.5029 48.5663C38.3489 47.2445 47.3395 46.8191 55.5937 48.8271C71.8768 52.7882 84.9401 60.1921 89.4892 63.4413C89.9386 63.7623 90.0426 64.3874 89.7216 64.8368C89.4006 65.2861 88.7764 65.39 88.3271 65.0693C83.9654 61.9538 71.1332 54.6657 55.121 50.7704C47.2276 48.8502 38.5345 49.242 30.8359 50.539C23.1423 51.8351 16.5157 54.022 12.7939 55.6269C12.2868 55.8453 11.699 55.6114 11.4804 55.1044C11.2617 54.5973 11.4957 54.0086 12.0029 53.79C15.8725 52.1214 22.6522 49.889 30.5029 48.5663Z" fill="#9B1D32"/>
<path d="M85.4804 70.4282C85.9662 70.2088 86.5309 70.442 86.7413 70.9487C87.2691 72.2199 88.4121 74.3073 90.0934 76.3218C91.7761 78.3377 93.9462 80.2197 96.5122 81.1792C102.026 83.2407 105.98 84.2887 107.23 84.5493C107.749 84.6577 108.085 85.1846 107.981 85.7261C107.877 86.2676 107.372 86.6186 106.853 86.5103C105.488 86.2253 101.44 85.1464 95.8654 83.062C92.8874 81.9485 90.4601 79.8062 88.6481 77.6353C86.835 75.463 85.5862 73.2001 84.9815 71.7437C84.7711 71.2369 84.9946 70.6477 85.4804 70.4282Z" fill="#9B1D32"/>
<path d="M84.9823 69.8406C85.5341 69.818 86.0001 70.2473 86.0228 70.7991C86.0798 72.1832 86.4424 74.5597 87.3552 77.07C88.2688 79.582 89.7052 82.1519 91.8585 84.0094C96.4851 88.0002 99.9584 90.4608 101.081 91.1725C101.547 91.4682 101.686 92.086 101.39 92.5524C101.094 93.0189 100.476 93.157 100.01 92.8613C98.7828 92.0834 95.2302 89.5591 90.5521 85.5239C88.0531 83.3682 86.46 80.459 85.4761 77.7538C84.4917 75.0468 84.0891 72.467 84.0238 70.8811C84.0012 70.3293 84.4305 69.8633 84.9823 69.8406Z" fill="#9B1D32"/>
<path d="M26.7575 61.8646C27.1414 61.9093 27.4166 62.2567 27.3721 62.6406C26.7916 67.6252 27.0889 74.9701 29.8075 80.8368C31.1616 83.759 33.1037 86.2875 35.8109 87.994C38.5125 89.6968 42.032 90.6163 46.6076 90.2317C52.3878 89.7458 56.5868 88.1554 59.6311 86.0253C62.6742 83.8959 64.6006 81.2016 65.7968 78.4511C68.2026 72.919 67.646 67.1758 67.2414 65.4949C67.1509 65.119 67.3827 64.7412 67.7586 64.6507C68.1343 64.5604 68.5121 64.7913 68.6027 65.1669C69.0592 67.0635 69.6364 73.1307 67.0801 79.0089C65.7951 81.9635 63.7165 84.8756 60.4344 87.1722C57.1533 89.4681 52.7065 91.1242 46.7251 91.627C41.8914 92.0333 38.06 91.0657 35.0653 89.1781C32.0764 87.2942 29.9754 84.5285 28.5373 81.4252C25.6716 75.2408 25.384 67.61 25.9814 62.4792C26.0261 62.0953 26.3736 61.82 26.7575 61.8646Z" fill="#8D8D8D"/>
<path d="M53.4082 69.3691C53.4082 65.8115 50.5244 62.9278 46.9668 62.9277C43.4092 62.9277 40.5254 65.8115 40.5254 69.3691C40.5255 72.9267 43.4092 75.8105 46.9668 75.8105V77.2109L46.5635 77.2002C42.5536 76.9971 39.338 73.7823 39.1348 69.7725L39.125 69.3691C39.125 65.0383 42.636 61.5273 46.9668 61.5273L47.3701 61.5371C51.5135 61.7471 54.8086 65.1736 54.8086 69.3691L54.7979 69.7725C54.5879 73.9158 51.1623 77.2109 46.9668 77.2109V75.8105C50.5243 75.8105 53.4081 72.9267 53.4082 69.3691Z" fill="#8D8D8D"/>
<path d="M24.9832 62.4384C32.1761 57.9954 41.1076 54.7312 50.8113 55.7382C62.8155 56.984 71.4263 60.9515 78.1189 64.8202C81.4163 66.7263 84.3619 68.6802 86.8621 70.1708C89.4215 71.6967 91.6179 72.8047 93.6785 73.2274C94.0572 73.3051 94.3011 73.6749 94.2234 74.0536C94.1457 74.4322 93.7759 74.6762 93.3972 74.5985C91.0883 74.1249 88.7186 72.9081 86.1453 71.3739C83.5128 69.8045 80.7584 67.9632 77.4178 66.0321C70.8338 62.2262 62.4145 58.35 50.6668 57.1308C41.3685 56.1658 32.7465 59.2877 25.7185 63.6288C18.6892 67.9708 13.3089 73.4997 10.5193 77.244C10.2884 77.554 9.84984 77.6184 9.53983 77.3876C9.22987 77.1567 9.16547 76.7181 9.39627 76.4081C12.2828 72.5336 17.7919 66.8804 24.9832 62.4384Z" fill="#8D8D8D"/>
</svg>
