<svg width="140" height="137" viewBox="0 0 140 137" fill="none" xmlns="http://www.w3.org/2000/svg">
<path d="M70.376 28.3877C92.3184 28.3877 110.106 46.1758 110.106 68.1182C110.106 90.0607 92.3185 107.849 70.376 107.849C48.4336 107.848 30.6455 90.0606 30.6455 68.1182C30.6457 46.1759 48.4337 28.3878 70.376 28.3877Z" stroke="#8D8D8D" stroke-width="1.07678"/>
<path d="M81.2913 105.839C99.3005 118.765 114.638 124.354 120.233 118.759C128.452 110.539 112.536 81.2967 84.6827 53.4435C56.8295 25.5903 27.5869 9.67388 19.3675 17.8933C13.815 23.4457 19.2767 38.5919 31.9918 56.4226" stroke="#9B1D32" stroke-width="1.07678" stroke-linecap="round"/>
<path d="M108.072 55.9931C120.791 38.159 125.785 23.4465 120.232 17.8933C112.013 9.67388 82.7701 25.5903 54.9169 53.4435C27.0636 81.2967 11.1473 110.539 19.3667 118.759C24.9533 124.345 40.2523 118.782 58.2259 105.899" stroke="#8D8D8D" stroke-width="1.07678"/>
</svg>
