<svg width="108" height="120" viewBox="0 0 108 120" fill="none" xmlns="http://www.w3.org/2000/svg">
<path d="M88 118.577V63.5578C88 50.7876 81.6215 38.8611 71 31.7715" stroke="#8D8D8D" stroke-width="1.4" stroke-linecap="round"/>
<path d="M20 118.577V63.5578C20 50.7876 26.3785 38.8611 37 31.7715" stroke="#8D8D8D" stroke-width="1.4" stroke-linecap="round"/>
<path d="M37 26.1543V69.2396C37 78.6284 44.6112 86.2396 54 86.2396C63.3888 86.2396 71 78.6284 71 69.2396V26.1543C71 16.7655 63.3888 9.1543 54 9.1543C44.6112 9.1543 37 16.7655 37 26.1543Z" stroke="#9B1D32" stroke-width="2" stroke-linecap="round"/>
<path d="M80.1865 11.9316C80.2833 11.6707 80.6524 11.6706 80.749 11.9316L81.2852 13.3809C81.9637 15.2147 83.4094 16.6612 85.2432 17.3398L86.6924 17.876C86.9536 17.9726 86.9536 18.3418 86.6924 18.4385L85.2432 18.9746C83.4096 19.6532 81.9638 21.099 81.2852 22.9326L80.749 24.3818C80.6524 24.643 80.2832 24.643 80.1865 24.3818L79.6504 22.9326C78.9717 21.0988 77.5252 19.6532 75.6914 18.9746L74.2422 18.4385C73.9811 18.3418 73.9812 17.9727 74.2422 17.876L75.6914 17.3398C77.5253 16.6612 78.9718 15.2148 79.6504 13.3809L80.1865 11.9316Z" stroke="#8D8D8D" stroke-width="1.4"/>
<path d="M59.667 37.1387C59.7637 36.8777 60.1328 36.8776 60.2295 37.1387L60.3184 37.3789C60.9969 39.2128 62.4425 40.6593 64.2764 41.3379L64.5166 41.4268C64.7778 41.5234 64.7778 41.8926 64.5166 41.9893L64.2764 42.0781C62.4427 42.7567 60.997 44.2025 60.3184 46.0361L60.2295 46.2764C60.1328 46.5375 59.7636 46.5376 59.667 46.2764L59.5781 46.0361C58.8995 44.2023 57.453 42.7567 55.6191 42.0781L55.3789 41.9893C55.1178 41.8926 55.1179 41.5235 55.3789 41.4268L55.6191 41.3379C57.4531 40.6593 58.8995 39.2128 59.5781 37.3789L59.667 37.1387Z" stroke="#8D8D8D" stroke-width="1.4"/>
</svg>
