<svg width="138" height="134" viewBox="0 0 138 134" fill="none" xmlns="http://www.w3.org/2000/svg">
<g clip-path="url(#clip0_3036_695)">
<path d="M88.8564 78.5057C89.298 78.2849 89.8356 78.4632 90.0568 78.9042C93.4287 85.6301 97.3862 95.0259 99.6481 103.755C100.778 108.118 101.497 112.354 101.489 116.026C101.482 119.677 100.758 122.914 98.8529 125.129C95.2077 129.365 90.3508 130.372 85.874 129.954C81.4207 129.538 77.2534 127.713 74.7581 126.151C74.3395 125.889 74.2131 125.338 74.4751 124.92C74.7373 124.502 75.2892 124.375 75.7078 124.637C78.0252 126.087 81.9276 127.791 86.0412 128.175C90.1315 128.557 94.3392 127.634 97.4965 123.964C98.9922 122.226 99.6928 119.505 99.6996 116.023C99.7063 112.562 99.0271 108.49 97.9163 104.203C95.6956 95.6325 91.7933 86.3589 88.4574 79.7047C88.2363 79.2636 88.4149 78.7267 88.8564 78.5057Z" fill="#A5A5A5"/>
<path d="M57.5 30.5306C57.5 16.2797 68.5173 4.00977 77.792 4.00977L78.22 4.01974C87.0612 4.43828 86.8886 17.9357 86.8886 31.9638L86.8812 33.2874C86.7187 46.837 83.978 56.3335 74.9932 56.3336V53.7812C76.8142 53.7812 78.1612 53.2965 79.222 52.495C80.3146 51.6694 81.2753 50.3756 82.0633 48.5032C83.6701 44.6852 84.3331 39.0231 84.3331 31.9638C84.3331 24.7193 84.3632 18.0555 83.3186 13.1762C82.7996 10.7517 82.0715 9.07131 81.1824 8.03026C80.3899 7.10258 79.3775 6.56216 77.792 6.56215C74.2214 6.56215 69.8065 9.00664 66.1574 13.5276C62.5688 17.9736 60.0555 24.0503 60.0555 30.5306C60.0556 37.1875 61.9797 43.1244 64.8746 47.3305C67.7943 51.5723 71.4752 53.7812 74.9932 53.7812V56.3336L74.5589 56.3249C65.6078 55.977 57.7534 44.9177 57.5062 31.1961L57.5 30.5306Z" fill="#9B1D32"/>
<path d="M112.6 63.3227C123.457 72.9578 123.722 86.5216 117.093 93.973C115.351 95.9314 113.287 96.7091 111.025 96.5501C108.826 96.3955 106.512 95.3626 104.168 93.8795C99.4919 90.9208 94.2705 85.8815 89.0504 81.249C88.6812 80.9213 88.6479 80.3563 88.9759 79.9875C89.304 79.6187 89.8697 79.5853 90.239 79.913C95.5681 84.6422 100.612 89.5147 105.126 92.3708C107.377 93.795 109.391 94.6444 111.151 94.7682C112.847 94.8873 114.374 94.3392 115.756 92.786C121.624 86.189 121.653 73.7473 111.412 64.6587C106.164 60.0016 99.7083 58.3679 94.0376 57.8613C93.5457 57.8174 93.1817 57.3835 93.2255 56.8922C93.2695 56.4008 93.7047 56.038 94.1968 56.082C100.063 56.606 106.952 58.3105 112.6 63.3227Z" fill="#A5A5A5"/>
<path d="M51.3791 77.4808C51.6815 77.8707 51.6104 78.4315 51.2201 78.7338C48.8676 80.5553 46.5678 83.1984 44.3469 86.0689C43.2402 87.4992 42.1633 88.9738 41.1141 90.4168C40.0677 91.856 39.0463 93.2688 38.0646 94.5584C36.1332 97.0956 34.2415 99.3151 32.4643 100.339C31.5509 100.866 30.545 101.148 29.5288 100.862C28.5195 100.578 27.7163 99.7928 27.0669 98.6694C25.7979 96.4742 25.0384 93.4076 24.8099 89.9693C24.5805 86.517 24.8827 82.6243 25.7922 78.7321C27.6067 70.9665 31.8778 63.0657 39.3636 58.7491C39.7914 58.5024 40.3388 58.6489 40.5857 59.0761C40.8327 59.5034 40.6861 60.0501 40.2583 60.2968C33.3445 64.2836 29.2803 71.6641 27.534 79.1381C26.663 82.8656 26.3773 86.5819 26.5946 89.8512C26.8127 93.1346 27.5335 95.9023 28.6166 97.7759C29.1431 98.6867 29.6293 99.0341 30.0147 99.1427C30.3933 99.2491 30.8884 99.1855 31.5713 98.7919C32.9873 97.9758 34.6759 96.0584 36.6411 93.4768C37.6078 92.2069 38.6136 90.8138 39.6657 89.3668C40.715 87.9237 41.807 86.4303 42.9317 84.9767C45.1735 82.0791 47.5859 79.2876 50.1245 77.322C50.5149 77.0197 51.0764 77.0908 51.3791 77.4808Z" fill="#A5A5A5"/>
<path d="M84.8614 18.2903C92.4118 12.8177 101.661 10.1862 109.886 10.0888C118.04 9.99232 125.546 12.3977 129.218 17.4504C131.101 20.0419 131.527 22.7729 130.802 25.5275C130.097 28.2062 128.327 30.8278 125.994 33.3768C121.334 38.4673 113.995 43.7122 106.724 48.9825C99.4106 54.2831 92.7801 58.4662 87.0758 60.1254C84.202 60.9613 81.4695 61.1859 78.9592 60.5173C76.4234 59.8417 74.2426 58.2888 72.439 55.8068C72.0246 55.2365 72.1517 54.4384 72.7226 54.0244C73.2938 53.6104 74.0928 53.7372 74.5073 54.3077C76.0158 56.3836 77.7252 57.5469 79.617 58.0509C81.5344 58.5618 83.7683 58.4285 86.3616 57.6742C91.5921 56.1527 97.9004 52.2241 105.223 46.9167C112.586 41.5793 119.665 36.5079 124.107 31.655C126.325 29.2322 127.779 26.9747 128.331 24.8782C128.862 22.8576 128.579 20.9164 127.149 18.9495C124.196 14.8852 117.734 12.5487 109.917 12.6412C102.172 12.7329 93.4472 15.2208 86.3624 20.356C85.7913 20.77 84.9923 20.6431 84.5778 20.0727C84.1633 19.5023 84.2903 18.7042 84.8614 18.2903Z" fill="#9B1D32"/>
<path d="M58.8438 25.5687C50.9191 21.5956 40.598 18.9542 31.8435 19.4353C27.4728 19.6755 23.579 20.689 20.5709 22.6178C17.5954 24.5258 15.4255 27.365 14.5027 31.4217C13.1818 37.2284 16.4638 48.2965 32.284 56.228C40.1488 60.171 49.8821 61.9174 58.0082 61.9671C62.0679 61.9919 65.667 61.5917 68.3879 60.8638C69.749 60.4996 70.8505 60.0639 71.6696 59.5848C72.4991 59.0996 72.9516 58.6219 73.1551 58.2155L75.4407 59.3572C74.9344 60.3686 74.0282 61.1632 72.9613 61.7873C71.884 62.4174 70.5504 62.9282 69.0487 63.33C66.0437 64.1338 62.2035 64.5449 57.9919 64.5192C49.5746 64.4677 39.4339 62.6685 31.1376 58.5091C14.6352 50.2356 10.347 38.166 12.0097 30.8565C13.0838 26.1343 15.6619 22.7323 19.1903 20.4698C22.6865 18.2281 27.0536 17.1413 31.7035 16.8857C40.9904 16.3754 51.7536 19.1581 59.9903 23.2876L58.8438 25.5687Z" fill="#9B1D32"/>
<path d="M85.3468 99.2264C75.0346 114.062 49.3184 120.591 44.8999 116.382C39.679 112.775 42.0024 89.3093 52.3146 74.473L52.7993 73.7865C63.0086 59.5534 74.9889 56.9693 80.9184 59.9281C87.3125 63.1193 95.6588 84.3904 85.3468 99.2264ZM83.8769 98.2073C88.6654 91.3179 89.1795 82.8399 87.6479 75.578C86.8846 71.9594 85.625 68.7131 84.202 66.21C82.7419 63.6417 81.2411 62.0867 80.1188 61.5266C77.7089 60.324 73.7058 60.1347 68.9209 62.1554C64.1763 64.1593 58.7826 68.3014 53.7845 75.4921C48.8213 82.6327 45.7395 91.9309 44.5521 99.9011C43.9591 103.882 43.851 107.449 44.1814 110.184C44.3468 111.552 44.6149 112.655 44.9515 113.477C45.2944 114.315 45.6538 114.731 45.9165 114.913L46.0323 114.993L46.134 115.089C46.3142 115.261 46.7914 115.531 47.784 115.701C48.7388 115.863 49.9893 115.901 51.4928 115.782C54.4945 115.546 58.2877 114.703 62.3089 113.264C70.3925 110.37 79.0146 105.202 83.8769 98.2073Z" fill="#A5A5A5"/>
<path d="M89.3205 45.8472C89.8131 45.8822 90.1839 46.3091 90.1491 46.8012C90.114 47.2932 89.6866 47.6636 89.1939 47.6287C86.5049 47.4387 83.7573 49.107 81.3203 51.5298C78.9141 53.9221 76.9867 56.8781 75.9575 58.8582C75.73 59.296 75.1898 59.4672 74.7514 59.2401C74.313 59.0128 74.1417 58.4733 74.369 58.0354C75.463 55.9306 77.4935 52.8141 80.0584 50.2641C82.5927 47.7445 85.8301 45.6006 89.3205 45.8472Z" fill="#A5A5A5"/>
<path d="M70.1798 28.1826C74.9241 31.7787 76.8482 36.5815 77.1855 41.9677C77.5198 47.3086 76.2986 53.2689 74.744 59.2905C74.6206 59.7682 74.1329 60.0565 73.6545 59.9334C73.1762 59.8101 72.8892 59.3225 73.0126 58.8448C74.564 52.8356 75.7156 47.1149 75.4005 42.0801C75.0882 37.0906 73.3397 32.822 69.0984 29.607C68.705 29.3088 68.6276 28.7478 68.926 28.3548C69.2245 27.9619 69.7863 27.8846 70.1798 28.1826Z" fill="#A5A5A5"/>
<path d="M47.3489 45.7239C47.7224 45.4011 48.2871 45.4417 48.6104 45.8147C52.2884 50.057 57.5118 53.1179 62.6017 55.2178C67.6857 57.3153 72.5631 58.4237 75.4726 58.8001C75.9624 58.8636 76.3081 59.312 76.2447 59.8012C76.1811 60.2904 75.7321 60.6356 75.2423 60.5723C72.1809 60.1762 67.1512 59.0284 61.9187 56.8696C56.6918 54.7131 51.1882 51.5171 47.2581 46.9838C46.9348 46.6108 46.9755 46.0469 47.3489 45.7239Z" fill="#A5A5A5"/>
<path d="M71.159 28.5901C70.3301 30.1144 68.4209 30.6789 66.8947 29.8509C65.3686 29.023 64.8034 27.1162 65.6323 25.5919C66.4613 24.0677 68.3705 23.5032 69.8966 24.3311C71.4228 25.1591 71.988 27.0659 71.159 28.5901Z" fill="#A5A5A5"/>
<path d="M49.4368 45.181C48.6079 46.7052 46.6987 47.2697 45.1725 46.4418C43.6464 45.6138 43.0812 43.707 43.9102 42.1828C44.7391 40.6585 46.6483 40.094 48.1745 40.922C49.7006 41.7499 50.2658 43.6567 49.4368 45.181Z" fill="#A5A5A5"/>
<path d="M92.791 49.4287C91.2208 50.2321 89.2959 49.612 88.4915 48.0438C87.6871 46.4755 88.3079 44.553 89.8781 43.7496C91.4483 42.9462 93.3733 43.5662 94.1777 45.1345C94.982 46.7027 94.3612 48.6253 92.791 49.4287Z" fill="#A5A5A5"/>
</g>
<defs>
<clipPath id="clip0_3036_695">
<rect width="138" height="134" fill="white"/>
</clipPath>
</defs>
</svg>
