<svg width="186" height="181" viewBox="0 0 186 181" fill="none" xmlns="http://www.w3.org/2000/svg">
<path d="M97.1042 84.8834L96.6349 86.2028L83.6825 81.5966L84.1518 80.2772L97.1042 84.8834ZM89.681 65.9594C91.6035 66.697 93.3749 67.7832 94.9051 69.1647C96.5375 70.6385 97.8638 72.4199 98.808 74.4063C99.7521 76.3926 100.296 78.5459 100.408 80.7423C100.469 81.9369 100.402 83.1318 100.209 84.3065C99.9412 85.9415 98.196 86.758 96.6349 86.2028L97.1042 84.8834C98.0162 85.2077 98.7291 84.6803 98.8277 84.0795C99.0042 83.0029 99.0657 81.9077 99.0098 80.813C98.907 78.8003 98.4084 76.8277 97.5432 75.0075C96.678 73.1872 95.4632 71.5551 93.9673 70.2045C92.4714 68.854 90.7239 67.8115 88.8251 67.1361C86.9261 66.4608 84.9121 66.1656 82.8993 66.2684C80.8865 66.3712 78.9139 66.8699 77.0937 67.7351C75.2735 68.6003 73.6413 69.8151 72.2908 71.311C71.5562 72.1246 70.9124 73.0127 70.3696 73.959C70.0666 74.4871 70.2864 75.3463 71.1985 75.6706L70.7292 76.99L70.5852 76.9347C69.1649 76.3466 68.4065 74.762 69.0825 73.3986L69.1547 73.2626C69.6731 72.359 70.2756 71.5039 70.9551 70.7095L71.2509 70.3732C72.6326 68.8428 74.2846 67.5813 76.1223 66.6516L76.4925 66.4703C78.3547 65.5851 80.3633 65.0522 82.417 64.8966L82.8286 64.8699C85.0249 64.7578 87.2223 65.0798 89.2943 65.8167L89.681 65.9594ZM84.1518 80.2772L83.6825 81.5966L70.7292 76.99L71.1985 75.6706L84.1518 80.2772Z" fill="#9B1D32"/>
<path d="M113.594 7.129C114.048 5.7667 113.311 4.29453 111.949 3.84059L109.208 2.92708C107.845 2.47314 106.373 3.20925 105.92 4.57155L103.066 13.1359L110.741 15.6934L113.594 7.129ZM111.626 17.4644L101.294 14.0218L104.591 4.12885C105.267 2.09856 107.414 0.971626 109.453 1.538L109.65 1.59851L112.392 2.51201C114.488 3.21039 115.621 5.47555 114.922 7.5714L111.626 17.4644Z" fill="#9B1D32"/>
<path d="M83.666 153.037L82.8291 160.668H81.4219L82.3535 152.174L83.666 153.037Z" fill="#A5A5A5"/>
<path d="M86.1826 130.114L84.793 142.774L83.4795 141.91L84.8203 129.692L86.1826 130.114Z" fill="#A5A5A5"/>
<path d="M109.657 33.6963C123.302 38.3094 135.067 47.2522 143.162 59.165C151.258 71.0781 155.241 85.3096 154.507 99.6943C153.808 113.369 148.879 126.468 140.434 137.201L140.019 135.45C147.867 125.113 152.444 112.634 153.108 99.623C153.827 85.5429 149.928 71.613 142.004 59.9521C134.342 48.6777 123.323 40.1212 110.529 35.4854L108.521 41.4229C107.983 41.4529 107.46 41.5398 106.958 41.6768L109.657 33.6963Z" fill="#A5A5A5"/>
<path d="M116.215 51.0293C128.446 58.5685 136.602 72.083 136.602 87.5078C136.602 109.433 120.125 127.508 98.8789 130.032C98.8978 129.979 98.9167 129.926 98.9336 129.871L99.3379 128.562C119.586 125.844 135.201 108.501 135.201 87.5078C135.201 72.6798 127.411 59.6717 115.7 52.3525C115.912 51.9323 116.084 51.4899 116.215 51.0293Z" fill="#A5A5A5"/>
<path d="M115.103 48.9638C115.103 45.5652 112.348 42.8105 108.949 42.8105C105.551 42.8108 102.796 45.5654 102.796 48.9638C102.796 52.3625 105.551 55.1179 108.949 55.1181V56.5185L108.561 56.5087C104.569 56.3062 101.396 53.0054 101.396 48.9638C101.396 44.7922 104.778 41.4104 108.949 41.4102C113.121 41.4102 116.504 44.792 116.504 48.9638L116.494 49.3535C116.292 53.3446 112.991 56.5185 108.949 56.5185V55.1181C112.348 55.1181 115.103 52.3627 115.103 48.9638Z" fill="#A5A5A5"/>
<path d="M94.3437 131.173L93.9299 132.511L47.2076 118.059L47.6214 116.721L94.3437 131.173ZM97.5963 129.458L98.5327 126.43C98.957 125.058 98.1883 123.603 96.8164 123.178L50.0941 108.727C48.7223 108.303 47.2667 109.07 46.8424 110.442L45.906 113.47C45.4819 114.841 46.2497 116.297 47.6214 116.721L47.2076 118.059L47.0124 117.993C45.0891 117.289 44.0066 115.238 44.5122 113.253L44.5682 113.056L45.5046 110.028C46.1369 107.984 48.2589 106.811 50.3096 107.333L50.5079 107.389L97.2302 121.84C99.3407 122.493 100.522 124.733 99.8697 126.844L98.9333 129.871L98.868 130.066C98.1647 131.989 96.1133 133.071 94.1285 132.566L93.9299 132.511L94.3437 131.173C95.7154 131.597 97.1719 130.829 97.5963 129.458Z" fill="#A5A5A5"/>
<path d="M132.439 127.97C135.364 127.062 138.445 128.821 139.152 131.8L148.642 171.787C149.43 175.109 146.91 178.297 143.496 178.297H43.1523C40.2316 178.297 37.8635 175.93 37.8633 173.009V165.957C37.8633 163.036 40.2315 160.668 43.1523 160.668H101.705L111.346 136.565C111.938 135.084 113.167 133.95 114.689 133.478L132.439 127.97ZM137.79 132.123C137.27 129.933 135.005 128.64 132.854 129.307L115.104 134.815C113.985 135.162 113.081 135.997 112.646 137.085L102.653 162.068H43.1523C41.0047 162.068 39.2637 163.81 39.2637 165.957V173.009C39.2639 175.156 41.0046 176.898 43.1523 176.898H143.496L143.729 176.891C146.12 176.751 147.841 174.477 147.279 172.11L137.79 132.123Z" fill="#9B1D32"/>
<path d="M86.3543 153.129L85.5848 154.299L66.819 141.959L67.5885 140.789L86.3543 153.129ZM90.7824 152.215C91.7523 150.74 91.3424 148.758 89.8673 147.787L71.1015 135.447C69.6263 134.477 67.6449 134.886 66.6747 136.361C65.7046 137.836 66.1135 139.818 67.5885 140.789L66.819 141.959L66.6248 141.824C64.6631 140.386 64.1532 137.647 65.5046 135.592C66.8996 133.471 69.7497 132.882 71.8709 134.277L90.6367 146.617L90.831 146.752C92.7927 148.19 93.3028 150.929 91.9517 152.984C90.6002 155.039 87.8827 155.656 85.7855 154.424L85.5848 154.299L86.3543 153.129C87.8296 154.1 89.8123 153.69 90.7824 152.215Z" fill="#A5A5A5"/>
<path d="M50.8194 126.344C51.0078 125.255 52.1412 124.666 53.1964 124.992L79.0597 132.996C80.0488 133.302 80.6395 134.312 80.3312 135.265L80.2579 135.454C79.7543 136.555 79.1215 137.595 78.3741 138.553L77.1983 137.779C77.9094 136.884 78.5114 135.909 78.9854 134.872C79.0259 134.783 79.0242 134.695 78.9757 134.599C78.9219 134.492 78.8099 134.384 78.6456 134.333L52.7833 126.328C52.6191 126.277 52.4653 126.303 52.3604 126.361C52.2655 126.414 52.215 126.486 52.1983 126.582C51.9863 127.807 51.9375 129.057 52.0528 130.3C52.2244 132.148 52.7582 133.946 53.6241 135.588C54.49 137.23 55.6715 138.684 57.0997 139.87C58.5281 141.056 60.176 141.949 61.9493 142.498C63.7225 143.047 65.5864 143.241 67.4347 143.069C67.7363 143.041 68.0366 143.001 68.3351 142.954L69.9874 144.041C69.1939 144.245 68.3841 144.388 67.5646 144.464C65.5332 144.652 63.4842 144.439 61.5353 143.836C59.5862 143.233 57.7741 142.251 56.2042 140.948C54.6344 139.645 53.3375 138.045 52.3858 136.24C51.4342 134.435 50.8469 132.461 50.6583 130.43C50.5315 129.064 50.5865 127.69 50.8194 126.344Z" fill="#A5A5A5"/>
<path d="M92.9051 26.4076L81.3475 60.2122C80.8835 61.5707 81.6082 63.0485 82.9666 63.513L95.2635 67.7171C96.622 68.1815 98.0995 67.4563 98.5643 66.098L102.883 53.4652C103.2 53.8928 103.563 54.2847 103.963 54.6361L99.8894 66.5511L99.8182 66.7445C99.0582 68.6456 96.976 69.6669 95.0076 69.1038L94.8103 69.0423L82.5135 64.8382L82.3201 64.7659C80.4184 64.006 79.397 61.9233 79.9607 59.9544L80.0223 59.7591L91.5818 25.9486L92.9051 26.4076Z" fill="#9B1D32"/>
<path d="M111.42 32.8245L108.479 41.4251C107.938 41.4584 107.413 41.5496 106.909 41.6908L110.096 32.3656L111.42 32.8245Z" fill="#9B1D32"/>
<path d="M95.3904 14.8109C96.1051 12.7206 98.3792 11.605 100.47 12.3197L112.766 16.5238L112.96 16.5951C114.925 17.3802 115.95 19.578 115.258 21.6029L114.851 22.7874L113.528 22.3294L113.932 21.1497C114.397 19.7912 113.672 18.3135 112.313 17.849L100.016 13.6449C98.6577 13.1804 97.1802 13.9053 96.7156 15.264L96.3367 16.3704L95.0135 15.9115L95.3904 14.8109Z" fill="#9B1D32"/>
<path d="M113.229 31.9702L112.771 33.2925L88.6984 24.9487L89.1567 23.6265L113.229 31.9702ZM116.538 30.3647L117.392 27.902C117.862 26.5453 117.143 25.0643 115.786 24.5941L91.7134 16.2503C90.3566 15.7801 88.876 16.4985 88.4058 17.8552L87.5522 20.3179C87.0819 21.6747 87.8 23.1562 89.1567 23.6265L88.6984 24.9487C86.6111 24.2252 85.5055 21.9466 86.229 19.8593L87.0826 17.3966C87.8061 15.3093 90.0847 14.2037 92.172 14.9272L116.245 23.2709C118.332 23.9944 119.437 26.273 118.714 28.3603L117.86 30.823C117.137 32.9103 114.858 34.0159 112.771 33.2925L113.229 31.9702C114.586 32.4405 116.068 31.7215 116.538 30.3647Z" fill="#9B1D32"/>
<path d="M90.219 83.9199L90.7796 94.5488C90.8556 95.9823 92.0793 97.0844 93.513 97.0088L94.9602 96.9316C96.3935 96.8557 97.4952 95.6325 97.4202 94.1992L97.0032 86.3066C97.4802 86.4107 97.9614 86.3925 98.4026 86.2695L98.8176 94.125L98.8235 94.3301C98.8276 96.3777 97.2761 98.1019 95.2395 98.3135L95.0335 98.3301L93.5862 98.4072L93.3801 98.4121C91.3325 98.416 89.608 96.8639 89.3967 94.8271L89.3811 94.623L88.7893 83.4111L90.219 83.9199Z" fill="#9B1D32"/>
<path d="M80.8469 80.5869L77.3997 90.4658C76.9271 91.8214 77.6427 93.3034 78.9983 93.7764L80.3665 94.2539C81.7219 94.7265 83.2048 94.0114 83.678 92.6562L87.1106 82.8145L88.429 83.2832L84.9993 93.1172L84.927 93.3096C84.1554 95.2062 82.0669 96.2141 80.1018 95.6387L79.9055 95.5762L78.5364 95.0986L78.344 95.0254C76.4474 94.2536 75.4392 92.1653 76.0149 90.2002L76.0774 90.0049L79.5266 80.1172L80.8469 80.5869Z" fill="#9B1D32"/>
<path d="M69.761 76.418C70.0362 76.6604 70.362 76.8585 70.7298 76.9893L71.0227 77.0928L65.9378 83.1426C65.0141 84.2417 65.1561 85.8817 66.2551 86.8057L67.3645 87.7383C68.4635 88.6616 70.1037 88.5203 71.0276 87.4219L77.7102 79.4717L79.1174 79.9717L72.0989 88.3223L71.9632 88.4766C70.5679 89.9751 68.2575 90.1744 66.6253 88.9385L66.4632 88.8105L65.3538 87.8779L65.2005 87.7402C63.7018 86.3448 63.501 84.0346 64.7376 82.4023L64.8665 82.2422L69.761 76.418Z" fill="#9B1D32"/>
</svg>
