<svg width="108" height="105" viewBox="0 0 108 105" fill="none" xmlns="http://www.w3.org/2000/svg">
<path d="M56.0421 10.5703C54.7693 11.3536 52.4 13.2725 53.1049 14.6823C53.9861 16.4446 58.0981 16.1509 56.6295 18.2069C55.1609 20.2629 53.1049 22.3189 53.6924 23.2001" stroke="#8D8D8D" stroke-width="1.4" stroke-linecap="round"/>
<path d="M66.9075 10.5718C66.0263 8.12415 62.678 3.40513 56.3337 4.11005C48.4034 4.99119 50.4594 7.04721 48.6971 7.63464C46.9348 8.22207 44.2914 7.63464 43.9977 8.51578C43.704 9.39693 45.1725 10.5718 43.9977 11.1592C43.0578 11.6292 42.4312 12.7257 42.2354 13.2152C41.5501 13.5089 40.2381 14.3901 40.4731 15.5649C40.7668 17.0335 45.1725 17.621 44.5851 22.9078" stroke="#8D8D8D" stroke-width="1.4" stroke-linecap="round"/>
<path d="M56.0455 5.2832C55.458 6.55597 54.4594 9.39522 55.1643 10.5701" stroke="#8D8D8D" stroke-width="1.4" stroke-linecap="round"/>
<path d="M67.501 24.668C68.2842 25.9407 69.3808 28.78 67.501 29.9548C65.1513 31.4234 62.8015 30.5423 63.0953 32.0109C63.3302 33.1857 64.368 34.6543 64.8576 35.2417" stroke="#8D8D8D" stroke-width="1.4" stroke-linecap="round"/>
<path d="M93.6953 57.8588C95.7513 57.4672 100.807 56.9189 101.277 57.8588C101.865 59.0337 105.683 79.5938 105.389 88.1115C105.095 96.6293 103.921 99.5664 102.158 100.741" stroke="#9B1D32" stroke-width="2" stroke-linecap="round"/>
<path d="M42.1797 27.4766C40.7111 29.043 36.7754 32.646 32.7808 34.5257C27.7877 36.8755 25.7826 41.1169 25.1951 46.1101C24.7552 49.8497 24.1093 53.7095 23.7876 55.4722C23.7485 55.6869 23.7745 55.9113 23.9082 56.0838C24.7455 57.1632 27.7252 59.1352 34.594 60.2084C39.9878 61.0512 43.185 61.3398 44.8145 61.3995C45.5715 61.4272 46.1986 60.9287 46.5016 60.2344C46.9995 59.0933 47.8344 57.448 48.9861 55.8027C50.6309 53.453 50.8463 51.1033 50.7484 50.2221" stroke="#9B1D32" stroke-width="2" stroke-linecap="round"/>
<path d="M43.2943 35.2754C41.0425 37.8209 36.8415 42.0572 38.7212 45.8168C40.601 49.5764 45.5415 49.8192 48.4787 49.6234" stroke="#9B1D32" stroke-width="2" stroke-linecap="round"/>
<path d="M24.0078 59.127C24.1057 61.5746 24.727 65.025 26.3718 67.8447C28.4278 71.3693 30.5906 73.8785 30.5906 76.5219" stroke="#8D8D8D" stroke-width="1.4" stroke-linecap="round"/>
<path d="M35.4766 36.4186C37.5326 35.7332 42.8782 33.4814 47.8126 29.9568C53.9806 25.5511 55.1555 25.5511 60.1486 18.2082C65.1418 10.8653 70.135 8.51562 71.8973 8.51562C73.6596 8.51562 88.3453 18.2082 91.8699 21.7328" stroke="#8D8D8D" stroke-width="1.4" stroke-linecap="round"/>
<path d="M93.6328 22.3203C94.7098 22.4182 97.1574 23.2015 98.3323 25.5512C99.5071 27.9009 99.6342 29.9988 99.6342 31.2715" stroke="#8D8D8D" stroke-width="1.59" stroke-linecap="round"/>
<path d="M63.6719 5.28431C64.4551 4.10944 66.609 2.11218 68.9588 3.52201C71.8959 5.28431 73.6582 7.63401 76.5953 9.10259C78.9451 10.2775 81.6864 13.3125 82.7634 14.6832" stroke="#8D8D8D" stroke-width="1.4" stroke-linecap="round"/>
<path d="M51.4609 48.4933C52.2442 47.808 53.8603 46.6967 54.5653 44.347C55.2702 41.9972 57.0129 39.4517 57.7961 38.4727" stroke="#8D8D8D" stroke-width="1.4" stroke-linecap="round"/>
<path d="M45.4721 62.5586C44.8846 63.9293 44.9434 67.0231 49.8778 68.4329C56.0458 70.1952 62.2139 70.1952 64.8573 74.8946C66.9721 78.6542 67.1091 80.3773 66.9133 80.7689" stroke="#9B1D32" stroke-width="2" stroke-linecap="round"/>
<path d="M68.3828 80.1816C69.3619 80.867 72.7298 82.4139 78.3691 83.1188C84.0085 83.8237 90.3136 86.7413 92.7612 88.112" stroke="#9B1D32" stroke-width="2" stroke-linecap="round"/>
<path d="M44 88.6992C47.0351 91.5385 56.6298 97.5107 70.7281 98.6855C84.8264 99.8604 95.9876 100.546 99.8059 100.742" stroke="#9B1D32" stroke-width="2" stroke-linecap="round"/>
<path d="M94.5147 90.4618C93.242 88.9932 90.9902 83.6476 92.165 74.0137C93.3399 64.3799 93.6336 59.23 93.6336 57.8594" stroke="#9B1D32" stroke-width="2" stroke-linecap="round"/>
<path d="M46.0576 68.1387C45.1765 69.4114 42.6505 72.3094 39.5959 73.7193C36.5412 75.1291 32.6446 77.6355 31.0781 78.7124C31.176 80.2789 32.4292 84.1168 36.6587 86.9365C40.8882 89.7561 42.533 91.2443 42.8267 91.6359" stroke="#9B1D32" stroke-width="2" stroke-linecap="round"/>
<path d="M57.5078 36.343C58.7806 35.1681 61.9133 32.4822 63.0882 29.6625C64.263 26.8429 68.735 21.6647 71.1826 19.1191" stroke="#8D8D8D" stroke-width="1.4" stroke-linecap="round"/>
<path d="M72.4844 17.3262C72.7781 17.6199 72.8956 18.2073 79.2398 20.557C87.1701 23.4942 88.9325 23.7879 90.9885 27.3125C92.6333 30.1322 97.5481 32.5994 99.7999 33.4805" stroke="#8D8D8D" stroke-width="1.4" stroke-linecap="round"/>
<path d="M95.1088 32.8926C95.5004 34.0674 96.0487 36.8871 95.1088 38.7669C94.1689 40.6467 94.3256 42.0957 94.5214 42.5852C93.2486 44.2496 90.7031 47.9895 90.7031 49.6344C90.7031 51.2792 92.6612 53.061 93.6403 53.7464C93.6403 54.8934 93.6403 54.4187 93.6403 55.5657" stroke="#8D8D8D" stroke-width="1.4" stroke-linecap="round"/>
<path d="M98.625 34.9492C98.7229 36.5157 99.1537 40.2948 100.094 42.8795C101.033 45.4642 101.167 51.5089 101.167 54.9356" stroke="#8D8D8D" stroke-width="1.4" stroke-linecap="round"/>
<path d="M45.5 35.5386C45.8916 35.7345 47.648 36.0565 50.2327 33.7068C52.8174 31.3571 52.6581 30.3467 52.756 29.9551" stroke="#8D8D8D" stroke-width="1.4" stroke-linecap="round"/>
<path d="M29.6063 80.1822C26.2775 79.9864 18.7975 79.8884 15.5079 81.0633C11.3959 82.5319 3.17186 84.0004 3.17188 88.1124C3.17189 91.6856 4.34672 95.749 12.5708 96.6302C20.7948 97.5113 32.2497 97.2176 34.012 98.0987M11.3959 87.525C12.375 86.9376 15.6841 85.9389 21.0885 86.6438C25.7666 87.254 32.8363 89.6689 37.0015 91.2594C37.7421 91.5422 37.8724 92.5633 37.3375 93.1485C36.5815 93.9754 35.924 95.0348 36.068 96.0427" stroke="#9B1D32" stroke-width="2" stroke-linecap="round"/>
<path d="M36.3594 98.686C40.0798 99.7629 46.5907 101.713 52.23 96.3087" stroke="#8D8D8D" stroke-width="1.4" stroke-linecap="round"/>
</svg>
