<svg width="140" height="137" viewBox="0 0 140 137" fill="none" xmlns="http://www.w3.org/2000/svg">
<g clip-path="url(#clip0_3015_24734)">
<path d="M31.2812 88.4883C32.0994 88.8343 33.4901 90.1305 32.5084 92.5472C31.2812 95.568 42.8919 103.969 43.0807 111.993C43.2317 118.412 42.6402 123.792 42.3255 125.68" stroke="#8D8D8D" stroke-width="1.07678" stroke-linecap="round"/>
<path d="M53.0938 103.853C55.721 109.467 61.1914 114.479 62.0552 122.253C62.9189 130.027 59.4094 133.548 59.0496 133.943" stroke="#9B1D32" stroke-width="1.07678" stroke-linecap="round"/>
<path d="M72.0059 61.1659C72.6348 60.9563 74.3861 60.7789 76.3599 61.7464C78.8272 62.9558 81.2462 64.3102 84.3908 63.7781C87.5354 63.2459 89.1319 62.5686 90.6316 62.7621" stroke="#8D8D8D" stroke-width="1.07678" stroke-linecap="round"/>
<path d="M57.9767 59.4719C58.2992 58.8269 58.3928 57.4692 56.1867 57.1981C53.4291 56.8593 49.462 58.311 47.4785 57.1981" stroke="#8D8D8D" stroke-width="1.07678" stroke-linecap="round"/>
<path d="M67.2659 90.2412C66.1693 90.6443 62.6312 91.0443 57.2515 89.4187C51.8718 87.7932 50.3979 86.2258 50.3334 85.6452M49.2207 83.6619C50.7043 82.4201 54.0295 80.0622 55.4615 80.5655C57.2515 81.1945 56.0904 81.2911 57.8321 82.0652C59.5737 82.8393 59.6221 81.2911 61.2669 82.0652C62.9118 82.8393 68.9505 88.7893 70.5233 88.1602C72.1232 87.5202 68.2818 91.3055 62.0894 86.8063C61.6701 86.4031 60.5896 85.6065 59.6221 85.6452C58.4126 85.6936 57.2515 85.6452 56.4775 84.9679C55.7034 84.2906 54.0585 85.4033 51.6396 84.9679C49.7045 84.6196 49.2207 83.9521 49.2207 83.6619Z" stroke="#8D8D8D" stroke-width="1.07678" stroke-linecap="round"/>
<path d="M92.7127 57.972C91.471 55.408 88.0199 50.2509 84.1496 50.1348C79.3118 49.9896 71.039 50.1349 71.0391 52.1666C71.0391 53.9415 82.2145 52.1666 84.6335 52.6988C86.5686 53.1245 88.2457 54.65 88.8424 55.3596" stroke="#8D8D8D" stroke-width="1.07678" stroke-linecap="round"/>
<path d="M51.7109 45.6162C53.9487 46.2666 58.5046 47.9232 58.8259 49.3461C59.1472 50.769 57.8122 50.8569 57.1045 50.723L52.2273 47.1082" stroke="#8D8D8D" stroke-width="1.07678" stroke-linecap="round"/>
<path d="M62.7237 73.8801L62.9207 74.9829C62.2248 75.0617 60.9592 75.0145 61.4633 74.1953C62.0935 73.1712 64.9688 73.4075 64.89 75.9283" stroke="#8D8D8D" stroke-width="1.07678" stroke-linecap="round"/>
<path d="M58.5581 51.0918C59.4355 52.2618 61.1137 54.9637 60.8066 56.4116C60.4227 58.2214 54.3351 69.8481 54.4448 71.4385C54.5326 72.7109 55.1761 74.1624 55.4868 74.7291C55.4686 73.5774 55.6623 71.4495 56.5837 72.1515C57.5051 72.8535 57.9182 73.4677 58.0096 73.6871" stroke="#8D8D8D" stroke-width="1.07678" stroke-linecap="round"/>
<path d="M40.7473 75.1914C40.5961 83.3578 42.804 100.326 52.8457 102.866C65.3979 106.042 78.1533 100.822 82.8415 97.419C86.592 94.6968 89.0923 90.2355 89.8737 88.3452" stroke="#9B1D32" stroke-width="1.07678" stroke-linecap="round"/>
<path d="M91.6746 86.9356C93.2345 88.0744 97.0463 88.8867 99.8146 83.0257C102.583 77.1648 102.415 72.9116 101.986 71.5177" stroke="#9B1D32" stroke-width="1.07678" stroke-linecap="round"/>
<path d="M96.9517 89.5215C95.6893 93.3458 93.5433 102.286 95.0581 107.455" stroke="#9B1D32" stroke-width="1.07678" stroke-linecap="round"/>
<path d="M69.6035 131.867C77.1973 122.006 91.4723 110.483 102.874 110.483C114.165 110.483 124.096 121.651 129.566 128.993" stroke="#8D8D8D" stroke-width="1.07678" stroke-linecap="round"/>
<path d="M22.0289 133.184C25.8438 130.593 32.5451 123.251 28.8309 114.613C24.1883 103.816 17.8181 97.1223 18.4659 91.4C19.1138 85.6777 18.7897 76.5002 22.0289 75.3125C25.268 74.1249 38.6561 70.5621 40.8154 68.8346C42.9748 67.1071 44.1624 67.1073 44.2704 68.8346C44.3568 70.2165 43.5146 71.3538 43.0828 71.7498M19.7642 93.8689C21.1172 90.0302 24.3896 82.0695 26.6551 80.9367C29.487 79.5208 33.2628 78.1049 34.9619 78.7656C36.661 79.4264 40.0593 81.5031 39.3985 82.919C38.8699 84.0518 38.2343 84.3979 37.9826 84.4294C36.7869 84.5867 34.0935 84.5049 32.8852 82.919M37.9826 67.8157C38.6748 67.0985 39.1153 65.0594 37.9826 63.8511C36.5666 62.3408 33.074 65.9195 26.6551 68.8346C20.2362 71.7498 20.7082 72.913 20.9914 73.6682M18.4659 80.9367C18.0177 78.7342 16.8946 74.1968 15.9884 73.6682C14.8557 73.0074 28.5431 62.8127 29.5814 60.6416C30.4121 58.9048 32.1301 59.9179 32.8852 60.6416" stroke="#8D8D8D" stroke-width="1.07678" stroke-linecap="round"/>
<path d="M33.8305 84.2402C32.8865 85.0899 30.6965 86.7327 29.4883 86.506" stroke="#8D8D8D" stroke-width="1.07678" stroke-linecap="round"/>
<path d="M20.6094 54.967C23.5134 58.2582 30.8703 61.8012 37.0655 49.6431C44.8095 34.4454 50.908 13.3429 64.944 12.7621C78.9801 12.1813 78.4055 21.2086 75.2049 24.7655C72.0042 28.3223 62.9833 25.8713 54.9736 31.6384C46.9638 37.4054 49.2623 67.1642 41.3247 74.3274C34.984 80.0495 24.3846 77.909 24.3846 77.909" stroke="#9B1D32" stroke-width="1.07678"/>
<path d="M26.707 49.1591C30.3209 46.7713 34.3184 39.7571 37.2583 34.8326C41.1303 28.3468 53.7087 -4.54301 81.7865 5.98612C102.695 13.8269 96.3065 26.8949 89.7241 28.3469C83.1417 29.7988 78.6888 26.669 76.7528 26.2173" stroke="#8D8D8D" stroke-width="1.07678" stroke-linecap="round"/>
<path d="M120.798 87.2989C124.734 82.0395 130.845 69.449 123.798 61.1629C114.989 50.8052 117.99 38.8985 107.342 35.5107C96.6942 32.1229 95.823 25.0564 89.3373 30.6707C82.8516 36.285 100.857 48.5789 100.76 58.1621C100.663 67.7454 100.373 70.843 107.342 76.0702C112.918 80.252 110.892 91.3002 109.181 96.3015" stroke="#8D8D8D" stroke-width="1.07678" stroke-linecap="round"/>
<path d="M99.3844 38.2998C97.8993 41.01 96.7112 47.8563 103.84 53.5594C112.751 60.6883 120.214 67.5942 118.988 75.0571C117.763 82.52 110.3 91.2081 117.986 98.8937C124.134 105.042 123.889 111.406 122.998 113.819" stroke="#8D8D8D" stroke-width="1.07678" stroke-linecap="round"/>
</g>
<defs>
<clipPath id="clip0_3015_24734">
<rect width="136.989" height="133.184" fill="white" transform="translate(1.10938 1.77734)"/>
</clipPath>
</defs>
</svg>
