<svg width="140" height="137" viewBox="0 0 140 137" fill="none" xmlns="http://www.w3.org/2000/svg">
<path d="M20.9951 27.9531H119.007C125.625 27.9534 130.744 33.7566 129.919 40.3232L119.851 120.445C119.159 125.946 114.482 130.072 108.938 130.072H31.0645C25.5204 130.072 20.8427 125.946 20.1514 120.445L10.083 40.3232C9.25786 33.7566 14.3768 27.9534 20.9951 27.9531Z" stroke="#8D8D8D" stroke-width="1.07678"/>
<mask id="path-2-inside-1_3015_24787" fill="white">
<path d="M112.727 45.6044C113.848 44.9977 114.269 43.5941 113.611 42.503C109.378 35.4871 103.46 29.6217 96.3809 25.448C88.6378 20.8831 79.7972 18.5145 70.8091 18.5968C61.821 18.6791 53.0252 21.209 45.3669 25.9149C38.3651 30.2174 32.5562 36.1901 28.4521 43.2823C27.8138 44.3853 28.2606 45.7809 29.3921 46.3671L51.7723 57.9601C52.9039 58.5462 54.2855 58.0945 55.0003 57.0395C56.5595 54.7378 58.595 52.7857 60.9786 51.321C64.0198 49.4523 67.5127 48.4476 71.082 48.4149C74.6513 48.3823 78.162 49.3229 81.2368 51.1356C83.6469 52.5565 85.7177 54.471 87.3188 56.7437C88.0527 57.7855 89.4424 58.2118 90.563 57.6051L112.727 45.6044Z"/>
</mask>
<path d="M112.727 45.6044C113.848 44.9977 114.269 43.5941 113.611 42.503C109.378 35.4871 103.46 29.6217 96.3809 25.448C88.6378 20.8831 79.7972 18.5145 70.8091 18.5968C61.821 18.6791 53.0252 21.209 45.3669 25.9149C38.3651 30.2174 32.5562 36.1901 28.4521 43.2823C27.8138 44.3853 28.2606 45.7809 29.3921 46.3671L51.7723 57.9601C52.9039 58.5462 54.2855 58.0945 55.0003 57.0395C56.5595 54.7378 58.595 52.7857 60.9786 51.321C64.0198 49.4523 67.5127 48.4476 71.082 48.4149C74.6513 48.3823 78.162 49.3229 81.2368 51.1356C83.6469 52.5565 85.7177 54.471 87.3188 56.7437C88.0527 57.7855 89.4424 58.2118 90.563 57.6051L112.727 45.6044Z" fill="white" stroke="#9B1D32" stroke-width="2.15357" mask="url(#path-2-inside-1_3015_24787)"/>
<path d="M57.2564 37.0351C57.0404 37.1223 56.8251 37.2115 56.6111 37.3026L54.8418 33.1474C55.082 33.0452 55.3234 32.9454 55.5658 32.8475L57.2564 37.0351ZM86.9575 32.8475C87.1999 32.9454 87.4413 33.0452 87.6815 33.1474L86.798 35.2254L86.7972 35.2247L85.913 37.3026C85.6989 37.2115 85.4837 37.1223 85.2676 37.0351L86.9575 32.8475ZM71.6553 29.8147L71.6148 34.3301C71.4975 34.329 71.3797 34.3286 71.262 34.3286C71.1444 34.3286 71.0266 34.329 70.9092 34.3301L70.868 29.8147C70.9992 29.8135 71.1305 29.8125 71.262 29.8125C71.3932 29.8125 71.5243 29.8135 71.6553 29.8147Z" fill="#8D8D8D"/>
<path d="M69.7295 63.5918C70.4104 62.4125 72.1121 62.4125 72.793 63.5918L83.0166 81.2988C83.6972 82.4781 82.8461 83.9521 81.4844 83.9521H61.0381C59.6764 83.9521 58.8253 82.4781 59.5059 81.2988L69.7295 63.5918Z" stroke="#9B1D32" stroke-width="1.07678"/>
</svg>
