<svg width="186" height="181" viewBox="0 0 186 181" fill="none" xmlns="http://www.w3.org/2000/svg">
<path d="M93 9.55762C96.9375 9.55779 100.773 11.6895 104.346 15.7305C107.917 19.7706 111.165 25.6568 113.907 32.9902C119.39 47.6526 122.795 67.9558 122.795 90.416C122.795 112.876 119.39 133.179 113.907 147.842C111.165 155.175 107.917 161.061 104.346 165.102C100.773 169.143 96.9375 171.274 93 171.274C89.0623 171.274 85.2258 169.143 81.6533 165.102C78.0819 161.061 74.8339 155.175 72.0918 147.842C66.6094 133.179 63.2041 112.876 63.2041 90.416C63.2041 67.9558 66.6094 47.6526 72.0918 32.9902C74.8339 25.6568 78.0819 19.7706 81.6533 15.7305C85.2258 11.6894 89.0623 9.55762 93 9.55762Z" stroke="#8D8D8D" stroke-width="1.4"/>
<path d="M150.176 33.2407C152.96 36.0251 154.165 40.2449 153.834 45.6282C153.503 51.0104 151.637 57.4692 148.391 64.5938C141.899 78.8383 129.951 95.6027 114.069 111.484C98.1872 127.366 81.4228 139.315 67.1783 145.806C60.0538 149.053 53.5949 150.918 48.2128 151.25C42.8294 151.581 38.6096 150.376 35.8253 147.592C33.0409 144.807 31.8354 140.587 32.1668 135.204C32.4982 129.821 34.3637 123.363 37.6103 116.238C44.1015 101.994 56.0501 85.2292 71.9319 69.3474C87.8137 53.4656 104.578 41.517 118.823 35.0258C125.947 31.7792 132.406 29.9137 137.788 29.5823C143.172 29.2509 147.392 30.4564 150.176 33.2407Z" stroke="#8D8D8D" stroke-width="1.4"/>
<path d="M35.8237 33.2407C33.0396 36.0251 31.8345 40.2449 32.1659 45.6282C32.4973 51.0104 34.3628 57.4692 37.6094 64.5938C44.1006 78.8383 56.0492 95.6027 71.931 111.484C87.8128 127.366 104.577 139.315 118.822 145.806C125.946 149.053 132.405 150.918 137.787 151.25C143.171 151.581 147.39 150.376 150.175 147.592C152.959 144.807 154.165 140.587 153.833 135.204C153.502 129.821 151.636 123.363 148.39 116.238C141.898 101.994 129.95 85.2292 114.068 69.3474C98.1863 53.4656 81.4219 41.517 67.1774 35.0258C60.0529 31.7792 53.594 29.9137 48.2119 29.5823C42.8283 29.2509 38.6081 30.4564 35.8237 33.2407Z" stroke="#9B1D32" stroke-width="1.4"/>
<circle cx="151.699" cy="48.5994" r="7.11304" fill="#8D8D8D"/>
<circle cx="36.574" cy="118.802" r="7.11304" fill="#8D8D8D"/>
<circle cx="149.771" cy="146.365" r="7.11304" fill="#9B1D32"/>
<circle cx="53.0427" cy="30.9587" r="7.11304" fill="#9B1D32"/>
</svg>
