<svg width="108" height="105" viewBox="0 0 108 105" fill="none" xmlns="http://www.w3.org/2000/svg">
<path d="M39.5318 52.782C40.3168 52.0049 41.5895 52.0049 42.3745 52.782L42.9805 53.3819C43.7655 54.1589 43.7655 55.4188 42.9805 56.1959L42.3745 56.7957C41.5895 57.5728 40.3168 57.5728 39.5318 56.7957L38.9258 56.1959C38.1408 55.4188 38.1408 54.1589 38.9258 53.3819L39.5318 52.782Z" fill="#8D8D8D"/>
<path d="M56.9166 13.905C59.1996 13.7143 62.8123 13.8844 66.3267 15.0115C69.8413 16.1386 73.3824 18.2674 75.2857 22.0837C77.4807 26.485 78.5818 29.3807 79.3306 31.2918C79.7096 32.2587 79.9755 32.9122 80.2369 33.3914C80.4864 33.8487 80.6956 34.0767 80.9254 34.2302C81.0246 34.2965 81.2363 34.4 81.5963 34.5291C81.9413 34.6527 82.3679 34.7809 82.857 34.9138C83.8379 35.1805 85.003 35.4482 86.1695 35.7234C87.3191 35.9946 88.4758 36.2742 89.3824 36.5593C89.8335 36.7012 90.2585 36.8554 90.6031 37.0242C90.7755 37.1086 90.9529 37.2095 91.1119 37.3298C91.2611 37.4428 91.4593 37.6218 91.5904 37.8845C91.7381 38.1806 91.7976 38.5091 91.8228 38.7908C91.8492 39.0863 91.8447 39.4076 91.8209 39.7322C91.7732 40.382 91.6423 41.1215 91.4625 41.8425C91.2824 42.5648 91.0454 43.2967 90.775 43.9324C90.5293 44.5099 90.2155 45.1001 89.8316 45.5115C89.8845 45.6436 90.0113 45.8483 90.2545 46.1531C90.465 46.4169 90.8498 46.8566 91.0943 47.1892C91.3306 47.5108 91.6958 48.0534 91.6959 48.6834C91.6959 49.3737 91.4178 50.0089 91.1529 50.4656C91.1193 50.5235 91.0814 50.5781 91.0465 50.6335C91.2564 50.8137 91.4624 51.0204 91.6451 51.2527C92.1389 51.8806 92.5486 52.8186 92.1881 53.9031C91.8541 54.9076 91.3183 55.7715 90.8697 56.365C91.3698 57.1133 91.9327 58.0833 92.3521 59.0867C92.63 59.7513 92.8599 60.4662 92.9537 61.1638C93.0464 61.8538 93.0174 62.6148 92.6773 63.2966C92.4845 63.6832 92.1125 64.0869 91.7359 64.4509C91.3298 64.8435 90.8088 65.2923 90.2115 65.7761C89.0147 66.7455 87.4591 67.8968 85.7857 69.0867C82.4362 71.4684 78.5645 74.0386 76.0201 75.6785C75.5559 75.9776 74.9365 75.8439 74.6373 75.3796C74.3381 74.9155 74.472 74.2961 74.9361 73.9968C77.4642 72.3675 81.3103 69.8155 84.6275 67.4568C86.2875 66.2765 87.8035 65.1532 88.9527 64.2224C89.528 63.7564 89.9985 63.3486 90.3453 63.0134C90.5186 62.8459 90.6522 62.7046 90.7486 62.5906C90.7964 62.5341 90.8317 62.4885 90.856 62.4539C90.8803 62.4193 90.8887 62.4033 90.8883 62.4041C90.983 62.2141 91.0357 61.9027 90.9722 61.4304C90.9098 60.966 90.7457 60.4281 90.5074 59.8582C90.0304 58.717 89.3157 57.5894 88.8082 56.9109L88.2896 56.2185L88.901 55.6052C89.1798 55.3256 89.9152 54.4012 90.2906 53.2722C90.3648 53.049 90.3218 52.8056 90.0728 52.489C89.8143 52.1604 89.4272 51.8902 89.1607 51.7566L87.9234 51.1365L88.901 50.157C89.026 50.0317 89.2436 49.7727 89.4234 49.4627C89.6026 49.1537 89.6843 48.8907 89.692 48.7097C89.6791 48.6829 89.634 48.5793 89.483 48.3738C89.2519 48.0594 89.024 47.8175 88.691 47.4002C88.4172 47.057 88.0707 46.5893 87.9078 46.072C87.8208 45.7957 87.7724 45.4641 87.8424 45.1082C87.9144 44.7425 88.0968 44.4237 88.357 44.1628C88.489 44.0305 88.701 43.7005 88.9351 43.1502C89.1572 42.6281 89.3625 41.9979 89.522 41.3582C89.6819 40.717 89.7885 40.0937 89.8258 39.5857C89.8444 39.3317 89.8445 39.1251 89.8306 38.9695C89.827 38.9292 89.8192 38.896 89.815 38.8689C89.7899 38.8549 89.7598 38.838 89.7232 38.8201C89.5117 38.7165 89.1976 38.598 88.7828 38.4675C87.9571 38.2078 86.8707 37.9434 85.7105 37.6697C84.5675 37.4001 83.3556 37.1216 82.3326 36.8435C81.8196 36.704 81.3365 36.5606 80.9215 36.4119C80.5217 36.2686 80.1224 36.0994 79.814 35.8933C79.2286 35.502 78.8259 34.9806 78.481 34.3484C78.148 33.7379 77.8366 32.9609 77.4683 32.0212C76.7226 30.1183 75.6493 27.2927 73.4967 22.9763C71.9217 19.8183 68.9411 17.95 65.7164 16.9158C62.4917 15.8816 59.1475 15.7257 57.0826 15.8982C56.5323 15.944 56.0495 15.5344 56.0035 14.9841C55.9578 14.4339 56.3664 13.951 56.9166 13.905Z" fill="#9B1D32"/>
<path d="M29.7733 33.2755C30.6118 32.2959 31.7559 32.0289 32.9296 32.1749C34.0753 32.3173 35.3036 32.8534 36.4784 33.546C38.8369 34.9363 41.2046 37.0915 42.6659 38.6466C42.9306 38.9283 42.9164 39.3711 42.6347 39.6358C42.353 39.9003 41.9101 39.8871 41.6454 39.6055C40.234 38.1036 37.9696 36.0502 35.7675 34.752C34.6619 34.1003 33.6266 33.6717 32.7567 33.5635C31.9152 33.459 31.2911 33.655 30.8368 34.1856C29.4589 35.7956 29.3874 38.317 30.3524 40.8301C31.3118 43.3284 33.2196 45.5919 35.4374 46.5792C37.7802 47.622 40.2424 48.1367 42.2899 48.1368C44.3924 48.1368 45.8432 47.6 46.4433 46.7989C46.675 46.4894 47.1143 46.4265 47.4237 46.6583C47.7329 46.89 47.7958 47.3284 47.5644 47.6378C46.5483 48.9946 44.4967 49.5372 42.2899 49.5372C40.0283 49.5371 37.373 48.9725 34.8681 47.8575C32.2379 46.6866 30.1064 44.094 29.0458 41.3321C27.991 38.5852 27.9192 35.4419 29.7733 33.2755Z" fill="#8D8D8D"/>
<path d="M47.7849 52.1707C48.1533 52.0538 48.5468 52.2574 48.6638 52.6257C48.9935 53.6651 49.7489 55.3101 50.9236 56.7917C52.0998 58.2752 53.6446 59.5318 55.5408 59.9304C58.0634 60.4607 61.3817 60.1986 65.1228 59.9177C68.8106 59.6409 72.853 59.3545 76.6433 59.9236C82.5839 60.8156 84.0014 61.4237 85.3572 62.238C85.6885 62.4371 85.7955 62.8666 85.5964 63.198C85.3973 63.5293 84.9678 63.6363 84.6365 63.4373C83.5257 62.7701 82.3344 62.1931 76.4353 61.3074C72.826 60.7655 68.9401 61.0346 65.2283 61.3132C61.5695 61.5879 58.0157 61.8814 55.2527 61.3005C52.9205 60.8103 51.1173 59.2894 49.8269 57.6619C48.5351 56.0326 47.705 54.2324 47.3298 53.0496C47.213 52.6812 47.4166 52.2877 47.7849 52.1707Z" fill="#8D8D8D"/>
<path d="M64.7228 29.9403C70.4568 27.501 74.143 31.3009 75.423 32.2811C75.7298 32.5162 75.7879 32.9557 75.5529 33.2626C75.3178 33.5694 74.8784 33.6275 74.5715 33.3925C73.1064 32.2705 70.1255 29.1638 65.2717 31.2284C64.9159 31.3797 64.5041 31.214 64.3527 30.8583C64.2017 30.5027 64.3674 30.0917 64.7228 29.9403Z" fill="#8D8D8D"/>
<path d="M53.6548 6.576C58.5106 3.13991 64.2898 0.574177 69.9263 1.48518C73.4032 2.04717 75.5669 3.33347 76.8863 5.09162C78.189 6.82767 78.5886 8.92154 78.7593 10.9217C78.8445 11.9205 78.8742 12.9383 78.9204 13.8787C78.9674 14.8335 79.0309 15.722 79.1773 16.5291C79.4676 18.1304 80.0611 19.3011 81.3941 19.9744C84.4458 21.5159 88.0195 21.523 91.3648 21.661C93.0018 21.7285 94.6032 21.8309 95.9732 22.2108C97.362 22.5959 98.5809 23.2843 99.3736 24.5653C100.17 25.8531 100.222 27.3066 99.9429 28.7264C99.6652 30.1379 99.0453 31.5929 98.4058 32.9529C97.7506 34.3464 97.0896 35.6136 96.6402 36.7694C96.1811 37.9499 96.0416 38.7885 96.2251 39.3446C96.3773 39.8057 96.6325 40.039 96.9419 40.1658C97.284 40.306 97.7526 40.3379 98.3267 40.2528C99.477 40.0821 100.781 39.4815 101.633 38.9647C101.964 38.7643 102.395 38.8704 102.595 39.201C102.795 39.5314 102.69 39.9614 102.36 40.1619C101.425 40.7287 99.939 41.4288 98.5327 41.6375C97.8286 41.742 97.0765 41.7337 96.4107 41.4608C95.7125 41.1744 95.1719 40.6219 94.895 39.783C94.5423 38.7137 94.8728 37.4525 95.3355 36.2625C95.8079 35.0478 96.5206 33.6729 97.1392 32.3572C97.7736 31.0081 98.3269 29.6859 98.5689 28.4559C98.8091 27.2344 98.7271 26.182 98.1831 25.3026C97.6348 24.4163 96.7747 23.8854 95.5991 23.5594C94.4047 23.2282 92.9551 23.1273 91.3072 23.0594C88.0823 22.9264 84.1475 22.9328 80.7632 21.2235C78.8781 20.2713 78.1301 18.5972 77.8003 16.7781C77.6366 15.8752 77.5703 14.9096 77.523 13.9471C77.4749 12.97 77.4462 12.0062 77.3638 11.0408C77.1993 9.1128 76.8275 7.34581 75.7671 5.93244C74.7231 4.54116 72.9302 3.3887 69.7027 2.86701C64.6122 2.04438 59.2172 4.35466 54.4634 7.71857C49.7286 11.0691 45.7559 15.3761 43.5562 18.3094C43.3243 18.6186 42.886 18.6818 42.5767 18.45C42.2674 18.2181 42.2051 17.7788 42.437 17.4696C44.7071 14.4425 48.78 10.0256 53.6548 6.576Z" fill="#8D8D8D"/>
<path d="M72.4772 67.5303C72.7365 67.2437 73.1797 67.2213 73.4664 67.4805C73.7531 67.7398 73.7754 68.1831 73.5162 68.4697C69.3677 73.0555 64.8253 80.6833 62.0992 89.2129C61.3036 91.7025 61.7982 94.4439 62.6197 96.9336C63.0278 98.1704 63.5067 99.3174 63.9264 100.318C64.3336 101.29 64.7133 102.185 64.8678 102.839C64.9566 103.215 64.7234 103.593 64.3473 103.682C63.9711 103.77 63.5934 103.537 63.5045 103.161C63.3836 102.649 63.0659 101.886 62.6354 100.859C62.217 99.8616 61.7171 98.6677 61.2897 97.3721C60.4401 94.7972 59.8336 91.7054 60.7662 88.7871C63.5471 80.0861 68.1822 72.2779 72.4772 67.5303Z" fill="#8D8D8D"/>
<path d="M27.9545 56.1511C28.3333 55.7492 28.9657 55.7304 29.3676 56.1091C31.6785 58.2865 34.6391 62.2768 36.101 67.2566C37.5726 72.2695 37.5248 78.2977 33.7612 84.4197C26.5158 96.205 19.3208 102.163 16.4799 103.715C15.9952 103.979 15.3873 103.801 15.1225 103.316C14.8578 102.831 15.0363 102.223 15.521 101.959C17.9641 100.624 24.93 94.9648 32.0571 83.3718C35.4798 77.8044 35.5198 72.3769 34.1821 67.82C32.8346 63.2302 30.089 59.5358 27.9965 57.5642C27.5947 57.1854 27.5759 56.553 27.9545 56.1511Z" fill="#9B1D32"/>
</svg>
