<svg width="138" height="134" viewBox="0 0 138 134" fill="none" xmlns="http://www.w3.org/2000/svg">
<path d="M15.9852 56.3307C16.3984 56.0603 16.9535 56.176 17.2243 56.5886C17.495 57.0013 17.3792 57.5558 16.966 57.8262C15.6493 58.6879 13.7508 60.2155 12.3515 61.9676C10.9138 63.7677 10.2094 65.5366 10.6994 67.0051C11.4387 69.2205 12.4128 70.1895 13.3111 71.0866C13.7666 71.5416 14.2703 72.0393 14.6687 72.6756C15.0815 73.3349 15.3645 74.1112 15.4723 75.1345C15.6681 76.9925 15.8258 80.1992 16.6004 83.4323C17.3794 86.684 18.7305 89.7081 21.1362 91.31C25.3409 94.1096 28.4073 94.4046 29.2209 94.2886C29.7099 94.2188 30.1631 94.5579 30.2329 95.0463C30.3027 95.5347 29.9632 95.9872 29.4742 96.0571C28.0793 96.2561 24.5707 95.7441 20.1442 92.7968C17.1554 90.8067 15.6671 87.2135 14.8609 83.8485C14.0504 80.4654 13.8769 77.0557 13.6942 75.3215C13.6127 74.5488 13.41 74.0358 13.1514 73.6228C12.8785 73.1872 12.5246 72.8285 12.0458 72.3503C11.0748 71.3806 9.87173 70.175 9.00234 67.5696C8.20557 65.1815 9.44238 62.7445 10.9527 60.8534C12.5013 58.9144 14.5573 57.2651 15.9852 56.3307Z" fill="#A5A5A5"/>
<path d="M84.8363 43.6735C86.7367 43.4763 88.7947 43.5384 90.5564 43.7582C91.4386 43.8683 92.2606 44.0196 92.961 44.2031C93.6451 44.3824 94.273 44.6072 94.7291 44.8898C95.1489 45.15 95.2779 45.7007 95.0174 46.1199C94.7568 46.539 94.2054 46.668 93.7858 46.4078C93.5553 46.2651 93.1301 46.0938 92.5068 45.9305C91.8991 45.7712 91.1578 45.6331 90.3355 45.5304C88.6877 45.3248 86.7667 45.2683 85.021 45.4494C84.2308 45.5315 83.7847 45.7469 83.5361 45.9504C83.2977 46.1458 83.183 46.3777 83.138 46.6272C83.0903 46.8921 83.1219 47.185 83.2029 47.4435C83.2542 47.6071 83.3115 47.7143 83.3477 47.7737C83.3843 47.7836 83.4316 47.7988 83.4924 47.8111C83.707 47.8548 84.0102 47.8959 84.3934 47.9333C85.1558 48.0076 86.1574 48.0586 87.2422 48.0928C89.4083 48.161 91.8414 48.1612 93.2168 48.1613C94.6698 48.1615 95.807 48.9746 96.5909 49.8376C97.3789 50.7052 97.9137 51.7307 98.1744 52.4311C98.3465 52.8936 98.1096 53.4083 97.6466 53.5802C97.1838 53.7516 96.6694 53.5163 96.4973 53.0542C96.3005 52.5253 95.8734 51.7068 95.2657 51.0377C94.6539 50.3642 93.9608 49.9474 93.2168 49.9472C91.8454 49.9471 89.3846 49.9479 87.186 49.8787C86.0888 49.8442 85.0402 49.7919 84.2187 49.7117C83.8102 49.6718 83.4379 49.6224 83.1356 49.5609C82.9849 49.5302 82.8322 49.493 82.6938 49.445C82.5747 49.4037 82.3797 49.3268 82.2097 49.1795C81.875 48.8895 81.6351 48.421 81.4959 47.9769C81.3476 47.5037 81.2684 46.9153 81.3774 46.3106C81.4892 45.6903 81.7994 45.0631 82.4018 44.5696C82.994 44.0845 83.8045 43.7806 84.8363 43.6735Z" fill="#A5A5A5"/>
<path d="M51.283 35.0963C53.1597 34.4066 57.9918 33.4703 62.7705 35.0888C64.164 35.5608 65.4212 35.9211 66.5365 36.2292C67.6398 36.534 68.6395 36.797 69.4651 37.0592C70.2844 37.3194 71.029 37.6078 71.6052 38.0014C72.211 38.4153 72.6694 38.9739 72.8243 39.7474C73.0243 40.7462 73.215 41.9882 73.1737 43.0276C73.1533 43.5401 73.0747 44.092 72.8493 44.5556C72.6048 45.058 72.1557 45.5046 71.4592 45.585C71.2128 45.6134 70.9758 45.5649 70.8091 45.5214C70.6243 45.4733 70.4254 45.4026 70.2251 45.322C69.8242 45.1607 69.341 44.9295 68.8113 44.6615C68.278 44.3917 67.6751 44.0738 67.0331 43.7355C66.3885 43.3958 65.7002 43.0333 64.9854 42.6687C63.5534 41.9383 62.0326 41.2089 60.5818 40.651C59.118 40.0881 57.7908 39.7259 56.7298 39.6826C52.9976 39.5306 47.3694 40.6129 44.9989 41.1844C44.5188 41.3 44.0355 41.0046 43.9196 40.5251C43.804 40.0457 44.0996 39.5628 44.5797 39.4471C46.974 38.8699 52.8072 37.7338 56.8034 37.8967C58.1574 37.952 59.7016 38.3973 61.2257 38.9835C62.763 39.5747 64.3478 40.337 65.799 41.0772C66.5259 41.448 67.2241 41.816 67.8679 42.1552C68.5143 42.4959 69.1027 42.8059 69.6199 43.0675C70.1402 43.3308 70.5672 43.5343 70.8939 43.6657C71.0409 43.7249 71.1535 43.7613 71.2346 43.7841C71.2361 43.7812 71.2392 43.7787 71.2408 43.7754C71.3078 43.6376 71.3702 43.374 71.3868 42.9578C71.4194 42.1393 71.2653 41.0676 71.0711 40.0976C71.0289 39.8868 70.914 39.694 70.5944 39.4757C70.245 39.2372 69.7108 39.012 68.9223 38.7616C68.1399 38.5131 67.2007 38.2667 66.0598 37.9515C64.931 37.6397 63.637 37.268 62.1965 36.78C57.9061 35.3268 53.5069 36.1823 51.9007 36.7726C51.4371 36.943 50.9233 36.7059 50.7527 36.2429C50.5821 35.7799 50.8194 35.2667 51.283 35.0963Z" fill="#A5A5A5"/>
<path d="M67.34 77.8486C70.5916 77.1114 72.9351 77.4209 74.2193 79.0924C74.4512 79.394 74.7363 79.4989 75.279 79.5073C75.5735 79.5118 75.869 79.4879 76.2553 79.4675C76.6167 79.4485 77.0377 79.4343 77.4671 79.4862C78.4666 79.6072 79.2338 80.1811 79.7736 80.907C80.3068 81.6242 80.6491 82.5246 80.8329 83.4342C81.0144 84.3326 81.051 85.1693 80.9791 85.8452C80.9433 86.1815 80.8786 86.5022 80.7769 86.78C80.685 87.0307 80.5196 87.3684 80.2066 87.594C79.806 87.8827 79.2466 87.7922 78.9575 87.3922C78.692 87.0245 78.7489 86.5251 79.0705 86.2222C79.0762 86.2105 79.0867 86.1925 79.0965 86.1656C79.1341 86.0628 79.1753 85.894 79.2005 85.6566C79.2508 85.184 79.2292 84.5315 79.079 83.788C78.9311 83.0558 78.6718 82.4216 78.3382 81.9727C78.0112 81.5329 77.6459 81.3082 77.2521 81.2604C76.9847 81.2281 76.6927 81.2332 76.3488 81.2513C76.03 81.268 75.6265 81.2992 75.2509 81.2934C74.4527 81.281 73.5082 81.1016 72.7997 80.1794C72.203 79.4031 70.8623 78.8827 67.7363 79.5913C65.5865 80.0788 61.8096 80.2684 59.2912 80.3279C59.6564 80.5869 60.1508 80.8393 60.7669 81.0677C61.6011 81.3769 62.594 81.6204 63.6452 81.7921C65.7594 82.1374 68.0036 82.1728 69.5262 81.917L70.0521 81.8283L70.38 82.2484C70.7126 82.6749 71.895 83.5795 73.6088 83.1084L74.0637 82.9838L74.424 83.2878C74.5964 83.4337 74.958 83.69 75.4169 83.916C75.8783 84.1433 76.3834 84.3138 76.8549 84.3438C77.3476 84.3755 77.7211 84.7993 77.6897 85.2915C77.6582 85.7838 77.2336 86.1577 76.7407 86.1264C75.9521 86.0762 75.21 85.8063 74.6253 85.5183C74.2446 85.3307 73.9083 85.1218 73.64 84.9332C71.6614 85.3124 70.1442 84.4922 69.3429 83.7476C67.6293 83.9626 65.4108 83.892 63.3559 83.5564C62.2237 83.3714 61.1141 83.1022 60.1446 82.7428C59.1886 82.3885 58.3013 81.9209 57.6767 81.3048C57.4158 81.0472 57.2366 80.7156 57.2031 80.336C57.1702 79.9617 57.2869 79.6245 57.4663 79.3613C57.8138 78.8519 58.4243 78.5601 59.0484 78.5467C61.5864 78.4924 65.3349 78.3033 67.34 77.8486Z" fill="#A5A5A5"/>
<path d="M58.7104 80.8299C59.1219 80.5569 59.6764 80.6686 59.9497 81.0795C60.605 82.0648 61.865 83.6325 63.4741 85.0628C65.0926 86.5015 66.9883 87.7322 68.913 88.1611C73.0125 89.0741 76.0898 88.3072 77.003 87.8873C77.4516 87.6808 77.9835 87.8768 78.1902 88.3249C78.3965 88.7728 78.2005 89.303 77.7521 89.5094C76.4547 90.1064 72.9741 90.8963 68.524 89.9051C66.1736 89.3816 64.0068 87.9283 62.285 86.3978C60.5536 84.8588 59.1951 83.1722 58.4605 82.0677C58.1872 81.6567 58.299 81.1029 58.7104 80.8299Z" fill="#A5A5A5"/>
<path d="M72.6663 108.064C72.8457 107.604 73.3641 107.376 73.8243 107.555C74.2843 107.734 74.5124 108.252 74.3334 108.712C74.007 109.548 73.4337 111.259 73.3314 112.891C73.2257 114.576 73.6274 115.739 74.7265 116.197C75.2155 116.401 76.1325 116.476 77.5465 116.358C78.9197 116.242 80.6195 115.96 82.5728 115.571C84.5225 115.183 86.6973 114.695 89.0203 114.175C91.3394 113.657 93.8017 113.107 96.3089 112.6C101.317 111.588 106.548 110.738 111.249 110.641C115.923 110.545 120.233 111.187 123.272 113.314C127.882 116.541 130.279 119.849 131.667 123.095C133.03 126.281 133.415 129.435 134.008 132.088C134.116 132.57 133.813 133.047 133.331 133.155C132.849 133.263 132.37 132.96 132.263 132.478C131.621 129.61 131.299 126.782 130.023 123.798C128.772 120.874 126.597 117.823 122.245 114.777C119.683 112.984 115.852 112.333 111.287 112.427C106.75 112.521 101.645 113.345 96.6645 114.351C94.178 114.854 91.7328 115.4 89.4122 115.919C87.0955 116.437 84.8972 116.93 82.9222 117.324C80.9509 117.716 79.1731 118.015 77.6975 118.139C76.2636 118.259 74.9604 118.23 74.0376 117.846C71.8095 116.917 71.4308 114.63 71.547 112.778C71.6666 110.873 72.3163 108.96 72.6663 108.064Z" fill="#A5A5A5"/>
<path d="M76.5014 12.4799C81.8942 12.7847 93.3255 18.0962 100.623 35.7866C100.811 36.2427 100.593 36.764 100.137 36.9519C99.6799 37.1398 99.1568 36.9231 98.9686 36.4671C91.866 19.2498 80.9474 14.5219 76.4016 14.2646C75.9086 14.2367 75.5305 13.8147 75.5581 13.3224C75.586 12.83 76.0085 12.4524 76.5014 12.4799Z" fill="#A5A5A5"/>
<path d="M67.3984 2.27369C70.2796 2.11015 75.3259 2.64685 80.5718 4.59925C85.8256 6.5546 91.3582 9.96 95.1028 15.5939C101.855 25.7532 100.564 34.7435 100.502 36.3482C100.483 36.8412 100.067 37.2257 99.5737 37.2069C99.0801 37.1879 98.695 36.7727 98.714 36.2797C98.7774 34.6359 100.008 26.2052 93.6128 16.5822C90.1383 11.3544 84.9667 8.14262 79.9466 6.27425C74.9188 4.40304 70.1204 3.90974 67.5008 4.05836C67.0077 4.08635 66.5844 3.70953 66.5562 3.21713C66.5281 2.72467 66.9054 2.30188 67.3984 2.27369Z" fill="#A5A5A5"/>
<path d="M75.0032 68.2988C76.308 68.4029 77.1858 68.915 77.5488 69.3581C77.8613 69.74 77.805 70.3033 77.4228 70.6156C77.0405 70.9279 76.4765 70.8714 76.1637 70.4897C76.1903 70.5222 76.1186 70.4336 75.8805 70.324C75.6605 70.2228 75.3248 70.1167 74.861 70.0797C74.5391 70.0541 74.2425 70.1555 73.98 70.3252C73.7086 70.5008 73.5202 70.7201 73.4484 70.8312C73.1808 71.2458 72.6282 71.3651 72.2131 71.0979C71.7979 70.8305 71.6783 70.2775 71.946 69.8628C72.148 69.5503 72.5123 69.1459 73.0067 68.8259C73.5103 68.5001 74.1941 68.2343 75.0032 68.2988Z" fill="#A5A5A5"/>
<path d="M80.8686 70.7264C81.0187 70.2566 81.5224 69.9972 81.9929 70.1469C82.4634 70.2967 82.723 70.7998 82.5732 71.2698C82.3162 72.0752 81.7408 72.5229 81.1631 72.7279C80.6222 72.9197 80.074 72.9063 79.7107 72.8351C79.226 72.7401 78.9107 72.271 79.0056 71.787C79.1007 71.3029 79.5703 70.9866 80.0551 71.0816C80.1723 71.1046 80.3854 71.1076 80.5642 71.0442C80.6448 71.0156 80.7045 70.9785 80.7476 70.937C80.7875 70.8984 80.8335 70.8366 80.8686 70.7264Z" fill="#A5A5A5"/>
<path d="M51.2422 43.781C51.7061 43.6118 52.2194 43.8499 52.3889 44.3132C53.4545 47.2272 55.4582 48.7172 57.6747 49.4828C59.9319 50.2623 62.4035 50.2845 64.3082 50.2019C65.8911 50.1333 66.9624 50.2293 67.6723 50.4088C68.0249 50.4979 68.333 50.6191 68.577 50.7851C68.7924 50.9318 69.1197 51.229 69.1523 51.7037C69.1858 52.1955 68.8136 52.6218 68.3212 52.6558C67.9761 52.6794 67.6657 52.5021 67.4976 52.2258C67.4943 52.2244 67.4912 52.2223 67.4877 52.2209C67.4306 52.1975 67.3473 52.17 67.2331 52.1411C66.7625 52.0221 65.8867 51.9215 64.3856 51.9866C62.4347 52.0711 59.6803 52.0663 57.0895 51.1715C54.4581 50.2626 51.991 48.4311 50.7093 44.9264C50.5399 44.463 50.7783 43.9504 51.2422 43.781ZM67.3666 51.8258C67.37 51.874 67.3787 51.918 67.3891 51.9579C67.3795 51.9148 67.3698 51.8711 67.3666 51.8258Z" fill="#A5A5A5"/>
<path d="M93.8837 67.6655C93.8837 65.342 94.1746 63.0273 94.7497 60.776L96.6127 53.4816C97.0465 51.7837 97.334 50.0514 97.4712 48.3045L98.4283 36.1171C98.4835 35.4145 99.0987 34.8893 99.8022 34.9444C100.506 34.9995 101.032 35.6139 100.976 36.3165L100.019 48.5039C99.8707 50.3962 99.5595 52.273 99.0897 54.1122L97.2254 61.4066C96.7029 63.4517 96.4393 65.5549 96.4393 67.6655C96.4393 73.0156 94.8959 78.2523 91.9958 82.7504L82.8604 96.9219C79.3957 102.296 72.7087 104.619 66.6523 102.554C65.9637 102.319 65.2944 102.031 64.6508 101.691L41.0743 89.2598L41.0631 89.2548L41.0531 89.2485C35.5344 86.2026 31.6069 80.9182 30.2856 74.7605L29.6068 71.5962C29.4589 70.9072 29.8978 70.2287 30.5876 70.0808C31.2776 69.9331 31.9571 70.3724 32.1049 71.0616L32.7837 74.2259C33.9499 79.6607 37.4167 84.3239 42.2872 87.0127L65.8438 99.4344C66.3693 99.7115 66.916 99.9468 67.4784 100.139C72.4233 101.825 77.8828 99.9274 80.7116 95.5398L89.8483 81.3683C92.4825 77.2823 93.8837 72.5252 93.8837 67.6655Z" fill="#9B1D32"/>
<path d="M26.2474 73.3133C26.7307 73.2117 27.2062 73.5199 27.3081 74.0025C28.4319 79.3341 29.8362 87.8517 30.4027 96.1003C30.6859 100.224 30.7613 104.302 30.4813 107.89C30.2029 111.457 29.5682 114.634 28.37 116.894C23.8878 125.351 19.365 130.591 17.5962 132.203C17.2313 132.535 16.665 132.508 16.3322 132.144C15.9997 131.78 16.0262 131.215 16.3908 130.883C17.9742 129.44 22.3795 124.377 26.789 116.058C27.8135 114.125 28.4256 111.244 28.6982 107.752C28.969 104.281 28.8981 100.298 28.6183 96.2237C28.0587 88.0753 26.6682 79.6414 25.5574 74.3714C25.4557 73.8888 25.7644 73.4152 26.2474 73.3133Z" fill="#A5A5A5"/>
<path d="M50.5354 1.23752C55.8874 -0.337959 61.7256 0.344746 66.5238 2.10369C68.9282 2.98508 71.0982 4.14596 72.8391 5.45618C74.5696 6.75858 75.9284 8.24792 76.6325 9.80694C77.2904 11.2639 77.463 12.6151 76.5863 13.6505C76.1881 14.1206 75.6397 14.4319 75.054 14.6562C74.4651 14.8818 73.7724 15.0439 73.0175 15.1759C71.5271 15.4366 69.5843 15.6135 67.4472 15.8801C65.2784 16.1506 62.8227 16.5213 60.1749 17.1824C57.6921 17.8024 55.0885 19.5178 52.5045 21.9332C49.932 24.3379 47.4448 27.3748 45.1922 30.5326C40.6865 36.8488 37.1802 43.5597 35.8497 46.4301C34.766 48.768 33.8224 50.0619 32.9572 50.6139C32.4916 50.9109 31.9537 51.0488 31.4236 50.8768C30.9171 50.7122 30.6135 50.3264 30.4553 49.9945C30.243 49.549 30.4323 49.0164 30.8783 48.8043C31.2809 48.613 31.7518 48.7502 31.9964 49.1059C32.3903 48.853 33.1547 47.9915 34.2263 45.6799C35.5927 42.732 39.1528 35.9205 43.736 29.4957C46.0279 26.2828 48.5915 23.1431 51.2816 20.6284C53.9598 18.1249 56.8309 16.1769 59.7419 15.4501C62.4877 14.7645 65.0216 14.3815 67.2251 14.1066C69.4602 13.8278 71.2736 13.6673 72.7093 13.4162C73.4174 13.2923 73.981 13.1545 74.4139 12.9887C74.8501 12.8216 75.0906 12.6492 75.22 12.4964C75.3982 12.286 75.584 11.8323 75.0016 10.5422C74.465 9.35385 73.3556 8.08237 71.7622 6.88317C70.1791 5.69174 68.1688 4.61018 65.9074 3.78118C61.374 2.11934 55.9386 1.50987 51.042 2.95116C46.0146 4.43107 38.9108 7.54657 32.8861 13.6953C26.8778 19.8274 21.8952 29.0222 21.1515 42.7623C21.1248 43.255 20.7027 43.6327 20.2094 43.6061C19.7163 43.5792 19.338 43.1588 19.3646 42.6664C20.1313 28.5001 25.2899 18.8926 31.6071 12.4453C37.9076 6.01508 45.3142 2.77456 50.5354 1.23752Z" fill="#A5A5A5"/>
<path d="M21.6762 40.4378C22.561 39.6987 23.567 39.5417 24.5374 39.7823C25.4567 40.0102 26.3157 40.5835 27.0605 41.2442C28.5565 42.5712 29.8637 44.4989 30.6144 45.8567C30.8531 46.2885 30.6961 46.832 30.2637 47.0705C29.8313 47.309 29.2871 47.1522 29.0483 46.7203C28.3493 45.456 27.1582 43.7206 25.8726 42.5802C25.2267 42.0073 24.6236 41.6455 24.1057 41.5171C23.639 41.4015 23.2321 41.4669 22.8242 41.8075C21.494 42.9187 20.7411 45.2016 20.4882 47.7622C20.2391 50.2855 20.5059 52.7617 20.9225 53.9837C21.3761 55.3143 23.409 60.1007 25.7665 63.1787C26.351 63.9418 26.933 64.5691 27.4898 65.0082C28.0538 65.453 28.525 65.6516 28.8998 65.6787C29.2297 65.7025 29.5936 65.6027 30.0104 65.1852C30.4527 64.742 30.9351 63.9547 31.398 62.659C31.5639 62.1945 32.0759 61.9515 32.541 62.1169C33.0061 62.2826 33.2495 62.7939 33.0838 63.2585C32.5773 64.6763 31.9821 65.74 31.277 66.4465C30.5459 67.1786 29.6903 67.5271 28.7713 67.4609C27.8975 67.3979 27.0888 66.969 26.3805 66.4103C25.6646 65.8457 24.9802 65.0932 24.3453 64.2642C21.8253 60.974 19.7162 55.9882 19.2292 54.5594C18.7054 53.0227 18.4424 50.2739 18.7076 47.5877C18.969 44.9392 19.774 42.027 21.6762 40.4378Z" fill="#A5A5A5"/>
<path d="M82.2431 56.0353C83.2837 55.5487 85.8795 54.9559 88.2364 56.4204C89.5198 57.2179 91.085 58.2226 92.6874 58.8195C94.2989 59.4197 95.7205 59.5217 96.8477 58.8207C97.2669 58.5602 97.8182 58.6889 98.0793 59.1074C98.3403 59.5261 98.2126 60.0766 97.7935 60.3375C95.9589 61.4784 93.8597 61.1627 92.0623 60.4932C90.2556 59.8203 88.5224 58.7038 87.2906 57.9384C85.6233 56.9025 83.7119 57.3221 83.0018 57.6542C82.5544 57.8633 82.022 57.6698 81.8126 57.223C81.6033 56.7762 81.7958 56.2445 82.2431 56.0353Z" fill="#A5A5A5"/>
</svg>
