<svg width="108" height="105" viewBox="0 0 108 105" fill="none" xmlns="http://www.w3.org/2000/svg">
<path d="M31.5391 71.0146C32.6782 70.8247 35.1843 70.1033 36.0956 68.7363" stroke="#8D8D8D" stroke-width="1.59479" stroke-linecap="round"/>
<path d="M30.9688 67.0282C31.5383 66.2687 33.3609 64.8638 36.0949 65.3194C38.8288 65.7751 39.5123 65.5093 39.5123 65.3194" stroke="#8D8D8D" stroke-width="1.4" stroke-linecap="round"/>
<path d="M34.3838 38.5486C34.7635 39.308 35.0673 41.0547 33.2447 41.966C30.9664 43.1051 40.0795 40.2573 42.9273 36.8398" stroke="#8D8D8D" stroke-width="1.4" stroke-linecap="round"/>
<path d="M31.5371 36.2701C30.9675 34.7513 30.7397 31.3718 34.3849 30.0048C38.0302 28.6379 45.0168 27.9164 48.0544 27.7266" stroke="#8D8D8D" stroke-width="1.4" stroke-linecap="round"/>
<path d="M22.4219 36.2695C23.9407 37.7884 26.6367 41.8513 25.2697 45.9522C23.561 51.0783 21.8523 54.4958 22.9914 56.2045C24.1306 57.9132 29.8263 59.6219 29.2567 61.3306C28.6871 63.0393 26.9784 63.6089 28.1176 64.748C29.2567 65.8871 31.535 66.4567 30.9654 67.5958C30.3958 68.735 29.8263 70.4437 30.9654 71.0133C32.1046 71.5828 33.8133 73.2915 33.8133 76.1394C33.8133 78.9872 33.2437 81.2655 35.522 82.4047C37.8002 83.5438 43.4959 82.4047 48.0525 80.6959C51.6977 79.329 60.583 71.393 64.57 67.5958" stroke="#8D8D8D" stroke-width="1.4" stroke-linecap="round"/>
<path d="M28.1172 64.1785C28.6868 63.6089 30.1676 62.5837 31.5346 63.0393C33.2433 63.6089 37.2303 66.4567 39.5086 65.3175" stroke="#8D8D8D" stroke-width="1.4" stroke-linecap="round"/>
<path d="M26.9844 56.7745C27.1742 56.5847 27.8957 56.3189 29.2627 56.7745C30.9714 57.3441 33.2496 57.3442 33.2496 56.2051" stroke="#8D8D8D" stroke-width="1.4" stroke-linecap="round"/>
<path d="M57.7344 77.2793C59.6329 81.2663 62.9744 90.1516 61.1518 93.7968" stroke="#8D8D8D" stroke-width="1.4" stroke-linecap="round"/>
<path d="M45.7798 85.8223C45.0204 89.2397 41.4511 96.3023 33.2493 97.2137C22.997 98.3528 9.89695 98.9224 8.75781 102.909" stroke="#8D8D8D" stroke-width="1.4" stroke-linecap="round"/>
<path d="M24.1309 22.0308C21.0932 21.2714 15.0178 21.0056 15.0178 26.0178C15.0178 32.2831 21.8526 43.1048 19.0048 46.5222C16.1569 49.9396 0.778572 53.357 6.47427 63.6093C12.17 73.8615 22.9918 80.1268 19.0048 85.2529C15.0178 90.379 5.33519 88.1008 4.76562 93.7965" stroke="#9B1D32" stroke-width="2" stroke-linecap="round"/>
<path d="M28.1185 4.94531C24.5112 8.74244 19.2332 16.6784 26.9793 18.0454C36.662 19.7541 48.6228 7.79316 56.5968 15.7671C64.5707 23.7411 57.7359 33.4238 67.9881 39.689C78.2404 45.9543 89.0622 45.3847 86.2144 56.7761C83.3665 68.1675 65.7099 71.5849 69.6968 80.698C73.6838 89.8112 88.4926 89.8112 87.3535 97.2156" stroke="#9B1D32" stroke-width="2" stroke-linecap="round"/>
<path d="M94.4666 80.2304C84.4019 71.781 98.8155 61.2193 102.916 48.5453C107.016 35.8713 94.8393 33.6347 88.6266 25.6823C85.3671 21.5102 85.904 13.5075 85.0156 6.16016" stroke="#9B1D32" stroke-width="2" stroke-linecap="round"/>
</svg>
