<svg width="108" height="120" viewBox="0 0 108 120" fill="none" xmlns="http://www.w3.org/2000/svg">
<g clip-path="url(#clip0_1675_25173)">
<path d="M44.2686 29.8706C45.7228 29.395 47.1761 29.126 48.3711 29.4633C48.9788 29.6349 49.8977 30.1576 50.9805 30.8491C52.0946 31.5606 53.4722 32.5111 55.0303 33.6147C58.1641 35.8344 62.0103 38.6557 66.0528 41.4887C70.0847 44.3144 74.2603 47.1145 77.9854 49.2475C79.1085 49.8906 80.1867 50.4704 81.2041 50.9712C85.069 48.0928 88.0412 46.6638 90.295 46.1616C91.9019 45.8035 93.1897 45.9059 94.1748 46.3403C95.1681 46.7782 95.7929 47.5281 96.0987 48.3374C96.1739 48.5364 96.2132 48.7448 96.2188 48.9536C96.2491 50.1004 95.7761 51.6197 94.3155 52.7671C92.8607 53.9096 90.5137 54.6175 86.9141 54.353C85.6716 54.2617 84.1965 53.8156 82.5899 53.144C82.1923 52.9778 81.7842 52.796 81.3662 52.601C79.9852 53.6622 78.4793 54.9167 76.8409 56.393C72.5837 60.2289 68.6726 62.1868 65.0596 62.9243C61.4446 63.6621 58.1882 63.1662 55.2647 62.1958C52.36 61.2315 49.7446 59.7824 47.462 58.6186C45.1251 57.4272 43.2018 56.5738 41.5176 56.5737C37.8255 56.5737 35.6464 57.1131 33.6729 57.3979C32.6857 57.5403 31.7427 57.6188 30.7237 57.5053C29.7016 57.3915 28.6356 57.0888 27.3838 56.5083C25.007 55.406 21.2328 53.9636 18.0137 53.9106C16.4123 53.8843 15.0349 54.2039 14.0293 54.9897C13.0434 55.7603 12.305 57.0657 12.1446 59.2524C11.9839 61.4434 12.5275 64.3864 13.7393 67.5405C14.9471 70.6841 16.8003 73.9875 19.2051 76.893C24.0196 82.7099 30.9559 86.8442 39.3272 85.1391C47.8924 83.3944 57.1695 77.5451 65.6709 72.3598C69.8931 69.7846 73.9254 67.3743 77.5303 65.7788C81.1072 64.1956 84.4205 63.3394 87.1465 64.0717C87.5199 64.172 87.741 64.5568 87.6407 64.9301C87.5401 65.3032 87.1564 65.5245 86.7832 65.4243C84.5545 64.8255 81.6315 65.4945 78.0967 67.059C74.5898 68.6112 70.6346 70.972 66.3995 73.5551C57.9863 78.6866 48.4684 84.706 39.6065 86.5112C30.551 88.3556 23.1356 83.8382 18.126 77.7856C15.6187 74.7562 13.6916 71.3191 12.4327 68.0424C11.1779 64.7764 10.568 61.6179 10.7491 59.1499C10.9304 56.6778 11.7942 54.9598 13.168 53.8862C14.5223 52.8281 16.2634 52.4821 18.0362 52.5112C21.5658 52.5692 25.5656 54.1224 27.9727 55.2387C29.1126 55.7674 30.0325 56.0195 30.8789 56.1137C31.7286 56.2083 32.5377 56.1471 33.4727 56.0122C35.3434 55.7423 37.6923 55.1733 41.5176 55.1733C43.592 55.1734 45.8121 56.2058 48.0987 57.3715C50.4396 58.565 52.9291 59.9451 55.7051 60.8667C58.4625 61.782 61.4642 62.2288 64.7793 61.5522C68.0966 60.8752 71.7887 59.0605 75.9034 55.353C77.3498 54.0497 78.7045 52.9115 79.9688 51.9174C79.105 51.4767 78.2082 50.9886 77.2891 50.4624C73.5073 48.2968 69.2899 45.4671 65.2491 42.6352C61.2189 39.8108 57.3124 36.9471 54.2207 34.7573C52.6662 33.6562 51.3119 32.7213 50.2276 32.0288C49.1121 31.3164 48.365 30.9168 47.9903 30.811C47.2205 30.5938 46.1107 30.7403 44.7032 31.2006C43.3215 31.6526 41.7787 32.3618 40.1983 33.1245C38.6354 33.8787 37.0278 34.6897 35.5762 35.3051C34.1439 35.9124 32.7454 36.3833 31.6075 36.3833C30.4686 36.3832 29.2232 35.9553 27.9903 35.3911C26.7474 34.8223 25.4248 34.0694 24.1358 33.3559C22.8309 32.6337 21.5529 31.9479 20.3448 31.4672C19.1289 30.9835 18.0584 30.7398 17.1573 30.8335C16.7932 30.8713 16.3073 31.0737 15.7012 31.4907C15.1056 31.9004 14.4494 32.4781 13.752 33.184C12.3573 34.5958 10.8584 36.4586 9.42094 38.353C7.96315 40.2742 6.65131 42.1146 5.51176 43.6303C4.9562 44.3693 4.45312 45.0144 4.03031 45.4995C3.8192 45.7417 3.61843 45.9555 3.43363 46.1245C3.26363 46.2799 3.05129 46.4505 2.8184 46.5415C2.23824 46.7677 1.68961 46.6564 1.24613 46.3686C0.834614 46.1015 0.517298 45.6894 0.275428 45.2817C-0.212151 44.4598 -0.532443 43.4138 -0.683556 42.7085C-0.764536 42.3304 -0.523493 41.9584 -0.14547 41.8774C0.232517 41.7965 0.604612 42.0375 0.685584 42.4155C0.819676 43.0413 1.09859 43.9257 1.47953 44.5678C1.67163 44.8916 1.85561 45.0948 2.00785 45.1938C2.12836 45.272 2.20689 45.2778 2.30961 45.2378C2.28995 45.2454 2.34461 45.2236 2.4893 45.0913C2.61923 44.9724 2.78057 44.8022 2.97465 44.5796C3.36239 44.1347 3.84062 43.5237 4.39262 42.7895C5.46836 41.3587 6.87964 39.3854 8.30472 37.5073C9.7501 35.6025 11.2943 33.679 12.7559 32.1997C13.4866 31.4601 14.2125 30.816 14.9082 30.3374C15.5934 29.8661 16.309 29.514 17.0127 29.4409C18.2472 29.3126 19.5689 29.6509 20.8623 30.1655C22.1636 30.6832 23.5129 31.4114 24.8135 32.1313C26.1298 32.8599 27.3914 33.5771 28.5723 34.1176C29.7631 34.6626 30.7816 34.9838 31.6075 34.9838C32.4343 34.9838 33.5998 34.6222 35.0293 34.0161C36.4394 33.4183 37.9923 32.6347 39.5899 31.8637C41.1702 31.1011 42.7885 30.3546 44.2686 29.8706ZM93.6104 47.6206C92.9717 47.339 92.0043 47.2149 90.5996 47.5278C88.7073 47.9494 86.1096 49.1478 82.6504 51.646C82.8123 51.7171 82.972 51.787 83.1299 51.853C84.6827 52.5021 85.9954 52.8814 87.0166 52.9565C90.4089 53.2058 92.3644 52.5191 93.4512 51.6655C94.5319 50.8165 94.8391 49.7367 94.8194 48.9907C94.8179 48.9344 94.8076 48.8815 94.7891 48.8325C94.6085 48.3543 94.2409 47.8986 93.6104 47.6206Z" fill="#8D8D8D"/>
<path d="M94.7309 41.2739C95.0705 40.8384 95.6997 40.7605 96.1352 41.1001C98.3974 42.8638 101.087 46.2496 101.874 50.7426C102.672 55.2894 101.494 60.8169 96.271 66.7485C95.906 67.163 95.2733 67.2033 94.8588 66.8383C94.4446 66.4734 94.4044 65.8416 94.769 65.4272C99.6532 59.8807 100.582 54.9503 99.9047 51.0883C99.2183 47.1726 96.8541 44.198 94.9047 42.6782C94.4692 42.3386 94.3913 41.7094 94.7309 41.2739Z" fill="#9B1D32"/>
<path d="M48.3218 90.8403C48.7574 91.1799 48.8352 91.809 48.4957 92.2446C46.7319 94.5068 43.3461 97.1962 38.8531 97.9838C34.3063 98.7809 28.7788 97.6036 22.8472 92.3803C22.4327 92.0153 22.3924 91.3827 22.7574 90.9682C23.1223 90.554 23.7541 90.5138 24.1685 90.8784C29.715 95.7626 34.6454 96.6911 38.5074 96.0141C42.4231 95.3277 45.3977 92.9634 46.9175 91.0141C47.2571 90.5786 47.8863 90.5007 48.3218 90.8403Z" fill="#9B1D32"/>
<path d="M104.417 56.4483C104.935 56.2556 105.511 56.5189 105.703 57.0365C106.359 58.7977 106.955 61.6084 106.594 64.3702C106.228 67.171 104.854 70.009 101.508 71.5048C101.004 71.7302 100.412 71.5034 100.187 70.9992C99.9616 70.4952 100.187 69.9042 100.691 69.6788C103.233 68.5426 104.308 66.4293 104.611 64.1114C104.919 61.7546 104.404 59.2784 103.829 57.7343C103.637 57.2168 103.9 56.6411 104.417 56.4483Z" fill="#9B1D32"/>
<path d="M40.165 102.819C40.4892 103.266 40.3895 103.892 39.9424 104.216C38.4209 105.319 35.872 106.645 33.1143 107.036C30.3176 107.433 27.2155 106.868 24.8789 104.044C24.5269 103.618 24.5872 102.988 25.0127 102.636C25.4381 102.284 26.0679 102.343 26.4199 102.769C28.1947 104.914 30.5185 105.384 32.833 105.056C35.1863 104.722 37.4346 103.564 38.7686 102.597C39.2157 102.273 39.8409 102.372 40.165 102.819Z" fill="#9B1D32"/>
</g>
<defs>
<clipPath id="clip0_1675_25173">
<rect width="108" height="119.146" fill="white"/>
</clipPath>
</defs>
</svg>
