<svg width="138" height="135" viewBox="0 0 138 135" fill="none" xmlns="http://www.w3.org/2000/svg">
<path d="M111.55 133.362V71.4826C111.55 57.3833 103.549 44.2156 90.2258 36.3881C89.8151 36.1467 89.7046 35.6579 89.9788 35.2963C90.2531 34.9348 90.8083 34.8375 91.2191 35.0789C105.039 43.1985 113.339 56.8572 113.339 71.4826V133.362C113.339 133.796 112.939 134.149 112.445 134.149C111.951 134.149 111.55 133.796 111.55 133.362Z" fill="#A5A5A5"/>
<path d="M26.4505 133.362V71.4826C26.4506 57.3833 34.4514 44.2156 47.7747 36.3881C48.1854 36.1467 48.2959 35.6579 48.0217 35.2963C47.7474 34.9348 47.1922 34.8375 46.7814 35.0789C32.961 43.1985 24.6612 56.8572 24.6611 71.4826V133.362C24.6611 133.796 25.0618 134.149 25.5558 134.149C26.0498 134.149 26.4505 133.796 26.4505 133.362Z" fill="#A5A5A5"/>
<path d="M89.4444 24.2246C89.4444 14.2864 80.2912 6.22982 69 6.22982C57.7088 6.22982 48.5556 14.2864 48.5556 24.2246V77.8719C48.5559 87.8099 57.709 95.8667 69 95.8667C80.291 95.8667 89.4441 87.8099 89.4444 77.8719V24.2246ZM92 77.8719C91.9997 89.0522 81.7024 98.116 69 98.116C56.2976 98.116 46.0003 89.0522 46 77.8719V24.2246C46 13.0441 56.2975 3.98047 69 3.98047C81.7026 3.98047 92 13.0441 92 24.2246V77.8719Z" fill="#9B1D32"/>
</svg>
