<svg width="108" height="105" viewBox="0 0 108 105" fill="none" xmlns="http://www.w3.org/2000/svg">
<path d="M85.136 52.5877C80.8709 51.9142 71.8014 52.4194 69.6438 59.8284C66.9469 69.0896 57.5172 91.8219 48.2559 91.3167C38.9946 90.8115 36.6399 81.0451 37.3134 69.7631C37.987 58.4812 47.9187 51.9141 54.149 55.1134C60.3794 58.3128 73.0084 49.8934 76.0394 64.2063C79.0704 78.5193 70.3142 104.956 63.0736 103.441C55.8329 101.925 37.6471 84.7496 46.74 76.667C55.8329 68.5844 79.0666 58.1444 82.1013 69.7631C85.136 81.3819 76.8813 90.4748 66.9465 87.2754C57.0116 84.0761 28.2174 84.4128 28.049 76.667C27.8806 68.9212 37.8148 42.9895 44.7187 46.0205C51.6226 49.0515 68.3694 71.9822 68.6276 79.8664C68.8857 87.7505 64.0811 99.7361 60.3766 95.5264C56.6721 91.3167 39.164 68.416 44.7187 63.0276C50.2733 57.6392 68.9616 46.6941 72.5005 50.567C75.3316 53.6653 80.0807 60.1651 82.1013 63.0276" stroke="#9B1D32" stroke-width="2" stroke-linecap="round"/>
<path d="M70.4753 32.7162C71.9629 29.2782 77.8661 27.79 81.8773 27.3186C82.9392 27.1938 83.7899 26.312 83.5864 25.2622C82.8114 21.2641 79.7198 16.1687 74.5211 10.8256C68.4592 4.59529 54.1463 9.98379 42.863 12.678C31.5798 15.3722 9.35106 16.0457 7.83557 35.2419C6.32009 54.438 36.9695 39.2832 42.863 37.5993C48.7566 35.9154 68.2895 37.7677 70.4753 32.7162Z" stroke="#8D8D8D" stroke-width="1.59" stroke-linecap="round"/>
<circle cx="27.8789" cy="27.834" r="1.68359" fill="#8D8D8D"/>
<circle cx="43.0352" cy="24.4668" r="1.68359" fill="#8D8D8D"/>
<circle cx="59.918" cy="21.0996" r="1.68359" fill="#8D8D8D"/>
</svg>
