<svg width="186" height="181" viewBox="0 0 186 181" fill="none" xmlns="http://www.w3.org/2000/svg">
<path d="M93.001 152.794V172.794C92.6021 172.791 92.2811 172.465 92.2845 172.066L92.4455 153.343C92.4481 153.039 92.6968 152.794 93.001 152.794ZM93.7155 172.068C93.7189 172.466 93.399 172.794 93.001 172.794V152.794C93.3046 152.794 93.5529 153.038 93.5555 153.342L93.7155 172.068ZM86.4519 152.456C86.7515 152.487 86.972 152.753 86.9435 153.053L85.1697 171.702C85.1321 172.097 84.7802 172.388 84.3848 172.347C83.9895 172.307 83.706 171.95 83.7505 171.555L85.8491 152.939C85.8828 152.64 86.1522 152.425 86.4519 152.456ZM99.5491 152.456C99.8487 152.425 100.118 152.64 100.152 152.939L102.25 171.555C102.294 171.95 102.011 172.307 101.615 172.347C101.22 172.388 100.868 172.097 100.83 171.702L99.0575 153.053C99.029 152.753 99.2495 152.487 99.5491 152.456ZM80.006 151.443C80.2999 151.505 80.4908 151.791 80.4312 152.086L76.7151 170.448C76.6362 170.838 76.2557 171.09 75.8666 171.008C75.4775 170.925 75.2326 170.541 75.3184 170.152L79.3573 151.859C79.4221 151.566 79.712 151.381 80.006 151.443ZM108.682 161.093L110.8 170.685C110.82 170.779 110.761 170.872 110.666 170.893C110.489 170.932 110.312 170.97 110.134 171.008C109.744 171.09 109.364 170.838 109.285 170.447L105.57 152.086C105.51 151.791 105.701 151.505 105.995 151.443C106.289 151.381 106.579 151.566 106.644 151.859L108.682 161.093ZM73.7124 149.76C73.998 149.853 74.1573 150.158 74.0671 150.444L71.2258 159.462C71.2257 159.463 71.2258 159.463 71.2261 159.463C71.2264 159.464 71.2265 159.464 71.2264 159.465L68.438 168.314C68.3185 168.694 67.9139 168.904 67.5358 168.781C67.1578 168.658 66.9548 168.25 67.0809 167.873L73.0238 150.105C73.1191 149.821 73.4268 149.667 73.7124 149.76ZM118.919 167.873C119.045 168.25 118.842 168.658 118.464 168.781C118.086 168.904 117.681 168.694 117.562 168.314L114.774 159.464L111.934 150.444C111.844 150.158 112.003 149.853 112.289 149.76C112.574 149.667 112.882 149.821 112.977 150.105L118.919 167.873ZM67.6302 147.424C67.9045 147.546 68.0307 147.867 67.9108 148.142L60.4307 165.32C60.2721 165.684 59.848 165.851 59.4853 165.689C59.1227 165.527 58.9638 165.1 59.1288 164.738L66.9089 147.695C67.0337 147.422 67.356 147.301 67.6302 147.424ZM126.871 164.738C127.036 165.1 126.877 165.527 126.515 165.689C126.152 165.851 125.728 165.684 125.569 165.32L121.865 156.812L118.09 148.142C117.97 147.867 118.096 147.546 118.371 147.424C118.645 147.301 118.967 147.422 119.092 147.695L126.871 164.738ZM61.8215 144.458C62.0817 144.609 62.1737 144.941 62.0254 145.202L52.7831 161.5C52.5874 161.845 52.1486 161.967 51.8049 161.768C51.4613 161.57 51.3481 161.129 51.5498 160.788L61.0749 144.652C61.2277 144.393 61.5612 144.308 61.8215 144.458ZM134.45 160.788C134.652 161.129 134.539 161.57 134.195 161.768C133.851 161.967 133.413 161.845 133.217 161.5L123.976 145.202C123.827 144.941 123.919 144.609 124.179 144.458C124.44 144.308 124.773 144.393 124.926 144.652L134.45 160.788ZM56.3462 140.895C56.5895 141.072 56.6463 141.412 56.4714 141.657L50.974 149.349C50.9738 149.349 50.9738 149.35 50.9741 149.35C50.9744 149.35 50.9744 149.351 50.9742 149.351L45.5793 156.9C45.3484 157.223 44.8989 157.298 44.5777 157.065C44.2565 156.831 44.1898 156.38 44.4264 156.061L55.5829 141.011C55.762 140.769 56.1029 140.719 56.3462 140.895ZM141.574 156.061C141.81 156.38 141.743 156.831 141.422 157.064C141.101 157.298 140.652 157.223 140.421 156.9L135.026 149.351L129.529 141.657C129.355 141.412 129.411 141.072 129.655 140.895C129.898 140.719 130.239 140.769 130.418 141.011L141.574 156.061ZM51.266 136.777C51.4898 136.979 51.5109 137.324 51.3112 137.549L38.8915 151.575C38.6284 151.872 38.1739 151.9 37.8793 151.634C37.5846 151.368 37.5651 150.913 37.8334 150.621L50.4936 136.812C50.6972 136.59 51.0422 136.575 51.266 136.777ZM148.167 150.621C148.435 150.913 148.415 151.368 148.121 151.634C147.826 151.9 147.372 151.872 147.108 151.575L134.69 137.549C134.49 137.324 134.511 136.979 134.735 136.777C134.959 136.575 135.304 136.59 135.507 136.812L148.167 150.621ZM46.6398 132.151C46.8416 132.375 46.8268 132.72 46.6047 132.923L32.7954 145.583C32.5028 145.851 32.0479 145.831 31.7819 145.537C31.5159 145.242 31.5437 144.788 31.8409 144.525L45.8679 132.106C46.0935 131.906 46.4381 131.927 46.6398 132.151ZM154.159 144.525C154.456 144.788 154.484 145.242 154.218 145.537C153.952 145.831 153.497 145.851 153.205 145.583L139.396 132.923C139.174 132.72 139.159 132.375 139.361 132.151C139.563 131.927 139.907 131.906 140.133 132.106L154.159 144.525ZM42.5215 127.071C42.6984 127.314 42.6479 127.655 42.4062 127.834L27.3552 138.99C27.0361 139.226 26.5854 139.16 26.3515 138.838C26.1177 138.517 26.1927 138.068 26.516 137.837L41.76 126.945C42.0047 126.771 42.3447 126.827 42.5215 127.071ZM151.934 132.442L159.484 137.837C159.807 138.068 159.882 138.517 159.648 138.838C159.415 139.16 158.964 139.226 158.645 138.99L143.595 127.834C143.353 127.655 143.303 127.314 143.479 127.071C143.656 126.827 143.996 126.771 144.241 126.946L151.934 132.442ZM38.9589 121.595C39.1094 121.856 39.0235 122.189 38.7647 122.342L22.6284 131.866C22.2868 132.068 21.8461 131.955 21.6478 131.611C21.4494 131.267 21.5708 130.829 21.916 130.633L38.215 121.392C38.4765 121.243 38.8085 121.335 38.9589 121.595ZM164.084 130.633C164.429 130.829 164.551 131.267 164.352 131.611C164.154 131.955 163.713 132.068 163.372 131.866L147.236 122.342C146.977 122.189 146.892 121.856 147.042 121.596C147.192 121.335 147.524 121.243 147.786 121.392L164.084 130.633ZM35.993 115.787C36.1155 116.061 35.9953 116.383 35.722 116.508L18.6778 124.287C18.3164 124.452 17.8894 124.293 17.7272 123.931C17.565 123.568 17.7318 123.144 18.0961 122.985L35.2748 115.506C35.5502 115.386 35.8705 115.513 35.993 115.787ZM167.904 122.985C168.268 123.144 168.435 123.568 168.273 123.931C168.111 124.293 167.684 124.452 167.322 124.287L150.279 116.508C150.006 116.383 149.885 116.061 150.008 115.787C150.13 115.513 150.451 115.386 150.726 115.506L167.904 122.985ZM33.657 109.705C33.7498 109.99 33.5963 110.298 33.3115 110.393L15.543 116.335C15.166 116.461 14.7579 116.258 14.6348 115.88C14.5117 115.502 14.7225 115.098 15.1017 114.978L32.9727 109.35C33.2591 109.26 33.5642 109.419 33.657 109.705ZM162.047 112.19L170.898 114.978C171.278 115.098 171.488 115.502 171.365 115.88C171.242 116.258 170.834 116.461 170.457 116.335L152.689 110.393C152.405 110.298 152.251 109.99 152.344 109.705C152.437 109.419 152.742 109.26 153.028 109.35L162.047 112.19ZM31.9743 103.411C32.0363 103.705 31.851 103.995 31.5577 104.06L22.3239 106.098C22.3236 106.098 22.3235 106.098 22.3237 106.098C22.3239 106.098 22.3238 106.099 22.3235 106.099L13.2638 108.098C12.8754 108.183 12.4908 107.939 12.4081 107.549C12.3255 107.16 12.5778 106.78 12.9677 106.701L31.3311 102.986C31.6256 102.926 31.9123 103.117 31.9743 103.411ZM154.027 103.411C154.089 103.117 154.375 102.926 154.67 102.986L173.032 106.701C173.422 106.78 173.674 107.16 173.592 107.549C173.509 107.939 173.125 108.183 172.736 108.098L163.677 106.099L154.443 104.06C154.15 103.995 153.965 103.705 154.027 103.411ZM30.9611 96.9651C30.992 97.2647 30.7769 97.5342 30.4775 97.5679L11.8606 99.6655C11.4656 99.71 11.1093 99.4266 11.0687 99.0312C11.0282 98.6358 11.3188 98.284 11.7145 98.2463L30.3643 96.4735C30.6642 96.445 30.9301 96.6655 30.9611 96.9651ZM174.286 98.2463C174.681 98.284 174.972 98.6358 174.931 99.0312C174.891 99.4266 174.534 99.71 174.139 99.6656L164.918 98.627L155.523 97.5679C155.224 97.5342 155.009 97.2647 155.04 96.9651C155.071 96.6655 155.337 96.445 155.637 96.4735L174.286 98.2463ZM10.623 90.417C10.623 90.0179 10.9505 89.6971 11.3496 89.7005L20.626 89.7803L30.0742 89.8615C30.3784 89.8641 30.623 90.1128 30.623 90.417C30.623 90.7206 30.3788 90.9689 30.0752 90.9715L11.3476 91.1315C10.95 91.1349 10.6252 90.8147 10.623 90.417ZM175.378 90.417C175.375 90.8148 175.05 91.1349 174.652 91.1315L155.926 90.9715C155.622 90.9689 155.378 90.7206 155.378 90.417C155.378 90.1128 155.623 89.8641 155.927 89.8615L174.65 89.7005C175.049 89.6971 175.378 90.0179 175.378 90.417ZM21.083 82.2061L30.4776 83.2651C30.7769 83.2988 30.992 83.5683 30.9611 83.8679C30.9301 84.1675 30.6642 84.388 30.3643 84.3595L11.7144 82.5857C11.3188 82.5481 11.0282 82.1962 11.0687 81.8008C11.1093 81.4055 11.4657 81.122 11.8606 81.1665L21.083 82.2061ZM174.139 81.1665C174.534 81.122 174.891 81.4055 174.931 81.8008C174.972 82.1962 174.681 82.5481 174.286 82.5857L155.637 84.3595C155.337 84.388 155.071 84.1675 155.04 83.8679C155.009 83.5683 155.224 83.2988 155.523 83.2651L174.139 81.1665ZM22.3242 74.7344L31.5577 76.7733C31.8511 76.8381 32.0363 77.128 31.9743 77.4219C31.9124 77.7159 31.6255 77.9068 31.3311 77.8471L22.0625 75.9707L12.9677 74.1311C12.5778 74.0522 12.3255 73.6717 12.4081 73.2825C12.4908 72.8934 12.8754 72.6486 13.2638 72.7344L22.3242 74.7344ZM172.736 72.7344C173.125 72.6486 173.509 72.8935 173.592 73.2826C173.674 73.6717 173.422 74.0522 173.032 74.1312L163.939 75.9715C163.939 75.9716 163.938 75.9715 163.938 75.9712C163.938 75.9709 163.937 75.9708 163.937 75.9708L154.67 77.8471C154.375 77.9067 154.089 77.7159 154.027 77.4219C153.965 77.128 154.15 76.8381 154.443 76.7734L172.736 72.7344ZM33.3115 70.4398C33.5963 70.5351 33.7498 70.8428 33.657 71.1284C33.5642 71.414 33.259 71.5733 32.9726 71.4831L23.9531 68.6416L15.1017 65.854C14.7225 65.7345 14.5117 65.3298 14.6348 64.9518C14.7579 64.5737 15.166 64.3708 15.543 64.4969L33.3115 70.4398ZM170.457 64.4969C170.834 64.3708 171.242 64.5738 171.365 64.9518C171.488 65.3299 171.278 65.7345 170.898 65.854L162.049 68.6424C162.048 68.6425 162.048 68.6424 162.047 68.6421C162.047 68.6418 162.047 68.6417 162.046 68.6418L153.028 71.4831C152.742 71.5733 152.437 71.414 152.344 71.1284C152.251 70.8428 152.405 70.5351 152.689 70.4398L170.457 64.4969ZM35.7221 64.325C35.9953 64.4497 36.1155 64.772 35.993 65.0462C35.8705 65.3205 35.5502 65.4467 35.2748 65.3268L18.096 57.8467C17.7318 57.6881 17.565 57.264 17.7272 56.9013C17.8894 56.5387 18.3164 56.3798 18.6778 56.5448L35.7221 64.325ZM167.322 56.5448C167.684 56.3798 168.111 56.5387 168.273 56.9013C168.435 57.264 168.268 57.6882 167.904 57.8468L159.397 61.5515C159.397 61.5516 159.396 61.5516 159.396 61.5513C159.396 61.551 159.395 61.5509 159.395 61.5511L150.726 65.3268C150.451 65.4467 150.13 65.3205 150.008 65.0462C149.885 64.772 150.006 64.4497 150.279 64.325L167.322 56.5448ZM38.7647 58.4909C39.0235 58.6437 39.1094 58.9772 38.9589 59.2375C38.8085 59.4977 38.4765 59.5898 38.215 59.4415L21.9159 50.1991C21.5708 50.0034 21.4494 49.5646 21.6478 49.221C21.8461 48.8773 22.2868 48.7641 22.6285 48.9658L38.7647 58.4909ZM163.372 48.9658C163.713 48.7641 164.154 48.8773 164.352 49.221C164.551 49.5646 164.429 50.0034 164.084 50.1991L147.786 59.4415C147.524 59.5897 147.192 59.4977 147.042 59.2375C146.892 58.9772 146.977 58.6437 147.236 58.4909L163.372 48.9658ZM42.4063 52.999C42.6479 53.1781 42.6984 53.519 42.5216 53.7622C42.3447 54.0055 42.0047 54.0623 41.76 53.8875L34.0664 48.3896L26.516 42.9953C26.1927 42.7644 26.1177 42.3148 26.3515 41.9937C26.5854 41.6725 27.0361 41.6058 27.3552 41.8424L42.4063 52.999ZM158.645 41.8425C158.964 41.6059 159.415 41.6725 159.648 41.9937C159.882 42.3149 159.807 42.7644 159.484 42.9954L151.935 48.3902C151.935 48.3905 151.934 48.3904 151.934 48.3901C151.934 48.3899 151.933 48.3898 151.933 48.39L144.241 53.8874C143.996 54.0623 143.656 54.0055 143.479 53.7622C143.303 53.5189 143.353 53.1781 143.595 52.999L158.645 41.8425ZM46.6047 47.9096C46.8268 48.1133 46.8416 48.4582 46.6399 48.682C46.4381 48.9058 46.0935 48.9269 45.8679 48.7272L31.8409 36.3075C31.5437 36.0444 31.5159 35.5899 31.7819 35.2953C32.0479 35.0006 32.5028 34.9811 32.7954 35.2494L46.6047 47.9096ZM153.205 35.2494C153.497 34.9812 153.952 35.0006 154.218 35.2953C154.484 35.5899 154.456 36.0444 154.159 36.3075L140.133 48.7272C139.907 48.9269 139.563 48.9058 139.361 48.682C139.159 48.4582 139.174 48.1133 139.396 47.9096L153.205 35.2494ZM51.3112 43.2839C51.5109 43.5095 51.4898 43.8541 51.266 44.0559C51.0422 44.2576 50.6972 44.2428 50.4936 44.0207L37.8334 30.2115C37.5651 29.9188 37.5846 29.4639 37.8792 29.1979C38.1739 28.9319 38.6284 28.9597 38.8915 29.2569L51.3112 43.2839ZM147.108 29.2569C147.372 28.9597 147.826 28.9319 148.121 29.1979C148.415 29.4639 148.435 29.9188 148.167 30.2115L135.507 44.0207C135.304 44.2428 134.959 44.2576 134.735 44.0559C134.511 43.8541 134.49 43.5095 134.69 43.2839L147.108 29.2569ZM50.9746 31.4824L56.4715 39.176C56.6463 39.4208 56.5895 39.7607 56.3462 39.9376C56.1029 40.1144 55.762 40.0639 55.5829 39.8223L44.4264 24.7712C44.1898 24.4521 44.2565 24.0014 44.5777 23.7675C44.8988 23.5337 45.3484 23.6087 45.5793 23.9319L50.9746 31.4824ZM140.421 23.932C140.652 23.6087 141.101 23.5337 141.422 23.7676C141.743 24.0014 141.81 24.4521 141.574 24.7712L130.418 39.8222C130.239 40.0639 129.898 40.1144 129.655 39.9376C129.411 39.7607 129.355 39.4208 129.529 39.176L140.421 23.932ZM62.0255 35.631C62.1737 35.8925 62.0817 36.2245 61.8215 36.3749C61.5612 36.5254 61.2277 36.4396 61.0749 36.1807L51.5498 20.0445C51.3481 19.7028 51.4613 19.2621 51.8049 19.0638C52.1486 18.8654 52.5874 18.9868 52.7831 19.332L62.0255 35.631ZM133.217 19.332C133.413 18.9868 133.851 18.8654 134.195 19.0638C134.539 19.2621 134.652 19.7028 134.45 20.0445L124.926 36.1807C124.773 36.4395 124.44 36.5254 124.179 36.3749C123.919 36.2245 123.827 35.8925 123.975 35.631L133.217 19.332ZM67.9108 32.6908C68.0307 32.9662 67.9045 33.2865 67.6302 33.409C67.356 33.5315 67.0337 33.4113 66.9089 33.1381L59.1288 16.0938C58.9638 15.7324 59.1227 15.3054 59.4853 15.1432C59.8479 14.981 60.2721 15.1478 60.4307 15.5121L67.9108 32.6908ZM125.569 15.5121C125.728 15.1478 126.152 14.981 126.515 15.1432C126.877 15.3054 127.036 15.7324 126.871 16.0938L119.092 33.1381C118.967 33.4113 118.645 33.5315 118.371 33.409C118.096 33.2865 117.97 32.9662 118.09 32.6909L125.569 15.5121ZM74.0671 30.3887C74.1573 30.6751 73.998 30.9802 73.7124 31.073C73.4268 31.1658 73.1191 31.0123 73.0238 30.7275L67.0809 12.9591C66.9548 12.582 67.1577 12.1739 67.5358 12.0508C67.9138 11.9277 68.3185 12.1385 68.438 12.5177L74.0671 30.3887ZM117.562 12.5177C117.681 12.1385 118.086 11.9277 118.464 12.0508C118.842 12.1739 119.045 12.582 118.919 12.959L112.977 30.7275C112.882 31.0123 112.574 31.1658 112.289 31.073C112.003 30.9802 111.844 30.6751 111.934 30.3887L117.562 12.5177ZM80.4312 28.7471C80.4908 29.0416 80.2999 29.3284 80.006 29.3903C79.712 29.4523 79.4221 29.2671 79.3573 28.9737L75.3184 10.6799C75.2326 10.2915 75.4775 9.90676 75.8666 9.82414C76.2557 9.74153 76.6362 9.9938 76.7151 10.3837L80.4312 28.7471ZM109.285 10.3837C109.364 9.99382 109.744 9.74153 110.133 9.82415C110.523 9.90677 110.767 10.2914 110.682 10.6799L106.644 28.9737C106.579 29.2671 106.289 29.4523 105.995 29.3903C105.701 29.3284 105.51 29.0416 105.57 28.7471L109.285 10.3837ZM86.9435 27.7803C86.972 28.0802 86.7515 28.3461 86.4519 28.3771C86.1522 28.408 85.8828 28.1929 85.8491 27.8936L83.7505 9.2766C83.706 8.88167 83.9895 8.52528 84.3848 8.48474C84.7802 8.4442 85.1321 8.73481 85.1697 9.13046L86.9435 27.7803ZM100.83 9.13049C100.868 8.73482 101.22 8.4442 101.615 8.48474C102.011 8.52529 102.294 8.88166 102.25 9.27658L100.152 27.8936C100.118 28.1929 99.8487 28.408 99.5491 28.3771C99.2495 28.3461 99.029 28.0802 99.0575 27.7803L100.83 9.13049ZM93.001 8.03906C93.3986 8.04122 93.7189 8.366 93.7155 8.76366L93.5555 27.4912C93.5529 27.7949 93.3046 28.0391 93.001 28.0391C92.6968 28.0391 92.4481 27.7944 92.4455 27.4902L92.2845 8.76561C92.2811 8.36651 92.6019 8.03906 93.001 8.03906Z" fill="#8D8D8D"/>
<mask id="mask0_1516_14301" style="mask-type:alpha" maskUnits="userSpaceOnUse" x="10" y="8" width="166" height="165">
<path d="M93.001 152.794V172.794C92.6021 172.791 92.2811 172.465 92.2845 172.066L92.4455 153.343C92.4481 153.039 92.6968 152.794 93.001 152.794ZM93.7155 172.068C93.7189 172.466 93.399 172.794 93.001 172.794V152.794C93.3046 152.794 93.5529 153.038 93.5555 153.342L93.7155 172.068ZM86.4519 152.456C86.7515 152.487 86.972 152.753 86.9435 153.053L85.1697 171.702C85.1321 172.097 84.7802 172.388 84.3848 172.347C83.9895 172.307 83.706 171.95 83.7505 171.555L85.8491 152.939C85.8828 152.64 86.1522 152.425 86.4519 152.456ZM99.5491 152.456C99.8487 152.425 100.118 152.64 100.152 152.939L102.25 171.555C102.294 171.95 102.011 172.307 101.615 172.347C101.22 172.388 100.868 172.097 100.83 171.702L99.0575 153.053C99.029 152.753 99.2495 152.487 99.5491 152.456ZM80.006 151.443C80.2999 151.505 80.4908 151.791 80.4312 152.086L76.7151 170.448C76.6362 170.838 76.2557 171.09 75.8666 171.008C75.4775 170.925 75.2326 170.541 75.3184 170.152L79.3573 151.859C79.4221 151.566 79.712 151.381 80.006 151.443ZM108.682 161.093L110.8 170.685C110.82 170.779 110.761 170.872 110.666 170.893C110.489 170.932 110.312 170.97 110.134 171.008C109.744 171.09 109.364 170.838 109.285 170.447L105.57 152.086C105.51 151.791 105.701 151.505 105.995 151.443C106.289 151.381 106.579 151.566 106.644 151.859L108.682 161.093ZM73.7124 149.76C73.998 149.853 74.1573 150.158 74.0671 150.444L71.2258 159.462C71.2257 159.463 71.2258 159.463 71.2261 159.463C71.2264 159.464 71.2265 159.464 71.2264 159.465L68.438 168.314C68.3185 168.694 67.9139 168.904 67.5358 168.781C67.1578 168.658 66.9548 168.25 67.0809 167.873L73.0238 150.105C73.1191 149.821 73.4268 149.667 73.7124 149.76ZM118.919 167.873C119.045 168.25 118.842 168.658 118.464 168.781C118.086 168.904 117.681 168.694 117.562 168.314L114.774 159.464L111.934 150.444C111.844 150.158 112.003 149.853 112.289 149.76C112.574 149.667 112.882 149.821 112.977 150.105L118.919 167.873ZM67.6302 147.424C67.9045 147.546 68.0307 147.867 67.9108 148.142L60.4307 165.32C60.2721 165.684 59.848 165.851 59.4853 165.689C59.1227 165.527 58.9638 165.1 59.1288 164.738L66.9089 147.695C67.0337 147.422 67.356 147.301 67.6302 147.424ZM126.871 164.738C127.036 165.1 126.877 165.527 126.515 165.689C126.152 165.851 125.728 165.684 125.569 165.32L121.865 156.812L118.09 148.142C117.97 147.867 118.096 147.546 118.371 147.424C118.645 147.301 118.967 147.422 119.092 147.695L126.871 164.738ZM61.8215 144.458C62.0817 144.609 62.1737 144.941 62.0254 145.202L52.7831 161.5C52.5874 161.845 52.1486 161.967 51.8049 161.768C51.4613 161.57 51.3481 161.129 51.5498 160.788L61.0749 144.652C61.2277 144.393 61.5612 144.308 61.8215 144.458ZM134.45 160.788C134.652 161.129 134.539 161.57 134.195 161.768C133.851 161.967 133.413 161.845 133.217 161.5L123.976 145.202C123.827 144.941 123.919 144.609 124.179 144.458C124.44 144.308 124.773 144.393 124.926 144.652L134.45 160.788ZM56.3462 140.895C56.5895 141.072 56.6463 141.412 56.4714 141.657L50.974 149.349C50.9738 149.349 50.9738 149.35 50.9741 149.35C50.9744 149.35 50.9744 149.351 50.9742 149.351L45.5793 156.9C45.3484 157.223 44.8989 157.298 44.5777 157.065C44.2565 156.831 44.1898 156.38 44.4264 156.061L55.5829 141.011C55.762 140.769 56.1029 140.719 56.3462 140.895ZM141.574 156.061C141.81 156.38 141.743 156.831 141.422 157.064C141.101 157.298 140.652 157.223 140.421 156.9L135.026 149.351L129.529 141.657C129.355 141.412 129.411 141.072 129.655 140.895C129.898 140.719 130.239 140.769 130.418 141.011L141.574 156.061ZM51.266 136.777C51.4898 136.979 51.5109 137.324 51.3112 137.549L38.8915 151.575C38.6284 151.872 38.1739 151.9 37.8793 151.634C37.5846 151.368 37.5651 150.913 37.8334 150.621L50.4936 136.812C50.6972 136.59 51.0422 136.575 51.266 136.777ZM148.167 150.621C148.435 150.913 148.415 151.368 148.121 151.634C147.826 151.9 147.372 151.872 147.108 151.575L134.69 137.549C134.49 137.324 134.511 136.979 134.735 136.777C134.959 136.575 135.304 136.59 135.507 136.812L148.167 150.621ZM46.6398 132.151C46.8416 132.375 46.8268 132.72 46.6047 132.923L32.7954 145.583C32.5028 145.851 32.0479 145.831 31.7819 145.537C31.5159 145.242 31.5437 144.788 31.8409 144.525L45.8679 132.106C46.0935 131.906 46.4381 131.927 46.6398 132.151ZM154.159 144.525C154.456 144.788 154.484 145.242 154.218 145.537C153.952 145.831 153.497 145.851 153.205 145.583L139.396 132.923C139.174 132.72 139.159 132.375 139.361 132.151C139.563 131.927 139.907 131.906 140.133 132.106L154.159 144.525ZM42.5215 127.071C42.6984 127.314 42.6479 127.655 42.4062 127.834L27.3552 138.99C27.0361 139.226 26.5854 139.16 26.3515 138.838C26.1177 138.517 26.1927 138.068 26.516 137.837L41.76 126.945C42.0047 126.771 42.3447 126.827 42.5215 127.071ZM151.934 132.442L159.484 137.837C159.807 138.068 159.882 138.517 159.648 138.838C159.415 139.16 158.964 139.226 158.645 138.99L143.595 127.834C143.353 127.655 143.303 127.314 143.479 127.071C143.656 126.827 143.996 126.771 144.241 126.946L151.934 132.442ZM38.9589 121.595C39.1094 121.856 39.0235 122.189 38.7647 122.342L22.6284 131.866C22.2868 132.068 21.8461 131.955 21.6478 131.611C21.4494 131.267 21.5708 130.829 21.916 130.633L38.215 121.392C38.4765 121.243 38.8085 121.335 38.9589 121.595ZM164.084 130.633C164.429 130.829 164.551 131.267 164.352 131.611C164.154 131.955 163.713 132.068 163.372 131.866L147.236 122.342C146.977 122.189 146.892 121.856 147.042 121.596C147.192 121.335 147.524 121.243 147.786 121.392L164.084 130.633ZM35.993 115.787C36.1155 116.061 35.9953 116.383 35.722 116.508L18.6778 124.287C18.3164 124.452 17.8894 124.293 17.7272 123.931C17.565 123.568 17.7318 123.144 18.0961 122.985L35.2748 115.506C35.5502 115.386 35.8705 115.513 35.993 115.787ZM167.904 122.985C168.268 123.144 168.435 123.568 168.273 123.931C168.111 124.293 167.684 124.452 167.322 124.287L150.279 116.508C150.006 116.383 149.885 116.061 150.008 115.787C150.13 115.513 150.451 115.386 150.726 115.506L167.904 122.985ZM33.657 109.705C33.7498 109.99 33.5963 110.298 33.3115 110.393L15.543 116.335C15.166 116.461 14.7579 116.258 14.6348 115.88C14.5117 115.502 14.7225 115.098 15.1017 114.978L32.9727 109.35C33.2591 109.26 33.5642 109.419 33.657 109.705ZM162.047 112.19L170.898 114.978C171.278 115.098 171.488 115.502 171.365 115.88C171.242 116.258 170.834 116.461 170.457 116.335L152.689 110.393C152.405 110.298 152.251 109.99 152.344 109.705C152.437 109.419 152.742 109.26 153.028 109.35L162.047 112.19ZM31.9743 103.411C32.0363 103.705 31.851 103.995 31.5577 104.06L22.3239 106.098C22.3236 106.098 22.3235 106.098 22.3237 106.098C22.3239 106.098 22.3238 106.099 22.3235 106.099L13.2638 108.098C12.8754 108.183 12.4908 107.939 12.4081 107.549C12.3255 107.16 12.5778 106.78 12.9677 106.701L31.3311 102.986C31.6256 102.926 31.9123 103.117 31.9743 103.411ZM154.027 103.411C154.089 103.117 154.375 102.926 154.67 102.986L173.032 106.701C173.422 106.78 173.674 107.16 173.592 107.549C173.509 107.939 173.125 108.183 172.736 108.098L163.677 106.099L154.443 104.06C154.15 103.995 153.965 103.705 154.027 103.411ZM30.9611 96.9651C30.992 97.2647 30.7769 97.5342 30.4775 97.5679L11.8606 99.6655C11.4656 99.71 11.1093 99.4266 11.0687 99.0312C11.0282 98.6358 11.3188 98.284 11.7145 98.2463L30.3643 96.4735C30.6642 96.445 30.9301 96.6655 30.9611 96.9651ZM174.286 98.2463C174.681 98.284 174.972 98.6358 174.931 99.0312C174.891 99.4266 174.534 99.71 174.139 99.6656L164.918 98.627L155.523 97.5679C155.224 97.5342 155.009 97.2647 155.04 96.9651C155.071 96.6655 155.337 96.445 155.637 96.4735L174.286 98.2463ZM10.623 90.417C10.623 90.0179 10.9505 89.6971 11.3496 89.7005L20.626 89.7803L30.0742 89.8615C30.3784 89.8641 30.623 90.1128 30.623 90.417C30.623 90.7206 30.3788 90.9689 30.0752 90.9715L11.3476 91.1315C10.95 91.1349 10.6252 90.8147 10.623 90.417ZM175.378 90.417C175.375 90.8148 175.05 91.1349 174.652 91.1315L155.926 90.9715C155.622 90.9689 155.378 90.7206 155.378 90.417C155.378 90.1128 155.623 89.8641 155.927 89.8615L174.65 89.7005C175.049 89.6971 175.378 90.0179 175.378 90.417ZM21.083 82.2061L30.4776 83.2651C30.7769 83.2988 30.992 83.5683 30.9611 83.8679C30.9301 84.1675 30.6642 84.388 30.3643 84.3595L11.7144 82.5857C11.3188 82.5481 11.0282 82.1962 11.0687 81.8008C11.1093 81.4055 11.4657 81.122 11.8606 81.1665L21.083 82.2061ZM174.139 81.1665C174.534 81.122 174.891 81.4055 174.931 81.8008C174.972 82.1962 174.681 82.5481 174.286 82.5857L155.637 84.3595C155.337 84.388 155.071 84.1675 155.04 83.8679C155.009 83.5683 155.224 83.2988 155.523 83.2651L174.139 81.1665ZM22.3242 74.7344L31.5577 76.7733C31.8511 76.8381 32.0363 77.128 31.9743 77.4219C31.9124 77.7159 31.6255 77.9068 31.3311 77.8471L22.0625 75.9707L12.9677 74.1311C12.5778 74.0522 12.3255 73.6717 12.4081 73.2825C12.4908 72.8934 12.8754 72.6486 13.2638 72.7344L22.3242 74.7344ZM172.736 72.7344C173.125 72.6486 173.509 72.8935 173.592 73.2826C173.674 73.6717 173.422 74.0522 173.032 74.1312L163.939 75.9715C163.939 75.9716 163.938 75.9715 163.938 75.9712C163.938 75.9709 163.937 75.9708 163.937 75.9708L154.67 77.8471C154.375 77.9067 154.089 77.7159 154.027 77.4219C153.965 77.128 154.15 76.8381 154.443 76.7734L172.736 72.7344ZM33.3115 70.4398C33.5963 70.5351 33.7498 70.8428 33.657 71.1284C33.5642 71.414 33.259 71.5733 32.9726 71.4831L23.9531 68.6416L15.1017 65.854C14.7225 65.7345 14.5117 65.3298 14.6348 64.9518C14.7579 64.5737 15.166 64.3708 15.543 64.4969L33.3115 70.4398ZM170.457 64.4969C170.834 64.3708 171.242 64.5738 171.365 64.9518C171.488 65.3299 171.278 65.7345 170.898 65.854L162.049 68.6424C162.048 68.6425 162.048 68.6424 162.047 68.6421C162.047 68.6418 162.047 68.6417 162.046 68.6418L153.028 71.4831C152.742 71.5733 152.437 71.414 152.344 71.1284C152.251 70.8428 152.405 70.5351 152.689 70.4398L170.457 64.4969ZM35.7221 64.325C35.9953 64.4497 36.1155 64.772 35.993 65.0462C35.8705 65.3205 35.5502 65.4467 35.2748 65.3268L18.096 57.8467C17.7318 57.6881 17.565 57.264 17.7272 56.9013C17.8894 56.5387 18.3164 56.3798 18.6778 56.5448L35.7221 64.325ZM167.322 56.5448C167.684 56.3798 168.111 56.5387 168.273 56.9013C168.435 57.264 168.268 57.6882 167.904 57.8468L159.397 61.5515C159.397 61.5516 159.396 61.5516 159.396 61.5513C159.396 61.551 159.395 61.5509 159.395 61.5511L150.726 65.3268C150.451 65.4467 150.13 65.3205 150.008 65.0462C149.885 64.772 150.006 64.4497 150.279 64.325L167.322 56.5448ZM38.7647 58.4909C39.0235 58.6437 39.1094 58.9772 38.9589 59.2375C38.8085 59.4977 38.4765 59.5898 38.215 59.4415L21.9159 50.1991C21.5708 50.0034 21.4494 49.5646 21.6478 49.221C21.8461 48.8773 22.2868 48.7641 22.6285 48.9658L38.7647 58.4909ZM163.372 48.9658C163.713 48.7641 164.154 48.8773 164.352 49.221C164.551 49.5646 164.429 50.0034 164.084 50.1991L147.786 59.4415C147.524 59.5897 147.192 59.4977 147.042 59.2375C146.892 58.9772 146.977 58.6437 147.236 58.4909L163.372 48.9658ZM42.4063 52.999C42.6479 53.1781 42.6984 53.519 42.5216 53.7622C42.3447 54.0055 42.0047 54.0623 41.76 53.8875L34.0664 48.3896L26.516 42.9953C26.1927 42.7644 26.1177 42.3148 26.3515 41.9937C26.5854 41.6725 27.0361 41.6058 27.3552 41.8424L42.4063 52.999ZM158.645 41.8425C158.964 41.6059 159.415 41.6725 159.648 41.9937C159.882 42.3149 159.807 42.7644 159.484 42.9954L151.935 48.3902C151.935 48.3905 151.934 48.3904 151.934 48.3901C151.934 48.3899 151.933 48.3898 151.933 48.39L144.241 53.8874C143.996 54.0623 143.656 54.0055 143.479 53.7622C143.303 53.5189 143.353 53.1781 143.595 52.999L158.645 41.8425ZM46.6047 47.9096C46.8268 48.1133 46.8416 48.4582 46.6399 48.682C46.4381 48.9058 46.0935 48.9269 45.8679 48.7272L31.8409 36.3075C31.5437 36.0444 31.5159 35.5899 31.7819 35.2953C32.0479 35.0006 32.5028 34.9811 32.7954 35.2494L46.6047 47.9096ZM153.205 35.2494C153.497 34.9812 153.952 35.0006 154.218 35.2953C154.484 35.5899 154.456 36.0444 154.159 36.3075L140.133 48.7272C139.907 48.9269 139.563 48.9058 139.361 48.682C139.159 48.4582 139.174 48.1133 139.396 47.9096L153.205 35.2494ZM51.3112 43.2839C51.5109 43.5095 51.4898 43.8541 51.266 44.0559C51.0422 44.2576 50.6972 44.2428 50.4936 44.0207L37.8334 30.2115C37.5651 29.9188 37.5846 29.4639 37.8792 29.1979C38.1739 28.9319 38.6284 28.9597 38.8915 29.2569L51.3112 43.2839ZM147.108 29.2569C147.372 28.9597 147.826 28.9319 148.121 29.1979C148.415 29.4639 148.435 29.9188 148.167 30.2115L135.507 44.0207C135.304 44.2428 134.959 44.2576 134.735 44.0559C134.511 43.8541 134.49 43.5095 134.69 43.2839L147.108 29.2569ZM50.9746 31.4824L56.4715 39.176C56.6463 39.4208 56.5895 39.7607 56.3462 39.9376C56.1029 40.1144 55.762 40.0639 55.5829 39.8223L44.4264 24.7712C44.1898 24.4521 44.2565 24.0014 44.5777 23.7675C44.8988 23.5337 45.3484 23.6087 45.5793 23.9319L50.9746 31.4824ZM140.421 23.932C140.652 23.6087 141.101 23.5337 141.422 23.7676C141.743 24.0014 141.81 24.4521 141.574 24.7712L130.418 39.8222C130.239 40.0639 129.898 40.1144 129.655 39.9376C129.411 39.7607 129.355 39.4208 129.529 39.176L140.421 23.932ZM62.0255 35.631C62.1737 35.8925 62.0817 36.2245 61.8215 36.3749C61.5612 36.5254 61.2277 36.4396 61.0749 36.1807L51.5498 20.0445C51.3481 19.7028 51.4613 19.2621 51.8049 19.0638C52.1486 18.8654 52.5874 18.9868 52.7831 19.332L62.0255 35.631ZM133.217 19.332C133.413 18.9868 133.851 18.8654 134.195 19.0638C134.539 19.2621 134.652 19.7028 134.45 20.0445L124.926 36.1807C124.773 36.4395 124.44 36.5254 124.179 36.3749C123.919 36.2245 123.827 35.8925 123.975 35.631L133.217 19.332ZM67.9108 32.6908C68.0307 32.9662 67.9045 33.2865 67.6302 33.409C67.356 33.5315 67.0337 33.4113 66.9089 33.1381L59.1288 16.0938C58.9638 15.7324 59.1227 15.3054 59.4853 15.1432C59.8479 14.981 60.2721 15.1478 60.4307 15.5121L67.9108 32.6908ZM125.569 15.5121C125.728 15.1478 126.152 14.981 126.515 15.1432C126.877 15.3054 127.036 15.7324 126.871 16.0938L119.092 33.1381C118.967 33.4113 118.645 33.5315 118.371 33.409C118.096 33.2865 117.97 32.9662 118.09 32.6909L125.569 15.5121ZM74.0671 30.3887C74.1573 30.6751 73.998 30.9802 73.7124 31.073C73.4268 31.1658 73.1191 31.0123 73.0238 30.7275L67.0809 12.9591C66.9548 12.582 67.1577 12.1739 67.5358 12.0508C67.9138 11.9277 68.3185 12.1385 68.438 12.5177L74.0671 30.3887ZM117.562 12.5177C117.681 12.1385 118.086 11.9277 118.464 12.0508C118.842 12.1739 119.045 12.582 118.919 12.959L112.977 30.7275C112.882 31.0123 112.574 31.1658 112.289 31.073C112.003 30.9802 111.844 30.6751 111.934 30.3887L117.562 12.5177ZM80.4312 28.7471C80.4908 29.0416 80.2999 29.3284 80.006 29.3903C79.712 29.4523 79.4221 29.2671 79.3573 28.9737L75.3184 10.6799C75.2326 10.2915 75.4775 9.90676 75.8666 9.82414C76.2557 9.74153 76.6362 9.9938 76.7151 10.3837L80.4312 28.7471ZM109.285 10.3837C109.364 9.99382 109.744 9.74153 110.133 9.82415C110.523 9.90677 110.767 10.2914 110.682 10.6799L106.644 28.9737C106.579 29.2671 106.289 29.4523 105.995 29.3903C105.701 29.3284 105.51 29.0416 105.57 28.7471L109.285 10.3837ZM86.9435 27.7803C86.972 28.0802 86.7515 28.3461 86.4519 28.3771C86.1522 28.408 85.8828 28.1929 85.8491 27.8936L83.7505 9.2766C83.706 8.88167 83.9895 8.52528 84.3848 8.48474C84.7802 8.4442 85.1321 8.73481 85.1697 9.13046L86.9435 27.7803ZM100.83 9.13049C100.868 8.73482 101.22 8.4442 101.615 8.48474C102.011 8.52529 102.294 8.88166 102.25 9.27658L100.152 27.8936C100.118 28.1929 99.8487 28.408 99.5491 28.3771C99.2495 28.3461 99.029 28.0802 99.0575 27.7803L100.83 9.13049ZM93.001 8.03906C93.3986 8.04122 93.7189 8.366 93.7155 8.76366L93.5555 27.4912C93.5529 27.7949 93.3046 28.0391 93.001 28.0391C92.6968 28.0391 92.4481 27.7944 92.4455 27.4902L92.2845 8.76561C92.2811 8.36651 92.6019 8.03906 93.001 8.03906Z" fill="#8D8D8D"/>
</mask>
<g mask="url(#mask0_1516_14301)">
<path d="M21.3945 149.471C30.7306 141.959 49.9822 126.356 52.3 124.038L132.783 110.195L168.84 129.833L188.155 139.491L111.858 176.835L55.5194 173.294L21.3945 149.471Z" fill="#9B1D32"/>
</g>
<circle cx="7.5" cy="7.5" r="7.5" transform="matrix(1 0 0 -1 85.5 97.916)" fill="#9B1D32"/>
<line x1="93.2609" y1="89.5461" x2="93.2609" y2="49.5394" stroke="#9B1D32" stroke-width="1.4" stroke-linecap="round"/>
<line x1="94.9509" y1="92.6191" x2="118.954" y2="116.622" stroke="#9B1D32" stroke-width="1.4" stroke-linecap="round"/>
</svg>
