<svg width="108" height="120" viewBox="0 0 108 120" fill="none" xmlns="http://www.w3.org/2000/svg">
<path d="M84.5309 73.5048C84.5309 69.8084 83.0699 64.212 80.5728 57.6869C78.105 51.2385 74.7268 44.1354 71.1132 37.5264C67.4965 30.9117 63.6793 24.8561 60.3512 20.4852C58.6816 18.2923 57.1829 16.5877 55.9363 15.4552C55.3126 14.8886 54.8037 14.5141 54.4146 14.2919C54.1959 14.167 54.0603 14.1162 53.9974 14.0963C53.9343 14.1163 53.7985 14.1672 53.5802 14.2919C53.191 14.5141 52.6821 14.8886 52.0585 15.4552C50.8119 16.5876 49.3143 18.2924 47.6447 20.4852C44.3167 24.8561 40.4994 30.9117 36.8827 37.5264C33.2692 44.1353 29.8909 51.2385 27.4231 57.6869C24.9261 64.212 23.4639 69.8084 23.4639 73.5048C23.464 88.6246 36.9349 101.226 53.9974 101.227V103.542C36.139 103.542 21.6086 90.5112 21.1586 74.2804L21.1484 73.5048C21.1484 56.9155 46.7375 11.7704 53.9974 11.7695C61.2571 11.7695 86.8464 56.9154 86.8464 73.5048L86.8362 74.2804C86.3862 90.5112 71.8558 103.542 53.9974 103.542V101.227C71.06 101.227 84.5308 88.6247 84.5309 73.5048Z" fill="#9B1D32"/>
<path d="M55.2915 56.9504C55.2915 61.9627 51.2283 66.0259 46.2161 66.0259C41.2038 66.0259 37.1406 61.9627 37.1406 56.9504C37.1406 51.9382 41.2038 47.875 46.2161 47.875C51.2283 47.875 55.2915 51.9382 55.2915 56.9504Z" fill="white"/>
<path d="M53.8916 56.9502C53.8915 52.7113 50.4548 49.2754 46.2158 49.2754C41.977 49.2755 38.5411 52.7114 38.541 56.9502C38.541 61.1891 41.9769 64.6258 46.2158 64.626V66.0264L45.749 66.0137C40.9539 65.7706 37.1406 61.8058 37.1406 56.9502C37.1408 51.9382 41.2038 47.8751 46.2158 47.875C51.228 47.875 55.2919 51.9381 55.292 56.9502L55.2793 57.417C55.0365 62.2124 51.0716 66.0264 46.2158 66.0264V64.626C50.4548 64.626 53.8916 61.1892 53.8916 56.9502Z" fill="#8D8D8D"/>
<path d="M45.9468 35.864C45.9468 38.3573 43.9256 40.3784 41.4324 40.3784C38.9391 40.3784 36.918 38.3573 36.918 35.864C36.918 33.3708 38.9391 31.3496 41.4324 31.3496C43.9256 31.3496 45.9468 33.3708 45.9468 35.864Z" fill="white"/>
<path d="M44.5469 35.8643C44.5469 34.1443 43.1525 32.7501 41.4326 32.75C39.7126 32.75 38.3184 34.1442 38.3184 35.8643C38.3185 37.5842 39.7127 38.9785 41.4326 38.9785V40.3789L41.2002 40.3721C38.8919 40.2551 37.041 38.4049 36.9238 36.0967L36.918 35.8643C36.918 33.371 38.9394 31.3496 41.4326 31.3496L41.665 31.3555C44.0501 31.4766 45.9473 33.4491 45.9473 35.8643L45.9404 36.0967C45.8193 38.4817 43.8477 40.3788 41.4326 40.3789V38.9785C43.1525 38.9784 44.5467 37.5841 44.5469 35.8643Z" fill="#8D8D8D"/>
<path d="M77.2046 95.907C77.2046 98.4002 75.1834 100.421 72.6902 100.421C70.1969 100.421 68.1758 98.4002 68.1758 95.907C68.1758 93.4137 70.1969 91.3926 72.6902 91.3926C75.1834 91.3926 77.2046 93.4137 77.2046 95.907Z" fill="white"/>
<path d="M75.8047 95.9072C75.8047 94.1873 74.4104 92.7931 72.6904 92.793C70.9704 92.793 69.5762 94.1872 69.5762 95.9072C69.5763 97.6272 70.9705 99.0215 72.6904 99.0215V100.422L72.458 100.415C70.1497 100.298 68.2988 98.4479 68.1816 96.1396L68.1758 95.9072C68.1758 93.414 70.1972 91.3926 72.6904 91.3926L72.9229 91.3984C75.308 91.5195 77.2051 93.492 77.2051 95.9072L77.1982 96.1396C77.0771 98.5247 75.1055 100.422 72.6904 100.422V99.0215C74.4103 99.0214 75.8046 97.6271 75.8047 95.9072Z" fill="#8D8D8D"/>
<path d="M33.4702 53.3386C33.4702 55.8319 31.449 57.853 28.9558 57.853C26.4626 57.853 24.4414 55.8319 24.4414 53.3386C24.4414 50.8454 26.4626 48.8242 28.9558 48.8242C31.449 48.8242 33.4702 50.8454 33.4702 53.3386Z" fill="white"/>
<path d="M32.0703 53.3389C32.0703 51.6189 30.676 50.2247 28.9561 50.2246C27.236 50.2246 25.8418 51.6188 25.8418 53.3389C25.8419 55.0588 27.2361 56.4531 28.9561 56.4531V57.8535L28.7236 57.8467C26.4154 57.7297 24.5644 55.8795 24.4473 53.5713L24.4414 53.3389C24.4414 50.8456 26.4628 48.8242 28.9561 48.8242L29.1885 48.8301C31.5736 48.9512 33.4707 50.9237 33.4707 53.3389L33.4639 53.5713C33.3428 55.9563 31.3711 57.8534 28.9561 57.8535V56.4531C30.6759 56.453 32.0702 55.0587 32.0703 53.3389Z" fill="#8D8D8D"/>
<path d="M56.3413 82.4578C56.3413 84.951 54.3201 86.9722 51.8269 86.9722C49.3337 86.9722 47.3125 84.951 47.3125 82.4578C47.3125 79.9645 49.3337 77.9434 51.8269 77.9434C54.3201 77.9434 56.3413 79.9645 56.3413 82.4578Z" fill="white"/>
<path d="M54.9414 82.458C54.9414 80.7381 53.5471 79.3439 51.8271 79.3438C50.1071 79.3438 48.7129 80.738 48.7129 82.458C48.713 84.1779 50.1072 85.5723 51.8271 85.5723V86.9727L51.5947 86.9658C49.2865 86.8489 47.4355 84.9986 47.3184 82.6904L47.3125 82.458C47.3125 79.9648 49.3339 77.9434 51.8271 77.9434L52.0596 77.9492C54.4447 78.0703 56.3418 80.0428 56.3418 82.458L56.335 82.6904C56.2139 85.0754 54.2422 86.9725 51.8271 86.9727V85.5723C53.547 85.5721 54.9413 84.1779 54.9414 82.458Z" fill="#8D8D8D"/>
<path d="M103.037 38.8445C103.037 41.3377 101.015 43.3589 98.5222 43.3589C96.029 43.3589 94.0078 41.3377 94.0078 38.8445C94.0078 36.3512 96.029 34.3301 98.5222 34.3301C101.015 34.3301 103.037 36.3512 103.037 38.8445Z" fill="white"/>
<path d="M101.637 38.8447C101.637 37.1248 100.242 35.7306 98.5225 35.7305C96.8024 35.7305 95.4082 37.1247 95.4082 38.8447C95.4083 40.5647 96.8025 41.959 98.5225 41.959V43.3594L98.29 43.3525C95.9818 43.2356 94.1309 41.3854 94.0137 39.0771L94.0078 38.8447C94.0078 36.3515 96.0292 34.3301 98.5225 34.3301L98.7549 34.3359C101.14 34.457 103.037 36.4295 103.037 38.8447L103.03 39.0771C102.909 41.4622 100.938 43.3592 98.5225 43.3594V41.959C100.242 41.9589 101.637 40.5646 101.637 38.8447Z" fill="#8D8D8D"/>
<path d="M87.1758 31.7286C87.3532 31.3852 87.7757 31.2504 88.1191 31.4278C88.4625 31.6052 88.5972 32.0277 88.4199 32.3711L86.291 36.4922C86.1136 36.8356 85.6911 36.9703 85.3477 36.793C85.0042 36.6156 84.8696 36.1931 85.0469 35.8497L87.1758 31.7286Z" fill="#8D8D8D"/>
<path d="M94.5398 39.5309C94.8877 39.3626 95.306 39.5082 95.4744 39.8561C95.6427 40.2041 95.4971 40.6223 95.1492 40.7907L91.0281 42.7858C90.6802 42.954 90.262 42.8083 90.0935 42.4606C89.9251 42.1127 90.0707 41.6935 90.4187 41.5251L94.5398 39.5309Z" fill="#8D8D8D"/>
<path d="M93.8374 28.4734C93.8374 30.9666 91.8162 32.9878 89.323 32.9878C86.8298 32.9878 84.8086 30.9666 84.8086 28.4734C84.8086 25.9802 86.8298 23.959 89.323 23.959C91.8162 23.959 93.8374 25.9802 93.8374 28.4734Z" fill="white"/>
<path d="M92.4375 28.4736C92.4375 26.7537 91.0432 25.3595 89.3232 25.3594C87.6032 25.3594 86.209 26.7536 86.209 28.4736C86.2091 30.1936 87.6033 31.5879 89.3232 31.5879V32.9883L89.0908 32.9814C86.7826 32.8645 84.9316 31.0143 84.8145 28.7061L84.8086 28.4736C84.8086 25.9804 86.83 23.959 89.3232 23.959L89.5557 23.9648C91.9408 24.0859 93.8379 26.0584 93.8379 28.4736L93.8311 28.7061C93.71 31.0911 91.7383 32.9882 89.3232 32.9883V31.5879C91.0431 31.5878 92.4374 30.1935 92.4375 28.4736Z" fill="#8D8D8D"/>
<path d="M42.5212 39.2253C42.8912 39.1138 43.2816 39.3231 43.3932 39.693L45.9167 48.07C46.0282 48.4401 45.8189 48.8304 45.4489 48.9421C45.0788 49.0535 44.6885 48.8443 44.5768 48.4743L42.0534 40.0973C41.9419 39.7273 42.1512 39.3369 42.5212 39.2253Z" fill="#8D8D8D"/>
<path d="M32.9035 53.5715L37.6887 54.636C38.0658 54.7201 38.3037 55.0937 38.22 55.4709C38.136 55.8483 37.7614 56.0861 37.384 56.0022L32.5989 54.9387C32.2217 54.8546 31.9837 54.48 32.0676 54.1028C32.1517 53.7256 32.5263 53.4876 32.9035 53.5715Z" fill="#8D8D8D"/>
<path d="M79.9438 75.2708C79.9438 80.283 75.8806 84.3462 70.8684 84.3462C65.8562 84.3462 61.793 80.283 61.793 75.2708C61.793 70.2585 65.8562 66.1953 70.8684 66.1953C75.8806 66.1953 79.9438 70.2585 79.9438 75.2708Z" fill="white"/>
<path d="M78.5439 75.2705C78.5438 71.0316 75.1071 67.5957 70.8682 67.5957C66.6293 67.5958 63.1935 71.0317 63.1934 75.2705C63.1934 79.5095 66.6292 82.9462 70.8682 82.9463V84.3467L70.4014 84.334C65.6062 84.0909 61.793 80.1261 61.793 75.2705C61.7931 70.2585 65.8561 66.1954 70.8682 66.1953C75.8803 66.1953 79.9442 70.2584 79.9443 75.2705L79.9316 75.7373C79.6888 80.5327 75.7239 84.3467 70.8682 84.3467V82.9463C75.1072 82.9463 78.5439 79.5095 78.5439 75.2705Z" fill="#8D8D8D"/>
<path d="M91.5142 44.2629C91.5142 49.2752 87.4509 53.3384 82.4387 53.3384C77.4265 53.3384 73.3633 49.2752 73.3633 44.2629C73.3633 39.2507 77.4265 35.1875 82.4387 35.1875C87.4509 35.1875 91.5142 39.2507 91.5142 44.2629Z" fill="white"/>
<path d="M90.1143 44.2627C90.1141 40.0238 86.6774 36.5879 82.4385 36.5879C78.1996 36.588 74.7638 40.0239 74.7637 44.2627C74.7637 48.5016 78.1996 51.9383 82.4385 51.9385V53.3389L81.9717 53.3262C77.1765 53.0831 73.3633 49.1183 73.3633 44.2627C73.3634 39.2507 77.4264 35.1876 82.4385 35.1875C87.4506 35.1875 91.5145 39.2506 91.5146 44.2627L91.502 44.7295C91.2591 49.5249 87.2942 53.3389 82.4385 53.3389V51.9385C86.6775 51.9385 90.1143 48.5017 90.1143 44.2627Z" fill="#8D8D8D"/>
<path d="M52.9564 61.4496C53.2047 61.1533 53.6455 61.1144 53.9418 61.3627L63.9301 69.7299C64.2264 69.9781 64.2653 70.4199 64.017 70.7162C63.7687 71.0122 63.3279 71.0511 63.0316 70.8031L53.0434 62.435C52.747 62.1867 52.7082 61.7459 52.9564 61.4496Z" fill="#8D8D8D"/>
<path d="M78.3354 51.0912C78.7136 51.1707 78.9557 51.5411 78.8764 51.9193L75.5014 67.9809C75.4219 68.3591 75.0515 68.6012 74.6733 68.5219C74.295 68.4424 74.0529 68.072 74.1322 67.6938L77.5072 51.6322C77.5867 51.254 77.9571 51.0119 78.3354 51.0912Z" fill="#8D8D8D"/>
<path d="M62.8535 78.1064C63.2201 77.9842 63.6168 78.1822 63.7392 78.5488C63.8614 78.9155 63.6634 79.3122 63.2968 79.4346L55.6054 81.999C55.2387 82.1213 54.8419 81.9224 54.7197 81.5557C54.5975 81.189 54.7954 80.7922 55.1621 80.6699L62.8535 78.1064Z" fill="#8D8D8D"/>
<path d="M71.4849 83.2056C71.868 83.1538 72.2202 83.4222 72.272 83.8052L73.3501 91.7681C73.402 92.1512 73.1336 92.5043 72.7505 92.5562C72.3676 92.6079 72.0155 92.3394 71.9634 91.9566L70.8853 83.9927C70.8335 83.6097 71.1018 83.2575 71.4849 83.2056Z" fill="#8D8D8D"/>
</svg>
