<svg width="186" height="181" viewBox="0 0 186 181" fill="none" xmlns="http://www.w3.org/2000/svg">
<path d="M98.5095 69.4139C98.8552 69.2411 99.276 69.3809 99.449 69.7264C99.6219 70.0722 99.4813 70.493 99.1355 70.6659C98.2271 71.12 97.0002 71.262 95.7156 71.286C94.4111 71.3104 92.932 71.2124 91.4695 71.118C89.9927 71.0228 88.5274 70.9299 87.197 70.953C85.8565 70.9763 84.7257 71.1178 83.8972 71.4491C82.5645 71.9822 81.4611 73.1178 80.614 74.3944C79.7714 75.6643 79.2301 77.002 78.9949 77.8251C78.8887 78.1968 78.5014 78.4117 78.1297 78.3055C77.758 78.1993 77.543 77.812 77.6492 77.4403C77.9203 76.4917 78.518 75.0201 79.447 73.62C80.3716 72.2265 81.6725 70.8311 83.3767 70.1493C84.4465 69.7214 85.7846 69.5777 87.1726 69.5536C88.5705 69.5293 90.0944 69.6261 91.5594 69.7206C93.0389 69.816 94.455 69.9087 95.6892 69.8856C96.9432 69.8622 97.8994 69.7189 98.5095 69.4139Z" fill="#A5A5A5"/>
<path d="M82.5829 61.5445C88.1097 60.4391 95.2643 61.0833 98.1484 61.5386C98.5301 61.5989 98.7915 61.9576 98.7314 62.3394C98.6711 62.7213 98.3124 62.9817 97.9306 62.9214C95.1071 62.4756 88.1439 61.8592 82.8573 62.9166C79.5407 63.5799 76.6931 64.6813 74.7499 65.8687C73.7755 66.4642 73.06 67.0624 72.622 67.6099C72.177 68.1662 72.0876 68.5778 72.1425 68.8521C72.2323 69.3007 72.3953 69.5403 72.5448 69.6685C72.6921 69.7948 72.8878 69.8658 73.1454 69.8658C73.6944 69.8658 74.4275 69.5328 75.0155 68.9449C76.4039 67.5566 80.1333 64.2835 85.2978 63.3443C85.6781 63.2751 86.0431 63.5274 86.1122 63.9078C86.1812 64.288 85.9289 64.6521 85.5487 64.7213C80.8011 65.5845 77.3209 68.619 76.0058 69.9341C75.2422 70.6977 74.1732 71.2662 73.1454 71.2662C72.6148 71.2661 72.0777 71.1116 71.6337 70.731C71.1922 70.3524 70.9049 69.8036 70.7694 69.1265C70.599 68.2744 70.9605 67.4458 71.5292 66.7349C72.105 66.0154 72.9666 65.3178 74.0194 64.6744C76.1313 63.3838 79.1414 62.2328 82.5829 61.5445Z" fill="#A5A5A5"/>
<path d="M152.41 124.088C152.753 123.91 153.175 124.043 153.353 124.386C153.532 124.729 153.399 125.152 153.056 125.33C149.938 126.951 145.013 130.071 140.422 134.136C135.82 138.21 131.624 143.174 129.859 148.469C126.223 159.377 124.821 166.614 124.575 168.825C124.532 169.209 124.187 169.486 123.803 169.443C123.419 169.401 123.142 169.055 123.184 168.671C123.445 166.326 124.878 158.985 128.531 148.025C130.411 142.387 134.82 137.226 139.494 133.088C144.179 128.94 149.2 125.757 152.41 124.088Z" fill="#A5A5A5"/>
<path d="M126.42 46.3526C126.97 46.2465 127.52 46.3515 128.036 46.6612C130.087 47.8918 132.064 50.2947 133.431 53.1261C134.802 55.9663 135.605 59.3305 135.205 62.5343C134.814 65.6625 133.647 69.1484 132.396 71.9395C131.769 73.3381 131.112 74.5802 130.508 75.5294C130.207 76.003 129.912 76.4149 129.633 76.7403C129.366 77.0508 129.067 77.3409 128.749 77.5001C128.403 77.673 127.982 77.5324 127.809 77.1866C127.636 76.8408 127.777 76.42 128.123 76.2471C128.184 76.2162 128.336 76.1023 128.57 75.8292C128.792 75.5704 129.048 75.217 129.328 74.7774C129.886 73.8995 130.512 72.7211 131.119 71.3673C132.335 68.6538 133.447 65.3063 133.815 62.3604C134.174 59.4899 133.457 56.3991 132.171 53.7345C130.88 51.0612 129.061 48.9087 127.316 47.8614C127.073 47.7157 126.871 47.6915 126.684 47.7276C126.479 47.7674 126.227 47.8934 125.934 48.1544C125.337 48.6861 124.722 49.6367 124.132 50.8663C122.962 53.3039 122.027 56.5492 121.526 58.8018C121.442 59.1791 121.068 59.4176 120.691 59.3341C120.314 59.2502 120.075 58.8755 120.159 58.4981C120.671 56.195 121.634 52.8343 122.869 50.2608C123.481 48.9856 124.194 47.8295 125.004 47.1085C125.414 46.7432 125.888 46.4553 126.42 46.3526Z" fill="#A5A5A5"/>
<path d="M126.893 79.2114C127.279 79.198 127.603 79.4999 127.616 79.8862C127.741 83.5125 128.381 89.3046 129.89 94.8559C131.408 100.445 133.763 105.62 137.208 108.204C140.772 110.877 147.022 113.822 153.451 116.429C159.859 119.028 166.371 121.261 170.405 122.522C170.774 122.637 170.98 123.03 170.864 123.399C170.749 123.768 170.356 123.973 169.987 123.858C165.922 122.588 159.374 120.342 152.926 117.727C146.497 115.12 140.093 112.117 136.368 109.324C132.523 106.44 130.069 100.858 128.538 95.2231C126.997 89.5497 126.346 83.6485 126.218 79.935C126.204 79.5487 126.506 79.2248 126.893 79.2114Z" fill="#9B1D32"/>
<path d="M108.703 138.051C108.703 135.261 107.309 132.896 105.487 131.043C103.664 129.19 101.468 127.91 100.022 127.308C99.6655 127.159 99.4966 126.749 99.6453 126.392C99.7941 126.035 100.205 125.866 100.561 126.015C102.153 126.678 104.512 128.056 106.485 130.062C108.459 132.069 110.103 134.767 110.103 138.051C110.103 141.16 109.204 147.298 108.099 153.642C106.99 160.011 105.66 166.664 104.773 170.846C104.693 171.224 104.321 171.465 103.943 171.385C103.565 171.305 103.323 170.933 103.403 170.555C104.288 166.385 105.615 159.75 106.721 153.402C107.83 147.028 108.703 141.016 108.703 138.051Z" fill="#9B1D32"/>
<path d="M57.2321 32.1558C57.6071 32.2496 57.8356 32.6294 57.7418 33.0045C57.3797 34.4532 57.1732 36.6394 57.6813 38.4966C57.9328 39.4158 58.3502 40.2227 58.9791 40.8296C59.6008 41.4295 60.469 41.873 61.6959 42.0093C63.3247 42.1903 65.7236 42.0563 68.653 41.8062C71.5513 41.5588 74.9471 41.2002 78.4655 40.9625C85.4882 40.488 93.2264 40.4721 99.0836 42.815C108.261 46.4861 114.659 50.9796 116.749 52.8082C117.04 53.0627 117.069 53.5055 116.814 53.7964C116.56 54.0872 116.118 54.1164 115.827 53.8619C113.867 52.147 107.609 47.7327 98.5641 44.1148C93.0321 41.902 85.5844 41.8853 78.5602 42.3599C75.055 42.5968 71.7109 42.9499 68.7721 43.2007C65.8649 43.4489 63.3286 43.5996 61.5407 43.4009C60.0344 43.2335 58.8711 42.6707 58.0075 41.8375C57.1513 41.0114 56.6296 39.9583 56.3307 38.8658C55.7379 36.6988 55.9863 34.253 56.3834 32.6646C56.4773 32.2897 56.8571 32.0622 57.2321 32.1558Z" fill="#A5A5A5"/>
<path d="M50.4032 80.0054C50.7145 80.0393 51.0713 80.1691 51.4088 80.3272C52.1037 80.6526 52.953 81.2122 53.6477 81.8939C54.147 82.3838 54.4947 83.0306 54.7575 83.7493C55.021 84.4697 55.2142 85.3051 55.3785 86.2098C55.5431 87.1156 55.6837 88.1208 55.8353 89.179C55.9877 90.2423 56.1522 91.3684 56.3652 92.5406C56.8212 95.0508 58.0417 100.497 59.1384 105.26C59.1275 103.164 59.1267 100.967 59.1468 98.9161C59.1683 96.7275 59.2129 94.6978 59.2897 93.1316C59.3281 92.3495 59.375 91.6734 59.4328 91.1475C59.4616 90.8849 59.494 90.6503 59.5314 90.4543C59.5658 90.2733 59.6137 90.0726 59.691 89.9085C59.8918 89.4828 60.1779 89.1535 60.555 88.963C60.9311 88.7731 61.32 88.76 61.6553 88.8242C62.2911 88.9459 62.8456 89.3603 63.1581 89.6669C63.434 89.9376 63.4387 90.3812 63.1681 90.6571C62.8974 90.9331 62.4539 90.9369 62.1779 90.6662C61.9607 90.453 61.6451 90.2474 61.3925 90.199C61.2835 90.1781 61.2228 90.1935 61.1857 90.2122C61.1494 90.2306 61.058 90.2915 60.9572 90.5052C60.956 90.5093 60.9346 90.5677 60.9061 90.7171C60.8783 90.8632 60.8509 91.0578 60.8242 91.3006C60.771 91.7858 60.7254 92.4294 60.6876 93.1997C60.612 94.7386 60.5681 96.7471 60.5466 98.9294C60.5038 103.292 60.551 108.323 60.6072 111.625L59.2252 111.798C58.1042 107.064 55.6813 96.6099 54.9874 92.7906C54.7693 91.5902 54.6022 90.441 54.4498 89.3774C54.2966 88.3084 54.1595 87.3338 54.0007 86.4598C53.8418 85.585 53.6664 84.8398 53.4432 84.2297C53.2194 83.6178 52.962 83.1831 52.6665 82.8931C52.0897 82.3272 51.3731 81.8567 50.8151 81.5953C50.7689 81.5737 50.7244 81.5555 50.6832 81.5379C50.55 86.1881 50.8348 92.33 51.2658 97.88C51.718 103.704 52.3259 108.81 52.7644 110.828C52.965 111.751 53.4854 112.884 54.2695 114.162C55.0483 115.432 56.0622 116.806 57.2088 118.206C59.5018 121.005 62.2954 123.869 64.7258 126.151C67.1441 128.423 71.536 132.224 75.4372 136.662C79.3217 141.081 82.8496 146.27 83.4158 151.366C84.5209 161.313 80.2056 170.817 77.8995 174.353C77.6883 174.677 77.2549 174.768 76.9311 174.557C76.6073 174.346 76.5159 173.912 76.7271 173.588C78.9267 170.215 83.0819 161.036 82.0247 151.52C81.5096 146.884 78.2456 141.977 74.3864 137.587C70.5438 133.215 66.2391 129.493 63.7674 127.172C61.3077 124.862 58.468 121.952 56.125 119.092C54.9538 117.663 53.8984 116.235 53.0757 114.894C52.2584 113.561 51.6454 112.272 51.3962 111.125C50.935 109.002 50.3219 103.809 49.8699 97.9887C49.4171 92.1578 49.121 85.6323 49.3058 80.8337L49.3157 80.7261C49.3333 80.6162 49.3732 80.5005 49.4458 80.3908C49.5425 80.2446 49.6717 80.1487 49.7971 80.0899C50.0247 79.9834 50.2573 79.9895 50.4032 80.0054Z" fill="#A5A5A5"/>
<path d="M45.484 75.627C45.7288 75.6265 45.9588 75.7249 46.0995 75.7919C46.4226 75.9458 46.8195 76.2116 47.2016 76.4901C47.9823 77.0591 48.8606 77.8002 49.3047 78.1879C49.5958 78.442 49.6263 78.8836 49.3725 79.1749C49.1183 79.466 48.6758 79.4966 48.3846 79.2427C47.9526 78.8655 47.1093 78.1553 46.3771 77.6217C46.2463 77.5263 46.1232 77.4407 46.0105 77.3648C45.8501 81.2165 46.2283 86.7282 46.7511 91.7076C47.0323 94.385 47.3532 96.8943 47.6501 98.8872C47.9501 100.901 48.2191 102.339 48.3889 102.907C49.124 105.366 49.8874 106.97 50.1518 107.428C50.3451 107.763 50.2303 108.191 49.8955 108.385C49.5607 108.578 49.1331 108.463 48.9398 108.128C48.6073 107.552 47.805 105.841 47.0476 103.307C46.8442 102.627 46.5631 101.088 46.2661 99.0935C45.9659 97.0789 45.6418 94.5492 45.3588 91.8535C44.7942 86.4775 44.3845 80.383 44.6605 76.3932L44.6807 76.2598C44.7126 76.1188 44.7852 75.9581 44.936 75.8268C45.1285 75.6591 45.3471 75.6273 45.484 75.627Z" fill="#A5A5A5"/>
<path d="M123.198 73.8998C123.582 73.9425 123.859 74.2881 123.816 74.6723C123.436 78.0972 122.751 83.5371 121.933 88.7319C121.119 93.8988 120.161 98.908 119.22 101.416C118.016 104.629 114.666 108.335 110.682 111.94C106.668 115.572 101.898 119.197 97.7164 122.238C90.8131 127.258 84.5763 125.66 82.4098 123.71C78.5736 120.258 74.561 115.669 71.5172 111.959C69.993 110.102 68.7066 108.459 67.8014 107.28C67.3487 106.69 66.9914 106.216 66.7467 105.889C66.6244 105.726 66.5302 105.599 66.4664 105.513C66.4346 105.47 66.4105 105.437 66.3942 105.414C66.3862 105.404 66.3798 105.396 66.3756 105.39C66.3736 105.387 66.3718 105.385 66.3707 105.383L66.3688 105.381C66.3687 105.381 66.369 105.381 66.9332 104.967L66.3688 105.38C66.1405 105.069 66.2078 104.631 66.5192 104.403C66.8309 104.174 67.2691 104.241 67.4977 104.553L67.4987 104.554C67.4996 104.555 67.5017 104.557 67.5035 104.56C67.5074 104.565 67.5133 104.574 67.5211 104.584C67.5368 104.606 67.5603 104.638 67.5914 104.68C67.6538 104.764 67.7461 104.889 67.8668 105.05C68.1085 105.373 68.4628 105.842 68.9118 106.427C69.8098 107.597 71.0865 109.228 72.5993 111.072C75.6298 114.765 79.5897 119.288 83.3463 122.669C84.9423 124.106 90.4332 125.803 96.8932 121.105C101.064 118.072 105.785 114.483 109.743 110.902C113.731 107.293 116.837 103.786 117.91 100.924C118.791 98.5731 119.732 93.7112 120.55 88.5141C121.365 83.3447 122.047 77.9267 122.425 74.518C122.468 74.1338 122.814 73.8572 123.198 73.8998Z" fill="#9B1D32"/>
<path d="M87.7899 106.07C87.9663 106.049 88.2114 106.073 88.4257 106.248C88.6297 106.414 88.7 106.633 88.7235 106.776C88.7471 106.92 88.736 107.056 88.7196 107.16C88.6865 107.37 88.6076 107.591 88.5175 107.795C88.3341 108.208 88.04 108.682 87.6932 109.081C87.3672 109.455 86.8964 109.877 86.3368 109.997C85.9292 110.084 85.397 110.105 84.8739 110.111C84.2983 110.118 83.7796 110.108 83.1845 110.119C82.6163 110.129 82.0967 110.159 81.6766 110.233C81.2272 110.312 81.0257 110.42 80.9618 110.484C80.3965 111.049 79.3695 111.542 78.4598 111.883C77.987 112.061 77.5113 112.21 77.0887 112.316C76.6805 112.418 76.2752 112.492 75.9618 112.492C75.8774 112.492 75.8365 112.53 75.8241 112.55C75.8184 112.56 75.8192 112.564 75.8192 112.563C75.8197 112.566 75.8217 112.577 75.8329 112.593C76.2822 113.272 76.9011 113.958 77.6259 114.32C78.4276 114.721 79.7427 115.078 81.0858 114.857C82.3878 114.643 83.7775 113.879 84.8026 111.918C84.9817 111.575 85.4053 111.443 85.7479 111.622C86.0903 111.801 86.2226 112.224 86.0438 112.566C84.8162 114.914 83.0517 115.953 81.3124 116.239C79.6143 116.518 78.0004 116.072 76.9999 115.572C75.9629 115.053 75.1785 114.14 74.6659 113.366C74.3296 112.858 74.3543 112.266 74.6327 111.815C74.9037 111.376 75.3989 111.091 75.9618 111.091C76.099 111.091 76.3693 111.053 76.7489 110.958C77.1149 110.866 77.5404 110.733 77.9686 110.573C78.8611 110.238 79.6368 109.831 79.9725 109.495C80.3592 109.108 80.9331 108.942 81.4345 108.854C81.9655 108.761 82.5732 108.73 83.1581 108.719C83.7158 108.709 84.3768 108.716 84.8573 108.711C85.3901 108.704 85.7907 108.682 86.0438 108.628C86.1113 108.613 86.2287 108.548 86.3827 108.414C85.8935 108.543 85.3599 108.588 84.8387 108.592C83.7781 108.601 82.5599 108.44 81.3886 108.245C80.7995 108.147 80.2123 108.038 79.6552 107.935C79.0953 107.832 78.5677 107.734 78.0858 107.656C77.6025 107.577 77.1803 107.521 76.8319 107.497C76.4691 107.471 76.2452 107.486 76.1307 107.514C75.4105 107.694 75.0789 108.031 74.7196 108.331C74.5691 108.456 74.2591 108.72 73.8387 108.739C73.3788 108.76 73.0246 108.493 72.7626 108.231C72.6205 108.089 72.3559 108.006 71.9325 108.049C71.5238 108.092 71.1105 108.242 70.868 108.363C70.5223 108.536 70.1015 108.395 69.9286 108.049C69.7558 107.704 69.8954 107.283 70.2411 107.11C70.5993 106.931 71.1776 106.72 71.7899 106.657C72.3873 106.595 73.174 106.663 73.7528 107.242C73.7668 107.256 73.7811 107.267 73.7928 107.278C73.8019 107.271 73.8128 107.264 73.8231 107.256C74.1396 106.992 74.7101 106.426 75.7919 106.156C76.1278 106.072 76.5317 106.073 76.9286 106.1C77.34 106.129 77.8111 106.193 78.3095 106.274C78.8094 106.355 79.3534 106.455 79.91 106.558C80.4694 106.662 81.0442 106.768 81.619 106.864C82.7756 107.057 83.8934 107.201 84.8261 107.193C85.7998 107.185 86.3838 107.01 86.6561 106.756C86.9117 106.517 87.1512 106.326 87.371 106.21C87.4798 106.152 87.6242 106.09 87.7899 106.07Z" fill="#A5A5A5"/>
<path d="M54.2347 38.6234C54.589 38.4692 55.0008 38.6316 55.1552 38.9858C55.3097 39.3402 55.148 39.7528 54.7937 39.9073C51.8862 41.175 47.5356 43.6054 43.9638 46.7558C40.3646 49.9303 37.7126 53.6948 37.8556 57.6271C38.046 62.859 40.0464 69.8489 41.8048 77.0944C43.543 84.2568 45.0418 91.6644 44.0563 97.4931C43.5608 100.424 42.328 103.54 40.745 106.739C39.1606 109.939 37.2025 113.265 35.2366 116.61C31.2806 123.34 27.3121 130.122 25.977 136.398C24.6519 142.627 25.8699 149.926 28.7323 156.39C31.5967 162.858 36.0592 168.382 41.1009 171.127C41.4402 171.312 41.5651 171.737 41.3804 172.076C41.1956 172.415 40.7711 172.541 40.4316 172.357C35.0367 169.419 30.3981 163.608 27.4529 156.957C24.5058 150.302 23.2054 142.698 24.6074 136.107C25.9996 129.562 30.11 122.57 34.0301 115.9C36.0022 112.545 37.9317 109.264 39.4895 106.117C41.0487 102.967 42.2137 99.9938 42.6759 97.2602C43.606 91.7596 42.1932 84.6297 40.4448 77.425C38.7165 70.3035 36.6546 63.096 36.4575 57.6779C36.2906 53.0902 39.3598 48.9504 43.038 45.7062C46.7436 42.4379 51.2272 39.9347 54.2347 38.6234Z" fill="#A5A5A5"/>
<path d="M85.2684 69.9461C85.6405 70.0511 85.8578 70.4376 85.7528 70.8097C85.5876 71.3952 85.514 72.2461 85.7537 72.9254C85.8688 73.2512 86.0496 73.5228 86.3162 73.723C86.5824 73.9229 86.9809 74.0872 87.5887 74.1215C88.7281 74.1857 89.4522 73.6558 89.9378 72.913C90.4455 72.1364 90.6661 71.1504 90.7037 70.4854C90.7255 70.0995 91.0562 69.804 91.4422 69.8258C91.828 69.8477 92.1226 70.1784 92.1009 70.5642C92.0537 71.3987 91.7873 72.6415 91.1095 73.6784C90.4096 74.749 89.2495 75.6178 87.5099 75.5196C86.6784 75.4727 86.001 75.2372 85.4754 74.8425C84.9503 74.4481 84.6232 73.9293 84.4334 73.3919C84.0637 72.3446 84.1941 71.1766 84.4049 70.4295C84.5098 70.0575 84.8964 69.8413 85.2684 69.9461Z" fill="#A5A5A5"/>
<path d="M48.0009 67.4167C48.5085 67.3378 49.0871 67.35 49.6963 67.4196C50.9155 67.5589 52.3761 67.9422 53.8769 68.4362C56.8858 69.4265 60.1854 70.9059 62.3066 71.9665C62.6522 72.1394 62.7919 72.5602 62.6191 72.9059C62.4461 73.2515 62.0253 73.3913 61.6796 73.2184C59.5956 72.1764 56.3617 70.7274 53.4384 69.7653C51.9732 69.2831 50.6174 68.9337 49.5371 68.8102C48.9965 68.7484 48.5542 68.7469 48.2158 68.7995C47.8722 68.8528 47.6997 68.9523 47.6191 69.0329C46.5371 70.115 46.5605 70.6408 46.6123 70.8141C46.6838 71.0526 46.9583 71.2721 47.4062 71.4997C47.4081 71.5001 47.4099 71.5011 47.4121 71.5016C47.4449 71.5093 47.4965 71.5195 47.5713 71.5309C47.7206 71.5538 47.9269 71.5776 48.1894 71.6032C48.7139 71.6543 49.4172 71.7077 50.2568 71.7751C51.9265 71.9089 54.0995 72.0938 56.291 72.4069C58.4753 72.7189 60.7164 73.1639 62.5117 73.8307C63.4094 74.1642 64.2259 74.5631 64.874 75.0504C65.5221 75.5378 66.0427 76.1443 66.2685 76.8971C66.9882 79.2962 66.8774 82.4199 66.5478 85.2838C66.2177 88.152 65.6437 90.9194 65.3877 92.528C65.1201 94.2091 64.8433 95.7453 64.7138 97.0475C64.6495 97.6943 64.6244 98.2571 64.6523 98.7282C64.6806 99.2057 64.7609 99.542 64.872 99.7643C65.4533 100.927 66.2809 101.449 67.166 101.582C68.0868 101.72 69.1625 101.448 70.1943 100.829C71.1629 100.248 71.6024 99.463 72.1347 98.7096C72.3821 98.3595 72.6976 97.9497 73.1464 97.7038C73.645 97.4307 74.2035 97.4099 74.8232 97.609C75.3511 97.7787 75.7325 97.9187 76.1572 98.0495C76.5579 98.1729 76.8697 98.2443 77.122 98.2575C77.3617 98.2699 77.5052 98.2277 77.6093 98.1588C77.7187 98.0864 77.8685 97.9294 78.0146 97.5641C78.1583 97.2056 78.5651 97.0312 78.9238 97.1745C79.2827 97.318 79.458 97.7257 79.3144 98.0846C79.1001 98.6204 78.8014 99.0484 78.3828 99.3258C77.9591 99.6064 77.4933 99.679 77.0498 99.6559C76.6186 99.6335 76.1717 99.5188 75.7451 99.3874C75.3421 99.2632 74.8264 99.0799 74.3945 98.9411C74.0553 98.8322 73.909 98.8823 73.8193 98.9313C73.6799 99.0077 73.5231 99.1717 73.2783 99.5182C72.8262 100.158 72.1978 101.259 70.914 102.029C69.693 102.762 68.29 103.166 66.958 102.966C65.5903 102.761 64.3904 101.931 63.6201 100.39C63.3893 99.9287 63.2886 99.38 63.2548 98.8112C63.2207 98.2361 63.2524 97.5913 63.3203 96.9088C63.4551 95.5521 63.7447 93.9418 64.0048 92.3073C64.2766 90.6002 64.8298 87.9605 65.1562 85.1247C65.4831 82.2845 65.5596 79.4059 64.9277 77.2995C64.8156 76.9259 64.5333 76.5464 64.0322 76.1696C63.5311 75.7928 62.8513 75.4494 62.0244 75.1422C60.37 74.5277 58.2452 74.1001 56.0927 73.7926C53.9479 73.4862 51.8126 73.3042 50.1455 73.1706C49.3167 73.1041 48.5939 73.0494 48.0537 72.9967C47.7837 72.9704 47.5472 72.9435 47.3593 72.9147C47.2657 72.9003 47.1751 72.8839 47.0937 72.8649C47.0235 72.8485 46.9152 72.8201 46.8115 72.7682C46.3769 72.551 45.5362 72.0989 45.2714 71.2165C44.9856 70.263 45.4603 69.2121 46.6298 68.0426C46.9998 67.6727 47.4986 67.4947 48.0009 67.4167Z" fill="#A5A5A5"/>
<path d="M145.054 38.8965C147.602 38.8965 151.475 39.8211 154.949 42.5615C158.443 45.3177 161.496 49.8809 162.419 57.0801C163.008 61.6748 161.531 66.4515 159.241 71.1113C156.95 75.7747 153.794 80.4188 150.932 84.7432C148.048 89.1012 145.483 93.1063 144.265 96.5811C143.658 98.3101 143.406 99.8529 143.582 101.206C143.755 102.538 144.348 103.729 145.52 104.774C149.853 108.639 154.509 109.398 158.494 108.622C162.514 107.839 165.843 105.496 167.459 103.177C167.68 102.86 168.116 102.782 168.433 103.003C168.751 103.224 168.828 103.66 168.607 103.978C166.769 106.615 163.114 109.15 158.762 109.997C154.373 110.851 149.267 109.992 144.589 105.819C143.17 104.554 142.412 103.058 142.194 101.387C141.98 99.7368 142.297 97.9605 142.943 96.1172C144.231 92.4472 146.904 88.2928 149.765 83.9707C152.647 79.615 155.743 75.058 157.985 70.4941C160.229 65.9266 161.567 61.4491 161.03 57.2578C160.151 50.3994 157.271 46.1765 154.082 43.6611C150.873 41.1301 147.312 40.2969 145.054 40.2969C144.667 40.2967 144.354 39.9832 144.354 39.5967C144.354 39.2102 144.667 38.8967 145.054 38.8965Z" fill="#A5A5A5"/>
<path d="M15.0508 107.281C15.0511 99.6103 19.035 96.2217 22.7588 92.3722C24.6229 90.4452 26.4383 88.3965 27.7969 85.6076C29.1526 82.8245 30.0732 79.2628 30.0732 74.3029C30.0732 67.9514 29.4378 62.0863 28.7451 56.6925C28.0547 51.3164 27.3006 46.367 27.0811 41.9259C26.8611 37.4778 27.1703 33.4509 28.6572 29.9064C30.153 26.341 32.8133 23.3266 37.1738 20.8605C44.4132 16.7664 51.4913 18.1717 56.9893 21.6281C62.4516 25.0621 66.4469 30.5726 67.6084 34.9045C67.7084 35.2778 67.4875 35.6617 67.1143 35.7619C66.7409 35.862 66.357 35.6401 66.2568 35.2668C65.1995 31.3234 61.452 26.0878 56.2441 22.8136C51.0718 19.562 44.5519 18.2967 37.8633 22.0793C33.7362 24.4134 31.3086 27.2056 29.9482 30.4484C28.5793 33.7119 28.2639 37.4954 28.4795 41.8566C28.6955 46.2252 29.4366 51.0852 30.1338 56.5138C30.8287 61.925 31.4727 67.8609 31.4727 74.3029C31.4727 79.446 30.5165 83.2221 29.0557 86.2209C27.5978 89.2136 25.6568 91.3909 23.7656 93.3459C19.9786 97.2607 16.4515 100.259 16.4512 107.281C16.4511 109.593 17.0163 112.079 17.8369 114.651C18.6591 117.227 19.7138 119.822 20.6787 122.395C21.6352 124.944 22.5008 127.465 22.8926 129.804C23.2845 132.144 23.2169 134.385 22.2207 136.327C22.0443 136.671 21.6223 136.807 21.2783 136.631C20.9344 136.455 20.7992 136.033 20.9756 135.689C21.7784 134.123 21.8789 132.228 21.5117 130.035C21.1444 127.842 20.3232 125.432 19.3682 122.886C18.4216 120.363 17.3402 117.697 16.5039 115.076C15.6661 112.451 15.0507 109.805 15.0508 107.281Z" fill="#A5A5A5"/>
<path d="M94.8406 6.37705C106.163 4.21703 118.059 5.90746 126.421 16.6153C136.687 29.7617 139.501 40.7542 141.968 48.2999C143.208 52.0961 144.326 54.8907 146.159 56.7364C147.944 58.5339 150.501 59.5143 154.851 59.4073C155.238 59.3978 155.559 59.7035 155.568 60.0899C155.577 60.4763 155.272 60.7972 154.886 60.8067C150.302 60.9194 147.312 59.885 145.166 57.7237C143.067 55.6104 141.868 52.5003 140.638 48.7355C138.161 41.1588 135.409 30.4015 125.317 17.4776C117.392 7.32921 106.122 5.65005 95.1033 7.75205C84.0667 9.85754 73.4054 15.746 66.9686 20.5372C66.6585 20.768 66.2199 20.7037 65.9891 20.3937C65.7583 20.0836 65.8226 19.645 66.1326 19.4142C72.6823 14.5389 83.5366 8.53366 94.8406 6.37705Z" fill="#A5A5A5"/>
</svg>
