<svg width="108" height="105" viewBox="0 0 108 105" fill="none" xmlns="http://www.w3.org/2000/svg">
<g clip-path="url(#clip0_1675_25078)">
<path d="M15.3467 11.5264H90.9971C99.6022 11.5264 106.259 19.0714 105.186 27.6094L97.502 88.7461C96.6031 95.898 90.5217 101.263 83.3135 101.263H23.0303C15.8221 101.263 9.74061 95.898 8.8418 88.7461L1.1582 27.6094C0.0852336 19.0714 6.74152 11.5264 15.3467 11.5264Z" stroke="#8D8D8D" stroke-width="1.4"/>
<mask id="path-2-inside-1_1675_25078" fill="white">
<path d="M90.0565 27.3487C91.5135 26.5598 92.0638 24.7326 91.1768 23.3332C87.4789 17.499 82.4413 12.612 76.4664 9.08955C69.6282 5.0581 61.8207 2.9663 53.8829 3.03894C45.9451 3.11158 38.1771 5.34593 31.4138 9.50185C25.5044 13.1331 20.5572 18.1114 16.9666 24.0123C16.1054 25.4278 16.689 27.2445 18.1602 28.0066L36.2163 37.3597C37.6875 38.1218 39.479 37.5261 40.4829 36.208C41.7739 34.5131 43.3713 33.0635 45.2011 31.9391C47.8869 30.2887 50.9717 29.4015 54.1239 29.3726C57.2761 29.3438 60.3765 30.1744 63.0921 31.7754C64.9422 32.8661 66.5659 34.2862 67.8876 35.9572C68.9155 37.2567 70.7176 37.8195 72.1746 37.0307L90.0565 27.3487Z"/>
</mask>
<path d="M90.0565 27.3487C91.5135 26.5598 92.0638 24.7326 91.1768 23.3332C87.4789 17.499 82.4413 12.612 76.4664 9.08955C69.6282 5.0581 61.8207 2.9663 53.8829 3.03894C45.9451 3.11158 38.1771 5.34593 31.4138 9.50185C25.5044 13.1331 20.5572 18.1114 16.9666 24.0123C16.1054 25.4278 16.689 27.2445 18.1602 28.0066L36.2163 37.3597C37.6875 38.1218 39.479 37.5261 40.4829 36.208C41.7739 34.5131 43.3713 33.0635 45.2011 31.9391C47.8869 30.2887 50.9717 29.4015 54.1239 29.3726C57.2761 29.3438 60.3765 30.1744 63.0921 31.7754C64.9422 32.8661 66.5659 34.2862 67.8876 35.9572C68.9155 37.2567 70.7176 37.8195 72.1746 37.0307L90.0565 27.3487Z" fill="white" stroke="#9B1D32" stroke-width="4" mask="url(#path-2-inside-1_1675_25078)"/>
<path d="M39.2896 19.9747C39.0581 20.0682 38.8275 20.1637 38.5983 20.2613L36.7031 15.8105C36.9604 15.701 37.219 15.5941 37.4787 15.4892L39.2896 19.9747ZM71.1038 15.4892C71.3635 15.5941 71.6221 15.701 71.8794 15.8105L70.933 18.0363L70.9322 18.0355L69.985 20.2613C69.7558 20.1637 69.5252 20.0682 69.2937 19.9747L71.1038 15.4892ZM54.7129 12.2406L54.6696 17.0773C54.5438 17.0762 54.4177 17.0757 54.2916 17.0757C54.1656 17.0757 54.0395 17.0762 53.9137 17.0773L53.8696 12.2406C54.0101 12.2394 54.1508 12.2383 54.2916 12.2383C54.4322 12.2383 54.5726 12.2394 54.7129 12.2406Z" fill="#8D8D8D"/>
<path d="M52.5576 44.4805C53.3274 43.1472 55.2516 43.1473 56.0215 44.4805L63.3838 57.2314C64.1536 58.5648 63.191 60.2314 61.6514 60.2314H46.9277C45.3883 60.2313 44.4265 58.5647 45.1963 57.2314L52.5576 44.4805Z" stroke="#9B1D32" stroke-width="2"/>
</g>
<defs>
<clipPath id="clip0_1675_25078">
<rect width="108" height="105" fill="white"/>
</clipPath>
</defs>
</svg>
