<svg width="1722" height="1531" viewBox="0 0 1722 1531" fill="none" xmlns="http://www.w3.org/2000/svg">
<path d="M1111.75 43.3932C1238.88 97.5147 1319.87 226.996 1347.88 392.842C1375.9 558.675 1350.91 760.725 1266.22 959.656C1181.54 1158.59 1053.22 1316.65 914.272 1411.4C775.312 1506.17 625.848 1537.54 498.715 1483.42C371.582 1429.3 290.595 1299.82 262.579 1133.97C234.565 968.14 259.552 766.091 344.239 567.16C428.925 368.228 557.241 210.166 696.189 115.411C835.149 20.6477 984.615 -10.7284 1111.75 43.3932Z" stroke="white" stroke-width="2"/>
<path d="M1690.17 642.74C1719.54 789.112 1653.54 940.278 1522.95 1066.36C1392.37 1192.44 1197.24 1293.39 968.521 1339.29C739.798 1385.18 520.833 1367.33 351.716 1301.39C182.594 1235.45 63.3897 1121.44 34.018 975.07C4.64649 828.699 70.6409 677.534 201.23 551.449C331.814 425.368 526.941 324.421 755.663 278.524C984.385 232.628 1203.35 250.481 1372.47 316.423C1541.59 382.367 1660.79 496.369 1690.17 642.74Z" stroke="white"/>
</svg>
