<svg width="20" height="20" viewBox="0 0 20 20" fill="none" xmlns="http://www.w3.org/2000/svg">
<path d="M9.99826 6.10938C10.2667 6.10938 10.4844 6.32701 10.4844 6.59549V9.51215H13.401C13.6695 9.51215 13.8872 9.72979 13.8872 9.99827C13.8872 10.2667 13.6695 10.4844 13.401 10.4844H10.4844V13.401C10.4844 13.6695 10.2667 13.8872 9.99826 13.8872C9.72979 13.8872 9.51215 13.6695 9.51215 13.401V10.4844H6.59549C6.32701 10.4844 6.10938 10.2667 6.10938 9.99827C6.10938 9.72979 6.32701 9.51215 6.59549 9.51215H9.51215V6.59549C9.51215 6.32701 9.72979 6.10938 9.99826 6.10938Z" fill="white"/>
</svg>
