<svg width="705" height="640" viewBox="0 0 705 640" fill="none" xmlns="http://www.w3.org/2000/svg">
<g clip-path="url(#clip0_13_3411)">
<path d="M93.441 128.766C91.7604 93.3224 107.39 49.7772 147.892 48.4269C221.333 45.8953 261.666 133.323 327.713 149.526C373.088 160.665 401.153 128.428 434.597 104.799C470.729 79.1448 509.215 44.3763 557.615 55.3469C588.874 62.4356 606.519 94.3351 609.208 123.872C612.065 155.434 596.941 180.75 599.629 211.13C602.318 243.199 636.266 257.038 652.904 283.537C673.574 316.28 680.464 354.087 670.549 391.557C660.97 427.675 633.577 463.625 598.453 477.634C550.893 496.706 515.264 468.013 471.065 455.017C407.876 436.62 377.794 470.376 333.763 508.521C306.538 531.981 271.918 552.909 234.105 547.172C180.999 539.07 164.529 466.664 164.024 421.936C163.689 393.413 176.461 360.332 155.622 338.391C135.623 317.461 115.961 320.331 88.7354 318.644C67.056 317.293 41.6794 309.023 34.2849 286.575C30.9237 276.111 31.2598 262.271 37.8141 253.156C54.2837 230.371 93.1049 229.866 98.8188 201.341C103.524 177.375 94.6174 152.565 93.441 128.766Z" fill="#BBE7F2"/>
<path d="M299.813 53.8288C309.896 12.4778 216.624 -21.2781 213.767 19.229C212.255 40.8329 244.018 67.5001 263.175 71.0444C280.99 74.42 295.274 72.057 299.813 53.8288Z" fill="#BBE7F2"/>
<path d="M229.566 478.14C222.34 461.262 219.147 443.203 209.232 427.674C205.367 421.767 201.669 416.366 195.787 411.978C188.729 406.408 180.831 407.421 173.1 404.046C158.815 397.969 150.748 381.429 137.135 373.327C123.522 365.226 107.221 362.695 91.76 365.9C77.4751 368.939 67.5598 370.627 53.7791 364.551C43.1914 359.994 21.176 352.399 28.5705 372.652C32.94 384.467 47.561 390.374 54.7874 401.345C62.5181 413.159 64.3667 430.375 74.7863 440.333C84.7016 449.785 97.9781 439.32 108.566 448.096C119.49 457.211 122.851 469.7 136.464 477.127C151.084 485.229 168.562 487.76 185.032 488.604C196.628 489.279 219.147 490.46 232.423 485.229C231.416 482.865 230.575 480.502 229.566 478.14Z" fill="#3B8B58"/>
<path fill-rule="evenodd" clip-rule="evenodd" d="M195.064 412.926L195.051 412.917C191.732 410.297 188.202 409.207 184.433 408.354C183.671 408.182 182.893 408.018 182.104 407.852C179.045 407.21 175.809 406.53 172.629 405.142C165.228 401.993 159.486 396.154 153.996 390.261C153.519 389.75 153.045 389.24 152.573 388.729C147.527 383.288 142.586 377.96 136.528 374.354C123.18 366.41 107.184 363.923 92.004 367.07C77.6874 370.114 67.4488 371.881 53.3047 365.646C50.6818 364.517 47.3676 363.208 43.9909 362.189C40.5945 361.166 37.2167 360.462 34.4442 360.492C31.6369 360.522 29.8021 361.288 28.932 362.799C28.0207 364.38 27.8679 367.254 29.6878 372.239C31.752 377.818 36.2617 382.069 41.3761 386.402C42.009 386.938 42.6515 387.476 43.2986 388.018C47.7971 391.782 52.5179 395.733 55.781 400.686L55.7831 400.69C59.0458 405.676 61.2881 411.61 63.4865 417.427C63.9525 418.66 64.4166 419.888 64.888 421.102C67.6163 428.12 70.6058 434.687 75.6067 439.467C80.1477 443.796 85.4271 443.616 91.3558 443.276C91.4931 443.267 91.6306 443.26 91.7687 443.252C97.469 442.922 103.753 442.558 109.324 447.176L109.327 447.179C114.016 451.091 117.358 455.624 120.583 460.002C121.21 460.851 121.831 461.693 122.456 462.524C126.333 467.675 130.453 472.488 137.033 476.077L137.039 476.082C151.417 484.049 168.673 486.57 185.093 487.411L185.1 487.412C190.897 487.749 199.38 488.21 208.06 487.938C216.265 487.68 224.533 486.769 230.848 484.542C230.517 483.732 230.202 482.926 229.89 482.128L229.887 482.12C229.423 480.936 228.969 479.773 228.473 478.61C228.472 478.61 228.472 478.611 228.472 478.609L229.566 478.14C226.899 471.909 224.781 465.516 222.671 459.151C219.066 448.273 215.487 437.47 209.232 427.674C205.367 421.767 201.669 416.366 195.787 411.978C191.521 408.612 186.948 407.649 182.291 406.67C179.242 406.03 176.158 405.381 173.1 404.046C165.335 400.743 159.408 394.348 153.429 387.899C148.407 382.482 143.349 377.025 137.135 373.327C123.522 365.226 107.221 362.695 91.76 365.9C77.4751 368.939 67.5598 370.627 53.7791 364.551C43.1914 359.994 21.176 352.399 28.5705 372.652C31.0298 379.302 36.7369 384.08 42.545 388.944C47.0562 392.721 51.6283 396.549 54.7874 401.345C57.9714 406.211 60.1576 411.993 62.3559 417.808C65.4948 426.11 68.6582 434.476 74.7863 440.333C79.8252 445.136 85.7322 444.796 91.7133 444.451C97.5013 444.118 103.359 443.781 108.566 448.096C113.134 451.907 116.379 456.31 119.605 460.685C124.093 466.772 128.543 472.806 136.464 477.127C151.084 485.229 168.562 487.76 185.032 488.604C196.309 489.261 217.916 490.396 231.306 485.645C231.686 485.512 232.059 485.372 232.423 485.229C232.423 485.229 232.423 485.229 232.423 485.227C232.267 484.861 232.115 484.493 231.965 484.126C231.633 483.312 231.313 482.498 230.995 481.684C230.533 480.502 230.071 479.321 229.566 478.14M208.233 428.324C204.369 422.419 200.771 417.184 195.076 412.936L195.064 412.926" fill="black"/>
<path d="M106.043 408.097C141.335 445.735 183.517 471.559 230.238 480.335C229.902 479.66 229.734 478.984 229.397 478.141C222.171 461.263 218.978 443.204 209.063 427.675C205.197 421.768 201.499 416.367 195.618 411.979C188.559 406.409 180.66 407.422 172.93 404.047C158.646 397.971 150.579 381.43 136.966 373.328C123.353 365.227 107.052 362.696 91.5904 365.903C85.7084 367.084 80.4987 368.097 75.625 368.434C85.3723 382.781 95.2877 396.452 106.043 408.097Z" fill="#307147"/>
<path d="M609.375 146.994C606.181 150.201 583.158 169.443 594.586 171.805C598.114 172.48 604.501 166.066 607.526 171.637C609.879 175.349 604.333 186.151 602.317 189.528C594.418 203.029 580.133 214.506 567.36 223.284L535.934 243.367C529.547 226.153 523.497 201.679 522.153 194.759C519.969 184.127 518.96 171.299 521.481 160.666C525.346 144.294 537.278 155.94 544.673 161.678C547.865 158.641 546.017 146.826 546.017 142.269C545.849 129.61 544.001 116.108 546.858 103.618C548.706 96.3608 550.386 86.909 558.957 92.31C562.487 94.5041 565.68 98.5549 568.874 101.086C571.73 96.6983 569.713 90.2846 569.209 85.39C568.369 76.7823 567.36 68.0058 568.704 59.398C569.545 54.6722 570.89 41.8449 577.107 41.1698C582.822 40.4946 582.822 49.44 588.031 45.8955C592.905 42.6888 595.93 28.68 598.451 23.4479C600.635 18.722 606.518 4.20698 613.408 5.38843C626.685 7.41379 620.467 34.0809 619.626 41.8449C619.291 44.7141 618.786 48.2585 620.467 50.6214C631.727 43.8702 641.305 46.7395 638.28 61.5921C636.936 68.6808 632.399 74.4194 628.029 79.8203C622.315 86.7403 609.206 95.8543 607.694 105.306C615.761 107.5 629.877 97.7109 631.895 111.044C633.911 124.547 617.778 138.724 609.375 146.994Z" fill="#3B8B58"/>
<path fill-rule="evenodd" clip-rule="evenodd" d="M594.354 172.977L594.345 172.975C592.744 172.644 591.486 171.963 590.79 170.81C590.096 169.661 590.132 168.325 590.478 167.065C591.157 164.596 593.231 161.692 595.594 158.937C599.17 154.773 603.854 150.475 606.583 147.971C607.482 147.146 608.168 146.516 608.532 146.151L608.541 146.143C609.271 145.425 610.053 144.666 610.872 143.873C614.826 140.044 619.651 135.372 623.6 130.251C628.392 124.036 631.648 117.461 630.717 111.222C630.248 108.121 629.125 106.623 627.807 105.869C626.411 105.07 624.523 104.939 622.188 105.186C620.714 105.342 619.22 105.623 617.672 105.915C616.733 106.092 615.773 106.273 614.784 106.433C612.28 106.836 609.665 107.079 607.383 106.459L606.348 106.178L606.518 105.117C607.34 99.9835 611.255 95.1029 615.431 90.7825C617.129 89.026 618.915 87.3187 620.611 85.6969C621.024 85.3027 621.431 84.9137 621.831 84.5302C623.887 82.5536 625.73 80.7317 627.109 79.0628C631.504 73.629 635.832 68.1149 637.111 61.3689L637.113 61.353C638.594 54.0852 636.87 50.4238 634.194 49.072C631.339 47.6288 626.613 48.3277 621.078 51.6465L620.135 52.2118L619.497 51.315C618.461 49.8571 618.145 48.105 618.1 46.4557C618.059 44.9506 618.243 43.3988 618.4 42.0725C618.415 41.9498 618.43 41.8292 618.443 41.7107C618.567 40.5741 618.79 39.1023 619.05 37.4008C619.718 33.0116 620.621 27.0945 620.62 21.4647C620.62 17.578 620.181 14.0081 619.008 11.3272C617.863 8.70711 616.057 7.00073 613.229 6.56925L613.218 6.5676L613.208 6.56575C611.954 6.35083 610.635 6.82184 609.223 7.97371C607.811 9.12667 606.441 10.8575 605.167 12.8479C603.036 16.1794 601.31 20.0134 600.147 22.5938C599.92 23.0983 599.715 23.5548 599.532 23.9502L599.528 23.9589L599.523 23.9675C598.93 25.1996 598.289 26.9873 597.573 29.0975C597.406 29.585 597.237 30.0885 597.063 30.6031C596.496 32.2851 595.89 34.0863 595.241 35.8455C594.393 38.1434 593.456 40.4226 592.405 42.3448C591.373 44.2354 590.157 45.9222 588.692 46.8893C587.189 47.9095 585.795 48.1907 584.488 47.6666C583.332 47.2027 582.484 46.1751 581.829 45.3555C581.771 45.2821 581.712 45.2092 581.655 45.1373C580.261 43.3879 579.25 42.1193 577.247 42.3559L577.236 42.3573C576.121 42.4782 575.139 43.1423 574.247 44.3494C573.346 45.5673 572.618 47.2383 572.026 49.1235C571.091 52.1018 570.567 55.3673 570.174 57.8184C570.068 58.4763 569.972 59.0755 569.88 59.5947C568.644 67.5181 569.442 75.6029 570.243 83.7367C570.294 84.2479 570.344 84.7594 570.394 85.2711C570.5 86.3022 570.677 87.4048 570.865 88.5832C570.892 88.7549 570.919 88.928 570.947 89.1029C571.162 90.4619 571.38 91.9022 571.489 93.3374C571.705 96.1845 571.516 99.2115 569.87 101.74L569.157 102.834L568.134 102.023C566.77 100.942 565.405 99.5919 564.072 98.2754C563.783 97.9898 563.496 97.7059 563.21 97.4266C561.571 95.8228 559.973 94.346 558.331 93.3252L558.324 93.3214C556.307 92.0502 554.899 91.7849 553.913 91.9549C552.955 92.1199 552.132 92.7428 551.378 93.879C550.615 95.0287 550.004 96.5872 549.462 98.3769C549.06 99.7074 548.714 101.099 548.369 102.486C548.251 102.959 548.134 103.43 548.015 103.899C546.621 110 546.368 116.381 546.493 122.857C546.554 125.962 546.701 129.075 546.846 132.186L546.865 132.59C547.017 135.829 547.166 139.065 547.208 142.252V142.269C547.208 143.288 547.306 144.703 547.421 146.374L547.444 146.715C547.568 148.509 547.701 150.537 547.733 152.524C547.765 154.503 547.697 156.493 547.403 158.207C547.117 159.874 546.581 161.51 545.492 162.545L544.751 163.25L543.944 162.623C543.207 162.051 542.452 161.443 541.675 160.817C540.431 159.816 539.133 158.77 537.765 157.758C535.569 156.131 533.377 154.735 531.35 154.005C529.332 153.278 527.673 153.274 526.329 154.121C524.942 154.997 523.577 156.969 522.64 160.941C520.176 171.332 521.151 183.965 523.32 194.518L523.322 194.531C524.622 201.217 530.372 224.519 536.541 241.564L566.704 222.286C579.452 213.525 593.535 202.176 601.289 188.922L601.295 188.914C602.276 187.269 604.132 183.791 605.445 180.288C606.103 178.534 606.605 176.823 606.809 175.359C607.02 173.844 606.874 172.835 606.521 172.277L606.499 172.244L606.48 172.208C605.875 171.093 605.195 170.705 604.515 170.583C603.744 170.446 602.79 170.62 601.627 171.016C601.061 171.209 600.482 171.441 599.883 171.686C599.803 171.718 599.723 171.752 599.643 171.784C599.129 171.995 598.597 172.213 598.081 172.402C596.937 172.822 595.598 173.215 594.363 172.978L594.354 172.977ZM567.36 223.284L535.934 243.367C535.793 242.989 535.653 242.606 535.512 242.221C529.284 225.084 523.468 201.527 522.153 194.759C519.969 184.127 518.96 171.299 521.481 160.666C524.98 145.846 535.088 153.984 542.457 159.915C543.229 160.537 543.971 161.135 544.673 161.678C544.912 161.451 545.123 161.174 545.308 160.854C545.335 160.81 545.36 160.766 545.383 160.72C547.009 157.708 546.564 151.253 546.231 146.435C546.117 144.787 546.017 143.331 546.017 142.269C545.973 138.971 545.816 135.616 545.656 132.237C545.205 122.644 544.745 112.854 546.858 103.618C546.974 103.16 547.09 102.693 547.208 102.221C548.945 95.2261 550.928 87.2502 558.957 92.31C561.041 93.6052 563.007 95.5472 564.926 97.442C565.944 98.4481 566.949 99.4407 567.951 100.316C568.258 100.585 568.565 100.843 568.874 101.086C569.096 100.744 569.289 100.39 569.456 100.025C570.959 96.729 570.294 92.5669 569.689 88.7742C569.501 87.5985 569.319 86.458 569.209 85.39C569.158 84.866 569.106 84.3415 569.055 83.8163C568.254 75.7144 567.442 67.4818 568.704 59.398C568.793 58.9051 568.885 58.324 568.989 57.6778C569.879 52.1286 571.539 41.7745 577.107 41.1698C579.787 40.8531 581.21 42.652 582.503 44.2865C583.968 46.1376 585.265 47.7779 588.031 45.8955C591.4 43.6793 593.884 36.3039 595.931 30.2319C596.846 27.5178 597.673 25.0641 598.451 23.4479C598.628 23.0661 598.828 22.6205 599.052 22.1245C601.593 16.4794 607.075 4.30241 613.408 5.38843C624.866 7.13635 621.805 27.2374 620.21 37.7021C619.957 39.3631 619.742 40.7814 619.626 41.8449C619.612 41.9633 619.598 42.083 619.584 42.2038C619.3 44.6003 618.969 47.3995 619.888 49.5769C619.934 49.6841 619.981 49.79 620.034 49.8941C620.158 50.1467 620.302 50.3898 620.467 50.6214C631.727 43.8702 641.305 46.7395 638.28 61.5921C636.936 68.6808 632.399 74.4194 628.029 79.8203C626.32 81.8901 623.949 84.1562 621.426 86.5689C615.511 92.2225 608.755 98.6813 607.694 105.306C610.454 106.057 613.923 105.404 617.374 104.755C624.005 103.508 630.568 102.274 631.895 111.044C633.739 123.394 620.4 136.308 611.68 144.751C610.866 145.539 610.092 146.288 609.375 146.994C608.966 147.405 608.232 148.079 607.288 148.945C600.852 154.85 584.621 169.745 594.586 171.805C595.849 172.047 597.481 171.38 599.192 170.679C602.259 169.424 605.585 168.062 607.526 171.637C609.879 175.349 604.333 186.151 602.317 189.528C594.418 203.029 580.133 214.506 567.36 223.284Z" fill="black"/>
<path d="M607.695 171.129C604.503 166.065 598.116 172.479 594.587 171.804C594.084 171.635 593.747 171.635 593.243 171.466C574.084 186.994 556.102 204.209 541.817 224.463C538.96 228.514 536.271 232.565 533.918 236.615C534.591 238.809 535.432 240.835 536.103 242.859C537.112 242.185 538.289 241.341 539.296 240.665C548.372 234.083 558.119 229.188 567.531 222.776C580.303 213.998 594.587 202.521 602.486 189.02C604.503 185.643 610.048 174.841 607.695 171.129Z" fill="#307147"/>
<path d="M203.517 307.166C208.727 288.262 215.28 268.852 218.473 249.612C220.994 234.084 214.777 217.375 207.213 204.041C200.828 193.239 187.551 185.813 181.501 174.843C173.77 160.666 178.14 141.424 173.434 126.065C168.393 109.356 158.309 98.2166 145.033 87.5834C133.268 78.3006 124.697 74.925 117.471 61.2537C110.917 48.9329 104.027 33.9115 90.0779 28.3418C57.8109 15.3457 81.675 82.3513 83.0195 94.841C84.3639 109.018 78.8181 117.795 72.4319 129.779C63.1888 147.163 63.0206 164.041 76.6333 179.906C88.3973 193.915 100.329 197.797 97.4724 218.219C95.2877 232.902 93.1029 249.274 97.4724 264.127C102.682 281.342 112.261 297.377 127.554 306.322C134.109 310.203 141.503 313.748 148.73 316.786C154.612 319.318 177.467 323.2 195.953 325.9C198.98 319.993 201.499 314.255 203.517 307.166Z" fill="#59A960"/>
<path d="M148.732 316.618C154.614 319.15 177.469 323.032 195.955 325.732C198.308 321.174 200.324 316.786 202.006 311.723C189.905 288.938 172.932 267.84 148.732 248.768C132.598 235.941 115.624 224.971 97.474 216.531C97.474 217.038 97.3059 217.544 97.3059 218.051C95.1211 232.734 92.9365 249.106 97.3059 263.958C102.516 281.174 112.095 297.208 127.388 306.154C134.11 310.035 141.505 313.579 148.732 316.618Z" fill="#3B8B58"/>
<path d="M650.55 249.782C660.129 216.701 664.499 179.569 661.978 145.139C660.969 131.13 661.474 117.121 663.49 103.281C658.953 108.007 653.575 112.227 650.886 115.265C641.474 125.56 631.223 135.349 621.812 145.814C596.435 174.675 571.059 205.562 556.606 241.512C547.027 265.141 541.649 289.445 542.993 314.593C543.497 326.408 545.682 337.717 548.875 349.194C549.884 352.907 551.228 358.138 552.741 363.371C601.645 341.43 635.76 301.597 650.55 249.782Z" fill="#59A960"/>
<path d="M561.144 231.049C559.463 234.424 557.951 237.968 556.606 241.344C547.027 264.973 541.649 289.278 542.993 314.426C543.497 326.241 545.682 337.548 548.875 349.025C549.884 352.738 551.228 357.971 552.741 363.202C567.698 356.452 581.31 348.182 593.242 338.392C591.73 299.236 580.302 262.611 561.144 231.049Z" fill="#3B8B58"/>
<path d="M644.835 266.66C613.745 273.917 586.855 288.264 561.478 306.998C554.925 311.893 548.874 316.957 543.328 322.189C544.337 331.303 546.017 340.248 548.538 349.024C549.547 352.738 550.891 357.97 552.404 363.203C596.266 343.793 627.861 310.205 644.835 266.66Z" fill="#3B8B58"/>
<path d="M137.302 262.776C109.741 241.004 80.3313 224.632 46.2157 216.869C36.3004 214.675 16.9738 215.013 0 212.143C34.1156 248.937 50.0811 307.166 78.3147 347.166C114.279 398.138 162.511 433.244 220.155 443.033C213.937 372.315 198.643 311.386 137.302 262.776Z" fill="#73C078"/>
<path d="M561.478 322.358C587.696 302.779 615.761 288.095 648.196 281.175C657.607 279.149 676.093 279.487 692.227 276.955C659.793 309.868 644.499 362.189 617.609 398.139C583.326 443.879 537.446 475.44 482.324 484.048C488.542 420.587 502.994 365.903 561.478 322.358Z" fill="#73C078"/>
<path d="M482.66 484.049C514.759 478.985 543.664 466.158 569.042 447.255C584.503 417.044 593.409 382.612 593.409 346.155C593.409 331.809 592.065 317.632 589.376 303.961C579.797 309.362 570.722 315.606 561.646 322.189C502.994 365.903 488.542 420.587 482.66 484.049Z" fill="#59A960"/>
<path d="M254.272 450.29C240.659 443.708 226.543 432.231 216.963 424.13C183.184 395.438 156.127 359.656 129.91 324.888C126.717 320.668 123.523 316.28 120.163 312.061C106.382 293.832 94.6181 280.499 82.1818 268.853C80.8373 267.671 79.493 266.321 78.1485 264.971C67.2248 254.507 53.7801 241.511 41.0078 235.941L41.6801 234.422C54.6204 240.16 68.4011 253.156 79.3248 263.621C80.6693 264.971 82.0138 266.152 83.3582 267.503C95.7944 279.317 107.559 292.651 121.507 310.879C124.7 315.098 128.062 319.487 131.254 323.706C157.472 358.305 184.361 393.919 218.14 422.612C227.551 430.544 241.668 442.02 255.113 448.434L254.272 450.29Z" fill="#59A960"/>
<path d="M192.594 311.049C190.746 295.859 187.552 283.201 182.174 271.554C173.099 251.132 162.679 235.098 149.571 221.258C138.144 209.106 128.732 197.628 128.564 179.063C128.564 175.013 128.732 170.793 128.732 166.911C129.068 154.253 129.237 142.1 126.716 129.78C122.01 108.176 111.086 90.6225 99.4902 72.0567L100.162 71.5504L100.835 71.2129C112.599 89.9474 123.522 107.669 128.396 129.442C131.085 141.931 130.749 154.59 130.58 166.911C130.412 170.961 130.412 175.013 130.412 179.063C130.412 196.954 139.656 208.262 150.916 220.077C164.193 234.085 174.612 250.12 183.855 270.711C189.233 282.525 192.426 295.352 194.274 310.711L192.594 311.049Z" fill="#3B8B58"/>
<path d="M528.204 291.976L526.691 291.638C528.036 285.056 528.877 278.305 529.548 272.06C530.557 263.115 531.566 253.832 534.423 244.886C535.935 239.991 537.28 235.603 538.96 231.047C540.976 225.645 542.658 220.076 544.506 214.675C547.195 206.404 550.052 197.627 553.412 189.357C556.438 181.762 560.303 173.999 564 166.404C567.866 158.47 572.067 150.2 575.092 142.099C577.949 134.673 580.134 126.909 582.319 119.483C585.175 109.525 588.032 99.398 592.57 89.7776C597.78 78.6381 600.133 68.005 602.654 56.6967C603.661 51.9709 604.838 47.0762 606.015 42.1816L607.527 42.5193C606.183 47.4139 605.174 52.3084 604.166 56.8655C601.645 68.1738 599.292 78.9756 593.914 90.2839C589.377 99.7356 586.52 109.862 583.663 119.82C581.478 127.415 579.294 135.18 576.437 142.605C573.244 150.707 569.211 158.977 565.177 167.078C561.479 174.505 557.614 182.269 554.589 189.864C551.228 198.303 548.371 206.91 545.682 215.181C543.834 220.581 542.153 226.152 540.136 231.721C538.456 236.448 537.112 240.666 535.599 245.561C532.91 254.507 531.902 263.283 530.893 272.566C530.389 278.642 529.548 285.394 528.204 291.976Z" fill="#307147"/>
<path d="M529.38 383.791L528.371 382.61C533.077 378.728 535.934 372.82 538.623 367.251C540.472 363.201 542.489 359.149 545.178 355.606C546.521 353.748 547.866 352.229 549.21 350.711C552.067 347.166 554.925 343.959 557.445 339.064C562.823 328.6 566.016 317.63 568.537 307.334C569.378 303.959 570.217 300.414 571.058 296.87C574.419 283.199 577.781 269.19 583.159 256.869L585.343 251.806C592.738 234.759 600.3 217.205 611.728 202.691C623.66 187.331 630.383 175.348 637.777 159.652L639.122 160.327C631.558 176.192 625.005 188.344 612.904 203.703C601.645 218.05 594.083 235.603 586.687 252.481L584.503 257.544C579.125 269.696 575.763 283.704 572.571 297.207C571.731 300.752 570.89 304.296 570.049 307.672C567.36 318.136 564.168 329.275 558.79 339.739C556.269 344.803 553.412 348.179 550.387 351.723C549.042 353.242 547.698 354.93 546.353 356.617C543.833 359.994 541.816 364.044 539.968 367.926C537.279 373.665 534.422 379.741 529.38 383.791Z" fill="#3B8B58"/>
<path d="M492.953 475.679L492.286 474.607C494.688 473.132 495.756 471.39 496.957 469.38C497.491 468.442 498.158 467.503 498.959 466.431C505.499 457.852 511.772 449.139 517.911 440.695C527.12 427.961 536.597 414.826 547.007 402.225C552.612 395.39 559.552 389.894 566.226 384.533C572.766 379.304 579.572 373.809 585.045 367.107L587.981 363.488C600.393 348.208 612.272 333.731 625.752 319.656L626.686 320.461C613.206 334.402 601.461 348.877 589.049 364.158L586.112 367.777C580.64 374.479 573.7 380.109 567.16 385.336C560.487 390.698 553.68 396.193 548.208 402.896C537.798 415.495 528.321 428.632 519.113 441.231C512.973 449.675 506.7 458.388 500.16 466.967C499.359 467.905 498.826 468.844 498.292 469.782C496.69 472.06 495.489 474.071 492.953 475.679Z" fill="#59A960"/>
<path d="M572.091 336.715C587.533 215.593 502.282 104.832 381.679 89.3242C261.076 73.8161 150.789 159.433 135.348 280.555C119.906 401.677 205.156 512.438 325.76 527.946C446.362 543.454 556.65 457.836 572.091 336.715Z" fill="#4D7ABB"/>
<path d="M344.011 120.159C342.331 123.873 337.121 122.522 335.608 125.56C333.256 130.455 335.776 134.843 336.785 139.4C338.633 149.695 341.659 153.915 331.239 159.991C321.324 165.899 318.467 161.679 318.971 175.688C319.14 180.582 323.509 180.751 320.82 185.983C319.979 187.671 312.921 188.346 311.073 191.046C305.527 198.98 314.098 209.444 311.912 218.22C309.392 228.516 301.829 226.996 295.107 232.229C281.999 242.525 286.032 267.841 270.571 275.268C264.52 278.306 249.732 274.93 245.53 270.035C238.976 262.61 243.681 254.002 246.875 246.913C251.076 237.292 252.084 235.268 247.043 225.985C245.195 222.608 242.338 221.595 240.993 217.039C239.649 212.313 242.338 206.912 240.152 202.187C238.472 198.473 233.598 198.135 232.085 195.098C229.901 190.71 231.582 185.815 229.564 181.595C228.557 179.57 225.363 173.832 222.843 173.325C215.28 171.974 219.817 177.713 217.128 181.595C206.037 198.135 194.441 179.908 178.308 185.815C174.442 187.333 170.577 189.697 166.711 192.059C200.659 137.206 257.967 98.3868 324.686 89.4414C333.089 99.0619 351.407 104.294 344.011 120.159Z" fill="#79C0C4"/>
<path d="M398.801 361.345C389.557 336.872 375.272 357.463 360.315 345.143C356.114 341.598 356.617 335.016 350.4 332.99C343.677 330.796 334.939 336.703 327.04 335.859C307.209 333.834 298.47 343.454 292.757 363.877C289.9 374.341 288.555 379.067 297.126 386.324C300.487 389.194 305.865 389.869 308.721 393.245C312.251 397.126 311.41 402.527 314.099 406.241C318.469 412.148 327.375 412.991 332.585 419.574C334.939 422.444 334.771 427.339 337.628 430.544C340.82 433.921 345.863 433.414 349.559 437.128C359.306 446.747 360.819 460.418 360.483 472.74C359.811 489.28 370.566 494.681 386.7 493.163C390.398 480.335 395.944 486.579 405.186 481.854C412.917 477.972 417.119 466.832 418.799 458.9C420.815 449.111 419.64 447.929 426.866 439.152C432.58 432.402 437.621 425.65 438.294 416.536C439.302 402.359 433.589 404.384 425.69 398.308C420.144 394.088 416.11 387.675 410.9 383.287C406.531 379.574 405.522 380.755 402.665 375.354C400.817 371.304 400.313 365.733 398.801 361.345Z" fill="#79C0C4"/>
<path d="M573.746 308.684C573.746 340.922 566.856 371.471 554.587 398.982C551.563 398.982 548.874 398.982 547.025 398.982C537.614 399.32 528.202 395.775 522.993 387.674C520.136 383.286 522.321 378.222 517.278 374.172C513.918 371.471 508.708 372.991 504.843 371.64C491.23 367.083 497.785 362.357 495.768 352.23C494.087 343.623 482.492 338.728 474.089 341.597C466.358 344.298 464.677 354.93 455.769 354.593C445.518 354.087 444.174 342.104 442.158 335.015C438.46 322.863 439.637 321.344 428.209 325.562C427.032 326.069 418.63 329.952 418.294 330.457C415.437 334.002 418.462 339.571 415.941 343.116C410.563 351.048 401.488 339.741 399.135 332.652C397.622 328.433 399.135 323.368 397.79 318.98C396.614 315.268 392.244 313.749 391.236 309.867C387.034 295.351 398.126 298.22 404.345 291.301C415.1 279.318 400.144 279.655 392.077 284.381C387.707 286.912 386.866 290.288 381.824 291.47C377.623 292.483 372.75 289.782 368.045 290.288C363.506 290.795 361.826 294.001 356.616 293.832C349.894 293.664 351.575 290.963 346.701 288.938C335.777 284.718 330.904 290.795 320.315 289.107C317.963 279.823 328.382 273.072 335.273 270.034C339.81 268.009 344.349 268.346 348.382 265.984C352.751 263.452 353.255 259.233 358.969 257.376C368.213 254.338 377.792 253.832 386.363 249.106C393.085 245.392 399.135 234.59 385.354 232.903C387.875 216.869 368.213 228.852 362.331 228.514C344.684 227.671 358.633 214.843 366.868 209.78C371.405 206.91 376.447 204.716 380.817 202.354C386.531 199.316 388.043 197.291 392.748 193.746C408.377 182.1 402.16 198.303 415.605 198.81C413.755 215.688 424.679 210.455 432.914 203.198C434.932 201.341 436.107 196.616 438.796 195.433C441.653 194.252 443.334 197.459 444.51 197.291C449.048 196.278 454.257 195.433 458.963 195.097C458.291 189.527 453.921 179.906 457.114 174.843C458.458 172.649 464.845 173.492 467.198 171.298C471.4 167.078 470.727 166.235 471.736 161.003C473.584 151.888 470.223 149.694 477.449 142.943C479.971 140.581 484.676 137.204 489.213 134.842C540.807 175.012 573.746 237.967 573.746 308.684Z" fill="#79C0C4"/>
<path d="M272.084 443.71C273.261 461.938 262.841 451.981 251.413 456.706C251.581 461.432 251.245 466.665 249.901 471.221C237.632 477.297 238.977 487.424 240.321 498.226C225.533 489.28 211.752 478.478 199.484 466.327C199.316 464.133 198.98 461.938 198.811 459.913C198.643 458.057 202.005 457.55 200.996 454.512C200.66 453.499 197.13 451.811 196.291 449.955C194.274 444.892 192.425 444.216 191.92 438.31C191.417 429.195 198.979 421.6 199.987 413.161C200.492 408.772 197.298 405.229 197.635 400.502C197.803 396.452 200.323 393.414 200.828 389.194C193.602 386.493 188.056 384.975 183.014 380.081C177.468 385.312 164.696 377.549 158.814 376.536C149.906 374.848 142.512 373.835 140.496 361.852C140.327 361.684 139.991 361.684 139.823 361.515C135.79 344.636 133.605 327.083 133.605 308.856C133.605 285.395 137.302 262.778 144.024 241.512C153.436 242.693 150.579 241.174 155.452 235.605C158.814 231.723 177.804 207.25 180.829 226.322C188.56 225.984 203.517 227.166 199.987 239.15C197.803 246.407 184.19 245.732 179.148 254.002C173.434 263.453 178.309 266.83 185.199 273.412C195.45 283.37 195.282 283.538 199.82 271.386C201.668 266.323 196.459 265.479 203.517 263.116C208.222 261.429 211.415 263.791 214.609 266.83C218.978 270.88 217.129 275.1 223.012 278.813C226.708 281.344 231.415 280.163 235.448 281.344C242.339 283.37 258.807 293.159 252.254 302.948C246.876 311.05 231.751 299.403 227.381 304.298C227.045 304.467 226.708 304.467 226.54 304.467C227.213 313.919 239.818 314.425 238.809 323.539C230.742 323.876 218.305 320.839 212.927 327.083C208.558 332.316 212.592 350.037 209.063 353.244C203.349 358.308 191.417 351.556 186.207 349.194C182.342 347.506 179.821 344.131 175.115 344.299C174.275 344.299 164.696 349.362 164.528 349.7C161.503 357.464 173.099 366.578 179.989 368.097C187.551 369.785 193.097 362.865 202.341 367.421C210.911 371.641 209.567 379.068 220.827 380.924C227.381 382.105 242.002 379.068 247.044 383.456C252.254 388.013 248.724 393.245 252.422 398.477C255.447 402.528 261.328 402.697 265.362 403.878C275.109 406.748 284.185 409.11 284.521 422.107C267.378 424.807 271.244 430.039 272.084 443.71Z" fill="#79C0C4"/>
<path opacity="0.5" d="M512.743 155.771C522.322 180.581 527.532 207.587 527.532 235.773C527.532 357.801 429.05 456.874 307.377 456.874C244.859 456.874 188.393 430.713 148.395 388.686C180.326 471.22 260.153 529.787 353.592 529.787C475.098 529.787 573.748 430.882 573.748 308.685C573.748 249.444 550.555 195.603 512.743 155.771Z" fill="#00BBFF"/>
<path d="M615.93 228.854C607.359 181.764 573.916 203.03 573.916 203.03C527.197 158.81 519.13 216.026 519.13 216.026C497.618 207.924 491.736 229.022 491.736 229.022C461.99 221.765 452.914 237.462 450.395 251.639H648.87C643.324 217.377 615.93 228.854 615.93 228.854Z" fill="white"/>
<path d="M180.829 262.608C175.451 233.072 154.444 246.405 154.444 246.405C125.034 218.557 119.992 254.507 119.992 254.507C106.547 249.444 102.682 262.608 102.682 262.608C84.0273 258.051 78.3134 267.84 76.6328 276.954H201.331C197.97 255.351 180.829 262.608 180.829 262.608Z" fill="white"/>
<path d="M253.767 136.362C246.877 98.7236 220.156 115.602 220.156 115.602C182.679 80.1578 176.292 125.897 176.292 125.897C159.151 119.484 154.278 136.193 154.278 136.193C130.581 130.454 123.186 142.944 121.17 154.421H279.984C275.783 127.079 253.767 136.362 253.767 136.362Z" fill="white"/>
<path opacity="0.3" d="M273.261 244.042C243.011 282.861 202.845 302.101 183.518 286.912C164.192 271.722 172.931 228.007 203.182 189.02C233.431 150.2 273.597 130.959 292.924 146.149C312.251 161.34 303.511 205.053 273.261 244.042Z" fill="white"/>
<path d="M705 550.039C705 556.453 679.119 561.516 647.02 561.516C615.09 561.516 589.041 556.453 589.041 550.039C589.041 543.626 614.921 538.562 647.02 538.562C679.119 538.562 705 543.794 705 550.039Z" fill="#BBE7F2"/>
<path d="M537.952 605.905C537.952 617.213 465.351 626.496 375.777 626.496C286.202 626.496 213.602 617.213 213.602 605.905C213.602 594.597 286.202 585.314 375.777 585.314C465.351 585.314 537.952 594.597 537.952 605.905Z" fill="#BBE7F2"/>
</g>
<defs>
<clipPath id="clip0_13_3411">
<rect width="705" height="640" fill="white"/>
</clipPath>
</defs>
</svg>
