<svg width="100" height="100" viewBox="0 0 100 100" fill="none" xmlns="http://www.w3.org/2000/svg">
<path d="M22.9196 30.974C23.9862 30.974 24.8509 30.1093 24.8509 29.0427C24.8509 27.976 23.9862 27.1113 22.9196 27.1113C21.853 27.1113 20.9883 27.976 20.9883 29.0427C20.9883 30.1093 21.853 30.974 22.9196 30.974Z" fill="#2A4773"/>
<path d="M76.3219 52.1595C77.3886 52.1595 78.2533 51.2948 78.2533 50.2282C78.2533 49.1616 77.3886 48.2969 76.3219 48.2969C75.2553 48.2969 74.3906 49.1616 74.3906 50.2282C74.3906 51.2948 75.2553 52.1595 76.3219 52.1595Z" fill="#2A4773"/>
<path d="M78.1099 44.0616C78.6409 44.0616 79.0713 43.6311 79.0713 43.1001C79.0713 42.5691 78.6409 42.1387 78.1099 42.1387C77.5789 42.1387 77.1484 42.5691 77.1484 43.1001C77.1484 43.6311 77.5789 44.0616 78.1099 44.0616Z" fill="#2A4773"/>
<path d="M65.476 24.614C67.1993 24.614 68.5964 23.2169 68.5964 21.4935C68.5964 19.7701 67.1993 18.373 65.476 18.373C63.7526 18.373 62.3555 19.7701 62.3555 21.4935C62.3555 23.2169 63.7526 24.614 65.476 24.614Z" fill="#2A4773"/>
<path d="M34.5247 37.3821C33.4705 38.4363 31.75 38.4363 30.6958 37.3821L28.5368 35.2231C27.4825 34.1689 27.4825 32.4484 28.5368 31.3942C29.591 30.34 31.3115 30.34 32.3657 31.3942L34.5247 33.5532C35.5789 34.6074 35.5789 36.3279 34.5247 37.3821Z" fill="#EAB88B"/>
<path d="M57.8109 39.3401C57.8109 39.3401 60.7458 33.2256 63.3518 35.2666C65.9579 37.3076 63.2591 41.2377 63.3518 43.9871C63.6808 53.7702 67.594 54.9931 66.6916 64.6919C65.7976 74.3907 58.3253 81.5594 49.6302 81.6437C40.935 81.728 35.7988 75.4533 35.7988 75.4533L57.8109 39.3401Z" fill="#EAB88B"/>
<path d="M57.8093 26.789V72.1034C57.8093 73.9504 56.3166 75.4432 54.4696 75.4432H34.0937C32.2467 75.4432 30.7539 73.9504 30.7539 72.1034V26.789C30.7539 24.942 32.2467 23.4492 34.0937 23.4492H54.4696C56.3166 23.4492 57.8093 24.942 57.8093 26.789Z" fill="#2A4773"/>
<path d="M56.6372 26.7905V72.105C56.6372 73.3026 55.6674 74.2809 54.4698 74.2809H34.0939C32.8963 74.2809 31.918 73.3026 31.918 72.105V26.7905C31.918 25.5929 32.8963 24.623 34.0939 24.623H54.4698C55.6674 24.623 56.6372 25.5929 56.6372 26.7905Z" fill="#699FF0"/>
<path d="M33.3021 64.6653C32.2478 65.7196 30.5274 65.7196 29.4731 64.6653L27.3141 62.5063C26.2599 61.4521 26.2599 59.7316 27.3141 58.6774C28.3683 57.6232 30.0888 57.6232 31.143 58.6774L33.3021 60.8364C34.3563 61.8991 34.3563 63.6111 33.3021 64.6653Z" fill="#EAB88B"/>
<path d="M49.0131 24.623L31.918 41.7182V38.252L45.5553 24.623H49.0131Z" fill="white"/>
<path d="M56.6372 26.7905V29.0676L31.918 53.7869V46.3483L53.6433 24.623H54.4613C55.6674 24.623 56.6372 25.5929 56.6372 26.7905Z" fill="white"/>
<path d="M51.0453 23.4492V25.2034C51.0453 26.1311 50.2947 26.8733 49.3754 26.8733H39.1875C38.2682 26.8733 37.5176 26.1227 37.5176 25.2034V23.4492H51.0453Z" fill="#2A4773"/>
<path d="M46.5856 25.5676H39.4928C39.1807 25.5676 38.9277 25.3146 38.9277 25.0026C38.9277 24.6905 39.1807 24.4375 39.4928 24.4375H46.5856C46.8976 24.4375 47.1506 24.6905 47.1506 25.0026C47.1422 25.3146 46.8892 25.5676 46.5856 25.5676Z" fill="white"/>
<path d="M49.0729 25.5754C49.3849 25.5754 49.6379 25.3224 49.6379 25.0104C49.6379 24.6983 49.3849 24.4453 49.0729 24.4453C48.7608 24.4453 48.5078 24.6983 48.5078 25.0104C48.5078 25.3224 48.7608 25.5754 49.0729 25.5754Z" fill="white"/>
<path d="M33.3021 55.9446C32.2478 56.9988 30.5274 56.9988 29.4731 55.9446L27.3141 53.7856C26.2599 52.7314 26.2599 51.0109 27.3141 49.9567C28.3683 48.9025 30.0888 48.9025 31.143 49.9567L33.3021 52.1157C34.3563 53.1784 34.3563 54.8904 33.3021 55.9446Z" fill="#EAB88B"/>
<path d="M33.3021 47.2239C32.2478 48.2781 30.5274 48.2781 29.4731 47.2239L27.3141 45.0649C26.2599 44.0107 26.2599 42.2902 27.3141 41.236C28.3683 40.1818 30.0888 40.1818 31.143 41.236L33.3021 43.395C34.3563 44.4577 34.3563 46.1697 33.3021 47.2239Z" fill="#EAB88B"/>
</svg>
