<svg width="100" height="100" viewBox="0 0 100 100" fill="none" xmlns="http://www.w3.org/2000/svg">
<path d="M72.4358 28.9438C73.5005 28.9438 74.3637 28.0806 74.3637 27.0158C74.3637 25.9511 73.5005 25.0879 72.4358 25.0879C71.371 25.0879 70.5078 25.9511 70.5078 27.0158C70.5078 28.0806 71.371 28.9438 72.4358 28.9438Z" fill="#699FF0"/>
<path d="M20.928 59.6743C21.9927 59.6743 22.8559 58.8111 22.8559 57.7463C22.8559 56.6815 21.9927 55.8184 20.928 55.8184C19.8632 55.8184 19 56.6815 19 57.7463C19 58.8111 19.8632 59.6743 20.928 59.6743Z" fill="#699FF0"/>
<path d="M80.5694 27.0158C81.1018 27.0158 81.5334 26.5843 81.5334 26.0519C81.5334 25.5195 81.1018 25.0879 80.5694 25.0879C80.0371 25.0879 79.6055 25.5195 79.6055 26.0519C79.6055 26.5843 80.0371 27.0158 80.5694 27.0158Z" fill="#699FF0"/>
<path fill-rule="evenodd" clip-rule="evenodd" d="M51.0703 72.3622V27.7832H52.3193V72.3622H51.0703Z" fill="#2A4773"/>
<path fill-rule="evenodd" clip-rule="evenodd" d="M31.3463 36.752L72.6733 60.9669L72.0418 62.0446L30.7148 37.8296L31.3463 36.752Z" fill="#2A4773"/>
<path fill-rule="evenodd" clip-rule="evenodd" d="M72.6733 37.8296L31.3463 62.0446L30.7148 60.9669L72.0418 36.752L72.6733 37.8296Z" fill="#2A4773"/>
<path fill-rule="evenodd" clip-rule="evenodd" d="M51.6943 26.6426L72.9823 36.8986V61.8822L51.6943 73.1357L30.4062 61.8822V36.8986L51.6943 26.6426ZM31.6553 37.6833V61.1296L51.6943 71.7229L71.7332 61.1296V37.6833L51.6943 28.029L31.6553 37.6833Z" fill="#2A4773"/>
<path d="M31.0332 42.5943C29.6786 42.5946 28.3654 42.1272 27.3157 41.2711C26.2659 40.4149 25.544 39.2225 25.2721 37.8955C25.0001 36.5684 25.1947 35.1882 25.823 33.9881C26.4514 32.788 27.4748 31.8418 28.7204 31.3092C29.9659 30.7767 31.3572 30.6907 32.6589 31.0657C33.9606 31.4406 35.0928 32.2536 35.8642 33.3671C36.6357 34.4806 36.9989 35.8263 36.8925 37.1768C36.7861 38.5272 36.2167 39.7995 35.2804 40.7785C34.7337 41.3546 34.0748 41.8129 33.3444 42.1252C32.6141 42.4374 31.8275 42.5971 31.0332 42.5943Z" fill="#699FF0"/>
<path d="M31.0329 31.2984C32.1053 31.2984 33.1536 31.6164 34.0452 32.2122C34.9369 32.808 35.6318 33.6548 36.0422 34.6455C36.4526 35.6363 36.56 36.7265 36.3508 37.7782C36.1415 38.83 35.6251 39.7961 34.8669 40.5544C34.1086 41.3127 33.1425 41.8291 32.0907 42.0383C31.0389 42.2475 29.9487 42.1402 28.958 41.7298C27.9672 41.3194 27.1204 40.6244 26.5246 39.7328C25.9288 38.8411 25.6108 37.7928 25.6108 36.7205C25.6108 35.2824 26.1821 33.9033 27.1989 32.8865C28.2158 31.8697 29.5949 31.2984 31.0329 31.2984ZM31.0329 30.3867C29.7923 30.3867 28.579 30.7511 27.5437 31.4345C26.5083 32.118 25.6964 33.0905 25.2089 34.2312C24.7213 35.372 24.5795 36.6308 24.801 37.8515C25.0226 39.0722 25.5977 40.2009 26.4551 41.0976C27.3291 42.0117 28.4569 42.6432 29.693 42.9108C30.9292 43.1783 32.2171 43.0697 33.391 42.5988C34.5648 42.1279 35.5708 41.3164 36.2794 40.2687C36.9879 39.221 37.3666 37.9852 37.3666 36.7205C37.3646 35.0413 36.6967 33.4314 35.5093 32.244C34.3219 31.0567 32.7121 30.3887 31.0329 30.3867Z" fill="#2A4773"/>
<path d="M31.0304 37.1625C32.1432 37.1625 33.0453 36.2604 33.0453 35.1476C33.0453 34.0349 32.1432 33.1328 31.0304 33.1328C29.9177 33.1328 29.0156 34.0349 29.0156 35.1476C29.0156 36.2604 29.9177 37.1625 31.0304 37.1625Z" fill="white"/>
<path d="M34.9508 40.4632C34.4445 40.9925 33.8363 41.4137 33.1627 41.7015C32.4892 41.9893 31.7644 42.1376 31.032 42.1376C30.2996 42.1376 29.5748 41.9893 28.9013 41.7015C28.2278 41.4137 27.6195 40.9925 27.1133 40.4632C27.2725 39.5393 27.7531 38.7014 28.4701 38.0974C29.1871 37.4934 30.0945 37.1621 31.032 37.1621C31.9695 37.1621 32.8769 37.4934 33.594 38.0974C34.311 38.7014 34.7915 39.5393 34.9508 40.4632Z" fill="white"/>
<path d="M72.3588 42.594C70.7998 42.5938 69.3048 41.9744 68.2024 40.872C67.1001 39.7697 66.4807 38.2746 66.4805 36.7157C66.4802 35.7544 66.7158 34.8077 67.1664 33.9586C67.617 33.1095 68.269 32.3839 69.0652 31.8453C69.8614 31.3067 70.7776 30.9716 71.7334 30.8693C72.6892 30.767 73.6555 30.9007 74.5477 31.2587C75.4398 31.6166 76.2305 32.1879 76.8506 32.9224C77.4707 33.657 77.9012 34.5324 78.1043 35.4719C78.3075 36.4115 78.2771 37.3865 78.0159 38.3116C77.7547 39.2367 77.2706 40.0836 76.606 40.7782C76.0592 41.3544 75.4004 41.8127 74.67 42.125C73.9396 42.4372 73.1531 42.5968 72.3588 42.594Z" fill="#699FF0"/>
<path d="M72.3582 31.2984C73.4306 31.2984 74.4789 31.6164 75.3706 32.2122C76.2622 32.808 76.9572 33.6548 77.3676 34.6455C77.7779 35.6363 77.8853 36.7265 77.6761 37.7782C77.4669 38.83 76.9505 39.7961 76.1922 40.5544C75.4339 41.3127 74.4678 41.8291 73.416 42.0383C72.3643 42.2475 71.2741 42.1402 70.2833 41.7298C69.2926 41.3194 68.4458 40.6244 67.85 39.7328C67.2542 38.8411 66.9362 37.7928 66.9362 36.7205C66.9362 35.2824 67.5074 33.9033 68.5243 32.8865C69.5411 31.8697 70.9202 31.2984 72.3582 31.2984ZM72.3582 30.3867C71.1175 30.3863 69.9039 30.7505 68.8683 31.4339C67.8327 32.1172 67.0207 33.0898 66.533 34.2307C66.0454 35.3716 65.9037 36.6307 66.1254 37.8515C66.3472 39.0723 66.9227 40.201 67.7804 41.0976C68.6545 42.0117 69.7822 42.6432 71.0184 42.9108C72.2545 43.1783 73.5425 43.0697 74.7163 42.5988C75.8902 42.1279 76.8962 41.3164 77.6047 40.2687C78.3133 39.221 78.692 37.9852 78.692 36.7205C78.69 35.0413 78.022 33.4314 76.8346 32.244C75.6473 31.0567 74.0374 30.3887 72.3582 30.3867Z" fill="#2A4773"/>
<path d="M72.3586 37.1625C73.4713 37.1625 74.3734 36.2604 74.3734 35.1476C74.3734 34.0349 73.4713 33.1328 72.3586 33.1328C71.2458 33.1328 70.3438 34.0349 70.3438 35.1476C70.3438 36.2604 71.2458 37.1625 72.3586 37.1625Z" fill="white"/>
<path d="M76.2741 40.4628C75.768 40.9921 75.1599 41.4134 74.4864 41.7012C73.813 41.9891 73.0882 42.1375 72.3558 42.1375C71.6234 42.1375 70.8987 41.9891 70.2252 41.7012C69.5518 41.4134 68.9436 40.9921 68.4375 40.4628C68.5972 39.5394 69.0779 38.7021 69.7948 38.0985C70.5117 37.495 71.4187 37.1641 72.3558 37.1641C73.2929 37.1641 74.1999 37.495 74.9168 38.0985C75.6337 38.7021 76.1144 39.5394 76.2741 40.4628Z" fill="white"/>
<path d="M31.0339 66.9503C29.6797 66.9503 28.3671 66.4827 27.3179 65.6266C26.2687 64.7704 25.5473 63.5783 25.2757 62.2516C25.0041 60.9249 25.1989 59.5452 25.8273 58.3456C26.4556 57.146 27.4789 56.2002 28.7242 55.6681C29.9694 55.136 31.3602 55.0502 32.6614 55.4252C33.9627 55.8002 35.0945 56.6131 35.8655 57.7263C36.6365 58.8396 36.9995 60.1849 36.893 61.5349C36.7865 62.8849 36.2172 64.1567 35.2811 65.1353C34.7342 65.7112 34.0753 66.1693 33.3449 66.4814C32.6146 66.7935 31.8282 66.953 31.0339 66.9503Z" fill="#699FF0"/>
<path d="M31.033 55.6486C32.1054 55.6486 33.1538 55.9667 34.0455 56.5625C34.9373 57.1584 35.6322 58.0054 36.0425 58.9963C36.4528 59.9872 36.56 61.0775 36.3506 62.1294C36.1412 63.1812 35.6246 64.1473 34.866 64.9055C34.1075 65.6637 33.1411 66.1799 32.0892 66.3888C31.0373 66.5977 29.947 66.49 28.9563 66.0792C27.9656 65.6685 27.1189 64.9731 26.5235 64.0811C25.928 63.1891 25.6104 62.1406 25.6109 61.0681C25.6118 59.6306 26.1834 58.2523 27.2001 57.236C28.2168 56.2198 29.5954 55.6488 31.033 55.6486ZM31.033 54.7369C29.3531 54.7369 27.7421 55.4042 26.5543 56.592C25.3665 57.7798 24.6992 59.3908 24.6992 61.0706C24.6992 62.7505 25.3665 64.3615 26.5543 65.5493C27.7421 66.7371 29.3531 67.4044 31.033 67.4044C31.8649 67.4044 32.6887 67.2405 33.4574 66.922C34.226 66.6035 34.9243 66.1368 35.5125 65.5484C36.1006 64.96 36.5671 64.2614 36.8853 63.4927C37.2034 62.724 37.367 61.9001 37.3667 61.0681C37.3647 59.3889 36.6967 57.7791 35.5094 56.5917C34.322 55.4043 32.7121 54.7364 31.033 54.7344V54.7369Z" fill="#2A4773"/>
<path d="M31.0304 61.5179C32.1432 61.5179 33.0453 60.6159 33.0453 59.5031C33.0453 58.3903 32.1432 57.4883 31.0304 57.4883C29.9177 57.4883 29.0156 58.3903 29.0156 59.5031C29.0156 60.6159 29.9177 61.5179 31.0304 61.5179Z" fill="white"/>
<path d="M34.9508 64.8187C34.4445 65.348 33.8363 65.7692 33.1627 66.057C32.4892 66.3447 31.7644 66.4931 31.032 66.4931C30.2996 66.4931 29.5748 66.3447 28.9013 66.057C28.2278 65.7692 27.6195 65.348 27.1133 64.8187C27.2725 63.8948 27.7531 63.0569 28.4701 62.4529C29.1871 61.8488 30.0945 61.5176 31.032 61.5176C31.9695 61.5176 32.8769 61.8488 33.594 62.4529C34.311 63.0569 34.7915 63.8948 34.9508 64.8187Z" fill="white"/>
<path d="M72.3581 66.9503C71.004 66.9503 69.6913 66.4827 68.6421 65.6266C67.5929 64.7704 66.8715 63.5783 66.5999 62.2516C66.3283 60.9249 66.5232 59.5452 67.1515 58.3456C67.7798 57.146 68.8032 56.2002 70.0484 55.6681C71.2937 55.136 72.6845 55.0502 73.9857 55.4252C75.2869 55.8002 76.4187 56.6131 77.1897 57.7263C77.9607 58.8396 78.3237 60.1849 78.2172 61.5349C78.1108 62.8849 77.5414 64.1567 76.6054 65.1353C76.0585 65.7113 75.3996 66.1695 74.6693 66.4816C73.9389 66.7937 73.1524 66.9532 72.3581 66.9503Z" fill="#699FF0"/>
<path d="M72.3572 55.65C73.4297 55.6498 74.4782 55.9677 75.37 56.5635C76.2618 57.1593 76.9569 58.0062 77.3673 58.9971C77.7778 59.988 77.8851 61.0783 77.6758 62.1302C77.4665 63.1821 76.9499 64.1483 76.1914 64.9066C75.4329 65.6648 74.4665 66.1811 73.4146 66.3901C72.3626 66.5991 71.2723 66.4914 70.2815 66.0807C69.2908 65.6699 68.4441 64.9746 67.8486 64.0826C67.2531 63.1906 66.9355 62.142 66.936 61.0695C66.9369 59.6321 67.5084 58.2539 68.5249 57.2377C69.5414 56.2215 70.9198 55.6504 72.3572 55.65ZM72.3572 54.7383C70.6774 54.7383 69.0664 55.4056 67.8785 56.5934C66.6907 57.7812 66.0234 59.3922 66.0234 61.072C66.0234 62.7518 66.6907 64.3628 67.8785 65.5506C69.0664 66.7384 70.6774 67.4058 72.3572 67.4058C74.037 67.4058 75.648 66.7384 76.8358 65.5506C78.0236 64.3628 78.6909 62.7518 78.6909 61.072C78.6889 59.3928 78.0209 57.783 76.8336 56.5956C75.6462 55.4082 74.0364 54.7403 72.3572 54.7383Z" fill="#2A4773"/>
<path d="M72.3586 61.5179C73.4713 61.5179 74.3734 60.6159 74.3734 59.5031C74.3734 58.3903 73.4713 57.4883 72.3586 57.4883C71.2458 57.4883 70.3438 58.3903 70.3438 59.5031C70.3438 60.6159 71.2458 61.5179 72.3586 61.5179Z" fill="white"/>
<path d="M76.2741 64.8182C75.768 65.3476 75.1599 65.7689 74.4864 66.0567C73.813 66.3445 73.0882 66.4929 72.3558 66.4929C71.6234 66.4929 70.8987 66.3445 70.2252 66.0567C69.5518 65.7689 68.9436 65.3476 68.4375 64.8182C68.5972 63.8948 69.0779 63.0575 69.7948 62.454C70.5117 61.8505 71.4187 61.5195 72.3558 61.5195C73.2929 61.5195 74.1999 61.8505 74.9168 62.454C75.6337 63.0575 76.1144 63.8948 76.2741 64.8182Z" fill="white"/>
<path d="M51.6965 33.2153C50.3418 33.2156 49.0287 32.748 47.9791 31.8916C46.9294 31.0353 46.2077 29.8428 45.9359 28.5157C45.6642 27.1886 45.859 25.8084 46.4875 24.6084C47.1161 23.4084 48.1397 22.4623 49.3854 21.93C50.631 21.3977 52.0223 21.3118 53.3239 21.687C54.6256 22.0622 55.7577 22.8754 56.5289 23.9891C57.3001 25.1027 57.6631 26.4486 57.5565 27.799C57.4499 29.1494 56.8801 30.4216 55.9437 31.4004C55.3967 31.9763 54.7379 32.4344 54.0075 32.7465C53.2772 33.0586 52.4907 33.2181 51.6965 33.2153Z" fill="#699FF0"/>
<path d="M51.6958 21.9142C52.7683 21.9142 53.8167 22.2323 54.7084 22.8282C55.6001 23.4241 56.2951 24.271 56.7054 25.2619C57.1157 26.2528 57.2229 27.3431 57.0135 28.395C56.8041 29.4468 56.2874 30.4129 55.5289 31.1711C54.7704 31.9293 53.804 32.4455 52.7521 32.6544C51.7001 32.8634 50.6098 32.7556 49.6191 32.3449C48.6284 31.9341 47.7818 31.2387 47.1863 30.3468C46.5909 29.4548 46.2733 28.4062 46.2738 27.3337C46.2747 25.8962 46.8463 24.5179 47.863 23.5017C48.8797 22.4854 50.2583 21.9144 51.6958 21.9142ZM51.6958 21.0025C50.4554 21.0029 49.2424 21.3675 48.2073 22.051C47.1722 22.7346 46.3605 23.7069 45.873 24.8476C45.3855 25.9882 45.2436 27.2468 45.4649 28.4673C45.6862 29.6879 46.261 30.8165 47.118 31.7134C47.9924 32.6272 49.1203 33.2584 50.3566 33.5257C51.5928 33.7929 52.8808 33.6839 54.0546 33.2128C55.2283 32.7417 56.2342 31.93 56.9426 30.8822C57.6511 29.8344 58.0296 28.5985 58.0296 27.3337C58.0276 25.6545 57.3596 24.0447 56.1722 22.8573C54.9849 21.67 53.375 21.002 51.6958 21V21.0025Z" fill="#2A4773"/>
<path d="M51.6945 27.7835C52.8073 27.7835 53.7093 26.8815 53.7093 25.7687C53.7093 24.656 52.8073 23.7539 51.6945 23.7539C50.5818 23.7539 49.6797 24.656 49.6797 25.7687C49.6797 26.8815 50.5818 27.7835 51.6945 27.7835Z" fill="white"/>
<path d="M55.6148 31.0843C55.1085 31.6136 54.5003 32.0348 53.8268 32.3226C53.1533 32.6104 52.4285 32.7587 51.6961 32.7587C50.9637 32.7587 50.2389 32.6104 49.5653 32.3226C48.8918 32.0348 48.2836 31.6136 47.7773 31.0843C47.9366 30.1604 48.4171 29.3225 49.1341 28.7185C49.8512 28.1145 50.7585 27.7832 51.6961 27.7832C52.6336 27.7832 53.541 28.1145 54.258 28.7185C54.975 29.3225 55.4556 30.1604 55.6148 31.0843Z" fill="white"/>
<path d="M51.6965 77.7935C50.3418 77.7937 49.0287 77.3261 47.9791 76.4698C46.9294 75.6134 46.2077 74.4209 45.9359 73.0938C45.6642 71.7667 45.859 70.3865 46.4875 69.1865C47.1161 67.9865 48.1397 67.0404 49.3854 66.5081C50.631 65.9758 52.0223 65.89 53.3239 66.2652C54.6256 66.6404 55.7577 67.4535 56.5289 68.5672C57.3001 69.6809 57.6631 71.0267 57.5565 72.3771C57.4499 73.7275 56.8801 74.9997 55.9437 75.9785C55.3967 76.5544 54.7379 77.0125 54.0075 77.3246C53.2772 77.6367 52.4907 77.7962 51.6965 77.7935Z" fill="#699FF0"/>
<path d="M51.697 66.4937C52.7693 66.4937 53.8176 66.8117 54.7093 67.4075C55.6009 68.0033 56.2959 68.8501 56.7063 69.8408C57.1167 70.8316 57.224 71.9218 57.0148 72.9736C56.8056 74.0253 56.2892 74.9914 55.5309 75.7497C54.7726 76.508 53.8065 77.0244 52.7547 77.2336C51.703 77.4428 50.6128 77.3355 49.622 76.9251C48.6313 76.5147 47.7845 75.8197 47.1887 74.9281C46.5929 74.0364 46.2749 72.9881 46.2749 71.9158C46.2751 70.4778 46.8465 69.0988 47.8632 68.082C48.88 67.0653 50.259 66.4939 51.697 66.4937ZM51.697 65.582C50.4564 65.582 49.2431 65.9464 48.2077 66.6298C47.1724 67.3133 46.3605 68.2858 45.8729 69.4265C45.3854 70.5673 45.2436 71.8262 45.4651 73.0468C45.6866 74.2675 46.2618 75.3962 47.1191 76.2929C47.9932 77.207 49.1209 77.8385 50.3571 78.1061C51.5932 78.3736 52.8812 78.265 54.055 77.7941C55.2289 77.3232 56.2349 76.5117 56.9434 75.464C57.652 74.4164 58.0307 73.1805 58.0307 71.9158C58.0287 70.2366 57.3607 68.6267 56.1734 67.4394C54.986 66.252 53.3762 65.584 51.697 65.582Z" fill="#2A4773"/>
<path d="M51.6945 72.3617C52.8073 72.3617 53.7093 71.4596 53.7093 70.3469C53.7093 69.2341 52.8073 68.332 51.6945 68.332C50.5818 68.332 49.6797 69.2341 49.6797 70.3469C49.6797 71.4596 50.5818 72.3617 51.6945 72.3617Z" fill="white"/>
<path d="M55.6148 75.6625C55.1085 76.1917 54.5003 76.613 53.8268 76.9007C53.1533 77.1885 52.4285 77.3369 51.6961 77.3369C50.9637 77.3369 50.2389 77.1885 49.5653 76.9007C48.8918 76.613 48.2836 76.1917 47.7773 75.6625C47.9366 74.7386 48.4171 73.9006 49.1341 73.2966C49.8512 72.6926 50.7585 72.3613 51.6961 72.3613C52.6336 72.3613 53.541 72.6926 54.258 73.2966C54.975 73.9006 55.4556 74.7386 55.6148 75.6625Z" fill="white"/>
</svg>
