<svg width="100" height="100" viewBox="0 0 100 100" fill="none" xmlns="http://www.w3.org/2000/svg">
<path fill-rule="evenodd" clip-rule="evenodd" d="M50.668 82.4506V34.9004H53.1981V82.4506H50.668Z" fill="#2DB66F"/>
<path d="M51.8319 48.83C60.4546 48.776 67.3998 41.7119 67.3407 33.0589C67.2817 24.4059 60.2378 17.4472 51.6177 17.5062C42.9976 17.5653 36.0499 24.6243 36.1098 33.2773C36.1696 41.9303 43.2067 48.8898 51.8319 48.83Z" fill="#78F177"/>
<path fill-rule="evenodd" clip-rule="evenodd" d="M51.6221 18.0183C43.282 18.0756 36.5645 24.9044 36.621 33.2724C36.6775 41.6403 43.4895 48.3738 51.8296 48.319C60.1697 48.2642 66.888 41.4346 66.8307 33.0649C66.7733 24.6953 59.9622 17.9618 51.6221 18.0183ZM35.598 33.2834C35.539 24.3453 42.7077 17.0577 51.6145 17.0003C60.5214 16.943 67.7904 24.1311 67.852 33.0615C67.9136 41.992 60.7499 49.2805 51.8363 49.342C42.9227 49.4036 35.6604 42.2113 35.5997 33.2774L35.598 33.2834Z" fill="#4FC64E"/>
<path d="M51.8152 46.4611C54.4446 46.4508 57.0118 45.661 59.1922 44.1916C61.3727 42.7221 63.0684 40.6392 64.065 38.206C65.0616 35.7728 65.3143 33.0988 64.7911 30.522C64.268 27.9452 62.9924 25.5815 61.1258 23.7296C59.2593 21.8778 56.8854 20.621 54.3046 20.1183C51.7238 19.6156 49.0518 19.8895 46.6266 20.9053C44.2014 21.9212 42.132 23.6334 40.6799 25.8254C39.2278 28.0175 38.4584 30.5908 38.4689 33.2202V33.2581C38.478 35.0013 38.8305 36.7256 39.5061 38.3326C40.1817 39.9395 41.1673 41.3977 42.4065 42.6237C43.6457 43.8498 45.1142 44.8197 46.7283 45.4781C48.3424 46.1366 50.0704 46.4706 51.8136 46.4611H51.8152Z" fill="#BFFABC"/>
<path fill-rule="evenodd" clip-rule="evenodd" d="M51.6392 20.3871C49.1107 20.3965 46.6418 21.1554 44.5447 22.5679C42.4476 23.9805 40.8165 25.9832 39.8576 28.3228C38.8987 30.6624 38.6552 33.2338 39.1577 35.7118C39.6603 38.1898 40.8864 40.4632 42.681 42.2443C44.4756 44.0255 46.7581 45.2345 49.2399 45.7184C51.7216 46.2023 54.2911 45.9394 56.6234 44.963C58.9557 43.9865 60.9461 42.3404 62.3429 40.2327C63.7396 38.125 64.4799 35.6505 64.4703 33.122V33.0807C64.4613 31.4047 64.1223 29.7469 63.4727 28.2019C62.823 26.6569 61.8753 25.255 60.6838 24.0763C59.4924 22.8976 58.0804 21.9651 56.5285 21.3321C54.9766 20.6991 53.3152 20.378 51.6392 20.3871ZM37.9571 33.2637C37.9459 30.5424 38.7414 27.8787 40.2432 25.6093C41.745 23.3398 43.8857 21.5663 46.3949 20.5128C48.9041 19.4594 51.6692 19.1732 54.341 19.6904C57.0127 20.2077 59.4713 21.5051 61.406 23.4189C63.3408 25.3327 64.6649 27.777 65.2112 30.443C65.7575 33.1089 65.5015 35.877 64.4754 38.3975C63.4493 40.9181 61.6993 43.078 59.4463 44.6044C57.1933 46.1308 54.5385 46.9552 51.8171 46.9736C50.0063 46.9857 48.2108 46.6405 46.5335 45.9576C44.8563 45.2748 43.3302 44.2677 42.0428 42.9942C40.7553 41.7207 39.7317 40.2057 39.0306 38.536C38.3296 36.8662 37.9648 35.0746 37.9571 33.2637Z" fill="#4FC64E"/>
<path d="M61.4488 26.8438C61.4488 26.8438 62.2331 29.3444 59.5933 31.9672C58.9844 32.577 58.2515 33.288 57.5085 34.0698C57.5085 34.0698 54.3619 36.389 54.162 41.6939C52.9206 42.3169 51.5832 42.7263 50.2057 42.905C50.2057 42.905 52.8202 43.3148 56.6154 41.2064C56.6154 41.2064 59.8404 39.5062 60.9014 36.4405L59.299 36.9254L62.293 33.2095L63.0925 35.7599L62.013 36.1192C62.013 36.1192 60.2739 44.2012 51.5391 44.3842C51.5391 44.3842 45.4913 44.7798 41.6641 40.2517C43.8745 43.3595 47.959 45.2116 51.54 45.1854C58.3629 45.139 63.8465 39.5922 63.8035 33.2871C63.7925 31.6181 63.2384 28.9724 61.4488 26.8438Z" fill="url(#paint0_linear_137_2866)"/>
<path d="M47.2579 38.2697C47.1989 37.5267 47.1339 36.6487 47.0353 35.716C47.0353 35.716 47.2571 32.3425 43.8718 29.254C44.1511 28.0868 44.6249 26.9748 45.2735 25.9649C45.2735 25.9649 43.5606 27.4695 42.8319 31.1525C42.8319 31.1525 42.2027 34.3573 43.628 36.7609L44.4824 35.1922L44.9294 39.318L42.9053 38.2317L43.2021 37.6667C43.2021 37.6667 38.82 31.8955 43.5682 26.0129C43.5682 26.0129 46.6751 21.7876 51.7851 21.7792C48.5137 21.5161 45.0129 23.186 43.0377 25.5744C39.272 30.1151 39.8641 36.8351 44.0447 40.3166C45.152 41.2443 47.2014 42.3466 49.6017 42.3449C49.5966 42.3525 47.516 41.4804 47.2579 38.2697Z" fill="url(#paint1_linear_137_2866)"/>
<path d="M49.5838 24.9912C49.5838 24.9912 53.1471 22.3666 57.5208 25.3057C57.5208 25.3057 58.7564 26.0175 60.1538 27.7987C59.6048 26.7162 58.8338 25.7616 57.8911 24.9971C54.5176 22.2485 49.8512 23.0118 47.4678 25.4483C46.7164 26.1862 45.7279 27.706 45.582 29.4391C45.582 29.4391 46.4035 27.9927 48.8079 28.0003C49.4573 28.0003 49.9144 27.9624 50.7224 28.0003C50.7224 28.0003 53.2483 28.4169 55.8383 26.0175C56.647 26.3044 57.4064 26.715 58.0893 27.2345C58.0893 27.2345 57.0713 25.8944 54.3675 25.1446C54.3675 25.1446 52.1199 24.4539 50.1649 25.3715L51.2225 26.1306L48.1594 26.2014L49.0643 24.7457L49.5838 24.9912Z" fill="url(#paint2_linear_137_2866)"/>
<path d="M45.3996 30.9627C45.1761 30.2226 45.0194 29.4639 44.9316 28.6957C44.7949 27.4593 44.8228 25.7616 45.7404 24.661C45.805 24.639 45.8728 24.6281 45.9411 24.6289C46.383 24.6289 47.4094 24.9056 49.3458 26.7863L45.3996 30.9627Z" fill="#36B775"/>
<path d="M45.9344 24.7748C46.2717 24.7705 47.234 24.9679 49.1392 26.7938L45.4621 30.6818C45.1399 29.5255 44.4644 26.4505 45.8146 24.7781C45.8374 24.7798 45.8762 24.7739 45.9344 24.7748ZM45.9344 24.4922C45.8344 24.4859 45.7345 24.5054 45.6443 24.5487C43.7711 26.7516 45.3331 31.235 45.3331 31.235L49.5373 26.7913C47.4997 24.7832 46.4058 24.4889 45.9361 24.4863L45.9344 24.4922Z" fill="#063629"/>
<path d="M45.4031 31.0129C45.1735 30.2572 45.0121 29.4824 44.9206 28.6979C44.784 27.4767 44.811 25.8085 45.694 24.707C46.0702 24.8286 46.4191 25.0222 46.7212 25.2772C47.3116 25.7419 48.1971 26.6729 49.065 28.4769L45.4031 31.0129Z" fill="#C2FF89"/>
<path d="M45.7483 24.8693C46.0813 24.9966 46.3912 25.1775 46.6659 25.4048C47.2293 25.8552 48.0625 26.7416 48.8941 28.4241L45.4852 30.7754C45.2875 30.0853 45.1464 29.3801 45.0635 28.667C44.9723 27.9654 44.9768 27.2547 45.077 26.5543C45.1641 25.9474 45.3942 25.3698 45.7483 24.8693ZM45.6404 24.5547C43.7672 26.7576 45.3292 31.241 45.3292 31.241L49.2449 28.5253C47.4941 24.8111 45.6404 24.5547 45.6404 24.5547Z" fill="#063629"/>
<path opacity="0.15" fill-rule="evenodd" clip-rule="evenodd" d="M45.6875 24.8203C46.8009 25.5441 47.6049 26.6565 47.9427 27.9408L48.6528 27.5461C48.6528 27.5461 46.8851 24.6205 45.6875 24.8203Z" fill="black"/>
<path d="M45.7247 24.7999C46.0747 24.9263 46.4 25.1127 46.6862 25.3506C47.2605 25.806 48.1199 26.7135 48.9633 28.4525L45.4439 30.8907C45.2333 30.1737 45.0835 29.4402 44.996 28.698C44.9079 27.9887 44.9147 27.2708 45.0163 26.5634C45.0988 25.9249 45.3426 25.318 45.7247 24.7999ZM45.6404 24.5469C43.7672 26.7498 45.3292 31.2331 45.3292 31.2331L49.2449 28.5175C47.4907 24.8066 45.637 24.5536 45.637 24.5536L45.6404 24.5469Z" fill="#063629"/>
<path d="M54.3711 26.7582C56.2788 24.8438 57.2959 24.5528 57.7395 24.5494C57.8082 24.5462 57.8769 24.5559 57.9419 24.5781C58.8696 25.6661 58.9253 27.3612 58.8064 28.6018C58.7295 29.3709 58.583 30.1313 58.3687 30.8739L54.3711 26.7582Z" fill="#36B775"/>
<path d="M57.7438 24.6925C57.7856 24.6909 57.8274 24.6958 57.8678 24.7068C58.2678 25.22 58.5279 25.8282 58.6226 26.472C58.7326 27.1695 58.7491 27.8785 58.6715 28.5804C58.6026 29.2639 58.4791 29.9408 58.3021 30.6045L54.5727 26.7629C56.4458 24.9041 57.409 24.695 57.7438 24.6925ZM57.7438 24.4116C57.2707 24.4116 56.176 24.7228 54.1797 26.7587L58.4429 31.1502C58.4429 31.1502 59.9416 26.6406 58.0381 24.4681C57.9482 24.4194 57.8454 24.3996 57.7438 24.4116Z" fill="#063629"/>
<path d="M58.0324 24.459C58.0324 24.459 56.1855 24.7474 54.4844 28.4844L58.4373 31.1461C58.4373 31.1461 59.9368 26.6357 58.0324 24.459Z" fill="#C2FF89"/>
<path opacity="0.15" fill-rule="evenodd" clip-rule="evenodd" d="M57.9948 24.7353C56.8935 25.472 56.1073 26.5937 55.7902 27.8802L55.0742 27.4939C55.0742 27.4939 56.7964 24.5464 57.9948 24.7353Z" fill="black"/>
<path d="M57.9343 24.7854C58.296 25.2797 58.5322 25.8545 58.6225 26.4603C58.7323 27.1579 58.7484 27.8669 58.6706 28.5687C58.5988 29.283 58.4674 29.99 58.2776 30.6822L54.8459 28.3756C55.653 26.683 56.4702 25.778 57.0327 25.3226C57.3024 25.0962 57.6068 24.9148 57.9343 24.7854ZM58.0364 24.459C58.0364 24.459 56.1894 24.7474 54.4883 28.4844L58.4412 31.1461C58.4412 31.1461 59.939 26.6357 58.0347 24.459H58.0364Z" fill="#063629"/>
<path d="M58.1669 29.0743C56.196 26.2465 52.5526 26.2963 51.8568 26.3359C51.1577 26.3097 47.5185 26.3106 45.5846 29.1612C45.5846 29.1612 43.0731 32.8822 43.3818 36.3779C43.3818 36.3779 43.445 37.5907 45.308 38.9688C45.308 38.9688 48.8738 41.9046 51.9707 41.7038C55.0642 41.8624 58.5903 38.876 58.5903 38.876C60.4306 37.4735 60.4812 36.2616 60.4812 36.2616C60.7283 32.7607 58.1669 29.0743 58.1669 29.0743Z" fill="#36B775"/>
<path d="M60.296 34.8024C60.2879 34.5063 60.2408 34.2125 60.156 33.9287C59.5753 33.7072 58.9562 33.6043 58.3351 33.6259C58.3351 33.6259 56.2495 33.7583 54.437 34.6548C54.437 34.6548 54.3257 33.3341 51.8816 33.3678C49.4417 33.3585 49.3515 34.681 49.3515 34.681C47.5298 33.8157 45.4492 33.7111 45.4492 33.7111C44.8356 33.6986 44.2257 33.809 43.6554 34.0358C43.6267 34.3175 43.5221 34.8952 43.5221 34.8952C43.3534 36.0599 43.3585 37.1141 44.885 38.4964C44.885 38.4964 48.2846 41.6169 51.9305 41.6118L51.9263 41.6245C55.1311 41.7999 58.8934 38.4871 58.8934 38.4871C60.4005 37.1563 60.4992 36.3053 60.296 34.8024Z" fill="#C2FF89"/>
<path opacity="0.15" fill-rule="evenodd" clip-rule="evenodd" d="M60.3073 36.3213C60.1124 37.8613 57.7426 39.3819 57.7426 39.3819C53.9997 41.9373 52.0076 41.5966 52.0076 41.5966C47.6676 41.6961 44.0664 37.567 44.0664 37.567C48.0969 41.2609 51.9764 41.0602 51.9764 41.0602C54.2991 41.0889 57.4946 38.8464 57.4946 38.8464C57.4946 38.8464 59.5786 37.4008 59.6511 36.2665C59.6511 36.2665 59.996 32.4848 58.386 29.7109C58.386 29.7093 60.5653 32.6931 60.3073 36.3213Z" fill="black"/>
<path d="M52.1588 26.6149C53.0659 26.6099 53.9682 26.7465 54.8331 27.0197C56.1555 27.454 57.2022 28.2004 57.9258 29.2437C58.397 29.9526 58.8072 30.7003 59.152 31.4786C59.4827 32.207 59.7458 32.9641 59.9381 33.7405C60.1475 34.5583 60.228 35.4036 60.1767 36.2462C60.1383 36.4942 60.0569 36.7336 59.9364 36.9538C59.7272 37.3552 59.2912 37.976 58.404 38.6523C57.7707 39.1657 57.0981 39.6288 56.3925 40.0372C55.3206 40.6613 53.7308 41.4127 52.2305 41.4228H51.9775L51.9598 41.4178L51.9471 41.4135C51.8628 41.4195 51.7784 41.4203 51.6941 41.4203C50.1929 41.4363 48.5964 40.706 47.5143 40.092C46.8043 39.6916 46.1254 39.2383 45.4835 38.7358C44.5895 38.0763 44.1417 37.4623 43.9275 37.0601C43.7979 36.8441 43.712 36.6049 43.6745 36.3558V36.3466C43.6131 35.5053 43.6819 34.6595 43.8786 33.8392C44.0605 33.0599 44.3146 32.2993 44.6376 31.5672C44.9693 30.7812 45.3685 30.0255 45.831 29.3086C46.5411 28.2586 47.5692 27.4962 48.8932 27.0433C49.7542 26.7575 50.6546 26.6081 51.5617 26.6005C51.6932 26.6005 51.7928 26.6005 51.856 26.6005L51.8695 26.6048L51.883 26.609C51.9328 26.6149 52.0255 26.6149 52.1588 26.6149ZM52.1588 26.3281C52.0255 26.3281 51.9218 26.3349 51.8484 26.3357C51.7751 26.3366 51.6713 26.3357 51.5381 26.3357C50.4012 26.3408 47.3052 26.6107 45.5763 29.1686C45.5763 29.1686 43.0639 32.8896 43.3742 36.3862C43.3742 36.3862 43.4366 37.5981 45.3005 38.977C45.3005 38.977 48.6639 41.745 51.6882 41.7256L51.953 41.7172C52.0424 41.7231 52.1301 41.7214 52.2195 41.7214C55.2455 41.6969 58.5693 38.8851 58.5693 38.8851C60.4095 37.4826 60.4593 36.2707 60.4593 36.2707C60.7249 32.7715 58.1586 29.0851 58.1586 29.0851C56.3942 26.555 53.2889 26.3264 52.1588 26.334V26.3281Z" fill="#063629"/>
<path d="M52.0185 35.7676H51.7773L51.7883 37.2857H52.0287L52.0185 35.7676Z" fill="#063629"/>
<path d="M54.0434 37.1294C54.008 36.9464 53.8747 37.0122 53.8747 37.0122C53.5562 37.0884 53.2317 37.137 52.9049 37.1573C52.2403 37.1632 51.9653 36.6023 51.8928 36.4395V36.3906C51.8893 36.3987 51.8867 36.4072 51.8852 36.4159L51.8751 36.3915V36.4404C51.8034 36.6492 51.6698 36.8311 51.4919 36.962C51.3141 37.0928 51.1006 37.1662 50.8799 37.1724C50.5557 37.1557 50.2336 37.1116 49.9168 37.0409C49.9168 37.0409 49.7734 36.981 49.7481 37.1606C49.7481 37.1606 49.4496 38.6719 50.8976 39.1544L52.915 39.1383C54.3639 38.6357 54.0434 37.1294 54.0434 37.1294Z" fill="black"/>
<path d="M51.8623 36.8045L51.8935 36.8821L51.9179 36.802C52.0268 36.9628 52.174 37.0939 52.3463 37.1834C52.5186 37.273 52.7105 37.3181 52.9047 37.3147H52.914C53.2413 37.2936 53.5665 37.2465 53.8864 37.1739C53.9259 37.4234 53.9176 37.6781 53.8619 37.9245C53.8073 38.1706 53.6887 38.398 53.5181 38.5837C53.3475 38.7694 53.131 38.9068 52.8903 38.9821L51.9162 38.988L51.9027 38.9838L50.9287 38.988C50.6866 38.917 50.4678 38.783 50.2946 38.5997C50.1214 38.4164 49.9999 38.1904 49.9428 37.9447C49.8837 37.6993 49.8719 37.4448 49.9082 37.195C50.2275 37.2634 50.5519 37.306 50.878 37.3223H50.8873C51.08 37.3233 51.2699 37.2765 51.44 37.1862C51.6101 37.0958 51.7552 36.9647 51.8623 36.8045ZM51.8935 36.3828C51.8902 36.391 51.8876 36.3995 51.8859 36.4081L51.8749 36.3837V36.4326C51.8039 36.6418 51.6705 36.8242 51.4928 36.9553C51.315 37.0865 51.1014 37.1601 50.8806 37.1663C50.5564 37.1495 50.2342 37.1055 49.9175 37.0347C49.9027 37.0263 49.8863 37.0214 49.8694 37.0204C49.8247 37.0204 49.7715 37.0398 49.7479 37.1444C49.7479 37.1444 49.4502 38.6557 50.8983 39.1381L51.8985 39.1271L51.912 39.1314L52.9156 39.1221C54.3688 38.6211 54.0424 37.1115 54.0424 37.1115C54.023 37.0035 53.9631 36.9833 53.9209 36.9841C53.904 36.9839 53.8873 36.9877 53.872 36.9951C53.5542 37.07 53.2306 37.1183 52.9047 37.1393C52.2401 37.1393 51.966 36.5844 51.8926 36.4208L51.8935 36.3828Z" fill="#063629"/>
<path d="M51.8937 36.75L51.8203 36.89H51.9687L51.8937 36.75Z" fill="black"/>
<path d="M51.8915 40.4453C50.8795 40.4537 50.5877 39.7537 50.5767 39.7192C50.4173 39.3759 50.5632 38.9045 50.6046 38.783C50.7931 38.6441 51.0184 38.5637 51.2523 38.5519C51.3628 38.551 51.4721 38.5749 51.572 38.6219C51.672 38.6689 51.7602 38.7378 51.83 38.8235L51.9244 38.9517L52.0223 38.8201C52.0918 38.7356 52.1791 38.6672 52.2778 38.62C52.3766 38.5728 52.4846 38.5479 52.5941 38.5469C52.8281 38.5555 53.0545 38.6326 53.2452 38.7687C53.2958 38.8969 53.445 39.3548 53.2856 39.7057V39.7141C53.2764 39.7453 53.0006 40.4124 52.0526 40.4529C51.997 40.4453 51.9438 40.4453 51.8915 40.4453Z" fill="#E26767"/>
<path d="M51.2519 38.6623C51.3439 38.66 51.4351 38.6794 51.5182 38.719C51.6013 38.7586 51.6739 38.8172 51.7301 38.89L51.919 39.143L52.113 38.8959C52.1699 38.8243 52.2422 38.7665 52.3246 38.7266C52.4069 38.6868 52.4972 38.6659 52.5887 38.6657C52.7861 38.6741 52.9774 38.7372 53.1411 38.8479C53.2068 39.0309 53.292 39.4011 53.1714 39.6524V39.6626C53.1588 39.7039 52.91 40.2656 52.0944 40.3221L51.9258 40.3288H51.8937C50.9837 40.3339 50.713 39.725 50.6944 39.6811L50.6894 39.671C50.5705 39.418 50.6506 39.0444 50.7062 38.8656C50.8652 38.7476 51.0545 38.6771 51.2519 38.6623ZM51.2519 38.4203C50.9814 38.4346 50.7213 38.5291 50.5047 38.6918C50.5047 38.6918 50.2517 39.3058 50.4634 39.757C50.4634 39.757 50.7796 40.5641 51.8903 40.5557H51.9747C53.0862 40.5473 53.3958 39.7359 53.3958 39.7359C53.5982 39.2763 53.3384 38.6708 53.3384 38.6708C53.1174 38.5095 52.8528 38.4187 52.5794 38.4102C52.4518 38.4119 52.3261 38.4414 52.2111 38.4966C52.096 38.5518 51.9943 38.6314 51.9131 38.7298C51.8323 38.6325 51.731 38.5544 51.6163 38.501C51.5017 38.4477 51.3767 38.4204 51.2502 38.4211L51.2519 38.4203Z" fill="#892D30"/>
<path d="M52.0529 38.8359H51.8125L51.8201 40.0943H52.0621L52.0529 38.8359Z" fill="#892D30"/>
<path d="M52.7147 39.0567C52.3537 38.9058 52.137 39.3856 52.137 39.3856C52.087 39.4926 52.021 39.5913 51.9413 39.6783C51.86 39.5943 51.7946 39.4963 51.7482 39.389C51.7482 39.389 51.528 38.9117 51.1705 39.0668C51.1705 39.0668 50.8567 39.1782 51.0617 39.6994C51.14 39.8678 51.2649 40.0103 51.4217 40.1099C51.5786 40.2096 51.7606 40.2621 51.9464 40.2614C52.1322 40.2607 52.3139 40.2067 52.4699 40.1059C52.626 40.0051 52.7498 39.8617 52.8268 39.6926C53.0284 39.163 52.7147 39.0567 52.7147 39.0567Z" fill="#FDA8AC"/>
<path d="M51.939 34.0411C51.1268 34.0461 50.4749 34.3219 50.4766 34.6584C50.4766 35.2488 51.524 35.9328 51.9027 35.9302C52.2814 35.9277 53.4208 35.2311 53.4081 34.6382C53.4174 34.3034 52.7495 34.0368 51.939 34.0411Z" fill="#000709"/>
<path d="M51.9331 34.8989C52.5547 34.8947 53.0582 34.7218 53.0557 34.5118C53.0531 34.3018 52.5496 34.1357 51.9272 34.1407C51.3048 34.1458 50.8022 34.3178 50.8047 34.5278C50.8072 34.7378 51.3031 34.9023 51.9331 34.8989Z" fill="#808080"/>
<path d="M47.9609 28.6378C47.9609 28.6378 48.9283 28.3536 49.6055 28.9018C49.5979 28.8992 48.9941 27.9294 47.9609 28.6378Z" fill="#023322"/>
<path d="M54.0938 28.8712C54.7642 28.3128 55.7375 28.576 55.7375 28.576C54.6909 27.8844 54.0938 28.8712 54.0938 28.8712Z" fill="#023322"/>
<path d="M49.6334 32.0691C49.56 30.6826 48.6382 30.3149 48.6382 30.3149C47.519 29.964 46.8224 31.0326 46.8224 31.0326C46.6172 31.3112 46.4835 31.6358 46.4329 31.9781C46.3823 32.3204 46.4164 32.6699 46.5323 32.9959C48.3877 32.8745 49.3551 33.2979 49.3551 33.2979C49.7025 32.9158 49.6334 32.0691 49.6334 32.0691Z" fill="#24A462"/>
<path d="M49.3192 32.0077C49.1506 30.7755 48.3569 30.6583 48.3569 30.6583C47.4335 30.5014 46.9848 31.4426 46.9848 31.4426C46.8827 31.6508 46.8279 31.879 46.8244 32.1108C46.8209 32.3427 46.8688 32.5724 46.9645 32.7836C48.4286 32.6697 49.2096 33.0939 49.2096 33.0939C49.4331 32.7954 49.3192 32.0077 49.3192 32.0077Z" fill="black"/>
<path d="M47.314 31.934C47.3983 31.8741 47.4396 31.7788 47.3983 31.7197C47.357 31.6607 47.2549 31.6615 47.1681 31.7197C47.0812 31.7779 47.0407 31.8758 47.0837 31.934C47.1267 31.9922 47.2254 31.9938 47.314 31.934Z" fill="white"/>
<path d="M48.4364 31.2395C48.4293 31.2191 48.4184 31.2002 48.404 31.184C48.3897 31.1679 48.3723 31.1547 48.3529 31.1453C48.3334 31.1359 48.3123 31.1304 48.2907 31.1292C48.2692 31.128 48.2476 31.1311 48.2272 31.1383H48.2188C48.1575 31.1595 48.093 31.1701 48.0282 31.1695C48.0679 31.1595 48.1021 31.1342 48.1233 31.0992C48.1444 31.0641 48.1509 31.0221 48.1412 30.9823C48.1376 30.9681 48.1322 30.9545 48.1251 30.9418C48.0113 30.7883 47.8097 30.9131 47.8097 30.9131C47.5272 31.0919 47.5685 31.4765 47.5685 31.4765C47.7584 31.5319 47.9577 31.5474 48.1538 31.522C48.5021 31.4706 48.4364 31.2395 48.4364 31.2395Z" fill="white"/>
<path d="M56.9272 30.9587C56.9272 30.9587 56.2204 29.8978 55.1072 30.2646C55.1072 30.2646 54.1947 30.6458 54.1365 32.0357C54.1365 32.0357 54.0783 32.885 54.4266 33.2611C54.4266 33.2611 55.3745 32.8226 57.2426 32.9238C57.352 32.595 57.3804 32.2447 57.3255 31.9026C57.2705 31.5606 57.1339 31.2368 56.9272 30.9587Z" fill="#24A462"/>
<path d="M56.7682 31.3688C56.7682 31.3688 56.3136 30.4284 55.3884 30.5988C55.3884 30.5988 54.6024 30.7278 54.4497 31.9667C54.4497 31.9667 54.346 32.762 54.5703 33.0513C54.5703 33.0513 55.3437 32.6161 56.8095 32.7139C56.9045 32.5011 56.9501 32.2696 56.943 32.0366C56.9358 31.8037 56.8761 31.5753 56.7682 31.3688Z" fill="black"/>
<path d="M54.981 31.6567C54.9313 31.6027 54.8334 31.6103 54.7457 31.6786C54.658 31.7469 54.6327 31.8363 54.6791 31.8911C54.7255 31.9459 54.8267 31.9375 54.9161 31.87C55.0055 31.8026 55.0257 31.7098 54.981 31.6567Z" fill="white"/>
<path d="M56.0131 31.1853C56.0075 31.1657 55.9982 31.1475 55.9856 31.1315C55.9729 31.1155 55.9573 31.1022 55.9395 31.0924C55.9217 31.0825 55.9021 31.0762 55.8819 31.0739C55.8617 31.0717 55.8412 31.0734 55.8216 31.0791C55.8128 31.081 55.8043 31.0841 55.7963 31.0883C55.7351 31.1098 55.6706 31.1201 55.6057 31.1187C55.6254 31.1138 55.6438 31.105 55.6601 31.0929C55.6763 31.0808 55.69 31.0657 55.7004 31.0483C55.7107 31.0309 55.7175 31.0116 55.7204 30.9915C55.7232 30.9715 55.7221 30.9511 55.7171 30.9315C55.7139 30.9172 55.7085 30.9036 55.701 30.891C55.5872 30.7375 55.3856 30.8623 55.3856 30.8623C55.1014 31.0403 55.1427 31.4265 55.1427 31.4265C55.3343 31.4821 55.5354 31.497 55.7331 31.4704C56.0789 31.4223 56.0131 31.1853 56.0131 31.1853Z" fill="white"/>
<path d="M62.6832 64.2379C58.4444 68.4767 51.9336 68.8377 51.9336 68.8377C51.9336 68.8377 52.2946 62.326 56.5325 58.088C60.7705 53.8501 67.2822 53.4883 67.2822 53.4883C67.2822 53.4883 66.9212 60 62.6832 64.2379Z" fill="#2DB66F"/>
<path d="M41.2044 64.2379C45.4432 68.4767 51.954 68.8377 51.954 68.8377C51.954 68.8377 51.5939 62.326 47.3551 58.088C43.1163 53.8501 36.6055 53.4883 36.6055 53.4883C36.6055 53.4883 36.9639 60 41.2044 64.2379Z" fill="#2DB66F"/>
<path d="M26.8886 43.7185C28.4839 43.7185 29.7771 42.4253 29.7771 40.83C29.7771 39.2347 28.4839 37.9414 26.8886 37.9414C25.2932 37.9414 24 39.2347 24 40.83C24 42.4253 25.2932 43.7185 26.8886 43.7185Z" fill="#78F177"/>
<path d="M29.717 61.5317C30.7818 61.5317 31.645 60.6685 31.645 59.6037C31.645 58.539 30.7818 57.6758 29.717 57.6758C28.6522 57.6758 27.7891 58.539 27.7891 59.6037C27.7891 60.6685 28.6522 61.5317 29.717 61.5317Z" fill="#78F177"/>
<path d="M66.8859 44.4475C67.4182 44.4475 67.8498 44.0159 67.8498 43.4835C67.8498 42.9511 67.4182 42.5195 66.8859 42.5195C66.3535 42.5195 65.9219 42.9511 65.9219 43.4835C65.9219 44.0159 66.3535 44.4475 66.8859 44.4475Z" fill="#78F177"/>
<path d="M74.3342 35.3696C75.399 35.3696 76.2622 34.5064 76.2622 33.4416C76.2622 32.3768 75.399 31.5137 74.3342 31.5137C73.2694 31.5137 72.4062 32.3768 72.4062 33.4416C72.4062 34.5064 73.2694 35.3696 74.3342 35.3696Z" fill="#78F177"/>
<path d="M72.4084 51.8657C73.4732 51.8657 74.3364 51.0025 74.3364 49.9377C74.3364 48.8729 73.4732 48.0098 72.4084 48.0098C71.3436 48.0098 70.4805 48.8729 70.4805 49.9377C70.4805 51.0025 71.3436 51.8657 72.4084 51.8657Z" fill="#78F177"/>
<defs>
<linearGradient id="paint0_linear_137_2866" x1="51.5799" y1="45.1037" x2="54.4467" y2="25.5594" gradientUnits="userSpaceOnUse">
<stop stop-color="#34B675"/>
<stop offset="1" stop-color="#77C741"/>
</linearGradient>
<linearGradient id="paint1_linear_137_2866" x1="44.4179" y1="41.4615" x2="47.4322" y2="20.9185" gradientUnits="userSpaceOnUse">
<stop stop-color="#39B771"/>
<stop offset="1" stop-color="#77C741"/>
</linearGradient>
<linearGradient id="paint2_linear_137_2866" x1="52.6233" y1="30.2827" x2="53.6853" y2="23.0444" gradientUnits="userSpaceOnUse">
<stop stop-color="#67C34C"/>
<stop offset="1" stop-color="#7CC82D"/>
</linearGradient>
</defs>
</svg>
