<svg width="100" height="100" viewBox="0 0 100 100" fill="none" xmlns="http://www.w3.org/2000/svg">
<path d="M51.9898 80.6003C46.7609 81.3475 36.7155 82.1259 29.5502 73.4797C22.3849 64.8334 24.7455 50.8165 24.7455 50.8165C26.3824 53.5322 28.463 55.2147 31.0851 55.6381C27.5961 40.26 37.4821 31.6374 51.709 24.4746C51.709 24.4746 44.6651 41.8608 52.2647 44.5039C58.6027 46.7085 59.7876 38.5724 59.7876 38.5724C59.7876 38.5724 65.3994 41.2021 66.1888 48.6845C66.8635 55.0579 64.2971 58.8286 64.2971 58.8286C66.9774 58.6059 69.2469 57.3308 71.3908 55.2982C71.8293 70.9647 59.7041 79.498 51.9898 80.6003Z" fill="#FFCE00"/>
<path d="M41.0563 43.8945C41.0563 43.8945 41.6593 49.8066 36.0155 56.4515C30.3716 63.0965 31.2083 80.5459 45.8467 81.0283C62.5058 81.5765 62.2326 60.0932 55.1322 53.3563C54.2045 55.6334 52.4402 57.1684 50.1032 58.2066C51.0714 51.215 47.6136 46.6903 41.0563 43.8945Z" fill="#FFAA00"/>
<path d="M53.6455 64.1857C49.3763 69.24 42.033 64.9844 45.3846 57.0566C32.2457 64.4606 39.734 78.7507 47.6406 79.126H47.7182C48.172 78.9827 48.6147 78.8165 49.0457 78.6512C54.1877 76.0587 58.5227 69.0966 53.6455 64.1857Z" fill="#FF5500"/>
<path d="M24.3719 45.5504C26.2406 45.5504 27.7555 44.0355 27.7555 42.1668C27.7555 40.2981 26.2406 38.7832 24.3719 38.7832C22.5032 38.7832 20.9883 40.2981 20.9883 42.1668C20.9883 44.0355 22.5032 45.5504 24.3719 45.5504Z" fill="#FFAA00"/>
<path d="M76.2011 56.9724C77.7964 56.9724 79.0896 55.6792 79.0896 54.0839C79.0896 52.4886 77.7964 51.1953 76.2011 51.1953C74.6057 51.1953 73.3125 52.4886 73.3125 54.0839C73.3125 55.6792 74.6057 56.9724 76.2011 56.9724Z" fill="#FFAA00"/>
<path d="M57.9998 34.8258C58.9533 34.8258 59.7262 34.0529 59.7262 33.0994C59.7262 32.146 58.9533 31.373 57.9998 31.373C57.0464 31.373 56.2734 32.146 56.2734 33.0994C56.2734 34.0529 57.0464 34.8258 57.9998 34.8258Z" fill="#FFAA00"/>
<path d="M57.5018 22.4176C58.4552 22.4176 59.2282 21.6447 59.2282 20.6912C59.2282 19.7378 58.4552 18.9648 57.5018 18.9648C56.5483 18.9648 55.7754 19.7378 55.7754 20.6912C55.7754 21.6447 56.5483 22.4176 57.5018 22.4176Z" fill="#FFAA00"/>
</svg>
