<svg width="100" height="100" viewBox="0 0 100 100" fill="none" xmlns="http://www.w3.org/2000/svg">
<path d="M43.0566 48.218C43.0566 48.218 46.6772 47.4421 48.617 42.5286C50.5568 37.6151 51.2028 36.8071 53.1425 35.1423C55.0823 33.4775 57.927 26.4159 57.2801 22.7447C56.6333 19.0735 65.5562 21.3219 64.7803 28.3042C64.0044 35.2865 60.3837 39.0075 60.3837 40.1216C60.3837 41.2357 72.4162 40.4969 74.4782 41.8817C78.5871 44.6404 74.4782 49.3818 74.4782 49.3818C76.5757 50.5625 77.3086 55.148 74.4495 56.3641C76.0747 58.8622 75.3688 61.3493 73.2427 63.203C73.2427 63.203 73.4999 67.9765 70.3119 69.2947C64.335 71.7658 43.0566 67.1677 43.0566 67.1677V48.218Z" fill="#EAB88B"/>
<path d="M40.7337 40.3848H28.9003C27.5509 40.3848 26.457 41.4786 26.457 42.828V69.2096C26.457 70.559 27.5509 71.6528 28.9003 71.6528H40.7337C42.083 71.6528 43.1769 70.559 43.1769 69.2096V42.828C43.1769 41.4786 42.083 40.3848 40.7337 40.3848Z" fill="#699FF0"/>
<path d="M28.8924 35.4523C28.9523 34.1313 27.9301 33.0118 26.6091 32.9518C25.2881 32.8918 24.1686 33.9141 24.1086 35.2351C24.0486 36.5561 25.0709 37.6756 26.3919 37.7356C27.7129 37.7956 28.8324 36.7733 28.8924 35.4523Z" fill="#2A4773"/>
<path d="M46.7736 77.8083C46.8154 76.8875 46.1029 76.1071 45.182 76.0653C44.2612 76.0235 43.4808 76.7361 43.439 77.6569C43.3972 78.5777 44.1098 79.3581 45.0306 79.3999C45.9514 79.4417 46.7318 78.7292 46.7736 77.8083Z" fill="#2A4773"/>
<path d="M34.8745 27.6332C34.9056 27.0114 34.4267 26.4821 33.8049 26.451C33.1831 26.4199 32.6538 26.8988 32.6227 27.5206C32.5916 28.1424 33.0705 28.6717 33.6923 28.7028C34.3141 28.7339 34.8434 28.255 34.8745 27.6332Z" fill="#2A4773"/>
</svg>
