<svg width="100" height="100" viewBox="0 0 100 100" fill="none" xmlns="http://www.w3.org/2000/svg">
<path d="M68.9141 80.1855C68.915 81.3839 68.4648 82.5387 67.6531 83.4203C66.8414 84.3019 65.7276 84.8458 64.5333 84.9438C63.3389 85.0418 62.1514 84.6867 61.2069 83.9491C60.2623 83.2116 59.63 82.1456 59.4355 80.9631C58.2567 81.2334 57.0194 81.0488 55.9709 80.4461C55.7183 80.9961 55.3205 81.4667 54.8203 81.8075C54.3201 82.1482 53.7365 82.3461 53.1322 82.3798C52.528 82.4136 51.926 82.2819 51.391 81.999C50.8559 81.7161 50.4082 81.2926 50.096 80.7742C49.719 81.0061 49.2781 81.1126 48.8368 81.0782C48.3956 81.0438 47.9765 80.8703 47.6401 80.5827C47.583 81.0635 47.3606 81.5096 47.0109 81.8445C46.6613 82.1795 46.2061 82.3825 45.7233 82.4188C45.2404 82.4552 44.76 82.3227 44.3641 82.0439C43.9682 81.7651 43.6815 81.3574 43.5531 80.8906C43.1143 81.4111 42.5031 81.7566 41.8308 81.8639C41.1585 81.9712 40.4701 81.8332 39.8911 81.475C39.8123 82.0442 39.5626 82.576 39.1752 83.0003C38.7877 83.4245 38.2806 83.7213 37.721 83.8513C37.1613 83.9813 36.5754 83.9385 36.0405 83.7285C35.5057 83.5185 35.0472 83.1512 34.7255 82.6751C34.2911 83.3853 33.6786 83.9695 32.9486 84.3697C32.2186 84.7699 31.3967 84.9722 30.5644 84.9565C29.732 84.9407 28.9183 84.7075 28.204 84.28C27.4897 83.8524 26.8997 83.2455 26.4925 82.5194C26.0854 81.7933 25.8752 80.9733 25.883 80.1408C25.8908 79.3084 26.1162 78.4925 26.5369 77.7741C26.9576 77.0558 27.5589 76.46 28.2811 76.0459C29.0033 75.6318 29.8212 75.4139 30.6537 75.4137C30.9804 75.4134 31.3063 75.447 31.6261 75.5141C31.7691 74.6736 32.1346 73.8867 32.6846 73.2353C33.2347 72.5839 33.9492 72.0917 34.7538 71.81C35.5585 71.5282 36.4239 71.4671 37.2602 71.6331C38.0965 71.799 38.873 72.186 39.5091 72.7537L44.221 55.8398H50.5623L55.2557 72.6879C55.8982 72.138 56.6754 71.7687 57.5075 71.6178C58.3397 71.467 59.197 71.54 59.9917 71.8294C60.7863 72.1188 61.4898 72.6143 62.03 73.265C62.5703 73.9157 62.9279 74.6983 63.0662 75.5326C63.7658 75.3712 64.4928 75.3696 65.1932 75.528C65.8935 75.6864 66.549 76.0007 67.1111 76.4476C67.6731 76.8944 68.1271 77.4623 68.4393 78.1089C68.7514 78.7554 68.9138 79.4641 68.9141 80.1821V80.1855Z" fill="#FFD430"/>
<path d="M38.0367 44.2988C34.6514 47.5205 33.4529 52.1262 35.1431 58.5611C37.3148 54.5973 39.7875 51.8555 42.7942 51.2685" fill="#A00108"/>
<path d="M57.2653 44.2988C60.6506 47.5205 61.8499 52.1262 60.1589 58.5611C57.9872 54.5973 55.5144 51.8555 52.5078 51.2685" fill="#A00108"/>
<path d="M55.393 42.0191C55.393 54.3644 51.9807 55.449 51.9807 55.449C50.811 56.0782 49.33 56.3346 47.6551 56.359C45.9801 56.3346 44.4983 56.0782 43.3294 55.449C43.3294 55.449 39.918 54.3644 39.918 42.0191C39.918 31.4483 47.6517 26.4707 47.6517 26.4707C47.6517 26.4707 55.393 31.4483 55.393 42.0191Z" fill="#2A4773"/>
<path d="M58.1438 36.5941C58.1438 50.4414 52.9031 52.1704 52.9031 52.1704C51.4837 53.0036 49.6873 53.3426 47.6539 53.3755C45.6214 53.3426 43.8225 53.0036 42.4056 52.1704C42.4056 52.1704 37.1641 50.4431 37.1641 36.5958C37.1641 31.5195 39.5162 26.1438 41.9932 21.8907C43.2336 19.7713 44.6016 17.7291 46.0895 15.7754C46.2728 15.5344 46.5094 15.339 46.7807 15.2045C47.052 15.07 47.3507 15 47.6535 15C47.9563 15 48.2551 15.07 48.5264 15.2045C48.7977 15.339 49.0342 15.5344 49.2176 15.7754C50.7057 17.7298 52.0736 19.7728 53.3138 21.8932C55.7925 26.1422 58.1438 31.5178 58.1438 36.5941Z" fill="#FF4D43"/>
<path d="M53.3147 21.8935C53.1852 21.9759 53.0476 22.0449 52.904 22.0993C51.4846 22.9326 49.6882 23.2707 47.6549 23.3036C45.6223 23.2707 43.8234 22.9326 42.4065 22.0993C42.2625 22.0444 42.1244 21.9751 41.9941 21.8927C43.2346 19.7732 44.6025 17.731 46.0904 15.7774C46.2737 15.5363 46.5103 15.341 46.7816 15.2064C47.0529 15.0719 47.3516 15.002 47.6544 15.002C47.9573 15.002 48.256 15.0719 48.5273 15.2064C48.7986 15.341 49.0352 15.5363 49.2185 15.7774C50.7066 17.7312 52.0745 19.7737 53.3147 21.8935Z" fill="#2A4773"/>
<path d="M47.6538 40.1182C50.9306 40.1182 53.587 37.4619 53.587 34.1851C53.587 30.9083 50.9306 28.252 47.6538 28.252C44.3771 28.252 41.7207 30.9083 41.7207 34.1851C41.7207 37.4619 44.3771 40.1182 47.6538 40.1182Z" fill="white"/>
<path d="M47.6538 38.6651C50.1281 38.6651 52.1338 36.6593 52.1338 34.1851C52.1338 31.7108 50.1281 29.7051 47.6538 29.7051C45.1796 29.7051 43.1738 31.7108 43.1738 34.1851C43.1738 36.6593 45.1796 38.6651 47.6538 38.6651Z" fill="#699FF0"/>
<path d="M50.7722 50.6882C50.7722 54.1039 47.6517 58.5611 47.6517 58.5611C47.6517 58.5611 44.5312 54.1039 44.5312 50.6882C44.5312 47.2726 47.6517 44.2988 47.6517 44.2988C47.6517 44.2988 50.7722 47.2692 50.7722 50.6882Z" fill="#A00108"/>
<path d="M71.7049 65.6808C71.8259 63.0155 69.7634 60.7568 67.0981 60.6358C64.4329 60.5147 62.1742 62.5772 62.0531 65.2425C61.9321 67.9077 63.9946 70.1665 66.6599 70.2875C69.3251 70.4085 71.5838 68.346 71.7049 65.6808Z" fill="#FFD430"/>
<path d="M81.9627 58.673C82.0227 57.352 81.0004 56.2325 79.6794 56.1725C78.3584 56.1125 77.2389 57.1348 77.1789 58.4558C77.1189 59.7768 78.1412 60.8963 79.4622 60.9563C80.7832 61.0163 81.9027 59.994 81.9627 58.673Z" fill="#FFD430"/>
<path d="M22.8924 73.1144C22.9523 71.7934 21.9301 70.6739 20.6091 70.6139C19.2881 70.5539 18.1686 71.5762 18.1086 72.8972C18.0486 74.2182 19.0709 75.3377 20.3919 75.3977C21.7129 75.4577 22.8324 74.4354 22.8924 73.1144Z" fill="#FFD430"/>
<path d="M72.1533 52.2305C73.1096 52.2305 73.8848 51.4553 73.8848 50.499C73.8848 49.5428 73.1096 48.7676 72.1533 48.7676C71.1971 48.7676 70.4219 49.5428 70.4219 50.499C70.4219 51.4553 71.1971 52.2305 72.1533 52.2305Z" fill="#FFD430"/>
</svg>
