<svg width="180" height="180" viewBox="0 0 180 180" fill="none" xmlns="http://www.w3.org/2000/svg">
<rect width="180" height="180" fill="white"/>
<path d="M154.447 44.5466C154.447 44.5466 159.769 61.7915 141.369 79.7307C137.111 83.8956 132.027 88.7545 126.835 94.1123C126.835 94.1123 104.96 109.947 103.309 146.455C103.309 146.455 92.2728 152.485 75.8712 154.611C75.8712 154.611 93.9237 157.539 120.297 143.201C120.297 143.201 142.672 131.639 150.189 110.576L139.088 113.83L159.986 88.3857L165.395 106L157.879 108.451C157.879 108.451 145.453 164.047 85.0387 164.893C85.0387 164.893 43.1986 167.322 16.9126 135.956C32.0759 157.453 60.2735 170.424 85.0387 170.424C132.223 170.424 170.457 132.485 170.457 89.0365C170.435 77.5616 166.72 59.2971 154.447 44.5466Z" fill="url(#paint0_linear_99_2)"/>
<path d="M55.734 122.613C55.3647 117.494 54.9519 111.442 54.3003 105.021C54.3003 105.021 56.0165 81.7892 32.7719 60.3794C32.7719 60.3794 34.9225 49.7505 42.6563 37.7549C42.6563 37.7549 30.6646 48.0151 25.4726 73.3945C25.4726 73.3945 20.9975 95.4116 30.7081 112.071L36.6821 101.312L39.5715 129.75L25.6246 122.179L27.7103 118.318C27.7103 118.318 -2.31221 78.3619 30.795 38.0803C30.795 38.0803 52.4972 9.14334 87.8419 9.27348C65.2057 7.29953 40.9184 18.666 27.1455 35C0.881192 66.0843 4.66115 112.396 33.4018 136.583C41.0269 143.004 55.1474 150.704 71.7446 150.834C71.7228 150.834 57.3633 144.717 55.734 122.613Z" fill="url(#paint1_linear_99_2)"/>
<path d="M72.4383 31.2241C72.4383 31.2241 97.2253 13.3284 127.313 33.762C127.313 33.762 135.785 38.7079 145.431 51.0504C144.562 49.7055 140.217 39.8358 129.898 31.6363C106.697 12.5258 74.3718 17.58 57.7748 34.2393C52.5393 39.3151 45.631 49.6838 44.5449 61.6143C44.5449 61.6143 50.28 51.6795 66.9204 51.8529C71.439 51.8965 74.589 51.6577 80.172 51.918C80.172 51.918 97.6163 54.9115 115.647 38.5126C115.647 38.5126 122.642 40.7034 131.18 47.0157C131.18 47.0157 124.206 37.7534 105.524 32.4389C105.524 32.4389 90.0129 27.5799 76.4355 33.8055L83.6913 39.1199L62.4888 39.4453L68.8323 29.4454L72.4383 31.2241Z" fill="url(#paint2_linear_99_2)"/>
<path d="M43.176 72.1814C42.3722 69.47 40.7646 63.4614 40.0477 56.5418C39.1571 48.0169 39.4394 36.325 45.8263 28.7979C46.0218 28.7328 46.478 28.6027 47.2384 28.6027C50.3014 28.6027 57.3835 30.5766 70.6784 43.6351L43.176 72.1814Z" fill="#35B975"/>
<path d="M47.2181 29.5765C49.5208 29.5765 56.1901 30.9865 69.2679 43.6545L43.6555 70.2704C41.483 62.2878 36.9644 41.095 46.371 29.6416C46.5447 29.62 46.827 29.5765 47.2181 29.5765ZM47.2181 27.6243C45.8277 27.6243 45.1979 28.0148 45.1979 28.0148C32.1418 43.0905 42.7212 74.0448 42.7212 74.0448L72.0051 43.6329C58.0584 29.7067 50.4984 27.6243 47.2181 27.6243Z" fill="#083629"/>
<path d="M43.263 72.5062C42.5027 69.9683 40.7865 63.7644 40.0262 56.5409C39.1354 48.1245 39.4179 36.628 45.5657 29.1009C46.6085 29.4045 49.237 30.359 52.6476 33.0704C56.7317 36.3026 62.7927 42.7666 68.7234 55.2178L43.263 72.5062Z" fill="#C4FF8B"/>
<path d="M45.9147 30.226C47.1313 30.6598 49.3905 31.6793 52.2147 33.9569C56.0815 37.0805 61.8166 43.2194 67.4865 54.8678L43.851 70.9199C43.0037 67.9264 41.6568 62.5251 41.0268 56.3862C40.462 50.985 40.5489 46.0827 41.2658 41.8311C42.0261 37.1674 43.612 33.2628 45.9147 30.226ZM45.1979 28.0135C32.1418 43.0892 42.7212 74.0435 42.7212 74.0435L69.9413 55.5404C57.9932 29.9224 45.1979 28.0135 45.1979 28.0135Z" fill="#083629"/>
<path opacity="0.15" fill-rule="evenodd" clip-rule="evenodd" d="M45.4795 29.8799C45.4795 29.8799 57.4277 36.9296 60.9253 51.4414L65.8565 48.7733C65.8565 48.7733 53.7781 28.5132 45.4795 29.8799Z" fill="black"/>
<path d="M45.7627 29.7271C46.9358 30.1176 49.347 31.1154 52.4102 33.5664C56.3638 36.7336 62.2511 43.0241 68.0296 55.0415L43.5685 71.6573C42.7429 68.8158 41.2658 63.1108 40.5707 56.5381C40.0057 51.0936 40.0709 46.1477 40.7878 41.8311C41.6351 36.907 43.2862 32.8507 45.7627 29.7271ZM45.1979 28.0135C32.1418 43.0892 42.7212 74.0435 42.7212 74.0435L69.9413 55.5404C57.9932 29.9224 45.1979 28.0135 45.1979 28.0135Z" fill="#083629"/>
<path d="M105.501 43.6314C118.775 30.5513 125.857 28.5774 128.92 28.5774C129.68 28.5774 130.136 28.7076 130.332 28.7726C136.719 36.2995 137.001 47.9915 136.11 56.5163C135.394 63.4361 133.786 69.4448 132.982 72.1562L105.501 43.6314Z" fill="#35B975"/>
<path d="M128.92 29.5765C129.311 29.5765 129.593 29.62 129.767 29.6634C132.33 32.787 134.047 36.865 134.894 41.8542C135.611 46.1057 135.698 51.0081 135.133 56.4093C134.546 62.1143 133.33 67.1901 132.482 70.292L106.87 43.6545C119.948 30.9648 126.617 29.5765 128.92 29.5765ZM128.92 27.6243C125.639 27.6243 118.08 29.7067 104.133 43.6329L133.417 74.0664C133.417 74.0664 143.996 43.0905 130.94 28.0148C130.94 27.9931 130.332 27.6243 128.92 27.6243Z" fill="#083629"/>
<path d="M130.941 27.9916C130.941 27.9916 118.146 29.9005 106.198 55.5403L133.418 74.0434C133.418 74.0434 143.997 43.0675 130.941 27.9916Z" fill="#C4FF8B"/>
<path opacity="0.15" fill-rule="evenodd" clip-rule="evenodd" d="M130.68 29.8799C130.68 29.8799 118.753 36.9296 115.255 51.4414L110.324 48.7733C110.303 48.7733 122.381 28.5132 130.68 29.8799Z" fill="black"/>
<path d="M130.225 30.2259C132.527 33.2627 134.113 37.1673 134.895 41.831C135.612 46.0826 135.699 50.9849 135.134 56.3863C134.504 62.5249 133.157 67.9263 132.31 70.9198L108.674 54.8461C114.344 43.1759 120.079 37.0371 123.946 33.9135C126.77 31.6792 129.008 30.6597 130.225 30.2259ZM130.941 27.9916C130.941 27.9916 118.146 29.9005 106.198 55.5403L133.418 74.0434C133.418 74.0434 143.997 43.0675 130.941 27.9916Z" fill="#083629"/>
<path d="M131.616 59.7693C118.104 40.2033 92.9256 40.377 88.0812 40.5938C83.2368 40.377 58.0587 40.2033 44.5465 59.7693C44.5465 59.7693 26.9718 85.2789 28.9704 109.379C28.9704 109.379 29.3614 117.752 42.1568 127.318C42.1568 127.318 66.6831 147.708 88.0812 146.493C109.479 147.708 134.005 127.318 134.005 127.318C146.801 117.752 147.192 109.379 147.192 109.379C149.19 85.2789 131.616 59.7693 131.616 59.7693Z" fill="#35B975"/>
<path d="M146.126 99.3135C146.126 99.3135 146.083 95.9731 145.192 93.2833C142.368 92.0685 138.327 91.1359 132.592 91.0924C132.592 91.0924 118.167 91.9166 105.589 97.9904C105.589 97.9904 104.872 88.8798 87.9711 89.0317C71.0916 88.8581 70.3748 97.9686 70.3748 97.9686C57.8184 91.9166 43.4155 91.0924 43.4155 91.0924C37.789 91.1359 33.8134 92.0252 30.9894 93.2182C30.7939 95.1704 30.0336 99.1183 30.0336 99.1183C28.817 107.144 28.817 114.346 39.2879 123.977C39.2879 123.977 62.6194 145.626 87.8625 145.756V145.864C110.021 147.209 136.22 124.606 136.22 124.606C146.734 115.539 147.451 109.704 146.126 99.3135Z" fill="#C4FF8B"/>
<path opacity="0.15" fill-rule="evenodd" clip-rule="evenodd" d="M146.127 109.789C144.693 120.375 128.226 130.743 128.226 130.743C102.201 148.205 88.4932 145.732 88.4932 145.732C58.4491 146.253 33.749 117.598 33.749 117.598C61.4252 143.26 88.276 142.023 88.276 142.023C104.33 142.327 126.554 127.034 126.554 127.034C126.554 127.034 141.065 117.164 141.586 109.377C141.586 109.377 144.15 83.3902 133.158 64.1929C133.158 64.1713 148.082 84.8219 146.127 109.789Z" fill="black"/>
<path d="M90.2097 42.5057C93.816 42.5057 101.007 42.8962 108.675 45.4341C117.843 48.4926 125.011 53.677 129.986 60.8787C130.03 60.9438 134.331 67.2126 138.35 76.3232C140.718 81.6595 142.499 86.9088 143.694 91.8979C145.149 98.1018 145.671 103.915 145.236 109.208V109.23V109.273C145.215 109.425 145.019 111.29 143.52 114.132C142.043 116.887 139.002 121.138 132.832 125.737L132.789 125.759L132.745 125.78C132.68 125.824 126.945 130.574 118.777 135.238C111.325 139.49 100.29 144.566 89.9274 144.566C89.3408 144.566 88.7543 144.544 88.1895 144.522H88.0808H87.9722C87.4074 144.544 86.8209 144.566 86.2343 144.566C75.872 144.566 64.8363 139.49 57.3851 135.238C49.2169 130.574 43.4817 125.824 43.4166 125.78L43.3731 125.759L43.3296 125.737C37.1601 121.138 34.1186 116.887 32.6415 114.132C31.1426 111.312 30.9253 109.468 30.9253 109.273V109.208C30.4908 103.937 31.0121 98.1234 32.4677 91.9413C33.6408 86.9523 35.4222 81.7245 37.7901 76.3882C41.809 67.2559 46.1321 60.9438 46.1754 60.8787C51.1503 53.677 58.2974 48.4926 67.4867 45.4341C75.1551 42.8744 82.3457 42.5057 85.9518 42.5057C86.8644 42.5057 87.5595 42.5273 87.994 42.549H88.0808H88.1677C88.6023 42.5273 89.2974 42.5057 90.2097 42.5057ZM90.2097 40.5533C89.2974 40.5533 88.5805 40.5751 88.0808 40.5968C87.5812 40.5751 86.8426 40.5533 85.9518 40.5533C78.1314 40.5533 56.6681 42.2454 44.568 59.7724C44.568 59.7724 26.9933 85.282 28.9919 109.382C28.9919 109.382 29.3829 117.755 42.1783 127.321C42.1783 127.321 65.3143 146.561 86.2561 146.561C86.8861 146.561 87.4942 146.54 88.1025 146.518C88.7108 146.561 89.3408 146.561 89.9491 146.561C110.869 146.561 134.027 127.321 134.027 127.321C146.822 117.755 147.213 109.382 147.213 109.382C149.212 85.282 131.637 59.7724 131.637 59.7724C119.515 42.2454 98.0304 40.5533 90.2097 40.5533Z" fill="#083629"/>
<path d="M88.7742 105.584H87.1016V116.039H88.7742V105.584Z" fill="#073629"/>
<path d="M102.721 115.041C102.482 113.783 101.526 114.217 101.526 114.217C98.9629 114.933 94.8353 115.171 94.8353 115.171C90.2299 115.171 88.3615 111.31 87.9055 110.161V109.835C87.9055 109.835 87.8837 109.9 87.8402 110.009C87.7967 109.9 87.775 109.835 87.775 109.835V110.161C87.3189 111.332 85.4723 115.171 80.8669 115.171C80.8669 115.171 76.761 114.933 74.1976 114.217C74.1976 114.217 73.2417 113.805 73.0027 115.041C73.0027 115.041 70.8521 125.453 80.8669 128.837H94.8136C104.872 125.453 102.721 115.041 102.721 115.041Z" fill="black"/>
<path d="M87.666 112.72L87.8615 113.263L88.057 112.72C89.2518 114.391 91.359 116.278 94.8348 116.278H94.8566H94.8783C95.0521 116.278 98.9623 116.039 101.613 115.345C101.678 115.757 102.025 117.991 101.417 120.508C100.57 124.022 98.2672 126.473 94.6393 127.753H87.9048H87.7963H81.0836C77.4556 126.473 75.1747 124.043 74.3274 120.508C73.7193 118.013 74.0451 115.757 74.1319 115.345C76.7823 116.039 80.6709 116.278 80.8446 116.278H80.8664H80.8881C84.3639 116.278 86.4711 114.391 87.666 112.72ZM87.9048 109.814C87.9048 109.814 87.8832 109.879 87.8397 109.987C87.7963 109.879 87.7745 109.814 87.7745 109.814V110.139C87.3184 111.31 85.4718 115.15 80.8664 115.15C80.8664 115.15 76.7605 114.911 74.1971 114.195C74.1971 114.195 74.0451 114.13 73.8495 114.13C73.5453 114.13 73.1543 114.282 73.0023 115.02C73.0023 115.02 70.8516 125.432 80.8664 128.816H87.7745H87.8832H94.8131C104.849 125.432 102.699 115.02 102.699 115.02C102.547 114.261 102.156 114.13 101.852 114.13C101.656 114.13 101.504 114.195 101.504 114.195C98.9407 114.911 94.8131 115.15 94.8131 115.15C90.2077 115.15 88.3393 111.289 87.8832 110.139V109.814H87.9048Z" fill="#073629"/>
<path d="M87.8631 112.352L87.3418 113.285H88.3627L87.8631 112.352Z" fill="black"/>
<path d="M87.6891 137.772C80.7158 137.772 78.7171 132.935 78.6303 132.718L78.6086 132.674C77.5223 130.288 78.5433 127.078 78.8474 126.21C80.4333 125.169 81.9539 124.648 83.3443 124.648C85.7557 124.648 87.0808 126.232 87.3198 126.557L87.9714 127.425L88.645 126.557C88.884 126.254 90.2308 124.692 92.5988 124.692C93.989 124.692 95.488 125.212 97.0955 126.254C97.4214 127.121 98.4423 130.31 97.3345 132.696V132.718V132.739C97.2477 132.935 95.336 137.533 88.7535 137.772C88.7535 137.772 87.7759 137.772 87.6891 137.772Z" fill="#E46767"/>
<path d="M83.3443 125.496C85.4081 125.496 86.5377 126.906 86.6463 127.08L87.9497 128.815L89.2967 127.102C89.4922 126.841 90.6218 125.54 92.5986 125.54C93.7501 125.54 95.0317 125.974 96.4004 126.82C96.8349 128.078 97.3779 130.616 96.5741 132.373L96.5524 132.395L96.5306 132.46C96.4221 132.72 94.7059 136.603 89.036 136.95L87.8629 136.971C87.7976 136.971 87.7326 136.971 87.6674 136.971C81.3891 136.971 79.4992 132.742 79.3906 132.46V132.438L79.3689 132.373C78.5651 130.594 79.1299 128.056 79.5426 126.798C80.933 125.93 82.1929 125.496 83.3443 125.496ZM83.3443 123.826C81.9322 123.826 80.216 124.303 78.174 125.67C78.174 125.67 76.4144 129.878 77.8481 133.024C77.8481 133.024 79.9987 138.598 87.6891 138.598C87.7542 138.598 87.8411 138.598 87.9281 138.598C88.0367 138.598 88.1452 138.598 88.2756 138.598C95.9658 138.598 98.1383 133.024 98.1383 133.024C99.5721 129.878 97.8125 125.692 97.8125 125.692C95.7703 124.325 94.0324 123.848 92.6203 123.848C89.8831 123.848 88.3407 125.627 87.9932 126.039C87.7326 125.713 86.1685 123.826 83.3443 123.826Z" fill="#8B2D30"/>
<path d="M88.8836 126.714H87.2109V135.391H88.8836V126.714Z" fill="#8B2D30"/>
<path d="M93.4451 128.274C90.9469 127.212 89.4263 130.509 89.4263 130.509C88.5574 132.114 88.0794 132.504 88.0794 132.504C88.0794 132.504 87.6014 132.114 86.7543 130.509C86.7543 130.509 85.2554 127.212 82.757 128.274C82.757 128.274 80.5847 129.034 81.9749 132.613C81.9749 132.613 83.3002 136.517 88.0794 136.517C92.8803 136.517 94.2055 132.634 94.2055 132.634C95.6176 129.034 93.4451 128.274 93.4451 128.274Z" fill="#FFAAAE"/>
<path d="M88.3192 93.6769C82.7145 93.6769 78.1743 95.5423 78.1743 97.8416C78.1743 101.92 85.3432 106.692 87.9717 106.692C90.5351 106.692 98.4426 101.941 98.4426 97.8416C98.4643 95.5423 93.924 93.6769 88.3192 93.6769Z" fill="#000709"/>
<path d="M88.2095 99.5957C92.5168 99.5957 96.0085 98.4205 96.0085 96.971C96.0085 95.5215 92.5168 94.3463 88.2095 94.3463C83.9023 94.3463 80.4106 95.5215 80.4106 96.971C80.4106 98.4205 83.9023 99.5957 88.2095 99.5957Z" fill="#808080"/>
<path d="M61.0342 56.2981C61.0342 56.2981 67.725 54.411 72.3957 58.1853C72.3957 58.1853 68.2248 51.4609 61.0342 56.2981Z" fill="#003323"/>
<path d="M103.48 58.1871C108.151 54.3694 114.842 56.2783 114.842 56.2783C107.652 51.4193 103.48 58.1871 103.48 58.1871Z" fill="#003323"/>
<path d="M72.4379 79.9882C71.9818 70.4437 65.6383 67.8625 65.6383 67.8625C57.9046 65.3679 53.0602 72.7215 53.0602 72.7215C48.129 79.2724 50.9965 86.2355 50.9965 86.2355C63.8353 85.4979 70.5044 88.448 70.5044 88.448C72.8941 85.845 72.4379 79.9882 72.4379 79.9882Z" fill="#23A662"/>
<path d="M70.2866 79.5513C69.157 71.0698 63.6826 70.2022 63.6826 70.2022C57.274 69.0741 54.1675 75.5384 54.1675 75.5384C51.7345 80.4407 53.9504 84.7791 53.9504 84.7791C64.0953 84.0632 69.4828 87.0133 69.4828 87.0133C71.0469 84.9961 70.2866 79.5513 70.2866 79.5513Z" fill="black"/>
<path d="M56.4144 78.9567C57.0224 78.55 57.2988 77.8975 57.0317 77.4994C56.7648 77.1013 56.0553 77.1082 55.4472 77.5149C54.8393 77.9216 54.5628 78.574 54.8298 78.9722C55.0969 79.3703 55.8063 79.3634 56.4144 78.9567Z" fill="white"/>
<path d="M64.2059 74.22C63.8366 73.1354 62.7069 73.5475 62.7069 73.5475C62.0119 73.7862 61.3818 73.7645 61.3818 73.7645C62.7069 73.2873 62.0553 72.2027 62.0553 72.2027C61.2948 71.1397 59.9262 71.9857 59.9262 71.9857C57.9495 73.2005 58.2101 75.8686 58.2101 75.8686C59.9915 76.4976 62.2509 76.194 62.2509 76.194C64.6404 75.8035 64.2059 74.22 64.2059 74.22Z" fill="white"/>
<path d="M122.967 72.6996C122.967 72.6996 118.123 65.346 110.411 67.8406C110.411 67.8406 104.068 70.4219 103.612 79.988C103.612 79.988 103.155 85.8447 105.545 88.4695C105.545 88.4695 112.192 85.5193 125.031 86.257C125.031 86.2352 127.899 79.2505 122.967 72.6996Z" fill="#23A662"/>
<path d="M121.861 75.5196C121.861 75.5196 118.754 69.0338 112.346 70.1618C112.346 70.1618 106.893 71.0078 105.764 79.5326C105.764 79.5326 105.003 84.9991 106.546 86.9946C106.546 86.9946 111.933 84.0447 122.056 84.7603C122.078 84.7821 124.294 80.422 121.861 75.5196Z" fill="black"/>
<path d="M109.456 77.4278C109.13 77.0589 108.413 77.124 107.827 77.558C107.24 77.9918 107.044 78.6426 107.349 79.0113C107.674 79.38 108.391 79.3149 108.978 78.8811C109.564 78.4473 109.782 77.7965 109.456 77.4278Z" fill="white"/>
<path d="M116.691 74.22C116.322 73.1354 115.192 73.5475 115.192 73.5475C114.497 73.7862 113.867 73.7645 113.867 73.7645C115.192 73.2873 114.541 72.2027 114.541 72.2027C113.78 71.1397 112.412 71.9857 112.412 71.9857C110.435 73.2005 110.695 75.8686 110.695 75.8686C112.477 76.4976 114.736 76.194 114.736 76.194C117.104 75.8035 116.691 74.22 116.691 74.22Z" fill="white"/>
<defs>
<linearGradient id="paint0_linear_99_2" x1="84.818" y1="171.322" x2="106.078" y2="36.897" gradientUnits="userSpaceOnUse">
<stop stop-color="#32B875"/>
<stop offset="1" stop-color="#78C940"/>
</linearGradient>
<linearGradient id="paint1_linear_99_2" x1="35.5946" y1="145.739" x2="57.9251" y2="4.54211" gradientUnits="userSpaceOnUse">
<stop stop-color="#39B971"/>
<stop offset="1" stop-color="#78C940"/>
</linearGradient>
<linearGradient id="paint2_linear_99_2" x1="92.8958" y1="69.2612" x2="100.764" y2="19.5111" gradientUnits="userSpaceOnUse">
<stop stop-color="#69C54B"/>
<stop offset="1" stop-color="#7DCA2D"/>
</linearGradient>
</defs>
</svg>
