<svg width="552" height="368" viewBox="0 0 552 368" fill="none" xmlns="http://www.w3.org/2000/svg">
<g clip-path="url(#clip0)">
<path d="M119.5 112.961C150.109 112.961 174.922 109.401 174.922 105.009C174.922 100.618 150.109 97.0577 119.5 97.0577C88.8916 97.0577 64.0784 100.618 64.0784 105.009C64.0784 109.401 88.8916 112.961 119.5 112.961Z" fill="#D6D6D6"/>
<path d="M115.533 101.735H119.15C119.15 98.8896 118.995 89.3787 116.972 86.6892C115.222 84.3504 109.816 75.97 109.777 75.853L106.705 77.841C106.938 78.1918 112.227 86.4163 114.055 88.872C114.95 90.0414 115.533 96.4729 115.533 101.735Z" fill="#823D0F"/>
<path d="M103.399 83.298C103.866 87.1569 105.071 88.1314 107.716 90.2362L108.183 90.587C108.844 91.1328 109.349 91.8344 109.738 92.614C112.111 92.3021 115.106 91.3666 115.611 89.8854C116.856 86.1045 121.056 78.9323 121.212 78.6205L124.362 80.4525C124.323 80.5305 120.2 87.6247 119.073 91.0548C117.906 94.6019 113.2 95.8102 110.633 96.2C110.866 99.0455 110.283 101.93 110.088 102.787L106.549 101.969C107.171 99.2404 107.444 94.6409 105.966 93.4715L105.499 93.1207C102.582 90.8209 100.482 89.1448 99.8208 83.8047L103.399 83.298Z" fill="#A55316"/>
<path d="M133.113 102.515L136.73 102.164C136.496 99.6692 135.835 95.2256 134.396 93.7834C134.046 93.4326 133.618 93.1208 133.113 92.77C131.324 91.5226 128.329 89.4178 127.007 83.7269L123.467 84.5454C125.101 91.6006 128.951 94.2902 131.012 95.7713C131.324 96.0052 131.713 96.2391 131.829 96.356C132.218 96.9017 132.84 99.7862 133.113 102.515Z" fill="#823D0F"/>
<path d="M128.874 102.437C129.107 98.2269 129.729 93.0817 130.274 91.9903L142.291 79.9458L139.725 77.3732L127.629 89.4956C127.201 89.9244 125.918 91.2107 125.295 102.203L128.874 102.437Z" fill="#A55316"/>
<path d="M88.8918 16.1374C61.0448 21.0098 82.2412 46.502 82.2412 46.502C82.2412 46.502 64.0784 47.1257 63.4561 55.6231C62.8338 64.1205 71.9347 67.1609 71.9347 67.1609C71.9347 67.1609 50.116 75.6193 59.2168 84.1167C68.3177 92.6141 96.787 81.0764 96.787 81.0764C96.787 81.0764 94.9591 94.4461 117.983 81.7C117.983 81.7 124.051 90.1974 137.352 85.9487C137.352 85.9487 140.969 91.4058 148.864 90.8211C156.72 90.1974 159.754 82.9473 159.754 82.9473C159.754 82.9473 180.328 81.739 173.678 67.7845C167.027 53.8301 152.481 55.0384 152.481 55.0384C152.481 55.0384 163.371 38.6672 144.625 33.1712C144.625 33.1712 146.453 24.0501 134.318 22.2571C122.223 20.3861 120.395 31.3002 120.395 31.3002C120.395 31.3002 116.739 11.304 88.8918 16.1374Z" fill="#73C078"/>
<path d="M104.06 53.2459C104.06 53.2067 104.021 53.1674 104.021 53.1674C104.021 53.1674 104.06 53.2067 104.06 53.2459Z" fill="#236933"/>
<path d="M117.983 81.7C94.9591 94.4461 96.787 81.0763 96.787 81.0763C96.787 81.0763 68.3177 92.6141 59.2168 84.1167C50.116 75.6193 71.9347 67.1218 71.9347 67.1218C71.9347 67.1218 62.8338 64.0815 63.4561 55.5841C63.6506 53.0115 65.4007 51.1794 67.8121 49.8542C59.1779 59.0922 75.5906 58.0008 75.5906 58.0008C75.5906 58.0008 72.557 64.0815 78.6242 65.2898C84.6914 66.4982 85.8971 62.8731 85.8971 62.8731C85.8971 62.8731 89.5141 75.6193 99.8206 71.3705C109.738 67.2778 104.488 54.2198 104.099 53.2453C104.371 53.908 106.821 59.2091 111.955 58.6244C117.4 58.0008 119.228 52.5437 119.228 52.5437C119.228 52.5437 118.022 61.0411 125.879 64.0815C133.735 67.1218 137.974 61.6648 137.974 61.6648C137.974 61.6648 131.907 79.2833 144.041 80.4916C156.137 81.7 155.554 70.1622 155.554 70.1622C155.554 70.1622 159.793 79.2833 165.238 77.4513C170.683 75.6192 167.066 70.7859 167.066 70.7859C172.044 69.2657 171.927 65.8745 171.188 63.5358C172.122 64.7441 172.978 66.1474 173.755 67.7455C180.406 81.7 159.832 82.9083 159.832 82.9083C159.832 82.9083 156.798 90.1974 148.942 90.7821C141.086 91.4057 137.43 85.9097 137.43 85.9097C124.012 90.1974 117.983 81.7 117.983 81.7Z" fill="#55A55F"/>
<path d="M120.395 31.3C120.395 31.3 122.223 20.3859 134.318 22.179C146.414 24.011 144.625 33.0931 144.625 33.0931C144.703 33.132 144.819 33.132 144.897 33.171C142.175 32.6253 138.363 32.5474 133.735 34.3014C133.735 34.3014 135.563 30.0527 130.118 31.2611C124.673 32.4694 124.051 38.5501 124.051 38.5501C124.051 38.5501 123.428 35.5098 116.194 36.1334C116.194 36.1334 120.161 29.2731 114.366 21.1265C119.384 25.726 120.395 31.3 120.395 31.3Z" fill="#55A55F"/>
<path d="M121.873 109.336C107.405 109.336 95.1148 107.855 90.72 105.828C91.6534 104.698 93.6758 105.36 93.6758 105.36C93.6758 105.36 93.6758 104.581 95.2704 102.983C96.865 101.384 100.832 103.762 100.832 103.762C100.832 103.762 101.61 100.566 104.799 100.566C107.988 100.566 108.766 102.944 108.766 102.944C108.766 102.944 108.766 102.164 110.361 102.164C111.955 102.164 112.733 103.762 112.733 103.762C112.733 103.762 113.511 102.164 116.7 100.566C119.889 98.9677 122.262 101.345 122.262 101.345C122.262 101.345 123.04 98.1491 127.823 98.1491C132.607 98.1491 132.568 102.905 132.568 102.905C132.568 102.905 133.346 100.527 137.313 100.527C141.28 100.527 142.875 102.905 142.875 102.905C142.875 102.905 142.875 102.125 146.064 102.125C149.253 102.125 149.253 104.503 149.253 104.503C150.731 104.503 150.965 105.633 150.965 106.491C145.481 108.245 134.513 109.336 121.873 109.336Z" fill="#4F2C15"/>
<path d="M146.92 0.0390662C146.414 -0.974387 144.353 16.6831 147.308 20.3471C149.098 22.5299 158.354 23.0756 146.92 0.0390662Z" fill="#479BDB"/>
<path d="M146.92 0.0389404C158.354 23.0755 149.098 22.5298 147.309 20.347C146.647 19.5284 146.259 18.0472 146.025 16.2152" fill="#2F8AC2"/>
<path d="M145.986 16.1762C146.569 17.4625 147.347 18.3201 148.32 18.0082C151.237 17.0727 146.881 0.0389404 146.881 0.0389404" fill="#2F8AC2"/>
</g>
<g clip-path="url(#clip1)">
<path d="M543.338 200.347C544.034 199.395 544.413 198.317 544.287 197.049C543.528 190.834 533.476 196.288 533.476 196.288C533.476 196.288 554.339 169.144 538.091 166.798C521.843 164.451 520.262 183.794 520.262 183.794C520.262 183.794 524.182 135.723 507.112 142.699C490.421 149.548 501.232 189.121 501.675 190.77C501.359 189.565 495.289 168.383 488.524 169.905C481.57 171.427 490.864 191.658 490.864 191.658C490.864 191.658 480.811 178.404 476.196 183.033C473.035 186.204 479.61 194.512 484.099 199.395C475.437 200.6 470 202.376 470 204.405C470 208.02 488.335 211.001 511.032 211.001C533.665 211.001 552.063 208.02 552.063 204.405C552 202.883 548.776 201.425 543.338 200.347Z" fill="#73C078"/>
</g>
<g clip-path="url(#clip2)">
<path d="M120.5 359.1C122.9 357.8 125.2 355.7 124.4 352.9C122.8 347.5 108 354.2 108 354.2C108 354.2 130.9 327.4 114.5 326.1C98.1 324.8 81.8 351.5 81.8 351.5C81.8 351.5 103.1 308.7 80.2 310C60.5 311.2 57.7 339.1 57.3 346.9C57.3 342.4 56.1 331.8 45.8 332.8C35.5 333.9 36.6 350.4 37.6 357.5C37.5 357.5 37.5 357.5 37.4 357.5C34.9 346.6 25.8 311.5 14.7 319.5C3.1 327.8 15.8 352.7 18.9 358.5C18.8 358.5 18.7 358.5 18.6 358.5C15.8 355 7.3 345.8 3.3 350.2C0.0999999 353.7 5.3 357.2 9.3 359.2C3.4 359.9 0 360.7 0 361.6C0 364.1 29.9 367.5 66.1 367.5C102.3 367.5 131 364.1 131 361.6C130.9 360.7 127.1 359.8 120.5 359.1Z" fill="#55A55F"/>
</g>
<defs>
<clipPath id="clip0">
<rect width="118" height="113" fill="white" transform="translate(57)"/>
</clipPath>
<clipPath id="clip1">
<rect width="82" height="69" fill="white" transform="translate(470 142)"/>
</clipPath>
<clipPath id="clip2">
<rect width="130.9" height="57.5" fill="white" transform="translate(0 310)"/>
</clipPath>
</defs>
</svg>
