<svg width="130" height="130" viewBox="0 0 130 130" fill="none" xmlns="http://www.w3.org/2000/svg">
<path fill-rule="evenodd" clip-rule="evenodd" d="M111.302 28.4639C112.089 27.971 113.125 28.2087 113.618 28.9949C115.956 32.7237 118.413 37.0057 121.2 41.9225C121.658 42.7296 121.374 43.7549 120.567 44.2125C119.76 44.67 118.735 44.3866 118.277 43.5794C115.488 38.6592 113.065 34.4375 110.771 30.7797C110.279 29.9935 110.516 28.9567 111.302 28.4639Z" fill="#E5E9EA"/>
<path fill-rule="evenodd" clip-rule="evenodd" d="M14.3097 71.6797C15.1517 72.0695 15.5183 73.0681 15.1285 73.9101C13.3984 77.6476 11.7218 81.7363 10.8353 85.9914C10.646 86.8998 9.75628 87.4827 8.84795 87.2935C7.93961 87.1042 7.35667 86.2145 7.5459 85.3061C8.51128 80.6723 10.3161 76.3077 12.0793 72.4986C12.4691 71.6566 13.4676 71.29 14.3097 71.6797Z" fill="#E5E9EA"/>
<path fill-rule="evenodd" clip-rule="evenodd" d="M8.46044 92.0018C9.38627 91.9406 10.1864 92.6416 10.2475 93.5674C10.4865 97.1855 11.6151 100.689 13.5332 103.766L13.5365 103.771C15.5542 107.035 18.5784 110.116 22.5808 112.906C23.342 113.436 23.5288 114.484 22.9982 115.245C22.4676 116.006 21.4204 116.193 20.6593 115.662C16.3665 112.669 12.9882 109.274 10.68 105.54C8.47042 101.994 7.17021 97.9578 6.89483 93.7888C6.83367 92.863 7.53462 92.0629 8.46044 92.0018Z" fill="#E5E9EA"/>
<path d="M38.1389 45.1611C30.1765 54.2708 23.5479 64.4649 18.4515 75.4382C12.8634 87.5182 9.80855 99.5567 24.6737 109.908C45.6545 124.531 68.0382 103.134 97.9241 105.662C127.81 108.189 127.702 67.6115 115.109 45.3804C102.517 23.1493 95.9982 12.4174 77.413 14.2337C66.1552 15.333 49.5123 32.1019 38.1389 45.1611Z" fill="#E5E9EA"/>
<path d="M75.044 111.461C98.555 111.461 117.614 92.4012 117.614 68.8902C117.614 45.3792 98.555 26.3198 75.044 26.3198C51.533 26.3198 32.4736 45.3792 32.4736 68.8902C32.4736 92.4012 51.533 111.461 75.044 111.461Z" fill="url(#paint0_linear_104_5)"/>
<path fill-rule="evenodd" clip-rule="evenodd" d="M74.9182 97.1599C66.6337 97.1525 59.9552 95.1659 55.296 91.594C50.5774 87.9807 48.0737 82.8533 48.0737 77.0503C48.0737 71.4577 50.573 67.4207 53.3982 64.7021C55.268 62.93 57.4173 61.4784 59.7597 60.4059C59.3745 59.2207 58.8945 57.6784 58.4648 56.0814C57.89 53.9436 57.3256 51.4355 57.3256 49.5984C57.3256 47.4236 57.8011 45.2399 59.0797 43.5421C60.4293 41.7496 62.4634 40.7881 64.9093 40.7881C65.7976 40.7776 66.6793 40.9422 67.5039 41.2727C68.3286 41.6032 69.08 42.0929 69.7152 42.714C70.93 43.8829 71.7389 45.437 72.2974 47.0562C73.2782 49.9007 73.6604 53.474 73.7671 57.0414H76.1108C76.2174 53.474 76.5997 49.9007 77.5804 47.0562C78.1389 45.437 78.9478 43.8829 80.1626 42.714C80.7978 42.0929 81.5493 41.6032 82.3739 41.2727C83.1985 40.9422 84.0802 40.7776 84.9685 40.7881C87.4145 40.7881 89.4485 41.7496 90.7997 43.5421C92.0782 45.2399 92.5522 47.4236 92.5522 49.5984C92.5522 51.4355 91.9878 53.9436 91.413 56.0814C90.9834 57.6784 90.5034 59.2236 90.1182 60.4059C92.4605 61.4784 94.6098 62.93 96.4797 64.7021C99.3063 67.4266 101.804 71.4577 101.804 77.0503C101.804 82.8518 99.3004 87.9807 94.5819 91.594C89.9182 95.1659 83.2441 97.1525 74.9597 97.1599H74.9182Z" fill="#633001"/>
<path d="M64.9092 42.8633C61.327 42.8633 59.6767 45.5626 59.6767 49.2974C59.6767 52.2603 61.5937 58.2114 62.3804 60.5255C62.4623 60.7781 62.4449 61.0524 62.3318 61.2927C62.2187 61.5329 62.0184 61.7211 61.7715 61.8189C58.8959 62.964 50.4248 67.1507 50.4248 76.7418C50.4248 86.8455 59.0381 94.4648 74.9196 94.4766H74.9581C90.8396 94.4648 99.453 86.8455 99.453 76.7418C99.453 67.1492 90.9774 62.964 88.1063 61.8174C87.8594 61.7196 87.659 61.5314 87.5459 61.2912C87.4328 61.0509 87.4155 60.7766 87.4974 60.524C88.2841 58.21 90.2011 52.2648 90.2011 49.2959C90.2011 45.5611 88.5507 42.8618 84.9685 42.8618C79.81 42.8618 78.5241 50.2426 78.4322 58.164C78.4314 58.4169 78.331 58.6592 78.1526 58.8383C77.9743 59.0175 77.7324 59.1191 77.4796 59.1211H72.3981C72.1453 59.1191 71.9035 59.0175 71.7251 58.8383C71.5468 58.6592 71.4463 58.4169 71.4455 58.164C71.3537 50.244 70.0678 42.8633 64.9092 42.8633Z" fill="#D1884F"/>
<path d="M74.9581 91.2412C63.2885 91.2412 50.4455 84.9316 50.4248 76.7627V76.7997C50.4248 86.9123 59.0515 94.536 74.9581 94.536C90.8648 94.536 99.4885 86.9123 99.4885 76.7997V76.7627C99.4707 84.9316 86.6278 91.2412 74.9581 91.2412Z" fill="#FEDC90"/>
<path d="M68.4739 74.2532C68.4739 77.0117 67.1835 78.4472 65.5924 78.4472C64.0013 78.4472 62.7109 77.0117 62.7109 74.2532C62.7109 71.4946 64.0013 70.0591 65.5924 70.0591C67.1835 70.0591 68.4739 71.4961 68.4739 74.2532Z" fill="#633001"/>
<path d="M87.2059 74.2532C87.2059 77.0117 85.9155 78.4472 84.3244 78.4472C82.7333 78.4472 81.4414 77.0117 81.4414 74.2532C81.4414 71.4946 82.7318 70.0591 84.3244 70.0591C85.917 70.0591 87.2059 71.4961 87.2059 74.2532Z" fill="#633001"/>
<path d="M37.5935 38.5093C40.2486 38.5093 42.4009 36.357 42.4009 33.7019C42.4009 31.0469 40.2486 28.8945 37.5935 28.8945C34.9385 28.8945 32.7861 31.0469 32.7861 33.7019C32.7861 36.357 34.9385 38.5093 37.5935 38.5093Z" fill="url(#paint1_linear_104_5)"/>
<path d="M45.6174 21.3003C46.974 21.3003 48.0737 20.2006 48.0737 18.844C48.0737 17.4874 46.974 16.3877 45.6174 16.3877C44.2609 16.3877 43.1611 17.4874 43.1611 18.844C43.1611 20.2006 44.2609 21.3003 45.6174 21.3003Z" fill="url(#paint2_linear_104_5)"/>
<defs>
<linearGradient id="paint0_linear_104_5" x1="75.044" y1="26.3198" x2="75.044" y2="111.461" gradientUnits="userSpaceOnUse">
<stop stop-color="#53DEE9"/>
<stop offset="1" stop-color="#1FC7D4"/>
</linearGradient>
<linearGradient id="paint1_linear_104_5" x1="32.7861" y1="33.7019" x2="42.4009" y2="33.7019" gradientUnits="userSpaceOnUse">
<stop stop-color="#53DEE9"/>
<stop offset="1" stop-color="#1FC7D4"/>
</linearGradient>
<linearGradient id="paint2_linear_104_5" x1="43.1611" y1="18.844" x2="48.0737" y2="18.844" gradientUnits="userSpaceOnUse">
<stop stop-color="#53DEE9"/>
<stop offset="1" stop-color="#1FC7D4"/>
</linearGradient>
</defs>
</svg>
