<svg width="130" height="130" viewBox="0 0 130 130" fill="none" xmlns="http://www.w3.org/2000/svg">
<path fill-rule="evenodd" clip-rule="evenodd" d="M3.74924 61.4459C4.63723 61.684 5.16408 62.5968 4.926 63.4848C2.78636 71.4652 3.78957 80.2518 7.82619 87.4615C7.985 87.7417 8.14861 88.0222 8.31703 88.3029C8.79003 89.0912 8.5344 90.1137 7.74607 90.5867C6.95773 91.0597 5.93522 90.8041 5.46222 90.0158C5.27907 89.7105 5.10085 89.405 4.92758 89.0992L4.92349 89.092C0.447823 81.1006 -0.647409 71.4164 1.71032 62.6226C1.9484 61.7346 2.86126 61.2078 3.74924 61.4459Z" fill="#E5E9EA"/>
<path fill-rule="evenodd" clip-rule="evenodd" d="M101.968 37.9618C102.185 37.0684 103.085 36.52 103.979 36.7368C109.305 38.0296 115.217 40.8696 121.343 46.8388L121.343 46.8397C124.027 49.4589 126.001 53.0419 127.236 57.254C127.495 58.1362 126.989 59.0611 126.107 59.3197C125.225 59.5783 124.3 59.0728 124.041 58.1906C122.927 54.3907 121.202 51.3534 119.018 49.2224C113.313 43.6631 107.93 41.1219 103.193 39.9721C102.3 39.7553 101.751 38.8553 101.968 37.9618Z" fill="#E5E9EA"/>
<path fill-rule="evenodd" clip-rule="evenodd" d="M94.8325 39.0622C92.3756 39.0622 90.004 39.2472 87.6467 39.4314C85.4478 39.6051 83.2948 39.7741 81.1734 39.7741C80.2541 39.7741 79.5088 39.0288 79.5088 38.1095C79.5088 37.1901 80.2541 36.4449 81.1734 36.4449C83.1414 36.4449 85.163 36.288 87.3852 36.1124L87.4331 36.1087C89.7595 35.9269 92.2425 35.7329 94.8325 35.7329C95.7518 35.7329 96.4971 36.4782 96.4971 37.3975C96.4971 38.3169 95.7518 39.0622 94.8325 39.0622Z" fill="#E5E9EA"/>
<path d="M10.1532 59.735C2.94128 74.8106 9.83319 97.3506 34.4004 99.8843C58.9676 102.418 50.2966 109.417 81.6544 112.981C121.821 117.551 129.518 64.5058 116.493 51.817C96.5847 32.4198 81.4533 52.5187 63.3318 36.8779C45.2102 21.2372 20.4008 38.3136 10.1532 59.735Z" fill="#E5E9EA"/>
<path fill-rule="evenodd" clip-rule="evenodd" d="M29.556 27.7238C46.6045 21.2091 65.7022 29.7466 72.2169 46.7936C78.7315 63.8406 70.1955 82.9383 53.147 89.453C36.0985 95.9676 17.0023 87.4316 10.4876 70.3846C3.97297 53.3376 12.509 34.2399 29.556 27.7238Z" fill="#EA7F00"/>
<path fill-rule="evenodd" clip-rule="evenodd" d="M30.2092 29.434C46.3123 23.279 64.3531 31.3423 70.5081 47.447C76.6631 63.5516 68.5998 81.5909 52.4937 87.7445C36.3877 93.898 18.3513 85.8362 12.1962 69.7315C6.04122 53.6269 14.1045 35.5876 30.2092 29.434Z" fill="#F0B90B"/>
<path fill-rule="evenodd" clip-rule="evenodd" d="M31.5009 32.81C45.7398 27.3684 61.6888 34.4996 67.1304 48.737C72.572 62.9744 65.4423 78.9263 51.2034 84.3665C36.9645 89.8066 21.0155 82.6784 15.5739 68.441C14.2801 65.0556 13.6657 61.4486 13.7659 57.8258C13.8661 54.203 14.6789 50.6355 16.1579 47.3268C17.6368 44.0182 19.753 41.0332 22.3856 38.5424C25.0181 36.0516 28.1155 34.1037 31.5009 32.81Z" fill="#EA7F00"/>
<path fill-rule="evenodd" clip-rule="evenodd" d="M32.2772 34.8376C36.9751 33.043 42.0997 32.6819 47.0028 33.7997C51.906 34.9176 56.3676 37.4643 59.8234 41.1178C63.2792 44.7713 65.5741 49.3675 66.4177 54.3252C67.2614 59.2829 66.616 64.3795 64.5632 68.9704C62.5104 73.5613 59.1423 77.4404 54.8849 80.1172C50.6275 82.794 45.6719 84.1482 40.6449 84.0086C35.6178 83.869 30.7451 82.2419 26.6428 79.333C22.5404 76.4241 19.3928 72.364 17.5979 67.6663C16.4059 64.5469 15.84 61.2232 15.9326 57.8851C16.0252 54.547 16.7745 51.2598 18.1376 48.2113C19.5007 45.1628 21.4511 42.4127 23.8771 40.118C26.3032 37.8233 29.1576 36.029 32.2772 34.8376Z" fill="#F0B90B"/>
<path d="M27.451 63.9026L30.5924 72.0554L39.0858 73.4852L40.9119 78.2633L27.4554 76.0174L22.5026 63.0585L27.451 63.9026ZM24.3317 55.7409L26.149 60.497L21.1977 59.6544L19.3804 54.8983L22.5056 50.9657L27.4774 51.8039L24.3317 55.7438V55.7409ZM33.2714 49.5859L36.3966 45.6533L41.3684 46.4915L38.2227 50.4314L33.2714 49.5859Z" fill="white"/>
<path d="M32.8412 69.256L31.0151 64.4779L35.9665 65.3234L37.7852 70.0766L32.8412 69.2531V69.256ZM42.6367 74.0899L47.588 74.9354L50.7338 70.9955L52.5511 75.7516L49.4053 79.6915L44.4613 78.846L42.644 74.0899H42.6367ZM47.1609 44.2778L50.2861 40.3452L55.2579 41.1834L57.0752 45.9395L53.9295 49.8794L52.1122 45.1218L47.1609 44.2763V44.2778ZM58.3509 61.4525L55.2535 53.282L58.3787 49.3495L63.3315 62.2966L54.8029 72.9464L52.9753 68.1683L58.3494 61.4408L58.3509 61.4525Z" fill="white"/>
<path d="M54.8082 60.8611L51.6742 64.7717L49.8569 60.0156L52.9821 56.083L54.8082 60.8611Z" fill="white"/>
<path d="M49.8632 47.9223L51.7113 52.6916L46.3167 59.4294L49.4419 67.6101L46.3079 71.5207L41.3654 70.6972L38.2387 62.5164L29.7247 61.094L27.8986 56.3159L31.0415 52.376L39.5217 53.8351L44.909 47.0826L49.8794 47.9106L49.8632 47.9179V47.9223ZM24.7778 48.1572L33.2786 37.4883L46.7453 39.7562L43.6187 43.6888L35.0974 42.2473L29.7306 48.9998L24.7778 48.1542V48.1572Z" fill="white"/>
<path fill-rule="evenodd" clip-rule="evenodd" d="M100.189 57.5889C112.735 66.1572 114.04 86.077 103.116 102.077C92.1918 118.078 73.1601 124.104 60.6152 115.535C48.0703 106.967 46.758 87.0576 57.6882 71.0572C68.6183 55.0568 87.6441 49.028 100.189 57.5963V57.5889Z" fill="#EA7F00"/>
<path fill-rule="evenodd" clip-rule="evenodd" d="M104.331 60.4178C116.877 68.9861 118.187 88.8956 107.258 104.903C96.3291 120.911 77.3019 126.932 64.7555 118.372C63.0351 117.197 59.5723 114.784 59.5723 114.784C59.5723 114.784 52.4 87.6919 61.8285 73.8772C71.257 60.0626 97.6004 56.0698 97.6004 56.0698C97.6004 56.0698 102.612 59.242 104.332 60.4178H104.331Z" fill="#EA7F00"/>
<path fill-rule="evenodd" clip-rule="evenodd" d="M98.8044 59.6173C110.473 67.5808 111.693 86.1061 101.527 100.989C91.362 115.873 73.6735 121.474 62.002 113.506C50.3306 105.538 49.1151 87.0177 59.279 72.1314C69.4429 57.2452 87.1373 51.6494 98.8044 59.6173Z" fill="#F0B90B"/>
<path fill-rule="evenodd" clip-rule="evenodd" d="M96.93 62.3644C107.408 69.5205 108.503 86.1536 99.3741 99.519C90.2451 112.885 74.3548 117.918 63.8767 110.762C53.3987 103.606 52.3036 86.9712 61.4326 73.5999C70.5616 60.2285 86.4519 55.2023 96.93 62.3585V62.3644Z" fill="#EA7F00"/>
<path fill-rule="evenodd" clip-rule="evenodd" d="M95.6315 64.2669C105.286 70.8608 106.293 86.1859 97.8832 98.5004C89.4735 110.815 74.8368 115.452 65.1764 108.858C55.516 102.264 54.5134 86.939 62.9246 74.6275C71.3358 62.316 85.971 57.6759 95.6315 64.2698V64.2669Z" fill="#F0B90B"/>
<path d="M70.1709 79.5753L64.9553 87.2511L67.442 94.5672L64.3784 99.0532L60.415 87.4757L68.7235 75.311L70.1635 79.5797L70.1709 79.5753ZM75.4026 71.9142L72.3507 76.3782L70.9107 72.105L73.9655 67.6411L78.4661 67.4341L79.9208 71.7175L75.4026 71.9201V71.9142ZM84.1866 74.6269L88.6902 74.4141L90.1449 78.696L85.6267 78.8986L84.1866 74.6269Z" fill="white"/>
<path d="M68.1732 87.1146L71.2353 82.63L72.6768 86.9017L69.628 91.3613L68.1732 87.1043V87.1146ZM68.4786 97.6249L69.9186 101.898L74.4369 101.695L71.388 106.159L66.8697 106.362L65.4297 102.09L68.4786 97.6249ZM94.4095 81.604L98.9131 81.3911L100.368 85.6745L97.3189 90.1385L92.8006 90.3411L95.8495 85.8771L94.4095 81.604ZM85.3847 101.196L90.634 93.5455L95.1376 93.3327L86.8291 105.499L74.6057 106.026L77.6692 101.54L85.3847 101.196Z" fill="white"/>
<path d="M84.3385 98.1549L79.8496 98.3472L82.8985 93.8833L87.4021 93.6704L84.3385 98.1549Z" fill="white"/>
<path d="M92.634 86.0097L89.5881 90.5059L81.8536 90.8406L76.6101 98.5208L72.1212 98.7131L70.665 94.4561L75.9114 86.7759L73.4086 79.4495L76.4722 74.965L80.9875 74.7742L83.4448 82.0977L91.1925 81.7424L92.6472 86.0258L92.634 86.017V86.0097ZM81.6994 67.3098L93.9229 66.752L97.8657 78.3486L93.3621 78.5614L90.8666 71.2218L83.1336 71.5858L81.6936 67.3127L81.6994 67.3098Z" fill="white"/>
<path d="M61.2605 25.8286C63.1211 25.8286 64.6294 24.3203 64.6294 22.4597C64.6294 20.5991 63.1211 19.0908 61.2605 19.0908C59.3999 19.0908 57.8916 20.5991 57.8916 22.4597C57.8916 24.3203 59.3999 25.8286 61.2605 25.8286Z" fill="#F0B90B"/>
<path d="M47.594 11.6914C48.6868 11.6914 49.5728 10.8055 49.5728 9.71265C49.5728 8.61981 48.6868 7.73389 47.594 7.73389C46.5012 7.73389 45.6152 8.61981 45.6152 9.71265C45.6152 10.8055 46.5012 11.6914 47.594 11.6914Z" fill="#F0B90B"/>
<path d="M37.3201 20.8731C38.4129 20.8731 39.2988 19.9871 39.2988 18.8943C39.2988 17.8014 38.4129 16.9155 37.3201 16.9155C36.2272 16.9155 35.3413 17.8014 35.3413 18.8943C35.3413 19.9871 36.2272 20.8731 37.3201 20.8731Z" fill="#F0B90B"/>
<path d="M127.073 83.9897C128.413 83.9897 129.499 82.9033 129.499 81.5632C129.499 80.2231 128.413 79.1367 127.073 79.1367C125.733 79.1367 124.646 80.2231 124.646 81.5632C124.646 82.9033 125.733 83.9897 127.073 83.9897Z" fill="#F0B90B"/>
</svg>
