<svg width="130" height="130" viewBox="0 0 130 130" fill="none" xmlns="http://www.w3.org/2000/svg">
<path d="M86.4763 122.404C81.4911 122.404 76.3134 121.327 71.0897 119.204C61.6482 115.364 55.8482 115.216 49.7089 115.068L49.7919 111.708C56.2482 111.87 62.346 112.022 72.3548 116.093C77.1756 118.052 81.9267 119.046 86.4763 119.046C86.9219 119.046 87.3492 119.223 87.6643 119.538C87.9793 119.853 88.1563 120.28 88.1563 120.726C88.1563 121.171 87.9793 121.599 87.6643 121.914C87.3492 122.229 86.9219 122.406 86.4763 122.406V122.404Z" fill="#E5E9EA"/>
<path d="M50.9208 111.728C50.5414 111.716 50.1632 111.709 49.786 111.709V111.708C49.3404 111.708 48.9131 111.885 48.598 112.2C48.283 112.515 48.106 112.942 48.106 113.388C48.106 113.834 48.283 114.261 48.598 114.576C48.9131 114.891 49.3404 115.068 49.786 115.068C50.1629 115.068 50.5412 115.075 50.9208 115.088V111.728Z" fill="#E5E9EA"/>
<path d="M77.8033 19.0559C77.5067 19.0557 77.2154 18.9769 76.9589 18.8278C73.3557 16.7307 69.2613 15.6256 65.0922 15.6248H64.9945C64.5489 15.6248 64.1216 15.4478 63.8065 15.1328C63.4915 14.8177 63.3145 14.3904 63.3145 13.9448C63.3145 13.4993 63.4915 13.072 63.8065 12.7569C64.1216 12.4418 64.5489 12.2648 64.9945 12.2648C69.793 12.2471 74.5094 13.5103 78.6567 15.9241C78.976 16.11 79.2251 16.396 79.3654 16.7378C79.5058 17.0796 79.5296 17.4581 79.4331 17.8147C79.3366 18.1714 79.1252 18.4863 78.8316 18.7107C78.5381 18.9351 78.1788 19.0564 77.8093 19.0559H77.8033Z" fill="#E5E9EA"/>
<path d="M14.8064 57.6632C14.5137 57.6629 14.2261 57.5862 13.9721 57.4405C13.7182 57.2949 13.5067 57.0854 13.3586 56.8329C13.2106 56.5803 13.1311 56.2935 13.128 56.0007C13.125 55.708 13.1985 55.4195 13.3412 55.1639C18.8435 45.318 26.7797 35.0025 35.119 26.8677C35.4403 26.5707 35.8649 26.4107 36.3023 26.4219C36.7397 26.4331 37.1555 26.6146 37.4612 26.9276C37.767 27.2407 37.9385 27.6606 37.9393 28.0982C37.9401 28.5358 37.7702 28.9564 37.4657 29.2706C29.3516 37.1951 21.6286 47.2321 16.2805 56.8069C16.1335 57.0682 15.9193 57.2854 15.6601 57.4359C15.4009 57.5865 15.1062 57.665 14.8064 57.6632Z" fill="#E5E9EA"/>
<path d="M40.0154 31.8798C20.3117 51.139 -2.17272 88.5138 21.9814 100.981C46.1354 113.447 50.7473 103.364 73.7354 112.706C96.7236 122.049 113.636 105.844 114.448 81.6205C115.196 59.2798 93.6673 44.8798 83.5384 30.0768C73.4095 15.2738 56.7665 15.5124 40.0154 31.8798Z" fill="#E5E9EA"/>
<path d="M110.37 75.0191C123.875 70.6872 131.3 56.1939 126.962 42.6487C122.624 29.1035 108.147 21.6353 94.6393 25.9687C81.1311 30.302 73.7015 44.7954 78.0467 58.3405C82.3919 71.8857 96.8645 79.3524 110.37 75.0191Z" fill="#78F177"/>
<path fill-rule="evenodd" clip-rule="evenodd" d="M94.8887 26.7717C81.828 30.9613 74.6428 44.9791 78.8472 58.0843C83.0517 71.1895 97.0517 78.4117 110.106 74.2206C123.161 70.0295 130.358 56.0102 126.154 42.905C121.949 29.7998 107.957 22.5791 94.8887 26.7717ZM77.2472 58.5969C72.7598 44.6117 80.425 29.6443 94.3746 25.1687C108.324 20.6932 123.264 28.4072 127.754 42.3924C132.244 56.3776 124.576 71.345 110.624 75.8206C96.6709 80.2961 81.7346 72.5821 77.2472 58.5969Z" fill="#4FC64E"/>
<path d="M109.18 71.3121C120.644 67.6336 126.947 55.3314 123.254 43.8351C119.561 32.3388 107.281 25.998 95.8171 29.6766C84.3534 33.3551 78.0512 45.6573 81.743 57.1536C85.4349 68.6499 97.7178 74.9892 109.18 71.3121Z" fill="#BFFABC"/>
<path fill-rule="evenodd" clip-rule="evenodd" d="M96.0784 30.4753C85.0591 34.0116 78.9969 45.8382 82.545 56.896C86.0932 67.9538 97.9035 74.0456 108.915 70.5093C119.927 66.973 125.997 55.1478 122.449 44.0901C118.901 33.0323 107.098 26.9419 96.0784 30.4753ZM80.9435 57.4101C77.1139 45.4738 83.6606 32.6975 95.5643 28.8767C107.468 25.056 120.228 31.6412 124.058 43.5775C127.887 55.5138 121.345 68.2915 109.438 72.1123C97.5317 75.933 84.7732 69.3479 80.9435 57.4101Z" fill="#4FC64E"/>
<path d="M114.653 35.7847C114.653 35.7847 117.113 39.3224 114.263 44.7358C113.605 45.995 112.804 47.4691 112.021 49.0587C112.021 49.0587 108.224 54.2439 110.519 62.6691C110.519 62.6691 108.463 64.8365 104.906 66.521C104.906 66.521 109.21 65.8721 114.133 60.6987C114.133 60.6987 118.358 56.4454 118.515 51.1121L116.242 52.6602L119.115 45.3565L121.623 48.9654L120.106 50.0617C120.106 50.0617 121.349 63.601 107.733 68.1832C107.733 68.1832 98.4377 71.7787 90.2021 66.5536C95.1977 70.3432 102.519 71.2395 108.128 69.441C118.81 66.0143 124.691 54.6099 121.524 44.7387C120.678 42.1224 118.507 38.2439 114.653 35.7847Z" fill="url(#paint0_linear_104_6)"/>
<path d="M98.0018 60.6976C97.5426 59.5584 97.0093 58.2132 96.3944 56.7998C96.3944 56.7998 95.0848 51.3924 88.2626 48.2147C88.2626 48.2147 87.9663 45.6413 88.8448 42.3539C88.8448 42.3539 86.8833 45.5554 87.5559 51.705C87.5559 51.705 88.1485 57.0384 91.5559 60.1139L92.1263 57.231L94.8552 63.4858L91.1515 62.7761L91.3381 61.7391C91.3381 61.7391 81.63 54.8398 86.1796 43.2739C86.1796 43.2739 88.9811 35.1154 96.9944 32.5791C91.7337 33.7747 87.0685 38.1184 85.1426 42.8354C81.4641 51.8102 85.6981 62.065 93.9707 65.4769C96.1633 66.3835 99.9233 67.1065 103.689 65.9213C103.68 65.9539 99.9855 65.6058 98.0018 60.6976Z" fill="url(#paint1_linear_104_6)"/>
<path d="M95.1187 38.7107C95.1187 38.7107 99.415 32.841 107.728 35.3032C107.728 35.3032 110.008 35.8158 113.086 37.921C112.79 37.6751 111.091 35.7492 108.159 34.6366C101.514 31.9803 94.5646 35.4721 92.0224 40.4707C91.2061 42.001 90.3927 44.8677 91.0239 47.6573C91.0239 47.6573 91.6016 44.9907 95.3809 43.8144C96.4076 43.4944 97.0979 43.2129 98.3809 42.8692C98.3809 42.8692 102.55 42.2766 105.436 37.2395C105.436 37.2395 107.181 37.2247 109.568 38.044C109.568 38.044 107.311 36.4425 102.696 36.5936C102.696 36.5936 98.8298 36.6158 96.2105 39.0158L98.2372 39.6944L93.4638 41.3107L94.1676 38.5803L95.1187 38.7107Z" fill="url(#paint2_linear_104_6)"/>
<path d="M91.4815 50.1449C90.7673 49.0935 90.1486 47.9804 89.6326 46.8189C88.8103 44.9449 88.0192 42.2678 88.917 40.0871C89.0069 40.0217 89.1071 39.9717 89.2133 39.9389C89.9066 39.7167 91.6533 39.65 95.6163 41.65L91.4815 50.1449Z" fill="#36B775"/>
<path d="M89.2914 40.1644C89.8143 39.997 91.4262 39.8281 95.3077 41.7614L91.4484 49.6696C90.3729 48.0133 87.8025 43.5214 89.1003 40.234C89.1432 40.2222 89.198 40.194 89.2914 40.1644ZM89.1432 39.7199C88.9836 39.7593 88.8367 39.8389 88.7166 39.9511C86.8662 44.3333 91.5136 50.6014 91.5136 50.6014L95.9269 41.5644C91.7506 39.4088 89.884 39.4874 89.1432 39.7244V39.7199Z" fill="#063629"/>
<path d="M91.5219 50.2177C90.7903 49.1444 90.1557 48.008 89.6256 46.8222C88.8108 44.9703 88.0345 42.3392 88.8848 40.1777C89.1456 40.1703 89.8078 40.197 90.7767 40.5674C91.9352 41.0044 93.7782 42.0325 96.0271 44.437L91.5219 50.2177Z" fill="#C2FF89"/>
<path d="M89.0381 40.4011C89.6213 40.4376 90.1944 40.5703 90.7344 40.7937C91.841 41.2234 93.5833 42.2056 95.7181 44.4352L91.5344 49.7982C90.8832 48.8134 90.3148 47.7762 89.8351 46.6974C89.3506 45.6404 89.0117 44.5226 88.8277 43.3745C88.662 42.3806 88.7341 41.3617 89.0381 40.4011ZM88.7151 39.9567C86.8573 44.3359 91.5136 50.6041 91.5136 50.6041L96.324 44.4174C91.7492 39.4604 88.7151 39.9567 88.7151 39.9567Z" fill="#063629"/>
<path opacity="0.15" fill-rule="evenodd" clip-rule="evenodd" d="M88.9121 40.3626C88.9121 40.3626 92.1299 41.093 93.9832 44.1448L94.9047 43.1774C94.9047 43.1774 90.6929 39.45 88.9121 40.3626Z" fill="black"/>
<path d="M88.9729 40.3093C89.5841 40.3326 90.1861 40.4651 90.7507 40.7004C91.8751 41.1315 93.6662 42.133 95.8529 44.4471L91.527 50.0011C90.8438 48.9806 90.249 47.9036 89.7492 46.7819C89.259 45.7125 88.9137 44.5826 88.7225 43.4219C88.5507 42.2397 88.6351 41.1922 88.9729 40.3093ZM88.7151 39.9567C86.8573 44.3359 91.5136 50.6041 91.5136 50.6041L96.324 44.4174C91.7492 39.4604 88.7151 39.9567 88.7151 39.9567Z" fill="#063629"/>
<path d="M103.503 39.1317C105.552 35.1939 107.01 34.2324 107.703 34.0102C107.809 33.9711 107.921 33.9525 108.033 33.9554C110.032 35.2042 110.946 37.8428 111.368 39.8457C111.626 41.0903 111.771 42.3557 111.799 43.6265L103.503 39.1317Z" fill="#36B775"/>
<path d="M107.782 34.2309C107.846 34.207 107.914 34.194 107.982 34.1924C108.788 34.7183 109.478 35.5257 110.034 36.5924C110.552 37.6334 110.927 38.7397 111.149 39.8813C111.377 40.9858 111.516 42.107 111.563 43.2339L103.819 39.0383C105.85 35.1998 107.258 34.3998 107.782 34.2309ZM107.634 33.7865C106.893 34.0235 105.329 35.0457 103.189 39.2235L112.041 44.0176C112.041 44.0176 112.176 36.2042 108.121 33.7302C108.121 33.7228 107.957 33.6902 107.64 33.7909L107.634 33.7865Z" fill="#063629"/>
<path d="M108.121 33.7227C108.121 33.7227 105.364 35.0841 104.531 41.7834L112.044 44.016C112.044 44.016 112.179 36.2027 108.121 33.7227Z" fill="#C2FF89"/>
<path opacity="0.15" fill-rule="evenodd" clip-rule="evenodd" d="M108.197 34.1792C108.197 34.1792 106.007 36.6459 106.281 40.2044L104.969 39.957C104.969 39.957 106.227 34.4666 108.197 34.1792Z" fill="black"/>
<path d="M108.122 34.2841C108.863 34.8027 109.506 35.5775 110.026 36.5864C110.543 37.6278 110.917 38.734 111.14 39.8752C111.376 41.0321 111.518 42.2064 111.562 43.3864L105.036 41.4501C105.471 38.3893 106.317 36.576 106.962 35.5834C107.276 35.0903 107.667 34.6515 108.122 34.2841ZM108.122 33.7227C108.122 33.7227 105.365 35.0841 104.532 41.7834L112.045 44.016C112.045 44.016 112.178 36.2027 108.12 33.7227H108.122Z" fill="#063629"/>
<path d="M110.595 40.9034C106.109 37.4352 100.423 39.3019 99.3461 39.7063C98.2379 40.0115 92.5313 41.8012 90.8928 47.2234C90.8928 47.2234 88.7802 54.3004 90.9846 59.6338C90.9846 59.6338 91.6794 61.5063 95.2809 62.7538C95.2809 62.7538 102.321 65.6071 107.076 63.7745C112.01 62.4975 116.076 56.0812 116.076 56.0812C118.274 52.9701 117.756 51.0441 117.756 51.0441C116.431 45.4293 110.595 40.9034 110.595 40.9034Z" fill="#36B775"/>
<path d="M116.76 48.8455C116.601 48.3857 116.384 47.9484 116.113 47.5447C115.384 47.4721 114.401 47.5581 113.105 47.9655C113.105 47.9655 109.899 49.1981 107.492 51.4959C107.492 51.4959 106.667 49.4766 102.849 50.7359C99.0163 51.921 99.5185 54.0455 99.5185 54.0455C96.2355 53.5818 92.9185 54.4425 92.9185 54.4425C91.6503 54.8573 90.8133 55.3477 90.2637 55.8307C90.3585 56.2855 90.4785 57.244 90.4785 57.244C90.7866 59.1566 91.3111 60.7996 94.3881 62.2262C94.3881 62.2262 101.25 65.4514 106.981 63.6484V63.6722C112.093 62.3729 116.373 55.3255 116.373 55.3255C118.08 52.481 117.816 51.1003 116.76 48.8455Z" fill="#C2FF89"/>
<path opacity="0.15" fill-rule="evenodd" clip-rule="evenodd" d="M117.523 51.2161C117.967 53.7346 115.004 57.2902 115.004 57.2902C110.385 63.1509 107.101 63.582 107.101 63.582C100.338 65.8798 92.6562 61.1628 92.6562 61.1628C100.79 64.985 106.778 62.7583 106.778 62.7583C110.434 61.6606 114.348 56.5717 114.348 56.5717C114.348 56.5717 116.911 53.2783 116.464 51.462C116.464 51.462 115.145 45.3672 111.258 41.8013C111.261 41.788 116.148 45.3998 117.523 51.2161Z" fill="black"/>
<path d="M99.9576 39.9863C101.379 39.5331 102.862 39.3046 104.353 39.3093C106.648 39.3389 108.649 39.9996 110.303 41.2767C111.39 42.1593 112.401 43.1316 113.325 44.1833C114.2 45.1599 114.985 46.2142 115.669 47.333C116.401 48.5146 116.944 49.8039 117.276 51.1537V51.1685C117.337 51.5766 117.326 51.9922 117.245 52.3967C117.115 53.1285 116.731 54.3226 115.675 55.8144V55.8352C114.933 56.9523 114.104 58.0098 113.198 58.9981C111.821 60.5048 109.697 62.4648 107.349 63.2174C107.217 63.2604 107.084 63.2944 106.953 63.3359L106.922 63.3463H106.898C106.771 63.3967 106.639 63.4382 106.509 63.4796C104.159 64.2337 101.295 63.8826 99.2954 63.4515C97.9848 63.1719 96.6971 62.7935 95.4436 62.3196H95.4228C93.6939 61.727 92.691 60.9863 92.1636 60.453C91.8629 60.1703 91.6125 59.8387 91.4228 59.4722V59.4574C90.9131 58.1671 90.6053 56.8059 90.5102 55.4219C90.4109 54.115 90.4332 52.8017 90.5769 51.4989C90.7088 50.1016 90.9606 48.7182 91.3295 47.3641C91.9221 45.3656 93.1665 43.6604 95.0228 42.3018C96.2333 41.4306 97.5724 40.7538 98.9917 40.2959C99.1991 40.2293 99.3562 40.1878 99.4569 40.1478H99.4791L99.5028 40.1404C99.6006 40.1048 99.7547 40.053 99.9576 39.9863ZM99.8095 39.5419C99.6021 39.61 99.4421 39.6693 99.3265 39.7063C99.211 39.7433 99.0465 39.7878 98.8391 39.8544C97.0613 40.4219 92.3325 42.373 90.8762 47.2307C90.8762 47.2307 88.7636 54.3078 90.968 59.6411C90.968 59.6411 91.6613 61.5137 95.2643 62.7596C95.2643 62.7596 101.904 65.4515 106.641 63.9315C106.789 63.8856 106.916 63.8352 107.054 63.7833C107.192 63.7315 107.334 63.7018 107.473 63.6574C112.214 62.1374 116.044 56.0856 116.044 56.0856C118.241 52.9744 117.724 51.0485 117.724 51.0485C116.421 45.4263 110.578 40.9019 110.578 40.9019C106.578 37.7907 101.587 38.9626 99.8184 39.53L99.8095 39.5419Z" fill="#063629"/>
<path d="M104.239 54.4263L103.861 54.5477L104.624 56.927L105.002 56.8055L104.239 54.4263Z" fill="#063629"/>
<path d="M108.088 55.5687C107.94 55.3006 107.759 55.4695 107.759 55.4695C107.297 55.745 106.812 55.9805 106.31 56.1732C105.273 56.5065 104.565 55.7613 104.375 55.5421L104.35 55.4636V55.508C104.335 55.4873 104.323 55.4739 104.323 55.4739L104.347 55.551C104.332 55.8473 104.189 56.8547 103.149 57.188C102.631 57.3224 102.102 57.4121 101.569 57.4561C101.569 57.4561 101.323 57.4324 101.359 57.7287C101.359 57.7287 101.633 60.2473 104.144 60.2932L107.303 59.2813C109.331 57.7776 108.088 55.5687 108.088 55.5687Z" fill="black"/>
<path d="M104.506 56.13L104.591 56.2396L104.598 56.1004C104.847 56.2974 105.141 56.4298 105.454 56.4856C105.767 56.5414 106.089 56.519 106.391 56.4204H106.398C106.903 56.2282 107.391 55.9948 107.857 55.7226C108.04 56.0935 108.153 56.4955 108.188 56.9078C108.25 57.7656 107.908 58.4974 107.182 59.0441L105.657 59.5344L105.635 59.5419L104.116 60.0278C103.199 59.9996 102.506 59.6159 102.057 58.8752C101.844 58.5188 101.7 58.1251 101.634 57.7152C102.171 57.6668 102.703 57.5741 103.225 57.4382H103.241C103.543 57.3413 103.817 57.1712 104.038 56.9429C104.259 56.7147 104.419 56.4354 104.506 56.13ZM104.349 55.4559C104.348 55.4707 104.348 55.4856 104.349 55.5004L104.321 55.4663L104.346 55.5433C104.33 55.8396 104.186 56.847 103.146 57.1804C102.628 57.314 102.1 57.4037 101.567 57.4485C101.539 57.4455 101.512 57.4485 101.485 57.4574C101.416 57.4796 101.337 57.5389 101.356 57.7211C101.356 57.7211 101.631 60.2396 104.143 60.2856L105.706 59.7848H105.736L107.306 59.2796C109.331 57.7789 108.087 55.5759 108.087 55.5759C108.001 55.4144 107.899 55.4144 107.831 55.4367C107.803 55.444 107.779 55.4577 107.758 55.4767C107.296 55.7509 106.812 55.9858 106.311 56.1789C105.274 56.5122 104.564 55.7685 104.374 55.5478L104.349 55.4559Z" fill="#063629"/>
<path d="M104.523 56.0308L104.478 56.2841L104.709 56.21L104.523 56.0308Z" fill="black"/>
<path d="M106.342 61.8279C104.763 62.3346 103.957 61.3835 103.924 61.3346H103.914C103.495 60.8724 103.49 60.065 103.498 59.8531C103.724 59.5419 104.038 59.3048 104.4 59.1716C104.573 59.1173 104.756 59.1024 104.935 59.128C105.115 59.1537 105.286 59.2192 105.437 59.3198L105.647 59.4679L105.736 59.2161C105.802 59.0492 105.904 58.8989 106.035 58.776C106.166 58.6531 106.322 58.5605 106.493 58.505C106.864 58.4023 107.258 58.4121 107.623 58.5331C107.772 58.7094 108.226 59.3539 108.148 59.9835V59.9998C108.148 60.0531 108.044 61.2339 106.575 61.7657C106.496 61.7809 106.418 61.8017 106.342 61.8279Z" fill="#E26767"/>
<path d="M104.458 59.3492C104.602 59.2995 104.755 59.2847 104.905 59.3061C105.055 59.3275 105.198 59.3844 105.322 59.4721L105.741 59.7684L105.925 59.284C105.98 59.1442 106.065 59.0184 106.175 58.9159C106.285 58.8134 106.416 58.7366 106.559 58.6914C106.874 58.6083 107.205 58.6145 107.516 58.7092C107.707 58.9625 108.015 59.5017 107.961 59.9551V59.9832C107.961 60.0529 107.847 61.0588 106.593 61.5462L106.334 61.638L106.287 61.6529C104.863 62.1106 104.131 61.2884 104.087 61.2262V61.2188L104.075 61.2054C103.761 60.8632 103.706 60.2425 103.706 59.9269C103.897 59.6674 104.158 59.4672 104.458 59.3492ZM104.337 58.9699C103.92 59.1254 103.559 59.4013 103.3 59.7625C103.3 59.7625 103.207 60.8484 103.759 61.4558C103.759 61.4558 104.648 62.5669 106.39 62.0084L106.445 61.9906L106.522 61.9669C108.263 61.4084 108.349 59.9832 108.349 59.9832C108.442 59.161 107.737 58.3388 107.737 58.3388C107.313 58.1951 106.856 58.1817 106.424 58.3003C106.225 58.3654 106.042 58.4735 105.888 58.6168C105.735 58.7601 105.614 58.9352 105.535 59.1299C105.36 59.0156 105.162 58.942 104.954 58.9143C104.747 58.8866 104.536 58.9056 104.337 58.9699Z" fill="#892D30"/>
<path d="M105.804 59.2236L105.426 59.3451L106.058 61.3155L106.436 61.194L105.804 59.2236Z" fill="#892D30"/>
<path d="M106.949 59.2485C106.31 59.1893 106.208 60.05 106.208 60.05C106.183 60.2418 106.128 60.4287 106.047 60.6041C105.879 60.5108 105.728 60.389 105.602 60.2441C105.602 60.2441 105.023 59.6041 104.537 60.0233C104.537 60.0233 104.093 60.3522 104.685 61.0693C104.891 61.295 105.157 61.4571 105.452 61.5362C105.747 61.6154 106.059 61.6083 106.35 61.5159C106.641 61.4234 106.9 61.2495 107.095 61.0147C107.291 60.7798 107.415 60.4939 107.453 60.1908C107.497 59.2604 106.949 59.2485 106.949 59.2485Z" fill="#FDA8AC"/>
<path d="M103.262 51.7583C101.993 52.1657 101.104 52.9183 101.273 53.4442C101.569 54.3716 103.542 54.9257 104.135 54.7405C104.727 54.5553 106.16 52.899 105.862 51.9716C105.702 51.4442 104.533 51.3494 103.262 51.7583Z" fill="#000709"/>
<path d="M103.672 53.1092C104.645 52.7966 105.35 52.2766 105.245 51.9477C105.14 51.6188 104.264 51.607 103.29 51.9196C102.315 52.2322 101.611 52.7522 101.718 53.0796C101.824 53.407 102.697 53.4218 103.672 53.1092Z" fill="#808080"/>
<path d="M94.3682 45.2396C94.3682 45.2396 95.7474 44.3211 97.0793 44.8471C97.0689 44.8456 95.6393 43.6145 94.3682 45.2396Z" fill="#023322"/>
<path d="M104.105 42.5835C104.883 41.3806 106.54 41.3257 106.54 41.3257C104.562 40.742 104.105 42.5835 104.105 42.5835Z" fill="#023322"/>
<path d="M98.6759 49.7969C97.8833 47.6606 96.2537 47.5332 96.2537 47.5332C94.3278 47.5332 93.7574 49.5525 93.7574 49.5525C93.5732 50.0911 93.5241 50.6667 93.6142 51.2287C93.7044 51.7908 93.9311 52.3221 94.2744 52.7762C97.1233 51.6754 98.8493 51.8636 98.8493 51.8636C99.2018 51.0932 98.6759 49.7969 98.6759 49.7969Z" fill="#24A462"/>
<path d="M98.1578 49.8513C97.2852 48.0025 95.983 48.2069 95.983 48.2069C94.4526 48.4158 94.2156 50.1106 94.2156 50.1106C94.1576 50.488 94.1838 50.8735 94.2924 51.2395C94.401 51.6055 94.5893 51.943 94.8437 52.2276C97.0867 51.3284 98.5193 51.6099 98.5193 51.6099C98.7237 51.0336 98.1578 49.8513 98.1578 49.8513Z" fill="black"/>
<path d="M94.9722 50.7226C95.0803 50.5863 95.0937 50.4174 95.0033 50.3448C94.9129 50.2722 94.7514 50.3241 94.6433 50.4604C94.5352 50.5967 94.5203 50.7671 94.6122 50.8397C94.704 50.9122 94.864 50.8604 94.9722 50.7226Z" fill="white"/>
<path d="M96.3903 49.0811C96.3473 49.024 96.2834 48.9862 96.2127 48.9759C96.1419 48.9657 96.07 48.9838 96.0125 49.0263L96.0021 49.0352C95.9168 49.1018 95.8198 49.152 95.7162 49.1833C95.7511 49.1639 95.7807 49.1363 95.8026 49.1029C95.8245 49.0695 95.838 49.0313 95.842 48.9916C95.8459 48.9518 95.8401 48.9117 95.8252 48.8747C95.8103 48.8376 95.7866 48.8048 95.7562 48.7789C95.5103 48.5937 95.2569 48.8885 95.2569 48.8885C94.8984 49.3092 95.1532 49.893 95.1532 49.893C95.4789 49.8855 95.7996 49.8114 96.0955 49.6752C96.6066 49.4115 96.3903 49.0811 96.3903 49.0811Z" fill="white"/>
<path d="M109.587 44.4664C109.587 44.4664 107.958 43.1479 106.392 44.2738C106.392 44.2738 105.147 45.3197 105.738 47.533C105.738 47.533 106.064 48.893 106.796 49.3227C106.796 49.3227 108.082 48.1686 111.048 47.4056C111.032 47.3997 111.175 45.5982 109.587 44.4664Z" fill="#24A462"/>
<path d="M109.531 45.188C109.531 45.188 108.358 43.9376 106.983 44.6606C106.983 44.6606 105.812 45.2532 106.181 47.2695C106.181 47.2695 106.411 48.5672 106.903 48.9109C106.903 48.9109 107.904 47.8487 110.252 47.2813C110.297 46.9006 110.255 46.5148 110.13 46.1525C110.005 45.7902 109.8 45.4605 109.531 45.188Z" fill="black"/>
<path d="M106.867 46.5214C106.762 46.4606 106.607 46.5214 106.507 46.6695C106.408 46.8177 106.41 46.9732 106.507 47.0355C106.605 47.0977 106.768 47.0355 106.867 46.8873C106.967 46.7392 106.964 46.5836 106.867 46.5214Z" fill="white"/>
<path d="M108.267 45.271C108.245 45.2425 108.219 45.2185 108.188 45.2003C108.157 45.1822 108.123 45.1703 108.088 45.1653C108.053 45.1604 108.017 45.1625 107.982 45.1714C107.948 45.1804 107.916 45.1962 107.887 45.2177C107.883 45.2193 107.88 45.2218 107.877 45.2251C107.792 45.2911 107.695 45.3413 107.592 45.3733C107.627 45.3538 107.657 45.3262 107.679 45.2928C107.701 45.2594 107.714 45.2212 107.718 45.1815C107.722 45.1418 107.716 45.1017 107.701 45.0646C107.687 45.0276 107.663 44.9947 107.632 44.9688C107.385 44.7836 107.132 45.0784 107.132 45.0784C106.775 45.4992 107.03 46.0829 107.03 46.0829C107.355 46.0756 107.675 46.0015 107.97 45.8651C108.475 45.6044 108.267 45.271 108.267 45.271Z" fill="white"/>
<g opacity="0.1">
<path opacity="0.1" d="M107.661 29.2441C110.873 31.9051 113.255 35.4311 114.524 39.4041C118.212 50.899 111.915 63.2027 100.45 66.8812C96.6141 68.1183 92.5095 68.2604 88.5977 67.2915C91.4137 69.6344 94.7755 71.2284 98.3717 71.9258C101.968 72.6232 105.682 72.4015 109.17 71.2812C120.629 67.6041 126.937 55.3049 123.244 43.8115C122.107 40.2545 120.078 37.048 117.35 34.4978C114.622 31.9477 111.287 30.1389 107.661 29.2441Z" fill="black"/>
</g>
<path fill-rule="evenodd" clip-rule="evenodd" d="M26.1267 58.9925C31.059 57.1075 36.4396 56.7275 41.5879 57.9004C46.7362 59.0734 51.4211 61.7466 55.0501 65.5821C58.6792 69.4175 61.0894 74.243 61.976 79.4483C62.8627 84.6536 62.1858 90.0048 60.0312 94.8255C57.8765 99.6461 54.3408 103.72 49.8711 106.531C45.4014 109.342 40.1985 110.765 34.9203 110.619C29.642 110.473 24.5256 108.765 20.2178 105.712C15.9101 102.658 12.6046 98.3958 10.7193 93.4636C8.19144 86.8493 8.39456 79.5017 11.284 73.0371C14.1734 66.5726 19.5125 61.5206 26.1267 58.9925Z" fill="#EA7F00"/>
<path fill-rule="evenodd" clip-rule="evenodd" d="M26.6556 60.3745C31.3146 58.5932 36.3971 58.2334 41.2605 59.3407C46.124 60.448 50.5498 62.9725 53.9785 66.5952C57.4071 70.2178 59.6845 74.7758 60.5227 79.6928C61.3609 84.6097 60.7222 89.6648 58.6874 94.2188C56.6526 98.7727 53.3131 102.621 49.0912 105.277C44.8693 107.933 39.9546 109.278 34.9686 109.14C29.9826 109.003 25.1493 107.391 21.0797 104.507C17.0102 101.622 13.8873 97.5964 12.106 92.9375C9.71818 86.6905 9.90961 79.7509 12.6382 73.6451C15.3667 67.5393 20.4089 62.7673 26.6556 60.3789V60.3745Z" fill="#F0B90B"/>
<path fill-rule="evenodd" clip-rule="evenodd" d="M27.6967 63.1032C31.8162 61.5287 36.3101 61.2112 40.61 62.1908C44.91 63.1704 48.8229 65.4031 51.8539 68.6065C54.885 71.8099 56.898 75.8402 57.6385 80.1877C58.3789 84.5352 57.8136 89.0047 56.0139 93.0309C54.2142 97.0571 51.261 100.459 47.5278 102.807C43.7945 105.155 39.4489 106.343 35.0405 106.221C30.6321 106.099 26.3588 104.672 22.7611 102.122C19.1634 99.5711 16.4029 96.0109 14.8286 91.8913C13.7831 89.1564 13.2866 86.2422 13.3674 83.3153C13.4482 80.3885 14.1047 77.5062 15.2995 74.833C16.4943 72.1599 18.204 69.7483 20.3308 67.7359C22.4577 65.7236 24.9601 64.1499 27.6952 63.1047L27.6967 63.1032Z" fill="#EA7F00"/>
<path fill-rule="evenodd" clip-rule="evenodd" d="M28.3235 64.7403C32.1189 63.2891 36.2594 62.9958 40.2215 63.8977C44.1835 64.7996 47.7892 66.8561 50.5825 69.8072C53.3758 72.7583 55.2312 76.4714 55.9143 80.477C56.5973 84.4826 56.0772 88.6008 54.4197 92.3108C52.7623 96.0208 50.0419 99.156 46.6026 101.32C43.1633 103.484 39.1596 104.579 35.0977 104.468C31.0358 104.356 27.0982 103.043 23.7828 100.694C20.4674 98.3443 17.9231 95.0646 16.4716 91.2692C15.5079 88.7491 15.0499 86.0639 15.1239 83.3668C15.198 80.6697 15.8025 78.0136 16.9031 75.5501C18.0036 73.0867 19.5786 70.8641 21.5382 69.0094C23.4977 67.1546 25.8033 65.704 28.3235 64.7403Z" fill="#F0B90B"/>
<path d="M24.4257 88.2247L26.9635 94.8113L33.8272 95.9684L35.3087 99.8291L24.4346 98.0128L20.4346 87.5417L24.4346 88.2247H24.4257ZM21.9072 81.6306L23.3754 85.4721L19.3754 84.7891L17.9072 80.9462L20.4332 77.7699L24.4494 78.4469L21.9057 81.6306H21.9072ZM29.1294 76.6573L31.6613 73.4795L35.6791 74.1565L33.1428 77.3402L29.1428 76.6573H29.1294Z" fill="white"/>
<path d="M28.7813 92.5494L27.2998 88.6976L31.2998 89.3805L32.768 93.2235L28.768 92.5583L28.7813 92.5494ZM36.6983 96.4561L40.6983 97.142L43.2391 93.9598L44.7072 97.8013L42.165 100.982L38.165 100.299L36.6983 96.4561ZM40.3546 72.3687L42.8731 69.1909L46.8909 69.868L48.3591 73.7109L45.8183 76.8946L44.3487 73.0517L40.3487 72.3687H40.3546ZM49.3917 86.2398L46.8909 79.6398L49.4094 76.462L53.4094 86.9331L46.5191 95.5376L45.0376 91.6768L49.3798 86.2398H49.3917Z" fill="white"/>
<path d="M46.5308 85.7685L43.9974 88.927L42.5293 85.084L45.0537 81.9062L46.5308 85.7685Z" fill="white"/>
<path d="M42.5338 75.3124L44.0271 79.1642L39.6686 84.6087L42.1945 91.2161L39.6612 94.3805L35.6612 93.7154L33.1427 87.105L26.2627 85.9553L24.7812 82.0946L27.3264 78.9198L34.1797 80.105L38.5323 74.6442L42.5501 75.3213H42.5353L42.5338 75.3124ZM22.2656 75.5035L29.1427 66.8872L40.0227 68.7198L37.4893 71.8976L30.6034 70.7316L26.2671 76.1865L22.2671 75.5035H22.2656Z" fill="white"/>
<path d="M38.7959 51.6932C42.3885 38.268 57.7352 29.5866 71.1544 32.7199C72.0299 32.9288 72.891 33.194 73.7322 33.514C73.2878 33.5688 72.8433 33.6028 72.3989 33.6399C71.2004 33.7525 69.7041 33.9288 68.507 34.111C56.0878 35.994 46.6241 42.0132 38.7944 51.6932H38.7959Z" fill="white"/>
<path d="M66.9492 40.5317L67.6055 25.8828L78.967 33.7302L66.9492 40.5317Z" fill="white"/>
<path d="M99.0515 82.9199C95.4589 96.3407 80.1063 105.022 66.693 101.883C65.8175 101.674 64.9565 101.409 64.1152 101.089C64.5597 101.035 65.0041 101 65.4486 100.964C66.6471 100.85 68.1434 100.668 69.3404 100.492C81.7582 98.6147 91.2175 92.5955 99.0515 82.9199Z" fill="white"/>
<path d="M70.8986 94.0767L70.2423 108.727L58.8809 100.878L70.8986 94.0767Z" fill="white"/>
<path d="M8.12104 62.89C8.20882 60.957 6.71294 59.3188 4.77989 59.231C2.84684 59.1432 1.20863 60.6391 1.12085 62.5722C1.03307 64.5052 2.52896 66.1434 4.46201 66.2312C6.39506 66.319 8.03327 64.8231 8.12104 62.89Z" fill="#F0B90B"/>
<path d="M10.4316 46.3421C11.4846 46.3421 12.3382 45.4885 12.3382 44.4355C12.3382 43.3825 11.4846 42.5288 10.4316 42.5288C9.37855 42.5288 8.5249 43.3825 8.5249 44.4355C8.5249 45.4885 9.37855 46.3421 10.4316 46.3421Z" fill="#F0B90B"/>
<path d="M111.563 19.4725C112.616 19.4725 113.47 18.6189 113.47 17.5658C113.47 16.5128 112.616 15.6592 111.563 15.6592C110.51 15.6592 109.656 16.5128 109.656 17.5658C109.656 18.6189 110.51 19.4725 111.563 19.4725Z" fill="#67C14C"/>
<path d="M119.735 26.6444C120.788 26.6444 121.641 25.7907 121.641 24.7377C121.641 23.6847 120.788 22.8311 119.735 22.8311C118.682 22.8311 117.828 23.6847 117.828 24.7377C117.828 25.7907 118.682 26.6444 119.735 26.6444Z" fill="#67C14C"/>
<path d="M117.324 10.29C118.068 10.29 118.672 9.68646 118.672 8.9419C118.672 8.19734 118.068 7.59375 117.324 7.59375C116.579 7.59375 115.976 8.19734 115.976 8.9419C115.976 9.68646 116.579 10.29 117.324 10.29Z" fill="#67C14C"/>
<defs>
<linearGradient id="paint0_linear_104_6" x1="108.207" y1="69.1553" x2="103.102" y2="37.0735" gradientUnits="userSpaceOnUse">
<stop stop-color="#34B675"/>
<stop offset="1" stop-color="#77C741"/>
</linearGradient>
<linearGradient id="paint1_linear_104_6" x1="95.1801" y1="66.9621" x2="89.8127" y2="33.2407" gradientUnits="userSpaceOnUse">
<stop stop-color="#39B771"/>
<stop offset="1" stop-color="#77C741"/>
</linearGradient>
<linearGradient id="paint2_linear_104_6" x1="102.548" y1="45.3853" x2="100.657" y2="33.5044" gradientUnits="userSpaceOnUse">
<stop stop-color="#67C34C"/>
<stop offset="1" stop-color="#7CC82D"/>
</linearGradient>
</defs>
</svg>
