<svg width="300" height="88" viewBox="0 0 300 88" fill="none" xmlns="http://www.w3.org/2000/svg">
<path d="M119.24 44.6674H123.133V52.7884H120.085V51.8317C119.032 52.6772 117.638 53.0999 115.902 53.0999C114.449 53.0999 113.121 52.7884 111.92 52.1654C110.718 51.5425 109.762 50.6377 109.05 49.451C108.352 48.2496 108.004 46.8182 108.004 45.1569C108.004 43.555 108.375 42.131 109.116 40.8851C109.858 39.6243 110.889 38.6453 112.209 37.9482C113.529 37.251 115.02 36.9025 116.681 36.9025C118.135 36.9025 119.44 37.1472 120.597 37.6367C121.754 38.1262 122.718 38.8307 123.489 39.7504L120.686 42.2868C119.633 41.1298 118.372 40.5513 116.904 40.5513C115.554 40.5513 114.471 40.9667 113.655 41.7973C112.854 42.6131 112.454 43.7256 112.454 45.1347C112.454 46.5586 112.832 47.6488 113.588 48.4053C114.345 49.1618 115.302 49.54 116.459 49.54C117.571 49.54 118.498 49.2434 119.24 48.6501V44.6674Z" fill="#132D55"/>
<path d="M129.753 42.1755C130.183 41.6267 130.74 41.2188 131.422 40.9518C132.119 40.67 132.913 40.5291 133.803 40.5291V44.3337C133.417 44.2892 133.098 44.267 132.846 44.267C131.941 44.267 131.229 44.5117 130.71 45.0012C130.206 45.4907 129.953 46.2397 129.953 47.2484V52.7884H125.726V40.7293H129.753V42.1755Z" fill="#132D55"/>
<path d="M141.891 49.7625C142.469 49.7625 142.966 49.6809 143.381 49.5178C143.812 49.3546 144.242 49.0876 144.672 48.7168L146.875 51.0307C145.732 52.336 144.027 52.9887 141.757 52.9887C140.348 52.9887 139.11 52.7217 138.042 52.1877C136.974 51.6537 136.143 50.9121 135.55 49.9628C134.971 49.0135 134.682 47.9381 134.682 46.7366C134.682 45.55 134.971 44.4894 135.55 43.555C136.128 42.6057 136.922 41.864 137.93 41.3301C138.954 40.7961 140.096 40.5291 141.357 40.5291C142.529 40.5291 143.596 40.7738 144.561 41.2633C145.54 41.738 146.318 42.4425 146.897 43.377C147.475 44.2966 147.765 45.3942 147.765 46.6699L139.154 48.3163C139.614 49.2805 140.526 49.7625 141.891 49.7625ZM141.379 43.5327C140.652 43.5327 140.059 43.7626 139.599 44.2225C139.139 44.6674 138.88 45.3127 138.82 46.1581L143.715 45.2014C143.567 44.6971 143.285 44.2966 142.87 44C142.454 43.6885 141.957 43.5327 141.379 43.5327Z" fill="#132D55"/>
<path d="M156.166 49.7625C156.744 49.7625 157.241 49.6809 157.657 49.5178C158.087 49.3546 158.517 49.0876 158.947 48.7168L161.15 51.0307C160.008 52.336 158.302 52.9887 156.032 52.9887C154.623 52.9887 153.385 52.7217 152.317 52.1877C151.249 51.6537 150.418 50.9121 149.825 49.9628C149.246 49.0135 148.957 47.9381 148.957 46.7366C148.957 45.55 149.246 44.4894 149.825 43.555C150.403 42.6057 151.197 41.864 152.205 41.3301C153.229 40.7961 154.371 40.5291 155.632 40.5291C156.804 40.5291 157.872 40.7738 158.836 41.2633C159.815 41.738 160.593 42.4425 161.172 43.377C161.75 44.2966 162.04 45.3942 162.04 46.6699L153.429 48.3163C153.889 49.2805 154.801 49.7625 156.166 49.7625ZM155.654 43.5327C154.927 43.5327 154.334 43.7626 153.874 44.2225C153.414 44.6674 153.155 45.3127 153.095 46.1581L157.99 45.2014C157.842 44.6971 157.56 44.2966 157.145 44C156.73 43.6885 156.233 43.5327 155.654 43.5327Z" fill="#132D55"/>
<path d="M171.843 40.5291C173.341 40.5291 174.542 40.9741 175.447 41.864C176.367 42.754 176.827 44.0964 176.827 45.8911V52.7884H172.599V46.5809C172.599 44.9344 171.939 44.1112 170.619 44.1112C169.892 44.1112 169.306 44.3485 168.861 44.8232C168.431 45.2978 168.216 46.0098 168.216 46.9591V52.7884H163.989V40.7293H168.016V42.042C168.49 41.5525 169.054 41.1817 169.707 40.9296C170.359 40.6626 171.071 40.5291 171.843 40.5291Z" fill="#132D55"/>
<path d="M191.629 53.0999C190.368 53.0999 189.145 52.9442 187.958 52.6327C186.771 52.3212 185.807 51.9059 185.066 51.3867L186.512 48.1383C187.209 48.5981 188.017 48.969 188.937 49.2508C189.857 49.5326 190.761 49.6735 191.651 49.6735C193.342 49.6735 194.188 49.2508 194.188 48.4053C194.188 47.9603 193.943 47.634 193.454 47.4263C192.979 47.2039 192.208 46.9739 191.14 46.7366C189.968 46.4845 188.989 46.2175 188.203 45.9356C187.417 45.639 186.742 45.1718 186.178 44.5339C185.614 43.8961 185.333 43.0358 185.333 41.953C185.333 41.0037 185.592 40.1508 186.111 39.3944C186.63 38.6231 187.402 38.0149 188.425 37.5699C189.463 37.1249 190.732 36.9025 192.23 36.9025C193.253 36.9025 194.262 37.0211 195.256 37.2584C196.249 37.4809 197.125 37.8147 197.881 38.2597L196.524 41.5303C195.041 40.7293 193.602 40.3288 192.208 40.3288C191.332 40.3288 190.695 40.4623 190.294 40.7293C189.894 40.9815 189.693 41.3152 189.693 41.7305C189.693 42.1459 189.931 42.4574 190.405 42.665C190.88 42.8727 191.644 43.0877 192.697 43.3102C193.884 43.5624 194.863 43.8368 195.634 44.1335C196.42 44.4153 197.095 44.8751 197.659 45.5129C198.237 46.1359 198.526 46.9888 198.526 48.0716C198.526 49.006 198.267 49.8515 197.748 50.608C197.228 51.3645 196.45 51.9726 195.411 52.4324C194.373 52.8774 193.112 53.0999 191.629 53.0999Z" fill="#132D55"/>
<path d="M208.215 40.5291C209.713 40.5291 210.915 40.9741 211.819 41.864C212.739 42.754 213.199 44.0964 213.199 45.8911V52.7884H208.971V46.5809C208.971 44.9344 208.311 44.1112 206.991 44.1112C206.264 44.1112 205.679 44.3485 205.234 44.8232C204.803 45.2978 204.588 46.0098 204.588 46.9591V52.7884H200.361V36.2795H204.588V41.8418C205.048 41.4116 205.59 41.0853 206.213 40.8628C206.836 40.6403 207.503 40.5291 208.215 40.5291Z" fill="#132D55"/>
<path d="M215.853 40.7293H220.08V52.7884H215.853V40.7293ZM217.967 39.3944C217.195 39.3944 216.572 39.1793 216.098 38.7491C215.623 38.319 215.386 37.785 215.386 37.1472C215.386 36.5094 215.623 35.9754 216.098 35.5453C216.572 35.1151 217.195 34.9 217.967 34.9C218.738 34.9 219.361 35.1077 219.836 35.523C220.31 35.9235 220.548 36.4426 220.548 37.0804C220.548 37.7479 220.31 38.3042 219.836 38.7491C219.361 39.1793 218.738 39.3944 217.967 39.3944Z" fill="#132D55"/>
<path d="M230.415 40.5291C231.512 40.5291 232.506 40.7812 233.396 41.2856C234.301 41.7899 235.013 42.5167 235.532 43.466C236.066 44.4005 236.333 45.4907 236.333 46.7366C236.333 47.9826 236.066 49.0802 235.532 50.0295C235.013 50.9788 234.301 51.713 233.396 52.2322C232.506 52.7365 231.512 52.9887 230.415 52.9887C228.827 52.9887 227.641 52.5214 226.855 51.587V52.7884H222.828V36.2795H227.055V41.775C227.871 40.9444 228.991 40.5291 230.415 40.5291ZM229.525 49.629C230.266 49.629 230.874 49.3769 231.349 48.8725C231.824 48.3534 232.061 47.6414 232.061 46.7366C232.061 45.8467 231.824 45.1495 231.349 44.6452C230.874 44.1409 230.266 43.8887 229.525 43.8887C228.783 43.8887 228.175 44.1409 227.7 44.6452C227.225 45.1495 226.988 45.8467 226.988 46.7366C226.988 47.6414 227.225 48.3534 227.7 48.8725C228.175 49.3769 228.783 49.629 229.525 49.629Z" fill="#132D55"/>
<path d="M251.047 40.7293V52.7884H247.019V51.587C246.233 52.5214 245.047 52.9887 243.46 52.9887C242.362 52.9887 241.361 52.7365 240.456 52.2322C239.566 51.713 238.854 50.9788 238.32 50.0295C237.801 49.0802 237.541 47.9826 237.541 46.7366C237.541 45.4907 237.801 44.4005 238.32 43.466C238.854 42.5167 239.566 41.7899 240.456 41.2856C241.361 40.7812 242.362 40.5291 243.46 40.5291C244.883 40.5291 246.003 40.9444 246.819 41.775V40.7293H251.047ZM244.35 49.629C245.091 49.629 245.699 49.3769 246.174 48.8725C246.649 48.3534 246.886 47.6414 246.886 46.7366C246.886 45.8467 246.649 45.1495 246.174 44.6452C245.699 44.1409 245.091 43.8887 244.35 43.8887C243.608 43.8887 243 44.1409 242.525 44.6452C242.05 45.1495 241.813 45.8467 241.813 46.7366C241.813 47.6414 242.05 48.3534 242.525 48.8725C243 49.3769 243.608 49.629 244.35 49.629Z" fill="#132D55"/>
<path d="M266.651 40.6181V49.3843H269.165V52.7884H259.709V49.3843H262.245V40.6181H259.709V37.2139H269.165V40.6181H266.651Z" fill="#132D55"/>
<path d="M279.2 40.5291C280.698 40.5291 281.899 40.9741 282.804 41.864C283.724 42.754 284.183 44.0964 284.183 45.8911V52.7884H279.956V46.5809C279.956 44.9344 279.296 44.1112 277.976 44.1112C277.249 44.1112 276.663 44.3485 276.218 44.8232C275.788 45.2978 275.573 46.0098 275.573 46.9591V52.7884H271.346V40.7293H275.373V42.042C275.847 41.5525 276.411 41.1817 277.064 40.9296C277.716 40.6626 278.428 40.5291 279.2 40.5291Z" fill="#132D55"/>
<path d="M299.52 40.7293V52.7884H295.493V51.498C295.048 51.9874 294.514 52.3583 293.891 52.6104C293.268 52.8626 292.608 52.9887 291.91 52.9887C290.353 52.9887 289.107 52.5288 288.173 51.6092C287.253 50.6896 286.793 49.3101 286.793 47.4708V40.7293H291.02V46.7811C291.02 47.6859 291.191 48.346 291.532 48.7613C291.873 49.1766 292.37 49.3843 293.023 49.3843C293.69 49.3843 294.232 49.1544 294.647 48.6946C295.077 48.2199 295.292 47.5005 295.292 46.5364V40.7293H299.52Z" fill="#132D55"/>
<path d="M78.1397 19.7308C78.1397 19.7308 80.9989 28.992 71.1141 38.626C68.8267 40.8627 66.0958 43.4721 63.3065 46.3495C63.3065 46.3495 51.5544 54.8535 50.6674 74.4592C50.6674 74.4592 44.7388 77.6978 35.9276 78.8394C35.9276 78.8394 45.6257 80.412 59.7938 72.7118C59.7938 72.7118 71.8143 66.5028 75.8523 55.1913L69.8887 56.9387L81.1157 43.2741L84.0216 52.7333L79.9837 54.0496C79.9837 54.0496 73.3081 83.9068 40.8525 84.3612C40.8525 84.3612 18.3752 85.6659 4.25391 68.821C12.3999 80.3655 27.5482 87.3317 40.8525 87.3317C66.2008 87.3317 86.7408 66.9571 86.7408 43.6236C86.7291 37.4611 84.7335 27.6524 78.1397 19.7308Z" fill="url(#paint0_linear_101_6)"/>
<path d="M25.1087 61.6555C24.9103 58.9063 24.6885 55.6561 24.3385 52.208C24.3385 52.208 25.2604 39.7315 12.7731 28.2336C12.7731 28.2336 13.9283 22.5255 18.0831 16.0834C18.0831 16.0834 11.6409 21.5935 8.85171 35.2232C8.85171 35.2232 6.44759 47.0472 11.6643 55.9939L14.8737 50.2159L16.4259 65.4882L8.93339 61.4225L10.0538 59.3489C10.0538 59.3489 -6.07481 37.8909 11.711 16.2582C11.711 16.2582 23.3698 0.717975 42.3577 0.787866C30.1971 -0.272218 17.1495 5.83202 9.7504 14.6039C-4.35926 31.2974 -2.32859 56.1687 13.1114 69.1576C17.2078 72.6059 24.7936 76.7413 33.7099 76.8112C33.6982 76.8112 25.984 73.5262 25.1087 61.6555Z" fill="url(#paint1_linear_101_6)"/>
<path d="M34.0825 12.5762C34.0825 12.5762 47.3985 2.96548 63.5621 13.9391C63.5621 13.9391 68.1137 16.5952 73.2953 23.2236C72.8285 22.5014 70.4944 17.2009 64.9509 12.7975C52.4868 2.53446 35.1212 5.24875 26.205 14.1954C23.3924 16.9213 19.6811 22.4897 19.0977 28.8968C19.0977 28.8968 22.1786 23.5614 31.1182 23.6546C33.5457 23.678 35.2379 23.5498 38.2372 23.6896C38.2372 23.6896 47.6086 25.2972 57.2951 16.4904C57.2951 16.4904 61.053 17.6669 65.6395 21.0568C65.6395 21.0568 61.8932 16.0826 51.8567 13.2285C51.8567 13.2285 43.5239 10.6191 36.2298 13.9625L40.1278 16.8165L28.7374 16.9912L32.1453 11.6209L34.0825 12.5762Z" fill="url(#paint2_linear_101_6)"/>
<path d="M18.3642 34.5718C17.9324 33.1156 17.0688 29.8888 16.6837 26.1727C16.2052 21.5945 16.3569 15.3155 19.788 11.2732C19.893 11.2382 20.1381 11.1683 20.5466 11.1683C22.1921 11.1683 25.9967 12.2284 33.139 19.2413L18.3642 34.5718Z" fill="#35B975"/>
<path d="M20.5347 11.6913C21.7717 11.6913 25.3546 12.4486 32.3802 19.2517L18.6208 33.5455C17.4537 29.2585 15.0262 17.8772 20.0796 11.7263C20.1729 11.7147 20.3246 11.6913 20.5347 11.6913ZM20.5347 10.6429C19.7877 10.6429 19.4494 10.8526 19.4494 10.8526C12.4354 18.9489 18.1188 35.5725 18.1188 35.5725L33.8507 19.2401C26.3583 11.7612 22.2969 10.6429 20.5347 10.6429Z" fill="#083629"/>
<path d="M18.409 34.7462C18.0005 33.3832 17.0786 30.0515 16.6701 26.1722C16.1916 21.6523 16.3433 15.4782 19.646 11.4359C20.2063 11.599 21.6183 12.1115 23.4506 13.5677C25.6446 15.3035 28.9007 18.7749 32.0868 25.4616L18.409 34.7462Z" fill="#C4FF8B"/>
<path d="M19.8345 12.0401C20.488 12.2731 21.7017 12.8206 23.2189 14.0438C25.2963 15.7213 28.3772 19.018 31.4232 25.2737L18.7258 33.8943C18.2706 32.2867 17.547 29.3859 17.2086 26.0891C16.9052 23.1885 16.9519 20.5557 17.337 18.2725C17.7454 15.7679 18.5974 13.671 19.8345 12.0401ZM19.4494 10.8519C12.4354 18.9481 18.1188 35.5718 18.1188 35.5718L32.742 25.6349C26.3233 11.8771 19.4494 10.8519 19.4494 10.8519Z" fill="#083629"/>
<path opacity="0.15" fill-rule="evenodd" clip-rule="evenodd" d="M19.6016 11.8543C19.6016 11.8543 26.0204 15.6402 27.8993 23.4336L30.5485 22.0007C30.5485 22.0007 24.0598 11.1203 19.6016 11.8543Z" fill="black"/>
<path d="M19.7528 11.7722C20.383 11.9819 21.6784 12.5177 23.324 13.8341C25.4479 15.5349 28.6107 18.9132 31.715 25.367L18.574 34.2903C18.1305 32.7643 17.337 29.7005 16.9636 26.1707C16.66 23.2468 16.6951 20.5907 17.0802 18.2725C17.5354 15.6281 18.4224 13.4497 19.7528 11.7722ZM19.4494 10.8519C12.4354 18.9481 18.1188 35.5718 18.1188 35.5718L32.742 25.6349C26.3233 11.8771 19.4494 10.8519 19.4494 10.8519Z" fill="#083629"/>
<path d="M51.8457 19.2393C58.9764 12.2149 62.7809 11.1548 64.4264 11.1548C64.8349 11.1548 65.08 11.2247 65.1851 11.2596C68.6162 15.3019 68.7679 21.5809 68.2894 26.159C67.9043 29.8752 67.0406 33.1021 66.6088 34.5582L51.8457 19.2393Z" fill="#35B975"/>
<path d="M64.4254 11.6913C64.6354 11.6913 64.7872 11.7147 64.8805 11.738C66.2577 13.4155 67.1796 15.6055 67.6347 18.2849C68.0199 20.5681 68.0665 23.2009 67.7631 26.1015C67.448 29.1653 66.7945 31.8912 66.3394 33.5571L52.5799 19.2517C59.6055 12.4369 63.1883 11.6913 64.4254 11.6913ZM64.4254 10.6429C62.6631 10.6429 58.6018 11.7612 51.1094 19.2401L66.8412 35.5841C66.8412 35.5841 72.5247 18.9489 65.5108 10.8526C65.5108 10.841 65.184 10.6429 64.4254 10.6429Z" fill="#083629"/>
<path d="M65.5115 10.8402C65.5115 10.8402 58.6376 11.8653 52.2188 25.6348L66.8419 35.5717C66.8419 35.5717 72.5254 18.9365 65.5115 10.8402Z" fill="#C4FF8B"/>
<path opacity="0.15" fill-rule="evenodd" clip-rule="evenodd" d="M65.3727 11.8543C65.3727 11.8543 58.9656 15.6402 57.0867 23.4336L54.4375 22.0007C54.4258 22.0007 60.9146 11.1203 65.3727 11.8543Z" fill="black"/>
<path d="M65.1264 12.0401C66.3634 13.671 67.2153 15.7679 67.6354 18.2725C68.0206 20.5557 68.0673 23.1884 67.7638 26.0892C67.4254 29.3859 66.7018 32.2866 66.2467 33.8942L53.5492 25.2621C56.5952 18.9947 59.6762 15.698 61.7536 14.0205C63.2707 12.8206 64.4728 12.2731 65.1264 12.0401ZM65.5115 10.8402C65.5115 10.8402 58.6376 11.8653 52.2188 25.6348L66.8419 35.5717C66.8419 35.5717 72.5254 18.9365 65.5115 10.8402Z" fill="#083629"/>
<path d="M65.8746 27.906C58.6156 17.3983 45.0895 17.4916 42.487 17.608C39.8845 17.4916 26.3583 17.3983 19.0993 27.906C19.0993 27.906 9.65787 41.6056 10.7316 54.548C10.7316 54.548 10.9417 59.0447 17.8156 64.182C17.8156 64.182 30.9916 75.1323 42.487 74.48C53.9823 75.1323 67.1583 64.182 67.1583 64.182C74.0322 59.0447 74.2423 54.548 74.2423 54.548C75.316 41.6056 65.8746 27.906 65.8746 27.906Z" fill="#35B975"/>
<path d="M73.6708 49.1427C73.6708 49.1427 73.6474 47.3488 73.1689 45.9042C71.6517 45.2519 69.481 44.751 66.4 44.7276C66.4 44.7276 58.6508 45.1703 51.8936 48.4321C51.8936 48.4321 51.5085 43.5394 42.4288 43.621C33.3609 43.5277 32.9758 48.4204 32.9758 48.4204C26.2303 45.1703 18.4927 44.7276 18.4927 44.7276C15.4701 44.751 13.3343 45.2286 11.8172 45.8693C11.7122 46.9177 11.3037 49.0379 11.3037 49.0379C10.6502 53.3481 10.6502 57.2157 16.2753 62.388C16.2753 62.388 28.8094 74.014 42.3705 74.0839V74.1421C54.2744 74.8644 68.349 62.7258 68.349 62.7258C73.9974 57.8564 74.3826 54.7227 73.6708 49.1427Z" fill="#C4FF8B"/>
<path opacity="0.15" fill-rule="evenodd" clip-rule="evenodd" d="M73.6702 54.7685C72.8999 60.4534 64.0537 66.0217 64.0537 66.0217C50.0725 75.3994 42.7084 74.0714 42.7084 74.0714C26.5682 74.351 13.2988 58.9622 13.2988 58.9622C28.167 72.7434 42.5917 72.0793 42.5917 72.0793C51.2162 72.2424 63.1551 64.0296 63.1551 64.0296C63.1551 64.0296 70.951 58.7292 71.231 54.5471C71.231 54.5471 72.6082 40.5913 66.7029 30.2816C66.7029 30.27 74.7206 41.3602 73.6702 54.7685Z" fill="black"/>
<path d="M43.6306 18.6348C45.568 18.6348 49.4309 18.8445 53.5506 20.2074C58.4755 21.85 62.3268 24.6342 64.9994 28.5018C65.0226 28.5367 67.3334 31.9033 69.4924 36.796C70.7645 39.6618 71.7215 42.4809 72.3634 45.1602C73.1453 48.492 73.4254 51.6139 73.192 54.4564V54.468V54.4913C73.1803 54.5729 73.0753 55.5747 72.2701 57.1008C71.4764 58.5803 69.8426 60.8635 66.5282 63.3331L66.5048 63.3448L66.4814 63.3564C66.4465 63.3798 63.3654 65.9309 58.9773 68.4356C54.9744 70.7188 49.0458 73.4448 43.479 73.4448C43.1639 73.4448 42.8488 73.4331 42.5453 73.4214H42.4869H42.4286C42.1252 73.4331 41.8101 73.4448 41.495 73.4448C35.9281 73.4448 29.9996 70.7188 25.9966 68.4356C21.6085 65.9309 18.5275 63.3798 18.4925 63.3564L18.4692 63.3448L18.4458 63.3331C15.1314 60.8635 13.4975 58.5803 12.7039 57.1008C11.8987 55.5863 11.782 54.5961 11.782 54.4913V54.4564C11.5485 51.6256 11.8286 48.5036 12.6106 45.1835C13.2408 42.5042 14.1978 39.6968 15.4699 36.831C17.6289 31.9266 19.9513 28.5367 19.9746 28.5018C22.6472 24.6342 26.4868 21.85 31.4234 20.2074C35.543 18.8328 39.406 18.6348 41.3432 18.6348C41.8335 18.6348 42.2069 18.6464 42.4403 18.6581H42.4869H42.5337C42.7671 18.6464 43.1405 18.6348 43.6306 18.6348ZM43.6306 17.5863C43.1405 17.5863 42.7554 17.598 42.4869 17.6097C42.2186 17.598 41.8218 17.5863 41.3432 17.5863C37.1419 17.5863 25.6114 18.495 19.1111 27.9076C19.1111 27.9076 9.66959 41.6072 10.7433 54.5496C10.7433 54.5496 10.9534 59.0462 17.8273 64.1835C17.8273 64.1835 30.2563 74.5164 41.5067 74.5164C41.8451 74.5164 42.1718 74.5049 42.4986 74.4932C42.8254 74.5164 43.1639 74.5164 43.4907 74.5164C54.7293 74.5164 67.1701 64.1835 67.1701 64.1835C74.044 59.0462 74.254 54.5496 74.254 54.5496C75.3278 41.6072 65.8863 27.9076 65.8863 27.9076C59.3741 18.495 47.832 17.5863 43.6306 17.5863Z" fill="#083629"/>
<path d="M42.8595 52.5101H41.9609V58.1251H42.8595V52.5101Z" fill="#073629"/>
<path d="M50.3527 57.589C50.2244 56.9134 49.7108 57.1463 49.7108 57.1463C48.3338 57.5308 46.1164 57.6589 46.1164 57.6589C43.6423 57.6589 42.6385 55.5854 42.3935 54.968V54.7932C42.3935 54.7932 42.3818 54.8282 42.3585 54.8864C42.3351 54.8282 42.3234 54.7932 42.3234 54.7932V54.968C42.0784 55.597 41.0864 57.6589 38.6123 57.6589C38.6123 57.6589 36.4065 57.5308 35.0294 57.1463C35.0294 57.1463 34.5159 56.9251 34.3875 57.589C34.3875 57.589 33.2321 63.1807 38.6123 64.998H46.1047C51.5081 63.1807 50.3527 57.589 50.3527 57.589Z" fill="black"/>
<path d="M42.2632 56.3427L42.3682 56.6339L42.4732 56.3427C43.1151 57.2396 44.2472 58.2531 46.1144 58.2531H46.1261H46.1378C46.2311 58.2531 48.3317 58.125 49.7556 57.7523C49.7906 57.9735 49.9774 59.1734 49.6506 60.5247C49.1954 62.4119 47.9583 63.7283 46.0094 64.4156H42.3915H42.3332H38.727C36.778 63.7283 35.5526 62.4236 35.0974 60.5247C34.7707 59.1851 34.9458 57.9735 34.9924 57.7523C36.4163 58.125 38.5053 58.2531 38.5986 58.2531H38.6103H38.622C40.4893 58.2531 41.6213 57.2396 42.2632 56.3427ZM42.3915 54.7816C42.3915 54.7816 42.3799 54.8166 42.3565 54.8749C42.3332 54.8166 42.3215 54.7816 42.3215 54.7816V54.9564C42.0765 55.5855 41.0844 57.6474 38.6103 57.6474C38.6103 57.6474 36.4046 57.5192 35.0274 57.1348C35.0274 57.1348 34.9458 57.0999 34.8407 57.0999C34.6773 57.0999 34.4672 57.1814 34.3855 57.5775C34.3855 57.5775 33.2302 63.1691 38.6103 64.9864H42.3215H42.3799H46.1027C51.4945 63.1691 50.3391 57.5775 50.3391 57.5775C50.2574 57.1698 50.0473 57.0999 49.884 57.0999C49.779 57.0999 49.6972 57.1348 49.6972 57.1348C48.3202 57.5192 46.1027 57.6474 46.1027 57.6474C43.6286 57.6474 42.6249 55.5738 42.3799 54.9564V54.7816H42.3915Z" fill="#073629"/>
<path d="M42.3699 56.1449L42.0898 56.6458H42.6383L42.3699 56.1449Z" fill="black"/>
<path d="M42.2774 69.7962C38.5312 69.7962 37.4574 67.1984 37.4108 67.0819L37.3991 67.0586C36.8156 65.7773 37.3641 64.0531 37.5274 63.5871C38.3794 63.028 39.1963 62.7484 39.9432 62.7484C41.2387 62.7484 41.9506 63.5988 42.079 63.7735L42.429 64.2395L42.7909 63.7735C42.9193 63.6105 43.6428 62.7717 44.9149 62.7717C45.6618 62.7717 46.4671 63.0513 47.3306 63.6105C47.5058 64.0764 48.0542 65.7889 47.459 67.0703V67.0819V67.0936C47.4124 67.1984 46.3854 69.6681 42.8492 69.7962C42.8492 69.7962 42.324 69.7962 42.2774 69.7962Z" fill="#E46767"/>
<path d="M39.9423 63.2039C41.0511 63.2039 41.6579 63.9611 41.7162 64.0544L42.4164 64.9863L43.1401 64.066C43.2451 63.9262 43.852 63.2273 44.9139 63.2273C45.5325 63.2273 46.221 63.4603 46.9563 63.9146C47.1897 64.5902 47.4815 65.9532 47.0496 66.8968L47.038 66.9084L47.0263 66.9434C46.968 67.0832 46.046 69.1684 43 69.3548L42.3698 69.3664C42.3347 69.3664 42.2998 69.3664 42.2648 69.3664C38.892 69.3664 37.8766 67.0949 37.8183 66.9434V66.9318L37.8067 66.8968C37.3748 65.9415 37.6783 64.5786 37.9 63.9029C38.6469 63.437 39.3238 63.2039 39.9423 63.2039ZM39.9423 62.307C39.1837 62.307 38.2617 62.5632 37.1648 63.2972C37.1648 63.2972 36.2194 65.5572 36.9896 67.2462C36.9896 67.2462 38.145 70.2402 42.2764 70.2402C42.3114 70.2402 42.3581 70.2402 42.4048 70.2402C42.4631 70.2402 42.5215 70.2402 42.5915 70.2402C46.7228 70.2402 47.8899 67.2462 47.8899 67.2462C48.6602 65.5572 47.7149 63.3088 47.7149 63.3088C46.6178 62.5749 45.6842 62.3186 44.9256 62.3186C43.4551 62.3186 42.6265 63.2738 42.4398 63.4952C42.2998 63.3205 41.4595 62.307 39.9423 62.307Z" fill="#8B2D30"/>
<path d="M42.9181 63.8578H42.0195V68.5175H42.9181V63.8578Z" fill="#8B2D30"/>
<path d="M45.3687 64.6957C44.0266 64.125 43.2097 65.8956 43.2097 65.8956C42.7429 66.7577 42.4861 66.9674 42.4861 66.9674C42.4861 66.9674 42.2293 66.7577 41.7742 65.8956C41.7742 65.8956 40.969 64.125 39.6268 64.6957C39.6268 64.6957 38.4598 65.1035 39.2067 67.0256C39.2067 67.0256 39.9186 69.1225 42.4861 69.1225C45.0652 69.1225 45.7771 67.0373 45.7771 67.0373C46.5357 65.1035 45.3687 64.6957 45.3687 64.6957Z" fill="#FFAAAE"/>
<path d="M42.6141 46.1156C39.6031 46.1156 37.1641 47.1174 37.1641 48.3522C37.1641 50.5423 41.0153 53.1052 42.4274 53.1052C43.8045 53.1052 48.0526 50.554 48.0526 48.3522C48.0642 47.1174 45.6251 46.1156 42.6141 46.1156Z" fill="#000709"/>
<path d="M42.5569 49.2943C44.8708 49.2943 46.7466 48.6631 46.7466 47.8847C46.7466 47.1062 44.8708 46.4751 42.5569 46.4751C40.243 46.4751 38.3672 47.1062 38.3672 47.8847C38.3672 48.6631 40.243 49.2943 42.5569 49.2943Z" fill="#808080"/>
<path d="M27.957 26.0418C27.957 26.0418 31.5515 25.0284 34.0606 27.0553C34.0606 27.0553 31.82 23.4441 27.957 26.0418Z" fill="#003323"/>
<path d="M50.7598 27.0563C53.2689 25.006 56.8635 26.0312 56.8635 26.0312C53.0005 23.4217 50.7598 27.0563 50.7598 27.0563Z" fill="#003323"/>
<path d="M34.0832 38.7643C33.8382 33.6385 30.4303 32.2523 30.4303 32.2523C26.2757 30.9126 23.6732 34.8618 23.6732 34.8618C21.024 38.3798 22.5645 42.1193 22.5645 42.1193C29.4618 41.7232 33.0445 43.3075 33.0445 43.3075C34.3283 41.9096 34.0832 38.7643 34.0832 38.7643Z" fill="#23A662"/>
<path d="M32.9285 38.5297C32.3217 33.9748 29.3807 33.5088 29.3807 33.5088C25.9379 32.903 24.269 36.3745 24.269 36.3745C22.962 39.0073 24.1524 41.3371 24.1524 41.3371C29.6024 40.9527 32.4967 42.537 32.4967 42.537C33.337 41.4537 32.9285 38.5297 32.9285 38.5297Z" fill="black"/>
<path d="M25.4743 38.2103C25.8009 37.9919 25.9494 37.6415 25.8059 37.4277C25.6625 37.2139 25.2814 37.2176 24.9547 37.436C24.6281 37.6545 24.4796 38.0048 24.623 38.2187C24.7665 38.4324 25.1476 38.4287 25.4743 38.2103Z" fill="white"/>
<path d="M29.6607 35.6665C29.4623 35.0841 28.8555 35.3054 28.8555 35.3054C28.4821 35.4336 28.1436 35.4219 28.1436 35.4219C28.8555 35.1657 28.5054 34.5832 28.5054 34.5832C28.0969 34.0123 27.3616 34.4667 27.3616 34.4667C26.2997 35.119 26.4397 36.5519 26.4397 36.5519C27.3967 36.8897 28.6105 36.7266 28.6105 36.7266C29.8942 36.5169 29.6607 35.6665 29.6607 35.6665Z" fill="white"/>
<path d="M61.2296 34.8501C61.2296 34.8501 58.6271 30.9009 54.4841 32.2406C54.4841 32.2406 51.0762 33.6268 50.8312 38.7642C50.8312 38.7642 50.5861 41.9095 51.8699 43.319C51.8699 43.319 55.441 41.7347 62.3382 42.1308C62.3382 42.1192 63.8787 38.3681 61.2296 34.8501Z" fill="#23A662"/>
<path d="M60.6352 36.3645C60.6352 36.3645 58.9663 32.8814 55.5235 33.4871C55.5235 33.4871 52.5942 33.9415 51.9874 38.5196C51.9874 38.5196 51.5789 41.4553 52.4075 42.527C52.4075 42.527 55.3018 40.9428 60.7402 41.3271C60.7518 41.3388 61.9423 38.9972 60.6352 36.3645Z" fill="black"/>
<path d="M53.9701 37.3893C53.795 37.1911 53.4099 37.2261 53.0948 37.4592C52.7797 37.6921 52.6746 38.0416 52.8381 38.2396C53.0131 38.4377 53.3982 38.4027 53.7133 38.1697C54.0284 37.9368 54.1451 37.5873 53.9701 37.3893Z" fill="white"/>
<path d="M57.8561 35.6665C57.6577 35.0841 57.0508 35.3054 57.0508 35.3054C56.6774 35.4336 56.3389 35.4219 56.3389 35.4219C57.0508 35.1657 56.7007 34.5832 56.7007 34.5832C56.2922 34.0123 55.557 34.4667 55.557 34.4667C54.4949 35.119 54.635 36.5519 54.635 36.5519C55.592 36.8897 56.8057 36.7266 56.8057 36.7266C58.0778 36.5169 57.8561 35.6665 57.8561 35.6665Z" fill="white"/>
<defs>
<linearGradient id="paint0_linear_101_6" x1="40.7339" y1="87.8141" x2="52.1474" y2="15.6215" gradientUnits="userSpaceOnUse">
<stop stop-color="#32B875"/>
<stop offset="1" stop-color="#78C940"/>
</linearGradient>
<linearGradient id="paint1_linear_101_6" x1="14.2894" y1="74.0751" x2="26.2779" y2="-1.7543" gradientUnits="userSpaceOnUse">
<stop stop-color="#39B971"/>
<stop offset="1" stop-color="#78C940"/>
</linearGradient>
<linearGradient id="paint2_linear_101_6" x1="45.0726" y1="33.0035" x2="49.2966" y2="6.28538" gradientUnits="userSpaceOnUse">
<stop stop-color="#69C54B"/>
<stop offset="1" stop-color="#7DCA2D"/>
</linearGradient>
</defs>
</svg>
