<svg width="312" height="100" viewBox="0 0 312 100" fill="none" xmlns="http://www.w3.org/2000/svg">
<path d="M131.48 49.326H135.373V57.447H132.325V56.4903C131.272 57.3357 129.878 57.7585 128.142 57.7585C126.689 57.7585 125.361 57.447 124.16 56.824C122.958 56.201 122.001 55.2962 121.289 54.1096C120.592 52.9081 120.244 51.4768 120.244 49.8155C120.244 48.2135 120.614 46.7896 121.356 45.5436C122.098 44.2828 123.129 43.3039 124.449 42.6067C125.769 41.9096 127.26 41.561 128.921 41.561C130.374 41.561 131.68 41.8058 132.837 42.2952C133.994 42.7847 134.958 43.4893 135.729 44.4089L132.926 46.9453C131.873 45.7884 130.612 45.2099 129.143 45.2099C127.794 45.2099 126.711 45.6252 125.895 46.4559C125.094 47.2717 124.694 48.3841 124.694 49.7932C124.694 51.2172 125.072 52.3074 125.828 53.0639C126.585 53.8204 127.541 54.1986 128.698 54.1986C129.811 54.1986 130.738 53.9019 131.48 53.3086V49.326Z" fill="white"/>
<path d="M141.993 46.8341C142.423 46.2853 142.979 45.8774 143.662 45.6104C144.359 45.3286 145.152 45.1877 146.042 45.1877V48.9923C145.657 48.9478 145.338 48.9255 145.086 48.9255C144.181 48.9255 143.469 49.1703 142.95 49.6597C142.445 50.1492 142.193 50.8983 142.193 51.9069V57.447H137.966V45.3879H141.993V46.8341Z" fill="white"/>
<path d="M154.13 54.4211C154.709 54.4211 155.206 54.3395 155.621 54.1763C156.051 54.0132 156.481 53.7462 156.912 53.3754L159.114 55.6893C157.972 56.9946 156.266 57.6472 153.997 57.6472C152.588 57.6472 151.349 57.3802 150.281 56.8463C149.213 56.3123 148.383 55.5706 147.789 54.6213C147.211 53.672 146.922 52.5966 146.922 51.3952C146.922 50.2086 147.211 49.148 147.789 48.2135C148.368 47.2642 149.161 46.5226 150.17 45.9886C151.194 45.4546 152.336 45.1877 153.596 45.1877C154.768 45.1877 155.836 45.4324 156.8 45.9219C157.779 46.3965 158.558 47.1011 159.137 48.0356C159.715 48.9552 160.004 50.0528 160.004 51.3284L151.394 52.9749C151.854 53.939 152.766 54.4211 154.13 54.4211ZM153.619 48.1913C152.892 48.1913 152.299 48.4212 151.839 48.881C151.379 49.326 151.119 49.9712 151.06 50.8167L155.955 49.86C155.807 49.3557 155.525 48.9552 155.109 48.6585C154.694 48.347 154.197 48.1913 153.619 48.1913Z" fill="white"/>
<path d="M168.406 54.4211C168.984 54.4211 169.481 54.3395 169.896 54.1763C170.326 54.0132 170.757 53.7462 171.187 53.3754L173.389 55.6893C172.247 56.9946 170.542 57.6472 168.272 57.6472C166.863 57.6472 165.624 57.3802 164.556 56.8463C163.489 56.3123 162.658 55.5706 162.065 54.6213C161.486 53.672 161.197 52.5966 161.197 51.3952C161.197 50.2086 161.486 49.148 162.065 48.2135C162.643 47.2642 163.437 46.5226 164.445 45.9886C165.469 45.4546 166.611 45.1877 167.872 45.1877C169.043 45.1877 170.111 45.4324 171.076 45.9219C172.054 46.3965 172.833 47.1011 173.412 48.0356C173.99 48.9552 174.279 50.0528 174.279 51.3284L165.669 52.9749C166.129 53.939 167.041 54.4211 168.406 54.4211ZM167.894 48.1913C167.167 48.1913 166.574 48.4212 166.114 48.881C165.654 49.326 165.395 49.9712 165.335 50.8167L170.23 49.86C170.082 49.3557 169.8 48.9552 169.385 48.6585C168.969 48.347 168.472 48.1913 167.894 48.1913Z" fill="white"/>
<path d="M184.082 45.1877C185.581 45.1877 186.782 45.6326 187.687 46.5226C188.606 47.4126 189.066 48.7549 189.066 50.5497V57.447H184.839V51.2394C184.839 49.593 184.179 48.7698 182.859 48.7698C182.132 48.7698 181.546 49.0071 181.101 49.4818C180.671 49.9564 180.456 50.6684 180.456 51.6177V57.447H176.228V45.3879H180.256V46.7006C180.73 46.2111 181.294 45.8403 181.947 45.5881C182.599 45.3211 183.311 45.1877 184.082 45.1877Z" fill="white"/>
<path d="M203.869 57.7585C202.608 57.7585 201.384 57.6027 200.198 57.2912C199.011 56.9797 198.047 56.5644 197.305 56.0453L198.751 52.7969C199.449 53.2567 200.257 53.6275 201.177 53.9094C202.096 54.1912 203.001 54.3321 203.891 54.3321C205.582 54.3321 206.427 53.9094 206.427 53.0639C206.427 52.6189 206.183 52.2926 205.693 52.0849C205.219 51.8624 204.447 51.6325 203.379 51.3952C202.208 51.143 201.229 50.876 200.442 50.5942C199.656 50.2976 198.981 49.8303 198.418 49.1925C197.854 48.5547 197.572 47.6944 197.572 46.6116C197.572 45.6623 197.832 44.8094 198.351 44.0529C198.87 43.2816 199.641 42.6735 200.665 42.2285C201.703 41.7835 202.971 41.561 204.47 41.561C205.493 41.561 206.502 41.6797 207.495 41.917C208.489 42.1395 209.364 42.4732 210.121 42.9182L208.764 46.1889C207.28 45.3879 205.842 44.9874 204.447 44.9874C203.572 44.9874 202.934 45.1209 202.534 45.3879C202.133 45.6401 201.933 45.9738 201.933 46.3891C201.933 46.8044 202.17 47.1159 202.645 47.3236C203.12 47.5312 203.884 47.7463 204.937 47.9688C206.123 48.221 207.102 48.4954 207.874 48.792C208.66 49.0739 209.335 49.5337 209.898 50.1715C210.477 50.7945 210.766 51.6473 210.766 52.7301C210.766 53.6646 210.507 54.5101 209.987 55.2666C209.468 56.023 208.689 56.6312 207.651 57.091C206.613 57.536 205.352 57.7585 203.869 57.7585Z" fill="white"/>
<path d="M220.455 45.1877C221.953 45.1877 223.154 45.6326 224.059 46.5226C224.979 47.4126 225.439 48.7549 225.439 50.5497V57.447H221.211V51.2394C221.211 49.593 220.551 48.7698 219.231 48.7698C218.504 48.7698 217.918 49.0071 217.473 49.4818C217.043 49.9564 216.828 50.6684 216.828 51.6177V57.447H212.601V40.938H216.828V46.5004C217.288 46.0702 217.829 45.7439 218.452 45.5214C219.075 45.2989 219.743 45.1877 220.455 45.1877Z" fill="white"/>
<path d="M228.093 45.3879H232.32V57.447H228.093V45.3879ZM230.206 44.0529C229.435 44.0529 228.812 43.8379 228.337 43.4077C227.863 42.9776 227.625 42.4436 227.625 41.8058C227.625 41.168 227.863 40.634 228.337 40.2038C228.812 39.7737 229.435 39.5586 230.206 39.5586C230.978 39.5586 231.601 39.7663 232.075 40.1816C232.55 40.5821 232.787 41.1012 232.787 41.739C232.787 42.4065 232.55 42.9627 232.075 43.4077C231.601 43.8379 230.978 44.0529 230.206 44.0529Z" fill="white"/>
<path d="M242.654 45.1877C243.752 45.1877 244.746 45.4398 245.636 45.9441C246.54 46.4484 247.252 47.1753 247.772 48.1246C248.306 49.059 248.573 50.1492 248.573 51.3952C248.573 52.6411 248.306 53.7388 247.772 54.6881C247.252 55.6374 246.54 56.3716 245.636 56.8908C244.746 57.3951 243.752 57.6472 242.654 57.6472C241.067 57.6472 239.881 57.18 239.094 56.2455V57.447H235.067V40.938H239.295V46.4336C240.11 45.603 241.23 45.1877 242.654 45.1877ZM241.764 54.2876C242.506 54.2876 243.114 54.0354 243.589 53.5311C244.063 53.012 244.301 52.3 244.301 51.3952C244.301 50.5052 244.063 49.8081 243.589 49.3038C243.114 48.7994 242.506 48.5473 241.764 48.5473C241.023 48.5473 240.415 48.7994 239.94 49.3038C239.465 49.8081 239.228 50.5052 239.228 51.3952C239.228 52.3 239.465 53.012 239.94 53.5311C240.415 54.0354 241.023 54.2876 241.764 54.2876Z" fill="white"/>
<path d="M263.286 45.3879V57.447H259.259V56.2455C258.473 57.18 257.286 57.6472 255.699 57.6472C254.602 57.6472 253.6 57.3951 252.696 56.8908C251.806 56.3716 251.094 55.6374 250.56 54.6881C250.041 53.7388 249.781 52.6411 249.781 51.3952C249.781 50.1492 250.041 49.059 250.56 48.1246C251.094 47.1753 251.806 46.4484 252.696 45.9441C253.6 45.4398 254.602 45.1877 255.699 45.1877C257.123 45.1877 258.243 45.603 259.059 46.4336V45.3879H263.286ZM256.589 54.2876C257.331 54.2876 257.939 54.0354 258.414 53.5311C258.888 53.012 259.126 52.3 259.126 51.3952C259.126 50.5052 258.888 49.8081 258.414 49.3038C257.939 48.7994 257.331 48.5473 256.589 48.5473C255.848 48.5473 255.239 48.7994 254.765 49.3038C254.29 49.8081 254.053 50.5052 254.053 51.3952C254.053 52.3 254.29 53.012 254.765 53.5311C255.239 54.0354 255.848 54.2876 256.589 54.2876Z" fill="white"/>
<path d="M278.89 45.2766V54.0428H281.404V57.447H271.949V54.0428H274.485V45.2766H271.949V41.8725H281.404V45.2766H278.89Z" fill="white"/>
<path d="M291.439 45.1877C292.938 45.1877 294.139 45.6326 295.044 46.5226C295.963 47.4126 296.423 48.7549 296.423 50.5497V57.447H292.196V51.2394C292.196 49.593 291.536 48.7698 290.216 48.7698C289.489 48.7698 288.903 49.0071 288.458 49.4818C288.028 49.9564 287.813 50.6684 287.813 51.6177V57.447H283.585V45.3879H287.613V46.7006C288.087 46.2111 288.651 45.8403 289.303 45.5881C289.956 45.3211 290.668 45.1877 291.439 45.1877Z" fill="white"/>
<path d="M311.759 45.3879V57.447H307.732V56.1565C307.287 56.646 306.753 57.0168 306.13 57.269C305.507 57.5211 304.847 57.6472 304.15 57.6472C302.593 57.6472 301.347 57.1874 300.412 56.2678C299.493 55.3481 299.033 53.9687 299.033 52.1294V45.3879H303.26V51.4397C303.26 52.3445 303.431 53.0046 303.772 53.4199C304.113 53.8352 304.61 54.0428 305.263 54.0428C305.93 54.0428 306.471 53.8129 306.887 53.3531C307.317 52.8785 307.532 52.1591 307.532 51.1949V45.3879H311.759Z" fill="white"/>
<g clip-path="url(#clip0_124_2)">
<circle cx="50.2407" cy="50" r="50" fill="white"/>
<path d="M85.7008 26.0898C85.7008 26.0898 88.56 35.351 78.6751 44.985C76.3877 47.2217 73.6568 49.8311 70.8676 52.7085C70.8676 52.7085 59.1154 61.2125 58.2284 80.8182C58.2284 80.8182 52.2998 84.0568 43.4886 85.1984C43.4886 85.1984 53.1868 86.771 67.3548 79.0708C67.3548 79.0708 79.3753 72.8618 83.4134 61.5503L77.4497 63.2977L88.6767 49.6331L91.5826 59.0923L87.5447 60.4087C87.5447 60.4087 80.8692 90.2658 48.4136 90.7202C48.4136 90.7202 25.9363 92.0249 11.8149 75.18C19.9609 86.7245 35.1092 93.6907 48.4136 93.6907C73.7618 93.6907 94.3019 73.3161 94.3019 49.9826C94.2902 43.8201 92.2945 34.0114 85.7008 26.0898Z" fill="url(#paint0_linear_124_2)"/>
<path d="M32.6707 68.0145C32.4723 65.2653 32.2506 62.0151 31.9005 58.567C31.9005 58.567 32.8224 46.0905 20.3351 34.5927C20.3351 34.5927 21.4904 28.8845 25.6451 22.4424C25.6451 22.4424 19.2029 27.9526 16.4137 41.5823C16.4137 41.5823 14.0096 53.4062 19.2263 62.3529L22.4357 56.5749L23.9879 71.8472L16.4954 67.7815L17.6158 65.7079C17.6158 65.7079 1.4872 44.2499 19.273 22.6172C19.273 22.6172 30.9318 7.07698 49.9197 7.14687C37.7591 6.08679 24.7115 12.191 17.3124 20.963C3.20276 37.6564 5.23342 62.5277 20.6734 75.5166C24.7698 78.9649 32.3556 83.1004 41.2719 83.1703C41.2602 83.1703 33.546 79.8852 32.6707 68.0145Z" fill="url(#paint1_linear_124_2)"/>
<path d="M41.6445 18.9352C41.6445 18.9352 54.9605 9.32449 71.1241 20.2981C71.1241 20.2981 75.6757 22.9542 80.8573 29.5826C80.3905 28.8604 78.0564 23.5599 72.5129 19.1565C60.0488 8.89347 42.6832 11.6078 33.767 20.5544C30.9544 23.2803 27.2432 28.8487 26.6597 35.2558C26.6597 35.2558 29.7406 29.9204 38.6802 30.0136C41.1077 30.037 42.7999 29.9088 45.7992 30.0486C45.7992 30.0486 55.1706 31.6562 64.8571 22.8494C64.8571 22.8494 68.615 24.0259 73.2015 27.4158C73.2015 27.4158 69.4552 22.4416 59.4187 19.5875C59.4187 19.5875 51.0859 16.9781 43.7919 20.3215L47.6898 23.1755L36.2994 23.3502L39.7073 17.9799L41.6445 18.9352Z" fill="url(#paint2_linear_124_2)"/>
<path d="M25.9243 40.9308C25.4925 39.4746 24.6288 36.2478 24.2437 32.5317C23.7653 27.9535 23.9169 21.6745 27.3481 17.6322C27.4531 17.5972 27.6982 17.5273 28.1067 17.5273C29.7522 17.5273 33.5568 18.5874 40.6991 25.6003L25.9243 40.9308Z" fill="#35B975"/>
<path d="M28.0957 18.0484C29.3327 18.0484 32.9156 18.8056 39.9413 25.6088L26.1818 39.9025C25.0147 35.6156 22.5872 24.2342 27.6406 18.0834C27.734 18.0718 27.8856 18.0484 28.0957 18.0484ZM28.0957 17C27.3488 17 27.0104 17.2097 27.0104 17.2097C19.9964 25.3059 25.6799 41.9295 25.6799 41.9295L41.4118 25.5972C33.9193 18.1183 29.8579 17 28.0957 17Z" fill="#083629"/>
<path d="M25.971 41.1071C25.5625 39.7442 24.6406 36.4124 24.2321 32.5332C23.7536 28.0133 23.9053 21.8392 27.2081 17.7969C27.7683 17.9599 29.1804 18.4725 31.0126 19.9286C33.2066 21.6644 36.4627 25.1359 39.6488 31.8226L25.971 41.1071Z" fill="#C4FF8B"/>
<path d="M27.3955 18.3991C28.0491 18.6321 29.2628 19.1796 30.78 20.4028C32.8573 22.0803 35.9383 25.3771 38.9843 31.6327L26.2868 40.2533C25.8316 38.6457 25.1081 35.7449 24.7696 32.4481C24.4662 29.5475 24.5129 26.9148 24.898 24.6315C25.3065 22.1269 26.1584 20.03 27.3955 18.3991ZM27.0104 17.2109C19.9964 25.3072 25.6799 41.9308 25.6799 41.9308L40.303 31.9939C33.8843 18.2361 27.0104 17.2109 27.0104 17.2109Z" fill="#083629"/>
<path opacity="0.15" fill-rule="evenodd" clip-rule="evenodd" d="M27.1616 18.2152C27.1616 18.2152 33.5804 22.0012 35.4594 29.7946L38.1085 28.3617C38.1085 28.3617 31.6198 17.4813 27.1616 18.2152Z" fill="black"/>
<path d="M27.3138 18.1312C27.944 18.3409 29.2394 18.8768 30.885 20.1931C33.009 21.8939 36.1717 25.2722 39.276 31.726L26.1351 40.6493C25.6916 39.1233 24.898 36.0595 24.5246 32.5297C24.2211 29.6058 24.2561 26.9497 24.6412 24.6315C25.0964 21.9871 25.9834 19.8087 27.3138 18.1312ZM27.0104 17.2109C19.9964 25.3072 25.6799 41.9308 25.6799 41.9308L40.303 31.9939C33.8843 18.2361 27.0104 17.2109 27.0104 17.2109Z" fill="#083629"/>
<path d="M59.4067 25.6002C66.5374 18.5757 70.342 17.5156 71.9875 17.5156C72.3959 17.5156 72.6411 17.5855 72.7461 17.6205C76.1772 21.6627 76.329 27.9417 75.8504 32.5199C75.4653 36.236 74.6017 39.4629 74.1698 40.919L59.4067 25.6002Z" fill="#35B975"/>
<path d="M71.9874 18.0484C72.1974 18.0484 72.3492 18.0718 72.4426 18.095C73.8197 19.7725 74.7416 21.9626 75.1967 24.642C75.5819 26.9252 75.6286 29.5579 75.3251 32.4586C75.01 35.5224 74.3565 38.2483 73.9014 39.9141L60.1419 25.6088C67.1675 18.7939 70.7503 18.0484 71.9874 18.0484ZM71.9874 17C70.2251 17 66.1638 18.1183 58.6714 25.5972L74.4032 41.9411C74.4032 41.9411 80.0867 25.3059 73.0728 17.2097C73.0728 17.198 72.746 17 71.9874 17Z" fill="#083629"/>
<path d="M73.0735 17.1992C73.0735 17.1992 66.1996 18.2244 59.7808 31.9939L74.4039 41.9307C74.4039 41.9307 80.0875 25.2955 73.0735 17.1992Z" fill="#C4FF8B"/>
<path opacity="0.15" fill-rule="evenodd" clip-rule="evenodd" d="M72.9328 18.2152C72.9328 18.2152 66.5257 22.0012 64.6467 29.7946L61.9976 28.3617C61.9859 28.3617 68.4747 17.4813 72.9328 18.2152Z" fill="black"/>
<path d="M72.6884 18.3991C73.9254 20.03 74.7773 22.1269 75.1974 24.6315C75.5826 26.9147 75.6293 29.5475 75.3258 32.4482C74.9874 35.7449 74.2638 38.6456 73.8087 40.2532L61.1112 31.6211C64.1572 25.3538 67.2382 22.057 69.3156 20.3795C70.8327 19.1796 72.0348 18.6321 72.6884 18.3991ZM73.0735 17.1992C73.0735 17.1992 66.1996 18.2244 59.7808 31.9939L74.4039 41.9307C74.4039 41.9307 80.0875 25.2955 73.0735 17.1992Z" fill="#083629"/>
<path d="M73.4356 34.267C66.1766 23.7593 52.6505 23.8526 50.048 23.969C47.4455 23.8526 33.9194 23.7593 26.6604 34.267C26.6604 34.267 17.2189 47.9666 18.2926 60.909C18.2926 60.909 18.5027 65.4056 25.3766 70.543C25.3766 70.543 38.5526 81.4933 50.048 80.8409C61.5434 81.4933 74.7194 70.543 74.7194 70.543C81.5933 65.4056 81.8033 60.909 81.8033 60.909C82.8771 47.9666 73.4356 34.267 73.4356 34.267Z" fill="#35B975"/>
<path d="M81.2308 55.5035C81.2308 55.5035 81.2075 53.7096 80.7289 52.265C79.2118 51.6127 77.0411 51.1118 73.96 51.0884C73.96 51.0884 66.2109 51.5311 59.4536 54.7929C59.4536 54.7929 59.0685 49.9002 49.9889 49.9818C40.9209 49.8885 40.5358 54.7812 40.5358 54.7812C33.7903 51.5311 26.0528 51.0884 26.0528 51.0884C23.0301 51.1118 20.8944 51.5894 19.3773 52.2301C19.2722 53.2785 18.8638 55.3986 18.8638 55.3986C18.2102 59.7089 18.2102 63.5764 23.8354 68.7487C23.8354 68.7487 36.3695 80.3748 49.9306 80.4447V80.5029C61.8345 81.2252 75.9091 69.0866 75.9091 69.0866C81.5575 64.2172 81.9427 61.0835 81.2308 55.5035Z" fill="#C4FF8B"/>
<path opacity="0.15" fill-rule="evenodd" clip-rule="evenodd" d="M81.2312 61.1275C80.461 66.8124 71.6147 72.3807 71.6147 72.3807C57.6335 81.7584 50.2695 80.4304 50.2695 80.4304C34.1292 80.71 20.8599 65.3212 20.8599 65.3212C35.728 79.1024 50.1528 78.4383 50.1528 78.4383C58.7772 78.6014 70.7162 70.3887 70.7162 70.3887C70.7162 70.3887 78.512 65.0882 78.7921 60.9061C78.7921 60.9061 80.1692 46.9503 74.264 36.6406C74.264 36.629 82.2816 47.7192 81.2312 61.1275Z" fill="black"/>
<path d="M51.1917 24.9938C53.129 24.9938 56.992 25.2035 61.1116 26.5665C66.0366 28.209 69.8878 30.9932 72.5604 34.8608C72.5837 34.8957 74.8944 38.2623 77.0535 43.155C78.3256 46.0208 79.2825 48.8399 79.9244 51.5193C80.7063 54.851 80.9865 57.9729 80.753 60.8154V60.827V60.8503C80.7414 60.9319 80.6363 61.9338 79.8311 63.4598C79.0374 64.9393 77.4036 67.2225 74.0892 69.6922L74.0658 69.7038L74.0425 69.7154C74.0075 69.7388 70.9265 72.2899 66.5384 74.7946C62.5355 77.0778 56.6069 79.8038 51.04 79.8038C50.7249 79.8038 50.4098 79.7921 50.1064 79.7804H50.048H49.9897C49.6862 79.7921 49.3711 79.8038 49.056 79.8038C43.4892 79.8038 37.5606 77.0778 33.5577 74.7946C29.1696 72.2899 26.0885 69.7388 26.0536 69.7154L26.0302 69.7038L26.0068 69.6922C22.6924 67.2225 21.0585 64.9393 20.265 63.4598C19.4597 61.9453 19.343 60.9552 19.343 60.8503V60.8154C19.1096 57.9846 19.3896 54.8626 20.1716 51.5425C20.8018 48.8633 21.7588 46.0558 23.0309 43.19C25.1899 38.2856 27.5124 34.8957 27.5356 34.8608C30.2082 30.9932 34.0478 28.209 38.9844 26.5665C43.1041 25.1918 46.967 24.9938 48.9043 24.9938C49.3945 24.9938 49.7679 25.0054 50.0013 25.0171H50.048H50.0947C50.3281 25.0054 50.7015 24.9938 51.1917 24.9938ZM51.1917 23.9453C50.7015 23.9453 50.3164 23.957 50.048 23.9687C49.7796 23.957 49.3828 23.9453 48.9043 23.9453C44.703 23.9453 33.1725 24.854 26.6721 34.2666C26.6721 34.2666 17.2306 47.9662 18.3043 60.9086C18.3043 60.9086 18.5144 65.4052 25.3883 70.5425C25.3883 70.5425 37.8174 80.8755 49.0677 80.8755C49.4062 80.8755 49.7329 80.8639 50.0597 80.8522C50.3864 80.8755 50.7249 80.8755 51.0517 80.8755C62.2903 80.8755 74.7311 70.5425 74.7311 70.5425C81.605 65.4052 81.8151 60.9086 81.8151 60.9086C82.8888 47.9662 73.4473 34.2666 73.4473 34.2666C66.9352 24.854 55.3931 23.9453 51.1917 23.9453Z" fill="#083629"/>
<path d="M50.4206 58.8672H49.522V64.4822H50.4206V58.8672Z" fill="#073629"/>
<path d="M57.9128 63.9481C57.7845 63.2725 57.2709 63.5055 57.2709 63.5055C55.8938 63.8899 53.6764 64.018 53.6764 64.018C51.2023 64.018 50.1986 61.9445 49.9536 61.3271V61.1523C49.9536 61.1523 49.9419 61.1873 49.9185 61.2455C49.8952 61.1873 49.8835 61.1523 49.8835 61.1523V61.3271C49.6385 61.9561 48.6464 64.018 46.1723 64.018C46.1723 64.018 43.9666 63.8899 42.5895 63.5055C42.5895 63.5055 42.076 63.2842 41.9476 63.9481C41.9476 63.9481 40.7922 69.5398 46.1723 71.3571H53.6648C59.0682 69.5398 57.9128 63.9481 57.9128 63.9481Z" fill="black"/>
<path d="M49.8252 62.7017L49.9302 62.9929L50.0353 62.7017C50.6771 63.5986 51.8092 64.6122 53.6764 64.6122H53.6881H53.6998C53.7931 64.6122 55.8938 64.484 57.3176 64.1113C57.3526 64.3326 57.5394 65.5324 57.2126 66.8837C56.7574 68.7709 55.5203 70.0873 53.5714 70.7746H49.9535H49.8952H46.289C44.34 70.0873 43.1146 68.7826 42.6594 66.8837C42.3327 65.5441 42.5078 64.3326 42.5544 64.1113C43.9783 64.484 46.0673 64.6122 46.1606 64.6122H46.1723H46.184C48.0513 64.6122 49.1833 63.5986 49.8252 62.7017ZM49.9535 61.1406C49.9535 61.1406 49.9419 61.1756 49.9185 61.2339C49.8952 61.1756 49.8835 61.1406 49.8835 61.1406V61.3154C49.6385 61.9445 48.6464 64.0064 46.1723 64.0064C46.1723 64.0064 43.9666 63.8782 42.5895 63.4939C42.5895 63.4939 42.5078 63.4589 42.4027 63.4589C42.2393 63.4589 42.0292 63.5404 41.9476 63.9365C41.9476 63.9365 40.7922 69.5281 46.1723 71.3454H49.8835H49.9419H53.6648C59.0565 69.5281 57.9011 63.9365 57.9011 63.9365C57.8194 63.5288 57.6094 63.4589 57.446 63.4589C57.341 63.4589 57.2592 63.4939 57.2592 63.4939C55.8822 63.8782 53.6648 64.0064 53.6648 64.0064C51.1906 64.0064 50.1869 61.9328 49.9419 61.3154V61.1406H49.9535Z" fill="#073629"/>
<path d="M49.9309 62.5039L49.6509 63.0048H50.1993L49.9309 62.5039Z" fill="black"/>
<path d="M49.8374 76.1572C46.0912 76.1572 45.0175 73.5594 44.9709 73.4429L44.9592 73.4196C44.3756 72.1382 44.9241 70.4141 45.0875 69.9481C45.9395 69.389 46.7564 69.1094 47.5033 69.1094C48.7988 69.1094 49.5106 69.9598 49.639 70.1345L49.9891 70.6004L50.3509 70.1345C50.4793 69.9714 51.2029 69.1326 52.475 69.1326C53.2218 69.1326 54.0271 69.4122 54.8907 69.9714C55.0658 70.4374 55.6143 72.1498 55.0191 73.4313V73.4429V73.4546C54.9725 73.5594 53.9455 76.0291 50.4092 76.1572C50.4092 76.1572 49.8841 76.1572 49.8374 76.1572Z" fill="#E46767"/>
<path d="M47.5033 69.561C48.6121 69.561 49.2189 70.3182 49.2772 70.4115L49.9775 71.3433L50.7011 70.4231C50.8061 70.2833 51.413 69.5843 52.4749 69.5843C53.0935 69.5843 53.7821 69.8173 54.5173 70.2717C54.7507 70.9473 55.0425 72.3102 54.6107 73.2539L54.599 73.2655L54.5873 73.3004C54.529 73.4402 53.607 75.5255 50.561 75.7119L49.9308 75.7235C49.8958 75.7235 49.8608 75.7235 49.8258 75.7235C46.453 75.7235 45.4377 73.4519 45.3794 73.3004V73.2888L45.3677 73.2539C44.9359 72.2986 45.2393 70.9356 45.461 70.26C46.208 69.794 46.8848 69.561 47.5033 69.561ZM47.5033 68.6641C46.7447 68.6641 45.8228 68.9203 44.7258 69.6542C44.7258 69.6542 43.7805 71.9142 44.5507 73.6033C44.5507 73.6033 45.7061 76.5972 49.8375 76.5972C49.8724 76.5972 49.9191 76.5972 49.9659 76.5972C50.0242 76.5972 50.0825 76.5972 50.1526 76.5972C54.2839 76.5972 55.451 73.6033 55.451 73.6033C56.2212 71.9142 55.2759 69.6658 55.2759 69.6658C54.1788 68.932 53.2452 68.6756 52.4866 68.6756C51.0161 68.6756 50.1875 69.6309 50.0008 69.8523C49.8608 69.6775 49.0205 68.6641 47.5033 68.6641Z" fill="#8B2D30"/>
<path d="M50.4792 70.2188H49.5806V74.8785H50.4792V70.2188Z" fill="#8B2D30"/>
<path d="M52.9297 71.0548C51.5876 70.484 50.7707 72.2546 50.7707 72.2546C50.3039 73.1167 50.0471 73.3264 50.0471 73.3264C50.0471 73.3264 49.7903 73.1167 49.3353 72.2546C49.3353 72.2546 48.53 70.484 47.1878 71.0548C47.1878 71.0548 46.0209 71.4625 46.7677 73.3846C46.7677 73.3846 47.4797 75.4815 50.0471 75.4815C52.6263 75.4815 53.3382 73.3963 53.3382 73.3963C54.0968 71.4625 52.9297 71.0548 52.9297 71.0548Z" fill="#FFAAAE"/>
<path d="M50.1761 52.4766C47.1651 52.4766 44.7261 53.4783 44.7261 54.7132C44.7261 56.9032 48.5773 59.4662 49.9894 59.4662C51.3665 59.4662 55.6146 56.9149 55.6146 54.7132C55.6263 53.4783 53.1871 52.4766 50.1761 52.4766Z" fill="#000709"/>
<path d="M50.117 55.6551C52.4309 55.6551 54.3067 55.024 54.3067 54.2455C54.3067 53.4671 52.4309 52.8359 50.117 52.8359C47.803 52.8359 45.9272 53.4671 45.9272 54.2455C45.9272 55.024 47.803 55.6551 50.117 55.6551Z" fill="#808080"/>
<path d="M35.5181 32.4008C35.5181 32.4008 39.1125 31.3874 41.6217 33.4143C41.6217 33.4143 39.381 29.8031 35.5181 32.4008Z" fill="#003323"/>
<path d="M58.3208 33.4133C60.83 31.3631 64.4245 32.3882 64.4245 32.3882C60.5616 29.7788 58.3208 33.4133 58.3208 33.4133Z" fill="#003323"/>
<path d="M41.6442 45.1253C41.3992 39.9995 37.9914 38.6133 37.9914 38.6133C33.8367 37.2736 31.2342 41.2227 31.2342 41.2227C28.585 44.7408 30.1255 48.4803 30.1255 48.4803C37.0228 48.0841 40.6056 49.6685 40.6056 49.6685C41.8893 48.2706 41.6442 45.1253 41.6442 45.1253Z" fill="#23A662"/>
<path d="M40.4886 44.8887C39.8817 40.3338 36.9407 39.8679 36.9407 39.8679C33.498 39.262 31.8291 42.7336 31.8291 42.7336C30.522 45.3663 31.7125 47.6962 31.7125 47.6962C37.1625 47.3117 40.0568 48.896 40.0568 48.896C40.897 47.8127 40.4886 44.8887 40.4886 44.8887Z" fill="black"/>
<path d="M33.0363 44.5695C33.3629 44.351 33.5115 44.0006 33.368 43.7868C33.2245 43.5731 32.8434 43.5768 32.5167 43.7952C32.1901 44.0136 32.0416 44.3639 32.185 44.5778C32.3285 44.7916 32.7097 44.7879 33.0363 44.5695Z" fill="white"/>
<path d="M37.2218 42.0275C37.0234 41.445 36.4165 41.6663 36.4165 41.6663C36.0431 41.7945 35.7046 41.7829 35.7046 41.7829C36.4165 41.5266 36.0665 40.9442 36.0665 40.9442C35.6579 40.3733 34.9227 40.8276 34.9227 40.8276C33.8607 41.48 34.0007 42.9128 34.0007 42.9128C34.9577 43.2507 36.1715 43.0876 36.1715 43.0876C37.4552 42.8779 37.2218 42.0275 37.2218 42.0275Z" fill="white"/>
<path d="M68.7896 41.2071C68.7896 41.2071 66.1871 37.258 62.0441 38.5976C62.0441 38.5976 58.6363 39.9839 58.3913 45.1212C58.3913 45.1212 58.1462 48.2665 59.4299 49.6761C59.4299 49.6761 63.001 48.0918 69.8983 48.4879C69.8983 48.4762 71.4388 44.7252 68.7896 41.2071Z" fill="#23A662"/>
<path d="M68.1953 42.7216C68.1953 42.7216 66.5264 39.2384 63.0836 39.8442C63.0836 39.8442 60.1543 40.2985 59.5474 44.8767C59.5474 44.8767 59.139 47.8124 59.9676 48.884C59.9676 48.884 62.8618 47.2998 68.3003 47.6842C68.3119 47.6958 69.5023 45.3543 68.1953 42.7216Z" fill="black"/>
<path d="M61.5311 43.7463C61.356 43.5482 60.9709 43.5831 60.6558 43.8162C60.3407 44.0492 60.2357 44.3987 60.3991 44.5967C60.5741 44.7947 60.9592 44.7598 61.2743 44.5268C61.5894 44.2938 61.7062 43.9443 61.5311 43.7463Z" fill="white"/>
<path d="M65.4181 42.0275C65.2197 41.445 64.6128 41.6663 64.6128 41.6663C64.2394 41.7945 63.9009 41.7829 63.9009 41.7829C64.6128 41.5266 64.2627 40.9442 64.2627 40.9442C63.8542 40.3733 63.119 40.8276 63.119 40.8276C62.0569 41.48 62.197 42.9128 62.197 42.9128C63.154 43.2507 64.3677 43.0876 64.3677 43.0876C65.6398 42.8779 65.4181 42.0275 65.4181 42.0275Z" fill="white"/>
</g>
<defs>
<linearGradient id="paint0_linear_124_2" x1="48.295" y1="94.1731" x2="59.7085" y2="21.9805" gradientUnits="userSpaceOnUse">
<stop stop-color="#32B875"/>
<stop offset="1" stop-color="#78C940"/>
</linearGradient>
<linearGradient id="paint1_linear_124_2" x1="21.8514" y1="80.4342" x2="33.8399" y2="4.60471" gradientUnits="userSpaceOnUse">
<stop stop-color="#39B971"/>
<stop offset="1" stop-color="#78C940"/>
</linearGradient>
<linearGradient id="paint2_linear_124_2" x1="52.6346" y1="39.3625" x2="56.8587" y2="12.6444" gradientUnits="userSpaceOnUse">
<stop stop-color="#69C54B"/>
<stop offset="1" stop-color="#7DCA2D"/>
</linearGradient>
<clipPath id="clip0_124_2">
<rect width="100" height="100" fill="white" transform="translate(0.240723)"/>
</clipPath>
</defs>
</svg>
