<svg width="100" height="100" viewBox="0 0 100 100" fill="none" xmlns="http://www.w3.org/2000/svg">
<path d="M49.6762 82.4439C67.5429 82.6216 82.1651 68.2328 82.354 50.3216C82.5429 32.4105 68.1984 17.7439 50.3206 17.5661C32.4429 17.3883 17.8206 31.7661 17.654 49.6883C17.4762 67.5994 31.8206 82.2661 49.6762 82.4439Z" fill="#F0B90B"/>
<path fill-rule="evenodd" clip-rule="evenodd" d="M50.3106 18.6218C33.0328 18.4552 18.8883 32.3552 18.7217 49.6996C18.555 67.033 32.4217 81.2218 49.6883 81.3885C66.955 81.5552 81.1217 67.6441 81.2883 50.3107C81.455 32.9774 67.5883 18.7885 50.3106 18.6218ZM16.5994 49.6774C16.7772 31.1774 31.8772 16.3218 50.3328 16.4996C68.7883 16.6774 83.5772 31.833 83.3994 50.333C83.2217 68.833 68.1217 83.6774 49.6661 83.4996C31.2106 83.3218 16.4106 68.1663 16.5994 49.6774Z" fill="#EA7F00"/>
<path d="M49.7331 77.5324C64.8998 77.6768 77.3109 65.4768 77.4553 50.2657C77.5998 35.0546 65.4331 22.6101 50.2665 22.4546C35.0998 22.299 22.6887 34.5213 22.5442 49.7324C22.3998 64.9435 34.5665 77.3879 49.7331 77.5324Z" fill="#F0B90B"/>
<path fill-rule="evenodd" clip-rule="evenodd" d="M50.2564 23.5227C35.6786 23.3782 23.7453 35.1116 23.6008 49.7449C23.4564 64.3782 35.1564 76.3338 49.723 76.4782C64.2897 76.6227 76.2341 64.8894 76.3786 50.256C76.523 35.6227 64.8341 23.6671 50.2564 23.5227ZM21.4897 49.7227C21.6453 33.9338 34.5341 21.256 50.2786 21.4116C66.023 21.5671 78.6675 34.4894 78.5119 50.2782C78.3564 66.0671 65.4675 78.7449 49.723 78.5894C33.9786 78.4338 21.3341 65.5116 21.4897 49.7227Z" fill="#EA7F00"/>
<path d="M58.3865 63.9776C60.8309 62.2332 62.0531 59.9554 62.0531 57.5109C62.0531 55.0665 60.8309 52.7887 58.3865 51.0443C56.4642 49.6443 54.1976 48.9443 51.5753 48.5998V36.722C55.7642 37.2443 58.9087 39.6887 58.9087 42.4887C58.9087 43.3665 59.6087 43.8887 60.3087 43.8887C61.1865 43.8887 61.7087 43.1887 61.7087 42.4887C61.7087 40.0443 60.4865 37.7665 58.042 36.0221C56.1198 34.6221 53.8531 33.9221 51.2309 33.5776V30.6109C51.2309 29.7332 50.5309 29.2109 49.8309 29.2109C48.9531 29.2109 48.4309 29.9109 48.4309 30.6109V33.5776C45.9865 33.7554 43.542 34.6221 41.6198 36.0221C39.1753 37.7665 37.9531 40.0443 37.9531 42.4887C37.9531 44.9332 39.1753 47.2109 41.6198 48.9554C43.542 50.3554 45.8087 51.0554 48.4309 51.3998V63.2776C44.242 62.7554 41.0976 60.3109 41.0976 57.5109C41.0976 56.6332 40.3976 56.1109 39.6976 56.1109C38.9976 56.1109 38.2976 56.8109 38.2976 57.5109C38.2976 59.9554 39.5198 62.2332 41.9642 63.9776C43.8865 65.3776 46.1531 66.0776 48.7753 66.422V69.3887C48.7753 70.2665 49.4753 70.7887 50.1753 70.7887C51.0531 70.7887 51.5753 70.0887 51.5753 69.3887V66.422C54.1865 66.0776 56.642 65.1998 58.3865 63.9776ZM59.0865 57.5109C59.0865 60.4776 55.7642 62.922 51.7531 63.2776V51.5776C55.7642 52.0998 59.0865 54.5443 59.0865 57.5109ZM41.2642 42.6665C41.2642 39.6998 44.5865 37.2554 48.5976 36.8998V48.6109C44.5865 47.8998 41.2642 45.4554 41.2642 42.6665Z" fill="white"/>
</svg>
