<svg width="100" height="100" viewBox="0 0 100 100" fill="none" xmlns="http://www.w3.org/2000/svg">
<path d="M76.0062 19.1247L33.343 30.9884C32.323 31.272 31.726 32.3288 32.0097 33.3488L37.707 53.8371C37.9906 54.8571 39.0474 55.4541 40.0674 55.1704L82.7307 43.3068C83.7507 43.0231 84.3476 41.9663 84.064 40.9463L78.3667 20.4581C78.083 19.438 77.0262 18.8411 76.0062 19.1247Z" fill="#BFFABC"/>
<path fill-rule="evenodd" clip-rule="evenodd" d="M33.6289 32.707L76.6464 20.7449L82.442 41.5865L39.4245 53.5487L33.6289 32.707ZM35.0512 33.5104L40.2279 52.1263L81.0197 40.7831L75.843 22.1672L35.0512 33.5104Z" fill="#67C14C"/>
<path d="M58.0364 44.4029C62.0444 44.4029 65.2935 41.1538 65.2935 37.1458C65.2935 33.1378 62.0444 29.8887 58.0364 29.8887C54.0284 29.8887 50.7793 33.1378 50.7793 37.1458C50.7793 41.1538 54.0284 44.4029 58.0364 44.4029Z" fill="#67C14C"/>
<path d="M41.3319 31.1641C41.8474 33.0185 41.6052 35.0017 40.6586 36.6775C39.712 38.3534 38.1385 39.5846 36.2842 40.1005L34.3398 33.1084L41.3319 31.1641Z" fill="#67C14C"/>
<path d="M76.246 21.4551L78.1903 28.4471C77.2721 28.7025 76.3126 28.7745 75.3665 28.659C74.4205 28.5436 73.5065 28.2429 72.6766 27.7742C71.8468 27.3054 71.1174 26.6778 70.5302 25.9272C69.9429 25.1766 69.5092 24.3177 69.2539 23.3994L76.246 21.4551Z" fill="#67C14C"/>
<path d="M46.8182 50.8913L39.8272 52.8357L37.8828 45.8456C39.7368 45.3298 41.7198 45.5716 43.3955 46.5179C45.0712 47.4641 46.3024 49.0373 46.8182 50.8913Z" fill="#67C14C"/>
<path d="M79.7872 34.1934L81.7315 41.1835L74.7395 43.1278C74.2243 41.2737 74.4667 39.2908 75.4133 37.6154C76.3599 35.9399 77.9332 34.709 79.7872 34.1934Z" fill="#67C14C"/>
<path d="M72.9216 37.1445H28.6396C27.5809 37.1445 26.7227 38.0028 26.7227 39.0615V60.3272C26.7227 61.3859 27.5809 62.2441 28.6396 62.2441H72.9216C73.9803 62.2441 74.8386 61.3859 74.8386 60.3272V39.0615C74.8386 38.0028 73.9803 37.1445 72.9216 37.1445Z" fill="#BFFABC"/>
<path fill-rule="evenodd" clip-rule="evenodd" d="M28.4551 38.8789H73.1048V60.5113H28.4551V38.8789ZM29.6102 40.034V59.3563H71.9498V40.034H29.6102Z" fill="#67C14C"/>
<path d="M50.7805 56.9517C54.7885 56.9517 58.0376 53.7026 58.0376 49.6946C58.0376 45.6866 54.7885 42.4375 50.7805 42.4375C46.7726 42.4375 43.5234 45.6866 43.5234 49.6946C43.5234 53.7026 46.7726 56.9517 50.7805 56.9517Z" fill="#67C14C"/>
<path d="M36.2903 39.457C36.2903 41.3817 35.5257 43.2276 34.1647 44.5886C32.8038 45.9495 30.9579 46.7141 29.0332 46.7141V39.457H36.2903Z" fill="#67C14C"/>
<path d="M72.5266 39.457V46.7141C71.5736 46.7143 70.6298 46.5266 69.7493 46.162C68.8688 45.7973 68.0687 45.2628 67.3948 44.5889C66.7209 43.915 66.1863 43.1149 65.8217 42.2344C65.457 41.3538 65.2694 40.4101 65.2695 39.457H72.5266Z" fill="#67C14C"/>
<path d="M36.2903 59.9329H29.0332V52.6777C30.9576 52.6777 32.8031 53.442 34.1641 54.8026C35.525 56.1631 36.2898 58.0085 36.2903 59.9329Z" fill="#67C14C"/>
<path d="M72.5266 52.6777V59.9329H65.2695C65.2697 58.98 65.4575 58.0365 65.8222 57.1562C66.187 56.2758 66.7216 55.476 67.3955 54.8023C68.0694 54.1286 68.8694 53.5942 69.7498 53.2297C70.6302 52.8652 71.5737 52.6776 72.5266 52.6777Z" fill="#67C14C"/>
<path d="M80.7753 57.6316C80.7761 58.1948 80.6656 58.7526 80.4501 59.273C80.2346 59.7933 79.9183 60.2659 79.5195 60.6635L68.1956 71.9873C65.3067 74.8746 61.3895 76.4967 57.3051 76.4971H43.3366C41.0405 76.4972 38.7735 75.9835 36.7016 74.9939L29.3477 71.4817V58.2077C29.3477 58.2077 33.2598 53.782 38.3457 53.782C41.7336 53.782 45.4854 55.9454 47.6019 57.3871C48.8146 58.2081 50.2452 58.6478 51.7097 58.6497H61.6633C62.6609 58.6497 63.6177 59.046 64.3231 59.7515C65.0285 60.4569 65.4248 61.4137 65.4248 62.4113C65.4248 63.4089 65.0285 64.3657 64.3231 65.0711C63.6177 65.7766 62.6609 66.1729 61.6633 66.1729H42.4818V67.0971H61.6633C62.3343 67.0977 62.9976 66.954 63.6083 66.6758C64.2189 66.3976 64.7626 65.9913 65.2025 65.4846C65.6425 64.9779 65.9683 64.3826 66.158 63.7389C66.3478 63.0953 66.3969 62.4184 66.3021 61.7541L73.4566 54.6006C74.0563 54.0013 74.8202 53.5932 75.6518 53.4279C76.4834 53.2627 77.3453 53.3477 78.1286 53.6722C78.9119 53.9967 79.5814 54.5461 80.0525 55.251C80.5236 55.956 80.7751 56.7847 80.7753 57.6326V57.6316Z" fill="#EAB88B"/>
<path d="M27.3865 52.9004H17.8868C16.8037 52.9004 15.9258 53.7784 15.9258 54.8614V76.039C15.9258 77.122 16.8037 78 17.8868 78H27.3865C28.4695 78 29.3475 77.122 29.3475 76.039V54.8614C29.3475 53.7784 28.4695 52.9004 27.3865 52.9004Z" fill="#699FF0"/>
</svg>
