<svg width="100" height="100" viewBox="0 0 100 100" fill="none" xmlns="http://www.w3.org/2000/svg">
<path d="M55.3986 86.6769C48.5097 87.6658 35.2763 88.688 25.8319 77.2991C16.3874 65.9102 19.4986 47.4324 19.4986 47.4324C21.6541 51.0102 24.3986 53.2213 27.8541 53.788C23.2541 33.5324 36.2874 22.1769 55.0208 12.7324C55.0208 12.7324 45.743 35.6435 55.7541 39.1213C64.0986 42.0213 65.6652 31.3102 65.6652 31.3102C65.6652 31.3102 73.0541 34.7658 74.0986 44.6324C74.9874 53.0324 71.5986 57.9991 71.5986 57.9991C75.1319 57.7102 78.1208 56.0213 80.943 53.3435C81.543 73.988 65.5652 85.2324 55.3986 86.6769Z" fill="#FFCE00"/>
<path d="M40.998 38.3203C40.998 38.3203 41.7869 46.1092 34.3536 54.8648C26.9203 63.6203 28.0203 86.6092 47.3091 87.2425C69.2536 87.9648 68.898 59.6648 59.5425 50.787C58.3203 53.787 55.998 55.8092 52.9203 57.1759C54.198 47.9648 49.6425 42.0092 40.998 38.3203Z" fill="#FFAA00"/>
<path d="M57.5877 65.0549C51.9654 71.7105 42.2877 66.0993 46.6988 55.666C29.3877 65.4216 39.2543 84.2438 49.6766 84.7438H49.7766C50.3766 84.5549 50.9543 84.3327 51.521 84.1216C58.2988 80.6993 64.0099 71.5327 57.5877 65.0549Z" fill="#FF5500"/>
</svg>
