<svg width="954" height="844" viewBox="0 0 954 844" fill="none" xmlns="http://www.w3.org/2000/svg">
<mask id="mask0_42_4367" style="mask-type:alpha" maskUnits="userSpaceOnUse" x="0" y="0" width="954" height="844">
<rect width="954" height="844" fill="white"/>
</mask>
<g mask="url(#mask0_42_4367)">
<path d="M542.808 106.922L533.86 117.588L506.021 125.722V108.097L533.86 99.3301L542.808 106.922Z" fill="#455A64"/>
<path d="M533.86 99.3289L531.058 98.877L504.033 107.283L504.395 125.721H506.022V108.096L533.86 99.3289Z" fill="#132D55"/>
<path d="M565.041 142.172L555.731 150.487L505.568 148.047L506.472 130.422L556.545 132.953L565.041 142.172Z" fill="#FFC727"/>
<path d="M556.545 132.953L559.076 134.399L567.029 142.986L556.545 152.205L505.93 149.493L505.568 148.047L555.731 150.488L565.041 142.172L556.545 132.953Z" fill="#FFC727"/>
<path opacity="0.1" d="M556.545 132.953L559.076 134.399L567.029 142.986L556.545 152.205L505.93 149.493L505.568 148.047L555.731 150.488L565.041 142.172L556.545 132.953Z" fill="black"/>
<path d="M444.38 130.419L453.961 138.463L504.033 134.486L502.587 116.861L452.605 120.929L444.38 130.419Z" fill="#FF4D43"/>
<path d="M444.38 130.422L453.961 138.466L504.033 134.489L503.853 137.472L454.864 141.358L445.555 133.676L444.38 130.422Z" fill="#F44238"/>
<path d="M510.449 345.896H496.711L499.874 92.2787C499.874 89.1153 501.501 86.4941 503.399 86.4941H503.67C505.569 86.4941 507.105 89.0249 507.195 92.2787L510.449 345.896Z" fill="#DDEFF7"/>
<path opacity="0.4" d="M510.449 345.896H496.711L499.874 92.2787C499.874 89.1153 501.501 86.4941 503.399 86.4941H503.67C505.569 86.4941 507.105 89.0249 507.195 92.2787L510.449 345.896Z" fill="#EFF5FC"/>
<g opacity="0.3">
<g opacity="0.3">
<path opacity="0.3" d="M502.317 96.2559C502.046 105.565 501.865 114.875 501.684 124.185C501.504 133.494 501.413 142.804 501.323 152.113C501.323 161.423 501.323 170.732 501.504 180.042L501.684 187.001L502.046 193.961L502.588 200.921C502.769 203.27 502.95 205.53 502.95 207.88C503.221 217.19 502.859 226.499 502.317 235.809C501.775 245.118 501.142 254.428 500.6 263.647C499.606 282.266 499.154 300.885 500.69 319.414C499.877 310.104 499.425 300.795 499.425 291.485C499.425 282.176 499.786 272.866 500.238 263.557C500.69 254.247 501.413 244.938 501.865 235.718C502.407 226.409 502.769 217.099 502.498 207.79C502.407 205.44 502.227 203.18 502.046 200.83L501.594 193.871L501.323 186.911L501.142 179.951C500.961 170.642 500.961 161.332 501.052 152.023C501.142 133.494 501.684 114.875 502.317 96.2559Z" fill="black"/>
</g>
<g opacity="0.3">
<path opacity="0.3" d="M502.95 90.918L503.583 102.035L504.035 113.152C504.306 120.564 504.577 127.975 504.667 135.387C504.758 142.798 504.758 150.21 504.667 157.712C504.577 165.123 504.306 172.535 503.583 179.946L503.944 174.342L504.125 168.739C504.216 165.033 504.306 161.327 504.396 157.621C504.487 150.21 504.396 142.798 504.215 135.387C504.125 127.975 503.944 120.564 503.673 113.152L503.312 102.035L502.95 90.918Z" fill="black"/>
</g>
<g opacity="0.3">
<path opacity="0.3" d="M501.232 292.389C501.775 288.774 502.136 285.159 502.588 281.543C503.04 277.928 503.402 274.313 503.763 270.697C504.486 263.466 505.119 256.145 505.48 248.915C505.752 245.299 505.842 241.594 506.023 237.978C506.113 234.363 506.204 230.657 506.113 227.042V224.33C506.113 223.426 506.023 222.523 506.023 221.619C505.932 219.811 505.932 218.003 505.752 216.196C505.571 214.388 505.48 212.58 505.3 210.773L504.486 205.35C505.932 212.49 506.384 219.811 506.475 227.132C506.565 230.748 506.475 234.453 506.475 238.069C506.294 241.684 506.203 245.39 506.023 249.005C505.571 256.326 504.938 263.557 504.125 270.788C503.311 277.928 502.407 285.249 501.232 292.389Z" fill="black"/>
</g>
<g opacity="0.3">
<path opacity="0.3" d="M506.204 168.023C505.843 172.362 505.481 176.61 505.12 180.948C504.849 185.287 504.577 189.535 504.487 193.873C504.487 196.042 504.487 198.212 504.849 200.291C504.939 200.833 505.029 201.375 505.301 201.737C505.391 201.827 505.391 201.917 505.481 201.917C505.481 201.917 505.572 201.917 505.662 201.827C505.843 201.646 505.933 201.375 506.024 201.194C506.385 200.2 506.566 199.116 506.656 198.031C506.927 195.862 507.018 193.783 506.927 191.614C506.837 189.444 506.656 187.275 506.204 185.196C507.199 189.354 507.47 193.783 507.018 198.121C506.927 199.206 506.747 200.291 506.385 201.375C506.295 201.646 506.204 201.917 505.933 202.189C505.843 202.279 505.662 202.46 505.391 202.369C505.21 202.279 505.12 202.098 505.029 202.008C504.758 201.466 504.668 200.923 504.487 200.381C504.126 198.212 504.035 196.042 504.035 193.873C504.126 189.535 504.397 185.196 504.758 180.948C505.12 176.61 505.572 172.271 506.204 168.023Z" fill="black"/>
</g>
<g opacity="0.3">
<path opacity="0.3" d="M507.106 261.117C506.383 269.794 505.66 278.471 504.666 287.148C504.395 289.317 504.124 291.486 503.852 293.655C503.581 295.825 503.129 297.994 502.858 300.073C502.316 304.411 502.045 308.75 502.135 313.088C502.225 315.257 502.406 317.426 502.768 319.505C502.948 320.59 503.31 321.584 503.762 322.488C504.033 322.94 504.395 323.301 504.847 323.482C505.118 323.573 505.208 323.573 505.389 323.392C505.57 323.211 505.66 323.03 505.75 322.759C506.112 321.765 506.293 320.68 506.473 319.596C506.654 318.511 506.745 317.426 506.745 316.342C506.835 314.173 506.925 312.003 506.835 309.834C506.745 307.665 506.654 305.496 506.293 303.326C506.202 302.784 506.112 302.242 505.931 301.7C505.75 301.157 505.66 300.615 505.298 300.344C505.118 300.253 504.937 300.344 504.756 300.525C504.575 300.705 504.485 300.977 504.395 301.248C504.214 301.79 504.123 302.242 504.033 302.784C503.672 304.953 503.581 307.123 503.581 309.292C503.581 310.376 503.672 311.461 503.762 312.546C503.852 313.088 503.852 313.63 503.943 314.173C503.852 313.63 503.762 313.088 503.672 312.546C503.581 311.461 503.491 310.376 503.491 309.292C503.4 307.123 503.491 304.953 503.762 302.784C503.852 302.242 503.943 301.7 504.123 301.157C504.214 300.886 504.304 300.615 504.485 300.434C504.575 300.344 504.666 300.163 504.847 300.163C505.027 300.073 505.208 300.163 505.389 300.253C505.841 300.705 505.931 301.248 506.112 301.79C506.293 302.332 506.383 302.875 506.473 303.417C506.835 305.586 506.925 307.755 507.016 309.925C507.106 312.094 507.106 314.263 506.925 316.432C506.835 317.517 506.745 318.601 506.654 319.686C506.473 320.771 506.383 321.855 505.931 322.94C505.841 323.211 505.66 323.482 505.479 323.663C505.389 323.753 505.208 323.844 505.027 323.934C504.847 323.934 504.666 323.934 504.575 323.934C503.943 323.753 503.581 323.301 503.22 322.849C502.677 321.855 502.316 320.771 502.135 319.686C501.683 317.517 501.502 315.348 501.502 313.178C501.412 308.84 501.683 304.411 502.316 300.073C502.587 297.903 503.039 295.734 503.31 293.655C503.581 291.486 503.852 289.317 504.123 287.148C505.389 278.471 506.293 269.794 507.106 261.117Z" fill="black"/>
</g>
<g opacity="0.3">
<path opacity="0.3" d="M500.42 345.897C500.149 342.733 499.968 339.66 499.697 336.497L499.154 327.097L498.702 317.697C498.522 314.533 498.431 311.46 498.341 308.297C498.612 311.46 498.793 314.533 499.064 317.697L499.606 327.097L500.058 336.497C500.239 339.66 500.329 342.824 500.42 345.897Z" fill="black"/>
</g>
<g opacity="0.3">
<path opacity="0.3" d="M504.035 345.895C504.668 343.365 504.849 340.743 504.668 338.213C504.487 335.682 503.945 333.151 502.86 330.801C501.776 328.451 501.053 325.92 500.601 323.39C500.058 320.859 499.787 318.238 499.606 315.707C499.878 318.238 500.33 320.859 500.872 323.39C501.414 325.92 502.137 328.361 503.222 330.711C504.306 333.061 504.939 335.682 505.029 338.303C505.21 340.834 504.849 343.455 504.035 345.895Z" fill="black"/>
</g>
<g opacity="0.3">
<path opacity="0.3" d="M507.107 269.699C506.745 276.026 506.655 282.443 506.926 288.77C507.017 291.934 507.197 295.097 507.649 298.261C508.101 301.424 508.553 304.587 508.824 307.751C509.095 310.914 509.367 314.078 509.367 317.332C509.367 320.495 509.276 323.749 508.553 326.912C507.74 329.985 507.288 333.149 507.017 336.312C506.745 339.476 506.565 342.639 506.655 345.893C506.384 339.566 506.655 333.058 508.192 326.912C508.824 323.839 508.915 320.585 508.915 317.422C508.824 314.259 508.734 311.095 508.463 307.932C508.192 304.768 507.83 301.605 507.378 298.441C507.017 295.278 506.836 292.114 506.745 288.861C506.474 282.443 506.655 276.116 507.107 269.699Z" fill="black"/>
</g>
<g opacity="0.3">
<path opacity="0.3" d="M504.577 86.6758C504.848 90.4719 505.119 94.3584 505.391 98.1545C505.662 102.041 505.843 105.837 505.933 109.724C506.114 113.61 506.204 117.406 506.294 121.293C506.294 125.179 506.294 128.975 506.023 132.862C506.114 130.964 506.114 128.975 506.023 127.077C506.023 125.179 505.933 123.191 505.933 121.293C505.843 117.406 505.662 113.61 505.481 109.724L504.577 86.6758Z" fill="black"/>
</g>
</g>
<mask id="mask1_42_4367" style="mask-type:luminance" maskUnits="userSpaceOnUse" x="-492" y="-44" width="1445" height="963">
<path d="M952.336 -43.6621H-492V918.927H952.336V-43.6621Z" fill="white"/>
</mask>
<g mask="url(#mask1_42_4367)">
<mask id="mask2_42_4367" style="mask-type:luminance" maskUnits="userSpaceOnUse" x="-492" y="-45" width="1445" height="964">
<path d="M952.337 -44.5742H-491.095V918.919H952.337V-44.5742Z" fill="white"/>
</mask>
<g mask="url(#mask2_42_4367)">
<path d="M-240.407 -21.2593C-240.407 -21.2593 147.383 0.430812 207.051 63.9651L179.529 142.953L17.0588 221.218C17.0588 221.218 6.99361 254.115 61.4247 281.227C61.4247 281.227 140.914 324.608 230.569 346.298C230.569 346.298 417.788 402.331 445.518 419.502C445.518 419.502 555.099 462.34 530.144 532.381L560.522 865.139C560.522 865.139 527.369 805.044 747.147 671.289L836.184 612.815C836.184 612.815 931.693 545.124 937.957 515.119L508.985 368.892L163.918 219.772L180.144 209.83C180.144 209.83 172.339 186.333 218.04 158.317L280.173 120.359C280.173 120.359 347.133 86.5584 331.83 42.9977L103.531 -4.08793L-237.429 -26.3203L-240.407 -21.2593Z" fill="#132D55"/>
<path d="M-491.095 -23.336C-491.095 -23.336 23.426 -32.3736 171.313 27.2743C171.313 27.2743 241.148 47.7892 193.188 75.4449L78.1652 138.707C78.1652 138.707 -17.6535 182.72 27.5348 241.102C27.5348 241.102 69.3329 283.308 154.162 303.191L399.92 380.281C399.92 380.281 547.806 429.084 539.59 500.751C539.59 500.751 541.642 543.499 480.741 579.107L184.252 729.492C184.252 729.492 -31.4145 828.543 -49.9007 916.569H584.782C584.782 916.569 536.924 855.747 576.665 802.696C576.665 802.696 619.083 741.873 704.007 686.383L852.21 590.314L886.095 566.365L910.227 545.578C910.227 545.578 987.253 486.834 932.823 426.282C932.823 426.282 857.344 353.53 661.183 330.936L503.03 307.438L393.143 288.459L309.956 272.192C309.956 272.192 213.419 250.682 190.312 223.118C190.312 223.118 139.784 184.527 234.986 130.845C234.986 130.845 308.21 94.6948 328.75 66.4065C328.75 66.4065 355.451 33.2391 282.228 9.19919C282.228 9.19919 111.029 -34.8137 -55.9601 -35.3559L-491.095 -44.5742V-23.336Z" fill="#F2F7F9"/>
<path d="M229.953 914.22C233.343 899.939 239.197 886.382 246.488 873.728C253.677 861.083 262.304 849.24 271.547 838.035C290.238 815.621 311.907 795.738 334.912 777.392C346.414 768.264 358.328 759.498 370.446 751.093C382.667 742.688 395.094 734.644 408.033 727.053C409.677 726.059 411.32 725.155 412.962 724.161C414.815 723.076 416.351 722.354 417.996 721.45L427.649 716.208L447.055 705.634L485.775 684.487L563.316 642.281L572.969 637.039L575.436 635.684L576.666 635.051L577.488 634.599C577.696 634.509 577.895 634.418 578.003 634.328L578.618 634.057L583.544 631.707L593.504 627.007C596.794 625.471 600.084 623.754 603.365 622.218C606.655 620.591 609.936 619.054 613.126 617.337L622.779 612.276C624.424 611.463 625.961 610.649 627.606 609.745L632.324 607.125C635.515 605.408 638.696 603.691 641.778 601.883C654.305 594.743 666.426 587.152 678.131 579.108C689.835 571.065 700.934 562.479 710.994 553.261C721.063 543.952 730.3 534.101 737.187 523.346C740.577 518.015 743.451 512.411 745.403 506.808C746.325 504.006 747.039 501.204 747.455 498.403C747.555 497.68 747.663 497.047 747.663 496.324C747.663 495.692 747.762 494.969 747.762 494.336C747.762 493.703 747.762 493.071 747.663 492.438C747.663 492.167 747.663 491.805 747.555 491.535V491.083C747.555 490.993 747.555 490.902 747.555 490.902L747.455 490.631V490.27V490.089L747.347 489.275C747.247 488.733 747.247 488.1 747.148 487.558V486.021C747.148 485.66 747.148 485.298 747.148 484.937L747.039 482.768C746.841 481.322 746.633 479.876 746.325 478.43C745.602 475.538 744.581 472.646 743.243 469.845C741.806 467.043 740.161 464.241 738.209 461.53C736.257 458.819 734.105 456.197 731.737 453.667C727.019 448.606 721.569 443.725 715.821 439.207C710.072 434.688 703.809 430.441 697.437 426.374C684.602 418.33 670.945 411.1 656.872 404.413C642.8 397.724 628.32 391.67 613.633 385.975C606.239 383.174 598.846 380.463 591.353 377.842C587.656 376.576 583.851 375.312 580.154 374.047L577.389 373.143L574.713 372.329L569.173 370.974L522.236 359.225L428.472 335.637L333.782 315.393L286.336 305.271L274.319 302.83L262.304 300.119L250.391 297.227C246.488 296.233 242.483 295.149 238.581 294.154C207.257 285.75 176.448 276.079 145.946 265.867L134.547 261.98L128.796 259.993L122.942 257.733C115.137 254.751 107.743 250.864 100.759 246.436C93.7755 241.917 87.408 236.404 82.4785 229.898L80.7322 227.367L79.9106 226.102C79.6024 225.65 79.3973 225.198 79.1921 224.746L77.7541 222.034C77.3438 221.131 76.9325 220.137 76.5221 219.233C76.1109 218.329 75.8027 217.335 75.4945 216.341L74.9811 214.895L74.6729 213.358C74.5708 212.816 74.4677 212.364 74.3647 211.823L74.1595 210.286C74.0574 209.744 74.0574 209.202 73.9543 208.659L73.8513 207.846C73.8513 207.575 73.8513 207.213 73.8513 206.942C73.8513 206.852 73.8513 206.58 73.8513 206.671C73.8513 206.58 73.8513 206.49 73.8513 206.4L73.7492 205.948C73.7492 205.948 73.7492 205.857 73.7492 205.767V205.496V204.863C73.6461 204.502 73.6461 204.05 73.6461 203.688C73.6461 202.965 73.6461 202.153 73.6461 201.429C73.8513 199.983 74.0573 198.447 74.4677 197.091L74.7759 196.006C74.8789 195.645 74.9811 195.374 75.1872 195.012C75.3923 194.38 75.7005 193.656 75.9057 193.024C76.5221 191.759 77.1376 190.494 77.8571 189.319C80.6301 184.438 84.1216 180.372 87.9214 176.485C91.619 172.6 95.7269 169.075 99.8349 165.73C104.045 162.387 108.358 159.224 112.774 156.151C115.034 154.614 117.19 153.169 119.553 151.723C120.682 151 121.812 150.277 123.045 149.554C124.174 148.831 125.304 148.198 126.639 147.475L140.503 139.703L168.334 124.249L223.997 93.3402L237.862 85.568C240.224 84.3027 242.38 83.0373 244.64 81.7719C245.77 81.1392 246.797 80.4162 247.823 79.7835C248.953 79.1508 249.878 78.4277 250.904 77.7046C254.909 74.8133 258.504 71.5594 261.174 67.9441C263.845 64.3296 265.59 60.3527 265.796 56.2863C266.103 52.2191 264.768 48.0614 262.612 44.1757C260.353 40.2896 257.169 36.7649 253.472 33.6018C252.548 32.7884 251.623 32.0653 250.699 31.3424C250.186 30.9808 249.775 30.7098 249.261 30.3482L247.618 29.3541C247.105 28.9926 246.591 28.7215 245.975 28.36L244.332 27.4562C243.202 26.8236 242.072 26.2813 240.942 25.7391C236.321 23.4797 231.495 21.4914 226.462 19.6839C216.501 16.0689 206.23 13.0865 195.755 10.4657C185.28 7.84479 174.702 5.49498 164.021 3.41633C142.66 -0.740969 121.196 -4.08481 99.5267 -6.79606C77.8571 -9.5074 56.1876 -12.4897 34.415 -14.478C-52.5706 -23.5156 -140.276 -27.8535 -227.878 -30.7456C-271.73 -32.1012 -315.583 -33.0954 -359.435 -33.5473C-403.39 -33.9991 -447.242 -34.1799 -491.095 -33.728C-447.242 -34.6318 -403.39 -34.8125 -359.537 -34.8125C-315.685 -34.7221 -271.833 -34.1799 -227.878 -33.1857C-140.173 -31.0167 -52.3654 -27.4921 34.9292 -19.2679C56.804 -17.4604 78.5757 -14.6587 100.348 -12.2186C122.12 -9.77846 143.893 -6.525 165.459 -2.54846C176.243 -0.560197 187.026 1.69922 197.604 4.32008C208.285 6.94095 218.862 9.83296 229.235 13.448C234.37 15.2555 239.607 17.2438 244.537 19.6839C245.77 20.2262 247.002 20.8588 248.235 21.5818L250.083 22.5759C250.699 22.9375 251.315 23.2989 251.931 23.6604L253.677 24.745C254.294 25.1065 254.909 25.5583 255.526 25.9199C256.656 26.7332 257.785 27.637 258.812 28.5407C263.023 32.0653 266.823 36.1323 269.596 40.8318C272.369 45.5313 274.217 50.9537 273.909 56.5575C273.806 59.3585 273.19 62.07 272.163 64.6912L271.341 66.5892C271.136 67.221 270.726 67.8537 270.418 68.396C270.109 69.0287 269.801 69.6614 269.39 70.2037L268.158 71.921C264.872 76.4402 260.764 80.145 256.347 83.4892C255.218 84.3027 254.088 85.1161 252.958 85.8392C251.829 86.5614 250.699 87.3748 249.466 88.0979C247.105 89.4536 244.742 90.8998 242.483 92.1652L228.619 100.028L173.367 131.479L145.741 147.204L131.877 155.066C130.849 155.608 129.719 156.331 128.693 156.964L125.406 159.043C123.25 160.399 121.093 161.845 119.039 163.291C114.829 166.182 110.721 169.255 106.921 172.419C103.018 175.581 99.3206 178.926 96.0342 182.451C92.7479 185.975 89.6676 189.68 87.6131 193.476C86.9967 194.47 86.6894 195.374 86.1751 196.368C85.97 196.82 85.8678 197.362 85.6618 197.814C85.5596 198.085 85.4566 198.266 85.4566 198.537L85.2514 199.26C84.9432 200.254 84.9432 201.158 84.7381 202.062V203.417C84.7381 203.598 84.7381 203.869 84.7381 204.05L84.8402 204.321V204.502C84.8402 204.502 84.8402 204.682 84.8402 204.773L84.9432 205.948C84.9432 206.129 84.9432 206.309 84.9432 206.58C84.9432 206.942 84.9432 207.032 84.9432 207.213V207.575V208.117C84.9432 208.479 85.0463 208.84 85.0463 209.202L85.2514 210.286C85.3536 210.648 85.4566 211.009 85.5596 211.371L85.8679 212.454L86.2782 213.539C86.5864 214.262 86.7916 215.076 87.0998 215.799L88.1265 217.968L89.3594 220.137C89.5645 220.499 89.7697 220.86 89.9758 221.222L90.6943 222.215L92.1323 224.294C96.2403 229.627 101.683 234.326 107.845 238.212C120.169 246.255 134.957 250.954 150.259 255.926C180.658 265.777 211.365 275.085 242.38 283.128C246.283 284.123 250.083 285.117 253.986 286.021L265.693 288.732L277.401 291.262L289.211 293.522L336.863 303.282L432.169 322.713L526.448 345.398L573.583 356.784L576.566 357.507L578.003 357.869L578.717 358.05L579.232 358.14C579.44 358.23 579.639 358.23 579.847 358.321L582.929 359.225L585.912 360.128C589.807 361.394 593.712 362.569 597.517 363.924C605.218 366.545 612.819 369.166 620.411 372.058C635.614 377.751 650.609 383.807 665.188 390.585C679.875 397.363 694.255 404.774 708.021 413.27C714.899 417.517 721.569 422.036 728.041 426.916C734.512 431.797 740.676 437.219 746.217 443.094C748.992 446.075 751.667 449.239 754.125 452.493C756.593 455.836 758.753 459.361 760.705 463.066C762.549 466.771 764.095 470.748 765.116 474.905C765.631 476.984 765.939 479.063 766.246 481.142L766.454 484.304C766.553 484.847 766.454 485.389 766.454 485.931C766.454 486.383 766.454 487.196 766.454 487.106C766.454 487.196 766.454 487.287 766.454 487.377V487.558C766.454 487.558 766.454 487.287 766.454 487.468V487.739L766.662 488.733L766.761 489.546C766.861 490.089 766.861 490.631 766.969 491.173C767.069 492.257 767.068 493.251 767.068 494.336C767.068 495.33 766.969 496.324 766.969 497.319C766.861 498.313 766.761 499.307 766.662 500.301C766.147 504.187 765.225 507.893 764.095 511.507C761.727 518.738 758.337 525.425 754.333 531.751C750.429 538.078 745.81 543.952 740.984 549.556L737.287 553.713L733.491 557.69C730.915 560.4 728.249 562.931 725.582 565.462C714.799 575.584 703.086 584.802 690.866 593.297C678.745 601.883 666.119 609.836 653.275 617.337C650.094 619.235 646.813 621.043 643.523 622.85L638.696 625.562C637.051 626.466 635.406 627.368 633.77 628.182L623.909 633.424C620.619 635.141 617.23 636.858 613.949 638.485C610.56 640.112 607.27 641.919 603.88 643.546L593.82 648.426L588.786 650.866L584.674 653.126L575.021 658.458L498.104 701.387L459.591 722.896L440.385 733.831L430.732 739.164C429.186 740.067 427.442 740.971 426.113 741.785C424.567 742.688 423.031 743.591 421.594 744.495C409.368 751.906 397.456 759.769 385.748 767.993C374.143 776.217 362.744 784.713 351.857 793.66C330.085 811.463 309.751 830.533 292.703 851.41C284.179 861.806 276.579 872.734 270.314 884.032C264.05 895.33 259.223 907.08 256.553 918.92L229.953 914.22Z" fill="white"/>
</g>
<path d="M302.653 688.443L132.555 918.019H541.994L506.871 727.017L302.653 688.443Z" fill="url(#paint0_linear_42_4367)"/>
</g>
<mask id="mask3_42_4367" style="mask-type:luminance" maskUnits="userSpaceOnUse" x="272" y="269" width="287" height="357">
<path d="M558.533 269H272V625.516H558.533V269Z" fill="white"/>
</mask>
<g mask="url(#mask3_42_4367)">
<path d="M300.537 616.354C299 620.001 300.086 623.711 302.852 624.879L303.507 625.166C306.293 626.335 309.694 624.531 311.251 620.883L416.855 370.855C418.39 367.207 417.407 363.292 414.622 362.104L413.966 361.817C411.179 360.649 407.677 362.657 406.14 366.305L300.537 616.354Z" fill="#D8DEE8"/>
<path d="M443.935 289.782C443.484 290.868 443.813 292.036 445.349 292.671C446.886 293.327 447.95 292.753 448.422 291.688C451.208 285.212 454.014 278.735 456.801 272.239C457.272 271.173 456.923 269.984 455.305 269.288C453.687 268.611 452.601 269.165 452.15 270.251C449.405 276.768 446.681 283.265 443.935 289.782Z" fill="#D8DEE8"/>
<path d="M558.533 410.821C558.533 410.821 557.938 416.559 556.034 421.478C554.722 424.9 551.629 427.113 547.696 427.605C535.262 429.163 526.001 429.921 520.122 430.208C518.319 430.29 516.393 429.593 514.878 428.281C513.382 426.97 512.44 425.187 512.359 423.444C512.154 419.018 511.887 414.551 511.58 410.083C526.943 409.57 542.615 409.795 558.533 410.821Z" fill="white"/>
<path d="M511.764 407.191C511.764 407.191 509.387 415.676 506.397 421.353C504.696 424.611 500.845 426.21 496.645 425.533C481.568 422.686 442.092 416.414 410.278 398.912C406.017 396.515 402.554 392.681 403.088 388.419C404.111 380.385 406.078 377.762 406.099 377.762C441.354 383.337 476.856 393.051 511.764 407.191Z" fill="#699FF0"/>
<path d="M445.063 286.975C444.734 287.159 470.24 295.992 497.219 317.531C524.198 338.558 552.653 372.292 558.512 410.841C558.287 410.513 522.006 418.014 511.579 410.123C517.664 397.766 498.53 333.127 445.063 286.975Z" fill="#4D7ABB"/>
<path d="M445.063 286.975C432.034 317.224 419.046 347.494 406.1 377.784C406.079 377.927 422.488 383.994 443.485 391.638C464.606 399.098 490.296 408.157 511.6 410.103C525.182 376.288 490.808 326.159 445.063 286.975Z" fill="white"/>
<path d="M278.76 292.547C278.76 292.547 275.052 296.974 272.86 301.769C271.324 305.089 271.898 308.84 274.274 312.016C281.813 322.038 287.733 329.19 291.625 333.617C292.813 334.99 294.678 335.871 296.665 336.035C298.652 336.199 300.577 335.625 301.868 334.478C305.187 331.527 308.567 328.616 311.988 325.727C301.684 314.332 290.601 303.245 278.76 292.547Z" fill="#4D7ABB"/>
<path d="M313.955 323.576C313.955 323.576 309.53 331.2 307.543 337.307C306.396 340.812 307.932 344.685 311.353 347.206C323.931 356.039 355.93 379.976 390.633 390.633C395.324 392.026 400.487 391.821 403.15 388.46C408.209 382.128 408.701 378.89 408.68 378.89C380.144 357.453 348.432 338.762 313.955 323.576Z" fill="white"/>
<path d="M446.619 287.63C446.701 287.978 422.589 275.846 388.358 271.501C354.495 266.808 310.492 269.903 278.76 292.549C279.149 292.487 299.061 323.741 311.987 325.708C316.597 312.776 376.271 281.441 446.619 287.63Z" fill="white"/>
<path d="M446.62 287.627C434.021 318.061 421.382 348.474 408.68 378.888C408.578 378.99 392.804 371.448 372.687 361.734C352.611 351.794 328.213 339.661 311.988 325.746C326.758 292.402 386.658 282.114 446.62 287.627Z" fill="#699FF0"/>
</g>
<path d="M120.5 471.501C68.9814 470.332 -8 501.501 -8 501.501V850.001L733.5 882.5C733.5 882.5 779.445 767.663 708 709.501C669.336 678.025 654.486 650.884 611 626.501C564.131 600.22 526.744 611.601 479.5 586.001C437.352 563.162 427.8 527.819 383.5 509.501C330.551 487.606 293.537 510.804 237 501.501C190.643 493.872 167.468 472.566 120.5 471.501Z" fill="#F2F7F9"/>
<g clip-path="url(#clip0_42_4367)">
<mask id="mask4_42_4367" style="mask-type:luminance" maskUnits="userSpaceOnUse" x="-65" y="376" width="286" height="284">
<path d="M220.426 376.312H-64.1045V659.736H220.426V376.312Z" fill="white"/>
</mask>
<g mask="url(#mask4_42_4367)">
<path d="M220.41 517.069C220.63 519.251 219.138 521.006 217.086 520.971L196.927 520.699C194.825 520.665 192.977 518.841 192.774 516.643L192.418 512.792C192.214 510.592 193.74 508.837 195.843 508.872L215.951 509.263C218.002 509.298 219.833 511.104 220.054 513.269L220.41 517.069Z" fill="#97A6B7"/>
<path d="M94.9125 652.477C75.6349 653.414 56.4598 650.346 37.9791 643.29C19.9394 636.388 3.47653 626.044 -10.8331 612.545C-25.1935 599.013 -36.5362 583.129 -44.5049 565.422C-52.7108 547.186 -56.8647 527.978 -56.9155 508.447C-56.9664 489.171 -52.9991 470.867 -45.2678 454.08C-37.9264 438.162 -27.5333 424.323 -14.4952 412.904C-1.69459 401.707 13.005 393.424 29.1457 388.158C45.5408 382.823 62.7661 380.846 80.3825 382.176C97.7094 383.488 114.478 387.953 130.297 395.401C145.437 402.525 159.171 412.103 171.208 423.897C183.211 435.674 193.028 449.137 200.404 464.016C208.084 479.491 212.832 495.937 214.509 512.964C216.222 530.21 214.68 547.151 209.881 563.36C205.168 579.278 197.488 593.9 186.959 606.784C176.226 619.924 163.07 630.628 147.777 638.485C131.636 646.802 113.834 651.539 94.9125 652.477ZM80.5184 384.732C8.24081 379.33 -53.9993 433.083 -53.7111 508.499C-53.4229 588.19 15.633 653.142 94.7433 649.392C168.444 645.881 218.919 583.316 212.018 512.964C205.456 445.933 148.268 389.811 80.5184 384.732Z" fill="#97A6B7"/>
<path d="M87.1473 401.331C87.2652 403.479 85.6041 405.098 83.3661 404.944L79.4157 404.689C77.1599 404.535 75.2103 402.677 75.1091 400.53L74.0413 379.84C73.9388 377.727 75.7192 376.159 77.9405 376.329L81.8062 376.636C84.0275 376.806 85.8924 378.647 86.0104 380.76L87.1473 401.331Z" fill="#D8DEE8"/>
<path d="M101.303 654.642C101.439 657.198 99.6584 659.379 97.2178 659.498L92.9278 659.72C90.4861 659.856 88.3506 657.862 88.2148 655.288L86.9433 630.542C86.8074 628.02 88.7403 625.89 91.1642 625.805L95.3529 625.651C97.76 625.566 99.7942 627.526 99.9301 630.032L101.303 654.642Z" fill="#D8DEE8"/>
<path d="M220.41 514.855C220.63 517.036 219.138 518.791 217.086 518.758L196.927 518.485C194.825 518.451 192.977 516.627 192.774 514.429L192.418 510.577C192.214 508.379 193.74 506.622 195.843 506.657L215.951 507.049C218.002 507.083 219.833 508.889 220.054 511.054L220.41 514.855Z" fill="#D8DEE8"/>
<path d="M186.009 459.584C173.87 438.962 156.185 421.646 135.23 409.92C118.954 400.82 100.54 394.991 81.0089 393.61C61.1045 392.196 42.1833 395.553 25.3814 402.797C2.95057 412.46 -15.8013 429.077 -27.9237 450.517C-37.486 467.389 -42.8945 487.176 -42.742 508.702C-42.5724 530.551 -36.6891 551.462 -26.3638 569.937C-12.885 594.103 7.90124 613.736 32.7396 625.821C51.61 635.007 72.5826 639.71 94.1828 638.79C115.359 637.887 134.568 631.683 150.777 621.611C171.327 608.863 186.976 589.945 195.808 567.705C202.437 551.002 205.252 532.339 203.404 512.826C201.539 493.55 195.367 475.485 186.009 459.584ZM119.14 561.04C110.985 566.221 101.185 569.273 90.4529 569.391C79.6016 569.51 69.1924 566.596 60.0702 561.433C50.9489 556.268 43.1836 548.838 37.5886 539.975C31.9767 531.079 28.6028 520.768 28.2467 509.877C27.8906 499.072 30.5695 489.085 35.4694 480.683C40.3013 472.4 47.3036 465.651 55.7134 461.1C64.0718 456.584 73.8208 454.232 84.2646 454.675C94.607 455.118 104.389 458.254 112.884 463.333C121.31 468.378 128.516 475.365 133.806 483.614C139.129 491.914 142.537 501.527 143.283 511.786C144.046 522.131 142.012 531.863 137.824 540.282C133.602 548.77 127.16 555.927 119.14 561.04Z" fill="white"/>
<path d="M135.23 409.92C127.94 427.338 120.497 445.148 112.901 463.333C104.407 458.237 94.6409 455.101 84.2818 454.675C73.838 454.232 64.0723 456.584 55.7306 461.1C45.5578 441.569 35.4359 422.123 25.3818 402.797C42.2008 395.553 61.105 392.196 81.0094 393.61C100.541 394.991 118.954 400.82 135.23 409.92Z" fill="#FF4D43"/>
<path d="M150.761 621.594C134.568 631.649 115.342 637.87 94.1659 638.772C72.5658 639.694 51.5931 634.99 32.7227 625.804C42.0477 603.834 51.1523 582.395 60.0533 561.449C69.1755 566.614 79.5847 569.528 90.436 569.408C101.185 569.289 110.968 566.238 119.123 561.057C129.618 581.117 140.163 601.295 150.761 621.594Z" fill="#FF4D43"/>
<path d="M203.37 512.81C205.219 532.323 202.421 550.985 195.775 567.687C176.684 558.654 157.355 549.536 137.824 540.299C142.028 531.881 144.047 522.148 143.283 511.804C142.52 501.544 139.112 491.931 133.806 483.632C151.625 475.434 169.004 467.424 186.009 459.584C195.367 475.485 201.539 493.551 203.37 512.81Z" fill="#FF4D43"/>
<path d="M28.2467 509.86C28.6028 520.75 31.9937 531.061 37.5887 539.958C16.8194 549.673 -4.49239 559.659 -26.3808 569.902C-36.6891 551.428 -42.5893 530.516 -42.7588 508.667C-42.9284 487.142 -37.503 467.355 -27.9406 450.482C-6.54396 460.657 14.5814 470.712 35.4694 480.648C30.5526 489.085 27.8908 499.055 28.2467 509.86Z" fill="#FF4D43"/>
<path opacity="0.2" d="M186.009 459.584C173.87 438.962 156.185 421.646 135.23 409.92C118.954 400.82 100.54 394.991 81.0089 393.61C61.1045 392.196 42.1833 395.553 25.3814 402.797C2.95057 412.46 -15.8011 429.077 -27.9237 450.517C-37.486 467.389 -42.8945 487.176 -42.742 508.702C-42.5724 530.551 -36.6891 551.462 -26.3638 569.937C-12.885 594.103 7.90124 613.736 32.7396 625.821C51.6101 635.007 72.5826 639.71 94.1828 638.79C115.359 637.887 134.568 631.683 150.777 621.611C171.327 608.863 186.976 589.945 195.808 567.705C202.437 551.002 205.252 532.339 203.404 512.826C201.539 493.55 195.367 475.485 186.009 459.584ZM165.239 551.684C158.644 567.448 147.183 580.708 132.347 589.468C120.751 596.336 107.085 600.427 92.1319 600.801C76.9739 601.176 62.3248 597.682 49.1856 591.138C31.9428 582.566 17.4975 568.829 8.05389 552.042C0.814278 539.174 -3.44129 524.619 -3.76351 509.348C-4.08562 494.249 -0.542076 480.257 5.93451 468.258C14.2084 452.903 27.2295 440.802 43.0311 433.627C54.9496 428.19 68.4631 425.532 82.7559 426.333C96.8783 427.117 110.221 431.19 122.056 437.683C137.315 446.069 150.201 458.612 158.967 473.627C165.732 485.199 170.105 498.323 171.275 512.264C172.462 526.357 170.224 539.753 165.239 551.684Z" fill="#FF4D43"/>
</g>
</g>
</g>
<defs>
<linearGradient id="paint0_linear_42_4367" x1="481.437" y1="698.386" x2="185.712" y2="831.2" gradientUnits="userSpaceOnUse">
<stop stop-color="#F2F7F9" stop-opacity="0"/>
<stop offset="1" stop-color="#F2F7F9"/>
</linearGradient>
<clipPath id="clip0_42_4367">
<rect width="286" height="284" fill="white" transform="translate(-65 376)"/>
</clipPath>
</defs>
</svg>
