<svg width="520" height="520" viewBox="0 0 520 520" fill="none" xmlns="http://www.w3.org/2000/svg">
<path fill-rule="evenodd" clip-rule="evenodd" d="M307.664 445.639C352.868 434.032 392.285 406.33 418.518 367.729C444.751 329.128 455.998 282.282 450.148 235.979C444.299 189.676 421.755 147.098 386.747 116.234C351.738 85.3696 306.671 68.34 260 68.34V1C283.147 1 306.001 4.09972 328 10.0857C365.941 20.41 401.333 39.3202 431.279 65.7212C478.588 107.43 509.053 164.967 516.957 227.539C524.862 290.11 509.664 353.416 474.214 405.58C451.774 438.598 422.196 465.716 388.014 485.152C368.223 496.405 346.887 505.083 324.5 510.84C324.47 510.848 324.44 510.855 324.41 510.863L307.664 445.639Z" fill="#C4FF8A"/>
<path fill-rule="evenodd" clip-rule="evenodd" d="M104.918 147.38C81.7396 179.298 68.9737 217.591 68.363 257.033C67.7522 296.474 79.3264 335.144 101.506 367.765C123.686 400.385 155.39 425.367 192.293 439.302C229.197 453.238 269.501 455.447 307.706 445.628L324.467 510.849C302.091 516.599 279.182 519.297 256.346 518.974C226.491 518.553 196.76 512.97 168.504 502.301C118.635 483.469 75.7913 449.71 45.8189 405.628C15.8465 361.546 0.205741 309.29 1.03106 255.99C1.49871 225.791 7.23952 196.09 17.8253 168.172C25.9227 146.817 36.8549 126.505 50.4304 107.811L104.918 147.38Z" fill="#23A662"/>
<path fill-rule="evenodd" clip-rule="evenodd" d="M97.5296 58.2969C113.42 45.4971 130.83 34.5698 149.427 25.7898L178.176 86.6844C178.165 86.6896 178.154 86.6948 178.143 86.7C148.985 100.473 123.773 121.38 104.842 147.486C104.829 147.505 104.815 147.523 104.802 147.542L50.2725 108.029C50.2772 108.023 50.2819 108.016 50.2866 108.01C62.3504 91.3644 76.3034 76.282 91.8144 63.0371C93.6967 61.4298 95.602 59.8496 97.5296 58.2969Z" fill="#117D45"/>
<path fill-rule="evenodd" clip-rule="evenodd" d="M149.454 25.7769C153.302 23.9606 157.191 22.2409 161.118 20.6189C178.386 13.4861 196.375 8.24247 214.77 4.97985C218.972 4.23461 223.195 3.59273 227.436 3.0553L235.903 69.8609C215.905 72.3953 196.432 78.0687 178.203 86.6716C178.188 86.6787 178.173 86.6858 178.158 86.6929L149.402 25.8012C149.419 25.7931 149.436 25.785 149.454 25.7769Z" fill="#699FF0"/>
<path fill-rule="evenodd" clip-rule="evenodd" d="M259.909 68.34C251.878 68.3438 243.855 68.8524 235.888 69.8628L227.416 3.0578C227.423 3.05687 227.431 3.05594 227.438 3.055C238.197 1.69154 249.031 1.00518 259.876 1L259.909 68.34Z" fill="#4D7ABB"/>
<path d="M260.249 417.29C347.019 417.29 417.359 346.742 417.359 259.718C417.359 172.692 347.019 102.145 260.249 102.145C173.48 102.145 103.14 172.692 103.14 259.718C103.14 346.742 173.48 417.29 260.249 417.29Z" fill="#78F177"/>
<path fill-rule="evenodd" clip-rule="evenodd" d="M260.252 107.285C176.338 107.285 108.285 175.516 108.285 259.716C108.285 343.914 176.338 412.146 260.252 412.146C344.169 412.146 412.219 343.914 412.219 259.716C412.219 175.516 344.169 107.285 260.252 107.285ZM98 259.716C98 169.864 170.629 97 260.252 97C349.877 97 422.505 169.864 422.505 259.716C422.505 349.567 349.877 422.431 260.252 422.431C170.629 422.431 98 349.567 98 259.716Z" fill="#4FC64E"/>
<path d="M260.251 393.465C333.903 393.465 393.61 333.583 393.61 259.715C393.61 185.847 333.903 125.965 260.251 125.965C186.6 125.965 126.894 185.847 126.894 259.715C126.894 333.583 186.6 393.465 260.251 393.465Z" fill="#BFFABC"/>
<path fill-rule="evenodd" clip-rule="evenodd" d="M260.25 131.105C189.453 131.105 132.035 188.671 132.035 259.713C132.035 330.757 189.453 388.321 260.25 388.321C331.047 388.321 388.467 330.757 388.467 259.713C388.467 188.671 331.047 131.105 260.25 131.105ZM121.75 259.713C121.75 183.019 183.745 120.82 260.25 120.82C336.757 120.82 398.752 183.019 398.752 259.713C398.752 336.408 336.757 398.606 260.25 398.606C183.745 398.606 121.75 336.408 121.75 259.713Z" fill="#4FC64E"/>
<path d="M358.526 196.734C358.526 196.734 366.246 221.945 339.525 248.15C333.34 254.255 325.916 261.352 318.396 269.144C318.396 269.144 286.577 292.271 284.202 345.622C284.202 345.622 268.169 354.406 244.318 357.532C244.318 357.532 270.594 361.801 308.944 340.858C308.944 340.858 341.504 323.984 352.39 293.213L336.259 297.977L366.641 260.805L374.509 286.513L363.574 290.086C363.574 290.086 345.511 371.279 257.629 372.522C257.629 372.522 196.765 376.095 158.563 330.238C180.584 361.652 221.557 380.561 257.58 380.561C326.214 380.561 381.783 325.126 381.783 261.699C381.783 244.924 376.389 218.274 358.526 196.734Z" fill="url(#paint0_linear_42_7430)"/>
<path d="M214.974 310.733C214.431 303.239 213.837 294.404 212.896 285.024C212.896 285.024 215.371 251.079 181.573 219.812C181.573 219.812 184.69 204.278 195.923 186.759C195.923 186.759 178.505 201.747 170.934 238.821C170.934 238.821 164.402 270.981 178.554 295.299L187.263 279.567L191.47 321.106L171.181 310.037L174.2 304.381C174.2 304.381 130.555 246.017 178.703 187.156C178.703 187.156 210.274 144.872 261.687 145.071C228.781 142.192 193.449 158.768 173.408 182.64C135.207 228.051 140.7 295.696 182.513 331.031C193.597 340.412 214.133 351.678 238.28 351.826C238.231 351.974 217.35 343.042 214.974 310.733Z" fill="url(#paint1_linear_42_7430)"/>
<path d="M239.271 177.28C239.271 177.28 275.294 151.125 319.088 181.002C319.088 181.002 331.407 188.248 345.411 206.263C344.126 204.278 337.842 189.886 322.848 177.925C289.1 150.034 242.091 157.379 217.942 181.747C210.322 189.142 200.277 204.328 198.693 221.748C198.693 221.748 207.056 207.256 231.253 207.505C237.835 207.555 242.387 207.207 250.502 207.604C250.502 207.604 275.888 211.971 302.113 188C302.113 188 312.308 191.176 324.679 200.407C324.679 200.407 314.533 186.858 287.368 179.116C287.368 179.116 264.803 172.019 245.059 181.101L255.6 188.844L224.771 189.34L233.976 174.749L239.271 177.28Z" fill="url(#paint2_linear_42_7430)"/>
<path d="M196.714 237.082C195.527 233.112 193.201 224.327 192.162 214.254C190.875 201.796 191.271 184.724 200.574 173.706C200.871 173.607 201.514 173.408 202.602 173.408C207.056 173.408 217.349 176.287 236.698 195.344L196.714 237.082Z" fill="#36B775"/>
<path d="M202.602 174.849C205.967 174.849 215.666 176.883 234.667 195.395L197.407 234.255C194.24 222.592 187.658 191.623 201.365 174.898C201.613 174.898 202.009 174.849 202.602 174.849ZM202.602 172.02C200.573 172.02 199.683 172.565 199.683 172.565C180.681 194.601 196.071 239.813 196.071 239.813L238.676 195.395C218.338 175.047 207.352 172.02 202.602 172.02Z" fill="#063629"/>
<path d="M196.814 237.578C195.726 233.857 193.202 224.824 192.113 214.253C190.827 201.945 191.223 185.17 200.179 174.152C201.713 174.599 205.522 175.989 210.472 179.959C216.41 184.674 225.218 194.103 233.827 212.318L196.814 237.578Z" fill="#C2FF89"/>
<path d="M200.673 175.792C202.455 176.438 205.721 177.926 209.827 181.252C215.469 185.818 223.782 194.8 232.045 211.775L197.655 235.198C196.418 230.831 194.488 222.94 193.547 213.957C192.706 206.066 192.855 198.92 193.894 192.716C195.032 185.966 197.358 180.259 200.673 175.792ZM199.634 172.566C180.632 194.602 196.022 239.814 196.022 239.814L235.608 212.766C218.24 175.346 199.634 172.566 199.634 172.566Z" fill="#063629"/>
<path opacity="0.15" fill-rule="evenodd" clip-rule="evenodd" d="M200.03 175.293C200.03 175.293 217.399 185.566 222.497 206.808L229.672 202.887C229.672 202.887 212.105 173.308 200.03 175.293Z" fill="black"/>
<path d="M200.475 175.098C202.158 175.644 205.672 177.132 210.125 180.706C215.864 185.321 224.426 194.503 232.837 212.071L197.259 236.34C196.071 232.172 193.894 223.833 192.904 214.255C192.063 206.315 192.162 199.069 193.201 192.766C194.438 185.569 196.863 179.614 200.475 175.098ZM199.634 172.566C180.632 194.602 196.022 239.814 196.022 239.814L235.608 212.766C218.24 175.346 199.634 172.566 199.634 172.566Z" fill="#063629"/>
<path d="M287.319 195.394C306.616 176.287 316.91 173.408 321.363 173.408C322.451 173.408 323.145 173.607 323.391 173.706C332.695 184.724 333.09 201.796 331.805 214.254C330.766 224.378 328.439 233.162 327.252 237.082L287.319 195.394Z" fill="#36B775"/>
<path d="M321.412 174.849C321.957 174.849 322.402 174.898 322.651 174.997C326.362 179.563 328.886 185.519 330.122 192.814C331.161 199.018 331.309 206.164 330.467 214.055C329.628 222.394 327.845 229.787 326.608 234.354L289.347 195.445C308.348 176.883 318.047 174.849 321.412 174.849ZM321.412 172.02C316.663 172.02 305.627 175.047 285.39 195.395L327.995 239.863C327.995 239.863 343.383 194.601 324.383 172.615C324.333 172.516 323.443 172.02 321.412 172.02Z" fill="#063629"/>
<path d="M324.334 172.516C324.334 172.516 305.728 175.295 288.358 212.765L327.946 239.813C327.946 239.813 343.335 194.551 324.334 172.516Z" fill="#C2FF89"/>
<path opacity="0.15" fill-rule="evenodd" clip-rule="evenodd" d="M323.936 175.293C323.936 175.293 306.567 185.566 301.521 206.808L294.346 202.887C294.346 202.887 311.913 173.308 323.936 175.293Z" fill="black"/>
<path d="M323.293 175.791C326.658 180.208 328.935 185.916 330.073 192.764C331.112 198.968 331.26 206.115 330.418 214.005C329.478 222.988 327.549 230.879 326.313 235.246L291.921 211.772C300.184 194.749 308.499 185.767 314.139 181.201C318.247 177.925 321.512 176.436 323.293 175.791ZM324.334 172.516C324.334 172.516 305.728 175.295 288.358 212.765L327.946 239.813C327.946 239.813 343.335 194.551 324.334 172.516Z" fill="#063629"/>
<path d="M325.324 218.97C305.677 190.384 269.06 190.632 262.033 190.979C255.006 190.682 218.389 190.433 198.744 218.97C198.744 218.97 173.21 256.242 176.081 291.429C176.081 291.429 176.625 303.638 195.28 317.634C195.28 317.634 230.957 347.411 262.082 345.624C293.207 347.411 328.886 317.634 328.886 317.634C347.492 303.638 348.085 291.429 348.085 291.429C350.855 256.242 325.324 218.97 325.324 218.97Z" fill="#36B775"/>
<path d="M346.402 276.737C346.402 276.737 346.353 271.874 345.067 267.954C340.959 266.166 335.072 264.827 326.757 264.777C326.757 264.777 305.778 265.969 287.468 274.851C287.468 274.851 286.429 261.55 261.835 261.75C237.291 261.501 236.252 274.801 236.252 274.801C217.994 265.969 197.061 264.777 197.061 264.777C188.897 264.827 183.107 266.117 179 267.904C178.703 270.733 177.614 276.54 177.614 276.54C175.833 288.252 175.833 298.772 191.074 312.867C191.074 312.867 225.019 344.481 261.737 344.681V344.829C293.95 346.814 332.052 313.761 332.052 313.761C347.293 300.411 348.333 291.875 346.402 276.737Z" fill="#C2FF89"/>
<path opacity="0.15" fill-rule="evenodd" clip-rule="evenodd" d="M346.402 292.022C344.325 307.508 320.375 322.645 320.375 322.645C282.519 348.155 262.578 344.53 262.578 344.53C218.885 345.275 182.959 303.439 182.959 303.439C223.188 340.908 262.231 339.122 262.231 339.122C285.588 339.569 317.9 317.235 317.9 317.235C317.9 317.235 338.98 302.842 339.772 291.428C339.772 291.428 343.483 253.461 327.5 225.42C327.55 225.371 349.274 255.545 346.402 292.022Z" fill="black"/>
<path d="M265.101 193.755C270.346 193.755 280.785 194.301 291.97 198.023C305.281 202.49 315.722 210.083 322.946 220.605C322.996 220.703 329.28 229.837 335.12 243.187C338.584 250.979 341.157 258.67 342.887 265.917C345.016 274.999 345.759 283.486 345.115 291.177V291.227V291.276C345.066 291.475 344.819 294.205 342.64 298.375C340.513 302.394 336.06 308.598 327.104 315.347L327.054 315.397L327.005 315.446C326.904 315.495 318.592 322.444 306.667 329.243C295.829 335.447 279.796 342.891 264.704 342.891C263.862 342.891 263.021 342.842 262.18 342.842H261.982H261.834C260.993 342.891 260.151 342.891 259.31 342.891C244.218 342.891 228.185 335.496 217.349 329.243C205.472 322.444 197.11 315.495 197.011 315.446L196.961 315.397L196.912 315.347C187.955 308.648 183.502 302.444 181.374 298.375C179.197 294.255 178.9 291.574 178.9 291.276V291.177C178.256 283.486 179.048 274.999 181.126 265.966C182.809 258.67 185.432 251.028 188.846 243.236C194.685 229.886 200.969 220.654 201.019 220.605C208.244 210.083 218.634 202.49 231.995 198.023C243.13 194.301 253.62 193.755 258.866 193.755C260.201 193.755 261.19 193.805 261.834 193.805H261.982H262.13C262.774 193.755 263.764 193.755 265.101 193.755ZM265.101 190.877C263.764 190.877 262.725 190.927 261.982 190.927C261.24 190.877 260.201 190.877 258.866 190.877C247.484 190.877 216.261 193.358 198.693 218.967C198.693 218.967 173.16 256.239 176.03 291.426C176.03 291.426 176.574 303.635 195.229 317.631C195.229 317.631 228.878 345.719 259.31 345.719C260.25 345.719 261.091 345.67 261.982 345.67C262.873 345.719 263.764 345.719 264.654 345.719C295.088 345.719 328.737 317.631 328.737 317.631C347.341 303.635 347.935 291.426 347.935 291.426C350.854 256.239 325.273 218.967 325.273 218.967C307.706 193.358 276.482 190.877 265.101 190.877Z" fill="#063629"/>
<path d="M263.021 285.867H260.598V301.153H263.021V285.867Z" fill="#063629"/>
<path d="M283.311 299.718C282.965 297.881 281.579 298.527 281.579 298.527C277.868 299.567 271.83 299.915 271.83 299.915C265.151 299.915 262.43 294.258 261.737 292.621V292.123C261.737 292.123 261.687 292.224 261.638 292.372C261.588 292.224 261.539 292.123 261.539 292.123V292.621C260.895 294.308 258.174 299.915 251.493 299.915C251.493 299.915 245.507 299.567 241.794 298.527C241.794 298.527 240.409 297.93 240.062 299.718C240.062 299.718 236.945 314.905 251.493 319.866H271.781C286.429 314.905 283.311 299.718 283.311 299.718Z" fill="black"/>
<path d="M261.391 296.291L261.687 297.085L261.983 296.291C263.715 298.723 266.784 301.502 271.83 301.502H271.88H271.929C272.178 301.502 277.868 301.154 281.727 300.163C281.828 300.757 282.321 304.034 281.431 307.706C280.194 312.817 276.829 316.44 271.584 318.277H261.786H261.638H251.89C246.595 316.39 243.279 312.867 242.043 307.706C241.152 304.083 241.646 300.757 241.744 300.163C245.605 301.154 251.246 301.502 251.493 301.502H251.542H251.591C256.59 301.502 259.659 298.723 261.391 296.291ZM261.737 292.072C261.737 292.072 261.687 292.171 261.638 292.321C261.588 292.171 261.539 292.072 261.539 292.072V292.57C260.895 294.257 258.174 299.864 251.493 299.864C251.493 299.864 245.507 299.517 241.794 298.476C241.794 298.476 241.596 298.375 241.3 298.375C240.854 298.375 240.311 298.575 240.062 299.667C240.062 299.667 236.945 314.852 251.493 319.815H261.539H261.687H271.781C286.38 314.852 283.261 299.667 283.261 299.667C283.064 298.575 282.469 298.375 282.025 298.375C281.727 298.375 281.529 298.476 281.529 298.476C277.818 299.517 271.781 299.864 271.781 299.864C265.102 299.864 262.38 294.207 261.687 292.57L261.737 292.072Z" fill="#063629"/>
<path d="M261.688 295.746L260.945 297.135H262.431L261.688 295.746Z" fill="black"/>
<path d="M261.441 332.915C251.296 332.915 248.377 325.868 248.278 325.52L248.229 325.471C246.645 321.996 248.13 317.282 248.574 316.041C250.901 314.503 253.077 313.758 255.105 313.758C258.619 313.758 260.55 316.091 260.896 316.537L261.836 317.829L262.825 316.537C263.173 316.091 265.152 313.807 268.567 313.807C270.595 313.807 272.771 314.552 275.098 316.091C275.593 317.38 277.076 321.996 275.443 325.52V325.57V325.619C275.295 325.917 272.524 332.617 262.974 332.965C262.974 332.915 261.54 332.915 261.441 332.915Z" fill="#E26767"/>
<path d="M255.104 314.951C258.124 314.951 259.757 316.985 259.905 317.282L261.785 319.814L263.764 317.333C264.062 316.936 265.693 315.05 268.565 315.05C270.246 315.05 272.128 315.694 274.107 316.936C274.751 318.771 275.54 322.494 274.354 325.024L274.304 325.074L274.255 325.174C274.107 325.571 271.583 331.228 263.369 331.724L261.686 331.773C261.588 331.773 261.489 331.773 261.388 331.773C252.234 331.773 249.513 325.621 249.365 325.174V325.125L249.315 325.024C248.129 322.445 248.968 318.722 249.562 316.885C251.59 315.595 253.423 314.951 255.104 314.951ZM255.104 312.518C253.076 312.518 250.552 313.213 247.583 315.198C247.583 315.198 245.01 321.353 247.088 325.919C247.088 325.919 250.206 334.057 261.388 334.057C261.489 334.057 261.588 334.057 261.736 334.057C261.884 334.057 262.032 334.057 262.229 334.057C273.414 334.057 276.581 325.919 276.581 325.919C278.659 321.303 276.086 315.198 276.086 315.198C273.117 313.213 270.593 312.518 268.516 312.518C264.556 312.518 262.281 315.099 261.785 315.694C261.489 315.297 259.212 312.518 255.104 312.518Z" fill="#892D30"/>
<path d="M263.172 316.736H260.747V329.393H263.172V316.736Z" fill="#892D30"/>
<path d="M269.802 319.02C266.19 317.482 263.962 322.295 263.962 322.295C262.676 324.628 261.983 325.224 261.983 325.224C261.983 325.224 261.29 324.679 260.054 322.295C260.054 322.295 257.875 317.482 254.263 319.02C254.263 319.02 251.097 320.113 253.126 325.372C253.126 325.372 255.055 331.081 261.983 331.081C268.961 331.081 270.89 325.422 270.89 325.422C272.97 320.113 269.802 319.02 269.802 319.02Z" fill="#FDA8AC"/>
<path d="M262.331 268.5C254.164 268.5 247.584 271.23 247.584 274.603C247.584 280.56 258.025 287.507 261.835 287.507C265.546 287.507 277.076 280.56 277.076 274.603C277.125 271.23 270.495 268.5 262.331 268.5Z" fill="#000709"/>
<path d="M262.181 277.134C268.44 277.134 273.513 275.423 273.513 273.312C273.513 271.202 268.44 269.492 262.181 269.492C255.923 269.492 250.851 271.202 250.851 273.312C250.851 275.423 255.923 277.134 262.181 277.134Z" fill="#808080"/>
<path d="M222.695 213.907C222.695 213.907 232.444 211.128 239.221 216.687C239.172 216.637 233.137 206.811 222.695 213.907Z" fill="#023322"/>
<path d="M284.398 216.634C291.178 211.076 300.927 213.855 300.927 213.855C290.485 206.758 284.398 216.634 284.398 216.634Z" fill="#023322"/>
<path d="M239.272 248.495C238.628 234.548 229.374 230.778 229.374 230.778C218.142 227.153 211.066 237.874 211.066 237.874C203.891 247.452 208.046 257.626 208.046 257.626C226.702 256.534 236.4 260.851 236.4 260.851C239.914 257.031 239.272 248.495 239.272 248.495Z" fill="#24A462"/>
<path d="M236.152 247.857C234.519 235.449 226.552 234.209 226.552 234.209C217.25 232.571 212.698 242.001 212.698 242.001C209.133 249.147 212.4 255.499 212.4 255.499C227.146 254.456 234.965 258.774 234.965 258.774C237.24 255.797 236.152 247.857 236.152 247.857Z" fill="black"/>
<path d="M215.969 246.98C216.854 246.385 217.251 245.422 216.856 244.83C216.461 244.24 215.422 244.242 214.538 244.836C213.651 245.431 213.254 246.393 213.649 246.986C214.046 247.578 215.083 247.574 215.969 246.98Z" fill="white"/>
<path d="M227.293 240.064C226.748 238.476 225.117 239.07 225.117 239.07C224.125 239.418 223.185 239.369 223.185 239.369C225.117 238.673 224.175 237.085 224.175 237.085C223.087 235.547 221.058 236.787 221.058 236.787C218.189 238.575 218.584 242.446 218.584 242.446C221.157 243.388 224.473 242.942 224.473 242.942C227.937 242.396 227.293 240.064 227.293 240.064Z" fill="white"/>
<path d="M312.752 237.829C312.752 237.829 305.727 227.11 294.493 230.732C294.493 230.732 285.29 234.505 284.597 248.498C284.597 248.498 283.953 257.035 287.417 260.906C287.417 260.906 297.067 256.589 315.771 257.681C315.722 257.632 319.929 247.406 312.752 237.829Z" fill="#24A462"/>
<path d="M311.12 241.948C311.12 241.948 306.617 232.469 297.264 234.106C297.264 234.106 289.347 235.349 287.713 247.804C287.713 247.804 286.625 255.795 288.851 258.723C288.851 258.723 296.67 254.405 311.416 255.448C311.466 255.497 314.683 249.145 311.12 241.948Z" fill="black"/>
<path d="M293.107 244.725C292.613 244.18 291.574 244.279 290.733 244.924C289.891 245.57 289.593 246.512 290.039 247.058C290.533 247.605 291.574 247.506 292.415 246.86C293.255 246.214 293.553 245.272 293.107 244.725Z" fill="white"/>
<path d="M303.598 240.064C303.053 238.476 301.422 239.07 301.422 239.07C300.432 239.418 299.49 239.369 299.49 239.369C301.422 238.673 300.482 237.085 300.482 237.085C299.391 235.547 297.363 236.787 297.363 236.787C294.494 238.575 294.889 242.446 294.889 242.446C297.462 243.388 300.778 242.942 300.778 242.942C304.192 242.396 303.598 240.064 303.598 240.064Z" fill="white"/>
<defs>
<linearGradient id="paint0_linear_42_7430" x1="257.261" y1="381.894" x2="288.445" y2="185.582" gradientUnits="userSpaceOnUse">
<stop stop-color="#34B675"/>
<stop offset="1" stop-color="#77C741"/>
</linearGradient>
<linearGradient id="paint1_linear_42_7430" x1="185.676" y1="344.53" x2="218.432" y2="138.328" gradientUnits="userSpaceOnUse">
<stop stop-color="#39B771"/>
<stop offset="1" stop-color="#77C741"/>
</linearGradient>
<linearGradient id="paint2_linear_42_7430" x1="269.007" y1="232.819" x2="280.549" y2="160.166" gradientUnits="userSpaceOnUse">
<stop stop-color="#67C34C"/>
<stop offset="1" stop-color="#7CC82D"/>
</linearGradient>
</defs>
</svg>
