<svg width="180" height="180" viewBox="0 0 180 180" fill="none" xmlns="http://www.w3.org/2000/svg">
<path d="M165.442 18.1081H14.6486V20.5405H165.532V18.1081H165.442ZM1.5127 0L6.10126 1.62162C8.80042 2.61261 11.0497 4.41441 12.5792 6.84685C13.8389 8.82883 14.5586 11.1712 14.5586 13.6036H165.532C165.621 11.1712 166.341 8.82883 167.601 6.84685C167.781 6.57658 167.961 6.30631 168.141 6.03604C169.76 3.87387 171.92 2.25225 174.529 1.35135L178.487 0.0900901H1.5127V0ZM165.442 25.1351H14.6486V35.1351H165.532V25.1351H165.442ZM48.3881 41.0811C48.8379 41.4414 49.3778 41.8919 49.8276 42.3423C52.4368 45.045 54.1463 48.8288 54.1463 52.973V172.252C60.9841 176.036 67.1922 178.559 75.1097 180L74.9298 53.6937C74.9298 52.8829 75.0198 51.982 75.1997 51.2613C76.0094 47.027 78.8886 43.4234 82.6674 41.1712H48.3881V41.0811ZM14.6486 41.0811V104.324C14.6486 118.378 18.3374 131.622 24.8154 142.973V52.973C24.8154 50.991 25.1753 49.0991 25.8951 47.3874C26.8848 44.8649 28.5043 42.7027 30.5736 41.0811H14.6486ZM99.0423 41.0811C99.942 41.6216 100.752 42.3423 101.472 43.0631C103.631 45.2252 105.07 48.018 105.52 51.1712C105.7 51.982 105.7 52.7928 105.7 53.6937V179.82C112.808 178.288 119.556 175.676 125.764 172.252V52.973C125.764 48.1081 128.013 43.8739 131.522 41.0811H99.0423ZM149.517 41.0811C149.966 41.4414 150.506 41.8919 150.956 42.3423C153.565 45.045 155.275 48.8288 155.275 52.973V143.153C161.753 131.712 165.532 118.468 165.532 104.324V41.0811H149.517Z" fill="url(#paint0_linear_307_45)"/>
<defs>
<linearGradient id="paint0_linear_307_45" x1="-47.462" y1="328.412" x2="229.847" y2="51.4674" gradientUnits="userSpaceOnUse">
<stop stop-color="#FFF0A9"/>
<stop offset="0.1402" stop-color="#A87119"/>
<stop offset="0.3347" stop-color="#8D5600"/>
<stop offset="0.7721" stop-color="#FFEB9A"/>
<stop offset="1" stop-color="#F2CD78"/>
</linearGradient>
</defs>
</svg>
