<svg width="30" height="30" viewBox="0 0 30 30" fill="none" xmlns="http://www.w3.org/2000/svg">
<path d="M2.54269 3.025H27.4821V3.425H2.54269V3.025Z" fill="url(#paint0_linear_404_104)"/>
<path d="M1.13103 0.275L0.363281 0H29.6367L28.9928 0.225C28.547 0.375 28.2003 0.65 27.9279 1L27.9279 1.00001C27.9031 1.02502 27.8536 1.07501 27.8288 1.125C27.6059 1.45 27.5069 1.85 27.4821 2.25H2.51793C2.51793 1.85 2.3941 1.45 2.19597 1.125C1.94831 0.75 1.57682 0.425 1.13103 0.275Z" fill="url(#paint1_linear_404_104)"/>
<path d="M2.54269 4.175H27.4821V5.85H2.54269V4.175Z" fill="url(#paint2_linear_404_104)"/>
<path d="M8.11505 6.85C8.12361 6.85864 8.1325 6.86695 8.1416 6.875H13.7865C13.1673 7.25 12.6968 7.85 12.5482 8.55C12.4986 8.675 12.4986 8.8 12.4986 8.95L12.5234 30C11.2108 29.75 10.1954 29.325 9.05616 28.7V8.825C9.05616 8.125 8.78374 7.5 8.33795 7.05C8.29412 6.98364 8.21152 6.93685 8.1416 6.875H8.11505V6.85Z" fill="url(#paint3_linear_404_104)"/>
<path d="M2.54269 17.4V6.875H5.16789C4.84593 7.15 4.57351 7.5 4.40015 7.925C4.30108 8.2 4.22678 8.525 4.22678 8.85V23.85C3.16184 21.95 2.54269 19.75 2.54269 17.4Z" fill="url(#paint4_linear_404_104)"/>
<path d="M16.907 7.175C16.7832 7.05 16.6593 6.95 16.5107 6.85H21.8602C21.2906 7.3 20.9191 8.025 20.9191 8.825V28.725C19.8789 29.3 18.7644 29.725 17.6004 29.975V8.95C17.6004 8.8 17.6004 8.65 17.5757 8.525C17.5014 8 17.2537 7.525 16.907 7.175Z" fill="url(#paint5_linear_404_104)"/>
<path d="M25.055 7.05C24.9807 6.975 24.9064 6.925 24.8321 6.85H27.4573V17.375C27.4573 19.75 26.8382 21.95 25.7732 23.85V8.825C25.7732 8.125 25.5008 7.5 25.055 7.05Z" fill="url(#paint6_linear_404_104)"/>
<defs>
<linearGradient id="paint0_linear_404_104" x1="35.3926" y1="55.3125" x2="120.935" y2="-29.4292" gradientUnits="userSpaceOnUse">
<stop stop-color="#FFF0A9"/>
<stop offset="0.2352" stop-color="#A87119"/>
<stop offset="0.5933" stop-color="#FFEB9A"/>
<stop offset="1" stop-color="#8D5600"/>
</linearGradient>
<linearGradient id="paint1_linear_404_104" x1="35.3926" y1="55.3125" x2="120.935" y2="-29.4292" gradientUnits="userSpaceOnUse">
<stop stop-color="#FFF0A9"/>
<stop offset="0.2352" stop-color="#A87119"/>
<stop offset="0.5933" stop-color="#FFEB9A"/>
<stop offset="1" stop-color="#8D5600"/>
</linearGradient>
<linearGradient id="paint2_linear_404_104" x1="35.3926" y1="55.3125" x2="120.935" y2="-29.4292" gradientUnits="userSpaceOnUse">
<stop stop-color="#FFF0A9"/>
<stop offset="0.2352" stop-color="#A87119"/>
<stop offset="0.5933" stop-color="#FFEB9A"/>
<stop offset="1" stop-color="#8D5600"/>
</linearGradient>
<linearGradient id="paint3_linear_404_104" x1="35.3926" y1="55.3125" x2="120.935" y2="-29.4292" gradientUnits="userSpaceOnUse">
<stop stop-color="#FFF0A9"/>
<stop offset="0.2352" stop-color="#A87119"/>
<stop offset="0.5933" stop-color="#FFEB9A"/>
<stop offset="1" stop-color="#8D5600"/>
</linearGradient>
<linearGradient id="paint4_linear_404_104" x1="35.3926" y1="55.3125" x2="120.935" y2="-29.4292" gradientUnits="userSpaceOnUse">
<stop stop-color="#FFF0A9"/>
<stop offset="0.2352" stop-color="#A87119"/>
<stop offset="0.5933" stop-color="#FFEB9A"/>
<stop offset="1" stop-color="#8D5600"/>
</linearGradient>
<linearGradient id="paint5_linear_404_104" x1="35.3926" y1="55.3125" x2="120.935" y2="-29.4292" gradientUnits="userSpaceOnUse">
<stop stop-color="#FFF0A9"/>
<stop offset="0.2352" stop-color="#A87119"/>
<stop offset="0.5933" stop-color="#FFEB9A"/>
<stop offset="1" stop-color="#8D5600"/>
</linearGradient>
<linearGradient id="paint6_linear_404_104" x1="35.3926" y1="55.3125" x2="120.935" y2="-29.4292" gradientUnits="userSpaceOnUse">
<stop stop-color="#FFF0A9"/>
<stop offset="0.2352" stop-color="#A87119"/>
<stop offset="0.5933" stop-color="#FFEB9A"/>
<stop offset="1" stop-color="#8D5600"/>
</linearGradient>
</defs>
</svg>
