<svg width="200" height="39" viewBox="0 0 200 39" fill="none" xmlns="http://www.w3.org/2000/svg">
<path d="M50.9446 16.4125C51.0407 16.9975 51.2328 17.5175 51.585 17.9075C52.3215 18.655 53.6343 18.9475 54.9151 18.9475C59.5581 18.9475 60.967 16.0875 61.0311 12.4475C61.0311 12.3175 60.999 12.3175 60.935 12.3175C60.6148 12.3175 55.1713 12.3825 54.5629 12.415C53.7304 12.48 53.5062 12.8375 53.4102 13.5525C53.3782 13.715 53.3461 13.8125 53.2501 13.8125C53.186 13.8125 53.122 13.7475 53.122 13.585C53.122 13.4225 53.2181 12.3825 53.2181 11.8625C53.2181 11.44 53.186 11.115 53.186 10.985C53.186 10.855 53.2181 10.79 53.2821 10.79C53.3461 10.79 53.3782 10.855 53.4422 10.9525C53.5703 11.375 53.7304 11.4725 54.5309 11.5375C55.2994 11.57 60.6468 11.6025 60.903 11.57C60.967 11.57 60.999 11.5375 60.999 11.44C60.935 9.5225 60.2626 8.0925 59.366 7.215C58.6615 6.5 57.3807 5.5575 55.0432 5.5575C53.4422 5.5575 52.4175 5.85 51.7771 6.37C51.3288 6.76 51.1367 7.3125 51.1047 8.32C51.1047 8.515 51.0407 8.6125 50.9446 8.6125C50.8485 8.6125 50.7845 8.515 50.7845 8.32C50.7845 8.0275 50.8165 7.085 50.7845 6.4675C50.7525 5.915 50.7205 5.8175 50.7205 5.655C50.7205 5.5575 50.7525 5.46 50.9126 5.46C51.4569 5.395 51.9693 5.265 52.6737 5.135C53.5383 4.9725 54.5949 4.875 55.3314 4.875C57.9891 4.875 59.6862 5.72 60.8069 6.89C62.3119 8.45 62.6321 10.66 62.6321 12.0575C62.6321 13.8775 62.1198 16.1525 60.3586 17.81C58.8857 19.175 57.1886 19.7925 54.5309 19.7925C53.4102 19.7925 52.0973 19.63 51.3929 19.305C51.0727 19.1425 51.0086 19.045 50.9126 18.7525C50.7205 17.9725 50.5924 16.6725 50.5924 16.38C50.5924 16.2175 50.6244 16.0875 50.7205 16.0875C50.8485 16.12 50.9126 16.185 50.9446 16.4125ZM74.0954 14.0075C74.0954 15.8275 74.0954 17.3225 73.9994 18.135C73.9353 18.6875 73.8393 19.11 73.487 19.175C73.3269 19.2075 73.1028 19.24 72.9427 19.24C72.8466 19.24 72.7826 19.305 72.7826 19.37C72.7826 19.4675 72.8786 19.5325 73.0708 19.5325C73.6151 19.5325 74.7679 19.4675 74.8319 19.4675C74.928 19.4675 76.0807 19.5325 77.0733 19.5325C77.2654 19.5325 77.3615 19.4675 77.3615 19.37C77.3615 19.305 77.3295 19.24 77.2014 19.24C77.0413 19.24 76.625 19.2075 76.3689 19.175C75.8245 19.11 75.7285 18.6875 75.6644 18.135C75.5684 17.3225 75.5684 15.8275 75.5684 14.0075C75.5684 14.0075 75.6004 5.8825 75.7285 5.85C75.8886 5.785 76.2088 5.72 76.497 5.72C76.9132 5.72 78.0339 5.655 78.9946 6.6625C79.9552 7.7025 80.0192 8.97 80.0192 9.425C80.0192 11.4075 78.6423 12.675 76.8812 12.675C76.497 12.675 76.4009 12.7075 76.4009 12.8375C76.4009 12.935 76.497 12.9675 76.593 12.9675C76.6891 13 76.8812 13 76.9773 13C79.5709 13 81.4601 11.18 81.4601 8.71C81.4601 7.475 80.9478 6.63 80.5636 6.2075C80.2754 5.915 79.4428 5.135 77.1694 5.135C76.3369 5.135 75.2802 5.2 74.8639 5.2C74.7038 5.2 73.6151 5.135 72.8146 5.135C72.6225 5.135 72.5264 5.1675 72.5264 5.2975C72.5264 5.3625 72.5905 5.4275 72.6865 5.4275C72.8466 5.4275 73.1668 5.46 73.2949 5.4925C73.9033 5.6225 74.0314 5.915 74.0634 6.565C74.0954 7.1825 74.0954 7.7025 74.0954 10.66V14.0075ZM105.347 5.395C105.315 5.0375 105.251 4.875 105.123 4.875C104.995 4.875 104.931 5.005 104.835 5.1675L99.4877 17.095L93.9161 5.135C93.82 4.94 93.756 4.8425 93.6279 4.8425C93.5319 4.8425 93.4358 5.005 93.4358 5.2325L92.123 17.5825C92.0269 18.3625 91.9949 19.045 91.3865 19.175C91.0983 19.24 90.9702 19.24 90.8421 19.24C90.7461 19.24 90.65 19.2725 90.65 19.37C90.65 19.5 90.7781 19.5325 90.9702 19.5325C91.4505 19.5325 92.3471 19.4675 92.5072 19.4675C92.6673 19.4675 93.5959 19.5325 94.2683 19.5325C94.4605 19.5325 94.5565 19.5 94.5565 19.37C94.5565 19.305 94.4925 19.2725 94.3644 19.2725C94.2683 19.2725 94.0122 19.2725 93.724 19.2075C93.4678 19.1425 93.2437 19.0125 93.2437 18.525C93.2437 18.2 93.2757 17.94 93.2757 17.6475L94.0122 8.71C94.2043 9.23 96.3176 13.91 96.4777 14.2675C96.5738 14.4625 98.1428 17.745 98.5911 18.6875C98.9433 19.37 99.0394 19.565 99.1675 19.565C99.3276 19.565 99.3916 19.4025 99.7759 18.5575L104.291 8.58L105.155 18.4925C105.187 18.85 105.219 19.11 105.091 19.175C104.995 19.2075 104.963 19.24 104.963 19.305C104.963 19.4025 105.059 19.4675 105.476 19.5C106.148 19.565 108.229 19.5975 108.614 19.5975C108.838 19.5975 108.902 19.565 108.902 19.435C108.902 19.3375 108.806 19.305 108.71 19.305C108.517 19.305 108.101 19.305 107.589 19.1425C106.82 18.8825 106.692 17.81 106.596 17.1275L105.347 5.395ZM120.333 7.41C120.365 5.785 120.493 5.59 121.005 5.46C121.166 5.4275 121.262 5.4275 121.486 5.395C121.678 5.395 121.71 5.33 121.71 5.2325C121.71 5.1675 121.614 5.135 121.39 5.135C120.877 5.135 120.141 5.2 119.565 5.2C119.276 5.2 118.124 5.135 117.579 5.135C117.387 5.135 117.227 5.135 117.227 5.265C117.227 5.33 117.291 5.395 117.419 5.395C117.547 5.4275 117.771 5.4275 117.996 5.46C118.572 5.59 118.764 5.72 118.796 7.8C118.86 11.44 118.796 15.73 118.796 18.85C118.796 19.5975 118.86 19.76 119.02 19.76C119.116 19.76 119.308 19.6625 119.693 19.24C120.461 18.3625 128.05 8.515 129.011 7.28C128.979 10.53 128.979 13.715 128.947 16.8025C128.915 18.2325 128.85 19.0125 128.338 19.1425C128.178 19.175 127.986 19.2075 127.826 19.2075C127.602 19.24 127.57 19.2725 127.57 19.37C127.57 19.435 127.634 19.4675 127.826 19.4675C128.466 19.4675 129.075 19.4025 129.459 19.4025C129.747 19.4025 131.348 19.4675 132.02 19.4675C132.213 19.4675 132.277 19.435 132.277 19.3375C132.277 19.2725 132.213 19.24 132.02 19.2075C131.732 19.175 131.412 19.1425 131.316 19.1425C130.74 19.045 130.58 18.525 130.58 17.16C130.516 13.6175 130.516 10.2375 130.516 6.6625C130.516 5.005 130.419 4.8425 130.227 4.8425C130.003 4.8425 129.715 5.135 129.043 6.0125C127.249 8.2875 122.574 14.365 120.301 17.2575L120.333 7.41ZM147.486 5.9475C148.255 5.98 149.023 5.98 149.792 5.98C151.553 6.0125 151.969 6.4675 152.033 7.02C152.033 7.085 152.065 7.15 152.065 7.215C152.097 7.475 152.129 7.54 152.225 7.54C152.289 7.54 152.354 7.475 152.354 7.28C152.354 7.085 152.418 5.7525 152.418 5.2C152.418 5.07 152.418 4.9725 152.322 4.9725C152.257 4.9725 152.097 5.0375 151.809 5.07C151.521 5.135 151.105 5.1675 150.528 5.1675H143.708C143.484 5.1675 142.811 5.135 142.267 5.07C141.787 5.0375 141.595 4.8425 141.467 4.8425C141.402 4.8425 141.306 5.1025 141.274 5.2C141.242 5.3625 140.858 6.9875 140.858 7.1825C140.858 7.3125 140.89 7.345 140.954 7.345C141.018 7.345 141.082 7.3125 141.146 7.15C141.21 7.02 141.242 6.89 141.467 6.565C141.755 6.11 142.203 5.98 143.324 5.9475C144.22 5.915 145.117 5.915 146.013 5.915V13.9425C146.013 15.7625 146.013 17.2575 145.917 18.07C145.853 18.6225 145.757 19.045 145.373 19.11C145.213 19.1425 144.989 19.175 144.829 19.175C144.733 19.175 144.669 19.24 144.669 19.305C144.669 19.4025 144.765 19.4675 144.957 19.4675C145.501 19.4675 146.654 19.4025 146.75 19.4025C146.846 19.4025 147.999 19.4675 148.991 19.4675C149.183 19.4675 149.28 19.4025 149.28 19.305C149.28 19.24 149.248 19.175 149.119 19.175C148.959 19.175 148.543 19.1425 148.287 19.11C147.743 19.045 147.614 18.6225 147.582 18.07C147.486 17.2575 147.486 15.7625 147.486 13.9425V5.9475ZM167.307 13.91C167.403 13.91 167.435 13.9425 167.467 14.0075L169.164 18.6875C169.26 18.98 169.164 19.175 169.068 19.2075C169.004 19.24 168.94 19.2725 168.94 19.3375C168.94 19.4675 169.132 19.4675 169.484 19.4675C170.733 19.5 172.078 19.5 172.334 19.5C172.526 19.5 172.687 19.4675 172.687 19.3375C172.687 19.24 172.59 19.24 172.494 19.24C172.334 19.24 172.046 19.2075 171.79 19.11C171.406 18.98 170.893 18.6875 170.221 16.9975C169.1 14.105 166.25 6.2725 165.994 5.525C165.77 4.94 165.706 4.8425 165.578 4.8425C165.482 4.8425 165.386 4.9725 165.194 5.59L161.063 17.3875C160.743 18.33 160.359 19.045 159.526 19.175C159.366 19.2075 159.206 19.2075 159.078 19.2075C158.918 19.2075 158.822 19.24 158.822 19.305C158.822 19.435 158.918 19.4675 159.174 19.4675C160.038 19.4675 161.031 19.4025 161.223 19.4025C161.415 19.4025 162.152 19.4675 162.6 19.4675C162.76 19.4675 162.92 19.435 162.92 19.305C162.92 19.24 162.856 19.2075 162.696 19.2075H162.536C162.216 19.2075 161.896 19.045 161.896 18.655C161.896 18.2975 161.992 17.8425 162.152 17.3875L163.24 14.04C163.272 13.9425 163.337 13.8775 163.433 13.8775H167.307V13.91ZM163.593 13.2275C163.529 13.2275 163.497 13.195 163.529 13.0975L165.13 7.9625C165.226 7.67 165.322 7.67 165.386 7.9625L167.115 13.0975C167.147 13.1625 167.147 13.2275 167.051 13.2275H163.593ZM190.074 10.66C190.074 7.7025 190.074 7.15 190.106 6.565C190.138 5.915 190.298 5.59 190.778 5.4925C191.002 5.46 191.098 5.4275 191.226 5.4275C191.29 5.4275 191.387 5.395 191.387 5.2975C191.387 5.2 191.29 5.135 191.098 5.135C190.554 5.135 189.433 5.2 189.337 5.2C189.241 5.2 188.12 5.135 187.544 5.135C187.352 5.135 187.256 5.1675 187.256 5.2975C187.256 5.3625 187.32 5.4275 187.416 5.4275C187.544 5.4275 187.768 5.46 187.992 5.4925C188.409 5.59 188.569 5.915 188.601 6.565C188.633 7.1825 188.633 7.7025 188.633 10.66V11.895C187.8 11.0175 185.719 8.8075 184.534 7.54C183.413 6.3375 183.253 5.9475 183.253 5.7525C183.253 5.59 183.317 5.4925 183.702 5.395C183.894 5.3625 183.926 5.33 183.926 5.2325C183.926 5.1675 183.862 5.1025 183.702 5.1025C183.221 5.1025 182.773 5.1675 182.133 5.1675C181.588 5.1675 180.628 5.1025 180.339 5.1025C180.083 5.1025 180.019 5.135 180.019 5.2325C180.019 5.2975 180.115 5.3625 180.371 5.395C180.66 5.4275 180.884 5.4925 181.14 5.59C181.652 5.785 182.069 6.0775 183.157 7.1825C183.67 7.735 187 11.18 187.448 11.7325C186.071 13.3575 183.702 15.99 182.581 17.16C181.172 18.59 180.371 19.0775 179.667 19.175C179.315 19.2075 179.283 19.24 179.091 19.24C178.898 19.24 178.802 19.305 178.802 19.4025C178.802 19.5 178.898 19.5325 179.091 19.5325H180.5C182.133 19.5325 182.549 19.1425 183.606 18.0375C185.046 16.5425 187 14.17 188.248 12.6425C188.345 12.5125 188.505 12.35 188.633 12.155V14.0075C188.633 15.8275 188.601 17.3225 188.537 18.135C188.473 18.8175 188.345 19.11 187.992 19.2075C187.832 19.24 187.672 19.2725 187.512 19.2725C187.416 19.2725 187.32 19.3375 187.32 19.4025C187.32 19.5 187.384 19.565 187.576 19.565C188.12 19.565 189.273 19.5 189.369 19.5C189.465 19.5 190.586 19.565 191.579 19.565C191.771 19.565 191.867 19.5 191.867 19.4025C191.867 19.3375 191.803 19.2725 191.643 19.2725C191.483 19.2725 191.226 19.24 190.906 19.2075C190.362 19.1425 190.266 18.6875 190.202 18.135C190.106 17.3225 190.106 15.8275 190.106 14.0075V12.155C190.234 12.3175 190.394 12.48 190.554 12.675C192.027 14.495 193.724 16.64 195.133 18.1025C196.19 19.2075 196.638 19.5325 198.303 19.5325H199.68C199.872 19.5325 200 19.5 200 19.37C200 19.2725 199.904 19.24 199.744 19.24C199.584 19.24 199.296 19.2075 199.039 19.175C198.367 19.0125 197.695 18.5575 196.478 17.3875C195.357 16.315 192.059 12.4475 191.387 11.635C191.835 11.115 194.236 8.6775 195.613 7.215C196.702 6.0775 197.086 5.85 197.598 5.655C197.855 5.5575 198.175 5.4925 198.431 5.46C198.655 5.4275 198.751 5.395 198.751 5.2975C198.751 5.2 198.687 5.1675 198.431 5.1675C198.111 5.1675 197.182 5.2325 196.606 5.2325C195.965 5.2325 195.517 5.1675 195.069 5.1675C194.909 5.1675 194.813 5.2 194.813 5.2975C194.813 5.3625 194.877 5.395 195.069 5.46C195.421 5.525 195.485 5.655 195.485 5.8175C195.485 6.0125 195.357 6.3375 194.236 7.5725C193.148 8.775 190.714 11.375 190.074 11.96V10.66ZM53.4742 26.2275H50.6244V32.825H51.2968V26.8775H53.4742V26.2275ZM58.1172 26.0975L55.2354 32.825H55.9398L56.7083 31.005H59.5581L60.3266 32.825H61.0311L58.1172 26.0975ZM56.9324 30.3875L58.1172 27.5925L59.302 30.3875H56.9324ZM68.1716 26.2275H64.3292V31.0375C64.3292 31.4925 64.2971 31.8175 64.2011 31.98C64.137 32.1425 63.9769 32.2075 63.7848 32.2075C63.7208 32.2075 63.5927 32.175 63.4646 32.1425L63.3365 32.7925C63.5287 32.825 63.7208 32.8575 63.8809 32.8575C64.2971 32.8575 64.5853 32.695 64.7454 32.4025C64.9055 32.11 64.9696 31.655 64.9696 31.0375V26.8775H67.4672V32.825H68.1396V26.2275H68.1716ZM75.1521 26.2275H71.854V32.825H75.1521V32.175H72.5264V29.51H75.056V28.86H72.5264V26.845H75.1521V26.2275ZM81.9725 28.0475C81.9725 26.8125 81.236 26.195 79.7631 26.195H78.6423V32.825H79.3148V29.9325H79.8911C80.5315 29.9325 81.0439 29.77 81.4281 29.445C81.7803 29.12 81.9725 28.665 81.9725 28.0475ZM81.3321 28.08C81.3321 28.47 81.204 28.795 80.9158 28.99C80.6596 29.2175 80.2754 29.315 79.7951 29.315H79.3148V26.845H79.7631C80.7877 26.845 81.3321 27.2675 81.3321 28.08ZM88.5367 26.2275H85.2386V32.825H88.5367V32.175H85.911V29.51H88.4406V28.86H85.911V26.845H88.5367V26.2275ZM95.1329 26.2275H93.9161C93.2437 26.2275 92.7314 26.39 92.3791 26.7475C92.0269 27.0725 91.8348 27.56 91.8348 28.1775C91.8348 28.665 91.9629 29.055 92.251 29.3475C92.5392 29.6725 92.9555 29.8675 93.4678 29.9L91.4826 32.825H92.2831L94.2043 29.9H94.4605V32.825H95.1329V26.2275ZM94.4605 29.2825C94.3644 29.3475 94.1723 29.3475 93.9161 29.3475C92.9875 29.3475 92.5072 28.925 92.5072 28.08C92.5072 27.2675 92.9875 26.8775 93.9801 26.8775H94.4605V29.2825ZM108.389 26.2275H107.717V28.925H104.451V26.2275H103.778V32.825H104.451V29.575H107.717V32.825H108.389V26.2275ZM115.37 26.2275H112.072V32.825H115.37V32.175H112.744V29.51H115.274V28.86H112.744V26.845H115.37V26.2275ZM123.599 32.175H122.991V26.2275H119.084V30.5175C119.084 31.0375 118.988 31.4275 118.828 31.7525C118.668 32.045 118.476 32.175 118.284 32.175V34.125H118.924V32.825H122.991V34.125H123.631V32.175H123.599ZM119.244 32.175C119.404 32.11 119.5 31.915 119.597 31.6225C119.693 31.33 119.725 30.9725 119.725 30.5825V26.8775H122.318V32.175H119.244ZM130.419 30.9725C130.419 30.5825 130.291 30.225 130.067 29.9C129.843 29.575 129.523 29.38 129.107 29.2825C129.331 29.185 129.523 28.99 129.651 28.7625C129.779 28.535 129.843 28.275 129.843 28.015C129.843 27.4625 129.683 27.04 129.363 26.7475C129.043 26.4225 128.53 26.26 127.89 26.26H126.705V32.825H128.178C128.85 32.825 129.395 32.6625 129.779 32.3375C130.227 32.0125 130.419 31.5575 130.419 30.9725ZM129.203 28.015C129.203 28.7625 128.818 29.12 128.018 29.12H127.41V26.845H127.89C128.754 26.845 129.203 27.235 129.203 28.015ZM129.715 30.9725C129.715 31.785 129.203 32.2075 128.21 32.2075H127.41V29.705H128.082C129.171 29.705 129.715 30.1275 129.715 30.9725ZM138.809 26.0975L134.454 31.2V26.2275H133.782V32.955L138.136 27.8525V32.825H138.809V26.0975ZM146.558 29.3475L149.087 26.2275H148.255L145.885 29.1525V26.2275H145.213V29.185L142.843 26.2275H142.011L144.541 29.3475L141.851 32.825H142.683L145.213 29.5425V32.825H145.885V29.5425L148.415 32.825H149.248L146.558 29.3475ZM157.317 26.0975L152.962 31.2V26.2275H152.289V32.955L156.644 27.8525V32.825H157.317V26.0975ZM166.314 26.0975L164.009 31.3625L161.703 26.0975L160.487 32.825H161.159L161.96 28.145L164.009 32.9225L166.026 28.145L166.827 32.7925H167.531L166.314 26.0975ZM176.977 29.51C176.977 28.5675 176.657 27.7875 176.017 27.105C175.376 26.4225 174.608 26.0975 173.679 26.0975C172.783 26.0975 172.014 26.4225 171.342 27.105C170.701 27.7875 170.381 28.5675 170.381 29.51C170.381 30.4525 170.701 31.2325 171.342 31.915C171.982 32.5975 172.783 32.9225 173.679 32.9225C174.576 32.9225 175.344 32.5975 176.017 31.915C176.657 31.265 176.977 30.4525 176.977 29.51ZM176.305 29.51C176.305 30.29 176.049 30.94 175.568 31.46C175.056 31.98 174.448 32.2725 173.711 32.2725C172.975 32.2725 172.366 32.0125 171.854 31.46C171.342 30.94 171.118 30.2575 171.118 29.51C171.118 28.73 171.374 28.08 171.854 27.5275C172.366 27.0075 172.975 26.715 173.711 26.715C174.448 26.715 175.056 26.975 175.568 27.5275C176.049 28.08 176.305 28.7625 176.305 29.51ZM185.11 31.525C184.598 32.045 183.99 32.305 183.285 32.305C182.549 32.305 181.94 32.045 181.46 31.5575C180.948 31.0375 180.692 30.355 180.692 29.5425C180.692 28.73 180.948 28.0475 181.46 27.5275C181.972 27.0075 182.581 26.7475 183.285 26.7475C184.022 26.7475 184.63 27.0075 185.11 27.5275V26.65C184.63 26.26 184.054 26.0975 183.381 26.0975C182.453 26.0975 181.652 26.4225 181.012 27.04C180.339 27.69 180.019 28.5025 180.019 29.51C180.019 30.5175 180.307 31.3625 180.916 31.98C181.524 32.63 182.357 32.9225 183.381 32.9225C183.958 32.9225 184.534 32.7275 185.078 32.37V31.525H185.11ZM191.739 26.2275H187.864V26.8775H189.465V32.825H190.138V26.8775H191.739V26.2275ZM199.936 26.0975L195.581 31.2V26.2275H194.909V32.955L199.264 27.8525V32.825H199.936V26.0975ZM35.0624 3.9325H2.8178V4.4525H35.0624V3.9325ZM0 0L0.992635 0.3575C1.569 0.5525 2.04931 0.975 2.36952 1.4625C2.62568 1.885 2.78578 2.405 2.78578 2.925H35.0624C35.0945 2.405 35.2225 1.885 35.5107 1.4625C35.5427 1.3975 35.6068 1.3325 35.6388 1.3C35.991 0.845 36.4393 0.4875 37.0157 0.2925L37.8482 0H0V0ZM35.0624 5.4275H2.8178V7.605H35.0624V5.4275ZM10.0224 8.905C10.1185 9.0025 10.2466 9.0675 10.3106 9.165C10.887 9.75 11.2392 10.5625 11.2392 11.4725V37.31C12.7121 38.1225 14.025 38.675 15.7221 39L15.69 11.635C15.69 11.44 15.69 11.2775 15.7541 11.115C15.9462 10.205 16.5546 9.425 17.3551 8.9375H10.0224V8.905ZM2.8178 8.905V22.62C2.8178 25.675 3.61832 28.535 4.9952 31.005V11.505C4.9952 11.0825 5.09126 10.66 5.21934 10.3025C5.44348 9.75 5.79571 9.295 6.21198 8.9375H2.8178V8.905ZM20.8774 8.905C21.0695 9.035 21.2296 9.165 21.3897 9.3275C21.838 9.7825 22.1582 10.4 22.2542 11.0825C22.2863 11.245 22.2863 11.44 22.2863 11.635V38.9675C23.7912 38.6425 25.2322 38.09 26.577 37.3425V11.4725C26.577 10.4325 27.0573 9.49 27.7938 8.905H20.8774ZM31.6362 8.905C31.7323 9.0025 31.8284 9.0675 31.9244 9.165C32.5008 9.75 32.853 10.5625 32.853 11.4725V31.005C34.2299 28.535 35.0304 25.675 35.0304 22.5875V8.905H31.6362Z" fill="url(#paint0_linear_242_34)"/>
<defs>
<linearGradient id="paint0_linear_242_34" x1="45.29" y1="71.9063" x2="156.487" y2="-37.6506" gradientUnits="userSpaceOnUse">
<stop stop-color="#FFF0A9"/>
<stop offset="0.2352" stop-color="#A87119"/>
<stop offset="0.5933" stop-color="#EDD884"/>
<stop offset="1" stop-color="#8D5600"/>
</linearGradient>
</defs>
</svg>
