<svg width="88" height="88" viewBox="0 0 88 88" fill="none" xmlns="http://www.w3.org/2000/svg">
<path d="M0 26C0 11.6406 11.6406 0 26 0H62C76.3594 0 88 11.6406 88 26V62C88 76.3594 76.3594 88 62 88H26C11.6406 88 0 76.3594 0 62V26Z" fill="#2A98FF"/>
<path d="M44.0028 65.4769C32.1691 65.4769 22.535 55.8878 22.535 44.0985C22.535 32.3092 32.1636 22.6655 44.0028 22.6655C46.9447 22.6655 49.7491 23.262 52.3006 24.3348C52.0037 25.0956 51.8332 25.922 51.8332 26.7868C51.8332 30.525 54.8961 33.5517 58.6464 33.5517C59.9111 33.5517 61.0934 33.2068 62.1052 32.6157C64.2277 35.938 65.4595 39.8787 65.4595 44.104C65.4595 55.8878 55.8309 65.4823 43.9918 65.4823L44.0028 65.4769ZM64.0408 30.9136C64.9261 29.7751 65.4595 28.3412 65.4595 26.7868C65.4595 23.0267 62.4241 20 58.6464 20C56.6778 20 54.9071 20.8374 53.6643 22.1674C50.7059 20.8702 47.4396 20.1423 43.9973 20.1423C30.7669 20.1423 20 30.8698 20 44.0985C20 57.3273 30.7669 68 43.9973 68C57.2276 68 68 57.2725 68 44.0985C68 39.2274 66.5428 34.701 64.0463 30.9136H64.0408Z" fill="white"/>
<path d="M44 31C36.8405 31 31 36.8042 31 44.0238C31 51.2434 36.8464 57 44 57C51.1536 57 57 51.1958 57 44.0238C57 36.8518 51.207 31 44 31Z" fill="white"/>
</svg>
