<svg width="40" height="40" viewBox="0 0 40 40" fill="none" xmlns="http://www.w3.org/2000/svg">
<path fill-rule="evenodd" clip-rule="evenodd" d="M26.8965 18.332V20.1016H28.1834V22.1924H30.7567V20.1016H31.8828V18.332H26.8965Z" fill="#2A98FF"/>
<path fill-rule="evenodd" clip-rule="evenodd" d="M29.5387 16.978V13.5622C20.8617 8.68277 8.64844 12.0659 8.64844 20.1661C8.64844 29.1987 20.8613 31.4541 29.5387 27.0622V23.4841C26.3249 24.6224 20.8613 24.2972 20.8613 20.2309C20.8613 16.1646 25.6301 15.5963 29.5387 16.978ZM15.5349 21.5291C15.2132 21.5291 15.0523 21.5291 14.7306 21.3683V19.5026C14.8039 19.5416 14.8914 19.5989 15.5349 19.5989C16.1782 19.5989 16.9825 19.1165 16.9825 18.1513C16.9825 17.1861 16.2063 16.7037 15.5349 16.7037C14.8731 16.7037 14.0871 17.347 14.0871 18.1513L14.0514 25.5549C13.2114 25.5225 12.338 25.0239 12.1797 24.1164L12.1772 17.9074C12.1879 16.2677 13.665 14.7737 15.4633 14.7737C17.2746 14.7737 18.9123 16.2213 18.9123 18.1858C18.9125 20.1502 17.1434 21.5291 15.5349 21.5291Z" fill="#2A98FF"/>
</svg>
