<svg width="43" height="43" viewBox="0 0 43 43" fill="none" xmlns="http://www.w3.org/2000/svg">
<path d="M30.1514 15.9C28.5688 14.7 26.6698 14.1 24.6652 14L24.3486 14.3C26.1422 14.7 27.7248 15.5 29.2018 16.6C27.4083 15.7 25.4037 15.1 23.2936 14.9C22.6606 14.8 22.133 14.8 21.5 14.8C20.867 14.8 20.3394 14.8 19.7064 14.9C17.5963 15.1 15.5917 15.7 13.7982 16.6C15.2752 15.5 16.8578 14.7 18.6514 14.3L18.3348 14C16.3302 14.1 14.4312 14.7 12.8486 15.9C11.055 19.1 10.1055 22.7 10 26.3999C11.5825 28 13.7982 29 16.1193 29C16.1193 29 16.8578 28.2 17.3853 27.5C16.0138 27.2 14.7477 26.5 13.9037 25.4C14.6422 25.8 15.3807 26.2 16.1193 26.5C17.0688 26.9 18.0184 27.1 18.9679 27.3C19.8119 27.4 20.656 27.5 21.5 27.5C22.344 27.5 23.1881 27.4 24.0321 27.3C24.9816 27.1 25.9312 26.9 26.8807 26.5C27.6193 26.2 28.3578 25.8 29.0963 25.4C28.2523 26.5 26.9862 27.2 25.6147 27.5C26.1422 28.2 26.8807 29 26.8807 29C29.2018 29 31.4175 28 33 26.3999C32.8945 22.7 31.9449 19.1 30.1514 15.9ZM18.0184 24.6C16.9633 24.6 16.0138 23.7 16.0138 22.6C16.0138 21.5 16.9633 20.6 18.0184 20.6C19.0734 20.6 20.023 21.5 20.023 22.6C20.023 23.7 19.0734 24.6 18.0184 24.6ZM24.9816 24.6C23.9266 24.6 22.977 23.7 22.977 22.6C22.977 21.5 23.9266 20.6 24.9816 20.6C26.0367 20.6 26.9862 21.5 26.9862 22.6C26.9862 23.7 26.0367 24.6 24.9816 24.6Z" fill="white"/>
</svg>
