<svg width="43" height="43" viewBox="0 0 43 43" fill="none" xmlns="http://www.w3.org/2000/svg">
<path fill-rule="evenodd" clip-rule="evenodd" d="M17.6084 12H25.3916C26.4217 12.1145 27.1084 12.2289 27.6807 12.4578C28.3675 12.8012 28.8253 13.0301 29.3976 13.6024C29.9699 14.1747 30.3133 14.747 30.5422 15.3193C30.7711 15.8916 31 16.5783 31 17.6084V25.3916C30.8855 26.4217 30.7711 27.1084 30.5422 27.6807C30.1988 28.3675 29.9699 28.8253 29.3976 29.3976C28.8253 29.9699 28.253 30.3133 27.6807 30.5422C27.1084 30.7711 26.4217 31 25.3916 31H17.6084C16.5783 30.8855 15.8916 30.7711 15.3193 30.5422C14.6325 30.1988 14.1747 29.9699 13.6024 29.3976C13.0301 28.8253 12.6867 28.253 12.4578 27.6807C12.2289 27.1084 12 26.4217 12 25.3916V17.6084C12.1145 16.5783 12.2289 15.8916 12.4578 15.3193C12.8012 14.6325 13.0301 14.1747 13.6024 13.6024C14.1747 13.0301 14.747 12.6867 15.3193 12.4578C15.8916 12.2289 16.5783 12 17.6084 12ZM27.2 21.5C27.2 24.648 24.648 27.2 21.5 27.2C18.352 27.2 15.8 24.648 15.8 21.5C15.8 18.352 18.352 15.8 21.5 15.8C24.648 15.8 27.2 18.352 27.2 21.5ZM27.2 16.75C27.7247 16.75 28.15 16.3247 28.15 15.8C28.15 15.2753 27.7247 14.85 27.2 14.85C26.6753 14.85 26.25 15.2753 26.25 15.8C26.25 16.3247 26.6753 16.75 27.2 16.75Z" fill="white"/>
<path d="M25.3 21.5C25.3 23.5987 23.5987 25.3 21.5 25.3C19.4013 25.3 17.7 23.5987 17.7 21.5C17.7 19.4013 19.4013 17.7 21.5 17.7C23.5987 17.7 25.3 19.4013 25.3 21.5Z" fill="white"/>
</svg>
