<svg width="63" height="63" viewBox="0 0 63 63" fill="none" xmlns="http://www.w3.org/2000/svg">
<circle cx="31.5" cy="31.5" r="31.5" fill="#681BEB"/>
<path fill-rule="evenodd" clip-rule="evenodd" d="M31.5 19.5H26.5843C25.2831 19.5 24.4157 19.7892 23.6928 20.0783C22.9699 20.3675 22.247 20.8012 21.5241 21.5241C20.8012 22.247 20.512 22.8253 20.0783 23.6928C19.7892 24.4157 19.6446 25.2831 19.5 26.5843V31.5V36.4157C19.5 37.7169 19.7892 38.5843 20.0783 39.3072C20.3675 40.0301 20.8012 40.753 21.5241 41.4759C22.247 42.1988 22.8253 42.488 23.6928 42.9217C24.4157 43.2108 25.2831 43.3554 26.5843 43.5H31.5H36.4157C37.7169 43.5 38.5843 43.2108 39.3072 42.9217C40.0301 42.6325 40.753 42.1988 41.4759 41.4759C42.1988 40.753 42.488 40.1747 42.9217 39.3072C43.2108 38.5843 43.3554 37.7169 43.5 36.4157V31.5V26.5843C43.5 25.2831 43.2108 24.4157 42.9217 23.6928C42.6325 22.9699 42.1988 22.247 41.4759 21.5241C40.753 20.8012 40.1747 20.512 39.3072 20.0783C38.5843 19.7892 37.7169 19.6446 36.4157 19.5H31.5ZM31.4996 38.7001C35.476 38.7001 38.6996 35.4766 38.6996 31.5001C38.6996 27.5237 35.476 24.3001 31.4996 24.3001C27.5231 24.3001 24.2996 27.5237 24.2996 31.5001C24.2996 35.4766 27.5231 38.7001 31.4996 38.7001ZM39.899 24.3002C39.899 24.9629 39.3617 25.5002 38.699 25.5002C38.0362 25.5002 37.499 24.9629 37.499 24.3002C37.499 23.6375 38.0362 23.1002 38.699 23.1002C39.3617 23.1002 39.899 23.6375 39.899 24.3002ZM31.5004 36.2999C34.1514 36.2999 36.3004 34.1509 36.3004 31.4999C36.3004 28.8489 34.1514 26.6999 31.5004 26.6999C28.8494 26.6999 26.7004 28.8489 26.7004 31.4999C26.7004 34.1509 28.8494 36.2999 31.5004 36.2999Z" fill="white"/>
</svg>
