<svg width="63" height="63" viewBox="0 0 63 63" fill="none" xmlns="http://www.w3.org/2000/svg">
<circle cx="31.5" cy="31.5" r="31.5" fill="#85F850"/>
<path d="M43.4441 28.8357L43.4444 28.8356L43.4369 28.7741C43.4369 28.773 43.4368 28.7722 43.4366 28.7712C43.4365 28.7703 43.4365 28.7695 43.4363 28.7686L43.4085 28.5372C43.4029 28.4908 43.3965 28.4379 43.3892 28.3775L43.3834 28.3294L43.3715 28.3309C43.0787 26.6659 42.2745 25.0859 41.029 23.7367C39.7893 22.3941 38.1786 21.334 36.3712 20.671C34.8227 20.103 33.1796 19.8149 31.4878 19.8149C29.2037 19.8149 26.9855 20.3521 25.073 21.3684C21.3849 23.3279 19.2098 26.9298 19.5313 30.5446C19.6977 32.4151 20.4305 34.1956 21.6506 35.6938C22.7989 37.104 24.3523 38.242 26.1428 38.9847C27.2437 39.4414 28.3322 39.6566 29.4847 39.8844L29.6197 39.9111C29.937 39.9739 30.0223 40.0602 30.0443 40.0944C30.0851 40.1578 30.0638 40.2829 30.0474 40.3517C30.0324 40.4153 30.0168 40.4786 30.0013 40.5421C29.8775 41.0467 29.7496 41.5686 29.8501 42.144C29.9657 42.8054 30.3787 43.1848 30.9833 43.1848C30.9834 43.1848 30.9834 43.1848 30.9835 43.1848C31.6338 43.1848 32.3739 42.7486 32.8637 42.46L32.9291 42.4215C34.0975 41.7354 35.1982 40.9614 36.0266 40.3637C37.8394 39.0559 39.894 37.5734 41.4344 35.6556C42.9856 33.7241 43.7163 31.242 43.4441 28.8357ZM26.9739 32.4951H24.9034C24.5905 32.4951 24.3369 32.2415 24.3369 31.9286V27.5826C24.3369 27.2697 24.5905 27.016 24.9034 27.016C25.2163 27.016 25.47 27.2697 25.47 27.5826V31.362H26.9738C27.2868 31.362 27.5404 31.6157 27.5404 31.9286C27.5405 32.2415 27.2868 32.4951 26.9739 32.4951ZM29.1339 31.9132C29.1339 32.2261 28.8802 32.4798 28.5673 32.4798C28.2544 32.4798 28.0008 32.2261 28.0008 31.9132V27.5672C28.0008 27.2543 28.2544 27.0007 28.5673 27.0007C28.8802 27.0007 29.1339 27.2543 29.1339 27.5672V31.9132ZM34.2551 31.9132C34.2551 32.1587 34.097 32.3762 33.8635 32.4521C33.8059 32.4708 33.7469 32.4798 33.6886 32.4798C33.5106 32.4798 33.3387 32.3957 33.23 32.2461L31.1898 29.4362V31.9133C31.1898 32.2262 30.9362 32.4798 30.6233 32.4798C30.3104 32.4798 30.0567 32.2262 30.0567 31.9133V27.6916C30.0567 27.4461 30.2148 27.2286 30.4483 27.1527C30.6819 27.077 30.9376 27.16 31.0818 27.3587L33.122 30.1686V27.5672C33.122 27.2543 33.3756 27.0007 33.6885 27.0007C34.0014 27.0007 34.2551 27.2543 34.2551 27.5672V31.9132ZM38.3834 32.3906H35.5794C35.2665 32.3906 35.0128 32.1369 35.0128 31.824V29.6511V27.478C35.0128 27.1651 35.2665 26.9115 35.5794 26.9115H38.2964C38.6093 26.9115 38.863 27.1651 38.863 27.478C38.863 27.7909 38.6093 28.0446 38.2964 28.0446H36.1459V29.0845H37.8911C38.204 29.0845 38.4576 29.3382 38.4576 29.6511C38.4576 29.964 38.204 30.2177 37.8911 30.2177H36.1459V31.2574H38.3834C38.6963 31.2574 38.95 31.5111 38.95 31.824C38.95 32.1369 38.6963 32.3906 38.3834 32.3906Z" fill="white"/>
</svg>
