<svg width="63" height="63" viewBox="0 0 63 63" fill="none" xmlns="http://www.w3.org/2000/svg">
<circle cx="31.5" cy="31.5" r="31.5" fill="#681BEB"/>
<g clip-path="url(#clip0_438_8820)">
<path d="M32.1942 34.5317C31.9675 34.6734 31.7125 34.7301 31.4858 34.7301C31.2591 34.7301 31.0041 34.6734 30.7774 34.5317L19.5 27.6462V36.7985C19.5 38.7537 21.0868 40.3404 23.0419 40.3404H39.9581C41.9132 40.3404 43.5 38.7537 43.5 36.7985V27.6462L32.1942 34.5317Z" fill="white"/>
<path d="M39.958 22.6582H23.0419C21.3701 22.6582 19.9533 23.8483 19.6133 25.4351L31.5141 32.6889L43.3866 25.4351C43.0466 23.8483 41.6298 22.6582 39.958 22.6582Z" fill="white"/>
</g>
<defs>
<clipPath id="clip0_438_8820">
<rect width="24" height="24" fill="white" transform="translate(19.5 19.5)"/>
</clipPath>
</defs>
</svg>
