<svg width="43" height="43" viewBox="0 0 43 43" fill="none" xmlns="http://www.w3.org/2000/svg">
<path d="M32 15.9487C31.2857 16.2564 30.4694 16.4615 29.6531 16.5641C30.4694 16.0513 31.1837 15.2308 31.4898 14.3077C30.6735 14.8205 29.8572 15.1282 28.8367 15.3333C28.1225 14.5128 27 14 25.8775 14C23.6326 14 21.7959 15.8462 21.7959 18.1026C21.7959 18.4103 21.7959 18.7179 21.898 19.0256C18.5306 18.8205 15.4694 17.1795 13.4286 14.7179C13.1224 15.3333 12.9184 16.0513 12.9184 16.7692C12.9184 18.2051 13.6327 19.4359 14.7551 20.1538C14.0408 20.1538 13.4286 19.9487 12.9184 19.641C12.9184 21.5897 14.3469 23.3333 16.1837 23.641C15.8775 23.7436 15.4694 23.7436 15.0612 23.7436C14.7551 23.7436 14.551 23.7436 14.2449 23.641C14.7551 25.282 16.2857 26.5128 18.1225 26.5128C16.6939 27.641 14.9592 28.2564 13.0204 28.2564C12.7143 28.2564 12.4082 28.2564 12 28.1538C13.8367 29.282 15.9796 30 18.3265 30C25.8776 30 29.9592 23.7436 29.9592 18.3077V17.7949C30.7755 17.4872 31.4898 16.7692 32 15.9487Z" fill="white"/>
</svg>
