<svg width="63" height="63" viewBox="0 0 63 63" fill="none" xmlns="http://www.w3.org/2000/svg">
<circle cx="31.5" cy="31.5" r="31.5" fill="#681BEB"/>
<path d="M38.0759 19.0304C33.7199 18.2018 29.1963 18.2018 24.8403 19.0304C22.9136 19.4447 20.4843 21.7647 20.0654 23.5876C19.3115 27.1505 19.3115 30.7962 20.0654 34.3591C20.5681 36.182 22.9974 38.502 24.8403 38.9163C24.9241 38.9163 25.0078 38.9992 25.0078 39.082V44.3021C25.0078 44.5506 25.3429 44.7164 25.5105 44.4678L28.0236 41.8992C28.0236 41.8992 30.034 39.8277 30.3691 39.4963C30.3691 39.4963 30.4529 39.4135 30.5367 39.4135C33.0497 39.4963 35.6466 39.2477 38.1597 38.8334C40.0864 38.4192 42.5157 36.0991 42.9346 34.2763C43.6885 30.7134 43.6885 27.0676 42.9346 23.5047C42.4319 21.7647 40.0026 19.4447 38.0759 19.0304ZM38.1597 34.6077C37.7408 35.4363 37.2382 36.0991 36.4005 36.5134C36.1492 36.5963 35.8979 36.6791 35.6466 36.762C35.3115 36.6791 35.0602 36.5963 34.8089 36.5134C32.1283 35.4363 29.6152 33.9448 27.6047 31.7905C26.5157 30.5476 25.5942 29.1391 24.8403 27.6476C24.5052 26.9019 24.1702 26.239 23.9188 25.4933C23.6675 24.8304 24.0864 24.1676 24.5052 23.6704C24.9241 23.1733 25.4267 22.8418 26.0131 22.5933C26.4319 22.3447 26.8508 22.5104 27.1859 22.8418C27.856 23.6704 28.5262 24.499 29.0288 25.4104C29.3639 25.9904 29.2801 26.6533 28.6937 27.0676C28.5262 27.1505 28.4424 27.2333 28.2749 27.399C28.1911 27.4819 28.0236 27.5647 27.9398 27.7305C27.7722 27.979 27.7722 28.2276 27.856 28.4762C28.5262 30.3819 29.7827 31.8734 31.7094 32.7019C32.0445 32.8677 32.2958 32.9505 32.7147 32.9505C33.301 32.8677 33.5524 32.2048 33.9712 31.8734C34.3901 31.5419 34.8927 31.5419 35.3953 31.7905C35.8141 32.0391 36.233 32.3705 36.7356 32.7019C37.1544 33.0334 37.5733 33.282 37.9921 33.6134C38.2435 33.7791 38.3272 34.1934 38.1597 34.6077ZM34.6414 28.3933C34.4738 28.3933 34.5576 28.3933 34.6414 28.3933C34.3063 28.3933 34.2225 28.2276 34.1387 27.979C34.1387 27.8133 34.1387 27.5648 34.055 27.399C33.9712 27.0676 33.8037 26.7362 33.4686 26.4876C33.301 26.4047 33.1335 26.3219 32.966 26.239C32.7147 26.1562 32.5471 26.1562 32.2958 26.1562C32.0445 26.0733 31.9607 25.9076 31.9607 25.659C31.9607 25.4933 32.212 25.3276 32.3796 25.3276C33.7199 25.4104 34.7251 26.1562 34.8927 27.7305C34.8927 27.8133 34.8927 27.979 34.8927 28.0619C34.8927 28.2276 34.8089 28.3933 34.6414 28.3933ZM33.8037 24.7476C33.3848 24.5819 32.966 24.4161 32.4633 24.3333C32.2958 24.3333 32.0445 24.2504 31.877 24.2504C31.6257 24.2504 31.4581 24.0847 31.5419 23.8361C31.5419 23.5876 31.7094 23.4218 31.9607 23.5047C32.7984 23.5876 33.5524 23.7533 34.3063 24.0847C35.8141 24.8304 36.6518 26.0733 36.9031 27.7305C36.9031 27.8133 36.9031 27.8962 36.9031 27.979C36.9031 28.1448 36.9031 28.3105 36.9031 28.559C36.9031 28.6419 36.9031 28.7248 36.9031 28.8076C36.8194 29.1391 36.233 29.2219 36.1492 28.8076C36.1492 28.7248 36.0654 28.559 36.0654 28.4762C36.0654 27.7305 35.8979 26.9847 35.5628 26.3219C35.0602 25.5762 34.4738 25.079 33.8037 24.7476ZM38.3272 29.7191C38.0759 29.7191 37.9084 29.4705 37.9084 29.2219C37.9084 28.7248 37.8246 28.2276 37.7408 27.7305C37.4058 25.079 35.2278 22.9247 32.6309 22.5104C32.212 22.4275 31.7932 22.4276 31.4581 22.3447C31.2068 22.3447 30.8717 22.3447 30.788 22.0133C30.7042 21.7647 30.9555 21.5161 31.2068 21.5161C31.2906 21.5161 31.3743 21.5161 31.3743 21.5161C31.5419 21.5161 34.8089 21.599 31.3743 21.5161C34.8927 21.599 37.8246 23.919 38.411 27.399C38.4948 27.979 38.5785 28.559 38.5785 29.2219C38.7461 29.4705 38.5785 29.7191 38.3272 29.7191Z" fill="white"/>
</svg>
