<svg width="43" height="43" viewBox="0 0 43 43" fill="none" xmlns="http://www.w3.org/2000/svg">
<path d="M21.8429 12.9683H21.8388C17.3228 12.9683 13.6504 16.6417 13.6504 21.1587C13.6504 22.9504 14.2278 24.611 15.2097 25.9594L14.1889 29.0021L17.3371 27.9957C18.6322 28.8537 20.1772 29.3492 21.8429 29.3492C26.3589 29.3492 30.0313 25.6748 30.0313 21.1587C30.0313 16.6427 26.3589 12.9683 21.8429 12.9683ZM26.6087 24.5342C26.4111 25.0922 25.6269 25.555 25.0014 25.6901C24.5734 25.7812 24.0144 25.8539 22.1327 25.0738C19.7257 24.0766 18.1756 21.6307 18.0548 21.472C17.9391 21.3133 17.0822 20.1769 17.0822 19.0016C17.0822 17.8262 17.6791 17.2539 17.9197 17.0082C18.1173 16.8065 18.4439 16.7144 18.7572 16.7144C18.8585 16.7144 18.9496 16.7195 19.0315 16.7236C19.2721 16.7338 19.3929 16.7482 19.5516 17.128C19.7492 17.6041 20.2304 18.7794 20.2877 18.9002C20.3461 19.021 20.4045 19.1848 20.3226 19.3435C20.2458 19.5073 20.1782 19.58 20.0574 19.7193C19.9366 19.8585 19.8219 19.965 19.7011 20.1145C19.5905 20.2445 19.4656 20.3837 19.6049 20.6243C19.7441 20.8598 20.2253 21.645 20.9338 22.2757C21.848 23.0896 22.5893 23.3497 22.8544 23.4603C23.052 23.5422 23.2875 23.5227 23.4319 23.3691C23.6151 23.1715 23.8414 22.8439 24.0717 22.5214C24.2356 22.29 24.4424 22.2614 24.6594 22.3433C24.8806 22.4201 26.0508 22.9985 26.2914 23.1183C26.532 23.2391 26.6906 23.2965 26.749 23.3978C26.8063 23.4992 26.8063 23.9752 26.6087 24.5342Z" fill="white"/>
</svg>
