<svg width="63" height="63" viewBox="0 0 63 63" fill="none" xmlns="http://www.w3.org/2000/svg">
<circle cx="31.5" cy="31.5" r="31.5" fill="#85F850"/>
<path d="M31.503 19.5H31.497C24.8805 19.5 19.5 24.882 19.5 31.5C19.5 34.125 20.346 36.558 21.7845 38.5335L20.289 42.9915L24.9015 41.517C26.799 42.774 29.0625 43.5 31.503 43.5C38.1195 43.5 43.5 38.1165 43.5 31.5C43.5 24.8835 38.1195 19.5 31.503 19.5ZM38.4855 36.4455C38.196 37.263 37.047 37.941 36.1305 38.139C35.5035 38.2725 34.6845 38.379 31.9275 37.236C28.401 35.775 26.13 32.1915 25.953 31.959C25.7835 31.7265 24.528 30.0615 24.528 28.3395C24.528 26.6175 25.4025 25.779 25.755 25.419C26.0445 25.1235 26.523 24.9885 26.982 24.9885C27.1305 24.9885 27.264 24.996 27.384 25.002C27.7365 25.017 27.9135 25.038 28.146 25.5945C28.4355 26.292 29.1405 28.014 29.2245 28.191C29.31 28.368 29.3955 28.608 29.2755 28.8405C29.163 29.0805 29.064 29.187 28.887 29.391C28.71 29.595 28.542 29.751 28.365 29.97C28.203 30.1605 28.02 30.3645 28.224 30.717C28.428 31.062 29.133 32.2125 30.171 33.1365C31.5105 34.329 32.5965 34.71 32.985 34.872C33.2745 34.992 33.6195 34.9635 33.831 34.7385C34.0995 34.449 34.431 33.969 34.7685 33.4965C35.0085 33.1575 35.3115 33.1155 35.6295 33.2355C35.9535 33.348 37.668 34.1955 38.0205 34.371C38.373 34.548 38.6055 34.632 38.691 34.7805C38.775 34.929 38.775 35.6265 38.4855 36.4455Z" fill="white"/>
</svg>
