<svg width="80" height="80" viewBox="0 0 80 80" fill="none" xmlns="http://www.w3.org/2000/svg">
<g opacity="0.4">
<path d="M30.165 41.0001C31.0032 41.0001 31.807 41.3169 32.4004 41.8809C32.9937 42.4448 33.3281 43.2095 33.3301 44.0079V47.8829C33.3301 51.1164 37.1569 53.75 40.5654 53.7501C43.9669 53.7501 47.7939 51.1164 47.7939 47.8829V44.0079C47.7941 42.3503 49.219 41.0001 50.959 41.0001H56.2842C56.6849 41.0003 56.9999 41.3067 57 41.6817V50.0001C56.9998 54.4182 53.4181 58 49 58.0001H31C26.5818 58.0001 23.0002 54.4182 23 50.0001V41.6817C23.0001 41.3067 23.315 41.0001 23.7158 41.0001H30.165ZM49.9697 22.1231C50.5827 21.6914 51.3322 22.4928 50.8418 23.0196C50.3043 23.4891 42.4201 32.8934 45.0342 46.7383C45.0987 50.5029 40.0358 52.4502 37.29 49.7266C34.5237 47.8194 35.1402 32.4644 49.9697 22.1231Z" fill="#29366B"/>
</g>
</svg>
