<svg width="64" height="64" viewBox="0 0 64 64" fill="none" xmlns="http://www.w3.org/2000/svg">
<path d="M36.8213 15.8213C37.4721 15.1708 38.527 15.1707 39.1777 15.8213C39.8284 16.4722 39.8285 17.5279 39.1777 18.1787L36.9707 20.3857C37.5996 20.4149 38.1784 20.4592 38.707 20.5303C40.2531 20.7381 41.6195 21.1921 42.7129 22.2852C43.8063 23.3786 44.2599 24.7457 44.4678 26.292C44.6657 27.7648 44.6661 29.6263 44.666 31.8828V35.543C47.5413 36.2831 49.666 38.8936 49.666 42C49.6658 45.6817 46.6808 48.667 42.999 48.667C39.3174 48.6668 36.3332 45.6816 36.333 42C36.333 38.8936 38.4576 36.283 41.333 35.543V32C41.333 29.5959 41.3297 27.9591 41.165 26.7344C41.0069 25.5588 40.727 25.0144 40.3564 24.6436C39.9855 24.2726 39.4394 23.9922 38.2627 23.834C37.9076 23.7863 37.5179 23.753 37.085 23.7285L39.1777 25.8213C39.8284 26.4722 39.8285 27.5279 39.1777 28.1787C38.527 28.8291 37.4721 28.829 36.8213 28.1787L31.959 23.3164C31.2322 22.5887 31.2318 21.409 31.959 20.6816L36.8213 15.8213ZM21.001 15.333C24.6827 15.3332 27.667 18.3182 27.667 22C27.6668 25.1063 25.5423 27.717 22.667 28.457V32C22.667 34.4037 22.6704 36.0391 22.835 37.2637C22.9931 38.4401 23.2728 38.9855 23.6436 39.3564C24.0145 39.7273 24.5607 40.0059 25.7373 40.1641C26.0924 40.2118 26.4821 40.247 26.915 40.2715L24.8223 38.1787C24.1714 37.5279 24.1716 36.4722 24.8223 35.8213C25.473 35.1707 26.5279 35.1708 27.1787 35.8213L32.0361 40.6787C32.7655 41.4084 32.7655 42.5916 32.0361 43.3213L27.1787 48.1787C26.5279 48.829 25.473 48.8291 24.8223 48.1787C24.1714 47.5279 24.1716 46.4722 24.8223 45.8213L27.0293 43.6143C26.4004 43.5851 25.8216 43.5388 25.293 43.4678C23.7467 43.2599 22.3806 42.8071 21.2871 41.7139C20.1936 40.6204 19.7401 39.2544 19.5322 37.708C19.3342 36.2351 19.3339 34.374 19.334 32.1172V28.457C16.4587 27.717 14.3341 25.1063 14.334 22C14.334 18.3181 17.3191 15.333 21.001 15.333Z" fill="white"/>
</svg>
