<svg width="24" height="24" viewBox="0 0 24 24" fill="none" xmlns="http://www.w3.org/2000/svg">
<path d="M16.3203 3.59961C17.7537 3.59969 19.106 4.21341 20.0869 5.26758C21.0647 6.31856 21.5995 7.72517 21.5996 9.1748C21.5996 10.6246 21.0648 12.0319 20.0869 13.083L14.1367 19.4785C12.9932 20.7073 11.0068 20.7073 9.86328 19.4785L3.91309 13.083C2.94315 12.0405 2.40039 10.6143 2.40039 9.1748C2.40051 7.73548 2.94328 6.30998 3.91309 5.26758C4.88372 4.2244 6.26486 3.59971 7.67969 3.59961C9.09464 3.59961 10.4766 4.22432 11.4473 5.26758C11.7432 5.58513 12.2568 5.58511 12.5527 5.26758C13.5337 4.21334 14.8868 3.59961 16.3203 3.59961Z" fill="#29366B"/>
</svg>
