<svg width="80" height="80" viewBox="0 0 80 80" fill="none" xmlns="http://www.w3.org/2000/svg">
<g opacity="0.4" clip-path="url(#clip0_3021_14522)">
<path d="M20.5334 50.3231C20.7563 49.9811 21.2369 49.928 21.5256 50.2166L29.7825 58.4744C30.0712 58.7634 30.0172 59.2425 29.675 59.4657C28.3067 60.3579 26.67 60.069 25.6643 59.0633L20.9358 54.3348C19.9214 53.3202 19.6482 51.6818 20.5334 50.3231ZM23.8713 39.7938C25.1184 38.5466 27.1401 38.5392 28.3967 39.7938L40.2053 51.6024C41.4601 52.859 41.4525 54.8806 40.2053 56.1278L37.383 58.95C36.1463 60.1898 34.1132 60.2055 32.8576 58.95L21.05 47.1414C19.8029 45.8935 19.8029 43.8632 21.05 42.616L23.8713 39.7938ZM40.3352 33.4959C40.8351 32.9968 41.6458 32.9969 42.1457 33.4959L46.5032 37.8534C47.0031 38.3533 47.0031 39.1639 46.5032 39.6639L39.6633 46.5037C39.1618 47.0033 38.3519 47.0015 37.8537 46.5037L33.4963 42.1463C32.9964 41.6464 32.9964 40.8357 33.4963 40.3358L40.3352 33.4959ZM42.6164 21.0496C43.8636 19.8018 45.8939 19.8025 47.1418 21.0496L58.9494 32.8573C60.1965 34.1052 60.1965 36.1355 58.9494 37.3827L56.1272 40.2049C54.8813 41.4508 52.8596 41.4611 51.6018 40.2049L39.7942 28.3973C38.5392 27.1407 38.547 25.119 39.7942 23.8719L42.6164 21.0496ZM50.3254 20.5321C51.6859 19.6461 53.3232 19.9251 54.3352 20.9364L59.0637 25.6649C60.0664 26.668 60.3594 28.3052 59.468 29.6737C59.245 30.016 58.7648 30.0698 58.4758 29.7811L50.218 21.5243C49.9292 21.2355 49.9832 20.7549 50.3254 20.5321Z" fill="#29366B"/>
</g>
<defs>
<clipPath id="clip0_3021_14522">
<rect width="40" height="40" fill="white" transform="translate(20 20)"/>
</clipPath>
</defs>
</svg>
