<svg width="80" height="80" viewBox="0 0 80 80" fill="none" xmlns="http://www.w3.org/2000/svg">
<g opacity="0.4">
<path d="M39.999 23.334C43.1249 23.334 45.7507 23.4985 47.915 23.9795C50.0984 24.4647 51.9136 25.2935 53.3096 26.6895C54.7055 28.0854 55.5343 29.9006 56.0195 32.084C56.5005 34.2483 56.665 36.8742 56.665 40C56.665 43.1262 56.5006 45.7525 56.0195 47.917C55.5343 50.1002 54.7054 51.9146 53.3096 53.3105C51.9136 54.7065 50.0984 55.5353 47.915 56.0205C45.7507 56.5015 43.1249 56.667 39.999 56.667C36.8729 56.667 34.2465 56.5016 32.082 56.0205C29.8987 55.5353 28.0844 54.7064 26.6885 53.3105C25.2926 51.9146 24.4638 50.1003 23.9785 47.917C23.4975 45.7525 23.332 43.1262 23.332 40C23.332 36.8741 23.4976 34.2484 23.9785 32.084C24.4638 29.9006 25.2925 28.0854 26.6885 26.6895C28.0844 25.2936 29.8988 24.4647 32.082 23.9795C34.2465 23.4984 36.8729 23.334 39.999 23.334ZM40 31.667C39.0797 31.6672 38.334 32.4136 38.334 33.334V42.6436L36.1787 40.4883C35.528 39.8377 34.4731 39.8379 33.8223 40.4883C33.1714 41.1392 33.1714 42.1948 33.8223 42.8457L38.6768 47.7002C39.0456 48.0688 39.4581 48.3339 40 48.334C40.5408 48.3339 40.955 48.0684 41.3232 47.7002L46.1787 42.8457C46.8293 42.1948 46.8294 41.1391 46.1787 40.4883C45.528 39.8377 44.4731 39.8379 43.8223 40.4883L41.667 42.6436V33.334C41.667 32.4136 40.9203 31.6672 40 31.667Z" fill="#29366B"/>
</g>
</svg>
