<svg width="80" height="80" viewBox="0 0 80 80" fill="none" xmlns="http://www.w3.org/2000/svg">
<g opacity="0.4">
<path d="M40 23.333C43.1259 23.333 45.7526 23.4985 47.917 23.9795C50.1001 24.4647 51.9147 25.2938 53.3105 26.6895C54.7064 28.0853 55.5352 29.8999 56.0205 32.083C56.5015 34.2475 56.667 36.8739 56.667 40C56.667 43.1262 56.5016 45.7525 56.0205 47.917C55.5352 50.1003 54.7064 51.9147 53.3105 53.3105C51.9147 54.7063 50.1002 55.5353 47.917 56.0205C45.7526 56.5015 43.1259 56.667 40 56.667C36.8741 56.667 34.2474 56.5015 32.083 56.0205C29.9 55.5352 28.0852 54.7063 26.6895 53.3105C25.2938 51.9147 24.4667 50.1 23.9814 47.917C23.5004 45.7525 23.333 43.1262 23.333 40C23.333 36.8739 23.5004 34.2475 23.9814 32.083C24.4667 29.9001 25.2938 28.0852 26.6895 26.6895C28.0852 25.2937 29.9 24.4648 32.083 23.9795C34.2474 23.4985 36.8741 23.333 40 23.333ZM31.667 40C30.747 40.0004 30.0003 40.747 30 41.667C30.0003 42.587 30.747 43.3327 31.667 43.333H36.668V48.333L36.6768 48.5039C36.7622 49.3438 37.4706 49.9995 38.333 50C39.1958 50 39.9067 49.3441 39.9922 48.5039L40 48.333V42.5L39.9883 42.2441C39.8598 40.9845 38.7944 40.002 37.5 40.002L31.667 40ZM41.667 30C40.8042 30 40.0934 30.6559 40.0078 31.4961L40 31.667V37.5L40.0117 37.7559C40.1401 39.0161 41.2059 39.998 42.5 39.998L48.333 40L48.5039 39.9902C49.3436 39.9043 49.9998 39.1953 50 38.333C49.9996 37.4703 49.3432 36.76 48.5029 36.6748L48.333 36.667H43.332V31.667L43.3232 31.4961C43.2377 30.6562 42.5293 30.0005 41.667 30Z" fill="#29366B"/>
</g>
</svg>
