<svg width="80" height="80" viewBox="0 0 80 80" fill="none" xmlns="http://www.w3.org/2000/svg">
<g opacity="0.4">
<path d="M39.9995 22C41.9549 22 43.5549 23.6563 43.5552 25.6807C43.5552 31.5334 47.5382 36.3193 52.4448 36.3193C54.4001 36.3196 55.9994 37.9757 55.9995 40C55.9995 42.0244 54.4002 43.6804 52.4448 43.6807C47.5382 43.6807 43.5552 48.4666 43.5552 54.3193C43.5551 56.3438 41.955 58 39.9995 58C38.0442 57.9998 36.4449 56.3437 36.4448 54.3193C36.4448 48.4666 32.4618 43.6807 27.5552 43.6807C25.5997 43.6805 23.9995 42.0244 23.9995 40C23.9996 37.9756 25.5998 36.3195 27.5552 36.3193C32.4618 36.3193 36.4448 31.5334 36.4448 25.6807C36.4451 23.6565 38.0443 22.0002 39.9995 22Z" fill="#29366B"/>
</g>
</svg>
