<svg width="80" height="80" viewBox="0 0 80 80" fill="none" xmlns="http://www.w3.org/2000/svg">
<g opacity="0.4">
<path d="M48.0994 24C50.787 24 53.3236 25.1679 55.1628 27.1758C56.9963 29.1777 57.9996 31.8578 57.9998 34.6191C57.9998 37.3807 56.9965 40.0614 55.1628 42.0635L44.0056 54.2441C41.8616 56.5849 38.1379 56.5849 35.9939 54.2441L24.8367 42.0635C23.9275 41.0707 23.2138 39.9016 22.7302 38.627C22.2467 37.3522 21.9998 35.99 21.9998 34.6191C21.9999 33.2484 22.2467 31.8869 22.7302 30.6123C23.2139 29.3376 23.9274 28.1685 24.8367 27.1758C25.7464 26.1825 26.8371 25.3837 28.0505 24.835C29.2645 24.286 30.5734 24 31.9001 24C33.2268 24.0001 34.5359 24.286 35.7498 24.835C36.9629 25.3837 38.053 26.1827 38.9626 27.1758C39.5176 27.7815 40.4819 27.7815 41.0369 27.1758C42.876 25.1679 45.4118 24.0002 48.0994 24ZM42.6228 32.3359C41.9814 32.3162 41.3892 32.6663 41.0955 33.2285L41.0408 33.3438L37.2615 42.1621L36.325 40.4141C36.0532 39.9071 35.54 39.5782 34.9714 39.5391L34.8572 39.5352H30.9998C30.0804 39.5353 29.3349 40.2809 29.3347 41.2002C29.3348 42.1196 30.0804 42.8651 30.9998 42.8652H33.8601L35.9607 46.7861C36.2628 47.3501 36.8616 47.6908 37.5007 47.6631C38.1398 47.6353 38.7066 47.2442 38.9587 46.6562L42.4304 38.5547L43.575 41.7598C43.8116 42.4223 44.4389 42.865 45.1423 42.8652H48.9998L49.1697 42.8564C50.0094 42.7713 50.6647 42.0623 50.6648 41.2002C50.6646 40.3382 50.0093 39.6291 49.1697 39.5439L48.9998 39.5352H46.3162L44.1394 33.4404C43.909 32.7958 43.3071 32.3572 42.6228 32.3359Z" fill="#29366B"/>
</g>
</svg>
