<svg width="80" height="80" viewBox="0 0 80 80" fill="none" xmlns="http://www.w3.org/2000/svg">
<g opacity="0.4">
<path d="M53.333 46.667C54.5569 46.667 55.5072 46.7534 56.4238 46.9873C56.5681 47.0241 56.667 47.1558 56.667 47.3047V48.459C56.667 49.5005 56.6139 50.4521 56.4307 51.2764C56.2432 52.1192 55.898 52.928 55.2471 53.5791C54.5957 54.2304 53.7856 54.5753 52.9424 54.7627C52.1181 54.9458 51.1665 55 50.125 55H29.875C28.8337 55 27.8828 54.9458 27.0586 54.7627C26.2154 54.5753 25.4053 54.2305 24.7539 53.5791C24.103 52.928 23.7587 52.1191 23.5713 51.2764C23.3881 50.4521 23.333 49.5005 23.333 48.459V47.3047C23.333 47.1559 23.4331 47.0242 23.5771 46.9873C24.4936 46.7534 25.4434 46.667 26.667 46.667C27.6436 46.6671 28.5292 47.026 29.416 47.3955C30.3978 47.8066 31.6555 48.3328 33.333 48.333C35.011 48.333 36.2709 47.8067 37.2529 47.3955C38.1393 47.0262 39.0239 46.6671 40 46.667C40.9767 46.667 41.8621 47.026 42.749 47.3955C43.7309 47.8067 44.9893 48.3329 46.667 48.333C48.3449 48.3329 49.604 47.8067 50.5859 47.3955C51.4723 47.0262 52.357 46.6672 53.333 46.667ZM50.125 38.333C51.1665 38.333 52.1181 38.3862 52.9424 38.5693C53.7852 38.7567 54.5949 39.1021 55.2461 39.7529C55.8973 40.4042 56.2433 41.2145 56.4307 42.0576C56.5092 42.4111 56.5627 42.7885 56.5996 43.1855C56.6196 43.4029 56.4233 43.575 56.208 43.54C55.3338 43.3954 54.4029 43.333 53.333 43.333C51.6556 43.3331 50.3979 43.8594 49.416 44.2705C48.5292 44.64 47.6436 44.9999 46.667 45C45.6903 45 44.8049 44.64 43.918 44.2705C42.936 43.8593 41.6778 43.333 40 43.333C38.5938 43.333 37.3051 43.7609 36.0234 44.2949C35.0225 44.7138 34.3049 45 33.333 45C32.3564 44.9999 31.4708 44.64 30.584 44.2705C29.6021 43.8594 28.3444 43.3331 26.667 43.333C25.5971 43.333 24.6662 43.3954 23.792 43.54C23.5767 43.575 23.3804 43.4029 23.4004 43.1855C23.4373 42.7884 23.4927 42.4111 23.5713 42.0576C23.7587 41.2146 24.1028 40.4042 24.7539 39.7529C25.4051 39.1021 26.2148 38.7567 27.0576 38.5693C27.8819 38.3862 28.8335 38.333 29.875 38.333H50.125ZM45 26.667C45.9204 26.667 46.6668 27.4127 46.667 28.333V30.0273C47.2007 30.0575 47.7029 30.1154 48.1641 30.2178C48.9481 30.392 49.7136 30.7165 50.332 31.335C50.9504 31.9534 51.274 32.719 51.4482 33.5029C51.5293 33.868 51.5825 34.2592 51.6162 34.6709C51.6321 34.8703 51.4646 35.0341 51.2646 35.0244C50.8863 35.0062 50.5044 35 50.125 35H29.875C29.4955 35 29.1139 35.0062 28.7354 35.0244C28.5354 35.0341 28.3679 34.8703 28.3838 34.6709C28.4175 34.2592 28.4716 33.868 28.5527 33.5029C28.7269 32.7191 29.0497 31.9534 29.668 31.335C30.2865 30.7165 31.0519 30.392 31.8359 30.2178C32.297 30.1153 32.7994 30.0575 33.333 30.0273V28.333C33.3332 27.4128 34.0798 26.6671 35 26.667C35.9204 26.667 36.6668 27.4127 36.667 28.333V30H38.333V28.333C38.3332 27.4128 39.0798 26.6671 40 26.667C40.9204 26.667 41.6668 27.4127 41.667 28.333V30H43.333V28.333C43.3332 27.4128 44.0797 26.6671 45 26.667Z" fill="#29366B"/>
</g>
</svg>
