<svg width="64" height="64" viewBox="0 0 64 64" fill="none" xmlns="http://www.w3.org/2000/svg">
<path d="M29.4902 16.6065C31.0188 15.5895 32.9812 15.5895 34.5098 16.6065C36.3375 17.8226 39.4099 20.0811 42.041 23.0889C44.6529 26.0749 46.9997 29.9939 47 34.5C47 42.7843 40.2843 49.5 32 49.5C23.7157 49.5 17 42.7843 17 34.5C17.0003 29.9939 19.3471 26.0749 21.959 23.0889C24.5901 20.0811 27.6625 17.8226 29.4902 16.6065ZM40.8213 35.9453C40.6808 34.76 39.5036 33.7939 38.3066 34.0459C36.3291 34.4627 37.1008 37.2861 35.3281 38.2989C33.2805 39.4684 30.3062 36.7509 28.9551 38.8916C28.25 40.0094 28.7846 41.2866 29.8398 41.9024C30.2051 42.1025 30.9653 42.4756 32.0127 42.7061C33.4133 43.0141 35.3876 43.0642 37.3955 41.917C39.3053 40.8259 40.2416 39.3783 40.626 38.0645C40.9023 37.1201 40.8695 36.3527 40.8213 35.9453Z" fill="white"/>
</svg>
