<svg width="64" height="64" viewBox="0 0 64 64" fill="none" xmlns="http://www.w3.org/2000/svg">
<g clip-path="url(#clip0_3019_16112)">
<path d="M39.4599 12.4501C40.0606 11.85 41.0341 11.8499 41.6347 12.4501C42.2355 13.051 42.2355 14.0251 41.6347 14.6259C41.2228 15.0378 40.9001 15.5289 40.6464 16.0624L47.9374 23.3534C48.4709 23.0997 48.9621 22.777 49.3739 22.3652C49.9749 21.7644 50.9491 21.7645 51.5497 22.3652C52.15 22.966 52.1503 23.94 51.5497 24.5409C48.8408 27.25 44.4164 27.5723 40.6259 27.121C41.8429 37.4097 36.6532 41.7538 27.121 40.6269C27.5731 44.4245 27.2494 48.8414 24.5409 51.5497C23.9401 52.1505 22.9659 52.1504 22.3651 51.5497C21.7644 50.9489 21.7644 49.9747 22.3651 49.374C22.7727 48.9663 23.0967 48.4775 23.3534 47.9374L16.0624 40.6464C15.5288 40.9002 15.0378 41.2238 14.6259 41.6357C14.0251 42.2359 13.0516 42.2358 12.4511 41.6357C11.8503 41.0348 11.8503 40.0606 12.4511 39.4599C15.1604 36.7506 19.5788 36.427 23.3739 36.8788C22.1571 26.5904 27.3465 22.2465 36.8788 23.374C36.4267 19.5762 36.7514 15.1586 39.4599 12.4501ZM23.9442 40.0663C22.5535 39.8382 21.0274 39.7281 19.5917 39.8242L24.1767 44.4091C24.2867 42.8025 24.1356 41.2065 23.9442 40.0663ZM26.3192 33.0956C26.2242 34.5153 26.3319 36.0417 26.5604 37.4394C27.9504 37.6667 29.4733 37.7754 30.9042 37.6796L26.3192 33.0956ZM29.5663 27.1415C28.4045 27.694 27.6668 28.4617 27.1415 29.5663L34.4335 36.8583C35.5952 36.3058 36.333 35.5381 36.8583 34.4335L29.5663 27.1415ZM37.4394 26.5605C36.0491 26.3331 34.5265 26.2236 33.0956 26.3193L37.6806 30.9042C37.7756 29.4845 37.668 27.9578 37.4394 26.5605ZM39.8241 19.5917C39.7292 21.0115 39.8368 22.5369 40.0653 23.9345C41.4555 24.1619 42.9776 24.2713 44.4081 24.1757L39.8241 19.5917Z" fill="white"/>
</g>
<defs>
<clipPath id="clip0_3019_16112">
<rect width="40" height="40" fill="white" transform="translate(12 12)"/>
</clipPath>
</defs>
</svg>
