<svg width="80" height="80" viewBox="0 0 80 80" fill="none" xmlns="http://www.w3.org/2000/svg">
<g opacity="0.4">
<path d="M40 23.334C43.1259 23.334 45.7526 23.4995 47.917 23.9805C50.1001 24.4657 51.9147 25.2947 53.3105 26.6904C54.7064 28.0863 55.5353 29.9007 56.0205 32.084C56.5016 34.2485 56.667 36.8748 56.667 40.001C56.667 43.1268 56.5015 45.7527 56.0205 47.917C55.5352 50.1003 54.7064 51.9156 53.3105 53.3115C51.9147 54.7071 50.1 55.5363 47.917 56.0215C45.7526 56.5024 43.1259 56.667 40 56.667C36.8741 56.667 34.2474 56.5025 32.083 56.0215C29.9 55.5362 28.0852 54.7072 26.6895 53.3115C25.2937 51.9157 24.4667 50.1001 23.9814 47.917C23.5005 45.7526 23.333 43.1268 23.333 40.001C23.333 36.8748 23.5004 34.2485 23.9814 32.084C24.4666 29.901 25.2939 28.0863 26.6895 26.6904C28.0852 25.2947 29.9001 24.4658 32.083 23.9805C34.2474 23.4995 36.8741 23.334 40 23.334ZM40 31.667C39.5002 31.667 39.0527 31.8888 38.7471 32.2373C38.7239 32.2583 38.6991 32.2784 38.6768 32.3008L33.8213 37.1553C33.1706 37.806 33.1708 38.8618 33.8213 39.5127C34.4722 40.163 35.528 40.1634 36.1787 39.5127L38.333 37.3574V46.667C38.3333 47.5872 39.0797 48.334 40 48.334C40.92 48.3337 41.6667 47.587 41.667 46.667V37.3574L43.8213 39.5127L43.9482 39.626C44.6029 40.1594 45.5687 40.1227 46.1787 39.5127C46.7883 38.9027 46.8253 37.9367 46.292 37.2822L46.1787 37.1553L41.3232 32.3008L41.25 32.2354C40.9446 31.8885 40.4984 31.6672 40 31.667Z" fill="#29366B"/>
</g>
</svg>
