<svg width="64" height="64" viewBox="0 0 64 64" fill="none" xmlns="http://www.w3.org/2000/svg">
<path fill-rule="evenodd" clip-rule="evenodd" d="M29.5 25.3327C29.5 20.2701 33.6041 16.166 38.6667 16.166C43.7293 16.166 47.8333 20.2701 47.8333 25.3327C47.8333 30.3953 43.7293 34.4993 38.6667 34.4993C33.6041 34.4993 29.5 30.3953 29.5 25.3327Z" fill="white"/>
<path fill-rule="evenodd" clip-rule="evenodd" d="M16.166 37.8327C16.166 34.1508 19.1508 31.166 22.8327 31.166C26.5146 31.166 29.4993 34.1508 29.4993 37.8327C29.4993 41.5146 26.5146 44.4993 22.8327 44.4993C19.1508 44.4993 16.166 41.5146 16.166 37.8327Z" fill="white"/>
<path fill-rule="evenodd" clip-rule="evenodd" d="M32.834 44.5C32.834 41.7386 35.0726 39.5 37.834 39.5C40.5954 39.5 42.834 41.7386 42.834 44.5C42.834 47.2614 40.5954 49.5 37.834 49.5C35.0726 49.5 32.834 47.2614 32.834 44.5Z" fill="white"/>
</svg>
