<svg width="80" height="80" viewBox="0 0 80 80" fill="none" xmlns="http://www.w3.org/2000/svg">
<g opacity="0.4">
<path d="M45.833 47.5C48.5944 47.5 50.833 49.7386 50.833 52.5C50.833 55.2614 48.5944 57.5 45.833 57.5C43.072 57.4995 40.833 55.2611 40.833 52.5C40.833 49.7389 43.072 47.5005 45.833 47.5ZM30.833 39.167C34.5145 39.1673 37.4998 42.1515 37.5 45.833C37.4999 49.5146 34.5146 52.4997 30.833 52.5C27.1513 52.4998 24.1671 49.5147 24.167 45.833C24.1672 42.1514 27.1514 39.1672 30.833 39.167ZM46.667 24.167C51.7293 24.1672 55.8328 28.2707 55.833 33.333C55.833 38.3955 51.7295 42.4998 46.667 42.5C41.6044 42.5 37.5 38.3956 37.5 33.333C37.5002 28.2706 41.6045 24.167 46.667 24.167Z" fill="#29366B"/>
</g>
</svg>
