<svg width="80" height="80" viewBox="0 0 80 80" fill="none" xmlns="http://www.w3.org/2000/svg">
<path d="M49.4473 38.6719C48.7445 44.7437 48.0421 50.8157 47.3408 56.8877C47.1359 58.6619 45.6346 59.9999 43.8486 60H35.9932C34.2072 59.9999 32.706 58.6618 32.501 56.8877C32.2267 54.513 31.131 45.0362 30.3955 38.6719H49.4473ZM51.5625 29.6289C52.2095 29.6289 52.7341 30.0489 52.7344 30.5674V35.3887C52.7344 35.9074 52.2097 36.3281 51.5625 36.3281H28.4375C27.7903 36.3281 27.2656 35.9074 27.2656 35.3887V30.5674C27.2659 30.0488 27.7905 29.6289 28.4375 29.6289H51.5625ZM35.7031 20C36.3503 20 36.875 20.5247 36.875 21.1719V23.6172L46.7285 25.2529C47.9012 25.4682 48.8471 26.2506 49.3066 27.2852H30.2344V21.1719C30.2344 20.5247 30.7591 20 31.4062 20H35.7031Z" fill="white"/>
</svg>
