<svg width="24" height="24" viewBox="0 0 24 24" fill="none" xmlns="http://www.w3.org/2000/svg">
<path d="M4.80146 17.4339C5.18568 16.2825 6.81481 16.2824 7.19892 17.4339C7.25683 17.6072 7.3928 17.7433 7.56611 17.8011C8.71784 18.1851 8.71768 19.8144 7.56611 20.1986C7.39291 20.2564 7.25687 20.3926 7.19892 20.5657C6.81494 21.7177 5.18545 21.7177 4.80146 20.5657C4.7436 20.3926 4.6074 20.2565 4.43427 20.1986C3.28233 19.8146 3.28233 18.1851 4.43427 17.8011C4.60734 17.7432 4.74363 17.607 4.80146 17.4339ZM12.8913 3.70539C13.2279 2.61345 14.7746 2.61331 15.111 3.70539L16.6638 8.75422C16.7559 9.05371 16.9836 9.29257 17.278 9.39973L21.3425 10.8782C22.3897 11.2592 22.3896 12.7403 21.3425 13.1214L17.278 14.5989C16.9836 14.706 16.756 14.9461 16.6638 15.2454L15.111 20.2943C14.7747 21.3865 13.2277 21.3865 12.8913 20.2943L11.3376 15.2454C11.2454 14.9461 11.0186 14.7061 10.7243 14.5989L6.65888 13.1214C5.61191 12.7403 5.61196 11.2593 6.65888 10.8782L10.7243 9.39973C11.0185 9.29248 11.2455 9.05353 11.3376 8.75422L12.8913 3.70539ZM3.80049 3.43391C4.18471 2.2825 5.81383 2.2824 6.19795 3.43391C6.2558 3.60722 6.39183 3.74322 6.56513 3.80109C7.71686 4.1851 7.7167 5.81437 6.56513 6.19856C6.392 6.25636 6.25591 6.39268 6.19795 6.56574C5.81396 7.71769 4.18447 7.71769 3.80049 6.56574C3.74256 6.39264 3.60644 6.2564 3.4333 6.19856C2.28135 5.81457 2.28135 4.18508 3.4333 3.80109C3.60643 3.74315 3.74267 3.6071 3.80049 3.43391Z" fill="#29366B"/>
</svg>
