<svg width="80" height="80" viewBox="0 0 80 80" fill="none" xmlns="http://www.w3.org/2000/svg">
<g opacity="0.4" clip-path="url(#clip0_3021_14343)">
<path d="M27.6865 40.1719C35.0646 38.2907 38.8542 42.3607 39.001 42.5342C39.2487 42.8213 39.6218 42.9902 40.001 42.9873C40.3733 42.9864 40.7388 42.8233 40.9883 42.5469C41.1484 42.3734 44.9517 38.3043 52.3164 40.1855L52.3027 40.1719C54.6509 40.7723 57.2259 40.9863 60.001 40.8662C59.9476 42.0403 59.6007 43.0543 58.9736 43.8682C53.0233 51.5528 45.8989 52.6874 42.2031 52.6875C41.1625 52.6875 40.3879 52.5934 40.001 52.54C38.2655 52.807 28.66 53.7538 21.0156 43.8682C20.3752 43.0276 20.0283 41.9869 19.9883 40.8662C22.7634 40.9863 25.3517 40.7722 27.6865 40.1719ZM44.9902 27.3242C46.1568 27.3239 47.3102 27.5729 48.373 28.0537C49.4358 28.5345 50.3843 29.2361 51.1543 30.1123C53.6759 32.9808 55.9178 35.1162 57.4922 36.1035C58.3459 36.6505 59.0129 37.3842 59.4531 38.2246C57.1185 38.2913 54.9572 38.0912 52.9961 37.5977C46.2318 35.8766 41.8549 38.3976 40.0137 39.8652C38.1589 38.3976 33.7961 35.8767 27.0322 37.5977C25.0843 38.1046 22.9094 38.2913 20.5879 38.2246C21.0282 37.3707 21.6823 36.6372 22.5361 36.1035C24.0971 35.1162 26.3514 32.9808 28.873 30.1123C30.434 28.3379 32.6757 27.3243 35.0371 27.3242C36.8342 27.3302 38.5811 27.92 40.0137 29.0049C41.4412 27.9243 43.2025 27.3243 44.9902 27.3242Z" fill="#29366B"/>
</g>
<defs>
<clipPath id="clip0_3021_14343">
<rect width="40" height="40" fill="white" transform="translate(20 20)"/>
</clipPath>
</defs>
</svg>
