<svg width="64" height="64" viewBox="0 0 64 64" fill="none" xmlns="http://www.w3.org/2000/svg">
<path fill-rule="evenodd" clip-rule="evenodd" d="M31.9987 15.334C28.8725 15.334 26.2467 15.4993 24.0822 15.9804C21.8987 16.4656 20.084 17.294 18.688 18.69C17.292 20.0859 16.4637 21.9007 15.9784 24.0841C15.4974 26.2486 15.332 28.8745 15.332 32.0007C15.332 35.1268 15.4974 37.7527 15.9784 39.9172C16.4637 42.1006 17.292 43.9154 18.688 45.3113C20.084 46.7073 21.8987 47.5357 24.0822 48.0209C26.2467 48.502 28.8725 48.6673 31.9987 48.6673C35.1249 48.6673 37.7507 48.502 39.9152 48.0209C42.0987 47.5357 43.9134 46.7073 45.3094 45.3113C46.7054 43.9154 47.5337 42.1006 48.019 39.9172C48.5 37.7527 48.6654 35.1268 48.6654 32.0007C48.6654 28.8745 48.5 26.2486 48.019 24.0841C47.5337 21.9007 46.7054 20.0859 45.3094 18.69C43.9134 17.294 42.0987 16.4656 39.9152 15.9804C37.7507 15.4993 35.1249 15.334 31.9987 15.334ZM32 23.6673C32.9205 23.6673 33.6667 24.4135 33.6667 25.334V34.6438L35.8215 32.489C36.4724 31.8381 37.5276 31.8381 38.1785 32.489C38.8294 33.1398 38.8294 34.1951 38.1785 34.846L33.3236 39.7009C33.2982 39.7263 33.2723 39.7507 33.2459 39.7743C32.9406 40.1177 32.4956 40.334 32 40.334C31.5044 40.334 31.0593 40.1177 30.7541 39.7743C30.7277 39.7507 30.7018 39.7263 30.6764 39.7009L25.8215 34.846C25.1706 34.1951 25.1706 33.1398 25.8215 32.489C26.4724 31.8381 27.5276 31.8381 28.1785 32.489L30.3333 34.6438L30.3333 25.334C30.3333 24.4135 31.0795 23.6673 32 23.6673Z" fill="white"/>
</svg>
