<svg width="64" height="64" viewBox="0 0 64 64" fill="none" xmlns="http://www.w3.org/2000/svg">
<path d="M32 15.334C36.4056 15.334 41.957 15.3359 45.3105 18.6895C48.6641 22.043 48.666 27.5944 48.666 32C48.666 36.4055 48.6639 41.9569 45.3105 45.3105C41.957 48.6641 36.4056 48.667 32 48.667C27.5943 48.667 22.0431 48.6642 18.6895 45.3105C15.3359 41.9569 15.333 36.4056 15.333 32C15.333 27.5944 15.3359 22.043 18.6895 18.6895C22.0431 15.3361 27.5945 15.334 32 15.334ZM28.666 25.334C27.7459 25.3342 27.0002 26.0798 27 27L27.0078 37.1699C27.0931 38.0103 27.8032 38.6667 28.666 38.667C29.529 38.667 30.2399 38.0104 30.3252 37.1699L30.333 27C30.3328 26.0797 29.5864 25.334 28.666 25.334ZM35.333 25.334C34.4127 25.3341 33.6662 26.0797 33.666 27L33.6748 37.1699C33.7601 38.0104 34.4701 38.6669 35.333 38.667C36.196 38.667 36.9059 38.0104 36.9912 37.1699L37 27C36.9998 26.0797 36.2534 25.334 35.333 25.334Z" fill="white"/>
</svg>
