<svg width="64" height="64" viewBox="0 0 64 64" fill="none" xmlns="http://www.w3.org/2000/svg">
<path d="M39.2002 18C41.5893 18 43.8437 19.0213 45.4785 20.7783C47.1085 22.5301 48 24.8755 48 27.292C48 29.7084 47.1085 32.0538 45.4785 33.8057L35.5615 44.4639C33.6557 46.5121 30.3443 46.5121 28.4385 44.4639L18.5215 33.8057C16.9048 32.0681 16 29.6912 16 27.292C16 24.8927 16.9048 22.5158 18.5215 20.7783C20.1393 19.0396 22.4416 18.0001 24.7998 18C27.158 18 29.4603 19.0397 31.0781 20.7783C31.5714 21.3085 32.4286 21.3085 32.9219 20.7783C34.5568 19.0213 36.8111 18 39.2002 18Z" fill="white"/>
</svg>
