<svg width="64" height="64" viewBox="0 0 64 64" fill="none" xmlns="http://www.w3.org/2000/svg">
<g clip-path="url(#clip0_3019_15989)">
<path d="M18.0024 17.3346C19.67 17.4458 21.2627 18.0696 22.5629 19.1197C23.3371 19.6799 24.0634 20.305 24.7328 20.9869C25.2139 21.4511 25.6784 21.9335 26.1176 22.3902C26.4054 22.6896 26.6834 22.9788 26.9496 23.2447C29.3451 25.7964 30.6758 29.1667 30.6684 32.6666C30.6805 34.5802 30.8176 36.4917 31.0805 38.3873C31.2242 39.363 31.3092 40.3477 31.3344 41.3336V43.3336C31.3012 44.7144 31.0258 46.0801 30.5209 47.3658C30.3973 47.7305 30.2737 48.0997 30.1596 48.4849C29.5473 50.5538 27.8372 51.9992 26.0024 51.9996C24.8984 51.9984 24.0035 51.1026 24.0024 49.9986V48.6656C24.0026 47.8022 24.7007 46.7761 25.2875 46.068C26.2447 44.9135 26.6826 43.4856 26.6684 41.9996C26.6682 36.9178 24.6076 34.3245 22.7895 32.0367C21.3564 30.2332 20.0017 28.5296 20.0014 26.0015C20.0014 23.7396 19.3012 21.336 18.0024 21.3355C17.7849 21.3357 16.945 21.4949 15.2475 23.5455C14.6141 24.3109 13.4857 24.4332 12.7035 23.8209C11.9213 23.2076 11.7694 22.0809 12.3617 21.2828C13.2377 20.0947 15.5396 17.3348 18.0024 17.3346ZM46.0004 17.3346C48.4632 17.3348 50.7646 20.0951 51.6401 21.2828C52.2296 22.0809 52.0781 23.2036 51.2973 23.816C50.5165 24.4283 49.3909 24.3083 48.7563 23.5455C47.0589 21.495 46.2182 21.3357 46.0004 21.3355C44.7015 21.3359 44.0004 23.7395 44.0004 26.0015C44.0001 28.5294 42.6472 30.2334 41.2143 32.0367C39.3961 34.3245 37.3336 36.9176 37.3334 41.9996C37.3335 43.4896 37.752 44.9071 38.7143 46.068C39.3011 46.7762 40.0012 47.8022 40.0014 48.6656V49.9986C40.0002 51.1024 39.1051 51.9981 38.0014 51.9996C36.1664 51.9996 34.4566 50.5539 33.8442 48.4849C33.73 48.0996 33.6044 47.7307 33.4809 47.3658C32.976 46.0801 32.7006 44.7144 32.6674 43.3336V41.3336C32.6926 40.3477 32.7777 39.363 32.9213 38.3873C33.1843 36.4917 33.3223 34.5803 33.3344 32.6666C33.3269 29.1664 34.6582 25.7963 37.0541 23.2447C37.3204 22.9785 37.5965 22.6896 37.8842 22.3902C38.3236 21.9333 38.7892 21.4516 39.2787 20.9791C39.9459 20.3 40.6685 19.6767 41.4399 19.1187C42.7399 18.0689 44.3331 17.4456 46.0004 17.3346ZM45.9975 12.0006C47.9016 11.9787 49.7597 12.5905 51.2787 13.7388C52.0572 14.3349 52.2356 15.6796 51.7397 16.5142C51.2207 17.3872 50.0285 17.6729 49.1684 17.1148C48.2381 16.4517 47.1381 16.0662 45.9975 16.0015C43.7097 16.0017 41.6168 17.1101 39.6967 18.3082C39.398 18.4962 39.0995 18.6859 38.8031 18.8775C38.1616 19.29 37.4991 19.7182 36.8344 20.0914C35.3663 20.9391 33.6933 21.368 31.9985 21.3336C30.3012 21.3677 28.6265 20.936 27.1567 20.0865C26.4988 19.7169 25.8353 19.29 25.1938 18.8775C24.8976 18.6868 24.5986 18.4962 24.2983 18.3082C22.3792 17.1104 20.2873 16.0016 17.9994 16.0015C16.8588 16.0662 15.7588 16.4516 14.8285 17.1148C14.2758 17.4734 13.5365 17.5025 12.9574 17.1881C11.7648 16.5396 11.6459 14.56 12.7182 13.7388C14.2372 12.5904 16.0953 11.9787 17.9994 12.0006C20.396 12.0006 22.3225 12.76 24.3617 13.5631C26.5728 14.4341 28.8594 15.3345 31.9985 15.3346C35.1374 15.3345 37.4242 14.4341 39.6352 13.5631C41.6744 12.76 43.601 12.0006 45.9975 12.0006Z" fill="white"/>
</g>
<defs>
<clipPath id="clip0_3019_15989">
<rect width="40" height="40" fill="white" transform="translate(12 12)"/>
</clipPath>
</defs>
</svg>
