<svg width="64" height="64" viewBox="0 0 64 64" fill="none" xmlns="http://www.w3.org/2000/svg">
<path d="M16.998 15.332C17.9185 15.332 18.665 16.0786 18.665 16.999V46.999C18.665 47.9195 17.9185 48.666 16.998 48.666C16.0779 48.6656 15.332 47.9193 15.332 46.999V16.999C15.3321 16.0789 16.078 15.3324 16.998 15.332ZM46.998 15.332C47.9185 15.332 48.665 16.0786 48.665 16.999V46.999C48.665 47.9195 47.9185 48.666 46.998 48.666C46.0779 48.6656 45.332 47.9193 45.332 46.999V16.999C45.3321 16.0789 46.078 15.3324 46.998 15.332ZM34.7998 21.999C36.7339 21.999 38.9965 22.0873 40.4541 23.5449C41.9117 25.0025 42 27.2651 42 29.1992V34.7988C42 36.7329 41.9117 38.9956 40.4541 40.4531C38.9965 41.9107 36.7339 41.999 34.7998 41.999H29.2002C27.2661 41.999 25.0035 41.9107 23.5459 40.4531C22.0883 38.9956 22 36.7329 22 34.7988V29.1992C22 27.2651 22.0883 25.0025 23.5459 23.5449C25.0035 22.0873 27.2661 21.999 29.2002 21.999H34.7998Z" fill="white"/>
</svg>
