<svg width="80" height="80" viewBox="0 0 80 80" fill="none" xmlns="http://www.w3.org/2000/svg">
<g opacity="0.4">
<path d="M40 22C49.9411 22 57.9999 30.0589 58 40C58 49.9411 49.9411 58 40 58C30.059 57.9999 22 49.9411 22 40C22.0001 30.059 30.059 22.0001 40 22ZM42.0186 30.4883C40.1986 30.4883 38.5866 30.8692 37.1826 31.6318C35.796 32.3945 34.7036 33.504 33.9062 34.96C33.1264 36.4159 32.7363 38.1929 32.7363 40.29C32.7364 42.2484 33.0661 43.895 33.7246 45.2295C34.3832 46.5639 35.3192 47.5782 36.5322 48.2715C37.7628 48.9648 39.2111 49.3115 40.875 49.3115C42.1747 49.3115 43.3359 49.0692 44.3584 48.584C45.3984 48.0813 46.2215 47.3789 46.8281 46.4775C47.4521 45.5589 47.7646 44.4845 47.7646 43.2539C47.7646 42.11 47.4782 41.113 46.9062 40.2637C46.3517 39.4147 45.6066 38.756 44.6709 38.2881C43.7351 37.8202 42.6774 37.586 41.499 37.5859C40.6324 37.586 39.8344 37.7075 39.1064 37.9502C38.3959 38.1755 37.7807 38.5223 37.2607 38.9902C37.1735 39.0659 37.0887 39.1446 37.0068 39.2266C37.063 37.5331 37.5203 36.2406 38.3789 35.3496C39.2975 34.3965 40.546 33.92 42.123 33.9199C42.7468 33.92 43.3452 33.9893 43.917 34.1279C44.4887 34.2493 45.0258 34.4836 45.5283 34.8301L47.0889 31.7354C46.4476 31.3194 45.6846 31.0078 44.8008 30.7998C43.9168 30.5918 42.9891 30.4883 42.0186 30.4883ZM40.5889 40.7314C41.5244 40.7315 42.2697 40.9831 42.8242 41.4854C43.3962 41.9707 43.6826 42.63 43.6826 43.4619C43.6826 43.9991 43.5528 44.4757 43.293 44.8916C43.033 45.3076 42.6682 45.6282 42.2002 45.8535C41.7496 46.0614 41.2298 46.166 40.6406 46.166C39.9649 46.166 39.3927 46.0533 38.9248 45.8281C38.4571 45.5856 38.0929 45.2646 37.833 44.8662C37.5731 44.4503 37.4424 43.9818 37.4424 43.4619C37.4424 42.9246 37.573 42.4563 37.833 42.0576C38.1102 41.6419 38.4825 41.321 38.9502 41.0957C39.4181 40.8531 39.9649 40.7315 40.5889 40.7314Z" fill="#29366B"/>
</g>
</svg>
