<svg width="80" height="80" viewBox="0 0 80 80" fill="none" xmlns="http://www.w3.org/2000/svg">
<g opacity="0.4">
<path d="M40 23.334C49.2046 23.3342 56.666 30.7964 56.666 40.001C56.6655 49.2052 49.2043 56.6668 40 56.667C30.7957 56.6668 23.3335 49.2052 23.333 40.001C23.333 30.7963 30.7954 23.3341 40 23.334ZM40 41.667C36.9401 41.6673 33.6317 43.2181 31.9053 45.8076C31.469 46.5308 31.6423 47.4818 32.332 48C33.022 48.5181 33.9837 48.4194 34.5566 47.7988C35.9466 46.1391 37.7754 45.0013 40 45.001C42.2573 45.0011 44.0385 46.1203 45.4443 47.7988C46.0173 48.4191 46.9791 48.5178 47.6689 48C48.4045 47.4473 48.5533 46.4019 48.001 45.666C46.0778 43.1857 43.1601 41.6671 40 41.667ZM35 35.001C34.0798 35.0012 33.3332 35.7468 33.333 36.667V36.6855C33.3332 37.6057 34.0798 38.3514 35 38.3516C35.9202 38.3513 36.6658 37.6057 36.666 36.6855V36.667C36.6658 35.7468 35.9202 35.0012 35 35.001ZM45 35.001C44.0798 35.0012 43.3332 35.7468 43.333 36.667V36.6855C43.3332 37.6057 44.0798 38.3514 45 38.3516C45.9202 38.3513 46.6658 37.6057 46.666 36.6855V36.667C46.6658 35.7468 45.9202 35.0012 45 35.001Z" fill="#29366B"/>
</g>
</svg>
