<svg width="64" height="64" viewBox="0 0 64 64" fill="none" xmlns="http://www.w3.org/2000/svg">
<path d="M32 15.334C41.2046 15.3342 48.666 22.7964 48.666 32.001C48.6655 41.2052 41.2043 48.6668 32 48.667C22.7957 48.6668 15.3335 41.2052 15.333 32.001C15.333 22.7963 22.7954 15.3341 32 15.334ZM32 33.667C28.9401 33.6673 25.6317 35.2181 23.9053 37.8076C23.469 38.5308 23.6423 39.4818 24.332 40C25.022 40.5181 25.9837 40.4194 26.5566 39.7988C27.9466 38.1391 29.7754 37.0013 32 37.001C34.2573 37.0011 36.0385 38.1203 37.4443 39.7988C38.0173 40.4191 38.9791 40.5178 39.6689 40C40.4045 39.4473 40.5533 38.4019 40.001 37.666C38.0778 35.1857 35.1601 33.6671 32 33.667ZM27 27.001C26.0798 27.0012 25.3332 27.7468 25.333 28.667V28.6855C25.3332 29.6057 26.0798 30.3514 27 30.3516C27.9202 30.3513 28.6658 29.6057 28.666 28.6855V28.667C28.6658 27.7468 27.9202 27.0012 27 27.001ZM37 27.001C36.0798 27.0012 35.3332 27.7468 35.333 28.667V28.6855C35.3332 29.6057 36.0798 30.3514 37 30.3516C37.9202 30.3513 38.6658 29.6057 38.666 28.6855V28.667C38.6658 27.7468 37.9202 27.0012 37 27.001Z" fill="white"/>
</svg>
