<svg width="80" height="80" viewBox="0 0 80 80" fill="none" xmlns="http://www.w3.org/2000/svg">
<path d="M51.3115 28.4736C51.53 28.4041 51.7636 28.396 51.9863 28.4502C52.209 28.5044 52.4122 28.6193 52.5742 28.7812C59.1405 35.3475 59.1405 46.0089 52.5742 52.5752C46.008 59.1411 35.3474 59.1412 28.7812 52.5752C28.6191 52.4131 28.5044 52.2091 28.4502 51.9863C28.3961 51.7636 28.4041 51.5299 28.4736 51.3115C28.5432 51.0932 28.6718 50.8984 28.8447 50.748C29.0178 50.5976 29.229 50.4975 29.4551 50.459C33.6438 49.7476 38.91 47.286 43.0986 43.0986C47.286 38.9099 49.7468 33.6437 50.458 29.4551C50.4965 29.229 50.5966 29.0178 50.7471 28.8447C50.8975 28.6717 51.093 28.5432 51.3115 28.4736ZM34.6807 34.9229C38.0619 31.5404 43.0956 30.8068 47.1943 32.7217C45.8101 35.8946 43.8465 38.782 41.4043 41.2354C38.8209 43.8069 35.7578 45.846 32.3887 47.2373C30.5901 43.1749 31.3534 38.2503 34.6807 34.9229ZM27.9932 40.3223C28.3245 40.3223 28.6426 40.4542 28.877 40.6885C29.1113 40.9228 29.2431 41.2409 29.2432 41.5723C29.2432 41.9038 29.1113 42.2216 28.877 42.4561C28.6425 42.6905 28.3247 42.8223 27.9932 42.8223H23.7559C23.4244 42.8223 23.1065 42.6905 22.8721 42.4561C22.6378 42.2217 22.5059 41.9037 22.5059 41.5723C22.506 41.2409 22.6377 40.9228 22.8721 40.6885C23.1065 40.4542 23.4244 40.3223 23.7559 40.3223H27.9932ZM28.957 27.7666C29.2885 27.7666 29.6063 27.8985 29.8408 28.1328L32.8369 31.1289C32.953 31.245 33.0456 31.3826 33.1084 31.5342C33.1712 31.6858 33.2031 31.8486 33.2031 32.0127C33.2031 32.1768 33.1712 32.3396 33.1084 32.4912C33.0456 32.6428 32.9529 32.7805 32.8369 32.8965C32.7209 33.0124 32.5832 33.1042 32.4316 33.167C32.28 33.2298 32.1173 33.2627 31.9531 33.2627C31.7892 33.2627 31.6271 33.2297 31.4756 33.167C31.324 33.1042 31.1854 33.0125 31.0693 32.8965L28.0732 29.9014C27.8388 29.667 27.7072 29.3491 27.707 29.0176C27.7069 28.686 27.8389 28.3674 28.0732 28.1328C28.3076 27.8985 28.6257 27.7667 28.957 27.7666ZM41.5137 22.5664C41.8451 22.5665 42.1631 22.6983 42.3975 22.9326C42.6318 23.167 42.7637 23.485 42.7637 23.8164V28.0527C42.7636 28.3842 42.6318 28.7021 42.3975 28.9365C42.1631 29.1709 41.8451 29.3027 41.5137 29.3027C41.1822 29.3027 40.8643 29.1708 40.6299 28.9365C40.3955 28.7021 40.2637 28.3842 40.2637 28.0527V23.8164C40.2637 23.4849 40.3955 23.167 40.6299 22.9326C40.8643 22.6983 41.1822 22.5664 41.5137 22.5664Z" fill="white"/>
</svg>
