<svg width="24" height="24" viewBox="0 0 24 24" fill="none" xmlns="http://www.w3.org/2000/svg">
<path d="M2.99902 2C3.55128 2 3.99897 2.44776 3.99902 3V21C3.99902 21.5523 3.55131 22 2.99902 22C2.44685 21.9999 1.99902 21.5522 1.99902 21V3C1.99907 2.44784 2.44688 2.00013 2.99902 2ZM20.999 2C21.5513 2 21.999 2.44776 21.999 3V21C21.999 21.5523 21.5513 22 20.999 22C20.4469 21.9999 19.999 21.5522 19.999 21V3C19.9991 2.44784 20.4469 2.00013 20.999 2ZM13.6797 6C14.8402 6 16.1977 6.05314 17.0723 6.92773C17.9469 7.80233 18 9.15981 18 10.3203V13.6797C18 14.8402 17.9469 16.1977 17.0723 17.0723C16.1977 17.9469 14.8402 18 13.6797 18H10.3203C9.15981 18 7.80233 17.9469 6.92773 17.0723C6.05314 16.1977 6 14.8402 6 13.6797V10.3203C6 9.15981 6.05314 7.80233 6.92773 6.92773C7.80233 6.05314 9.15981 6 10.3203 6H13.6797Z" fill="#29366B"/>
</svg>
