<svg width="64" height="64" viewBox="0 0 64 64" fill="none" xmlns="http://www.w3.org/2000/svg">
<path d="M48.6673 37.638C48.6673 37.4891 48.5688 37.3577 48.4245 37.3209C47.5077 37.0868 46.5582 37 45.334 37C44.362 37 43.645 37.2853 42.644 37.7042L42.5853 37.7287C41.6032 38.14 40.3454 38.6667 38.6673 38.6667C36.9893 38.6667 35.7314 38.14 34.7494 37.7287L34.6906 37.7042C33.6896 37.2853 32.9726 37 32.0007 37C31.0287 37 30.3117 37.2853 29.3107 37.7042L29.2519 37.7287C28.2699 38.14 27.012 38.6667 25.334 38.6667C23.6559 38.6667 22.3981 38.14 21.416 37.7287L21.3573 37.7042C20.3563 37.2853 19.6393 37 18.6673 37C17.4431 37 16.4936 37.0868 15.5768 37.3209C15.4325 37.3577 15.334 37.4891 15.334 37.638V38.792C15.334 39.8336 15.3876 40.7844 15.5708 41.6088C15.7583 42.4521 16.1027 43.2618 16.7541 43.9132C17.4055 44.5646 18.2152 44.9091 19.0585 45.0965C19.8829 45.2797 20.8337 45.3333 21.8753 45.3333H42.126C43.1676 45.3333 44.1184 45.2797 44.9428 45.0965C45.7861 44.9091 46.5958 44.5646 47.2472 43.9132C47.8986 43.2618 48.243 42.4521 48.4305 41.6088C48.6137 40.7844 48.6673 39.8336 48.6673 38.792V37.638Z" fill="white"/>
<path d="M21.8748 28.666C20.8332 28.666 19.8824 28.7197 19.058 28.9029C18.2147 29.0903 17.405 29.4347 16.7536 30.0861C16.1022 30.7376 15.7577 31.5473 15.5703 32.3906C15.4917 32.7442 15.437 33.1211 15.4001 33.5184C15.3798 33.7363 15.5773 33.908 15.7931 33.8723C16.6673 33.7277 17.5969 33.666 18.6668 33.666C20.3448 33.666 21.6027 34.1927 22.5847 34.6039L22.6435 34.6285C23.6445 35.0474 24.3615 35.3327 25.3335 35.3327C26.3054 35.3327 27.0224 35.0474 28.0234 34.6285L28.0822 34.6039C29.0642 34.1927 30.3221 33.666 32.0001 33.666C33.6782 33.666 34.936 34.1927 35.9181 34.6039L35.9768 34.6285C36.9778 35.0474 37.6949 35.3327 38.6668 35.3327C39.6387 35.3327 40.3557 35.0474 41.3568 34.6285L41.4155 34.6039C42.3975 34.1927 43.6554 33.666 45.3335 33.666C46.4034 33.666 47.3329 33.7277 48.2071 33.8723C48.423 33.908 48.6204 33.7363 48.6002 33.5184C48.5633 33.1211 48.5085 32.7442 48.4299 32.3906C48.2425 31.5473 47.8981 30.7376 47.2467 30.0861C46.5952 29.4347 45.7856 29.0903 44.9422 28.9029C44.1178 28.7197 43.1671 28.666 42.1255 28.666H21.8748Z" fill="white"/>
<path d="M28.667 20.3327C28.667 19.4122 27.9208 18.666 27.0003 18.666C26.0798 18.666 25.3336 19.4122 25.3336 20.3327L25.3336 21.9993L25.3336 22.0269C25.3114 22.0281 25.2893 22.0295 25.2672 22.0308C24.7578 22.062 24.2782 22.1198 23.8359 22.2181C23.0519 22.3923 22.2867 22.7153 21.6682 23.3338C21.0497 23.9523 20.7267 24.7175 20.5524 25.5015C20.4712 25.867 20.4177 26.2579 20.3839 26.67C20.3676 26.8697 20.5352 27.0339 20.7353 27.0242C21.114 27.006 21.4955 26.9993 21.8751 26.9993H42.1258C42.5054 26.9993 42.8868 27.006 43.2654 27.0242C43.4656 27.0339 43.6332 26.8697 43.6168 26.67C43.5831 26.2579 43.5295 25.867 43.4483 25.5015C43.2741 24.7175 42.9511 23.9523 42.3326 23.3338C41.7141 22.7153 40.9489 22.3923 40.1648 22.2181C39.7207 22.1194 39.2389 22.0616 38.7272 22.0304C38.7072 22.0292 38.6871 22.028 38.667 22.0269L38.6669 21.9993L38.667 20.3327C38.667 19.4122 37.9208 18.666 37.0003 18.666C36.0798 18.666 35.3336 19.4122 35.3336 20.3327V21.8952V21.9993H35.2295H33.7711H33.667L33.667 21.8952L33.667 20.3327C33.667 19.4122 32.9208 18.666 32.0003 18.666C31.0798 18.666 30.3336 19.4122 30.3336 20.3327V21.8952V21.9993H30.2295H28.7711H28.667V21.8952V20.3327Z" fill="white"/>
</svg>
