<svg width="24" height="24" viewBox="0 0 24 24" fill="none" xmlns="http://www.w3.org/2000/svg">
<g clip-path="url(#clip0_3044_15132)">
<path d="M7.15072 0.00107775C9.11804 -0.0265018 10.6318 0.475364 11.6488 1.49229C12.1769 2.02045 12.5646 2.68389 12.8128 3.47373C13.4799 2.60396 14.3547 1.83891 15.4359 1.18369L16.2474 2.52256C14.2027 3.76179 13.0792 5.39379 12.8343 7.49229C13.0245 7.44842 13.2257 7.39644 13.431 7.34385C15.3787 6.84491 18.322 6.09166 20.7249 9.50987C21.8731 11.1434 22.2205 13.3542 21.7288 15.9034C21.1479 18.9141 19.4021 22.0361 17.6673 23.1651C16.6987 23.7955 15.7988 24.0001 15.0062 24.0001C14.0686 24 13.28 23.7134 12.7025 23.503C12.4442 23.409 12.1227 23.2911 12.0003 23.2911C11.8778 23.2912 11.5564 23.4089 11.2982 23.503C10.2323 23.8913 8.44843 24.5408 6.33431 23.1651C4.59949 22.0362 2.8527 18.9142 2.27181 15.9034C1.78001 13.3543 2.12747 11.1434 3.27572 9.50987C5.67856 6.09168 8.62187 6.84496 10.5697 7.34385C10.8087 7.40507 11.042 7.4648 11.2591 7.5128C11.2835 7.24901 11.32 6.98612 11.3685 6.72569C9.88233 6.5946 8.70765 6.10856 7.87044 5.27159C6.85342 4.25461 6.35081 2.74097 6.37826 0.773539L6.389 0.0118199L7.15072 0.00107775Z" fill="#94BA2B"/>
</g>
<defs>
<clipPath id="clip0_3044_15132">
<rect width="24" height="24" fill="white"/>
</clipPath>
</defs>
</svg>
