<svg width="64" height="64" viewBox="0 0 64 64" fill="none" xmlns="http://www.w3.org/2000/svg">
<path d="M16.999 15.334C17.9194 15.3341 18.665 16.0806 18.665 17.001C18.636 17.0659 14.665 25.9605 14.665 32.001C14.6652 38.0635 18.665 47.001 18.665 47.001C18.6649 47.9212 17.9193 48.6668 16.999 48.667C16.0786 48.667 15.3322 47.9213 15.332 47.001C15.332 47.001 11.3321 38.0635 11.332 32.001C11.332 25.9564 15.3085 17.0537 15.332 17.001C15.332 16.0805 16.0785 15.334 16.999 15.334ZM46.999 15.334C47.9194 15.3341 48.665 16.0806 48.665 17.001C48.6792 17.0326 52.665 25.9492 52.665 32.001C52.6649 38.0635 48.665 47.001 48.665 47.001C48.6649 47.9212 47.9193 48.6668 46.999 48.667C46.0786 48.667 45.3322 47.9213 45.332 47.001C45.332 47.001 49.3319 38.0635 49.332 32.001C49.332 25.9552 45.3541 17.0503 45.332 17.001C45.332 16.0805 46.0785 15.334 46.999 15.334ZM34.7998 22C36.7338 22 38.9965 22.0884 40.4541 23.5459C41.9117 25.0035 42 27.2662 42 29.2002V34.7998C42 36.7338 41.9116 38.9965 40.4541 40.4541C38.9965 41.9117 36.7338 42 34.7998 42H29.2002C27.2662 42 25.0035 41.9117 23.5459 40.4541C22.0884 38.9965 22 36.7338 22 34.7998V29.2002C22 27.2662 22.0883 25.0035 23.5459 23.5459C25.0035 22.0884 27.2662 22 29.2002 22H34.7998Z" fill="white"/>
</svg>
