<svg width="64" height="64" viewBox="0 0 64 64" fill="none" xmlns="http://www.w3.org/2000/svg">
<path d="M15.3359 28.666C15.3341 28.8371 15.3333 29.0104 15.3333 29.186V38.146C15.3333 40.0067 15.4308 41.6157 15.731 42.9667C16.0355 44.3366 16.5701 45.5412 17.5141 46.4852C18.458 47.4292 19.6627 47.9638 21.0326 48.2682C22.3835 48.5685 23.9925 48.666 25.8533 48.666H38.1466C40.0073 48.666 41.6163 48.5685 42.9673 48.2682C44.3372 47.9638 45.5418 47.4292 46.4858 46.4852C47.4298 45.5412 47.9644 44.3366 48.2688 42.9667C48.5691 41.6157 48.6666 40.0067 48.6666 38.146V29.186C48.6666 29.0104 48.6657 28.8371 48.6639 28.666H15.3359Z" fill="white"/>
<path d="M20.3331 19.2458V17.0007C20.3331 16.0802 21.0793 15.334 21.9998 15.334C22.9202 15.334 23.6664 16.0802 23.6664 17.0007V18.7253C24.3516 18.6841 25.0807 18.6673 25.8531 18.6673H38.1464C38.9189 18.6673 39.6479 18.6841 40.3331 18.7253V17.0007C40.3331 16.0802 41.0793 15.334 41.9998 15.334C42.9202 15.334 43.6664 16.0802 43.6664 17.0007V19.2458C44.7482 19.5679 45.7058 20.0683 46.4856 20.8481C47.4296 21.7921 47.9642 22.9967 48.2687 24.3666C48.3373 24.6756 48.3954 24.9981 48.4441 25.334H15.5554C15.6041 24.9981 15.6622 24.6756 15.7309 24.3666C16.0353 22.9967 16.5699 21.7921 17.5139 20.8481C18.2937 20.0683 19.2513 19.5679 20.3331 19.2458Z" fill="white"/>
</svg>
