<svg width="80" height="80" viewBox="0 0 80 80" fill="none" xmlns="http://www.w3.org/2000/svg">
<g opacity="0.4" clip-path="url(#clip0_3021_14456)">
<path d="M35.0103 52.6455C37.6256 53.703 40.87 53.8772 43.6148 53.0908C43.6248 53.1213 43.6355 53.1516 43.648 53.1816L46.0894 59.0576C41.6564 60.5317 36.262 60.2568 32.0425 58.3711C32.0928 58.2659 34.9557 52.7742 35.0103 52.6455ZM53.522 41.2275C53.5922 41.2359 59.8913 41.2276 59.9654 41.2305C59.5039 48.7424 54.9006 55.1336 48.4107 58.1504C48.3973 58.1204 45.9494 52.2201 45.9419 52.209C50.1112 50.1723 53.0833 46.0659 53.522 41.2275ZM38.7349 20C38.7378 20.0675 38.7295 26.3631 38.7378 26.4424C25.8118 27.6192 21.8408 44.7452 32.7896 51.5264C32.7664 51.5576 29.8537 57.1814 29.8209 57.2402C13.0134 47.366 19.0611 21.2638 38.7349 20ZM39.1529 33.1895C39.5938 32.7589 40.2992 32.7635 40.732 33.2021C42.187 34.677 45.2026 37.986 45.5171 40.3623C46.0003 44.014 42.9242 46.5186 39.9537 46.5186C36.9832 46.5185 33.9363 43.9354 34.4527 40.3623C34.8389 37.6911 37.7219 34.5865 39.1529 33.1895ZM41.2271 20C51.2928 20.6183 59.3469 28.6718 59.9654 38.7373C59.8983 38.7402 53.5884 38.7319 53.522 38.7402C52.931 32.2227 47.7418 27.0334 41.2242 26.4424C41.2325 26.3602 41.2242 20.0746 41.2271 20Z" fill="#29366B"/>
</g>
<defs>
<clipPath id="clip0_3021_14456">
<rect width="40" height="40" fill="white" transform="translate(20 20)"/>
</clipPath>
</defs>
</svg>
