<svg width="80" height="80" viewBox="0 0 80 80" fill="none" xmlns="http://www.w3.org/2000/svg">
<g opacity="0.4">
<path d="M24.999 23.334C25.9194 23.3341 26.665 24.0806 26.665 25.001C26.636 25.0659 22.665 33.9605 22.665 40.001C22.6652 46.0635 26.665 55.001 26.665 55.001C26.6649 55.9212 25.9193 56.6668 24.999 56.667C24.0786 56.667 23.3322 55.9213 23.332 55.001C23.332 55.001 19.3321 46.0635 19.332 40.001C19.332 33.9564 23.3085 25.0537 23.332 25.001C23.332 24.0805 24.0785 23.334 24.999 23.334ZM54.999 23.334C55.9194 23.3341 56.665 24.0806 56.665 25.001C56.6792 25.0326 60.665 33.9492 60.665 40.001C60.6649 46.0635 56.665 55.001 56.665 55.001C56.6649 55.9212 55.9193 56.6668 54.999 56.667C54.0786 56.667 53.3322 55.9213 53.332 55.001C53.332 55.001 57.3319 46.0635 57.332 40.001C57.332 33.9552 53.3541 25.0503 53.332 25.001C53.332 24.0805 54.0785 23.334 54.999 23.334ZM42.7998 30C44.7338 30 46.9965 30.0884 48.4541 31.5459C49.9117 33.0035 50 35.2662 50 37.2002V42.7998C50 44.7338 49.9116 46.9965 48.4541 48.4541C46.9965 49.9117 44.7338 50 42.7998 50H37.2002C35.2662 50 33.0035 49.9117 31.5459 48.4541C30.0884 46.9965 30 44.7338 30 42.7998V37.2002C30 35.2662 30.0883 33.0035 31.5459 31.5459C33.0035 30.0884 35.2662 30 37.2002 30H42.7998Z" fill="#29366B"/>
</g>
</svg>
