<svg width="80" height="80" viewBox="0 0 80 80" fill="none" xmlns="http://www.w3.org/2000/svg">
<g opacity="0.4">
<path d="M57.5 53.25C57.497 54.2436 57.101 55.1959 56.3984 55.8984C55.6958 56.601 54.7436 56.997 53.75 57H26.25C25.2564 56.997 24.3042 56.601 23.6016 55.8984C22.899 55.1959 22.503 54.2436 22.5 53.25V33H57.5V53.25ZM40 38.1436C39.8018 38.1436 39.6064 38.1897 39.4287 38.2773C39.251 38.3651 39.0952 38.4921 38.9746 38.6494C38.3121 39.6119 35 44.5123 35 46.8623C35 48.1884 35.5272 49.4598 36.4648 50.3975C37.4025 51.3351 38.6739 51.8623 40 51.8623C41.3261 51.8623 42.5975 51.3351 43.5352 50.3975C44.4728 49.4598 45 48.1884 45 46.8623C45 44.5123 41.6879 39.6119 41.0254 38.6494C40.9048 38.4921 40.749 38.3651 40.5713 38.2773C40.3936 38.1897 40.1982 38.1436 40 38.1436ZM40 41.6377C41.3374 43.7626 42.5 46.0248 42.5 46.8623C42.498 47.5247 42.234 48.1595 41.7656 48.6279C41.2972 49.0963 40.6624 49.3603 40 49.3623C39.3376 49.3603 38.7028 49.0963 38.2344 48.6279C37.766 48.1595 37.502 47.5247 37.5 46.8623C37.5 46.0248 38.6626 43.7626 40 41.6377ZM47.5 23C47.8315 23 48.1494 23.1318 48.3838 23.3662C48.6181 23.6006 48.75 23.9185 48.75 24.25V25.5H53.75C54.7436 25.503 55.6958 25.8989 56.3984 26.6016C57.101 27.3042 57.497 28.2564 57.5 29.25V30.5H22.5V29.25C22.503 28.2564 22.899 27.3042 23.6016 26.6016C24.3042 25.8989 25.2564 25.503 26.25 25.5H31.25V24.25C31.25 23.9185 31.3819 23.6006 31.6162 23.3662C31.8506 23.1318 32.1685 23 32.5 23C32.8315 23 33.1494 23.1318 33.3838 23.3662C33.6181 23.6006 33.75 23.9185 33.75 24.25V25.5H46.25V24.25C46.25 23.9185 46.3819 23.6006 46.6162 23.3662C46.8506 23.1318 47.1685 23 47.5 23Z" fill="#29366B"/>
</g>
</svg>
