<svg width="80" height="80" viewBox="0 0 80 80" fill="none" xmlns="http://www.w3.org/2000/svg">
<path d="M40.0015 35.8348C44.9056 35.8348 50.134 36.5281 54.7231 37.7889C55.5683 38.0214 56.3181 38.5167 56.8647 39.202C57.4112 39.8871 57.7262 40.7278 57.7651 41.6033L58.3306 53.1355C58.3881 54.2576 57.9673 55.3859 57.189 56.1961C56.4026 57.0254 55.2761 57.5061 54.1333 57.5008H25.8706C24.7277 57.5066 23.6011 57.0256 22.8149 56.1961C22.0359 55.3863 21.615 54.2577 21.6733 53.1355L22.2358 41.6023C22.275 40.7271 22.5909 39.8869 23.1372 39.202C23.6836 38.5169 24.433 38.0216 25.2778 37.7889C29.8678 36.528 35.0973 35.8348 40.0015 35.8348ZM39.9995 39.1678C35.8287 39.1678 31.3183 39.7173 27.2983 40.7156C26.8806 40.8328 26.6097 41.2985 26.7143 41.7195C26.8191 42.1408 27.2775 42.4263 27.7016 42.3338C31.5932 41.3672 35.9664 40.8348 40.0005 40.8348C44.0346 40.8348 48.402 41.3659 52.3003 42.3309C52.7292 42.4353 53.2021 42.1505 53.31 41.7225L53.3081 41.7215C53.4141 41.2926 53.1284 40.8191 52.6997 40.7127C48.6747 39.7169 44.1703 39.1678 39.9995 39.1678ZM43.2505 33.0096C43.4835 32.2279 44.3305 31.7069 45.1333 31.8514L52.8833 33.2176C53.7166 33.3592 54.3083 34.1093 54.2583 34.951L54.2007 35.9422C50.6173 35.0172 46.7083 34.443 42.8833 34.243L43.2505 33.0096ZM31.3667 34.826C30.2501 34.9843 29.1501 35.184 28.0669 35.409L27.4087 32.951L30.6333 32.0926L31.3667 34.826ZM39.1675 30.0008C40.0839 30.001 40.8335 30.7512 40.8335 31.6678V34.1756C40.5586 34.1673 40.2754 34.1678 40.0005 34.1678C38.0839 34.1678 36.1257 34.2759 34.1675 34.4676V31.6678C34.1675 30.7512 34.9169 30.0009 35.8335 30.0008H39.1675ZM56.0005 25.0008L53.0005 31.5008L45.5005 30.0008L45.0005 23.0008L56.0005 25.0008ZM27.0815 25.2752C28.4264 24.9144 29.7787 24.808 31.0893 24.9188C31.9718 24.9937 32.4961 25.9442 32.0962 26.7342L30.2007 30.4783L26.9809 31.3416L23.4673 29.0467C22.7256 28.5625 22.7045 27.4763 23.4311 26.9705C24.5111 26.2181 25.7366 25.636 27.0815 25.2752ZM35.4175 23.3348C35.4183 22.7012 36.1357 22.2952 36.6792 22.6209L38.7749 23.8787C39.2682 24.1749 39.5834 24.732 39.5835 25.3074V28.3768C39.4454 28.3593 39.3097 28.3348 39.1675 28.3348H35.8335C35.6912 28.3348 35.5556 28.3583 35.4175 28.3758V23.3348Z" fill="white"/>
</svg>
