<svg width="64" height="65" viewBox="0 0 64 65" fill="none" xmlns="http://www.w3.org/2000/svg">
<path d="M44.6582 17.5C47.7419 17.5002 50.333 20.3148 50.333 23.9111C50.333 25.7993 49.9378 27.6897 49.1904 29.377C47.6629 32.8267 44.7443 39.4201 42.5771 44.3154C41.8108 46.0459 40.3379 47.2196 38.6377 47.4561C36.9371 47.6924 35.2556 46.9565 34.1406 45.4873L33.0742 44.082V38.0312C33.0742 37.3613 33.5552 36.8184 34.1484 36.8184H38.2686C40.4525 36.8184 42.2684 34.8452 42.2793 32.3789C42.2901 29.9011 40.5027 27.8824 38.3086 27.8945C36.1246 27.9067 34.3779 29.9574 34.3779 32.4238V34.3916H29.6221V32.4238C29.6221 29.9574 27.8754 27.9067 25.6914 27.8945C23.4973 27.8824 21.7098 29.9011 21.7207 32.3789C21.7316 34.8452 23.5475 36.8184 25.7314 36.8184H29.8516C30.4448 36.8184 30.9258 37.3613 30.9258 38.0312V44.082L29.8594 45.4873C28.7444 46.9565 27.0629 47.6924 25.3623 47.4561C23.6622 47.2196 22.1892 46.0459 21.4229 44.3154C19.2557 39.4201 16.337 32.8267 14.8096 29.377C14.0621 27.6897 13.667 25.7993 13.667 23.9111C13.667 20.3148 16.2581 17.5002 19.3418 17.5C21.037 17.5007 22.7035 18.0002 24.1758 18.9492L28.625 21.8203V20.0127C28.625 19.3427 29.106 18.7998 29.6992 18.7998H34.3008C34.894 18.7998 35.375 19.3427 35.375 20.0127V21.8203L39.8242 18.9492C41.2965 18.0002 42.963 17.5006 44.6582 17.5Z" fill="white"/>
</svg>
