<svg width="80" height="80" viewBox="0 0 80 80" fill="none" xmlns="http://www.w3.org/2000/svg">
<g opacity="0.4" clip-path="url(#clip0_3021_14290)">
<path d="M31.9168 20.0018C35.1957 19.9558 37.718 20.7924 39.4129 22.4872C40.2933 23.3675 40.9406 24.4732 41.3543 25.7899C42.4662 24.3401 43.9233 23.0646 45.7254 21.9725L47.078 24.2039C43.6702 26.2693 41.7987 28.9888 41.3905 32.4862C41.7074 32.4131 42.0426 32.3277 42.3846 32.2401C45.6308 31.4085 50.537 30.1515 54.5418 35.8485C56.4555 38.571 57.0331 42.256 56.2137 46.5047C55.2456 51.5227 52.3356 56.7256 49.4442 58.6073C47.83 59.6577 46.3315 59.9998 45.0106 59.9998C43.4479 59.9998 42.1334 59.5214 41.1708 59.1707C40.7402 59.0139 40.2038 58.8182 39.9999 58.8182C39.7958 58.8183 39.2603 59.0139 38.8299 59.1707C37.0534 59.8179 34.0796 60.9008 30.5555 58.6073C27.6642 56.7255 24.754 51.5227 23.786 46.5047C22.9663 42.2561 23.5441 38.571 25.4579 35.8485C29.4626 30.1515 34.3688 31.4086 37.6151 32.2401C38.0133 32.3421 38.4019 32.4413 38.7635 32.5213C38.8041 32.0816 38.8653 31.644 38.9461 31.2098C36.469 30.9913 34.5114 30.1802 33.1161 28.785C31.4209 27.0899 30.5849 24.5673 30.6307 21.2879L30.6483 20.0194L31.9168 20.0018Z" fill="#29366B"/>
</g>
<defs>
<clipPath id="clip0_3021_14290">
<rect width="40" height="40" fill="white" transform="translate(20 20)"/>
</clipPath>
</defs>
</svg>
