<svg width="24" height="24" viewBox="0 0 24 24" fill="none" xmlns="http://www.w3.org/2000/svg">
<path d="M10.4941 2.76319C11.4112 2.15315 12.5888 2.15316 13.5059 2.76319C14.6025 3.49282 16.4458 4.84821 18.0244 6.65284C19.5915 8.4444 20.9997 10.7959 21 13.4995C21 18.4701 16.9706 22.4995 12 22.4995C7.02944 22.4995 3 18.4701 3 13.4995C3.00027 10.7959 4.40849 8.4444 5.97559 6.65284C7.55423 4.84821 9.39752 3.49282 10.4941 2.76319ZM17.293 14.3667C17.2085 13.6556 16.5023 13.0759 15.7842 13.2271C14.5975 13.477 15.0605 15.171 13.9971 15.7788C12.7686 16.4807 10.9836 14.8503 10.1729 16.1343C9.74975 16.805 10.0709 17.5715 10.7041 17.9409C10.9233 18.061 11.3793 18.2851 12.0078 18.4233C12.8481 18.6082 14.0326 18.638 15.2373 17.9497C16.3831 17.295 16.9452 16.4265 17.1758 15.6382C17.3415 15.0717 17.3219 14.6111 17.293 14.3667Z" fill="#29366B"/>
</svg>
