<svg width="80" height="80" viewBox="0 0 80 80" fill="none" xmlns="http://www.w3.org/2000/svg">
<g opacity="0.4">
<path d="M40.001 23.334C49.2054 23.3344 56.667 30.7965 56.667 40.001C56.6668 49.2053 49.2053 56.6666 40.001 56.667C30.7963 56.667 23.3342 49.2056 23.334 40.001C23.334 30.7963 30.7962 23.334 40.001 23.334ZM40.001 30C39.0806 30 38.3342 30.7467 38.334 31.667V39.1992C38.334 40.2567 38.8633 41.2445 39.7432 41.8311L44.0762 44.7207C44.842 45.231 45.8772 45.0236 46.3877 44.2578C46.8974 43.4922 46.6908 42.4578 45.9258 41.9473L41.668 39.1084V31.667C41.6678 30.7469 40.921 30.0004 40.001 30ZM25.4883 23.8223C26.1392 23.1714 27.1948 23.1714 27.8457 23.8223C28.4963 24.4731 28.4964 25.5279 27.8457 26.1787L26.1787 27.8457C25.5279 28.4963 24.4731 28.4963 23.8223 27.8457C23.1714 27.1948 23.1714 26.1392 23.8223 25.4883L25.4883 23.8223ZM52.1553 23.8223C52.8061 23.1714 53.8618 23.1714 54.5127 23.8223L56.1787 25.4883C56.8296 26.1392 56.8296 27.1948 56.1787 27.8457C55.5279 28.4963 54.4731 28.4963 53.8223 27.8457L52.1553 26.1787C51.5045 25.5279 51.5046 24.4731 52.1553 23.8223Z" fill="#29366B"/>
</g>
</svg>
