<svg width="64" height="64" viewBox="0 0 64 64" fill="none" xmlns="http://www.w3.org/2000/svg">
<path fill-rule="evenodd" clip-rule="evenodd" d="M33.4845 18.1764C34.0449 16.3553 36.6229 16.3552 37.1833 18.1764L39.7724 26.591C39.926 27.0903 40.3048 27.4886 40.7958 27.6672L47.5702 30.1306C49.316 30.7654 49.316 33.2344 47.5702 33.8693L40.7958 36.3327C40.3048 36.5112 39.926 36.9096 39.7724 37.4089L37.1833 45.8234C36.6229 47.6446 34.0449 47.6446 33.4845 45.8234L30.8955 37.4089C30.7418 36.9096 30.363 36.5112 29.8721 36.3327L23.0977 33.8693C21.3519 33.2344 21.3519 30.7654 23.0977 30.1306L29.8721 27.6672C30.363 27.4886 30.7418 27.0903 30.8955 26.591L33.4845 18.1764Z" fill="white"/>
<path fill-rule="evenodd" clip-rule="evenodd" d="M18.3347 17.7231C18.9747 15.8032 21.6904 15.8032 22.3303 17.7231C22.4268 18.0124 22.6537 18.2393 22.9429 18.3357C24.8628 18.9757 24.8628 21.6914 22.9429 22.3313C22.6537 22.4277 22.4268 22.6547 22.3303 22.9439C21.6904 24.8638 18.9747 24.8638 18.3347 22.9439C18.2383 22.6547 18.0114 22.4277 17.7222 22.3313C15.8022 21.6914 15.8022 18.9757 17.7222 18.3357C18.0114 18.2393 18.2383 18.0124 18.3347 17.7231Z" fill="white"/>
<path fill-rule="evenodd" clip-rule="evenodd" d="M20.0015 41.0571C20.6415 39.1372 23.3571 39.1372 23.9971 41.0571C24.0935 41.3463 24.3205 41.5733 24.6097 41.6697C26.5296 42.3097 26.5296 45.0253 24.6097 45.6653C24.3205 45.7617 24.0935 45.9887 23.9971 46.2779C23.3571 48.1978 20.6415 48.1978 20.0015 46.2779C19.9051 45.9887 19.6781 45.7617 19.3889 45.6653C17.469 45.0253 17.469 42.3097 19.3889 41.6697C19.6781 41.5733 19.9051 41.3463 20.0015 41.0571Z" fill="white"/>
</svg>
