<svg width="65" height="64" viewBox="0 0 65 64" fill="none" xmlns="http://www.w3.org/2000/svg">
<path fill-rule="evenodd" clip-rule="evenodd" d="M24.6188 43.1939C24.518 43.5671 24.414 43.9525 24.3053 44.351C24.1115 45.0614 23.3785 45.4803 22.6681 45.2865C21.9577 45.0927 21.5388 44.3598 21.7326 43.6493C21.8418 43.249 21.9478 42.8548 22.052 42.467C22.8768 39.3996 23.5957 36.7262 24.9626 34.4749C26.5653 31.835 28.9923 29.8446 33.1727 28.1027C33.8525 27.8195 34.6331 28.1409 34.9163 28.8207C35.1995 29.5004 34.8781 30.281 34.1984 30.5642C30.3789 32.1557 28.4726 33.832 27.242 35.8588C26.0853 37.764 25.4704 40.0406 24.6188 43.1939Z" fill="#FF5A90"/>
<path d="M44.0683 19.5192C35.6682 17.5066 28.5575 18.8885 24.3375 22.7096C20.2673 26.3952 19.2016 32.0538 21.8969 38.1668C22.4054 36.6063 23.004 35.1293 23.822 33.7819C25.6109 30.8354 28.2983 28.688 32.6591 26.871C34.0185 26.3045 35.5798 26.9474 36.1462 28.3069C36.7127 29.6663 36.0698 31.2276 34.7103 31.7941C31.0716 33.3102 29.4254 34.8293 28.3809 36.5498C27.6076 37.8235 27.0936 39.2978 26.5235 41.2933C33.598 41.0299 38.6026 39.4356 41.9138 36.3904C45.3442 33.2354 46.7092 28.7543 46.9699 23.39C47.0584 21.5715 45.8414 19.944 44.0683 19.5192Z" fill="#FF5A90"/>
</svg>
