<svg width="228" height="54" viewBox="0 0 228 54" fill="none" xmlns="http://www.w3.org/2000/svg">
<path d="M226.212 39.3721C226.179 39.9489 225.989 40.3692 225.643 40.6329C225.297 40.8967 224.852 41.0285 224.308 41.0285C223.764 41.0285 223.319 40.8967 222.973 40.6329C222.627 40.3692 222.437 39.9489 222.404 39.3721H223.406C223.455 39.9325 223.756 40.2127 224.308 40.2127C224.86 40.2127 225.161 39.9325 225.21 39.3721H226.212ZM227.547 50.349H226.212V43.9582L222.268 50.349H221.057V41.5477H222.392V47.9262L226.323 41.5477H227.547V50.349Z" fill="#00D2F2"/>
<path d="M218.875 50.349H213.238V41.5477H218.875V42.7467H214.573V45.3179H218.232V46.5046H214.573V49.15H218.875V50.349Z" fill="#00D2F2"/>
<path d="M210.578 50.349H200.602V41.5477H201.937V49.15H204.916V41.5477H206.264V49.15H209.23V41.5477H210.578V50.349Z" fill="#00D2F2"/>
<path d="M197.933 50.349H196.598V41.5477H197.933V50.349ZM194.769 45.7506C195.28 46.245 195.535 46.8878 195.535 47.6789C195.535 48.4701 195.275 49.1129 194.756 49.6073C194.245 50.1018 193.574 50.349 192.741 50.349H189.367V41.5477H190.702V45.0089H192.741C193.582 45.0089 194.258 45.2561 194.769 45.7506ZM194.188 47.6789C194.188 47.2257 194.048 46.8672 193.767 46.6035C193.495 46.3398 193.116 46.2079 192.63 46.2079H190.702V49.15H192.63C193.116 49.15 193.495 49.0222 193.767 48.7668C194.048 48.503 194.188 48.1404 194.188 47.6789Z" fill="#00D2F2"/>
<path d="M186.689 50.349H185.353V42.7467H182.819V45.528C182.819 47.3163 182.605 48.569 182.177 49.2859C181.756 49.9946 181.085 50.349 180.162 50.349H179.605V49.15H179.84C180.104 49.15 180.331 49.1005 180.52 49.0016C180.71 48.8945 180.883 48.7091 181.039 48.4454C181.204 48.1816 181.324 47.7943 181.398 47.2834C181.48 46.7642 181.521 46.1173 181.521 45.3426V41.5477H186.689V50.349Z" fill="#00D2F2"/>
<path d="M178.95 50.349H177.553L176.935 48.5813H173.462L172.844 50.349H171.434L174.661 41.5477H175.736L178.95 50.349ZM176.577 47.4441L175.229 43.5379L173.845 47.4441H176.577Z" fill="#00D2F2"/>
<path d="M169.822 50.349H168.474V44.465L166.447 48.7544H165.458L163.394 44.465V50.349H162.059V41.5477H163.381L165.952 47.0238L168.487 41.5477H169.822V50.349Z" fill="#00D2F2"/>
<path d="M157.086 50.349H155.69L155.071 48.5813H151.598L150.98 50.349H149.571L152.797 41.5477H153.872L157.086 50.349ZM154.713 47.4441L153.366 43.5379L151.981 47.4441H154.713Z" fill="#00D2F2"/>
<path d="M143.909 50.349H142.574V41.5477H143.909V45.7258L147.197 41.5477H148.841L145.454 45.7011L149.15 50.349H147.456L143.909 45.7506V50.349Z" fill="#00D2F2"/>
<path d="M139.867 50.349H138.532V43.9581L134.589 50.349H133.378V41.5477H134.713V47.9262L138.644 41.5477H139.867V50.349Z" fill="#00D2F2"/>
<path d="M130.715 50.349H129.367V46.5046H125.807V50.349H124.472V41.5477H125.807V45.3179H129.367V41.5477H130.715V50.349Z" fill="#00D2F2"/>
<path d="M121.796 50.349H120.461V46.9002C119.489 47.0897 118.702 47.1845 118.1 47.1845C117.457 47.1845 116.913 47.0073 116.468 46.6529C116.032 46.2903 115.813 45.7464 115.813 45.0212V41.5477H117.161V44.6998C117.161 45.5569 117.61 45.9854 118.508 45.9854C119.052 45.9854 119.703 45.903 120.461 45.7382V41.5477H121.796V50.349Z" fill="#00D2F2"/>
<path d="M113.915 50.349H108.279V41.5477H113.915V42.7467H109.614V45.3179H113.273V46.5046H109.614V49.15H113.915V50.349Z" fill="#00D2F2"/>
<path d="M105.619 50.349H95.6429V41.5477H96.9779V49.15H99.957V41.5477H101.304V49.15H104.271V41.5477H105.619V50.349Z" fill="#00D2F2"/>
<path d="M92.9735 50.349H91.6385V43.9581L87.6952 50.349H86.4838V41.5477H87.8188V47.9262L91.7498 41.5477H92.9735V50.349Z" fill="#00D2F2"/>
<path d="M79.7713 50.349H78.4362V41.5477H79.7713V45.7258L83.0594 41.5477H84.7035L81.3164 45.7011L85.0125 50.349H83.319L79.7713 45.7506V50.349Z" fill="#00D2F2"/>
<path d="M72.7042 45.3307V46.0723C72.7042 46.6822 72.6919 47.1437 72.6672 47.4568C72.6507 47.7617 72.5765 48.1079 72.4446 48.4952C72.3128 48.8825 72.115 49.2122 71.8513 49.4841C71.2415 50.1104 70.4668 50.4236 69.5274 50.4236C68.5961 50.4236 67.8256 50.1104 67.2158 49.4841C66.952 49.2204 66.7543 48.8908 66.6224 48.4952C66.4905 48.0914 66.4123 47.737 66.3875 47.4321C66.3711 47.119 66.3628 46.6822 66.3628 46.1218V45.5408C66.3628 44.7414 66.4164 44.1069 66.5235 43.6371C66.6389 43.1674 66.8696 42.7595 67.2158 42.4134C67.8421 41.7871 68.6126 41.4739 69.5274 41.4739C70.4503 41.4739 71.225 41.7871 71.8513 42.4134C72.4199 42.9902 72.7042 43.9627 72.7042 45.3307ZM71.3568 45.8622C71.3568 45.0876 71.328 44.5148 71.2703 44.144C71.2126 43.7649 71.0684 43.4558 70.8377 43.2169C70.4915 42.8543 70.0548 42.673 69.5274 42.673C68.9999 42.673 68.5632 42.8543 68.217 43.2169C68.0605 43.3817 67.941 43.6042 67.8586 43.8844C67.7844 44.1563 67.7391 44.4159 67.7226 44.6631C67.7143 44.9021 67.7102 45.2565 67.7102 45.7262V46.4803C67.7102 47.0324 67.7391 47.4857 67.7967 47.84C67.8627 48.1862 68.0028 48.4664 68.217 48.6806C68.5796 49.0432 69.0164 49.2245 69.5274 49.2245C70.063 49.2245 70.4998 49.0432 70.8377 48.6806C71.0025 48.5076 71.122 48.2809 71.1961 48.0007C71.2786 47.7205 71.3239 47.4486 71.3321 47.1849C71.3486 46.9129 71.3568 46.472 71.3568 45.8622Z" fill="#00D2F2"/>
<path d="M65.1741 42.7467H61.0949V50.349H59.7598V41.5477H65.1741V42.7467Z" fill="#00D2F2"/>
<path d="M57.3437 45.3307V46.0723C57.3437 46.6822 57.3314 47.1437 57.3066 47.4568C57.2902 47.7617 57.216 48.1079 57.0841 48.4952C56.9523 48.8825 56.7545 49.2122 56.4908 49.4841C55.881 50.1104 55.1063 50.4236 54.1668 50.4236C53.2356 50.4236 52.4651 50.1104 51.8552 49.4841C51.5915 49.2204 51.3937 48.8908 51.2619 48.4952C51.13 48.0914 51.0517 47.737 51.027 47.4321C51.0105 47.119 51.0023 46.6822 51.0023 46.1218V45.5408C51.0023 44.7414 51.0559 44.1069 51.163 43.6371C51.2784 43.1674 51.5091 42.7595 51.8552 42.4134C52.4816 41.7871 53.2521 41.4739 54.1668 41.4739C55.0898 41.4739 55.8645 41.7871 56.4908 42.4134C57.0594 42.9902 57.3437 43.9627 57.3437 45.3307ZM55.9963 45.8622C55.9963 45.0876 55.9675 44.5148 55.9098 44.144C55.8521 43.7649 55.7079 43.4558 55.4771 43.2169C55.131 42.8543 54.6943 42.673 54.1668 42.673C53.6394 42.673 53.2026 42.8543 52.8565 43.2169C52.6999 43.3817 52.5804 43.6042 52.498 43.8844C52.4239 44.1563 52.3785 44.4159 52.3621 44.6631C52.3538 44.9021 52.3497 45.2565 52.3497 45.7262V46.4803C52.3497 47.0324 52.3785 47.4857 52.4362 47.84C52.5022 48.1862 52.6423 48.4664 52.8565 48.6806C53.2191 49.0432 53.6559 49.2245 54.1668 49.2245C54.7025 49.2245 55.1393 49.0432 55.4771 48.6806C55.642 48.5076 55.7615 48.2809 55.8356 48.0007C55.918 47.7205 55.9634 47.4486 55.9716 47.1849C55.9881 46.9129 55.9963 46.472 55.9963 45.8622Z" fill="#00D2F2"/>
<path d="M48.9739 47.8767C48.9739 48.6349 48.735 49.2365 48.257 49.6815C47.7873 50.1265 47.1403 50.349 46.3162 50.349H42.7561V41.5477H46.1803C46.9796 41.5477 47.6224 41.766 48.1086 42.2028C48.5949 42.6313 48.838 43.2041 48.838 43.9211C48.838 44.8111 48.4424 45.4498 47.6513 45.8371C48.5331 46.2491 48.9739 46.929 48.9739 47.8767ZM47.1197 44.9347C47.3752 44.7122 47.5029 44.4032 47.5029 44.0076C47.5029 43.612 47.3752 43.303 47.1197 43.0805C46.8643 42.858 46.514 42.7467 46.069 42.7467H44.0912V45.2685H46.069C46.514 45.2685 46.8643 45.1572 47.1197 44.9347ZM47.231 48.7915C47.4947 48.5442 47.6266 48.2146 47.6266 47.8026C47.6266 47.3905 47.4947 47.065 47.231 46.826C46.9755 46.587 46.6253 46.4675 46.1803 46.4675H44.0912V49.15H46.1803C46.6253 49.15 46.9755 49.0305 47.231 48.7915Z" fill="#00D2F2"/>
<path d="M40.4017 45.3307V46.0723C40.4017 46.6822 40.3894 47.1437 40.3646 47.4568C40.3482 47.7617 40.274 48.1079 40.1421 48.4952C40.0103 48.8825 39.8125 49.2122 39.5488 49.4841C38.939 50.1104 38.1643 50.4236 37.2248 50.4236C36.2936 50.4236 35.5231 50.1104 34.9132 49.4841C34.6495 49.2204 34.4518 48.8908 34.3199 48.4952C34.188 48.0914 34.1098 47.737 34.085 47.4321C34.0685 47.119 34.0603 46.6822 34.0603 46.1218V45.5408C34.0603 44.7414 34.1139 44.1069 34.221 43.6371C34.3364 43.1674 34.5671 42.7595 34.9132 42.4134C35.5396 41.7871 36.3101 41.4739 37.2248 41.4739C38.1478 41.4739 38.9225 41.7871 39.5488 42.4134C40.1174 42.9902 40.4017 43.9627 40.4017 45.3307ZM39.0543 45.8622C39.0543 45.0876 39.0255 44.5148 38.9678 44.144C38.9101 43.7649 38.7659 43.4558 38.5351 43.2169C38.189 42.8543 37.7523 42.673 37.2248 42.673C36.6974 42.673 36.2606 42.8543 35.9145 43.2169C35.7579 43.3817 35.6385 43.6042 35.556 43.8844C35.4819 44.1563 35.4366 44.4159 35.4201 44.6631C35.4118 44.9021 35.4077 45.2565 35.4077 45.7262V46.4803C35.4077 47.0324 35.4365 47.4857 35.4942 47.84C35.5602 48.1862 35.7003 48.4664 35.9145 48.6806C36.2771 49.0432 36.7139 49.2245 37.2248 49.2245C37.7605 49.2245 38.1973 49.0432 38.5351 48.6806C38.7 48.5076 38.8195 48.2809 38.8936 48.0007C38.976 47.7205 39.0214 47.4486 39.0296 47.1849C39.0461 46.9129 39.0543 46.472 39.0543 45.8622Z" fill="#00D2F2"/>
<path d="M31.6015 42.2894C32.1289 42.7838 32.3927 43.4266 32.3927 44.2177C32.3927 45.0089 32.1289 45.6517 31.6015 46.1461C31.0823 46.6406 30.4066 46.8878 29.5742 46.8878H27.5717V50.349H26.2367V41.5477H29.5742C30.4066 41.5477 31.0823 41.7949 31.6015 42.2894ZM30.625 45.2932C30.9134 45.0295 31.0576 44.671 31.0576 44.2177C31.0576 43.7645 30.9175 43.406 30.6373 43.1423C30.3571 42.8786 29.9739 42.7467 29.4877 42.7467H27.5717V45.6887H29.4877C29.9657 45.6887 30.3448 45.5569 30.625 45.2932Z" fill="#00D2F2"/>
<path d="M23.8823 45.3307V46.0723C23.8823 46.6822 23.87 47.1437 23.8452 47.4568C23.8288 47.7617 23.7546 48.1079 23.6227 48.4952C23.4909 48.8825 23.2931 49.2122 23.0294 49.4841C22.4196 50.1104 21.6449 50.4236 20.7054 50.4236C19.7742 50.4236 19.0037 50.1104 18.3938 49.4841C18.1301 49.2204 17.9324 48.8908 17.8005 48.4952C17.6686 48.0914 17.5904 47.737 17.5656 47.4321C17.5491 47.119 17.5409 46.6822 17.5409 46.1218V45.5408C17.5409 44.7414 17.5945 44.1069 17.7016 43.6371C17.817 43.1674 18.0477 42.7595 18.3938 42.4134C19.0202 41.7871 19.7907 41.4739 20.7054 41.4739C21.6284 41.4739 22.4031 41.7871 23.0294 42.4134C23.598 42.9902 23.8823 43.9627 23.8823 45.3307ZM22.5349 45.8622C22.5349 45.0876 22.5061 44.5148 22.4484 44.144C22.3907 43.7649 22.2465 43.4558 22.0158 43.2169C21.6696 42.8543 21.2329 42.673 20.7054 42.673C20.178 42.673 19.7412 42.8543 19.3951 43.2169C19.2385 43.3817 19.1191 43.6042 19.0366 43.8844C18.9625 44.1563 18.9171 44.4159 18.9007 44.6631C18.8924 44.9021 18.8883 45.2565 18.8883 45.7262V46.4803C18.8883 47.0324 18.9171 47.4857 18.9748 47.84C19.0408 48.1862 19.1809 48.4664 19.3951 48.6806C19.7577 49.0432 20.1945 49.2245 20.7054 49.2245C21.2411 49.2245 21.6779 49.0432 22.0158 48.6806C22.1806 48.5076 22.3001 48.2809 22.3742 48.0007C22.4566 47.7205 22.502 47.4486 22.5102 47.1849C22.5267 46.9129 22.5349 46.472 22.5349 45.8622Z" fill="#00D2F2"/>
<path d="M11.0982 42.7467V44.7122C11.0982 46.5829 10.8097 48.0621 10.2329 49.15H13.5457V42.7467H11.0982ZM9.81257 41.5477H14.8808V49.15H15.9191V52.3268H14.6088V50.349H9.26866V52.3268H7.97071V49.15H8.73712C9.45408 48.0374 9.81257 46.3686 9.81257 44.1436V41.5477Z" fill="#00D2F2"/>
<path d="M3.68378 50.4236C2.8844 50.4236 2.20452 50.1887 1.64414 49.719C1.08375 49.2492 0.729392 48.59 0.581055 47.7411H1.91609C2.02322 48.2026 2.22925 48.5694 2.53416 48.8413C2.84732 49.1133 3.23877 49.2492 3.7085 49.2492C4.20296 49.2492 4.60264 49.1215 4.90756 48.866C5.22072 48.6023 5.3773 48.2521 5.3773 47.8153C5.3773 47.3538 5.24132 47.0036 4.96937 46.7646C4.70566 46.5256 4.32245 46.4061 3.81975 46.4061H2.69486V45.2936H3.84448C4.28949 45.2936 4.63149 45.1782 4.87048 44.9475C5.11771 44.7085 5.24132 44.3747 5.24132 43.9462C5.24132 43.5341 5.10534 43.2127 4.83339 42.982C4.56144 42.7512 4.1906 42.6359 3.72086 42.6359C3.25113 42.6359 2.8638 42.776 2.55889 43.0562C2.25397 43.3281 2.04795 43.6948 1.94081 44.1563H0.593416C0.741753 43.3075 1.09612 42.6482 1.6565 42.1785C2.22513 41.7088 2.91737 41.4739 3.73322 41.4739C4.56556 41.4739 5.24956 41.6923 5.78522 42.1291C6.32089 42.5658 6.58872 43.1427 6.58872 43.8596C6.58872 44.7662 6.18491 45.4131 5.3773 45.8004C6.27556 46.163 6.72469 46.8511 6.72469 47.8648C6.72469 48.6312 6.43626 49.2492 5.85939 49.719C5.29077 50.1887 4.56556 50.4236 3.68378 50.4236Z" fill="#00D2F2"/>
<path d="M227.705 28.3739H223.527L222.491 23.3387H216.599L215.599 28.3739H211.385L217.635 2.94781H221.527L227.705 28.3739ZM221.742 19.7319L219.563 9.09007L217.385 19.7319H221.742Z" fill="#E65A80"/>
<path d="M210.146 28.3739H206.146V6.5546H202.111V17.5178C202.111 27.3026 199.218 28.3739 195.647 28.3739H194.468V24.7671H194.826C196.647 24.7671 198.254 24.2672 198.254 17.0536V2.94781H210.146V28.3739Z" fill="#E65A80"/>
<path d="M183.212 28.3739H179.677V2.94781H183.676V18.5177L189.354 2.94781H192.925V28.3739H188.926V12.804L183.212 28.3739Z" fill="#E65A80"/>
<path d="M176.867 21.0889C176.867 24.0886 176.438 25.5171 175.224 26.7669C174.153 27.8383 172.617 28.3739 170.225 28.3739H163.904V2.94781H170.26C172.617 2.94781 174.153 3.44776 175.189 4.51908C176.367 5.69754 176.796 6.98313 176.796 9.73287C176.796 11.5541 176.51 12.9468 175.331 14.161C174.974 14.5181 174.546 14.8395 174.01 15.0538C174.546 15.3038 175.046 15.6252 175.403 15.9823C176.581 17.1964 176.867 18.732 176.867 21.0889ZM172.867 20.8032C172.867 17.9821 171.975 16.8393 169.832 16.8393H167.904V24.7671H169.832C171.975 24.7671 172.867 23.7672 172.867 20.8032ZM172.796 9.98284C172.796 7.48308 171.975 6.5546 169.903 6.5546H167.904V13.4468H169.903C171.975 13.4468 172.796 12.4112 172.796 9.98284Z" fill="#E65A80"/>
<path d="M162.626 28.3739H158.448L157.413 23.3387H151.52L150.52 28.3739H146.307L152.556 2.94781H156.448L162.626 28.3739ZM156.663 19.7319L154.484 9.09007L152.306 19.7319H156.663Z" fill="#E65A80"/>
<path d="M147.692 10.6971C147.692 16.018 145.764 18.4106 141.157 18.4106H138.764V28.3739H134.765V2.94781H141.157C145.764 2.94781 147.692 5.37614 147.692 10.6971ZM143.692 10.6971C143.692 8.12588 143.157 6.5546 141.014 6.5546H138.764V14.8038H141.014C143.157 14.8038 143.692 13.2682 143.692 10.6971Z" fill="#E65A80"/>
<path d="M131.537 28.3739H127.537V6.5546H122.537V28.3739H118.538V2.94781H131.537V28.3739Z" fill="#E65A80"/>
<path d="M110.853 28.3739H100.175V2.94781H110.853V6.5546H104.175V13.7682H109.924V17.375H104.175V24.7671H110.853V28.3739Z" fill="#E65A80"/>
<path d="M90.8085 20.6247C90.8085 25.9456 88.8801 28.3739 84.2734 28.3739H77.8812V2.94781H81.8808V12.9111H84.2734C88.8801 12.9111 90.8085 15.3038 90.8085 20.6247ZM86.8089 20.6247C86.8089 18.0535 86.2732 16.5179 84.1306 16.5179H81.8808V24.7671H84.1306C86.2732 24.7671 86.8089 23.1959 86.8089 20.6247ZM96.9865 28.3739H92.9869V2.94781H96.9865V28.3739Z" fill="#E65A80"/>
<path d="M76.0751 6.5546H71.7898V28.3739H67.7902V6.5546H63.5406V2.94781H76.0751V6.5546Z" fill="#E65A80"/>
<path d="M63.0219 21.6246C62.9505 23.9101 62.2006 25.8742 60.915 27.0526C59.7722 28.1239 58.4509 28.6596 56.5225 28.6596C54.1656 28.6596 52.63 27.7311 51.5944 26.4812C49.916 24.4814 49.7375 21.696 49.7375 15.6609C49.7375 9.62572 49.916 6.84028 51.5944 4.84047C52.63 3.59059 54.1656 2.66211 56.5225 2.66211C58.4509 2.66211 59.8436 3.23348 60.9864 4.30481C62.272 5.48327 62.9505 7.41165 63.0219 9.66143H59.0223C58.9866 8.73295 58.8437 7.80447 58.4152 7.19739C58.0581 6.62601 57.4867 6.2689 56.5225 6.2689C55.5583 6.2689 54.987 6.66172 54.6299 7.2331C53.8442 8.44727 53.7371 11.0184 53.7371 15.6609C53.7371 20.3033 53.8442 22.8744 54.6299 24.0886C54.987 24.66 55.5583 25.0528 56.5225 25.0528C57.4867 25.0528 58.0581 24.6957 58.4152 24.1243C58.8437 23.4815 58.9866 22.5531 59.0223 21.6246H63.0219Z" fill="#E65A80"/>
<path d="M47.8835 15.6609C47.8835 21.696 47.7407 24.4814 46.0266 26.4812C44.991 27.7311 43.4554 28.6596 41.0985 28.6596C38.7416 28.6596 37.206 27.7311 36.1704 26.4812C34.492 24.4457 34.3134 21.696 34.3134 15.6609C34.3134 9.62572 34.492 6.87599 36.1704 4.84047C37.206 3.59059 38.7416 2.66211 41.0985 2.66211C43.4554 2.66211 44.991 3.59059 46.0266 4.84047C47.7407 6.84028 47.8835 9.62572 47.8835 15.6609ZM43.8839 15.6609C43.8839 11.0184 43.7768 8.44727 43.0269 7.2331C42.6698 6.66172 42.0627 6.2689 41.0985 6.2689C40.1343 6.2689 39.5629 6.66172 39.2058 7.2331C38.4559 8.44727 38.313 11.0184 38.313 15.6609C38.313 20.3033 38.4559 22.8744 39.2058 24.0886C39.5629 24.66 40.1343 25.0528 41.0985 25.0528C42.0627 25.0528 42.6698 24.66 43.0269 24.0886C43.7768 22.8744 43.8839 20.3033 43.8839 15.6609Z" fill="#E65A80"/>
<path d="M32.6348 10.6971C32.6348 16.018 30.7064 18.4106 26.0997 18.4106H23.7071V28.3739H19.7075V2.94781H26.0997C30.7064 2.94781 32.6348 5.37614 32.6348 10.6971ZM28.6352 10.6971C28.6352 8.12588 28.0995 6.5546 25.9569 6.5546H23.7071V14.8038H25.9569C28.0995 14.8038 28.6352 13.2682 28.6352 10.6971Z" fill="#E65A80"/>
<path d="M16.4792 28.3739H12.4796V6.5546H7.48008V28.3739H3.48047V2.94781H16.4792V28.3739Z" fill="#E65A80"/>
</svg>
