<svg width="228" height="60" viewBox="0 0 228 60" fill="none" xmlns="http://www.w3.org/2000/svg">
<path d="M14.9734 35H11.0088V13.3718H6.05306V35H2.08848V9.79663H14.9734V35ZM30.9874 17.478C31.0109 20.0974 30.5036 22.0325 29.4652 23.2833C28.4269 24.5104 26.775 25.124 24.5095 25.124H22.1379V35H18.1733V9.79663H24.5095C26.775 9.79663 28.4269 10.422 29.4652 11.6727C30.5036 12.9234 31.0109 14.8585 30.9874 17.478ZM27.0228 17.478C27.0464 16.1801 26.8694 15.1771 26.4918 14.4692C26.1142 13.7376 25.4063 13.3718 24.3679 13.3718H22.1379V21.5488H24.3679C25.4063 21.5488 26.1142 21.183 26.4918 20.4514C26.8694 19.7435 27.0464 18.7523 27.0228 17.478ZM46.1026 22.3983C46.1262 25.3481 46.0318 27.6372 45.8194 29.2655C45.607 30.8938 45.0878 32.18 44.2619 33.1239C43.7663 33.7611 43.1173 34.2802 42.315 34.6814C41.5126 35.059 40.5333 35.2596 39.377 35.2832C38.2206 35.2596 37.2413 35.059 36.4389 34.6814C35.6366 34.2802 34.9876 33.7611 34.492 33.1239C33.6897 32.1564 33.1705 30.8584 32.9345 29.2301C32.7221 27.6018 32.6277 25.3245 32.6513 22.3983C32.6277 19.4485 32.7221 17.1594 32.9345 15.5311C33.1705 13.9028 33.6897 12.6167 34.492 11.6727C34.9876 11.0356 35.6366 10.5164 36.4389 10.1152C37.2413 9.73763 38.2206 9.53704 39.377 9.51344C40.5333 9.53704 41.5126 9.73763 42.315 10.1152C43.1173 10.5164 43.7663 11.0356 44.2619 11.6727C45.0878 12.6167 45.607 13.9028 45.8194 15.5311C46.0318 17.1594 46.1262 19.4485 46.1026 22.3983ZM42.138 22.3983C42.138 20.1092 42.0908 18.2921 41.9964 16.947C41.8784 15.6019 41.6424 14.6344 41.2884 14.0444C41.1233 13.7612 40.8755 13.5252 40.5451 13.3364C40.2383 13.1712 39.8489 13.0886 39.377 13.0886C38.905 13.0886 38.5156 13.1712 38.2088 13.3364C37.902 13.5252 37.666 13.7612 37.5009 14.0444C37.1469 14.6344 36.9109 15.6019 36.7929 16.947C36.6749 18.2921 36.6159 20.1092 36.6159 22.3983C36.6159 24.6874 36.6749 26.5045 36.7929 27.8496C36.9109 29.1947 37.1469 30.1623 37.5009 30.7522C37.666 31.0354 37.902 31.2596 38.2088 31.4248C38.5156 31.6136 38.905 31.708 39.377 31.708C39.8489 31.708 40.2383 31.6136 40.5451 31.4248C40.8755 31.2596 41.1233 31.0354 41.2884 30.7522C41.6424 30.1623 41.8784 29.1947 41.9964 27.8496C42.0908 26.5045 42.138 24.6874 42.138 22.3983ZM61.1083 28.3098C61.0611 29.4425 60.8605 30.4809 60.5065 31.4248C60.1525 32.3452 59.657 33.1003 59.0198 33.6903C58.4534 34.2094 57.8281 34.6106 57.1437 34.8938C56.4357 35.1534 55.6098 35.2832 54.6658 35.2832C53.5095 35.2596 52.5302 35.059 51.7278 34.6814C50.9255 34.2802 50.2765 33.7611 49.7809 33.1239C48.9786 32.18 48.4594 30.8938 48.2234 29.2655C48.011 27.6372 47.9166 25.3481 47.9402 22.3983C47.9166 19.4485 48.011 17.1594 48.2234 15.5311C48.4594 13.9028 48.9786 12.6167 49.7809 11.6727C50.2765 11.0356 50.9255 10.5164 51.7278 10.1152C52.5302 9.73763 53.5095 9.53704 54.6658 9.51344C55.6098 9.51344 56.4475 9.65503 57.1791 9.93822C57.8871 10.1978 58.5242 10.599 59.0906 11.1418C59.7278 11.7317 60.2115 12.4869 60.5419 13.4072C60.8959 14.304 61.0847 15.3187 61.1083 16.4514H57.1437C57.1201 15.9795 57.0729 15.5311 57.0021 15.1063C56.9077 14.6815 56.7543 14.3158 56.5419 14.009C56.3767 13.7258 56.1408 13.5016 55.834 13.3364C55.5272 13.1712 55.1378 13.0886 54.6658 13.0886C54.1939 13.0886 53.8045 13.1712 53.4977 13.3364C53.1909 13.5252 52.9549 13.7612 52.7898 14.0444C52.4122 14.6344 52.1644 15.6019 52.0464 16.947C51.952 18.2921 51.9048 20.1092 51.9048 22.3983C51.9048 24.6874 51.952 26.5045 52.0464 27.8496C52.1644 29.1947 52.4122 30.1623 52.7898 30.7522C52.9549 31.0354 53.1909 31.2596 53.4977 31.4248C53.8045 31.6136 54.1939 31.708 54.6658 31.708C55.1378 31.708 55.5272 31.6254 55.834 31.4602C56.1408 31.295 56.3767 31.0708 56.5419 30.7876C56.7543 30.4573 56.9077 30.0797 57.0021 29.6549C57.0729 29.2301 57.1201 28.7818 57.1437 28.3098H61.1083ZM74.3928 13.3718H70.145V35H66.1804V13.3718H61.9681V9.79663H74.3928V13.3718ZM88.9972 27.3186C89.0208 29.9381 88.5134 31.8732 87.4751 33.1239C86.4367 34.3746 84.7848 35 82.5194 35H76.1831V9.79663H80.1477V19.6727H82.5194C84.7848 19.6727 86.4367 20.2862 87.4751 21.5134C88.5134 22.7641 89.0208 24.6992 88.9972 27.3186ZM85.0326 27.3186C85.0562 26.0443 84.8792 25.0414 84.5017 24.3098C84.1241 23.6018 83.4161 23.2479 82.3778 23.2479H80.1477V31.4248H82.3778C83.4161 31.4012 84.1241 31.0354 84.5017 30.3275C84.8792 29.5959 85.0562 28.593 85.0326 27.3186ZM95.1211 35H91.1565V9.79663H95.1211V35ZM108.866 35H98.282V9.79663H108.866V13.3718H102.247V20.5222H107.946V24.0974H102.247V31.4248H108.866V35ZM129.368 35H125.404V13.3718H120.448V35H116.483V9.79663H129.368V35ZM145.382 17.478C145.406 20.0974 144.899 22.0325 143.86 23.2833C142.822 24.5104 141.17 25.124 138.905 25.124H136.533V35H132.568V9.79663H138.905C141.17 9.79663 142.822 10.422 143.86 11.6727C144.899 12.9234 145.406 14.8585 145.382 17.478ZM141.418 17.478C141.441 16.1801 141.264 15.1771 140.887 14.4692C140.509 13.7376 139.801 13.3718 138.763 13.3718H136.533V21.5488H138.763C139.801 21.5488 140.509 21.183 140.887 20.4514C141.264 19.7435 141.441 18.7523 141.418 17.478ZM161.949 35H157.807L156.781 30.0089H150.94L149.949 35H145.772L151.967 9.79663H155.825L161.949 35ZM156.037 26.4337L153.878 15.8851L151.719 26.4337H156.037ZM176.065 27.7788C176.065 29.2419 175.947 30.3983 175.711 31.2478C175.451 32.0974 175.026 32.8171 174.436 33.4071C173.917 33.9263 173.256 34.3274 172.454 34.6106C171.652 34.8702 170.661 35 169.481 35H163.215V9.79663H169.516C170.672 9.79663 171.652 9.92642 172.454 10.186C173.256 10.4456 173.905 10.835 174.401 11.3541C174.967 11.9205 175.38 12.5813 175.64 13.3364C175.876 14.1152 175.994 15.1771 175.994 16.5222C176.017 17.419 175.923 18.2213 175.711 18.9293C175.498 19.6609 175.109 20.3216 174.543 20.9116C174.377 21.1004 174.177 21.2656 173.941 21.4072C173.728 21.5488 173.492 21.6786 173.233 21.7965C173.492 21.9145 173.74 22.0561 173.976 22.2213C174.212 22.3629 174.425 22.5281 174.613 22.7169C175.18 23.3069 175.569 24.003 175.781 24.8054C175.994 25.6313 176.088 26.6225 176.065 27.7788ZM172.1 27.4956C172.1 26.1033 171.864 25.1004 171.392 24.4868C170.92 23.8732 170.153 23.5664 169.091 23.5664H167.18V31.4248H169.091C170.153 31.4484 170.92 31.1652 171.392 30.5753C171.864 29.9617 172.1 28.9351 172.1 27.4956ZM172.029 16.77C172.029 15.5429 171.805 14.6698 171.357 14.1506C170.908 13.6078 170.177 13.3482 169.162 13.3718H167.18V20.2036H169.162C170.177 20.2036 170.908 19.9323 171.357 19.3895C171.805 18.8467 172.029 17.9736 172.029 16.77ZM182.354 35H178.85V9.79663H182.814V25.2302L188.443 9.79663H191.982V35H188.018V19.5665L182.354 35ZM209.052 35H205.087V13.3718H201.087V24.239C201.04 28.9351 200.415 31.944 199.211 33.2655C198.008 34.587 196.497 35.1652 194.68 35H193.512V31.4248H193.866C194.786 31.5428 195.577 31.1652 196.238 30.2921C196.898 29.3953 197.241 27.2242 197.264 23.7788V9.79663H209.052V35ZM226.458 35H222.316L221.289 30.0089H215.449L214.458 35H210.281L216.475 9.79663H220.334L226.458 35ZM220.546 26.4337L218.387 15.8851L216.228 26.4337H220.546Z" fill="#E65A80"/>
<path d="M3.76736 56.7615C2.94983 56.7615 2.25452 56.5213 1.6814 56.0409C1.10829 55.5605 0.745886 54.8862 0.594181 54.0181H1.95953C2.0691 54.4901 2.2798 54.8651 2.59164 55.1433C2.91191 55.4214 3.31224 55.5605 3.79264 55.5605C4.29833 55.5605 4.70709 55.4298 5.01893 55.1686C5.3392 54.8989 5.49933 54.5407 5.49933 54.094C5.49933 53.622 5.36027 53.2638 5.08214 53.0194C4.81244 52.775 4.42054 52.6528 3.90642 52.6528H2.75599V51.515H3.93171C4.38682 51.515 4.73659 51.397 4.981 51.161C5.23385 50.9166 5.36027 50.5752 5.36027 50.137C5.36027 49.7156 5.2212 49.3869 4.94308 49.1509C4.66495 48.9149 4.28569 48.7969 3.80528 48.7969C3.32488 48.7969 2.92876 48.9402 2.61692 49.2267C2.30508 49.5049 2.09438 49.8799 1.98482 50.3519H0.606823C0.758528 49.4838 1.12094 48.8096 1.69405 48.3292C2.27559 47.8488 2.98355 47.6086 3.81793 47.6086C4.66916 47.6086 5.3687 47.8319 5.91652 48.2786C6.46435 48.7253 6.73826 49.3152 6.73826 50.0485C6.73826 50.9756 6.32528 51.6372 5.49933 52.0333C6.41799 52.4041 6.87732 53.1079 6.87732 54.1445C6.87732 54.9284 6.58234 55.5605 5.99238 56.0409C5.41084 56.5213 4.66916 56.7615 3.76736 56.7615ZM11.0972 48.9107V50.9208C11.0972 52.834 10.8022 54.3468 10.2123 55.4593H13.6004V48.9107H11.0972ZM9.78245 47.6844H14.9657V55.4593H16.0277V58.7084H14.6876V56.6856H9.22619V58.7084H7.89877V55.4593H8.68258C9.41583 54.3215 9.78245 52.6148 9.78245 50.3393V47.6844ZM23.9188 51.5529V52.3114C23.9188 52.9351 23.9062 53.4071 23.8809 53.7273C23.864 54.0392 23.7882 54.3932 23.6533 54.7893C23.5185 55.1854 23.3162 55.5225 23.0465 55.8007C22.4228 56.4412 21.6306 56.7615 20.6698 56.7615C19.7174 56.7615 18.9294 56.4412 18.3057 55.8007C18.036 55.531 17.8337 55.1938 17.6989 54.7893C17.564 54.3763 17.484 54.0139 17.4587 53.7021C17.4418 53.3818 17.4334 52.9351 17.4334 52.362V51.7678C17.4334 50.9503 17.4882 50.3013 17.5978 49.8209C17.7158 49.3405 17.9517 48.9233 18.3057 48.5694C18.9463 47.9288 19.7343 47.6086 20.6698 47.6086C21.6137 47.6086 22.406 47.9288 23.0465 48.5694C23.6281 49.1593 23.9188 50.1538 23.9188 51.5529ZM22.5408 52.0965C22.5408 51.3043 22.5113 50.7185 22.4523 50.3393C22.3933 49.9516 22.2459 49.6355 22.0099 49.3911C21.6559 49.0203 21.2092 48.8348 20.6698 48.8348C20.1304 48.8348 19.6837 49.0203 19.3297 49.3911C19.1696 49.5597 19.0474 49.7872 18.9631 50.0738C18.8873 50.3519 18.8409 50.6174 18.824 50.8702C18.8156 51.1146 18.8114 51.477 18.8114 51.9574V52.7286C18.8114 53.2933 18.8409 53.7568 18.8999 54.1193C18.9673 54.4732 19.1106 54.7598 19.3297 54.9789C19.7006 55.3498 20.1473 55.5352 20.6698 55.5352C21.2176 55.5352 21.6643 55.3498 22.0099 54.9789C22.1784 54.8019 22.3006 54.5702 22.3765 54.2836C22.4608 53.997 22.5071 53.7189 22.5156 53.4492C22.5324 53.1711 22.5408 52.7202 22.5408 52.0965ZM31.5605 48.4429C32.0999 48.9486 32.3696 49.606 32.3696 50.4151C32.3696 51.2242 32.0999 51.8816 31.5605 52.3873C31.0295 52.893 30.3384 53.1458 29.4872 53.1458H27.4392V56.6856H26.0738V47.6844H29.4872C30.3384 47.6844 31.0295 47.9372 31.5605 48.4429ZM30.5618 51.515C30.8568 51.2453 31.0043 50.8787 31.0043 50.4151C31.0043 49.9516 30.861 49.5849 30.5744 49.3152C30.2879 49.0455 29.896 48.9107 29.3987 48.9107H27.4392V51.9195H29.3987C29.8875 51.9195 30.2752 51.7847 30.5618 51.515ZM40.3077 51.5529V52.3114C40.3077 52.9351 40.295 53.4071 40.2698 53.7273C40.2529 54.0392 40.1771 54.3932 40.0422 54.7893C39.9074 55.1854 39.7051 55.5225 39.4354 55.8007C38.8117 56.4412 38.0195 56.7615 37.0587 56.7615C36.1063 56.7615 35.3183 56.4412 34.6946 55.8007C34.4249 55.531 34.2226 55.1938 34.0878 54.7893C33.9529 54.3763 33.8728 54.0139 33.8476 53.7021C33.8307 53.3818 33.8223 52.9351 33.8223 52.362V51.7678C33.8223 50.9503 33.8771 50.3013 33.9866 49.8209C34.1046 49.3405 34.3406 48.9233 34.6946 48.5694C35.3351 47.9288 36.1231 47.6086 37.0587 47.6086C38.0026 47.6086 38.7948 47.9288 39.4354 48.5694C40.0169 49.1593 40.3077 50.1538 40.3077 51.5529ZM38.9297 52.0965C38.9297 51.3043 38.9002 50.7185 38.8412 50.3393C38.7822 49.9516 38.6347 49.6355 38.3987 49.3911C38.0447 49.0203 37.5981 48.8348 37.0587 48.8348C36.5193 48.8348 36.0726 49.0203 35.7186 49.3911C35.5585 49.5597 35.4362 49.7872 35.352 50.0738C35.2761 50.3519 35.2298 50.6174 35.2129 50.8702C35.2045 51.1146 35.2003 51.477 35.2003 51.9574V52.7286C35.2003 53.2933 35.2298 53.7568 35.2888 54.1193C35.3562 54.4732 35.4995 54.7598 35.7186 54.9789C36.0894 55.3498 36.5361 55.5352 37.0587 55.5352C37.6065 55.5352 38.0532 55.3498 38.3987 54.9789C38.5673 54.8019 38.6895 54.5702 38.7653 54.2836C38.8496 53.997 38.896 53.7189 38.9044 53.4492C38.9213 53.1711 38.9297 52.7202 38.9297 52.0965ZM48.8217 54.1572C48.8217 54.9326 48.5773 55.5478 48.0884 56.0029C47.608 56.458 46.9464 56.6856 46.1036 56.6856H42.4627V47.6844H45.9646C46.7821 47.6844 47.4395 47.9077 47.9367 48.3544C48.434 48.7927 48.6826 49.3785 48.6826 50.1117C48.6826 51.0219 48.2781 51.6751 47.469 52.0712C48.3708 52.4926 48.8217 53.1879 48.8217 54.1572ZM46.9254 51.1484C47.1866 50.9208 47.3173 50.6047 47.3173 50.2002C47.3173 49.7956 47.1866 49.4796 46.9254 49.252C46.6641 49.0245 46.3059 48.9107 45.8508 48.9107H43.828V51.4897H45.8508C46.3059 51.4897 46.6641 51.3759 46.9254 51.1484ZM47.0391 55.0927C47.3088 54.8399 47.4437 54.5027 47.4437 54.0813C47.4437 53.6599 47.3088 53.327 47.0391 53.0826C46.7779 52.8382 46.4197 52.716 45.9646 52.716H43.828V55.4593H45.9646C46.4197 55.4593 46.7779 55.3371 47.0391 55.0927ZM57.1286 51.5529V52.3114C57.1286 52.9351 57.116 53.4071 57.0907 53.7273C57.0739 54.0392 56.998 54.3932 56.8632 54.7893C56.7283 55.1854 56.526 55.5225 56.2563 55.8007C55.6327 56.4412 54.8404 56.7615 53.8796 56.7615C52.9272 56.7615 52.1392 56.4412 51.5155 55.8007C51.2458 55.531 51.0436 55.1938 50.9087 54.7893C50.7739 54.3763 50.6938 54.0139 50.6685 53.7021C50.6517 53.3818 50.6432 52.9351 50.6432 52.362V51.7678C50.6432 50.9503 50.698 50.3013 50.8076 49.8209C50.9256 49.3405 51.1616 48.9233 51.5155 48.5694C52.1561 47.9288 52.9441 47.6086 53.8796 47.6086C54.8236 47.6086 55.6158 47.9288 56.2563 48.5694C56.8379 49.1593 57.1286 50.1538 57.1286 51.5529ZM55.7507 52.0965C55.7507 51.3043 55.7212 50.7185 55.6622 50.3393C55.6032 49.9516 55.4557 49.6355 55.2197 49.3911C54.8657 49.0203 54.419 48.8348 53.8796 48.8348C53.3402 48.8348 52.8935 49.0203 52.5396 49.3911C52.3794 49.5597 52.2572 49.7872 52.1729 50.0738C52.0971 50.3519 52.0507 50.6174 52.0339 50.8702C52.0254 51.1146 52.0212 51.477 52.0212 51.9574V52.7286C52.0212 53.2933 52.0507 53.7568 52.1097 54.1193C52.1771 54.4732 52.3204 54.7598 52.5396 54.9789C52.9104 55.3498 53.3571 55.5352 53.8796 55.5352C54.4274 55.5352 54.8741 55.3498 55.2197 54.9789C55.3882 54.8019 55.5105 54.5702 55.5863 54.2836C55.6706 53.997 55.7169 53.7189 55.7254 53.4492C55.7422 53.1711 55.7507 52.7202 55.7507 52.0965ZM64.8841 48.9107H60.7122V56.6856H59.3469V47.6844H64.8841V48.9107ZM72.3323 51.5529V52.3114C72.3323 52.9351 72.3197 53.4071 72.2944 53.7273C72.2775 54.0392 72.2017 54.3932 72.0668 54.7893C71.932 55.1854 71.7297 55.5225 71.46 55.8007C70.8363 56.4412 70.0441 56.7615 69.0833 56.7615C68.1309 56.7615 67.3429 56.4412 66.7192 55.8007C66.4495 55.531 66.2472 55.1938 66.1124 54.7893C65.9775 54.3763 65.8975 54.0139 65.8722 53.7021C65.8553 53.3818 65.8469 52.9351 65.8469 52.362V51.7678C65.8469 50.9503 65.9017 50.3013 66.0112 49.8209C66.1292 49.3405 66.3652 48.9233 66.7192 48.5694C67.3597 47.9288 68.1478 47.6086 69.0833 47.6086C70.0272 47.6086 70.8195 47.9288 71.46 48.5694C72.0415 49.1593 72.3323 50.1538 72.3323 51.5529ZM70.9543 52.0965C70.9543 51.3043 70.9248 50.7185 70.8658 50.3393C70.8068 49.9516 70.6593 49.6355 70.4233 49.3911C70.0694 49.0203 69.6227 48.8348 69.0833 48.8348C68.5439 48.8348 68.0972 49.0203 67.7432 49.3911C67.5831 49.5597 67.4609 49.7872 67.3766 50.0738C67.3007 50.3519 67.2544 50.6174 67.2375 50.8702C67.2291 51.1146 67.2249 51.477 67.2249 51.9574V52.7286C67.2249 53.2933 67.2544 53.7568 67.3134 54.1193C67.3808 54.4732 67.5241 54.7598 67.7432 54.9789C68.114 55.3498 68.5607 55.5352 69.0833 55.5352C69.6311 55.5352 70.0778 55.3498 70.4233 54.9789C70.5919 54.8019 70.7141 54.5702 70.79 54.2836C70.8742 53.997 70.9206 53.7189 70.929 53.4492C70.9459 53.1711 70.9543 52.7202 70.9543 52.0965ZM79.0541 56.6856H77.6887V47.6844H79.0541V51.9574L82.4169 47.6844H84.0983L80.6343 51.9322L84.4143 56.6856H82.6824L79.0541 51.9827V56.6856ZM92.3033 56.6856H90.938V50.1496L86.9051 56.6856H85.6662V47.6844H87.0316V54.2077L91.0518 47.6844H92.3033V56.6856ZM104.983 56.6856H94.7804V47.6844H96.1458V55.4593H99.1925V47.6844H100.571V55.4593H103.605V47.6844H104.983V56.6856ZM113.215 56.6856H107.45V47.6844H113.215V48.9107H108.816V51.5403H112.558V52.7539H108.816V55.4593H113.215V56.6856ZM121.022 56.6856H119.657V53.1585C118.662 53.3523 117.857 53.4492 117.242 53.4492C116.585 53.4492 116.028 53.268 115.573 52.9056C115.127 52.5348 114.903 51.9785 114.903 51.2368V47.6844H116.281V50.9081C116.281 51.7847 116.741 52.2229 117.659 52.2229C118.215 52.2229 118.881 52.1387 119.657 51.9701V47.6844H121.022V56.6856ZM129.89 56.6856H128.512V52.7539H124.871V56.6856H123.506V47.6844H124.871V51.5403H128.512V47.6844H129.89V56.6856ZM138.998 56.6856H137.632V50.1496L133.6 56.6856H132.361V47.6844H133.726V54.2077L137.746 47.6844H138.998V56.6856ZM142.878 56.6856H141.513V47.6844H142.878V51.9574L146.241 47.6844H147.922L144.458 51.9322L148.238 56.6856H146.506L142.878 51.9827V56.6856ZM156.102 56.6856H154.674L154.041 54.8778H150.489L149.857 56.6856H148.416L151.715 47.6844H152.815L156.102 56.6856ZM153.675 53.7147L152.297 49.7198L150.881 53.7147H153.675ZM168.621 56.6856H167.243V50.6679L165.169 55.0548H164.158L162.047 50.6679V56.6856H160.682V47.6844H162.034L164.664 53.2849L167.255 47.6844H168.621V56.6856ZM177.704 56.6856H176.275L175.643 54.8778H172.091L171.459 56.6856H170.017L173.317 47.6844H174.417L177.704 56.6856ZM175.277 53.7147L173.899 49.7198L172.483 53.7147H175.277ZM185.365 56.6856H184V48.9107H181.408V51.7552C181.408 53.5841 181.189 54.8651 180.751 55.5984C180.321 56.3232 179.634 56.6856 178.69 56.6856H178.121V55.4593H178.361C178.631 55.4593 178.863 55.4088 179.057 55.3076C179.25 55.198 179.427 55.0084 179.588 54.7387C179.756 54.469 179.878 54.0729 179.954 53.5504C180.038 53.0194 180.081 52.3578 180.081 51.5655V47.6844H185.365V56.6856ZM196.612 56.6856H195.247V47.6844H196.612V56.6856ZM193.376 51.9827C193.898 52.4884 194.16 53.1458 194.16 53.9549C194.16 54.764 193.894 55.4214 193.363 55.9271C192.841 56.4328 192.154 56.6856 191.303 56.6856H187.851V47.6844H189.217V51.2242H191.303C192.162 51.2242 192.853 51.477 193.376 51.9827ZM192.782 53.9549C192.782 53.4914 192.638 53.1247 192.352 52.855C192.074 52.5853 191.686 52.4505 191.189 52.4505H189.217V55.4593H191.189C191.686 55.4593 192.074 55.3287 192.352 55.0674C192.638 54.7977 192.782 54.4269 192.782 53.9549ZM209.291 56.6856H199.089V47.6844H200.454V55.4593H203.501V47.6844H204.879V55.4593H207.913V47.6844H209.291V56.6856ZM217.524 56.6856H211.759V47.6844H217.524V48.9107H213.124V51.5403H216.866V52.7539H213.124V55.4593H217.524V56.6856ZM224.774 45.4594C224.741 46.0494 224.547 46.4792 224.193 46.7489C223.839 47.0186 223.384 47.1534 222.827 47.1534C222.271 47.1534 221.816 47.0186 221.462 46.7489C221.108 46.4792 220.914 46.0494 220.881 45.4594H221.905C221.955 46.0325 222.263 46.3191 222.827 46.3191C223.392 46.3191 223.7 46.0325 223.75 45.4594H224.774ZM226.14 56.6856H224.774V50.1496L220.741 56.6856H219.503V47.6844H220.868V54.2077L224.888 47.6844H226.14V56.6856Z" fill="#00D2F2"/>
</svg>
