<svg width="258" height="74" viewBox="0 0 258 74" fill="none" xmlns="http://www.w3.org/2000/svg">
<rect width="257.247" height="74" rx="37" fill="#00D2F2"/>
<path d="M210.249 41.5398H207.207L206.453 37.8738H202.163L201.435 41.5398H198.367L202.917 23.0278H205.751L210.249 41.5398ZM205.907 35.2478L204.321 27.4998L202.735 35.2478H205.907Z" fill="white"/>
<path d="M197.464 41.5398H194.552V25.6538H191.614V33.6358C191.614 40.7598 189.508 41.5398 186.908 41.5398H186.05V38.9138H186.31C187.636 38.9138 188.806 38.5498 188.806 33.2978V23.0278H197.464V41.5398Z" fill="white"/>
<path d="M177.855 41.5398H175.281V23.0278H178.193V34.3638L182.327 23.0278H184.927V41.5398H182.015V30.2038L177.855 41.5398Z" fill="white"/>
<path d="M173.235 36.2358C173.235 38.4198 172.923 39.4598 172.039 40.3698C171.259 41.1498 170.141 41.5398 168.399 41.5398H163.797V23.0278H168.425C170.141 23.0278 171.259 23.3918 172.013 24.1718C172.871 25.0298 173.183 25.9658 173.183 27.9678C173.183 29.2938 172.975 30.3078 172.117 31.1918C171.857 31.4518 171.545 31.6858 171.155 31.8418C171.545 32.0238 171.909 32.2578 172.169 32.5178C173.027 33.4018 173.235 34.5198 173.235 36.2358ZM170.323 36.0278C170.323 33.9738 169.673 33.1418 168.113 33.1418H166.709V38.9138H168.113C169.673 38.9138 170.323 38.1858 170.323 36.0278ZM170.271 28.1498C170.271 26.3298 169.673 25.6538 168.165 25.6538H166.709V30.6718H168.165C169.673 30.6718 170.271 29.9178 170.271 28.1498Z" fill="white"/>
<path d="M162.867 41.5398H159.825L159.071 37.8738H154.781L154.053 41.5398H150.985L155.535 23.0278H158.369L162.867 41.5398ZM158.525 35.2478L156.939 27.4998L155.353 35.2478H158.525Z" fill="white"/>
<path d="M151.994 28.6698C151.994 32.5438 150.59 34.2858 147.236 34.2858H145.494V41.5398H142.582V23.0278H147.236C150.59 23.0278 151.994 24.7958 151.994 28.6698ZM149.082 28.6698C149.082 26.7978 148.692 25.6538 147.132 25.6538H145.494V31.6598H147.132C148.692 31.6598 149.082 30.5418 149.082 28.6698Z" fill="white"/>
<path d="M140.232 41.5398H137.32V25.6538H133.68V41.5398H130.768V23.0278H140.232V41.5398Z" fill="white"/>
<path d="M125.172 41.5398H117.398V23.0278H125.172V25.6538H120.31V30.9058H124.496V33.5318H120.31V38.9138H125.172V41.5398Z" fill="white"/>
<path d="M110.579 35.8978C110.579 39.7718 109.175 41.5398 105.821 41.5398H101.167V23.0278H104.079V30.2818H105.821C109.175 30.2818 110.579 32.0238 110.579 35.8978ZM107.667 35.8978C107.667 34.0258 107.277 32.9078 105.717 32.9078H104.079V38.9138H105.717C107.277 38.9138 107.667 37.7698 107.667 35.8978ZM115.077 41.5398H112.165V23.0278H115.077V41.5398Z" fill="white"/>
<path d="M99.8517 25.6538H96.7317V41.5398H93.8197V25.6538H90.7257V23.0278H99.8517V25.6538Z" fill="white"/>
<path d="M90.3481 36.6258C90.2961 38.2898 89.7501 39.7198 88.8141 40.5778C87.9821 41.3578 87.0201 41.7478 85.6161 41.7478C83.9001 41.7478 82.7821 41.0718 82.0281 40.1618C80.8061 38.7058 80.6761 36.6778 80.6761 32.2838C80.6761 27.8898 80.8061 25.8618 82.0281 24.4058C82.7821 23.4958 83.9001 22.8198 85.6161 22.8198C87.0201 22.8198 88.0341 23.2358 88.8661 24.0158C89.8021 24.8738 90.2961 26.2778 90.3481 27.9158H87.4361C87.4101 27.2398 87.3061 26.5638 86.9941 26.1218C86.7341 25.7058 86.3181 25.4458 85.6161 25.4458C84.9141 25.4458 84.4981 25.7318 84.2381 26.1478C83.6661 27.0318 83.5881 28.9038 83.5881 32.2838C83.5881 35.6638 83.6661 37.5358 84.2381 38.4198C84.4981 38.8358 84.9141 39.1218 85.6161 39.1218C86.3181 39.1218 86.7341 38.8618 86.9941 38.4458C87.3061 37.9778 87.4101 37.3018 87.4361 36.6258H90.3481Z" fill="white"/>
<path d="M79.3263 32.2838C79.3263 36.6778 79.2223 38.7058 77.9743 40.1618C77.2203 41.0718 76.1023 41.7478 74.3863 41.7478C72.6703 41.7478 71.5523 41.0718 70.7983 40.1618C69.5763 38.6798 69.4463 36.6778 69.4463 32.2838C69.4463 27.8898 69.5763 25.8878 70.7983 24.4058C71.5523 23.4958 72.6703 22.8198 74.3863 22.8198C76.1023 22.8198 77.2203 23.4958 77.9743 24.4058C79.2223 25.8618 79.3263 27.8898 79.3263 32.2838ZM76.4143 32.2838C76.4143 28.9038 76.3363 27.0318 75.7903 26.1478C75.5303 25.7318 75.0883 25.4458 74.3863 25.4458C73.6843 25.4458 73.2683 25.7318 73.0083 26.1478C72.4623 27.0318 72.3583 28.9038 72.3583 32.2838C72.3583 35.6638 72.4623 37.5358 73.0083 38.4198C73.2683 38.8358 73.6843 39.1218 74.3863 39.1218C75.0883 39.1218 75.5303 38.8358 75.7903 38.4198C76.3363 37.5358 76.4143 35.6638 76.4143 32.2838Z" fill="white"/>
<path d="M68.2241 28.6698C68.2241 32.5438 66.8201 34.2858 63.4661 34.2858H61.7241V41.5398H58.8121V23.0278H63.4661C66.8201 23.0278 68.2241 24.7958 68.2241 28.6698ZM65.3121 28.6698C65.3121 26.7978 64.9221 25.6538 63.3621 25.6538H61.7241V31.6598H63.3621C64.9221 31.6598 65.3121 30.5418 65.3121 28.6698Z" fill="white"/>
<path d="M56.4617 41.5398H53.5497V25.6538H49.9097V41.5398H46.9977V23.0278H56.4617V41.5398Z" fill="white"/>
<path d="M210.275 41.748C210.251 42.168 210.113 42.474 209.861 42.666C209.609 42.858 209.285 42.954 208.889 42.954C208.493 42.954 208.169 42.858 207.917 42.666C207.665 42.474 207.527 42.168 207.503 41.748H208.232C208.268 42.156 208.487 42.36 208.889 42.36C209.291 42.36 209.51 42.156 209.546 41.748H210.275ZM211.247 49.74H210.275V45.087L207.404 49.74H206.522V43.332H207.494V47.976L210.356 43.332H211.247V49.74Z" fill="white"/>
<path d="M204.933 49.74H200.829V43.332H204.933V44.205H201.801V46.077H204.465V46.941H201.801V48.867H204.933V49.74Z" fill="white"/>
<path d="M198.892 49.74H191.629V43.332H192.601V48.867H194.77V43.332H195.751V48.867H197.911V43.332H198.892V49.74Z" fill="white"/>
<path d="M189.686 49.74H188.714V43.332H189.686V49.74ZM187.382 46.392C187.754 46.752 187.94 47.22 187.94 47.796C187.94 48.372 187.751 48.84 187.373 49.2C187.001 49.56 186.512 49.74 185.906 49.74H183.449V43.332H184.421V45.852H185.906C186.518 45.852 187.01 46.032 187.382 46.392ZM186.959 47.796C186.959 47.466 186.857 47.205 186.653 47.013C186.455 46.821 186.179 46.725 185.825 46.725H184.421V48.867H185.825C186.179 48.867 186.455 48.774 186.653 48.588C186.857 48.396 186.959 48.132 186.959 47.796Z" fill="white"/>
<path d="M181.499 49.74H180.527V44.205H178.682V46.23C178.682 47.532 178.526 48.444 178.214 48.966C177.908 49.482 177.419 49.74 176.747 49.74H176.342V48.867H176.513C176.705 48.867 176.87 48.831 177.008 48.759C177.146 48.681 177.272 48.546 177.386 48.354C177.506 48.162 177.593 47.88 177.647 47.508C177.707 47.13 177.737 46.659 177.737 46.095V43.332H181.499V49.74Z" fill="white"/>
<path d="M175.865 49.74H174.848L174.398 48.453H171.869L171.419 49.74H170.393L172.742 43.332H173.525L175.865 49.74ZM174.137 47.625L173.156 44.781L172.148 47.625H174.137Z" fill="white"/>
<path d="M169.219 49.74H168.238V45.456L166.762 48.579H166.042L164.539 45.456V49.74H163.567V43.332H164.53L166.402 47.319L168.247 43.332H169.219V49.74Z" fill="white"/>
<path d="M159.947 49.74H158.93L158.48 48.453H155.951L155.501 49.74H154.475L156.824 43.332H157.607L159.947 49.74ZM158.219 47.625L157.238 44.781L156.23 47.625H158.219Z" fill="white"/>
<path d="M150.353 49.74H149.381V43.332H150.353V46.374L152.747 43.332H153.944L151.478 46.356L154.169 49.74H152.936L150.353 46.392V49.74Z" fill="white"/>
<path d="M147.41 49.74H146.438V45.087L143.567 49.74H142.685V43.332H143.657V47.976L146.519 43.332H147.41V49.74Z" fill="white"/>
<path d="M140.746 49.74H139.765V46.941H137.173V49.74H136.201V43.332H137.173V46.077H139.765V43.332H140.746V49.74Z" fill="white"/>
<path d="M134.253 49.74H133.281V47.229C132.573 47.367 132 47.436 131.562 47.436C131.094 47.436 130.698 47.307 130.374 47.049C130.056 46.785 129.897 46.389 129.897 45.861V43.332H130.878V45.627C130.878 46.251 131.205 46.563 131.859 46.563C132.255 46.563 132.729 46.503 133.281 46.383V43.332H134.253V49.74Z" fill="white"/>
<path d="M128.515 49.74H124.411V43.332H128.515V44.205H125.383V46.077H128.047V46.941H125.383V48.867H128.515V49.74Z" fill="white"/>
<path d="M122.475 49.74H115.212V43.332H116.184V48.867H118.353V43.332H119.334V48.867H121.494V43.332H122.475V49.74Z" fill="white"/>
<path d="M113.268 49.74H112.296V45.087L109.425 49.74H108.543V43.332H109.515V47.976L112.377 43.332H113.268V49.74Z" fill="white"/>
<path d="M103.656 49.74H102.684V43.332H103.656V46.374L106.05 43.332H107.247L104.781 46.356L107.472 49.74H106.239L103.656 46.392V49.74Z" fill="white"/>
<path d="M98.5107 46.0858V46.6258C98.5107 47.0698 98.5017 47.4058 98.4837 47.6338C98.4717 47.8558 98.4177 48.1078 98.3217 48.3898C98.2257 48.6718 98.0817 48.9118 97.8897 49.1098C97.4457 49.5658 96.8817 49.7938 96.1977 49.7938C95.5197 49.7938 94.9587 49.5658 94.5147 49.1098C94.3227 48.9178 94.1787 48.6778 94.0827 48.3898C93.9867 48.0958 93.9297 47.8378 93.9117 47.6158C93.8997 47.3878 93.8937 47.0698 93.8937 46.6618V46.2388C93.8937 45.6568 93.9327 45.1948 94.0107 44.8528C94.0947 44.5108 94.2627 44.2138 94.5147 43.9618C94.9707 43.5058 95.5317 43.2778 96.1977 43.2778C96.8697 43.2778 97.4337 43.5058 97.8897 43.9618C98.3037 44.3818 98.5107 45.0898 98.5107 46.0858ZM97.5297 46.4728C97.5297 45.9088 97.5087 45.4918 97.4667 45.2218C97.4247 44.9458 97.3197 44.7208 97.1517 44.5468C96.8997 44.2828 96.5817 44.1508 96.1977 44.1508C95.8137 44.1508 95.4957 44.2828 95.2437 44.5468C95.1297 44.6668 95.0427 44.8288 94.9827 45.0328C94.9287 45.2308 94.8957 45.4198 94.8837 45.5998C94.8777 45.7738 94.8747 46.0318 94.8747 46.3738V46.9228C94.8747 47.3248 94.8957 47.6548 94.9377 47.9128C94.9857 48.1648 95.0877 48.3688 95.2437 48.5248C95.5077 48.7888 95.8257 48.9208 96.1977 48.9208C96.5877 48.9208 96.9057 48.7888 97.1517 48.5248C97.2717 48.3988 97.3587 48.2338 97.4127 48.0298C97.4727 47.8258 97.5057 47.6278 97.5117 47.4358C97.5237 47.2378 97.5297 46.9168 97.5297 46.4728Z" fill="white"/>
<path d="M93.0283 44.205H90.0583V49.74H89.0863V43.332H93.0283V44.205Z" fill="white"/>
<path d="M87.3271 46.0858V46.6258C87.3271 47.0698 87.3181 47.4058 87.3001 47.6338C87.2881 47.8558 87.2341 48.1078 87.1381 48.3898C87.0421 48.6718 86.8981 48.9118 86.7061 49.1098C86.2621 49.5658 85.6981 49.7938 85.0141 49.7938C84.3361 49.7938 83.7751 49.5658 83.3311 49.1098C83.1391 48.9178 82.9951 48.6778 82.8991 48.3898C82.8031 48.0958 82.7461 47.8378 82.7281 47.6158C82.7161 47.3878 82.7101 47.0698 82.7101 46.6618V46.2388C82.7101 45.6568 82.7491 45.1948 82.8271 44.8528C82.9111 44.5108 83.0791 44.2138 83.3311 43.9618C83.7871 43.5058 84.3481 43.2778 85.0141 43.2778C85.6861 43.2778 86.2501 43.5058 86.7061 43.9618C87.1201 44.3818 87.3271 45.0898 87.3271 46.0858ZM86.3461 46.4728C86.3461 45.9088 86.3251 45.4918 86.2831 45.2218C86.2411 44.9458 86.1361 44.7208 85.9681 44.5468C85.7161 44.2828 85.3981 44.1508 85.0141 44.1508C84.6301 44.1508 84.3121 44.2828 84.0601 44.5468C83.9461 44.6668 83.8591 44.8288 83.7991 45.0328C83.7451 45.2308 83.7121 45.4198 83.7001 45.5998C83.6941 45.7738 83.6911 46.0318 83.6911 46.3738V46.9228C83.6911 47.3248 83.7121 47.6548 83.7541 47.9128C83.8021 48.1648 83.9041 48.3688 84.0601 48.5248C84.3241 48.7888 84.6421 48.9208 85.0141 48.9208C85.4041 48.9208 85.7221 48.7888 85.9681 48.5248C86.0881 48.3988 86.1751 48.2338 86.2291 48.0298C86.2891 47.8258 86.3221 47.6278 86.3281 47.4358C86.3401 47.2378 86.3461 46.9168 86.3461 46.4728Z" fill="white"/>
<path d="M81.2334 47.94C81.2334 48.492 81.0594 48.93 80.7114 49.254C80.3694 49.578 79.8984 49.74 79.2984 49.74H76.7064V43.332H79.1994C79.7814 43.332 80.2494 43.491 80.6034 43.809C80.9574 44.121 81.1344 44.538 81.1344 45.06C81.1344 45.708 80.8464 46.173 80.2704 46.455C80.9124 46.755 81.2334 47.25 81.2334 47.94ZM79.8834 45.798C80.0694 45.636 80.1624 45.411 80.1624 45.123C80.1624 44.835 80.0694 44.61 79.8834 44.448C79.6974 44.286 79.4424 44.205 79.1184 44.205H77.6784V46.041H79.1184C79.4424 46.041 79.6974 45.96 79.8834 45.798ZM79.9644 48.606C80.1564 48.426 80.2524 48.186 80.2524 47.886C80.2524 47.586 80.1564 47.349 79.9644 47.175C79.7784 47.001 79.5234 46.914 79.1994 46.914H77.6784V48.867H79.1994C79.5234 48.867 79.7784 48.78 79.9644 48.606Z" fill="white"/>
<path d="M74.9922 46.0858V46.6258C74.9922 47.0698 74.9832 47.4058 74.9652 47.6338C74.9532 47.8558 74.8992 48.1078 74.8032 48.3898C74.7072 48.6718 74.5632 48.9118 74.3712 49.1098C73.9272 49.5658 73.3632 49.7938 72.6792 49.7938C72.0012 49.7938 71.4402 49.5658 70.9962 49.1098C70.8042 48.9178 70.6602 48.6778 70.5642 48.3898C70.4682 48.0958 70.4112 47.8378 70.3932 47.6158C70.3812 47.3878 70.3752 47.0698 70.3752 46.6618V46.2388C70.3752 45.6568 70.4142 45.1948 70.4922 44.8528C70.5762 44.5108 70.7442 44.2138 70.9962 43.9618C71.4522 43.5058 72.0132 43.2778 72.6792 43.2778C73.3512 43.2778 73.9152 43.5058 74.3712 43.9618C74.7852 44.3818 74.9922 45.0898 74.9922 46.0858ZM74.0112 46.4728C74.0112 45.9088 73.9902 45.4918 73.9482 45.2218C73.9062 44.9458 73.8012 44.7208 73.6332 44.5468C73.3812 44.2828 73.0632 44.1508 72.6792 44.1508C72.2952 44.1508 71.9772 44.2828 71.7252 44.5468C71.6112 44.6668 71.5242 44.8288 71.4642 45.0328C71.4102 45.2308 71.3772 45.4198 71.3652 45.5998C71.3592 45.7738 71.3562 46.0318 71.3562 46.3738V46.9228C71.3562 47.3248 71.3772 47.6548 71.4192 47.9128C71.4672 48.1648 71.5692 48.3688 71.7252 48.5248C71.9892 48.7888 72.3072 48.9208 72.6792 48.9208C73.0692 48.9208 73.3872 48.7888 73.6332 48.5248C73.7532 48.3988 73.8402 48.2338 73.8942 48.0298C73.9542 47.8258 73.9872 47.6278 73.9932 47.4358C74.0052 47.2378 74.0112 46.9168 74.0112 46.4728Z" fill="white"/>
<path d="M68.5851 43.872C68.9691 44.232 69.1611 44.7 69.1611 45.276C69.1611 45.852 68.9691 46.32 68.5851 46.68C68.2071 47.04 67.7151 47.22 67.1091 47.22H65.6511V49.74H64.6791V43.332H67.1091C67.7151 43.332 68.2071 43.512 68.5851 43.872ZM67.8741 46.059C68.0841 45.867 68.1891 45.606 68.1891 45.276C68.1891 44.946 68.0871 44.685 67.8831 44.493C67.6791 44.301 67.4001 44.205 67.0461 44.205H65.6511V46.347H67.0461C67.3941 46.347 67.6701 46.251 67.8741 46.059Z" fill="white"/>
<path d="M62.9649 46.0858V46.6258C62.9649 47.0698 62.9559 47.4058 62.9379 47.6338C62.9259 47.8558 62.8719 48.1078 62.7759 48.3898C62.6799 48.6718 62.5359 48.9118 62.3439 49.1098C61.8999 49.5658 61.3359 49.7938 60.6519 49.7938C59.9739 49.7938 59.4129 49.5658 58.9689 49.1098C58.7769 48.9178 58.6329 48.6778 58.5369 48.3898C58.4409 48.0958 58.3839 47.8378 58.3659 47.6158C58.3539 47.3878 58.3479 47.0698 58.3479 46.6618V46.2388C58.3479 45.6568 58.3869 45.1948 58.4649 44.8528C58.5489 44.5108 58.7169 44.2138 58.9689 43.9618C59.4249 43.5058 59.9859 43.2778 60.6519 43.2778C61.3239 43.2778 61.8879 43.5058 62.3439 43.9618C62.7579 44.3818 62.9649 45.0898 62.9649 46.0858ZM61.9839 46.4728C61.9839 45.9088 61.9629 45.4918 61.9209 45.2218C61.8789 44.9458 61.7739 44.7208 61.6059 44.5468C61.3539 44.2828 61.0359 44.1508 60.6519 44.1508C60.2679 44.1508 59.9499 44.2828 59.6979 44.5468C59.5839 44.6668 59.4969 44.8288 59.4369 45.0328C59.3829 45.2308 59.3499 45.4198 59.3379 45.5998C59.3319 45.7738 59.3289 46.0318 59.3289 46.3738V46.9228C59.3289 47.3248 59.3499 47.6548 59.3919 47.9128C59.4399 48.1648 59.5419 48.3688 59.6979 48.5248C59.9619 48.7888 60.2799 48.9208 60.6519 48.9208C61.0419 48.9208 61.3599 48.7888 61.6059 48.5248C61.7259 48.3988 61.8129 48.2338 61.8669 48.0298C61.9269 47.8258 61.9599 47.6278 61.9659 47.4358C61.9779 47.2378 61.9839 46.9168 61.9839 46.4728Z" fill="white"/>
<path d="M53.6572 44.205V45.636C53.6572 46.998 53.4472 48.075 53.0272 48.867H55.4392V44.205H53.6572ZM52.7212 43.332H56.4112V48.867H57.1672V51.18H56.2132V49.74H52.3252V51.18H51.3802V48.867H51.9382C52.4602 48.057 52.7212 46.842 52.7212 45.222V43.332Z" fill="white"/>
<path d="M48.259 49.7938C47.677 49.7938 47.182 49.6228 46.774 49.2808C46.366 48.9388 46.108 48.4588 46 47.8408H46.972C47.05 48.1768 47.2 48.4438 47.422 48.6418C47.65 48.8398 47.935 48.9388 48.277 48.9388C48.637 48.9388 48.928 48.8458 49.15 48.6598C49.378 48.4678 49.492 48.2128 49.492 47.8948C49.492 47.5588 49.393 47.3038 49.195 47.1298C49.003 46.9558 48.724 46.8688 48.358 46.8688H47.539V46.0588H48.376C48.7 46.0588 48.949 45.9748 49.123 45.8068C49.303 45.6328 49.393 45.3898 49.393 45.0778C49.393 44.7778 49.294 44.5438 49.096 44.3758C48.898 44.2078 48.628 44.1238 48.286 44.1238C47.944 44.1238 47.662 44.2258 47.44 44.4298C47.218 44.6278 47.068 44.8948 46.99 45.2308H46.009C46.117 44.6128 46.375 44.1328 46.783 43.7908C47.197 43.4488 47.701 43.2778 48.295 43.2778C48.901 43.2778 49.399 43.4368 49.789 43.7548C50.179 44.0728 50.374 44.4928 50.374 45.0148C50.374 45.6748 50.08 46.1458 49.492 46.4278C50.146 46.6918 50.473 47.1928 50.473 47.9308C50.473 48.4888 50.263 48.9388 49.843 49.2808C49.429 49.6228 48.901 49.7938 48.259 49.7938Z" fill="white"/>
</svg>
