<svg width="258" height="74" viewBox="0 0 258 74" fill="none" xmlns="http://www.w3.org/2000/svg">
<rect width="258" height="74" rx="37" fill="#00D2F2"/>
<path d="M211.785 37.9993H208.743L207.989 34.3333H203.699L202.971 37.9993H199.903L204.453 19.4873H207.287L211.785 37.9993ZM207.443 31.7073L205.857 23.9593L204.271 31.7073H207.443Z" fill="white"/>
<path d="M199.001 37.9993H196.089V22.1133H193.151V30.0953C193.151 37.2193 191.045 37.9993 188.445 37.9993H187.587V35.3733H187.847C189.173 35.3733 190.343 35.0093 190.343 29.7573V19.4873H199.001V37.9993Z" fill="white"/>
<path d="M179.391 37.9993H176.817V19.4873H179.729V30.8233L183.863 19.4873H186.463V37.9993H183.551V26.6633L179.391 37.9993Z" fill="white"/>
<path d="M174.771 32.6953C174.771 34.8793 174.459 35.9193 173.575 36.8293C172.795 37.6093 171.677 37.9993 169.935 37.9993H165.333V19.4873H169.961C171.677 19.4873 172.795 19.8513 173.549 20.6313C174.407 21.4893 174.719 22.4253 174.719 24.4273C174.719 25.7533 174.511 26.7673 173.653 27.6513C173.393 27.9113 173.081 28.1453 172.691 28.3013C173.081 28.4833 173.445 28.7173 173.705 28.9773C174.563 29.8613 174.771 30.9793 174.771 32.6953ZM171.859 32.4873C171.859 30.4333 171.209 29.6013 169.649 29.6013H168.245V35.3733H169.649C171.209 35.3733 171.859 34.6453 171.859 32.4873ZM171.807 24.6093C171.807 22.7893 171.209 22.1133 169.701 22.1133H168.245V27.1313H169.701C171.209 27.1313 171.807 26.3773 171.807 24.6093Z" fill="white"/>
<path d="M164.403 37.9993H161.361L160.607 34.3333H156.317L155.589 37.9993H152.521L157.071 19.4873H159.905L164.403 37.9993ZM160.061 31.7073L158.475 23.9593L156.889 31.7073H160.061Z" fill="white"/>
<path d="M153.53 25.1293C153.53 29.0033 152.126 30.7453 148.772 30.7453H147.03V37.9993H144.118V19.4873H148.772C152.126 19.4873 153.53 21.2553 153.53 25.1293ZM150.618 25.1293C150.618 23.2573 150.228 22.1133 148.668 22.1133H147.03V28.1193H148.668C150.228 28.1193 150.618 27.0013 150.618 25.1293Z" fill="white"/>
<path d="M141.768 37.9993H138.856V22.1133H135.216V37.9993H132.304V19.4873H141.768V37.9993Z" fill="white"/>
<path d="M126.709 37.9993H118.935V19.4873H126.709V22.1133H121.847V27.3653H126.033V29.9913H121.847V35.3733H126.709V37.9993Z" fill="white"/>
<path d="M112.115 32.3573C112.115 36.2313 110.711 37.9993 107.357 37.9993H102.703V19.4873H105.615V26.7413H107.357C110.711 26.7413 112.115 28.4833 112.115 32.3573ZM109.203 32.3573C109.203 30.4853 108.813 29.3673 107.253 29.3673H105.615V35.3733H107.253C108.813 35.3733 109.203 34.2293 109.203 32.3573ZM116.613 37.9993H113.701V19.4873H116.613V37.9993Z" fill="white"/>
<path d="M101.388 22.1133H98.2678V37.9993H95.3558V22.1133H92.2618V19.4873H101.388V22.1133Z" fill="white"/>
<path d="M91.8842 33.0853C91.8322 34.7493 91.2862 36.1793 90.3502 37.0373C89.5182 37.8173 88.5562 38.2073 87.1522 38.2073C85.4362 38.2073 84.3182 37.5313 83.5642 36.6213C82.3422 35.1653 82.2122 33.1373 82.2122 28.7433C82.2122 24.3493 82.3422 22.3213 83.5642 20.8653C84.3182 19.9553 85.4362 19.2793 87.1522 19.2793C88.5562 19.2793 89.5702 19.6953 90.4022 20.4753C91.3382 21.3333 91.8322 22.7373 91.8842 24.3753H88.9722C88.9462 23.6993 88.8422 23.0233 88.5302 22.5813C88.2702 22.1653 87.8542 21.9053 87.1522 21.9053C86.4502 21.9053 86.0342 22.1913 85.7742 22.6073C85.2022 23.4913 85.1242 25.3633 85.1242 28.7433C85.1242 32.1233 85.2022 33.9953 85.7742 34.8793C86.0342 35.2953 86.4502 35.5813 87.1522 35.5813C87.8542 35.5813 88.2702 35.3213 88.5302 34.9053C88.8422 34.4373 88.9462 33.7613 88.9722 33.0853H91.8842Z" fill="white"/>
<path d="M80.8624 28.7433C80.8624 33.1373 80.7584 35.1653 79.5104 36.6213C78.7564 37.5313 77.6384 38.2073 75.9224 38.2073C74.2064 38.2073 73.0884 37.5313 72.3344 36.6213C71.1124 35.1393 70.9824 33.1373 70.9824 28.7433C70.9824 24.3493 71.1124 22.3473 72.3344 20.8653C73.0884 19.9553 74.2064 19.2793 75.9224 19.2793C77.6384 19.2793 78.7564 19.9553 79.5104 20.8653C80.7584 22.3213 80.8624 24.3493 80.8624 28.7433ZM77.9504 28.7433C77.9504 25.3633 77.8724 23.4913 77.3264 22.6073C77.0664 22.1913 76.6244 21.9053 75.9224 21.9053C75.2204 21.9053 74.8044 22.1913 74.5444 22.6073C73.9984 23.4913 73.8944 25.3633 73.8944 28.7433C73.8944 32.1233 73.9984 33.9953 74.5444 34.8793C74.8044 35.2953 75.2204 35.5813 75.9224 35.5813C76.6244 35.5813 77.0664 35.2953 77.3264 34.8793C77.8724 33.9953 77.9504 32.1233 77.9504 28.7433Z" fill="white"/>
<path d="M69.7603 25.1293C69.7603 29.0033 68.3563 30.7453 65.0023 30.7453H63.2603V37.9993H60.3483V19.4873H65.0023C68.3563 19.4873 69.7603 21.2553 69.7603 25.1293ZM66.8483 25.1293C66.8483 23.2573 66.4583 22.1133 64.8983 22.1133H63.2603V28.1193H64.8983C66.4583 28.1193 66.8483 27.0013 66.8483 25.1293Z" fill="white"/>
<path d="M57.9979 37.9993H55.0859V22.1133H51.4459V37.9993H48.5339V19.4873H57.9979V37.9993Z" fill="white"/>
<path d="M210.698 46.0073C210.674 46.4273 210.536 46.7333 210.284 46.9253C210.032 47.1173 209.708 47.2133 209.312 47.2133C208.916 47.2133 208.592 47.1173 208.34 46.9253C208.088 46.7333 207.95 46.4273 207.926 46.0073H208.655C208.691 46.4153 208.91 46.6193 209.312 46.6193C209.714 46.6193 209.933 46.4153 209.969 46.0073H210.698ZM211.67 53.9993H210.698V49.3463L207.827 53.9993H206.945V47.5913H207.917V52.2353L210.779 47.5913H211.67V53.9993Z" fill="white"/>
<path d="M205.356 53.9993H201.252V47.5913H205.356V48.4643H202.224V50.3363H204.888V51.2003H202.224V53.1263H205.356V53.9993Z" fill="white"/>
<path d="M199.315 53.9993H192.052V47.5913H193.024V53.1263H195.193V47.5913H196.174V53.1263H198.334V47.5913H199.315V53.9993Z" fill="white"/>
<path d="M190.109 53.9993H189.137V47.5913H190.109V53.9993ZM187.805 50.6513C188.177 51.0113 188.363 51.4793 188.363 52.0553C188.363 52.6313 188.174 53.0993 187.796 53.4593C187.424 53.8193 186.935 53.9993 186.329 53.9993H183.872V47.5913H184.844V50.1113H186.329C186.941 50.1113 187.433 50.2913 187.805 50.6513ZM187.382 52.0553C187.382 51.7253 187.28 51.4643 187.076 51.2723C186.878 51.0803 186.602 50.9843 186.248 50.9843H184.844V53.1263H186.248C186.602 53.1263 186.878 53.0333 187.076 52.8473C187.28 52.6553 187.382 52.3913 187.382 52.0553Z" fill="white"/>
<path d="M181.922 53.9993H180.95V48.4643H179.105V50.4893C179.105 51.7913 178.949 52.7033 178.637 53.2253C178.331 53.7413 177.842 53.9993 177.17 53.9993H176.765V53.1263H176.936C177.128 53.1263 177.293 53.0903 177.431 53.0183C177.569 52.9403 177.695 52.8053 177.809 52.6133C177.929 52.4213 178.016 52.1393 178.07 51.7673C178.13 51.3893 178.16 50.9183 178.16 50.3543V47.5913H181.922V53.9993Z" fill="white"/>
<path d="M176.288 53.9993H175.271L174.821 52.7123H172.292L171.842 53.9993H170.816L173.165 47.5913H173.948L176.288 53.9993ZM174.56 51.8843L173.579 49.0403L172.571 51.8843H174.56Z" fill="white"/>
<path d="M169.642 53.9993H168.661V49.7153L167.185 52.8383H166.465L164.962 49.7153V53.9993H163.99V47.5913H164.953L166.825 51.5783L168.67 47.5913H169.642V53.9993Z" fill="white"/>
<path d="M160.37 53.9993H159.353L158.903 52.7123H156.374L155.924 53.9993H154.898L157.247 47.5913H158.03L160.37 53.9993ZM158.642 51.8843L157.661 49.0403L156.653 51.8843H158.642Z" fill="white"/>
<path d="M150.775 53.9993H149.803V47.5913H150.775V50.6333L153.169 47.5913H154.366L151.9 50.6153L154.591 53.9993H153.358L150.775 50.6513V53.9993Z" fill="white"/>
<path d="M147.833 53.9993H146.861V49.3463L143.99 53.9993H143.108V47.5913H144.08V52.2353L146.942 47.5913H147.833V53.9993Z" fill="white"/>
<path d="M141.169 53.9993H140.188V51.2003H137.596V53.9993H136.624V47.5913H137.596V50.3363H140.188V47.5913H141.169V53.9993Z" fill="white"/>
<path d="M134.676 53.9993H133.704V51.4883C132.996 51.6263 132.423 51.6953 131.985 51.6953C131.517 51.6953 131.121 51.5663 130.797 51.3083C130.479 51.0443 130.32 50.6483 130.32 50.1203V47.5913H131.301V49.8863C131.301 50.5103 131.628 50.8223 132.282 50.8223C132.678 50.8223 133.152 50.7623 133.704 50.6423V47.5913H134.676V53.9993Z" fill="white"/>
<path d="M128.938 53.9993H124.834V47.5913H128.938V48.4643H125.806V50.3363H128.47V51.2003H125.806V53.1263H128.938V53.9993Z" fill="white"/>
<path d="M122.898 53.9993H115.635V47.5913H116.607V53.1263H118.776V47.5913H119.757V53.1263H121.917V47.5913H122.898V53.9993Z" fill="white"/>
<path d="M113.691 53.9993H112.719V49.3463L109.848 53.9993H108.966V47.5913H109.938V52.2353L112.8 47.5913H113.691V53.9993Z" fill="white"/>
<path d="M104.079 53.9993H103.107V47.5913H104.079V50.6333L106.473 47.5913H107.67L105.204 50.6153L107.895 53.9993H106.662L104.079 50.6513V53.9993Z" fill="white"/>
<path d="M98.9336 50.3456V50.8856C98.9336 51.3296 98.9246 51.6656 98.9066 51.8936C98.8946 52.1156 98.8406 52.3676 98.7446 52.6496C98.6486 52.9316 98.5046 53.1716 98.3126 53.3696C97.8686 53.8256 97.3046 54.0536 96.6206 54.0536C95.9426 54.0536 95.3816 53.8256 94.9376 53.3696C94.7456 53.1776 94.6016 52.9376 94.5056 52.6496C94.4096 52.3556 94.3526 52.0976 94.3346 51.8756C94.3226 51.6476 94.3166 51.3296 94.3166 50.9216V50.4986C94.3166 49.9166 94.3556 49.4546 94.4336 49.1126C94.5176 48.7706 94.6856 48.4736 94.9376 48.2216C95.3936 47.7656 95.9546 47.5376 96.6206 47.5376C97.2926 47.5376 97.8566 47.7656 98.3126 48.2216C98.7266 48.6416 98.9336 49.3496 98.9336 50.3456ZM97.9526 50.7326C97.9526 50.1686 97.9316 49.7516 97.8896 49.4816C97.8476 49.2056 97.7426 48.9806 97.5746 48.8066C97.3226 48.5426 97.0046 48.4106 96.6206 48.4106C96.2366 48.4106 95.9186 48.5426 95.6666 48.8066C95.5526 48.9266 95.4656 49.0886 95.4056 49.2926C95.3516 49.4906 95.3186 49.6796 95.3066 49.8596C95.3006 50.0336 95.2976 50.2916 95.2976 50.6336V51.1826C95.2976 51.5846 95.3186 51.9146 95.3606 52.1726C95.4086 52.4246 95.5106 52.6286 95.6666 52.7846C95.9306 53.0486 96.2486 53.1806 96.6206 53.1806C97.0106 53.1806 97.3286 53.0486 97.5746 52.7846C97.6946 52.6586 97.7816 52.4936 97.8356 52.2896C97.8956 52.0856 97.9286 51.8876 97.9346 51.6956C97.9466 51.4976 97.9526 51.1766 97.9526 50.7326Z" fill="white"/>
<path d="M93.4512 48.4643H90.4812V53.9993H89.5092V47.5913H93.4512V48.4643Z" fill="white"/>
<path d="M87.7501 50.3456V50.8856C87.7501 51.3296 87.7411 51.6656 87.7231 51.8936C87.7111 52.1156 87.6571 52.3676 87.5611 52.6496C87.4651 52.9316 87.3211 53.1716 87.1291 53.3696C86.6851 53.8256 86.1211 54.0536 85.4371 54.0536C84.7591 54.0536 84.1981 53.8256 83.7541 53.3696C83.5621 53.1776 83.4181 52.9376 83.3221 52.6496C83.2261 52.3556 83.1691 52.0976 83.1511 51.8756C83.1391 51.6476 83.1331 51.3296 83.1331 50.9216V50.4986C83.1331 49.9166 83.1721 49.4546 83.2501 49.1126C83.3341 48.7706 83.5021 48.4736 83.7541 48.2216C84.2101 47.7656 84.7711 47.5376 85.4371 47.5376C86.1091 47.5376 86.6731 47.7656 87.1291 48.2216C87.5431 48.6416 87.7501 49.3496 87.7501 50.3456ZM86.7691 50.7326C86.7691 50.1686 86.7481 49.7516 86.7061 49.4816C86.6641 49.2056 86.5591 48.9806 86.3911 48.8066C86.1391 48.5426 85.8211 48.4106 85.4371 48.4106C85.0531 48.4106 84.7351 48.5426 84.4831 48.8066C84.3691 48.9266 84.2821 49.0886 84.2221 49.2926C84.1681 49.4906 84.1351 49.6796 84.1231 49.8596C84.1171 50.0336 84.1141 50.2916 84.1141 50.6336V51.1826C84.1141 51.5846 84.1351 51.9146 84.1771 52.1726C84.2251 52.4246 84.3271 52.6286 84.4831 52.7846C84.7471 53.0486 85.0651 53.1806 85.4371 53.1806C85.8271 53.1806 86.1451 53.0486 86.3911 52.7846C86.5111 52.6586 86.5981 52.4936 86.6521 52.2896C86.7121 52.0856 86.7451 51.8876 86.7511 51.6956C86.7631 51.4976 86.7691 51.1766 86.7691 50.7326Z" fill="white"/>
<path d="M81.6563 52.1993C81.6563 52.7513 81.4823 53.1893 81.1343 53.5133C80.7923 53.8373 80.3213 53.9993 79.7213 53.9993H77.1293V47.5913H79.6223C80.2043 47.5913 80.6723 47.7503 81.0263 48.0683C81.3803 48.3803 81.5573 48.7973 81.5573 49.3193C81.5573 49.9673 81.2693 50.4323 80.6933 50.7143C81.3353 51.0143 81.6563 51.5093 81.6563 52.1993ZM80.3063 50.0573C80.4923 49.8953 80.5853 49.6703 80.5853 49.3823C80.5853 49.0943 80.4923 48.8693 80.3063 48.7073C80.1203 48.5453 79.8653 48.4643 79.5413 48.4643H78.1013V50.3003H79.5413C79.8653 50.3003 80.1203 50.2193 80.3063 50.0573ZM80.3873 52.8653C80.5793 52.6853 80.6753 52.4453 80.6753 52.1453C80.6753 51.8453 80.5793 51.6083 80.3873 51.4343C80.2013 51.2603 79.9463 51.1733 79.6223 51.1733H78.1013V53.1263H79.6223C79.9463 53.1263 80.2013 53.0393 80.3873 52.8653Z" fill="white"/>
<path d="M75.4151 50.3456V50.8856C75.4151 51.3296 75.4061 51.6656 75.3881 51.8936C75.3761 52.1156 75.3221 52.3676 75.2261 52.6496C75.1301 52.9316 74.9861 53.1716 74.7941 53.3696C74.3501 53.8256 73.7861 54.0536 73.1021 54.0536C72.4241 54.0536 71.8631 53.8256 71.4191 53.3696C71.2271 53.1776 71.0831 52.9376 70.9871 52.6496C70.8911 52.3556 70.8341 52.0976 70.8161 51.8756C70.8041 51.6476 70.7981 51.3296 70.7981 50.9216V50.4986C70.7981 49.9166 70.8371 49.4546 70.9151 49.1126C70.9991 48.7706 71.1671 48.4736 71.4191 48.2216C71.8751 47.7656 72.4361 47.5376 73.1021 47.5376C73.7741 47.5376 74.3381 47.7656 74.7941 48.2216C75.2081 48.6416 75.4151 49.3496 75.4151 50.3456ZM74.4341 50.7326C74.4341 50.1686 74.4131 49.7516 74.3711 49.4816C74.3291 49.2056 74.2241 48.9806 74.0561 48.8066C73.8041 48.5426 73.4861 48.4106 73.1021 48.4106C72.7181 48.4106 72.4001 48.5426 72.1481 48.8066C72.0341 48.9266 71.9471 49.0886 71.8871 49.2926C71.8331 49.4906 71.8001 49.6796 71.7881 49.8596C71.7821 50.0336 71.7791 50.2916 71.7791 50.6336V51.1826C71.7791 51.5846 71.8001 51.9146 71.8421 52.1726C71.8901 52.4246 71.9921 52.6286 72.1481 52.7846C72.4121 53.0486 72.7301 53.1806 73.1021 53.1806C73.4921 53.1806 73.8101 53.0486 74.0561 52.7846C74.1761 52.6586 74.2631 52.4936 74.3171 52.2896C74.3771 52.0856 74.4101 51.8876 74.4161 51.6956C74.4281 51.4976 74.4341 51.1766 74.4341 50.7326Z" fill="white"/>
<path d="M69.0079 48.1313C69.3919 48.4913 69.5839 48.9593 69.5839 49.5353C69.5839 50.1113 69.3919 50.5793 69.0079 50.9393C68.6299 51.2993 68.1379 51.4793 67.5319 51.4793H66.0739V53.9993H65.1019V47.5913H67.5319C68.1379 47.5913 68.6299 47.7713 69.0079 48.1313ZM68.2969 50.3183C68.5069 50.1263 68.6119 49.8653 68.6119 49.5353C68.6119 49.2053 68.5099 48.9443 68.3059 48.7523C68.1019 48.5603 67.8229 48.4643 67.4689 48.4643H66.0739V50.6063H67.4689C67.8169 50.6063 68.0929 50.5103 68.2969 50.3183Z" fill="white"/>
<path d="M63.3878 50.3456V50.8856C63.3878 51.3296 63.3788 51.6656 63.3608 51.8936C63.3488 52.1156 63.2948 52.3676 63.1988 52.6496C63.1028 52.9316 62.9588 53.1716 62.7668 53.3696C62.3228 53.8256 61.7588 54.0536 61.0748 54.0536C60.3968 54.0536 59.8358 53.8256 59.3918 53.3696C59.1998 53.1776 59.0558 52.9376 58.9598 52.6496C58.8638 52.3556 58.8068 52.0976 58.7888 51.8756C58.7768 51.6476 58.7708 51.3296 58.7708 50.9216V50.4986C58.7708 49.9166 58.8098 49.4546 58.8878 49.1126C58.9718 48.7706 59.1398 48.4736 59.3918 48.2216C59.8478 47.7656 60.4088 47.5376 61.0748 47.5376C61.7468 47.5376 62.3108 47.7656 62.7668 48.2216C63.1808 48.6416 63.3878 49.3496 63.3878 50.3456ZM62.4068 50.7326C62.4068 50.1686 62.3858 49.7516 62.3438 49.4816C62.3018 49.2056 62.1968 48.9806 62.0288 48.8066C61.7768 48.5426 61.4588 48.4106 61.0748 48.4106C60.6908 48.4106 60.3728 48.5426 60.1208 48.8066C60.0068 48.9266 59.9198 49.0886 59.8598 49.2926C59.8058 49.4906 59.7728 49.6796 59.7608 49.8596C59.7548 50.0336 59.7518 50.2916 59.7518 50.6336V51.1826C59.7518 51.5846 59.7728 51.9146 59.8148 52.1726C59.8628 52.4246 59.9648 52.6286 60.1208 52.7846C60.3848 53.0486 60.7028 53.1806 61.0748 53.1806C61.4648 53.1806 61.7828 53.0486 62.0288 52.7846C62.1488 52.6586 62.2358 52.4936 62.2898 52.2896C62.3498 52.0856 62.3828 51.8876 62.3888 51.6956C62.4008 51.4976 62.4068 51.1766 62.4068 50.7326Z" fill="white"/>
<path d="M54.08 48.4643V49.8953C54.08 51.2573 53.87 52.3343 53.45 53.1263H55.862V48.4643H54.08ZM53.144 47.5913H56.834V53.1263H57.59V55.4393H56.636V53.9993H52.748V55.4393H51.803V53.1263H52.361C52.883 52.3163 53.144 51.1013 53.144 49.4813V47.5913Z" fill="white"/>
<path d="M48.6819 54.0536C48.0999 54.0536 47.6049 53.8826 47.1969 53.5406C46.7889 53.1986 46.5309 52.7186 46.4229 52.1006H47.3949C47.4729 52.4366 47.6229 52.7036 47.8449 52.9016C48.0729 53.0996 48.3579 53.1986 48.6999 53.1986C49.0599 53.1986 49.3509 53.1056 49.5729 52.9196C49.8009 52.7276 49.9149 52.4726 49.9149 52.1546C49.9149 51.8186 49.8159 51.5636 49.6179 51.3896C49.4259 51.2156 49.1469 51.1286 48.7809 51.1286H47.9619V50.3186H48.7989C49.1229 50.3186 49.3719 50.2346 49.5459 50.0666C49.7259 49.8926 49.8159 49.6496 49.8159 49.3376C49.8159 49.0376 49.7169 48.8036 49.5189 48.6356C49.3209 48.4676 49.0509 48.3836 48.7089 48.3836C48.3669 48.3836 48.0849 48.4856 47.8629 48.6896C47.6409 48.8876 47.4909 49.1546 47.4129 49.4906H46.4319C46.5399 48.8726 46.7979 48.3926 47.2059 48.0506C47.6199 47.7086 48.1239 47.5376 48.7179 47.5376C49.3239 47.5376 49.8219 47.6966 50.2119 48.0146C50.6019 48.3326 50.7969 48.7526 50.7969 49.2746C50.7969 49.9346 50.5029 50.4056 49.9149 50.6876C50.5689 50.9516 50.8959 51.4526 50.8959 52.1906C50.8959 52.7486 50.6859 53.1986 50.2659 53.5406C49.8519 53.8826 49.3239 54.0536 48.6819 54.0536Z" fill="white"/>
</svg>
