<svg width="212" height="41" viewBox="0 0 212 41" fill="none" xmlns="http://www.w3.org/2000/svg">
<path d="M6.32617 11.6129C5.52434 11.6129 4.72542 11.5731 3.92403 11.5731L3.75772 11.6528C3.52791 11.7997 3.59142 12.1955 3.59142 12.4279C3.59142 12.9444 3.67457 13.4503 3.67457 13.9693V16.4386C3.67457 17.4716 3.59142 18.4989 3.59142 19.5324C3.59142 20.3507 3.51529 21.2072 3.6561 22.0172C3.73542 22.4735 3.81067 22.9389 3.92634 23.388C4.02946 23.7885 4.21872 24.1575 4.38136 24.5374C4.65503 25.1767 5.06363 25.6708 5.46232 26.2338C5.78969 26.6961 6.1865 27.0502 6.55946 27.474C6.87725 27.8351 7.25933 28.1238 7.59192 28.475C7.80004 28.6948 7.99857 28.9331 8.21556 29.1438C8.40942 29.332 8.63123 29.4881 8.78606 29.7108C9.14975 30.2338 9.51945 30.6445 9.33809 31.3053C9.13084 32.0604 8.78333 32.7897 8.33104 33.4402C7.60586 34.4831 6.69337 35.423 5.8596 36.3878C5.45817 36.8523 5.07513 37.3365 4.7232 37.8339C4.50481 38.1427 4.27343 38.4511 4.10881 38.7907C4.02376 38.9661 3.8747 39.2173 3.84781 39.4108C3.82612 39.5667 4.41371 39.7011 4.52687 39.7341C4.93872 39.8543 5.36216 39.8719 5.79493 39.9068C6.98997 40.0032 8.18291 40.0069 9.38429 39.9954C10.8042 39.9818 12.2142 39.6765 13.6319 39.6765C14.8838 39.6765 16.2316 39.3703 17.4153 38.9988C18.7568 38.5779 20.1089 38.2388 21.3858 37.6435C22.8656 36.9536 24.2802 36.2252 25.4463 35.0878C27.0896 33.4851 28.1014 31.253 28.5368 29.0729C29.0325 26.5907 29.2852 24.0602 29.2852 21.5344C29.2852 20.4421 29.2725 19.3395 29.1789 18.2501C29.1432 17.8339 29.0586 17.4276 28.9733 17.0188C28.9431 16.8739 28.9411 16.7513 28.8186 16.6578C28.3637 16.3109 27.7339 16.1573 27.1602 16.1573C26.1077 16.1573 25.0726 16.1876 24.0235 16.2769C23.0766 16.3575 22.1152 16.5494 21.2611 16.9634C20.54 17.313 20.049 18.0592 19.6318 18.6932L19.6188 18.713C18.8686 19.8531 18.2238 21.1061 17.6625 22.3405C17.0592 23.6671 16.4174 24.9758 15.7985 26.2958C14.7018 28.6349 13.6789 31.0381 12.2392 33.2054C11.7674 33.9155 11.3274 34.5974 10.7447 35.2296C10.3372 35.6718 9.9078 36.1365 9.43049 36.5096C9.11721 36.7545 8.79373 36.9835 8.45577 37.1961C8.11075 37.4132 7.76998 37.7225 7.35171 37.7941C7.00994 37.8526 7.27357 37.5695 7.35171 37.4265C7.47953 37.1925 7.67375 37.0027 7.81366 36.7754C8.07221 36.3553 8.38097 35.975 8.66365 35.5684C9.38853 34.5259 10.1912 33.5336 10.8672 32.4613C11.3863 31.6377 11.8324 30.7698 12.2807 29.9101C12.7927 28.9283 13.0854 27.8432 13.2393 26.7609C13.2926 26.3862 13.3581 26.0181 13.4217 25.6447C13.4962 25.2077 13.6011 24.7513 13.6481 24.3115C13.8177 22.726 14.1962 21.2012 14.6944 19.6786C14.8002 19.3553 14.9632 19.08 15.1056 18.7728C15.1933 18.5834 15.2613 18.3535 15.4012 18.1926C15.8051 17.7278 16.2918 17.2952 16.8125 16.9546C17.3404 16.6093 17.9095 16.4363 18.524 16.2791C19.358 16.0659 20.264 15.9828 21.1179 15.8694C23.2414 15.5875 25.5063 14.7212 26.8276 13.0237C27.4566 12.2155 27.8852 11.1258 28.1626 10.1602C28.4832 9.04434 28.5539 7.90611 28.643 6.75852C28.7036 5.97891 28.7157 5.19645 28.7424 4.41546C28.7542 4.07029 28.7524 3.72103 28.7239 3.37681C28.697 3.05174 28.7399 2.71275 28.6846 2.3913C28.6471 2.17325 28.5718 1.92083 28.3266 2.02368C28.0624 2.1345 27.7982 2.23875 27.539 2.36473C26.9841 2.63437 26.4502 2.91877 25.8667 3.13099C25.0911 3.41306 24.2729 3.62542 23.4646 3.7998C21.6922 4.18215 19.9051 4.34444 18.233 5.0732C17.5545 5.36889 16.9926 5.75464 16.4799 6.27352C16.0333 6.72544 15.7601 7.35475 15.4728 7.90569C14.6786 9.42872 14.0003 10.9981 13.662 12.676C13.4829 13.5642 13.2177 14.4312 13.1651 15.3397C13.1583 15.1674 13.1538 14.9949 13.1538 14.8219C13.1538 13.424 12.9733 12.0376 12.7704 10.6562C12.7249 10.3464 12.5503 9.94403 12.6641 9.62866C12.7715 9.33123 12.9584 9.0514 13.0522 8.7406C13.2092 8.22045 13.3139 7.74377 13.2693 7.19701C13.2202 6.59495 13.0336 6.07668 12.7819 5.53384C12.2798 4.45055 11.1881 3.5143 9.99407 3.17085C9.31726 2.97617 8.52396 3.08226 7.82752 3.08226C7.21548 3.08226 6.74446 3.20771 6.22916 3.56062C5.38619 4.13794 4.85493 5.08516 4.52456 6.00555C4.23791 6.80417 4.37646 7.62709 4.75554 8.36411C5.50633 9.82383 6.63399 11.3498 8.49734 11.4491C9.5748 11.5065 10.5735 11.1248 11.5139 10.674C11.7726 10.5499 11.9086 12.6955 11.9158 12.8086L11.9158 12.8088C11.9976 14.0998 12.0053 15.3922 12.0636 16.6844C12.0931 17.339 12.0648 17.9922 12.1144 18.6466C12.1593 19.2388 12.226 19.8309 12.2368 20.4249C12.2613 21.7619 12.3282 23.0927 12.3223 24.4311C12.3174 25.5364 12.2661 26.65 11.8834 27.6999C11.7023 28.197 11.4655 28.6734 11.2852 29.1704C11.2674 29.2194 11.0755 29.8808 10.9757 29.7639C10.834 29.5978 10.8672 29.2542 10.8672 29.0552V26.0611C10.8672 24.8525 10.7738 23.6358 10.7009 22.4291C10.646 21.5226 10.6829 20.6154 10.6177 19.7096C10.5513 18.7868 10.45 17.8759 10.3082 16.9612C10.0874 15.537 10.1095 13.5957 8.98701 12.4811C8.5451 12.0422 7.83344 11.9665 7.25007 11.8344C6.95529 11.7677 6.63148 11.6129 6.32617 11.6129Z" fill="white"/>
<path d="M46.1 21V5.336H49.026V11.716H49.774L51.952 5.336H55.12L52.26 13.168L55.098 21H51.952L49.774 14.62H49.026V21H46.1ZM57.4429 21V5.336H61.6009C64.4389 5.336 65.8909 8.416 65.8909 11.474C65.8909 14.598 64.4609 17.612 61.5789 17.612H60.3689V21H57.4429ZM60.3689 14.708H61.5569C62.5469 14.708 62.9869 13.102 62.9869 11.474C62.9869 9.868 62.5029 8.262 61.4909 8.262H60.3689V14.708ZM66.4397 21L70.2457 5.336H73.1057L76.9337 21H73.9637L73.6337 19.57H69.7177L69.3877 21H66.4397ZM70.3777 16.71H72.9957L71.6757 10.44L70.3777 16.71ZM90.9913 15.632L93.6313 17.018C92.2453 19.702 89.4733 21.528 86.1953 21.528C81.5973 21.528 77.8353 17.788 77.8353 13.146C77.8353 8.57 81.5973 4.808 86.1953 4.808C89.4513 4.808 92.2673 6.656 93.6313 9.34L90.9913 10.682C90.1113 8.966 88.3073 7.778 86.1953 7.778C83.2473 7.778 80.8053 10.198 80.8053 13.146C80.8053 16.138 83.2473 18.58 86.1953 18.58C88.3073 18.58 90.0893 17.37 90.9913 15.632ZM95.8759 21V5.336H98.7579V14.576L102.212 5.336H105.16V21H102.3V11.716L98.8459 21H95.8759ZM108.271 21V5.336H112.781C115.069 5.336 116.345 7.668 116.345 9.934C116.345 11.386 115.905 12.376 115.311 13.014C116.191 13.828 116.543 15.126 116.543 16.38C116.543 18.646 115.267 21 112.979 21H108.271ZM111.175 18.14H112.825C113.397 18.14 113.683 17.216 113.683 16.292C113.683 15.39 113.353 14.466 112.825 14.466H111.175V18.14ZM111.175 11.826H112.583C113.133 11.826 113.441 10.946 113.441 10C113.441 9.098 113.155 8.24 112.583 8.24H111.175V11.826ZM122.088 18.118H123.166C123.958 18.118 124.288 16.798 124.288 15.566C124.288 14.092 123.936 13.014 123.056 13.014H122.088V18.118ZM119.206 21V5.336H122.132V10.11H123.21C126.026 10.11 127.016 12.816 127.016 15.5C127.016 18.228 125.916 21 123.232 21H119.206ZM127.698 5.336H130.624V21H127.698V5.336ZM133.707 21V5.336H136.589V14.576L140.043 5.336H142.991V21H140.131V11.716L136.677 21H133.707ZM135.005 1.794L137.315 0.891999C137.645 1.728 137.997 2.674 138.305 2.674C138.591 2.674 138.943 1.75 139.317 0.87L141.605 1.794C141.011 3.29 139.977 5.16 138.305 5.16C136.633 5.16 135.599 3.268 135.005 1.794ZM153.862 5.336H161.364V21H158.482V8.262H156.722C156.7 11.364 156.612 13.96 156.282 15.94C155.842 18.448 155.05 20.362 153.004 21.55L151.42 19.174C152.476 18.426 153.114 17.612 153.466 15.412C153.84 13.19 153.862 9.89 153.862 5.336ZM163.767 13.146C163.767 8.57 167.529 4.808 172.127 4.808C176.747 4.808 180.509 8.57 180.509 13.146C180.509 17.788 176.747 21.528 172.127 21.528C167.529 21.528 163.767 17.788 163.767 13.146ZM177.539 13.146C177.539 10.198 175.119 7.778 172.127 7.778C169.179 7.778 166.737 10.198 166.737 13.146C166.737 16.138 169.179 18.58 172.127 18.58C175.119 18.58 177.539 16.138 177.539 13.146ZM182.903 21V5.336H190.317V8.262H185.873V21H182.903ZM191.63 13.146C191.63 8.57 195.392 4.808 199.99 4.808C204.61 4.808 208.372 8.57 208.372 13.146C208.372 17.788 204.61 21.528 199.99 21.528C195.392 21.528 191.63 17.788 191.63 13.146ZM205.402 13.146C205.402 10.198 202.982 7.778 199.99 7.778C197.042 7.778 194.6 10.198 194.6 13.146C194.6 16.138 197.042 18.58 199.99 18.58C202.982 18.58 205.402 16.138 205.402 13.146Z" fill="#E5E3D6"/>
<path d="M45.912 37V28.132H47.292L50.52 35.68L53.736 28.132H55.116V37H54.228V29.104L50.892 37H50.124L46.8 29.104V37H45.912ZM56.6513 33.736C56.6513 31.768 58.1393 30.28 60.1073 30.28C61.2593 30.28 62.0393 30.676 62.6993 31.6V30.436H63.5873V37H62.6993V35.848C62.0033 36.784 61.2953 37.156 60.1793 37.156C58.1513 37.156 56.6513 35.704 56.6513 33.736ZM57.5513 33.7C57.5513 35.176 58.7153 36.34 60.1673 36.34C61.5953 36.34 62.6993 35.188 62.6993 33.7C62.6993 32.212 61.5833 31.096 60.0953 31.096C58.6913 31.096 57.5513 32.26 57.5513 33.7ZM65.2147 37V30.436H68.5748V31.24H66.1027V37H65.2147ZM69.3484 33.736C69.3484 31.768 70.8364 30.28 72.8044 30.28C73.9564 30.28 74.7364 30.676 75.3964 31.6V30.436H76.2844V37H75.3964V35.848C74.7004 36.784 73.9924 37.156 72.8764 37.156C70.8484 37.156 69.3484 35.704 69.3484 33.736ZM70.2484 33.7C70.2484 35.176 71.4124 36.34 72.8644 36.34C74.2924 36.34 75.3964 35.188 75.3964 33.7C75.3964 32.212 74.2804 31.096 72.7924 31.096C71.3884 31.096 70.2484 32.26 70.2484 33.7ZM77.5878 35.104H78.4878C78.5358 35.824 79.1838 36.34 80.0238 36.34C80.8878 36.34 81.5838 35.788 81.5838 35.104C81.5838 34.348 80.8038 33.904 79.5078 33.904V33.172C80.6238 33.172 81.2358 32.788 81.2358 32.092C81.2358 31.552 80.6838 31.108 80.0118 31.108C79.3638 31.108 78.8598 31.516 78.8118 32.092H77.9118C77.9598 31.06 78.8598 30.28 80.0238 30.28C81.2118 30.28 82.1358 31.072 82.1358 32.092C82.1358 32.74 81.7998 33.22 81.1878 33.436V33.472C82.0278 33.712 82.4838 34.276 82.4838 35.104C82.4838 36.244 81.4038 37.156 80.0358 37.156C78.6918 37.156 77.6358 36.268 77.5878 35.104ZM83.7974 37V30.436H84.6854V35.74L88.6814 30.436H89.5694V37H88.6814V31.696L84.6854 37H83.7974ZM91.2065 37V30.436H92.0945V33.256H96.0305V30.436H96.9185V37H96.0305V34.06H92.0945V37H91.2065ZM101.993 37V30.436H107.645V37H106.757V31.24H102.881V37H101.993ZM109.022 33.724C109.022 31.732 110.486 30.28 112.502 30.28C114.434 30.28 115.874 31.756 115.874 33.736C115.874 35.704 114.458 37.156 112.526 37.156C110.522 37.156 109.022 35.692 109.022 33.724ZM112.502 36.34C113.942 36.34 114.974 35.26 114.974 33.748C114.974 32.2 113.918 31.096 112.43 31.096C110.99 31.096 109.922 32.224 109.922 33.736C109.922 35.236 111.014 36.34 112.502 36.34ZM116.01 37L118.83 30.436H119.826L122.646 37H121.71L119.334 31.444L116.946 37H116.01ZM128.521 34.84H129.445C128.965 36.22 127.681 37.156 126.253 37.156C124.309 37.156 122.785 35.632 122.785 33.688C122.785 31.78 124.285 30.28 126.181 30.28C128.065 30.28 129.649 31.816 129.649 33.64C129.649 33.76 129.625 33.892 129.601 34.012H123.673C123.745 35.308 124.873 36.34 126.229 36.34C127.225 36.34 128.149 35.74 128.521 34.84ZM123.697 33.208H128.725C128.425 31.9 127.453 31.096 126.181 31.096C124.933 31.096 123.937 31.948 123.697 33.208ZM130.638 35.104H131.538C131.586 35.824 132.234 36.34 133.074 36.34C133.938 36.34 134.634 35.788 134.634 35.104C134.634 34.348 133.854 33.904 132.558 33.904V33.172C133.674 33.172 134.286 32.788 134.286 32.092C134.286 31.552 133.734 31.108 133.062 31.108C132.414 31.108 131.91 31.516 131.862 32.092H130.962C131.01 31.06 131.91 30.28 133.074 30.28C134.262 30.28 135.186 31.072 135.186 32.092C135.186 32.74 134.85 33.22 134.238 33.436V33.472C135.078 33.712 135.534 34.276 135.534 35.104C135.534 36.244 134.454 37.156 133.086 37.156C131.742 37.156 130.686 36.268 130.638 35.104ZM136.847 37V30.436H137.735V33.256H141.671V30.436H142.559V37H141.671V34.06H137.735V37H136.847ZM145.074 36.196H146.658C147.714 36.196 148.242 35.812 148.242 35.032C148.242 34.252 147.714 33.868 146.658 33.868H145.074V36.196ZM144.186 37V30.436H145.074V33.064H146.886C148.218 33.064 149.142 33.868 149.142 35.032C149.142 36.196 148.218 37 146.886 37H144.186ZM149.934 37V30.436H150.822V37H149.934ZM151.791 37L154.071 33.652L151.791 30.436H152.799L154.575 32.968L156.339 30.436H157.359L155.067 33.652L157.359 37H156.339L154.575 34.372L152.799 37H151.791ZM162.9 37V31.24H161.172V30.436H165.492V31.24H163.788V37H162.9ZM166.258 33.724C166.258 31.732 167.722 30.28 169.738 30.28C171.67 30.28 173.11 31.756 173.11 33.736C173.11 35.704 171.694 37.156 169.762 37.156C167.758 37.156 166.258 35.692 166.258 33.724ZM169.738 36.34C171.178 36.34 172.21 35.26 172.21 33.748C172.21 32.2 171.154 31.096 169.666 31.096C168.226 31.096 167.158 32.224 167.158 33.736C167.158 35.236 168.25 36.34 169.738 36.34ZM174.493 37V30.436H177.121C178.537 30.436 179.389 31.084 179.389 32.164C179.389 32.692 179.005 33.256 178.501 33.472C179.305 33.772 179.725 34.3 179.725 35.044C179.725 36.184 178.717 37 177.301 37H174.493ZM175.381 33.148H176.977C177.973 33.148 178.537 32.788 178.537 32.164C178.537 31.552 178.009 31.24 176.977 31.24H175.381V33.148ZM175.381 36.196H177.073C178.201 36.196 178.825 35.788 178.825 35.044C178.825 34.312 178.237 33.952 177.073 33.952H175.381V36.196ZM180.783 33.736C180.783 31.768 182.271 30.28 184.239 30.28C185.391 30.28 186.171 30.676 186.831 31.6V30.436H187.719V37H186.831V35.848C186.135 36.784 185.427 37.156 184.311 37.156C182.283 37.156 180.783 35.704 180.783 33.736ZM181.683 33.7C181.683 35.176 182.847 36.34 184.299 36.34C185.727 36.34 186.831 35.188 186.831 33.7C186.831 32.212 185.715 31.096 184.227 31.096C182.823 31.096 181.683 32.26 181.683 33.7ZM189.346 39.304V30.436H190.234V31.564C190.786 30.724 191.686 30.28 192.814 30.28C194.77 30.28 196.27 31.768 196.27 33.724C196.27 35.656 194.758 37.156 192.79 37.156C191.698 37.156 190.81 36.712 190.234 35.872V39.304H189.346ZM192.778 36.34C194.254 36.34 195.37 35.224 195.37 33.748C195.37 32.2 194.266 31.096 192.742 31.096C191.302 31.096 190.174 32.248 190.174 33.724C190.174 35.2 191.302 36.34 192.778 36.34ZM197.394 33.724C197.394 31.732 198.858 30.28 200.874 30.28C202.806 30.28 204.246 31.756 204.246 33.736C204.246 35.704 202.83 37.156 200.898 37.156C198.894 37.156 197.394 35.692 197.394 33.724ZM200.874 36.34C202.314 36.34 203.346 35.26 203.346 33.748C203.346 32.2 202.29 31.096 200.802 31.096C199.362 31.096 198.294 32.224 198.294 33.736C198.294 35.236 199.386 36.34 200.874 36.34ZM205.629 37V30.436H208.257C209.673 30.436 210.525 31.084 210.525 32.164C210.525 32.692 210.141 33.256 209.637 33.472C210.441 33.772 210.861 34.3 210.861 35.044C210.861 36.184 209.853 37 208.437 37H205.629ZM206.517 33.148H208.113C209.109 33.148 209.673 32.788 209.673 32.164C209.673 31.552 209.145 31.24 208.113 31.24H206.517V33.148ZM206.517 36.196H208.209C209.337 36.196 209.961 35.788 209.961 35.044C209.961 34.312 209.373 33.952 208.209 33.952H206.517V36.196Z" fill="#E5E3D6"/>
</svg>
