<svg width="34" height="32" viewBox="0 0 34 32" fill="none" xmlns="http://www.w3.org/2000/svg">
<path fill-rule="evenodd" clip-rule="evenodd" d="M24.1295 2.2198C23.5479 0.176025 21.0845 -0.631986 19.4054 0.670312L18.8794 1.07833C17.7924 1.92141 16.2712 1.91718 15.189 1.06806L14.6652 0.657121C12.9934 -0.654501 10.5255 0.139788 9.93255 2.1803L9.74679 2.8196C9.36294 4.14059 8.12984 5.03125 6.75515 4.98045L6.08987 4.95586C3.96641 4.87739 2.4367 6.97059 3.1564 8.96991L3.38188 9.5963C3.8478 10.8906 3.37372 12.336 2.23172 13.1029L1.67904 13.4741C-0.0850009 14.6587 -0.0922149 17.2513 1.6652 18.4457L2.21581 18.82C3.35353 19.5932 3.81955 21.0412 3.34644 22.3329L3.11747 22.958C2.38666 24.9533 3.9047 27.055 6.02856 26.9884L6.69397 26.9675C8.06892 26.9243 9.29704 27.8218 9.67353 29.1449L9.85573 29.7853C10.4373 31.829 12.9007 32.637 14.5798 31.3348L15.1059 30.9267C16.1929 30.0837 17.714 30.0879 18.7963 30.937L19.32 31.3479C20.9918 32.6596 23.4597 31.8653 24.0527 29.8248L24.2384 29.1855C24.6223 27.8645 25.8554 26.9738 27.2301 27.0246L27.8953 27.0492C30.0188 27.1277 31.5485 25.0345 30.8288 23.0352L30.6033 22.4088C30.1374 21.1144 30.6115 19.6691 31.7535 18.9022L32.3062 18.531C34.0702 17.3464 34.0774 14.7538 32.32 13.5593L31.7694 13.1851C30.6317 12.4118 30.1657 10.9639 30.6388 9.67215L30.8677 9.04702C31.5986 7.05174 30.0805 4.95006 27.9567 5.01671L27.2912 5.03759C25.9163 5.08074 24.6882 4.18323 24.3117 2.86013L24.1295 2.2198ZM23.4498 11.34C22.8223 10.8522 21.8779 10.8937 21.307 11.4555L15.1852 17.4792L12.693 15.0269C12.1221 14.4651 11.1777 14.4237 10.5502 14.9115C9.87964 15.4328 9.80577 16.3742 10.4183 16.977L14.0479 20.5484C14.3503 20.846 14.7662 21.002 15.1852 21.002C15.6042 21.002 16.0202 20.846 16.3226 20.5484L23.5817 13.4055C24.1942 12.8028 24.1204 11.8614 23.4498 11.34Z" fill="#181818"/>
</svg>
