<svg width="120" height="120" viewBox="0 0 120 120" fill="none" xmlns="http://www.w3.org/2000/svg">
<path d="M120 60C120 93.1371 93.1371 120 60 120C26.8629 120 0 93.1371 0 60C0 26.8629 26.8629 0 60 0C93.1371 0 120 26.8629 120 60Z" fill="url(#paint0_linear_204_137)" fill-opacity="0.4"/>
<path d="M15 60C15 35.1472 35.1472 15 60 15C84.8528 15 105 35.1472 105 60C105 84.8528 84.8528 105 60 105C35.1472 105 15 84.8528 15 60Z" fill="#3C344F"/>
<path d="M15 60C15 35.1472 35.1472 15 60 15C84.8528 15 105 35.1472 105 60C105 84.8528 84.8528 105 60 105C35.1472 105 15 84.8528 15 60Z" fill="url(#paint1_linear_204_137)"/>
<path d="M76.9677 54.2955L76.5078 49.8384C75.8418 44.9791 73.6692 43 69.0228 43H51.9597C47.2974 43 45.1407 44.9791 44.4588 49.8867L44.0307 54.3115C43.8721 56.0332 44.332 57.7066 45.331 59.0099C46.5362 60.6029 48.3916 61.504 50.4531 61.504C52.4513 61.504 54.3701 60.4903 55.5753 58.8651C56.6536 60.4903 58.4931 61.504 60.5388 61.504C62.5845 61.504 64.3765 60.5385 65.4707 58.9295C66.6917 60.5224 68.5788 61.504 70.5452 61.504C72.6543 61.504 74.5573 60.5546 75.7466 58.8812C76.6981 57.594 77.1263 55.9689 76.9677 54.2955Z" fill="white"/>
<path d="M59.5071 67.7957C57.4932 68.0049 55.9708 69.7426 55.9708 71.8022V76.211C55.9708 76.6454 56.3197 76.9994 56.7478 76.9994H64.3121C64.7403 76.9994 65.0891 76.6454 65.0891 76.211V72.3654C65.105 69.0025 63.1545 67.4095 59.5071 67.7957Z" fill="white"/>
<path d="M75.3978 64.1599V68.9548C75.3978 73.3958 71.8456 77 67.4688 77C67.0407 77 66.6918 76.646 66.6918 76.2116V72.366C66.6918 70.3064 66.0733 68.6974 64.8681 67.6032C63.8056 66.6217 62.3626 66.139 60.5706 66.139C60.1742 66.139 59.7777 66.1551 59.3495 66.2034C56.5268 66.493 54.386 68.9065 54.386 71.8028V76.2116C54.386 76.646 54.0371 77 53.6089 77C49.2321 77 45.68 73.3958 45.68 68.9548V64.1921C45.68 63.0657 46.7742 62.3095 47.8049 62.6796C48.2331 62.8244 48.6613 62.937 49.1053 63.0014C49.2956 63.0335 49.5017 63.0657 49.692 63.0657C49.9458 63.0979 50.1995 63.114 50.4532 63.114C52.2927 63.114 54.1005 62.4221 55.5278 61.2314C56.8916 62.4221 58.6676 63.114 60.5389 63.114C62.426 63.114 64.1704 62.4543 65.5342 61.2636C66.9614 62.4382 68.7375 63.114 70.5453 63.114C70.8307 63.114 71.1162 63.0979 71.3857 63.0657C71.576 63.0496 71.7505 63.0335 71.9249 63.0014C72.4165 62.937 72.8605 62.7922 73.3046 62.6474C74.3353 62.2934 75.3978 63.0657 75.3978 64.1599Z" fill="white"/>
<defs>
<linearGradient id="paint0_linear_204_137" x1="12.8873" y1="1.44053e-06" x2="121.275" y2="11.1573" gradientUnits="userSpaceOnUse">
<stop stop-color="#1E2A78"/>
<stop offset="1" stop-color="#FF2E4C"/>
</linearGradient>
<linearGradient id="paint1_linear_204_137" x1="24.6655" y1="15" x2="105.956" y2="23.368" gradientUnits="userSpaceOnUse">
<stop stop-color="#1E2A78"/>
<stop offset="1" stop-color="#FF2E4C"/>
</linearGradient>
</defs>
</svg>
