<svg width="120" height="120" viewBox="0 0 120 120" fill="none" xmlns="http://www.w3.org/2000/svg">
<path d="M120 60C120 93.1371 93.1371 120 60 120C26.8629 120 0 93.1371 0 60C0 26.8629 26.8629 0 60 0C93.1371 0 120 26.8629 120 60Z" fill="url(#paint0_linear_204_141)" fill-opacity="0.4"/>
<path d="M15 60C15 35.1472 35.1472 15 60 15C84.8528 15 105 35.1472 105 60C105 84.8528 84.8528 105 60 105C35.1472 105 15 84.8528 15 60Z" fill="#3C344F"/>
<path d="M15 60C15 35.1472 35.1472 15 60 15C84.8528 15 105 35.1472 105 60C105 84.8528 84.8528 105 60 105C35.1472 105 15 84.8528 15 60Z" fill="url(#paint1_linear_204_141)"/>
<path d="M58.7239 53.3371V58.1991L57.0069 57.6041C56.1399 57.2981 55.6129 57.0091 55.6129 55.5301C55.6129 54.3231 56.5139 53.3371 57.6189 53.3371H58.7239Z" fill="white"/>
<path d="M64.3849 64.4721C64.3849 65.6791 63.4839 66.6651 62.3789 66.6651H61.2739V61.8031L62.9909 62.3981C63.8579 62.7041 64.3849 62.9931 64.3849 64.4721Z" fill="white"/>
<path d="M67.123 43H52.877C46.689 43 43 46.689 43 52.877V67.123C43 73.311 46.689 77 52.877 77H67.123C73.311 77 77 73.311 77 67.123V52.877C77 46.689 73.311 43 67.123 43ZM63.842 60C65.168 60.459 66.936 61.428 66.936 64.471C66.936 67.089 64.896 69.214 62.38 69.214H61.275V70.2C61.275 70.897 60.697 71.475 60 71.475C59.303 71.475 58.725 70.897 58.725 70.2V69.214H58.113C55.325 69.214 53.064 66.851 53.064 63.961C53.064 63.264 53.625 62.686 54.339 62.686C55.036 62.686 55.614 63.264 55.614 63.961C55.614 65.457 56.736 66.664 58.113 66.664H58.725V60.901L56.158 60C54.832 59.541 53.064 58.572 53.064 55.529C53.064 52.911 55.104 50.786 57.62 50.786H58.725V49.8C58.725 49.103 59.303 48.525 60 48.525C60.697 48.525 61.275 49.103 61.275 49.8V50.786H61.887C64.675 50.786 66.936 53.149 66.936 56.039C66.936 56.736 66.375 57.314 65.661 57.314C64.964 57.314 64.386 56.736 64.386 56.039C64.386 54.543 63.264 53.336 61.887 53.336H61.275V59.099L63.842 60Z" fill="white"/>
<defs>
<linearGradient id="paint0_linear_204_141" x1="12.8873" y1="1.44053e-06" x2="121.275" y2="11.1573" gradientUnits="userSpaceOnUse">
<stop stop-color="#1E2A78"/>
<stop offset="1" stop-color="#FF2E4C"/>
</linearGradient>
<linearGradient id="paint1_linear_204_141" x1="24.6655" y1="15" x2="105.956" y2="23.368" gradientUnits="userSpaceOnUse">
<stop stop-color="#1E2A78"/>
<stop offset="1" stop-color="#FF2E4C"/>
</linearGradient>
</defs>
</svg>
