<svg width="120" height="120" viewBox="0 0 120 120" fill="none" xmlns="http://www.w3.org/2000/svg">
<path d="M120 60C120 93.1371 93.1371 120 60 120C26.8629 120 0 93.1371 0 60C0 26.8629 26.8629 0 60 0C93.1371 0 120 26.8629 120 60Z" fill="url(#paint0_linear_204_133)" fill-opacity="0.4"/>
<path d="M15 60C15 35.1472 35.1472 15 60 15C84.8528 15 105 35.1472 105 60C105 84.8528 84.8528 105 60 105C35.1472 105 15 84.8528 15 60Z" fill="#3C344F"/>
<path d="M15 60C15 35.1472 35.1472 15 60 15C84.8528 15 105 35.1472 105 60C105 84.8528 84.8528 105 60 105C35.1472 105 15 84.8528 15 60Z" fill="url(#paint1_linear_204_133)"/>
<path d="M73.6816 53.2457L71.061 55.8439L65.7847 50.6126L68.4052 48.0144C69.1439 47.282 70.0937 46.9333 71.0434 46.9333C71.9931 46.9333 72.9429 47.282 73.6816 48.0144C75.1413 49.4617 75.1413 51.7983 73.6816 53.2457Z" fill="white"/>
<path d="M69.8287 57.0819L50.8164 75.9145C49.3566 77.3618 46.9998 77.3618 45.54 75.9145C44.0802 74.4672 44.0802 72.1306 45.54 70.6832L64.5524 51.8507L69.8287 57.0819Z" fill="white"/>
<path d="M56.8828 46.2704L57.6039 43.8466C57.6743 43.6199 57.6039 43.3758 57.4456 43.2014C57.2874 43.027 57.0059 42.9573 56.7773 43.027L54.3326 43.742L51.8879 43.027C51.6593 42.9573 51.413 43.027 51.2372 43.184C51.0613 43.3584 51.0085 43.6025 51.0789 43.8292L51.7824 46.2704L51.0613 48.6942C50.9909 48.9209 51.0613 49.1651 51.2196 49.3394C51.3954 49.5138 51.6417 49.5661 51.8703 49.4964L54.3326 48.7989L56.7773 49.5138C56.8477 49.5313 56.9004 49.5487 56.9708 49.5487C57.1466 49.5487 57.3049 49.4789 57.4456 49.3569C57.6215 49.1825 57.6743 48.9384 57.6039 48.7117L56.8828 46.2704Z" fill="white"/>
<path d="M49.8488 56.733L50.5699 54.3091C50.6403 54.0825 50.5699 53.8383 50.4116 53.664C50.2358 53.4896 49.9895 53.4373 49.7609 53.507L47.2986 54.2045L44.8539 53.4896C44.6253 53.4198 44.379 53.4896 44.2031 53.6465C44.0273 53.8209 43.9745 54.065 44.0449 54.2917L44.7484 56.733L44.0273 59.1568C43.9569 59.3835 44.0273 59.6276 44.1856 59.802C44.3614 59.9764 44.6077 60.0287 44.8363 59.9589L47.281 59.244L49.7257 59.9589C49.7785 59.9764 49.8488 59.9764 49.9192 59.9764C50.0951 59.9764 50.2533 59.9066 50.394 59.7845C50.5699 59.6102 50.6227 59.366 50.5523 59.1394L49.8488 56.733Z" fill="white"/>
<path d="M76.2312 65.4513L76.9523 63.0275C77.0226 62.8008 76.9523 62.5567 76.794 62.3823C76.6181 62.208 76.3719 62.1556 76.1432 62.2254L73.6985 62.9403L71.2538 62.2254C71.0252 62.1556 70.779 62.2254 70.6031 62.3823C70.4272 62.5567 70.3744 62.8008 70.4448 63.0275L71.1659 65.4513L70.4448 67.8752C70.3744 68.1019 70.4448 68.346 70.6031 68.5204C70.779 68.6947 71.0252 68.747 71.2538 68.6773L73.6985 67.9624L76.1432 68.6773C76.196 68.6947 76.2663 68.6947 76.3367 68.6947C76.5126 68.6947 76.6709 68.625 76.8116 68.5029C76.9874 68.3285 77.0402 68.0844 76.9698 67.8577L76.2312 65.4513Z" fill="white"/>
<defs>
<linearGradient id="paint0_linear_204_133" x1="12.8873" y1="1.44053e-06" x2="121.275" y2="11.1573" gradientUnits="userSpaceOnUse">
<stop stop-color="#1E2A78"/>
<stop offset="1" stop-color="#FF2E4C"/>
</linearGradient>
<linearGradient id="paint1_linear_204_133" x1="24.6655" y1="15" x2="105.956" y2="23.368" gradientUnits="userSpaceOnUse">
<stop stop-color="#1E2A78"/>
<stop offset="1" stop-color="#FF2E4C"/>
</linearGradient>
</defs>
</svg>
