<svg width="120" height="120" viewBox="0 0 120 120" fill="none" xmlns="http://www.w3.org/2000/svg">
<path d="M120 60C120 93.1371 93.1371 120 60 120C26.8629 120 0 93.1371 0 60C0 26.8629 26.8629 0 60 0C93.1371 0 120 26.8629 120 60Z" fill="url(#paint0_linear_147_374)" fill-opacity="0.4"/>
<path d="M15 60C15 35.1472 35.1472 15 60 15C84.8528 15 105 35.1472 105 60C105 84.8528 84.8528 105 60 105C35.1472 105 15 84.8528 15 60Z" fill="#3C344F"/>
<path d="M15 60C15 35.1472 35.1472 15 60 15C84.8528 15 105 35.1472 105 60C105 84.8528 84.8528 105 60 105C35.1472 105 15 84.8528 15 60Z" fill="url(#paint1_linear_147_374)"/>
<path d="M70.8501 46.7501L61.7323 43.2664C60.7874 42.9112 59.2456 42.9112 58.3007 43.2664L49.1829 46.7501C47.4257 47.4265 46 49.5235 46 51.4345V65.1326C46 66.5024 46.8786 68.3119 47.9562 69.1236L57.0739 76.0741C58.682 77.3086 61.3179 77.3086 62.9259 76.0741L72.0437 69.1236C73.1212 68.295 73.9999 66.5024 73.9999 65.1326V51.4345C74.0164 49.5235 72.5907 47.4265 70.8501 46.7501ZM65.7773 56.2203L58.6488 63.4922C58.4002 63.7458 58.0852 63.8642 57.7702 63.8642C57.4552 63.8642 57.1403 63.7458 56.8916 63.4922L54.2392 60.7525C53.7584 60.2621 53.7584 59.4504 54.2392 58.96C54.7199 58.4695 55.5156 58.4695 55.9964 58.96L57.7868 60.7864L64.0366 54.4108C64.5174 53.9204 65.3131 53.9204 65.7939 54.4108C66.2746 54.9013 66.2746 55.7299 65.7773 56.2203Z" fill="white"/>
<defs>
<linearGradient id="paint0_linear_147_374" x1="12.8873" y1="1.44053e-06" x2="121.275" y2="11.1573" gradientUnits="userSpaceOnUse">
<stop stop-color="#1E2A78"/>
<stop offset="1" stop-color="#FF2E4C"/>
</linearGradient>
<linearGradient id="paint1_linear_147_374" x1="24.6655" y1="15" x2="105.956" y2="23.368" gradientUnits="userSpaceOnUse">
<stop stop-color="#1E2A78"/>
<stop offset="1" stop-color="#FF2E4C"/>
</linearGradient>
</defs>
</svg>
