<svg width="120" height="120" viewBox="0 0 120 120" fill="none" xmlns="http://www.w3.org/2000/svg">
<path d="M120 60C120 93.1371 93.1371 120 60 120C26.8629 120 0 93.1371 0 60C0 26.8629 26.8629 0 60 0C93.1371 0 120 26.8629 120 60Z" fill="url(#paint0_linear_147_369)" fill-opacity="0.4"/>
<path d="M15 60C15 35.1472 35.1472 15 60 15C84.8528 15 105 35.1472 105 60C105 84.8528 84.8528 105 60 105C35.1472 105 15 84.8528 15 60Z" fill="#3C344F"/>
<path d="M15 60C15 35.1472 35.1472 15 60 15C84.8528 15 105 35.1472 105 60C105 84.8528 84.8528 105 60 105C35.1472 105 15 84.8528 15 60Z" fill="url(#paint1_linear_147_369)"/>
<path d="M44 60.2581V68.3226C44 72.0161 47.052 75 50.8299 75H70.1484C73.9263 75 76.9948 72 76.9948 68.3065V60.2581C76.9948 59.1774 76.104 58.3065 74.9987 58.3065H45.9962C44.8909 58.3065 44 59.1774 44 60.2581ZM53.8985 69.5968H50.599C49.9226 69.5968 49.3617 69.0484 49.3617 68.3871C49.3617 67.7258 49.9226 67.1774 50.599 67.1774H53.8985C54.5748 67.1774 55.1358 67.7258 55.1358 68.3871C55.1358 69.0484 54.5748 69.5968 53.8985 69.5968ZM64.6218 69.5968H58.0228C57.3464 69.5968 56.7855 69.0484 56.7855 68.3871C56.7855 67.7258 57.3464 67.1774 58.0228 67.1774H64.6218C65.2982 67.1774 65.8591 67.7258 65.8591 68.3871C65.8591 69.0484 65.2982 69.5968 64.6218 69.5968Z" fill="white"/>
<path d="M62.972 49.2084V53.9342C62.972 55.0149 62.0812 55.8858 60.9758 55.8858H45.9962C44.8744 55.8858 44 54.9826 44 53.902C44.0165 52.0794 44.7589 50.4181 45.9962 49.2084C47.2335 47.9987 48.9492 47.2568 50.8299 47.2568H60.9758C62.0812 47.2568 62.972 48.1278 62.972 49.2084Z" fill="white"/>
<path d="M73.651 45H68.8008C66.7056 45 65.4518 46.2258 65.4518 48.2742V53.0161C65.4518 55.0645 66.7056 56.2903 68.8008 56.2903H73.651C75.7462 56.2903 77 55.0645 77 53.0161V48.2742C77 46.2258 75.7462 45 73.651 45ZM74.7399 48.9516L70.83 53.4194C70.6815 53.5968 70.4505 53.7097 70.2196 53.7097C70.2031 53.7097 70.2031 53.7097 70.1866 53.7097C69.9556 53.7097 69.7411 53.629 69.5762 53.4677L67.7614 51.7258C67.4315 51.4032 67.4315 50.871 67.7614 50.5484C68.0914 50.2258 68.6358 50.2097 68.9658 50.5484L70.1206 51.6613L73.4201 47.8871C73.7335 47.5323 74.2614 47.5 74.6244 47.7903C75.0038 48.0806 75.0368 48.6129 74.7399 48.9516Z" fill="white"/>
<defs>
<linearGradient id="paint0_linear_147_369" x1="12.8873" y1="1.44053e-06" x2="121.275" y2="11.1573" gradientUnits="userSpaceOnUse">
<stop stop-color="#1E2A78"/>
<stop offset="1" stop-color="#FF2E4C"/>
</linearGradient>
<linearGradient id="paint1_linear_147_369" x1="24.6655" y1="15" x2="105.956" y2="23.368" gradientUnits="userSpaceOnUse">
<stop stop-color="#1E2A78"/>
<stop offset="1" stop-color="#FF2E4C"/>
</linearGradient>
</defs>
</svg>
