<svg width="120" height="120" viewBox="0 0 120 120" fill="none" xmlns="http://www.w3.org/2000/svg">
<path d="M120 60C120 93.1371 93.1371 120 60 120C26.8629 120 0 93.1371 0 60C0 26.8629 26.8629 0 60 0C93.1371 0 120 26.8629 120 60Z" fill="url(#paint0_linear_147_364)" fill-opacity="0.4"/>
<path d="M15 60C15 35.1472 35.1472 15 60 15C84.8528 15 105 35.1472 105 60C105 84.8528 84.8528 105 60 105C35.1472 105 15 84.8528 15 60Z" fill="#3C344F"/>
<path d="M15 60C15 35.1472 35.1472 15 60 15C84.8528 15 105 35.1472 105 60C105 84.8528 84.8528 105 60 105C35.1472 105 15 84.8528 15 60Z" fill="url(#paint1_linear_147_364)"/>
<path d="M74.3684 57.5135H69.6532C65.7863 57.5135 62.6374 54.329 62.6374 50.4185V45.65C62.6374 44.7425 61.9032 44 61.0058 44H54.0879C49.0626 44 45 47.3 45 53.1905V67.8095C45 73.7 49.0626 77 54.0879 77H66.9121C71.9374 77 76 73.7 76 67.8095V59.1635C76 58.256 75.2658 57.5135 74.3684 57.5135ZM60.9568 66.737L57.6937 70.037C57.5795 70.1525 57.4326 70.2515 57.2858 70.301C57.1389 70.367 56.9921 70.4 56.8289 70.4C56.6658 70.4 56.5189 70.367 56.3721 70.301C56.2416 70.2515 56.1111 70.1525 56.0132 70.0535C55.9968 70.037 55.9805 70.037 55.9805 70.0205L52.7174 66.7205C52.2442 66.242 52.2442 65.45 52.7174 64.9715C53.1905 64.493 53.9737 64.493 54.4468 64.9715L55.6053 66.176V59.2625C55.6053 58.586 56.16 58.025 56.8289 58.025C57.4979 58.025 58.0526 58.586 58.0526 59.2625V66.176L59.2274 64.988C59.7005 64.5095 60.4837 64.5095 60.9568 64.988C61.43 65.4665 61.43 66.2585 60.9568 66.737Z" fill="white"/>
<path d="M69.3595 55.2365C70.9095 55.253 73.0632 55.253 74.9068 55.253C75.8368 55.253 76.3263 54.1475 75.6737 53.4875C73.3242 51.095 69.1147 46.7885 66.7 44.3465C66.0311 43.67 64.8726 44.132 64.8726 45.0725V50.831C64.8726 53.24 66.8958 55.2365 69.3595 55.2365Z" fill="white"/>
<defs>
<linearGradient id="paint0_linear_147_364" x1="12.8873" y1="1.44053e-06" x2="121.275" y2="11.1573" gradientUnits="userSpaceOnUse">
<stop stop-color="#1E2A78"/>
<stop offset="1" stop-color="#FF2E4C"/>
</linearGradient>
<linearGradient id="paint1_linear_147_364" x1="24.6655" y1="15" x2="105.956" y2="23.368" gradientUnits="userSpaceOnUse">
<stop stop-color="#1E2A78"/>
<stop offset="1" stop-color="#FF2E4C"/>
</linearGradient>
</defs>
</svg>
