<svg width="40" height="28" viewBox="0 0 40 28" fill="none" xmlns="http://www.w3.org/2000/svg">
<g clip-path="url(#clip0_3020_8453)">
<path d="M30.812 10.7305V14.2208H29.5953V11.7726H28.415V14.2208H27.1943V10.7305H30.812Z" fill="#0E0737"/>
<path d="M26.6145 12.6725C26.6145 13.6888 25.7745 14.3581 24.6473 14.3581C23.4778 14.3581 22.625 13.6482 22.625 12.0398C22.625 10.6586 23.5004 9.52124 24.7948 9.49943C25.3614 9.49943 26.5801 9.47266 26.5801 9.47266L26.0312 10.488H24.9276C24.6497 10.4891 24.3817 10.5915 24.1728 10.7763C23.964 10.9611 23.8286 11.2159 23.7916 11.4935C24.1099 11.1989 24.5291 11.0401 24.9611 11.0502C25.9938 11.0502 26.6145 11.6888 26.6145 12.6725ZM25.3604 12.6725C25.3604 12.2163 25.0702 11.9496 24.6502 11.9496C24.2302 11.9496 23.9263 12.2233 23.9263 12.6794C23.921 12.7772 23.9361 12.8751 23.9704 12.9667C24.0048 13.0584 24.0577 13.1418 24.1258 13.2117C24.1939 13.2816 24.2757 13.3364 24.366 13.3726C24.4563 13.4088 24.5531 13.4257 24.6502 13.4221C25.1027 13.4221 25.3653 13.083 25.3653 12.6725H25.3604Z" fill="#0E0737"/>
<path d="M21.6529 13.1623C21.4234 13.2776 21.1732 13.3451 20.9172 13.3606C20.4096 13.3755 19.9592 13.0632 19.9592 12.501C19.9592 11.9387 20.3575 11.6413 20.9044 11.6413C21.2398 11.6413 21.6834 11.8703 21.6834 11.8703C21.6834 11.8703 22.008 11.2833 22.1752 10.9898C21.8251 10.745 21.4061 10.6202 20.9801 10.6338C19.7762 10.6338 18.8438 11.4073 18.8438 12.494C18.8438 13.5808 19.7201 14.3502 20.9801 14.3274C21.3793 14.3102 21.7691 14.2003 22.1191 14.0062L21.6529 13.1623Z" fill="#0E0737"/>
<path d="M6.08691 10.0469L7.77477 13.0781V14.9254L6.08986 17.9507L6.08691 10.0469Z" fill="#5B57A2"/>
<path d="M12.5654 11.9757L14.1461 11.002L17.3802 11L12.5654 13.9648V11.9757Z" fill="#D90751"/>
<path d="M12.5561 10.0302L12.565 14.0412L10.8732 12.998V7L12.5561 10.0302Z" fill="#FAB718"/>
<path d="M17.3797 10.999L14.1456 11.001L12.5561 10.0302L10.8732 7L17.3797 10.999Z" fill="#ED6F26"/>
<path d="M12.5648 17.9668V16.0194L10.874 14.9961V20.9991L12.5648 17.9668Z" fill="#63B22F"/>
<path d="M14.1416 17.0027L7.77477 13.0781L6.08691 10.0469L17.3728 16.9988L14.1416 17.0027Z" fill="#1487C9"/>
<path d="M10.874 21.001L12.5648 17.9688L14.1415 17.004L17.3727 17L10.874 21.001Z" fill="#017F36"/>
<path d="M6.08984 17.9523L10.8869 14.9985L9.27376 14.0039L7.77475 14.9271L6.08984 17.9523Z" fill="#984995"/>
<path d="M20.042 16.5812C20.004 16.6303 19.9538 16.6683 19.8964 16.6912C19.8359 16.7165 19.771 16.7293 19.7056 16.7289C19.6405 16.7297 19.5759 16.7186 19.5148 16.6962C19.4591 16.6764 19.4083 16.6448 19.3657 16.6036C19.3231 16.5624 19.2898 16.5125 19.2679 16.4572C19.2448 16.3968 19.2335 16.3325 19.2344 16.2678C19.234 16.2062 19.245 16.145 19.2669 16.0874C19.2881 16.0329 19.3195 15.9831 19.3593 15.9406C19.3993 15.8986 19.4471 15.8649 19.5 15.8415C19.556 15.8163 19.6167 15.8038 19.678 15.8048C19.7446 15.8037 19.8109 15.8128 19.8748 15.8315C19.9321 15.8475 19.9843 15.8783 20.0262 15.9208L19.9564 16.0457C19.9221 16.0138 19.8816 15.9894 19.8374 15.9743C19.7948 15.9604 19.7503 15.9534 19.7056 15.9535C19.6671 15.9537 19.629 15.9614 19.5934 15.9763C19.5569 15.9908 19.5235 16.0124 19.4951 16.0398C19.4665 16.0678 19.444 16.1016 19.4292 16.1389C19.3964 16.222 19.3964 16.3146 19.4292 16.3977C19.4455 16.435 19.4689 16.4687 19.498 16.4969C19.5261 16.5245 19.5596 16.5458 19.5964 16.5594C19.635 16.5742 19.6761 16.5816 19.7174 16.5812C19.766 16.5817 19.814 16.5712 19.858 16.5504C19.8987 16.5299 19.9351 16.5016 19.9652 16.4671L20.042 16.5812Z" fill="#0E0737"/>
<path d="M20.2441 16.7067V15.8242H20.3995V16.4806L20.9061 15.8242H21.0615V16.7067H20.9061V16.0493L20.3995 16.7067H20.2441Z" fill="#0E0737"/>
<path d="M22.0908 16.5792C22.0526 16.6281 22.0024 16.666 21.9452 16.6892C21.8846 16.7143 21.8198 16.7271 21.7544 16.7269C21.6893 16.7278 21.6247 16.7167 21.5636 16.6942C21.5085 16.6738 21.4582 16.6421 21.416 16.601C21.3731 16.5602 21.3396 16.5104 21.3177 16.4552C21.2943 16.3949 21.2826 16.3306 21.2832 16.2658C21.2826 16.2041 21.294 16.1428 21.3167 16.0854C21.3372 16.0311 21.3683 15.9815 21.4082 15.9396C21.448 15.8977 21.4959 15.8643 21.5488 15.8414C21.6048 15.8164 21.6656 15.8039 21.7268 15.8048C21.7934 15.8038 21.8597 15.8129 21.9236 15.8315C21.9807 15.8473 22.0326 15.8781 22.074 15.9208L22.0022 16.0437C21.9676 16.0117 21.9267 15.9874 21.8822 15.9723C21.84 15.9584 21.7959 15.9513 21.7514 15.9515C21.7126 15.9515 21.6742 15.9593 21.6383 15.9743C21.6019 15.9892 21.5688 16.0112 21.5409 16.0391C21.513 16.067 21.491 16.1003 21.476 16.1369C21.4595 16.1778 21.4511 16.2216 21.4514 16.2658C21.4508 16.3105 21.4596 16.3547 21.477 16.3957C21.4927 16.4331 21.5158 16.4668 21.5449 16.4949C21.5729 16.5225 21.6064 16.5438 21.6432 16.5574C21.6822 16.5722 21.7235 16.5796 21.7652 16.5792C21.8144 16.5801 21.8633 16.5696 21.9078 16.5484C21.9488 16.5279 21.9855 16.4996 22.016 16.4651L22.0908 16.5792Z" fill="#0E0737"/>
<path d="M22.1699 15.8242H22.9676V15.9809H22.647V16.7067H22.4906V15.9809H22.1699V15.8242Z" fill="#0E0737"/>
<path d="M23.8466 16.613C23.8025 16.6527 23.7506 16.6824 23.6942 16.7003C23.6373 16.7189 23.5779 16.7286 23.5181 16.729C23.4511 16.7304 23.3844 16.7193 23.3214 16.6963C23.2659 16.6762 23.2153 16.6444 23.1729 16.6031C23.1301 16.5622 23.0966 16.5125 23.0745 16.4573C23.0515 16.3969 23.0401 16.3327 23.0411 16.268C23.0405 16.2064 23.0508 16.1453 23.0716 16.0875C23.0903 16.033 23.1201 15.983 23.1591 15.9407C23.1984 15.8979 23.2463 15.864 23.2998 15.8416C23.362 15.8154 23.4291 15.8029 23.4965 15.8049C23.5507 15.8047 23.6044 15.8148 23.6548 15.8346C23.7032 15.8524 23.7471 15.8804 23.7837 15.9169C23.821 15.9527 23.8505 15.9959 23.8702 16.0439C23.8923 16.0959 23.9034 16.1519 23.9027 16.2085C23.9034 16.2441 23.9001 16.2797 23.8929 16.3146H23.2201C23.2215 16.3528 23.231 16.3903 23.2479 16.4245C23.2649 16.4587 23.289 16.4888 23.3184 16.5129C23.3784 16.5608 23.4535 16.5854 23.5299 16.5823C23.5832 16.5829 23.6362 16.5739 23.6863 16.5555C23.7277 16.5415 23.7658 16.5193 23.7984 16.4901L23.8466 16.613ZM23.4965 15.9536C23.4247 15.9491 23.354 15.9734 23.2998 16.0211C23.2516 16.0647 23.2211 16.1247 23.2142 16.1896H23.7453C23.7453 16.1575 23.7389 16.1257 23.7266 16.0961C23.7142 16.0665 23.6962 16.0396 23.6735 16.0171C23.6249 15.9736 23.5614 15.9509 23.4965 15.9536V15.9536Z" fill="#0E0737"/>
<path d="M24.1191 15.8242H24.2608L24.5972 16.2615L24.9159 15.8242H25.0545V16.7067H24.8991V16.0632L24.5952 16.4727H24.5893L24.2745 16.0632V16.7067H24.1191V15.8242Z" fill="#0E0737"/>
<path d="M25.3427 15.8865C25.384 15.8601 25.4292 15.8404 25.4765 15.828C25.5273 15.8132 25.58 15.8058 25.6329 15.8062C25.681 15.8015 25.7295 15.808 25.7746 15.8252C25.8198 15.8424 25.8605 15.8698 25.8935 15.9053C25.9481 15.9829 25.9745 16.0771 25.9683 16.172V16.7085H25.8227V16.5945C25.7938 16.6309 25.758 16.6612 25.7175 16.6837C25.6635 16.7118 25.6031 16.7251 25.5424 16.7224C25.5064 16.7244 25.4705 16.719 25.4366 16.7065C25.4028 16.6941 25.3719 16.6749 25.3457 16.65C25.3201 16.6241 25.3003 16.593 25.2874 16.5588C25.2745 16.5247 25.2689 16.4882 25.2709 16.4517C25.2704 16.4103 25.2792 16.3692 25.2965 16.3317C25.3126 16.2975 25.3362 16.2673 25.3653 16.2434C25.3966 16.2188 25.4324 16.2006 25.4706 16.1899C25.5133 16.1769 25.5578 16.1706 25.6024 16.1711C25.6397 16.1715 25.6769 16.1755 25.7135 16.183C25.7518 16.1896 25.7881 16.2048 25.8198 16.2276C25.8201 16.1901 25.8178 16.1527 25.8129 16.1155C25.8097 16.0847 25.8007 16.0547 25.7863 16.0273C25.7721 16.0024 25.7509 15.9824 25.7253 15.9698C25.6927 15.9546 25.657 15.9474 25.6211 15.9489C25.5755 15.948 25.53 15.9544 25.4863 15.9678C25.4499 15.9808 25.4144 15.9964 25.3801 16.0144L25.3427 15.8865ZM25.5975 16.5806C25.6463 16.583 25.6948 16.5702 25.7362 16.5439C25.7684 16.5222 25.7975 16.4962 25.8227 16.4665V16.3555C25.7652 16.3148 25.6962 16.294 25.626 16.296C25.6028 16.296 25.5796 16.299 25.5571 16.3049C25.5358 16.3104 25.5155 16.3194 25.4971 16.3317C25.4797 16.3433 25.4652 16.3589 25.4548 16.3773C25.4411 16.4041 25.4362 16.4345 25.4408 16.4643C25.4454 16.4941 25.4593 16.5216 25.4804 16.5429C25.5134 16.5698 25.5551 16.5832 25.5975 16.5806Z" fill="#0E0737"/>
<path d="M27.4308 15.4374C27.4079 15.4697 27.3775 15.496 27.3423 15.5137C27.3089 15.5279 27.2744 15.5388 27.239 15.5465L27.12 15.5693C27.0734 15.5778 27.0281 15.5925 26.9852 15.6129C26.9474 15.6304 26.9138 15.6562 26.8869 15.6882C26.8603 15.7199 26.8384 15.7553 26.8219 15.7934C26.805 15.8326 26.7922 15.8734 26.7836 15.9153C26.7752 15.9565 26.7697 15.9983 26.7669 16.0403V16.0403C26.7814 16.0091 26.801 15.9806 26.8249 15.956C26.8492 15.931 26.8767 15.9094 26.9065 15.8915C26.9374 15.8731 26.9704 15.8588 27.0049 15.8489C27.0402 15.8397 27.0766 15.835 27.1131 15.835C27.1709 15.8339 27.2284 15.8444 27.2823 15.8657C27.3313 15.8853 27.3754 15.9158 27.4111 15.955C27.4471 15.9952 27.4746 16.0425 27.4918 16.0938C27.5114 16.1519 27.5211 16.2129 27.5203 16.2743C27.5202 16.334 27.5089 16.3933 27.4869 16.4488C27.4655 16.5022 27.4341 16.5511 27.3944 16.5926C27.3544 16.6351 27.3062 16.6688 27.2528 16.6917C27.1952 16.7163 27.1333 16.7288 27.0708 16.7284C27.0032 16.7301 26.9361 16.7169 26.8741 16.6897C26.818 16.6649 26.7683 16.6276 26.7285 16.5807C26.6859 16.5304 26.6543 16.4716 26.636 16.4081C26.6135 16.3339 26.6025 16.2567 26.6036 16.1791C26.6038 16.1105 26.6077 16.042 26.6154 15.9738C26.6231 15.9039 26.6386 15.835 26.6616 15.7686C26.6848 15.7045 26.718 15.6445 26.76 15.5911C26.805 15.5363 26.8628 15.4937 26.9282 15.4671C26.9726 15.447 27.0191 15.432 27.0669 15.4225L27.178 15.4037C27.209 15.3983 27.2393 15.3897 27.2685 15.3779C27.2985 15.3647 27.3244 15.3434 27.3433 15.3164L27.4308 15.4374ZM26.7728 16.2068C26.7719 16.2596 26.7792 16.3121 26.7944 16.3625C26.8067 16.4047 26.8271 16.4441 26.8544 16.4785C26.8808 16.5109 26.9145 16.5364 26.9528 16.5529C26.9899 16.5709 27.0306 16.5801 27.0718 16.5797C27.112 16.5801 27.1519 16.572 27.1888 16.5559C27.2227 16.5413 27.2532 16.5196 27.2783 16.4924C27.3048 16.4638 27.3252 16.43 27.3383 16.3933C27.3589 16.3383 27.365 16.2789 27.356 16.2209C27.3471 16.1628 27.3234 16.1081 27.2872 16.0621C27.2612 16.033 27.229 16.0103 27.1931 15.9955C27.1572 15.9807 27.1184 15.9743 27.0796 15.9768C27.0411 15.9764 27.0027 15.9831 26.9665 15.9966C26.9343 16.0087 26.9041 16.0257 26.877 16.0472C26.852 16.0673 26.8304 16.0915 26.8131 16.1186C26.7943 16.1453 26.7803 16.1752 26.7718 16.2068H26.7728Z" fill="#0E0737"/>
<path d="M27.7432 15.8242H27.8986V16.089H28.0432C28.0999 16.0872 28.1565 16.0956 28.2104 16.1138C28.2499 16.1287 28.2858 16.152 28.3156 16.1822C28.3424 16.21 28.362 16.2441 28.3727 16.2813C28.3836 16.318 28.3893 16.3561 28.3894 16.3944C28.3891 16.4335 28.3828 16.4723 28.3707 16.5094C28.358 16.5466 28.3371 16.5805 28.3097 16.6086C28.2785 16.6405 28.2405 16.6649 28.1986 16.6799C28.1431 16.7001 28.0844 16.7095 28.0255 16.7077H27.7432V15.8242ZM27.8986 16.2357V16.559H28.0117C28.0694 16.5648 28.1274 16.5505 28.1759 16.5183C28.1921 16.5031 28.2048 16.4844 28.2129 16.4637C28.2211 16.4429 28.2246 16.4206 28.2232 16.3983C28.2248 16.3758 28.2214 16.3532 28.213 16.3322C28.2047 16.3112 28.1916 16.2925 28.175 16.2774C28.1275 16.2453 28.0706 16.2306 28.0137 16.2357H27.8986ZM28.5566 15.8242H28.71V16.7067H28.5546L28.5566 15.8242Z" fill="#0E0737"/>
<path d="M29.7392 16.5812C29.7016 16.6298 29.6521 16.6677 29.5956 16.6912C29.5351 16.7165 29.4702 16.7293 29.4048 16.7289C29.3397 16.7298 29.275 16.7187 29.2139 16.6962C29.1588 16.676 29.1086 16.6443 29.0665 16.6031C29.0245 16.5619 28.9916 16.5122 28.97 16.4572C28.9466 16.3969 28.9349 16.3326 28.9356 16.2678C28.9355 16.2061 28.9468 16.1449 28.969 16.0873C28.9899 16.0327 29.0213 15.9828 29.0615 15.9406C29.1013 15.8988 29.1487 15.8652 29.2011 15.8414C29.2572 15.8164 29.3179 15.8039 29.3792 15.8048C29.4457 15.8038 29.512 15.8129 29.5759 15.8315C29.633 15.8473 29.685 15.8781 29.7264 15.9208L29.6546 16.0437C29.6202 16.012 29.5797 15.9877 29.5356 15.9723C29.493 15.9584 29.4485 15.9514 29.4038 15.9515C29.365 15.9517 29.3265 15.9594 29.2907 15.9743C29.2542 15.9892 29.2211 16.0112 29.1932 16.0391C29.1654 16.067 29.1433 16.1003 29.1284 16.1369C29.1118 16.1778 29.1035 16.2217 29.1038 16.2658C29.1032 16.3105 29.1119 16.3547 29.1293 16.3957C29.145 16.4331 29.1681 16.4668 29.1972 16.4949C29.2253 16.5225 29.2588 16.5438 29.2956 16.5574C29.3345 16.5722 29.3759 16.5796 29.4175 16.5792C29.4668 16.5801 29.5156 16.5696 29.5602 16.5484C29.6013 16.5281 29.6381 16.4998 29.6684 16.4651L29.7392 16.5812Z" fill="#0E0737"/>
<path d="M29.8184 15.8242H30.6161V15.9809H30.2954V16.7067H30.139V15.9809H29.8184V15.8242Z" fill="#0E0737"/>
<path d="M30.7852 15.8256H30.9406V15.9248C30.9751 15.8858 31.0182 15.8556 31.0665 15.8365C31.1207 15.8127 31.1794 15.8005 31.2386 15.8008C31.2964 15.7998 31.3538 15.8113 31.4068 15.8346C31.4556 15.8555 31.4992 15.887 31.5347 15.9268C31.5706 15.9678 31.598 16.0157 31.6153 16.0676C31.6546 16.187 31.6546 16.316 31.6153 16.4354C31.5949 16.4915 31.5634 16.5427 31.5229 16.5862C31.482 16.6289 31.4327 16.6627 31.3783 16.6853C31.3194 16.7101 31.2562 16.7226 31.1924 16.722C31.1467 16.7222 31.1012 16.7172 31.0566 16.7071C31.0168 16.6985 30.9788 16.6827 30.9445 16.6605V17.0939H30.7852V15.8256ZM31.1933 15.9526C31.143 15.9524 31.0933 15.9646 31.0488 15.9883C31.0074 16.0096 30.9707 16.0389 30.9406 16.0745V16.5118C30.9759 16.5357 31.0147 16.5538 31.0556 16.5653C31.0945 16.5755 31.1345 16.5805 31.1747 16.5802C31.2179 16.581 31.2608 16.5726 31.3006 16.5554C31.3379 16.5411 31.3716 16.5184 31.3989 16.489C31.4258 16.4607 31.4462 16.4269 31.4589 16.3898C31.4739 16.3486 31.4812 16.3049 31.4806 16.2609C31.4811 16.2192 31.4748 16.1776 31.4619 16.138C31.4507 16.1014 31.4319 16.0676 31.4068 16.0388C31.3819 16.0114 31.3513 15.9897 31.3173 15.9754C31.278 15.9593 31.2358 15.9515 31.1933 15.9526V15.9526Z" fill="#0E0737"/>
<path d="M31.8672 15.8242H32.0226V16.089H32.1662C32.223 16.0871 32.2796 16.0955 32.3334 16.1138C32.3734 16.1283 32.4097 16.1517 32.4396 16.1822C32.4661 16.2101 32.4854 16.2441 32.4957 16.2813C32.5072 16.3179 32.5128 16.356 32.5124 16.3944C32.5126 16.4335 32.5063 16.4724 32.4937 16.5094C32.4817 16.5467 32.4612 16.5807 32.4337 16.6086C32.4024 16.6408 32.364 16.6652 32.3216 16.6799C32.2662 16.7001 32.2074 16.7096 32.1485 16.7077H31.8672V15.8242ZM32.0226 16.2357V16.559H32.1357C32.1935 16.5647 32.2514 16.5503 32.3 16.5183C32.3162 16.5031 32.3288 16.4844 32.337 16.4637C32.3451 16.4429 32.3486 16.4206 32.3472 16.3983C32.3489 16.3758 32.3454 16.3532 32.337 16.3322C32.3287 16.3112 32.3157 16.2925 32.299 16.2774C32.2515 16.2453 32.1946 16.2306 32.1377 16.2357H32.0226ZM32.6796 15.8242H32.841V16.7067H32.6846L32.6796 15.8242Z" fill="#0E0737"/>
<path d="M33.5801 16.2496L33.9126 16.7067H33.7257L33.469 16.3498L33.2083 16.7067H33.0273L33.3588 16.2575L33.0431 15.8242H33.2339L33.4709 16.1574L33.7129 15.8242H33.8929L33.5801 16.2496Z" fill="#0E0737"/>
<path d="M19.9274 17.8001H19.4503V18.5348H19.2949V17.6523H20.0818V18.5348H19.9264L19.9274 17.8001Z" fill="#0E0737"/>
<path d="M20.9639 17.81H20.656L20.6471 17.9587C20.64 18.0611 20.6242 18.1626 20.5999 18.2622C20.5851 18.3256 20.5595 18.386 20.5242 18.4406C20.4996 18.4791 20.4634 18.5087 20.4209 18.5249C20.3806 18.5399 20.3379 18.5472 20.295 18.5467L20.2832 18.394C20.3033 18.3945 20.3232 18.3901 20.3412 18.3812C20.3681 18.3661 20.3903 18.3438 20.4052 18.3167C20.4304 18.2715 20.4496 18.2232 20.4622 18.1729C20.4816 18.0923 20.4924 18.0099 20.4947 17.927L20.5104 17.6523H21.1193V18.5348H20.9639V17.81Z" fill="#0E0737"/>
<path d="M21.4058 17.7068C21.4474 17.6807 21.4924 17.6607 21.5395 17.6473C21.5908 17.6333 21.6438 17.6263 21.6969 17.6265C21.745 17.6218 21.7935 17.6282 21.8387 17.6454C21.8839 17.6626 21.9246 17.6901 21.9576 17.7257C22.0117 17.8035 22.038 17.8975 22.0323 17.9924V18.5328H21.8858V18.4198C21.8531 18.4623 21.8105 18.4962 21.7618 18.5183C21.7131 18.5404 21.6597 18.5502 21.6064 18.5467C21.5706 18.5486 21.5347 18.5433 21.5009 18.531C21.4671 18.5187 21.4361 18.4998 21.4097 18.4753C21.3725 18.4319 21.3482 18.3789 21.3395 18.3223C21.3308 18.2656 21.3381 18.2077 21.3605 18.155C21.3764 18.1206 21.4 18.0904 21.4294 18.0668C21.4608 18.0422 21.4965 18.0237 21.5346 18.0122C21.5775 17.9997 21.6218 17.9934 21.6664 17.9934C21.7038 17.9938 21.741 17.9978 21.7776 18.0053C21.8161 18.0118 21.8525 18.0274 21.8838 18.0509C21.8842 18.0131 21.8819 17.9753 21.8769 17.9379C21.8736 17.907 21.8646 17.8771 21.8504 17.8496C21.8359 17.8253 21.8147 17.8056 21.7894 17.7931C21.7586 17.7787 21.725 17.7716 21.691 17.7723C21.645 17.7708 21.5992 17.7771 21.5553 17.7911C21.5189 17.8038 21.4834 17.819 21.4491 17.8367L21.4058 17.7068ZM21.6605 18.4009C21.7095 18.4031 21.7579 18.3899 21.7992 18.3632C21.8316 18.3422 21.8608 18.3165 21.8858 18.2869V18.1748C21.828 18.1349 21.7591 18.1144 21.6891 18.1163C21.6655 18.1163 21.642 18.1193 21.6192 18.1253C21.5979 18.1307 21.5776 18.1398 21.5592 18.152C21.5418 18.1633 21.5273 18.1786 21.5169 18.1967C21.5068 18.2166 21.5017 18.2387 21.5022 18.2611C21.5016 18.2796 21.5049 18.2979 21.5119 18.315C21.5188 18.3321 21.5293 18.3475 21.5425 18.3603C21.575 18.3889 21.6174 18.4035 21.6605 18.4009V18.4009Z" fill="#0E0737"/>
<path d="M22.1836 17.6523H22.9813V17.81H22.6597V18.5348H22.5042V17.81H22.1836V17.6523Z" fill="#0E0737"/>
<path d="M23.8603 18.4391C23.8161 18.4792 23.7637 18.5089 23.7069 18.5264C23.6501 18.5456 23.5906 18.5553 23.5308 18.5551C23.4639 18.5564 23.3973 18.5456 23.3341 18.5234C23.2788 18.5029 23.2282 18.4712 23.1856 18.4302C23.1429 18.3888 23.1094 18.3388 23.0872 18.2835C23.0649 18.2229 23.0539 18.1587 23.0547 18.0941C23.0544 18.0327 23.0643 17.9716 23.0842 17.9136C23.1036 17.8597 23.1334 17.8101 23.1718 17.7678C23.2116 17.7252 23.2599 17.6915 23.3134 17.6687C23.3759 17.6433 23.4428 17.6312 23.5101 17.633C23.5642 17.6329 23.6178 17.6427 23.6685 17.6617C23.7162 17.6807 23.76 17.7086 23.7974 17.744C23.8345 17.7803 23.8639 17.8239 23.8839 17.872C23.9061 17.9239 23.9171 17.98 23.9164 18.0366C23.917 18.0722 23.9137 18.1078 23.9065 18.1427H23.2338C23.2344 18.1805 23.2431 18.2178 23.2592 18.252C23.2753 18.2862 23.2985 18.3165 23.3272 18.341C23.3873 18.3886 23.4623 18.4132 23.5387 18.4104C23.5917 18.4111 23.6443 18.402 23.6941 18.3836C23.7355 18.3691 23.7738 18.3469 23.8072 18.3182L23.8603 18.4391ZM23.5062 17.7807C23.4345 17.776 23.3639 17.7998 23.3095 17.8472C23.2617 17.8911 23.2313 17.951 23.2239 18.0157H23.7551C23.7545 17.951 23.7287 17.889 23.6833 17.8432C23.6342 17.8005 23.5709 17.7782 23.5062 17.7807V17.7807Z" fill="#0E0737"/>
<path d="M23.9962 17.6523H24.193L24.488 18.0787L24.1674 18.5348H23.9766L24.313 18.0787L23.9962 17.6523ZM24.5313 17.6523H24.6867V18.5348H24.5313V17.6523ZM24.9011 18.0787L25.2434 18.5348H25.0467L24.7221 18.0787L25.0231 17.6523H25.2198L24.9011 18.0787Z" fill="#0E0737"/>
<path d="M26.1054 18.4381C26.0616 18.4781 26.0095 18.5079 25.953 18.5254C25.8962 18.5445 25.8368 18.5542 25.7769 18.5542C25.71 18.5553 25.6434 18.5445 25.5802 18.5224C25.5251 18.5021 25.4748 18.4704 25.4327 18.4292C25.3893 18.3884 25.3557 18.3382 25.3343 18.2825C25.3112 18.2221 25.2998 18.1578 25.3008 18.0931C25.3003 18.0316 25.3106 17.9705 25.3313 17.9126C25.3502 17.8581 25.3803 17.8081 25.4196 17.7661C25.4589 17.7241 25.5066 17.6909 25.5595 17.6687C25.622 17.6433 25.689 17.6312 25.7563 17.633C25.8103 17.6328 25.864 17.6426 25.9146 17.6617C25.9628 17.6805 26.0069 17.7084 26.0445 17.744C26.0836 17.7826 26.1143 17.829 26.1346 17.8802C26.1549 17.9315 26.1644 17.9864 26.1625 18.0415C26.1631 18.0771 26.1598 18.1127 26.1526 18.1476H25.4799C25.4808 18.1854 25.4896 18.2226 25.5057 18.2568C25.5218 18.291 25.5448 18.3213 25.5733 18.3459C25.6339 18.3934 25.7091 18.418 25.7858 18.4153C25.8387 18.416 25.8914 18.4069 25.9412 18.3886C25.9822 18.3738 26.0202 18.3516 26.0533 18.3231L26.1054 18.4381ZM25.7513 17.7797C25.6797 17.775 25.609 17.7988 25.5546 17.8462C25.5068 17.8901 25.4764 17.95 25.469 18.0147H26.0002C26.0001 17.9826 25.9937 17.9508 25.9814 17.9212C25.9691 17.8916 25.9511 17.8648 25.9284 17.8422C25.8795 17.7994 25.8161 17.777 25.7513 17.7797V17.7797Z" fill="#0E0737"/>
<path d="M26.3779 18.5329V17.6504H26.5333V18.3038L27.0389 17.6464H27.1943V18.5289H27.0379V17.8725L26.5324 18.5289L26.3779 18.5329ZM26.6445 17.1992C26.6524 17.2984 26.7015 17.3549 26.794 17.3549C26.8865 17.3549 26.9278 17.3033 26.9356 17.1992H27.0822C27.0827 17.2366 27.0756 17.2737 27.0615 17.3083C27.0484 17.3408 27.0286 17.3702 27.0035 17.3946C26.9771 17.4195 26.9465 17.4393 26.913 17.4531C26.875 17.4674 26.8346 17.4745 26.794 17.4739C26.7505 17.4746 26.7072 17.4676 26.6661 17.4531C26.6317 17.44 26.6003 17.4201 26.5737 17.3946C26.5488 17.3704 26.5297 17.3409 26.5176 17.3083C26.5043 17.2735 26.4976 17.2365 26.4979 17.1992H26.6445Z" fill="#0E0737"/>
</g>
<defs>
<clipPath id="clip0_3020_8453">
<rect width="27.8261" height="14" fill="white" transform="translate(6.08691 7)"/>
</clipPath>
</defs>
</svg>
