<svg width="40" height="28" viewBox="0 0 40 28" fill="none" xmlns="http://www.w3.org/2000/svg">
<g clip-path="url(#clip0_3020_8528)">
<path d="M27.5981 9H12.4019C9.41851 9 7 11.451 7 14.4744C7 17.4978 9.41851 19.9488 12.4019 19.9488H27.5981C30.5815 19.9488 33 17.4978 33 14.4744C33 11.451 30.5815 9 27.5981 9Z" fill="#303030"/>
<path d="M20.3599 12.8516H18.2041V16.341H19.2527V15.4023H20.3591C20.6191 15.4023 20.8723 15.3946 21.1187 15.3145C21.5963 15.1603 21.9506 14.728 21.9506 14.1416C21.9506 13.5551 21.6031 13.1297 21.1332 12.9618C20.8732 12.8662 20.6267 12.8516 20.3591 12.8516H20.3599ZM19.2535 14.5816V13.6946H20.2086C20.4109 13.6946 20.5273 13.717 20.6208 13.7532C20.7874 13.8195 20.8664 13.9728 20.8664 14.1347C20.8664 14.3104 20.772 14.4792 20.5919 14.5377C20.5052 14.567 20.4041 14.5816 20.2086 14.5816H19.2535Z" fill="white"/>
<path d="M23.4551 15.0656L23.9539 13.6585H24.0338L24.5326 15.0656H23.4551ZM23.195 15.8355H24.7867L24.9889 16.341H26.1675L24.7569 12.8516H23.2231L21.8125 16.341H22.9987L23.1942 15.8355H23.195Z" fill="white"/>
<path d="M28.7195 12.8516L27.8664 14.4421H27.8298L26.969 12.8516H25.7471L27.3021 15.4169V16.341H28.3873V15.3291L29.8633 12.8516H28.7195Z" fill="white"/>
<path d="M10.1377 11.8203H15.9637V14.7896C15.9637 15.5508 15.5626 16.2544 14.9125 16.635L13.0507 17.7244L11.1888 16.635C10.5379 16.2544 10.1377 15.5508 10.1377 14.7896V11.8203Z" fill="#FFDD2D"/>
<path fill-rule="evenodd" clip-rule="evenodd" d="M11.7352 13.3789V14.3021C11.8601 14.1591 12.0862 14.0627 12.3453 14.0627H12.6266V15.1365C12.6266 15.4224 12.5501 15.6722 12.4363 15.8099H13.6608C13.5478 15.6722 13.4713 15.4224 13.4713 15.1374V14.0635H13.7525C14.0117 14.0635 14.2386 14.16 14.3627 14.3029V13.3798H11.7344L11.7352 13.3789Z" fill="#333333"/>
</g>
<defs>
<clipPath id="clip0_3020_8528">
<rect width="26" height="11" fill="white" transform="translate(7 9)"/>
</clipPath>
</defs>
</svg>
