<svg width="40" height="28" viewBox="0 0 40 28" fill="none" xmlns="http://www.w3.org/2000/svg">
<path d="M25.3446 5.83301C29.6515 5.83319 33.1425 9.43902 33.1425 13.8867C33.1423 18.3343 29.6514 21.9402 25.3446 21.9404C23.4133 21.9404 21.6471 21.2135 20.285 20.0127C18.9231 21.213 17.1582 21.9404 15.2274 21.9404C10.9204 21.9404 7.42871 18.3344 7.42859 13.8867C7.42859 9.4389 10.9204 5.83301 15.2274 5.83301C17.1579 5.83307 18.9232 6.55889 20.285 7.75879C21.647 6.55842 23.4137 5.83301 25.3446 5.83301Z" fill="#ED0006"/>
<path d="M25.3444 5.83301C29.6514 5.83304 33.1432 9.43892 33.1432 13.8867C33.1431 18.3344 29.6513 21.9404 25.3444 21.9404C23.4133 21.9404 21.6478 21.2132 20.2858 20.0127C21.9615 18.5356 23.0259 16.3403 23.026 13.8867C23.026 11.4327 21.962 9.23594 20.2858 7.75879C21.6477 6.55863 23.4136 5.83301 25.3444 5.83301Z" fill="#F9A000"/>
<path d="M20.285 7.75879C21.9615 9.23594 23.0262 11.4325 23.0262 13.8867C23.0262 16.3404 21.961 18.5356 20.285 20.0127C18.6095 18.5356 17.5459 16.34 17.5458 13.8867C17.5458 11.433 18.6091 9.23594 20.285 7.75879Z" fill="#FF5E00"/>
</svg>
