<svg width="40" height="28" viewBox="0 0 40 28" fill="none" xmlns="http://www.w3.org/2000/svg">
<path fill-rule="evenodd" clip-rule="evenodd" d="M15.3545 15.553C14.7372 15.553 14.2346 15.0436 14.2346 14.4068C14.2346 13.77 14.7284 13.2515 15.3457 13.2515C15.963 13.2515 16.4656 13.7609 16.4656 14.3977C16.4656 15.0345 15.963 15.553 15.3545 15.553ZM15.3545 12.0234C14.0847 12.0234 13.0441 13.0878 13.0441 14.3977C13.0441 15.7077 14.067 16.772 15.3369 16.7811C16.0159 16.7811 16.6684 16.4718 17.1005 15.9351C16.9506 16.2262 16.7302 16.4718 16.4744 16.6264V16.7447H17.6385V14.3886C17.6385 13.0878 16.6155 12.0325 15.3545 12.0234ZM26.4039 15.5803H24.8871V14.8071H26.3774C26.5626 14.8071 26.7831 14.989 26.7831 15.1891C26.7743 15.3438 26.6596 15.5803 26.4039 15.5803ZM24.8871 13.2333H26.157C26.2981 13.2333 26.5185 13.3789 26.5185 13.6154C26.5185 13.8064 26.3686 14.0065 26.1129 14.0065H24.8783L24.8871 13.2333ZM27.4356 14.2612C27.709 13.8246 27.7355 13.2333 27.4885 12.7967C27.2328 12.3509 26.7743 12.078 26.2716 12.0689H23.7231V16.7447H26.5714C27.4621 16.7447 27.9647 15.9806 27.9647 15.3438C27.9647 14.7252 27.6208 14.4159 27.4356 14.2612ZM22.5679 13.7882C22.9471 14.8525 22.9735 15.8168 22.9735 16.7447H21.7919C21.7919 15.9987 21.7654 15.3165 21.6155 14.6979C21.4127 13.8701 21.0335 13.2697 20.6808 13.2697C20.328 13.2697 19.9489 13.8701 19.746 14.6979C19.5961 15.3165 19.5697 15.9806 19.5697 16.7447H18.388C18.388 15.9078 18.4056 14.8525 18.7937 13.7882C19.1464 12.7967 19.8166 12.0234 20.6896 12.0234C21.5626 12.0234 22.2152 12.7967 22.5679 13.7882ZM11.4127 12.0689H12.5944V12.5602C12.5944 13.2788 12.2857 13.952 11.739 14.4068C12.2769 14.8616 12.5944 15.5348 12.5944 16.2535V16.7447H11.4127V16.1261C11.4127 15.4893 10.91 14.9799 10.3016 14.9799C9.6843 14.9799 9.19048 15.4984 9.19048 16.1261V16.7447H8V16.2535C8 15.5348 8.30864 14.8616 8.85538 14.4068C8.31746 13.952 8 13.2788 8 12.5602V12.0689H9.18166V12.6875C9.18166 13.3243 9.6843 13.8337 10.2928 13.8337C10.91 13.8337 11.4039 13.3152 11.4039 12.6875L11.4127 12.0689ZM30.7072 15.553C30.09 15.553 29.5873 15.0436 29.5873 14.4068C29.5873 13.77 30.0811 13.2515 30.6984 13.2515C31.3157 13.2515 31.8184 13.7609 31.8184 14.3977C31.8184 15.0345 31.3157 15.553 30.7072 15.553ZM33 14.3886C32.9911 13.0787 31.9595 12.0234 30.6896 12.0325C29.4198 12.0416 28.3968 13.106 28.4056 14.4159C28.4145 15.7258 29.4462 16.7811 30.716 16.772C31.395 16.772 32.03 16.4536 32.462 15.926C32.3123 16.2171 32.0918 16.4627 31.8359 16.6173V16.7356H33V14.3886Z" fill="black"/>
</svg>
