<svg width="40" height="28" viewBox="0 0 40 28" fill="none" xmlns="http://www.w3.org/2000/svg">
<g clip-path="url(#clip0_3020_8540)">
<path fill-rule="evenodd" clip-rule="evenodd" d="M13.8195 10.5V10.5034C13.8159 10.5034 12.6986 10.5 12.4007 11.5351C12.1275 12.4842 11.3578 15.1046 11.3366 15.1769H11.1237C11.1237 15.1769 10.3363 12.498 10.0596 11.5317C9.76166 10.4966 8.64079 10.5 8.64079 10.5H6.08691V18.375H8.64079V13.6981H8.7472H8.85361L10.3434 18.375H12.1169L13.6067 13.7016H13.8195V18.375H16.3734V10.5H13.8195Z" fill="#4DB45E"/>
<path fill-rule="evenodd" clip-rule="evenodd" d="M23.1479 10.5C23.1479 10.5 22.3995 10.5653 22.0484 11.3253L20.2394 15.1769H20.0265V10.5H17.4727V18.375H19.8847C19.8847 18.375 20.6686 18.3062 21.0197 17.5497L22.7932 13.6981H23.0061V18.375H25.5599V10.5H23.1479Z" fill="#4DB45E"/>
<path fill-rule="evenodd" clip-rule="evenodd" d="M26.6953 14.0781V18.3767H29.2492V15.8663H32.0159C33.2219 15.8663 34.2434 15.1201 34.623 14.0781H26.6953Z" fill="#4DB45E"/>
<path fill-rule="evenodd" clip-rule="evenodd" d="M32.0159 10.5H26.337C26.6208 11.9993 27.7807 13.2029 29.2811 13.595C29.6216 13.6844 29.9799 13.7325 30.3488 13.7325H34.7258C34.7648 13.5537 34.7826 13.3715 34.7826 13.1823C34.7826 11.7002 33.5446 10.5 32.0159 10.5Z" fill="url(#paint0_linear_3020_8540)"/>
</g>
<defs>
<linearGradient id="paint0_linear_3020_8540" x1="26.3377" y1="12.1163" x2="34.7826" y2="12.1163" gradientUnits="userSpaceOnUse">
<stop offset="0.3" stop-color="#00B4E6"/>
<stop offset="1" stop-color="#088CCB"/>
</linearGradient>
<clipPath id="clip0_3020_8540">
<rect width="28.6957" height="7.875" fill="white" transform="translate(6.08691 10.5)"/>
</clipPath>
</defs>
</svg>
