<svg width="40" height="28" viewBox="0 0 40 28" fill="none" xmlns="http://www.w3.org/2000/svg">
<path d="M19.5057 5.25C23.9737 5.2501 27.5828 8.93404 27.5829 13.4951C27.5829 15.0299 27.1529 16.4772 26.4657 17.7051C26.4228 17.7489 26.3799 17.7494 26.3798 17.6621C26.079 15.6447 24.8756 14.5481 23.1571 14.1973C22.9855 14.1534 22.9856 14.0655 23.2001 14.0654C23.7586 14.0216 24.4892 14.0217 24.9188 14.1094C24.9618 13.8901 24.9618 13.6705 24.9618 13.4951C24.9617 10.5129 22.556 8.05676 19.6346 8.05664C16.7132 8.05664 14.3076 10.5129 14.3075 13.4951C14.3075 16.4774 16.7132 18.9336 19.6346 18.9336H19.8925C19.8065 18.4512 19.7636 17.9687 19.8065 17.4424C19.8065 17.0916 19.8925 17.0476 20.0214 17.3105C20.7517 18.6262 21.8255 19.7666 23.8876 20.249C25.5631 20.6437 27.2385 21.0828 29.0858 23.4072C29.2577 23.6265 28.9999 23.8454 28.828 23.6699C26.9808 22.0036 25.3052 21.4336 23.7587 21.4336C21.8256 21.4775 20.6656 21.6963 19.5057 21.6963C15.0376 21.6963 11.4286 18.0125 11.4286 13.4951C11.4287 8.97783 15.0377 5.25 19.5057 5.25ZM23.5868 18.2314C23.7586 18.2314 23.9735 18.3197 24.1884 18.4951C24.532 18.8021 24.6609 19.1528 24.4891 19.416C24.4032 19.5476 24.1883 19.6357 24.0165 19.6357C23.8017 19.6357 23.5868 19.5476 23.4579 19.416C23.1143 19.109 23.0283 18.6704 23.243 18.4072C23.286 18.3195 23.415 18.2315 23.5868 18.2314ZM24.9618 16.96C25.0907 16.8723 25.2196 16.8282 25.3485 16.8721C25.6492 17.0037 25.7782 17.4428 25.7782 17.6621C25.8211 18.0127 25.7351 18.1883 25.6063 18.1885C25.4775 18.1885 25.3054 18.0568 25.1337 17.75C24.9618 17.443 24.8759 17.1354 24.9618 16.96Z" fill="#F28A1A"/>
</svg>
