<svg width="40" height="28" viewBox="0 0 40 28" fill="none" xmlns="http://www.w3.org/2000/svg">
<g clip-path="url(#clip0_3020_8564)">
<path d="M20.5082 12.6892C20.4913 14.0245 21.6934 14.7698 22.5989 15.2128C23.5294 15.6675 23.8419 15.959 23.8383 16.3655C23.8312 16.9877 23.0961 17.2622 22.4081 17.2729C21.2078 17.2917 20.51 16.9476 19.9551 16.6873L19.5228 18.7189C20.0794 18.9765 21.1101 19.2011 22.179 19.2109C24.6879 19.2109 26.3294 17.9674 26.3383 16.0392C26.3481 13.5922 22.9674 13.4567 22.9905 12.3629C22.9985 12.0313 23.3136 11.6774 24.0043 11.5873C24.3461 11.5419 25.2898 11.5071 26.3596 12.0019L26.7796 10.0362C26.2043 9.82585 25.4647 9.62439 24.5441 9.62439C22.1826 9.62439 20.5215 10.8849 20.5082 12.6892ZM30.8146 9.79376C30.3565 9.79376 29.9703 10.0621 29.798 10.4739L26.214 19.0665H28.7212L29.2201 17.6821H32.2839L32.5733 19.0665H34.783L32.8547 9.79376H30.8146ZM31.1652 12.2987L31.8888 15.7807H29.9072L31.1652 12.2987ZM17.4684 9.79376L15.4922 19.0665H17.8812L19.8566 9.79376H17.4684ZM13.9341 9.79376L11.4474 16.1052L10.4415 10.7387C10.3235 10.1396 9.85737 9.79376 9.33979 9.79376H5.27459L5.21777 10.063C6.0523 10.2448 7.00046 10.5381 7.57486 10.8519C7.92642 11.0436 8.02674 11.2112 8.14216 11.6667L10.0474 19.0665H12.5722L16.443 9.79376H13.9341Z" fill="url(#paint0_linear_3020_8564)"/>
</g>
<defs>
<linearGradient id="paint0_linear_3020_8564" x1="18.8101" y1="19.4033" x2="19.0888" y2="9.55779" gradientUnits="userSpaceOnUse">
<stop stop-color="#222357"/>
<stop offset="1" stop-color="#254AA5"/>
</linearGradient>
<clipPath id="clip0_3020_8564">
<rect width="29.5652" height="9.625" fill="white" transform="translate(5.21777 9.625)"/>
</clipPath>
</defs>
</svg>
