<svg width="40" height="28" viewBox="0 0 40 28" fill="none" xmlns="http://www.w3.org/2000/svg">
<path d="M17.1369 18.432H15.6969V16.928H17.1369V15.936H15.6969V14.272H17.1369V8.8H20.8969C22.2409 8.8 23.2542 9.12533 23.9369 9.776C24.6302 10.416 24.9769 11.28 24.9769 12.368C24.9769 13.456 24.6302 14.3253 23.9369 14.976C23.2542 15.616 22.2409 15.936 20.8969 15.936H19.0569V16.928H22.7369V18.432H19.0569V20H17.1369V18.432ZM20.7369 14.272C21.5902 14.272 22.1875 14.1173 22.5289 13.808C22.8809 13.488 23.0569 13.008 23.0569 12.368C23.0569 11.728 22.8809 11.2533 22.5289 10.944C22.1875 10.624 21.5902 10.464 20.7369 10.464H19.0569V14.272H20.7369Z" fill="#1F2226"/>
</svg>
