<svg width="635" height="433" viewBox="0 0 635 433" fill="none" xmlns="http://www.w3.org/2000/svg">
<rect width="635" height="433" fill="#2595FF"/>
<path d="M511 26L513.431 32.5692L520 35L513.431 37.4308L511 44L508.569 37.4308L502 35L508.569 32.5692L511 26Z" fill="#FAFCFF"/>
<path d="M89 132L91.4308 138.569L98 141L91.4308 143.431L89 150L86.5692 143.431L80 141L86.5692 138.569L89 132Z" fill="#FAFCFF"/>
<path d="M492 55L493.621 59.3795L498 61L493.621 62.6205L492 67L490.379 62.6205L486 61L490.379 59.3795L492 55Z" fill="#F9FCFF"/>
<path d="M587 233L588.621 237.379L593 239L588.621 240.621L587 245L585.379 240.621L581 239L585.379 237.379L587 233Z" fill="#F9FCFF"/>
<mask id="mask0_966_25869" style="mask-type:alpha" maskUnits="userSpaceOnUse" x="0" y="0" width="635" height="433">
<path d="M0 30C0 13.4315 13.4315 0 30 0H605C621.569 0 635 13.4315 635 30V403C635 419.569 621.569 433 605 433H30C13.4314 433 0 419.569 0 403V30Z" fill="#2595FF"/>
</mask>
<g mask="url(#mask0_966_25869)">
<mask id="mask1_966_25869" style="mask-type:alpha" maskUnits="userSpaceOnUse" x="-38" y="86" width="693" height="693">
<path d="M642.853 522.039C593.421 706.519 403.798 815.998 219.318 766.567C34.837 717.135 -74.642 527.512 -25.2106 343.032C24.2209 158.551 213.844 49.0721 398.325 98.5035C582.805 147.935 692.284 337.558 642.853 522.039Z" fill="#D9D9D9"/>
</mask>
<g mask="url(#mask1_966_25869)">
<path fill-rule="evenodd" clip-rule="evenodd" d="M172.222 24.9344C216.186 36.1747 200.529 112.352 286.672 196.424C351.506 259.695 426.36 292.737 503.059 306.536C654.146 333.724 694.447 290.838 786.646 330.392C851.936 358.405 942.707 427.547 945.689 504.679C951.479 654.59 626.885 866.334 329.583 810.022C187.451 783.091 -23.6293 680.646 -65.4821 479.599C-114.571 243.652 97.2602 5.76079 172.222 24.9344Z" fill="url(#paint0_linear_966_25869)"/>
<g style="mix-blend-mode:lighten">
<path fill-rule="evenodd" clip-rule="evenodd" d="M172.222 24.9344C216.186 36.1747 200.529 112.352 286.672 196.424C351.506 259.695 426.36 292.737 503.059 306.536C654.146 333.724 694.447 290.838 786.646 330.392C851.936 358.405 942.707 427.547 945.689 504.679C951.479 654.59 626.885 866.334 329.583 810.022C187.451 783.091 -23.6293 680.646 -65.4821 479.599C-114.571 243.652 97.2602 5.76079 172.222 24.9344Z" fill="url(#paint1_radial_966_25869)"/>
</g>
<path fill-rule="evenodd" clip-rule="evenodd" d="M-26.2324 191.673C-13.0534 210.551 58.4499 144.122 138.732 159.522C235.773 178.152 202.729 279.344 317.372 326.695C404.504 362.69 459.873 339.096 534.425 371.224C673.331 431.108 644.52 637.155 759.688 668.496C828.684 687.279 900.39 623.511 931.313 595.985C998.525 536.193 1054.97 431.342 1033.51 328.171C1007.17 201.548 877.041 142.695 782.792 100.072C685.992 56.293 563.331 53.4843 318.057 47.8476C189.125 44.8815 92.6768 49.4044 20.8406 114.786C-7.63723 140.745 -35.1494 178.892 -26.2324 191.673Z" fill="url(#paint2_linear_966_25869)"/>
<g filter="url(#filter0_i_966_25869)">
<path d="M-222.636 452.971C-225.69 371.245 -117.149 283.583 -31.2629 295.95C47.5183 307.301 46.2891 394.003 147.602 428.077C246.181 461.226 290.306 393.608 383.221 427.39C481.26 463.026 469.224 551.798 564.677 582.474C660.583 613.294 728.564 541.593 776.459 574.861C826.918 609.899 821.359 737.952 751.526 812.36C616.316 956.433 235.582 904.263 50.3879 762.161C17.9245 737.26 -28.4042 689.195 -121.042 593.068C-206.837 504.064 -221.542 481.769 -222.636 452.971Z" fill="#1383FE" fill-opacity="0.42"/>
<path d="M-222.636 452.971C-225.69 371.245 -117.149 283.583 -31.2629 295.95C47.5183 307.301 46.2891 394.003 147.602 428.077C246.181 461.226 290.306 393.608 383.221 427.39C481.26 463.026 469.224 551.798 564.677 582.474C660.583 613.294 728.564 541.593 776.459 574.861C826.918 609.899 821.359 737.952 751.526 812.36C616.316 956.433 235.582 904.263 50.3879 762.161C17.9245 737.26 -28.4042 689.195 -121.042 593.068C-206.837 504.064 -221.542 481.769 -222.636 452.971Z" fill="url(#paint3_linear_966_25869)" fill-opacity="0.2"/>
</g>
<g filter="url(#filter1_d_966_25869)">
<path d="M640.897 309.202C633.82 316.649 624.607 320.241 612.5 315.13C596.825 308.501 598.579 285.109 588.022 279.735C555.121 263.002 586.238 353.445 555.004 353.358C534.913 353.299 542.195 324.738 542.926 313.144C544.389 289.811 535.995 289.781 525.409 270.711C516.343 254.474 520.817 247.086 498.386 239.23C476.833 231.666 467.24 240.573 452.179 255.058C456.391 269.164 479.172 276.698 477.184 293.812C475.253 310.574 452.296 319.978 438.376 315.072C425.596 310.574 418.226 294.454 405.534 289.898C386.758 283.24 371.96 294.6 386.671 312.765C395.064 323.161 411.149 325.235 418.635 338.23C422.203 344.451 417.115 351.255 423.285 357.184C428.198 361.885 438.229 359.491 443.757 361.915C458.876 368.485 462.444 376.575 459.666 394.331C456.449 414.89 446.418 414.686 434.428 428.645C417.758 448.007 428.432 456.359 436.972 475.517C444.926 493.331 443.552 516.899 437.966 535.443C432.351 554.133 413.166 562.807 405.797 579.92C399.158 595.398 405.738 620.63 393.485 634.064C380.675 648.111 354.764 642.066 341.487 631.669C326.748 620.075 326.221 600.684 316.483 585.703C305.136 568.21 285.6 553.783 278.113 533.545C272.177 517.57 276.856 494.791 252.904 492.601C247.494 482.088 253.782 469.735 250.623 458.17C245.71 440.151 239.247 445.408 225.94 438.75C215.851 433.697 211.844 422.921 198.45 423.242C180.728 423.651 173.621 444.649 157.595 448.591C96.122 463.806 105.276 366.003 114.546 334.521C124.548 300.558 157.946 261.016 192.543 259.03C209.622 258.037 220.822 252.956 237.083 256.664C249.804 259.585 265.509 272.113 279.663 266.36C288.408 262.826 289.226 252.897 297.093 249.363C303.79 246.355 310.575 249.743 318.384 249.393C333.942 248.721 359.882 234.353 335.784 226.176C328.005 223.518 320.343 231.462 312.944 227.694C308.294 225.329 310.137 215.575 304.434 212.684C287.676 204.273 288.027 231.841 268.462 221.912C261.473 218.349 266.211 207.281 254.483 206.755C245.739 206.346 243.692 217.911 236.673 219.985C229.45 222.116 220.296 217.385 211.903 219.809C205.089 221.737 199.21 229.359 192.66 232.016C178.71 237.653 158.677 241.449 164.935 222.35C169.673 207.865 195.204 200.769 205.615 190.839C217.81 179.216 222.197 177.873 238.574 171.594C252.056 166.454 269.106 160.38 259.952 143.383C253.197 142.215 245.008 142.419 238.925 144.843C232.023 147.589 235.679 162.804 223.425 155.182C207.341 145.135 234.772 131.322 241.031 126.095C251.617 117.246 256.209 107.346 271.913 110.179C284.664 112.486 287.735 128.431 302.591 121.48C300.924 109.565 291.566 94.7882 288.7 81.2085C296.216 80.6828 303.82 80.4492 311.482 80.4492C462.532 80.4492 591.268 175.624 640.897 309.202Z" fill="url(#paint4_linear_966_25869)"/>
</g>
<path d="M97.789 681.93C93.7532 687.391 88.3428 692.326 81.9674 696.707C7.42209 632.4 -39.75 537.313 -39.75 431.216C-39.75 388.257 -32.0293 347.08 -17.8455 309.057C-9.51073 314.284 -2.66741 321.673 0.958961 330.93C8.21171 349.416 -7.22962 373.947 4.29288 390.623C12.1305 401.954 24.3549 397.193 33.918 405.429C45.3528 415.241 39.9717 426.164 43.8905 438.75C49.681 457.411 57.5772 451.396 68.2808 463.836C77.6392 474.729 70.5034 487.258 74.3638 498.735C81.0024 518.272 114.868 532.874 103.17 558.31C72.5213 558.515 87.9042 592.333 95.3324 606.993C105.714 627.465 113.084 661.253 97.789 681.93Z" fill="url(#paint5_linear_966_25869)"/>
<path d="M204.212 112.133C199.884 131.641 186.548 133.247 172.803 142.505C152.829 156.026 165.024 166.189 154.349 182.222C146.687 193.787 129.579 192.56 120.542 201C107.996 212.652 115.103 227.459 105.042 239.607C94.1049 252.837 75.0372 252.486 66.3807 238.089C53.045 236.161 45.763 254.005 31.8716 257.13C23.2151 259.086 14.7341 258.648 6.86719 256.458C50.2082 181.288 120.601 123.698 204.826 96.9473C205.616 101.474 205.44 106.497 204.212 112.133Z" fill="url(#paint6_linear_966_25869)"/>
</g>
</g>
<defs>
<filter id="filter0_i_966_25869" x="-269.699" y="294.777" width="1079.53" height="617.159" filterUnits="userSpaceOnUse" color-interpolation-filters="sRGB">
<feFlood flood-opacity="0" result="BackgroundImageFix"/>
<feBlend mode="normal" in="SourceGraphic" in2="BackgroundImageFix" result="shape"/>
<feColorMatrix in="SourceAlpha" type="matrix" values="0 0 0 0 0 0 0 0 0 0 0 0 0 0 0 0 0 0 127 0" result="hardAlpha"/>
<feOffset dx="-61" dy="14"/>
<feGaussianBlur stdDeviation="23.5"/>
<feComposite in2="hardAlpha" operator="arithmetic" k2="-1" k3="1"/>
<feColorMatrix type="matrix" values="0 0 0 0 0 0 0 0 0 1 0 0 0 0 1 0 0 0 0.73 0"/>
<feBlend mode="normal" in2="shape" result="effect1_innerShadow_966_25869"/>
</filter>
<filter id="filter1_d_966_25869" x="58.8691" y="35.4492" width="631.027" height="659.848" filterUnits="userSpaceOnUse" color-interpolation-filters="sRGB">
<feFlood flood-opacity="0" result="BackgroundImageFix"/>
<feColorMatrix in="SourceAlpha" type="matrix" values="0 0 0 0 0 0 0 0 0 0 0 0 0 0 0 0 0 0 127 0" result="hardAlpha"/>
<feOffset dy="4"/>
<feGaussianBlur stdDeviation="24.5"/>
<feComposite in2="hardAlpha" operator="out"/>
<feColorMatrix type="matrix" values="0 0 0 0 0.0666667 0 0 0 0 0.101961 0 0 0 0 1 0 0 0 0.19 0"/>
<feBlend mode="normal" in2="BackgroundImageFix" result="effect1_dropShadow_966_25869"/>
<feBlend mode="normal" in="SourceGraphic" in2="effect1_dropShadow_966_25869" result="shape"/>
</filter>
<linearGradient id="paint0_linear_966_25869" x1="185.044" y1="71.4643" x2="613.306" y2="402.27" gradientUnits="userSpaceOnUse">
<stop offset="0.0187499" stop-color="#02E1FF"/>
<stop offset="1" stop-color="#101AFF"/>
</linearGradient>
<radialGradient id="paint1_radial_966_25869" cx="0" cy="0" r="1" gradientUnits="userSpaceOnUse" gradientTransform="translate(144.63 105.946) rotate(79.1375) scale(352.118 448.504)">
<stop offset="0.0187499" stop-color="#02FFE1"/>
<stop offset="1" stop-color="#1C47FC" stop-opacity="0"/>
</radialGradient>
<linearGradient id="paint2_linear_966_25869" x1="582.367" y1="419.508" x2="-97.5418" y2="56.3509" gradientUnits="userSpaceOnUse">
<stop offset="0.182972" stop-color="#0057FF"/>
<stop offset="0.945628" stop-color="#1DFFF1"/>
</linearGradient>
<linearGradient id="paint3_linear_966_25869" x1="482.484" y1="501.083" x2="153.293" y2="678.464" gradientUnits="userSpaceOnUse">
<stop stop-color="#23FBB2"/>
<stop offset="1" stop-color="#1383FE"/>
</linearGradient>
<linearGradient id="paint4_linear_966_25869" x1="355.911" y1="92.6281" x2="543.721" y2="466.238" gradientUnits="userSpaceOnUse">
<stop offset="0.201042" stop-color="#00CAFF"/>
<stop offset="1" stop-color="#06FCDF"/>
</linearGradient>
<linearGradient id="paint5_linear_966_25869" x1="33.3883" y1="309.057" x2="33.3883" y2="696.707" gradientUnits="userSpaceOnUse">
<stop stop-color="#48FAC9"/>
<stop offset="1" stop-color="#3A98FF"/>
</linearGradient>
<linearGradient id="paint6_linear_966_25869" x1="106.086" y1="96.9473" x2="106.086" y2="258.377" gradientUnits="userSpaceOnUse">
<stop stop-color="#00CAFF"/>
<stop offset="1" stop-color="#06F5E2"/>
</linearGradient>
</defs>
</svg>
