<svg width="734" height="433" viewBox="0 0 734 433" fill="none" xmlns="http://www.w3.org/2000/svg">
<g clip-path="url(#clip0_969_29569)">
<rect x="-33" width="781" height="433" fill="#2595FF"/>
<path d="M352 55L353.621 59.3795L358 61L353.621 62.6205L352 67L350.379 62.6205L346 61L350.379 59.3795L352 55Z" fill="#F9FCFF"/>
<path d="M594 330L595.621 334.379L600 336L595.621 337.621L594 342L592.379 337.621L588 336L592.379 334.379L594 330Z" fill="#F9FCFF"/>
<mask id="mask0_969_29569" style="mask-type:alpha" maskUnits="userSpaceOnUse" x="-70" y="0" width="855" height="433">
<path d="M-70 30C-70 13.4315 -51.9151 0 -29.6063 0H744.606C766.915 0 785 13.4315 785 30V403C785 419.569 766.915 433 744.606 433H-29.6063C-51.9151 433 -70 419.569 -70 403V30Z" fill="#2595FF"/>
</mask>
<g mask="url(#mask0_969_29569)">
<g opacity="0.55" filter="url(#filter0_f_969_29569)">
<path d="M43.7668 377.084C36.9434 374.124 33.2018 369.656 32.6871 364.798C33.2828 370.424 33.9139 376.04 34.5403 381.669C35.0744 386.538 38.8327 390.992 45.6401 393.971L247.256 481.593L245.422 464.726L43.7668 377.084Z" fill="#A2C4E7"/>
</g>
<g opacity="0.55" filter="url(#filter1_f_969_29569)">
<path d="M726.535 129.006C726.528 129.317 726.565 129.646 726.564 129.956C726.537 130.257 726.471 130.586 726.428 130.9C726.369 131.186 726.333 131.512 726.266 131.829C726.195 132.122 726.094 132.407 726.01 132.69C725.916 133.034 725.802 133.375 725.661 133.737C725.561 133.979 725.427 134.243 725.31 134.499C725.113 134.904 724.917 135.321 724.677 135.73C724.521 135.961 724.367 136.209 724.224 136.45C723.865 136.982 723.458 137.52 723.031 138.048C722.871 138.248 722.714 138.472 722.514 138.689C722.266 138.966 721.988 139.253 721.687 139.542C721.402 139.817 721.107 140.118 720.799 140.401C720.465 140.731 720.075 141.036 719.7 141.327C719.348 141.653 718.987 141.955 718.582 142.243L291.326 459.517C289.994 460.482 288.543 461.351 287.028 462.154C286.633 462.363 286.221 462.598 285.817 462.783C284.864 463.231 283.861 463.655 282.866 464.053C281.835 464.455 280.807 464.875 279.722 465.223C278.455 465.634 277.167 466.016 275.856 466.311C275.544 466.401 275.229 466.516 274.885 466.597C273.129 466.978 271.332 467.267 269.505 467.511C269.188 467.559 268.894 467.592 268.582 467.628C266.785 467.819 264.989 467.902 263.186 467.924C262.911 467.913 262.633 467.926 262.375 467.907C260.55 467.896 258.777 467.818 257.02 467.604C256.727 467.595 256.41 467.534 256.127 467.505C254.522 467.293 252.977 467.013 251.434 466.653C251.176 466.579 250.888 466.552 250.604 466.462C248.782 466.001 247.036 465.404 245.413 464.708L247.247 481.576C248.831 482.24 250.468 482.794 252.193 483.26C252.288 483.286 252.368 483.295 252.456 483.328C252.744 483.398 253.071 483.44 253.385 483.526C254.347 483.751 255.29 483.971 256.272 484.157C256.82 484.217 257.399 484.285 257.954 484.355C258.263 484.399 258.578 484.442 258.906 484.49C259.195 484.518 259.455 484.561 259.742 484.577C260.836 484.678 261.933 484.754 263.012 484.777C263.439 484.789 263.825 484.763 264.229 484.784C264.509 484.789 264.782 484.782 265.066 484.768C265.47 484.789 265.845 484.777 266.234 484.775C267.306 484.733 268.387 484.671 269.46 484.592C269.803 484.553 270.185 484.491 270.503 484.455C270.785 484.423 271.037 484.394 271.325 484.362C271.806 484.307 272.3 484.269 272.796 484.195C273.993 484.023 275.172 483.804 276.359 483.548C276.499 483.502 276.633 483.45 276.795 483.432C277.103 483.354 277.387 483.286 277.674 483.186C278.617 482.982 279.554 482.773 280.448 482.507C281.188 482.272 281.874 481.999 282.546 481.759C282.748 481.718 282.926 481.674 283.099 481.593C284.234 481.198 285.344 480.75 286.43 480.25C286.872 480.067 287.27 479.827 287.706 479.596C288.092 479.406 288.508 479.213 288.885 479.001C290.415 478.177 291.856 477.316 293.168 476.342L720.444 159.083C720.578 158.983 720.701 158.884 720.819 158.798C721.058 158.601 721.267 158.407 721.506 158.21C721.918 157.872 722.307 157.555 722.677 157.221C722.953 156.978 723.201 156.695 723.452 156.447C723.768 156.12 724.111 155.82 724.406 155.471C724.441 155.407 724.522 155.367 724.55 155.297C724.675 155.162 724.734 155.045 724.855 154.929C725.29 154.369 725.704 153.788 726.07 153.261C726.154 153.142 726.255 153.015 726.322 152.905C726.4 152.793 726.429 152.674 726.541 152.588C726.734 152.142 726.972 151.726 727.15 151.311C727.212 151.159 727.361 150.972 727.403 150.809C727.449 150.731 727.456 150.633 727.498 150.574C727.639 150.206 727.767 149.833 727.87 149.457C727.942 149.285 728.027 149.075 728.065 148.871C728.089 148.813 728.08 148.729 728.08 148.729C728.186 148.329 728.225 147.972 728.294 147.618C728.318 147.403 728.384 147.183 728.392 146.982C728.397 146.921 728.392 146.873 728.404 146.817C728.422 146.444 728.399 146.077 728.381 145.708C728.375 145.491 728.414 145.304 728.392 145.106C728.38 144.998 728.38 144.889 728.373 144.835C727.736 139.22 727.127 133.583 726.489 127.955C726.536 128.32 726.532 128.661 726.535 129.006Z" fill="#A2C4E7"/>
</g>
<path d="M272.067 482.527C272.295 482.501 272.515 482.464 272.761 482.43C273.957 482.258 275.198 482.044 276.442 481.757L276.756 481.679L276.96 481.656L277.075 481.601C277.413 481.526 277.707 481.438 278.023 481.329C278.773 481.19 279.744 480.952 280.686 480.681C281.337 480.474 281.868 480.28 282.383 480.1L282.979 479.887C283.134 479.857 283.429 479.775 283.7 479.647C284.718 479.301 285.928 478.818 287.089 478.279C287.409 478.152 287.827 477.922 288.256 477.686L288.519 477.534C288.819 477.397 289.303 477.16 289.756 476.92C291.584 475.93 293.06 475.01 294.333 474.064L720.509 157.938C720.868 157.667 721.05 157.507 721.231 157.334L721.576 157.047C721.955 156.742 722.328 156.439 722.691 156.107C722.918 155.911 723.147 155.672 723.358 155.442L723.839 154.969C724.096 154.715 724.347 154.462 724.571 154.188L724.744 154.047C724.744 154.047 725.03 153.674 725.081 153.589C725.662 152.868 726.113 152.24 726.509 151.655L726.767 151.298L726.951 151.156L727.227 150.535C727.227 150.535 727.736 149.5 727.848 149.251C727.885 149.204 728.003 149.015 728.112 148.735L728.249 148.392C728.415 147.985 728.556 147.562 728.684 147.135C728.742 146.952 728.812 146.762 728.863 146.574L729.075 146.083L729.051 145.758C729.089 145.559 729.203 144.848 729.203 144.848C729.279 144.451 729.33 144.148 729.333 143.856C729.361 143.294 729.357 142.827 729.328 142.363C729.351 142.136 729.351 141.869 729.321 141.605L727.841 126.416L721.83 125.094C721.854 125.304 721.849 125.529 721.844 125.754C721.844 125.754 721.868 126.498 721.869 126.62L721.754 127.325L721.653 127.931C721.597 128.186 721.54 128.326 721.501 128.47C721.35 128.961 721.288 129.217 721.173 129.491C721.114 129.607 721.027 129.805 720.921 129.999C720.72 130.423 720.574 130.749 720.395 131.048L719.962 131.729C719.703 132.128 719.348 132.587 718.974 133.043L718.501 133.643C718.361 133.804 718.131 134.031 717.89 134.264L717.617 134.538C717.432 134.723 717.236 134.927 717.032 135.114C716.704 135.437 716.402 135.665 716.111 135.893C715.651 136.285 715.404 136.519 715.1 136.73L289.135 452.74C288.028 453.54 286.686 454.36 285.202 455.16L284.1 455.734C283.212 456.162 282.252 456.544 281.322 456.923L280.792 457.123C280.013 457.442 279.215 457.751 278.387 458.009C277.012 458.48 275.834 458.82 274.743 459.066L273.742 459.349C272.193 459.683 270.456 459.971 268.659 460.211C268.348 460.258 267.796 460.321 267.772 460.324C266.246 460.485 264.61 460.586 262.661 460.612C262.495 460.595 262.168 460.608 261.834 460.609C259.94 460.587 258.336 460.49 256.851 460.318L255.921 460.212C254.495 460.021 253.042 459.755 251.562 459.413C251.549 459.408 251.305 459.345 251.07 459.311C249.11 458.805 247.503 458.259 246.034 457.63L241.605 455.735L244.144 479.024L245.669 479.664C247.399 480.385 249.183 480.996 250.963 481.461L251.16 481.536L252.223 481.749C253.248 481.991 254.229 482.226 255.278 482.41L257.102 482.628C257.4 482.68 257.744 482.713 258.132 482.754C258.337 482.792 258.64 482.836 258.96 482.867C260.163 482.973 261.309 483.049 262.443 483.079L263.629 483.078C264.007 483.089 264.353 483.087 264.716 483.064C264.942 483.08 265.387 483.091 265.84 483.064C266.926 483.037 268.036 482.966 269.146 482.889L269.201 482.883L272.067 482.527Z" fill="white"/>
<path d="M243.958 464.26L42.3077 376.605C34.7745 373.338 30.2582 368.205 29.5635 362.135C28.8615 356.108 32.0657 350.105 38.5923 345.249L466.215 31.1563C472.311 26.6344 480.713 23.5628 489.891 22.5214C499.046 21.4828 507.933 22.587 514.904 25.6203L715.167 112.407C722.69 115.693 727.221 120.843 727.91 126.92C728.594 132.949 725.382 138.934 718.858 143.76L292.654 458.735C286.544 463.241 278.143 466.312 268.988 467.351C259.833 468.383 250.94 467.28 243.958 464.26ZM470.949 45.6552L64.706 347.276C62.737 348.732 61.7045 350.403 61.869 351.853C62.0363 353.327 63.445 354.758 65.7288 355.755L267.39 443.348C270.173 444.568 273.945 445.014 277.739 444.584C281.557 444.151 285.132 442.865 287.554 441.055L693.809 139.433C695.783 137.97 696.808 136.288 696.645 134.85C696.473 133.388 695.061 131.982 692.782 130.978L491.125 43.3662C488.331 42.1595 484.547 41.7087 480.741 42.1405C476.928 42.567 473.352 43.8468 470.949 45.6552Z" fill="white"/>
<path d="M715.1 112.67C728.641 118.576 730.032 130.461 718.232 139.206L290.982 456.479C279.18 465.212 258.609 467.564 245.075 461.675L43.4212 374.039C29.8953 368.168 28.4843 356.266 40.2524 347.501L467.538 30.2722C479.319 21.5118 499.921 19.1744 513.43 25.0535L715.1 112.67ZM289.226 443.306L695.499 141.682C701.356 137.302 700.638 131.356 693.903 128.423L492.25 40.7927C485.485 37.8634 475.164 39.0222 469.264 43.4004L63.0288 345.032C57.1344 349.404 57.8863 355.389 64.6103 358.329L266.252 445.912C273.003 448.873 283.328 447.702 289.226 443.306Z" fill="url(#paint0_linear_969_29569)"/>
<path d="M693.903 128.426C700.644 131.358 701.362 137.304 695.499 141.684L289.226 443.308C283.334 447.704 273.009 448.875 266.252 445.915L64.6102 358.332C57.8862 355.392 57.1396 349.4 63.0287 345.035L469.264 43.4031C475.164 39.0249 485.485 37.8661 492.25 40.7954L693.903 128.426Z" fill="url(#paint1_linear_969_29569)"/>
<path d="M380.69 258.063L442.88 212.092C455.799 202.541 478.393 199.774 493.222 206.231L407.383 269.685L380.69 258.063Z" fill="white"/>
<path fill-rule="evenodd" clip-rule="evenodd" d="M408.882 268.574C433.63 250.28 430.678 225.535 402.271 213.167C373.864 200.799 330.967 205.582 306.219 223.877C281.471 242.171 284.424 266.916 312.831 279.283C341.237 291.651 384.134 286.868 408.882 268.574ZM381.223 256.532C392.512 248.187 391.164 236.89 378.206 231.249C365.249 225.608 345.416 227.683 334.128 236.027C322.839 244.372 324.187 255.669 337.144 261.31C350.102 266.951 369.934 264.877 381.223 256.532Z" fill="white"/>
<path d="M247.522 458.261L44.3824 369.968C38.737 367.531 35.405 363.994 34.9735 359.976L29.3906 360.554L32.03 360.291L29.3926 360.572C29.8979 365.401 30.4379 370.215 30.9605 375.036L31.2325 377.433C31.8926 383.519 36.4317 388.692 43.993 391.992L245.666 479.639L247.522 458.261Z" fill="white"/>
<path d="M566.401 60.843C567.748 59.8526 570.053 59.591 571.582 60.2553L624.151 83.2947C625.689 83.9882 625.881 85.3566 624.531 86.3717C624.52 86.3851 624.52 86.3851 624.503 86.3931C623.151 87.3903 620.816 87.6552 619.28 86.9856L566.735 63.9435C565.168 63.2593 565.024 61.8856 566.373 60.8644C566.385 60.8571 566.391 60.8564 566.401 60.843Z" fill="url(#paint2_linear_969_29569)"/>
<path d="M43.4224 374.04C36.6003 371.093 32.8587 366.625 32.3433 361.761C32.9391 367.387 33.5701 373.003 34.1959 378.626C34.7314 383.506 38.4896 387.961 45.2964 390.934L246.912 478.556L245.078 461.689L43.4224 374.04Z" fill="#D8EBFF"/>
<path d="M726.192 125.974C726.185 126.291 726.221 126.608 726.221 126.924C726.193 127.219 726.127 127.548 726.084 127.862C726.026 128.154 725.99 128.48 725.922 128.797C725.852 129.091 725.75 129.369 725.667 129.652C725.573 130.002 725.459 130.337 725.318 130.705C725.218 130.947 725.083 131.205 724.965 131.455C724.769 131.866 724.573 132.289 724.333 132.687C724.177 132.923 724.022 133.165 723.88 133.412C723.52 133.938 723.114 134.488 722.687 135.01C722.527 135.21 722.37 135.434 722.171 135.663C721.922 135.928 721.644 136.215 721.343 136.51C721.058 136.785 720.764 137.086 720.456 137.375C720.123 137.705 719.733 138.016 719.358 138.301C719.005 138.627 718.644 138.929 718.24 139.223L290.982 456.48C289.65 457.444 288.199 458.319 286.685 459.122C286.29 459.337 285.878 459.566 285.474 459.751C284.521 460.199 283.517 460.617 282.522 461.015C281.492 461.417 280.463 461.837 279.378 462.185C278.112 462.602 276.823 462.985 275.514 463.285C275.201 463.369 274.886 463.484 274.542 463.565C272.786 463.953 270.989 464.241 269.162 464.485C268.845 464.527 268.551 464.561 268.238 464.596C266.443 464.794 264.646 464.876 262.842 464.893C262.567 464.881 262.289 464.895 262.033 464.887C260.208 464.876 258.436 464.798 256.678 464.578C256.386 464.575 256.067 464.502 255.784 464.473C254.179 464.261 252.633 463.981 251.092 463.628C250.834 463.554 250.545 463.526 250.261 463.437C248.44 462.975 246.694 462.384 245.07 461.682L246.905 478.55C248.488 479.214 250.126 479.769 251.852 480.241C251.946 480.266 252.026 480.275 252.114 480.308C252.402 480.372 252.729 480.42 253.042 480.5C254.005 480.731 254.947 480.945 255.928 481.126C256.477 481.191 257.056 481.259 257.611 481.323C257.92 481.367 258.235 481.416 258.562 481.458C258.851 481.486 259.112 481.529 259.399 481.545C260.493 481.646 261.59 481.722 262.669 481.745C263.096 481.757 263.483 481.738 263.885 481.747C264.166 481.757 264.438 481.744 264.723 481.736C265.125 481.745 265.502 481.745 265.89 481.738C266.963 481.701 268.044 481.639 269.117 481.56C269.459 481.521 269.841 481.459 270.16 481.423C270.442 481.391 270.694 481.363 270.982 481.33C271.462 481.275 271.957 481.238 272.453 481.163C273.648 480.979 274.828 480.772 276.015 480.51C276.157 480.476 276.291 480.424 276.453 480.406C276.76 480.322 277.044 480.254 277.331 480.16C278.274 479.95 279.211 479.747 280.105 479.475C280.844 479.24 281.532 478.974 282.204 478.733C282.405 478.686 282.583 478.648 282.756 478.568C283.891 478.172 285.001 477.718 286.088 477.224C286.529 477.041 286.928 476.801 287.363 476.57C287.75 476.386 288.165 476.181 288.543 475.981C290.072 475.152 291.513 474.29 292.825 473.316L720.101 156.057C720.237 155.963 720.358 155.858 720.476 155.766C720.716 155.581 720.925 155.387 721.164 155.184C721.577 154.858 721.965 154.535 722.336 154.207C722.611 153.958 722.859 153.675 723.11 153.422C723.426 153.1 723.769 152.8 724.065 152.457C724.1 152.393 724.18 152.347 724.209 152.283C724.333 152.148 724.393 152.032 724.514 151.915C724.949 151.355 725.363 150.774 725.729 150.247C725.813 150.128 725.914 150.002 725.981 149.891C726.06 149.785 726.087 149.654 726.199 149.569C726.392 149.122 726.631 148.706 726.808 148.291C726.871 148.145 727.019 147.952 727.063 147.801C727.109 147.723 727.115 147.619 727.158 147.566C727.298 147.198 727.426 146.825 727.53 146.449C727.601 146.277 727.687 146.067 727.724 145.857C727.748 145.805 727.74 145.727 727.74 145.727C727.845 145.315 727.884 144.964 727.955 144.622C727.978 144.401 728.045 144.181 728.051 143.974C728.057 143.913 728.053 143.877 728.063 143.809C728.083 143.448 728.058 143.069 728.04 142.695C728.034 142.483 728.073 142.29 728.051 142.098C728.04 141.997 728.04 141.887 728.033 141.827C727.396 136.212 726.787 130.575 726.149 124.953C726.193 125.288 726.188 125.623 726.192 125.974Z" fill="url(#paint3_linear_969_29569)"/>
<path d="M154.818 431.068L130.097 420.463C128.966 419.985 128.162 420.561 128.301 421.784C128.438 422.995 129.459 424.378 130.584 424.864L155.305 435.468C156.425 435.954 157.24 435.37 157.108 434.153C156.97 432.936 155.938 431.56 154.818 431.068Z" fill="url(#paint4_linear_969_29569)"/>
<path d="M214.773 200.274C216.553 227.487 195.936 250.991 168.722 252.772C141.509 254.553 118.005 233.935 116.224 206.722C114.443 179.508 135.061 156.004 162.274 154.223C189.488 152.443 212.992 173.06 214.773 200.274Z" fill="url(#paint5_linear_969_29569)"/>
<path d="M214.773 200.274C216.553 227.487 195.936 250.991 168.722 252.772C141.509 254.553 118.005 233.935 116.224 206.722C114.443 179.508 135.061 156.004 162.274 154.223C189.488 152.443 212.992 173.06 214.773 200.274Z" fill="url(#paint6_radial_969_29569)"/>
<path d="M214.773 200.274C216.553 227.487 195.936 250.991 168.722 252.772C141.509 254.553 118.005 233.935 116.224 206.722C114.443 179.508 135.061 156.004 162.274 154.223C189.488 152.443 212.992 173.06 214.773 200.274Z" fill="url(#paint7_radial_969_29569)"/>
<path d="M214.773 200.274C216.553 227.487 195.936 250.991 168.722 252.772C141.509 254.553 118.005 233.935 116.224 206.722C114.443 179.508 135.061 156.004 162.274 154.223C189.488 152.443 212.992 173.06 214.773 200.274Z" fill="url(#paint8_radial_969_29569)"/>
<path d="M214.773 200.274C216.553 227.487 195.936 250.991 168.722 252.772C141.509 254.553 118.005 233.935 116.224 206.722C114.443 179.508 135.061 156.004 162.274 154.223C189.488 152.443 212.992 173.06 214.773 200.274Z" fill="url(#paint9_radial_969_29569)"/>
<g style="mix-blend-mode:lighten">
<path d="M192.585 189.204C193.572 204.286 180.683 217.409 163.798 218.513C146.912 219.618 132.424 208.287 131.437 193.205C130.45 178.123 143.339 165.001 160.224 163.896C177.11 162.791 191.598 174.122 192.585 189.204Z" fill="url(#paint10_linear_969_29569)"/>
</g>
<g style="mix-blend-mode:lighten">
<path d="M143.963 189.694C141.944 189.209 140.673 187.161 141.484 185.25C142.896 181.925 145.09 178.967 147.9 176.64C150.71 174.314 154.025 172.711 157.555 171.944C159.584 171.503 161.359 173.134 161.459 175.208C161.559 177.282 159.932 178.999 157.946 179.605C156.037 180.187 154.25 181.143 152.694 182.431C151.139 183.719 149.865 185.297 148.938 187.063C147.972 188.901 145.981 190.179 143.963 189.694Z" fill="url(#paint11_linear_969_29569)"/>
</g>
<g filter="url(#filter2_f_969_29569)">
<path d="M567.019 305.222C570.098 352.288 534.44 392.94 487.373 396.019C440.307 399.099 399.656 363.44 396.576 316.374C393.496 269.307 429.155 228.656 476.221 225.576C523.288 222.497 563.939 258.155 567.019 305.222Z" fill="url(#paint12_linear_969_29569)"/>
<path d="M567.019 305.222C570.098 352.288 534.44 392.94 487.373 396.019C440.307 399.099 399.656 363.44 396.576 316.374C393.496 269.307 429.155 228.656 476.221 225.576C523.288 222.497 563.939 258.155 567.019 305.222Z" fill="url(#paint13_radial_969_29569)"/>
<path d="M567.019 305.222C570.098 352.288 534.44 392.94 487.373 396.019C440.307 399.099 399.656 363.44 396.576 316.374C393.496 269.307 429.155 228.656 476.221 225.576C523.288 222.497 563.939 258.155 567.019 305.222Z" fill="url(#paint14_radial_969_29569)"/>
<path d="M567.019 305.222C570.098 352.288 534.44 392.94 487.373 396.019C440.307 399.099 399.656 363.44 396.576 316.374C393.496 269.307 429.155 228.656 476.221 225.576C523.288 222.497 563.939 258.155 567.019 305.222Z" fill="url(#paint15_radial_969_29569)"/>
<path d="M567.019 305.222C570.098 352.288 534.44 392.94 487.373 396.019C440.307 399.099 399.656 363.44 396.576 316.374C393.496 269.307 429.155 228.656 476.221 225.576C523.288 222.497 563.939 258.155 567.019 305.222Z" fill="url(#paint16_radial_969_29569)"/>
<g style="mix-blend-mode:lighten">
<path d="M528.646 286.077C530.353 312.162 508.062 334.857 478.858 336.768C449.654 338.679 424.596 319.082 422.889 292.997C421.182 266.912 443.473 244.217 472.677 242.306C501.881 240.395 526.939 259.992 528.646 286.077Z" fill="url(#paint17_linear_969_29569)"/>
</g>
<g style="mix-blend-mode:lighten">
<path d="M444.55 286.918C441.059 286.078 438.861 282.536 440.264 279.231C442.706 273.48 446.499 268.365 451.36 264.341C456.22 260.317 461.953 257.545 468.059 256.218C471.568 255.456 474.637 258.277 474.811 261.864C474.984 265.45 472.169 268.421 468.735 269.468C465.434 270.474 462.343 272.128 459.652 274.356C456.961 276.584 454.759 279.312 453.155 282.367C451.485 285.546 448.042 287.757 444.55 286.918Z" fill="url(#paint18_linear_969_29569)"/>
</g>
</g>
</g>
<path d="M309 26L311.431 32.5692L318 35L311.431 37.4308L309 44L306.569 37.4308L300 35L306.569 32.5692L309 26Z" fill="#FAFCFF"/>
<path d="M205 85L207.431 91.5692L214 94L207.431 96.4308L205 103L202.569 96.4308L196 94L202.569 91.5692L205 85Z" fill="#FAFCFF"/>
</g>
<defs>
<filter id="filter0_f_969_29569" x="28.6875" y="360.798" width="222.568" height="124.795" filterUnits="userSpaceOnUse" color-interpolation-filters="sRGB">
<feFlood flood-opacity="0" result="BackgroundImageFix"/>
<feBlend mode="normal" in="SourceGraphic" in2="BackgroundImageFix" result="shape"/>
<feGaussianBlur stdDeviation="2" result="effect1_foregroundBlur_969_29569"/>
</filter>
<filter id="filter1_f_969_29569" x="241.412" y="123.955" width="490.998" height="364.831" filterUnits="userSpaceOnUse" color-interpolation-filters="sRGB">
<feFlood flood-opacity="0" result="BackgroundImageFix"/>
<feBlend mode="normal" in="SourceGraphic" in2="BackgroundImageFix" result="shape"/>
<feGaussianBlur stdDeviation="2" result="effect1_foregroundBlur_969_29569"/>
</filter>
<filter id="filter2_f_969_29569" x="374.391" y="203.391" width="214.814" height="214.813" filterUnits="userSpaceOnUse" color-interpolation-filters="sRGB">
<feFlood flood-opacity="0" result="BackgroundImageFix"/>
<feBlend mode="normal" in="SourceGraphic" in2="BackgroundImageFix" result="shape"/>
<feGaussianBlur stdDeviation="11" result="effect1_foregroundBlur_969_29569"/>
</filter>
<linearGradient id="paint0_linear_969_29569" x1="735.034" y1="203.006" x2="23.4895" y2="283.732" gradientUnits="userSpaceOnUse">
<stop stop-color="#F1F4FE"/>
<stop offset="0.5797" stop-color="#F7F9FE"/>
<stop offset="1" stop-color="white"/>
</linearGradient>
<linearGradient id="paint1_linear_969_29569" x1="707.548" y1="206.118" x2="50.9661" y2="280.608" gradientUnits="userSpaceOnUse">
<stop stop-color="#2595FF"/>
<stop offset="0.246" stop-color="#23A9FF"/>
<stop offset="0.5075" stop-color="#2595FF"/>
<stop offset="0.7751" stop-color="#2DC8FF"/>
<stop offset="1" stop-color="#2AC1FF"/>
</linearGradient>
<linearGradient id="paint2_linear_969_29569" x1="567.083" y1="76.84" x2="623.799" y2="70.4055" gradientUnits="userSpaceOnUse">
<stop stop-color="#5FEFC0"/>
<stop offset="0.6277" stop-color="#4DA6DD"/>
<stop offset="1" stop-color="#437FEC"/>
</linearGradient>
<linearGradient id="paint3_linear_969_29569" x1="469.769" y1="154.04" x2="503.905" y2="454.923" gradientUnits="userSpaceOnUse">
<stop stop-color="#89C1FF"/>
<stop offset="1" stop-color="#DAECFF"/>
</linearGradient>
<linearGradient id="paint4_linear_969_29569" x1="129.171" y1="429.504" x2="156.225" y2="426.434" gradientUnits="userSpaceOnUse">
<stop stop-color="#5FEFC0"/>
<stop offset="0.6277" stop-color="#4DA6DD"/>
<stop offset="1" stop-color="#437FEC"/>
</linearGradient>
<linearGradient id="paint5_linear_969_29569" x1="162.274" y1="154.223" x2="168.722" y2="252.772" gradientUnits="userSpaceOnUse">
<stop stop-color="#40FFC6"/>
<stop offset="0.492708" stop-color="#4AE6FF"/>
<stop offset="1" stop-color="#2595FF"/>
</linearGradient>
<radialGradient id="paint6_radial_969_29569" cx="0" cy="0" r="1" gradientUnits="userSpaceOnUse" gradientTransform="translate(143.303 174.905) rotate(58.8788) scale(111.216 111.216)">
<stop offset="0.462106" stop-color="#2AA8FF" stop-opacity="0"/>
<stop offset="0.894737" stop-color="#2595FF"/>
</radialGradient>
<radialGradient id="paint7_radial_969_29569" cx="0" cy="0" r="1" gradientUnits="userSpaceOnUse" gradientTransform="translate(139.899 176.895) rotate(52.8824) scale(133.044 133.044)">
<stop stop-color="#6EFFCE"/>
<stop offset="0.570035" stop-color="#A5FFFD" stop-opacity="0"/>
</radialGradient>
<radialGradient id="paint8_radial_969_29569" cx="0" cy="0" r="1" gradientUnits="userSpaceOnUse" gradientTransform="translate(154.553 184.773) rotate(59.6914) scale(70.9287)">
<stop offset="0.672439" stop-color="#9EC6FD" stop-opacity="0"/>
<stop offset="1" stop-color="white"/>
</radialGradient>
<radialGradient id="paint9_radial_969_29569" cx="0" cy="0" r="1" gradientUnits="userSpaceOnUse" gradientTransform="translate(159.474 193.192) rotate(58.2942) scale(61.1949)">
<stop offset="0.961458" stop-color="#2AA8FF" stop-opacity="0"/>
<stop offset="1" stop-color="#058AFF" stop-opacity="0.26"/>
</radialGradient>
<linearGradient id="paint10_linear_969_29569" x1="143.215" y1="172.087" x2="166.86" y2="195.126" gradientUnits="userSpaceOnUse">
<stop stop-color="white" stop-opacity="0.86"/>
<stop offset="1" stop-color="#D9D9D9" stop-opacity="0"/>
</linearGradient>
<linearGradient id="paint11_linear_969_29569" x1="160.874" y1="173.708" x2="148.559" y2="189.895" gradientUnits="userSpaceOnUse">
<stop stop-color="white"/>
<stop offset="1" stop-color="#FFFFE9" stop-opacity="0.38"/>
</linearGradient>
<linearGradient id="paint12_linear_969_29569" x1="476.221" y1="225.576" x2="487.373" y2="396.019" gradientUnits="userSpaceOnUse">
<stop stop-color="#40FFC6"/>
<stop offset="0.492708" stop-color="#4AE6FF"/>
<stop offset="1" stop-color="#2595FF"/>
</linearGradient>
<radialGradient id="paint13_radial_969_29569" cx="0" cy="0" r="1" gradientUnits="userSpaceOnUse" gradientTransform="translate(443.41 261.346) rotate(58.8788) scale(192.352 192.352)">
<stop offset="0.462106" stop-color="#2AA8FF" stop-opacity="0"/>
<stop offset="0.894737" stop-color="#2595FF"/>
</radialGradient>
<radialGradient id="paint14_radial_969_29569" cx="0" cy="0" r="1" gradientUnits="userSpaceOnUse" gradientTransform="translate(437.522 264.788) rotate(52.8824) scale(230.103 230.103)">
<stop stop-color="#6EFFCE"/>
<stop offset="0.570035" stop-color="#A5FFFD" stop-opacity="0"/>
</radialGradient>
<radialGradient id="paint15_radial_969_29569" cx="0" cy="0" r="1" gradientUnits="userSpaceOnUse" gradientTransform="translate(462.867 278.413) rotate(59.6914) scale(122.673 122.673)">
<stop offset="0.672439" stop-color="#9EC6FD" stop-opacity="0"/>
<stop offset="1" stop-color="white"/>
</radialGradient>
<radialGradient id="paint16_radial_969_29569" cx="0" cy="0" r="1" gradientUnits="userSpaceOnUse" gradientTransform="translate(471.379 292.974) rotate(58.2942) scale(105.838 105.838)">
<stop offset="0.961458" stop-color="#2AA8FF" stop-opacity="0"/>
<stop offset="1" stop-color="#058AFF" stop-opacity="0.26"/>
</radialGradient>
<linearGradient id="paint17_linear_969_29569" x1="443.258" y1="256.472" x2="484.153" y2="296.318" gradientUnits="userSpaceOnUse">
<stop stop-color="white" stop-opacity="0.86"/>
<stop offset="1" stop-color="#D9D9D9" stop-opacity="0"/>
</linearGradient>
<linearGradient id="paint18_linear_969_29569" x1="473.801" y1="259.271" x2="452.501" y2="287.266" gradientUnits="userSpaceOnUse">
<stop stop-color="white"/>
<stop offset="1" stop-color="#FFFFE9" stop-opacity="0.38"/>
</linearGradient>
<clipPath id="clip0_969_29569">
<rect width="734" height="433" fill="white"/>
</clipPath>
</defs>
</svg>
