<svg width="532" height="318" viewBox="0 0 532 318" fill="none" xmlns="http://www.w3.org/2000/svg">
<path d="M343.551 110.512H188.449L209.404 84.1151C211.185 81.8759 213.448 80.0675 216.025 78.8248C218.602 77.582 221.427 76.9369 224.288 76.9375H307.713C310.572 76.937 313.395 77.5822 315.97 78.825C318.545 80.0678 320.806 81.8761 322.585 84.1151L343.551 110.512Z" fill="url(#paint0_linear_101_2)"/>
<g opacity="0.25">
<path d="M343.551 110.512H188.449L209.404 84.1151C211.185 81.8759 213.448 80.0675 216.025 78.8248C218.602 77.582 221.427 76.9369 224.288 76.9375H307.713C310.572 76.937 313.395 77.5822 315.97 78.825C318.545 80.0678 320.806 81.8761 322.585 84.1151L343.551 110.512Z" fill="url(#paint1_linear_101_2)" style="mix-blend-mode:multiply"/>
</g>
<path d="M332.662 104.597H199.338C191.972 104.597 186 110.569 186 117.936V144.592C186 151.959 191.972 157.932 199.338 157.932H332.662C340.028 157.932 346 151.959 346 144.592V117.936C346 110.569 340.028 104.597 332.662 104.597Z" fill="url(#paint2_linear_101_2)"/>
<g opacity="0.5">
<path d="M332.662 104.597H199.338C191.972 104.597 186 110.569 186 117.936V144.592C186 151.959 191.972 157.932 199.338 157.932H332.662C340.028 157.932 346 151.959 346 144.592V117.936C346 110.569 340.028 104.597 332.662 104.597Z" fill="url(#paint3_linear_101_2)" style="mix-blend-mode:screen"/>
</g>
<path d="M265.995 144.061C273.062 144.061 278.792 138.332 278.792 131.264C278.792 124.196 273.062 118.466 265.995 118.466C258.928 118.466 253.199 124.196 253.199 131.264C253.199 138.332 258.928 144.061 265.995 144.061Z" fill="#F5F9FF"/>
<path fill-rule="evenodd" clip-rule="evenodd" d="M265.995 119.011C259.229 119.011 253.744 124.497 253.744 131.264C253.744 138.03 259.229 143.516 265.995 143.516C272.761 143.516 278.246 138.03 278.246 131.264C278.246 124.497 272.761 119.011 265.995 119.011ZM252.653 131.264C252.653 123.894 258.627 117.92 265.995 117.92C273.364 117.92 279.337 123.894 279.337 131.264C279.337 138.633 273.364 144.607 265.995 144.607C258.627 144.607 252.653 138.633 252.653 131.264Z" fill="#615FA7"/>
<path d="M224.774 144.061C231.841 144.061 237.57 138.332 237.57 131.264C237.57 124.196 231.841 118.466 224.774 118.466C217.706 118.466 211.977 124.196 211.977 131.264C211.977 138.332 217.706 144.061 224.774 144.061Z" fill="#F5F9FF"/>
<path fill-rule="evenodd" clip-rule="evenodd" d="M224.774 119.011C218.008 119.011 212.523 124.497 212.523 131.264C212.523 138.03 218.008 143.516 224.774 143.516C231.54 143.516 237.025 138.03 237.025 131.264C237.025 124.497 231.54 119.011 224.774 119.011ZM211.432 131.264C211.432 123.894 217.405 117.92 224.774 117.92C232.142 117.92 238.115 123.894 238.115 131.264C238.115 138.633 232.142 144.607 224.774 144.607C217.405 144.607 211.432 138.633 211.432 131.264Z" fill="#AA0E67"/>
<path d="M306.842 144.061C313.909 144.061 319.638 138.332 319.638 131.264C319.638 124.196 313.909 118.466 306.842 118.466C299.775 118.466 294.045 124.196 294.045 131.264C294.045 138.332 299.775 144.061 306.842 144.061Z" fill="#F5F9FF"/>
<path fill-rule="evenodd" clip-rule="evenodd" d="M306.842 119.011C300.076 119.011 294.591 124.497 294.591 131.264C294.591 138.03 300.076 143.516 306.842 143.516C313.608 143.516 319.093 138.03 319.093 131.264C319.093 124.497 313.608 119.011 306.842 119.011ZM293.5 131.264C293.5 123.894 299.473 117.92 306.842 117.92C314.21 117.92 320.184 123.894 320.184 131.264C320.184 138.633 314.21 144.607 306.842 144.607C299.473 144.607 293.5 138.633 293.5 131.264Z" fill="#2C8ECA"/>
<path d="M265.993 94.6195L300.974 75.7841H231.023L265.993 94.6195Z" fill="url(#paint4_linear_101_2)"/>
<path d="M277.986 47.1421V2.03406H254.007V47.1421H233.616L265.991 93.9993L298.366 47.1421H277.986Z" fill="url(#paint5_linear_101_2)"/>
<path d="M277.14 2.88026V48.0221H296.752L265.991 92.5546L235.23 47.9883H254.842V2.84641H277.14M277.986 2H253.996V47.1419H233.616L265.991 94.0104L298.366 47.1419H277.986V2Z" fill="url(#paint6_linear_101_2)"/>
<path d="M332.662 105.443C335.973 105.446 339.147 106.764 341.488 109.106C343.828 111.449 345.142 114.625 345.142 117.936V144.604C345.139 147.913 343.824 151.086 341.484 153.426C339.144 155.766 335.971 157.082 332.662 157.085H199.327C196.018 157.082 192.845 155.766 190.505 153.426C188.165 151.086 186.849 147.913 186.846 144.604V117.936C186.846 114.625 188.161 111.449 190.501 109.106C192.841 106.764 196.016 105.446 199.327 105.443H332.662ZM332.662 104.597H199.327C195.791 104.6 192.402 106.006 189.903 108.508C187.404 111.009 186 114.4 186 117.936V144.604C186.006 148.134 187.413 151.519 189.911 154.013C192.41 156.508 195.796 157.909 199.327 157.909H332.662C334.412 157.909 336.145 157.564 337.762 156.895C339.379 156.225 340.848 155.243 342.085 154.005C343.323 152.768 344.305 151.298 344.974 149.681C345.644 148.064 345.989 146.331 345.989 144.581V117.936C345.989 114.4 344.585 111.009 342.086 108.508C339.587 106.006 336.198 104.6 332.662 104.597Z" fill="url(#paint7_linear_101_2)"/>
<circle cx="266" cy="278" r="40" fill="url(#paint8_linear_101_2)"/>
<path d="M258.77 290.386C256.975 290.379 255.441 289.905 254.168 288.966C252.895 288.027 251.922 286.659 251.248 284.864C250.573 283.068 250.236 280.905 250.236 278.375C250.236 275.852 250.573 273.697 251.248 271.909C251.929 270.121 252.907 268.758 254.179 267.818C255.46 266.879 256.99 266.409 258.77 266.409C260.551 266.409 262.077 266.883 263.35 267.83C264.623 268.769 265.596 270.133 266.27 271.92C266.952 273.701 267.293 275.852 267.293 278.375C267.293 280.913 266.956 283.08 266.282 284.875C265.607 286.663 264.634 288.03 263.361 288.977C262.088 289.917 260.558 290.386 258.77 290.386ZM258.77 287.352C260.346 287.352 261.577 286.583 262.463 285.045C263.357 283.508 263.804 281.284 263.804 278.375C263.804 276.443 263.6 274.811 263.191 273.477C262.789 272.136 262.21 271.121 261.452 270.432C260.702 269.735 259.808 269.386 258.77 269.386C257.202 269.386 255.971 270.159 255.077 271.705C254.183 273.25 253.732 275.473 253.725 278.375C253.725 280.314 253.926 281.955 254.327 283.295C254.736 284.629 255.316 285.64 256.066 286.33C256.816 287.011 257.717 287.352 258.77 287.352ZM279.514 266.727V290H275.991V270.25H275.855L270.287 273.886V270.523L276.093 266.727H279.514Z" fill="white"/>
<path fill-rule="evenodd" clip-rule="evenodd" d="M265 210V180H266V210H265Z" fill="#00C9F1"/>
<path d="M261 218V205.778C261 204.776 261.474 203.815 262.318 203.106C263.162 202.398 264.307 202 265.5 202C266.693 202 267.838 202.398 268.682 203.106C269.526 203.815 270 204.776 270 205.778V218H261Z" fill="#00C9F1"/>
<path fill-rule="evenodd" clip-rule="evenodd" d="M198 279L-1.74846e-07 279L-2.18557e-07 278L198 278L198 279Z" fill="#00C9F1"/>
<path d="M206 283L193.778 283C192.776 283 191.815 282.526 191.106 281.682C190.398 280.838 190 279.693 190 278.5C190 277.307 190.398 276.162 191.106 275.318C191.815 274.474 192.776 274 193.778 274L206 274L206 283Z" fill="#00C9F1"/>
<path fill-rule="evenodd" clip-rule="evenodd" d="M334 279L532 279L532 278L334 278L334 279Z" fill="#00C9F1"/>
<path d="M326 283L338.222 283C339.224 283 340.185 282.526 340.894 281.682C341.602 280.838 342 279.693 342 278.5C342 277.307 341.602 276.162 340.894 275.318C340.185 274.474 339.224 274 338.222 274L326 274L326 283Z" fill="#00C9F1"/>
<defs>
<linearGradient id="paint0_linear_101_2" x1="188.449" y1="93.7077" x2="343.551" y2="93.7077" gradientUnits="userSpaceOnUse">
<stop stop-color="#E41476"/>
<stop offset="1" stop-color="#00C9F1"/>
</linearGradient>
<linearGradient id="paint1_linear_101_2" x1="188.449" y1="93.7077" x2="343.551" y2="93.7077" gradientUnits="userSpaceOnUse">
<stop stop-color="#E41476"/>
<stop offset="1" stop-color="#00C9F1"/>
</linearGradient>
<linearGradient id="paint2_linear_101_2" x1="186" y1="131.264" x2="346" y2="131.264" gradientUnits="userSpaceOnUse">
<stop stop-color="#E41476"/>
<stop offset="1" stop-color="#00C9F1"/>
</linearGradient>
<linearGradient id="paint3_linear_101_2" x1="186" y1="131.264" x2="346" y2="131.264" gradientUnits="userSpaceOnUse">
<stop stop-color="#E41476"/>
<stop offset="1" stop-color="#00C9F1"/>
</linearGradient>
<linearGradient id="paint4_linear_101_2" x1="265.993" y1="94.6195" x2="265.993" y2="75.7841" gradientUnits="userSpaceOnUse">
<stop stop-opacity="0.5"/>
<stop offset="1" stop-opacity="0"/>
</linearGradient>
<linearGradient id="paint5_linear_101_2" x1="265.991" y1="93.9993" x2="265.991" y2="2.03406" gradientUnits="userSpaceOnUse">
<stop stop-color="#00C9F1"/>
<stop offset="1" stop-color="#E41476"/>
</linearGradient>
<linearGradient id="paint6_linear_101_2" x1="265.991" y1="94.0104" x2="265.991" y2="2.03386" gradientUnits="userSpaceOnUse">
<stop stop-color="#0DEFFA"/>
<stop offset="0.498264" stop-color="#775FA8"/>
<stop offset="1" stop-color="#D60B3C"/>
</linearGradient>
<linearGradient id="paint7_linear_101_2" x1="186" y1="131.264" x2="345.989" y2="131.264" gradientUnits="userSpaceOnUse">
<stop stop-color="#E0002F"/>
<stop offset="0.498264" stop-color="#9475C3"/>
<stop offset="1" stop-color="#02FFFF"/>
</linearGradient>
<linearGradient id="paint8_linear_101_2" x1="266" y1="238" x2="266" y2="318" gradientUnits="userSpaceOnUse">
<stop stop-color="#DA1C7B"/>
<stop offset="0.47743" stop-color="#7969B0"/>
<stop offset="1" stop-color="#0EBDE9"/>
</linearGradient>
</defs>
</svg>
