<svg width="532" height="318" viewBox="0 0 532 318" fill="none" xmlns="http://www.w3.org/2000/svg">
<path fill-rule="evenodd" clip-rule="evenodd" d="M265 210V180H266V210H265Z" fill="#00C9F1"/>
<path d="M261 218V205.778C261 204.776 261.474 203.815 262.318 203.106C263.162 202.398 264.307 202 265.5 202C266.693 202 267.838 202.398 268.682 203.106C269.526 203.815 270 204.776 270 205.778V218H261Z" fill="#00C9F1"/>
<path d="M218.019 57.0511H305.833C307.607 57.0511 309.308 57.7578 310.562 59.0157C311.816 60.2736 312.52 61.9796 312.52 63.7585V78.7649H218.019C215.154 78.7649 212.406 77.6234 210.38 75.5915C208.354 73.5595 207.216 70.8036 207.216 67.93C207.216 65.0564 208.354 62.3005 210.38 60.2685C212.406 58.2366 215.154 57.0951 218.019 57.0951V57.0511Z" fill="url(#paint0_linear_101_3)"/>
<path d="M305.839 57.918C306.609 57.918 307.372 58.0702 308.084 58.3659C308.796 58.6616 309.443 59.095 309.987 59.6414C310.532 60.1878 310.964 60.8365 311.259 61.5503C311.554 62.2642 311.706 63.0294 311.706 63.8021V78.7756H218.025C214.304 78.7756 208.043 77.3704 208.043 67.9406C208.046 65.2863 209.098 62.7415 210.97 60.8646C212.841 58.9876 215.378 57.9319 218.025 57.929H305.839M305.839 57.1057H218.025C215.16 57.1057 212.412 58.2472 210.386 60.2792C208.36 62.3111 207.222 65.067 207.222 67.9406C207.222 73.9235 209.827 79.5989 218.025 79.5989H312.527V63.7691C312.528 62.8879 312.356 62.015 312.02 61.2006C311.685 60.3862 311.192 59.6462 310.571 59.0231C309.95 58.4 309.212 57.906 308.4 57.5694C307.588 57.2328 306.718 57.0603 305.839 57.0618V57.1057Z" fill="url(#paint1_linear_101_3)"/>
<path d="M236.505 78.7667H218.019C215.154 78.7667 212.406 77.6252 210.38 75.5932C208.354 73.5613 207.216 70.8054 207.216 67.9318V149.166C207.216 152.04 208.354 154.796 210.38 156.828C212.406 158.86 215.154 160.001 218.019 160.001H324.188C325.76 160.001 327.267 159.376 328.379 158.262C329.491 157.149 330.118 155.638 330.121 154.062V84.6617C330.118 83.0856 329.491 81.575 328.379 80.4616C327.267 79.3481 325.76 78.7228 324.188 78.7228L236.505 78.7667Z" fill="url(#paint2_linear_101_3)"/>
<path fill-rule="evenodd" clip-rule="evenodd" d="M228.887 37.0456H218.489V31.5568H228.887C236.443 31.5568 242.568 37.7003 242.568 45.2788V78.7607H237.096V45.2788C237.096 40.7317 233.42 37.0456 228.887 37.0456Z" fill="url(#paint3_linear_101_3)"/>
<path fill-rule="evenodd" clip-rule="evenodd" d="M294.559 37.0456H304.957V31.5568H294.559C287.003 31.5568 280.878 37.7003 280.878 45.2788V78.7607H286.35V45.2788C286.35 40.7317 290.026 37.0456 294.559 37.0456Z" fill="url(#paint4_linear_101_3)"/>
<path fill-rule="evenodd" clip-rule="evenodd" d="M258.983 78.7609V26.0682H264.456V78.7609H258.983Z" fill="url(#paint5_linear_101_3)"/>
<path d="M262.081 27.0936C269.534 27.0936 275.576 21.0336 275.576 13.5582C275.576 6.08274 269.534 0.0227051 262.081 0.0227051C254.627 0.0227051 248.585 6.08274 248.585 13.5582C248.585 21.0336 254.627 27.0936 262.081 27.0936Z" fill="#00C9F1"/>
<path d="M317.859 47.5084C325.312 47.5084 331.355 41.4484 331.355 33.9729C331.355 26.4975 325.312 20.4375 317.859 20.4375C310.406 20.4375 304.364 26.4975 304.364 33.9729C304.364 41.4484 310.406 47.5084 317.859 47.5084Z" fill="#00C9F1"/>
<path d="M205.496 47.5084C212.949 47.5084 218.991 41.4484 218.991 33.9729C218.991 26.4975 212.949 20.4375 205.496 20.4375C198.042 20.4375 192 26.4975 192 33.9729C192 41.4484 198.042 47.5084 205.496 47.5084Z" fill="#00C9F1"/>
<path d="M262.083 0.823328C264.592 0.823328 267.044 1.56953 269.131 2.96756C271.217 4.36559 272.843 6.35267 273.803 8.67751C274.763 11.0023 275.014 13.5605 274.525 16.0286C274.035 18.4966 272.827 20.7637 271.053 22.543C269.279 24.3224 267.019 25.5341 264.558 26.0251C262.097 26.516 259.546 26.264 257.228 25.301C254.91 24.338 252.929 22.7073 251.535 20.615C250.141 18.5227 249.397 16.0628 249.397 13.5464C249.4 10.1729 250.738 6.93846 253.116 4.55305C255.494 2.16764 258.719 0.826235 262.083 0.823328ZM262.083 4.45006e-06C259.411 -0.0021671 256.799 0.790467 254.576 2.27765C252.354 3.76482 250.621 5.87973 249.597 8.35483C248.573 10.8299 248.304 13.554 248.824 16.1825C249.344 18.8109 250.629 21.2257 252.518 23.1213C254.406 25.0169 256.813 26.3082 259.433 26.8317C262.053 27.3553 264.769 27.0877 267.238 26.0627C269.707 25.0378 271.817 23.3015 273.301 21.0736C274.786 18.8456 275.578 16.2261 275.578 13.5464C275.578 9.95559 274.157 6.51167 271.626 3.97154C269.096 1.43141 265.663 0.00291436 262.083 4.45006e-06Z" fill="url(#paint6_linear_101_3)"/>
<path d="M317.863 21.2666C320.369 21.2666 322.82 22.0121 324.904 23.4089C326.989 24.8058 328.613 26.7911 329.572 29.114C330.532 31.4368 330.783 33.9928 330.294 36.4587C329.805 38.9246 328.597 41.1897 326.825 42.9675C325.052 44.7453 322.794 45.956 320.335 46.4465C317.877 46.937 315.328 46.6853 313.012 45.7232C310.696 44.761 308.717 43.1317 307.324 41.0412C305.931 38.9507 305.188 36.4929 305.188 33.9787C305.194 30.609 306.531 27.379 308.907 24.9963C311.282 22.6136 314.503 21.2724 317.863 21.2666ZM317.863 20.4432C315.194 20.4454 312.586 21.2411 310.368 22.7297C308.15 24.2183 306.422 26.333 305.402 28.8065C304.382 31.28 304.117 34.0012 304.639 36.626C305.161 39.2509 306.447 41.6617 308.335 43.5536C310.222 45.4454 312.627 46.7335 315.245 47.2548C317.862 47.7762 320.575 47.5075 323.041 46.4827C325.506 45.458 327.613 43.7231 329.095 41.4974C330.578 39.2718 331.369 36.6553 331.369 33.9787C331.369 32.2003 331.02 30.4393 330.341 28.7964C329.662 27.1535 328.667 25.6608 327.412 24.4038C326.158 23.1468 324.669 22.15 323.03 21.4704C321.392 20.7908 319.636 20.4418 317.863 20.4432Z" fill="url(#paint7_linear_101_3)"/>
<path d="M205.496 21.2666C208.002 21.2687 210.451 22.0161 212.534 23.4143C214.617 24.8124 216.24 26.7985 217.198 29.1216C218.155 31.4446 218.405 34.0002 217.914 36.4654C217.424 38.9306 216.216 41.1947 214.443 42.9714C212.67 44.7481 210.412 45.9577 207.953 46.4473C205.495 46.9369 202.947 46.6846 200.632 45.7221C198.316 44.7596 196.337 43.1303 194.945 41.04C193.553 38.9498 192.81 36.4924 192.81 33.9787C192.813 30.6062 194.151 27.3729 196.529 24.9892C198.908 22.6055 202.133 21.2666 205.496 21.2666ZM205.496 20.4432C202.826 20.4432 200.217 21.2371 197.998 22.7244C195.779 24.2117 194.049 26.3256 193.027 28.7989C192.006 31.2722 191.739 33.9937 192.259 36.6193C192.78 39.2449 194.065 41.6567 195.953 43.5497C197.84 45.4427 200.245 46.7318 202.863 47.254C205.481 47.7763 208.194 47.5083 210.66 46.4838C213.126 45.4593 215.234 43.7245 216.717 41.4986C218.2 39.2727 218.991 36.6557 218.991 33.9787C218.988 30.3898 217.565 26.9487 215.035 24.4109C212.505 21.8731 209.074 20.4461 205.496 20.4432Z" fill="url(#paint8_linear_101_3)"/>
<path d="M208.043 73.8444C209.074 75.5783 210.535 77.0146 212.285 78.0131C214.034 79.0117 216.012 79.5384 218.025 79.5418H324.194C325.548 79.5418 326.847 80.0804 327.805 81.0395C328.763 81.9985 329.303 83.2996 329.306 84.6574V154.014C329.303 155.372 328.763 156.673 327.805 157.632C326.847 158.591 325.548 159.13 324.194 159.13H218.025C215.378 159.127 212.841 158.071 210.97 156.194C209.098 154.317 208.046 151.773 208.043 149.118V73.8444ZM207.222 67.8835V149.118C207.222 151.992 208.36 154.748 210.386 156.78C212.412 158.812 215.16 159.953 218.025 159.953H324.194C325.766 159.953 327.273 159.328 328.385 158.214C329.497 157.101 330.124 155.59 330.127 154.014V84.6574C330.124 83.0813 329.497 81.5707 328.385 80.4573C327.273 79.3438 325.766 78.7185 324.194 78.7185H218.025C215.16 78.7185 212.412 77.5769 210.386 75.545C208.36 73.5131 207.222 70.7571 207.222 67.8835Z" fill="url(#paint9_linear_101_3)"/>
<path d="M304.661 104.318H329.266V137.021H308.765C306.651 137.021 304.557 136.603 302.604 135.791C300.65 134.98 298.876 133.79 297.38 132.291C295.885 130.791 294.699 129.011 293.89 127.052C293.081 125.093 292.665 122.993 292.665 120.873V116.35C292.676 113.162 293.944 110.109 296.191 107.855C298.438 105.601 301.483 104.33 304.661 104.318Z" fill="url(#paint10_linear_101_3)" style="mix-blend-mode:multiply"/>
<path d="M306.333 102.92H334.507C335.732 102.92 336.906 103.408 337.773 104.277C338.639 105.146 339.125 106.324 339.125 107.553V125.82C339.102 127.033 338.606 128.189 337.742 129.039C336.878 129.889 335.717 130.365 334.507 130.365H306.333C302.693 130.365 299.202 128.914 296.628 126.333C294.054 123.751 292.608 120.25 292.608 116.599C292.631 112.963 294.087 109.484 296.659 106.921C299.23 104.359 302.708 102.92 306.333 102.92Z" fill="url(#paint11_linear_101_3)"/>
<path d="M334.512 103.681C335.519 103.684 336.483 104.086 337.195 104.8C337.906 105.514 338.307 106.481 338.31 107.49V125.757C338.307 126.767 337.906 127.734 337.195 128.448C336.483 129.161 335.519 129.564 334.512 129.567H306.339C302.916 129.567 299.634 128.203 297.214 125.776C294.794 123.348 293.434 120.056 293.434 116.624C293.434 113.191 294.794 109.899 297.214 107.472C299.634 105.045 302.916 103.681 306.339 103.681H334.512ZM334.512 102.858H306.339C302.699 102.858 299.208 104.308 296.634 106.89C294.06 109.471 292.614 112.973 292.614 116.624C292.619 120.27 294.068 123.765 296.642 126.34C299.216 128.915 302.704 130.36 306.339 130.357H334.512C335.737 130.357 336.912 129.869 337.778 129C338.644 128.131 339.131 126.953 339.131 125.724V107.49C339.117 106.271 338.624 105.107 337.759 104.25C336.894 103.393 335.728 102.913 334.512 102.913V102.858Z" fill="url(#paint12_linear_101_3)"/>
<path d="M307.034 124.466C311.35 124.466 314.849 120.957 314.849 116.628C314.849 112.299 311.35 108.79 307.034 108.79C302.718 108.79 299.219 112.299 299.219 116.628C299.219 120.957 302.718 124.466 307.034 124.466Z" fill="white"/>
<path fill-rule="evenodd" clip-rule="evenodd" d="M307.034 109.335C303.02 109.335 299.764 112.599 299.764 116.628C299.764 120.657 303.02 123.92 307.034 123.92C311.047 123.92 314.303 120.657 314.303 116.628C314.303 112.599 311.047 109.335 307.034 109.335ZM298.673 116.628C298.673 111.999 302.415 108.244 307.034 108.244C311.653 108.244 315.394 111.999 315.394 116.628C315.394 121.256 311.653 125.011 307.034 125.011C302.415 125.011 298.673 121.256 298.673 116.628Z" fill="#0DAEE2"/>
<circle cx="266" cy="278" r="40" fill="url(#paint13_linear_101_3)"/>
<path d="M256.52 290.386C254.725 290.379 253.191 289.905 251.918 288.966C250.645 288.027 249.672 286.659 248.998 284.864C248.323 283.068 247.986 280.905 247.986 278.375C247.986 275.852 248.323 273.697 248.998 271.909C249.679 270.121 250.657 268.758 251.929 267.818C253.21 266.879 254.74 266.409 256.52 266.409C258.301 266.409 259.827 266.883 261.1 267.83C262.373 268.769 263.346 270.133 264.02 271.92C264.702 273.701 265.043 275.852 265.043 278.375C265.043 280.913 264.706 283.08 264.032 284.875C263.357 286.663 262.384 288.03 261.111 288.977C259.838 289.917 258.308 290.386 256.52 290.386ZM256.52 287.352C258.096 287.352 259.327 286.583 260.213 285.045C261.107 283.508 261.554 281.284 261.554 278.375C261.554 276.443 261.35 274.811 260.941 273.477C260.539 272.136 259.96 271.121 259.202 270.432C258.452 269.735 257.558 269.386 256.52 269.386C254.952 269.386 253.721 270.159 252.827 271.705C251.933 273.25 251.482 275.473 251.475 278.375C251.475 280.314 251.676 281.955 252.077 283.295C252.486 284.629 253.066 285.64 253.816 286.33C254.566 287.011 255.467 287.352 256.52 287.352ZM268.434 290V287.455L276.309 279.295C277.15 278.409 277.843 277.633 278.389 276.966C278.942 276.292 279.355 275.652 279.627 275.045C279.9 274.439 280.037 273.795 280.037 273.114C280.037 272.341 279.855 271.674 279.491 271.114C279.127 270.545 278.631 270.11 278.002 269.807C277.374 269.496 276.665 269.341 275.877 269.341C275.044 269.341 274.317 269.511 273.696 269.852C273.074 270.193 272.597 270.674 272.264 271.295C271.93 271.917 271.764 272.644 271.764 273.477H268.412C268.412 272.061 268.737 270.822 269.389 269.761C270.04 268.701 270.934 267.879 272.071 267.295C273.207 266.705 274.499 266.409 275.946 266.409C277.408 266.409 278.696 266.701 279.809 267.284C280.93 267.86 281.805 268.648 282.434 269.648C283.063 270.64 283.377 271.761 283.377 273.011C283.377 273.875 283.215 274.72 282.889 275.545C282.571 276.371 282.014 277.292 281.218 278.307C280.423 279.314 279.317 280.538 277.9 281.977L273.275 286.818V286.989H283.752V290H268.434Z" fill="white"/>
<path fill-rule="evenodd" clip-rule="evenodd" d="M334 279L532 279L532 278L334 278L334 279Z" fill="#00C9F1"/>
<path d="M326 283L338.222 283C339.224 283 340.185 282.526 340.894 281.682C341.602 280.838 342 279.693 342 278.5C342 277.307 341.602 276.162 340.894 275.318C340.185 274.474 339.224 274 338.222 274L326 274L326 283Z" fill="#00C9F1"/>
<path fill-rule="evenodd" clip-rule="evenodd" d="M198 279L-1.74846e-07 279L-2.18557e-07 278L198 278L198 279Z" fill="#00C9F1"/>
<path d="M206 283L193.778 283C192.776 283 191.815 282.526 191.106 281.682C190.398 280.838 190 279.693 190 278.5C190 277.307 190.398 276.162 191.106 275.318C191.815 274.474 192.776 274 193.778 274L206 274L206 283Z" fill="#00C9F1"/>
<defs>
<linearGradient id="paint0_linear_101_3" x1="207.216" y1="67.8861" x2="312.52" y2="67.8861" gradientUnits="userSpaceOnUse">
<stop stop-color="#AA0E67"/>
<stop offset="1" stop-color="#2C8ECA"/>
</linearGradient>
<linearGradient id="paint1_linear_101_3" x1="207.222" y1="68.3139" x2="312.527" y2="68.3139" gradientUnits="userSpaceOnUse">
<stop stop-color="#A61269"/>
<stop offset="1" stop-color="#00CEFF"/>
<stop offset="1" stop-color="white"/>
</linearGradient>
<linearGradient id="paint2_linear_101_3" x1="205.585" y1="149.188" x2="327.673" y2="78.9031" gradientUnits="userSpaceOnUse">
<stop stop-color="#E92C9D"/>
<stop offset="0.42218" stop-color="#A67DC6"/>
<stop offset="1" stop-color="#19D5F2"/>
</linearGradient>
<linearGradient id="paint3_linear_101_3" x1="239.832" y1="78.7607" x2="218.935" y2="34.3486" gradientUnits="userSpaceOnUse">
<stop stop-color="#E41476"/>
<stop offset="1" stop-color="#00C9F1"/>
</linearGradient>
<linearGradient id="paint4_linear_101_3" x1="283.614" y1="78.7607" x2="304.511" y2="34.3486" gradientUnits="userSpaceOnUse">
<stop stop-color="#E41476"/>
<stop offset="1" stop-color="#00C9F1"/>
</linearGradient>
<linearGradient id="paint5_linear_101_3" x1="261.719" y1="78.761" x2="261.719" y2="26.0682" gradientUnits="userSpaceOnUse">
<stop stop-color="#E41476"/>
<stop offset="1" stop-color="#00C9F1"/>
</linearGradient>
<linearGradient id="paint6_linear_101_3" x1="262.083" y1="27.0928" x2="262.083" y2="0.010983" gradientUnits="userSpaceOnUse">
<stop stop-color="#0099E5"/>
<stop offset="1" stop-color="#00FDFF"/>
</linearGradient>
<linearGradient id="paint7_linear_101_3" x1="304.367" y1="33.9787" x2="331.369" y2="33.9787" gradientUnits="userSpaceOnUse">
<stop stop-color="#0093E3"/>
<stop offset="1" stop-color="#00FEFF"/>
</linearGradient>
<linearGradient id="paint8_linear_101_3" x1="191.989" y1="33.9787" x2="218.991" y2="33.9787" gradientUnits="userSpaceOnUse">
<stop stop-color="#00FEFF"/>
<stop offset="1" stop-color="#0095E3"/>
</linearGradient>
<linearGradient id="paint9_linear_101_3" x1="217.281" y1="163.696" x2="314.597" y2="66.6668" gradientUnits="userSpaceOnUse">
<stop stop-color="#DD0132"/>
<stop offset="0.435764" stop-color="#B751AC"/>
<stop offset="1" stop-color="#05FFFF"/>
</linearGradient>
<linearGradient id="paint10_linear_101_3" x1="308.262" y1="140.424" x2="312.786" y2="116.618" gradientUnits="userSpaceOnUse">
<stop stop-opacity="0"/>
<stop offset="1" stop-opacity="0.7"/>
</linearGradient>
<linearGradient id="paint11_linear_101_3" x1="292.608" y1="116.631" x2="339.114" y2="116.631" gradientUnits="userSpaceOnUse">
<stop stop-color="#87EAFF"/>
<stop offset="1" stop-color="#00D5FF"/>
</linearGradient>
<linearGradient id="paint12_linear_101_3" x1="292.614" y1="116.624" x2="339.12" y2="116.624" gradientUnits="userSpaceOnUse">
<stop stop-color="#10D5FF"/>
<stop offset="1" stop-color="#03FFFF"/>
</linearGradient>
<linearGradient id="paint13_linear_101_3" x1="266" y1="238" x2="266" y2="318" gradientUnits="userSpaceOnUse">
<stop stop-color="#DA1C7B"/>
<stop offset="0.47743" stop-color="#7969B0"/>
<stop offset="1" stop-color="#0EBDE9"/>
</linearGradient>
</defs>
</svg>
