<svg width="532" height="318" viewBox="0 0 532 318" fill="none" xmlns="http://www.w3.org/2000/svg">
<path d="M266.603 10C250.121 10 231.315 30.6366 231.315 83.8109V143.94C231.315 146.184 232.206 148.337 233.792 149.924C235.378 151.511 237.529 152.403 239.772 152.403H293.445C294.555 152.403 295.654 152.184 296.679 151.759C297.704 151.333 298.636 150.709 299.42 149.923C300.204 149.137 300.826 148.204 301.25 147.178C301.674 146.151 301.891 145.05 301.89 143.94V83.8109C301.89 31.2039 282.257 10 266.603 10Z" fill="url(#paint0_linear_101_4)"/>
<path d="M266.603 10.8509C274.923 10.8509 283.232 16.9545 289.387 27.6075C297.015 40.8018 301.04 60.2359 301.04 83.8109V143.94C301.04 145.957 300.24 147.891 298.816 149.318C297.392 150.746 295.46 151.549 293.445 151.552H239.772C237.755 151.549 235.822 150.746 234.397 149.319C232.971 147.892 232.169 145.958 232.166 143.94V83.8109C232.166 33.4048 249.463 10.8509 266.603 10.8509ZM266.603 10C250.121 10 231.315 30.6366 231.315 83.8109V143.94C231.315 146.184 232.206 148.337 233.792 149.924C235.378 151.511 237.529 152.403 239.772 152.403H293.445C294.555 152.403 295.654 152.184 296.679 151.759C297.704 151.333 298.636 150.709 299.42 149.923C300.204 149.137 300.826 148.204 301.25 147.178C301.674 146.151 301.891 145.05 301.89 143.94V83.8109C301.89 31.2039 282.257 10 266.603 10Z" fill="url(#paint1_linear_101_4)"/>
<path d="M301.89 83.6384C299.111 82.1243 296.529 80.2724 294.204 78.1247C287.641 72.0551 279.378 67.5284 266.603 67.5284C255.925 67.5284 245.655 73.9951 238.978 79.35C236.627 81.2312 234.053 82.8162 231.315 84.0695V130.414C231.315 131.525 231.534 132.625 231.959 133.651C232.384 134.677 233.007 135.61 233.793 136.395C234.578 137.18 235.51 137.802 236.536 138.226C237.562 138.65 238.662 138.868 239.772 138.866H293.445C294.554 138.868 295.653 138.65 296.678 138.226C297.703 137.802 298.635 137.179 299.419 136.394C300.204 135.609 300.826 134.676 301.25 133.65C301.674 132.624 301.891 131.524 301.89 130.414V123.369V83.6384Z" fill="url(#paint2_linear_101_4)" style="mix-blend-mode:multiply"/>
<path d="M246.28 88.3956C252.261 84.4074 259.225 82.1469 266.406 81.8627C273.587 81.5784 280.708 83.2815 286.985 86.7846V79.4671C287.031 75.4819 286.115 71.5445 284.315 67.9893C282.515 64.4341 279.885 61.3662 276.647 59.046C273.945 57.0659 270.7 55.9649 267.352 55.8921C264.446 55.9351 261.59 56.6536 259.009 57.9909C255.137 59.9905 251.896 63.0279 249.648 66.7642C247.4 70.5004 246.234 74.7884 246.28 79.1494V88.3956Z" fill="#F5F9FF"/>
<path fill-rule="evenodd" clip-rule="evenodd" d="M267.364 55.3467C270.823 55.422 274.176 56.5592 276.967 58.6043C280.275 60.9754 282.963 64.1104 284.802 67.7429C286.641 71.3754 287.577 75.3983 287.531 79.4702V87.7137L286.719 87.2609C280.53 83.8067 273.509 82.1274 266.428 82.4077C259.347 82.6879 252.48 84.9168 246.582 88.8494L245.734 89.4149V79.1523C245.688 74.6912 246.881 70.3049 249.18 66.4829C251.48 62.6603 254.796 59.5524 258.759 57.5065C261.414 56.1303 264.354 55.3909 267.344 55.3467L267.364 55.3467ZM267.35 56.4376C264.532 56.4809 261.763 57.1784 259.26 58.4752C255.478 60.4284 252.311 63.3957 250.115 67.0453C247.919 70.695 246.78 74.8836 246.825 79.1437L246.825 79.1494L246.825 87.3918C252.695 83.6901 259.44 81.5925 266.385 81.3176C273.359 81.0416 280.276 82.614 286.44 85.8679V79.4608C286.484 75.5633 285.589 71.7126 283.828 68.2357C282.068 64.7588 279.496 61.7584 276.33 59.4894L276.325 59.486C273.716 57.574 270.583 56.5099 267.35 56.4376Z" fill="#615FA7"/>
<path d="M312.41 101.024C305.594 99.6345 299.294 96.3877 294.205 91.6417C287.642 85.5834 279.378 81.0454 266.603 81.0454C255.925 81.0454 245.655 87.5121 238.979 92.8669C234.097 96.8165 228.258 99.4037 222.055 100.366C211.003 102.011 194 108.534 194 133.006V170.002H198.239C207.012 170.002 215.425 166.514 221.628 160.306C227.831 154.097 231.316 145.677 231.316 136.897V144.283C231.316 145.394 231.535 146.494 231.96 147.52C232.385 148.546 233.008 149.478 233.794 150.263C234.579 151.048 235.511 151.671 236.537 152.095C237.563 152.519 238.662 152.736 239.772 152.735H293.445C294.555 152.736 295.654 152.519 296.679 152.094C297.704 151.67 298.636 151.048 299.42 150.263C300.205 149.477 300.827 148.545 301.251 147.519C301.674 146.493 301.892 145.393 301.89 144.283V136.897C301.893 145.678 305.381 154.098 311.586 160.306C317.79 166.514 326.205 170.002 334.978 170.002H339.229V133.006C339.229 110.474 323.45 103.27 312.41 101.024Z" fill="url(#paint3_linear_101_4)"/>
<g opacity="0.25">
<path d="M222.055 100.365C211.003 102.01 194 108.533 194 133.004V170.001H198.239C207.012 170.001 215.425 166.513 221.628 160.304C227.831 154.096 231.316 145.676 231.316 136.896V97.5852C228.373 98.9366 225.256 99.872 222.055 100.365Z" fill="url(#paint4_linear_101_4)" style="mix-blend-mode:screen"/>
</g>
<g opacity="0.25">
<path d="M312.408 101.022C308.728 100.268 305.182 98.9634 301.889 97.1534V136.861C301.892 145.642 305.379 154.062 311.584 160.27C317.789 166.478 326.204 169.966 334.977 169.966H339.228V133.004C339.228 110.473 323.449 103.268 312.408 101.022Z" fill="url(#paint5_linear_101_4)" style="mix-blend-mode:screen"/>
</g>
<path d="M266.764 96.2102H266.458C264.592 96.2102 263.08 97.7239 263.08 99.591V131.652C263.08 133.519 264.592 135.033 266.458 135.033H266.764C268.629 135.033 270.142 133.519 270.142 131.652V99.591C270.142 97.7239 268.629 96.2102 266.764 96.2102Z" fill="white"/>
<path d="M266.762 96.6463C267.15 96.6448 267.534 96.7201 267.892 96.8678C268.25 97.0155 268.576 97.2327 268.85 97.5069C269.124 97.7811 269.341 98.1069 269.488 98.4654C269.636 98.824 269.711 99.2082 269.71 99.596V131.657C269.711 132.045 269.636 132.43 269.489 132.789C269.341 133.149 269.124 133.475 268.85 133.75C268.577 134.025 268.251 134.244 267.893 134.393C267.535 134.541 267.15 134.618 266.762 134.618H266.457C265.672 134.618 264.919 134.306 264.364 133.751C263.81 133.196 263.498 132.442 263.498 131.657V99.596C263.498 99.2077 263.575 98.8232 263.723 98.4646C263.872 98.1059 264.09 97.7803 264.365 97.5062C264.64 97.2322 264.966 97.0151 265.325 96.8676C265.684 96.72 266.069 96.6448 266.457 96.6463H266.762ZM266.762 95.7954H266.457C265.448 95.7954 264.481 96.1955 263.767 96.9079C263.053 97.6203 262.651 98.587 262.648 99.596V131.657C262.651 132.667 263.053 133.635 263.767 134.349C264.48 135.063 265.447 135.466 266.457 135.469H266.762C267.771 135.466 268.737 135.063 269.448 134.349C270.16 133.634 270.56 132.666 270.56 131.657V99.596C270.56 98.588 270.16 97.6213 269.448 96.9086C268.736 96.1958 267.77 95.7954 266.762 95.7954Z" fill="#2C8ECA"/>
<path d="M249.113 102.46H248.807C246.941 102.46 245.429 103.974 245.429 105.841V137.902C245.429 139.769 246.941 141.283 248.807 141.283H249.113C250.979 141.283 252.491 139.769 252.491 137.902V105.841C252.491 103.974 250.979 102.46 249.113 102.46Z" fill="white"/>
<path d="M249.112 102.885C249.5 102.885 249.884 102.962 250.242 103.111C250.601 103.259 250.926 103.478 251.2 103.753C251.474 104.028 251.691 104.355 251.838 104.714C251.985 105.073 252.061 105.458 252.059 105.846V137.896C252.061 138.284 251.985 138.669 251.838 139.028C251.691 139.387 251.474 139.714 251.2 139.989C250.926 140.264 250.601 140.482 250.242 140.631C249.884 140.78 249.5 140.857 249.112 140.857H248.806C248.418 140.857 248.034 140.78 247.675 140.631C247.317 140.482 246.992 140.264 246.718 139.989C246.444 139.714 246.227 139.387 246.08 139.028C245.932 138.669 245.857 138.284 245.859 137.896V105.846C245.857 105.458 245.932 105.073 246.08 104.714C246.227 104.355 246.444 104.028 246.718 103.753C246.992 103.478 247.317 103.259 247.675 103.111C248.034 102.962 248.418 102.885 248.806 102.885H249.112ZM249.112 102.034H248.806C247.798 102.037 246.832 102.44 246.12 103.155C245.408 103.869 245.009 104.837 245.009 105.846L245.009 137.896C245.007 138.396 245.104 138.891 245.294 139.354C245.484 139.816 245.764 140.236 246.117 140.591C246.47 140.945 246.889 141.226 247.35 141.417C247.812 141.609 248.306 141.708 248.806 141.708H249.112C249.612 141.708 250.106 141.609 250.568 141.417C251.029 141.226 251.448 140.945 251.801 140.591C252.154 140.236 252.433 139.816 252.624 139.354C252.814 138.891 252.911 138.396 252.909 137.896V105.846C252.909 104.837 252.51 103.869 251.798 103.155C251.086 102.44 250.12 102.037 249.112 102.034Z" fill="#2C8ECA"/>
<path d="M284.414 102.46H284.108C282.243 102.46 280.73 103.974 280.73 105.841V137.902C280.73 139.769 282.243 141.283 284.108 141.283H284.414C286.28 141.283 287.792 139.769 287.792 137.902V105.841C287.792 103.974 286.28 102.46 284.414 102.46Z" fill="white"/>
<path d="M284.402 102.885C284.79 102.885 285.175 102.962 285.534 103.11C285.893 103.259 286.219 103.477 286.494 103.752C286.769 104.027 286.986 104.354 287.135 104.713C287.284 105.072 287.36 105.457 287.36 105.846V137.896C287.36 138.681 287.049 139.434 286.494 139.99C285.939 140.545 285.186 140.857 284.402 140.857H284.107C283.322 140.857 282.57 140.545 282.015 139.99C281.46 139.434 281.148 138.681 281.148 137.896V105.846C281.148 105.061 281.46 104.308 282.015 103.752C282.57 103.197 283.322 102.885 284.107 102.885H284.402ZM284.402 102.034H284.107C283.098 102.037 282.131 102.44 281.417 103.154C280.704 103.868 280.301 104.836 280.298 105.846V137.896C280.298 138.396 280.397 138.892 280.588 139.355C280.78 139.817 281.06 140.237 281.414 140.591C281.768 140.945 282.187 141.226 282.65 141.418C283.112 141.609 283.607 141.708 284.107 141.708H284.402C284.902 141.709 285.398 141.612 285.861 141.421C286.324 141.23 286.744 140.949 287.098 140.595C287.452 140.24 287.733 139.819 287.924 139.356C288.114 138.893 288.212 138.397 288.21 137.896V105.846C288.21 104.835 287.809 103.865 287.095 103.151C286.381 102.436 285.412 102.034 284.402 102.034Z" fill="#2C8ECA"/>
<path d="M265.994 80.3182C255.055 80.3182 244.617 86.9244 237.915 92.2997L237.912 92.3016C233.131 96.1701 227.413 98.7042 221.337 99.6471C215.741 100.48 208.574 102.556 202.797 107.577C196.991 112.624 192.664 120.58 192.664 133.006V170.007H194.118V133.006C194.118 120.96 198.293 113.419 203.751 108.675C209.238 103.906 216.098 101.898 221.553 101.085L221.558 101.085C227.887 100.103 233.845 97.4632 238.826 93.4334C245.477 88.0992 255.579 81.7728 265.994 81.7728C278.559 81.7728 286.651 86.2217 293.101 92.1745C298.288 97.0114 304.709 100.321 311.656 101.737C317.107 102.846 323.665 105.158 328.853 109.927C334.016 114.673 337.882 121.909 337.882 133.006V168.565H337.886V170.007H339.336V133.006C339.336 121.526 335.318 113.894 329.837 108.856C324.381 103.839 317.535 101.449 311.946 100.312C305.261 98.9488 299.083 95.7645 294.092 91.1099L294.089 91.1074C287.413 84.9445 278.979 80.3182 265.994 80.3182Z" fill="url(#paint6_linear_101_4)"/>
<circle cx="266" cy="278" r="40" fill="url(#paint7_linear_101_4)"/>
<path d="M256.52 290.386C254.725 290.379 253.191 289.905 251.918 288.966C250.645 288.027 249.672 286.659 248.998 284.864C248.323 283.068 247.986 280.905 247.986 278.375C247.986 275.852 248.323 273.697 248.998 271.909C249.679 270.121 250.657 268.758 251.929 267.818C253.21 266.879 254.74 266.409 256.52 266.409C258.301 266.409 259.827 266.883 261.1 267.83C262.373 268.769 263.346 270.133 264.02 271.92C264.702 273.701 265.043 275.852 265.043 278.375C265.043 280.913 264.706 283.08 264.032 284.875C263.357 286.663 262.384 288.03 261.111 288.977C259.838 289.917 258.308 290.386 256.52 290.386ZM256.52 287.352C258.096 287.352 259.327 286.583 260.213 285.045C261.107 283.508 261.554 281.284 261.554 278.375C261.554 276.443 261.35 274.811 260.941 273.477C260.539 272.136 259.96 271.121 259.202 270.432C258.452 269.735 257.558 269.386 256.52 269.386C254.952 269.386 253.721 270.159 252.827 271.705C251.933 273.25 251.482 275.473 251.475 278.375C251.475 280.314 251.676 281.955 252.077 283.295C252.486 284.629 253.066 285.64 253.816 286.33C254.566 287.011 255.467 287.352 256.52 287.352ZM276.537 290.318C274.976 290.318 273.582 290.049 272.355 289.511C271.135 288.973 270.169 288.227 269.457 287.273C268.752 286.311 268.374 285.197 268.321 283.932H271.889C271.934 284.621 272.165 285.22 272.582 285.727C273.006 286.227 273.559 286.614 274.241 286.886C274.923 287.159 275.68 287.295 276.514 287.295C277.43 287.295 278.241 287.136 278.946 286.818C279.658 286.5 280.215 286.057 280.616 285.489C281.018 284.913 281.218 284.25 281.218 283.5C281.218 282.72 281.018 282.034 280.616 281.443C280.222 280.845 279.643 280.375 278.877 280.034C278.12 279.693 277.203 279.523 276.127 279.523H274.162V276.659H276.127C276.991 276.659 277.749 276.504 278.4 276.193C279.059 275.883 279.574 275.451 279.946 274.898C280.317 274.337 280.502 273.682 280.502 272.932C280.502 272.212 280.34 271.587 280.014 271.057C279.696 270.519 279.241 270.098 278.65 269.795C278.067 269.492 277.377 269.341 276.582 269.341C275.824 269.341 275.116 269.481 274.457 269.761C273.805 270.034 273.275 270.428 272.866 270.943C272.457 271.451 272.237 272.061 272.207 272.773H268.809C268.847 271.515 269.218 270.409 269.923 269.455C270.635 268.5 271.574 267.754 272.741 267.216C273.908 266.678 275.203 266.409 276.627 266.409C278.12 266.409 279.408 266.701 280.491 267.284C281.582 267.86 282.423 268.629 283.014 269.591C283.612 270.553 283.908 271.606 283.9 272.75C283.908 274.053 283.544 275.159 282.809 276.068C282.082 276.977 281.112 277.587 279.9 277.898V278.08C281.446 278.314 282.643 278.928 283.491 279.92C284.347 280.913 284.771 282.144 284.764 283.614C284.771 284.894 284.415 286.042 283.696 287.057C282.984 288.072 282.01 288.871 280.775 289.455C279.54 290.03 278.127 290.318 276.537 290.318Z" fill="white"/>
<path fill-rule="evenodd" clip-rule="evenodd" d="M266 210V180H267V210H266Z" fill="#00C9F1"/>
<path d="M262 218V205.778C262 204.776 262.474 203.815 263.318 203.106C264.162 202.398 265.307 202 266.5 202C267.693 202 268.838 202.398 269.682 203.106C270.526 203.815 271 204.776 271 205.778V218H262Z" fill="#00C9F1"/>
<path fill-rule="evenodd" clip-rule="evenodd" d="M334 279L532 279L532 278L334 278L334 279Z" fill="#00C9F1"/>
<path d="M326 283L338.222 283C339.224 283 340.185 282.526 340.894 281.682C341.602 280.838 342 279.693 342 278.5C342 277.307 341.602 276.162 340.894 275.318C340.185 274.474 339.224 274 338.222 274L326 274L326 283Z" fill="#00C9F1"/>
<path fill-rule="evenodd" clip-rule="evenodd" d="M198 279L-1.74846e-07 279L-2.18557e-07 278L198 278L198 279Z" fill="#00C9F1"/>
<path d="M206 283L193.778 283C192.776 283 191.815 282.526 191.106 281.682C190.398 280.838 190 279.693 190 278.5C190 277.307 190.398 276.162 191.106 275.318C191.815 274.474 192.776 274 193.778 274L206 274L206 283Z" fill="#00C9F1"/>
<defs>
<linearGradient id="paint0_linear_101_4" x1="266.603" y1="152.392" x2="266.603" y2="10" gradientUnits="userSpaceOnUse">
<stop offset="0.44" stop-color="#E41476"/>
<stop offset="1" stop-color="#00C9F1"/>
</linearGradient>
<linearGradient id="paint1_linear_101_4" x1="266.603" y1="152.392" x2="266.603" y2="10" gradientUnits="userSpaceOnUse">
<stop stop-color="#B7388F"/>
<stop offset="0.519097" stop-color="#B655AD"/>
<stop offset="1" stop-color="#03FFFF"/>
</linearGradient>
<linearGradient id="paint2_linear_101_4" x1="266.603" y1="138.866" x2="266.603" y2="67.5284" gradientUnits="userSpaceOnUse">
<stop stop-opacity="0.8"/>
<stop offset="1" stop-opacity="0"/>
</linearGradient>
<linearGradient id="paint3_linear_101_4" x1="266.603" y1="170.002" x2="266.603" y2="81.0454" gradientUnits="userSpaceOnUse">
<stop stop-color="#E41476"/>
<stop offset="1" stop-color="#00C9F1"/>
</linearGradient>
<linearGradient id="paint4_linear_101_4" x1="212.658" y1="170.001" x2="212.658" y2="81.0441" gradientUnits="userSpaceOnUse">
<stop stop-color="#E41476"/>
<stop offset="1" stop-color="#00C9F1"/>
</linearGradient>
<linearGradient id="paint5_linear_101_4" x1="320.559" y1="170" x2="320.559" y2="81.0435" gradientUnits="userSpaceOnUse">
<stop stop-color="#E41476"/>
<stop offset="1" stop-color="#00C9F1"/>
</linearGradient>
<linearGradient id="paint6_linear_101_4" x1="265.983" y1="170.853" x2="265.983" y2="80.1946" gradientUnits="userSpaceOnUse">
<stop stop-color="#B50C43"/>
<stop offset="0.487847" stop-color="#8386C5"/>
<stop offset="1" stop-color="#21F4FB"/>
</linearGradient>
<linearGradient id="paint7_linear_101_4" x1="266" y1="238" x2="266" y2="318" gradientUnits="userSpaceOnUse">
<stop stop-color="#DA1C7B"/>
<stop offset="0.47743" stop-color="#7969B0"/>
<stop offset="1" stop-color="#0EBDE9"/>
</linearGradient>
</defs>
</svg>
