<svg width="32" height="32" viewBox="0 0 32 32" fill="none" xmlns="http://www.w3.org/2000/svg">
<path d="M22.4258 2.54688H9.57245C6.74578 2.54688 4.42578 4.86688 4.42578 7.69354V26.4802C4.42578 28.8802 6.14578 29.8935 8.25245 28.7335L14.7591 25.1202C15.4524 24.7335 16.5724 24.7335 17.2524 25.1202L23.7591 28.7335C25.8658 29.9069 27.5858 28.8935 27.5858 26.4802V7.69354C27.5725 4.86688 25.2658 2.54688 22.4258 2.54688Z" fill="url(#paint0_linear_322_4015)"/>
<path d="M14.7857 17.6664C14.5324 17.6664 14.2791 17.5731 14.0791 17.3731L12.0791 15.3731C11.6924 14.9864 11.6924 14.3464 12.0791 13.9598C12.4657 13.5731 13.1057 13.5731 13.4924 13.9598L14.7857 15.2531L19.4124 10.6264C19.7991 10.2398 20.4391 10.2398 20.8257 10.6264C21.2124 11.0131 21.2124 11.6531 20.8257 12.0398L15.4924 17.3731C15.2924 17.5731 15.0391 17.6664 14.7857 17.6664Z" fill="#2E2E2E"/>
<defs>
<linearGradient id="paint0_linear_322_4015" x1="16.0058" y1="2.54687" x2="16.0058" y2="29.2221" gradientUnits="userSpaceOnUse">
<stop stop-color="#85F850"/>
<stop offset="1" stop-color="#10F2E5"/>
</linearGradient>
</defs>
</svg>
