<svg width="32" height="32" viewBox="0 0 32 32" fill="none" xmlns="http://www.w3.org/2000/svg">
<path d="M21.5863 2.6665H10.4264C5.57302 2.6665 2.67969 5.55983 2.67969 10.4132V21.5732C2.67969 26.4265 5.57302 29.3198 10.4264 29.3198H21.5863C26.4397 29.3198 29.333 26.4265 29.333 21.5732V10.4132C29.333 5.55983 26.4397 2.6665 21.5863 2.6665Z" fill="url(#paint0_linear_322_4019)"/>
<path d="M16.267 23.1734C15.3337 23.1734 14.387 22.8134 13.6803 22.1067C12.987 21.4134 12.6003 20.4934 12.6003 19.5201C12.6003 18.5468 12.987 17.6134 13.6803 16.9334L15.5603 15.0534C15.947 14.6667 16.587 14.6667 16.9736 15.0534C17.3603 15.4401 17.3603 16.0801 16.9736 16.4667L15.0937 18.3467C14.7737 18.6667 14.6003 19.0801 14.6003 19.5201C14.6003 19.9601 14.7737 20.3867 15.0937 20.6934C15.747 21.3467 16.8004 21.3467 17.4537 20.6934L20.4137 17.7334C22.107 16.04 22.107 13.2934 20.4137 11.6001C18.7203 9.90675 15.9737 9.90675 14.2804 11.6001L11.0536 14.8267C10.3736 15.5067 10.0003 16.4001 10.0003 17.3467C10.0003 18.2934 10.3736 19.2001 11.0536 19.8667C11.4403 20.2534 11.4403 20.8934 11.0536 21.2801C10.667 21.6667 10.027 21.6667 9.6403 21.2801C8.58697 20.2267 8.01367 18.8267 8.01367 17.3334C8.01367 15.8401 8.58697 14.4401 9.6403 13.3867L12.867 10.1601C15.3337 7.69339 19.3603 7.69339 21.827 10.1601C24.2937 12.6267 24.2937 16.6534 21.827 19.1201L18.867 22.0801C18.147 22.8134 17.2137 23.1734 16.267 23.1734Z" fill="#2E2E2E"/>
<defs>
<linearGradient id="paint0_linear_322_4019" x1="16.0063" y1="2.6665" x2="16.0063" y2="29.3198" gradientUnits="userSpaceOnUse">
<stop stop-color="#85F850"/>
<stop offset="1" stop-color="#10F2E5"/>
</linearGradient>
</defs>
</svg>
