<svg width="32" height="32" viewBox="0 0 32 32" fill="none" xmlns="http://www.w3.org/2000/svg">
<path d="M29.3333 11.3332C29.3333 16.1198 25.4533 19.9998 20.6667 19.9998C20.44 19.9998 20.2 19.9865 19.9733 19.9732C19.64 15.7465 16.2533 12.3598 12.0267 12.0265C12.0133 11.7998 12 11.5598 12 11.3332C12 6.5465 15.88 2.6665 20.6667 2.6665C25.4533 2.6665 29.3333 6.5465 29.3333 11.3332Z" fill="white"/>
<path d="M19.9993 20.6667C19.9993 25.4533 16.1193 29.3333 11.3327 29.3333C6.54602 29.3333 2.66602 25.4533 2.66602 20.6667C2.66602 15.88 6.54602 12 11.3327 12C11.5593 12 11.7993 12.0133 12.026 12.0267C16.2527 12.36 19.6394 15.7467 19.9727 19.9733C19.986 20.2 19.9993 20.44 19.9993 20.6667Z" fill="url(#paint0_linear_322_4013)"/>
<path d="M10.16 19.4935L11.3333 17.3335L12.5067 19.4935L14.6667 20.6668L12.5067 21.8402L11.3333 24.0002L10.16 21.8402L8 20.6668L10.16 19.4935Z" fill="#2E2E2E"/>
<defs>
<linearGradient id="paint0_linear_322_4013" x1="11.3327" y1="12" x2="11.3327" y2="29.3333" gradientUnits="userSpaceOnUse">
<stop stop-color="#85F850"/>
<stop offset="1" stop-color="#10F2E5"/>
</linearGradient>
</defs>
</svg>
