<svg width="32" height="32" viewBox="0 0 32 32" fill="none" xmlns="http://www.w3.org/2000/svg">
<path d="M22.3343 4.7465V2.6665C22.3343 2.11984 21.881 1.6665 21.3343 1.6665C20.7876 1.6665 20.3343 2.11984 20.3343 2.6665V4.6665H11.6676V2.6665C11.6676 2.11984 11.2143 1.6665 10.6676 1.6665C10.121 1.6665 9.66762 2.11984 9.66762 2.6665V4.7465C6.06762 5.07983 4.32096 7.2265 4.05429 10.4132C4.02762 10.7998 4.34762 11.1198 4.72096 11.1198H27.281C27.6676 11.1198 27.9876 10.7865 27.9476 10.4132C27.681 7.2265 25.9343 5.07983 22.3343 4.7465Z" fill="url(#paint0_linear_132_6839)"/>
<path d="M28 14.4531V16.7731C28 17.5864 27.28 18.2131 26.48 18.0798C26.1067 18.0265 25.72 17.9865 25.3333 17.9865C21.2933 17.9865 18 21.2798 18 25.3198C18 25.9331 18.24 26.7865 18.4933 27.5598C18.7867 28.4265 18.1467 29.3198 17.2267 29.3198H10.6667C6 29.3198 4 26.6531 4 22.6531V14.4398C4 13.7064 4.6 13.1064 5.33333 13.1064H26.6667C27.4 13.1198 28 13.7198 28 14.4531Z" fill="white"/>
<path d="M25.3333 20C22.3867 20 20 22.3867 20 25.3333C20 26.3333 20.28 27.28 20.7733 28.08C21.6933 29.6267 23.3867 30.6667 25.3333 30.6667C27.28 30.6667 28.9733 29.6267 29.8933 28.08C30.3867 27.28 30.6667 26.3333 30.6667 25.3333C30.6667 22.3867 28.28 20 25.3333 20ZM28.0933 24.76L25.2533 27.3867C25.0667 27.56 24.8133 27.6533 24.5733 27.6533C24.32 27.6533 24.0667 27.56 23.8667 27.36L22.5467 26.04C22.16 25.6533 22.16 25.0133 22.5467 24.6267C22.9333 24.24 23.5733 24.24 23.96 24.6267L24.6 25.2667L26.7333 23.2933C27.1333 22.92 27.7733 22.9467 28.1467 23.3467C28.52 23.7467 28.4933 24.3733 28.0933 24.76Z" fill="url(#paint1_linear_132_6839)"/>
<path d="M11.3333 19.9999C10.9867 19.9999 10.64 19.8532 10.3867 19.6132C10.1467 19.3599 10 19.0132 10 18.6666C10 18.3199 10.1467 17.9732 10.3867 17.7199C10.6933 17.4132 11.16 17.2665 11.6 17.3599C11.68 17.3732 11.76 17.3999 11.84 17.4399C11.92 17.4665 12 17.5066 12.08 17.5599C12.1467 17.6132 12.2133 17.6666 12.28 17.7199C12.52 17.9732 12.6667 18.3199 12.6667 18.6666C12.6667 19.0132 12.52 19.3599 12.28 19.6132C12.2133 19.6665 12.1467 19.7199 12.08 19.7732C12 19.8265 11.92 19.8666 11.84 19.8932C11.76 19.9332 11.68 19.9599 11.6 19.9732C11.5067 19.9866 11.4133 19.9999 11.3333 19.9999Z" fill="url(#paint2_linear_132_6839)"/>
<path d="M15.9993 20.0001C15.6527 20.0001 15.306 19.8534 15.0527 19.6134C14.8127 19.3601 14.666 19.0134 14.666 18.6668C14.666 18.3201 14.8127 17.9734 15.0527 17.7201C15.5594 17.2268 16.4527 17.2268 16.946 17.7201C17.186 17.9734 17.3327 18.3201 17.3327 18.6668C17.3327 19.0134 17.186 19.3601 16.946 19.6134C16.6927 19.8534 16.346 20.0001 15.9993 20.0001Z" fill="url(#paint3_linear_132_6839)"/>
<path d="M11.3333 24.6667C10.9867 24.6667 10.64 24.52 10.3867 24.28C10.1467 24.0266 10 23.68 10 23.3333C10 22.9867 10.1467 22.64 10.3867 22.3867C10.52 22.2667 10.6533 22.1733 10.8267 22.1066C11.32 21.8933 11.9067 22.0133 12.28 22.3867C12.52 22.64 12.6667 22.9867 12.6667 23.3333C12.6667 23.68 12.52 24.0266 12.28 24.28C12.0267 24.52 11.68 24.6667 11.3333 24.6667Z" fill="url(#paint4_linear_132_6839)"/>
<defs>
<linearGradient id="paint0_linear_132_6839" x1="16.0019" y1="1.6665" x2="16.0019" y2="11.1198" gradientUnits="userSpaceOnUse">
<stop stop-color="#85F850"/>
<stop offset="1" stop-color="#10F2E5"/>
</linearGradient>
<linearGradient id="paint1_linear_132_6839" x1="25.3333" y1="20" x2="25.3333" y2="30.6667" gradientUnits="userSpaceOnUse">
<stop stop-color="#85F850"/>
<stop offset="1" stop-color="#10F2E5"/>
</linearGradient>
<linearGradient id="paint2_linear_132_6839" x1="11.3333" y1="17.332" x2="11.3333" y2="19.9999" gradientUnits="userSpaceOnUse">
<stop stop-color="#85F850"/>
<stop offset="1" stop-color="#10F2E5"/>
</linearGradient>
<linearGradient id="paint3_linear_132_6839" x1="15.9993" y1="17.3501" x2="15.9993" y2="20.0001" gradientUnits="userSpaceOnUse">
<stop stop-color="#85F850"/>
<stop offset="1" stop-color="#10F2E5"/>
</linearGradient>
<linearGradient id="paint4_linear_132_6839" x1="11.3333" y1="22.0015" x2="11.3333" y2="24.6667" gradientUnits="userSpaceOnUse">
<stop stop-color="#85F850"/>
<stop offset="1" stop-color="#10F2E5"/>
</linearGradient>
</defs>
</svg>
