<svg width="32" height="32" viewBox="0 0 32 32" fill="none" xmlns="http://www.w3.org/2000/svg">
<path d="M29.3327 12V21.9467C29.3327 25 26.8527 27.4667 23.7993 27.4667H8.19935C5.14602 27.4667 2.66602 25 2.66602 21.9467V12H29.3327Z" fill="url(#paint0_linear_322_4354)"/>
<path d="M29.3327 10.0532V11.9999H2.66602V10.0532C2.66602 6.99987 5.14602 4.5332 8.19935 4.5332H23.7993C26.8527 4.5332 29.3327 6.99987 29.3327 10.0532Z" fill="white"/>
<path d="M10.6667 23H8C7.45333 23 7 22.5467 7 22C7 21.4533 7.45333 21 8 21H10.6667C11.2133 21 11.6667 21.4533 11.6667 22C11.6667 22.5467 11.2133 23 10.6667 23Z" fill="#2E2E2E"/>
<path d="M19.3333 23H14C13.4533 23 13 22.5467 13 22C13 21.4533 13.4533 21 14 21H19.3333C19.88 21 20.3333 21.4533 20.3333 22C20.3333 22.5467 19.88 23 19.3333 23Z" fill="#2E2E2E"/>
<defs>
<linearGradient id="paint0_linear_322_4354" x1="15.9993" y1="12" x2="15.9993" y2="27.4667" gradientUnits="userSpaceOnUse">
<stop stop-color="#85F850"/>
<stop offset="1" stop-color="#10F2E5"/>
</linearGradient>
</defs>
</svg>
