<svg width="32" height="32" viewBox="0 0 32 32" fill="none" xmlns="http://www.w3.org/2000/svg">
<path d="M28 30.3335H4C3.45333 30.3335 3 29.8802 3 29.3335C3 28.7868 3.45333 28.3335 4 28.3335H28C28.5467 28.3335 29 28.7868 29 29.3335C29 29.8802 28.5467 30.3335 28 30.3335Z" fill="white"/>
<path d="M7.46663 11.1733H5.33333C4.6 11.1733 4 11.7733 4 12.5067V24C4 24.7333 4.6 25.3333 5.33333 25.3333H7.46663C8.19997 25.3333 8.79997 24.7333 8.79997 24V12.5067C8.79997 11.76 8.19997 11.1733 7.46663 11.1733Z" fill="url(#paint0_linear_134_9239)"/>
<path d="M17.0662 6.91992H14.9329C14.1996 6.91992 13.5996 7.51992 13.5996 8.25326V23.9999C13.5996 24.7333 14.1996 25.3333 14.9329 25.3333H17.0662C17.7996 25.3333 18.3996 24.7333 18.3996 23.9999V8.25326C18.3996 7.51992 17.7996 6.91992 17.0662 6.91992Z" fill="url(#paint1_linear_134_9239)"/>
<path d="M26.6659 2.6665H24.5326C23.7992 2.6665 23.1992 3.2665 23.1992 3.99984V23.9998C23.1992 24.7332 23.7992 25.3332 24.5326 25.3332H26.6659C27.3992 25.3332 27.9992 24.7332 27.9992 23.9998V3.99984C27.9992 3.2665 27.3992 2.6665 26.6659 2.6665Z" fill="url(#paint2_linear_134_9239)"/>
<defs>
<linearGradient id="paint0_linear_134_9239" x1="6.39998" y1="11.1733" x2="6.39998" y2="25.3333" gradientUnits="userSpaceOnUse">
<stop stop-color="#85F850"/>
<stop offset="1" stop-color="#10F2E5"/>
</linearGradient>
<linearGradient id="paint1_linear_134_9239" x1="15.9996" y1="6.91992" x2="15.9996" y2="25.3333" gradientUnits="userSpaceOnUse">
<stop stop-color="#85F850"/>
<stop offset="1" stop-color="#10F2E5"/>
</linearGradient>
<linearGradient id="paint2_linear_134_9239" x1="25.5992" y1="2.6665" x2="25.5992" y2="25.3332" gradientUnits="userSpaceOnUse">
<stop stop-color="#85F850"/>
<stop offset="1" stop-color="#10F2E5"/>
</linearGradient>
</defs>
</svg>
