<svg width="32" height="32" viewBox="0 0 32 32" fill="none" xmlns="http://www.w3.org/2000/svg">
<path d="M21.5863 2.6665H10.4264C5.57302 2.6665 2.67969 5.55983 2.67969 10.4132V21.5732C2.67969 26.4265 5.57302 29.3198 10.4264 29.3198H21.5863C26.4397 29.3198 29.333 26.4265 29.333 21.5732V10.4132C29.333 5.55983 26.4397 2.6665 21.5863 2.6665Z" fill="url(#paint0_linear_322_4355)"/>
<path d="M13.4791 14.8667H9.94576C9.10576 14.8667 8.42578 15.5466 8.42578 16.3866V23.2133H13.4791V14.8667Z" fill="#2E2E2E"/>
<path d="M17.0115 8.7998H14.9848C14.1448 8.7998 13.4648 9.47982 13.4648 10.3198V23.1999H18.5182V10.3198C18.5182 9.47982 17.8515 8.7998 17.0115 8.7998Z" fill="white"/>
<path d="M22.0665 17.1333H18.5332V23.2H23.5865V18.6533C23.5732 17.8133 22.8932 17.1333 22.0665 17.1333Z" fill="#2E2E2E"/>
<defs>
<linearGradient id="paint0_linear_322_4355" x1="16.0063" y1="2.6665" x2="16.0063" y2="29.3198" gradientUnits="userSpaceOnUse">
<stop stop-color="#85F850"/>
<stop offset="1" stop-color="#10F2E5"/>
</linearGradient>
</defs>
</svg>
