<svg width="32" height="32" viewBox="0 0 32 32" fill="none" xmlns="http://www.w3.org/2000/svg">
<path d="M26.6673 12.0002V15.8935L25.6273 15.2935C24.774 14.8002 23.7073 14.9468 23.014 15.6135C22.8673 15.7468 22.7473 15.9068 22.6407 16.0802L22.5607 16.2268C22.414 16.4802 22.294 16.5468 22.2807 16.5602C22.254 16.5468 22.1207 16.4802 21.974 16.2135L21.894 16.0802C21.6007 15.5735 21.134 15.2268 20.574 15.0802C20.0007 14.9202 19.414 15.0002 18.9207 15.2935L17.7073 16.0002C17.1607 16.3068 16.774 16.8135 16.614 17.4135C16.454 18.0268 16.534 18.6535 16.8407 19.2002C16.9873 19.4402 16.9873 19.5868 16.9873 19.6135C16.974 19.6268 16.8407 19.7068 16.5473 19.7068C15.254 19.7068 14.2007 20.7602 14.2007 22.0402V23.2935C14.2007 24.5735 15.254 25.6268 16.5473 25.6268C16.8407 25.6268 16.974 25.7068 16.974 25.7202C16.9873 25.7335 16.9873 25.8935 16.8407 26.1335C16.7473 26.3068 16.6673 26.4802 16.6273 26.6668H12.0007C8.32065 26.6668 5.33398 23.6802 5.33398 20.0002V12.0002C5.33398 8.32016 8.32065 5.3335 12.0007 5.3335H20.0007C23.6807 5.3335 26.6673 8.32016 26.6673 12.0002Z" fill="url(#paint0_linear_138_9421)"/>
<path d="M23.013 12.9868V15.6135C22.8663 15.7468 22.7463 15.9068 22.6397 16.0802L22.5597 16.2268C22.413 16.4802 22.293 16.5468 22.2797 16.5602C22.253 16.5468 22.1197 16.4802 21.973 16.2135L21.893 16.0802C21.5997 15.5735 21.133 15.2268 20.573 15.0802C19.9997 14.9202 19.413 15.0002 18.9197 15.2935L17.7063 16.0002C17.1597 16.3068 16.773 16.8135 16.613 17.4135C16.453 18.0268 16.533 18.6535 16.8397 19.2001C16.9863 19.4402 16.9863 19.5868 16.9863 19.6135C16.973 19.6268 16.8397 19.7068 16.5463 19.7068C15.253 19.7068 14.1997 20.7602 14.1997 22.0402V23.0135H12.9863C10.7863 23.0135 8.98633 21.2135 8.98633 19.0135V12.9868C8.98633 10.7868 10.7863 8.98682 12.9863 8.98682H19.013C21.213 8.98682 23.013 10.7868 23.013 12.9868Z" fill="white"/>
<path d="M12.0801 3.6665V5.33317H12.0001C11.3334 5.33317 10.6934 5.4265 10.0801 5.61317V3.6665C10.0801 3.11984 10.5201 2.6665 11.0801 2.6665C11.6267 2.6665 12.0801 3.11984 12.0801 3.6665Z" fill="white"/>
<path d="M17 3.6665V5.33317H15V3.6665C15 3.11984 15.4533 2.6665 16 2.6665C16.5467 2.6665 17 3.11984 17 3.6665Z" fill="white"/>
<path d="M21.9336 3.6665V5.61317C21.3203 5.4265 20.6669 5.33317 20.0003 5.33317H19.9336V3.6665C19.9336 3.11984 20.3869 2.6665 20.9336 2.6665C21.4803 2.6665 21.9336 3.11984 21.9336 3.6665Z" fill="white"/>
<path d="M29.3334 11.0669C29.3334 11.6269 28.8934 12.0669 28.3334 12.0669H26.6667V12.0002C26.6667 11.3336 26.5734 10.6802 26.3867 10.0669H28.3334C28.8934 10.0669 29.3334 10.5202 29.3334 11.0669Z" fill="white"/>
<path d="M12.0801 26.6667V28.3334C12.0801 28.8801 11.6267 29.3334 11.0801 29.3334C10.5201 29.3334 10.0801 28.8801 10.0801 28.3334V26.3867C10.6934 26.5734 11.3334 26.6667 12.0001 26.6667H12.0801Z" fill="white"/>
<path d="M5.61268 10.0669C5.42602 10.6802 5.33268 11.3336 5.33268 12.0002V12.0669H3.66602C3.11935 12.0669 2.66602 11.6269 2.66602 11.0669C2.66602 10.5202 3.11935 10.0669 3.66602 10.0669H5.61268Z" fill="white"/>
<path d="M5.33268 15V17H3.66602C3.11935 17 2.66602 16.5467 2.66602 16C2.66602 15.44 3.11935 15 3.66602 15H5.33268Z" fill="white"/>
<path d="M5.61268 21.9331H3.66602C3.11935 21.9331 2.66602 21.4798 2.66602 20.9331C2.66602 20.3731 3.11935 19.9331 3.66602 19.9331H5.33268V19.9998C5.33268 20.6664 5.42602 21.3198 5.61268 21.9331Z" fill="white"/>
<path d="M27.9859 20.7067C27.0792 20.7067 26.5592 20.2534 26.5592 19.5867C26.5592 19.32 26.6392 19.0134 26.8259 18.6934C27.1992 18.0534 26.9726 17.2267 26.3326 16.8667L25.1192 16.16C24.5592 15.8267 23.8392 16.0267 23.5059 16.5867L23.4259 16.72C22.7859 17.8267 21.7459 17.8267 21.1059 16.72L21.0259 16.5867C20.7059 16.0267 19.9726 15.8267 19.4259 16.16L18.1992 16.8667C17.7726 17.1067 17.5192 17.56 17.5192 18.0267C17.5192 18.2534 17.5859 18.48 17.7059 18.6934C17.8926 19.0134 17.9859 19.32 17.9859 19.5867C17.9859 20.2534 17.4526 20.7067 16.5459 20.7067C15.8126 20.7067 15.1992 21.3067 15.1992 22.04V23.2934C15.1992 24.0267 15.8126 24.6267 16.5459 24.6267C17.4526 24.6267 17.9859 25.08 17.9859 25.7467C17.9859 26.0134 17.8926 26.32 17.7059 26.64C17.3326 27.28 17.5592 28.1067 18.1992 28.4667L19.4259 29.1734C19.9726 29.5067 20.7059 29.3067 21.0259 28.7467L21.1059 28.6134C21.7459 27.5067 22.7859 27.5067 23.4259 28.6134L23.5059 28.7467C23.8392 29.3067 24.5592 29.5067 25.1192 29.1734L26.3326 28.4667C26.7592 28.2267 27.0126 27.7734 27.0126 27.3067C27.0126 27.08 26.9459 26.8534 26.8259 26.64C26.6392 26.32 26.5592 26.0134 26.5592 25.7467C26.5592 25.08 27.0792 24.6267 27.9859 24.6267C28.7326 24.6267 29.3326 24.0267 29.3326 23.2934V22.04C29.3326 21.3067 28.7326 20.7067 27.9859 20.7067ZM22.2659 24.96C20.9992 24.96 19.9726 23.9334 19.9726 22.6667C19.9726 21.4 20.9992 20.3734 22.2659 20.3734C23.5326 20.3734 24.5592 21.4 24.5592 22.6667C24.5592 23.9334 23.5326 24.96 22.2659 24.96Z" fill="url(#paint1_linear_138_9421)"/>
<path d="M24.5593 22.6669C24.5593 23.9335 23.5327 24.9602 22.266 24.9602C20.9993 24.9602 19.9727 23.9335 19.9727 22.6669C19.9727 21.4002 20.9993 20.3735 22.266 20.3735C23.5327 20.3735 24.5593 21.4002 24.5593 22.6669Z" fill="#2E2E2E"/>
<defs>
<linearGradient id="paint0_linear_138_9421" x1="16.0007" y1="5.3335" x2="16.0007" y2="26.6668" gradientUnits="userSpaceOnUse">
<stop stop-color="#85F850"/>
<stop offset="1" stop-color="#10F2E5"/>
</linearGradient>
<linearGradient id="paint1_linear_138_9421" x1="22.2659" y1="15.998" x2="22.2659" y2="29.3354" gradientUnits="userSpaceOnUse">
<stop stop-color="#85F850"/>
<stop offset="1" stop-color="#10F2E5"/>
</linearGradient>
</defs>
</svg>
