<svg width="32" height="32" viewBox="0 0 32 32" fill="none" xmlns="http://www.w3.org/2000/svg">
<path d="M20.0007 5.3335H12.0007C8.32065 5.3335 5.33398 8.32016 5.33398 12.0002V20.0002C5.33398 23.6802 8.32065 26.6668 12.0007 26.6668H20.0007C23.6807 26.6668 26.6673 23.6802 26.6673 20.0002V12.0002C26.6673 8.32016 23.6807 5.3335 20.0007 5.3335ZM23.014 19.0135C23.014 21.2268 21.2273 23.0135 19.014 23.0135H12.9873C10.774 23.0135 8.98732 21.2268 8.98732 19.0135V12.9868C8.98732 10.7735 10.774 8.98683 12.9873 8.98683H19.0007C21.214 8.98683 23.0007 10.7735 23.0007 12.9868V19.0135H23.014Z" fill="url(#paint0_linear_138_9420)"/>
<path d="M12.0801 3.6665V5.33317H12.0001C11.3334 5.33317 10.6934 5.4265 10.0801 5.61317V3.6665C10.0801 3.11984 10.5201 2.6665 11.0801 2.6665C11.6267 2.6665 12.0801 3.11984 12.0801 3.6665Z" fill="white"/>
<path d="M17 3.6665V5.33317H15V3.6665C15 3.11984 15.4533 2.6665 16 2.6665C16.5467 2.6665 17 3.11984 17 3.6665Z" fill="white"/>
<path d="M21.9336 3.6665V5.61317C21.3203 5.4265 20.6669 5.33317 20.0003 5.33317H19.9336V3.6665C19.9336 3.11984 20.3869 2.6665 20.9336 2.6665C21.4803 2.6665 21.9336 3.11984 21.9336 3.6665Z" fill="white"/>
<path d="M29.3334 11.0669C29.3334 11.6269 28.8934 12.0669 28.3334 12.0669H26.6667V12.0002C26.6667 11.3336 26.5734 10.6802 26.3867 10.0669H28.3334C28.8934 10.0669 29.3334 10.5202 29.3334 11.0669Z" fill="white"/>
<path d="M29.3327 16C29.3327 16.5467 28.8927 17 28.3327 17H26.666V15H28.3327C28.8927 15 29.3327 15.44 29.3327 16Z" fill="white"/>
<path d="M29.3334 20.9331C29.3334 21.4798 28.8934 21.9331 28.3334 21.9331H26.3867C26.5734 21.3198 26.6667 20.6664 26.6667 19.9998V19.9331H28.3334C28.8934 19.9331 29.3334 20.3731 29.3334 20.9331Z" fill="white"/>
<path d="M21.9336 26.3867V28.3334C21.9336 28.8801 21.4803 29.3334 20.9336 29.3334C20.3869 29.3334 19.9336 28.8801 19.9336 28.3334V26.6667H20.0003C20.6669 26.6667 21.3203 26.5734 21.9336 26.3867Z" fill="white"/>
<path d="M17.0137 26.6665V28.3332C17.0137 28.8798 16.5603 29.3332 16.0137 29.3332C15.4537 29.3332 15.0137 28.8798 15.0137 28.3332V26.6665H17.0137Z" fill="white"/>
<path d="M12.0801 26.6667V28.3334C12.0801 28.8801 11.6267 29.3334 11.0801 29.3334C10.5201 29.3334 10.0801 28.8801 10.0801 28.3334V26.3867C10.6934 26.5734 11.3334 26.6667 12.0001 26.6667H12.0801Z" fill="white"/>
<path d="M5.61268 10.0669C5.42602 10.6802 5.33268 11.3336 5.33268 12.0002V12.0669H3.66602C3.11935 12.0669 2.66602 11.6269 2.66602 11.0669C2.66602 10.5202 3.11935 10.0669 3.66602 10.0669H5.61268Z" fill="white"/>
<path d="M5.33268 15V17H3.66602C3.11935 17 2.66602 16.5467 2.66602 16C2.66602 15.44 3.11935 15 3.66602 15H5.33268Z" fill="white"/>
<path d="M5.61268 21.9331H3.66602C3.11935 21.9331 2.66602 21.4798 2.66602 20.9331C2.66602 20.3731 3.11935 19.9331 3.66602 19.9331H5.33268V19.9998C5.33268 20.6664 5.42602 21.3198 5.61268 21.9331Z" fill="white"/>
<path d="M23.013 12.9868V19.0001C23.013 21.2135 21.2263 23.0001 19.013 23.0001H12.9863C10.773 23.0001 8.98633 21.2135 8.98633 19.0001V12.9868C8.98633 10.7735 10.773 8.98682 12.9863 8.98682H18.9997C21.213 8.98682 23.013 10.7868 23.013 12.9868Z" fill="white"/>
<path d="M13.3077 11.6298C13.4579 11.2497 13.8251 11 14.2338 11C14.6433 11 15.0111 11.2508 15.1607 11.6321L18.0674 19.0407C18.2482 19.5016 17.9084 20 17.4133 20C17.1243 20 16.8647 19.823 16.7592 19.5539L16.2236 18.1884C16.0734 17.8054 15.704 17.5535 15.2927 17.5535H13.1545C12.7414 17.5535 12.3709 17.8074 12.2218 18.1926L11.6971 19.5486C11.5918 19.8207 11.3302 20 11.0385 20C10.5401 20 10.1985 19.4977 10.3817 19.0342L13.3077 11.6298ZM15.6932 16.5014L14.2347 12.5592L12.725 16.5014H15.6932Z" fill="#2E2E2E"/>
<path d="M20.2836 20C19.8879 20 19.5671 19.6792 19.5671 19.2836V11.7164C19.5671 11.3208 19.8879 11 20.2836 11C20.6792 11 21 11.3208 21 11.7164V19.2836C21 19.6792 20.6792 20 20.2836 20Z" fill="#2E2E2E"/>
<defs>
<linearGradient id="paint0_linear_138_9420" x1="16.0007" y1="5.3335" x2="16.0007" y2="26.6668" gradientUnits="userSpaceOnUse">
<stop stop-color="#85F850"/>
<stop offset="1" stop-color="#10F2E5"/>
</linearGradient>
</defs>
</svg>
