<svg width="32" height="32" viewBox="0 0 32 32" fill="none" xmlns="http://www.w3.org/2000/svg">
<path d="M27.334 13.5865H23.4807C20.3207 13.5865 17.7473 11.0132 17.7473 7.85317V3.99984C17.7473 3.2665 17.1473 2.6665 16.414 2.6665H10.7607C6.65398 2.6665 3.33398 5.33317 3.33398 10.0932V21.9065C3.33398 26.6665 6.65398 29.3332 10.7607 29.3332H21.2407C25.3473 29.3332 28.6673 26.6665 28.6673 21.9065V14.9198C28.6673 14.1865 28.0673 13.5865 27.334 13.5865Z" fill="url(#paint0_linear_322_4017)"/>
<path d="M21.0676 2.94682C20.5209 2.40015 19.5742 2.77349 19.5742 3.53349V8.18682C19.5742 10.1335 21.2276 11.7468 23.2409 11.7468C24.5076 11.7602 26.2676 11.7602 27.7742 11.7602C28.5342 11.7602 28.9342 10.8668 28.4009 10.3335C26.4809 8.40015 23.0409 4.92015 21.0676 2.94682Z" fill="white"/>
<path d="M16.3726 19.6267C15.9859 19.24 15.3459 19.24 14.9593 19.6267L13.9993 20.5867V15C13.9993 14.4533 13.5459 14 12.9993 14C12.4526 14 11.9993 14.4533 11.9993 15V20.5867L11.0393 19.6267C10.6526 19.24 10.0126 19.24 9.62594 19.6267C9.23927 20.0133 9.23927 20.6533 9.62594 21.04L12.2926 23.7067C12.3059 23.72 12.3193 23.72 12.3193 23.7333C12.3993 23.8133 12.5059 23.88 12.6126 23.9333C12.7459 23.9733 12.8659 24 12.9993 24C13.1326 24 13.2526 23.9733 13.3726 23.92C13.4926 23.8667 13.5993 23.8 13.7059 23.7067L16.3726 21.04C16.7593 20.6533 16.7593 20.0133 16.3726 19.6267Z" fill="#2E2E2E"/>
<defs>
<linearGradient id="paint0_linear_322_4017" x1="16.0007" y1="2.6665" x2="16.0007" y2="29.3332" gradientUnits="userSpaceOnUse">
<stop stop-color="#85F850"/>
<stop offset="1" stop-color="#10F2E5"/>
</linearGradient>
</defs>
</svg>
