<svg width="32" height="32" viewBox="0 0 32 32" fill="none" xmlns="http://www.w3.org/2000/svg">
<path d="M21.5863 2.6665H10.4264C5.57302 2.6665 2.67969 5.55984 2.67969 10.4132V21.5732C2.67969 26.4265 5.57302 29.3198 10.4264 29.3198H21.5863C26.4397 29.3198 29.333 26.4265 29.333 21.5732V10.4132C29.333 5.55984 26.4397 2.6665 21.5863 2.6665Z" fill="url(#paint0_linear_132_7134)"/>
<path d="M8 12.0002C7.45333 12.0002 7 11.5468 7 11.0002V8.3335C7 7.78683 7.45333 7.3335 8 7.3335C8.54667 7.3335 9 7.78683 9 8.3335V11.0002C9 11.5468 8.54667 12.0002 8 12.0002Z" fill="#2E2E2E"/>
<path d="M13.334 12.0002C12.7873 12.0002 12.334 11.5468 12.334 11.0002V8.3335C12.334 7.78683 12.7873 7.3335 13.334 7.3335C13.8807 7.3335 14.334 7.78683 14.334 8.3335V11.0002C14.334 11.5468 13.8807 12.0002 13.334 12.0002Z" fill="#2E2E2E"/>
<path d="M8 25.0002C7.45333 25.0002 7 24.5468 7 24.0002V21.3335C7 20.7868 7.45333 20.3335 8 20.3335C8.54667 20.3335 9 20.7868 9 21.3335V24.0002C9 24.5468 8.54667 25.0002 8 25.0002Z" fill="#2E2E2E"/>
<path d="M13.334 25.0002C12.7873 25.0002 12.334 24.5468 12.334 24.0002V21.3335C12.334 20.7868 12.7873 20.3335 13.334 20.3335C13.8807 20.3335 14.334 20.7868 14.334 21.3335V24.0002C14.334 24.5468 13.8807 25.0002 13.334 25.0002Z" fill="#2E2E2E"/>
<path d="M23.9993 10.6665H18.666C18.1193 10.6665 17.666 10.2132 17.666 9.6665C17.666 9.11984 18.1193 8.6665 18.666 8.6665H23.9993C24.546 8.6665 24.9993 9.11984 24.9993 9.6665C24.9993 10.2132 24.546 10.6665 23.9993 10.6665Z" fill="#2E2E2E"/>
<path d="M23.9993 23.6665H18.666C18.1193 23.6665 17.666 23.2132 17.666 22.6665C17.666 22.1198 18.1193 21.6665 18.666 21.6665H23.9993C24.546 21.6665 24.9993 22.1198 24.9993 22.6665C24.9993 23.2132 24.546 23.6665 23.9993 23.6665Z" fill="#2E2E2E"/>
<path d="M29.3327 15H2.66602V17H29.3327V15Z" fill="#2E2E2E"/>
<defs>
<linearGradient id="paint0_linear_132_7134" x1="16.0063" y1="2.6665" x2="16.0063" y2="29.3198" gradientUnits="userSpaceOnUse">
<stop stop-color="#85F850"/>
<stop offset="1" stop-color="#10F2E5"/>
</linearGradient>
</defs>
</svg>
