<svg width="32" height="32" viewBox="0 0 32 32" fill="none" xmlns="http://www.w3.org/2000/svg">
<path d="M29.3327 10.4132V12.6798C29.3327 13.7065 28.2393 14.3198 27.3327 13.8398C25.3727 12.7865 23.0127 12.3732 20.5327 12.8932C18.9327 13.2265 17.4527 13.9732 16.2393 14.9998C15.546 15.5732 14.9327 16.2532 14.4127 16.9998C13.6927 18.0532 13.1594 19.2532 12.8927 20.5332C12.3727 23.0132 12.786 25.3732 13.8394 27.3332C14.3194 28.2398 13.706 29.3332 12.6794 29.3332H10.4127C6.13268 29.3332 2.66602 25.8665 2.66602 21.5865V10.4132C2.66602 6.13317 6.13268 2.6665 10.4127 2.6665H21.586C25.866 2.6665 29.3327 6.13317 29.3327 10.4132Z" fill="url(#paint0_linear_132_6838)"/>
<path d="M16.2393 15C15.546 15.5733 14.9327 16.2533 14.4127 17H2.66602V15H16.2393Z" fill="#2E2E2E"/>
<path d="M8 12.0002C7.45333 12.0002 7 11.5468 7 11.0002V8.3335C7 7.78683 7.45333 7.3335 8 7.3335C8.54667 7.3335 9 7.78683 9 8.3335V11.0002C9 11.5468 8.54667 12.0002 8 12.0002Z" fill="#2E2E2E"/>
<path d="M13.334 12.0002C12.7873 12.0002 12.334 11.5468 12.334 11.0002V8.3335C12.334 7.78683 12.7873 7.3335 13.334 7.3335C13.8807 7.3335 14.334 7.78683 14.334 8.3335V11.0002C14.334 11.5468 13.8807 12.0002 13.334 12.0002Z" fill="#2E2E2E"/>
<path d="M8 25.0002C7.45333 25.0002 7 24.5468 7 24.0002V21.3335C7 20.7868 7.45333 20.3335 8 20.3335C8.54667 20.3335 9 20.7868 9 21.3335V24.0002C9 24.5468 8.54667 25.0002 8 25.0002Z" fill="#2E2E2E"/>
<path d="M23.9993 10.6665H18.666C18.1193 10.6665 17.666 10.2132 17.666 9.6665C17.666 9.11984 18.1193 8.6665 18.666 8.6665H23.9993C24.546 8.6665 24.9993 9.11984 24.9993 9.6665C24.9993 10.2132 24.546 10.6665 23.9993 10.6665Z" fill="#2E2E2E"/>
<path d="M22.666 14.6665C18.2527 14.6665 14.666 18.2532 14.666 22.6665C14.666 27.0798 18.2527 30.6665 22.666 30.6665C27.0793 30.6665 30.666 27.0798 30.666 22.6665C30.666 18.2532 27.0793 14.6665 22.666 14.6665ZM26.5727 24.2665C26.3593 24.7865 26.0527 25.2532 25.6527 25.6532C24.8527 26.4532 23.7993 26.8932 22.666 26.8932C21.7593 26.8932 20.906 26.5998 20.186 26.0665V26.2532C20.186 26.6665 19.8527 27.0132 19.426 27.0132C19.0127 27.0132 18.666 26.6798 18.666 26.2532V24.3332C18.666 23.9198 18.9994 23.5732 19.426 23.5732H21.346C21.7594 23.5732 22.106 23.9065 22.106 24.3332C22.106 24.7198 21.826 25.0132 21.4527 25.0665C22.466 25.5598 23.7593 25.3998 24.5727 24.5865C24.826 24.3332 25.026 24.0265 25.1593 23.6932C25.3193 23.3065 25.7593 23.1198 26.146 23.2798C26.546 23.4265 26.7327 23.8798 26.5727 24.2665ZM26.666 21.0132C26.666 21.4265 26.3327 21.7732 25.906 21.7732H23.986C23.5727 21.7732 23.226 21.4398 23.226 21.0132C23.226 20.6265 23.506 20.3332 23.8794 20.2798C22.866 19.7865 21.5727 19.9465 20.746 20.7598C20.5193 20.9865 20.346 21.2398 20.2127 21.5198C20.0794 21.7998 19.8127 21.9598 19.5327 21.9598C19.426 21.9598 19.3194 21.9332 19.2127 21.8932C18.8394 21.7198 18.666 21.2665 18.8527 20.8798C19.066 20.4398 19.346 20.0398 19.6794 19.6932C20.4794 18.8932 21.5327 18.4532 22.666 18.4532C23.5727 18.4532 24.426 18.7465 25.146 19.2798V19.1065C25.146 18.6932 25.4793 18.3465 25.906 18.3465C26.3327 18.3465 26.666 18.6665 26.666 19.0932V21.0132Z" fill="white"/>
<defs>
<linearGradient id="paint0_linear_132_6838" x1="15.9993" y1="2.6665" x2="15.9993" y2="29.3332" gradientUnits="userSpaceOnUse">
<stop stop-color="#85F850"/>
<stop offset="1" stop-color="#10F2E5"/>
</linearGradient>
</defs>
</svg>
