<svg width="32" height="32" viewBox="0 0 32 32" fill="none" xmlns="http://www.w3.org/2000/svg">
<path d="M25.7597 13.3335H6.25303C4.2797 13.3335 2.67969 11.7202 2.67969 9.76018V6.25351C2.67969 4.28018 4.29303 2.68018 6.25303 2.68018H25.7597C27.733 2.68018 29.333 4.29351 29.333 6.25351V9.76018C29.333 11.7202 27.7197 13.3335 25.7597 13.3335Z" fill="url(#paint0_linear_345_5413)"/>
<path d="M25.7597 29.3335H6.25303C4.2797 29.3335 2.67969 27.7202 2.67969 25.7602V22.2535C2.67969 20.2802 4.29303 18.6802 6.25303 18.6802H25.7597C27.733 18.6802 29.333 20.2935 29.333 22.2535V25.7602C29.333 27.7202 27.7197 29.3335 25.7597 29.3335Z" fill="url(#paint1_linear_345_5413)"/>
<path d="M8 10.3332C7.45333 10.3332 7 9.87984 7 9.33317V6.6665C7 6.11984 7.45333 5.6665 8 5.6665C8.54667 5.6665 9 6.11984 9 6.6665V9.33317C9 9.87984 8.54667 10.3332 8 10.3332Z" fill="#2E2E2E"/>
<path d="M13.334 10.3332C12.7873 10.3332 12.334 9.87984 12.334 9.33317V6.6665C12.334 6.11984 12.7873 5.6665 13.334 5.6665C13.8807 5.6665 14.334 6.11984 14.334 6.6665V9.33317C14.334 9.87984 13.8807 10.3332 13.334 10.3332Z" fill="#2E2E2E"/>
<path d="M8 26.3332C7.45333 26.3332 7 25.8798 7 25.3332V22.6665C7 22.1198 7.45333 21.6665 8 21.6665C8.54667 21.6665 9 22.1198 9 22.6665V25.3332C9 25.8798 8.54667 26.3332 8 26.3332Z" fill="#2E2E2E"/>
<path d="M13.334 26.3332C12.7873 26.3332 12.334 25.8798 12.334 25.3332V22.6665C12.334 22.1198 12.7873 21.6665 13.334 21.6665C13.8807 21.6665 14.334 22.1198 14.334 22.6665V25.3332C14.334 25.8798 13.8807 26.3332 13.334 26.3332Z" fill="#2E2E2E"/>
<path d="M23.9993 9H18.666C18.1193 9 17.666 8.54667 17.666 8C17.666 7.45333 18.1193 7 18.666 7H23.9993C24.546 7 24.9993 7.45333 24.9993 8C24.9993 8.54667 24.546 9 23.9993 9Z" fill="#2E2E2E"/>
<path d="M23.9993 25H18.666C18.1193 25 17.666 24.5467 17.666 24C17.666 23.4533 18.1193 23 18.666 23H23.9993C24.546 23 24.9993 23.4533 24.9993 24C24.9993 24.5467 24.546 25 23.9993 25Z" fill="#2E2E2E"/>
<defs>
<linearGradient id="paint0_linear_345_5413" x1="16.0064" y1="2.68018" x2="16.0064" y2="13.3335" gradientUnits="userSpaceOnUse">
<stop stop-color="#85F850"/>
<stop offset="1" stop-color="#10F2E5"/>
</linearGradient>
<linearGradient id="paint1_linear_345_5413" x1="16.0064" y1="18.6802" x2="16.0064" y2="29.3335" gradientUnits="userSpaceOnUse">
<stop stop-color="#85F850"/>
<stop offset="1" stop-color="#10F2E5"/>
</linearGradient>
</defs>
</svg>
