<svg width="32" height="32" viewBox="0 0 32 32" fill="none" xmlns="http://www.w3.org/2000/svg">
<path d="M20.6393 4H10.026C5.42602 4 2.66602 6.74667 2.66602 11.36V21.96C2.66602 26.5867 5.42602 29.3333 10.026 29.3333H20.626C25.2393 29.3333 27.986 26.5867 27.986 21.9733V11.36C27.9993 6.74667 25.2393 4 20.6393 4Z" fill="url(#paint0_linear_322_4014)"/>
<path d="M28.026 3.97338C25.6393 1.57338 23.306 1.52004 20.8526 3.97338L19.346 5.46671C19.2126 5.60004 19.1726 5.78671 19.226 5.96004C20.1593 9.22671 22.7726 11.84 26.0393 12.7734C26.0793 12.7867 26.146 12.7867 26.186 12.7867C26.3193 12.7867 26.4526 12.7334 26.546 12.64L28.026 11.1467C29.2393 9.93337 29.8393 8.77338 29.8393 7.58671C29.8393 6.38671 29.2393 5.20004 28.026 3.97338Z" fill="white"/>
<path d="M23.8141 13.8935C23.4541 13.7201 23.1075 13.5468 22.7875 13.3468C22.5208 13.1868 22.2541 13.0135 22.0008 12.8268C21.7875 12.6935 21.5475 12.4935 21.3075 12.2935C21.2808 12.2801 21.2008 12.2135 21.0941 12.1068C20.6808 11.7735 20.2408 11.3201 19.8275 10.8268C19.8008 10.8001 19.7208 10.7201 19.6541 10.6001C19.5208 10.4535 19.3208 10.2001 19.1475 9.92012C19.0008 9.73345 18.8275 9.46678 18.6675 9.18678C18.4675 8.85345 18.2941 8.52012 18.1341 8.17345C17.9608 7.80012 17.8275 7.45345 17.7075 7.12012L10.5341 14.2935C10.0675 14.7601 9.61412 15.6401 9.52078 16.2935L8.94745 20.2668C8.82745 21.1068 9.05412 21.8934 9.57412 22.4135C10.0141 22.8534 10.6141 23.0801 11.2808 23.0801C11.4275 23.0801 11.5741 23.0668 11.7208 23.0535L15.6808 22.4935C16.3341 22.4001 17.2141 21.9601 17.6808 21.4801L24.8541 14.3068C24.5208 14.2001 24.1875 14.0535 23.8141 13.8935Z" fill="#2E2E2E"/>
<defs>
<linearGradient id="paint0_linear_322_4014" x1="15.326" y1="4" x2="15.326" y2="29.3333" gradientUnits="userSpaceOnUse">
<stop stop-color="#85F850"/>
<stop offset="1" stop-color="#10F2E5"/>
</linearGradient>
</defs>
</svg>
