<svg width="32" height="32" viewBox="0 0 32 32" fill="none" xmlns="http://www.w3.org/2000/svg">
<path d="M25 28.0002C25 28.5468 24.5467 29.0002 24 29.0002H18.6667C18.6 29.0002 18.5466 28.9735 18.48 28.9601C18.0933 29.9601 17.1333 30.6668 16 30.6668C14.8667 30.6668 13.9067 29.9601 13.52 28.9601C13.4534 28.9735 13.4 29.0002 13.3333 29.0002H8C7.45333 29.0002 7 28.5468 7 28.0002C7 27.4535 7.45333 27.0002 8 27.0002H13.3333C13.4 27.0002 13.4534 27.0269 13.52 27.0402C13.7867 26.3469 14.3467 25.7868 15.04 25.5202C15.0267 25.4535 15 25.4002 15 25.3335V21.3335H17V25.3335C17 25.4002 16.9733 25.4535 16.96 25.5202C17.6533 25.7868 18.2133 26.3469 18.48 27.0402C18.5466 27.0269 18.6 27.0002 18.6667 27.0002H24C24.5467 27.0002 25 27.4535 25 28.0002Z" fill="white"/>
<path d="M25.3327 11.0665V16.6665C25.3327 20.3998 24.3993 21.3332 20.666 21.3332H11.3327C7.59935 21.3332 6.66602 20.3998 6.66602 16.6665V7.33317C6.66602 3.59984 7.59935 2.6665 11.3327 2.6665H12.7327C14.1327 2.6665 14.4393 3.07987 14.9727 3.78654L16.3727 5.65316C16.7327 6.11982 16.9327 6.39982 17.866 6.39982H20.666C24.3993 6.39982 25.3327 7.33315 25.3327 11.0665Z" fill="url(#paint0_linear_132_6837)"/>
<defs>
<linearGradient id="paint0_linear_132_6837" x1="15.9993" y1="2.6665" x2="15.9993" y2="21.3332" gradientUnits="userSpaceOnUse">
<stop stop-color="#85F850"/>
<stop offset="1" stop-color="#10F2E5"/>
</linearGradient>
</defs>
</svg>
