<svg width="32" height="32" viewBox="0 0 32 32" fill="none" xmlns="http://www.w3.org/2000/svg">
<path d="M29.054 27.6802L28.094 26.7202C28.5873 25.9735 28.8807 25.0668 28.8807 24.1068C28.8807 21.4668 26.7473 19.3335 24.1073 19.3335C21.4673 19.3335 19.334 21.4668 19.334 24.1068C19.334 26.7468 21.4673 28.8802 24.1073 28.8802C25.0807 28.8802 25.974 28.5868 26.7206 28.0935L27.6806 29.0535C27.8673 29.2402 28.1207 29.3335 28.3607 29.3335C28.614 29.3335 28.854 29.2402 29.0406 29.0535C29.4273 28.6668 29.4273 28.0535 29.054 27.6802Z" fill="white"/>
<path d="M2.70697 19.5065C2.70697 19.5465 2.6803 19.5999 2.6803 19.6399C3.90696 22.0932 5.90698 24.1065 8.36031 25.3198C8.40031 25.3198 8.45363 25.2932 8.49363 25.2932C8.0403 23.7465 7.69364 22.1598 7.44031 20.5732C5.84031 20.3065 4.25364 19.9598 2.70697 19.5065Z" fill="url(#paint0_linear_132_6833)"/>
<path d="M25.427 8.57316C24.1736 5.94649 22.0536 3.82651 19.4403 2.58651C19.9203 4.17317 20.3203 5.79985 20.587 7.42651C22.2136 7.69318 23.8403 8.07983 25.427 8.57316Z" fill="url(#paint1_linear_132_6833)"/>
<path d="M2.57363 8.57316C4.17363 8.09316 5.80031 7.69318 7.42698 7.42651C7.69365 5.83985 8.02697 4.26652 8.48031 2.71985C8.44031 2.71985 8.38696 2.69316 8.34696 2.69316C5.8403 3.93316 3.8003 6.02649 2.57363 8.57316Z" fill="url(#paint2_linear_132_6833)"/>
<path d="M18.427 7.14648C18.107 5.41315 17.707 3.67984 17.1336 1.99984C17.107 1.9065 17.107 1.82652 17.0936 1.71985C16.107 1.47985 15.067 1.31982 14.0003 1.31982C12.9203 1.31982 11.8936 1.46652 10.8936 1.71985C10.8803 1.81318 10.8936 1.89317 10.867 1.99984C10.307 3.67984 9.89363 5.41315 9.57363 7.14648C12.5203 6.82648 15.4803 6.82648 18.427 7.14648Z" fill="url(#paint3_linear_132_6833)"/>
<path d="M7.14697 9.57316C5.40031 9.89316 3.68031 10.2932 2.00031 10.8665C1.90697 10.8932 1.82696 10.8932 1.7203 10.9065C1.4803 11.8932 1.32031 12.9332 1.32031 13.9998C1.32031 15.0798 1.46696 16.1065 1.7203 17.1065C1.81363 17.1198 1.89364 17.1065 2.00031 17.1332C3.68031 17.6932 5.40031 18.1065 7.14697 18.4265C6.82697 15.4798 6.82697 12.5198 7.14697 9.57316Z" fill="url(#paint4_linear_132_6833)"/>
<path d="M26.267 10.9065C26.1736 10.9065 26.0936 10.8932 25.987 10.8665C24.307 10.3065 22.5736 9.89316 20.8403 9.57316C21.1736 12.5198 21.1736 15.4798 20.8403 18.4132C22.5736 18.0932 24.307 17.6932 25.987 17.1198C26.0803 17.0932 26.1603 17.1065 26.267 17.0932C26.507 16.0932 26.667 15.0665 26.667 13.9865C26.667 12.9332 26.5203 11.9065 26.267 10.9065Z" fill="url(#paint5_linear_132_6833)"/>
<path d="M9.57363 20.8532C9.89363 22.5999 10.2936 24.3198 10.867 25.9998C10.8936 26.0932 10.8803 26.1732 10.8936 26.2798C11.8936 26.5198 12.9203 26.6799 14.0003 26.6799C15.067 26.6799 16.107 26.5332 17.0936 26.2798C17.107 26.1865 17.107 26.1065 17.1336 25.9998C17.6936 24.3198 18.107 22.5999 18.427 20.8532C16.9603 21.0132 15.4803 21.1332 14.0003 21.1332C12.5203 21.1198 11.0403 21.0132 9.57363 20.8532Z" fill="url(#paint6_linear_132_6833)"/>
<path d="M9.26696 9.26651C8.86696 12.4132 8.86696 15.5865 9.26696 18.7465C12.4136 19.1465 15.587 19.1465 18.747 18.7465C19.147 15.5998 19.147 12.4265 18.747 9.26651C15.587 8.86651 12.4136 8.86651 9.26696 9.26651Z" fill="url(#paint7_linear_132_6833)"/>
<defs>
<linearGradient id="paint0_linear_132_6833" x1="13.9936" y1="1.31982" x2="13.9936" y2="26.6799" gradientUnits="userSpaceOnUse">
<stop stop-color="#85F850"/>
<stop offset="1" stop-color="#10F2E5"/>
</linearGradient>
<linearGradient id="paint1_linear_132_6833" x1="13.9936" y1="1.31982" x2="13.9936" y2="26.6799" gradientUnits="userSpaceOnUse">
<stop stop-color="#85F850"/>
<stop offset="1" stop-color="#10F2E5"/>
</linearGradient>
<linearGradient id="paint2_linear_132_6833" x1="13.9936" y1="1.31982" x2="13.9936" y2="26.6799" gradientUnits="userSpaceOnUse">
<stop stop-color="#85F850"/>
<stop offset="1" stop-color="#10F2E5"/>
</linearGradient>
<linearGradient id="paint3_linear_132_6833" x1="13.9936" y1="1.31982" x2="13.9936" y2="26.6799" gradientUnits="userSpaceOnUse">
<stop stop-color="#85F850"/>
<stop offset="1" stop-color="#10F2E5"/>
</linearGradient>
<linearGradient id="paint4_linear_132_6833" x1="13.9936" y1="1.31982" x2="13.9936" y2="26.6799" gradientUnits="userSpaceOnUse">
<stop stop-color="#85F850"/>
<stop offset="1" stop-color="#10F2E5"/>
</linearGradient>
<linearGradient id="paint5_linear_132_6833" x1="13.9936" y1="1.31982" x2="13.9936" y2="26.6799" gradientUnits="userSpaceOnUse">
<stop stop-color="#85F850"/>
<stop offset="1" stop-color="#10F2E5"/>
</linearGradient>
<linearGradient id="paint6_linear_132_6833" x1="13.9936" y1="1.31982" x2="13.9936" y2="26.6799" gradientUnits="userSpaceOnUse">
<stop stop-color="#85F850"/>
<stop offset="1" stop-color="#10F2E5"/>
</linearGradient>
<linearGradient id="paint7_linear_132_6833" x1="13.9936" y1="1.31982" x2="13.9936" y2="26.6799" gradientUnits="userSpaceOnUse">
<stop stop-color="#85F850"/>
<stop offset="1" stop-color="#10F2E5"/>
</linearGradient>
</defs>
</svg>
