<svg width="32" height="32" viewBox="0 0 32 32" fill="none" xmlns="http://www.w3.org/2000/svg">
<path d="M28.8659 13.3735C28.3459 12.6268 27.4259 12.2001 26.3725 12.2001H20.9059C20.5459 12.2001 20.2125 12.0535 19.9859 11.7868C19.7459 11.5201 19.6525 11.1468 19.7059 10.7601L20.3859 6.3868C20.6792 5.08013 19.8125 3.61346 18.5059 3.17346C17.2925 2.72013 15.8659 3.33346 15.2925 4.20013L9.66586 12.5601L9.50586 12.8268V24.6135L9.70586 24.8135L13.9325 28.0801C14.4925 28.6401 15.7592 28.9468 16.6525 28.9468H21.8525C23.6392 28.9468 25.4392 27.6001 25.8392 25.9601L29.1192 15.9735C29.4659 15.0268 29.3725 14.1068 28.8659 13.3735Z" fill="url(#paint0_linear_345_5412)"/>
<path d="M6.94602 8.50684H5.57268C3.50602 8.50684 2.66602 9.30684 2.66602 11.2802V24.6935C2.66602 26.6668 3.50602 27.4668 5.57268 27.4668H6.94602C9.01268 27.4668 9.85268 26.6668 9.85268 24.6935V11.2802C9.85268 9.30684 9.01268 8.50684 6.94602 8.50684Z" fill="white"/>
<defs>
<linearGradient id="paint0_linear_345_5412" x1="19.4158" y1="3.02002" x2="19.4158" y2="28.9468" gradientUnits="userSpaceOnUse">
<stop stop-color="#85F850"/>
<stop offset="1" stop-color="#10F2E5"/>
</linearGradient>
</defs>
</svg>
