<svg width="32" height="32" viewBox="0 0 32 32" fill="none" xmlns="http://www.w3.org/2000/svg">
<path d="M21.5864 2.6665H10.4264C5.57304 2.6665 2.67969 5.55983 2.67969 10.4132V21.5732C2.67969 26.4265 5.57304 29.3198 10.4264 29.3198H21.5864C26.4397 29.3198 29.333 26.4265 29.333 21.5732V10.4132C29.333 5.55983 26.4397 2.6665 21.5864 2.6665Z" fill="url(#paint0_linear_322_4011)"/>
<path d="M10.9074 22.3599C10.8808 22.3599 10.8408 22.3599 10.8141 22.3599C9.52078 22.2399 8.30745 21.64 7.40078 20.68C5.26745 18.44 5.26745 14.8 7.40078 12.56L10.3208 9.49329C11.3608 8.39995 12.7608 7.78662 14.2541 7.78662C15.7474 7.78662 17.1474 8.38662 18.1874 9.49329C20.3208 11.7333 20.3208 15.3733 18.1874 17.6133L16.7341 19.1466C16.3474 19.5466 15.7208 19.56 15.3208 19.1866C14.9208 18.8 14.9075 18.1733 15.2808 17.7733L16.7341 16.2399C18.1474 14.7599 18.1474 12.3466 16.7341 10.88C15.4141 9.4933 13.0941 9.4933 11.7608 10.88L8.84078 13.9466C7.42745 15.4266 7.42745 17.84 8.84078 19.3066C9.41412 19.92 10.1874 20.2933 11.0008 20.3733C11.5474 20.4266 11.9474 20.92 11.8941 21.4666C11.8541 21.9733 11.4141 22.3599 10.9074 22.3599Z" fill="#2E2E2E"/>
<path d="M17.7482 24.2132C16.2548 24.2132 14.8548 23.6132 13.8148 22.5065C11.6815 20.2665 11.6815 16.6265 13.8148 14.3865L15.2682 12.8532C15.6548 12.4532 16.2815 12.4398 16.6815 12.8132C17.0815 13.1998 17.0948 13.8265 16.7215 14.2265L15.2682 15.7599C13.8548 17.2399 13.8548 19.6532 15.2682 21.1199C16.5882 22.5065 18.9082 22.5199 20.2415 21.1199L23.1615 18.0532C24.5748 16.5732 24.5748 14.1598 23.1615 12.6932C22.5882 12.0798 21.8148 11.7065 21.0015 11.6265C20.4548 11.5732 20.0548 11.0799 20.1082 10.5332C20.1615 9.98652 20.6415 9.57321 21.2015 9.63988C22.4948 9.77321 23.7082 10.3599 24.6149 11.3199C26.7482 13.5599 26.7482 17.1998 24.6149 19.4398L21.6948 22.5065C20.6415 23.6132 19.2415 24.2132 17.7482 24.2132Z" fill="#2E2E2E"/>
<defs>
<linearGradient id="paint0_linear_322_4011" x1="16.0064" y1="2.6665" x2="16.0064" y2="29.3198" gradientUnits="userSpaceOnUse">
<stop stop-color="#85F850"/>
<stop offset="1" stop-color="#10F2E5"/>
</linearGradient>
</defs>
</svg>
