<svg width="32" height="32" viewBox="0 0 32 32" fill="none" xmlns="http://www.w3.org/2000/svg">
<path d="M27.493 11.5998C26.1063 5.4265 20.7197 2.6665 15.9997 2.6665C15.9997 2.6665 15.9997 2.6665 15.9863 2.6665C11.2797 2.6665 5.90633 5.4265 4.50633 11.5865C2.933 18.4665 7.14633 24.2932 10.9597 27.9732C12.373 29.3332 14.1863 30.0132 15.9997 30.0132C17.813 30.0132 19.6263 29.3332 21.0263 27.9732C24.8397 24.2932 29.053 18.4798 27.493 11.5998Z" fill="url(#paint0_linear_132_6836)"/>
<path d="M14.3326 18.3334C14.0793 18.3334 13.8259 18.2401 13.6259 18.0401L11.6259 16.0401C11.2393 15.6534 11.2393 15.0134 11.6259 14.6268C12.0126 14.2401 12.6526 14.2401 13.0393 14.6268L14.3326 15.9201L18.9593 11.2934C19.3459 10.9068 19.9859 10.9068 20.3726 11.2934C20.7593 11.6801 20.7593 12.3201 20.3726 12.7068L15.0393 18.0401C14.8393 18.2401 14.5859 18.3334 14.3326 18.3334Z" fill="#2E2E2E"/>
<defs>
<linearGradient id="paint0_linear_132_6836" x1="15.9971" y1="2.6665" x2="15.9971" y2="30.0132" gradientUnits="userSpaceOnUse">
<stop stop-color="#85F850"/>
<stop offset="1" stop-color="#10F2E5"/>
</linearGradient>
</defs>
</svg>
