<svg width="32" height="32" viewBox="0 0 32 32" fill="none" xmlns="http://www.w3.org/2000/svg">
<path d="M18.1731 20.9602C18.1731 22.1602 17.1997 23.1335 15.9997 23.1335C15.1464 23.1335 14.4131 22.6402 14.0664 21.9335L16.9731 19.0269C17.6797 19.3735 18.1731 20.1069 18.1731 20.9602Z" fill="white"/>
<path d="M9.79935 12.5864C4.33268 12.5864 2.66602 14.2531 2.66602 19.7198V22.1998C2.66602 24.9331 3.07935 26.7198 4.18602 27.8131L12.1327 19.8664C12.506 18.5198 13.5594 17.4664 14.906 17.0931L19.4127 12.5864H9.79935Z" fill="url(#paint0_linear_328_6320)"/>
<path d="M24.1736 7.8265L22.4936 9.5065C22.4403 7.13317 21.547 4.53317 16.0003 4.53317C10.6003 4.53317 9.49362 7.13317 9.49362 11.0398V12.5998C8.81362 12.5998 8.18695 12.6398 7.62695 12.7065V11.0398C7.62695 7.43984 8.49362 2.6665 16.0003 2.6665C20.7203 2.6665 23.467 4.39984 24.1736 7.8265Z" fill="white"/>
<path d="M29.3326 19.7199V22.1999C29.3326 27.6666 27.6659 29.3333 22.1992 29.3333H9.79924C8.67924 29.3333 7.70591 29.2666 6.89258 29.1066L12.7059 23.2933C13.4526 24.3199 14.6392 24.9866 15.9992 24.9866C18.2259 24.9866 20.0259 23.1866 20.0259 20.9599C20.0259 19.5999 19.3592 18.4133 18.3326 17.6666L23.3859 12.6133C27.9059 12.8666 29.3326 14.6666 29.3326 19.7199Z" fill="url(#paint1_linear_328_6320)"/>
<path d="M29.0272 2.97334C28.6272 2.57334 27.9738 2.57334 27.5738 2.97334L2.97383 27.5867C2.57383 27.9867 2.57383 28.64 2.97383 29.04C3.17383 29.2267 3.42716 29.3333 3.69383 29.3333C3.96049 29.3333 4.21383 29.2267 4.41383 29.0267L29.0272 4.41334C29.4405 4.01334 29.4405 3.37334 29.0272 2.97334Z" fill="white"/>
<defs>
<linearGradient id="paint0_linear_328_6320" x1="11.0393" y1="12.5864" x2="11.0393" y2="27.8131" gradientUnits="userSpaceOnUse">
<stop stop-color="#85F850"/>
<stop offset="1" stop-color="#10F2E5"/>
</linearGradient>
<linearGradient id="paint1_linear_328_6320" x1="18.1126" y1="12.6133" x2="18.1126" y2="29.3333" gradientUnits="userSpaceOnUse">
<stop stop-color="#85F850"/>
<stop offset="1" stop-color="#10F2E5"/>
</linearGradient>
</defs>
</svg>
