<svg width="32" height="32" viewBox="0 0 32 32" fill="none" xmlns="http://www.w3.org/2000/svg">
<path d="M23.0524 5.51981L22.959 10.5731C22.9457 11.2665 23.3857 12.1865 23.9457 12.5998L27.2524 15.1065C29.3724 16.7065 29.0257 18.6665 26.4924 19.4665L22.1857 20.8131C21.4657 21.0398 20.7057 21.8265 20.5191 22.5598L19.4924 26.4798C18.679 29.5731 16.6524 29.8798 14.9724 27.1598L12.6257 23.3598C12.199 22.6665 11.1857 22.1465 10.3857 22.1865L5.9324 22.4131C2.74573 22.5731 1.83905 20.7331 3.91905 18.3065L6.55903 15.2398C7.05236 14.6665 7.27902 13.5998 7.05236 12.8798L5.70576 8.57314C4.91909 6.03981 6.3324 4.63982 8.8524 5.46649L12.7858 6.75982C13.4524 6.97316 14.4524 6.82648 15.0124 6.41314L19.1191 3.45314C21.3324 1.85314 23.1057 2.78648 23.0524 5.51981Z" fill="url(#paint0_linear_132_6834)"/>
<path d="M28.5871 27.2934L24.5471 23.2534C24.1604 22.8667 23.5204 22.8667 23.1338 23.2534C22.7471 23.64 22.7471 24.28 23.1338 24.6667L27.1738 28.7067C27.3738 28.9067 27.6271 29 27.8804 29C28.1337 29 28.3871 28.9067 28.5871 28.7067C28.9738 28.32 28.9738 27.68 28.5871 27.2934Z" fill="white"/>
<defs>
<linearGradient id="paint0_linear_132_6834" x1="15.7214" y1="2.67041" x2="15.7214" y2="29.0155" gradientUnits="userSpaceOnUse">
<stop stop-color="#85F850"/>
<stop offset="1" stop-color="#10F2E5"/>
</linearGradient>
</defs>
</svg>
