<svg width="32" height="33" viewBox="0 0 32 33" fill="none" xmlns="http://www.w3.org/2000/svg">
<path d="M29.3327 8.85368V15.6536C29.3327 17.347 28.7727 18.7737 27.7727 19.7603C26.786 20.7603 25.3593 21.3203 23.666 21.3203V23.7336C23.666 24.6403 22.6527 25.187 21.906 24.6803L20.6127 23.827C20.7327 23.4136 20.786 22.9603 20.786 22.4803V17.0537C20.786 14.3337 18.9727 12.5203 16.2527 12.5203H7.19934C7.01267 12.5203 6.83935 12.5337 6.66602 12.547V8.85368C6.66602 5.45368 8.93268 3.18701 12.3327 3.18701H23.666C27.066 3.18701 29.3327 5.45368 29.3327 8.85368Z" fill="#2E2E2E"/>
<path d="M20.786 17.0539V22.4805C20.786 22.9605 20.7327 23.4138 20.6127 23.8271C20.1194 25.7871 18.4927 27.0138 16.2527 27.0138H12.626L8.59935 29.6938C7.99935 30.1072 7.19934 29.6672 7.19934 28.9472V27.0138C5.83934 27.0138 4.70602 26.5605 3.91935 25.7738C3.11935 24.9738 2.66602 23.8405 2.66602 22.4805V17.0539C2.66602 14.5205 4.23935 12.7739 6.66602 12.5472C6.83935 12.5339 7.01267 12.5205 7.19934 12.5205H16.2527C18.9727 12.5205 20.786 14.3339 20.786 17.0539Z" fill="url(#paint0_linear_712_9263)"/>
<defs>
<linearGradient id="paint0_linear_712_9263" x1="11.726" y1="12.5205" x2="11.726" y2="29.8533" gradientUnits="userSpaceOnUse">
<stop stop-color="#85F850"/>
<stop offset="1" stop-color="#10F2E5"/>
</linearGradient>
</defs>
</svg>
