<svg width="32" height="32" viewBox="0 0 32 32" fill="none" xmlns="http://www.w3.org/2000/svg">
<path d="M29.3327 8.33317V15.1331C29.3327 16.8265 28.7727 18.2532 27.7727 19.2398C26.786 20.2398 25.3593 20.7998 23.666 20.7998V23.2131C23.666 24.1198 22.6527 24.6665 21.906 24.1598L20.6127 23.3065C20.7327 22.8931 20.786 22.4398 20.786 21.9598V16.5332C20.786 13.8132 18.9727 11.9998 16.2527 11.9998H7.19934C7.01267 11.9998 6.83935 12.0132 6.66602 12.0265V8.33317C6.66602 4.93317 8.93268 2.6665 12.3327 2.6665H23.666C27.066 2.6665 29.3327 4.93317 29.3327 8.33317Z" fill="white"/>
<path d="M20.786 16.5334V21.96C20.786 22.44 20.7327 22.8933 20.6127 23.3066C20.1194 25.2666 18.4927 26.4933 16.2527 26.4933H12.626L8.59935 29.1733C7.99934 29.5867 7.19934 29.1467 7.19934 28.4267V26.4933C5.83934 26.4933 4.70602 26.04 3.91935 25.2533C3.11935 24.4533 2.66602 23.32 2.66602 21.96V16.5334C2.66602 14 4.23935 12.2534 6.66602 12.0267C6.83935 12.0134 7.01267 12 7.19934 12H16.2527C18.9727 12 20.786 13.8134 20.786 16.5334Z" fill="url(#paint0_linear_132_6832)"/>
<defs>
<linearGradient id="paint0_linear_132_6832" x1="11.726" y1="12" x2="11.726" y2="29.3328" gradientUnits="userSpaceOnUse">
<stop stop-color="#85F850"/>
<stop offset="1" stop-color="#10F2E5"/>
</linearGradient>
</defs>
</svg>
