<svg width="32" height="32" viewBox="0 0 32 32" fill="none" xmlns="http://www.w3.org/2000/svg">
<path d="M21.654 2.6665H10.3473C6.66732 2.6665 5.33398 3.99984 5.33398 7.7465V24.2532C5.33398 27.9998 6.66732 29.3332 10.3473 29.3332H21.6406C25.334 29.3332 26.6673 27.9998 26.6673 24.2532V7.7465C26.6673 3.99984 25.334 2.6665 21.654 2.6665Z" fill="url(#paint0_linear_132_7133)"/>
<path d="M18.6673 8.3335H13.334C12.7873 8.3335 12.334 7.88016 12.334 7.3335C12.334 6.78683 12.7873 6.3335 13.334 6.3335H18.6673C19.214 6.3335 19.6673 6.78683 19.6673 7.3335C19.6673 7.88016 19.214 8.3335 18.6673 8.3335Z" fill="#2E2E2E"/>
<path d="M15.9993 25.7336C17.288 25.7336 18.3327 24.6889 18.3327 23.4002C18.3327 22.1116 17.288 21.0669 15.9993 21.0669C14.7107 21.0669 13.666 22.1116 13.666 23.4002C13.666 24.6889 14.7107 25.7336 15.9993 25.7336Z" fill="#2E2E2E"/>
<defs>
<linearGradient id="paint0_linear_132_7133" x1="16.0007" y1="2.6665" x2="16.0007" y2="29.3332" gradientUnits="userSpaceOnUse">
<stop stop-color="#85F850"/>
<stop offset="1" stop-color="#10F2E5"/>
</linearGradient>
</defs>
</svg>
