<svg width="32" height="32" viewBox="0 0 32 32" fill="none" xmlns="http://www.w3.org/2000/svg">
<path d="M22.3997 2.6665H8.27969C5.18635 2.6665 2.67969 5.17317 2.67969 8.25317V16.4932V16.7465C2.67969 19.8398 5.18635 22.3332 8.26635 22.3332H13.0664C13.7997 22.3332 14.3997 22.9332 14.3997 23.6665V24.7598C14.3997 25.4932 13.7997 26.0932 13.0664 26.0932H10.0664C9.54635 26.0932 9.11969 26.5198 9.11969 27.0398C9.11969 27.5598 9.54635 27.9865 10.0664 27.9865H20.6397C21.1597 27.9865 21.5864 27.5598 21.5864 27.0398C21.5864 26.5198 21.1597 26.0932 20.6397 26.0932H17.6397C16.9064 26.0932 16.3064 25.4932 16.3064 24.7598V23.6665C16.3064 22.9332 16.9064 22.3332 17.6397 22.3332H22.3997C25.493 22.3332 27.9864 19.8265 27.9864 16.7465V16.4932V8.25317C27.9864 5.17317 25.4797 2.6665 22.3997 2.6665Z" fill="white"/>
<path d="M26.1863 12.6665H19.133C16.8263 12.6665 15.9863 13.5065 15.9863 15.8398V26.1465C15.9863 28.4932 16.813 29.3198 19.133 29.3198H26.1863C28.493 29.3198 29.333 28.4798 29.333 26.1465V15.8398C29.333 13.4932 28.5063 12.6665 26.1863 12.6665ZM22.6663 27.0932C21.853 27.0932 21.1997 26.4398 21.1997 25.6265C21.1997 24.8132 21.853 24.1598 22.6663 24.1598C23.4797 24.1598 24.133 24.8132 24.133 25.6265C24.133 26.4398 23.4797 27.0932 22.6663 27.0932Z" fill="url(#paint0_linear_328_6354)"/>
<path d="M24.1326 25.6268C24.1326 26.4402 23.4792 27.0935 22.6659 27.0935C21.8526 27.0935 21.1992 26.4402 21.1992 25.6268C21.1992 24.8135 21.8526 24.1602 22.6659 24.1602C23.4792 24.1602 24.1326 24.8268 24.1326 25.6268Z" fill="white"/>
<defs>
<linearGradient id="paint0_linear_328_6354" x1="22.6597" y1="12.6665" x2="22.6597" y2="29.3198" gradientUnits="userSpaceOnUse">
<stop stop-color="#85F850"/>
<stop offset="1" stop-color="#10F2E5"/>
</linearGradient>
</defs>
</svg>
