<svg width="32" height="32" viewBox="0 0 32 32" fill="none" xmlns="http://www.w3.org/2000/svg">
<path d="M26 12.6665V19.3332C26 24.8398 21.5067 29.3332 16 29.3332C10.4933 29.3332 6 24.8398 6 19.3332V12.6665C6 9.91984 7.12 7.41317 8.93333 5.59984C10.52 4.01317 12.64 2.95984 15 2.71984C15.32 2.67984 15.6667 2.6665 16 2.6665C16.3333 2.6665 16.68 2.67984 17 2.71984C22.04 3.2265 26 7.49317 26 12.6665Z" fill="url(#paint0_linear_132_7132)"/>
<path d="M18.4941 9.99984V12.6665C18.4941 14.0398 17.3741 15.1732 16.0008 15.1732C14.6141 15.1732 13.4941 14.0398 13.4941 12.6665V9.99984C13.4941 8.97317 14.1208 8.09317 15.0008 7.7065V2.71984C15.3208 2.67984 15.6675 2.6665 16.0008 2.6665C16.3341 2.6665 16.6808 2.67984 17.0008 2.71984V7.7065C17.8808 8.09317 18.4941 8.97317 18.4941 9.99984Z" fill="#2E2E2E"/>
<defs>
<linearGradient id="paint0_linear_132_7132" x1="16" y1="2.6665" x2="16" y2="29.3332" gradientUnits="userSpaceOnUse">
<stop stop-color="#85F850"/>
<stop offset="1" stop-color="#10F2E5"/>
</linearGradient>
</defs>
</svg>
