<svg width="32" height="32" viewBox="0 0 32 32" fill="none" xmlns="http://www.w3.org/2000/svg">
<path d="M21.5863 2.6665H10.4264C5.57302 2.6665 2.67969 5.55983 2.67969 10.4132V21.5732C2.67969 26.4265 5.57302 29.3198 10.4264 29.3198H21.5863C26.4397 29.3198 29.333 26.4265 29.333 21.5732V10.4132C29.333 5.55983 26.4397 2.6665 21.5863 2.6665Z" fill="url(#paint0_linear_322_4353)"/>
<path d="M11.7603 21.3599C11.507 21.3599 11.2537 21.2665 11.0537 21.0665C10.667 20.6799 10.667 20.0399 11.0537 19.6532L19.787 10.9199C20.1737 10.5332 20.8137 10.5332 21.2003 10.9199C21.587 11.3065 21.587 11.9465 21.2003 12.3332L12.467 21.0665C12.267 21.2665 12.0137 21.3599 11.7603 21.3599Z" fill="#2E2E2E"/>
<path d="M12.3073 10.2134C11.2273 10.2134 10.334 11.0934 10.334 12.1867C10.334 13.2667 11.214 14.16 12.3073 14.16C13.3873 14.16 14.2806 13.2801 14.2806 12.1867C14.2673 11.0934 13.3873 10.2134 12.3073 10.2134Z" fill="#2E2E2E"/>
<path d="M21.026 17.8535C19.946 17.8535 19.0527 18.7335 19.0527 19.8268C19.0527 20.9068 19.9327 21.8002 21.026 21.8002C22.106 21.8002 22.9994 20.9202 22.9994 19.8268C22.9994 18.7335 22.1194 17.8535 21.026 17.8535Z" fill="#2E2E2E"/>
<defs>
<linearGradient id="paint0_linear_322_4353" x1="16.0063" y1="2.6665" x2="16.0063" y2="29.3198" gradientUnits="userSpaceOnUse">
<stop stop-color="#85F850"/>
<stop offset="1" stop-color="#10F2E5"/>
</linearGradient>
</defs>
</svg>
