<svg width="32" height="32" viewBox="0 0 32 32" fill="none" xmlns="http://www.w3.org/2000/svg">
<path d="M28 2.6665V18.7998C28 21.3332 26.6667 22.6665 24.1333 22.6665H7.86666C5.33333 22.6665 4 21.3332 4 18.7998V2.6665H28Z" fill="url(#paint0_linear_322_4021)"/>
<path d="M29.3327 3.6665H2.66602C2.11935 3.6665 1.66602 3.21317 1.66602 2.6665C1.66602 2.11984 2.11935 1.6665 2.66602 1.6665H29.3327C29.8793 1.6665 30.3327 2.11984 30.3327 2.6665C30.3327 3.21317 29.8793 3.6665 29.3327 3.6665Z" fill="white"/>
<path d="M22.227 29.7865C22.0537 30.1332 21.6937 30.3332 21.3337 30.3332C21.187 30.3332 21.027 30.2932 20.8937 30.2265L16.0004 27.7865L11.107 30.2265C10.9737 30.2932 10.8137 30.3332 10.667 30.3332C10.307 30.3332 9.947 30.1332 9.77367 29.7865C9.52034 29.2798 9.72037 28.6798 10.227 28.4398L15.0004 26.0532V22.6665H17.0004V26.0532L21.7737 28.4398C22.2803 28.6798 22.4804 29.2798 22.227 29.7865Z" fill="white"/>
<path d="M10.0006 15.6666C9.72055 15.6666 9.42724 15.5466 9.22724 15.3066C8.86724 14.8799 8.93387 14.2533 9.36054 13.8933L13.5606 10.3866C13.9472 10.0666 14.4405 9.93325 14.9072 10.0132C15.3872 10.0932 15.8006 10.3865 16.0539 10.8132L17.4539 13.1465L21.3605 9.89325C21.7872 9.53325 22.4139 9.59989 22.7739 10.0266C23.1339 10.4532 23.0672 11.0799 22.6406 11.4399L18.4405 14.9466C18.0539 15.2666 17.5606 15.3999 17.0939 15.3199C16.6139 15.2399 16.2005 14.9466 15.9472 14.5199L14.5472 12.1866L10.6406 15.4399C10.4539 15.5866 10.2272 15.6666 10.0006 15.6666Z" fill="#2E2E2E"/>
<defs>
<linearGradient id="paint0_linear_322_4021" x1="16" y1="2.6665" x2="16" y2="22.6665" gradientUnits="userSpaceOnUse">
<stop stop-color="#85F850"/>
<stop offset="1" stop-color="#10F2E5"/>
</linearGradient>
</defs>
</svg>
