<svg width="32" height="32" viewBox="0 0 32 32" fill="none" xmlns="http://www.w3.org/2000/svg">
<path d="M27.8791 14.8267C27.8791 21.3467 23.1458 27.4534 16.6792 29.2401C16.2392 29.3601 15.7591 29.3601 15.3191 29.2401C8.85247 27.4534 4.11914 21.3467 4.11914 14.8267V8.97342C4.11914 7.88009 4.94583 6.64009 5.97249 6.22676L13.3991 3.18676C15.0658 2.50676 16.9458 2.50676 18.6125 3.18676L26.0391 6.22676C27.0525 6.64009 27.8925 7.88009 27.8925 8.97342L27.8791 14.8267Z" fill="url(#paint0_linear_134_9123)"/>
<path d="M19.3327 13.9998C19.3327 12.1598 17.8393 10.6665 15.9993 10.6665C14.1593 10.6665 12.666 12.1598 12.666 13.9998C12.666 15.4932 13.6527 16.7332 14.9993 17.1598V20.6665C14.9993 21.2132 15.4527 21.6665 15.9993 21.6665C16.546 21.6665 16.9993 21.2132 16.9993 20.6665V17.1598C18.346 16.7332 19.3327 15.4932 19.3327 13.9998Z" fill="#2E2E2E"/>
<defs>
<linearGradient id="paint0_linear_134_9123" x1="16.0058" y1="2.67676" x2="16.0058" y2="29.3301" gradientUnits="userSpaceOnUse">
<stop stop-color="#85F850"/>
<stop offset="1" stop-color="#10F2E5"/>
</linearGradient>
</defs>
</svg>
