<svg width="32" height="32" viewBox="0 0 32 32" fill="none" xmlns="http://www.w3.org/2000/svg">
<path d="M14.6124 2.74645L7.27909 5.49311C5.87909 6.02645 4.73242 7.67978 4.73242 9.18645V19.9864C4.73242 21.0664 5.43909 22.4931 6.30576 23.1331L13.6391 28.6131C14.9324 29.5864 17.0524 29.5864 18.3458 28.6131L25.6791 23.1331C26.5458 22.4798 27.2524 21.0664 27.2524 19.9864V9.18645C27.2524 7.69312 26.1058 6.02645 24.7058 5.50645L17.3724 2.75978C16.6258 2.46645 15.3724 2.46645 14.6124 2.74645Z" fill="url(#paint0_linear_134_9124)"/>
<path d="M19.5737 17.2134L17.4537 15.0934L19.5204 13.0267C19.9071 12.64 19.9071 12 19.5204 11.6134C19.1337 11.2267 18.4937 11.2267 18.1071 11.6134L16.0404 13.68L13.9204 11.56C13.5337 11.1734 12.8937 11.1734 12.5071 11.56C12.1204 11.9467 12.1204 12.5867 12.5071 12.9734L14.6271 15.0934L12.4404 17.28C12.0537 17.6667 12.0537 18.3067 12.4404 18.6934C12.6404 18.8934 12.8937 18.9867 13.1471 18.9867C13.4004 18.9867 13.6537 18.8934 13.8537 18.6934L16.0404 16.5067L18.1604 18.6267C18.3604 18.8267 18.6137 18.92 18.8671 18.92C19.1204 18.92 19.3737 18.8267 19.5737 18.6267C19.9604 18.2267 19.9604 17.6 19.5737 17.2134Z" fill="#2E2E2E"/>
<defs>
<linearGradient id="paint0_linear_134_9124" x1="15.9924" y1="2.53809" x2="15.9924" y2="29.3431" gradientUnits="userSpaceOnUse">
<stop stop-color="#85F850"/>
<stop offset="1" stop-color="#10F2E5"/>
</linearGradient>
</defs>
</svg>
