<svg width="32" height="32" viewBox="0 0 32 32" fill="none" xmlns="http://www.w3.org/2000/svg">
<path d="M14.6124 2.74645L7.27909 5.49311C5.87909 6.02645 4.73242 7.67978 4.73242 9.18645V19.9864C4.73242 21.0664 5.43909 22.4931 6.30576 23.1331L13.6391 28.6131C14.9324 29.5864 17.0524 29.5864 18.3458 28.6131L25.6791 23.1331C26.5458 22.4798 27.2524 21.0664 27.2524 19.9864V9.18645C27.2524 7.69312 26.1058 6.02645 24.7058 5.50645L17.3724 2.75978C16.6258 2.46645 15.3724 2.46645 14.6124 2.74645Z" fill="url(#paint0_linear_345_5411)"/>
<path d="M14.2136 18.9732C13.9603 18.9732 13.707 18.8798 13.507 18.6798L11.3603 16.5332C10.9736 16.1465 10.9736 15.5065 11.3603 15.1198C11.747 14.7332 12.387 14.7332 12.7736 15.1198L14.2136 16.5598L19.2403 11.5332C19.627 11.1465 20.267 11.1465 20.6536 11.5332C21.0403 11.9198 21.0403 12.5598 20.6536 12.9465L14.9203 18.6798C14.7203 18.8798 14.467 18.9732 14.2136 18.9732Z" fill="#2E2E2E"/>
<defs>
<linearGradient id="paint0_linear_345_5411" x1="15.9924" y1="2.53809" x2="15.9924" y2="29.3431" gradientUnits="userSpaceOnUse">
<stop stop-color="#85F850"/>
<stop offset="1" stop-color="#10F2E5"/>
</linearGradient>
</defs>
</svg>
