<svg width="32" height="32" viewBox="0 0 32 32" fill="none" xmlns="http://www.w3.org/2000/svg">
<path d="M9.33268 4H22.666C26.666 4 29.3327 6 29.3327 10.6667V14.8534C29.3327 15.8267 28.3327 16.44 27.4393 16.0533C25.9727 15.4133 24.306 15.1733 22.5594 15.4533C19.066 16.0267 16.2127 18.7867 15.506 22.2533C15.306 23.2667 15.2793 24.2533 15.4127 25.2C15.5193 25.9867 14.8794 26.68 14.0927 26.68H9.33268C5.33268 26.68 2.66602 24.68 2.66602 20.0133V10.68C2.66602 6.00001 5.33268 4 9.33268 4Z" fill="url(#paint0_linear_322_4356)"/>
<path d="M16.0004 15.8265C14.8804 15.8265 13.747 15.4798 12.8804 14.7731L8.70702 11.4398C8.28035 11.0931 8.20036 10.4665 8.54703 10.0398C8.89369 9.61313 9.52034 9.53314 9.94701 9.8798L14.1203 13.2131C15.1337 14.0265 16.8537 14.0265 17.867 13.2131L22.0404 9.8798C22.467 9.53314 23.107 9.5998 23.4403 10.0398C23.787 10.4665 23.7203 11.1064 23.2803 11.4398L19.107 14.7731C18.2537 15.4798 17.1204 15.8265 16.0004 15.8265Z" fill="#2E2E2E"/>
<path d="M24.0007 17.3335C20.3207 17.3335 17.334 20.3068 17.334 24.0002C17.334 27.6802 20.3207 30.6668 24.0007 30.6668C27.694 30.6668 30.6673 27.6802 30.6673 24.0002C30.6673 20.3068 27.694 17.3335 24.0007 17.3335ZM26.734 23.4001L26.2406 23.8802L23.3473 26.7868C23.214 26.9068 22.9606 27.0401 22.774 27.0668L21.4673 27.2535C21.0007 27.3202 20.6673 26.9868 20.734 26.5202L20.9207 25.2135C20.9473 25.0268 21.0673 24.7735 21.2006 24.6402L24.1073 21.7468L24.5873 21.2535C24.9073 20.9335 25.2673 20.7202 25.6407 20.7202C25.9607 20.7202 26.3207 20.8668 26.7207 21.2535C27.6007 22.1335 27.3206 22.8135 26.734 23.4001Z" fill="white"/>
<defs>
<linearGradient id="paint0_linear_322_4356" x1="15.9993" y1="4" x2="15.9993" y2="26.68" gradientUnits="userSpaceOnUse">
<stop stop-color="#85F850"/>
<stop offset="1" stop-color="#10F2E5"/>
</linearGradient>
</defs>
</svg>
