<svg width="32" height="32" viewBox="0 0 32 32" fill="none" xmlns="http://www.w3.org/2000/svg">
<path d="M21.586 2.6665H10.4127C5.55935 2.6665 2.66602 5.55984 2.66602 10.4132V21.5732C2.66602 26.4398 5.55935 29.3332 10.4127 29.3332H21.5727C26.426 29.3332 29.3193 26.4398 29.3193 21.5865V10.4132C29.3327 5.55984 26.4394 2.6665 21.586 2.6665Z" fill="url(#paint0_linear_322_4020)"/>
<path d="M9.17188 25.1999C8.62521 25.1999 8.17188 24.7466 8.17188 24.1999V21.4399C8.17188 20.8933 8.62521 20.4399 9.17188 20.4399C9.71854 20.4399 10.1719 20.8933 10.1719 21.4399V24.1999C10.1719 24.7599 9.71854 25.1999 9.17188 25.1999Z" fill="#2E2E2E"/>
<path d="M16 25.1998C15.4533 25.1998 15 24.7465 15 24.1998V18.6665C15 18.1198 15.4533 17.6665 16 17.6665C16.5467 17.6665 17 18.1198 17 18.6665V24.1998C17 24.7598 16.5467 25.1998 16 25.1998Z" fill="#2E2E2E"/>
<path d="M22.8262 25.2001C22.2795 25.2001 21.8262 24.7467 21.8262 24.2001V15.9067C21.8262 15.3601 22.2795 14.9067 22.8262 14.9067C23.3728 14.9067 23.8262 15.3601 23.8262 15.9067V24.2001C23.8262 24.7601 23.3862 25.2001 22.8262 25.2001Z" fill="#2E2E2E"/>
<path d="M23.826 7.75981C23.826 7.69314 23.7993 7.61314 23.786 7.54647C23.7727 7.49314 23.7593 7.42647 23.746 7.37314C23.7193 7.31981 23.6793 7.2798 23.6527 7.22647C23.6127 7.17314 23.5727 7.10647 23.5193 7.06647C23.506 7.05314 23.506 7.03981 23.4927 7.03981C23.4527 7.01314 23.4127 6.9998 23.3727 6.97314C23.3193 6.93314 23.2527 6.89314 23.186 6.86647C23.1193 6.8398 23.0527 6.8398 22.986 6.82647C22.9327 6.81314 22.8927 6.7998 22.8393 6.7998H18.9327C18.386 6.7998 17.9327 7.25314 17.9327 7.7998C17.9327 8.34647 18.386 8.7998 18.9327 8.7998H20.5993C17.426 12.1331 13.426 14.4798 8.93266 15.6131C8.39932 15.7465 8.06599 16.2931 8.19932 16.8265C8.30599 17.2798 8.71932 17.5865 9.17266 17.5865C9.25266 17.5865 9.33266 17.5731 9.41266 17.5598C14.1727 16.3731 18.426 13.9065 21.826 10.4131V11.7065C21.826 12.2531 22.2793 12.7065 22.826 12.7065C23.3727 12.7065 23.826 12.2531 23.826 11.7065V7.7998C23.826 7.78647 23.826 7.77314 23.826 7.75981Z" fill="#2E2E2E"/>
<defs>
<linearGradient id="paint0_linear_322_4020" x1="15.9927" y1="2.6665" x2="15.9927" y2="29.3332" gradientUnits="userSpaceOnUse">
<stop stop-color="#85F850"/>
<stop offset="1" stop-color="#10F2E5"/>
</linearGradient>
</defs>
</svg>
