<svg width="32" height="32" viewBox="0 0 32 32" fill="none" xmlns="http://www.w3.org/2000/svg">
<path d="M24.4666 26.24C23.7333 28.12 21.9466 29.3333 19.9333 29.3333H12.0666C10.04 29.3333 8.26664 28.12 7.53331 26.24C6.79997 24.3467 7.30664 22.2533 8.79997 20.8933L14.2 16H17.8133L23.2 20.8933C24.6933 22.2533 25.1866 24.3467 24.4666 26.24Z" fill="url(#paint0_linear_328_6319)"/>
<path d="M18.426 24.1869H13.5727C13.066 24.1869 12.666 23.7735 12.666 23.2802C12.666 22.7735 13.0793 22.3735 13.5727 22.3735H18.426C18.9327 22.3735 19.3327 22.7869 19.3327 23.2802C19.3327 23.7735 18.9193 24.1869 18.426 24.1869Z" fill="#2E2E2E"/>
<path d="M24.4662 5.75984C23.7329 3.87984 21.9462 2.6665 19.9329 2.6665H12.0662C10.0529 2.6665 8.26623 3.87984 7.5329 5.75984C6.8129 7.65317 7.30623 9.7465 8.8129 11.1065L14.1996 15.9998H17.8129L23.1996 11.1065C24.6929 9.7465 25.1862 7.65317 24.4662 5.75984ZM18.4262 9.63984H13.5729C13.0662 9.63984 12.6662 9.2265 12.6662 8.73317C12.6662 8.23984 13.0796 7.8265 13.5729 7.8265H18.4262C18.9329 7.8265 19.3329 8.23984 19.3329 8.73317C19.3329 9.2265 18.9196 9.63984 18.4262 9.63984Z" fill="white"/>
<defs>
<linearGradient id="paint0_linear_328_6319" x1="15.997" y1="16" x2="15.997" y2="29.3333" gradientUnits="userSpaceOnUse">
<stop stop-color="#85F850"/>
<stop offset="1" stop-color="#10F2E5"/>
</linearGradient>
</defs>
</svg>
