<svg width="32" height="32" viewBox="0 0 32 32" fill="none" xmlns="http://www.w3.org/2000/svg">
<path d="M21.586 2.6665H10.4127C5.55935 2.6665 2.66602 5.55984 2.66602 10.4132V21.5732C2.66602 26.4398 5.55935 29.3332 10.4127 29.3332H21.5727C26.426 29.3332 29.3193 26.4398 29.3193 21.5865V10.4132C29.3327 5.55984 26.4394 2.6665 21.586 2.6665Z" fill="url(#paint0_linear_322_4018)"/>
<path d="M22.4386 12.5465C22.3453 12.3198 22.1586 12.1331 21.932 12.0398C21.8253 11.9998 21.7053 11.9731 21.5853 11.9731H19.1053C18.5853 11.9731 18.172 12.3865 18.172 12.9065C18.172 13.4265 18.5853 13.8398 19.1053 13.8398H19.3453L16.532 16.6531L15.172 14.6265C15.012 14.3998 14.772 14.2398 14.492 14.2131C14.1986 14.1865 13.9453 14.2798 13.7453 14.4798L9.77195 18.4531C9.41195 18.8131 9.41195 19.3998 9.77195 19.7731C9.95862 19.9598 10.1853 20.0398 10.4253 20.0398C10.6653 20.0398 10.9053 19.9465 11.0786 19.7731L14.252 16.5998L15.612 18.6265C15.772 18.8531 16.012 19.0131 16.292 19.0398C16.5853 19.0665 16.8386 18.9731 17.0386 18.7731L20.6653 15.1465V15.3865C20.6653 15.9065 21.0786 16.3198 21.5986 16.3198C22.1186 16.3198 22.532 15.9065 22.532 15.3865V12.8931C22.5053 12.7731 22.492 12.6531 22.4386 12.5465Z" fill="#2E2E2E"/>
<defs>
<linearGradient id="paint0_linear_322_4018" x1="15.9927" y1="2.6665" x2="15.9927" y2="29.3332" gradientUnits="userSpaceOnUse">
<stop stop-color="#85F850"/>
<stop offset="1" stop-color="#10F2E5"/>
</linearGradient>
</defs>
</svg>
