<svg width="32" height="32" viewBox="0 0 32 32" fill="none" xmlns="http://www.w3.org/2000/svg">
<path d="M23.9993 17.3335C22.746 17.3335 21.586 17.7735 20.666 18.5068C19.4393 19.4802 18.666 20.9868 18.666 22.6668C18.666 23.6668 18.946 24.6135 19.4393 25.4135C20.3593 26.9602 22.0527 28.0002 23.9993 28.0002C25.346 28.0002 26.5727 27.5068 27.506 26.6668C27.9194 26.3202 28.2794 25.8935 28.5594 25.4135C29.0527 24.6135 29.3327 23.6668 29.3327 22.6668C29.3327 19.7202 26.946 17.3335 23.9993 17.3335ZM26.7594 22.0935L23.9194 24.7201C23.7327 24.8935 23.4793 24.9868 23.2393 24.9868C22.986 24.9868 22.7327 24.8935 22.5327 24.6935L21.2127 23.3735C20.826 22.9869 20.826 22.3468 21.2127 21.9601C21.5994 21.5735 22.2394 21.5735 22.626 21.9601L23.266 22.6002L25.3993 20.6268C25.7993 20.2535 26.4393 20.2802 26.8127 20.6802C27.186 21.0802 27.1594 21.7068 26.7594 22.0935Z" fill="white"/>
<path d="M28.1208 28.6665C28.1208 29.0398 27.8275 29.3332 27.4542 29.3332H4.54753C4.17419 29.3332 3.88086 29.0398 3.88086 28.6665C3.88086 23.1465 9.32085 18.6665 16.0009 18.6665C17.3742 18.6665 18.7075 18.8531 19.9342 19.2131C19.1475 20.1465 18.6675 21.3598 18.6675 22.6665C18.6675 23.6665 18.9475 24.6132 19.4408 25.4132C19.7075 25.8665 20.0542 26.2798 20.4542 26.6265C21.3875 27.4798 22.6275 27.9998 24.0009 27.9998C25.4942 27.9998 26.8409 27.3865 27.8009 26.3998C28.0142 27.1198 28.1208 27.8798 28.1208 28.6665Z" fill="url(#paint0_linear_322_4012)"/>
<path d="M16.0007 15.9998C19.6825 15.9998 22.6673 13.0151 22.6673 9.33317C22.6673 5.65127 19.6825 2.6665 16.0007 2.6665C12.3188 2.6665 9.33398 5.65127 9.33398 9.33317C9.33398 13.0151 12.3188 15.9998 16.0007 15.9998Z" fill="url(#paint1_linear_322_4012)"/>
<defs>
<linearGradient id="paint0_linear_322_4012" x1="16.0009" y1="18.6665" x2="16.0009" y2="29.3332" gradientUnits="userSpaceOnUse">
<stop stop-color="#85F850"/>
<stop offset="1" stop-color="#10F2E5"/>
</linearGradient>
<linearGradient id="paint1_linear_322_4012" x1="16.0007" y1="2.6665" x2="16.0007" y2="15.9998" gradientUnits="userSpaceOnUse">
<stop stop-color="#85F850"/>
<stop offset="1" stop-color="#10F2E5"/>
</linearGradient>
</defs>
</svg>
