<svg width="32" height="32" viewBox="0 0 32 32" fill="none" xmlns="http://www.w3.org/2000/svg">
<path d="M28.1075 11.4399V20.5598C28.1075 22.0532 27.3075 23.4399 26.0142 24.1999L18.0942 28.7732C16.8009 29.5199 15.2009 29.5199 13.8942 28.7732L5.97419 24.1999C4.68086 23.4532 3.88086 22.0665 3.88086 20.5598V11.4399C3.88086 9.94655 4.68086 8.55983 5.97419 7.79983L13.8942 3.2265C15.1875 2.47984 16.7875 2.47984 18.0942 3.2265L26.0142 7.79983C27.3075 8.55983 28.1075 9.93322 28.1075 11.4399Z" fill="url(#paint0_linear_138_9419)"/>
<path d="M16.0012 15.9999C17.717 15.9999 19.1079 14.609 19.1079 12.8932C19.1079 11.1775 17.717 9.78662 16.0012 9.78662C14.2854 9.78662 12.8945 11.1775 12.8945 12.8932C12.8945 14.609 14.2854 15.9999 16.0012 15.9999Z" fill="#2E2E2E"/>
<path d="M19.5742 22.2133C20.6542 22.2133 21.2809 21.0134 20.6809 20.12C19.7742 18.7734 18.0142 17.8667 16.0009 17.8667C13.9875 17.8667 12.2275 18.7734 11.3209 20.12C10.7209 21.0134 11.3475 22.2133 12.4275 22.2133H19.5742Z" fill="#2E2E2E"/>
<defs>
<linearGradient id="paint0_linear_138_9419" x1="15.9942" y1="2.6665" x2="15.9942" y2="29.3332" gradientUnits="userSpaceOnUse">
<stop stop-color="#85F850"/>
<stop offset="1" stop-color="#10F2E5"/>
</linearGradient>
</defs>
</svg>
