<svg width="32" height="32" viewBox="0 0 32 32" fill="none" xmlns="http://www.w3.org/2000/svg">
<path d="M22.1994 26.9335V27.3201C20.226 28.5868 17.866 29.3335 15.3327 29.3335C12.7594 29.3335 10.3594 28.5602 8.35938 27.2402V26.9335C8.35938 23.8268 11.466 21.2935 15.2794 21.2935C19.106 21.2935 22.1994 23.8268 22.1994 26.9335Z" fill="#2E2E2E"/>
<path d="M27.9993 16.6667C27.9993 21.1333 25.6927 25.0533 22.1994 27.32V26.9333C22.1994 23.8267 19.106 21.2933 15.2793 21.2933C11.466 21.2933 8.35935 23.8267 8.35935 26.9333V27.24C4.93268 24.9733 2.66602 21.0933 2.66602 16.6667C2.66602 9.66667 8.33268 4 15.3327 4C17.0793 4 18.746 4.34665 20.266 4.98665C20.0927 5.51999 19.9993 6.08 19.9993 6.66667C19.9993 7.66667 20.2794 8.61333 20.7727 9.41333C21.0394 9.86666 21.386 10.28 21.786 10.6266C22.7193 11.48 23.9593 12 25.3327 12C25.9193 12 26.4793 11.9066 26.9993 11.72C27.6393 13.24 27.9993 14.92 27.9993 16.6667Z" fill="url(#paint0_linear_322_4016)"/>
<path d="M29.2933 3.10685C28.3333 2.01352 26.9067 1.3335 25.3333 1.3335C23.84 1.3335 22.48 1.94686 21.5067 2.94686C20.9467 3.52019 20.52 4.21348 20.2667 4.98682C20.0933 5.52015 20 6.08016 20 6.66683C20 7.66683 20.28 8.61349 20.7733 9.41349C21.04 9.86683 21.3867 10.2801 21.7867 10.6268C22.72 11.4801 23.96 12.0002 25.3333 12.0002C25.92 12.0002 26.48 11.9068 27 11.7201C28.2267 11.3335 29.2533 10.4935 29.8933 9.41349C30.1733 8.96016 30.3867 8.44015 30.5067 7.90682C30.6133 7.50682 30.6667 7.0935 30.6667 6.66683C30.6667 5.30683 30.1467 4.05352 29.2933 3.10685ZM27.32 7.64014H26.3333V8.68018C26.3333 9.22684 25.88 9.68018 25.3333 9.68018C24.7867 9.68018 24.3333 9.22684 24.3333 8.68018V7.64014H23.3467C22.8 7.64014 22.3467 7.1868 22.3467 6.64014C22.3467 6.09347 22.8 5.64014 23.3467 5.64014H24.3333V4.69352C24.3333 4.14686 24.7867 3.69352 25.3333 3.69352C25.88 3.69352 26.3333 4.14686 26.3333 4.69352V5.64014H27.32C27.8667 5.64014 28.32 6.09347 28.32 6.64014C28.32 7.1868 27.88 7.64014 27.32 7.64014Z" fill="white"/>
<path d="M15.2799 19.6398C17.3491 19.6398 19.0265 17.9624 19.0265 15.8931C19.0265 13.8239 17.3491 12.1465 15.2799 12.1465C13.2106 12.1465 11.5332 13.8239 11.5332 15.8931C11.5332 17.9624 13.2106 19.6398 15.2799 19.6398Z" fill="#2E2E2E"/>
<defs>
<linearGradient id="paint0_linear_322_4016" x1="15.3327" y1="4" x2="15.3327" y2="27.32" gradientUnits="userSpaceOnUse">
<stop stop-color="#85F850"/>
<stop offset="1" stop-color="#10F2E5"/>
</linearGradient>
</defs>
</svg>
