<svg width="32" height="32" viewBox="0 0 32 32" fill="none" xmlns="http://www.w3.org/2000/svg">
<path d="M21.586 2.6665H10.426C5.55935 2.6665 2.66602 5.55984 2.66602 10.4132V21.5732C2.66602 26.4265 5.55935 29.3198 10.4127 29.3198H21.5727C26.426 29.3198 29.3193 26.4265 29.3193 21.5732V10.4132C29.3327 5.55984 26.4394 2.6665 21.586 2.6665Z" fill="url(#paint0_linear_132_6835)"/>
<path d="M24.0007 14.28C23.7874 14.28 23.574 14.2134 23.3874 14.0667C18.894 10.6 13.094 10.6 8.61402 14.0667C8.17402 14.4 7.54736 14.32 7.21403 13.8934C6.88069 13.4534 6.96069 12.8267 7.38736 12.4934C12.614 8.45338 19.374 8.45338 24.614 12.4934C25.054 12.8267 25.134 13.4534 24.7873 13.8934C24.6007 14.1467 24.294 14.28 24.0007 14.28Z" fill="#2E2E2E"/>
<path d="M21.8665 18.4002C21.6532 18.4002 21.4398 18.3335 21.2532 18.1868C18.0532 15.7202 13.9332 15.7202 10.7332 18.1868C10.2932 18.5202 9.6665 18.4402 9.33317 18.0135C8.99983 17.5868 9.07983 16.9468 9.5065 16.6135C13.4398 13.5735 18.5332 13.5735 22.4665 16.6135C22.9065 16.9468 22.9865 17.5735 22.6398 18.0135C22.4665 18.2668 22.1732 18.4002 21.8665 18.4002Z" fill="#2E2E2E"/>
<path d="M18.9334 22.5201C18.7201 22.5201 18.5068 22.4534 18.3201 22.3068C16.9068 21.2134 15.0801 21.2134 13.6668 22.3068C13.2268 22.6401 12.6001 22.5601 12.2668 22.1334C11.9334 21.6934 12.0134 21.0668 12.4401 20.7334C14.5601 19.0934 17.4134 19.0934 19.5334 20.7334C19.9734 21.0668 20.0534 21.6934 19.7068 22.1334C19.5334 22.3868 19.2401 22.5201 18.9334 22.5201Z" fill="#2E2E2E"/>
<defs>
<linearGradient id="paint0_linear_132_6835" x1="15.9927" y1="2.6665" x2="15.9927" y2="29.3198" gradientUnits="userSpaceOnUse">
<stop stop-color="#85F850"/>
<stop offset="1" stop-color="#10F2E5"/>
</linearGradient>
</defs>
</svg>
