<svg width="758" height="296" viewBox="0 0 758 296" fill="none" xmlns="http://www.w3.org/2000/svg">
<path d="M278.804 17.2042C265.402 41.7439 254.415 67.5026 241.777 92.4309C219.793 135.792 190.801 175.299 158.936 211.942C134.046 240.563 97.7652 285.607 57.6337 293.342C29.8952 298.689 12.4906 267.933 6.41548 245.817C-4.68493 205.407 7.46312 158.568 29.1018 123.598C60.0925 73.5135 114.97 40.3958 168.514 19.2764C196.288 8.3211 247.566 -11.0713 272.937 16.4545C298.569 44.2629 283.924 91.8824 269.514 120.772C244.387 171.146 201.159 214.52 154.654 245.671C144.273 252.625 104.345 280.627 95.7258 256.358C83.7037 222.506 108.162 172.932 123.837 144.654C150.435 96.6713 190.015 54.8676 237.487 27.1218C264.818 11.1483 301.566 -2.02184 327.375 24.6109C357.414 55.6093 347.018 105.988 331.478 140.904C311.488 185.821 276.478 230.181 232.677 254.103C208.502 267.306 196.683 257.944 202.38 231.279C210.848 191.646 235.301 156.751 264.181 129.094C305.269 89.7448 361.457 56.6168 417.859 45.664C451.072 39.2145 483.281 48.3587 487.238 86.3C492.217 134.041 454.548 178.861 421.551 208.67C408.208 220.725 361.489 260.535 340.127 242.465C318.485 224.159 354.491 168.737 364.02 154.306C398.771 101.677 448.378 56.3773 506.28 30.6273C539.022 16.0663 594.154 0.508295 618.238 38.8857C643.172 78.6198 616.956 131.865 592.933 164.634C571.025 194.518 529.578 241.5 488.539 243.708C456.292 245.442 466.952 200.793 474.043 184.713C494.205 138.986 537.201 105.165 582.864 86.9307C626.463 69.5203 674.085 67.2839 711.377 99.1616C738.669 122.492 762.641 163.348 753.664 200.658C746.259 231.437 713.421 250.628 686.289 261.454C665.702 269.669 646.809 270.665 625.203 269.919" stroke="#E5E3D6" stroke-width="3" stroke-linecap="round"/>
</svg>
