<svg width="273" height="233" viewBox="0 0 273 233" fill="none" xmlns="http://www.w3.org/2000/svg">
<path d="M86.9387 80.2006C82.403 80.9565 78.1611 83.961 73.7361 85.3226C67.6781 87.1865 61.2695 87.113 54.9979 87.0723C46.7195 87.0186 38.7395 85.33 30.8832 82.7457C27.4538 81.6175 24.1199 80.4851 21.5301 77.8464C18.3074 74.5629 14.7378 69.7506 12.1133 66.2026C9.05605 62.0697 4.82265 57.1211 3.07822 52.0774C-5.37206 27.6451 24.9829 6.6867 45.1993 2.9255C65.2579 -0.806317 85.6078 0.573946 104.118 9.82904C118.794 17.1671 134.187 29.156 139.558 45.2693C143.641 57.5184 137.772 71.6633 131.287 81.9185C117.833 103.194 95.0109 115.567 71.9227 124.167C55.0394 130.456 34.738 131.939 18.2533 123.531C4.02251 116.272 -2.97905 98.0688 3.33272 83.1911C14.2602 57.4335 50.5466 49.5282 75.2313 47.6235C86.5854 46.7474 98.7065 46.7903 109.399 51.2503C118.558 55.0707 122.458 62.3687 122.952 72.0563C124.453 101.503 102.715 130.606 80.0988 147.168C71.6151 153.381 61.6276 158.868 51.0848 160.434C45.4943 161.265 37.0516 160.545 36.2915 153.308C35.4948 145.722 41.131 137.391 45.772 132.057C60.3869 115.257 82.2536 106.262 102.782 99.1933C123.123 92.189 145.51 85.4266 167.236 85.0999C177.868 84.94 186.603 88.153 187.756 99.7977C190.658 129.115 165.439 157.976 138.477 165.97C133.153 167.548 124.369 169.143 119.898 164.443C113.803 158.037 121.2 146.381 125.083 141.219C134.893 128.18 149.07 119.68 164.15 113.987C183.99 106.497 208.757 101.138 230.036 105.015C237.88 106.444 242.457 110.815 241.934 119.013C240.931 134.76 228.895 148.952 217.215 158.366C205.69 167.656 191.781 174.074 177.066 176.055C173.392 176.549 155.562 177.823 160.873 168.642C165.982 159.811 178.023 154.359 187.215 151.59C206.587 145.756 229.524 145.714 248.615 152.608C259.907 156.686 268.835 163.654 271.139 175.928C273.98 191.057 266.859 205.421 254.978 214.645C238.153 227.706 215.331 231.622 194.596 232.524" stroke="#1F1F1F" stroke-width="0.856188" stroke-linecap="round"/>
</svg>
