<svg width="120" height="120" viewBox="0 0 120 120" fill="none" xmlns="http://www.w3.org/2000/svg">
<path d="M58.9116 7.94165C58.7187 10.4843 59.7938 16.8238 64.6937 22.0004" stroke="url(#paint0_radial_386_9392)" stroke-width="7.75221" stroke-linecap="round"/>
<path d="M52.3977 34.0474C52.5145 31.5002 51.2506 25.1959 46.1982 20.1672" stroke="url(#paint1_radial_386_9392)" stroke-width="7.75221" stroke-linecap="round"/>
<path d="M60.4385 87.3595C62.3473 85.669 65.9917 80.3717 66.0818 73.2441" stroke="url(#paint2_radial_386_9392)" stroke-width="7.75221" stroke-linecap="round"/>
<path d="M82.9336 36.7819C85.4808 36.8986 91.7851 35.634 96.8132 30.5811" stroke="url(#paint3_radial_386_9392)" stroke-width="7.75221" stroke-linecap="round"/>
<path d="M41.3506 47.6908C42.7907 45.5866 45.0352 39.5608 43.3869 32.6262" stroke="url(#paint4_radial_386_9392)" stroke-width="7.75221" stroke-linecap="round"/>
<path d="M86.278 24.2774C85.4819 21.8549 82.0588 16.412 75.5488 13.5083" stroke="url(#paint5_radial_386_9392)" stroke-width="7.75221" stroke-linecap="round"/>
<path d="M100.119 45.4011C97.5708 45.5016 91.3971 47.2978 86.8174 52.7604" stroke="url(#paint6_radial_386_9392)" stroke-width="7.75221" stroke-linecap="round"/>
<path d="M63.9365 59.294C66.0822 57.9161 70.495 53.2393 71.6759 46.21" stroke="url(#paint7_radial_386_9392)" stroke-width="7.75221" stroke-linecap="round"/>
<path d="M90.505 67.4726C88.9781 65.4309 83.9991 61.3624 76.9033 60.6853" stroke="url(#paint8_radial_386_9392)" stroke-width="7.75221" stroke-linecap="round"/>
<path d="M51.5027 106.216C51.8959 103.697 51.3256 97.2919 46.8506 91.7439" stroke="url(#paint9_radial_386_9392)" stroke-width="7.75221" stroke-linecap="round"/>
<path d="M19.2985 84.7904C19.5288 82.2513 18.5475 75.8967 13.7246 70.6479" stroke="url(#paint10_radial_386_9392)" stroke-width="7.75221" stroke-linecap="round"/>
<path d="M83.1357 77.6084C85.2046 79.0984 91.175 81.4862 98.1472 80.0037" stroke="url(#paint11_radial_386_9392)" stroke-width="7.75221" stroke-linecap="round"/>
<path d="M61.8115 95.2405C62.6059 97.6629 66.025 103.109 72.5326 106.017" stroke="url(#paint12_radial_386_9392)" stroke-width="7.75221" stroke-linecap="round"/>
<path d="M18.8721 28.3376C20.6006 30.2118 25.9714 33.747 33.0994 33.6921" stroke="url(#paint13_radial_386_9392)" stroke-width="7.75221" stroke-linecap="round"/>
<path d="M13.9756 56.7919C15.7918 55.0026 19.1481 49.5181 18.8577 42.3958" stroke="url(#paint14_radial_386_9392)" stroke-width="7.75221" stroke-linecap="round"/>
<path d="M52.1335 59.3306C49.6396 59.8609 43.8585 62.6757 40.2686 68.8338" stroke="url(#paint15_radial_386_9392)" stroke-width="7.75221" stroke-linecap="round"/>
<path d="M33.7886 24.2827C36.4661 24.2827 38.6367 22.1121 38.6367 19.4346C38.6367 16.757 36.4661 14.5864 33.7886 14.5864C31.111 14.5864 28.9404 16.757 28.9404 19.4346C28.9404 22.1121 31.111 24.2827 33.7886 24.2827Z" fill="url(#paint16_radial_386_9392)"/>
<path d="M69.5425 36.8029C72.22 36.8029 74.3906 34.6324 74.3906 31.9548C74.3906 29.2773 72.22 27.1067 69.5425 27.1067C66.8649 27.1067 64.6943 29.2773 64.6943 31.9548C64.6943 34.6324 66.8649 36.8029 69.5425 36.8029Z" fill="url(#paint17_radial_386_9392)"/>
<path d="M58.6079 51.0581C61.2854 51.0581 63.456 48.8875 63.456 46.2099C63.456 43.5324 61.2854 41.3618 58.6079 41.3618C55.9303 41.3618 53.7598 43.5324 53.7598 46.2099C53.7598 48.8875 55.9303 51.0581 58.6079 51.0581Z" fill="url(#paint18_radial_386_9392)"/>
<path d="M30.8276 58.7663C33.5052 58.7663 35.6758 56.5958 35.6758 53.9182C35.6758 51.2407 33.5052 49.0701 30.8276 49.0701C28.1501 49.0701 25.9795 51.2407 25.9795 53.9182C25.9795 56.5958 28.1501 58.7663 30.8276 58.7663Z" fill="url(#paint19_radial_386_9392)"/>
<path d="M27.0093 72.6743C29.6868 72.6743 31.8574 70.5037 31.8574 67.8262C31.8574 65.1486 29.6868 62.978 27.0093 62.978C24.3317 62.978 22.1611 65.1486 22.1611 67.8262C22.1611 70.5037 24.3317 72.6743 27.0093 72.6743Z" fill="url(#paint20_radial_386_9392)"/>
<path d="M52.6352 80.1784C55.3128 80.1784 57.4834 78.0079 57.4834 75.3303C57.4834 72.6528 55.3128 70.4822 52.6352 70.4822C49.9577 70.4822 47.7871 72.6528 47.7871 75.3303C47.7871 78.0079 49.9577 80.1784 52.6352 80.1784Z" fill="url(#paint21_radial_386_9392)"/>
<path d="M73.6343 93.0281C76.3118 93.0281 78.4824 90.8575 78.4824 88.1799C78.4824 85.5024 76.3118 83.3318 73.6343 83.3318C70.9567 83.3318 68.7861 85.5024 68.7861 88.1799C68.7861 90.8575 70.9567 93.0281 73.6343 93.0281Z" fill="url(#paint22_radial_386_9392)"/>
<path d="M33.6567 87.4153C36.3343 87.4153 38.5049 85.2447 38.5049 82.5671C38.5049 79.8896 36.3343 77.719 33.6567 77.719C30.9792 77.719 28.8086 79.8896 28.8086 82.5671C28.8086 85.2447 30.9792 87.4153 33.6567 87.4153Z" fill="url(#paint23_radial_386_9392)"/>
<path d="M90.521 96.5915C93.1985 96.5915 95.3691 94.4209 95.3691 91.7434C95.3691 89.0658 93.1985 86.8953 90.521 86.8953C87.8434 86.8953 85.6729 89.0658 85.6729 91.7434C85.6729 94.4209 87.8434 96.5915 90.521 96.5915Z" fill="url(#paint24_radial_386_9392)"/>
<path d="M102.063 64.0722C104.741 64.0722 106.911 61.9017 106.911 59.2241C106.911 56.5466 104.741 54.376 102.063 54.376C99.3854 54.376 97.2148 56.5466 97.2148 59.2241C97.2148 61.9017 99.3854 64.0722 102.063 64.0722Z" fill="url(#paint25_radial_386_9392)"/>
<path d="M33.7886 101.44C36.4661 101.44 38.6367 99.2693 38.6367 96.5918C38.6367 93.9142 36.4661 91.7437 33.7886 91.7437C31.111 91.7437 28.9404 93.9142 28.9404 96.5918C28.9404 99.2693 31.111 101.44 33.7886 101.44Z" fill="url(#paint26_radial_386_9392)"/>
<defs>
<radialGradient id="paint0_radial_386_9392" cx="0" cy="0" r="1" gradientUnits="userSpaceOnUse" gradientTransform="translate(59 26) rotate(-76.2392) scale(25.224 10.6664)">
<stop stop-color="#E3FFBF"/>
<stop offset="1" stop-color="#88BC87"/>
</radialGradient>
<radialGradient id="paint1_radial_386_9392" cx="0" cy="0" r="1" gradientUnits="userSpaceOnUse" gradientTransform="translate(49 34) rotate(-90) scale(20 8.66676)">
<stop stop-color="#E3FFBF"/>
<stop offset="1" stop-color="#88BC87"/>
</radialGradient>
<radialGradient id="paint2_radial_386_9392" cx="0" cy="0" r="1" gradientUnits="userSpaceOnUse" gradientTransform="translate(60 84.5) rotate(-55.8403) scale(16.9189 7.07375)">
<stop stop-color="#E3FFBF"/>
<stop offset="1" stop-color="#88BC87"/>
</radialGradient>
<radialGradient id="paint3_radial_386_9392" cx="0" cy="0" r="1" gradientUnits="userSpaceOnUse" gradientTransform="translate(81.8552 35.5315) rotate(-14.7636) scale(24.1626 5.3578)">
<stop stop-color="#E3FFBF"/>
<stop offset="1" stop-color="#88BC87"/>
</radialGradient>
<radialGradient id="paint4_radial_386_9392" cx="0" cy="0" r="1" gradientUnits="userSpaceOnUse" gradientTransform="translate(41.1473 44.639) rotate(-73.5777) scale(15.5769 5.97567)">
<stop stop-color="#E3FFBF"/>
<stop offset="1" stop-color="#88BC87"/>
</radialGradient>
<radialGradient id="paint5_radial_386_9392" cx="0" cy="0" r="1" gradientUnits="userSpaceOnUse" gradientTransform="translate(67 14) rotate(23.3177) scale(31.5793 12.4506)">
<stop stop-color="#E3FFBF"/>
<stop offset="1" stop-color="#88BC87"/>
</radialGradient>
<radialGradient id="paint6_radial_386_9392" cx="0" cy="0" r="1" gradientUnits="userSpaceOnUse" gradientTransform="translate(85.7839 51.2695) rotate(-18.0549) scale(23.551 6.2447)">
<stop stop-color="#E3FFBF"/>
<stop offset="1" stop-color="#88BC87"/>
</radialGradient>
<radialGradient id="paint7_radial_386_9392" cx="0" cy="0" r="1" gradientUnits="userSpaceOnUse" gradientTransform="translate(63.3352 56.6435) rotate(-44.887) scale(18.3888 8.27352)">
<stop stop-color="#E3FFBF"/>
<stop offset="1" stop-color="#88BC87"/>
</radialGradient>
<radialGradient id="paint8_radial_386_9392" cx="0" cy="0" r="1" gradientUnits="userSpaceOnUse" gradientTransform="translate(64 61) rotate(8.53077) scale(40.4475 9.84943)">
<stop stop-color="#E3FFBF"/>
<stop offset="1" stop-color="#88BC87"/>
</radialGradient>
<radialGradient id="paint9_radial_386_9392" cx="0" cy="0" r="1" gradientUnits="userSpaceOnUse" gradientTransform="translate(46.4811 103.284) rotate(-60.8538) scale(16.4345 6.29063)">
<stop stop-color="#E3FFBF"/>
<stop offset="1" stop-color="#88BC87"/>
</radialGradient>
<radialGradient id="paint10_radial_386_9392" cx="0" cy="0" r="1" gradientUnits="userSpaceOnUse" gradientTransform="translate(13.2891 81.9255) rotate(-56.074) scale(16.9048 7.04469)">
<stop stop-color="#E3FFBF"/>
<stop offset="1" stop-color="#88BC87"/>
</radialGradient>
<radialGradient id="paint11_radial_386_9392" cx="0" cy="0" r="1" gradientUnits="userSpaceOnUse" gradientTransform="translate(81.9694 79.8911) rotate(-6.4105) scale(25.4291 9.23064)">
<stop stop-color="#E3FFBF"/>
<stop offset="1" stop-color="#88BC87"/>
</radialGradient>
<radialGradient id="paint12_radial_386_9392" cx="0" cy="0" r="1" gradientUnits="userSpaceOnUse" gradientTransform="translate(60.9785 103.834) rotate(-30.6354) scale(20.9755 8.27566)">
<stop stop-color="#E3FFBF"/>
<stop offset="1" stop-color="#88BC87"/>
</radialGradient>
<radialGradient id="paint13_radial_386_9392" cx="0" cy="0" r="1" gradientUnits="userSpaceOnUse" gradientTransform="translate(17.7666 32.6079) rotate(-12.5039) scale(24.5321 4.66608)">
<stop stop-color="#E3FFBF"/>
<stop offset="1" stop-color="#88BC87"/>
</radialGradient>
<radialGradient id="paint14_radial_386_9392" cx="0" cy="0" r="1" gradientUnits="userSpaceOnUse" gradientTransform="translate(13.5949 53.8755) rotate(-59.9861) scale(16.4897 6.42696)">
<stop stop-color="#E3FFBF"/>
<stop offset="1" stop-color="#88BC87"/>
</radialGradient>
<radialGradient id="paint15_radial_386_9392" cx="0" cy="0" r="1" gradientUnits="userSpaceOnUse" gradientTransform="translate(39.3467 66.9086) rotate(-25.2629) scale(22.0857 7.67043)">
<stop stop-color="#E3FFBF"/>
<stop offset="1" stop-color="#88BC87"/>
</radialGradient>
<radialGradient id="paint16_radial_386_9392" cx="0" cy="0" r="1" gradientUnits="userSpaceOnUse" gradientTransform="translate(32.2466 18.4797) rotate(86.1859) scale(7.51665 7.61344)">
<stop stop-color="#F8BDD5"/>
<stop offset="0.508333" stop-color="#DB91DE"/>
<stop offset="1" stop-color="#6677BF"/>
</radialGradient>
<radialGradient id="paint17_radial_386_9392" cx="0" cy="0" r="1" gradientUnits="userSpaceOnUse" gradientTransform="translate(68.0005 31) rotate(86.1859) scale(7.51665 7.61343)">
<stop stop-color="#F8BDD5"/>
<stop offset="0.508333" stop-color="#DB91DE"/>
<stop offset="1" stop-color="#6677BF"/>
</radialGradient>
<radialGradient id="paint18_radial_386_9392" cx="0" cy="0" r="1" gradientUnits="userSpaceOnUse" gradientTransform="translate(58.0824 44.7545) scale(5.44781 5.4478)">
<stop stop-color="#F4FCFF"/>
<stop offset="1" stop-color="#C2C2C2"/>
</radialGradient>
<radialGradient id="paint19_radial_386_9392" cx="0" cy="0" r="1" gradientUnits="userSpaceOnUse" gradientTransform="translate(30.3021 52.4628) scale(5.44781 5.44781)">
<stop stop-color="#F4FCFF"/>
<stop offset="1" stop-color="#C2C2C2"/>
</radialGradient>
<radialGradient id="paint20_radial_386_9392" cx="0" cy="0" r="1" gradientUnits="userSpaceOnUse" gradientTransform="translate(25.076 68.7742) rotate(90) scale(4.85022 4.91268)">
<stop stop-color="#E3FFBF"/>
<stop offset="1" stop-color="#88BC87"/>
</radialGradient>
<radialGradient id="paint21_radial_386_9392" cx="0" cy="0" r="1" gradientUnits="userSpaceOnUse" gradientTransform="translate(50.702 76.2784) rotate(90) scale(4.85022 4.91268)">
<stop stop-color="#E3FFBF"/>
<stop offset="1" stop-color="#88BC87"/>
</radialGradient>
<radialGradient id="paint22_radial_386_9392" cx="0" cy="0" r="1" gradientUnits="userSpaceOnUse" gradientTransform="translate(71.701 89.128) rotate(90) scale(4.85022 4.91268)">
<stop stop-color="#E3FFBF"/>
<stop offset="1" stop-color="#88BC87"/>
</radialGradient>
<radialGradient id="paint23_radial_386_9392" cx="0" cy="0" r="1" gradientUnits="userSpaceOnUse" gradientTransform="translate(31.7235 83.5152) rotate(90) scale(4.85022 4.91268)">
<stop stop-color="#E3FFBF"/>
<stop offset="1" stop-color="#88BC87"/>
</radialGradient>
<radialGradient id="paint24_radial_386_9392" cx="0" cy="0" r="1" gradientUnits="userSpaceOnUse" gradientTransform="translate(89.9954 90.288) scale(5.44781 5.44781)">
<stop stop-color="#F4FCFF"/>
<stop offset="1" stop-color="#C2C2C2"/>
</radialGradient>
<radialGradient id="paint25_radial_386_9392" cx="0" cy="0" r="1" gradientUnits="userSpaceOnUse" gradientTransform="translate(101 58) rotate(97.0641) scale(7.07552 7.16663)">
<stop stop-color="#F8BDD5"/>
<stop offset="0.471875" stop-color="#DB91DE"/>
<stop offset="1" stop-color="#6677BF"/>
</radialGradient>
<radialGradient id="paint26_radial_386_9392" cx="0" cy="0" r="1" gradientUnits="userSpaceOnUse" gradientTransform="translate(36 94.5) rotate(72.4744) scale(9.96243 10.0907)">
<stop stop-color="#F8BDD5"/>
<stop offset="0.523958" stop-color="#DB91DE"/>
<stop offset="1" stop-color="#6677BF"/>
</radialGradient>
</defs>
</svg>
