<svg width="880" height="300" viewBox="0 0 880 300" fill="none" xmlns="http://www.w3.org/2000/svg">
<path opacity="0.4" d="M333.812 286.559C301.645 301.679 221.485 296.179 162.405 287.179C103.325 278.179 52.1469 288.753 47.8639 286.559C9.83892 267.086 15.9169 245.295 35.4049 224.179C67.9529 188.912 155.405 135.179 190.405 149.179C225.405 163.179 204.713 105.87 245.405 97.179C271.082 91.6946 322.993 106.247 352.405 122.179C376.405 135.179 463.176 151.28 485.405 158.179C514.405 167.179 506.931 147.495 592.405 158.179C632.405 163.179 641.89 138.613 669.405 149.179C687.636 156.18 784.31 137.392 804.4 148.179C873.67 185.353 875.14 254.711 869.4 272.179C866.4 281.322 803.88 264.251 762.405 264.179C746.232 264.151 728.634 246.118 723.405 251.179C710.755 263.42 645.82 252.398 614.405 264.179C572.054 280.061 478.405 299.179 437.405 259.179C428.666 250.653 364.405 272.179 333.812 286.559Z" fill="white"/>
<path d="M480.431 273.568C484.537 277.006 490.086 278.633 495.689 277.577C496.931 277.343 498.147 276.983 499.312 276.503C502.253 275.283 504.737 273.34 506.596 270.936C507.831 269.344 508.787 267.549 509.424 265.633C510.433 262.583 510.634 259.212 509.816 255.846C508.645 250.982 507.34 246.343 505.929 241.914C501.221 227.159 495.292 214.792 488.998 204.506C481.765 192.702 474.046 183.64 467.116 176.868C461.145 171.04 455.762 166.917 451.775 164.204C448.532 161.991 445.044 159.63 441.179 158.653C433.447 156.698 425.188 159.985 421.113 166.965C415.925 175.835 419.542 187.627 428.874 192.244C428.973 192.292 431.897 193.858 436.305 197.478C441.331 201.598 448.296 208.391 455.182 218.64C461.178 227.569 467.11 239.113 471.662 253.8C472.652 257.012 473.582 260.369 474.43 263.882C475.375 267.809 477.538 271.134 480.431 273.568Z" fill="url(#paint0_radial_602_3289)"/>
<path d="M480.431 273.568C484.537 277.006 490.086 278.633 495.689 277.577C496.931 277.343 498.147 276.983 499.312 276.503C502.253 275.283 504.737 273.34 506.596 270.936C507.831 269.344 508.787 267.549 509.424 265.633C510.433 262.583 510.634 259.212 509.816 255.846C508.645 250.982 507.34 246.343 505.929 241.914C501.221 227.159 495.292 214.792 488.998 204.506C481.765 192.702 474.046 183.64 467.116 176.868C461.145 171.04 455.762 166.917 451.775 164.204C448.532 161.991 445.044 159.63 441.179 158.653C433.447 156.698 425.188 159.985 421.113 166.965C415.925 175.835 419.542 187.627 428.874 192.244C428.973 192.292 431.897 193.858 436.305 197.478C441.331 201.598 448.296 208.391 455.182 218.64C461.178 227.569 467.11 239.113 471.662 253.8C472.652 257.012 473.582 260.369 474.43 263.882C475.375 267.809 477.538 271.134 480.431 273.568Z" fill="url(#paint1_linear_602_3289)"/>
<path d="M833.4 257.063C838.22 259.406 843.99 259.642 849.18 257.262C850.32 256.735 851.42 256.091 852.43 255.344C854.99 253.449 856.93 250.962 858.15 248.179C858.97 246.336 859.46 244.364 859.61 242.35C859.85 239.147 859.23 235.827 857.63 232.759C855.31 228.323 852.92 224.137 850.48 220.181C842.35 207.004 833.6 196.438 825.01 187.98C815.13 178.277 805.45 171.351 797.09 166.457C789.88 162.246 783.66 159.548 779.14 157.88C775.46 156.518 771.5 155.07 767.51 155.058C759.539 155.031 752.32 160.219 750.055 167.977C747.167 177.839 753.53 188.405 763.701 190.627C763.809 190.651 767.02 191.463 772.18 193.908C778.05 196.69 786.45 201.596 795.61 209.875C803.59 217.088 812.14 226.855 820.11 240.004C821.85 242.881 823.56 245.913 825.23 249.117C827.1 252.698 830.01 255.402 833.4 257.063Z" fill="url(#paint2_radial_602_3289)"/>
<path d="M833.4 257.063C838.22 259.406 843.99 259.642 849.18 257.262C850.32 256.735 851.42 256.091 852.43 255.344C854.99 253.449 856.93 250.962 858.15 248.179C858.97 246.336 859.46 244.364 859.61 242.35C859.85 239.147 859.23 235.827 857.63 232.759C855.31 228.323 852.92 224.137 850.48 220.181C842.35 207.004 833.6 196.438 825.01 187.98C815.13 178.277 805.45 171.351 797.09 166.457C789.88 162.246 783.66 159.548 779.14 157.88C775.46 156.518 771.5 155.07 767.51 155.058C759.539 155.031 752.32 160.219 750.055 167.977C747.167 177.839 753.53 188.405 763.701 190.627C763.809 190.651 767.02 191.463 772.18 193.908C778.05 196.69 786.45 201.596 795.61 209.875C803.59 217.088 812.14 226.855 820.11 240.004C821.85 242.881 823.56 245.913 825.23 249.117C827.1 252.698 830.01 255.402 833.4 257.063Z" fill="url(#paint3_linear_602_3289)" fill-opacity="0.4"/>
<path d="M833.4 257.063C838.22 259.406 843.99 259.642 849.18 257.262C850.32 256.735 851.42 256.091 852.43 255.344C854.99 253.449 856.93 250.962 858.15 248.179C858.97 246.336 859.46 244.364 859.61 242.35C859.85 239.147 859.23 235.827 857.63 232.759C855.31 228.323 852.92 224.137 850.48 220.181C842.35 207.004 833.6 196.438 825.01 187.98C815.13 178.277 805.45 171.351 797.09 166.457C789.88 162.246 783.66 159.548 779.14 157.88C775.46 156.518 771.5 155.07 767.51 155.058C759.539 155.031 752.32 160.219 750.055 167.977C747.167 177.839 753.53 188.405 763.701 190.627C763.809 190.651 767.02 191.463 772.18 193.908C778.05 196.69 786.45 201.596 795.61 209.875C803.59 217.088 812.14 226.855 820.11 240.004C821.85 242.881 823.56 245.913 825.23 249.117C827.1 252.698 830.01 255.402 833.4 257.063Z" fill="url(#paint4_linear_602_3289)"/>
<path d="M548.729 189.98C544.19 192.823 540.928 197.597 540.201 203.252C540.039 204.506 540.006 205.774 540.103 207.03C540.354 210.204 541.435 213.167 543.147 215.678C544.279 217.344 545.69 218.808 547.316 220.006C549.904 221.908 553.049 223.141 556.503 223.403C561.491 223.792 566.306 223.985 570.954 224.012C586.442 224.093 600.035 222.277 611.763 219.468C625.224 216.238 636.229 211.697 644.81 207.198C652.199 203.32 657.783 199.475 661.595 196.522C664.702 194.121 668.026 191.534 670.149 188.16C674.398 181.41 673.824 172.539 668.445 166.507C661.612 158.832 649.279 158.629 642.005 166.077C641.928 166.156 639.535 168.453 634.731 171.526C629.259 175.034 620.646 179.558 608.77 182.94C598.426 185.884 585.613 187.958 570.239 187.749C566.879 187.697 563.398 187.545 559.795 187.266C555.769 186.951 551.937 187.981 548.729 189.98Z" fill="url(#paint5_radial_602_3289)"/>
<path d="M548.729 189.98C544.19 192.823 540.928 197.597 540.201 203.252C540.039 204.506 540.006 205.774 540.103 207.03C540.354 210.204 541.435 213.167 543.147 215.678C544.279 217.344 545.69 218.808 547.316 220.006C549.904 221.908 553.049 223.141 556.503 223.403C561.491 223.792 566.306 223.985 570.954 224.012C586.442 224.093 600.035 222.277 611.763 219.468C625.224 216.238 636.229 211.697 644.81 207.198C652.199 203.32 657.783 199.475 661.595 196.522C664.702 194.121 668.026 191.534 670.149 188.16C674.398 181.41 673.824 172.539 668.445 166.507C661.612 158.832 649.279 158.629 642.005 166.077C641.928 166.156 639.535 168.453 634.731 171.526C629.259 175.034 620.646 179.558 608.77 182.94C598.426 185.884 585.613 187.958 570.239 187.749C566.879 187.697 563.398 187.545 559.795 187.266C555.769 186.951 551.937 187.981 548.729 189.98Z" fill="url(#paint6_linear_602_3289)" fill-opacity="0.4"/>
<path d="M548.729 189.98C544.19 192.823 540.928 197.597 540.201 203.252C540.039 204.506 540.006 205.774 540.103 207.03C540.354 210.204 541.435 213.167 543.147 215.678C544.279 217.344 545.69 218.808 547.316 220.006C549.904 221.908 553.049 223.141 556.503 223.403C561.491 223.792 566.306 223.985 570.954 224.012C586.442 224.093 600.035 222.277 611.763 219.468C625.224 216.238 636.229 211.697 644.81 207.198C652.199 203.32 657.783 199.475 661.595 196.522C664.702 194.121 668.026 191.534 670.149 188.16C674.398 181.41 673.824 172.539 668.445 166.507C661.612 158.832 649.279 158.629 642.005 166.077C641.928 166.156 639.535 168.453 634.731 171.526C629.259 175.034 620.646 179.558 608.77 182.94C598.426 185.884 585.613 187.958 570.239 187.749C566.879 187.697 563.398 187.545 559.795 187.266C555.769 186.951 551.937 187.981 548.729 189.98Z" fill="url(#paint7_linear_602_3289)"/>
<path d="M685.78 267.904C690.901 266.333 695.288 262.565 697.453 257.291C697.934 256.122 698.294 254.905 698.526 253.667C699.105 250.536 698.828 247.394 697.824 244.526C697.161 242.623 696.177 240.845 694.917 239.266C692.909 236.759 690.19 234.755 686.922 233.607C682.205 231.94 677.604 230.508 673.121 229.279C658.182 225.192 644.581 223.428 632.526 223.105C618.688 222.742 606.883 224.28 597.43 226.404C589.289 228.238 582.9 230.507 578.453 232.373C574.831 233.888 570.951 235.526 568.027 238.236C562.176 243.656 560.435 252.373 564.069 259.592C568.682 268.774 580.542 272.162 589.497 266.85C589.591 266.794 592.497 265.195 597.933 263.469C604.126 261.498 613.617 259.356 625.963 259.163C636.717 258.998 649.63 260.31 664.426 264.492C667.659 265.411 670.981 266.459 674.389 267.661C678.197 269.007 682.164 269.004 685.78 267.904Z" fill="url(#paint8_radial_602_3289)"/>
<path d="M685.78 267.904C690.901 266.333 695.288 262.565 697.453 257.291C697.934 256.122 698.294 254.905 698.526 253.667C699.105 250.536 698.828 247.394 697.824 244.526C697.161 242.623 696.177 240.845 694.917 239.266C692.909 236.759 690.19 234.755 686.922 233.607C682.205 231.94 677.604 230.508 673.121 229.279C658.182 225.192 644.581 223.428 632.526 223.105C618.688 222.742 606.883 224.28 597.43 226.404C589.289 228.238 582.9 230.507 578.453 232.373C574.831 233.888 570.951 235.526 568.027 238.236C562.176 243.656 560.435 252.373 564.069 259.592C568.682 268.774 580.542 272.162 589.497 266.85C589.591 266.794 592.497 265.195 597.933 263.469C604.126 261.498 613.617 259.356 625.963 259.163C636.717 258.998 649.63 260.31 664.426 264.492C667.659 265.411 670.981 266.459 674.389 267.661C678.197 269.007 682.164 269.004 685.78 267.904Z" fill="url(#paint9_linear_602_3289)" fill-opacity="0.4"/>
<path d="M685.78 267.904C690.901 266.333 695.288 262.565 697.453 257.291C697.934 256.122 698.294 254.905 698.526 253.667C699.105 250.536 698.828 247.394 697.824 244.526C697.161 242.623 696.177 240.845 694.917 239.266C692.909 236.759 690.19 234.755 686.922 233.607C682.205 231.94 677.604 230.508 673.121 229.279C658.182 225.192 644.581 223.428 632.526 223.105C618.688 222.742 606.883 224.28 597.43 226.404C589.289 228.238 582.9 230.507 578.453 232.373C574.831 233.888 570.951 235.526 568.027 238.236C562.176 243.656 560.435 252.373 564.069 259.592C568.682 268.774 580.542 272.162 589.497 266.85C589.591 266.794 592.497 265.195 597.933 263.469C604.126 261.498 613.617 259.356 625.963 259.163C636.717 258.998 649.63 260.31 664.426 264.492C667.659 265.411 670.981 266.459 674.389 267.661C678.197 269.007 682.164 269.004 685.78 267.904Z" fill="url(#paint10_linear_602_3289)"/>
<path d="M292.876 233.958C296.914 230.44 299.389 225.214 299.222 219.515C299.186 218.252 299.02 216.994 298.729 215.769C297.984 212.673 296.453 209.915 294.369 207.703C292.99 206.234 291.367 205.01 289.574 204.081C286.72 202.607 283.421 201.881 279.969 202.162C274.982 202.558 270.196 203.121 265.601 203.822C250.291 206.164 237.149 210.085 226.004 214.693C213.215 219.99 203.056 226.196 195.284 231.982C188.593 236.968 183.679 241.64 180.376 245.153C177.683 248.01 174.805 251.085 173.236 254.75C170.095 262.081 172.05 270.753 178.306 275.87C186.255 282.381 198.468 280.653 204.488 272.158C204.551 272.068 206.555 269.425 210.82 265.638C215.675 261.318 223.474 255.502 234.675 250.303C244.431 245.778 256.762 241.725 271.98 239.526C275.306 239.051 278.768 238.658 282.37 238.37C286.397 238.051 290.02 236.434 292.876 233.958Z" fill="url(#paint11_radial_602_3289)"/>
<path d="M292.876 233.958C296.914 230.44 299.389 225.214 299.222 219.515C299.186 218.252 299.02 216.994 298.729 215.769C297.984 212.673 296.453 209.915 294.369 207.703C292.99 206.234 291.367 205.01 289.574 204.081C286.72 202.607 283.421 201.881 279.969 202.162C274.982 202.558 270.196 203.121 265.601 203.822C250.291 206.164 237.149 210.085 226.004 214.693C213.215 219.99 203.056 226.196 195.284 231.982C188.593 236.968 183.679 241.64 180.376 245.153C177.683 248.01 174.805 251.085 173.236 254.75C170.095 262.081 172.05 270.753 178.306 275.87C186.255 282.381 198.468 280.653 204.488 272.158C204.551 272.068 206.555 269.425 210.82 265.638C215.675 261.318 223.474 255.502 234.675 250.303C244.431 245.778 256.762 241.725 271.98 239.526C275.306 239.051 278.768 238.658 282.37 238.37C286.397 238.051 290.02 236.434 292.876 233.958Z" fill="url(#paint12_linear_602_3289)" fill-opacity="0.4"/>
<path d="M292.876 233.958C296.914 230.44 299.389 225.214 299.222 219.515C299.186 218.252 299.02 216.994 298.729 215.769C297.984 212.673 296.453 209.915 294.369 207.703C292.99 206.234 291.367 205.01 289.574 204.081C286.72 202.607 283.421 201.881 279.969 202.162C274.982 202.558 270.196 203.121 265.601 203.822C250.291 206.164 237.149 210.085 226.004 214.693C213.215 219.99 203.056 226.196 195.284 231.982C188.593 236.968 183.679 241.64 180.376 245.153C177.683 248.01 174.805 251.085 173.236 254.75C170.095 262.081 172.05 270.753 178.306 275.87C186.255 282.381 198.468 280.653 204.488 272.158C204.551 272.068 206.555 269.425 210.82 265.638C215.675 261.318 223.474 255.502 234.675 250.303C244.431 245.778 256.762 241.725 271.98 239.526C275.306 239.051 278.768 238.658 282.37 238.37C286.397 238.051 290.02 236.434 292.876 233.958Z" fill="url(#paint13_linear_602_3289)"/>
<path d="M318.286 207.168C323.352 208.906 329.116 208.437 333.968 205.442C335.044 204.779 336.05 204.007 336.965 203.142C339.274 200.949 340.897 198.244 341.77 195.334C342.353 193.405 342.602 191.387 342.51 189.37C342.36 186.161 341.338 182.942 339.369 180.092C336.533 175.971 333.652 172.108 330.748 168.479C321.064 156.391 311.098 146.97 301.535 139.623C290.553 131.195 280.098 125.501 271.202 121.663C263.538 118.361 257.036 116.441 252.341 115.337C248.521 114.434 244.418 113.479 240.46 113.952C232.541 114.898 226.008 120.927 224.705 128.903C223.04 139.044 230.644 148.755 241.01 149.722C241.12 149.731 244.411 150.146 249.823 151.945C255.992 153.99 264.928 157.836 275.031 164.937C283.828 171.124 293.503 179.776 303.016 191.856C305.091 194.499 307.163 197.3 309.213 200.276C311.502 203.603 314.714 205.933 318.286 207.168Z" fill="url(#paint14_radial_602_3289)"/>
<path d="M318.286 207.168C323.352 208.906 329.116 208.437 333.968 205.442C335.044 204.779 336.05 204.007 336.965 203.142C339.274 200.949 340.897 198.244 341.77 195.334C342.353 193.405 342.602 191.387 342.51 189.37C342.36 186.161 341.338 182.942 339.369 180.092C336.533 175.971 333.652 172.108 330.748 168.479C321.064 156.391 311.098 146.97 301.535 139.623C290.553 131.195 280.098 125.501 271.202 121.663C263.538 118.361 257.036 116.441 252.341 115.337C248.521 114.434 244.418 113.479 240.46 113.952C232.541 114.898 226.008 120.927 224.705 128.903C223.04 139.044 230.644 148.755 241.01 149.722C241.12 149.731 244.411 150.146 249.823 151.945C255.992 153.99 264.928 157.836 275.031 164.937C283.828 171.124 293.503 179.776 303.016 191.856C305.091 194.499 307.163 197.3 309.213 200.276C311.502 203.603 314.714 205.933 318.286 207.168Z" fill="url(#paint15_linear_602_3289)" fill-opacity="0.4"/>
<path d="M318.286 207.168C323.352 208.906 329.116 208.437 333.968 205.442C335.044 204.779 336.05 204.007 336.965 203.142C339.274 200.949 340.897 198.244 341.77 195.334C342.353 193.405 342.602 191.387 342.51 189.37C342.36 186.161 341.338 182.942 339.369 180.092C336.533 175.971 333.652 172.108 330.748 168.479C321.064 156.391 311.098 146.97 301.535 139.623C290.553 131.195 280.098 125.501 271.202 121.663C263.538 118.361 257.036 116.441 252.341 115.337C248.521 114.434 244.418 113.479 240.46 113.952C232.541 114.898 226.008 120.927 224.705 128.903C223.04 139.044 230.644 148.755 241.01 149.722C241.12 149.731 244.411 150.146 249.823 151.945C255.992 153.99 264.928 157.836 275.031 164.937C283.828 171.124 293.503 179.776 303.016 191.856C305.091 194.499 307.163 197.3 309.213 200.276C311.502 203.603 314.714 205.933 318.286 207.168Z" fill="url(#paint16_linear_602_3289)"/>
<path d="M71.9492 252.77C69.6902 257.626 69.5552 263.407 72.0262 268.546C72.5732 269.685 73.2362 270.767 74.0002 271.768C75.9402 274.293 78.4602 276.189 81.2632 277.362C83.1212 278.143 85.1012 278.602 87.1172 278.722C90.3242 278.907 93.6332 278.228 96.6722 276.567C101.067 274.177 105.211 271.716 109.123 269.207C122.157 260.84 132.568 251.913 140.875 243.17C150.404 233.129 157.16 223.328 161.907 214.881C165.992 207.605 168.581 201.338 170.17 196.785C171.467 193.08 172.846 189.1 172.789 185.114C172.676 177.139 167.363 170.012 159.567 167.882C149.656 165.167 139.203 171.713 137.158 181.922C137.137 182.03 136.381 185.259 134.026 190.454C131.347 196.375 126.588 204.861 118.47 214.165C111.398 222.268 101.782 230.986 88.7732 239.184C85.9282 240.971 82.9252 242.739 79.7512 244.467C76.2032 246.396 73.5512 249.346 71.9492 252.77Z" fill="url(#paint17_radial_602_3289)"/>
<path d="M71.9492 252.77C69.6902 257.626 69.5552 263.407 72.0262 268.546C72.5732 269.685 73.2362 270.767 74.0002 271.768C75.9402 274.293 78.4602 276.189 81.2632 277.362C83.1212 278.143 85.1012 278.602 87.1172 278.722C90.3242 278.907 93.6332 278.228 96.6722 276.567C101.067 274.177 105.211 271.716 109.123 269.207C122.157 260.84 132.568 251.913 140.875 243.17C150.404 233.129 157.16 223.328 161.907 214.881C165.992 207.605 168.581 201.338 170.17 196.785C171.467 193.08 172.846 189.1 172.789 185.114C172.676 177.139 167.363 170.012 159.567 167.882C149.656 165.167 139.203 171.713 137.158 181.922C137.137 182.03 136.381 185.259 134.026 190.454C131.347 196.375 126.588 204.861 118.47 214.165C111.398 222.268 101.782 230.986 88.7732 239.184C85.9282 240.971 82.9252 242.739 79.7512 244.467C76.2032 246.396 73.5512 249.346 71.9492 252.77Z" fill="url(#paint18_linear_602_3289)"/>
<path d="M249.493 260.634C245.937 264.623 244.186 270.111 245.146 275.737C245.361 276.984 245.697 278.211 246.16 279.389C247.338 282.364 249.257 284.907 251.654 286.837C253.239 288.12 255.035 289.132 256.961 289.829C260.027 290.934 263.434 291.239 266.854 290.533C271.795 289.515 276.513 288.363 281.019 287.093C296.031 282.859 308.654 277.334 319.18 271.374C331.257 264.529 340.571 257.108 347.55 250.407C353.56 244.631 357.838 239.386 360.655 235.491C362.957 232.324 365.409 228.915 366.47 225.086C368.599 217.428 365.433 209.08 358.452 204.79C349.581 199.327 337.585 202.566 332.739 211.737C332.685 211.835 331.047 214.706 327.301 218.99C323.035 223.875 316.031 230.615 305.533 237.167C296.387 242.869 284.597 248.428 269.656 252.505C266.386 253.389 262.975 254.211 259.405 254.948C255.417 255.766 252.01 257.818 249.493 260.634Z" fill="url(#paint19_radial_602_3289)"/>
<path d="M249.493 260.634C245.937 264.623 244.186 270.111 245.146 275.737C245.361 276.984 245.697 278.211 246.16 279.389C247.338 282.364 249.257 284.907 251.654 286.837C253.239 288.12 255.035 289.132 256.961 289.829C260.027 290.934 263.434 291.239 266.854 290.533C271.795 289.515 276.513 288.363 281.019 287.093C296.031 282.859 308.654 277.334 319.18 271.374C331.257 264.529 340.571 257.108 347.55 250.407C353.56 244.631 357.838 239.386 360.655 235.491C362.957 232.324 365.409 228.915 366.47 225.086C368.599 217.428 365.433 209.08 358.452 204.79C349.581 199.327 337.585 202.566 332.739 211.737C332.685 211.835 331.047 214.706 327.301 218.99C323.035 223.875 316.031 230.615 305.533 237.167C296.387 242.869 284.597 248.428 269.656 252.505C266.386 253.389 262.975 254.211 259.405 254.948C255.417 255.766 252.01 257.818 249.493 260.634Z" fill="url(#paint20_linear_602_3289)"/>
<path d="M389.288 266.577C392.68 270.617 397.799 273.117 403.433 272.996C404.682 272.965 405.926 272.812 407.143 272.528C410.221 271.812 412.974 270.311 415.204 268.257C416.683 266.897 417.923 265.293 418.877 263.517C420.393 260.69 421.173 257.42 420.968 253.984C420.673 249.024 420.212 244.262 419.609 239.693C417.594 224.461 413.984 211.369 409.647 200.261C404.668 187.507 398.735 177.366 393.17 169.604C388.376 162.915 383.856 157.993 380.452 154.683C377.681 151.987 374.697 149.103 371.109 147.519C363.922 144.347 355.319 146.222 350.135 152.403C343.542 160.254 345.007 172.404 353.286 178.452C353.372 178.515 355.944 180.528 359.602 184.787C363.778 189.649 369.372 197.446 374.286 208.615C378.565 218.344 382.327 230.633 384.196 245.77C384.6 249.079 384.919 252.523 385.132 256.105C385.369 260.107 386.895 263.724 389.288 266.577Z" fill="url(#paint21_radial_602_3289)"/>
<path d="M389.288 266.577C392.68 270.617 397.799 273.117 403.433 272.996C404.682 272.965 405.926 272.812 407.143 272.528C410.221 271.812 412.974 270.311 415.204 268.257C416.683 266.897 417.923 265.293 418.877 263.517C420.393 260.69 421.173 257.42 420.968 253.984C420.673 249.024 420.212 244.262 419.609 239.693C417.594 224.461 413.984 211.369 409.647 200.261C404.668 187.507 398.735 177.366 393.17 169.604C388.376 162.915 383.856 157.993 380.452 154.683C377.681 151.987 374.697 149.103 371.109 147.519C363.922 144.347 355.319 146.222 350.135 152.403C343.542 160.254 345.007 172.404 353.286 178.452C353.372 178.515 355.944 180.528 359.602 184.787C363.778 189.649 369.372 197.446 374.286 208.615C378.565 218.344 382.327 230.633 384.196 245.77C384.6 249.079 384.919 252.523 385.132 256.105C385.369 260.107 386.895 263.724 389.288 266.577Z" fill="url(#paint22_linear_602_3289)"/>
<path d="M99.3669 221.29C94.7539 223.85 91.3229 228.397 90.3669 233.952C90.1589 235.183 90.0719 236.433 90.1189 237.683C90.2339 240.841 91.1829 243.83 92.7729 246.41C93.8259 248.122 95.1639 249.645 96.7249 250.92C99.2109 252.948 102.272 254.337 105.684 254.791C110.609 255.449 115.372 255.905 119.972 256.184C135.308 257.113 148.848 256.067 160.581 253.929C174.05 251.475 185.136 247.586 193.818 243.605C201.298 240.176 206.993 236.677 210.891 233.968C214.066 231.762 217.467 229.383 219.706 226.163C224.192 219.714 223.992 210.91 218.914 204.643C212.466 196.673 200.259 195.793 192.743 202.766C192.664 202.837 190.198 204.979 185.319 207.756C179.749 210.929 171.029 214.931 159.127 217.624C148.76 219.968 135.979 221.317 120.764 220.262C117.438 220.028 113.997 219.684 110.44 219.209C106.466 218.679 102.625 219.486 99.3669 221.29Z" fill="url(#paint23_radial_602_3289)"/>
<path d="M99.3669 221.29C94.7539 223.85 91.3229 228.397 90.3669 233.952C90.1589 235.183 90.0719 236.433 90.1189 237.683C90.2339 240.841 91.1829 243.83 92.7729 246.41C93.8259 248.122 95.1639 249.645 96.7249 250.92C99.2109 252.948 102.272 254.337 105.684 254.791C110.609 255.449 115.372 255.905 119.972 256.184C135.308 257.113 148.848 256.067 160.581 253.929C174.05 251.475 185.136 247.586 193.818 243.605C201.298 240.176 206.993 236.677 210.891 233.968C214.066 231.762 217.467 229.383 219.706 226.163C224.192 219.714 223.992 210.91 218.914 204.643C212.466 196.673 200.259 195.793 192.743 202.766C192.664 202.837 190.198 204.979 185.319 207.756C179.749 210.929 171.029 214.931 159.127 217.624C148.76 219.968 135.979 221.317 120.764 220.262C117.438 220.028 113.997 219.684 110.44 219.209C106.466 218.679 102.625 219.486 99.3669 221.29Z" fill="url(#paint24_linear_602_3289)"/>
<path d="M724.082 177.785C718.903 176.78 713.352 178.058 709.05 181.699C708.099 182.508 707.228 183.41 706.461 184.398C704.519 186.891 703.325 189.79 702.884 192.789C702.591 194.777 702.637 196.804 703.013 198.785C703.614 201.936 705.065 204.967 707.388 207.509C710.737 211.178 714.093 214.589 717.437 217.76C728.588 228.329 739.633 236.231 749.995 242.135C761.89 248.913 772.88 253.06 782.09 255.591C790.03 257.772 796.64 258.753 801.37 259.183C805.22 259.534 809.35 259.897 813.14 258.87C820.72 256.813 826.22 249.941 826.36 241.876C826.54 231.625 817.76 223.105 807.52 223.615C807.41 223.619 804.15 223.674 798.62 222.666C792.32 221.516 783.07 218.977 772.22 213.389C762.769 208.521 752.112 201.339 741.134 190.75C738.737 188.433 736.322 185.958 733.902 183.308C731.2 180.348 727.737 178.497 724.082 177.785Z" fill="url(#paint25_radial_602_3289)"/>
<path d="M724.082 177.785C718.903 176.78 713.352 178.058 709.05 181.699C708.099 182.508 707.228 183.41 706.461 184.398C704.519 186.891 703.325 189.79 702.884 192.789C702.591 194.777 702.637 196.804 703.013 198.785C703.614 201.936 705.065 204.967 707.388 207.509C710.737 211.178 714.093 214.589 717.437 217.76C728.588 228.329 739.633 236.231 749.995 242.135C761.89 248.913 772.88 253.06 782.09 255.591C790.03 257.772 796.64 258.753 801.37 259.183C805.22 259.534 809.35 259.897 813.14 258.87C820.72 256.813 826.22 249.941 826.36 241.876C826.54 231.625 817.76 223.105 807.52 223.615C807.41 223.619 804.15 223.674 798.62 222.666C792.32 221.516 783.07 218.977 772.22 213.389C762.769 208.521 752.112 201.339 741.134 190.75C738.737 188.433 736.322 185.958 733.902 183.308C731.2 180.348 727.737 178.497 724.082 177.785Z" fill="url(#paint26_linear_602_3289)"/>
<path d="M532.572 283.238C537.842 283.704 543.248 281.841 547.163 277.748C548.028 276.839 548.802 275.844 549.466 274.776C551.145 272.076 552.036 269.049 552.164 266C552.249 263.981 551.995 261.955 551.412 260.01C550.485 256.918 548.724 254.037 546.144 251.734C542.421 248.411 538.721 245.346 535.052 242.522C522.831 233.106 510.991 226.35 500.044 221.522C487.471 215.978 476.077 212.977 466.625 211.405C458.482 210.051 451.785 209.76 447.025 209.823C443.146 209.873 438.983 209.947 435.315 211.368C427.962 214.219 423.185 221.675 423.879 229.766C424.762 240.045 434.411 247.658 444.573 246.078C444.679 246.065 447.931 245.664 453.546 246.096C459.958 246.587 469.454 248.163 480.854 252.626C490.783 256.51 502.164 262.588 514.214 272.042C516.849 274.109 519.513 276.336 522.202 278.734C525.206 281.418 528.851 282.907 532.572 283.238Z" fill="url(#paint27_radial_602_3289)"/>
<path d="M532.572 283.238C537.842 283.704 543.248 281.841 547.163 277.748C548.028 276.839 548.802 275.844 549.466 274.776C551.145 272.076 552.036 269.049 552.164 266C552.249 263.981 551.995 261.955 551.412 260.01C550.485 256.918 548.724 254.037 546.144 251.734C542.421 248.411 538.721 245.346 535.052 242.522C522.831 233.106 510.991 226.35 500.044 221.522C487.471 215.978 476.077 212.977 466.625 211.405C458.482 210.051 451.785 209.76 447.025 209.823C443.146 209.873 438.983 209.947 435.315 211.368C427.962 214.219 423.185 221.675 423.879 229.766C424.762 240.045 434.411 247.658 444.573 246.078C444.679 246.065 447.931 245.664 453.546 246.096C459.958 246.587 469.454 248.163 480.854 252.626C490.783 256.51 502.164 262.588 514.214 272.042C516.849 274.109 519.513 276.336 522.202 278.734C525.206 281.418 528.851 282.907 532.572 283.238Z" fill="url(#paint28_linear_602_3289)"/>
<path d="M52.467 241.538C52.973 242.043 53.586 242.441 54.27 242.693C54.809 242.892 55.392 243 56 243C57.38 243 58.629 242.442 59.533 241.538C60.44 240.633 61 239.382 61 238C61 237.437 60.907 236.895 60.736 236.39C60.486 235.657 60.072 235 59.536 234.464C58.631 233.56 57.381 233 56 233C55.392 233 54.81 233.109 54.271 233.307C53.587 233.559 52.973 233.956 52.467 234.462C51.931 234.997 51.516 235.654 51.266 236.388C51.094 236.893 51 237.436 51 238C51 239.382 51.561 240.633 52.467 241.538Z" fill="url(#paint29_radial_602_3289)"/>
<path d="M102.467 201.538C102.973 202.043 103.586 202.441 104.27 202.693C104.809 202.892 105.392 203 106 203C107.38 203 108.629 202.442 109.533 201.538C110.44 200.633 111 199.382 111 198C111 197.437 110.907 196.895 110.736 196.39C110.486 195.657 110.072 195 109.536 194.464C108.631 193.56 107.381 193 106 193C105.392 193 104.81 193.109 104.271 193.307C103.587 193.559 102.973 193.956 102.467 194.462C101.931 194.997 101.516 195.654 101.266 196.388C101.094 196.893 101 197.436 101 198C101 199.382 101.561 200.633 102.467 201.538Z" fill="url(#paint30_radial_602_3289)"/>
<path d="M177.467 199.538C177.973 200.043 178.586 200.441 179.27 200.693C179.809 200.892 180.392 201 181 201C182.38 201 183.629 200.442 184.533 199.538C185.44 198.633 186 197.382 186 196C186 195.437 185.907 194.895 185.736 194.39C185.486 193.657 185.072 193 184.536 192.464C183.631 191.56 182.381 191 181 191C180.392 191 179.81 191.109 179.271 191.307C178.587 191.559 177.973 191.956 177.467 192.462C176.931 192.997 176.516 193.654 176.266 194.388C176.094 194.893 176 195.436 176 196C176 197.382 176.561 198.633 177.467 199.538Z" fill="url(#paint31_radial_602_3289)"/>
<path d="M189.467 179.538C189.973 180.043 190.586 180.441 191.27 180.693C191.809 180.892 192.392 181 193 181C194.38 181 195.629 180.442 196.533 179.538C197.44 178.633 198 177.382 198 176C198 175.437 197.907 174.895 197.736 174.39C197.486 173.657 197.072 173 196.536 172.464C195.631 171.56 194.381 171 193 171C192.392 171 191.81 171.109 191.271 171.307C190.587 171.559 189.973 171.956 189.467 172.462C188.931 172.997 188.516 173.654 188.266 174.388C188.094 174.893 188 175.436 188 176C188 177.382 188.561 178.633 189.467 179.538Z" fill="url(#paint32_radial_602_3289)"/>
<path d="M219.467 189.538C219.973 190.043 220.586 190.441 221.27 190.693C221.809 190.892 222.392 191 223 191C224.38 191 225.629 190.442 226.533 189.538C227.44 188.633 228 187.382 228 186C228 185.437 227.907 184.895 227.736 184.39C227.486 183.657 227.072 183 226.536 182.464C225.631 181.56 224.381 181 223 181C222.392 181 221.81 181.109 221.271 181.307C220.587 181.559 219.973 181.956 219.467 182.462C218.931 182.997 218.516 183.654 218.266 184.388C218.094 184.893 218 185.436 218 186C218 187.382 218.561 188.633 219.467 189.538Z" fill="url(#paint33_radial_602_3289)"/>
<path d="M239.467 199.538C239.973 200.043 240.586 200.441 241.27 200.693C241.809 200.892 242.392 201 243 201C244.38 201 245.629 200.442 246.533 199.538C247.44 198.633 248 197.382 248 196C248 195.437 247.907 194.895 247.736 194.39C247.486 193.657 247.072 193 246.536 192.464C245.631 191.56 244.381 191 243 191C242.392 191 241.81 191.109 241.271 191.307C240.587 191.559 239.973 191.956 239.467 192.462C238.931 192.997 238.516 193.654 238.266 194.388C238.094 194.893 238 195.436 238 196C238 197.382 238.561 198.633 239.467 199.538Z" fill="url(#paint34_radial_602_3289)"/>
<path d="M259.467 189.538C259.973 190.043 260.586 190.441 261.27 190.693C261.809 190.892 262.392 191 263 191C264.38 191 265.629 190.442 266.533 189.538C267.44 188.633 268 187.382 268 186C268 185.437 267.907 184.895 267.736 184.39C267.486 183.657 267.072 183 266.536 182.464C265.631 181.56 264.381 181 263 181C262.392 181 261.81 181.109 261.271 181.307C260.587 181.559 259.973 181.956 259.467 182.462C258.931 182.997 258.516 183.654 258.266 184.388C258.094 184.893 258 185.436 258 186C258 187.382 258.561 188.633 259.467 189.538Z" fill="url(#paint35_radial_602_3289)"/>
<path d="M249.467 169.538C249.973 170.043 250.586 170.441 251.27 170.693C251.809 170.892 252.392 171 253 171C254.38 171 255.629 170.442 256.533 169.538C257.44 168.633 258 167.382 258 166C258 165.437 257.907 164.895 257.736 164.39C257.486 163.657 257.072 163 256.536 162.464C255.631 161.56 254.381 161 253 161C252.392 161 251.81 161.109 251.271 161.307C250.587 161.559 249.973 161.956 249.467 162.462C248.931 162.997 248.516 163.654 248.266 164.388C248.094 164.893 248 165.436 248 166C248 167.382 248.561 168.633 249.467 169.538Z" fill="url(#paint36_radial_602_3289)"/>
<path d="M300.467 129.538C300.973 130.043 301.586 130.441 302.27 130.693C302.809 130.892 303.392 131 304 131C305.38 131 306.629 130.442 307.533 129.538C308.44 128.633 309 127.382 309 126C309 125.437 308.907 124.895 308.736 124.39C308.486 123.657 308.072 123 307.536 122.464C306.631 121.56 305.381 121 304 121C303.392 121 302.81 121.109 302.271 121.307C301.587 121.559 300.973 121.956 300.467 122.462C299.931 122.997 299.516 123.654 299.266 124.388C299.094 124.893 299 125.436 299 126C299 127.382 299.561 128.633 300.467 129.538Z" fill="url(#paint37_radial_602_3289)"/>
<path d="M316.467 123.538C316.973 124.043 317.586 124.441 318.27 124.693C318.809 124.892 319.392 125 320 125C321.38 125 322.629 124.442 323.533 123.538C324.44 122.633 325 121.382 325 120C325 119.437 324.907 118.895 324.736 118.39C324.486 117.657 324.072 117 323.536 116.464C322.631 115.56 321.381 115 320 115C319.392 115 318.81 115.109 318.271 115.307C317.587 115.559 316.973 115.956 316.467 116.462C315.931 116.997 315.516 117.654 315.266 118.388C315.094 118.893 315 119.436 315 120C315 121.382 315.561 122.633 316.467 123.538Z" fill="url(#paint38_radial_602_3289)"/>
<path d="M328.467 159.538C328.973 160.043 329.586 160.441 330.27 160.693C330.809 160.892 331.392 161 332 161C333.38 161 334.629 160.442 335.533 159.538C336.44 158.633 337 157.382 337 156C337 155.437 336.907 154.895 336.736 154.39C336.486 153.657 336.072 153 335.536 152.464C334.631 151.56 333.381 151 332 151C331.392 151 330.81 151.109 330.271 151.307C329.587 151.559 328.973 151.956 328.467 152.462C327.931 152.997 327.516 153.654 327.266 154.388C327.094 154.893 327 155.436 327 156C327 157.382 327.561 158.633 328.467 159.538Z" fill="url(#paint39_radial_602_3289)"/>
<path d="M368.467 249.538C368.973 250.043 369.586 250.441 370.27 250.693C370.809 250.892 371.392 251 372 251C373.38 251 374.629 250.442 375.533 249.538C376.44 248.633 377 247.382 377 246C377 245.437 376.907 244.895 376.736 244.39C376.486 243.657 376.072 243 375.536 242.464C374.631 241.56 373.381 241 372 241C371.392 241 370.81 241.109 370.271 241.307C369.587 241.559 368.973 241.956 368.467 242.462C367.931 242.997 367.516 243.654 367.266 244.388C367.094 244.893 367 245.436 367 246C367 247.382 367.561 248.633 368.467 249.538Z" fill="url(#paint40_radial_602_3289)"/>
<path d="M418.467 209.538C418.973 210.043 419.586 210.441 420.27 210.693C420.809 210.892 421.392 211 422 211C423.38 211 424.629 210.442 425.533 209.538C426.44 208.633 427 207.382 427 206C427 205.437 426.907 204.895 426.736 204.39C426.486 203.657 426.072 203 425.536 202.464C424.631 201.56 423.381 201 422 201C421.392 201 420.81 201.109 420.271 201.307C419.587 201.559 418.973 201.956 418.467 202.462C417.931 202.997 417.516 203.654 417.266 204.388C417.094 204.893 417 205.436 417 206C417 207.382 417.561 208.633 418.467 209.538Z" fill="url(#paint41_radial_602_3289)"/>
<path d="M498.467 209.538C498.973 210.043 499.586 210.441 500.27 210.693C500.809 210.892 501.392 211 502 211C503.38 211 504.629 210.442 505.533 209.538C506.44 208.633 507 207.382 507 206C507 205.437 506.907 204.895 506.736 204.39C506.486 203.657 506.072 203 505.536 202.464C504.631 201.56 503.381 201 502 201C501.392 201 500.81 201.109 500.271 201.307C499.587 201.559 498.973 201.956 498.467 202.462C497.931 202.997 497.516 203.654 497.266 204.388C497.094 204.893 497 205.436 497 206C497 207.382 497.561 208.633 498.467 209.538Z" fill="url(#paint42_radial_602_3289)"/>
<path d="M518.467 189.538C518.973 190.043 519.586 190.441 520.27 190.693C520.809 190.892 521.392 191 522 191C523.38 191 524.629 190.442 525.533 189.538C526.44 188.633 527 187.382 527 186C527 185.437 526.907 184.895 526.736 184.39C526.486 183.657 526.072 183 525.536 182.464C524.631 181.56 523.381 181 522 181C521.392 181 520.81 181.109 520.271 181.307C519.587 181.559 518.973 181.956 518.467 182.462C517.931 182.997 517.516 183.654 517.266 184.388C517.094 184.893 517 185.436 517 186C517 187.382 517.561 188.633 518.467 189.538Z" fill="url(#paint43_radial_602_3289)"/>
<path d="M558.467 169.538C558.973 170.043 559.586 170.441 560.27 170.693C560.809 170.892 561.392 171 562 171C563.38 171 564.629 170.442 565.533 169.538C566.44 168.633 567 167.382 567 166C567 165.437 566.907 164.895 566.736 164.39C566.486 163.657 566.072 163 565.536 162.464C564.631 161.56 563.381 161 562 161C561.392 161 560.81 161.109 560.271 161.307C559.587 161.559 558.973 161.956 558.467 162.462C557.931 162.997 557.516 163.654 557.266 164.388C557.094 164.893 557 165.436 557 166C557 167.382 557.561 168.633 558.467 169.538Z" fill="url(#paint44_radial_602_3289)"/>
<path d="M688.467 189.538C688.973 190.043 689.586 190.441 690.27 190.693C690.809 190.892 691.392 191 692 191C693.38 191 694.629 190.442 695.533 189.538C696.44 188.633 697 187.382 697 186C697 185.437 696.907 184.895 696.736 184.39C696.486 183.657 696.072 183 695.536 182.464C694.631 181.56 693.381 181 692 181C691.392 181 690.81 181.109 690.271 181.307C689.587 181.559 688.973 181.956 688.467 182.462C687.931 182.997 687.516 183.654 687.266 184.388C687.094 184.893 687 185.436 687 186C687 187.382 687.561 188.633 688.467 189.538Z" fill="url(#paint45_radial_602_3289)"/>
<path d="M708.467 169.538C708.973 170.043 709.586 170.441 710.27 170.693C710.809 170.892 711.392 171 712 171C713.38 171 714.629 170.442 715.533 169.538C716.44 168.633 717 167.382 717 166C717 165.437 716.907 164.895 716.736 164.39C716.486 163.657 716.072 163 715.536 162.464C714.631 161.56 713.381 161 712 161C711.392 161 710.81 161.109 710.271 161.307C709.587 161.559 708.973 161.956 708.467 162.462C707.931 162.997 707.516 163.654 707.266 164.388C707.094 164.893 707 165.436 707 166C707 167.382 707.561 168.633 708.467 169.538Z" fill="url(#paint46_radial_602_3289)"/>
<path d="M738.467 149.538C738.973 150.043 739.586 150.441 740.27 150.693C740.809 150.892 741.392 151 742 151C743.38 151 744.629 150.442 745.533 149.538C746.44 148.633 747 147.382 747 146C747 145.437 746.907 144.895 746.736 144.39C746.486 143.657 746.072 143 745.536 142.464C744.631 141.56 743.381 141 742 141C741.392 141 740.81 141.109 740.271 141.307C739.587 141.559 738.973 141.956 738.467 142.462C737.931 142.997 737.516 143.654 737.266 144.388C737.094 144.893 737 145.436 737 146C737 147.382 737.561 148.633 738.467 149.538Z" fill="url(#paint47_radial_602_3289)"/>
<path d="M798.47 169.538C798.97 170.043 799.59 170.441 800.27 170.693C800.81 170.892 801.39 171 802 171C803.38 171 804.63 170.442 805.53 169.538C806.44 168.633 807 167.382 807 166C807 165.437 806.91 164.895 806.74 164.39C806.49 163.657 806.07 163 805.54 162.464C804.63 161.56 803.38 161 802 161C801.39 161 800.81 161.109 800.27 161.307C799.59 161.559 798.97 161.956 798.47 162.462C797.93 162.997 797.52 163.654 797.27 164.388C797.09 164.893 797 165.436 797 166C797 167.382 797.56 168.633 798.47 169.538Z" fill="url(#paint48_radial_602_3289)"/>
<path d="M848.47 219.538C848.97 220.043 849.59 220.441 850.27 220.693C850.81 220.892 851.39 221 852 221C853.38 221 854.63 220.442 855.53 219.538C856.44 218.633 857 217.382 857 216C857 215.437 856.91 214.895 856.74 214.39C856.49 213.657 856.07 213 855.54 212.464C854.63 211.56 853.38 211 852 211C851.39 211 850.81 211.109 850.27 211.307C849.59 211.559 848.97 211.956 848.47 212.462C847.93 212.997 847.52 213.654 847.27 214.388C847.09 214.893 847 215.436 847 216C847 217.382 847.56 218.633 848.47 219.538Z" fill="url(#paint49_radial_602_3289)"/>
<path d="M668.467 209.538C668.973 210.043 669.586 210.441 670.27 210.693C670.809 210.892 671.392 211 672 211C673.38 211 674.629 210.442 675.533 209.538C676.44 208.633 677 207.382 677 206C677 205.437 676.907 204.895 676.736 204.39C676.486 203.657 676.072 203 675.536 202.464C674.631 201.56 673.381 201 672 201C671.392 201 670.81 201.109 670.271 201.307C669.587 201.559 668.973 201.956 668.467 202.462C667.931 202.997 667.516 203.654 667.266 204.388C667.094 204.893 667 205.436 667 206C667 207.382 667.561 208.633 668.467 209.538Z" fill="url(#paint50_radial_602_3289)"/>
<path d="M688.467 219.538C688.973 220.043 689.586 220.441 690.27 220.693C690.809 220.892 691.392 221 692 221C693.38 221 694.629 220.442 695.533 219.538C696.44 218.633 697 217.382 697 216C697 215.437 696.907 214.895 696.736 214.39C696.486 213.657 696.072 213 695.536 212.464C694.631 211.56 693.381 211 692 211C691.392 211 690.81 211.109 690.271 211.307C689.587 211.559 688.973 211.956 688.467 212.462C687.931 212.997 687.516 213.654 687.266 214.388C687.094 214.893 687 215.436 687 216C687 217.382 687.561 218.633 688.467 219.538Z" fill="url(#paint51_radial_602_3289)"/>
<path d="M351.467 257.538C351.973 258.043 352.586 258.441 353.27 258.693C353.809 258.892 354.392 259 355 259C356.38 259 357.629 258.442 358.533 257.538C359.44 256.633 360 255.382 360 254C360 253.437 359.907 252.895 359.736 252.39C359.486 251.657 359.072 251 358.536 250.464C357.631 249.56 356.381 249 355 249C354.392 249 353.81 249.109 353.271 249.307C352.587 249.559 351.973 249.956 351.467 250.462C350.931 250.997 350.516 251.654 350.266 252.388C350.094 252.893 350 253.436 350 254C350 255.382 350.561 256.633 351.467 257.538Z" fill="url(#paint52_radial_602_3289)"/>
<path opacity="0.2" fill-rule="evenodd" clip-rule="evenodd" d="M338 15.5C325.021 15.5 314.5 26.0213 314.5 39V130C314.5 130.276 314.276 130.5 314 130.5C313.724 130.5 313.5 130.276 313.5 130V39C313.5 25.469 324.469 14.5 338 14.5H351C351.276 14.5 351.5 14.7239 351.5 15C351.5 15.2761 351.276 15.5 351 15.5H338Z" fill="black"/>
<path d="M369.438 22V8.90909H371.413V14.598H377.94V8.90909H379.921V22H377.94V16.2919H371.413V22H369.438ZM386.78 22.1982C385.859 22.1982 385.056 21.9872 384.37 21.5653C383.684 21.1435 383.151 20.5533 382.772 19.7947C382.393 19.0362 382.203 18.1499 382.203 17.1357C382.203 16.1172 382.393 15.2266 382.772 14.4638C383.151 13.701 383.684 13.1087 384.37 12.6868C385.056 12.2649 385.859 12.054 386.78 12.054C387.7 12.054 388.504 12.2649 389.19 12.6868C389.876 13.1087 390.408 13.701 390.788 14.4638C391.167 15.2266 391.357 16.1172 391.357 17.1357C391.357 18.1499 391.167 19.0362 390.788 19.7947C390.408 20.5533 389.876 21.1435 389.19 21.5653C388.504 21.9872 387.7 22.1982 386.78 22.1982ZM386.786 20.5938C387.383 20.5938 387.877 20.4361 388.269 20.1207C388.661 19.8054 388.951 19.3857 389.138 18.8615C389.33 18.3374 389.426 17.7599 389.426 17.1293C389.426 16.5028 389.33 15.9276 389.138 15.4034C388.951 14.875 388.661 14.451 388.269 14.1314C387.877 13.8118 387.383 13.652 386.786 13.652C386.185 13.652 385.687 13.8118 385.29 14.1314C384.898 14.451 384.607 14.875 384.415 15.4034C384.227 15.9276 384.134 16.5028 384.134 17.1293C384.134 17.7599 384.227 18.3374 384.415 18.8615C384.607 19.3857 384.898 19.8054 385.29 20.1207C385.687 20.4361 386.185 20.5938 386.786 20.5938ZM393.49 25.6818V12.1818H395.356V13.7734H395.516C395.627 13.5689 395.787 13.3324 395.996 13.0639C396.204 12.7955 396.494 12.5611 396.865 12.3608C397.236 12.1562 397.726 12.054 398.335 12.054C399.128 12.054 399.835 12.2543 400.457 12.6548C401.079 13.0554 401.567 13.6328 401.921 14.3871C402.279 15.1413 402.458 16.049 402.458 17.1101C402.458 18.1712 402.281 19.081 401.927 19.8395C401.574 20.5937 401.088 21.1754 400.47 21.5845C399.852 21.9893 399.147 22.1918 398.354 22.1918C397.758 22.1918 397.27 22.0916 396.89 21.8913C396.515 21.6911 396.221 21.4567 396.008 21.1882C395.795 20.9197 395.631 20.6811 395.516 20.4723H395.401V25.6818H393.49ZM395.363 17.0909C395.363 17.7812 395.463 18.3864 395.663 18.9062C395.863 19.4261 396.153 19.8331 396.532 20.1271C396.912 20.4169 397.376 20.5618 397.926 20.5618C398.497 20.5618 398.974 20.4105 399.358 20.108C399.741 19.8011 400.031 19.3857 400.227 18.8615C400.427 18.3374 400.528 17.7472 400.528 17.0909C400.528 16.4432 400.43 15.8615 400.233 15.3459C400.042 14.8303 399.752 14.4233 399.364 14.125C398.981 13.8267 398.501 13.6776 397.926 13.6776C397.372 13.6776 396.903 13.8203 396.52 14.1058C396.14 14.3913 395.853 14.7898 395.657 15.3011C395.461 15.8125 395.363 16.4091 395.363 17.0909ZM410.109 19.6349L413.28 12.1818H414.929L410.819 22H409.4L405.373 12.1818H407.003L410.109 19.6349ZM406.472 12.1818V22H404.599V12.1818H406.472ZM413.797 22V12.1818H415.657V22H413.797ZM421.062 22.2173C420.44 22.2173 419.877 22.1023 419.374 21.8722C418.872 21.6378 418.473 21.299 418.179 20.8558C417.889 20.4126 417.744 19.8693 417.744 19.2259C417.744 18.6719 417.851 18.2159 418.064 17.858C418.277 17.5 418.565 17.2166 418.927 17.0078C419.289 16.799 419.694 16.6413 420.142 16.5348C420.589 16.4283 421.045 16.3473 421.509 16.2919C422.097 16.2237 422.575 16.1683 422.941 16.1257C423.308 16.0788 423.574 16.0043 423.74 15.902C423.906 15.7997 423.99 15.6335 423.99 15.4034V15.3587C423.99 14.8004 423.832 14.3679 423.517 14.0611C423.205 13.7543 422.741 13.6009 422.123 13.6009C421.48 13.6009 420.972 13.7436 420.602 14.0291C420.235 14.3104 419.982 14.6236 419.841 14.9688L418.045 14.5597C418.258 13.9631 418.569 13.4815 418.978 13.1151C419.392 12.7443 419.867 12.4759 420.404 12.3097C420.941 12.1392 421.505 12.054 422.097 12.054C422.49 12.054 422.905 12.1009 423.344 12.1946C423.787 12.2841 424.2 12.4503 424.584 12.6932C424.972 12.9361 425.289 13.2834 425.536 13.7351C425.784 14.1825 425.907 14.7642 425.907 15.4801V22H424.041V20.6577H423.964C423.84 20.9048 423.655 21.1477 423.408 21.3864C423.161 21.625 422.843 21.8232 422.455 21.9808C422.068 22.1385 421.603 22.2173 421.062 22.2173ZM421.477 20.6832C422.006 20.6832 422.458 20.5788 422.833 20.37C423.212 20.1612 423.499 19.8885 423.695 19.5518C423.896 19.2109 423.996 18.8466 423.996 18.4588V17.1932C423.928 17.2614 423.796 17.3253 423.6 17.3849C423.408 17.4403 423.188 17.4893 422.941 17.532C422.694 17.5703 422.453 17.6065 422.219 17.6406C421.985 17.6705 421.789 17.696 421.631 17.7173C421.26 17.7642 420.921 17.843 420.615 17.9538C420.312 18.0646 420.069 18.2244 419.886 18.4332C419.707 18.6378 419.617 18.9105 419.617 19.2514C419.617 19.7244 419.792 20.0824 420.142 20.3253C420.491 20.5639 420.936 20.6832 421.477 20.6832ZM427.679 22L427.673 20.3445H428.025C428.297 20.3445 428.525 20.2869 428.708 20.1719C428.896 20.0526 429.049 19.8523 429.169 19.571C429.288 19.2898 429.38 18.902 429.444 18.4077C429.507 17.9091 429.554 17.2827 429.584 16.5284L429.757 12.1818H436.609V22H434.736V13.831H431.527L431.374 17.1676C431.336 17.9773 431.252 18.6847 431.125 19.2898C431.001 19.8949 430.82 20.3999 430.581 20.8047C430.343 21.2053 430.036 21.5057 429.661 21.706C429.286 21.902 428.83 22 428.293 22H427.679ZM441.031 19.3217L445.358 12.1818H447.416V22H445.544V14.8537L441.235 22H439.158V12.1818H441.031V19.3217ZM449.404 19.4048H451.36C451.386 19.8054 451.567 20.1143 451.904 20.3317C452.244 20.549 452.686 20.6577 453.227 20.6577C453.776 20.6577 454.245 20.5405 454.633 20.3061C455.021 20.0675 455.215 19.6989 455.215 19.2003C455.215 18.902 455.14 18.642 454.991 18.4205C454.846 18.1946 454.639 18.0199 454.371 17.8963C454.107 17.7727 453.794 17.7109 453.431 17.7109H451.833V16.2088H453.431C453.972 16.2088 454.377 16.0852 454.646 15.8381C454.914 15.5909 455.048 15.282 455.048 14.9112C455.048 14.5107 454.904 14.1889 454.614 13.946C454.328 13.6989 453.93 13.5753 453.419 13.5753C452.899 13.5753 452.466 13.6925 452.121 13.9268C451.776 14.157 451.595 14.4553 451.578 14.8217H449.647C449.66 14.272 449.826 13.7905 450.146 13.3771C450.47 12.9595 450.904 12.6357 451.45 12.4055C451.999 12.1712 452.624 12.054 453.323 12.054C454.051 12.054 454.682 12.1712 455.215 12.4055C455.747 12.6399 456.159 12.9638 456.448 13.3771C456.742 13.7905 456.889 14.2656 456.889 14.8026C456.889 15.3437 456.727 15.7869 456.404 16.1321C456.084 16.473 455.666 16.718 455.151 16.8672V16.9695C455.53 16.995 455.867 17.1101 456.161 17.3146C456.455 17.5192 456.685 17.7898 456.851 18.1264C457.017 18.4631 457.1 18.8445 457.1 19.2706C457.1 19.8714 456.934 20.3913 456.602 20.8303C456.274 21.2692 455.818 21.608 455.234 21.8466C454.654 22.081 453.992 22.1982 453.246 22.1982C452.521 22.1982 451.872 22.0852 451.296 21.8594C450.725 21.6293 450.271 21.3054 449.935 20.8878C449.602 20.4702 449.426 19.9759 449.404 19.4048ZM461.931 22.2173C461.309 22.2173 460.746 22.1023 460.244 21.8722C459.741 21.6378 459.342 21.299 459.048 20.8558C458.759 20.4126 458.614 19.8693 458.614 19.2259C458.614 18.6719 458.72 18.2159 458.933 17.858C459.146 17.5 459.434 17.2166 459.796 17.0078C460.158 16.799 460.563 16.6413 461.011 16.5348C461.458 16.4283 461.914 16.3473 462.379 16.2919C462.967 16.2237 463.444 16.1683 463.81 16.1257C464.177 16.0788 464.443 16.0043 464.609 15.902C464.776 15.7997 464.859 15.6335 464.859 15.4034V15.3587C464.859 14.8004 464.701 14.3679 464.386 14.0611C464.075 13.7543 463.61 13.6009 462.992 13.6009C462.349 13.6009 461.842 13.7436 461.471 14.0291C461.104 14.3104 460.851 14.6236 460.71 14.9688L458.914 14.5597C459.127 13.9631 459.438 13.4815 459.847 13.1151C460.261 12.7443 460.736 12.4759 461.273 12.3097C461.81 12.1392 462.374 12.054 462.967 12.054C463.359 12.054 463.774 12.1009 464.213 12.1946C464.656 12.2841 465.07 12.4503 465.453 12.6932C465.841 12.9361 466.158 13.2834 466.406 13.7351C466.653 14.1825 466.776 14.7642 466.776 15.4801V22H464.91V20.6577H464.833C464.71 20.9048 464.524 21.1477 464.277 21.3864C464.03 21.625 463.712 21.8232 463.325 21.9808C462.937 22.1385 462.472 22.2173 461.931 22.2173ZM462.347 20.6832C462.875 20.6832 463.327 20.5788 463.702 20.37C464.081 20.1612 464.369 19.8885 464.565 19.5518C464.765 19.2109 464.865 18.8466 464.865 18.4588V17.1932C464.797 17.2614 464.665 17.3253 464.469 17.3849C464.277 17.4403 464.058 17.4893 463.81 17.532C463.563 17.5703 463.322 17.6065 463.088 17.6406C462.854 17.6705 462.658 17.696 462.5 17.7173C462.129 17.7642 461.79 17.843 461.484 17.9538C461.181 18.0646 460.938 18.2244 460.755 18.4332C460.576 18.6378 460.487 18.9105 460.487 19.2514C460.487 19.7244 460.661 20.0824 461.011 20.3253C461.36 20.5639 461.805 20.6832 462.347 20.6832ZM477.331 12.1818V20.4339H478.769V25.1641H476.884V22H469.322V12.1818H471.195V20.3509H475.465V12.1818H477.331ZM482.761 19.3217L487.089 12.1818H489.147V22H487.274V14.8537L482.966 22H480.888V12.1818H482.761V19.3217ZM497.572 22V13.8118H495.219C494.661 13.8118 494.226 13.9418 493.915 14.2017C493.604 14.4616 493.449 14.8026 493.449 15.2244C493.449 15.642 493.591 15.9787 493.877 16.2344C494.167 16.4858 494.572 16.6115 495.091 16.6115H498.128V18.1584H495.091C494.367 18.1584 493.741 18.0391 493.212 17.8004C492.688 17.5575 492.283 17.2145 491.998 16.7713C491.716 16.3281 491.576 15.804 491.576 15.1989C491.576 14.581 491.721 14.0483 492.01 13.6009C492.305 13.1491 492.724 12.7997 493.27 12.5526C493.819 12.3054 494.469 12.1818 495.219 12.1818H499.368V22H497.572ZM491.128 22L493.896 17.0398H495.852L493.084 22H491.128ZM510.907 22.1982C509.94 22.1982 509.107 21.9915 508.408 21.5781C507.713 21.1605 507.176 20.5746 506.797 19.8203C506.422 19.0618 506.234 18.1733 506.234 17.1548C506.234 16.1491 506.422 15.2628 506.797 14.4957C507.176 13.7287 507.705 13.13 508.382 12.6996C509.064 12.2692 509.861 12.054 510.773 12.054C511.327 12.054 511.864 12.1456 512.384 12.3288C512.903 12.5121 513.37 12.7997 513.783 13.1918C514.197 13.5838 514.523 14.093 514.761 14.7195C515 15.3416 515.119 16.098 515.119 16.9886V17.6662H507.315V16.2344H513.246C513.246 15.7315 513.144 15.2862 512.94 14.8984C512.735 14.5064 512.447 14.1974 512.077 13.9716C511.71 13.7457 511.28 13.6328 510.786 13.6328C510.249 13.6328 509.78 13.7649 509.379 14.0291C508.983 14.2891 508.676 14.63 508.459 15.0518C508.246 15.4695 508.139 15.9233 508.139 16.4134V17.532C508.139 18.1882 508.254 18.7464 508.484 19.2067C508.719 19.6669 509.045 20.0185 509.462 20.2614C509.88 20.5 510.368 20.6193 510.926 20.6193C511.288 20.6193 511.619 20.5682 511.917 20.4659C512.215 20.3594 512.473 20.2017 512.69 19.9929C512.908 19.7841 513.074 19.5263 513.189 19.2195L514.998 19.5455C514.853 20.0781 514.593 20.5447 514.218 20.9453C513.847 21.3416 513.381 21.6506 512.818 21.8722C512.26 22.0895 511.623 22.1982 510.907 22.1982ZM521.376 22.1982C520.425 22.1982 519.607 21.983 518.921 21.5526C518.239 21.1179 517.715 20.5192 517.349 19.7564C516.982 18.9936 516.799 18.12 516.799 17.1357C516.799 16.1385 516.986 15.2585 517.361 14.4957C517.736 13.7287 518.265 13.13 518.947 12.6996C519.628 12.2692 520.432 12.054 521.356 12.054C522.102 12.054 522.767 12.1925 523.351 12.4695C523.934 12.7422 524.405 13.1257 524.763 13.62C525.126 14.1143 525.341 14.6918 525.409 15.3523H523.549C523.447 14.892 523.212 14.4957 522.846 14.1634C522.483 13.831 521.998 13.6648 521.388 13.6648C520.856 13.6648 520.389 13.8054 519.988 14.0866C519.592 14.3636 519.283 14.7599 519.062 15.2756C518.84 15.7869 518.729 16.392 518.729 17.0909C518.729 17.8068 518.838 18.4247 519.055 18.9446C519.273 19.4645 519.579 19.8672 519.976 20.1527C520.376 20.4382 520.847 20.581 521.388 20.581C521.751 20.581 522.079 20.5149 522.373 20.3828C522.671 20.2464 522.92 20.0526 523.121 19.8011C523.325 19.5497 523.468 19.2472 523.549 18.8935H525.409C525.341 19.5284 525.134 20.0952 524.789 20.5938C524.444 21.0923 523.981 21.4844 523.402 21.7699C522.827 22.0554 522.151 22.1982 521.376 22.1982ZM526.71 13.831V12.1818H534.994V13.831H531.791V22H529.925V13.831H526.71ZM540.79 22.1982C539.822 22.1982 538.989 21.9915 538.29 21.5781C537.596 21.1605 537.059 20.5746 536.68 19.8203C536.305 19.0618 536.117 18.1733 536.117 17.1548C536.117 16.1491 536.305 15.2628 536.68 14.4957C537.059 13.7287 537.587 13.13 538.265 12.6996C538.947 12.2692 539.744 12.054 540.656 12.054C541.21 12.054 541.746 12.1456 542.266 12.3288C542.786 12.5121 543.253 12.7997 543.666 13.1918C544.08 13.5838 544.406 14.093 544.644 14.7195C544.883 15.3416 545.002 16.098 545.002 16.9886V17.6662H537.197V16.2344H543.129C543.129 15.7315 543.027 15.2862 542.822 14.8984C542.618 14.5064 542.33 14.1974 541.96 13.9716C541.593 13.7457 541.163 13.6328 540.668 13.6328C540.131 13.6328 539.663 13.7649 539.262 14.0291C538.866 14.2891 538.559 14.63 538.342 15.0518C538.129 15.4695 538.022 15.9233 538.022 16.4134V17.532C538.022 18.1882 538.137 18.7464 538.367 19.2067C538.602 19.6669 538.928 20.0185 539.345 20.2614C539.763 20.5 540.251 20.6193 540.809 20.6193C541.171 20.6193 541.501 20.5682 541.8 20.4659C542.098 20.3594 542.356 20.2017 542.573 19.9929C542.79 19.7841 542.957 19.5263 543.072 19.2195L544.881 19.5455C544.736 20.0781 544.476 20.5447 544.101 20.9453C543.73 21.3416 543.263 21.6506 542.701 21.8722C542.143 22.0895 541.506 22.1982 540.79 22.1982ZM551.258 22.1982C550.308 22.1982 549.49 21.983 548.804 21.5526C548.122 21.1179 547.598 20.5192 547.231 19.7564C546.865 18.9936 546.682 18.12 546.682 17.1357C546.682 16.1385 546.869 15.2585 547.244 14.4957C547.619 13.7287 548.148 13.13 548.829 12.6996C549.511 12.2692 550.314 12.054 551.239 12.054C551.985 12.054 552.65 12.1925 553.233 12.4695C553.817 12.7422 554.288 13.1257 554.646 13.62C555.008 14.1143 555.224 14.6918 555.292 15.3523H553.432C553.329 14.892 553.095 14.4957 552.729 14.1634C552.366 13.831 551.881 13.6648 551.271 13.6648C550.738 13.6648 550.272 13.8054 549.871 14.0866C549.475 14.3636 549.166 14.7599 548.944 15.2756C548.723 15.7869 548.612 16.392 548.612 17.0909C548.612 17.8068 548.721 18.4247 548.938 18.9446C549.155 19.4645 549.462 19.8672 549.858 20.1527C550.259 20.4382 550.73 20.581 551.271 20.581C551.633 20.581 551.961 20.5149 552.256 20.3828C552.554 20.2464 552.803 20.0526 553.003 19.8011C553.208 19.5497 553.351 19.2472 553.432 18.8935H555.292C555.224 19.5284 555.017 20.0952 554.672 20.5938C554.327 21.0923 553.864 21.4844 553.285 21.7699C552.709 22.0554 552.034 22.1982 551.258 22.1982ZM556.593 13.831V12.1818H564.877V13.831H561.674V22H559.808V13.831H556.593ZM566.898 22V12.1818H570.97C572.078 12.1818 572.956 12.4183 573.603 12.8913C574.251 13.3601 574.575 13.9972 574.575 14.8026C574.575 15.3778 574.392 15.8338 574.025 16.1705C573.659 16.5071 573.173 16.733 572.568 16.848C573.007 16.8991 573.409 17.0312 573.776 17.2443C574.142 17.4531 574.436 17.7344 574.658 18.0881C574.884 18.4418 574.997 18.8636 574.997 19.3537C574.997 19.8736 574.863 20.3338 574.594 20.7344C574.326 21.1307 573.936 21.4418 573.424 21.6676C572.917 21.8892 572.306 22 571.59 22H566.898ZM568.694 20.402H571.59C572.063 20.402 572.434 20.2891 572.702 20.0632C572.971 19.8374 573.105 19.5305 573.105 19.1428C573.105 18.6868 572.971 18.3288 572.702 18.0689C572.434 17.8047 572.063 17.6726 571.59 17.6726H568.694V20.402ZM568.694 16.2727H570.989C571.347 16.2727 571.654 16.2216 571.909 16.1193C572.169 16.017 572.368 15.8722 572.504 15.6847C572.645 15.4929 572.715 15.267 572.715 15.0071C572.715 14.6278 572.559 14.3317 572.248 14.1186C571.937 13.9055 571.511 13.799 570.97 13.799H568.694V16.2727ZM581.325 22.1982C580.358 22.1982 579.525 21.9915 578.826 21.5781C578.131 21.1605 577.594 20.5746 577.215 19.8203C576.84 19.0618 576.652 18.1733 576.652 17.1548C576.652 16.1491 576.84 15.2628 577.215 14.4957C577.594 13.7287 578.123 13.13 578.8 12.6996C579.482 12.2692 580.279 12.054 581.191 12.054C581.745 12.054 582.282 12.1456 582.801 12.3288C583.321 12.5121 583.788 12.7997 584.201 13.1918C584.615 13.5838 584.941 14.093 585.179 14.7195C585.418 15.3416 585.537 16.098 585.537 16.9886V17.6662H577.733V16.2344H583.664C583.664 15.7315 583.562 15.2862 583.358 14.8984C583.153 14.5064 582.865 14.1974 582.495 13.9716C582.128 13.7457 581.698 13.6328 581.203 13.6328C580.667 13.6328 580.198 13.7649 579.797 14.0291C579.401 14.2891 579.094 14.63 578.877 15.0518C578.664 15.4695 578.557 15.9233 578.557 16.4134V17.532C578.557 18.1882 578.672 18.7464 578.902 19.2067C579.137 19.6669 579.463 20.0185 579.88 20.2614C580.298 20.5 580.786 20.6193 581.344 20.6193C581.706 20.6193 582.037 20.5682 582.335 20.4659C582.633 20.3594 582.891 20.2017 583.108 19.9929C583.326 19.7841 583.492 19.5263 583.607 19.2195L585.416 19.5455C585.271 20.0781 585.011 20.5447 584.636 20.9453C584.265 21.3416 583.799 21.6506 583.236 21.8722C582.678 22.0895 582.041 22.1982 581.325 22.1982ZM594.312 16.2663V17.9219H588.994V16.2663H594.312ZM589.531 12.1818V22H587.658V12.1818H589.531ZM595.648 12.1818V22H593.781V12.1818H595.648ZM604.859 16.2663V17.9219H599.541V16.2663H604.859ZM600.078 12.1818V22H598.205V12.1818H600.078ZM606.195 12.1818V22H604.328V12.1818H606.195ZM612.887 22.1982C611.967 22.1982 611.164 21.9872 610.477 21.5653C609.791 21.1435 609.259 20.5533 608.879 19.7947C608.5 19.0362 608.311 18.1499 608.311 17.1357C608.311 16.1172 608.5 15.2266 608.879 14.4638C609.259 13.701 609.791 13.1087 610.477 12.6868C611.164 12.2649 611.967 12.054 612.887 12.054C613.808 12.054 614.611 12.2649 615.297 12.6868C615.983 13.1087 616.516 13.701 616.895 14.4638C617.274 15.2266 617.464 16.1172 617.464 17.1357C617.464 18.1499 617.274 19.0362 616.895 19.7947C616.516 20.5533 615.983 21.1435 615.297 21.5653C614.611 21.9872 613.808 22.1982 612.887 22.1982ZM612.894 20.5938C613.49 20.5938 613.985 20.4361 614.377 20.1207C614.769 19.8054 615.058 19.3857 615.246 18.8615C615.438 18.3374 615.534 17.7599 615.534 17.1293C615.534 16.5028 615.438 15.9276 615.246 15.4034C615.058 14.875 614.769 14.451 614.377 14.1314C613.985 13.8118 613.49 13.652 612.894 13.652C612.293 13.652 611.794 13.8118 611.398 14.1314C611.006 14.451 610.714 14.875 610.522 15.4034C610.335 15.9276 610.241 16.5028 610.241 17.1293C610.241 17.7599 610.335 18.3374 610.522 18.8615C610.714 19.3857 611.006 19.8054 611.398 20.1207C611.794 20.4361 612.293 20.5938 612.894 20.5938ZM621.47 19.3217L625.798 12.1818H627.856V22H625.983V14.8537L621.675 22H619.597V12.1818H621.47V19.3217ZM624.979 8.85795H626.552C626.552 9.57812 626.296 10.1641 625.785 10.6158C625.278 11.0632 624.592 11.2869 623.727 11.2869C622.866 11.2869 622.182 11.0632 621.675 10.6158C621.168 10.1641 620.914 9.57812 620.914 8.85795H622.48C622.48 9.17756 622.574 9.46094 622.761 9.7081C622.949 9.95099 623.271 10.0724 623.727 10.0724C624.174 10.0724 624.494 9.95099 624.685 9.7081C624.881 9.4652 624.979 9.18182 624.979 8.85795ZM368.511 50L368.505 48.3445H368.857C369.129 48.3445 369.357 48.2869 369.54 48.1719C369.728 48.0526 369.881 47.8523 370.001 47.571C370.12 47.2898 370.212 46.902 370.276 46.4077C370.339 45.9091 370.386 45.2827 370.416 44.5284L370.589 40.1818H377.441V50H375.568V41.831H372.359L372.206 45.1676C372.168 45.9773 372.085 46.6847 371.957 47.2898C371.833 47.8949 371.652 48.3999 371.413 48.8047C371.175 49.2053 370.868 49.5057 370.493 49.706C370.118 49.902 369.662 50 369.125 50H368.511ZM382.847 50.2173C382.225 50.2173 381.662 50.1023 381.16 49.8722C380.657 49.6378 380.258 49.299 379.964 48.8558C379.675 48.4126 379.53 47.8693 379.53 47.2259C379.53 46.6719 379.636 46.2159 379.849 45.858C380.062 45.5 380.35 45.2166 380.712 45.0078C381.074 44.799 381.479 44.6413 381.927 44.5348C382.374 44.4283 382.83 44.3473 383.295 44.2919C383.883 44.2237 384.36 44.1683 384.726 44.1257C385.093 44.0788 385.359 44.0043 385.525 43.902C385.692 43.7997 385.775 43.6335 385.775 43.4034V43.3587C385.775 42.8004 385.617 42.3679 385.302 42.0611C384.991 41.7543 384.526 41.6009 383.908 41.6009C383.265 41.6009 382.758 41.7436 382.387 42.0291C382.02 42.3104 381.767 42.6236 381.626 42.9688L379.83 42.5597C380.043 41.9631 380.354 41.4815 380.763 41.1151C381.177 40.7443 381.652 40.4759 382.189 40.3097C382.726 40.1392 383.29 40.054 383.883 40.054C384.275 40.054 384.69 40.1009 385.129 40.1946C385.572 40.2841 385.986 40.4503 386.369 40.6932C386.757 40.9361 387.074 41.2834 387.322 41.7351C387.569 42.1825 387.692 42.7642 387.692 43.4801V50H385.826V48.6577H385.749C385.626 48.9048 385.44 49.1477 385.193 49.3864C384.946 49.625 384.628 49.8232 384.241 49.9808C383.853 50.1385 383.388 50.2173 382.847 50.2173ZM383.263 48.6832C383.791 48.6832 384.243 48.5788 384.618 48.37C384.997 48.1612 385.285 47.8885 385.481 47.5518C385.681 47.2109 385.781 46.8466 385.781 46.4588V45.1932C385.713 45.2614 385.581 45.3253 385.385 45.3849C385.193 45.4403 384.974 45.4893 384.726 45.532C384.479 45.5703 384.238 45.6065 384.004 45.6406C383.77 45.6705 383.574 45.696 383.416 45.7173C383.045 45.7642 382.706 45.843 382.4 45.9538C382.097 46.0646 381.854 46.2244 381.671 46.4332C381.492 46.6378 381.403 46.9105 381.403 47.2514C381.403 47.7244 381.577 48.0824 381.927 48.3253C382.276 48.5639 382.721 48.6832 383.263 48.6832ZM390.238 50V40.1818H392.149V44.2983H393.07L396.31 40.1818H398.675L394.872 44.9567L398.72 50H396.349L393.389 46.0753H392.149V50H390.238ZM399.655 41.831V40.1818H407.939V41.831H404.737V50H402.87V41.831H399.655ZM413.639 50.1982C412.719 50.1982 411.915 49.9872 411.229 49.5653C410.543 49.1435 410.011 48.5533 409.631 47.7947C409.252 47.0362 409.062 46.1499 409.062 45.1357C409.062 44.1172 409.252 43.2266 409.631 42.4638C410.011 41.701 410.543 41.1087 411.229 40.6868C411.915 40.2649 412.719 40.054 413.639 40.054C414.56 40.054 415.363 40.2649 416.049 40.6868C416.735 41.1087 417.268 41.701 417.647 42.4638C418.026 43.2266 418.216 44.1172 418.216 45.1357C418.216 46.1499 418.026 47.0362 417.647 47.7947C417.268 48.5533 416.735 49.1435 416.049 49.5653C415.363 49.9872 414.56 50.1982 413.639 50.1982ZM413.646 48.5938C414.242 48.5938 414.737 48.4361 415.129 48.1207C415.521 47.8054 415.81 47.3857 415.998 46.8615C416.19 46.3374 416.286 45.7599 416.286 45.1293C416.286 44.5028 416.19 43.9276 415.998 43.4034C415.81 42.875 415.521 42.451 415.129 42.1314C414.737 41.8118 414.242 41.652 413.646 41.652C413.045 41.652 412.546 41.8118 412.15 42.1314C411.758 42.451 411.466 42.875 411.274 43.4034C411.087 43.9276 410.993 44.5028 410.993 45.1293C410.993 45.7599 411.087 46.3374 411.274 46.8615C411.466 47.3857 411.758 47.8054 412.15 48.1207C412.546 48.4361 413.045 48.5938 413.646 48.5938ZM424.574 53.343V36.9091H426.486V53.343H424.574ZM424.574 50.1982C423.88 50.1982 423.247 50.0788 422.676 49.8402C422.105 49.5973 421.613 49.2521 421.199 48.8047C420.786 48.3572 420.466 47.8224 420.241 47.2003C420.019 46.5781 419.908 45.8899 419.908 45.1357C419.908 44.3729 420.019 43.6804 420.241 43.0582C420.466 42.4361 420.786 41.9013 421.199 41.4538C421.613 41.0064 422.105 40.6612 422.676 40.4183C423.247 40.1754 423.88 40.054 424.574 40.054H425.047V50.1982H424.574ZM424.574 48.5874H424.843V41.6648H424.574C424.114 41.6648 423.714 41.7585 423.373 41.946C423.032 42.1293 422.748 42.3828 422.523 42.7067C422.297 43.0263 422.126 43.3949 422.011 43.8125C421.9 44.2301 421.845 44.6712 421.845 45.1357C421.845 45.7578 421.945 46.331 422.145 46.8551C422.346 47.375 422.648 47.7947 423.053 48.1143C423.458 48.4297 423.965 48.5874 424.574 48.5874ZM426.486 50.1982H426.006V40.054H426.486C427.18 40.054 427.813 40.1754 428.384 40.4183C428.955 40.6612 429.445 41.0064 429.854 41.4538C430.268 41.9013 430.585 42.4361 430.807 43.0582C431.032 43.6804 431.145 44.3729 431.145 45.1357C431.145 45.8899 431.032 46.5781 430.807 47.2003C430.585 47.8224 430.268 48.3572 429.854 48.8047C429.445 49.2521 428.955 49.5973 428.384 49.8402C427.813 50.0788 427.18 50.1982 426.486 50.1982ZM426.486 48.5874C426.946 48.5874 427.346 48.4979 427.687 48.3189C428.028 48.1357 428.312 47.8842 428.537 47.5646C428.763 47.2408 428.932 46.8722 429.042 46.4588C429.153 46.0412 429.209 45.6001 429.209 45.1357C429.209 44.5178 429.108 43.9467 428.908 43.4226C428.712 42.8942 428.412 42.4702 428.007 42.1506C427.602 41.8267 427.095 41.6648 426.486 41.6648H426.211V48.5874H426.486ZM432.496 50L432.489 48.3445H432.841C433.114 48.3445 433.342 48.2869 433.525 48.1719C433.712 48.0526 433.866 47.8523 433.985 47.571C434.104 47.2898 434.196 46.902 434.26 46.4077C434.324 45.9091 434.371 45.2827 434.401 44.5284L434.573 40.1818H441.425V50H439.553V41.831H436.344L436.19 45.1676C436.152 45.9773 436.069 46.6847 435.941 47.2898C435.817 47.8949 435.636 48.3999 435.398 48.8047C435.159 49.2053 434.852 49.5057 434.477 49.706C434.102 49.902 433.646 50 433.109 50H432.496ZM448.11 50.1982C447.189 50.1982 446.386 49.9872 445.7 49.5653C445.014 49.1435 444.481 48.5533 444.102 47.7947C443.723 47.0362 443.533 46.1499 443.533 45.1357C443.533 44.1172 443.723 43.2266 444.102 42.4638C444.481 41.701 445.014 41.1087 445.7 40.6868C446.386 40.2649 447.189 40.054 448.11 40.054C449.03 40.054 449.834 40.2649 450.52 40.6868C451.206 41.1087 451.738 41.701 452.118 42.4638C452.497 43.2266 452.687 44.1172 452.687 45.1357C452.687 46.1499 452.497 47.0362 452.118 47.7947C451.738 48.5533 451.206 49.1435 450.52 49.5653C449.834 49.9872 449.03 50.1982 448.11 50.1982ZM448.116 48.5938C448.713 48.5938 449.207 48.4361 449.599 48.1207C449.991 47.8054 450.281 47.3857 450.469 46.8615C450.66 46.3374 450.756 45.7599 450.756 45.1293C450.756 44.5028 450.66 43.9276 450.469 43.4034C450.281 42.875 449.991 42.451 449.599 42.1314C449.207 41.8118 448.713 41.652 448.116 41.652C447.515 41.652 447.017 41.8118 446.621 42.1314C446.229 42.451 445.937 42.875 445.745 43.4034C445.557 43.9276 445.464 44.5028 445.464 45.1293C445.464 45.7599 445.557 46.3374 445.745 46.8615C445.937 47.3857 446.229 47.8054 446.621 48.1207C447.017 48.4361 447.515 48.5938 448.116 48.5938ZM454.82 53.6818V40.1818H456.686V41.7734H456.846C456.957 41.5689 457.117 41.3324 457.326 41.0639C457.534 40.7955 457.824 40.5611 458.195 40.3608C458.566 40.1562 459.056 40.054 459.665 40.054C460.458 40.054 461.165 40.2543 461.787 40.6548C462.409 41.0554 462.897 41.6328 463.251 42.3871C463.609 43.1413 463.788 44.049 463.788 45.1101C463.788 46.1712 463.611 47.081 463.257 47.8395C462.904 48.5937 462.418 49.1754 461.8 49.5845C461.182 49.9893 460.477 50.1918 459.684 50.1918C459.088 50.1918 458.6 50.0916 458.221 49.8913C457.846 49.6911 457.551 49.4567 457.338 49.1882C457.125 48.9197 456.961 48.6811 456.846 48.4723H456.731V53.6818H454.82ZM456.693 45.0909C456.693 45.7812 456.793 46.3864 456.993 46.9062C457.194 47.4261 457.483 47.8331 457.863 48.1271C458.242 48.4169 458.706 48.5618 459.256 48.5618C459.827 48.5618 460.304 48.4105 460.688 48.108C461.071 47.8011 461.361 47.3857 461.557 46.8615C461.757 46.3374 461.858 45.7472 461.858 45.0909C461.858 44.4432 461.76 43.8615 461.564 43.3459C461.372 42.8303 461.082 42.4233 460.694 42.125C460.311 41.8267 459.831 41.6776 459.256 41.6776C458.702 41.6776 458.233 41.8203 457.85 42.1058C457.471 42.3913 457.183 42.7898 456.987 43.3011C456.791 43.8125 456.693 44.4091 456.693 45.0909ZM467.368 43.5568H470.218C471.42 43.5568 472.345 43.8551 472.993 44.4517C473.64 45.0483 473.964 45.8175 473.964 46.7592C473.964 47.3729 473.819 47.9247 473.529 48.4148C473.24 48.9048 472.816 49.2926 472.257 49.5781C471.699 49.8594 471.02 50 470.218 50H465.929V40.1818H467.802V48.3509H470.218C470.768 48.3509 471.22 48.2081 471.574 47.9226C471.927 47.6328 472.104 47.2642 472.104 46.8168C472.104 46.3437 471.927 45.9581 471.574 45.6598C471.22 45.3572 470.768 45.206 470.218 45.206H467.368V43.5568ZM475.358 50V40.1818H477.269V50H475.358ZM486.47 47.3217L490.798 40.1818H492.856V50H490.983V42.8537L486.675 50H484.597V40.1818H486.47V47.3217ZM500.189 53.6818V40.1818H502.056V41.7734H502.215C502.326 41.5689 502.486 41.3324 502.695 41.0639C502.904 40.7955 503.193 40.5611 503.564 40.3608C503.935 40.1562 504.425 40.054 505.034 40.054C505.827 40.054 506.534 40.2543 507.156 40.6548C507.779 41.0554 508.267 41.6328 508.62 42.3871C508.978 43.1413 509.157 44.049 509.157 45.1101C509.157 46.1712 508.98 47.081 508.627 47.8395C508.273 48.5937 507.787 49.1754 507.169 49.5845C506.551 49.9893 505.846 50.1918 505.053 50.1918C504.457 50.1918 503.969 50.0916 503.59 49.8913C503.215 49.6911 502.921 49.4567 502.708 49.1882C502.494 48.9197 502.33 48.6811 502.215 48.4723H502.1V53.6818H500.189ZM502.062 45.0909C502.062 45.7812 502.162 46.3864 502.362 46.9062C502.563 47.4261 502.852 47.8331 503.232 48.1271C503.611 48.4169 504.075 48.5618 504.625 48.5618C505.196 48.5618 505.673 48.4105 506.057 48.108C506.441 47.8011 506.73 47.3857 506.926 46.8615C507.127 46.3374 507.227 45.7472 507.227 45.0909C507.227 44.4432 507.129 43.8615 506.933 43.3459C506.741 42.8303 506.451 42.4233 506.063 42.125C505.68 41.8267 505.2 41.6776 504.625 41.6776C504.071 41.6776 503.602 41.8203 503.219 42.1058C502.84 42.3913 502.552 42.7898 502.356 43.3011C502.16 43.8125 502.062 44.4091 502.062 45.0909ZM511.452 50V36.9091H513.427V42.598H519.953V36.9091H521.935V50H519.953V44.2919H513.427V50H511.452Z" fill="#313940"/>
<defs>
<radialGradient id="paint0_radial_602_3289" cx="0" cy="0" r="1" gradientUnits="userSpaceOnUse" gradientTransform="translate(423.091 198.67) rotate(64.51) scale(65.6629 53.2846)">
<stop stop-color="white"/>
<stop offset="1" stop-color="#50C0E3"/>
</radialGradient>
<linearGradient id="paint1_linear_602_3289" x1="401.927" y1="158.203" x2="571.656" y2="213.193" gradientUnits="userSpaceOnUse">
<stop stop-color="#76DAFF"/>
<stop offset="0.529167" stop-color="#D0C1FF"/>
<stop offset="1" stop-color="#FFA4C8"/>
</linearGradient>
<radialGradient id="paint2_radial_602_3289" cx="0" cy="0" r="1" gradientUnits="userSpaceOnUse" gradientTransform="translate(759.644 198.262) rotate(50.51) scale(65.6629 53.2846)">
<stop stop-color="white"/>
<stop offset="1" stop-color="#50C0E3"/>
</radialGradient>
<linearGradient id="paint3_linear_602_3289" x1="853.01" y1="230.5" x2="766.78" y2="166.371" gradientUnits="userSpaceOnUse">
<stop stop-color="#00CAFF"/>
<stop offset="1" stop-color="#A7E2FF" stop-opacity="0.988391"/>
</linearGradient>
<linearGradient id="paint4_linear_602_3289" x1="779.277" y1="155.136" x2="846.534" y2="270.145" gradientUnits="userSpaceOnUse">
<stop stop-color="#76DAFF"/>
<stop offset="0.529167" stop-color="#D0C1FF"/>
<stop offset="1" stop-color="#FFA4C8"/>
</linearGradient>
<radialGradient id="paint5_radial_602_3289" cx="0" cy="0" r="1" gradientUnits="userSpaceOnUse" gradientTransform="translate(637.68 158.591) rotate(172.51) scale(65.6629 53.2846)">
<stop stop-color="white"/>
<stop offset="1" stop-color="#50C0E3"/>
</radialGradient>
<linearGradient id="paint6_linear_602_3289" x1="560.864" y1="220.687" x2="660.945" y2="181.54" gradientUnits="userSpaceOnUse">
<stop stop-color="#00CAFF"/>
<stop offset="1" stop-color="#A7E2FF" stop-opacity="0.988391"/>
</linearGradient>
<linearGradient id="paint7_linear_602_3289" x1="576.102" y1="160.666" x2="642.27" y2="268.625" gradientUnits="userSpaceOnUse">
<stop stop-color="#76DAFF"/>
<stop offset="0.529167" stop-color="#D0C1FF"/>
<stop offset="1" stop-color="#FFA4C8"/>
</linearGradient>
<radialGradient id="paint8_radial_602_3289" cx="0" cy="0" r="1" gradientUnits="userSpaceOnUse" gradientTransform="translate(591.736 275.201) rotate(7.51002) scale(65.6629 53.2846)">
<stop stop-color="white"/>
<stop offset="1" stop-color="#50C0E3"/>
</radialGradient>
<linearGradient id="paint9_linear_602_3289" x1="682.007" y1="235.102" x2="575.204" y2="247.012" gradientUnits="userSpaceOnUse">
<stop stop-color="#00CAFF"/>
<stop offset="1" stop-color="#A7E2FF" stop-opacity="0.988391"/>
</linearGradient>
<linearGradient id="paint10_linear_602_3289" x1="599.241" y1="223.087" x2="613.113" y2="288.988" gradientUnits="userSpaceOnUse">
<stop stop-color="#76DAFF"/>
<stop offset="0.529167" stop-color="#D0C1FF"/>
<stop offset="1" stop-color="#FFA4C8"/>
</linearGradient>
<radialGradient id="paint11_radial_602_3289" cx="0" cy="0" r="1" gradientUnits="userSpaceOnUse" gradientTransform="translate(209.93 278.876) rotate(-16.49) scale(65.6629 53.2846)">
<stop stop-color="white"/>
<stop offset="1" stop-color="#50C0E3"/>
</radialGradient>
<linearGradient id="paint12_linear_602_3289" x1="276.087" y1="205.527" x2="183.362" y2="259.849" gradientUnits="userSpaceOnUse">
<stop stop-color="#00CAFF"/>
<stop offset="1" stop-color="#A7E2FF" stop-opacity="0.988391"/>
</linearGradient>
<linearGradient id="paint13_linear_602_3289" x1="206.337" y1="202.16" x2="244.607" y2="316.793" gradientUnits="userSpaceOnUse">
<stop stop-color="#76DAFF"/>
<stop offset="0.529167" stop-color="#D0C1FF"/>
<stop offset="1" stop-color="#FFA4C8"/>
</linearGradient>
<radialGradient id="paint14_radial_602_3289" cx="0" cy="0" r="1" gradientUnits="userSpaceOnUse" gradientTransform="translate(237.914 157.794) rotate(43.51) scale(65.6629 53.2846)">
<stop stop-color="white"/>
<stop offset="1" stop-color="#50C0E3"/>
</radialGradient>
<linearGradient id="paint15_linear_602_3289" x1="334.514" y1="178.413" x2="241.108" y2="125.271" gradientUnits="userSpaceOnUse">
<stop stop-color="#00CAFF"/>
<stop offset="1" stop-color="#A7E2FF" stop-opacity="0.988391"/>
</linearGradient>
<linearGradient id="paint16_linear_602_3289" x1="256.498" y1="113.898" x2="312.319" y2="226.376" gradientUnits="userSpaceOnUse">
<stop stop-color="#76DAFF"/>
<stop offset="0.529167" stop-color="#D0C1FF"/>
<stop offset="1" stop-color="#FFA4C8"/>
</linearGradient>
<radialGradient id="paint17_radial_602_3289" cx="0" cy="0" r="1" gradientUnits="userSpaceOnUse" gradientTransform="translate(129.454 177.999) rotate(139.51) scale(65.6629 53.2846)">
<stop stop-color="white"/>
<stop offset="1" stop-color="#50C0E3"/>
</radialGradient>
<linearGradient id="paint18_linear_602_3289" x1="98.0388" y1="167.35" x2="194.011" y2="294.436" gradientUnits="userSpaceOnUse">
<stop stop-color="#76DAFF"/>
<stop offset="0.529167" stop-color="#D0C1FF"/>
<stop offset="1" stop-color="#FFA4C8"/>
</linearGradient>
<radialGradient id="paint19_radial_602_3289" cx="0" cy="0" r="1" gradientUnits="userSpaceOnUse" gradientTransform="translate(335.796 302.904) rotate(-35.49) scale(58.6082 58.1524)">
<stop stop-color="white"/>
<stop offset="1" stop-color="#50C0E3"/>
</radialGradient>
<linearGradient id="paint20_linear_602_3289" x1="278.044" y1="202.192" x2="312.629" y2="328.679" gradientUnits="userSpaceOnUse">
<stop stop-color="#76DAFF"/>
<stop offset="0.529167" stop-color="#D0C1FF"/>
<stop offset="1" stop-color="#FFA4C8"/>
</linearGradient>
<radialGradient id="paint21_radial_602_3289" cx="0" cy="0" r="1" gradientUnits="userSpaceOnUse" gradientTransform="translate(334.181 174.464) rotate(40.51) scale(40.7001 72.7698)">
<stop stop-color="white"/>
<stop offset="1" stop-color="#006DC3"/>
</radialGradient>
<linearGradient id="paint22_linear_602_3289" x1="346" y1="293.5" x2="421.296" y2="146.08" gradientUnits="userSpaceOnUse">
<stop stop-color="#6677BF"/>
<stop offset="0.508333" stop-color="#DB91DE"/>
<stop offset="1" stop-color="#F8BDD5"/>
</linearGradient>
<radialGradient id="paint23_radial_602_3289" cx="0" cy="0" r="1" gradientUnits="userSpaceOnUse" gradientTransform="translate(200.302 184.772) rotate(141.51) scale(40.7001 72.7698)">
<stop stop-color="white"/>
<stop offset="1" stop-color="#006DC3"/>
</radialGradient>
<linearGradient id="paint24_linear_602_3289" x1="146" y1="293.32" x2="152.365" y2="175.302" gradientUnits="userSpaceOnUse">
<stop stop-color="#6677BF"/>
<stop offset="0.508333" stop-color="#DB91DE"/>
<stop offset="1" stop-color="#F8BDD5"/>
</linearGradient>
<radialGradient id="paint25_radial_602_3289" cx="0" cy="0" r="1" gradientUnits="userSpaceOnUse" gradientTransform="translate(824.88 214.69) rotate(-178.49) scale(40.7001 72.7698)">
<stop stop-color="white"/>
<stop offset="1" stop-color="#006DC3"/>
</radialGradient>
<linearGradient id="paint26_linear_602_3289" x1="728" y1="304.82" x2="767.637" y2="146.605" gradientUnits="userSpaceOnUse">
<stop stop-color="#6677BF"/>
<stop offset="0.508333" stop-color="#DB91DE"/>
<stop offset="1" stop-color="#F8BDD5"/>
</linearGradient>
<radialGradient id="paint27_radial_602_3289" cx="0" cy="0" r="1" gradientUnits="userSpaceOnUse" gradientTransform="translate(445.585 319.759) rotate(11.688) scale(35.2474 110.467)">
<stop stop-color="white"/>
<stop offset="1" stop-color="#006DC3"/>
</radialGradient>
<linearGradient id="paint28_linear_602_3289" x1="479.5" y1="309.5" x2="488" y2="181.5" gradientUnits="userSpaceOnUse">
<stop stop-color="#6677BF"/>
<stop offset="0.508333" stop-color="#DB91DE"/>
<stop offset="1" stop-color="#F8BDD5"/>
</linearGradient>
<radialGradient id="paint29_radial_602_3289" cx="0" cy="0" r="1" gradientUnits="userSpaceOnUse" gradientTransform="translate(55.458 236.499) scale(5.61846)">
<stop stop-color="#F4FCFF"/>
<stop offset="1" stop-color="#C2C2C2"/>
</radialGradient>
<radialGradient id="paint30_radial_602_3289" cx="0" cy="0" r="1" gradientUnits="userSpaceOnUse" gradientTransform="translate(105.458 196.499) scale(5.61846)">
<stop stop-color="#F4FCFF"/>
<stop offset="1" stop-color="#C2C2C2"/>
</radialGradient>
<radialGradient id="paint31_radial_602_3289" cx="0" cy="0" r="1" gradientUnits="userSpaceOnUse" gradientTransform="translate(180.458 194.499) scale(5.61846)">
<stop stop-color="#F4FCFF"/>
<stop offset="1" stop-color="#C2C2C2"/>
</radialGradient>
<radialGradient id="paint32_radial_602_3289" cx="0" cy="0" r="1" gradientUnits="userSpaceOnUse" gradientTransform="translate(192.458 174.499) scale(5.61846)">
<stop stop-color="#F4FCFF"/>
<stop offset="1" stop-color="#C2C2C2"/>
</radialGradient>
<radialGradient id="paint33_radial_602_3289" cx="0" cy="0" r="1" gradientUnits="userSpaceOnUse" gradientTransform="translate(222.458 184.499) scale(5.61846)">
<stop stop-color="#F4FCFF"/>
<stop offset="1" stop-color="#C2C2C2"/>
</radialGradient>
<radialGradient id="paint34_radial_602_3289" cx="0" cy="0" r="1" gradientUnits="userSpaceOnUse" gradientTransform="translate(242.458 194.499) scale(5.61846)">
<stop stop-color="#F4FCFF"/>
<stop offset="1" stop-color="#C2C2C2"/>
</radialGradient>
<radialGradient id="paint35_radial_602_3289" cx="0" cy="0" r="1" gradientUnits="userSpaceOnUse" gradientTransform="translate(262.458 184.499) scale(5.61846)">
<stop stop-color="#F4FCFF"/>
<stop offset="1" stop-color="#C2C2C2"/>
</radialGradient>
<radialGradient id="paint36_radial_602_3289" cx="0" cy="0" r="1" gradientUnits="userSpaceOnUse" gradientTransform="translate(252.458 164.499) scale(5.61846)">
<stop stop-color="#F4FCFF"/>
<stop offset="1" stop-color="#C2C2C2"/>
</radialGradient>
<radialGradient id="paint37_radial_602_3289" cx="0" cy="0" r="1" gradientUnits="userSpaceOnUse" gradientTransform="translate(303.458 124.499) scale(5.61846 5.61846)">
<stop stop-color="#F4FCFF"/>
<stop offset="1" stop-color="#C2C2C2"/>
</radialGradient>
<radialGradient id="paint38_radial_602_3289" cx="0" cy="0" r="1" gradientUnits="userSpaceOnUse" gradientTransform="translate(319.458 118.499) scale(5.61846)">
<stop stop-color="#F4FCFF"/>
<stop offset="1" stop-color="#C2C2C2"/>
</radialGradient>
<radialGradient id="paint39_radial_602_3289" cx="0" cy="0" r="1" gradientUnits="userSpaceOnUse" gradientTransform="translate(331.458 154.499) scale(5.61846)">
<stop stop-color="#F4FCFF"/>
<stop offset="1" stop-color="#C2C2C2"/>
</radialGradient>
<radialGradient id="paint40_radial_602_3289" cx="0" cy="0" r="1" gradientUnits="userSpaceOnUse" gradientTransform="translate(371.458 244.499) scale(5.61846)">
<stop stop-color="#F4FCFF"/>
<stop offset="1" stop-color="#C2C2C2"/>
</radialGradient>
<radialGradient id="paint41_radial_602_3289" cx="0" cy="0" r="1" gradientUnits="userSpaceOnUse" gradientTransform="translate(421.458 204.499) scale(5.61846)">
<stop stop-color="#F4FCFF"/>
<stop offset="1" stop-color="#C2C2C2"/>
</radialGradient>
<radialGradient id="paint42_radial_602_3289" cx="0" cy="0" r="1" gradientUnits="userSpaceOnUse" gradientTransform="translate(501.458 204.499) scale(5.61846)">
<stop stop-color="#F4FCFF"/>
<stop offset="1" stop-color="#C2C2C2"/>
</radialGradient>
<radialGradient id="paint43_radial_602_3289" cx="0" cy="0" r="1" gradientUnits="userSpaceOnUse" gradientTransform="translate(521.458 184.499) scale(5.61846)">
<stop stop-color="#F4FCFF"/>
<stop offset="1" stop-color="#C2C2C2"/>
</radialGradient>
<radialGradient id="paint44_radial_602_3289" cx="0" cy="0" r="1" gradientUnits="userSpaceOnUse" gradientTransform="translate(561.458 164.499) scale(5.61846)">
<stop stop-color="#F4FCFF"/>
<stop offset="1" stop-color="#C2C2C2"/>
</radialGradient>
<radialGradient id="paint45_radial_602_3289" cx="0" cy="0" r="1" gradientUnits="userSpaceOnUse" gradientTransform="translate(691.458 184.499) scale(5.61846)">
<stop stop-color="#F4FCFF"/>
<stop offset="1" stop-color="#C2C2C2"/>
</radialGradient>
<radialGradient id="paint46_radial_602_3289" cx="0" cy="0" r="1" gradientUnits="userSpaceOnUse" gradientTransform="translate(711.458 164.499) scale(5.61846)">
<stop stop-color="#F4FCFF"/>
<stop offset="1" stop-color="#C2C2C2"/>
</radialGradient>
<radialGradient id="paint47_radial_602_3289" cx="0" cy="0" r="1" gradientUnits="userSpaceOnUse" gradientTransform="translate(741.458 144.499) scale(5.61846)">
<stop stop-color="#F4FCFF"/>
<stop offset="1" stop-color="#C2C2C2"/>
</radialGradient>
<radialGradient id="paint48_radial_602_3289" cx="0" cy="0" r="1" gradientUnits="userSpaceOnUse" gradientTransform="translate(801.46 164.499) scale(5.61846)">
<stop stop-color="#F4FCFF"/>
<stop offset="1" stop-color="#C2C2C2"/>
</radialGradient>
<radialGradient id="paint49_radial_602_3289" cx="0" cy="0" r="1" gradientUnits="userSpaceOnUse" gradientTransform="translate(851.46 214.499) scale(5.61846)">
<stop stop-color="#F4FCFF"/>
<stop offset="1" stop-color="#C2C2C2"/>
</radialGradient>
<radialGradient id="paint50_radial_602_3289" cx="0" cy="0" r="1" gradientUnits="userSpaceOnUse" gradientTransform="translate(671.458 204.499) scale(5.61846)">
<stop stop-color="#F4FCFF"/>
<stop offset="1" stop-color="#C2C2C2"/>
</radialGradient>
<radialGradient id="paint51_radial_602_3289" cx="0" cy="0" r="1" gradientUnits="userSpaceOnUse" gradientTransform="translate(691.458 214.499) scale(5.61846)">
<stop stop-color="#F4FCFF"/>
<stop offset="1" stop-color="#C2C2C2"/>
</radialGradient>
<radialGradient id="paint52_radial_602_3289" cx="0" cy="0" r="1" gradientUnits="userSpaceOnUse" gradientTransform="translate(354.458 252.499) scale(5.61846)">
<stop stop-color="#F4FCFF"/>
<stop offset="1" stop-color="#C2C2C2"/>
</radialGradient>
</defs>
</svg>
