<svg width="1219" height="215" viewBox="0 0 1219 215" fill="none" xmlns="http://www.w3.org/2000/svg">
<g clip-path="url(#clip0_602_3322)">
<path fill-rule="evenodd" clip-rule="evenodd" d="M186.114 19.1554C85.4606 57.4578 0 157.5 0 316H1219V212.549C1219 104.898 1133.3 16.5499 1025.71 12.9588V12.9588C696.536 1.97195 268.789 -12.3052 186.114 19.1554Z" fill="url(#paint0_radial_602_3322)"/>
<path d="M99.8349 96.0678L91.0678 109.449C88.1134 113.958 91.8393 119.85 97.1797 119.113C97.7242 119.038 98.2565 118.892 98.7629 118.678L124.257 107.923C127.814 106.422 130.307 103.147 130.806 99.3197C131.831 91.4628 124.37 85.188 116.805 87.5443L107.143 90.5538C104.141 91.4888 101.558 93.438 99.8349 96.0678Z" fill="white" fill-opacity="0.6"/>
<path d="M1110.33 95.5678L1101.57 108.949C1098.61 113.458 1102.34 119.35 1107.68 118.613C1108.22 118.538 1108.76 118.392 1109.26 118.178L1134.76 107.423C1138.31 105.922 1140.81 102.647 1141.31 98.8197C1142.33 90.9628 1134.87 84.688 1127.31 87.0443L1117.64 90.0538C1114.64 90.9888 1112.06 92.938 1110.33 95.5678Z" fill="white" fill-opacity="0.6"/>
<path d="M151.587 60.4545L151.332 60.6297C147.08 63.545 146.154 69.4351 149.306 73.5141C151.005 75.7127 153.627 77 156.405 77H156.715C163.101 77 167.486 70.5752 165.159 64.6285C163.032 59.1939 156.4 57.1541 151.587 60.4545Z" fill="white" fill-opacity="0.6"/>
<path d="M158.321 87.5133L154.631 85.625C151.677 84.1136 148.062 84.9773 146.11 87.6609C143.684 90.9966 144.797 95.7095 148.459 97.6081L152.139 99.5165C153.949 100.455 156.085 100.525 157.953 99.7083C163.17 97.4258 163.391 90.107 158.321 87.5133Z" fill="white" fill-opacity="0.6"/>
<path d="M1082.82 118.513L1079.13 116.625C1076.18 115.114 1072.56 115.977 1070.61 118.661C1068.18 121.997 1069.3 126.709 1072.96 128.608L1076.64 130.517C1078.45 131.455 1080.59 131.525 1082.45 130.708C1087.67 128.426 1087.89 121.107 1082.82 118.513Z" fill="white" fill-opacity="0.6"/>
<path d="M88.3475 132.655L77.0762 129.728C72.1166 128.439 66.9482 130.899 64.8202 135.561C61.6288 142.551 66.738 150.5 74.4226 150.5H86.0678C87.974 150.5 89.8317 149.899 91.3771 148.783C97.5975 144.291 95.7742 134.584 88.3475 132.655Z" fill="white" fill-opacity="0.6"/>
<path d="M1076.09 91.4545L1075.83 91.6297C1071.58 94.545 1070.65 100.435 1073.81 104.514C1075.51 106.713 1078.13 108 1080.91 108H1081.22C1087.6 108 1091.99 101.575 1089.66 95.6285C1087.53 90.1939 1080.9 88.1541 1076.09 91.4545Z" fill="white" fill-opacity="0.6"/>
</g>
<defs>
<radialGradient id="paint0_radial_602_3322" cx="0" cy="0" r="1" gradientUnits="userSpaceOnUse" gradientTransform="translate(610.954 103.339) rotate(90.2629) scale(103.793 613.641)">
<stop stop-color="#FFF3F8"/>
<stop offset="1" stop-color="#FCDFEB"/>
</radialGradient>
<clipPath id="clip0_602_3322">
<rect width="1219" height="215" fill="white"/>
</clipPath>
</defs>
</svg>
