<svg width="120" height="120" viewBox="0 0 120 120" fill="none" xmlns="http://www.w3.org/2000/svg">
<path d="M49.1346 30.6922C50.4838 32.019 52.6534 32.0006 53.9805 30.6511C55.3076 29.3017 55.2897 27.1321 53.9405 25.8052C52.5913 24.4784 50.4217 24.4968 49.0946 25.8463C47.7675 27.1957 47.7855 29.3653 49.1346 30.6922Z" stroke="#C77897" stroke-width="1.6" stroke-miterlimit="10"/>
<path d="M44.4746 35.2352C45.8238 36.562 47.9933 36.5437 49.3204 35.1942C50.6475 33.8447 50.6297 31.6752 49.2805 30.3484C47.9312 29.0215 45.7617 29.0399 44.4346 30.3893C43.1075 31.7388 43.1254 33.9084 44.4746 35.2352Z" stroke="#C77897" stroke-width="1.6" stroke-miterlimit="10"/>
<path d="M39.8631 40.696C41.2123 42.0229 43.3819 42.0045 44.709 40.655C46.0361 39.3055 46.0181 37.136 44.6689 35.8092C43.3198 34.4824 41.1502 34.5007 39.8231 35.8501C38.496 37.1997 38.5139 39.3692 39.8631 40.696Z" stroke="#C77897" stroke-width="1.6" stroke-miterlimit="10"/>
<path d="M31.7344 47.6962C33.0836 49.023 35.2532 49.0046 36.5803 47.6551C37.9074 46.3057 37.8895 44.1361 36.5403 42.8093C35.1911 41.4825 33.0215 41.5008 31.6944 42.8503C30.3673 44.1998 30.3852 46.3694 31.7344 47.6962Z" stroke="#C77897" stroke-width="1.6" stroke-miterlimit="10"/>
<path d="M41.5097 54.6384C42.859 55.9652 45.0285 55.9469 46.3556 54.5974C47.6828 53.2479 47.6648 51.0783 46.3156 49.7515C44.9664 48.4247 42.7969 48.443 41.4698 49.7926C40.1426 51.142 40.1606 53.3116 41.5097 54.6384Z" stroke="#C77897" stroke-width="1.6" stroke-miterlimit="10"/>
<path d="M51.4965 65.5324C52.8457 66.8593 55.0153 66.8409 56.3424 65.4915C57.6695 64.1419 57.6516 61.9724 56.3023 60.6456C54.9532 59.3187 52.7836 59.3371 51.4565 60.6866C50.1294 62.0361 50.1473 64.2056 51.4965 65.5324Z" stroke="#C77897" stroke-width="1.6" stroke-miterlimit="10"/>
<path d="M45.8577 68.9101C47.2069 70.237 49.3765 70.2186 50.7036 68.8692C52.0307 67.5196 52.0128 65.3501 50.6635 64.0233C49.3144 62.6965 47.1448 62.7148 45.8177 64.0643C44.4906 65.4138 44.5085 67.5833 45.8577 68.9101Z" stroke="#C77897" stroke-width="1.6" stroke-miterlimit="10"/>
<path d="M37.4541 59.4824C38.8033 60.8092 40.9729 60.7908 42.2999 59.4414C43.627 58.0919 43.6092 55.9224 42.26 54.5955C40.9108 53.2687 38.7412 53.2871 37.4141 54.6365C36.087 55.986 36.1049 58.1556 37.4541 59.4824Z" stroke="#C77897" stroke-width="1.6" stroke-miterlimit="10"/>
<path d="M50.6879 37.7133C52.0371 39.0402 54.2067 39.0218 55.5337 37.6724C56.8608 36.3228 56.8429 34.1533 55.4937 32.8265C54.1446 31.4997 51.975 31.518 50.6479 32.8675C49.3208 34.217 49.3386 36.3865 50.6879 37.7133Z" stroke="#C77897" stroke-width="1.6" stroke-miterlimit="10"/>
<path d="M51.2519 37.9017L46.9409 49.4558L47.2838 52.6461C47.2838 52.6461 55.9357 70.5236 56.805 72.0057C57.6743 73.4879 54.8635 76.5211 52.3229 74.0226C47.7764 69.5515 50.0346 69.3642 50.0346 69.3642" stroke="#C77897" stroke-width="1.6" stroke-miterlimit="10"/>
<path d="M44.3511 41.1117L42.2545 49.1382L44.3511 41.1117Z" fill="#C77897"/>
<path d="M44.3511 41.1117L42.2545 49.1382" stroke="#C77897" stroke-width="1.6" stroke-miterlimit="10"/>
<path d="M40.8299 50.6802L36.5757 47.6498L40.8299 50.6802Z" fill="#C77897"/>
<path d="M40.8299 50.6802L36.5757 47.6498" stroke="#C77897" stroke-width="1.6" stroke-miterlimit="10"/>
<path d="M43.3021 55.9744L46.5162 63.4167L43.3021 55.9744Z" fill="#C77897"/>
<path d="M43.3021 55.9744L46.5162 63.4167" stroke="#C77897" stroke-width="1.6" stroke-miterlimit="10"/>
<path d="M72.0365 54.2591C73.3857 55.5859 75.5553 55.5675 76.8824 54.218C78.2095 52.8686 78.1915 50.699 76.8424 49.3721C75.4932 48.0453 73.3236 48.0637 71.9965 49.4132C70.6694 50.7626 70.6873 52.9322 72.0365 54.2591Z" stroke="#C77897" stroke-width="1.6" stroke-miterlimit="10"/>
<path d="M76.777 58.7287C78.1262 60.0555 80.2958 60.0371 81.6228 58.6876C82.9499 57.3382 82.9321 55.1686 81.5828 53.8417C80.2336 52.5149 78.0641 52.5333 76.737 53.8828C75.4099 55.2322 75.4277 57.4018 76.777 58.7287Z" stroke="#C77897" stroke-width="1.6" stroke-miterlimit="10"/>
<path d="M81.4741 64.1169C82.8232 65.4437 84.9928 65.4254 86.3199 64.0759C87.647 62.7264 87.6291 60.5569 86.2799 59.2301C84.9307 57.9032 82.7612 57.9216 81.434 59.2711C80.1069 60.6206 80.1249 62.7901 81.4741 64.1169Z" stroke="#C77897" stroke-width="1.6" stroke-miterlimit="10"/>
<path d="M89.7233 70.9751C91.0725 72.3019 93.2421 72.2836 94.5689 70.9341C95.8966 69.5846 95.8783 67.415 94.5293 66.0882C93.18 64.7614 91.0104 64.7797 89.6833 66.1293C88.3562 67.4787 88.374 69.6483 89.7233 70.9751Z" stroke="#C77897" stroke-width="1.6" stroke-miterlimit="10"/>
<path d="M80.0653 78.0796C81.4146 79.4064 83.5841 79.388 84.9112 78.0386C86.2384 76.6891 86.2204 74.5196 84.8712 73.1927C83.522 71.8659 81.3525 71.8842 80.0254 73.2337C78.6982 74.5832 78.7162 76.7528 80.0653 78.0796Z" stroke="#C77897" stroke-width="1.6" stroke-miterlimit="10"/>
<path d="M70.2518 89.1389C71.6009 90.4658 73.7705 90.4476 75.0976 89.0978C76.4247 87.7481 76.4068 85.579 75.0576 84.2521C73.7084 82.9252 71.5388 82.9436 70.2117 84.293C68.8847 85.6429 68.9025 87.8119 70.2518 89.1389Z" stroke="#C77897" stroke-width="1.6" stroke-miterlimit="10"/>
<path d="M75.9566 92.4221C77.3057 93.749 79.4753 93.7308 80.8024 92.381C82.1295 91.032 82.1116 88.8622 80.7624 87.5353C79.4132 86.2083 77.2436 86.2265 75.9165 87.5763C74.5894 88.9261 74.6073 91.0951 75.9566 92.4221Z" stroke="#C77897" stroke-width="1.6" stroke-miterlimit="10"/>
<path d="M84.1962 82.8606C85.5454 84.1874 87.715 84.1691 89.0421 82.8195C90.3692 81.4701 90.3513 79.3005 89.0021 77.9737C87.6529 76.6469 85.4833 76.6652 84.1562 78.0147C82.8291 79.3642 82.847 81.5338 84.1962 82.8606Z" stroke="#C77897" stroke-width="1.6" stroke-miterlimit="10"/>
<path d="M70.6009 61.3155C71.9501 62.6423 74.1197 62.6239 75.4468 61.2744C76.7739 59.925 76.7559 57.7554 75.4067 56.4285C74.0576 55.1017 71.888 55.1201 70.5609 56.4696C69.2338 57.819 69.2517 59.9886 70.6009 61.3155Z" stroke="#C77897" stroke-width="1.6" stroke-miterlimit="10"/>
<path d="M74.8884 61.4728L79.3912 72.9527L79.1015 76.1483C79.1015 76.1483 70.7483 94.1684 69.9039 95.6649C69.0594 97.1613 71.9203 100.147 74.419 97.6059C78.8904 93.0596 76.6294 92.9099 76.6294 92.9099" stroke="#C77897" stroke-width="1.6" stroke-miterlimit="10"/>
<path d="M81.8407 64.567L84.0695 72.5583L81.8407 64.567Z" fill="#C77897"/>
<path d="M81.8407 64.567L84.0695 72.5583" stroke="#C77897" stroke-width="1.6" stroke-miterlimit="10"/>
<path d="M85.521 74.0755L89.7241 70.9744L85.521 74.0755Z" fill="#C77897"/>
<path d="M85.521 74.0755L89.7241 70.9744" stroke="#C77897" stroke-width="1.6" stroke-miterlimit="10"/>
<path d="M83.1378 79.4L80.0524 86.8992L83.1378 79.4Z" fill="#C77897"/>
<path d="M83.1378 79.4L80.0524 86.8992" stroke="#C77897" stroke-width="1.6" stroke-miterlimit="10"/>
<path d="M56.305 49.9641C56.9782 50.6261 58.0606 50.6171 58.7227 49.9439C59.3847 49.2707 59.3756 48.1883 58.7025 47.5263C58.0293 46.8641 56.9468 46.8732 56.2848 47.5464C55.6228 48.2196 55.6318 49.3021 56.305 49.9641Z" fill="#C77897"/>
<path d="M67.9914 24.9434C68.6646 25.6055 69.747 25.5964 70.409 24.9232C71.0711 24.25 71.0621 23.1676 70.3889 22.5056C69.7156 21.8435 68.6332 21.8526 67.9711 22.5258C67.3091 23.1989 67.3181 24.2814 67.9914 24.9434Z" fill="#C77897"/>
<path d="M29.6254 35.7155C30.2986 36.3775 31.3811 36.3686 32.0431 35.6954C32.7051 35.0222 32.6961 33.9397 32.0229 33.2777C31.3497 32.6156 30.2673 32.6247 29.6052 33.2979C28.9432 33.9711 28.9522 35.0535 29.6254 35.7155Z" fill="#C77897"/>
<path d="M68.9553 72.474C69.6285 73.136 70.7109 73.127 71.373 72.4538C72.035 71.7806 72.026 70.6981 71.3528 70.0361C70.6796 69.374 69.5972 69.3831 68.9351 70.0563C68.2731 70.7295 68.2821 71.8119 68.9553 72.474Z" fill="#C77897"/>
<path d="M33.883 69.7187C34.5562 70.3807 35.6386 70.3717 36.3006 69.6985C36.9627 69.0253 36.9537 67.9429 36.2805 67.2808C35.6072 66.6188 34.5248 66.6278 33.8627 67.301C33.2007 67.9742 33.2097 69.0567 33.883 69.7187Z" fill="#C77897"/>
<path d="M44.6776 94.5952C45.3508 95.2572 46.4332 95.2481 47.0952 94.5749C47.7573 93.9017 47.7483 92.8193 47.0751 92.1573C46.4019 91.4953 45.3194 91.5043 44.6574 92.1774C43.9953 92.8507 44.0044 93.9331 44.6776 94.5952Z" fill="#C77897"/>
<path d="M84.5718 41.7248C85.245 42.3868 86.3274 42.3778 86.9894 41.7046C87.6515 41.0314 87.6425 39.949 86.9693 39.2869C86.2961 38.6249 85.2136 38.6339 84.5516 39.3071C83.8895 39.9803 83.8986 41.0628 84.5718 41.7248Z" fill="#C77897"/>
<path d="M94.9847 87.2066C95.6579 87.8685 96.7401 87.8594 97.4021 87.1861C98.0641 86.5127 98.0557 85.4305 97.3823 84.7685C96.709 84.1065 95.6267 84.1155 94.9645 84.7887C94.3024 85.4619 94.3115 86.5446 94.9847 87.2066Z" fill="#C77897"/>
</svg>
