<svg width="1042" height="1042" viewBox="0 0 1042 1042" fill="none" xmlns="http://www.w3.org/2000/svg">
<path fill-rule="evenodd" clip-rule="evenodd" d="M860.078 180.785C672.627 -6.66702 368.707 -6.66704 181.256 180.785C-6.19596 368.236 -6.19599 672.155 181.256 859.607C368.707 1047.06 672.626 1047.06 860.078 859.607C1047.53 672.156 1047.53 368.236 860.078 180.785ZM888.362 152.5C685.29 -50.5723 356.044 -50.5723 152.971 152.5C-50.1012 355.573 -50.1013 684.819 152.971 887.891C356.044 1090.96 685.29 1090.96 888.362 887.891C1091.44 684.819 1091.44 355.573 888.362 152.5Z" fill="#313940" fill-opacity="0.1"/>
<path d="M915.58 815.025C916.281 814.088 917.07 813.372 917.944 812.877C918.816 812.387 919.698 812.143 920.591 812.144C921.485 812.154 922.324 812.427 923.107 812.964L921.503 815.106C921.069 814.824 920.606 814.693 920.114 814.715C919.623 814.745 919.142 814.903 918.672 815.19C918.202 815.477 917.779 815.87 917.404 816.37C916.992 816.921 916.723 817.479 916.598 818.045C916.468 818.615 916.484 819.149 916.645 819.645C916.81 820.145 917.117 820.564 917.567 820.901C918.036 821.252 918.538 821.439 919.073 821.464C919.609 821.497 920.152 821.36 920.701 821.054C921.246 820.753 921.76 820.279 922.244 819.633L923.128 818.453L924.847 819.741L923.963 820.921C923.575 821.439 923.327 821.964 923.221 822.495C923.111 823.03 923.138 823.533 923.303 824.005C923.473 824.48 923.783 824.886 924.233 825.223C924.665 825.546 925.114 825.73 925.578 825.773C926.044 825.823 926.501 825.74 926.949 825.521C927.393 825.307 927.794 824.962 928.151 824.484C928.492 824.029 928.726 823.541 928.855 823.019C928.984 822.506 928.986 822.01 928.86 821.533C928.74 821.059 928.472 820.653 928.059 820.315L929.586 818.275C930.324 818.863 930.821 819.584 931.077 820.436C931.33 821.292 931.356 822.192 931.154 823.134C930.952 824.076 930.531 824.975 929.891 825.83C929.22 826.725 928.466 827.367 927.629 827.755C926.792 828.151 925.953 828.31 925.109 828.233C924.263 828.159 923.498 827.863 922.815 827.344C922.029 826.763 921.529 826.047 921.313 825.197C921.095 824.352 921.165 823.496 921.523 822.629L921.414 822.547C920.578 823.369 919.672 823.811 918.694 823.875C917.714 823.942 916.784 823.643 915.905 822.978C915.133 822.407 914.604 821.677 914.319 820.789C914.029 819.905 913.987 818.961 914.192 817.957C914.402 816.957 914.864 815.98 915.58 815.025Z" fill="#313940"/>
<path d="M905.905 820.011C906.142 819.713 906.381 819.46 906.624 819.254C906.863 819.045 907.057 818.901 907.205 818.823L908.461 820.6C908.074 820.888 907.774 821.179 907.562 821.475C907.349 821.771 907.257 822.107 907.285 822.484C907.309 822.866 907.481 823.321 907.801 823.85L908.287 824.637L921.657 829.114L919.964 831.253L909.941 827.545L909.857 827.652L915.763 836.558L914.064 838.702L905.781 825.261C905.402 824.642 905.147 824.035 905.017 823.439C904.883 822.84 904.888 822.257 905.033 821.69C905.177 821.123 905.468 820.564 905.905 820.011Z" fill="#313940"/>
<path d="M900.96 828.748L905.534 832.605L904.847 833.419C904.862 833.789 904.942 834.157 905.086 834.524C905.227 834.895 905.437 835.284 905.718 835.692C905.995 836.104 906.347 836.549 906.775 837.029C907.207 837.513 907.716 838.046 908.302 838.629L911.772 842.09L906.036 848.892L897.716 841.876L896.419 843.414L891.845 839.557L893.45 837.655L896.336 840.088L902.22 833.11L899.334 830.676L900.96 828.748ZM903.089 835.504L899.32 839.974L905.972 845.583L908.632 842.43L906.742 840.48C905.775 839.493 904.969 838.598 904.324 837.794C903.683 836.994 903.272 836.23 903.089 835.504Z" fill="#313940"/>
<path d="M888.87 853.409L891.978 864.098L890.122 866.119L880.48 857.263L882.17 855.424L889.187 861.87L886.055 851.194L887.929 849.154L897.57 858.009L895.881 859.848L888.87 853.409Z" fill="#313940"/>
<path d="M874.726 863.392L875.845 871.719L883.905 872.726L881.8 874.815L875.096 873.807L874.449 874.449L878.279 878.309L876.47 880.104L872.64 876.244L872.011 876.868L872.967 883.58L870.862 885.669L869.898 877.62L861.599 876.418L863.746 874.287L870.486 875.284L871.091 874.683L867.249 870.811L869.058 869.017L872.9 872.888L873.505 872.288L872.579 865.523L874.726 863.392Z" fill="#313940"/>
<path d="M860.682 877.362L861.447 885.729L869.457 887.077L867.265 889.075L860.61 887.783L859.936 888.397L863.599 892.416L861.715 894.133L858.052 890.114L857.397 890.711L858.068 897.457L855.876 899.455L855.255 891.372L847.014 889.82L849.25 887.782L855.941 889.063L856.571 888.489L852.897 884.458L854.78 882.741L858.455 886.772L859.084 886.198L858.446 879.4L860.682 877.362Z" fill="#313940"/>
<path d="M841.757 893.981C842.737 893.142 843.76 892.628 844.826 892.441C845.892 892.261 846.944 892.389 847.982 892.824C849.02 893.267 849.98 894.004 850.863 895.035C851.736 896.054 852.315 897.114 852.6 898.216C852.881 899.322 852.866 900.386 852.553 901.41C852.236 902.437 851.615 903.346 850.692 904.137C850.131 904.617 849.508 904.99 848.822 905.256C848.137 905.521 847.415 905.634 846.656 905.596C845.898 905.557 845.126 905.325 844.341 904.897C843.559 904.474 842.783 903.812 842.01 902.91L841.422 902.224L849.326 895.454L850.568 896.904L844.561 902.049C844.997 902.558 845.487 902.921 846.03 903.136C846.578 903.355 847.137 903.419 847.708 903.326C848.275 903.237 848.809 902.978 849.309 902.549C849.853 902.083 850.213 901.543 850.39 900.928C850.566 900.321 850.581 899.71 850.435 899.094C850.288 898.486 850.003 897.934 849.578 897.438L848.607 896.305C848.038 895.641 847.438 895.175 846.805 894.909C846.169 894.646 845.534 894.573 844.9 894.689C844.27 894.81 843.673 895.112 843.107 895.596C842.741 895.91 842.45 896.249 842.237 896.611C842.027 896.977 841.903 897.361 841.864 897.761C841.825 898.161 841.88 898.566 842.03 898.976L839.915 900.215C839.6 899.55 839.459 898.852 839.491 898.121C839.523 897.398 839.727 896.681 840.105 895.968C840.482 895.264 841.032 894.602 841.757 893.981Z" fill="#313940"/>
<path d="M833.357 911.01L831.973 909.29L837.498 904.845L838.882 906.565L833.357 911.01ZM841.738 911.257L833.532 901.057L835.478 899.492L843.683 909.692L841.738 911.257ZM835.383 916.37L827.177 906.169L829.116 904.61L837.322 914.81L835.383 916.37Z" fill="#313940"/>
<path d="M825.419 912.06L826.593 923.13L824.409 924.792L816.481 914.375L818.468 912.862L824.239 920.445L823.039 909.383L825.243 907.706L833.172 918.123L831.185 919.635L825.419 912.06Z" fill="#313940"/>
<path d="M809.467 918.816C810.517 918.066 811.581 917.645 812.66 917.553C813.737 917.468 814.774 917.688 815.769 918.213C816.764 918.745 817.656 919.564 818.444 920.67C819.223 921.761 819.707 922.868 819.894 923.991C820.076 925.117 819.967 926.176 819.565 927.168C819.158 928.163 818.46 929.014 817.47 929.721C816.869 930.15 816.215 930.466 815.509 930.67C814.803 930.874 814.074 930.923 813.322 930.818C812.569 930.713 811.821 930.412 811.077 929.917C810.336 929.427 809.621 928.699 808.931 927.732L808.406 926.997L816.876 920.951L817.985 922.505L811.547 927.1C811.937 927.646 812.393 928.05 812.915 928.312C813.441 928.579 813.992 928.692 814.57 928.65C815.142 928.611 815.697 928.4 816.233 928.017C816.816 927.601 817.222 927.095 817.453 926.498C817.681 925.909 817.75 925.301 817.659 924.675C817.567 924.057 817.331 923.482 816.952 922.95L816.085 921.736C815.577 921.024 815.02 920.507 814.413 920.186C813.802 919.868 813.176 919.739 812.535 919.799C811.897 919.863 811.275 920.111 810.669 920.544C810.276 920.824 809.957 921.136 809.713 921.478C809.472 921.824 809.314 922.195 809.24 922.59C809.166 922.985 809.185 923.394 809.298 923.816L807.082 924.863C806.827 924.173 806.747 923.465 806.844 922.74C806.939 922.023 807.207 921.326 807.645 920.65C808.083 919.981 808.69 919.37 809.467 918.816Z" fill="#313940"/>
<rect x="986.831" y="773.987" width="56" height="56" rx="28" transform="rotate(120 986.831 773.987)" fill="white"/>
<path d="M944.636 775.503C948.65 777.821 949.585 784.062 949.717 785.13C949.729 785.225 949.678 785.312 949.59 785.349C948.607 785.765 942.838 788.036 938.828 785.827C938.79 785.806 938.751 785.784 938.713 785.762C935.88 784.127 934.909 780.504 936.545 777.671C938.18 774.839 941.803 773.868 944.636 775.503ZM944.636 775.503C944.636 775.503 944.636 775.503 944.636 775.503ZM951.57 773.644C959.796 778.393 960.374 788.987 960.415 790.335C960.417 790.423 960.367 790.501 960.286 790.535C959.687 790.794 957.09 791.837 953.593 792.14C953.437 792.153 953.34 792.316 953.4 792.459C953.802 793.418 953.991 794.142 954.064 794.464C954.088 794.57 954.03 794.673 953.926 794.705C952.868 795.034 947.176 796.511 940.571 792.698L940.57 792.697L940.405 792.602C940.372 792.583 940.34 792.563 940.309 792.541C939.166 791.839 938.161 790.933 937.343 789.867C936.464 788.721 935.819 787.413 935.445 786.018C935.071 784.622 934.976 783.167 935.164 781.735C935.353 780.303 935.822 778.922 936.544 777.671C937.266 776.42 938.228 775.323 939.374 774.444C940.52 773.564 941.828 772.919 943.223 772.545C944.618 772.172 946.074 772.076 947.506 772.265C948.938 772.453 950.319 772.922 951.57 773.644Z" stroke="#C77897" stroke-width="2.4" stroke-linejoin="round"/>
<path d="M790.03 107.14L799.786 92.6663L801.97 94.1383L797.73 100.428L804.946 105.292L809.185 99.002L811.376 100.479L801.62 114.952L799.429 113.475L803.683 107.165L796.468 102.301L792.214 108.612L790.03 107.14Z" fill="#313940"/>
<path d="M808.03 119.871C806.983 119.117 806.242 118.245 805.808 117.253C805.381 116.26 805.256 115.208 805.433 114.097C805.618 112.984 806.107 111.876 806.9 110.774C807.683 109.685 808.577 108.872 809.58 108.334C810.588 107.799 811.626 107.562 812.694 107.624C813.767 107.689 814.797 108.077 815.784 108.787C816.384 109.219 816.894 109.736 817.314 110.339C817.734 110.942 818.015 111.617 818.157 112.363C818.299 113.109 818.255 113.914 818.025 114.778C817.799 115.637 817.339 116.549 816.646 117.513L816.118 118.246L807.671 112.168L808.786 110.619L815.206 115.238C815.598 114.694 815.834 114.132 815.914 113.553C815.998 112.97 815.928 112.411 815.702 111.878C815.482 111.348 815.104 110.891 814.569 110.506C813.988 110.088 813.377 109.866 812.738 109.84C812.107 109.812 811.509 109.943 810.945 110.23C810.39 110.516 809.921 110.924 809.539 111.455L808.668 112.665C808.157 113.375 807.847 114.069 807.738 114.747C807.633 115.427 807.712 116.061 807.975 116.65C808.241 117.233 808.676 117.742 809.28 118.177C809.672 118.459 810.069 118.661 810.472 118.782C810.878 118.899 811.28 118.93 811.677 118.873C812.075 118.816 812.456 118.666 812.819 118.424L814.523 120.185C813.952 120.649 813.307 120.952 812.589 121.093C811.879 121.233 811.134 121.204 810.352 121.006C809.579 120.807 808.805 120.428 808.03 119.871Z" fill="#313940"/>
<path d="M814.721 124.464L822.69 114.077L831.163 120.578L823.194 130.964L821.213 129.444L827.843 120.802L823.319 117.332L816.689 125.974L814.721 124.464Z" fill="#313940"/>
<path d="M822.927 136.732L834.263 122.751L836.196 124.318L834.86 125.966L835.025 126.101C835.312 125.982 835.676 125.871 836.118 125.768C836.559 125.666 837.056 125.666 837.608 125.77C838.164 125.87 838.758 126.175 839.389 126.687C840.21 127.352 840.774 128.154 841.082 129.091C841.39 130.029 841.41 131.036 841.143 132.114C840.881 133.196 840.304 134.287 839.413 135.385C838.522 136.484 837.575 137.278 836.571 137.767C835.572 138.251 834.58 138.445 833.597 138.35C832.617 138.251 831.716 137.868 830.895 137.202C830.278 136.701 829.856 136.188 829.632 135.662C829.412 135.14 829.304 134.65 829.309 134.193C829.313 133.736 829.344 133.351 829.4 133.038L829.281 132.942L824.906 138.337L822.927 136.732ZM832.081 129.408C831.501 130.122 831.097 130.833 830.867 131.54C830.638 132.247 830.597 132.911 830.743 133.534C830.892 134.153 831.251 134.693 831.821 135.155C832.412 135.634 833.033 135.878 833.685 135.887C834.34 135.891 834.989 135.704 835.632 135.326C836.279 134.951 836.879 134.424 837.43 133.745C837.974 133.074 838.361 132.389 838.591 131.69C838.825 130.995 838.867 130.331 838.715 129.696C838.569 129.065 838.197 128.508 837.602 128.025C837.028 127.56 836.423 127.314 835.786 127.288C835.153 127.265 834.521 127.436 833.888 127.801C833.256 128.166 832.653 128.701 832.081 129.408Z" fill="#313940"/>
<path d="M841.268 140.943L851.856 137.507L853.933 139.3L845.379 149.21L843.489 147.578L849.715 140.365L839.141 143.825L837.044 142.015L845.598 132.105L847.488 133.737L841.268 140.943Z" fill="#313940"/>
<path d="M853.435 156.422L860.789 148.353L858.471 146.24C857.921 145.739 857.376 145.477 856.836 145.453C856.296 145.43 855.836 145.626 855.457 146.042C855.082 146.454 854.921 146.914 854.972 147.422C855.032 147.93 855.318 148.418 855.83 148.884L858.822 151.611L857.433 153.136L854.441 150.409C853.727 149.758 853.217 149.078 852.911 148.368C852.612 147.658 852.522 146.956 852.638 146.263C852.759 145.574 853.091 144.931 853.635 144.335C854.19 143.726 854.811 143.331 855.498 143.15C856.194 142.969 856.921 143.002 857.681 143.248C858.444 143.499 859.196 143.96 859.935 144.634L864.023 148.36L855.205 158.035L853.435 156.422ZM847.085 150.635L854.268 148.233L856.195 149.99L849.013 152.392L847.085 150.635Z" fill="#313940"/>
<path d="M864.718 151.885L866.242 150.301L874.202 157.959L872.677 159.544L869.6 156.583L862.048 164.432L860.255 162.707L867.807 154.858L864.718 151.885Z" fill="#313940"/>
<path d="M878.362 170.008L876.783 171.55L871.827 166.479L873.406 164.936L878.362 170.008ZM877.802 161.642L868.439 170.791L866.693 169.005L876.057 159.856L877.802 161.642ZM883.502 167.476L874.139 176.624L872.4 174.845L881.763 165.696L883.502 167.476Z" fill="#313940"/>
<path d="M884.226 174.728L886.798 177.528C887.881 178.708 888.423 179.885 888.421 181.059C888.419 182.233 887.956 183.245 887.031 184.094C886.429 184.648 885.756 185.003 885.014 185.161C884.271 185.318 883.508 185.252 882.724 184.961C881.944 184.667 881.193 184.126 880.471 183.339L876.602 179.127L886.243 170.272L887.932 172.111L879.911 179.479L882.09 181.852C882.586 182.392 883.133 182.706 883.733 182.796C884.336 182.882 884.858 182.723 885.297 182.32C885.762 181.893 885.981 181.372 885.955 180.755C885.933 180.135 885.674 179.555 885.178 179.015L882.607 176.216L884.226 174.728ZM885.106 188.386L894.747 179.53L896.471 181.407L886.83 190.263L885.106 188.386Z" fill="#313940"/>
<path d="M893.213 192.074L904.19 190.222L905.983 192.299L896.073 200.853L894.441 198.963L901.654 192.736L890.688 194.614L888.878 192.517L898.788 183.963L900.419 185.854L893.213 192.074ZM906.832 186.5L908.202 188.087C907.475 188.714 906.66 188.967 905.759 188.844C904.866 188.722 904.042 188.225 903.288 187.352C902.538 186.483 902.168 185.598 902.178 184.696C902.192 183.79 902.563 183.024 903.29 182.397L904.654 183.977C904.331 184.256 904.127 184.597 904.041 185.002C903.959 185.403 904.117 185.833 904.514 186.293C904.904 186.745 905.305 186.962 905.717 186.944C906.133 186.93 906.505 186.782 906.832 186.5Z" fill="#313940"/>
<path d="M905.526 206.499L907.153 208.537C906.757 208.897 906.585 209.343 906.639 209.874C906.696 210.41 906.95 210.96 907.4 211.524C907.857 212.097 908.369 212.488 908.936 212.697C909.507 212.903 910.052 212.798 910.572 212.384C910.883 212.136 911.092 211.842 911.199 211.502C911.313 211.163 911.324 210.802 911.229 210.42C911.138 210.042 910.942 209.664 910.641 209.287L909.312 207.621L910.877 206.372L912.206 208.037C912.656 208.601 913.122 208.92 913.603 208.994C914.083 209.069 914.517 208.952 914.903 208.643C915.321 208.31 915.536 207.891 915.548 207.387C915.568 206.884 915.365 206.366 914.94 205.833C914.507 205.292 914.026 204.938 913.494 204.774C912.967 204.605 912.506 204.665 912.11 204.952L910.504 202.94C911.088 202.496 911.728 202.269 912.424 202.258C913.129 202.248 913.828 202.432 914.521 202.809C915.223 203.187 915.864 203.74 916.445 204.468C917.052 205.227 917.454 205.982 917.653 206.732C917.852 207.482 917.856 208.18 917.666 208.826C917.48 209.476 917.107 210.025 916.548 210.471C915.984 210.921 915.387 211.121 914.758 211.071C914.137 211.021 913.534 210.79 912.95 210.377L912.844 210.462C913.132 210.878 913.292 211.325 913.324 211.801C913.355 212.278 913.265 212.743 913.052 213.196C912.84 213.649 912.511 214.053 912.067 214.407C911.441 214.907 910.761 215.166 910.027 215.185C909.297 215.208 908.565 215.015 907.83 214.605C907.104 214.196 906.431 213.603 905.81 212.826C905.208 212.071 904.785 211.3 904.542 210.512C904.307 209.726 904.267 208.983 904.422 208.285C904.581 207.592 904.949 206.996 905.526 206.499Z" fill="#313940"/>
<path d="M913.025 222.087C912.525 221.424 912.196 220.734 912.036 220.014C911.882 219.29 911.922 218.594 912.158 217.925C912.396 217.261 912.858 216.67 913.543 216.153C914.132 215.708 914.703 215.455 915.255 215.394C915.807 215.333 916.34 215.412 916.853 215.629C917.366 215.847 917.859 216.151 918.332 216.542C918.805 216.932 919.257 217.352 919.69 217.802C920.235 218.373 920.677 218.836 921.017 219.192C921.361 219.544 921.654 219.768 921.897 219.862C922.139 219.957 922.383 219.912 922.628 219.727L922.675 219.691C923.269 219.243 923.603 218.727 923.676 218.145C923.753 217.568 923.543 216.95 923.046 216.293C922.529 215.608 921.97 215.183 921.368 215.018C920.774 214.854 920.237 214.836 919.757 214.964L918.749 212.724C919.555 212.471 920.318 212.415 921.036 212.556C921.763 212.698 922.43 212.988 923.039 213.426C923.651 213.86 924.196 214.393 924.672 215.023C924.987 215.44 925.271 215.92 925.523 216.462C925.784 217.006 925.94 217.579 925.989 218.182C926.042 218.79 925.928 219.407 925.646 220.033C925.368 220.655 924.848 221.254 924.087 221.829L917.149 227.068L915.649 225.082L917.078 224.003L917.016 223.921C916.654 223.988 916.246 223.986 915.794 223.915C915.341 223.844 914.876 223.665 914.396 223.379C913.917 223.093 913.46 222.662 913.025 222.087ZM914.991 221.296C915.416 221.858 915.89 222.255 916.413 222.486C916.94 222.722 917.461 222.809 917.977 222.747C918.501 222.687 918.969 222.5 919.382 222.189L920.728 221.172C920.601 221.154 920.427 221.065 920.206 220.904C919.993 220.745 919.764 220.551 919.52 220.322C919.281 220.09 919.049 219.863 918.825 219.641C918.604 219.415 918.42 219.227 918.27 219.076C917.923 218.72 917.567 218.422 917.202 218.185C916.841 217.952 916.476 217.822 916.107 217.795C915.745 217.769 915.383 217.893 915.02 218.166C914.517 218.546 914.276 219.02 914.299 219.587C914.326 220.151 914.556 220.72 914.991 221.296Z" fill="#313940"/>
<path d="M918.827 229.324L929.482 221.719L935.686 230.411L925.031 238.016L923.58 235.983L932.446 229.656L929.133 225.015L920.268 231.342L918.827 229.324Z" fill="#313940"/>
<path d="M928.339 243.925C927.878 243.235 927.588 242.527 927.471 241.799C927.358 241.068 927.438 240.375 927.712 239.721C927.988 239.071 928.483 238.508 929.196 238.031C929.81 237.621 930.395 237.401 930.949 237.372C931.504 237.343 932.031 237.451 932.531 237.698C933.031 237.945 933.506 238.277 933.955 238.694C934.405 239.111 934.833 239.556 935.238 240.03C935.75 240.631 936.165 241.119 936.484 241.494C936.807 241.866 937.087 242.106 937.324 242.214C937.56 242.322 937.806 242.291 938.061 242.121L938.111 242.088C938.729 241.674 939.092 241.179 939.198 240.602C939.308 240.03 939.134 239.401 938.676 238.716C938.199 238.003 937.665 237.547 937.074 237.347C936.491 237.149 935.956 237.1 935.469 237.2L934.591 234.906C935.41 234.7 936.175 234.688 936.884 234.87C937.601 235.054 938.251 235.381 938.833 235.853C939.42 236.322 939.933 236.885 940.372 237.542C940.662 237.976 940.918 238.471 941.139 239.027C941.369 239.585 941.491 240.166 941.506 240.771C941.524 241.381 941.374 241.991 941.057 242.599C940.744 243.205 940.191 243.773 939.397 244.303L932.17 249.135L930.787 247.066L932.275 246.071L932.218 245.986C931.852 246.032 931.446 246.007 930.998 245.91C930.551 245.812 930.096 245.607 929.634 245.294C929.171 244.981 928.74 244.525 928.339 243.925ZM930.347 243.249C930.739 243.835 931.189 244.258 931.698 244.519C932.211 244.784 932.726 244.901 933.245 244.869C933.771 244.838 934.249 244.679 934.679 244.392L936.082 243.454C935.956 243.429 935.787 243.33 935.576 243.157C935.372 242.985 935.155 242.779 934.925 242.536C934.699 242.291 934.481 242.051 934.269 241.816C934.062 241.578 933.889 241.38 933.748 241.221C933.422 240.845 933.083 240.528 932.733 240.27C932.386 240.016 932.029 239.866 931.662 239.817C931.302 239.77 930.934 239.873 930.556 240.126C930.032 240.476 929.764 240.935 929.754 241.503C929.748 242.067 929.946 242.649 930.347 243.249Z" fill="#313940"/>
<path d="M945.697 246.396L942.927 251.558L948.792 251.306L950.279 253.663L942.565 253.701L939.224 260.674L937.737 258.317L940.303 253.213L934.596 253.335L933.105 250.971L940.815 250.925L944.206 244.032L945.697 246.396Z" fill="#313940"/>
<rect x="750.053" y="40.3091" width="56" height="56" rx="28" transform="rotate(30 750.053 40.3091)" fill="white"/>
<path fill-rule="evenodd" clip-rule="evenodd" d="M764.123 69.8648C763.941 69.7057 763.722 69.594 763.487 69.5396C763.251 69.4852 763.006 69.4898 762.773 69.5531C762.133 69.7265 761.474 69.3485 761.301 68.7089C761.127 68.0692 761.505 67.4101 762.145 67.2367C762.76 67.07 763.406 67.0578 764.027 67.2012C764.648 67.3445 765.223 67.639 765.703 68.0585C766.182 68.478 766.551 69.0094 766.775 69.6056C767 70.2017 767.074 70.8441 766.99 71.4757C766.907 72.1072 766.668 72.7084 766.296 73.2256C765.925 73.7429 765.431 74.1603 764.859 74.4406C764.287 74.721 763.654 74.8557 763.018 74.8328C762.382 74.8099 761.762 74.6305 761.212 74.3105L761.209 74.3091L761.814 73.2724L761.214 74.3116L761.212 74.3105L750.821 68.3116C750.248 67.9803 750.051 67.2464 750.382 66.6724C750.714 66.0985 751.448 65.9018 752.021 66.2332L762.418 72.2357C762.627 72.3574 762.862 72.4256 763.104 72.4343C763.345 72.443 763.585 72.3919 763.802 72.2856C764.019 72.1792 764.207 72.0209 764.348 71.8247C764.489 71.6285 764.579 71.4005 764.611 71.161C764.642 70.9214 764.614 70.6777 764.529 70.4516C764.444 70.2255 764.304 70.0239 764.123 69.8648ZM772.031 79.0649C771.768 78.8337 771.451 78.6709 771.11 78.591C770.769 78.5111 770.413 78.5165 770.074 78.6068C769.434 78.7775 768.776 78.3968 768.605 77.7564C768.435 77.116 768.815 76.4585 769.456 76.2878C770.176 76.0959 770.932 76.0844 771.657 76.2541C772.382 76.4239 773.054 76.7699 773.614 77.2613C774.174 77.7528 774.604 78.3746 774.867 79.0718C775.129 79.769 775.215 80.5201 775.118 81.2587C775.021 81.9973 774.744 82.7005 774.31 83.3063C773.877 83.9121 773.301 84.4018 772.633 84.7319C771.965 85.0621 771.226 85.2226 770.482 85.1993C769.737 85.1759 769.01 84.9695 768.364 84.5982L748.155 72.9304C747.581 72.5991 747.384 71.8652 747.716 71.2912C748.047 70.7173 748.781 70.5206 749.355 70.852L769.561 82.518C769.865 82.6925 770.207 82.7895 770.557 82.8004C770.907 82.8114 771.255 82.7359 771.569 82.5805C771.883 82.4251 772.154 82.1947 772.358 81.9096C772.562 81.6246 772.693 81.2936 772.739 80.946C772.784 80.5985 772.744 80.245 772.62 79.9169C772.497 79.5888 772.294 79.2962 772.031 79.0649ZM760.543 83.4696C761.095 83.7858 761.56 84.2332 761.898 84.7723C762.236 85.3122 762.435 85.9272 762.479 86.5628C762.522 87.1984 762.407 87.8348 762.145 88.4155C761.883 88.9961 761.482 89.503 760.977 89.8912C760.472 90.2793 759.878 90.5366 759.25 90.6402C758.621 90.7438 757.977 90.6905 757.374 90.485C756.771 90.2795 756.228 89.9282 755.793 89.4624C755.359 88.9965 755.046 88.4305 754.883 87.8147C754.713 87.174 755.095 86.5171 755.736 86.3475C756.377 86.1779 757.033 86.5597 757.203 87.2004C757.265 87.434 757.384 87.6487 757.548 87.8254C757.713 88.0021 757.919 88.1353 758.148 88.2133C758.377 88.2912 758.621 88.3114 758.859 88.2721C759.098 88.2328 759.323 88.1352 759.514 87.988C759.706 87.8408 759.858 87.6485 759.958 87.4283C760.057 87.208 760.101 86.9666 760.084 86.7255C760.068 86.4845 759.992 86.2512 759.864 86.0464C759.736 85.8416 759.559 85.6717 759.349 85.5517L759.345 85.5492L745.488 77.5492C744.914 77.2179 744.718 76.484 745.049 75.91C745.38 75.3361 746.114 75.1394 746.688 75.4708L760.543 83.4696Z" fill="#C77897"/>
<path d="M131.227 217.784L117.585 206.895L121.572 201.899C122.345 200.931 123.144 200.257 123.971 199.878C124.793 199.494 125.601 199.361 126.394 199.478C127.183 199.592 127.915 199.918 128.59 200.457C129.159 200.91 129.555 201.398 129.779 201.918C129.999 202.435 130.087 202.963 130.042 203.502C129.996 204.032 129.86 204.549 129.634 205.052L129.767 205.158C130.151 204.723 130.65 204.398 131.265 204.183C131.878 203.961 132.545 203.904 133.265 204.013C133.985 204.123 134.698 204.459 135.404 205.022C136.101 205.579 136.596 206.243 136.889 207.015C137.181 207.778 137.218 208.629 136.999 209.567C136.777 210.502 136.244 211.498 135.4 212.555L131.227 217.784ZM131.104 214.317L133.476 211.346C134.262 210.36 134.635 209.501 134.593 208.77C134.552 208.039 134.244 207.445 133.672 206.988C133.241 206.644 132.759 206.437 132.225 206.368C131.692 206.298 131.158 206.38 130.622 206.614C130.09 206.844 129.604 207.234 129.164 207.785L126.735 210.829L131.104 214.317ZM125.129 209.548L127.33 206.79C127.699 206.328 127.942 205.842 128.058 205.332C128.178 204.817 128.165 204.323 128.019 203.85C127.872 203.369 127.579 202.954 127.139 202.603C126.575 202.153 125.945 201.973 125.247 202.063C124.55 202.153 123.875 202.607 123.223 203.424L120.979 206.235L125.129 209.548Z" fill="#313940"/>
<path d="M135.559 198.748L138.032 195.861C139.074 194.645 140.178 193.967 141.344 193.828C142.51 193.69 143.57 194.029 144.524 194.846C145.145 195.378 145.578 196.003 145.823 196.722C146.068 197.44 146.093 198.206 145.898 199.019C145.699 199.828 145.251 200.639 144.557 201.45L140.836 205.793L130.894 197.278L132.518 195.381L140.791 202.466L142.887 200.02C143.363 199.463 143.611 198.882 143.628 198.276C143.642 197.666 143.422 197.167 142.969 196.779C142.489 196.369 141.946 196.214 141.337 196.313C140.724 196.409 140.179 196.735 139.702 197.292L137.229 200.179L135.559 198.748ZM149.014 196.246L139.071 187.73L140.729 185.794L150.672 194.31L149.014 196.246Z" fill="#313940"/>
<path d="M154.997 195.116L150.591 191.069L151.311 190.284C151.312 189.914 151.248 189.543 151.119 189.171C150.995 188.794 150.801 188.396 150.538 187.977C150.278 187.554 149.945 187.093 149.538 186.596C149.127 186.095 148.641 185.54 148.08 184.933L144.76 181.328L150.779 174.775L158.795 182.137L160.155 180.656L164.562 184.703L162.878 186.536L160.098 183.982L153.923 190.704L156.704 193.258L154.997 195.116ZM153.156 188.276L157.111 183.97L150.703 178.084L147.912 181.122L149.717 183.15C150.642 184.176 151.409 185.105 152.019 185.935C152.625 186.762 153.004 187.542 153.156 188.276Z" fill="#313940"/>
<path d="M166.728 177.422C165.83 178.348 164.859 178.954 163.814 179.239C162.77 179.517 161.711 179.487 160.637 179.15C159.563 178.805 158.538 178.159 157.563 177.214C156.6 176.281 155.926 175.279 155.54 174.208C155.157 173.133 155.075 172.071 155.292 171.023C155.512 169.971 156.046 169.008 156.892 168.136C157.407 167.605 157.993 167.176 158.651 166.849C159.309 166.521 160.017 166.341 160.776 166.31C161.535 166.278 162.325 166.438 163.146 166.791C163.963 167.14 164.798 167.728 165.65 168.555L166.299 169.184L159.055 176.655L157.685 175.326L163.19 169.648C162.709 169.181 162.188 168.865 161.627 168.701C161.061 168.533 160.499 168.522 159.938 168.667C159.382 168.808 158.874 169.115 158.416 169.589C157.917 170.103 157.609 170.674 157.49 171.303C157.371 171.923 157.412 172.533 157.615 173.133C157.817 173.725 158.152 174.248 158.621 174.703L159.692 175.741C160.32 176.35 160.961 176.758 161.615 176.965C162.274 177.168 162.913 177.182 163.533 177.007C164.149 176.829 164.716 176.473 165.234 175.939C165.57 175.592 165.828 175.228 166.007 174.848C166.182 174.463 166.27 174.07 166.272 173.668C166.274 173.266 166.181 172.868 165.994 172.473L167.985 171.044C168.361 171.677 168.566 172.359 168.601 173.09C168.637 173.813 168.499 174.546 168.189 175.29C167.879 176.026 167.392 176.737 166.728 177.422Z" fill="#313940"/>
<path d="M171.514 172.11L169.971 170.531L170.308 170.205C170.569 169.952 170.734 169.685 170.802 169.405C170.871 169.117 170.832 168.783 170.685 168.403C170.538 168.023 170.266 167.567 169.869 167.034C169.467 166.497 168.93 165.854 168.259 165.105L164.39 160.784L170.949 154.424L180.062 163.822L178.269 165.561L170.687 157.741L167.615 160.719L170.566 164.055C171.28 164.866 171.857 165.62 172.297 166.318C172.74 167.012 173.035 167.664 173.182 168.273C173.326 168.878 173.311 169.45 173.138 169.99C172.961 170.525 172.615 171.042 172.101 171.541L171.514 172.11Z" fill="#313940"/>
<path d="M186.827 157.982C185.874 158.851 184.867 159.395 183.807 159.615C182.748 159.828 181.692 159.733 180.641 159.33C179.59 158.919 178.608 158.212 177.693 157.208C176.79 156.217 176.178 155.176 175.859 154.083C175.544 152.986 175.527 151.922 175.808 150.889C176.093 149.853 176.685 148.925 177.584 148.106C178.13 147.608 178.741 147.216 179.418 146.93C180.095 146.644 180.813 146.508 181.573 146.523C182.332 146.538 183.111 146.747 183.908 147.15C184.702 147.549 185.499 148.187 186.299 149.065L186.908 149.732L179.217 156.742L177.931 155.331L183.776 150.004C183.325 149.508 182.824 149.161 182.274 148.963C181.72 148.76 181.159 148.714 180.591 148.824C180.027 148.931 179.502 149.206 179.014 149.65C178.485 150.132 178.142 150.684 177.985 151.304C177.828 151.916 177.831 152.527 177.996 153.138C178.161 153.741 178.464 154.284 178.904 154.767L179.909 155.869C180.498 156.516 181.113 156.963 181.753 157.21C182.397 157.453 183.034 157.506 183.664 157.371C184.29 157.231 184.878 156.91 185.428 156.409C185.785 156.083 186.064 155.736 186.267 155.368C186.465 154.995 186.577 154.608 186.604 154.207C186.631 153.806 186.563 153.403 186.401 152.997L188.476 151.693C188.812 152.348 188.975 153.042 188.965 153.773C188.955 154.497 188.773 155.22 188.418 155.944C188.063 156.659 187.533 157.339 186.827 157.982Z" fill="#313940"/>
<path d="M194.384 140.725L195.827 142.396L190.459 147.03L189.016 145.359L194.384 140.725ZM186 140.768L194.554 150.678L192.663 152.31L184.109 142.4L186 140.768ZM192.174 135.439L200.728 145.349L198.844 146.975L190.29 137.065L192.174 135.439Z" fill="#313940"/>
<path d="M203.178 138.809L201.664 127.78L203.795 126.052L212.04 136.22L210.1 137.793L204.099 130.392L205.638 141.411L203.487 143.155L195.242 132.987L197.182 131.414L203.178 138.809Z" fill="#313940"/>
<path d="M220.748 129.399L214.102 120.737L211.614 122.646C211.023 123.099 210.669 123.59 210.551 124.117C210.433 124.644 210.545 125.131 210.887 125.578C211.226 126.019 211.65 126.26 212.16 126.298C212.671 126.329 213.201 126.134 213.751 125.712L216.963 123.248L218.218 124.884L215.006 127.348C214.24 127.936 213.48 128.318 212.728 128.495C211.976 128.663 211.269 128.629 210.608 128.392C209.95 128.151 209.376 127.711 208.885 127.071C208.384 126.417 208.105 125.736 208.048 125.027C207.993 124.311 208.153 123.6 208.529 122.896C208.91 122.189 209.498 121.531 210.291 120.922L214.68 117.555L222.648 127.942L220.748 129.399ZM213.932 134.628L212.834 127.135L214.903 125.547L216.001 133.041L213.932 134.628Z" fill="#313940"/>
<rect x="60.7854" y="251.381" width="56" height="56" rx="28" transform="rotate(-55 60.7854 251.381)" fill="white"/>
<path fill-rule="evenodd" clip-rule="evenodd" d="M88.6302 236.698C88.8127 236.437 89.0915 236.259 89.4051 236.204L99.9152 234.35C102.227 233.942 104.607 234.228 106.756 235.173C108.905 236.118 110.725 237.679 111.987 239.659C113.248 241.638 113.894 243.947 113.843 246.294C113.792 248.641 113.047 250.92 111.7 252.843C110.354 254.765 108.467 256.246 106.28 257.096C104.092 257.947 101.701 258.129 99.4093 257.621C97.1177 257.113 95.0283 255.936 93.4055 254.24C91.7829 252.544 90.6996 250.405 90.2927 248.094V248.094L88.4319 237.595C88.3763 237.281 88.4476 236.958 88.6302 236.698ZM91.0046 238.359L92.6562 247.677C92.9808 249.521 93.845 251.228 95.1396 252.581C96.4342 253.934 98.101 254.872 99.9291 255.278C101.757 255.684 103.665 255.538 105.41 254.859C107.155 254.181 108.66 253 109.734 251.466C110.808 249.932 111.403 248.114 111.444 246.242C111.485 244.37 110.969 242.528 109.963 240.948C108.956 239.369 107.504 238.124 105.79 237.37C104.076 236.616 102.177 236.388 100.333 236.714L91.0046 238.359Z" fill="#C77897"/>
<path d="M252.036 933.883L242.28 948.357L240.097 946.885L244.336 940.595L237.121 935.731L232.881 942.021L230.69 940.544L240.446 926.071L242.637 927.548L238.383 933.858L245.599 938.722L249.853 932.411L252.036 933.883Z" fill="#313940"/>
<path d="M234.036 921.152C235.083 921.906 235.824 922.778 236.259 923.77C236.685 924.763 236.81 925.815 236.633 926.927C236.448 928.039 235.959 929.147 235.166 930.249C234.383 931.338 233.49 932.151 232.487 932.689C231.479 933.224 230.441 933.461 229.372 933.399C228.299 933.334 227.269 932.946 226.282 932.236C225.682 931.804 225.173 931.287 224.753 930.684C224.333 930.081 224.052 929.406 223.91 928.66C223.768 927.914 223.811 927.109 224.041 926.245C224.267 925.386 224.727 924.474 225.421 923.51L225.948 922.777L234.395 928.855L233.28 930.404L226.86 925.785C226.469 926.329 226.232 926.891 226.152 927.47C226.068 928.053 226.139 928.612 226.364 929.145C226.585 929.675 226.963 930.132 227.498 930.517C228.079 930.935 228.689 931.157 229.328 931.183C229.96 931.211 230.557 931.08 231.121 930.793C231.677 930.507 232.145 930.099 232.527 929.568L233.398 928.358C233.909 927.648 234.219 926.954 234.329 926.277C234.433 925.596 234.354 924.962 234.092 924.373C233.825 923.79 233.39 923.281 232.786 922.846C232.394 922.564 231.997 922.362 231.594 922.241C231.189 922.124 230.787 922.094 230.389 922.15C229.991 922.207 229.61 922.357 229.247 922.599L227.543 920.838C228.115 920.374 228.759 920.071 229.477 919.93C230.187 919.79 230.933 919.819 231.714 920.017C232.487 920.216 233.262 920.595 234.036 921.152Z" fill="#313940"/>
<path d="M227.345 916.559L219.377 926.946L210.904 920.445L218.872 910.059L220.853 911.579L214.223 920.221L218.747 923.691L225.377 915.049L227.345 916.559Z" fill="#313940"/>
<path d="M219.139 904.291L207.803 918.272L205.87 916.705L207.206 915.057L207.041 914.922C206.754 915.041 206.39 915.152 205.949 915.255C205.507 915.357 205.01 915.357 204.458 915.253C203.902 915.153 203.309 914.848 202.678 914.336C201.857 913.671 201.292 912.869 200.984 911.932C200.676 910.994 200.656 909.987 200.923 908.909C201.186 907.827 201.762 906.736 202.653 905.638C203.544 904.539 204.492 903.745 205.495 903.256C206.495 902.772 207.486 902.578 208.47 902.673C209.45 902.772 210.35 903.155 211.171 903.821C211.789 904.322 212.21 904.835 212.435 905.361C212.655 905.883 212.762 906.373 212.758 906.83C212.753 907.287 212.722 907.672 212.666 907.985L212.785 908.081L217.16 902.686L219.139 904.291ZM209.986 911.616C210.565 910.901 210.97 910.19 211.199 909.483C211.428 908.777 211.47 908.112 211.324 907.489C211.174 906.87 210.815 906.33 210.246 905.868C209.654 905.389 209.033 905.145 208.382 905.136C207.727 905.132 207.078 905.319 206.435 905.697C205.787 906.072 205.188 906.599 204.637 907.278C204.093 907.949 203.706 908.634 203.476 909.333C203.241 910.028 203.2 910.692 203.351 911.327C203.498 911.958 203.869 912.515 204.465 912.998C205.038 913.463 205.644 913.709 206.281 913.736C206.913 913.758 207.546 913.587 208.178 913.222C208.811 912.857 209.413 912.322 209.986 911.616Z" fill="#313940"/>
<path d="M200.799 900.08L190.21 903.516L188.133 901.723L196.687 891.813L198.577 893.445L192.351 900.658L202.926 897.199L205.023 899.008L196.469 908.918L194.578 907.286L200.799 900.08Z" fill="#313940"/>
<path d="M188.632 884.601L181.277 892.67L183.595 894.783C184.145 895.284 184.69 895.546 185.231 895.57C185.771 895.593 186.23 895.397 186.609 894.981C186.984 894.569 187.146 894.109 187.094 893.601C187.034 893.093 186.748 892.606 186.236 892.139L183.244 889.412L184.633 887.887L187.625 890.614C188.339 891.265 188.849 891.945 189.156 892.655C189.454 893.365 189.545 894.067 189.428 894.76C189.307 895.449 188.975 896.092 188.432 896.688C187.877 897.297 187.255 897.692 186.568 897.873C185.873 898.054 185.145 898.021 184.386 897.775C183.622 897.524 182.87 897.063 182.131 896.389L178.043 892.663L186.862 882.988L188.632 884.601ZM194.981 890.388L187.798 892.79L185.871 891.033L193.053 888.631L194.981 890.388Z" fill="#313940"/>
<path d="M177.349 889.138L175.824 890.722L167.865 883.064L169.389 881.479L172.466 884.44L180.018 876.591L181.811 878.316L174.26 886.165L177.349 889.138Z" fill="#313940"/>
<path d="M163.704 871.015L165.283 869.473L170.239 874.544L168.66 876.087L163.704 871.015ZM164.264 879.381L173.628 870.232L175.373 872.018L166.01 881.167L164.264 879.381ZM158.564 873.547L167.928 864.399L169.667 866.179L160.304 875.327L158.564 873.547Z" fill="#313940"/>
<path d="M157.84 866.295L155.269 863.495C154.185 862.315 153.644 861.138 153.645 859.964C153.647 858.79 154.11 857.778 155.035 856.929C155.637 856.375 156.31 856.02 157.053 855.862C157.795 855.705 158.558 855.771 159.342 856.062C160.122 856.357 160.873 856.897 161.596 857.684L165.464 861.896L155.823 870.751L154.134 868.912L162.156 861.544L159.976 859.171C159.48 858.631 158.933 858.317 158.333 858.227C157.73 858.141 157.208 858.3 156.769 858.703C156.305 859.13 156.085 859.651 156.112 860.268C156.133 860.888 156.392 861.468 156.888 862.008L159.459 864.807L157.84 866.295ZM156.96 852.637L147.319 861.493L145.595 859.616L155.237 850.761L156.96 852.637Z" fill="#313940"/>
<path d="M148.853 848.949L137.877 850.802L136.084 848.724L145.993 840.17L147.625 842.06L140.412 848.287L151.378 846.409L153.188 848.506L143.279 857.06L141.647 855.169L148.853 848.949ZM135.235 854.523L133.865 852.936C134.592 852.309 135.406 852.056 136.307 852.179C137.201 852.301 138.024 852.798 138.778 853.671C139.528 854.54 139.898 855.426 139.888 856.327C139.874 857.233 139.504 857.999 138.777 858.626L137.412 857.046C137.735 856.767 137.939 856.426 138.025 856.021C138.107 855.62 137.949 855.19 137.552 854.73C137.162 854.278 136.761 854.061 136.349 854.079C135.933 854.093 135.562 854.241 135.235 854.523Z" fill="#313940"/>
<path d="M136.54 834.524L134.913 832.486C135.31 832.126 135.481 831.68 135.427 831.149C135.37 830.613 135.117 830.063 134.666 829.499C134.209 828.926 133.697 828.535 133.13 828.326C132.559 828.12 132.014 828.225 131.494 828.639C131.183 828.887 130.975 829.181 130.868 829.521C130.753 829.86 130.743 830.221 130.837 830.603C130.928 830.981 131.124 831.359 131.426 831.737L132.755 833.402L131.189 834.651L129.86 832.986C129.41 832.422 128.945 832.103 128.464 832.029C127.983 831.954 127.549 832.072 127.163 832.38C126.745 832.713 126.531 833.132 126.519 833.636C126.499 834.139 126.701 834.657 127.126 835.19C127.559 835.731 128.041 836.085 128.572 836.249C129.099 836.418 129.56 836.358 129.957 836.071L131.562 838.083C130.979 838.527 130.339 838.754 129.642 838.765C128.937 838.775 128.238 838.591 127.545 838.214C126.844 837.836 126.202 837.283 125.621 836.555C125.015 835.796 124.612 835.041 124.414 834.291C124.215 833.541 124.21 832.843 124.4 832.197C124.586 831.547 124.959 830.998 125.518 830.552C126.082 830.102 126.679 829.902 127.308 829.952C127.929 830.002 128.532 830.233 129.116 830.646L129.223 830.561C128.934 830.145 128.774 829.698 128.742 829.222C128.711 828.745 128.802 828.28 129.014 827.827C129.227 827.374 129.555 826.97 129.999 826.616C130.625 826.116 131.305 825.857 132.039 825.838C132.77 825.815 133.502 826.008 134.236 826.418C134.962 826.827 135.636 827.42 136.256 828.197C136.858 828.952 137.281 829.724 137.524 830.511C137.76 831.297 137.8 832.04 137.644 832.738C137.486 833.432 137.118 834.027 136.54 834.524Z" fill="#313940"/>
<path d="M129.041 818.937C129.541 819.599 129.871 820.29 130.03 821.009C130.184 821.733 130.144 822.429 129.909 823.098C129.67 823.762 129.208 824.353 128.523 824.87C127.934 825.315 127.363 825.568 126.811 825.629C126.259 825.69 125.726 825.611 125.213 825.394C124.7 825.176 124.207 824.872 123.734 824.481C123.261 824.091 122.809 823.671 122.377 823.221C121.832 822.65 121.389 822.187 121.049 821.831C120.705 821.479 120.412 821.255 120.169 821.161C119.927 821.066 119.683 821.111 119.439 821.296L119.391 821.332C118.797 821.78 118.463 822.296 118.39 822.878C118.314 823.455 118.524 824.073 119.02 824.73C119.537 825.415 120.096 825.84 120.698 826.005C121.292 826.169 121.829 826.187 122.309 826.059L123.317 828.299C122.511 828.552 121.749 828.608 121.03 828.467C120.303 828.325 119.636 828.035 119.028 827.597C118.415 827.163 117.871 826.63 117.395 826C117.08 825.583 116.796 825.103 116.543 824.561C116.282 824.017 116.127 823.444 116.077 822.841C116.024 822.233 116.139 821.616 116.421 820.99C116.698 820.368 117.218 819.769 117.98 819.194L124.917 813.955L126.417 815.942L124.989 817.02L125.05 817.102C125.412 817.035 125.82 817.037 126.272 817.108C126.725 817.179 127.191 817.358 127.67 817.644C128.149 817.93 128.606 818.361 129.041 818.937ZM127.075 819.727C126.651 819.165 126.177 818.768 125.653 818.537C125.126 818.301 124.605 818.214 124.089 818.276C123.565 818.337 123.097 818.523 122.685 818.834L121.338 819.851C121.465 819.869 121.639 819.958 121.86 820.119C122.073 820.278 122.302 820.472 122.546 820.701C122.785 820.933 123.017 821.16 123.242 821.382C123.462 821.608 123.647 821.796 123.796 821.947C124.144 822.303 124.5 822.601 124.864 822.838C125.225 823.071 125.59 823.201 125.96 823.228C126.321 823.254 126.683 823.131 127.046 822.857C127.549 822.477 127.79 822.003 127.768 821.436C127.741 820.873 127.51 820.303 127.075 819.727Z" fill="#313940"/>
<path d="M123.239 811.699L112.584 819.305L106.38 810.612L117.035 803.007L118.486 805.04L109.62 811.368L112.933 816.008L121.798 809.681L123.239 811.699Z" fill="#313940"/>
<path d="M113.728 797.098C114.189 797.788 114.478 798.496 114.595 799.224C114.708 799.955 114.628 800.648 114.355 801.302C114.078 801.952 113.583 802.515 112.87 802.992C112.256 803.403 111.672 803.622 111.117 803.651C110.562 803.68 110.035 803.572 109.535 803.325C109.035 803.078 108.56 802.746 108.111 802.329C107.661 801.912 107.234 801.467 106.828 800.993C106.317 800.392 105.901 799.904 105.583 799.529C105.259 799.157 104.979 798.918 104.743 798.809C104.506 798.701 104.26 798.732 104.005 798.902L103.956 798.935C103.337 799.349 102.974 799.844 102.868 800.421C102.758 800.993 102.932 801.622 103.39 802.307C103.867 803.02 104.401 803.476 104.992 803.676C105.576 803.874 106.111 803.923 106.598 803.823L107.475 806.117C106.656 806.323 105.892 806.335 105.182 806.153C104.465 805.969 103.815 805.642 103.233 805.17C102.646 804.701 102.134 804.138 101.695 803.481C101.404 803.047 101.148 802.552 100.927 801.996C100.698 801.438 100.576 800.857 100.561 800.252C100.542 799.642 100.692 799.033 101.01 798.424C101.323 797.818 101.876 797.25 102.669 796.72L109.896 791.888L111.279 793.957L109.791 794.952L109.848 795.037C110.214 794.991 110.62 795.016 111.068 795.113C111.516 795.211 111.971 795.416 112.433 795.729C112.895 796.042 113.326 796.498 113.728 797.098ZM111.719 797.774C111.328 797.189 110.877 796.765 110.368 796.504C109.855 796.239 109.34 796.122 108.821 796.154C108.295 796.185 107.817 796.344 107.387 796.631L105.984 797.569C106.11 797.594 106.279 797.693 106.491 797.866C106.694 798.038 106.911 798.245 107.141 798.487C107.367 798.732 107.586 798.972 107.797 799.207C108.004 799.445 108.177 799.643 108.318 799.802C108.645 800.178 108.983 800.495 109.333 800.753C109.68 801.007 110.037 801.157 110.405 801.206C110.764 801.253 111.133 801.15 111.51 800.897C112.035 800.547 112.302 800.088 112.312 799.52C112.318 798.956 112.12 798.374 111.719 797.774Z" fill="#313940"/>
<path d="M96.3695 794.627L99.1396 789.465L93.2738 789.717L91.7874 787.36L99.5015 787.322L102.843 780.349L104.329 782.706L101.764 787.81L107.47 787.688L108.961 790.052L101.252 790.098L97.8605 796.992L96.3695 794.627Z" fill="#313940"/>
<rect x="292.013" y="1000.71" width="56" height="56" rx="28" transform="rotate(-150 292.013 1000.71)" fill="white"/>
<path fill-rule="evenodd" clip-rule="evenodd" d="M277.944 971.158C278.126 971.317 278.344 971.429 278.58 971.483C278.815 971.538 279.06 971.533 279.293 971.47C279.933 971.296 280.592 971.674 280.766 972.314C280.939 972.954 280.561 973.613 279.921 973.786C279.307 973.953 278.66 973.965 278.039 973.822C277.419 973.678 276.843 973.384 276.364 972.964C275.884 972.545 275.516 972.014 275.291 971.417C275.067 970.821 274.993 970.179 275.076 969.547C275.16 968.916 275.398 968.315 275.77 967.797C276.142 967.28 276.636 966.863 277.208 966.582C277.78 966.302 278.412 966.167 279.049 966.19C279.685 966.213 280.305 966.392 280.855 966.712L280.857 966.714L280.253 967.751L280.853 966.711L280.855 966.712L291.245 972.711C291.819 973.043 292.016 973.777 291.684 974.351C291.353 974.924 290.619 975.121 290.045 974.79L279.648 968.787C279.44 968.666 279.204 968.597 278.962 968.589C278.721 968.58 278.481 968.631 278.264 968.737C278.047 968.844 277.86 969.002 277.719 969.198C277.578 969.394 277.487 969.622 277.456 969.862C277.424 970.102 277.452 970.345 277.537 970.571C277.622 970.797 277.762 970.999 277.944 971.158ZM270.035 961.958C270.299 962.189 270.615 962.352 270.957 962.432C271.298 962.512 271.654 962.506 271.992 962.416C272.633 962.245 273.29 962.626 273.461 963.267C273.632 963.907 273.251 964.564 272.611 964.735C271.891 964.927 271.135 964.939 270.41 964.769C269.684 964.599 269.012 964.253 268.452 963.762C267.892 963.27 267.462 962.648 267.2 961.951C266.938 961.254 266.851 960.503 266.948 959.764C267.045 959.026 267.323 958.322 267.756 957.717C268.19 957.111 268.766 956.621 269.434 956.291C270.101 955.961 270.84 955.8 271.585 955.824C272.329 955.847 273.057 956.053 273.703 956.425L293.912 968.093C294.486 968.424 294.682 969.158 294.351 969.732C294.02 970.306 293.286 970.502 292.712 970.171L272.505 958.505C272.202 958.33 271.86 958.233 271.51 958.223C271.159 958.212 270.812 958.287 270.497 958.442C270.183 958.598 269.912 958.828 269.708 959.113C269.504 959.398 269.373 959.729 269.328 960.077C269.282 960.424 269.323 960.778 269.446 961.106C269.57 961.434 269.772 961.727 270.035 961.958ZM281.524 957.553C280.972 957.237 280.506 956.79 280.169 956.251C279.831 955.711 279.631 955.096 279.588 954.46C279.545 953.825 279.659 953.188 279.921 952.607C280.183 952.027 280.585 951.52 281.09 951.132C281.595 950.744 282.188 950.486 282.817 950.383C283.445 950.279 284.09 950.332 284.693 950.538C285.296 950.743 285.839 951.095 286.273 951.561C286.708 952.026 287.02 952.592 287.183 953.208C287.353 953.849 286.971 954.506 286.331 954.675C285.69 954.845 285.033 954.463 284.863 953.823C284.801 953.589 284.683 953.374 284.518 953.198C284.353 953.021 284.147 952.888 283.919 952.81C283.69 952.732 283.445 952.712 283.207 952.751C282.969 952.79 282.744 952.888 282.552 953.035C282.36 953.182 282.208 953.374 282.109 953.595C282.009 953.815 281.966 954.056 281.982 954.297C281.999 954.538 282.074 954.772 282.203 954.977C282.331 955.181 282.508 955.351 282.718 955.471L282.722 955.474L296.578 963.474C297.152 963.805 297.349 964.539 297.018 965.113C296.686 965.687 295.952 965.884 295.378 965.552L281.524 957.553Z" fill="#C77897"/>
<circle cx="521" cy="525" r="399.5" stroke="#313940" stroke-opacity="0.1"/>
<circle cx="521" cy="525" r="279.5" stroke="#313940" stroke-opacity="0.1"/>
</svg>
