<svg width="24" height="24" viewBox="0 0 24 24" fill="none" xmlns="http://www.w3.org/2000/svg">
<path d="M4.12283 21.7892L6.43849 16.684H17.5202C17.5297 16.684 17.539 16.6838 17.5483 16.6835L19.8723 21.79C19.9859 22.0397 20.235 22.2 20.5094 22.2H20.9472C21.4577 22.2 21.7965 21.6713 21.5832 21.2075L13.0272 2.60749C12.9129 2.35915 12.6646 2.20002 12.3912 2.20002H11.6039C11.3306 2.20002 11.0822 2.35915 10.968 2.60749L2.412 21.2075C2.19867 21.6712 2.53747 22.2 3.04794 22.2H3.48534C3.76004 22.2 4.00935 22.0394 4.12283 21.7892ZM11.9844 4.45743L16.8186 15.08H7.16605L11.9844 4.45743Z" fill="#FE548B" stroke="#FE548B" stroke-width="0.4"/>
</svg>
