<svg width="24" height="24" viewBox="0 0 24 24" fill="none" xmlns="http://www.w3.org/2000/svg">
<path fill-rule="evenodd" clip-rule="evenodd" d="M16.332 2C19.721 2 21.998 4.378 21.998 7.916V16.084C21.998 19.622 19.721 22 16.331 22H7.66305C4.27405 22 1.99805 19.622 1.99805 16.084V7.916C1.99805 4.378 4.27405 2 7.66305 2H16.332ZM16.332 3.5H7.66305C5.13305 3.5 3.49805 5.233 3.49805 7.916V16.084C3.49805 18.767 5.13305 20.5 7.66305 20.5H16.331C18.862 20.5 20.498 18.767 20.498 16.084V7.916C20.498 5.233 18.862 3.5 16.332 3.5ZM10.1285 9.0626L11.996 10.93L13.8625 9.0647C14.1555 8.7717 14.6295 8.7717 14.9225 9.0647C15.2155 9.3577 15.2155 9.8317 14.9225 10.1247L13.056 11.99L14.9245 13.8596C15.2175 14.1526 15.2175 14.6266 14.9245 14.9196C14.7785 15.0666 14.5855 15.1396 14.3945 15.1396C14.2025 15.1396 14.0105 15.0666 13.8645 14.9196L11.996 13.05L10.1305 14.9167C9.98455 15.0637 9.79255 15.1367 9.60055 15.1367C9.40855 15.1367 9.21655 15.0637 9.07055 14.9167C8.77755 14.6237 8.77755 14.1497 9.07055 13.8567L10.936 11.99L9.06855 10.1226C8.77555 9.8296 8.77555 9.3556 9.06855 9.0626C9.36255 8.7696 9.83655 8.7696 10.1285 9.0626Z" fill="#FE548B"/>
</svg>
