<svg width="48" height="48" viewBox="0 0 48 48" fill="none" xmlns="http://www.w3.org/2000/svg">
<rect width="48" height="48" rx="8" fill="white"/>
<path d="M26.251 32.5609L15.8166 24.8056C15.1672 24.3246 15.1672 23.5421 15.8139 23.0631L26.2464 15.3709C26.8982 14.8902 26.9006 14.1092 26.2516 13.6264C25.6028 13.1435 24.5483 13.1418 23.8964 13.6224L13.4612 21.3166C11.5133 22.7595 11.5133 25.1072 13.4593 26.5486L23.8917 34.3025C24.2171 34.5443 24.6442 34.6652 25.0714 34.6652C25.4966 34.6652 25.922 34.5453 26.2471 34.3054C26.8985 33.8245 26.9004 33.0435 26.251 32.5609Z" fill="#FE548B"/>
<path d="M34.6715 32.5609L24.237 24.8056C23.5876 24.3246 23.5876 23.5421 24.2343 23.0631L34.6668 15.3709C35.3186 14.8902 35.321 14.1092 34.672 13.6264C34.0232 13.1435 32.9687 13.1418 32.3168 13.6224L21.8816 21.3166C19.9337 22.7595 19.9337 25.1072 21.8797 26.5486L32.3122 34.3025C32.6375 34.5443 33.0646 34.6652 33.4918 34.6652C33.917 34.6652 34.3424 34.5453 34.6675 34.3054C35.3189 33.8245 35.3208 33.0435 34.6715 32.5609Z" fill="#FE548B"/>
</svg>
