<svg width="312" height="46" viewBox="0 0 312 46" fill="none" xmlns="http://www.w3.org/2000/svg">
<g clip-path="url(#clip0_541_2646)">
<path d="M2.28814 4.41884C104.08 18.846 206.71 26.5304 309.489 27.3353C312.376 27.3505 312.376 22.7945 309.489 22.7794C207.129 21.9745 104.873 14.3964 3.46968 0.0299337C0.657908 -0.380103 -0.568503 4.0088 2.28814 4.41884Z" fill="#FF9AB3"/>
<path d="M270.278 28.8239C229.448 29.3554 188.617 29.8718 147.802 30.4033C108.586 30.9044 68.9075 29.9173 30.111 36.569C27.5535 37.0094 28.2565 41.0035 30.7093 41.049C97.2047 42.1273 163.685 43.7826 230.151 45.9998C233.037 46.091 233.037 41.535 230.151 41.4439C163.685 39.2267 97.2047 37.5713 30.7093 36.4931L31.3075 40.9731C70.6574 34.2303 111.024 35.4452 150.793 34.9289C190.621 34.4125 230.45 33.8962 270.293 33.3798C273.18 33.3495 273.18 28.7935 270.293 28.8239H270.278Z" fill="#FF9AB3"/>
</g>
<defs>
<clipPath id="clip0_541_2646">
<rect width="311" height="46" fill="white" transform="translate(0.660156)"/>
</clipPath>
</defs>
</svg>
