<svg width="80" height="80" viewBox="0 0 80 80" fill="none" xmlns="http://www.w3.org/2000/svg">
<path d="M29.9994 56.2504C28.0531 56.2504 26.2256 55.4942 24.8531 54.1217L23.3781 52.6467C20.5406 49.8092 20.5406 45.1917 23.3781 42.3542L31.1031 34.6292C31.6694 34.0629 32.2994 33.6092 32.9756 33.2767C35.7731 31.8567 39.1631 32.3942 41.3956 34.6292L42.8706 36.1042C44.6169 37.8504 45.3519 40.3354 44.8344 42.7504C44.6894 43.4254 44.0231 43.8592 43.3494 43.7117C42.6744 43.5667 42.2444 42.9029 42.3881 42.2267C42.7269 40.6442 42.2469 39.0167 41.1019 37.8717L39.6269 36.3967C38.1606 34.9292 35.9344 34.5767 34.0894 35.5142C33.6444 35.7317 33.2394 36.0267 32.8681 36.3967L25.1431 44.1217C23.2806 45.9854 23.2806 49.0167 25.1431 50.8792L26.6181 52.3542C28.4194 54.1554 31.5744 54.1554 33.3756 52.3542L37.9369 47.7917C38.4256 47.3029 39.2156 47.3029 39.7044 47.7917C40.1931 48.2792 40.1931 49.0704 39.7044 49.5592L35.1431 54.1217C33.7731 55.4942 31.9456 56.2504 29.9994 56.2504Z" fill="#2595FF"/>
<path d="M43.747 47.5088C41.8658 47.5088 40.0058 46.7738 38.6033 45.3713L37.1283 43.8963C35.382 42.15 34.647 39.665 35.1645 37.25C35.3095 36.5738 35.977 36.1438 36.6495 36.2887C37.3245 36.4338 37.7545 37.0975 37.6108 37.7738C37.272 39.3562 37.752 40.9837 38.897 42.1287L40.372 43.6037C41.8383 45.0712 44.0645 45.4238 45.9095 44.4863C46.3545 44.2688 46.7595 43.9737 47.1308 43.6037L54.8558 35.8787C56.7183 34.015 56.7183 30.9837 54.8558 29.1213L53.3808 27.6463C51.5795 25.845 48.4245 25.845 46.6233 27.6463L42.062 32.2087C41.5733 32.6975 40.7833 32.6975 40.2945 32.2087C39.8058 31.7213 39.8058 30.93 40.2945 30.4412L44.8558 25.8788C46.2258 24.5063 48.0533 23.75 49.9995 23.75C51.9458 23.75 53.7733 24.5063 55.1458 25.8788L56.6208 27.3537C59.4583 30.1912 59.4583 34.8087 56.6208 37.6462L48.8958 45.3713C48.3295 45.9375 47.6995 46.3912 47.0233 46.7237C45.9833 47.2512 44.862 47.5088 43.747 47.5088Z" fill="#2595FF"/>
</svg>
