<svg width="80" height="80" viewBox="0 0 80 80" fill="none" xmlns="http://www.w3.org/2000/svg">
<path d="M30 57.5C29.8162 57.5 29.6313 57.4587 29.4575 57.3762C29.0262 57.1675 28.75 56.7313 28.75 56.25V50H25C22.9325 50 21.25 48.3175 21.25 46.25V26.25C21.25 24.1825 22.9325 22.5 25 22.5H55C57.0675 22.5 58.75 24.1825 58.75 26.25V46.25C58.75 48.3175 57.0675 50 55 50H39.8137L30.7812 57.2262C30.555 57.4075 30.2788 57.5 30 57.5ZM25 25C24.31 25 23.75 25.5612 23.75 26.25V46.25C23.75 46.9387 24.31 47.5 25 47.5H30C30.6912 47.5 31.25 48.0588 31.25 48.75V53.65L38.5938 47.7738C38.8162 47.5963 39.09 47.5 39.375 47.5H55C55.69 47.5 56.25 46.9387 56.25 46.25V26.25C56.25 25.5612 55.69 25 55 25H25Z" fill="#2595FF"/>
<path d="M50 35H30C29.3088 35 28.75 34.44 28.75 33.75C28.75 33.06 29.3088 32.5 30 32.5H50C50.6912 32.5 51.25 33.06 51.25 33.75C51.25 34.44 50.6912 35 50 35Z" fill="#2595FF"/>
<path d="M40 40H30C29.3088 40 28.75 39.44 28.75 38.75C28.75 38.06 29.3088 37.5 30 37.5H40C40.6912 37.5 41.25 38.06 41.25 38.75C41.25 39.44 40.6912 40 40 40Z" fill="#2595FF"/>
</svg>
