<svg width="80" height="80" viewBox="0 0 80 80" fill="none" xmlns="http://www.w3.org/2000/svg">
<path d="M55 26.25H25C22.9321 26.25 21.25 27.9321 21.25 30V50C21.25 52.0679 22.9321 53.75 25 53.75H55C57.0679 53.75 58.75 52.0679 58.75 50V30C58.75 27.9321 57.0679 26.25 55 26.25ZM56.2366 50.0647L44.2542 41.5063L56.25 30.3705V50C56.25 50.0232 56.2378 50.0421 56.2366 50.0647ZM23.75 50V30.3705L35.7458 41.5063L23.7634 50.0647C23.7622 50.0421 23.75 50.0232 23.75 50ZM40 42.0447L25.6787 28.75H54.3213L40 42.0447ZM37.616 43.2422L39.1498 44.6661C39.3896 44.8889 39.6948 45 40 45C40.3052 45 40.6104 44.8889 40.8502 44.6661L42.384 43.2422L53.595 51.25H26.405L37.616 43.2422Z" fill="#2595FF"/>
</svg>
