<svg width="80" height="80" viewBox="0 0 80 80" fill="none" xmlns="http://www.w3.org/2000/svg">
<path d="M48.75 46.25C47.1094 46.25 45.6262 46.8982 44.5099 47.937L36.9513 42.5354C37.298 41.7578 37.5 40.9045 37.5 40C37.5 39.0955 37.298 38.2422 36.9513 37.4646L44.5099 32.063C45.6262 33.1018 47.1094 33.75 48.75 33.75C52.196 33.75 55 30.946 55 27.5C55 24.054 52.196 21.25 48.75 21.25C45.304 21.25 42.5 24.054 42.5 27.5C42.5 28.4045 42.702 29.2578 43.0487 30.0354L35.4901 35.437C34.3738 34.3982 32.8906 33.75 31.25 33.75C27.804 33.75 25 36.554 25 40C25 43.446 27.804 46.25 31.25 46.25C32.8906 46.25 34.3738 45.6018 35.4901 44.563L43.0487 49.9646C42.702 50.7422 42.5 51.5955 42.5 52.5C42.5 55.946 45.304 58.75 48.75 58.75C52.196 58.75 55 55.946 55 52.5C55 49.054 52.196 46.25 48.75 46.25ZM48.75 23.75C50.8179 23.75 52.5 25.4321 52.5 27.5C52.5 29.5679 50.8179 31.25 48.75 31.25C46.6821 31.25 45 29.5679 45 27.5C45 25.4321 46.6821 23.75 48.75 23.75ZM31.25 43.75C29.1821 43.75 27.5 42.0679 27.5 40C27.5 37.9321 29.1821 36.25 31.25 36.25C33.3179 36.25 35 37.9321 35 40C35 42.0679 33.3179 43.75 31.25 43.75ZM48.75 56.25C46.6821 56.25 45 54.5679 45 52.5C45 50.4321 46.6821 48.75 48.75 48.75C50.8179 48.75 52.5 50.4321 52.5 52.5C52.5 54.5679 50.8179 56.25 48.75 56.25Z" fill="#2595FF"/>
</svg>
