<svg width="24" height="24" viewBox="0 0 24 24" fill="none" xmlns="http://www.w3.org/2000/svg">
<g clip-path="url(#clip0_4002_7814)">
<path fill-rule="evenodd" clip-rule="evenodd" d="M11 24L11 18L13 18L13 24L11 24Z" fill="#1A3C54"/>
<path d="M3 10C3 12.3869 3.94821 14.6761 5.63604 16.364C7.32387 18.0518 9.61305 19 12 19C14.3869 19 16.6761 18.0518 18.364 16.364C20.0518 14.6761 21 12.387 21 10L18.8712 10C18.8712 11.8224 18.1473 13.5701 16.8587 14.8587C15.5701 16.1473 13.8224 16.8712 12 16.8712C10.1776 16.8712 8.42991 16.1473 7.14131 14.8587C5.8527 13.5701 5.12877 11.8224 5.12877 10L3 10Z" fill="#1A3C54"/>
<rect x="8" y="1" width="8" height="14" rx="4" fill="#1A3C54"/>
</g>
<defs>
<clipPath id="clip0_4002_7814">
<rect width="24" height="24" fill="white"/>
</clipPath>
</defs>
</svg>
