<svg width="24" height="24" viewBox="0 0 24 24" fill="none" xmlns="http://www.w3.org/2000/svg">
<g clip-path="url(#clip0_4002_7942)">
<g clip-path="url(#clip1_4002_7942)">
<path fill-rule="evenodd" clip-rule="evenodd" d="M20.5347 22.5187L14.9233 16.9073L16.9072 14.9233L22.5187 20.5348L20.5347 22.5187Z" fill="#1A3C54"/>
<path fill-rule="evenodd" clip-rule="evenodd" d="M14.7336 14.7336C17.1077 12.3596 17.1077 8.51054 14.7336 6.13652C12.3596 3.7625 8.51057 3.7625 6.13655 6.13652C3.76253 8.51054 3.76253 12.3596 6.13655 14.7336C8.51057 17.1076 12.3596 17.1076 14.7336 14.7336ZM16.7176 16.7175C20.1873 13.2478 20.1873 7.62229 16.7176 4.15257C13.2479 0.682852 7.62232 0.682852 4.1526 4.15257C0.682882 7.62229 0.682882 13.2478 4.1526 16.7175C7.62232 20.1873 13.2479 20.1873 16.7176 16.7175Z" fill="#1A3C54"/>
</g>
</g>
<defs>
<clipPath id="clip0_4002_7942">
<rect width="24" height="24" fill="white"/>
</clipPath>
<clipPath id="clip1_4002_7942">
<rect width="24" height="24" fill="white"/>
</clipPath>
</defs>
</svg>
