<svg width="24" height="24" viewBox="0 0 24 24" fill="none" xmlns="http://www.w3.org/2000/svg">
<path fill-rule="evenodd" clip-rule="evenodd" d="M20.5345 22.519L14.923 16.9075L16.907 14.9236L22.5184 20.535L20.5345 22.519Z" fill="#1A3C54"/>
<path fill-rule="evenodd" clip-rule="evenodd" d="M14.7331 14.7336C17.1071 12.3596 17.1071 8.51055 14.7331 6.13653C12.3591 3.76251 8.51006 3.76251 6.13604 6.13653C3.76202 8.51055 3.76202 12.3596 6.13604 14.7336C8.51006 17.1076 12.3591 17.1076 14.7331 14.7336ZM16.7171 16.7176C20.1868 13.2478 20.1868 7.6223 16.7171 4.15258C13.2473 0.682862 7.62182 0.682863 4.1521 4.15258C0.682374 7.6223 0.682374 13.2478 4.1521 16.7176C7.62182 20.1873 13.2473 20.1873 16.7171 16.7176Z" fill="#1A3C54"/>
</svg>
