<svg width="24" height="24" viewBox="0 0 24 24" fill="none" xmlns="http://www.w3.org/2000/svg">
<g clip-path="url(#clip0_4002_7820)">
<path fill-rule="evenodd" clip-rule="evenodd" d="M7.40429 14.4746L14.4754 7.40358L16.5967 9.5249L9.52561 16.596L7.40429 14.4746Z" fill="#C2964D"/>
<path fill-rule="evenodd" clip-rule="evenodd" d="M19.4252 4.57507C17.3749 2.52482 14.0508 2.52482 12.0006 4.57507L9.32664 7.249L7.20532 5.12768L9.87926 2.45375C13.1011 -0.768077 18.3247 -0.768077 21.5465 2.45375C24.7683 5.67557 24.7683 10.8992 21.5465 14.121L18.8726 16.7949L16.7513 14.6736L19.4252 11.9997C21.4755 9.94944 21.4755 6.62532 19.4252 4.57507Z" fill="#C2964D"/>
<path fill-rule="evenodd" clip-rule="evenodd" d="M4.5748 19.4249C6.62505 21.4752 9.94917 21.4752 11.9994 19.4249L14.6714 16.7529L16.7927 18.8742L14.1207 21.5463C10.8989 24.7681 5.6753 24.7681 2.45348 21.5463C-0.768346 18.3244 -0.768345 13.1008 2.45348 9.87899L5.12549 7.20698L7.24681 9.3283L4.5748 12.0003C2.52455 14.0506 2.52455 17.3747 4.5748 19.4249Z" fill="#C2964D"/>
</g>
<defs>
<clipPath id="clip0_4002_7820">
<rect width="24" height="24" fill="white"/>
</clipPath>
</defs>
</svg>
