<svg width="373" height="291" viewBox="0 0 373 291" fill="none" xmlns="http://www.w3.org/2000/svg">
<path d="M367.333 288.329C367.333 286.856 368.527 285.662 370 285.662C371.473 285.662 372.667 286.856 372.667 288.329C372.667 289.802 371.473 290.996 370 290.996C368.527 290.996 367.333 289.802 367.333 288.329ZM0.333333 9.8291C0.333333 8.35635 1.52724 7.16245 3 7.16245C4.47276 7.16245 5.66667 8.35635 5.66667 9.8291C5.66667 11.3018 4.47276 12.4958 3 12.4958C1.52724 12.4958 0.333333 11.3018 0.333333 9.8291ZM369.705 288.733C369.222 288.38 368.669 287.697 368.053 286.784C367.426 285.854 366.698 284.631 365.87 283.143C364.214 280.165 362.139 276.092 359.648 271.11C354.664 261.14 348 247.505 339.636 231.617C322.908 199.841 299.393 159.074 268.983 120.702C208.149 43.9411 119.839 -23.1046 3.13763 10.3098L2.86237 9.34842C120.161 -24.2372 208.851 43.2171 269.767 120.081C300.232 158.522 323.779 199.349 340.521 231.151C348.891 247.052 355.563 260.702 360.543 270.663C363.035 275.647 365.1 279.701 366.744 282.657C367.566 284.135 368.278 285.33 368.882 286.225C369.497 287.136 369.966 287.685 370.295 287.925L369.705 288.733Z" fill="#595959"/>
</svg>
