<svg width="222" height="291" viewBox="0 0 222 291" fill="none" xmlns="http://www.w3.org/2000/svg">
<path d="M216.206 3C216.206 4.47276 217.4 5.66667 218.873 5.66667C220.346 5.66667 221.539 4.47276 221.539 3C221.539 1.52724 220.346 0.333333 218.873 0.333333C217.4 0.333333 216.206 1.52724 216.206 3ZM0.333333 281.5C0.333333 282.973 1.52724 284.167 3 284.167C4.47276 284.167 5.66667 282.973 5.66667 281.5C5.66667 280.027 4.47276 278.833 3 278.833C1.52724 278.833 0.333333 280.027 0.333333 281.5ZM218.483 2.68649C218.19 3.05066 217.866 3.73577 217.507 4.64049C217.139 5.56687 216.712 6.78699 216.225 8.27383C215.252 11.2484 214.033 15.319 212.567 20.3013C209.636 30.2703 205.715 43.9074 200.795 59.7974C190.954 91.5779 177.121 132.35 159.231 170.726C141.336 209.114 119.407 245.05 93.3979 267.205C80.3989 278.278 66.3988 285.894 51.3893 288.668C36.3864 291.44 20.3372 289.383 3.21884 281.05L2.78116 281.95C20.0731 290.367 36.3386 292.466 51.571 289.651C66.7969 286.837 80.9527 279.12 94.0463 267.967C120.222 245.669 142.225 209.574 160.137 171.149C178.055 132.712 191.904 91.8908 201.75 60.0932C206.673 44.1942 210.597 30.5461 213.527 20.5834C214.992 15.5999 216.208 11.5431 217.176 8.58481C217.66 7.10522 218.08 5.90756 218.436 5.00932C218.801 4.08942 219.078 3.54309 219.262 3.31351L218.483 2.68649Z" fill="#595959"/>
</svg>
