<svg width="674" height="250" viewBox="0 0 674 250" fill="none" xmlns="http://www.w3.org/2000/svg">
<path d="M668.34 246.552C668.34 245.079 669.534 243.886 671.006 243.886C672.479 243.886 673.673 245.079 673.673 246.552C673.673 248.025 672.479 249.219 671.006 249.219C669.534 249.219 668.34 248.025 668.34 246.552ZM0.327474 8.10477C0.327474 6.632 1.52138 5.4381 2.99414 5.4381C4.4669 5.4381 5.66081 6.632 5.66081 8.10477C5.66081 9.57753 4.4669 10.7714 2.99414 10.7714C1.52138 10.7714 0.327474 9.57753 0.327474 8.10477ZM670.844 247.025C670.038 246.748 669.063 246.189 667.931 245.4C666.793 244.606 665.469 243.56 663.961 242.286C660.946 239.736 657.17 236.248 652.636 231.983C643.563 223.446 631.433 211.772 616.209 198.169C585.765 170.966 542.96 136.058 487.594 103.197C376.867 37.477 215.892 -20.0641 3.06088 8.6003L2.9274 7.60924C216.022 -21.0907 377.222 36.525 488.104 102.337C543.543 135.241 586.4 170.193 616.876 197.424C632.112 211.038 644.256 222.726 653.321 231.254C657.856 235.521 661.615 238.992 664.607 241.522C666.103 242.787 667.401 243.811 668.503 244.58C669.612 245.353 670.496 245.848 671.169 246.079L670.844 247.025Z" fill="#595959"/>
</svg>
