<svg width="582" height="582" viewBox="0 0 582 582" fill="none" xmlns="http://www.w3.org/2000/svg">
<g clip-path="url(#clip0_2075_751)">
<path d="M219.655 -152.873L260.546 -81.2176C275.152 -55.6238 280.456 -25.7662 275.559 3.29205C274.429 9.99774 272.765 16.6024 270.583 23.0431L258.172 59.679C243.259 103.7 254.58 152.37 287.391 185.289C302.901 200.851 322.316 211.949 343.597 217.416L358.485 221.241C382.044 227.294 406.593 228.463 430.621 224.678L474.231 217.807L474.092 216.927L430.482 223.798C406.574 227.564 382.148 226.4 358.706 220.378L343.819 216.553C322.693 211.126 303.419 200.109 288.022 184.66C255.45 151.98 244.212 103.665 259.016 59.965L271.427 23.3291C273.624 16.8434 275.3 10.1926 276.438 3.44014C281.369 -25.8209 276.028 -55.8869 261.32 -81.6594L220.429 -153.315L219.655 -152.873Z" fill="white" fill-opacity="0.2"/>
<path d="M53.1764 31.7491L109.634 130.564C129.806 165.869 137.134 207.069 130.373 247.165C128.813 256.419 126.515 265.534 123.502 274.422L106.414 324.821C85.839 385.505 101.458 452.608 146.717 497.969C168.082 519.381 194.815 534.648 224.112 542.17L244.739 547.465C277.227 555.805 311.076 557.42 344.21 552.209L404.407 542.741L404.269 541.861L344.072 551.328C311.058 556.52 277.331 554.912 244.961 546.602L224.333 541.306C195.191 533.825 168.599 518.638 147.348 497.339C102.329 452.218 86.7919 385.471 107.258 325.107L124.346 274.708C127.374 265.775 129.684 256.614 131.252 247.313C138.047 207.014 130.682 165.606 110.408 130.121L53.9503 31.3069L53.1764 31.7491Z" fill="white" fill-opacity="0.2"/>
<path d="M187.851 111.299L146.96 39.6427L147.734 39.201L188.626 110.857C203.333 136.629 208.674 166.695 203.743 195.956C202.605 202.709 200.929 209.36 198.732 215.845L186.321 252.481C171.517 296.181 182.756 344.496 215.327 377.176C230.724 392.625 249.998 403.642 271.124 409.069L286.012 412.894C309.453 418.916 333.879 420.08 357.787 416.314L401.397 409.443L401.536 410.324L357.926 417.194C333.898 420.98 309.349 419.81 285.79 413.757L270.902 409.932C249.621 404.465 230.206 393.368 214.696 377.805C181.885 344.886 170.564 296.216 185.477 252.195L197.888 215.559C200.07 209.119 201.734 202.514 202.864 195.808C207.761 166.75 202.457 136.892 187.851 111.299Z" fill="white" fill-opacity="0.2"/>
</g>
<defs>
<clipPath id="clip0_2075_751">
<rect width="581" height="581" fill="white" transform="translate(0.68457 0.585938)"/>
</clipPath>
</defs>
</svg>
