<svg width="580" height="580" viewBox="0 0 580 580" fill="none" xmlns="http://www.w3.org/2000/svg">
<g clip-path="url(#clip0_2002_757)">
<path d="M224.59 -44.4281L264.448 12.7418C278.668 33.1382 285.396 57.8251 283.491 82.6161C283.052 88.3371 282.156 94.0138 280.812 99.5921L273.161 131.359C263.956 169.575 277.202 209.706 307.348 234.933C321.599 246.858 338.799 254.726 357.14 257.708L369.957 259.793C390.254 263.093 411.013 262.207 430.956 257.189L467.122 248.088L466.878 247.118L430.712 256.219C410.901 261.204 390.28 262.084 370.117 258.806L357.301 256.721C339.137 253.768 322.103 245.976 307.99 234.166C278.135 209.183 265.017 169.44 274.133 131.593L281.784 99.8262C283.141 94.1962 284.045 88.4668 284.488 82.6927C286.411 57.6716 279.62 32.7556 265.268 12.1699L225.41 -45L224.59 -44.4281Z" fill="white" fill-opacity="0.2"/>
<path d="M217.948 180.242L178.09 123.072L178.91 122.5L218.768 179.67C233.12 200.256 239.911 225.172 237.988 250.193C237.545 255.967 236.641 261.696 235.284 267.326L227.633 299.093C218.517 336.94 231.635 376.683 261.49 401.666C275.603 413.476 292.637 421.268 310.801 424.221L323.617 426.306C343.78 429.584 364.401 428.704 384.212 423.719L420.378 414.618L420.622 415.588L384.456 424.689C364.513 429.707 343.754 430.593 323.457 427.293L310.64 425.208C292.299 422.226 275.099 414.358 260.848 402.433C230.702 377.206 217.456 337.075 226.661 298.859L234.312 267.092C235.656 261.514 236.552 255.837 236.991 250.116C238.896 225.325 232.168 200.638 217.948 180.242Z" fill="white" fill-opacity="0.2"/>
<path d="M153.612 202.405L98.5898 123.572L99.4099 123L154.432 201.833C174.207 230.165 183.564 264.47 180.914 298.919C180.303 306.87 179.056 314.759 177.187 322.511L166.649 366.213C154.038 418.51 172.176 473.433 213.451 507.935C232.934 524.221 256.442 534.963 281.507 539.035L299.264 541.919C327.113 546.443 355.593 545.228 382.955 538.35L432.878 525.801L433.122 526.771L383.199 539.32C355.704 546.231 327.087 547.452 299.104 542.906L281.346 540.022C256.104 535.921 232.431 525.103 212.81 508.702C171.243 473.957 152.977 418.645 165.677 365.979L176.215 322.277C178.072 314.577 179.31 306.74 179.917 298.842C182.549 264.623 173.255 230.548 153.612 202.405Z" fill="white" fill-opacity="0.2"/>
</g>
<defs>
<clipPath id="clip0_2002_757">
<rect width="580" height="580" fill="white"/>
</clipPath>
</defs>
</svg>
