<svg width="180" height="180" viewBox="0 0 180 180" fill="none" xmlns="http://www.w3.org/2000/svg">
<path d="M9 69C9 40.7157 9 26.5736 17.7868 17.7868C26.5736 9 40.7157 9 69 9H111C139.284 9 153.426 9 162.213 17.7868C171 26.5736 171 40.7157 171 69V111C171 139.284 171 153.426 162.213 162.213C153.426 171 139.284 171 111 171H69C40.7157 171 26.5736 171 17.7868 162.213C9 153.426 9 139.284 9 111V69Z" fill="#1E232D"/>
<path d="M87.6 132.134L83.6936 135.6L82.2872 101.47L82.2 99.3396L86.1605 97.2L86.2477 99.3304L87.6 132.134Z" fill="url(#paint0_linear_1_2)"/>
<path d="M82.2 136.962L78.06 140.4L76.8 108.323L80.9988 106.2L82.2 136.962Z" fill="url(#paint1_linear_1_2)"/>
<path d="M76.8 141.62L72.543 145.2L71.4 110.739L75.5803 108.6L76.8 141.62Z" fill="url(#paint2_linear_1_2)"/>
<path d="M71.4 145.2L67.054 143.308L66 113.718L70.1966 111.6L71.4 145.2Z" fill="url(#paint3_linear_1_2)"/>
<path d="M65.4 142.8L61.3696 140.909L60.6 116.643L64.4866 114.6L65.4 142.8Z" fill="url(#paint4_linear_1_2)"/>
<path d="M97.2 104.453L122.786 91.4409C122.786 91.4409 123.875 90.972 123.889 90.1437C123.904 89.3154 124.878 83.2632 124.878 83.2632L127.8 81.6L127.747 93.7409C127.747 93.7409 127.822 95.1384 126.277 95.938C124.731 96.7377 105.314 106.8 105.314 106.8" fill="#01FEFF"/>
<path d="M137.363 75.6076L139.031 74.7134V74.7147C140.169 74.1045 141.05 72.5763 140.998 71.2991L140.122 49.8L136.393 51.7971L136.776 61.2072L133.331 63.0524L132.948 53.6423L129.219 55.6393L129.685 67.0843C129.734 68.2704 130.631 68.7736 131.689 68.207L133.108 67.4473L133.108 67.4475L133.501 67.2369L133.501 67.2375L133.502 67.2363L133.503 67.2362L136.947 65.3916L137.192 71.4233L130.839 74.8258L128.702 80.2451L137.363 75.6065L137.363 75.6076Z" fill="white"/>
<path fill-rule="evenodd" clip-rule="evenodd" d="M123.694 78.2073L123.452 72.2537L118.536 74.8866L118.779 80.8395L115.049 82.8366L114.425 67.5137C114.336 65.3344 115.839 62.7257 117.781 61.6849L117.988 61.5746L122.909 58.9397L122.909 58.9391L125.021 57.8085C125.914 57.3304 126.671 57.7544 126.712 58.7569L127.423 76.211L123.694 78.2073ZM123.08 63.1228L123.281 68.0692L118.366 70.7021L118.164 65.7557L123.08 63.1228Z" fill="white"/>
<path d="M127.423 76.211L127.424 76.2102L127.423 76.2116L127.423 76.211Z" fill="white"/>
<path d="M102.013 70.1318L102.798 89.4L112.946 83.965L112.775 79.7806L106.356 83.2194L105.741 68.1347L102.013 70.1318Z" fill="white"/>
<path fill-rule="evenodd" clip-rule="evenodd" d="M88.4244 103.418L87.9568 91.7659L87.9501 91.7695L87.7809 87.5997L87.7894 87.5951L87.5731 82.2054L87.5607 82.212L87.3915 78.0422L98.0289 72.3454C99.0695 71.7881 99.953 72.282 99.9996 73.451L100.084 75.5062L100.083 75.5054L100.302 80.8925V80.8938L100.386 82.949C100.434 84.1166 99.6281 85.5154 98.5874 86.0728L91.6731 89.7757L92.1407 101.427L88.4244 103.418ZM96.3664 77.4952L91.2894 80.2147L91.5057 85.6044L96.586 82.8832L96.3664 77.4952Z" fill="white"/>
<path d="M54.0447 100.846L62.8504 96.1292L63.0699 101.516L57.9802 104.242L57.8968 102.194L54.1805 104.185L54.908 122.052L58.6244 120.061L58.15 108.412L65.0714 104.705C66.1121 104.148 66.9182 102.749 66.8703 101.581L66.7863 99.5262V99.5249L66.7849 99.5256L66.5665 94.1391L66.5675 94.1401L66.4836 92.0849C66.4369 90.916 65.5535 90.422 64.5128 90.9794L53.8755 96.6761L54.0447 100.846Z" fill="white"/>
<path d="M52.1935 97.6443L39.6 104.39L39.841 110.324L43.4534 108.391L43.3761 106.508L52.3574 101.698L52.1935 97.6443Z" fill="white"/>
<path d="M52.6653 109.228L40.0718 115.972L39.9066 111.92L52.5 105.176L52.6653 109.228Z" fill="white"/>
<path d="M40.2129 119.592L40.1356 117.71L43.748 115.775L43.8236 117.616L52.8103 112.802L52.9755 116.855L40.382 123.6L40.2185 119.589L40.2129 119.592Z" fill="white"/>
<path d="M68.2514 93.2738L71.9678 91.2833L71.7986 87.1148L68.0822 89.1053L68.2514 93.2738Z" fill="white"/>
<path d="M68.8655 108.374L72.5818 106.383L72.0422 93.1075L68.3258 95.098L68.8655 108.374Z" fill="white"/>
<path d="M116.662 93.242L116.654 87.5783C116.654 87.5202 116.673 87.4634 116.709 87.4066C116.746 87.3498 116.793 87.3075 116.849 87.2771L117.646 86.865C117.702 86.836 117.748 86.8307 117.786 86.8492C117.823 86.8677 117.84 86.906 117.84 86.9641L117.843 88.9902C117.843 89.0484 117.861 89.0867 117.899 89.1051C117.936 89.1236 117.983 89.1184 118.039 89.0893L118.777 88.7076C118.913 88.6376 119.019 88.5293 119.099 88.3853L120.894 85.3421C120.973 85.1968 121.081 85.0898 121.217 85.0198L122.395 84.4096C122.435 84.3898 122.46 84.3938 122.471 84.4228C122.483 84.4453 122.479 84.4823 122.463 84.5311L120.16 88.4447C120.069 88.5953 120.069 88.6997 120.16 88.7565L122.469 90.282C122.487 90.3137 122.489 90.3467 122.477 90.3824C122.465 90.4233 122.44 90.4537 122.401 90.4735L121.222 91.0837C121.086 91.1538 120.98 91.1577 120.9 91.0943L119.099 89.9122C119.019 89.8488 118.913 89.8527 118.777 89.9227L118.039 90.3045C117.983 90.3335 117.936 90.3771 117.899 90.4326C117.861 90.4894 117.844 90.5462 117.844 90.6043L117.847 92.6304C117.847 92.6885 117.828 92.7453 117.792 92.8021C117.755 92.8589 117.708 92.9012 117.652 92.9303L116.855 93.3424C116.799 93.3714 116.753 93.3767 116.716 93.3582C116.678 93.3397 116.661 93.3014 116.66 93.2433L116.662 93.242Z" fill="white"/>
<path d="M109.882 92.0994C109.882 91.7652 109.997 91.4191 110.229 91.0625C110.461 90.7059 110.739 90.4431 111.068 90.2727L115.019 88.2267C115.075 88.1977 115.123 88.1924 115.163 88.2122C115.203 88.232 115.223 88.2677 115.223 88.3205V89.1341C115.223 89.1922 115.204 89.2504 115.164 89.3071C115.124 89.3653 115.077 89.4089 115.021 89.4379L111.264 91.3822C111.207 91.4112 111.162 91.4561 111.124 91.5156C111.087 91.575 111.07 91.6305 111.07 91.6833V92.489C111.07 92.5471 111.09 92.5868 111.126 92.6079C111.163 92.629 111.21 92.6251 111.266 92.596L114.631 90.8538C114.959 90.6848 115.238 90.6584 115.467 90.7759C115.696 90.8948 115.811 91.1206 115.812 91.4561V92.6687C115.813 93.0041 115.7 93.3489 115.471 93.7042C115.242 94.0595 114.965 94.3223 114.637 94.4914C114.201 94.7172 113.459 95.1003 112.408 95.6418C111.356 96.1834 110.582 96.5822 110.085 96.8398C110.028 96.8689 109.981 96.8742 109.945 96.8557C109.908 96.8372 109.89 96.7989 109.889 96.7407V95.935C109.889 95.8769 109.906 95.8201 109.942 95.7633C109.978 95.7065 110.025 95.6643 110.082 95.6339L114.432 93.3819C114.488 93.3528 114.536 93.3079 114.575 93.2472C114.615 93.1864 114.634 93.127 114.634 93.0689V92.2632C114.634 92.2116 114.613 92.1747 114.574 92.1549C114.536 92.135 114.486 92.139 114.43 92.1694L111.072 93.9076C110.745 94.078 110.465 94.1044 110.233 93.9868C110.001 93.8706 109.885 93.6447 109.884 93.3093V92.0967L109.882 92.0994Z" fill="white"/>
<path d="M103.684 95.3077L103.689 98.9452H103.69C103.692 99.2807 103.808 99.5066 104.039 99.6228C104.271 99.7403 104.551 99.7139 104.879 99.5435L108.839 97.4936C108.896 97.4646 108.942 97.4223 108.979 97.3655C109.015 97.3087 109.032 97.2519 109.032 97.1938V96.3802C109.032 96.322 109.014 96.2837 108.976 96.2653C108.939 96.2468 108.892 96.2521 108.836 96.2811L105.072 98.2306C105.016 98.2597 104.97 98.265 104.932 98.2465C104.896 98.228 104.876 98.1897 104.876 98.1316V97.318C104.876 97.2598 104.894 97.203 104.931 97.1462C104.968 97.0908 105.015 97.0472 105.071 97.0181L108.835 95.0686C108.892 95.0395 108.938 94.9973 108.975 94.9405C109.011 94.8837 109.028 94.8269 109.028 94.7688V93.9551C109.027 93.897 109.01 93.8587 108.972 93.8402C108.935 93.8217 108.888 93.827 108.832 93.8561L105.068 95.8056C105.012 95.8347 104.966 95.84 104.928 95.8215C104.892 95.803 104.872 95.7647 104.872 95.7065V94.8929C104.872 94.8348 104.89 94.778 104.927 94.7212C104.964 94.6657 105.011 94.6222 105.067 94.5931L108.831 92.6436C108.888 92.6145 108.935 92.5722 108.971 92.5154C109.007 92.4586 109.024 92.4018 109.024 92.3437V91.5301C109.024 91.472 109.007 91.4337 108.97 91.4152C108.932 91.3967 108.886 91.402 108.83 91.431L104.87 93.481C104.54 93.6513 104.262 93.9142 104.03 94.2708C103.798 94.6274 103.684 94.9735 103.684 95.3077Z" fill="white"/>
<path fill-rule="evenodd" clip-rule="evenodd" d="M96.9465 97.639C96.9105 97.6958 96.8919 97.7526 96.8919 97.8107L96.8905 97.8094L96.8985 103.473C96.8999 103.531 96.9172 103.569 96.9545 103.588C96.9918 103.606 97.0384 103.601 97.0944 103.572L101.648 101.214C101.975 101.044 102.255 100.781 102.487 100.425C102.719 100.068 102.833 99.7232 102.833 99.3877L102.828 95.7502C102.827 95.416 102.711 95.1902 102.479 95.0726C102.247 94.9564 101.967 94.9828 101.64 95.1519L97.0864 97.5095C97.0291 97.5399 96.9838 97.5822 96.9465 97.639ZM98.1351 98.2373C98.1724 98.1805 98.219 98.1369 98.275 98.1079L98.2737 98.1092L101.445 96.4674C101.501 96.4384 101.548 96.4331 101.585 96.4516C101.622 96.4714 101.641 96.5084 101.641 96.5665L101.645 99.8051C101.645 99.8632 101.626 99.92 101.59 99.9768C101.553 100.032 101.506 100.076 101.45 100.105L98.279 101.747C98.223 101.776 98.1764 101.781 98.1391 101.763C98.1031 101.744 98.0845 101.706 98.0845 101.648L98.0805 98.409C98.0805 98.3509 98.0978 98.2941 98.1351 98.2373Z" fill="white"/>
<path d="M85.2676 80.245L85.4368 84.4148L81.822 86.3509L85.4378 84.4149L85.511 86.2389L81.5162 88.3787L81.4416 86.5547L74.0213 90.5289L73.9187 88.0128C73.8814 87.1001 74.5116 86.0064 75.3245 85.5706L85.2663 80.2463L85.2676 80.245Z" fill="white"/>
<path d="M86.0495 99.4485L85.8802 95.2787L78.4607 99.2525L78.0184 88.3892L74.0223 90.529L74.4886 101.984L74.4888 101.984L74.5673 103.909C74.6046 104.822 75.2948 105.209 76.1077 104.773L86.0495 99.4485Z" fill="white"/>
<path d="M74.9371 82.9654L73.3186 37.8356L77.2235 32.4L78.9542 80.7389L74.9371 82.9654Z" fill="url(#paint5_linear_1_2)"/>
<path d="M82.8 39.6085L84 78.0417L80.2034 80.1455L78.6403 33.2852L82.8 39.6085Z" fill="url(#paint6_linear_1_2)"/>
<path d="M69.5815 85.7259L68.2429 45.1427L72.1478 39.7071L73.5986 83.4994L69.5815 85.7259Z" fill="url(#paint7_linear_1_2)"/>
<path d="M62.964 52.4632L64.1534 88.6884L68.1705 86.4619L66.8676 47.0276L62.964 52.4632Z" fill="url(#paint8_linear_1_2)"/>
<path d="M57.6 60.2863L58.7036 91.8L62.7207 89.5735L61.5049 54.8494L57.6 60.2863Z" fill="url(#paint9_linear_1_2)"/>
<defs>
<linearGradient id="paint0_linear_1_2" x1="75.0291" y1="106.507" x2="94.1248" y2="125.612" gradientUnits="userSpaceOnUse">
<stop offset="0.13" stop-color="white"/>
<stop offset="0.32" stop-color="#3DFFFF"/>
<stop offset="0.58" stop-color="#3BF7FF"/>
<stop offset="1" stop-color="#153EFF"/>
</linearGradient>
<linearGradient id="paint1_linear_1_2" x1="70.5488" y1="118.451" x2="87.26" y2="128.763" gradientUnits="userSpaceOnUse">
<stop stop-color="#3DFFFF"/>
<stop offset="0.44" stop-color="#3BF7FF"/>
<stop offset="1" stop-color="#153EFF"/>
</linearGradient>
<linearGradient id="paint2_linear_1_2" x1="64.6786" y1="121.768" x2="82.3391" y2="132.529" gradientUnits="userSpaceOnUse">
<stop stop-color="#3DFFFF"/>
<stop offset="0.44" stop-color="#3BF7FF"/>
<stop offset="1" stop-color="#153EFF"/>
</linearGradient>
<linearGradient id="paint3_linear_1_2" x1="60.3557" y1="122.947" x2="78.2984" y2="133.921" gradientUnits="userSpaceOnUse">
<stop stop-color="#3DFFFF"/>
<stop offset="0.44" stop-color="#3BF7FF"/>
<stop offset="1" stop-color="#153EFF"/>
</linearGradient>
<linearGradient id="paint4_linear_1_2" x1="56.3571" y1="123.695" x2="71.3975" y2="132.23" gradientUnits="userSpaceOnUse">
<stop stop-color="#3DFFFF"/>
<stop offset="0.44" stop-color="#3BF7FF"/>
<stop offset="1" stop-color="#153EFF"/>
</linearGradient>
<linearGradient id="paint5_linear_1_2" x1="63.9885" y1="45.211" x2="88.9814" y2="71.0322" gradientUnits="userSpaceOnUse">
<stop stop-color="#E5FFFF"/>
<stop offset="0.32" stop-color="#3DFFFF"/>
<stop offset="0.58" stop-color="#3BF7FF"/>
<stop offset="1" stop-color="#0073AA"/>
</linearGradient>
<linearGradient id="paint6_linear_1_2" x1="63.9885" y1="45.211" x2="88.9814" y2="71.0322" gradientUnits="userSpaceOnUse">
<stop stop-color="#E5FFFF"/>
<stop offset="0.32" stop-color="#3DFFFF"/>
<stop offset="0.58" stop-color="#3BF7FF"/>
<stop offset="1" stop-color="#0073AA"/>
</linearGradient>
<linearGradient id="paint7_linear_1_2" x1="63.9885" y1="45.211" x2="88.9814" y2="71.0322" gradientUnits="userSpaceOnUse">
<stop stop-color="#E5FFFF"/>
<stop offset="0.32" stop-color="#3DFFFF"/>
<stop offset="0.58" stop-color="#3BF7FF"/>
<stop offset="1" stop-color="#0073AA"/>
</linearGradient>
<linearGradient id="paint8_linear_1_2" x1="63.9885" y1="45.211" x2="88.9814" y2="71.0322" gradientUnits="userSpaceOnUse">
<stop stop-color="#E5FFFF"/>
<stop offset="0.32" stop-color="#3DFFFF"/>
<stop offset="0.58" stop-color="#3BF7FF"/>
<stop offset="1" stop-color="#0073AA"/>
</linearGradient>
<linearGradient id="paint9_linear_1_2" x1="63.9885" y1="45.211" x2="88.9814" y2="71.0322" gradientUnits="userSpaceOnUse">
<stop stop-color="#E5FFFF"/>
<stop offset="0.32" stop-color="#3DFFFF"/>
<stop offset="0.58" stop-color="#3BF7FF"/>
<stop offset="1" stop-color="#0073AA"/>
</linearGradient>
</defs>
</svg>
