<svg width="180" height="180" viewBox="0 0 180 180" fill="none" xmlns="http://www.w3.org/2000/svg">
<g clip-path="url(#clip0_2075_762)">
<path d="M85.4474 156.848L79.3916 162.174L77.2113 109.736L77.0762 106.463L83.2159 103.176L83.351 106.449L85.4474 156.848Z" fill="url(#paint0_linear_2075_762)"/>
<path d="M77.1423 164.149L71.0886 169.472L69.2461 119.803L75.3858 116.516L77.1423 164.149Z" fill="url(#paint1_linear_2075_762)"/>
<path d="M68.9574 171.35L62.7051 176.848L61.0264 123.93L67.1661 120.645L68.9574 171.35Z" fill="url(#paint2_linear_2075_762)"/>
<path d="M60.5535 176.666L54.1804 173.754L52.6348 128.22L58.7888 124.961L60.5535 176.666Z" fill="url(#paint3_linear_2075_762)"/>
<path d="M51.9327 172.732L45.5638 169.822L44.3477 132.487L50.4894 129.344L51.9327 172.732Z" fill="url(#paint4_linear_2075_762)"/>
<path d="M100.299 114.507L140.079 94.2452C140.079 94.2452 141.772 93.5152 141.794 92.2254C141.817 90.9356 143.332 81.5116 143.332 81.5116L147.875 78.9219L147.793 97.8266C147.793 97.8266 147.91 100.003 145.506 101.248C143.103 102.493 112.914 118.161 112.914 118.161" fill="#01FEFF"/>
<path d="M162.265 69.8003L164.828 68.4274V68.4294C166.577 67.4925 167.93 65.1461 167.85 63.1851L166.505 30.1758L160.775 33.2421L161.364 47.6903L156.071 50.5233L155.483 36.0751L149.753 39.1414L150.469 56.7138C150.545 58.5349 151.923 59.3076 153.548 58.4376L155.729 57.2712L155.729 57.2715L156.332 56.9481L156.332 56.949L156.334 56.9472L156.335 56.947L161.626 54.1149L162.004 63.3759L152.242 68.6L148.959 76.9207L162.265 69.7987L162.265 69.8003Z" fill="white"/>
<path fill-rule="evenodd" clip-rule="evenodd" d="M141.265 73.7919L140.893 64.6508L133.34 68.6933L133.713 77.8333L127.983 80.8996L127.024 57.3731C126.887 54.027 129.197 50.0217 132.179 48.4237L132.498 48.2543L140.059 44.2087L140.059 44.2079L143.304 42.4719C144.676 41.7378 145.839 42.3888 145.902 43.928L146.993 70.7268L141.265 73.7919ZM140.321 50.6314L140.631 58.226L133.078 62.2686L132.769 54.674L140.321 50.6314Z" fill="white"/>
<path d="M146.993 70.7268L146.995 70.7256L146.993 70.7277L146.993 70.7268Z" fill="white"/>
<path d="M107.954 61.3929L109.16 90.9769L124.752 82.6322L124.49 76.2076L114.626 81.4875L113.682 58.3266L107.954 61.3929Z" fill="white"/>
<path fill-rule="evenodd" clip-rule="evenodd" d="M87.0768 112.5L86.3584 94.6096L86.3481 94.6151L86.0881 88.2128L86.1013 88.2057L85.769 79.9305L85.7499 79.9406L85.49 73.5383L101.833 64.7917C103.432 63.9359 104.789 64.6943 104.861 66.4891L104.99 69.6446L104.989 69.6434L105.326 77.9147V77.9167L105.455 81.0723C105.529 82.865 104.29 85.0126 102.691 85.8684L92.0682 91.5538L92.7866 109.444L87.0768 112.5ZM99.2789 72.6986L91.4787 76.8741L91.811 85.1493L99.6162 80.9712L99.2789 72.6986Z" fill="white"/>
<path d="M34.2562 108.551L47.7851 101.309L48.1224 109.579L40.3027 113.765L40.1746 110.621L34.4648 113.677L35.5826 141.11L41.2924 138.054L40.5635 120.167L51.1975 114.476C52.7964 113.62 54.035 111.473 53.9613 109.68L53.8323 106.525V106.523L53.8302 106.524L53.4946 98.2533L53.4962 98.2549L53.3672 95.0993C53.2955 93.3046 51.9382 92.5461 50.3393 93.4019L33.9962 102.149L34.2562 108.551Z" fill="white"/>
<path d="M31.412 103.635L12.0635 113.992L12.4337 123.104L17.9838 120.135L17.8651 117.244L31.6638 109.859L31.412 103.635Z" fill="white"/>
<path d="M32.1369 121.42L12.7884 131.775L12.5345 125.553L31.883 115.199L32.1369 121.42Z" fill="white"/>
<path d="M13.0051 137.334L12.8864 134.444L18.4364 131.473L18.5526 134.299L32.3596 126.908L32.6135 133.13L13.265 143.487L13.0137 137.329L13.0051 137.334Z" fill="white"/>
<path d="M56.0833 96.9248L61.7931 93.8686L61.5331 87.4684L55.8233 90.5245L56.0833 96.9248Z" fill="white"/>
<path d="M57.0267 120.109L62.7365 117.053L61.9073 96.6695L56.1976 99.7256L57.0267 120.109Z" fill="white"/>
<path d="M130.461 96.8759L130.449 88.1799C130.449 88.0907 130.478 88.0035 130.533 87.9163C130.59 87.8291 130.662 87.7642 130.748 87.7176L131.972 87.0848C132.058 87.0402 132.13 87.0321 132.187 87.0605C132.244 87.0889 132.271 87.1477 132.271 87.2369L132.275 90.3478C132.275 90.4371 132.304 90.4959 132.361 90.5243C132.418 90.5527 132.49 90.5446 132.576 90.4999L133.71 89.9139C133.919 89.8064 134.083 89.6401 134.206 89.419L136.963 84.7466C137.084 84.5235 137.25 84.3592 137.459 84.2518L139.268 83.3148C139.33 83.2844 139.369 83.2905 139.385 83.3351C139.404 83.3696 139.397 83.4264 139.373 83.5014L135.835 89.5103C135.696 89.7415 135.696 89.9017 135.835 89.9889L139.383 92.3312C139.41 92.3799 139.414 92.4306 139.395 92.4853C139.377 92.5482 139.338 92.5949 139.279 92.6253L137.467 93.5622C137.258 93.6697 137.094 93.6758 136.971 93.5784L134.206 91.7634C134.083 91.666 133.919 91.6721 133.71 91.7796L132.576 92.3657C132.49 92.4103 132.418 92.4772 132.361 92.5624C132.304 92.6496 132.277 92.7368 132.277 92.826L132.281 95.9369C132.281 96.0262 132.253 96.1134 132.197 96.2006C132.14 96.2878 132.068 96.3527 131.982 96.3973L130.758 97.03C130.672 97.0746 130.6 97.0827 130.543 97.0543C130.486 97.026 130.459 96.9671 130.457 96.8779L130.461 96.8759Z" fill="white"/>
<path d="M120.045 95.1216C120.045 94.6085 120.221 94.0772 120.577 93.5296C120.933 92.9821 121.361 92.5785 121.867 92.3169L127.937 89.1755C128.023 89.1309 128.097 89.1228 128.158 89.1532C128.219 89.1837 128.25 89.2384 128.25 89.3195V90.5688C128.25 90.658 128.221 90.7472 128.16 90.8344C128.099 90.9237 128.025 90.9906 127.939 91.0352L122.168 94.0204C122.08 94.065 122.01 94.1339 121.953 94.2252C121.896 94.3164 121.869 94.4016 121.869 94.4827V95.7198C121.869 95.809 121.9 95.8699 121.955 95.9023C122.012 95.9348 122.084 95.9287 122.17 95.8841L127.341 93.2092C127.845 92.9496 128.273 92.909 128.625 93.0895C128.977 93.2721 129.153 93.6188 129.155 94.1339V95.9956C129.157 96.5107 128.983 97.04 128.631 97.5856C128.279 98.1311 127.853 98.5346 127.349 98.7942C126.68 99.141 125.54 99.7291 123.924 100.561C122.309 101.392 121.12 102.004 120.356 102.4C120.268 102.445 120.196 102.453 120.141 102.424C120.084 102.396 120.057 102.337 120.055 102.248V101.011C120.055 100.922 120.082 100.834 120.137 100.747C120.192 100.66 120.264 100.595 120.352 100.548L127.034 97.0907C127.12 97.0461 127.194 96.9772 127.255 96.8839C127.317 96.7906 127.345 96.6993 127.345 96.6101V95.373C127.345 95.2939 127.313 95.2372 127.253 95.2067C127.194 95.1763 127.118 95.1824 127.032 95.229L121.873 97.8979C121.369 98.1595 120.939 98.2 120.583 98.0195C120.227 97.8411 120.049 97.4943 120.047 96.9792V95.1175L120.045 95.1216Z" fill="white"/>
<path d="M110.521 100.048L110.529 105.633H110.531C110.533 106.148 110.712 106.494 111.068 106.673C111.424 106.853 111.854 106.813 112.357 106.551L118.442 103.404C118.53 103.359 118.6 103.294 118.657 103.207C118.712 103.12 118.739 103.033 118.739 102.943V101.694C118.739 101.605 118.71 101.546 118.653 101.518C118.595 101.489 118.524 101.498 118.438 101.542L112.654 104.535C112.568 104.58 112.497 104.588 112.439 104.56C112.384 104.531 112.353 104.473 112.353 104.383V103.134C112.353 103.045 112.38 102.958 112.437 102.87C112.495 102.785 112.566 102.718 112.652 102.674L118.436 99.6805C118.524 99.6358 118.593 99.5709 118.651 99.4837C118.706 99.3965 118.733 99.3093 118.733 99.2201V97.9709C118.731 97.8816 118.704 97.8228 118.647 97.7944C118.589 97.766 118.518 97.7742 118.432 97.8188L112.648 100.812C112.562 100.857 112.491 100.865 112.433 100.836C112.378 100.808 112.347 100.749 112.347 100.66V99.4107C112.347 99.3215 112.374 99.2343 112.431 99.1471C112.489 99.0619 112.56 98.995 112.646 98.9504L118.43 95.9571C118.518 95.9125 118.589 95.8476 118.645 95.7604C118.7 95.6732 118.726 95.586 118.726 95.4967V94.2475C118.726 94.1583 118.7 94.0995 118.643 94.0711C118.585 94.0427 118.514 94.0508 118.428 94.0954L112.343 97.2428C111.838 97.5044 111.41 97.908 111.053 98.4556C110.697 99.0031 110.521 99.5344 110.521 100.048Z" fill="white"/>
<path fill-rule="evenodd" clip-rule="evenodd" d="M100.17 103.627C100.115 103.714 100.086 103.801 100.086 103.891L100.084 103.889L100.096 112.585C100.098 112.674 100.125 112.733 100.182 112.761C100.24 112.789 100.311 112.781 100.397 112.737L107.393 109.117C107.896 108.855 108.326 108.452 108.683 107.904C109.039 107.356 109.215 106.827 109.215 106.312L109.207 100.727C109.205 100.214 109.027 99.8671 108.67 99.6866C108.314 99.5082 107.884 99.5487 107.381 99.8083L100.385 103.428C100.297 103.475 100.227 103.54 100.17 103.627ZM101.996 104.546C102.054 104.458 102.125 104.392 102.211 104.347L102.209 104.349L107.082 101.828C107.168 101.784 107.239 101.775 107.297 101.804C107.354 101.834 107.383 101.891 107.383 101.98L107.389 106.953C107.389 107.042 107.36 107.129 107.305 107.216C107.247 107.302 107.176 107.369 107.09 107.413L102.217 109.934C102.131 109.979 102.06 109.987 102.002 109.958C101.947 109.93 101.919 109.871 101.919 109.782L101.912 104.809C101.912 104.72 101.939 104.633 101.996 104.546Z" fill="white"/>
<path d="M82.2268 76.9205L82.4868 83.3228L76.9331 86.2954L82.4882 83.3229L82.6008 86.1235L76.4632 89.4089L76.3485 86.6083L64.9481 92.7103L64.7904 88.8471C64.7331 87.4457 65.7014 85.7666 66.9503 85.0973L82.2248 76.9226L82.2268 76.9205Z" fill="white"/>
<path d="M83.428 106.405L83.168 100.003L71.7687 106.104L71.0892 89.425L64.9495 92.7104L65.6661 110.299L65.6664 110.299L65.7869 113.254C65.8443 114.655 66.9047 115.249 68.1535 114.58L83.428 106.405Z" fill="white"/>
<path d="M66.2859 80.8967L63.776 11.5096L69.8318 3.15234L72.5157 77.4735L66.2859 80.8967Z" fill="url(#paint5_linear_2075_762)"/>
<path d="M78.4798 14.2354L80.3408 73.3265L74.4529 76.5611L72.029 4.5133L78.4798 14.2354Z" fill="url(#paint6_linear_2075_762)"/>
<path d="M57.9804 85.1409L55.9045 22.7443L61.9603 14.387L64.2102 81.7177L57.9804 85.1409Z" fill="url(#paint7_linear_2075_762)"/>
<path d="M47.7179 33.9995L49.5625 89.6957L55.7923 86.2725L53.7716 25.6422L47.7179 33.9995Z" fill="url(#paint8_linear_2075_762)"/>
<path d="M39.3994 46.0276L41.1109 94.4799L47.3407 91.0567L45.4552 37.6683L39.3994 46.0276Z" fill="url(#paint9_linear_2075_762)"/>
</g>
<defs>
<linearGradient id="paint0_linear_2075_762" x1="65.9596" y1="117.475" x2="95.297" y2="147.091" gradientUnits="userSpaceOnUse">
<stop offset="0.13" stop-color="white"/>
<stop offset="0.32" stop-color="#3DFFFF"/>
<stop offset="0.58" stop-color="#3BF7FF"/>
<stop offset="1" stop-color="#153EFF"/>
</linearGradient>
<linearGradient id="paint1_linear_2075_762" x1="60.1051" y1="135.485" x2="85.293" y2="150.163" gradientUnits="userSpaceOnUse">
<stop stop-color="#3DFFFF"/>
<stop offset="0.44" stop-color="#3BF7FF"/>
<stop offset="1" stop-color="#153EFF"/>
</linearGradient>
<linearGradient id="paint2_linear_2075_762" x1="51.1546" y1="140.865" x2="77.7054" y2="156.339" gradientUnits="userSpaceOnUse">
<stop stop-color="#3DFFFF"/>
<stop offset="0.44" stop-color="#3BF7FF"/>
<stop offset="1" stop-color="#153EFF"/>
</linearGradient>
<linearGradient id="paint3_linear_2075_762" x1="44.3578" y1="142.422" x2="71.3447" y2="158.151" gradientUnits="userSpaceOnUse">
<stop stop-color="#3DFFFF"/>
<stop offset="0.44" stop-color="#3BF7FF"/>
<stop offset="1" stop-color="#153EFF"/>
</linearGradient>
<linearGradient id="paint4_linear_2075_762" x1="37.643" y1="143.337" x2="61.0968" y2="157.007" gradientUnits="userSpaceOnUse">
<stop stop-color="#3DFFFF"/>
<stop offset="0.44" stop-color="#3BF7FF"/>
<stop offset="1" stop-color="#153EFF"/>
</linearGradient>
<linearGradient id="paint5_linear_2075_762" x1="49.3068" y1="22.8492" x2="87.7211" y2="62.8803" gradientUnits="userSpaceOnUse">
<stop stop-color="#E5FFFF"/>
<stop offset="0.32" stop-color="#3DFFFF"/>
<stop offset="0.58" stop-color="#3BF7FF"/>
<stop offset="1" stop-color="#0073AA"/>
</linearGradient>
<linearGradient id="paint6_linear_2075_762" x1="49.3068" y1="22.8492" x2="87.7211" y2="62.8803" gradientUnits="userSpaceOnUse">
<stop stop-color="#E5FFFF"/>
<stop offset="0.32" stop-color="#3DFFFF"/>
<stop offset="0.58" stop-color="#3BF7FF"/>
<stop offset="1" stop-color="#0073AA"/>
</linearGradient>
<linearGradient id="paint7_linear_2075_762" x1="49.3068" y1="22.8492" x2="87.7211" y2="62.8803" gradientUnits="userSpaceOnUse">
<stop stop-color="#E5FFFF"/>
<stop offset="0.32" stop-color="#3DFFFF"/>
<stop offset="0.58" stop-color="#3BF7FF"/>
<stop offset="1" stop-color="#0073AA"/>
</linearGradient>
<linearGradient id="paint8_linear_2075_762" x1="49.3068" y1="22.8492" x2="87.7211" y2="62.8803" gradientUnits="userSpaceOnUse">
<stop stop-color="#E5FFFF"/>
<stop offset="0.32" stop-color="#3DFFFF"/>
<stop offset="0.58" stop-color="#3BF7FF"/>
<stop offset="1" stop-color="#0073AA"/>
</linearGradient>
<linearGradient id="paint9_linear_2075_762" x1="49.3068" y1="22.8492" x2="87.7211" y2="62.8803" gradientUnits="userSpaceOnUse">
<stop stop-color="#E5FFFF"/>
<stop offset="0.32" stop-color="#3DFFFF"/>
<stop offset="0.58" stop-color="#3BF7FF"/>
<stop offset="1" stop-color="#0073AA"/>
</linearGradient>
<clipPath id="clip0_2075_762">
<rect width="156" height="174" fill="white" transform="translate(12 3)"/>
</clipPath>
</defs>
</svg>
