<svg width="116" height="136" viewBox="0 0 116 136" fill="none" xmlns="http://www.w3.org/2000/svg">
<g filter="url(#filter0_ii_5_141)">
<path d="M116 54.547L115.99 54.0084L114.777 24.2366C114.657 21.2963 111.51 19.4876 108.909 20.864L67.1396 42.9689C64.5097 44.3607 61.335 42.4961 61.2696 39.5213L60.8655 21.1386L49.4581 4.66549C47.8835 2.39164 44.5316 2.36378 42.9194 4.61114L17.7631 39.6786C17.2473 40.3975 16.9845 41.2671 17.0158 42.1513L17.9175 67.6864C17.9713 69.2114 17.1528 70.6342 15.8074 71.3543L13.5077 72.585L13.5097 72.647L2.21116 78.6935C0.858951 79.4172 0.0395623 80.8503 0.101844 82.3827L0.480726 91.7049L0.512645 92.4653L0.50394 92.4702L1.48183 116.268L1.48377 116.267C1.55491 118.016 3.43047 119.088 4.97365 118.262L15.1462 112.818L15.4926 112.643C17.8385 111.454 20.6273 113.093 20.7292 115.721L21.0014 124.06C21.051 125.578 21.9562 126.937 23.338 127.568L39.5806 134.984C40.9467 135.608 42.5471 135.414 43.7246 134.481L55.2544 125.354L55.2535 125.354L64.0796 117.595C64.9435 116.836 65.4387 115.741 65.4387 114.591V104.192C65.4387 102.65 66.3246 101.246 67.7159 100.582L96.8841 86.6622C100.004 85.0465 101.886 82.5245 102.826 80.1016C103.263 78.9736 103.469 77.9478 103.565 77.1414C103.614 76.7334 103.637 76.3644 103.644 76.045C103.646 75.9558 103.645 75.8698 103.645 75.7873L103.647 75.7883L103.675 69.188L108.904 66.3876C111.413 65.0435 113.118 63.0363 114.163 61.2228C115.14 59.5291 115.994 57.2172 116 54.547Z" fill="url(#paint0_linear_5_141)"/>
</g>
<path d="M55.67 112.49L51.9046 115.795L50.5489 83.2478L50.4648 81.2162L54.2825 79.1758L54.3665 81.2074L55.67 112.49Z" fill="url(#paint1_linear_5_141)"/>
<path d="M50.5046 117.022L46.7404 120.327L45.5947 89.4974L49.4124 87.457L50.5046 117.022Z" fill="url(#paint2_linear_5_141)"/>
<path d="M45.4168 121.492L41.5292 124.904L40.4854 92.0587L44.303 90.0195L45.4168 121.492Z" fill="url(#paint3_linear_5_141)"/>
<path d="M40.1904 124.792L36.2277 122.985L35.2666 94.722L39.0931 92.6992L40.1904 124.792Z" fill="url(#paint4_linear_5_141)"/>
<path d="M34.8287 122.353L30.8685 120.546L30.1123 97.3729L33.9312 95.4219L34.8287 122.353Z" fill="url(#paint5_linear_5_141)"/>
<path d="M64.9043 86.216L89.6393 73.64C89.6393 73.64 90.692 73.1868 90.706 72.3862C90.72 71.5857 91.662 65.7363 91.662 65.7363L94.4868 64.1289L94.4358 75.8629C94.4358 75.8629 94.5084 77.2135 93.0139 77.9864C91.5195 78.7593 72.7483 88.4843 72.7483 88.4843" fill="#01FEFF"/>
<path d="M103.433 58.4617L105.027 57.6096V57.6108C106.114 57.0293 106.955 55.5729 106.905 54.3557L106.069 33.8672L102.506 35.7704L102.872 44.7383L99.5812 46.4967L99.2155 37.5288L95.6525 39.4321L96.098 50.3391C96.1451 51.4694 97.0018 51.949 98.0126 51.409L99.3683 50.685L99.3683 50.6852L99.7438 50.4845L99.7438 50.4851L99.7449 50.484L99.7451 50.4838L103.035 48.726L103.27 54.4742L97.2006 57.7167L95.1587 62.8813L103.433 58.4607L103.433 58.4617Z" fill="white"/>
<path fill-rule="evenodd" clip-rule="evenodd" d="M90.3751 60.9393L90.1434 55.2655L85.4473 57.7746L85.679 63.4477L82.116 65.351L81.5202 50.7483C81.4349 48.6714 82.8708 46.1854 84.7255 45.1935L84.9234 45.0883L89.6253 42.5773L89.6253 42.5768L91.643 41.4993C92.4958 41.0436 93.2189 41.4477 93.2583 42.4031L93.9368 59.0368L90.3751 60.9393ZM89.7881 46.5638L89.9806 51.2777L85.2845 53.7869L85.092 49.073L89.7881 46.5638Z" fill="white"/>
<path d="M93.9368 59.0368L93.9381 59.0361L93.9368 59.0373L93.9368 59.0368Z" fill="white"/>
<path d="M69.6624 53.2433L70.4121 71.6058L80.107 66.4263L79.9441 62.4386L73.8111 65.7158L73.2241 51.3401L69.6624 53.2433Z" fill="white"/>
<path fill-rule="evenodd" clip-rule="evenodd" d="M56.681 84.9649L56.2343 73.8606L56.2279 73.864L56.0662 69.8901L56.0744 69.8858L55.8678 64.7494L55.856 64.7557L55.6943 60.7819L65.8564 55.3529C66.8506 54.8217 67.6945 55.2925 67.7391 56.4065L67.8193 58.3651L67.8185 58.3643L68.0283 63.4983V63.4995L68.1085 65.4581C68.1543 66.5708 67.3842 67.9038 66.39 68.435L59.7846 71.9639L60.2313 83.0679L56.681 84.9649ZM64.2682 60.2607L59.4181 62.8523L59.6247 67.9887L64.4779 65.3954L64.2682 60.2607Z" fill="white"/>
<path d="M23.8374 82.5138L32.2496 78.0188L32.4594 83.152L27.5971 85.7501L27.5174 83.7989L23.9671 85.6958L24.6622 102.723L28.2125 100.826L27.7593 89.7241L34.3714 86.1917C35.3656 85.6605 36.1358 84.3275 36.0899 83.2147L36.0097 81.2561V81.2549L36.0084 81.2556L35.7998 76.1222L35.8007 76.1232L35.7205 74.1646C35.676 73.0506 34.832 72.5798 33.8378 73.111L23.6757 78.54L23.8374 82.5138Z" fill="white"/>
<path d="M22.0689 79.4626L10.0381 85.891L10.2683 91.5467L13.7193 89.7039L13.6455 87.9098L22.2255 83.3257L22.0689 79.4626Z" fill="white"/>
<path d="M22.5196 90.5017L10.4888 96.9289L10.331 93.0671L22.3618 86.6399L22.5196 90.5017Z" fill="white"/>
<path d="M10.6236 100.379L10.5498 98.5854L14.0008 96.7413L14.073 98.4955L22.6581 93.9082L22.816 97.77L10.7852 104.198L10.6289 100.376L10.6236 100.379Z" fill="white"/>
<path d="M37.4094 75.2976L40.9597 73.4007L40.798 69.4281L37.2477 71.325L37.4094 75.2976Z" fill="white"/>
<path d="M37.996 89.6877L41.5463 87.7908L41.0307 75.1392L37.4804 77.0361L37.996 89.6877Z" fill="white"/>
<path d="M83.6572 75.2673L83.6496 69.8698C83.6496 69.8144 83.6674 69.7603 83.7018 69.7061C83.7374 69.652 83.782 69.6117 83.8354 69.5828L84.5967 69.1901C84.6501 69.1624 84.6947 69.1573 84.7303 69.1749C84.766 69.1926 84.7825 69.2291 84.7825 69.2845L84.7851 71.2154C84.7851 71.2708 84.8029 71.3073 84.8385 71.3249C84.8742 71.3425 84.9187 71.3375 84.9722 71.3098L85.6774 70.946C85.8073 70.8793 85.9091 70.7761 85.9855 70.6389L87.7001 67.7387C87.7753 67.6003 87.8784 67.4983 88.0082 67.4316L89.1335 66.8501C89.1717 66.8312 89.1959 66.8349 89.2061 66.8626C89.2175 66.884 89.2137 66.9193 89.1984 66.9659L86.9987 70.6955C86.9122 70.839 86.9122 70.9384 86.9987 70.9926L89.2048 72.4464C89.2213 72.4766 89.2239 72.5081 89.2124 72.5421C89.201 72.5811 89.1768 72.6101 89.1399 72.6289L88.0133 73.2105C87.8835 73.2772 87.7816 73.281 87.7052 73.2205L85.9855 72.094C85.9091 72.0336 85.8073 72.0373 85.6774 72.104L84.9722 72.4678C84.9187 72.4955 84.8742 72.5371 84.8385 72.5899C84.8029 72.644 84.7863 72.6982 84.7863 72.7536L84.7889 74.6845C84.7889 74.7398 84.7711 74.794 84.7367 74.8481C84.701 74.9022 84.6565 74.9425 84.603 74.9702L83.8418 75.3629C83.7883 75.3906 83.7438 75.3956 83.7081 75.378C83.6725 75.3604 83.6559 75.3239 83.6547 75.2685L83.6572 75.2673Z" fill="white"/>
<path d="M77.1803 74.1784C77.1803 73.8599 77.2898 73.5301 77.5113 73.1903C77.7328 72.8504 77.9988 72.5999 78.3133 72.4375L82.0876 70.4877C82.1411 70.46 82.1869 70.455 82.2251 70.4739C82.2633 70.4928 82.2824 70.5268 82.2824 70.5771V71.3525C82.2824 71.4079 82.2645 71.4633 82.2264 71.5174C82.1882 71.5728 82.1423 71.6143 82.0889 71.642L78.5004 73.4949C78.4456 73.5226 78.4024 73.5654 78.3667 73.622C78.3311 73.6786 78.3145 73.7315 78.3145 73.7819V74.5497C78.3145 74.6051 78.3336 74.6428 78.368 74.663C78.4036 74.6831 78.4482 74.6793 78.5017 74.6516L81.7172 72.9914C82.0303 72.8303 82.2964 72.8051 82.5153 72.9171C82.7343 73.0304 82.8437 73.2456 82.845 73.5654V74.7209C82.8463 75.0406 82.7381 75.3691 82.5191 75.7077C82.3002 76.0463 82.0354 76.2968 81.7223 76.4579C81.306 76.6732 80.597 77.0382 79.5926 77.5543C78.5882 78.0704 77.8486 78.4505 77.3738 78.696C77.3191 78.7237 77.2745 78.7287 77.2401 78.7111C77.2045 78.6935 77.188 78.657 77.1867 78.6016V77.8338C77.1867 77.7784 77.2032 77.7242 77.2376 77.6701C77.272 77.616 77.3165 77.5757 77.3713 77.5468L81.5262 75.4006C81.5797 75.3729 81.6255 75.3301 81.6637 75.2722C81.7019 75.2143 81.7197 75.1577 81.7197 75.1023V74.3344C81.7197 74.2854 81.6993 74.2501 81.6624 74.2312C81.6255 74.2124 81.5784 74.2161 81.525 74.2451L78.3171 75.9016C78.0039 76.064 77.7366 76.0891 77.5151 75.9771C77.2936 75.8663 77.1829 75.6511 77.1816 75.3314V74.1758L77.1803 74.1784Z" fill="white"/>
<path d="M71.2585 77.2359L71.2636 80.7024H71.2649C71.2662 81.0221 71.3769 81.2374 71.5984 81.3482C71.8199 81.4602 72.0872 81.435 72.4004 81.2726L76.1836 79.3191C76.2384 79.2914 76.2817 79.2511 76.3173 79.197C76.3517 79.1428 76.3682 79.0887 76.3682 79.0333V78.2579C76.3682 78.2026 76.3504 78.1661 76.3148 78.1484C76.2791 78.1308 76.2346 78.1359 76.1811 78.1635L72.585 80.0214C72.5315 80.0491 72.487 80.0542 72.4513 80.0365C72.4169 80.0189 72.3979 79.9824 72.3979 79.927V79.1517C72.3979 79.0963 72.4144 79.0421 72.45 78.988C72.4857 78.9352 72.5302 78.8936 72.5837 78.8659L76.1798 77.008C76.2346 76.9803 76.2779 76.94 76.3135 76.8859C76.3479 76.8318 76.3644 76.7777 76.3644 76.7223V75.9469C76.3631 75.8915 76.3466 75.855 76.3109 75.8374C76.2753 75.8198 76.2307 75.8248 76.1773 75.8525L72.5812 77.7104C72.5277 77.7381 72.4831 77.7431 72.4475 77.7255C72.4131 77.7079 72.394 77.6714 72.394 77.616V76.8406C72.394 76.7852 72.4106 76.7311 72.4462 76.677C72.4819 76.6241 72.5264 76.5826 72.5799 76.5549L76.176 74.697C76.2307 74.6693 76.2753 74.629 76.3097 74.5749C76.344 74.5207 76.3606 74.4666 76.3606 74.4112V73.6359C76.3606 73.5805 76.344 73.544 76.3084 73.5263C76.2728 73.5087 76.2282 73.5138 76.1747 73.5414L72.3915 75.495C72.0771 75.6574 71.811 75.9079 71.5895 76.2477C71.368 76.5876 71.2585 76.9174 71.2585 77.2359Z" fill="white"/>
<path fill-rule="evenodd" clip-rule="evenodd" d="M64.8224 79.4576C64.788 79.5117 64.7702 79.5658 64.7702 79.6212L64.7689 79.62L64.7765 85.0175C64.7778 85.0728 64.7944 85.1093 64.83 85.127C64.8657 85.1446 64.9102 85.1396 64.9637 85.1119L69.3134 82.865C69.6265 82.7026 69.8939 82.4521 70.1154 82.1123C70.3369 81.7724 70.4463 81.4439 70.4463 81.1242L70.4412 77.6576C70.44 77.3391 70.3292 77.1239 70.1077 77.0119C69.8862 76.9011 69.6189 76.9263 69.3058 77.0874L64.956 79.3342C64.9013 79.3632 64.858 79.4035 64.8224 79.4576ZM65.9579 80.0278C65.9935 79.9737 66.0381 79.9321 66.0915 79.9044L66.0902 79.9057L69.1199 78.3411C69.1734 78.3134 69.2179 78.3084 69.2536 78.326C69.2892 78.3449 69.307 78.3801 69.307 78.4355L69.3108 81.5219C69.3108 81.5773 69.293 81.6314 69.2587 81.6856C69.223 81.7384 69.1785 81.78 69.125 81.8077L66.0953 83.3723C66.0419 83.4 65.9973 83.405 65.9617 83.3874C65.9273 83.3698 65.9095 83.3333 65.9095 83.2779L65.9057 80.1914C65.9057 80.136 65.9222 80.0819 65.9579 80.0278Z" fill="white"/>
<path d="M53.6653 62.8812L53.8269 66.855L50.3737 68.7001L53.8278 66.8551L53.8978 68.5934L50.0815 70.6325L50.0102 68.8943L42.9214 72.6817L42.8234 70.2838C42.7878 69.414 43.3899 68.3718 44.1664 67.9564L53.664 62.8824L53.6653 62.8812Z" fill="white"/>
<path d="M54.4122 81.182L54.2505 77.2082L47.1625 80.9953L46.74 70.6426L42.9224 72.6818L43.3679 83.5988L43.3681 83.5987L43.4431 85.4328C43.4787 86.3026 44.1381 86.6714 44.9146 86.256L54.4122 81.182Z" fill="white"/>
<path d="M43.755 65.3489L42.1944 22.281L45.9598 17.0938L47.6286 63.2241L43.755 65.3489Z" fill="url(#paint6_linear_5_141)"/>
<path d="M51.3371 23.9729L52.4942 60.6501L48.8332 62.6578L47.326 17.9385L51.3371 23.9729Z" fill="url(#paint7_linear_5_141)"/>
<path d="M38.5907 67.9832L37.2999 29.2543L41.0653 24.067L42.4643 65.8585L38.5907 67.9832Z" fill="url(#paint8_linear_5_141)"/>
<path d="M32.2095 36.2403L33.3565 70.8103L37.2301 68.6856L35.9737 31.053L32.2095 36.2403Z" fill="url(#paint9_linear_5_141)"/>
<path d="M27.0371 43.706L28.1013 73.7798L31.9749 71.655L30.8025 38.5174L27.0371 43.706Z" fill="url(#paint10_linear_5_141)"/>
<defs>
<filter id="filter0_ii_5_141" x="0.0986328" y="2.94275" width="115.901" height="132.402" filterUnits="userSpaceOnUse" color-interpolation-filters="sRGB">
<feFlood flood-opacity="0" result="BackgroundImageFix"/>
<feBlend mode="normal" in="SourceGraphic" in2="BackgroundImageFix" result="shape"/>
<feColorMatrix in="SourceAlpha" type="matrix" values="0 0 0 0 0 0 0 0 0 0 0 0 0 0 0 0 0 0 127 0" result="hardAlpha"/>
<feOffset dx="-1" dy="-1"/>
<feComposite in2="hardAlpha" operator="arithmetic" k2="-1" k3="1"/>
<feColorMatrix type="matrix" values="0 0 0 0 0 0 0 0 0 0 0 0 0 0 0 0 0 0 0.1 0"/>
<feBlend mode="normal" in2="shape" result="effect1_innerShadow_5_141"/>
<feColorMatrix in="SourceAlpha" type="matrix" values="0 0 0 0 0 0 0 0 0 0 0 0 0 0 0 0 0 0 127 0" result="hardAlpha"/>
<feOffset dx="1" dy="1"/>
<feComposite in2="hardAlpha" operator="arithmetic" k2="-1" k3="1"/>
<feColorMatrix type="matrix" values="0 0 0 0 1 0 0 0 0 1 0 0 0 0 1 0 0 0 0.1 0"/>
<feBlend mode="normal" in2="effect1_innerShadow_5_141" result="effect2_innerShadow_5_141"/>
</filter>
<linearGradient id="paint0_linear_5_141" x1="58" y1="21.8182" x2="58" y2="136" gradientUnits="userSpaceOnUse">
<stop stop-color="#2B3243"/>
<stop offset="1" stop-color="#1D222C"/>
</linearGradient>
<linearGradient id="paint1_linear_5_141" x1="43.5526" y1="88.0512" x2="61.7617" y2="106.466" gradientUnits="userSpaceOnUse">
<stop offset="0.13" stop-color="white"/>
<stop offset="0.32" stop-color="#3DFFFF"/>
<stop offset="0.58" stop-color="#3BF7FF"/>
<stop offset="1" stop-color="#153EFF"/>
</linearGradient>
<linearGradient id="paint2_linear_5_141" x1="39.9109" y1="99.2313" x2="55.5584" y2="108.366" gradientUnits="userSpaceOnUse">
<stop stop-color="#3DFFFF"/>
<stop offset="0.44" stop-color="#3BF7FF"/>
<stop offset="1" stop-color="#153EFF"/>
</linearGradient>
<linearGradient id="paint3_linear_5_141" x1="34.3471" y1="102.57" x2="50.8414" y2="112.2" gradientUnits="userSpaceOnUse">
<stop stop-color="#3DFFFF"/>
<stop offset="0.44" stop-color="#3BF7FF"/>
<stop offset="1" stop-color="#153EFF"/>
</linearGradient>
<linearGradient id="paint4_linear_5_141" x1="30.12" y1="103.537" x2="46.8852" y2="113.326" gradientUnits="userSpaceOnUse">
<stop stop-color="#3DFFFF"/>
<stop offset="0.44" stop-color="#3BF7FF"/>
<stop offset="1" stop-color="#153EFF"/>
</linearGradient>
<linearGradient id="paint5_linear_5_141" x1="25.9434" y1="104.107" x2="40.5137" y2="112.615" gradientUnits="userSpaceOnUse">
<stop stop-color="#3DFFFF"/>
<stop offset="0.44" stop-color="#3BF7FF"/>
<stop offset="1" stop-color="#153EFF"/>
</linearGradient>
<linearGradient id="paint6_linear_5_141" x1="33.1975" y1="29.3194" x2="57.039" y2="54.2087" gradientUnits="userSpaceOnUse">
<stop stop-color="#E5FFFF"/>
<stop offset="0.32" stop-color="#3DFFFF"/>
<stop offset="0.58" stop-color="#3BF7FF"/>
<stop offset="1" stop-color="#0073AA"/>
</linearGradient>
<linearGradient id="paint7_linear_5_141" x1="33.1975" y1="29.3194" x2="57.039" y2="54.2087" gradientUnits="userSpaceOnUse">
<stop stop-color="#E5FFFF"/>
<stop offset="0.32" stop-color="#3DFFFF"/>
<stop offset="0.58" stop-color="#3BF7FF"/>
<stop offset="1" stop-color="#0073AA"/>
</linearGradient>
<linearGradient id="paint8_linear_5_141" x1="33.1975" y1="29.3194" x2="57.039" y2="54.2087" gradientUnits="userSpaceOnUse">
<stop stop-color="#E5FFFF"/>
<stop offset="0.32" stop-color="#3DFFFF"/>
<stop offset="0.58" stop-color="#3BF7FF"/>
<stop offset="1" stop-color="#0073AA"/>
</linearGradient>
<linearGradient id="paint9_linear_5_141" x1="33.1975" y1="29.3194" x2="57.039" y2="54.2087" gradientUnits="userSpaceOnUse">
<stop stop-color="#E5FFFF"/>
<stop offset="0.32" stop-color="#3DFFFF"/>
<stop offset="0.58" stop-color="#3BF7FF"/>
<stop offset="1" stop-color="#0073AA"/>
</linearGradient>
<linearGradient id="paint10_linear_5_141" x1="33.1975" y1="29.3194" x2="57.039" y2="54.2087" gradientUnits="userSpaceOnUse">
<stop stop-color="#E5FFFF"/>
<stop offset="0.32" stop-color="#3DFFFF"/>
<stop offset="0.58" stop-color="#3BF7FF"/>
<stop offset="1" stop-color="#0073AA"/>
</linearGradient>
</defs>
</svg>
