<svg width="97" height="108" viewBox="0 0 97 108" fill="none" xmlns="http://www.w3.org/2000/svg">
<g clip-path="url(#clip0_194_898)">
<path d="M45.67 95.4896L41.9046 98.7951L40.5489 66.2478L40.4648 64.2162L44.2825 62.1758L44.3665 64.2074L45.67 95.4896Z" fill="url(#paint0_linear_194_898)"/>
<path d="M40.505 100.022L36.7409 103.327L35.5952 72.4974L39.4128 70.457L40.505 100.022Z" fill="url(#paint1_linear_194_898)"/>
<path d="M35.4163 104.492L31.5287 107.904L30.4849 75.0587L34.3025 73.0195L35.4163 104.492Z" fill="url(#paint2_linear_194_898)"/>
<path d="M30.1904 107.792L26.2277 105.985L25.2666 77.722L29.0931 75.6992L30.1904 107.792Z" fill="url(#paint3_linear_194_898)"/>
<path d="M24.8291 105.353L20.869 103.546L20.1128 80.3729L23.9317 78.4219L24.8291 105.353Z" fill="url(#paint4_linear_194_898)"/>
<path d="M54.9043 69.216L79.6393 56.64C79.6393 56.64 80.692 56.1868 80.706 55.3862C80.72 54.5857 81.662 48.7363 81.662 48.7363L84.4868 47.1289L84.4358 58.8629C84.4358 58.8629 84.5084 60.2135 83.0139 60.9864C81.5195 61.7593 62.7483 71.4843 62.7483 71.4843" fill="#01FEFF"/>
<path d="M93.4333 41.4617L95.0271 40.6096V40.6108C96.1142 40.0293 96.9556 38.5729 96.906 37.3557L96.0696 16.8672L92.5066 18.7704L92.8729 27.7383L89.5817 29.4967L89.216 20.5288L85.653 22.4321L86.0985 33.3391C86.1456 34.4694 87.0023 34.949 88.0131 34.409L89.3688 33.685L89.3688 33.6852L89.7443 33.4845L89.7443 33.4851L89.7454 33.484L89.7456 33.4838L93.0358 31.726L93.2706 37.4742L87.2011 40.7167L85.1592 45.8813L93.4333 41.4607L93.4333 41.4617Z" fill="white"/>
<path fill-rule="evenodd" clip-rule="evenodd" d="M80.3756 43.9393L80.1439 38.2655L75.4478 40.7746L75.6795 46.4477L72.1165 48.351L71.5207 33.7483C71.4354 31.6714 72.8713 29.1854 74.726 28.1935L74.9239 28.0883L79.6258 25.5773L79.6258 25.5768L81.6434 24.4993C82.4963 24.0436 83.2194 24.4477 83.2588 25.4031L83.9373 42.0368L80.3756 43.9393ZM79.7886 29.5638L79.9811 34.2777L75.285 36.7869L75.0925 32.073L79.7886 29.5638Z" fill="white"/>
<path d="M83.9373 42.0368L83.9386 42.0361L83.9373 42.0373L83.9373 42.0368Z" fill="white"/>
<path d="M59.6628 36.2433L60.4126 54.6058L70.1075 49.4263L69.9446 45.4386L63.8116 48.7158L63.2246 34.3401L59.6628 36.2433Z" fill="white"/>
<path fill-rule="evenodd" clip-rule="evenodd" d="M46.6815 67.9649L46.2348 56.8606L46.2284 56.864L46.0667 52.8901L46.0749 52.8858L45.8683 47.7494L45.8564 47.7557L45.6948 43.7819L55.8569 38.3529C56.8511 37.8217 57.695 38.2925 57.7396 39.4065L57.8198 41.3651L57.819 41.3643L58.0288 46.4983V46.4995L58.109 48.4581C58.1548 49.5708 57.3847 50.9038 56.3905 51.435L49.7851 54.9639L50.2318 66.0679L46.6815 67.9649ZM54.2687 43.2607L49.4186 45.8523L49.6252 50.9887L54.4784 48.3954L54.2687 43.2607Z" fill="white"/>
<path d="M13.8379 65.5138L22.2501 61.0188L22.4599 66.152L17.5976 68.7501L17.5179 66.7989L13.9676 68.6958L14.6626 85.7228L18.2129 83.8259L17.7598 72.7241L24.3719 69.1917C25.3661 68.6605 26.1362 67.3275 26.0904 66.2147L26.0102 64.2561V64.2549L26.0089 64.2556L25.8002 59.1222L25.8012 59.1232L25.721 57.1646C25.6765 56.0506 24.8325 55.5798 23.8383 56.111L13.6762 61.54L13.8379 65.5138Z" fill="white"/>
<path d="M12.0694 62.4626L0.0385742 68.891L0.268763 74.5467L3.71977 72.7039L3.64598 70.9098L12.2259 66.3257L12.0694 62.4626Z" fill="white"/>
<path d="M12.5201 73.5017L0.489302 79.9289L0.331456 76.0671L12.3623 69.6399L12.5201 73.5017Z" fill="white"/>
<path d="M0.624077 83.3791L0.550247 81.5854L4.00126 79.7413L4.07346 81.4955L12.6586 76.9082L12.8165 80.77L0.785667 87.1984L0.629438 83.3762L0.624077 83.3791Z" fill="white"/>
<path d="M27.4099 58.2976L30.9602 56.4007L30.7985 52.4281L27.2482 54.325L27.4099 58.2976Z" fill="white"/>
<path d="M27.9965 72.6877L31.5468 70.7908L31.0312 58.1392L27.4809 60.0361L27.9965 72.6877Z" fill="white"/>
<path d="M73.6577 58.2673L73.6501 52.8698C73.6501 52.8144 73.6679 52.7603 73.7022 52.7061C73.7379 52.652 73.7825 52.6117 73.8359 52.5828L74.5971 52.1901C74.6506 52.1624 74.6952 52.1573 74.7308 52.1749C74.7665 52.1926 74.783 52.2291 74.783 52.2845L74.7855 54.2154C74.7855 54.2708 74.8034 54.3073 74.839 54.3249C74.8746 54.3425 74.9192 54.3375 74.9727 54.3098L75.6779 53.946C75.8077 53.8793 75.9096 53.7761 75.9859 53.6389L77.7006 50.7387C77.7757 50.6003 77.8789 50.4983 78.0087 50.4316L79.134 49.8501C79.1722 49.8312 79.1964 49.8349 79.2066 49.8626C79.218 49.884 79.2142 49.9193 79.1989 49.9659L76.9992 53.6955C76.9127 53.839 76.9127 53.9384 76.9992 53.9926L79.2053 55.4464C79.2218 55.4766 79.2244 55.5081 79.2129 55.5421C79.2015 55.5811 79.1773 55.6101 79.1404 55.6289L78.0138 56.2105C77.8839 56.2772 77.7821 56.281 77.7057 56.2205L75.9859 55.094C75.9096 55.0336 75.8077 55.0373 75.6779 55.104L74.9727 55.4678C74.9192 55.4955 74.8746 55.5371 74.839 55.5899C74.8034 55.644 74.7868 55.6982 74.7868 55.7536L74.7894 57.6845C74.7894 57.7398 74.7715 57.794 74.7372 57.8481C74.7015 57.9022 74.657 57.9425 74.6035 57.9702L73.8423 58.3629C73.7888 58.3906 73.7443 58.3956 73.7086 58.378C73.673 58.3604 73.6564 58.3239 73.6552 58.2685L73.6577 58.2673Z" fill="white"/>
<path d="M67.1808 57.1784C67.1808 56.8599 67.2903 56.5301 67.5118 56.1903C67.7333 55.8504 67.9993 55.5999 68.3138 55.4375L72.0881 53.4877C72.1416 53.46 72.1874 53.455 72.2256 53.4739C72.2638 53.4928 72.2829 53.5268 72.2829 53.5771V54.3525C72.2829 54.4079 72.265 54.4633 72.2268 54.5174C72.1887 54.5728 72.1428 54.6143 72.0894 54.642L68.5009 56.4949C68.4461 56.5226 68.4029 56.5654 68.3672 56.622C68.3316 56.6786 68.315 56.7315 68.315 56.7819V57.5497C68.315 57.6051 68.3341 57.6428 68.3685 57.663C68.4041 57.6831 68.4487 57.6793 68.5021 57.6516L71.7177 55.9914C72.0308 55.8303 72.2969 55.8051 72.5158 55.9171C72.7348 56.0304 72.8442 56.2456 72.8455 56.5654V57.7209C72.8468 58.0406 72.7386 58.3691 72.5196 58.7077C72.3007 59.0463 72.0359 59.2968 71.7227 59.4579C71.3065 59.6732 70.5975 60.0382 69.5931 60.5543C68.5887 61.0704 67.8491 61.4505 67.3743 61.696C67.3196 61.7237 67.275 61.7287 67.2406 61.7111C67.205 61.6935 67.1884 61.657 67.1872 61.6016V60.8338C67.1872 60.7784 67.2037 60.7242 67.2381 60.6701C67.2725 60.616 67.317 60.5757 67.3717 60.5468L71.5267 58.4006C71.5802 58.3729 71.626 58.3301 71.6642 58.2722C71.7024 58.2143 71.7202 58.1577 71.7202 58.1023V57.3344C71.7202 57.2854 71.6998 57.2501 71.6629 57.2312C71.626 57.2124 71.5789 57.2161 71.5254 57.2451L68.3176 58.9016C68.0044 59.064 67.7371 59.0891 67.5156 58.9771C67.2941 58.8663 67.1834 58.6511 67.1821 58.3314V57.1758L67.1808 57.1784Z" fill="white"/>
<path d="M61.259 60.2359L61.2641 63.7024H61.2654C61.2667 64.0221 61.3774 64.2374 61.5989 64.3482C61.8204 64.4602 62.0877 64.435 62.4009 64.2726L66.1841 62.3191C66.2389 62.2914 66.2822 62.2511 66.3178 62.197C66.3522 62.1428 66.3687 62.0887 66.3687 62.0333V61.2579C66.3687 61.2026 66.3509 61.1661 66.3153 61.1484C66.2796 61.1308 66.2351 61.1359 66.1816 61.1635L62.5855 63.0214C62.532 63.0491 62.4874 63.0542 62.4518 63.0365C62.4174 63.0189 62.3983 62.9824 62.3983 62.927V62.1517C62.3983 62.0963 62.4149 62.0421 62.4505 61.988C62.4862 61.9352 62.5307 61.8936 62.5842 61.8659L66.1803 60.008C66.2351 59.9803 66.2783 59.94 66.314 59.8859C66.3484 59.8318 66.3649 59.7777 66.3649 59.7223V58.9469C66.3636 58.8915 66.3471 58.855 66.3114 58.8374C66.2758 58.8198 66.2312 58.8248 66.1778 58.8525L62.5816 60.7104C62.5282 60.7381 62.4836 60.7431 62.448 60.7255C62.4136 60.7079 62.3945 60.6714 62.3945 60.616V59.8406C62.3945 59.7852 62.4111 59.7311 62.4467 59.677C62.4823 59.6241 62.5269 59.5826 62.5804 59.5549L66.1765 57.697C66.2312 57.6693 66.2758 57.629 66.3102 57.5749C66.3445 57.5207 66.3611 57.4666 66.3611 57.4112V56.6359C66.3611 56.5805 66.3445 56.544 66.3089 56.5263C66.2732 56.5087 66.2287 56.5138 66.1752 56.5414L62.392 58.495C62.0776 58.6574 61.8115 58.9079 61.59 59.2477C61.3685 59.5876 61.259 59.9174 61.259 60.2359Z" fill="white"/>
<path fill-rule="evenodd" clip-rule="evenodd" d="M54.8229 62.4576C54.7885 62.5117 54.7707 62.5658 54.7707 62.6212L54.7694 62.62L54.777 68.0175C54.7783 68.0728 54.7948 68.1093 54.8305 68.127C54.8661 68.1446 54.9107 68.1396 54.9642 68.1119L59.3139 65.865C59.627 65.7026 59.8944 65.4521 60.1158 65.1123C60.3373 64.7724 60.4468 64.4439 60.4468 64.1242L60.4417 60.6576C60.4405 60.3391 60.3297 60.1239 60.1082 60.0119C59.8867 59.9011 59.6194 59.9263 59.3062 60.0874L54.9565 62.3342C54.9018 62.3632 54.8585 62.4035 54.8229 62.4576ZM55.9583 63.0278C55.994 62.9737 56.0385 62.9321 56.092 62.9044L56.0907 62.9057L59.1204 61.3411C59.1739 61.3134 59.2184 61.3084 59.254 61.326C59.2897 61.3449 59.3075 61.3801 59.3075 61.4355L59.3113 64.5219C59.3113 64.5773 59.2935 64.6314 59.2591 64.6856C59.2235 64.7384 59.1789 64.78 59.1255 64.8077L56.0958 66.3723C56.0424 66.4 55.9978 66.405 55.9622 66.3874C55.9278 66.3698 55.91 66.3333 55.91 66.2779L55.9062 63.1914C55.9062 63.136 55.9227 63.0819 55.9583 63.0278Z" fill="white"/>
<path d="M43.6658 45.8812L43.8274 49.855L40.3742 51.7001L43.8283 49.8551L43.8983 51.5934L40.082 53.6325L40.0107 51.8943L32.9219 55.6817L32.8239 53.2838C32.7883 52.414 33.3904 51.3718 34.1669 50.9564L43.6645 45.8824L43.6658 45.8812Z" fill="white"/>
<path d="M44.4127 64.182L44.251 60.2082L37.163 63.9953L36.7405 53.6426L32.9229 55.6818L33.3684 66.5988L33.3686 66.5987L33.4435 68.4328C33.4792 69.3026 34.1386 69.6714 34.9151 69.256L44.4127 64.182Z" fill="white"/>
<path d="M33.7555 48.3489L32.1948 5.28102L35.9603 0.09375L37.6291 46.2241L33.7555 48.3489Z" fill="url(#paint5_linear_194_898)"/>
<path d="M41.3376 6.97289L42.4947 43.6501L38.8337 45.6578L37.3265 0.938483L41.3376 6.97289Z" fill="url(#paint6_linear_194_898)"/>
<path d="M28.5912 50.9832L27.3004 12.2543L31.0658 7.06698L32.4648 48.8585L28.5912 50.9832Z" fill="url(#paint7_linear_194_898)"/>
<path d="M22.21 19.2403L23.357 53.8103L27.2306 51.6856L25.9742 14.053L22.21 19.2403Z" fill="url(#paint8_linear_194_898)"/>
<path d="M17.0376 26.706L18.1018 56.7798L21.9754 54.655L20.803 21.5174L17.0376 26.706Z" fill="url(#paint9_linear_194_898)"/>
</g>
<defs>
<linearGradient id="paint0_linear_194_898" x1="33.5526" y1="71.0512" x2="51.7617" y2="89.466" gradientUnits="userSpaceOnUse">
<stop offset="0.13" stop-color="white"/>
<stop offset="0.32" stop-color="#3DFFFF"/>
<stop offset="0.58" stop-color="#3BF7FF"/>
<stop offset="1" stop-color="#153EFF"/>
</linearGradient>
<linearGradient id="paint1_linear_194_898" x1="29.9114" y1="82.2313" x2="45.5589" y2="91.3659" gradientUnits="userSpaceOnUse">
<stop stop-color="#3DFFFF"/>
<stop offset="0.44" stop-color="#3BF7FF"/>
<stop offset="1" stop-color="#153EFF"/>
</linearGradient>
<linearGradient id="paint2_linear_194_898" x1="24.3466" y1="85.5704" x2="40.8409" y2="95.2005" gradientUnits="userSpaceOnUse">
<stop stop-color="#3DFFFF"/>
<stop offset="0.44" stop-color="#3BF7FF"/>
<stop offset="1" stop-color="#153EFF"/>
</linearGradient>
<linearGradient id="paint3_linear_194_898" x1="20.12" y1="86.537" x2="36.8852" y2="96.3257" gradientUnits="userSpaceOnUse">
<stop stop-color="#3DFFFF"/>
<stop offset="0.44" stop-color="#3BF7FF"/>
<stop offset="1" stop-color="#153EFF"/>
</linearGradient>
<linearGradient id="paint4_linear_194_898" x1="15.9439" y1="87.1073" x2="30.5142" y2="95.6147" gradientUnits="userSpaceOnUse">
<stop stop-color="#3DFFFF"/>
<stop offset="0.44" stop-color="#3BF7FF"/>
<stop offset="1" stop-color="#153EFF"/>
</linearGradient>
<linearGradient id="paint5_linear_194_898" x1="23.198" y1="12.3194" x2="47.0395" y2="37.2087" gradientUnits="userSpaceOnUse">
<stop stop-color="#E5FFFF"/>
<stop offset="0.32" stop-color="#3DFFFF"/>
<stop offset="0.58" stop-color="#3BF7FF"/>
<stop offset="1" stop-color="#0073AA"/>
</linearGradient>
<linearGradient id="paint6_linear_194_898" x1="23.198" y1="12.3194" x2="47.0395" y2="37.2087" gradientUnits="userSpaceOnUse">
<stop stop-color="#E5FFFF"/>
<stop offset="0.32" stop-color="#3DFFFF"/>
<stop offset="0.58" stop-color="#3BF7FF"/>
<stop offset="1" stop-color="#0073AA"/>
</linearGradient>
<linearGradient id="paint7_linear_194_898" x1="23.198" y1="12.3194" x2="47.0395" y2="37.2087" gradientUnits="userSpaceOnUse">
<stop stop-color="#E5FFFF"/>
<stop offset="0.32" stop-color="#3DFFFF"/>
<stop offset="0.58" stop-color="#3BF7FF"/>
<stop offset="1" stop-color="#0073AA"/>
</linearGradient>
<linearGradient id="paint8_linear_194_898" x1="23.198" y1="12.3194" x2="47.0395" y2="37.2087" gradientUnits="userSpaceOnUse">
<stop stop-color="#E5FFFF"/>
<stop offset="0.32" stop-color="#3DFFFF"/>
<stop offset="0.58" stop-color="#3BF7FF"/>
<stop offset="1" stop-color="#0073AA"/>
</linearGradient>
<linearGradient id="paint9_linear_194_898" x1="23.198" y1="12.3194" x2="47.0395" y2="37.2087" gradientUnits="userSpaceOnUse">
<stop stop-color="#E5FFFF"/>
<stop offset="0.32" stop-color="#3DFFFF"/>
<stop offset="0.58" stop-color="#3BF7FF"/>
<stop offset="1" stop-color="#0073AA"/>
</linearGradient>
<clipPath id="clip0_194_898">
<rect width="97" height="108" fill="white"/>
</clipPath>
</defs>
</svg>
