<svg width="151" height="80" viewBox="0 0 151 80" fill="none" xmlns="http://www.w3.org/2000/svg">
<g clip-path="url(#clip0_3288_4900)">
<path fill-rule="evenodd" clip-rule="evenodd" d="M48.4765 56.8453C39.5175 55.7912 34.5247 50.7984 33.498 41.8669C35.9177 41.6509 38.2057 40.9232 40.3632 39.6825C42.0146 39.3723 43.679 39.2681 45.356 39.3704C45.356 40.2024 45.356 41.0349 45.356 41.8669C47.2383 41.654 48.9022 40.9263 50.3488 39.6825C52.467 39.2132 54.5472 39.3174 56.5898 39.9945C57.0186 41.2771 57.7469 42.3168 58.7742 43.1151C59.085 45.1852 59.1892 47.2653 59.0863 49.3561C58.4622 49.3561 57.8381 49.3561 57.2139 49.3561C57.3775 50.2785 57.1696 51.1104 56.5898 51.8525C55.5307 52.3917 54.803 53.2236 54.4055 54.3489C53.5592 54.8981 52.6231 55.1066 51.597 54.973C51.597 55.5971 51.597 56.2212 51.597 56.8453C50.5566 56.8453 49.5169 56.8453 48.4765 56.8453Z" fill="#702D16"/>
<path fill-rule="evenodd" clip-rule="evenodd" d="M100.901 23.7679C107.171 23.2642 111.956 25.5522 115.256 30.633C114.485 30.4951 113.861 30.0788 113.383 29.3848C113.175 29.6968 112.967 30.0089 112.759 30.3209C114.493 35.1421 113.454 39.303 109.639 42.803C107.766 43.3229 105.894 43.8434 104.022 44.3632C105.757 45.3718 107.422 45.4754 109.014 44.6753C111.303 44.259 113.591 44.259 115.88 44.6753C114.11 45.7113 113.174 47.2716 113.071 49.3561C111.587 50.6093 109.403 51.8575 106.518 53.1007C105.589 52.0715 104.965 50.8233 104.646 49.3561C104.229 49.1482 103.814 48.9398 103.398 48.732C102.505 53.9713 99.3846 56.0521 94.036 54.973C94.3549 52.9802 94.7712 51.0043 95.2842 49.044C95.18 48.3157 95.0764 47.588 94.9722 46.8597C93.3826 45.9223 92.8627 44.674 93.4119 43.115C97.0798 42.9721 100.408 41.9317 103.398 39.9945C98.1595 40.3253 92.751 40.3253 87.1709 39.9945C88.3036 38.0898 89.344 36.2175 90.2914 34.3776C90.0461 36.1975 89.422 37.862 88.4191 39.3704C93.1779 40.8346 97.131 39.6906 100.277 35.9379C100.869 35.6364 101.493 35.5328 102.149 35.6258C101.814 31.6628 101.398 27.7103 100.901 23.7679Z" fill="#6A2A14"/>
<path fill-rule="evenodd" clip-rule="evenodd" d="M88.4192 21.8956C89.2268 22.3887 89.9551 23.0128 90.6035 23.7679C90.8426 23.4209 91.1546 23.2131 91.5397 23.1438C91.0554 26.8716 90.6391 30.6162 90.2915 34.3777C89.3441 36.2175 88.3037 38.0898 87.171 39.9946C92.7511 40.3254 98.1595 40.3254 103.398 39.9946C100.408 41.9318 97.0798 42.9722 93.412 43.1151C92.8628 44.6741 93.3827 45.9223 94.9722 46.8597C95.0765 47.5881 95.1801 48.3158 95.2843 49.0441C94.7713 51.0044 94.355 52.9803 94.0361 54.9731C99.3847 56.0521 102.505 53.9714 103.398 48.732C103.814 48.9399 104.23 49.1483 104.646 49.3561C104.965 50.8234 105.589 52.0716 106.518 53.1008C109.403 51.8575 111.587 50.6093 113.071 49.3561C113.174 47.2716 114.11 45.7114 115.88 44.6754C113.591 44.2591 111.303 44.2591 109.015 44.6754C107.422 45.4755 105.757 45.3719 104.022 44.3633C105.894 43.8434 107.766 43.3229 109.639 42.8031C113.454 39.3031 114.494 35.1422 112.759 30.321C112.967 30.009 113.175 29.6969 113.383 29.3849C113.861 30.0789 114.485 30.4951 115.256 30.6331C116.634 31.5031 117.57 32.7513 118.064 34.3777C118.433 38.121 118.745 41.8657 119 45.6115C116.712 50.6936 112.76 53.9183 107.142 55.2851C104.156 55.1179 101.66 56.054 99.653 58.0936C96.9057 58.2633 94.2015 58.0555 91.5397 57.4695C90.9018 57.691 90.4856 58.1073 90.2915 58.7177C86.5837 59.2875 82.8391 59.4953 79.0576 59.3418C77.9424 57.8521 76.6941 57.7485 75.313 59.0297C70.528 59.446 65.7436 59.446 60.9586 59.0297C56.7328 58.4574 52.5726 57.7297 48.4766 56.8454C49.517 56.8454 50.5567 56.8454 51.5971 56.8454C51.5971 56.2213 51.5971 55.5972 51.5971 54.9731C52.6231 55.1066 53.5593 54.8982 54.4056 54.349C54.8031 53.2237 55.5308 52.3918 56.5899 51.8526C57.1697 51.1105 57.3775 50.2786 57.214 49.3561C57.8381 49.3561 58.4622 49.3561 59.0863 49.3561C59.1893 47.2654 59.0851 45.1853 58.7743 43.1151C57.747 42.3169 57.0187 41.2771 56.5899 39.9946C54.5472 39.3175 52.4671 39.2132 50.3489 39.6826C48.9022 40.9264 47.2384 41.6541 45.3561 41.8669C45.3561 41.035 45.3561 40.2024 45.3561 39.3705C43.6791 39.2682 42.0146 39.3724 40.3633 39.6826C38.2057 40.9233 35.9178 41.651 33.4981 41.8669C33.0818 41.8669 32.874 41.6591 32.874 41.2428C33.1349 40.7922 33.5506 40.4802 34.1222 40.3067C33.9144 40.0988 33.706 39.8904 33.4981 39.6826C36.3166 38.0231 39.2293 36.4628 42.2356 35.0018C44.0754 31.6972 44.9073 28.2646 44.732 24.7041C45.3037 24.4707 45.8242 24.1586 46.2922 23.7679C47.156 28.0811 47.468 32.4498 47.2284 36.8741C49.7342 36.5539 52.0221 35.722 54.0935 34.3777C53.8376 30.5576 54.1497 26.8129 55.0297 23.1438C57.8038 24.7053 59.1562 27.4102 59.0863 31.2572C58.6432 34.0113 58.0191 36.7162 57.214 39.3705C59.2729 39.9172 61.3531 40.0214 63.4551 39.6826C64.9105 37.9132 66.5743 36.353 68.4479 35.0018C68.9341 32.1228 69.2461 29.2101 69.384 26.2643C69.4539 24.4251 70.3901 23.5932 72.1925 23.7679C73.5112 26.2706 74.3432 28.9755 74.6889 31.8813C74.5273 34.822 73.6953 37.5263 72.1925 39.9946C75.3342 40.0876 78.4547 40.0876 81.554 39.9946C83.0088 38.6465 84.5691 37.3983 86.2348 36.25C88.2513 31.6304 88.979 26.846 88.4192 21.8956Z" fill="#622814"/>
<path fill-rule="evenodd" clip-rule="evenodd" d="M64.703 42.4909C67.8303 42.3873 70.9508 42.4915 74.0645 42.8029C75.8706 44.6185 76.3905 46.8028 75.6248 49.356C74.6199 50.8782 74.0994 52.5427 74.0645 54.3488C71.1362 54.6834 68.2241 55.099 65.3271 55.597C64.2655 55.7905 63.2251 55.4785 62.2065 54.6609C63.3075 51.1996 63.828 47.5586 63.7668 43.7391C64.2143 43.3996 64.5263 42.9833 64.703 42.4909Z" fill="#742E16"/>
<path fill-rule="evenodd" clip-rule="evenodd" d="M79.6815 42.4908C90.3149 40.9019 93.4354 45.0628 89.043 54.9729C86.0186 55.7449 83.0017 56.5768 79.9935 57.4693C78.9731 57.2334 78.037 56.8177 77.1851 56.2211C77.6481 55.7299 78.168 55.3143 78.7453 54.9729C79.1997 51.8318 79.0954 48.7113 78.4333 45.6113C79.0867 44.6402 79.503 43.5999 79.6815 42.4908Z" fill="#742E15"/>
<path fill-rule="evenodd" clip-rule="evenodd" d="M90.291 58.7177C90.2217 59.1027 90.0139 59.4148 89.6669 59.6538C86.0165 60.1643 82.4803 60.0607 79.0571 59.3418C82.8386 59.4953 86.5832 59.2875 90.291 58.7177Z" fill="#B19F9E"/>
<path fill-rule="evenodd" clip-rule="evenodd" d="M32.2496 32.5052C31.7229 34.7514 31.5151 37.04 31.6255 39.3704C30.9134 37.4107 30.8092 35.3306 31.3135 33.1294C31.5525 32.7824 31.8646 32.5745 32.2496 32.5052Z" fill="#B08C82"/>
<path fill-rule="evenodd" clip-rule="evenodd" d="M88.4188 21.8955C88.9786 26.8459 88.2509 31.6303 86.2344 36.2499C84.5687 37.3983 83.0084 38.6465 81.5536 39.9945C78.4543 40.0875 75.3338 40.0875 72.1921 39.9945C73.6949 37.5262 74.5269 34.822 74.6885 31.8812C74.3428 28.9754 73.5108 26.2705 72.1921 23.7679C70.3897 23.5931 69.4535 24.425 69.3836 26.2643C69.2457 29.21 68.9337 32.1227 68.4475 35.0017C66.5739 36.3529 64.9101 37.9131 63.4547 39.6825C61.3527 40.0214 59.2726 39.9171 57.2136 39.3704C58.0187 36.7161 58.6428 34.0112 59.0859 31.2571C59.1558 27.4101 57.8034 24.7053 55.0293 23.1437C54.1493 26.8128 53.8372 30.5575 54.0931 34.3776C52.0217 35.7219 49.7338 36.5538 47.228 36.874C47.4677 32.4497 47.1556 28.081 46.2918 23.7679C45.8238 24.1585 45.3033 24.4706 44.7316 24.704C44.907 28.2645 44.075 31.6971 42.2352 35.0017C39.2289 36.4627 36.3162 38.023 33.4977 39.6825C33.7056 39.8903 33.914 40.0987 34.1218 40.3066C33.5502 40.4801 33.1345 40.7921 32.8736 41.2427C31.9961 40.9475 31.5799 40.3234 31.6254 39.3704C31.515 37.04 31.7228 34.7514 32.2495 32.5053C34.5269 25.9566 39.1034 22.7318 45.9798 22.8317C46.5858 21.9074 47.4177 21.3869 48.4762 21.2714C50.3922 21.1891 52.2645 21.3969 54.0931 21.8955C55.4537 22.8373 56.494 22.5253 57.2136 20.9594C61.2029 20.3915 65.0511 20.9113 68.7595 22.5196C69.4205 22.4385 69.9403 22.1265 70.3198 21.5835C74.6423 21.4437 78.9074 20.9232 83.1139 20.0232C85.1878 19.8678 86.9565 20.4919 88.4188 21.8955Z" fill="#732F17"/>
<path fill-rule="evenodd" clip-rule="evenodd" d="M100.901 23.7677C101.398 27.7102 101.814 31.6626 102.149 35.6257C101.493 35.5327 100.869 35.6363 100.277 35.9377C97.1308 39.6905 93.1777 40.8344 88.4189 39.3703C89.4219 37.8618 90.046 36.1974 90.2913 34.3775C90.6389 30.616 91.0552 26.8714 91.5395 23.1436C91.6087 22.7586 91.8166 22.4465 92.1636 22.2075C94.4521 21.7912 96.7401 21.7912 99.0287 22.2075C99.9286 22.4428 100.553 22.9626 100.901 23.7677Z" fill="#742E17"/>
<path fill-rule="evenodd" clip-rule="evenodd" d="M48.4766 21.2714C50.0156 20.5637 51.6801 20.4594 53.4694 20.9593C53.8164 21.1984 54.0242 21.5104 54.0935 21.8955C52.2649 21.3968 50.3926 21.189 48.4766 21.2714Z" fill="#A98379"/>
</g>
<defs>
<clipPath id="clip0_3288_4900">
<rect width="151" height="80" fill="white"/>
</clipPath>
</defs>
</svg>
