<svg width="151" height="80" viewBox="0 0 151 80" fill="none" xmlns="http://www.w3.org/2000/svg">
<g clip-path="url(#clip0_3288_4924)">
<path fill-rule="evenodd" clip-rule="evenodd" d="M38.1172 47.452C40.2395 47.6782 42.2711 48.1657 44.2115 48.9146C45.3138 48.9443 46.2889 48.6191 47.1368 47.9395C47.2991 48.2647 47.462 48.5894 47.6243 48.9146C48.3069 48.6143 49.0382 48.4519 49.8183 48.4271C56.2714 49.5026 62.7723 50.1525 69.32 50.3772C76.4562 49.5606 83.6071 48.8293 90.772 48.1833C92.1235 47.9268 93.4233 47.5207 94.6724 46.9644C99.9398 43.8875 105.14 40.7185 110.274 37.4573C112.247 36.7231 114.197 35.9917 116.124 35.2633C116.296 33.6159 116.947 32.1533 118.075 30.8754C116.774 30.3879 116.774 29.9004 118.075 29.4128C118.4 29.9004 118.724 30.3879 119.05 30.8754C119.212 30.5503 119.375 30.2255 119.537 29.9004C119.228 29.1856 118.821 28.5352 118.318 27.9502C116.989 28.583 115.608 29.0706 114.174 29.4128C116.04 27.5397 118.315 26.4022 121 26C119.448 35.1805 114.572 42.0875 106.373 46.7206C88.4854 54.7661 69.9587 56.4725 50.7933 51.8399C46.2592 51.1032 42.0341 49.6406 38.1172 47.452Z" fill="#7A311A"/>
<path fill-rule="evenodd" clip-rule="evenodd" d="M113.199 29.9004C113.527 30.2743 113.933 30.5995 114.418 30.8755C114.754 31.2811 114.672 31.6058 114.174 31.8506C112.031 32.7525 109.919 33.7276 107.836 34.7758C106.381 36.2112 104.756 37.43 102.961 38.4324C97.0118 40.3397 90.9984 42.1275 84.9216 43.7954C80.3865 44.3146 75.8363 44.6398 71.2704 44.7705C68.7781 45.79 66.1775 46.3589 63.4697 46.4769C59.6044 45.8177 55.7855 45.005 52.0124 44.0392C49.3689 44.3941 46.6874 44.3941 43.9679 44.0392C43.9679 44.5267 43.9679 45.0143 43.9679 45.5018C40.7984 45.0733 37.7108 45.0733 34.7046 45.5018C30.4034 43.2391 28.5347 39.664 29.0978 34.7758C29.4376 33.7598 30.0066 32.9471 30.8042 32.3381C31.1718 33.9202 31.1718 35.5452 30.8042 37.2136C30.7862 38.5528 31.2737 39.6094 32.2668 40.3826C33.8918 40.7078 35.5173 40.7078 37.1423 40.3826C38.2763 38.5982 39.7389 37.1356 41.5302 35.9947C42.2615 35.9133 42.9928 35.8323 43.7241 35.7509C46.2857 36.9108 48.9672 37.5607 51.7686 37.7011C52.0655 35.7202 51.4151 34.1762 49.8184 33.0694C50.4488 32.8305 51.0992 32.7491 51.7686 32.8257C54.6495 33.6847 57.5748 34.3351 60.5444 34.7758C69.192 37.1487 77.9678 37.7986 86.8718 36.726C91.5888 36.2419 96.3019 35.3477 101.011 34.0445C105.186 32.8734 109.249 31.4917 113.199 29.9004Z" fill="#8E3B1F"/>
<path fill-rule="evenodd" clip-rule="evenodd" d="M60.5449 34.7759C65.4189 35.3439 70.2944 35.9128 75.1713 36.4823C79.0682 36.7261 82.9686 36.807 86.8723 36.7261C77.9683 37.7987 69.1925 37.1488 60.5449 34.7759Z" fill="#CEAEA5"/>
<path fill-rule="evenodd" clip-rule="evenodd" d="M38.1174 47.4519C36.7372 47.1696 35.5997 46.5197 34.7046 45.5017C37.7108 45.0731 40.7984 45.0731 43.9679 45.5017C43.9679 45.0141 43.9679 44.5266 43.9679 44.039C46.6875 44.394 49.369 44.394 52.0124 44.039C55.7855 45.0049 59.6045 45.8176 63.4697 46.4768C66.1775 46.3588 68.7781 45.7898 71.2704 44.7704C75.8363 44.6397 80.3865 44.3145 84.9217 43.7953C90.9984 42.1274 97.0118 40.3396 102.961 38.4323C104.756 37.4299 106.381 36.211 107.836 34.7757C109.919 33.7275 112.031 32.7524 114.174 31.8504C114.672 31.6057 114.754 31.281 114.418 30.8753C113.933 30.5994 113.527 30.2742 113.199 29.9003C113.366 29.4917 113.691 29.3288 114.174 29.4127C115.608 29.0705 116.989 28.5829 118.318 27.9501C118.821 28.5351 119.228 29.1855 119.537 29.9003C119.375 30.2254 119.212 30.5501 119.05 30.8753C118.725 30.3878 118.4 29.9003 118.075 29.4127C116.774 29.9003 116.774 30.3878 118.075 30.8753C116.947 32.1532 116.297 33.6158 116.125 35.2632C114.197 35.9916 112.247 36.723 110.274 37.4572C105.141 40.7184 99.94 43.8874 94.6726 46.9643C93.4235 47.5206 92.1237 47.9267 90.7722 48.1832C83.6073 48.8292 76.4564 49.5605 69.3203 50.3771C62.7725 50.1524 56.2716 49.5025 49.8185 48.4269C49.0384 48.4518 48.3071 48.6142 47.6245 48.9145C47.4622 48.5893 47.2993 48.2646 47.137 47.9394C46.2891 48.619 45.314 48.9442 44.2117 48.9145C42.2713 48.1656 40.2397 47.6781 38.1174 47.4519Z" fill="#81331A"/>
<path fill-rule="evenodd" clip-rule="evenodd" d="M51.7686 32.8255C51.0992 32.749 50.4488 32.8304 49.8184 33.0693C51.4151 34.176 52.0655 35.7201 51.7686 37.701C48.9672 37.5606 46.2857 36.9107 43.7241 35.7508C42.9928 35.8322 42.2615 35.9131 41.5302 35.9946C39.7389 37.1354 38.2763 38.598 37.1423 40.3825C35.5173 40.7077 33.8918 40.7077 32.2668 40.3825C31.2737 39.6092 30.7862 38.5527 30.8042 37.2134C31.1718 35.545 31.1718 33.9201 30.8042 32.338C31.2688 31.3093 32.0811 30.7403 33.2419 30.6316C39.7043 29.3108 45.88 30.0421 51.7686 32.8255Z" fill="#9E4624"/>
</g>
<defs>
<clipPath id="clip0_3288_4924">
<rect width="151" height="80" fill="white"/>
</clipPath>
</defs>
</svg>
