<svg width="151" height="80" viewBox="0 0 151 80" fill="none" xmlns="http://www.w3.org/2000/svg">
<g clip-path="url(#clip0_3288_4919)">
<path fill-rule="evenodd" clip-rule="evenodd" d="M68.8264 25.365C69.5411 25.7598 70.3611 26.0059 71.2874 26.1033C77.3578 26.4316 83.4287 26.4316 89.4991 26.1033C93.484 24.6105 97.5855 24.1183 101.804 24.6267C105.441 27.1005 109.214 29.3155 113.125 31.2715C113.002 31.9714 112.592 32.4636 111.894 32.7481C111.65 33.8851 111.568 35.0334 111.648 36.1936C111.074 36.8408 110.336 37.1686 109.433 37.178C108.073 36.8265 106.76 36.3343 105.496 35.7013C104.444 36.0794 103.378 36.4072 102.296 36.6858C100.945 35.9666 99.796 34.9822 98.851 33.7325C97.1967 34.5584 96.3762 35.8712 96.3899 37.6702C95.7338 37.6702 95.0772 37.6702 94.4211 37.6702C95.0772 40.6234 93.9289 41.7717 90.9757 41.1156C90.6292 38.9568 89.4808 37.3158 87.5302 36.1936C85.3182 37.302 83.0211 38.122 80.6393 38.6546C81.1104 36.3146 80.2899 34.6741 78.1783 33.7325C77.6014 33.9388 77.1092 34.2666 76.7017 34.7169C77.4237 34.8267 78.1621 34.9906 78.9166 35.2091C79.2764 37.2656 79.8508 39.2344 80.6393 41.1156C82.8749 40.0387 85.0899 38.8899 87.2841 37.6702C88.9891 38.1132 89.7274 39.262 89.4991 41.1156C87.2088 41.2165 85.0756 41.7909 83.1004 42.8383C79.0889 42.8566 75.1512 43.2671 71.2874 44.0689C70.8764 47.8687 70.2203 47.8687 69.3186 44.0689C67.3493 44.2239 65.5443 44.88 63.9043 46.0377C63.447 46.6229 63.2831 47.279 63.4121 48.0065C66.5356 46.648 67.8479 47.6324 67.3498 50.9598C67.271 51.796 67.3527 52.6165 67.5959 53.4208C68.7166 53.7245 69.7832 54.0528 70.7952 54.4052C68.8195 54.4869 66.8507 54.4047 64.8887 54.1591C64.2799 54.0449 63.7877 53.7988 63.4121 53.4208C64.3965 53.4208 65.3809 53.4208 66.3653 53.4208C66.3653 52.6003 66.3653 51.7803 66.3653 50.9598C64.2085 50.4813 62.0758 50.2352 59.9667 50.2214C59.595 49.1509 59.185 48.0848 58.7361 47.0221C58.46 46.7652 58.1317 46.6013 57.7517 46.5299C55.5078 47.2598 53.7028 48.5725 52.3374 50.4675C51.5037 49.5181 50.437 49.0259 49.1381 48.9909C48.9506 50.1929 49.2789 50.5212 50.1225 49.9753C50.758 51.1857 51.7424 51.924 53.0758 52.1903C52.1046 52.4339 51.1202 52.5161 50.1225 52.4364C47.6561 52.5181 45.195 52.4359 42.7394 52.1903C41.6374 51.4923 40.4891 50.9179 39.294 50.4675C36.7768 48.796 34.1514 47.2372 31.4187 45.7916C28.9414 43.1209 28.367 40.0859 29.6959 36.6858C34.368 29.879 40.8489 26.6797 49.1381 27.0877C53.0462 24.5996 57.3122 23.6152 61.9355 24.1345C64.2306 24.6001 66.5278 25.0101 68.8264 25.365Z" fill="#793019"/>
<path fill-rule="evenodd" clip-rule="evenodd" d="M113.125 31.2714C114.565 31.2517 115.877 31.6617 117.063 32.5019C117.945 33.8777 119.012 35.1082 120.262 36.1935C121.038 39.0916 121.202 42.0448 120.754 45.0532C116.353 49.9197 110.857 52.4624 104.265 52.6824C102.883 53.2204 101.57 53.7948 100.328 54.4051C97.283 54.4297 94.2481 54.2658 91.222 53.9129C88.0714 54.6394 84.872 54.9677 81.624 54.8973C81.1603 53.0309 81.8164 51.5543 83.5928 50.4675C85.7044 50.1603 87.8376 50.0786 89.9915 50.2214C91.2884 49.2562 92.1911 48.0256 92.6986 46.5298C93.0943 45.888 93.6688 45.5597 94.4213 45.5454C95.8522 45.7964 97.2471 46.1247 98.6051 46.5298C98.8512 47.2681 99.0973 48.0065 99.3434 48.7448C98.896 49.6253 98.8138 50.528 99.0973 51.4519C99.3331 48.1846 99.7431 45.0675 100.328 42.1C100.239 41.5812 100.075 41.089 99.8356 40.6234C98.6873 40.2951 97.5385 39.9672 96.3902 39.6389C97.062 39.1684 97.8003 38.8406 98.6051 38.6545C99.6309 39.2791 100.697 39.7713 101.804 40.1311C101.004 43.7626 102.317 44.911 105.742 43.5766C106.427 42.4002 107.411 41.5797 108.695 41.1156C109.506 40.1843 109.67 39.1999 109.188 38.1623C109.792 37.7779 110.449 37.5318 111.156 37.424C111.527 37.0937 111.691 36.6837 111.649 36.1935C111.568 35.0334 111.65 33.885 111.895 32.748C112.592 32.4636 113.002 31.9713 113.125 31.2714Z" fill="#622612"/>
<path fill-rule="evenodd" clip-rule="evenodd" d="M111.648 36.1936C111.691 36.6838 111.526 37.0938 111.156 37.4241C110.448 37.5319 109.792 37.778 109.187 38.1624C109.67 39.2 109.505 40.1844 108.695 41.1156C107.411 41.5798 106.427 42.4003 105.742 43.5767C102.317 44.911 101.004 43.7627 101.804 40.1312C100.697 39.7714 99.6307 39.2792 98.605 38.6546C97.8002 38.8407 97.0619 39.1685 96.3901 39.639C97.5384 39.9673 98.6872 40.2951 99.8355 40.6234C100.075 41.0891 100.239 41.5813 100.328 42.1001C99.743 45.0676 99.333 48.1847 99.0972 51.452C98.8137 50.5281 98.8959 49.6254 99.3433 48.7448C99.0972 48.0065 98.8511 47.2682 98.605 46.5299C97.247 46.1248 95.8521 45.7965 94.4212 45.5455C93.6686 45.5598 93.0942 45.8881 92.6985 46.5299C92.191 48.0257 91.2883 49.2562 89.9914 50.2215C87.8375 50.0787 85.7043 50.1604 83.5927 50.4676C81.8163 51.5544 81.1602 53.031 81.6239 54.8974C81.2956 54.8974 80.9677 54.8974 80.6394 54.8974C80.6025 52.2174 81.7508 50.1663 84.0849 48.7448C80.3234 48.8467 76.5497 49.0928 72.7641 49.4832C72.6844 48.4855 72.7666 47.501 73.0102 46.5299C74.1822 46.9901 75.4127 47.154 76.7018 47.0221C76.7018 46.5299 76.7018 46.0377 76.7018 45.5455C75.2129 45.3599 73.7362 45.2777 72.2719 45.2994C71.8014 46.9699 71.6375 48.6927 71.7797 50.4676C70.2495 50.3514 68.7728 50.5153 67.3499 50.9598C67.848 47.6325 66.5358 46.648 63.4122 48.0065C63.2833 47.2791 63.4472 46.6229 63.9044 46.0377C65.5445 44.88 67.3494 44.2239 69.3187 44.0689C70.2204 47.8687 70.8765 47.8687 71.2875 44.0689C75.1513 43.2671 79.089 42.8566 83.1005 42.8384C85.0757 41.791 87.2089 41.2165 89.4992 41.1156C89.7275 39.262 88.9892 38.1132 87.2842 37.6702C85.09 38.8899 82.875 40.0387 80.6394 41.1156C79.8509 39.2344 79.2765 37.2656 78.9167 35.2092C78.1622 34.9906 77.4239 34.8267 76.7018 34.717C77.1093 34.2666 77.6015 33.9388 78.1784 33.7325C80.29 34.6741 81.1105 36.3147 80.6394 38.6546C83.0212 38.122 85.3184 37.302 87.5303 36.1936C89.481 37.3158 90.6293 38.9568 90.9758 41.1156C93.929 41.7718 95.0773 40.6234 94.4212 37.6702C95.0773 37.6702 95.7339 37.6702 96.3901 37.6702C96.3763 35.8712 97.1968 34.5585 98.8511 33.7325C99.7961 34.9823 100.945 35.9667 102.297 36.6858C103.378 36.4072 104.445 36.0794 105.496 35.7014C106.76 36.3343 108.073 36.8266 109.434 37.178C110.336 37.1686 111.074 36.8408 111.648 36.1936Z" fill="#6F2B15"/>
<path fill-rule="evenodd" clip-rule="evenodd" d="M63.412 53.4208C62.69 53.2269 61.9517 53.063 61.1971 52.9286C59.1978 53.3465 57.2289 53.8387 55.2906 54.4052C53.3233 54.2708 51.6006 53.6147 50.1225 52.4364C51.1202 52.5161 52.1046 52.4339 53.0757 52.1903C51.7423 51.924 50.7579 51.1857 50.1225 49.9754C49.2788 50.5212 48.9505 50.1929 49.138 48.9909C50.437 49.0259 51.5036 49.5181 52.3374 50.4676C53.7028 48.5726 55.5077 47.2598 57.7517 46.5299C58.1316 46.6013 58.4599 46.7652 58.7361 47.0221C59.185 48.0848 59.595 49.1509 59.9666 50.2215C62.0757 50.2352 64.2084 50.4813 66.3653 50.9598C66.3653 51.7803 66.3653 52.6003 66.3653 53.4208C65.3809 53.4208 64.3965 53.4208 63.412 53.4208Z" fill="#632714"/>
<path fill-rule="evenodd" clip-rule="evenodd" d="M80.6394 54.8974C78.1783 54.8974 75.7173 54.8974 73.2563 54.8974C72.4973 54.5032 71.6773 54.3393 70.7952 54.4052C69.7832 54.0528 68.7166 53.7245 67.5959 53.4208C67.3527 52.6166 67.271 51.796 67.3498 50.9598C68.7727 50.5153 70.2494 50.3514 71.7796 50.4676C71.6374 48.6927 71.8013 46.97 72.2718 45.2994C73.7362 45.2778 75.2128 45.3599 76.7017 45.5455C76.7017 46.0377 76.7017 46.5299 76.7017 47.0221C75.4126 47.154 74.1821 46.9901 73.0102 46.5299C72.7665 47.501 72.6843 48.4855 72.764 49.4832C76.5496 49.0928 80.3234 48.8467 84.0848 48.7449C81.7508 50.1663 80.6024 52.2174 80.6394 54.8974Z" fill="#60240F"/>
<path fill-rule="evenodd" clip-rule="evenodd" d="M100.328 54.4052C98.6134 54.8491 96.8084 55.177 94.9134 55.3896C87.6239 55.4221 80.4052 55.2577 73.2563 54.8974C75.7174 54.8974 78.1784 54.8974 80.6394 54.8974C80.9677 54.8974 81.2956 54.8974 81.6239 54.8974C84.8719 54.9678 88.0713 54.6395 91.2219 53.913C94.248 54.2659 97.2829 54.4298 100.328 54.4052Z" fill="#DBCCCD"/>
</g>
<defs>
<clipPath id="clip0_3288_4919">
<rect width="151" height="80" fill="white"/>
</clipPath>
</defs>
</svg>
