<svg width="151" height="80" viewBox="0 0 151 80" fill="none" xmlns="http://www.w3.org/2000/svg">
<g clip-path="url(#clip0_3288_4895)">
<path fill-rule="evenodd" clip-rule="evenodd" d="M81.9546 60.6472C86.4604 61.3721 90.9715 61.3721 95.4873 60.6472C93.2968 61.528 90.9433 61.9199 88.4268 61.824C86.0915 61.9452 83.9345 61.5527 81.9546 60.6472Z" fill="#81594E"/>
<path fill-rule="evenodd" clip-rule="evenodd" d="M44.8867 57.1169C48.1722 57.6929 51.4083 57.8888 54.595 57.7053C55.5646 56.9892 56.6431 56.4991 57.8311 56.2343C61.9427 52.161 62.9235 47.4539 60.773 42.1132C58.8266 42.0061 57.4539 41.516 56.6543 40.6423C54.2714 41.2924 51.9179 41.8808 49.5938 42.4074C56.3113 38.2134 61.509 39.5861 65.1858 46.5261C65.8383 49.8969 65.1517 52.9364 63.1265 55.6459C58.5595 59.0427 53.46 60.2194 47.8286 59.1762C46.6024 58.7661 45.6216 58.0795 44.8867 57.1169Z" fill="#642C1A"/>
<path fill-rule="evenodd" clip-rule="evenodd" d="M99.6061 47.7028C101.951 51.2678 101.951 54.8963 99.6061 58.5878C98.3841 59.591 97.0114 60.2776 95.4875 60.6471C90.9717 61.372 86.4606 61.372 81.9547 60.6471C78.1585 59.7928 76.0009 57.4393 75.4826 53.5866C75.3855 51.4201 75.4832 49.2631 75.7768 47.1144C76.2669 46.526 76.7576 45.9376 77.2477 45.3492C77.659 46.5919 77.3648 47.7687 76.3651 48.8795C76.0727 50.4364 75.9745 52.0056 76.0709 53.5866C81.3246 53.4171 86.62 53.4171 91.9572 53.5866C91.8378 52.4745 92.2296 51.592 93.134 50.9388C92.0849 50.311 91.7907 49.4285 92.2514 48.2911C93.0333 48.876 93.8176 49.4644 94.6049 50.0563C95.4904 49.3661 96.373 48.6801 97.2526 47.997C96.5624 46.1671 96.8566 46.0688 98.1352 47.7028C98.5882 47.0567 99.0784 47.0567 99.6061 47.7028Z" fill="#6E2D17"/>
<path fill-rule="evenodd" clip-rule="evenodd" d="M99.6062 47.7028C99.0785 47.0567 98.5883 47.0567 98.1353 47.7028C96.8567 46.0689 96.5626 46.1671 97.2527 47.997C96.3731 48.6801 95.4905 49.3661 94.605 50.0563C93.8178 49.4644 93.0335 48.876 92.2515 48.2912C91.7908 49.4285 92.085 50.3111 93.1341 50.9389C92.2297 51.592 91.8379 52.4745 91.9573 53.5866C86.6201 53.4171 81.3247 53.4171 76.0711 53.5866C75.9746 52.0056 76.0728 50.4364 76.3653 48.8795C77.3649 47.7687 77.6591 46.5919 77.2478 45.3493C76.7577 45.9376 76.267 46.526 75.7769 47.1144C75.4833 49.2632 75.3856 51.4202 75.4827 53.5866C74.0312 49.0878 75.012 45.1651 78.4246 41.819C82.1308 39.925 85.4645 40.4151 88.427 43.2899C90.7806 43.4859 93.1341 43.6824 95.4876 43.8783C97.421 44.6326 98.7943 45.907 99.6062 47.7028Z" fill="#7B361E"/>
<path fill-rule="evenodd" clip-rule="evenodd" d="M44.8867 57.117C39.8314 50.1547 41.4 45.2511 49.5938 42.4075C51.9179 41.8809 54.2714 41.2925 56.6543 40.6423C57.4539 41.5161 58.8266 42.0062 60.773 42.1133C62.9235 47.454 61.9427 52.161 57.8311 56.2344C56.6432 56.4992 55.5647 56.9893 54.595 57.7053C51.4083 57.8889 48.1723 57.693 44.8867 57.117Z" fill="#77321A"/>
<path fill-rule="evenodd" clip-rule="evenodd" d="M115.493 40.054C114.994 40.9165 114.21 41.4072 113.139 41.5249C110.284 42.0044 107.538 41.9062 104.902 41.2307C108.523 41.4661 112.053 41.0736 115.493 40.054Z" fill="#C4AAA8"/>
<path fill-rule="evenodd" clip-rule="evenodd" d="M47.2403 22.991C49.5673 23.9112 50.5481 25.6763 50.1821 28.2864C49.5279 34.5161 45.9976 37.458 39.5913 37.1121C36.0928 37.3845 33.1509 36.4043 30.7656 34.1702C31.7329 34.2961 32.6155 34.0996 33.4133 33.5818C34.7154 34.3232 36.1864 34.715 37.8262 34.7586C41.0334 34.7168 43.9753 33.736 46.6519 31.8167C47.9763 28.9636 48.1722 26.0217 47.2403 22.991Z" fill="#632916"/>
<path fill-rule="evenodd" clip-rule="evenodd" d="M115.493 40.0539C112.053 41.0735 108.523 41.466 104.902 41.2306C98.3245 39.7667 95.971 35.844 97.8414 29.463C98.7016 28.8994 99.4859 28.2133 100.195 27.4037C102.269 27.2984 104.231 27.0042 106.079 26.5211C108.879 24.876 111.723 23.3068 114.61 21.8141C117.052 22.2919 118.817 23.6651 119.906 25.9327C122.272 32.0331 120.801 36.7401 115.493 40.0539Z" fill="#753119"/>
<path fill-rule="evenodd" clip-rule="evenodd" d="M84.3081 21.8141C86.764 27.9668 84.6064 31.3994 77.836 32.1107C74.2774 32.5008 70.7472 32.3049 67.2451 31.5224C65.7118 31.0564 64.535 30.1738 63.7148 28.8746C66.129 29.0588 67.9924 29.6472 69.3044 30.6398C72.1404 30.275 74.9841 29.9808 77.836 29.7572C79.0068 28.727 80.3795 28.1386 81.9546 27.9921C82.3953 26.9718 82.6895 25.8933 82.8372 24.756C83.0331 25.3444 83.2296 25.9327 83.4256 26.5211C83.8492 25.5727 83.7515 24.6901 83.1314 23.8734C83.4756 23.1073 83.8674 22.4207 84.3081 21.8141Z" fill="#652D1A"/>
<path fill-rule="evenodd" clip-rule="evenodd" d="M106.078 26.5213C104.23 27.0043 102.268 27.2985 100.194 27.4038C99.4853 28.2134 98.701 28.8995 97.8408 29.4632C98.052 28.3623 98.6404 27.4797 99.606 26.8155C101.755 26.5219 103.912 26.4242 106.078 26.5213Z" fill="#9F756B"/>
<path fill-rule="evenodd" clip-rule="evenodd" d="M47.2402 22.9909C48.1722 26.0216 47.9763 28.9635 46.6519 31.8166C43.9753 33.7358 41.0334 34.7167 37.8262 34.7585C36.1863 34.7149 34.7154 34.323 33.4133 33.5817C32.6155 34.0995 31.7329 34.296 30.7656 34.1701C29.5694 33.3475 28.981 32.1708 29.0005 30.6398C29.214 26.9877 30.9792 24.34 34.2959 22.6967C37.7126 21.3328 41.2429 20.9409 44.8867 21.5199C45.9576 21.6376 46.7419 22.1283 47.2402 22.9909Z" fill="#75311A"/>
<path fill-rule="evenodd" clip-rule="evenodd" d="M84.3087 21.8141C83.868 22.4208 83.4761 23.1074 83.1319 23.8735C83.7521 24.6901 83.8498 25.5727 83.4261 26.5212C83.2302 25.9328 83.0337 25.3444 82.8377 24.756C82.6901 25.8934 82.3959 26.9719 81.9552 27.9921C80.3801 28.1386 79.0074 28.727 77.8365 29.7573C74.9846 29.9809 72.141 30.275 69.305 30.6398C67.9929 29.6472 66.1295 29.0589 63.7154 28.8747C62.1003 24.5854 63.2771 21.3493 67.2457 19.1664C72.7247 18.7075 78.1184 19.1976 83.4261 20.6374C84.0322 20.8351 84.3263 21.2275 84.3087 21.8141Z" fill="#763219"/>
</g>
<defs>
<clipPath id="clip0_3288_4895">
<rect width="151" height="80" fill="white"/>
</clipPath>
</defs>
</svg>
