<svg width="151" height="80" viewBox="0 0 151 80" fill="none" xmlns="http://www.w3.org/2000/svg">
<g clip-path="url(#clip0_3288_4939)">
<path fill-rule="evenodd" clip-rule="evenodd" d="M86.0412 39.6863C83.2666 40.6331 80.4009 41.0148 77.4441 40.8326C76.4703 40.9243 75.5148 40.8291 74.5783 40.546C72.3969 37.8041 69.5312 36.2755 65.9812 35.9608C63.4622 32.0715 63.8445 28.4417 67.1274 25.0711C70.1433 24.2463 73.2005 24.0555 76.2978 24.4979C78.6431 25.6935 81.1265 26.3624 83.7486 26.5039C91.5715 24.2979 94.7238 27.1636 93.2055 35.1011C90.9468 36.8503 88.559 38.3784 86.0412 39.6863Z" fill="#8B3E21"/>
<path fill-rule="evenodd" clip-rule="evenodd" d="M116.418 23.0652C117.993 22.8858 119.521 23.0766 121.003 23.6383C124.954 30.2965 123.043 33.4488 115.272 33.0952C112.036 32.839 109.265 31.5976 106.961 29.3698C106.428 27.4497 106.906 25.826 108.394 24.498C111.11 23.8957 113.785 23.4177 116.418 23.0652Z" fill="#893D21"/>
<path fill-rule="evenodd" clip-rule="evenodd" d="M31.0197 25.3575C34.1462 25.4762 37.1076 26.2402 39.9034 27.6501C45.1803 25.424 49.7655 26.3795 53.6589 30.5158C53.4949 37.5558 49.9604 40.3258 43.0557 38.8264C41.7208 40.4479 40.0014 41.1167 37.8974 40.8324C29.4389 40.7705 25.9043 36.5671 27.2942 28.2233C28.19 26.7772 29.432 25.8218 31.0197 25.3575Z" fill="#893C1F"/>
<path fill-rule="evenodd" clip-rule="evenodd" d="M86.0415 39.6862C85.7217 40.4255 85.1485 40.9029 84.3221 41.119C81.9212 41.5844 79.6286 41.4887 77.4443 40.8324C80.4012 41.0147 83.2669 40.633 86.0415 39.6862Z" fill="#D1B4AE"/>
<path fill-rule="evenodd" clip-rule="evenodd" d="M102.662 43.125C102.726 43.4786 102.917 43.7652 103.235 43.9847C106.908 44.171 110.537 44.6484 114.125 45.4176C112.816 46.0377 112.148 46.9926 112.119 48.2833C112.781 47.5709 113.545 46.9978 114.412 46.5639C114.794 48.2833 114.794 50.0028 114.412 51.7222C114.317 49.4233 113.839 49.1367 112.979 50.8625C108.202 52.4415 103.33 52.7281 98.3638 51.7222C96.3767 51.846 94.7529 52.61 93.492 54.0148C92.6226 54.0085 91.9537 53.6267 91.486 52.8685C89.3522 46.8126 91.3582 43.1829 97.504 41.9787C99.3335 41.9495 101.053 42.3318 102.662 43.125Z" fill="#8D3D20"/>
<path fill-rule="evenodd" clip-rule="evenodd" d="M66.5544 43.6984C70.3096 44.0188 71.4559 45.929 69.9932 49.4298C69.4877 50.152 68.9146 50.8203 68.2738 51.4358C64.7925 51.5384 61.7359 52.6847 59.1035 54.8747C53.2431 55.3263 50.4731 52.5557 50.7929 46.5641C51.4618 45.8952 52.13 45.2269 52.7989 44.5581C55.3666 44.7077 57.9457 44.9942 60.5364 45.4178C62.8043 45.4894 64.8103 44.9163 66.5544 43.6984Z" fill="#893D21"/>
<path fill-rule="evenodd" clip-rule="evenodd" d="M102.663 43.1251C106.464 43.5682 110.284 43.6639 114.126 43.4117C114.412 43.6983 114.699 43.9848 114.986 44.2714C117.549 52.1636 114.779 56.1756 106.675 56.3075C102.34 55.0316 97.9454 54.2676 93.4927 54.0149C94.7536 52.6101 96.3773 51.8461 98.3644 51.7223C103.331 52.7282 108.202 52.4416 112.98 50.8626C113.839 49.1368 114.317 49.4234 114.412 51.7223C114.795 50.0029 114.795 48.2834 114.412 46.564C113.546 46.9979 112.781 47.571 112.12 48.2834C112.149 46.9927 112.817 46.0378 114.126 45.4177C110.538 44.6485 106.908 44.1711 103.236 43.9848C102.917 43.7653 102.727 43.4788 102.663 43.1251Z" fill="#853D24"/>
</g>
<defs>
<clipPath id="clip0_3288_4939">
<rect width="151" height="80" fill="white"/>
</clipPath>
</defs>
</svg>
