<svg width="151" height="80" viewBox="0 0 151 80" fill="none" xmlns="http://www.w3.org/2000/svg">
<g clip-path="url(#clip0_3288_4949)">
<path fill-rule="evenodd" clip-rule="evenodd" d="M50.4624 26.8977C55.2893 26.591 60.1948 26.4378 65.1799 26.4378C73.8508 26.3992 82.4362 26.7059 90.9356 27.3577C77.447 27.0408 63.9556 26.8876 50.4624 26.8977Z" fill="#A27556"/>
<path fill-rule="evenodd" clip-rule="evenodd" d="M47.703 26.8977C45.3652 27.6235 42.9124 27.9302 40.3442 27.8176C42.6972 27.2169 45.15 26.9101 47.703 26.8977Z" fill="#A78269"/>
<path fill-rule="evenodd" clip-rule="evenodd" d="M47.7028 26.8977C48.6227 26.8977 49.5425 26.8977 50.4624 26.8977C63.9556 26.8876 77.4469 27.0407 90.9356 27.3576C92.1622 27.3576 93.3883 27.3576 94.6149 27.3576C96.9679 27.9583 99.4207 28.265 101.974 28.2775C107.076 29.0083 112.135 29.9281 117.151 31.037C117.458 31.037 117.611 31.1901 117.611 31.4969C116.945 32.2622 116.025 32.6458 114.852 32.6467C115.062 32.8371 115.215 33.0671 115.311 33.3366C114.468 33.4898 113.625 33.6434 112.782 33.7965C109.032 33.3831 105.276 33.0767 101.514 32.8767C101.309 34.2054 100.849 35.432 100.134 36.5561C100.631 37.8558 101.091 39.1588 101.514 40.4654C100.977 41.922 99.9809 42.9182 98.5243 43.4549C94.8012 42.1023 90.9682 41.3356 87.0262 41.1553C84.7399 42.0912 82.3635 42.7043 79.8974 42.995C79.9659 43.4788 79.8896 43.9387 79.6675 44.3747C78.8028 43.2466 77.7298 42.3267 76.448 41.6152C75.7319 40.1099 74.7352 38.8069 73.4585 37.7059C71.1708 36.6545 68.8712 35.5815 66.5597 34.4864C63.0284 34.359 59.5026 34.5122 55.9814 34.9463C53.6823 36.0189 51.3059 36.8619 48.8526 37.4759C48.6622 37.2657 48.4323 37.1121 48.1628 37.016C46.4684 37.882 44.7819 38.6487 43.1036 39.3156C40.431 39.8762 37.8246 39.7226 35.2849 38.8557C34.3931 38.1097 34.24 37.2662 34.825 36.3261C33.833 35.8271 33.7561 35.2908 34.595 34.7164C34.9018 34.1033 34.9018 33.4898 34.595 32.8767C33.786 33.8733 32.7894 34.64 31.6056 35.1763C29.9742 34.1166 29.9742 33.1968 31.6056 32.4168C32.1036 32.0189 32.18 31.559 31.8355 31.037C30.4557 32.1426 29.2291 33.3688 28.1561 34.7164C27.6245 36.5183 27.3945 38.358 27.4662 40.2354C26.3983 36.9585 27.165 34.1221 29.7659 31.7269C32.9016 29.3785 36.4278 28.0751 40.3441 27.8175C42.9123 27.9302 45.3651 27.6234 47.7028 26.8977Z" fill="#8E5022"/>
<path fill-rule="evenodd" clip-rule="evenodd" d="M43.1038 39.3156C43.4184 40.0906 44.0314 40.5505 44.9435 40.6954C47.3318 39.2494 49.9378 38.4063 52.7621 38.1658C61.9086 36.0161 69.5742 38.3157 75.7583 45.0646C77.1863 46.1882 78.7961 46.8781 80.5875 47.1343C82.9602 46.5 85.1835 45.5034 87.2563 44.1448C90.9357 43.838 94.6151 43.838 98.2945 44.1448C96.7616 44.2979 95.2282 44.4515 93.6953 44.6047C93.0086 45.1364 93.0854 45.5199 93.9252 45.7545C95.385 45.198 96.8416 45.198 98.2945 45.7545C97.0955 46.1307 95.8689 46.3607 94.6151 46.4444C99.5767 46.2981 104.483 46.0682 109.333 45.7545C109.333 44.9878 109.333 44.2216 109.333 43.4549C104.494 42.8777 104.494 42.5709 109.333 42.535C109.333 42.0751 109.333 41.6152 109.333 41.1553C107.468 41.3043 105.628 41.1511 103.814 40.6954C103.191 40.1504 102.655 39.5368 102.204 38.8557C102.168 37.8636 102.091 36.9438 101.974 36.0961C105.771 35.3975 109.604 34.9376 113.472 34.7164C114.405 34.7946 115.325 34.9482 116.231 35.1763C117.473 34.3268 118.853 33.8669 120.371 33.7965C120.371 33.3366 120.371 32.8767 120.371 32.4168C123.332 32.707 123.792 33.8568 121.751 35.8662C116.547 36.6646 111.335 37.3545 106.113 37.9358C105.488 38.7664 105.642 39.4563 106.573 40.0055C110.098 40.6572 113.242 42.1133 116.001 44.3747C116.308 45.1414 116.308 45.9077 116.001 46.6744C114.722 47.3923 113.418 48.0054 112.092 48.514C107.07 48.4897 102.087 48.0297 97.1447 47.1343C95.511 47.1991 93.9013 47.4291 92.3155 47.8242C90.4349 49.7609 88.1353 50.8339 85.4167 51.0436C82.3545 51.2736 79.2882 51.3499 76.2182 51.2736C70.4958 50.3289 65.5903 47.7993 61.5007 43.6849C60.0409 42.8915 58.508 42.2784 56.9015 41.8452C50.8709 41.113 45.0451 41.8797 39.4244 44.1448C38.1978 44.2216 36.9716 44.2979 35.745 44.3747C32.0643 44.681 29.3047 43.3013 27.4664 40.2354C27.3947 38.358 27.6246 36.5183 28.1563 34.7164C29.2293 33.3688 30.4559 32.1426 31.8357 31.037C32.1802 31.559 32.1038 32.0189 31.6057 32.4168C29.9744 33.1968 29.9744 34.1166 31.6057 35.1763C32.7896 34.64 33.7862 33.8733 34.5952 32.8767C34.902 33.4898 34.902 34.1033 34.5952 34.7164C33.7563 35.2908 33.8331 35.8271 34.8252 36.3261C34.2401 37.2662 34.3933 38.1097 35.2851 38.8557C37.8248 39.7226 40.4312 39.8762 43.1038 39.3156Z" fill="#834621"/>
<path fill-rule="evenodd" clip-rule="evenodd" d="M110.712 37.9359C113.831 38.7886 117.05 39.3253 120.371 39.5456C121.186 40.9765 120.803 41.8195 119.221 42.0752C116.615 41.1163 113.932 40.4264 111.172 40.0056C110.768 39.3819 110.614 38.692 110.712 37.9359Z" fill="#8D5229"/>
<path fill-rule="evenodd" clip-rule="evenodd" d="M117.611 31.497C118.714 31.3862 119.634 31.693 120.37 32.4169C120.37 32.8768 120.37 33.3367 120.37 33.7967C118.852 33.867 117.473 34.3269 116.231 35.1764C115.325 34.9483 114.405 34.7947 113.472 34.7165C109.604 34.9377 105.771 35.3976 101.974 36.0963C102.091 36.9439 102.168 37.8637 102.204 38.8558C102.654 39.5369 103.191 40.1505 103.813 40.6955C105.628 41.1513 107.467 41.3044 109.332 41.1554C109.332 41.6153 109.332 42.0753 109.332 42.5352C104.494 42.5711 104.494 42.8778 109.332 43.455C109.332 44.2217 109.332 44.9879 109.332 45.7546C104.482 46.0683 99.5765 46.2983 94.6148 46.4445C95.8686 46.3608 97.0952 46.1309 98.2942 45.7546C96.8413 45.1981 95.3847 45.1981 93.925 45.7546C93.0851 45.5201 93.0083 45.1365 93.695 44.6048C95.2279 44.4517 96.7613 44.2981 98.2942 44.1449C94.6148 43.8381 90.9355 43.8381 87.2561 44.1449C85.1832 45.5035 82.9599 46.5002 80.5872 47.1344C78.7958 46.8782 77.1861 46.1883 75.758 45.0648C69.5739 38.3159 61.9084 36.0162 52.7619 38.1659C49.9375 38.4065 47.3316 39.2495 44.9432 40.6955C44.0312 40.5506 43.4181 40.0907 43.1035 39.3157C44.7818 38.6488 46.4683 37.8821 48.1627 37.0161C48.4322 37.1122 48.6621 37.2658 48.8525 37.476C51.3058 36.862 53.6822 36.019 55.9813 34.9465C59.5025 34.5123 63.0283 34.3591 66.5596 34.4865C68.8711 35.5816 71.1707 36.6546 73.4584 37.706C74.7351 38.807 75.7318 40.11 76.4479 41.6153C77.7297 42.3268 78.8027 43.2467 79.6674 44.3749C79.8895 43.9389 79.9658 43.4789 79.8973 42.9951C82.3634 42.7044 84.7398 42.0914 87.0261 41.1554C90.9681 41.3357 94.8011 42.1024 98.5242 43.455C99.9808 42.9183 100.977 41.9221 101.514 40.4655C101.091 39.1589 100.631 37.8559 100.134 36.5562C100.849 35.4321 101.309 34.2055 101.514 32.8768C105.276 33.0769 109.032 33.3832 112.782 33.7967C113.625 33.6435 114.468 33.4899 115.311 33.3367C115.215 33.0672 115.062 32.8373 114.851 32.6468C116.025 32.6459 116.945 32.2624 117.611 31.497Z" fill="#87491F"/>
<path fill-rule="evenodd" clip-rule="evenodd" d="M48.6228 42.9951C51.6404 42.7278 54.5535 43.111 57.3613 44.1449C58.5079 45.1015 59.7341 45.945 61.0407 46.6744C61.6165 48.5684 60.8498 49.6414 58.7411 49.8939C54.9914 48.8002 51.1584 48.2639 47.243 48.2842C46.3131 46.0802 46.773 44.3173 48.6228 42.9951Z" fill="#894E27"/>
<path fill-rule="evenodd" clip-rule="evenodd" d="M102.434 49.894C103.132 49.899 103.668 50.2053 104.044 50.8138C104.166 52.6185 103.247 53.5384 101.284 53.5733C99.0217 52.5128 96.6453 51.8229 94.1553 51.5037C93.7505 50.88 93.5969 50.1902 93.6953 49.434C94.5177 49.2174 95.3612 49.0643 96.2249 48.9741C98.192 49.7307 100.262 50.037 102.434 49.894Z" fill="#8C5029"/>
</g>
<defs>
<clipPath id="clip0_3288_4949">
<rect width="151" height="80" fill="white"/>
</clipPath>
</defs>
</svg>
