<svg width="151" height="80" viewBox="0 0 151 80" fill="none" xmlns="http://www.w3.org/2000/svg">
<g clip-path="url(#clip0_3288_4944)">
<path fill-rule="evenodd" clip-rule="evenodd" d="M120.524 42.9514C120.519 43.7137 120.184 44.3002 119.519 44.7102C118.117 44.9922 116.945 45.662 116.002 46.7204C111.601 47.2561 107.413 46.5862 103.438 44.7102C99.6796 43.3961 97.6695 44.6525 97.4077 48.4793C94.6337 47.2194 91.7024 46.3817 88.6133 45.9666C86.8172 46.1013 85.0583 46.4365 83.3366 46.9717C83.0014 46.8043 82.6667 46.6365 82.3315 46.4691C84.9553 45.9043 84.9553 45.4852 82.3315 45.2128C83.1527 44.9645 83.9904 44.8811 84.8442 44.9615C85.1583 43.2177 84.6558 41.7935 83.3366 40.6899C81.3335 40.4392 79.3234 40.3553 77.3062 40.4387C77.0192 38.317 75.7629 37.3119 73.5371 37.4235C71.7632 37.4446 70.6747 38.2818 70.2706 39.9361C70.9405 39.9361 71.6109 39.9361 72.2808 39.9361C72.2808 39.4336 72.2808 38.9311 72.2808 38.4285C74.6729 38.2853 76.1805 39.3738 76.8036 41.695C77.28 41.9377 77.7826 42.0212 78.3112 41.9463C78.3112 42.6162 78.3112 43.2866 78.3112 43.9564C80.3214 44.1238 80.3214 44.2916 78.3112 44.459C78.3112 45.464 78.3112 46.4691 78.3112 47.4742C76.4388 47.6365 74.596 47.4687 72.7833 46.9717C71.3722 45.8801 69.8646 45.0429 68.2605 44.459C64.4834 45.4841 60.7983 46.6566 57.2047 47.9767C55.5433 47.6436 53.8683 47.3923 52.1793 47.2229C51.7733 47.0681 51.4381 46.8169 51.1742 46.4691C51.9421 45.7852 52.7798 45.1987 53.6869 44.7102C53.4573 44.5022 53.2894 44.2509 53.1844 43.9564C54.7176 43.8429 56.2252 43.8429 57.7072 43.9564C56.3569 42.0398 54.5146 41.4538 52.1793 42.1976C51.5637 42.983 50.8099 43.5695 49.9179 43.9564C48.5007 43.1629 46.9931 42.6604 45.3951 42.4488C43.5472 42.6649 41.9557 43.3348 40.6209 44.459C40.4707 45.5163 40.638 46.5214 41.1235 47.4742C41.626 48.1441 42.1286 48.1441 42.6311 47.4742C43.2321 47.6481 43.2321 47.8993 42.6311 48.228C39.8013 48.9115 36.9534 49.4974 34.088 49.9869C34.3518 50.3346 34.687 50.5859 35.093 50.7407C38.2248 50.9447 41.324 51.3638 44.39 51.997C45.2775 51.6287 46.1986 51.4608 47.1539 51.4945C46.9439 51.8573 46.6092 52.1086 46.1489 52.2483C40.1124 52.5347 34.2498 51.697 28.5601 49.7356C27.3293 48.7994 26.8268 47.543 27.0524 45.9666C27.3469 41.2885 29.6918 38.022 34.088 36.1671C39.436 35.6364 44.7965 35.1339 50.1692 34.6595C53.6065 33.0263 56.7891 31.0161 59.7174 28.629C64.9427 27.133 69.4656 28.3054 73.2859 32.1468C74.2236 32.6418 75.2287 32.8931 76.3011 32.9006C79.6711 31.8036 83.0215 30.5472 86.3518 29.1316C90.6033 28.2446 94.4563 29.0818 97.9102 31.6443C99.4284 33.6635 101.103 35.5058 102.936 37.1722C106.33 38.4923 109.848 39.3301 113.489 39.6849C115.357 40.2779 117.2 40.9477 119.017 41.695C119.741 41.8845 120.244 42.3031 120.524 42.9514Z" fill="#8C4D22"/>
<path fill-rule="evenodd" clip-rule="evenodd" d="M120.524 42.9513C121.393 43.2614 122.147 43.7639 122.786 44.4589C123.139 46.0736 123.055 47.6646 122.534 49.233C120.357 51.4588 117.676 52.6312 114.494 52.7508C109.264 53.1985 104.071 52.9473 98.9152 51.997C91.3852 53.2619 83.8471 53.2619 76.301 51.997C74.2044 52.1286 72.1104 52.2965 70.0193 52.4995C64.9025 51.8693 59.7932 51.199 54.6919 50.4894C52.1385 50.5647 49.6258 50.8999 47.1539 51.4944C46.1985 51.4608 45.2774 51.6286 44.3899 51.997C41.3239 51.3638 38.2248 50.9447 35.093 50.7406C34.6869 50.5859 34.3517 50.3346 34.0879 49.9868C36.9534 49.4974 39.8012 48.9114 42.631 48.228C43.2321 47.8993 43.2321 47.648 42.631 47.4741C42.1285 48.144 41.626 48.144 41.1234 47.4741C40.638 46.5213 40.4706 45.5163 40.6209 44.4589C41.9556 43.3347 43.5472 42.6649 45.395 42.4488C46.993 42.6603 48.5007 43.1629 49.9178 43.9564C50.8098 43.5694 51.5636 42.983 52.1792 42.1975C54.5145 41.4537 56.3568 42.0397 57.7071 43.9564C56.2252 43.8428 54.7176 43.8428 53.1843 43.9564C53.2893 44.2509 53.4572 44.5021 53.6868 44.7102C52.7798 45.1987 51.942 45.7851 51.1742 46.4691C51.438 46.8168 51.7732 47.0681 52.1792 47.2229C53.8683 47.3922 55.5432 47.6435 57.2046 47.9767C60.7983 46.6565 64.4834 45.4841 68.2604 44.4589C69.8645 45.0429 71.3721 45.8801 72.7833 46.9716C74.5959 47.4686 76.4387 47.6365 78.3112 47.4741C78.3112 46.4691 78.3112 45.464 78.3112 44.4589C80.3213 44.2916 80.3213 44.1237 78.3112 43.9564C78.3112 43.2865 78.3112 42.6161 78.3112 41.9462C77.7825 42.0211 77.28 41.9377 76.8036 41.695C76.1804 39.3737 74.6728 38.2853 72.2807 38.4285C72.2807 38.931 72.2807 39.4335 72.2807 39.9361C71.6108 39.9361 70.9405 39.9361 70.2706 39.9361C70.6746 38.2817 71.7631 37.4445 73.5371 37.4234C75.7628 37.3118 77.0191 38.3169 77.3061 40.4386C79.3233 40.3552 81.3334 40.4391 83.3365 40.6899C84.6557 41.7935 85.1582 43.2177 84.8442 44.9615C83.9903 44.8811 83.1526 44.9645 82.3315 45.2127C84.9552 45.4851 84.9552 45.9042 82.3315 46.4691C82.6667 46.6364 83.0014 46.8043 83.3365 46.9716C85.0582 46.4364 86.8171 46.1012 88.6132 45.9665C91.7023 46.3816 94.6336 47.2194 97.4076 48.4792C97.6694 44.6524 99.6796 43.3961 103.438 44.7102C107.413 46.5862 111.601 47.256 116.001 46.7203C116.945 45.662 118.117 44.9921 119.519 44.7102C120.184 44.3001 120.519 43.7137 120.524 42.9513Z" fill="#7D431E"/>
</g>
<defs>
<clipPath id="clip0_3288_4944">
<rect width="151" height="80" fill="white"/>
</clipPath>
</defs>
</svg>
