<svg width="468" height="212" viewBox="0 0 468 212" fill="none" xmlns="http://www.w3.org/2000/svg">
<path d="M64.5388 159.5V138.06H5.65875V123.02L59.0988 46.38H84.2188V119.98H97.1788V138.06H84.2188V159.5H64.5388ZM28.6988 119.98H64.5388V67.34L28.6988 119.98Z" fill="#181C23"/>
<path d="M234 53C204.811 53 181 76.6633 181 106.097C181 135.531 204.835 159 234 159C263.165 159 287 135.337 287 106.097C287 76.8573 263.383 53 234 53Z" fill="#2A98FF"/>
<path d="M234.012 200.856C181.747 200.856 139.196 158.504 139.196 106.435C139.196 54.3658 181.723 11.7724 234.012 11.7724C247.006 11.7724 259.392 14.4073 270.661 19.1453C269.35 22.5054 268.597 26.1555 268.597 29.9749C268.597 46.4853 282.124 59.8531 298.688 59.8531C304.274 59.8531 309.496 58.3302 313.964 55.7195C323.339 70.3927 328.779 87.7975 328.779 106.459C328.779 158.504 286.253 200.88 233.964 200.88L234.012 200.856ZM322.514 48.2016C326.424 43.1735 328.779 36.8401 328.779 29.9749C328.779 13.3678 315.373 0 298.688 0C289.993 0 282.173 3.69852 276.684 9.57263C263.618 3.84356 249.191 0.628506 233.988 0.628506C175.554 0.628506 128 48.0082 128 106.435C128 164.862 175.554 212 233.988 212C292.422 212 340 164.62 340 106.435C340 84.9209 333.564 64.9295 322.538 48.2016H322.514Z" fill="#2A98FF"/>
<path d="M430.539 159.5V138.06H371.659V123.02L425.099 46.38H450.219V119.98H463.179V138.06H450.219V159.5H430.539ZM394.699 119.98H430.539V67.34L394.699 119.98Z" fill="#181C23"/>
</svg>
