<svg width="346" height="344" viewBox="0 0 346 344" fill="none" xmlns="http://www.w3.org/2000/svg">
<path d="M173.02 325.917C87.719 325.917 18.2732 257.196 18.2732 172.706C18.2732 88.2162 87.6793 19.1024 173.02 19.1024C194.226 19.1024 214.442 23.3779 232.834 31.0659C230.693 36.5181 229.464 42.4411 229.464 48.6385C229.464 75.429 251.543 97.1202 278.576 97.1202C287.693 97.1202 296.215 94.649 303.508 90.4128C318.808 114.222 327.687 142.464 327.687 172.745C327.687 257.196 258.281 325.957 172.941 325.957L173.02 325.917ZM317.461 78.2139C323.842 70.0552 327.687 59.7783 327.687 48.6385C327.687 21.6912 305.807 0 278.576 0C264.385 0 251.622 6.00137 242.664 15.533C221.339 6.23672 197.794 1.01984 172.98 1.01984C77.6112 1.01984 0 77.9001 0 172.706C0 267.512 77.6112 344 172.98 344C268.349 344 346 267.12 346 172.706C346 137.796 335.496 105.357 317.5 78.2139H317.461Z" fill="#F0F5FA"/>
<path d="M172.848 86.835C125.672 86.835 87.1875 124.859 87.1875 172.156C87.1875 219.452 125.711 257.165 172.848 257.165C219.984 257.165 258.508 219.141 258.508 172.156C258.508 125.171 220.337 86.835 172.848 86.835Z" fill="#F0F5FA"/>
</svg>
