<svg width="180" height="180" viewBox="0 0 180 180" fill="none" xmlns="http://www.w3.org/2000/svg">
<path d="M0 53.1818C0 23.8103 23.8103 0 53.1818 0H126.818C156.19 0 180 23.8103 180 53.1818V126.818C180 156.19 156.19 180 126.818 180H53.1818C23.8103 180 0 156.19 0 126.818V53.1818Z" fill="#2A98FF"/>
<path d="M90.0057 133.93C65.8005 133.93 46.0944 114.316 46.0944 90.2016C46.0944 66.0872 65.7893 46.3612 90.0057 46.3612C96.0233 46.3612 101.76 47.5815 106.979 49.7758C106.371 51.3319 106.023 53.0224 106.023 54.7912C106.023 62.4375 112.288 68.6285 119.959 68.6285C122.546 68.6285 124.964 67.9232 127.033 66.7141C131.375 73.5096 133.895 81.5701 133.895 90.2128C133.895 114.316 114.2 133.941 89.9832 133.941L90.0057 133.93ZM130.993 63.2324C132.804 60.9038 133.895 57.9706 133.895 54.7912C133.895 47.1001 127.686 40.9092 119.959 40.9092C115.932 40.9092 112.31 42.622 109.768 45.3425C103.717 42.6892 97.0356 41.2003 89.9945 41.2003C62.9323 41.2003 40.9092 63.1428 40.9092 90.2016C40.9092 117.26 62.9323 139.091 89.9945 139.091C117.057 139.091 139.091 117.148 139.091 90.2016C139.091 80.2379 136.11 70.9795 131.004 63.2324H130.993Z" fill="white"/>
<path d="M90.0001 63.4092C75.3556 63.4092 63.4092 75.2814 63.4092 90.0487C63.4092 104.816 75.3678 116.591 90.0001 116.591C104.632 116.591 116.591 104.719 116.591 90.0487C116.591 75.3787 104.742 63.4092 90.0001 63.4092Z" fill="white"/>
</svg>
