<svg width="157" height="48" viewBox="0 0 157 48" fill="none" xmlns="http://www.w3.org/2000/svg">
<g clip-path="url(#clip0_2006_10315)">
<g clip-path="url(#clip1_2006_10315)">
<path d="M54.1536 6.4046V2.84277H41.0737V20.6384H54.1536V17.0793H45.3838V13.4715H53.6774V9.91242H45.3838V6.4046H54.1536Z" fill="#181C23"/>
<path d="M92.6453 2.84277H77.56V6.45321H82.9476V20.6384H87.255V6.45321H92.6453V2.84277Z" fill="#181C23"/>
<path d="M25.319 2.84277L19.1178 20.6357H23.6701L28.6414 6.4289H32.2331V20.6357H36.5541V6.4289V2.84277H25.319Z" fill="#181C23"/>
<path d="M17.5805 9.77488C16.6635 5.58656 12.9248 2.4541 8.43515 2.4541C4.84341 2.4541 1.73057 4.4443 0.165982 7.39043L3.58902 9.02957C4.52777 7.32832 6.34541 6.21036 8.43515 6.21036C10.5249 6.21036 12.318 7.32832 13.2813 9.02957C13.4282 9.25911 13.5316 9.50754 13.6377 9.77488C13.6541 9.82079 13.6677 9.8667 13.6867 9.9126H6.75084V13.469H13.733C13.6595 13.6743 13.5752 13.8822 13.4881 14.0874C12.5901 15.975 10.6473 17.282 8.43515 17.282C6.22297 17.282 4.32098 16.0182 3.42304 14.1711L0 15.8076C1.502 18.8995 4.72097 21.0328 8.43515 21.0328C13.05 21.0328 16.8921 17.7141 17.6458 13.3394C17.7519 12.8209 17.7927 12.2809 17.7927 11.7435C17.7927 11.0576 17.7302 10.4176 17.5832 9.77488H17.5778H17.5805Z" fill="#181C23"/>
<path d="M70.1015 20.6384H75.715L67.2744 11.3949L74.662 2.84277H69.4512L63.533 9.91242H62.5099V2.84277H58.1971V20.6384H62.5099V13.4715H63.7207L70.1015 20.6384Z" fill="#181C23"/>
<path d="M105.635 10.15C105.2 10.5416 104.615 10.7333 103.88 10.7333H100.697V6.40457H103.88C104.615 6.40457 105.2 6.599 105.635 6.98786C106.068 7.37941 106.288 7.90599 106.288 8.57029C106.288 9.23459 106.071 9.75847 105.635 10.15ZM109.796 5.57285C109.227 4.71952 108.435 4.04982 107.418 3.56915C106.397 3.08578 105.222 2.84814 103.883 2.84814H96.3921V20.6384H100.702V14.2924H103.886C105.225 14.2924 106.4 14.0521 107.42 13.5714C108.441 13.0881 109.233 12.4211 109.799 11.5569C110.367 10.6928 110.65 9.69906 110.65 8.57029C110.65 7.44152 110.365 6.42617 109.799 5.57015L109.796 5.57285Z" fill="#181C23"/>
<path d="M152.69 2.84277V9.64238H145.376V2.84277H141.066V20.6384H145.376V13.8388H152.69V20.6384H157V2.84277H152.69Z" fill="#181C23"/>
<path d="M125.51 22.3019C119.654 22.3019 114.887 17.5708 114.887 11.7541C114.887 5.93746 119.651 1.17935 125.51 1.17935C126.965 1.17935 128.353 1.4737 129.616 2.00297C129.469 2.37833 129.384 2.78609 129.384 3.21275C129.384 5.05713 130.9 6.55045 132.756 6.55045C133.381 6.55045 133.966 6.38032 134.467 6.08868C135.517 7.72782 136.127 9.67211 136.127 11.7568C136.127 17.5708 131.362 22.3046 125.504 22.3046L125.51 22.3019ZM135.425 5.24885C135.863 4.68717 136.127 3.97967 136.127 3.21275C136.127 1.35758 134.625 -0.135742 132.756 -0.135742C131.782 -0.135742 130.905 0.277419 130.29 0.933616C128.826 0.293621 127.21 -0.0655318 125.507 -0.0655318C118.96 -0.0655318 113.632 5.22725 113.632 11.7541C113.632 18.281 118.96 23.5468 125.507 23.5468C132.054 23.5468 137.384 18.254 137.384 11.7541C137.384 9.35076 136.663 7.11753 135.428 5.24885H135.425Z" fill="#2A98FF"/>
<path d="M125.51 5.8374C122.231 5.8374 119.556 8.47299 119.556 11.7513C119.556 15.0296 122.234 17.6435 125.51 17.6435C128.786 17.6435 131.463 15.008 131.463 11.7513C131.463 8.49459 128.81 5.8374 125.51 5.8374Z" fill="#2A98FF"/>
<path d="M64.3467 46.989H68.6541V32.7822H75.9219V46.989H80.232V29.1987H64.3467V46.989Z" fill="#181C23"/>
<path d="M26.7014 43.6375C23.6103 43.6375 21.126 41.1477 21.126 38.1016C21.126 35.0556 23.6103 32.5658 26.7014 32.5658C29.7925 32.5658 32.2768 35.034 32.2768 38.1016C32.2768 41.1693 29.7707 43.6375 26.7014 43.6375ZM26.7014 28.8096C21.5233 28.8096 17.3248 32.9574 17.3248 38.0989C17.3248 43.2405 21.5233 47.3883 26.7014 47.3883C31.8795 47.3883 36.0563 43.2189 36.0563 38.0989C36.0563 32.979 31.8577 28.8096 26.7014 28.8096Z" fill="#181C23"/>
<path d="M83.4755 46.989H88.0277L92.999 32.7849H96.588V46.989H100.912V32.7849V29.1987H89.6767L83.4755 46.989Z" fill="#181C23"/>
<path d="M141.915 29.1987V32.8065H147.302V46.989H151.612V32.8065H157V29.1987H141.915Z" fill="#181C23"/>
<path d="M139.02 29.1987H133.806L127.891 36.2657H126.865V29.1987H122.557V46.989H126.865V39.8248H128.078L134.459 46.989H140.07L131.632 37.7482L139.02 29.1987Z" fill="#181C23"/>
<path d="M105.431 46.989H118.511V43.4325H109.741V39.8248H118.035V36.2657H109.741V32.7579H118.511V29.1987H105.431V46.989Z" fill="#181C23"/>
<path d="M49.7756 40.3001L44.437 29.1987H39.7296V46.989H43.9363V35.947L48.2219 44.7989H49.7756H51.332L55.6176 35.947V46.989H59.8243V29.1987H55.117L49.7756 40.3001Z" fill="#181C23"/>
<path d="M16.5003 29.1987H11.2895L5.37131 36.2657H4.3482V29.1987H0.0408325V46.989H4.3482V39.8248H5.56178L11.9426 46.989H17.5533L9.11543 37.7482L16.5003 29.1987Z" fill="#181C23"/>
</g>
</g>
<defs>
<clipPath id="clip0_2006_10315">
<rect width="157" height="48" fill="white"/>
</clipPath>
<clipPath id="clip1_2006_10315">
<rect width="157" height="47.5243" fill="white" transform="translate(0 -0.135742)"/>
</clipPath>
</defs>
</svg>
