<svg width="162" height="50" viewBox="0 0 162 50" fill="none" xmlns="http://www.w3.org/2000/svg">
<g clip-path="url(#clip0_2038_26913)">
<g clip-path="url(#clip1_2038_26913)">
<path d="M55.8783 6.7446V3.06934H42.3818V21.4317H55.8783V17.7592H46.8292V14.0366H55.387V10.3641H46.8292V6.7446H55.8783Z" fill="white"/>
<path d="M95.5957 3.06934H80.0299V6.79475H85.5891V21.4317H90.0337V6.79475H95.5957V3.06934Z" fill="white"/>
<path d="M26.1255 3.06934L19.7268 21.4289H24.424L29.5537 6.76967H33.2598V21.4289H37.7184V6.76967V3.06934H26.1255Z" fill="white"/>
<path d="M18.1404 10.2219C17.1942 5.90019 13.3365 2.66797 8.70379 2.66797C4.99766 2.66797 1.78568 4.72154 0.171268 7.76151L3.70332 9.45285C4.67197 7.69742 6.5475 6.54385 8.70379 6.54385C10.8601 6.54385 12.7103 7.69742 13.7043 9.45285C13.8559 9.68969 13.9626 9.94604 14.0721 10.2219C14.0889 10.2693 14.1029 10.3166 14.1226 10.364H6.96584V14.0337H14.1703C14.0945 14.2455 14.0075 14.46 13.9176 14.6718C12.9911 16.6195 10.9864 17.9681 8.70379 17.9681C6.42115 17.9681 4.45859 16.664 3.53205 14.7582L0 16.4467C1.54984 19.6371 4.87132 21.8384 8.70379 21.8384C13.4656 21.8384 17.43 18.4139 18.2078 13.8999C18.3173 13.365 18.3594 12.8077 18.3594 12.2532C18.3594 11.5454 18.2948 10.8851 18.1432 10.2219H18.1376H18.1404Z" fill="white"/>
<path d="M72.3341 21.4317H78.1263L69.4169 11.8939L77.0398 3.06934H71.6631L65.5564 10.3641H64.5007V3.06934H60.0505V21.4317H64.5007V14.0366H65.7501L72.3341 21.4317Z" fill="white"/>
<path d="M109 10.6086C108.55 11.0127 107.947 11.2105 107.189 11.2105H103.904V6.74391H107.189C107.947 6.74391 108.55 6.94453 109 7.34577C109.446 7.7498 109.673 8.29314 109.673 8.9786C109.673 9.66405 109.449 10.2046 109 10.6086ZM113.293 5.8857C112.706 5.00519 111.889 4.31417 110.839 3.81819C109.786 3.31942 108.573 3.07422 107.191 3.07422H99.4619V21.431H103.909V14.883H107.194C108.576 14.883 109.789 14.635 110.841 14.139C111.894 13.6402 112.711 12.952 113.295 12.0604C113.882 11.1687 114.174 10.1433 114.174 8.9786C114.174 7.81388 113.879 6.7662 113.295 5.88291L113.293 5.8857Z" fill="white"/>
<path d="M157.553 3.06934V10.0855H150.006V3.06934H145.558V21.4317H150.006V14.4156H157.553V21.4317H162V3.06934H157.553Z" fill="white"/>
<path d="M129.507 23.1483C123.465 23.1483 118.546 18.2665 118.546 12.2646C118.546 6.2627 123.462 1.35307 129.507 1.35307C131.009 1.35307 132.441 1.65679 133.744 2.20292C133.592 2.59023 133.505 3.01098 133.505 3.45123C133.505 5.35434 135.069 6.89522 136.984 6.89522C137.629 6.89522 138.233 6.71967 138.75 6.41874C139.833 8.11009 140.462 10.1163 140.462 12.2674C140.462 18.2665 135.546 23.1511 129.501 23.1511L129.507 23.1483ZM139.738 5.55217C140.19 4.9726 140.462 4.24257 140.462 3.45123C140.462 1.53697 138.912 -0.00390625 136.984 -0.00390625C135.978 -0.00390625 135.074 0.422413 134.44 1.09951C132.929 0.439131 131.262 0.0685401 129.504 0.0685401C122.749 0.0685401 117.251 5.52988 117.251 12.2646C117.251 18.9993 122.749 24.4328 129.504 24.4328C136.259 24.4328 141.759 18.9715 141.759 12.2646C141.759 9.78471 141.015 7.48036 139.741 5.55217H139.738Z" fill="#2A98FF"/>
<path d="M129.507 6.15918C126.124 6.15918 123.364 8.87871 123.364 12.2614C123.364 15.6441 126.126 18.3413 129.507 18.3413C132.887 18.3413 135.65 15.6218 135.65 12.2614C135.65 8.901 132.913 6.15918 129.507 6.15918Z" fill="#2A98FF"/>
<path d="M66.3959 48.6214H70.8404V33.9622H78.3397V48.6214H82.7871V30.2646H66.3959V48.6214Z" fill="white"/>
<path d="M27.5517 45.1624C24.3622 45.1624 21.7988 42.5934 21.7988 39.4503C21.7988 36.3072 24.3622 33.7382 27.5517 33.7382C30.7412 33.7382 33.3046 36.285 33.3046 39.4503C33.3046 42.6157 30.7188 45.1624 27.5517 45.1624ZM27.5517 29.8623C22.2087 29.8623 17.8765 34.1422 17.8765 39.4475C17.8765 44.7528 22.2087 49.0327 27.5517 49.0327C32.8947 49.0327 37.2045 44.7305 37.2045 39.4475C37.2045 34.1645 32.8723 29.8623 27.5517 29.8623Z" fill="white"/>
<path d="M86.1338 48.6214H90.831L95.9606 33.965H99.664V48.6214H104.125V33.965V30.2646H92.5325L86.1338 48.6214Z" fill="white"/>
<path d="M146.434 30.2646V33.9873H151.994V48.6214H156.441V33.9873H162V30.2646H146.434Z" fill="white"/>
<path d="M143.447 30.2646H138.067L131.963 37.5567H130.905V30.2646H126.46V48.6214H130.905V41.2291H132.157L138.741 48.6214H144.531L135.824 39.0864L143.447 30.2646Z" fill="white"/>
<path d="M108.789 48.6214H122.285V44.9518H113.236V41.2291H121.794V37.5567H113.236V33.9371H122.285V30.2646H108.789V48.6214Z" fill="white"/>
<path d="M51.3608 41.7195L45.8522 30.2646H40.9949V48.6214H45.3355V37.2279L49.7576 46.3617H51.3608H52.9668L57.3889 37.2279V48.6214H61.7296V30.2646H56.8723L51.3608 41.7195Z" fill="white"/>
<path d="M17.0257 30.2646H11.649L5.54235 37.5567H4.48666V30.2646H0.0421143V48.6214H4.48666V41.2291H5.73889L12.3229 48.6214H18.1123L9.40571 39.0864L17.0257 30.2646Z" fill="white"/>
</g>
</g>
<defs>
<clipPath id="clip0_2038_26913">
<rect width="162" height="49.9135" fill="white"/>
</clipPath>
<clipPath id="clip1_2038_26913">
<rect width="162" height="49.0378" fill="white" transform="translate(0 -0.00390625)"/>
</clipPath>
</defs>
</svg>
