<svg width="98" height="98" viewBox="0 0 98 98" fill="none" xmlns="http://www.w3.org/2000/svg">
<path d="M49.0056 91.9537C25.2594 91.9537 5.927 72.7756 5.927 49.197C5.927 25.6185 25.2484 6.3309 49.0056 6.3309C54.9091 6.3309 60.5367 7.52406 65.6567 9.66956C65.0608 11.1911 64.7187 12.844 64.7187 14.5735C64.7187 22.0499 70.8649 28.1033 78.3905 28.1033C80.9284 28.1033 83.3008 27.4137 85.3311 26.2315C89.5904 32.8759 92.0622 40.7574 92.0622 49.208C92.0622 72.7756 72.7408 91.9647 48.9835 91.9647L49.0056 91.9537ZM89.2153 22.8271C90.9918 20.5503 92.0622 17.6823 92.0622 14.5735C92.0622 7.05336 85.9711 1 78.3905 1C74.4401 1 70.887 2.6748 68.3932 5.33478C62.4566 2.74048 55.9022 1.28461 48.9946 1.28461C22.4456 1.28461 0.840088 22.7396 0.840088 49.197C0.840088 75.6545 22.4456 97 48.9946 97C75.5435 97 97.1601 75.545 97.1601 49.197C97.1601 39.4547 94.2359 30.4021 89.2263 22.8271H89.2153Z" fill="white"/>
<path d="M48.9566 25.2334C35.8237 25.2334 25.1104 35.8448 25.1104 49.0439C25.1104 62.2429 35.8346 72.7674 48.9566 72.7674C62.0785 72.7674 72.8028 62.156 72.8028 49.0439C72.8028 35.9318 62.1766 25.2334 48.9566 25.2334Z" fill="white"/>
<g clip-path="url(#clip0_2054_37501)">
<path d="M58.6948 56.9283C58.6931 57.1731 58.5948 57.4074 58.4212 57.5806C58.2477 57.7537 58.0127 57.8519 57.7671 57.8538H40.9195C40.6734 57.8536 40.4375 57.756 40.2635 57.5824C40.0896 57.4089 39.9919 57.1736 39.9919 56.9283V55.9898H56.8245V45.0849L49.3433 51.7956L39.9919 43.4072V42.0092C39.9919 41.762 40.0904 41.5249 40.2658 41.3501C40.4411 41.1753 40.679 41.0771 40.927 41.0771H57.7596C58.0077 41.0771 58.2455 41.1753 58.4209 41.3501C58.5963 41.5249 58.6948 41.762 58.6948 42.0092V56.9283ZM42.268 42.9412L49.3433 49.2884L56.4186 42.9412H42.268ZM38.1216 52.2616H45.6027V54.1257H38.1216V52.2616ZM38.1216 47.6014H42.7973V49.4655H38.1216V47.6014Z" fill="#2A98FF"/>
</g>
<defs>
<clipPath id="clip0_2054_37501">
<rect width="22.4435" height="22.3689" fill="white" transform="translate(38.1216 38.2812)"/>
</clipPath>
</defs>
</svg>
