<svg width="20" height="20" viewBox="0 0 20 20" fill="none" xmlns="http://www.w3.org/2000/svg">
<path d="M6.98391 9.74522C6.98391 9.68751 6.99529 9.63036 7.0174 9.57705C7.03951 9.52377 7.07195 9.47536 7.11277 9.43466C7.15363 9.39393 7.20208 9.3617 7.25539 9.33978C7.3087 9.3179 7.36577 9.30675 7.42341 9.30702L8.15204 9.30942C8.26822 9.30942 8.37963 9.35566 8.46181 9.43796C8.54396 9.52027 8.59011 9.63189 8.59011 9.74829V12.509C8.67216 12.4846 8.77721 12.4586 8.89276 12.4313C8.97284 12.4125 9.0442 12.367 9.09528 12.3024C9.14636 12.2378 9.17416 12.1578 9.17419 12.0754V8.6513C9.17419 8.53487 9.22035 8.42324 9.30249 8.3409C9.38464 8.2586 9.49605 8.21233 9.61223 8.21233H10.3431C10.4593 8.21233 10.5707 8.2586 10.6529 8.3409C10.735 8.42324 10.7812 8.53487 10.7812 8.6513V11.8295C10.7812 11.8295 10.964 11.7553 11.142 11.68C11.2081 11.652 11.2646 11.605 11.3043 11.5451C11.344 11.4851 11.3652 11.4148 11.3652 11.3428V7.554C11.3652 7.43764 11.4114 7.32601 11.4935 7.24371C11.5756 7.1614 11.687 7.11516 11.8032 7.11513H12.5333C12.6494 7.11523 12.7607 7.16154 12.8428 7.24384C12.9248 7.32611 12.9709 7.4377 12.9709 7.554V10.674C13.6039 10.2144 14.2454 9.66155 14.7545 8.99689C14.8283 8.90041 14.8772 8.78711 14.8967 8.66708C14.9162 8.54708 14.9058 8.42411 14.8664 8.30911C14.6307 7.62987 14.2562 7.00737 13.7666 6.48149C13.2771 5.95561 12.6834 5.53793 12.0234 5.25513C11.3635 4.97234 10.6519 4.83068 9.93426 4.83923C9.21658 4.84778 8.50856 5.00634 7.85555 5.30477C7.20254 5.60318 6.61889 6.03491 6.14196 6.5723C5.66503 7.10969 5.30532 7.74093 5.08585 8.42557C4.86639 9.11025 4.79199 9.83327 4.86743 10.5484C4.94287 11.2635 5.16648 11.955 5.52396 12.5786C5.58624 12.6861 5.67786 12.7737 5.78808 12.8309C5.89828 12.8881 6.02252 12.9126 6.14612 12.9015C6.28424 12.8893 6.4562 12.8721 6.66065 12.8481C6.74962 12.8379 6.83177 12.7953 6.89144 12.7285C6.95111 12.6615 6.98414 12.575 6.98424 12.4853L6.98391 9.74522Z" fill="#388B5F"/>
<path d="M6.9684 14.1726C7.73799 14.7335 8.64743 15.0701 9.59616 15.1453C10.5449 15.2206 11.4958 15.0313 12.3439 14.5986C13.1919 14.166 13.904 13.5067 14.4012 12.6937C14.8985 11.8807 15.1616 10.9458 15.1614 9.99228C15.1614 9.87301 15.1559 9.75558 15.148 9.63851C13.2631 12.455 9.783 13.7716 6.9684 14.1726Z" fill="#388B5F"/>
</svg>
