<svg width="20" height="21" viewBox="0 0 20 21" fill="none" xmlns="http://www.w3.org/2000/svg">
<g filter="url(#filter0_d_101_2)">
<path d="M7.5279 7.52729C7.67187 7.38332 7.9053 7.38332 8.04927 7.52729L10.0006 9.47859L11.9519 7.52729C12.0958 7.38332 12.3293 7.38332 12.4732 7.52729C12.6172 7.67126 12.6172 7.90469 12.4732 8.04866L10.5219 9.99996L12.4732 11.9513C12.6172 12.0952 12.6172 12.3287 12.4732 12.4726C12.3293 12.6166 12.0958 12.6166 11.9519 12.4726L10.0006 10.5213L8.04927 12.4726C7.9053 12.6166 7.67187 12.6166 7.5279 12.4726C7.38393 12.3287 7.38393 12.0952 7.5279 11.9513L9.4792 9.99996L7.5279 8.04866C7.38393 7.90469 7.38393 7.67126 7.5279 7.52729Z" fill="white"/>
</g>
<defs>
<filter id="filter0_d_101_2" x="-4" y="0" width="28" height="28" filterUnits="userSpaceOnUse" color-interpolation-filters="sRGB">
<feFlood flood-opacity="0" result="BackgroundImageFix"/>
<feColorMatrix in="SourceAlpha" type="matrix" values="0 0 0 0 0 0 0 0 0 0 0 0 0 0 0 0 0 0 127 0" result="hardAlpha"/>
<feOffset dy="4"/>
<feGaussianBlur stdDeviation="2"/>
<feComposite in2="hardAlpha" operator="out"/>
<feColorMatrix type="matrix" values="0 0 0 0 0 0 0 0 0 0 0 0 0 0 0 0 0 0 0.25 0"/>
<feBlend mode="normal" in2="BackgroundImageFix" result="effect1_dropShadow_101_2"/>
<feBlend mode="normal" in="SourceGraphic" in2="effect1_dropShadow_101_2" result="shape"/>
</filter>
</defs>
</svg>
