<svg width="20" height="20" viewBox="0 0 20 20" fill="none" xmlns="http://www.w3.org/2000/svg">
<path d="M15.1614 14.0739L14.3893 13.3151C14.308 13.2752 14.2674 13.1553 14.2674 13.0755V7.0048C14.2674 6.92492 14.308 6.8051 14.3893 6.72523L15.1614 5.84658V5.80664H12.3979L10.3253 10.9587L7.96815 5.80664H5.12335V5.84658L5.85487 6.84504C6.01743 7.0048 6.05807 7.24443 6.05807 7.44412V11.8374C6.09871 12.077 6.05807 12.3566 5.93615 12.5962L4.83887 14.0739V14.1139H7.76495V14.0739L6.66767 12.6361C6.54575 12.3965 6.50511 12.1569 6.54575 11.8773V7.88345C6.58639 7.96332 6.62703 7.96332 6.66767 8.12308L9.4312 14.1937H9.47184L12.1541 7.60388C12.1134 7.84351 12.1134 8.12308 12.1134 8.32277V13.0355C12.1134 13.1553 12.0728 13.2352 11.9915 13.3151L11.1787 14.0739V14.1139H15.1614V14.0739Z" fill="#388B5F"/>
</svg>
