<svg width="30" height="30" viewBox="0 0 30 30" fill="none" xmlns="http://www.w3.org/2000/svg">
<path d="M17.9462 5.75327C19.5131 4.50768 21.8452 5.06984 22.6601 6.88962L23.7826 9.39594C24.1104 10.1281 24.7171 10.7021 25.4701 10.9928L28.0479 11.9877C29.9196 12.7101 30.5945 14.9932 29.4121 16.6027L27.7837 18.8194C27.308 19.467 27.1098 20.2747 27.2324 21.0665L27.6521 23.777C27.9568 25.745 26.2997 27.4659 24.3024 27.2556L21.5516 26.966C20.7479 26.8814 19.9432 27.1152 19.3127 27.6163L17.1546 29.3318C15.5877 30.5774 13.2556 30.0153 12.4407 28.1955L11.3182 25.6892C10.9904 24.957 10.3838 24.383 9.63069 24.0924L7.05289 23.0974C5.18121 22.375 4.50632 20.092 5.68868 18.4824L7.3171 16.2657C7.79281 15.6181 7.99097 14.8104 7.86836 14.0186L7.44868 11.3081C7.14396 9.34015 8.8011 7.61924 10.7984 7.82951L13.5492 8.1191C14.3529 8.2037 15.1576 7.96994 15.7881 7.46878L17.9462 5.75327Z" fill="#132D55"/>
<path d="M12.8454 0.668162C14.4123 -0.57743 16.7444 -0.0152705 17.5593 1.80451L18.6818 4.31083C19.0096 5.04301 19.6162 5.61699 20.3693 5.90765L22.9471 6.90258C24.8188 7.62498 25.4937 9.90804 24.3113 11.5176L22.6829 13.7343C22.2072 14.3819 22.009 15.1896 22.1316 15.9814L22.5513 18.6919C22.856 20.6599 21.1989 22.3808 19.2016 22.1705L16.4508 21.8809C15.6471 21.7963 14.8424 22.0301 14.2119 22.5312L12.0538 24.2467C10.4869 25.4923 8.15483 24.9302 7.33987 23.1104L6.21745 20.6041C5.88955 19.8719 5.28295 19.2979 4.52989 19.0072L1.95209 18.0123C0.080408 17.2899 -0.594478 15.0069 0.587878 13.3973L2.2163 11.1806C2.69201 10.533 2.89017 9.72528 2.76756 8.93347L2.34788 6.22303C2.04316 4.25504 3.70029 2.53413 5.69761 2.7444L8.44845 3.03399C9.25206 3.11859 10.0568 2.88483 10.6873 2.38367L12.8454 0.668162Z" fill="white"/>
<path fill-rule="evenodd" clip-rule="evenodd" d="M17.7489 4.72133L16.6265 2.21501C16.0832 1.00182 14.5285 0.627047 13.4839 1.45744L11.3258 3.17295C10.4852 3.84116 9.41214 4.15284 8.34066 4.04004L5.58983 3.75045C4.25828 3.61027 3.15352 4.75755 3.35667 6.06954L3.77636 8.77999C3.93983 9.83573 3.67562 10.9127 3.04133 11.7762L1.41292 13.9929C0.62468 15.0659 1.0746 16.5879 2.32239 17.0695L4.90019 18.0645C5.90427 18.452 6.71308 19.2173 7.15027 20.1936L8.27269 22.6999C8.816 23.9131 10.3707 24.2878 11.4153 23.4575L13.5734 21.7419C14.414 21.0737 15.4871 20.7621 16.5585 20.8749L19.3094 21.1644C20.6409 21.3046 21.7457 20.1573 21.5425 18.8454L21.1228 16.1349C20.9594 15.0792 21.2236 14.0022 21.8579 13.1387L23.4863 10.922C24.2745 9.84899 23.8246 8.32695 22.5768 7.84535L19.999 6.85042C18.9949 6.46288 18.1861 5.69756 17.7489 4.72133ZM17.5593 1.80451C16.7444 -0.0152705 14.4123 -0.57743 12.8454 0.668162L10.6873 2.38367C10.0568 2.88483 9.25206 3.11859 8.44845 3.03399L5.69761 2.7444C3.70029 2.53413 2.04316 4.25504 2.34788 6.22303L2.76756 8.93347C2.89017 9.72528 2.69201 10.533 2.2163 11.1806L0.587878 13.3973C-0.594478 15.0069 0.080408 17.2899 1.95209 18.0123L4.52989 19.0072C5.28295 19.2979 5.88955 19.8719 6.21745 20.6041L7.33987 23.1104C8.15483 24.9302 10.4869 25.4923 12.0538 24.2467L14.2119 22.5312C14.8424 22.0301 15.6471 21.7963 16.4508 21.8809L19.2016 22.1705C21.1989 22.3808 22.856 20.6599 22.5513 18.6919L22.1316 15.9814C22.009 15.1896 22.2072 14.3819 22.6829 13.7343L24.3113 11.5176C25.4937 9.90804 24.8188 7.62498 22.9471 6.90258L20.3693 5.90765C19.6162 5.61699 19.0096 5.04301 18.6818 4.31083L17.5593 1.80451Z" fill="#132D55"/>
</svg>
