<svg width="30" height="30" viewBox="0 0 30 30" fill="none" xmlns="http://www.w3.org/2000/svg">
<path d="M17.8865 5.86026C19.4219 4.62908 21.7068 5.18474 22.5053 6.98345L23.6051 9.46076C23.9263 10.1845 24.5207 10.7518 25.2585 11.0391L27.7843 12.0225C29.6182 12.7365 30.2794 14.9932 29.121 16.5841L27.5254 18.7751C27.0593 19.4152 26.8652 20.2136 26.9853 20.9963L27.3965 23.6753C27.6951 25.6205 26.0714 27.3215 24.1144 27.1137L21.4191 26.8275C20.6317 26.7438 19.8432 26.9749 19.2255 27.4702L17.1109 29.1659C15.5756 30.3971 13.2907 29.8414 12.4922 28.0427L11.3924 25.5654C11.0712 24.8417 10.4768 24.2744 9.73896 23.9871L7.21321 23.0036C5.37932 22.2896 4.71806 20.033 5.87654 18.4421L7.47208 16.251C7.93819 15.6109 8.13234 14.8125 8.01222 14.0299L7.60101 11.3508C7.30244 9.40561 8.92611 7.70463 10.8831 7.91246L13.5784 8.1987C14.3658 8.28232 15.1543 8.05127 15.772 7.55591L17.8865 5.86026Z" fill="#132D55"/>
<path d="M12.8887 0.834011C14.4241 -0.397162 16.709 0.15849 17.5075 1.95721L18.6073 4.43451C18.9285 5.15822 19.5229 5.72556 20.2607 6.01285L22.7865 6.99627C24.6204 7.7103 25.2816 9.96694 24.1231 11.5578L22.5276 13.7489C22.0615 14.389 21.8673 15.1874 21.9875 15.97L22.3987 18.6491C22.6973 20.5943 21.0736 22.2953 19.1166 22.0875L16.4213 21.8012C15.6339 21.7176 14.8454 21.9486 14.2277 22.444L12.1131 24.1397C10.5778 25.3708 8.29289 24.8152 7.49439 23.0165L6.39464 20.5392C6.07336 19.8155 5.47901 19.2481 4.74115 18.9608L2.2154 17.9774C0.381519 17.2634 -0.279739 15.0067 0.878741 13.4158L2.47428 11.2248C2.94039 10.5847 3.13454 9.78629 3.01441 9.00365L2.6032 6.32458C2.30463 4.37937 3.92831 2.67838 5.8853 2.88622L8.58059 3.17246C9.36797 3.25608 10.1565 3.02502 10.7742 2.52967L12.8887 0.834011Z" fill="#6174FB"/>
<path fill-rule="evenodd" clip-rule="evenodd" d="M17.6933 4.84026L16.5935 2.36295C16.0612 1.16381 14.5379 0.793373 13.5143 1.61416L11.3998 3.30981C10.5762 3.97028 9.52482 4.27836 8.47498 4.16686L5.77969 3.88062C4.47503 3.74207 3.39258 4.87606 3.59163 6.17287L4.00284 8.85194C4.16301 9.89546 3.90413 10.96 3.28266 11.8134L1.68712 14.0045C0.9148 15.0651 1.35564 16.5695 2.57823 17.0455L5.10398 18.029C6.08778 18.412 6.88026 19.1685 7.30862 20.1334L8.40838 22.6107C8.94071 23.8099 10.464 24.1803 11.4875 23.3595L13.6021 21.6639C14.4257 21.0034 15.4771 20.6953 16.5269 20.8068L19.2222 21.093C20.5269 21.2316 21.6093 20.0976 21.4103 18.8008L20.9991 16.1217C20.8389 15.0782 21.0978 14.0137 21.7192 13.1602L23.3148 10.9692C24.0871 9.90857 23.6463 8.40415 22.4237 7.92812L19.8979 6.94471C18.9141 6.56165 18.1216 5.8052 17.6933 4.84026ZM17.5075 1.95721C16.709 0.15849 14.4241 -0.397162 12.8887 0.834011L10.7742 2.52967C10.1565 3.02502 9.36797 3.25608 8.58059 3.17246L5.8853 2.88622C3.92831 2.67838 2.30463 4.37937 2.6032 6.32458L3.01441 9.00365C3.13454 9.78629 2.94039 10.5847 2.47428 11.2248L0.878741 13.4158C-0.279739 15.0067 0.381519 17.2634 2.2154 17.9774L4.74115 18.9608C5.47901 19.2481 6.07336 19.8155 6.39464 20.5392L7.49439 23.0165C8.29289 24.8152 10.5778 25.3708 12.1131 24.1397L14.2277 22.444C14.8454 21.9486 15.6339 21.7176 16.4213 21.8012L19.1166 22.0875C21.0736 22.2953 22.6973 20.5943 22.3987 18.6491L21.9875 15.97C21.8673 15.1874 22.0615 14.389 22.5276 13.7489L24.1231 11.5578C25.2816 9.96694 24.6204 7.7103 22.7865 6.99627L20.2607 6.01285C19.5229 5.72556 18.9285 5.15822 18.6073 4.43451L17.5075 1.95721Z" fill="#132D55"/>
</svg>
