<svg width="20" height="20" viewBox="0 0 20 20" fill="none" xmlns="http://www.w3.org/2000/svg">
<path fill-rule="evenodd" clip-rule="evenodd" d="M10.1733 8.20936L10.1957 8.60003L9.82278 8.5522C8.46531 8.36882 7.27938 7.74694 6.27247 6.70249L5.7802 6.18425L5.6534 6.56695C5.38489 7.42005 5.55644 8.32098 6.11584 8.92692C6.41418 9.26178 6.34706 9.30962 5.83241 9.1103C5.6534 9.04651 5.49677 8.99868 5.48185 9.0226C5.42964 9.07841 5.60865 9.80394 5.75036 10.091C5.94429 10.4896 6.3396 10.8803 6.7722 11.1115L7.13767 11.2949L6.70507 11.3028C6.28739 11.3028 6.27247 11.3108 6.31722 11.4782C6.46639 11.9965 7.05563 12.5466 7.71199 12.7858L8.17442 12.9532L7.77165 13.2084C7.17496 13.5751 6.47385 13.7824 5.77274 13.7983C5.4371 13.8063 5.16113 13.8382 5.16113 13.8621C5.16113 13.9419 6.07109 14.3883 6.60065 14.5637C8.18934 15.082 10.0764 14.8587 11.4935 13.9737C12.5004 13.3439 13.5073 12.0922 13.9772 10.8803C14.2308 10.2345 14.4844 9.05449 14.4844 8.48841C14.4844 8.12166 14.5068 8.07382 14.9245 7.63532C15.1706 7.38018 15.4018 7.10113 15.4466 7.02141C15.5212 6.86992 15.5137 6.86992 15.1333 7.00546C14.4993 7.24465 14.4098 7.21275 14.7231 6.85397C14.9543 6.59884 15.2303 6.13642 15.2303 6.00088C15.2303 5.97696 15.1184 6.01682 14.9916 6.08858C14.8574 6.16831 14.559 6.2879 14.3353 6.35966L13.9325 6.4952L13.567 6.23209C13.3656 6.08858 13.0822 5.92912 12.933 5.88128C12.5526 5.76966 11.9709 5.78561 11.6278 5.91318C10.6954 6.27196 10.1062 7.19681 10.1733 8.20936Z" fill="#388B5F"/>
</svg>
