<svg width="267" height="100" viewBox="0 0 267 100" fill="none" xmlns="http://www.w3.org/2000/svg">
<path fill-rule="evenodd" clip-rule="evenodd" d="M0 100H29.8038V0H0V100Z" fill="white"/>
<path fill-rule="evenodd" clip-rule="evenodd" d="M67.8224 100H97.626V0H67.8224V100Z" fill="white"/>
<path fill-rule="evenodd" clip-rule="evenodd" d="M53.6809 0.00146484H34.5429V46.5246H53.6809C59.8875 46.5246 63.0799 40.6669 63.0799 35.3121V11.2233C63.0799 5.86048 59.8875 0.00146484 53.6809 0.00146484Z" fill="white"/>
<path fill-rule="evenodd" clip-rule="evenodd" d="M53.6809 52.2432H34.5429V100H53.6809C59.8875 100 63.0799 93.9896 63.0799 88.4862V63.7637C63.0799 58.2596 59.8875 52.2432 53.6809 52.2432Z" fill="white"/>
<path fill-rule="evenodd" clip-rule="evenodd" d="M119.842 52.4704C122.995 52.4704 125.222 52.3284 126.58 51.4055C127.935 50.4843 128.762 48.8852 128.762 46.9948C128.762 44.8132 127.839 43.1191 126.093 42.1984C124.784 41.5186 123.234 41.4241 121.538 41.4241H117.907V52.4704H119.842ZM120.037 37.157C125.126 37.157 127.404 35.9932 127.404 32.3605C127.404 28.0479 125.027 27.2252 120.037 27.2252H117.907V37.157H120.037ZM112.379 22.5239H121.103C124.784 22.5239 127.547 22.6711 129.681 24.2671C131.813 25.8179 133.072 28.4855 133.072 31.5848C133.072 35.2695 131.327 37.8361 128.08 38.8071C132.103 39.4357 134.575 42.6821 134.575 47.3373C134.575 50.193 133.509 52.81 131.763 54.5546C129.291 57.0275 125.999 57.1709 121.153 57.1709H112.379V22.5239Z" fill="white"/>
<path fill-rule="evenodd" clip-rule="evenodd" d="M140.305 22.5239H159.641V27.3218H145.927V35.9932H159.641V40.9375H145.927V52.1316H159.641V57.1709H140.305V22.5239Z" fill="white"/>
<path fill-rule="evenodd" clip-rule="evenodd" d="M168.605 48.156C169.429 51.2598 171.755 52.9085 175.293 52.9085C178.688 52.9085 180.768 50.8741 180.768 47.7719C180.768 44.3769 178.201 43.5552 174.617 41.8096C168.46 38.8069 165.069 36.4784 165.069 31.248C165.069 25.6735 169.186 21.7466 175.487 21.7466C180.623 21.7466 184.163 23.8323 185.471 27.4652L181.059 29.7441C179.702 27.6116 178.107 26.595 175.924 26.595C172.87 26.595 170.982 28.3389 170.982 30.9544C170.982 34.2968 173.696 35.3155 177.57 37.1077C183.679 39.9194 186.538 42.3907 186.538 47.3834C186.538 53.8278 182.225 58.0921 175.053 58.0921C169.137 58.0921 165.263 55.2805 164.101 50.241L168.605 48.156Z" fill="white"/>
<path fill-rule="evenodd" clip-rule="evenodd" d="M192.789 57.1709H198.411V22.5239H192.789V57.1709Z" fill="white"/>
<path fill-rule="evenodd" clip-rule="evenodd" d="M206.5 21.1675L228.5 42.3421C229.907 43.7027 231.12 45.1048 232.282 46.5603V22.5243H237.466V58.528L215.03 36.9646C213.768 35.7543 212.657 34.4443 211.688 33.0868V57.1712H206.5V21.1675Z" fill="white"/>
<path fill-rule="evenodd" clip-rule="evenodd" d="M247.934 48.156C248.757 51.2598 251.082 52.9085 254.621 52.9085C258.011 52.9085 260.096 50.8741 260.096 47.7719C260.096 44.3769 257.527 43.5552 253.945 41.8096C247.788 38.8069 244.396 36.4784 244.396 31.248C244.396 25.6735 248.514 21.7466 254.818 21.7466C259.954 21.7466 263.491 23.8323 264.798 27.4652L260.389 29.7441C259.03 27.6116 257.43 26.595 255.254 26.595C252.198 26.595 250.309 28.3389 250.309 30.9544C250.309 34.2968 253.025 35.3155 256.9 37.1077C263.007 39.9194 265.863 42.3907 265.863 47.3834C265.863 53.8278 261.552 58.0921 254.38 58.0921C248.47 58.0921 244.589 55.2805 243.427 50.241L247.934 48.156Z" fill="white"/>
<path fill-rule="evenodd" clip-rule="evenodd" d="M124.92 77.8164V69.6543H127.161V89.773H124.92V79.8979H114.621V89.773H112.379V69.6543H114.621V77.8164H124.92Z" fill="white"/>
<path fill-rule="evenodd" clip-rule="evenodd" d="M131.321 69.6543H141.757V71.7357H133.563V77.7118H141.513V79.7923H133.563V87.6904H141.757V89.773H131.321V69.6543Z" fill="white"/>
<path fill-rule="evenodd" clip-rule="evenodd" d="M152.935 73.9218L149.491 81.98H156.293L152.935 73.9218ZM148.584 84.0598L146.156 89.7725H143.7L152.986 68.6914L162.03 89.7725H159.549L157.176 84.0598H148.584Z" fill="white"/>
<path fill-rule="evenodd" clip-rule="evenodd" d="M166.459 87.6904H172.011V89.773H164.219V69.6543H166.459V87.6904Z" fill="white"/>
<path fill-rule="evenodd" clip-rule="evenodd" d="M177.433 89.773H175.189V71.7357H170.335V69.6543H182.339V71.7357H177.433V89.773Z" fill="white"/>
<path fill-rule="evenodd" clip-rule="evenodd" d="M197.28 77.8164V69.6543H199.523V89.773H197.28V79.8979H186.982V89.773H184.741V69.6543H186.982V77.8164H197.28Z" fill="white"/>
<path fill-rule="evenodd" clip-rule="evenodd" d="M219.027 74.0552C217.425 72.4021 215.213 71.3855 212.888 71.3855C208.407 71.3855 204.777 75.2832 204.777 79.7102C204.777 84.1405 208.434 88.0346 212.943 88.0346C215.213 88.0346 217.425 86.9662 219.027 85.3678V88.143C217.293 89.3952 215.155 90.1168 213.023 90.1168C207.339 90.1168 202.539 85.5003 202.539 79.7921C202.539 74.0282 207.261 69.3071 213.023 69.3071C215.264 69.3071 217.239 69.9482 219.027 71.2816V74.0552Z" fill="white"/>
<path fill-rule="evenodd" clip-rule="evenodd" d="M230.177 73.9218L226.736 81.98H233.541L230.177 73.9218ZM225.829 84.0598L223.404 89.7725H220.946L230.232 68.6914L239.275 89.7725H236.795L234.42 84.0598H225.829Z" fill="white"/>
<path fill-rule="evenodd" clip-rule="evenodd" d="M243.702 78.9661H244.398C246.932 78.9661 249.496 78.4875 249.496 75.3634C249.496 72.0525 247.066 71.7357 244.373 71.7357H243.702V78.9661ZM243.702 89.773H241.464V69.6543H244.373C248.186 69.6543 251.734 70.6672 251.734 75.2016C251.734 78.3009 249.789 80.4863 246.693 80.7525L253.096 89.773H250.35L244.264 80.9407H243.702V89.773Z" fill="white"/>
<path fill-rule="evenodd" clip-rule="evenodd" d="M255.714 69.6255H266.147V71.7062H257.954V77.6823H265.904V79.7642H257.954V87.6607H266.147V89.7428H255.714V69.6255Z" fill="white"/>
<path fill-rule="evenodd" clip-rule="evenodd" d="M112.379 100H265.913V98.5659H112.379V100Z" fill="white"/>
</svg>
