<svg width="150" height="56" viewBox="0 0 150 56" fill="none" xmlns="http://www.w3.org/2000/svg">
<path fill-rule="evenodd" clip-rule="evenodd" d="M0 56H16.6901V0H0V56Z" fill="#3575AA"/>
<path fill-rule="evenodd" clip-rule="evenodd" d="M37.9805 56H54.6705V0H37.9805V56Z" fill="#3575AA"/>
<path fill-rule="evenodd" clip-rule="evenodd" d="M30.0613 0.000732422H19.344V26.0537H30.0613C33.537 26.0537 35.3247 22.7734 35.3247 19.7747V6.28497C35.3247 3.28178 33.537 0.000732422 30.0613 0.000732422Z" fill="#3575AA"/>
<path fill-rule="evenodd" clip-rule="evenodd" d="M30.0613 29.2561H19.344V56H30.0613C33.537 56 35.3247 52.6341 35.3247 49.5522V35.7076C35.3247 32.6253 33.537 29.2561 30.0613 29.2561Z" fill="#3575AA"/>
<path fill-rule="evenodd" clip-rule="evenodd" d="M67.1115 29.3835C68.8774 29.3835 70.1245 29.304 70.8848 28.7872C71.6438 28.2713 72.1065 27.3758 72.1065 26.3172C72.1065 25.0955 71.5897 24.1468 70.6122 23.6312C69.8791 23.2505 69.011 23.1976 68.0611 23.1976H66.0279V29.3835H67.1115ZM67.2205 20.808C70.0704 20.808 71.3462 20.1563 71.3462 18.122C71.3462 15.7069 70.0151 15.2462 67.2205 15.2462H66.0279V20.808H67.2205ZM62.9321 12.6135H67.8176C69.8791 12.6135 71.4261 12.6959 72.6212 13.5897C73.8154 14.4581 74.5203 15.952 74.5203 17.6876C74.5203 19.751 73.5433 21.1883 71.7245 21.7321C73.9777 22.0841 75.3621 23.9021 75.3621 26.509C75.3621 28.1082 74.765 29.5737 73.7871 30.5507C72.4032 31.9355 70.5594 32.0158 67.8455 32.0158H62.9321V12.6135Z" fill="#3575AA"/>
<path fill-rule="evenodd" clip-rule="evenodd" d="M78.571 12.6135H89.399V15.3003H81.7189V20.1563H89.399V22.9251H81.7189V29.1938H89.399V32.0158H78.571V12.6135Z" fill="#3575AA"/>
<path fill-rule="evenodd" clip-rule="evenodd" d="M94.419 26.9675C94.88 28.7056 96.1828 29.6289 98.1643 29.6289C100.065 29.6289 101.23 28.4896 101.23 26.7524C101.23 24.8512 99.7926 24.391 97.7857 23.4135C94.3378 21.732 92.4387 20.428 92.4387 17.499C92.4387 14.3773 94.7439 12.1782 98.2729 12.1782C101.149 12.1782 103.131 13.3462 103.864 15.3806L101.393 16.6568C100.633 15.4626 99.7401 14.8933 98.5176 14.8933C96.8074 14.8933 95.7497 15.8699 95.7497 17.3346C95.7497 19.2063 97.2697 19.7768 99.4393 20.7804C102.86 22.355 104.461 23.7389 104.461 26.5348C104.461 30.1437 102.046 32.5317 98.0295 32.5317C94.7169 32.5317 92.5473 30.9572 91.8965 28.1351L94.419 26.9675Z" fill="#3575AA"/>
<path fill-rule="evenodd" clip-rule="evenodd" d="M107.962 32.0158H111.11V12.6135H107.962V32.0158Z" fill="#3575AA"/>
<path fill-rule="evenodd" clip-rule="evenodd" d="M115.64 11.8538L127.96 23.7116C128.748 24.4735 129.427 25.2587 130.078 26.0738V12.6136H132.981V32.7757L120.417 20.7002C119.71 20.0224 119.088 19.2888 118.545 18.5286V32.0159H115.64V11.8538Z" fill="#3575AA"/>
<path fill-rule="evenodd" clip-rule="evenodd" d="M138.843 26.9675C139.304 28.7056 140.606 29.6289 142.588 29.6289C144.486 29.6289 145.654 28.4896 145.654 26.7524C145.654 24.8512 144.215 24.391 142.209 23.4135C138.761 21.732 136.862 20.428 136.862 17.499C136.862 14.3773 139.168 12.1782 142.698 12.1782C145.574 12.1782 147.555 13.3462 148.287 15.3806L145.818 16.6568C145.057 15.4626 144.161 14.8933 142.942 14.8933C141.231 14.8933 140.173 15.8699 140.173 17.3346C140.173 19.2063 141.694 19.7768 143.864 20.7804C147.284 22.355 148.883 23.7389 148.883 26.5348C148.883 30.1437 146.469 32.5317 142.453 32.5317C139.143 32.5317 136.97 30.9572 136.319 28.1351L138.843 26.9675Z" fill="#3575AA"/>
<path fill-rule="evenodd" clip-rule="evenodd" d="M69.9549 43.5771V39.0063H71.2102V50.2728H69.9549V44.7427H64.1878V50.2728H62.9321V39.0063H64.1878V43.5771H69.9549Z" fill="#3575AA"/>
<path fill-rule="evenodd" clip-rule="evenodd" d="M73.54 39.0063H79.3841V40.1719H74.7953V43.5185H79.2473V44.6836H74.7953V49.1065H79.3841V50.2728H73.54V39.0063Z" fill="#3575AA"/>
<path fill-rule="evenodd" clip-rule="evenodd" d="M85.6437 41.3963L83.7151 45.9089H87.524L85.6437 41.3963ZM83.2069 47.0736L81.8475 50.2727H80.4722L85.6724 38.4673L90.737 50.2727H89.3473L88.0183 47.0736H83.2069Z" fill="#3575AA"/>
<path fill-rule="evenodd" clip-rule="evenodd" d="M93.217 49.1065H96.3259V50.2728H91.9629V39.0063H93.217V49.1065Z" fill="#3575AA"/>
<path fill-rule="evenodd" clip-rule="evenodd" d="M99.3622 50.2728H98.1056V40.1719H95.3877V39.0063H102.11V40.1719H99.3622V50.2728Z" fill="#3575AA"/>
<path fill-rule="evenodd" clip-rule="evenodd" d="M110.477 43.5771V39.0063H111.733V50.2728H110.477V44.7427H104.71V50.2728H103.455V39.0063H104.71V43.5771H110.477Z" fill="#3575AA"/>
<path fill-rule="evenodd" clip-rule="evenodd" d="M122.655 41.4709C121.758 40.5452 120.519 39.9759 119.217 39.9759C116.708 39.9759 114.675 42.1586 114.675 44.6377C114.675 47.1187 116.723 49.2994 119.248 49.2994C120.519 49.2994 121.758 48.7011 122.655 47.806V49.3601C121.684 50.0613 120.487 50.4654 119.293 50.4654C116.11 50.4654 113.422 47.8802 113.422 44.6836C113.422 41.4558 116.066 38.812 119.293 38.812C120.548 38.812 121.654 39.171 122.655 39.9177V41.4709Z" fill="#3575AA"/>
<path fill-rule="evenodd" clip-rule="evenodd" d="M128.899 41.3963L126.972 45.9089H130.783L128.899 41.3963ZM126.464 47.0736L125.106 50.2727H123.73L128.93 38.4673L133.994 50.2727H132.605L131.275 47.0736H126.464Z" fill="#3575AA"/>
<path fill-rule="evenodd" clip-rule="evenodd" d="M136.473 44.2209H136.863C138.282 44.2209 139.718 43.9529 139.718 42.2034C139.718 40.3493 138.357 40.1719 136.849 40.1719H136.473V44.2209ZM136.473 50.2728H135.22V39.0063H136.849C138.984 39.0063 140.971 39.5735 140.971 42.1128C140.971 43.8484 139.882 45.0722 138.148 45.2213L141.734 50.2728H140.196L136.788 45.3267H136.473V50.2728Z" fill="#3575AA"/>
<path fill-rule="evenodd" clip-rule="evenodd" d="M143.2 38.9902H149.042V40.1554H144.454V43.502H148.906V44.6679H144.454V49.0899H149.042V50.2559H143.2V38.9902Z" fill="#3575AA"/>
<path fill-rule="evenodd" clip-rule="evenodd" d="M62.9321 56H148.911V55.1968H62.9321V56Z" fill="#3575AA"/>
</svg>
