<svg width="202" height="44" viewBox="0 0 202 44" fill="none" xmlns="http://www.w3.org/2000/svg">
<path d="M164.953 36.9997V7.0957H181.543V36.9997H175.957V12.6817H170.539V36.9997H164.953Z" fill="#1F1F1F"/>
<path d="M142.547 36.9997V7.0957H148.049V24.7357L154.643 7.0957H160.271V36.9997H154.811V19.2757L148.217 36.9997H142.547Z" fill="#1F1F1F"/>
<path d="M127.994 36.9997V12.6817H122.492V7.0957H139.082V12.6817H133.58V36.9997H127.994Z" fill="#1F1F1F"/>
<path d="M90.3203 22.0059C90.3203 13.2699 97.5023 6.08789 106.28 6.08789C115.1 6.08789 122.282 13.2699 122.282 22.0059C122.282 30.8679 115.1 38.0079 106.28 38.0079C97.5023 38.0079 90.3203 30.8679 90.3203 22.0059ZM116.612 22.0059C116.612 16.3779 111.992 11.7579 106.28 11.7579C100.652 11.7579 95.9903 16.3779 95.9903 22.0059C95.9903 27.7179 100.652 32.3799 106.28 32.3799C111.992 32.3799 116.612 27.7179 116.612 22.0059Z" fill="#1F1F1F"/>
<path d="M74.3906 36.9997V7.0957H88.5446V12.6817H80.0606V36.9997H74.3906Z" fill="#1F1F1F"/>
<path d="M39.1172 22.0059C39.1172 13.2699 46.2992 6.08789 55.0772 6.08789C63.8972 6.08789 71.0792 13.2699 71.0792 22.0059C71.0792 30.8679 63.8972 38.0079 55.0772 38.0079C46.2992 38.0079 39.1172 30.8679 39.1172 22.0059ZM65.4092 22.0059C65.4092 16.3779 60.7892 11.7579 55.0772 11.7579C49.4492 11.7579 44.7872 16.3779 44.7872 22.0059C44.7872 27.7179 49.4492 32.3799 55.0772 32.3799C60.7892 32.3799 65.4092 27.7179 65.4092 22.0059Z" fill="#1F1F1F"/>
<path d="M21.4667 7.0957H35.7887V36.9997H30.2867V12.6817H26.9267C26.8847 18.6037 26.7167 23.5597 26.0867 27.3397C25.2467 32.1277 23.7347 35.7817 19.8287 38.0497L16.8047 33.5137C18.8207 32.0857 20.0387 30.5317 20.7107 26.3317C21.4247 22.0897 21.4667 15.7897 21.4667 7.0957Z" fill="#1F1F1F"/>
</svg>
