<svg width="306" height="45" viewBox="0 0 306 45" fill="none" xmlns="http://www.w3.org/2000/svg">
<mask id="mask0_3037_33025" style="mask-type:luminance" maskUnits="userSpaceOnUse" x="0" y="0" width="45" height="45">
<path d="M0 0H45V45H0V0Z" fill="white"/>
</mask>
<g mask="url(#mask0_3037_33025)">
<path d="M22.5 45C34.9264 45 45 34.9264 45 22.5C45 10.0736 34.9264 0 22.5 0C10.0736 0 0 10.0736 0 22.5C0 34.9264 10.0736 45 22.5 45Z" fill="#FF5226"/>
<path d="M26.1396 36.6761V12.5861H23.3136C21.2766 12.5861 19.7316 13.0181 18.6816 13.8836C17.6316 14.7176 17.1066 15.8291 17.1066 17.2196C17.1066 18.2696 17.2911 19.1651 17.6616 19.9061C18.0321 20.6471 18.5736 21.3266 19.2831 21.9446C19.9941 22.5626 20.8896 23.2421 21.9711 23.9831L24.6576 25.7891L16.7826 36.6776H10.8516L18.3576 26.4851L21.8781 29.6351L19.0986 27.8741C17.7009 26.9663 16.3696 25.9602 15.1146 24.8636C14.0016 23.8736 13.1526 22.7936 12.5661 21.6206C11.9796 20.4461 11.6856 19.0721 11.6856 17.4971C11.6856 14.7791 12.6591 12.5861 14.6046 10.9181C16.5816 9.22009 19.4691 8.37109 23.2671 8.37109H31.6521V36.6761H26.1396Z" fill="white"/>
</g>
<path d="M71.3281 45C58.9156 45 48.8281 34.9515 48.8281 22.5405C48.8281 10.128 58.9156 0 71.3281 0C83.7391 0 93.8281 10.128 93.8281 22.5405C93.8281 34.9515 83.7391 45 71.3281 45Z" fill="#FF5226"/>
<path d="M67.851 3.04688L42.75 42.2119H54.2565L68.757 19.6369L68.403 19.4764L64.383 35.6314L72.894 37.1314L81.642 26.1364L81.168 25.9009L78.213 38.3899L96.7575 34.8559L92.9745 28.6249L86.2905 30.1549L87.0795 31.0624L90.192 18.0199L82.941 13.1719L73.446 25.1119L73.9185 25.3489L77.8185 9.70387L67.851 3.04688Z" fill="#FFDD00"/>
<path d="M67.851 3.04688L42.75 42.2119H54.2565L68.757 19.6369L68.403 19.4764L64.383 35.6314L72.894 37.1314L81.642 26.1364L81.168 25.9009L78.213 38.3899L85.668 36.9694L90.192 18.0199L82.941 13.1719L73.446 25.1119L73.9185 25.3489L77.8185 9.70387L67.851 3.04688Z" fill="#FFDD00"/>
<path d="M102.455 36.6737L116.445 8.36869H127.1L129.278 25.6022L140.072 8.36719H150.635V36.6737H140.304V21.4787L130.713 36.6737H120.383L118.392 21.3392L110.793 36.6737H102.455ZM182.369 31.0682C182.369 32.0267 182.385 32.9687 182.415 33.8942C182.447 34.8212 182.508 35.7317 182.601 36.6272H173.01C172.782 36.1824 172.597 35.7174 172.455 35.2382C172.266 34.6039 172.142 33.952 172.085 33.2927C171.096 34.4657 169.845 35.4377 168.332 36.2102C166.85 36.9527 164.733 37.3232 161.985 37.3232C159.206 37.3232 156.981 36.6737 155.313 35.3777C153.677 34.0802 152.859 32.3507 152.859 30.1877C152.859 28.1807 153.429 26.6372 154.572 25.5557C155.747 24.4442 157.568 23.6717 160.04 23.2397C162.51 22.7747 165.675 22.5437 169.536 22.5437H171.945V22.0337C171.945 21.0467 171.528 20.2892 170.694 19.7642C169.86 19.2392 168.3 18.9767 166.016 18.9767C163.761 18.9767 161.661 19.2707 159.714 19.8572C157.8 20.4122 156.24 20.9687 155.036 21.5252V15.3167C156.395 14.8217 158.217 14.3282 160.503 13.8347C162.819 13.3097 165.459 13.0472 168.425 13.0472C171.42 13.0472 173.952 13.3247 176.022 13.8812C178.092 14.4062 179.667 15.3167 180.747 16.6142C181.829 17.8802 182.369 19.6412 182.369 21.8957V31.0682ZM185.519 13.7432H195.11L195.665 17.6792C196.839 16.1357 198.243 15.0092 199.881 14.2982C201.518 13.5872 203.402 13.2332 205.533 13.2332C207.942 13.2332 210.104 13.6652 212.019 14.5292C213.892 15.3584 215.473 16.7306 216.558 18.4682C217.671 20.2277 218.226 22.4522 218.226 25.1387C218.226 27.8252 217.671 30.0647 216.558 31.8557C215.478 33.6167 213.965 34.9457 212.019 35.8397C210.072 36.7367 207.849 37.1837 205.347 37.1837C203.556 37.1951 201.779 36.8647 200.112 36.2102C198.506 35.5322 197.117 34.4657 195.944 33.0152V42.6512H185.519V13.7417V13.7432ZM248.432 25.1387C248.432 22.8527 249.05 20.8142 250.286 19.0232C251.552 17.2322 253.343 15.8282 255.659 14.8082C258.006 13.7582 260.771 13.2332 263.952 13.2332C267.257 13.2332 270.021 13.8032 272.244 14.9462C274.499 16.0892 276.074 17.7107 276.969 19.8107C277.896 21.9107 278.019 24.3977 277.34 27.2702H259.041C259.412 28.5977 260.231 29.6012 261.497 30.2807C262.794 30.9302 264.708 31.2542 267.24 31.2542C269.001 31.2542 270.638 31.0997 272.151 30.7892C273.575 30.4746 274.982 30.0886 276.368 29.6327V35.1452C275.039 35.7632 273.557 36.2567 271.92 36.6272C270.314 36.9977 268.199 37.1837 265.574 37.1837C259.797 37.1837 255.489 36.1187 252.648 33.9872C249.837 31.8257 248.432 28.8767 248.432 25.1387ZM278.22 13.7417H304.674V19.6727H296.427V36.6272H286.004V19.6727H278.22V13.7417ZM220.218 13.7417H230.642V24.1187L240.51 13.7417H249.498L240.324 23.2847L251.397 36.6272H238.796L230.642 26.5277V36.6272H220.218V13.7417ZM263.999 18.4217C262.577 18.4217 261.45 18.8387 260.616 19.6727C259.782 20.4752 259.242 21.5102 258.995 22.7762H268.167C268.137 21.5102 267.797 20.4752 267.149 19.6712C266.499 18.8387 265.449 18.4217 263.999 18.4217ZM207.572 25.1387C207.572 23.2847 207.062 21.8177 206.042 20.7377C205.055 19.6262 203.633 19.0697 201.78 19.0697C200.082 19.0697 198.66 19.5947 197.519 20.6447C196.376 21.6647 195.804 23.1617 195.804 25.1387C195.804 27.1157 196.359 28.6442 197.472 29.7257C198.615 30.7757 200.051 31.3007 201.78 31.3007C203.696 31.3007 205.131 30.7442 206.088 29.6327C207.077 28.5212 207.572 27.0227 207.572 25.1387ZM171.945 26.7587H169.583C167.328 26.7587 165.707 26.9462 164.718 27.3167C163.761 27.6872 163.283 28.3967 163.283 29.4467C163.283 30.3422 163.592 31.0067 164.208 31.4387C164.858 31.8407 165.629 32.0417 166.526 32.0417C167.885 32.0417 168.996 31.7942 169.86 31.3007C170.756 30.7757 171.452 30.1727 171.945 29.4932V26.7587Z" fill="black"/>
</svg>
