<svg width="294" height="46" viewBox="0 0 294 46" fill="none" xmlns="http://www.w3.org/2000/svg">
<path d="M123.95 13.2423C120.599 13.2423 117.6 14.261 115.072 15.9387V0.299601H107.957V29.1212C107.957 37.8695 115.13 44.9401 123.892 44.9401C132.653 44.9401 139.944 37.9294 139.944 29.0613C139.944 20.1931 132.888 13.2423 123.95 13.2423ZM87.1416 13.7217C79.2624 14.5007 72.7944 21.2716 72.7944 29.3609C72.7944 37.8695 80.1444 45.0599 88.7292 45.0599C97.314 45.0599 104.664 37.9294 104.664 29.3609C104.664 25.7057 103.37 22.4101 101.195 19.7736L85.4952 0.359521H76.3224L87.1416 13.7217ZM32.2812 31.1585L25.7544 14.3808H20.7564L14.2884 31.1585L7.7616 14.3808H0L11.4072 43.9814H16.4052L23.2848 26.3648L30.1644 43.9814H35.1624L46.5108 14.3808H38.808L32.2812 31.1585ZM159.23 13.3023C150.352 13.3023 143.178 20.1332 143.178 28.8216C143.178 37.4501 149.47 45.0599 158.819 45.0599C164.405 45.0599 168.932 42.3635 172.166 37.8096L166.639 33.3156C165.052 36.1917 161.935 37.8695 158.878 37.8695C154.879 37.8695 150.94 35.0533 150.646 30.9188H173.872V28.7617C173.813 19.6538 167.756 13.3023 159.23 13.3023ZM249.782 13.3023C240.904 13.3023 233.789 20.1332 233.789 29.1811C233.789 37.6897 240.08 45 249.371 45C254.957 45 259.484 42.3036 262.718 37.7497L257.838 33.6152C256.133 36.2517 253.016 37.8096 249.253 37.8096C245.549 37.8096 241.492 34.9933 241.198 30.8589H264.306V28.4021C264.306 19.6538 258.308 13.3023 249.782 13.3023ZM274.596 23.0093C274.596 21.1518 277.124 19.7137 280.417 19.7137C283.71 19.7137 287.356 21.3316 289.708 23.968L294 18.755C289.884 15.1598 285.768 13.3023 280.594 13.3023C274.126 13.3023 267.481 16.2384 267.481 23.0093C267.481 31.3382 274.714 31.9374 280.594 32.4168C283.886 32.6565 286.826 32.8961 286.826 35.0533C286.826 37.3901 283.475 38.4687 280.594 38.4687C276.83 38.4687 273.244 36.731 270.833 33.7949L266.246 38.6485C269.892 43.0826 275.184 45 280.358 45C286.826 45 293.941 41.9441 293.941 34.9334C293.941 27.024 286.65 26.245 281.064 25.7057C277.477 25.2863 274.596 24.9867 274.596 23.0093ZM184.573 21.0919V14.3808H177.458V43.9214H184.573V31.3981C185.514 24.4474 191.1 21.6312 197.568 21.6312V14.3808H196.862C191.394 14.3808 187.396 16.3582 184.573 21.0919ZM207.094 21.0919V14.3808H199.979V43.9214H207.094V31.3981C208.034 23.5486 214.855 21.6312 220.088 21.6312V14.3808H219.324C213.914 14.3808 209.916 16.2983 207.094 21.0919ZM62.0928 43.9214H69.2076V0.359521H62.0928V43.9214ZM88.7292 37.9294C83.8488 37.9294 79.8504 34.0346 79.8504 29.1811C79.8504 24.3276 83.79 20.3728 88.6704 20.3728C93.492 20.3728 97.608 24.2676 97.608 29.1811C97.608 34.0945 93.6684 37.9294 88.7292 37.9294ZM123.95 37.9294C119.129 37.9294 115.072 34.0945 115.072 29.1212C115.072 24.1478 118.894 20.3728 123.95 20.3728C129.007 20.3728 132.888 24.2676 132.888 29.1212C132.888 33.9747 128.831 37.9294 123.95 37.9294ZM49.8036 43.9214H56.9184V14.3808H49.8036V43.9214ZM223.087 43.9214H230.202V14.3808H223.087V43.9214ZM53.2728 0C50.3916 0 47.9808 2.3968 47.9808 5.39281C47.9808 8.44874 50.5092 10.5459 53.2728 10.5459C56.3304 10.5459 58.6824 7.96937 58.6824 5.27297C58.6824 2.51664 56.2128 0 53.2728 0ZM226.615 0C223.734 0 221.264 2.3968 221.264 5.39281C221.264 8.38882 223.616 10.5459 226.733 10.5459C229.849 10.5459 231.966 8.44874 231.966 5.51265C231.966 2.57656 229.555 0 226.615 0ZM242.021 24.9867C243.197 22.0506 245.725 20.3728 249.43 20.3728C253.134 20.3728 255.427 22.1704 256.368 24.9867H242.021ZM151.41 24.9867C152.586 22.0506 155.114 20.3728 158.76 20.3728C162.464 20.3728 164.875 22.1704 165.816 24.9867C165.875 24.9867 151.41 24.9867 151.41 24.9867Z" fill="#E313BF"/>
</svg>
