<svg width="162" height="54" viewBox="0 0 162 54" fill="none" xmlns="http://www.w3.org/2000/svg">
<mask id="mask0_3041_23775" style="mask-type:luminance" maskUnits="userSpaceOnUse" x="33" y="2" width="97" height="52">
<path d="M129.2 2H33V54H129.2V2Z" fill="white"/>
</mask>
<g mask="url(#mask0_3041_23775)">
<mask id="mask1_3041_23775" style="mask-type:luminance" maskUnits="userSpaceOnUse" x="33" y="2" width="97" height="52">
<path d="M129.2 2H33V53.9604H129.2V2Z" fill="white"/>
</mask>
<g mask="url(#mask1_3041_23775)">
<path d="M37.0312 13.5003L40.0791 2.18945H45.1273C46.5878 2.18945 47.6355 2.53797 48.2705 3.26668C48.9372 3.99539 49.0959 4.94589 48.7784 6.11819C48.4292 7.38551 47.6989 8.36767 46.5878 9.06471C45.4765 9.76175 44.1748 10.1103 42.7461 10.1103H40.6824L39.7617 13.5003H37.0312ZM41.2539 7.92411H43.4128C44.0795 7.92411 44.6511 7.76567 45.1273 7.44883C45.6035 7.13203 45.8893 6.72011 46.048 6.18151C46.2068 5.6429 46.1115 5.19934 45.794 4.9142C45.4765 4.62905 45.0003 4.47063 44.3018 4.47063H42.2064L41.2539 7.92411Z" fill="#00833E"/>
<path d="M59.5126 12.0119C57.9568 13.1525 56.2424 13.7228 54.3692 13.7228C52.496 13.7228 51.099 13.1525 50.1465 12.0119C49.2258 10.8713 48.9718 9.50892 49.4163 7.8614C49.8608 6.24556 50.845 4.85148 52.4007 3.71089C53.9564 2.57029 55.6709 2 57.5441 2C59.4173 2 60.8143 2.57029 61.7667 3.71089C62.6875 4.85148 62.9414 6.21388 62.497 7.8614C62.0525 9.47724 61.0683 10.8713 59.5126 12.0119ZM52.623 10.396C53.131 11.0931 53.9247 11.4416 55.0359 11.4416C56.1154 11.4416 57.0996 11.0931 57.9568 10.4277C58.8458 9.73068 59.4173 8.90692 59.6713 7.89308C59.9253 6.91088 59.7983 6.05544 59.2903 5.35842C58.7823 4.66139 57.9568 4.31287 56.8774 4.31287C55.7979 4.31287 54.8137 4.66139 53.9564 5.32673C53.0675 6.02376 52.496 6.84752 52.242 7.8614C51.9562 8.84356 52.0832 9.699 52.623 10.396Z" fill="#00833E"/>
<path d="M62.5938 13.5003L65.6416 2.18945H68.1498L72.0549 9.15975L73.9281 2.18945H76.5949L73.5473 13.5003H71.2295L67.1973 6.30827L65.2606 13.5003H62.5938Z" fill="#00833E"/>
<path d="M79.5108 13.5003L80.7173 9.03299L77.8281 2.18945H81.0027L82.7175 6.72015L86.9399 2.18945H90.0195L83.4474 9.00135L82.2409 13.5003H79.5108Z" fill="#00833E"/>
<path d="M33 28.5824L36.0479 17.2715H45.3504L44.7472 19.4893H38.1116L37.5084 21.7705H43.3185L42.7152 23.9884H36.9051L36.2702 26.3646H42.9692L42.366 28.5824H33Z" fill="#00833E"/>
<path d="M43.3516 28.5824L49.1934 22.816L46.5582 17.2715H49.7331L51.3206 20.9468L54.9083 17.2715H57.9879L52.3683 22.7844L55.0987 28.5824H51.9238L50.2094 24.717L46.3995 28.5824H43.3516Z" fill="#00833E"/>
<path d="M56.625 28.5824L59.6729 17.2715H64.721C66.1816 17.2715 67.2292 17.62 67.896 18.3488C68.5627 19.0775 68.7215 20.028 68.404 21.2002C68.0547 22.4676 67.3245 23.4497 66.2133 24.1468C65.1021 24.8438 63.8003 25.1923 62.3716 25.1923H60.3079L59.3872 28.5824H56.625ZM60.8477 22.9744H63.0066C63.6733 22.9744 64.2448 22.816 64.721 22.4992C65.1973 22.1824 65.4831 21.7705 65.6418 21.2319C65.8006 20.6933 65.7053 20.2497 65.3878 19.9646C65.0703 19.6794 64.594 19.521 63.8956 19.521H61.8001L60.8477 22.9744Z" fill="#00833E"/>
<path d="M67.8594 28.5824L70.9073 17.2715H76.5269C78.0825 17.2715 79.194 17.6517 79.7969 18.4121C80.3368 19.0458 80.4322 19.9329 80.1464 21.0418C79.6702 22.7844 78.4954 23.9566 76.5585 24.5586L78.4954 28.5824H75.3204L73.606 24.9705H71.5105L70.5263 28.5824H67.8594ZM72.1138 22.7844H74.8758C75.5428 22.7844 76.0824 22.626 76.5269 22.3408C76.9714 22.0556 77.2572 21.6438 77.3843 21.1686C77.5113 20.6299 77.4476 20.2497 77.1301 19.9646C76.8127 19.6794 76.3365 19.5527 75.6695 19.5527H72.971L72.1138 22.7844Z" fill="#00833E"/>
<path d="M80.0859 28.5824L83.1339 17.2715H92.4364L91.8332 19.4893H85.2294L84.6262 21.7705H90.4363L89.833 23.9884H84.0229L83.388 26.3646H90.0871L89.4839 28.5824H80.0859Z" fill="#00833E"/>
<path d="M95.6994 28.7403C93.6672 28.7403 92.1115 28.1383 90.9688 26.9344L93.0322 25.1601C93.9846 26.0789 95.0961 26.5225 96.3343 26.5225C96.8738 26.5225 97.35 26.4275 97.7312 26.2374C98.112 26.0473 98.3345 25.7621 98.4299 25.4136C98.5249 25.0968 98.4299 24.8433 98.1441 24.6215C97.8583 24.4314 97.255 24.2097 96.3343 23.9562C95.6673 23.7978 95.1595 23.6393 94.7466 23.4809C94.3658 23.3225 93.9846 23.1324 93.6672 22.8473C93.3497 22.5938 93.1276 22.277 93.0639 21.8651C93.0006 21.4849 93.0322 21.0097 93.1593 20.4393C93.4451 19.4255 94.0484 18.6017 95.0324 17.9681C96.0168 17.3344 97.128 17.0176 98.3978 17.0176C100.144 17.0176 101.541 17.4928 102.589 18.4433L100.684 20.3126C99.7314 19.5839 98.7473 19.2037 97.7945 19.2037C97.2867 19.2037 96.8738 19.2987 96.5564 19.4889C96.2389 19.6789 96.0168 19.9324 95.9531 20.2176C95.8581 20.5978 95.9531 20.8512 96.2389 21.0413C96.5247 21.2314 97.1913 21.4532 98.2074 21.7067C99.4456 22.0235 100.335 22.4354 100.842 22.9423C101.351 23.4493 101.477 24.178 101.224 25.1285C100.938 26.2374 100.271 27.0928 99.2868 27.6948C98.2391 28.4552 97.0646 28.7403 95.6994 28.7403Z" fill="#00833E"/>
<path d="M106.278 28.7403C104.246 28.7403 102.69 28.1383 101.547 26.9344L103.61 25.1601C104.563 26.0789 105.674 26.5225 106.912 26.5225C107.452 26.5225 107.929 26.4275 108.309 26.2374C108.691 26.0473 108.913 25.7621 109.008 25.4136C109.103 25.0968 109.008 24.8433 108.722 24.6215C108.436 24.4314 107.833 24.2097 106.912 23.9562C106.246 23.7978 105.738 23.6393 105.325 23.4809C104.944 23.3225 104.563 23.1324 104.246 22.8473C103.928 22.5938 103.706 22.277 103.642 21.8651C103.579 21.4849 103.61 21.0097 103.737 20.4393C104.023 19.4255 104.626 18.6017 105.611 17.9681C106.595 17.3344 107.706 17.0176 108.976 17.0176C110.722 17.0176 112.119 17.4928 113.167 18.4433L111.262 20.3126C110.309 19.5839 109.325 19.2037 108.373 19.2037C107.865 19.2037 107.452 19.2987 107.134 19.4889C106.817 19.6789 106.595 19.9324 106.532 20.2176C106.436 20.5978 106.532 20.8512 106.817 21.0413C107.103 21.2314 107.77 21.4532 108.786 21.7067C110.024 22.0235 110.913 22.4354 111.421 22.9423C111.929 23.4493 112.056 24.178 111.802 25.1285C111.516 26.2374 110.849 27.0928 109.865 27.6948C108.818 28.4552 107.643 28.7403 106.278 28.7403Z" fill="#00833E"/>
<path d="M90.056 36.4395L88.5 42.2375H115.011L107.518 49.7147L111.614 53.8019L128.981 36.4395H90.056Z" fill="#76BC21"/>
</g>
</g>
</svg>
