<svg width="203" height="45" viewBox="0 0 203 45" fill="none" xmlns="http://www.w3.org/2000/svg">
<path fill-rule="evenodd" clip-rule="evenodd" d="M25.2855 0.621039C20.7443 0.14502 16.1663 1.08033 12.1809 3.29841C8.19555 5.51649 4.99835 8.90846 3.02881 13.0081C1.05928 17.1077 0.414084 21.7137 1.18192 26.193C1.94975 30.6723 4.09292 34.805 7.31684 38.0231C10.5408 41.2411 14.6872 43.3866 19.1861 44.1645C23.6851 44.9424 28.3158 44.3146 32.4416 42.3674C36.5675 40.4202 39.986 37.2492 42.2274 33.2902C44.4687 29.3312 45.4227 24.7786 44.9584 20.2582C44.4475 15.2334 42.2122 10.5373 38.629 6.96057C35.0458 3.38386 30.3334 1.14502 25.2855 0.621039ZM24.5693 34.1342C22.1269 34.4602 19.6432 34.0165 17.4673 32.8654C15.2914 31.7143 13.5326 29.9136 12.4383 27.7164C11.3439 25.5193 10.9689 23.0361 11.366 20.6159C11.763 18.1957 12.9122 15.9602 14.652 14.2235C16.3918 12.4868 18.6348 11.3363 21.0656 10.9336C23.4964 10.5309 25.993 10.8963 28.2044 11.9784C30.4158 13.0605 32.2308 14.805 33.3944 16.9666C34.558 19.1283 35.0117 21.5984 34.6917 24.0299C34.3558 26.5873 33.1821 28.9633 31.3522 30.79C29.5223 32.6166 27.1383 33.792 24.5693 34.1342ZM56.7804 1.49117C56.0138 1.493 55.2572 1.66487 54.5658 1.99428C53.8743 2.32369 53.2654 2.80235 52.7832 3.39543C52.3011 3.98851 51.9579 4.6811 51.7786 5.42279C51.5993 6.16448 51.5884 6.93662 51.7467 7.68302C52.2317 10.1011 54.5015 11.7533 56.974 11.7533H71.3228L48.9928 41.1592C48.8277 41.3763 48.7266 41.6349 48.7008 41.9059C48.6751 42.177 48.7257 42.4499 48.847 42.6939C48.9684 42.9379 49.1556 43.1435 49.3878 43.2876C49.62 43.4317 49.8879 43.5085 50.1615 43.5096H85.1882C87.6591 43.5096 89.9305 41.8578 90.4155 39.4393C90.5739 38.693 90.5631 37.921 90.3839 37.1794C90.2048 36.4378 89.8618 35.7452 89.3799 35.1521C88.898 34.559 88.2893 34.0802 87.598 33.7506C86.9068 33.421 86.1505 33.2488 85.384 33.2466H67.9011L90.2139 3.86358C90.3807 3.64438 90.4828 3.38328 90.5087 3.10957C90.5347 2.83585 90.4835 2.56036 90.3608 2.31399C90.2382 2.06762 90.049 1.86013 89.8145 1.71479C89.58 1.56945 89.3094 1.49201 89.0331 1.49117H56.7804ZM196.745 1.60954C195.585 1.88394 194.554 2.54393 193.823 3.48041C193.091 4.41688 192.703 5.57374 192.722 6.75972V23.8459L164.899 1.81389C164.681 1.64154 164.419 1.53399 164.142 1.5036C163.865 1.47322 163.585 1.52123 163.334 1.64212C163.084 1.763 162.872 1.95185 162.725 2.18695C162.577 2.42204 162.499 2.69382 162.5 2.97102V38.2502C162.481 39.4362 162.869 40.5931 163.601 41.5296C164.333 42.4661 165.363 43.126 166.523 43.4004C167.276 43.5652 168.057 43.5598 168.807 43.3844C169.558 43.209 170.259 42.8682 170.86 42.3871C171.461 41.9059 171.945 41.2968 172.277 40.6045C172.61 39.9122 172.782 39.1545 172.781 38.3872V21.1532L200.604 43.1856C200.822 43.3579 201.084 43.4654 201.361 43.4957C201.638 43.5261 201.918 43.4781 202.168 43.3572C202.419 43.2364 202.63 43.0476 202.777 42.8126C202.925 42.5777 203.003 42.306 203.002 42.0289V6.621C203.003 5.85393 202.831 5.09645 202.498 4.40442C202.166 3.71239 201.681 3.10345 201.081 2.6225C200.48 2.14156 199.779 1.80087 199.029 1.62555C198.278 1.45023 197.498 1.44476 196.745 1.60954ZM124.303 10.7711C136.071 10.7711 144.864 16.9596 144.864 22.4952C144.864 28.0308 136.071 34.2193 124.303 34.2193C112.535 34.2193 103.742 28.0308 103.742 22.4952C103.742 16.9596 112.535 10.7711 124.303 10.7711ZM124.303 0.509313C107.269 0.509313 93.4611 10.3528 93.4611 22.4952C93.4611 34.6376 107.269 44.4811 124.303 44.4811C141.337 44.4811 155.145 34.6376 155.145 22.4952C155.145 10.3528 141.337 0.509313 124.303 0.509313Z" fill="#0069FF"/>
</svg>
