<svg width="59" height="17" viewBox="0 0 59 17" fill="none" xmlns="http://www.w3.org/2000/svg">
<g clip-path="url(#clip0_2006_7507)">
<path fill-rule="evenodd" clip-rule="evenodd" d="M5.62058 0.233705C6.1405 0.230872 7.68184 0.0920385 8.33492 2.28221C8.7755 3.75554 9.47675 6.17095 10.4387 9.52704H10.8297C11.5316 7.11023 12.24 4.69528 12.9547 2.28221C13.6177 0.0693718 15.2667 0.233705 15.9268 0.233705H21.0198V15.9615H15.8291V6.6937H15.482L12.5878 15.9615H8.682L5.78775 6.68662H5.44067V15.9615H0.25V0.233705H5.62058ZM28.4714 0.233705V9.51004H28.8851L32.4055 1.88271C33.0883 0.364039 34.5447 0.233705 34.5447 0.233705H39.5668V15.9615H34.2684V6.68662H33.8533L30.4038 14.314C29.7209 15.8241 28.1952 15.9615 28.1952 15.9615H23.1731V0.233705H28.4714ZM57.8814 7.70804C57.1419 9.7877 54.8214 11.278 52.2516 11.278H46.6954V15.9615H41.6563V7.70804H57.8814ZM52.4938 0.233705H41.3914C41.6563 3.73571 44.6923 6.73337 47.8373 6.73337H58.2314C58.832 3.82212 56.7665 0.233705 52.4938 0.233705Z" fill="#E5E3D6"/>
</g>
<defs>
<clipPath id="clip0_2006_7507">
<rect width="58.0833" height="17" fill="white" transform="translate(0.25)"/>
</clipPath>
</defs>
</svg>
