<svg width="162" height="54" viewBox="0 0 162 54" fill="none" xmlns="http://www.w3.org/2000/svg">
<g clip-path="url(#clip0_3041_17694)">
<mask id="mask0_3041_17694" style="mask-type:luminance" maskUnits="userSpaceOnUse" x="29" y="0" width="100" height="43">
<path d="M129 0H29V43H129V0Z" fill="white"/>
</mask>
<g mask="url(#mask0_3041_17694)">
<mask id="mask1_3041_17694" style="mask-type:luminance" maskUnits="userSpaceOnUse" x="29" y="0" width="100" height="43">
<path d="M129 0H29V42.9403H129V0Z" fill="white"/>
</mask>
<g mask="url(#mask1_3041_17694)">
<path d="M94.3323 31.5959C92.4752 32.079 90.0644 32.3116 87.9752 32.3116C82.6181 32.3116 79.0469 29.4489 79.0469 24.2066C79.0469 19.2506 82.3502 16.0301 87.2073 16.0301C88.279 16.0301 89.4394 16.1732 90.136 16.531V9.30273H94.3323V31.578V31.5959ZM90.136 20.2346C89.3256 19.8822 88.4477 19.7112 87.5644 19.7337C85.011 19.7337 83.2969 21.3081 83.2969 24.0814C83.2969 27.0514 85.154 28.7333 88.1181 28.7333C88.654 28.7333 89.4394 28.6796 90.136 28.5543V20.2168V20.2346ZM128.672 31.5959C126.814 32.079 124.422 32.3116 122.314 32.3116C116.957 32.3116 113.386 29.4489 113.386 24.2066C113.386 19.2506 116.707 16.0301 121.547 16.0301C122.636 16.0301 123.779 16.1732 124.493 16.531V9.30273H128.672V31.578V31.5959ZM124.493 20.2346C123.677 19.8796 122.793 19.7086 121.904 19.7337C119.35 19.7337 117.654 21.3081 117.654 24.0814C117.654 27.0514 119.493 28.7333 122.475 28.7333C122.993 28.7333 123.797 28.6796 124.493 28.5543V20.2168V20.2346ZM100.922 20.1989C101.6 19.9126 102.582 19.8052 103.422 19.8052C105.993 19.8052 107.779 21.3081 107.779 24.0098C107.779 27.1767 105.814 28.608 103.172 28.6617V32.3116H103.386C108.797 32.3116 112.029 29.27 112.029 23.8667C112.029 18.9285 108.582 16.0301 103.493 16.0301C100.904 16.0301 98.3681 16.6384 96.6894 17.3362V38.2696H100.904V20.1989H100.922Z" fill="#3C3C3B"/>
<path d="M56.317 19.1614C56.2236 19.2115 56.1193 19.2377 56.0134 19.2377C55.9075 19.2377 55.8032 19.2115 55.7098 19.1614L54.7277 18.553C54.6406 18.4991 54.5672 18.4256 54.5134 18.3383V18.3204C54.4503 18.2242 54.4134 18.1132 54.4062 17.9984L54.3705 16.8354C54.3723 16.7276 54.401 16.622 54.454 16.5283C54.507 16.4345 54.5827 16.3555 54.6741 16.2986L66.6384 9.32087L49.8527 0.160238C49.6412 0.0573592 49.4092 0.00390625 49.1741 0.00390625C48.939 0.00390625 48.707 0.0573592 48.4955 0.160238L31.7098 9.30296L50.5134 20.2706C50.6048 20.3275 50.6805 20.4065 50.7335 20.5002C50.7865 20.594 50.8152 20.6996 50.817 20.8074V36.8027C50.8152 36.9105 50.7865 37.0161 50.7335 37.1098C50.6805 37.2036 50.6048 37.2826 50.5134 37.3394L49.4955 37.8762C49.4031 37.9302 49.2989 37.9609 49.192 37.9656H49.1741C49.0627 37.9693 48.9521 37.9447 48.8527 37.8941L47.8348 37.3215C47.7401 37.2668 47.6609 37.1888 47.6047 37.0949C47.5484 37.001 47.517 36.8943 47.5134 36.7848V22.5429C47.5067 22.4849 47.4872 22.4291 47.4563 22.3796C47.4254 22.3301 47.3839 22.2881 47.3348 22.2566L30.7812 12.613V31.5425C30.7812 31.954 31.0848 32.4908 31.442 32.7054L48.5134 42.7784C48.7182 42.8823 48.9446 42.9362 49.1741 42.9362C49.4037 42.9362 49.63 42.8823 49.8348 42.7784L66.9062 32.7054C67.2634 32.4729 67.567 31.954 67.567 31.5425V12.613L56.317 19.1614Z" fill="url(#paint0_linear_3041_17694)"/>
</g>
</g>
</g>
<defs>
<linearGradient id="paint0_linear_3041_17694" x1="30.9598" y1="36.4449" x2="49.6147" y2="20.8251" gradientUnits="userSpaceOnUse">
<stop stop-color="#BE0737"/>
<stop offset="0.04" stop-color="#C00736"/>
<stop offset="0.63" stop-color="#D8062C"/>
<stop offset="1" stop-color="#E10528"/>
</linearGradient>
<clipPath id="clip0_3041_17694">
<rect width="100" height="43" fill="white" transform="translate(29)"/>
</clipPath>
</defs>
</svg>
