<svg width="84" height="44" viewBox="0 0 84 44" fill="none" xmlns="http://www.w3.org/2000/svg">
<path d="M65.2072 15.1333V22.9568H62.3581V17.4688H59.6147V22.9568H56.7656V15.1328H65.2072V15.1333Z" fill="#081D25"/>
<path fill-rule="evenodd" clip-rule="evenodd" d="M50.9114 23.2373C53.4619 23.2373 55.3558 21.704 55.3558 19.3795C55.3558 17.1296 53.9585 15.6688 51.6231 15.6688C50.5453 15.6688 49.656 16.0408 48.9861 16.6827C49.146 15.356 50.2902 14.3875 51.5499 14.3875C51.8407 14.3875 54.0295 14.3829 54.0295 14.3829L55.2672 12.0605C55.2672 12.0605 52.5192 12.1219 51.2418 12.1219C48.323 12.1717 46.3516 14.7731 46.3516 17.9325C46.3516 21.6133 48.2744 23.2373 50.9114 23.2373ZM50.9269 17.7259C51.8738 17.7259 52.5304 18.336 52.5304 19.3792C52.5304 20.3181 51.947 21.0917 50.9269 21.0939C49.951 21.0939 49.2945 20.3771 49.2945 19.3952C49.2945 18.3517 49.951 17.7259 50.9269 17.7259Z" fill="#081D25"/>
<path d="M44.029 20.3394C44.029 20.3394 43.3562 20.7197 42.3512 20.7917C41.1959 20.8253 40.1665 20.1098 40.1665 18.8386C40.1665 17.5986 41.0749 16.888 42.3221 16.888C43.0869 16.888 44.0986 17.4077 44.0986 17.4077C44.0986 17.4077 44.8389 16.0757 45.2224 15.4096C44.5202 14.8877 43.5849 14.6016 42.497 14.6016C39.7515 14.6016 37.625 16.3568 37.625 18.8229C37.625 21.3205 39.6237 23.0349 42.497 22.9832C43.3001 22.9538 44.4081 22.6773 45.0834 22.252L44.029 20.3394Z" fill="#081D25"/>
<path d="M9 12.9648L12.9522 19.8915V24.1166L9.00462 31.0296L9 12.9648Z" fill="#5B57A2"/>
<path d="M24.1719 17.3712L27.8752 15.1456L35.4544 15.1387L24.1719 21.9157V17.3712Z" fill="#D90751"/>
<path d="M24.1593 12.9245L24.1802 22.0952L20.2188 19.7085V6L24.1593 12.9245Z" fill="#FAB718"/>
<path d="M35.4627 15.1389L27.8833 15.1459L24.1593 12.9245L20.2188 6L35.4627 15.1389Z" fill="#ED6F26"/>
<path d="M24.1802 31.068V26.6187L20.2188 24.2773L20.2209 37.9995L24.1802 31.068Z" fill="#63B22F"/>
<path d="M27.869 28.8627L12.9519 19.8915L9 12.9648L35.4414 28.8536L27.869 28.8627Z" fill="#1487C9"/>
<path d="M20.2188 37.9994L24.1775 31.0679L27.8716 28.8626L35.444 28.8535L20.2188 37.9994Z" fill="#017F36"/>
<path d="M9 31.0295L20.2412 24.2775L16.4619 22.0039L12.9476 24.1164L9 31.0295Z" fill="#984995"/>
<path d="M40.1713 28.2232C40.0843 28.332 39.9698 28.4141 39.8325 28.4696C39.6916 28.5258 39.5408 28.5544 39.3886 28.5538C39.2373 28.5558 39.0869 28.5311 38.9445 28.4808C38.8166 28.4352 38.6998 28.3642 38.6013 28.2722C38.504 28.1801 38.4277 28.0689 38.3772 27.9458C38.3225 27.8111 38.2953 27.6671 38.2969 27.5221C38.2969 27.3781 38.3222 27.2448 38.3747 27.1184C38.425 26.9917 38.4982 26.8832 38.5899 26.792C38.6815 26.6989 38.7914 26.628 38.9149 26.5725C39.0408 26.5192 39.1781 26.4904 39.3291 26.4904C39.4917 26.4904 39.6426 26.5104 39.78 26.5501C39.9173 26.5901 40.034 26.6568 40.13 26.7501L39.963 27.0274C39.8823 26.9557 39.7871 26.9012 39.6837 26.8674C39.5854 26.8364 39.4827 26.8207 39.3794 26.821C39.288 26.821 39.201 26.8386 39.1164 26.872C39.033 26.9049 38.9569 26.9531 38.892 27.0141C38.8257 27.0768 38.7735 27.1524 38.7386 27.236C38.6997 27.3224 38.6815 27.4178 38.6815 27.5242C38.6815 27.633 38.7019 27.7306 38.7408 27.8149C38.78 27.9016 38.8324 27.9749 38.8988 28.0368C38.9652 28.0992 39.043 28.1456 39.1322 28.1768C39.2216 28.2101 39.3155 28.2256 39.4161 28.2256C39.5396 28.2256 39.6519 28.201 39.7479 28.1544C39.843 28.1093 39.9285 28.0469 39.9997 27.9704L40.1713 28.2232ZM40.6427 28.5072V26.5325H41.0044V28.0037L42.1806 26.5325H42.5423V28.5074H42.1806V27.0362L41.0044 28.5074L40.6427 28.5072ZM44.9384 28.2232C44.8494 28.3329 44.7326 28.4178 44.5998 28.4696C44.4588 28.5258 44.3079 28.5544 44.1556 28.5538C44.0044 28.5558 43.8541 28.5311 43.7118 28.4808C43.5839 28.4352 43.4669 28.3642 43.3683 28.2722C43.271 28.1801 43.1947 28.0689 43.1442 27.9458C43.0896 27.8111 43.0623 27.6671 43.064 27.5221C43.064 27.3781 43.0893 27.2448 43.1418 27.1184C43.1923 26.9917 43.2655 26.8832 43.3569 26.792C43.4485 26.6989 43.5584 26.628 43.6819 26.5725C43.8123 26.5162 43.9536 26.4882 44.0961 26.4904C44.2587 26.4904 44.4097 26.5104 44.547 26.5501C44.6844 26.5901 44.801 26.6568 44.8973 26.7501L44.73 27.0274C44.6494 26.9556 44.5544 26.9011 44.451 26.8674C44.3527 26.8364 44.25 26.8207 44.1467 26.821C43.9649 26.8216 43.7903 26.8907 43.659 27.0141C43.5933 27.0773 43.5412 27.1527 43.5056 27.236C43.4668 27.3224 43.4485 27.4178 43.4485 27.5242C43.4485 27.633 43.4692 27.7306 43.5081 27.8149C43.547 27.9016 43.5995 27.9749 43.6658 28.0368C43.7322 28.0992 43.8103 28.1456 43.8995 28.1768C43.9887 28.2077 44.0825 28.2256 44.1831 28.2256C44.3069 28.2256 44.4167 28.201 44.5149 28.1544C44.61 28.1093 44.6955 28.0469 44.7668 27.9704L44.9384 28.2232ZM45.1238 26.5325H46.9797V26.8832H46.2337V28.5072H45.872V26.8832H45.126V26.5325H45.1238Z" fill="#081D25"/>
<path fill-rule="evenodd" clip-rule="evenodd" d="M48.6732 28.4875C48.8105 28.4454 48.9272 28.3808 49.0278 28.2923L48.918 28.0171C48.8516 28.075 48.7624 28.1238 48.655 28.1638C48.5473 28.2038 48.426 28.2235 48.2933 28.2235C48.0942 28.2235 47.9294 28.1726 47.7988 28.0683C47.6685 27.9638 47.5976 27.8176 47.5815 27.631H49.147C49.163 27.5622 49.1698 27.4846 49.1698 27.3936C49.1698 27.2582 49.1445 27.1363 49.0942 27.0254C49.0474 26.9176 48.9789 26.8202 48.8929 26.739C48.8058 26.6584 48.703 26.5959 48.5908 26.555C48.4733 26.5103 48.3483 26.4876 48.2223 26.4883C48.0528 26.4883 47.9041 26.5171 47.7738 26.5704C47.6506 26.6212 47.5392 26.696 47.4463 26.7902C47.3562 26.8838 47.2869 26.9949 47.2429 27.1163C47.1946 27.2456 47.1705 27.3824 47.1719 27.52C47.1719 27.6755 47.1994 27.8174 47.2497 27.944C47.2987 28.0667 47.3736 28.1779 47.4695 28.2702C47.5633 28.3608 47.6775 28.4299 47.8127 28.4787C47.9574 28.529 48.1101 28.5538 48.2636 28.5518C48.4027 28.5509 48.5408 28.5291 48.6732 28.4875ZM47.7578 26.9675C47.8698 26.8678 48.0186 26.819 48.2062 26.819C48.3825 26.819 48.5244 26.8656 48.6275 26.959C48.7306 27.052 48.7852 27.1808 48.7945 27.3448H47.5587C47.5762 27.1996 47.6469 27.0653 47.7578 26.9675Z" fill="#081D25"/>
<path d="M49.6562 26.5332H49.9859L50.7686 27.5119L51.51 26.5332H51.8303V28.5081H51.4689V27.0681L50.764 27.9844H50.7501L50.018 27.0679V28.5079H49.6562V26.5332Z" fill="#081D25"/>
<path fill-rule="evenodd" clip-rule="evenodd" d="M52.8129 26.54C52.7032 26.5681 52.5983 26.6121 52.5018 26.6706L52.5978 26.9506C52.6802 26.9106 52.7626 26.8773 52.845 26.8485C52.9274 26.8194 53.0327 26.8061 53.1586 26.8061C53.2592 26.8061 53.3395 26.8218 53.4012 26.8528C53.4629 26.8816 53.5086 26.9261 53.5407 26.9794C53.5728 27.0328 53.5935 27.0992 53.6049 27.1768C53.6163 27.2544 53.6209 27.3386 53.6209 27.4298C53.5469 27.3793 53.4626 27.3451 53.3737 27.3298C53.2878 27.3131 53.2005 27.3042 53.1129 27.3032C53.0052 27.3032 52.9046 27.3189 52.8083 27.3453C52.7123 27.372 52.6299 27.412 52.5635 27.4653C52.4958 27.5185 52.4411 27.586 52.4034 27.6626C52.363 27.7466 52.3427 27.8384 52.3438 27.9312C52.3438 28.1242 52.4012 28.2752 52.5154 28.3818C52.6299 28.4882 52.7808 28.5413 52.9685 28.5413C53.1379 28.5413 53.2731 28.5125 53.3759 28.4549C53.479 28.397 53.5614 28.3306 53.6209 28.2552V28.5104H53.9595V27.2989C53.9595 27.0413 53.9024 26.8418 53.7858 26.7018C53.6713 26.5621 53.4676 26.4912 53.1793 26.4912C53.0509 26.4912 52.9296 26.5088 52.8129 26.54ZM53.4175 28.14C53.3351 28.1976 53.2274 28.224 53.0947 28.224C52.978 28.224 52.8864 28.1952 52.8225 28.1397C52.7583 28.0821 52.7262 28.0066 52.7262 27.9133C52.7262 27.8581 52.7376 27.8114 52.7629 27.7693C52.7882 27.7272 52.8225 27.6938 52.8613 27.6672C52.9039 27.6393 52.9511 27.619 53.0009 27.6072C53.0536 27.5938 53.1061 27.5872 53.1611 27.5872C53.3397 27.5872 53.4929 27.6293 53.6188 27.7181V27.9688C53.5594 28.034 53.4918 28.0917 53.4175 28.14ZM57.1524 25.8386C57.2256 25.8056 57.2941 25.7501 57.3583 25.668L57.1614 25.3906C57.1111 25.4573 57.054 25.5037 56.9898 25.5282C56.9218 25.5543 56.8513 25.5736 56.7793 25.5858L56.7108 25.5978C56.6512 25.608 56.5873 25.6192 56.5185 25.6304C56.4081 25.6504 56.3006 25.6831 56.1981 25.728C56.0355 25.7968 55.9052 25.8898 55.8067 26.0074C55.7083 26.125 55.6305 26.2581 55.5777 26.4048C55.5243 26.5533 55.4883 26.7074 55.4703 26.864C55.4518 27.024 55.4429 27.1768 55.4429 27.3232C55.4429 27.512 55.4679 27.6826 55.5182 27.8357C55.5688 27.989 55.6395 28.1176 55.7333 28.2218C55.8271 28.3285 55.9395 28.4085 56.0722 28.4661C56.2049 28.5237 56.3537 28.5525 56.5207 28.5525C56.674 28.5525 56.816 28.5237 56.9441 28.4704C57.0676 28.4191 57.1796 28.3445 57.2737 28.2509C57.3651 28.1597 57.4385 28.0509 57.4889 27.929C57.5413 27.8069 57.5666 27.676 57.5666 27.5384C57.5666 27.3898 57.5438 27.2546 57.5003 27.1346C57.4602 27.0202 57.3963 26.9152 57.3126 26.8264C57.2288 26.739 57.1264 26.6707 57.0126 26.6264C56.8874 26.578 56.7537 26.5539 56.6191 26.5554C56.5321 26.5554 56.4475 26.5666 56.3651 26.5888C56.2849 26.6109 56.208 26.643 56.1361 26.6842C56.0663 26.7234 56.0025 26.7719 55.9463 26.8282C55.8913 26.884 55.8456 26.9461 55.8135 27.017H55.8043C55.8114 26.9261 55.8228 26.833 55.8432 26.7376C55.8639 26.6421 55.8935 26.5509 55.9327 26.4645C55.9716 26.3781 56.0219 26.3002 56.0836 26.2293C56.1498 26.1577 56.231 26.1009 56.3216 26.0629C56.4212 26.0164 56.5266 25.9828 56.6352 25.9632L56.707 25.9504C56.7785 25.9376 56.8467 25.9253 56.912 25.912C56.999 25.8944 57.079 25.8717 57.1524 25.8386ZM55.8799 27.736C55.8445 27.6239 55.8275 27.5071 55.8296 27.3898C55.8449 27.3225 55.8729 27.2586 55.912 27.2013C55.9509 27.1413 56.0012 27.0882 56.0608 27.0413C56.1952 26.938 56.3613 26.8826 56.5321 26.884C56.745 26.884 56.9052 26.9482 57.0173 27.0749C57.1296 27.2034 57.1845 27.3632 57.1845 27.5562C57.1845 27.6517 57.166 27.7384 57.1342 27.8181C57.1033 27.8967 57.0566 27.9685 56.9968 28.0291C56.9371 28.0897 56.8655 28.1379 56.7864 28.1709C56.704 28.2064 56.6145 28.2242 56.5139 28.2242C56.4132 28.2242 56.3216 28.2042 56.237 28.1642C56.1529 28.125 56.0787 28.0682 56.0194 27.9978C55.9574 27.9194 55.9102 27.8307 55.8799 27.736ZM60.3404 26.5333H59.9787V28.5082H60.3404V26.5333ZM58.0883 26.5333H58.45V27.1258H58.7842C58.942 27.1258 59.0701 27.1458 59.1731 27.1834C59.2762 27.2213 59.3586 27.2722 59.4204 27.3344C59.4821 27.3965 59.5256 27.4698 59.5509 27.5517C59.5759 27.6338 59.5898 27.7181 59.5898 27.8069C59.5898 27.8957 59.5759 27.9802 59.5463 28.0645C59.5188 28.1488 59.4707 28.2218 59.4065 28.2885C59.3426 28.3552 59.2555 28.4085 59.1457 28.4485C59.0358 28.4882 58.9031 28.5104 58.7429 28.5104H58.0861V26.5333H58.0883ZM58.45 27.4562V28.1797H58.7132C58.8941 28.1797 59.0222 28.1488 59.0954 28.0864C59.1688 28.0242 59.2052 27.9357 59.2052 27.8181C59.2052 27.6981 59.1663 27.6074 59.0932 27.545C59.0176 27.4829 58.8917 27.4517 58.7179 27.4517H58.45V27.4562Z" fill="#081D25"/>
<path d="M62.7338 28.2232C62.6468 28.332 62.5323 28.4141 62.395 28.4696C62.254 28.5258 62.1033 28.5544 61.9511 28.5538C61.7998 28.5558 61.6494 28.5311 61.507 28.4808C61.3791 28.4353 61.2622 28.3643 61.1638 28.2722C61.0665 28.18 60.9901 28.0688 60.9394 27.9458C60.885 27.811 60.8578 27.6671 60.8594 27.5221C60.8594 27.3781 60.8845 27.2448 60.9372 27.1184C60.9875 26.9917 61.0607 26.8832 61.1524 26.792C61.244 26.6989 61.3536 26.628 61.4774 26.5725C61.6078 26.5162 61.7491 26.4881 61.8916 26.4904C62.0539 26.4904 62.2051 26.5104 62.3425 26.5501C62.4798 26.5901 62.5965 26.6568 62.6925 26.7501L62.5255 27.0274C62.4447 26.9557 62.3496 26.9012 62.2462 26.8674C62.1479 26.8364 62.0452 26.8207 61.9419 26.821C61.8505 26.821 61.7635 26.8386 61.6786 26.872C61.5953 26.9049 61.5193 26.9531 61.4545 27.0141C61.3887 27.0772 61.3365 27.1527 61.3011 27.236C61.2622 27.3224 61.244 27.4178 61.244 27.5242C61.244 27.633 61.2644 27.7306 61.3033 27.8149C61.3422 27.9016 61.3949 27.9749 61.4613 28.0368C61.5277 28.0992 61.6055 28.1456 61.6947 28.1768C61.7841 28.2077 61.878 28.2256 61.9786 28.2256C62.1021 28.2256 62.2119 28.201 62.3104 28.1544C62.4055 28.1093 62.491 28.0469 62.5622 27.9704L62.7338 28.2232ZM62.919 26.5325H64.7752V26.8832H64.0289V28.5072H63.6675V26.8832H62.9215V26.5325H62.919Z" fill="#081D25"/>
<path fill-rule="evenodd" clip-rule="evenodd" d="M65.5336 26.533H65.1719V29.3863H65.5336V28.4167C65.6067 28.4634 65.6938 28.4967 65.7944 28.5188C65.895 28.541 66.0003 28.5519 66.108 28.5519C66.2682 28.5519 66.4123 28.5231 66.5429 28.47C66.6681 28.4175 66.7815 28.3414 66.8768 28.246C66.9707 28.1503 67.0416 28.0394 67.092 27.9084C67.1423 27.7778 67.1676 27.6378 67.1676 27.4892C67.1676 27.3426 67.1447 27.2074 67.1012 27.0852C67.0602 26.9692 66.9965 26.8622 66.9136 26.7703C66.8322 26.6806 66.7312 26.6101 66.6182 26.5639C66.4947 26.5118 66.3613 26.4861 66.2268 26.4884C66.0851 26.4884 65.9524 26.5151 65.8265 26.5684C65.7006 26.6218 65.6021 26.6858 65.5336 26.7658V26.533ZM65.7854 26.8991C65.8885 26.8458 66.0006 26.8191 66.1219 26.8191C66.2271 26.8191 66.3209 26.8346 66.4058 26.8679C66.4882 26.9012 66.5567 26.9479 66.6141 27.01C66.6712 27.0722 66.7147 27.1434 66.7422 27.2274C66.7719 27.3116 66.7857 27.4028 66.7857 27.5026C66.7857 27.6092 66.7672 27.7044 66.7354 27.7932C66.7054 27.8774 66.6578 27.9545 66.5956 28.0196C66.5332 28.0839 66.4575 28.1346 66.3737 28.1682C66.2802 28.2065 66.1797 28.2254 66.0783 28.2236C65.9802 28.2236 65.8885 28.2127 65.8015 28.1906C65.7062 28.1651 65.6158 28.1246 65.5339 28.0706V27.0919C65.5978 27.0167 65.6826 26.9524 65.7854 26.8991ZM69.9414 26.5327H69.5796V28.5076H69.9414V26.5327ZM67.687 26.5327H68.0487V27.1252H68.3827C68.5407 27.1252 68.6688 27.1452 68.7719 27.1828C68.875 27.2207 68.9574 27.2716 69.0191 27.3338C69.0809 27.3959 69.1244 27.4692 69.1494 27.5511C69.1747 27.6332 69.1883 27.7175 69.1883 27.8063C69.1883 27.8951 69.1747 27.9796 69.145 28.0639C69.1176 28.1482 69.0694 28.2212 69.0052 28.2879C68.9413 28.3546 68.8543 28.4079 68.7444 28.4479C68.6346 28.4876 68.5018 28.5098 68.3416 28.5098H67.6848V26.5327H67.687ZM68.0512 27.4556V28.1791H68.3145C68.495 28.1791 68.6234 28.1482 68.6966 28.0858C68.7697 28.0236 68.8064 27.9351 68.8064 27.8175C68.8064 27.6975 68.7675 27.6068 68.6944 27.5444C68.6188 27.4823 68.4929 27.4511 68.3191 27.4511H68.0512V27.4556Z" fill="#081D25"/>
<path d="M71.6794 27.4852L72.4529 28.5081H72.009L71.4115 27.7092L70.805 28.5081H70.384L71.1529 27.5028L70.4297 26.5332H70.8739L71.4254 27.2788L71.9859 26.5332H72.4072L71.6794 27.4852ZM39.9091 30.9489H38.7992V32.5953H38.4375V30.6207H40.2706V32.5953H39.9091V30.9489ZM42.3234 30.9711H41.6094L41.5863 31.3039C41.5613 31.5857 41.527 31.8121 41.4789 31.9849C41.4308 32.1583 41.3712 32.2913 41.3027 32.3844C41.2341 32.4777 41.1539 32.542 41.0622 32.5732C40.9677 32.6068 40.8677 32.6234 40.7672 32.622L40.7397 32.2801C40.7786 32.2823 40.8243 32.2735 40.8746 32.2513C40.9252 32.2292 40.9755 32.1804 41.0234 32.1073C41.0715 32.0316 41.115 31.9252 41.1539 31.7876C41.1928 31.6479 41.2181 31.466 41.2317 31.2372L41.2684 30.6225H42.6851V32.5975H42.3234V30.9711Z" fill="#081D25"/>
<path fill-rule="evenodd" clip-rule="evenodd" d="M43.6567 30.625C43.5397 30.6559 43.4345 30.7002 43.3453 30.7556L43.4416 31.0354C43.524 30.9954 43.6064 30.962 43.6885 30.9332C43.7709 30.9044 43.8764 30.8911 44.0021 30.8911C44.103 30.8911 44.1829 30.9066 44.2447 30.9375C44.3067 30.9666 44.3524 31.0108 44.3845 31.0642C44.4163 31.1175 44.437 31.1842 44.4484 31.2615C44.4598 31.3394 44.4644 31.4236 44.4644 31.5146C44.3904 31.4641 44.306 31.43 44.2172 31.4148C44.1313 31.3981 44.044 31.3892 43.9564 31.3882C43.849 31.3882 43.7481 31.4036 43.6521 31.4303C43.5558 31.457 43.4734 31.497 43.407 31.5503C43.3393 31.6035 43.2846 31.671 43.2468 31.7476C43.2066 31.8316 43.1863 31.9234 43.1876 32.0162C43.1876 32.209 43.2447 32.3602 43.3592 32.4666C43.4734 32.573 43.6246 32.6263 43.8123 32.6263C43.9817 32.6263 44.1166 32.5975 44.2197 32.5396C44.3225 32.482 44.4049 32.4154 44.4644 32.3399V32.5951H44.8033V31.3836C44.8033 31.1263 44.7459 30.9266 44.6292 30.7868C44.5147 30.6468 44.311 30.5762 44.0228 30.5762C43.8991 30.5763 43.776 30.5929 43.6567 30.625ZM44.2632 32.2244C44.181 32.2823 44.0733 32.309 43.9406 32.309C43.8215 32.309 43.7323 32.2802 43.6684 32.2244C43.6042 32.1668 43.5721 32.0914 43.5721 31.9983C43.5721 31.9428 43.5835 31.8962 43.6088 31.854C43.6338 31.8119 43.6684 31.7786 43.7073 31.7519C43.7462 31.7252 43.794 31.7052 43.8468 31.6919C43.8991 31.6787 43.9529 31.672 44.007 31.6722C44.1854 31.6722 44.3388 31.7143 44.4647 31.8028V32.0535C44.4053 32.1187 44.3375 32.1762 44.2632 32.2244Z" fill="#081D25"/>
<path d="M45.1562 30.6191H47.0124V30.9695H46.2661V32.5938H45.9047V30.9698H45.1587V30.6191H45.1562Z" fill="#081D25"/>
<path fill-rule="evenodd" clip-rule="evenodd" d="M48.7047 32.5736C48.842 32.5315 48.9587 32.467 49.0593 32.3784L48.9495 32.1032C48.8831 32.1611 48.7939 32.2099 48.6862 32.2499C48.5788 32.2899 48.4575 32.3096 48.3248 32.3096C48.1257 32.3096 47.9609 32.2587 47.8303 32.1544C47.6998 32.0502 47.6291 31.9038 47.613 31.7171H49.1785C49.1942 31.6486 49.2013 31.5707 49.2013 31.4798C49.2013 31.3446 49.176 31.2224 49.1257 31.1115C49.0788 31.0038 49.0103 30.9065 48.9242 30.8254C48.8372 30.7447 48.7345 30.682 48.6223 30.6411C48.5048 30.5964 48.3798 30.5738 48.2538 30.5744C48.0843 30.5744 47.9356 30.6032 47.8053 30.6566C47.6821 30.7073 47.5707 30.782 47.4779 30.8763C47.3877 30.97 47.3183 31.0811 47.2742 31.2024C47.2259 31.3317 47.2019 31.4685 47.2032 31.6062C47.2032 31.7616 47.2306 31.9035 47.281 32.0302C47.3315 32.1566 47.4069 32.2654 47.5007 32.3563C47.5945 32.4472 47.709 32.516 47.8442 32.5648C47.9888 32.6153 48.1414 32.6401 48.2948 32.6382C48.43 32.6382 48.5674 32.6158 48.7047 32.5736ZM47.7871 31.0515C47.8991 30.9518 48.0479 30.903 48.2356 30.903C48.4142 30.903 48.5538 30.9518 48.6568 31.0427C48.7596 31.136 48.8146 31.2646 48.8238 31.4288H47.588C47.6055 31.2835 47.6762 31.1494 47.7871 31.0515ZM49.3775 30.619H49.8353L50.5331 31.571L49.7871 32.5936H49.3433L50.1257 31.5707L49.3775 30.619ZM50.6223 30.619H50.9841V32.5936H50.6223V30.619ZM52.277 32.5936L51.4807 31.5707L52.2245 30.6187H51.7757L51.0733 31.5707L51.8285 32.5936H52.277ZM53.9295 32.5736C54.0668 32.5315 54.1835 32.467 54.2841 32.3784L54.1742 32.1032C54.1079 32.1611 54.0187 32.2099 53.9112 32.2499C53.8035 32.2899 53.6822 32.3096 53.5495 32.3096C53.3504 32.3096 53.1856 32.2587 53.0551 32.1544C52.9248 32.0502 52.8538 31.9038 52.8378 31.7171H54.4032C54.4193 31.6486 54.4261 31.5707 54.4261 31.4798C54.4261 31.3446 54.401 31.2224 54.3505 31.1115C54.3036 31.0039 54.2352 30.9066 54.1492 30.8254C54.0621 30.7447 53.9593 30.682 53.847 30.6411C53.7296 30.5964 53.6045 30.5738 53.4785 30.5744C53.3094 30.5744 53.1606 30.6032 53.0301 30.6566C52.9069 30.7073 52.7956 30.7821 52.7029 30.8763C52.6125 30.9699 52.5431 31.081 52.4992 31.2024C52.4508 31.3317 52.4268 31.4685 52.4282 31.6062C52.4282 31.7616 52.4557 31.9035 52.506 32.0302C52.5563 32.1566 52.6319 32.2654 52.7257 32.3563C52.8196 32.4472 52.9338 32.516 53.0689 32.5648C53.2136 32.6153 53.3663 32.6401 53.5199 32.6382C53.6589 32.6372 53.7971 32.6154 53.9295 32.5736ZM53.0118 31.0515C53.1242 30.9518 53.2729 30.903 53.4606 30.903C53.6368 30.903 53.7785 30.9518 53.8816 31.0427C53.9847 31.136 54.0396 31.2646 54.0486 31.4288H52.8128C52.8302 31.2835 52.901 31.1494 53.0118 31.0515ZM55.8933 29.9555C55.6804 29.9555 55.5637 29.84 55.5455 29.6094H55.2044C55.2044 29.6979 55.2205 29.7779 55.2501 29.8534C55.28 29.9288 55.3236 29.9931 55.3807 30.0464C55.4378 30.0998 55.5112 30.1419 55.5958 30.175C55.6804 30.2083 55.7788 30.2238 55.8909 30.2238C55.9939 30.2238 56.0856 30.2083 56.168 30.175C56.2504 30.144 56.3189 30.0998 56.3785 30.0464C56.4356 29.9931 56.4816 29.9288 56.5134 29.8534C56.5455 29.7779 56.5615 29.6979 56.5615 29.6094H56.2229C56.2069 29.84 56.0946 29.9555 55.8933 29.9555ZM54.9159 30.6187V32.5936H55.2776L56.4538 31.1224V32.5936H56.8156V30.6187H56.4538L55.2776 32.0899V30.6187H54.9159Z" fill="#081D25"/>
</svg>
