<svg width="84" height="44" viewBox="0 0 84 44" fill="none" xmlns="http://www.w3.org/2000/svg">
<g clip-path="url(#clip0_3041_23645)">
<path d="M32.6056 4.02344C29.2718 4.02344 26.2925 5.72198 26.2925 8.86016C26.2925 12.4591 31.5764 12.7076 31.5764 14.5156C31.5764 15.2769 30.6888 15.9583 29.173 15.9583C27.0216 15.9583 25.4137 15.0062 25.4137 15.0062L24.7257 18.1729C24.7257 18.1729 26.578 18.9772 29.0372 18.9772C32.6821 18.9772 35.5503 17.1953 35.5503 14.0035C35.5503 10.2006 30.2444 9.95938 30.2444 8.28127C30.2444 7.68492 30.973 7.03151 32.4846 7.03151C34.19 7.03151 35.5815 7.72402 35.5815 7.72402L36.2548 4.66545C36.2548 4.66545 34.7408 4.02344 32.6056 4.02344ZM2.10416 4.25427L2.02344 4.71594C2.02344 4.71594 3.42599 4.96826 4.68922 5.47157C6.31573 6.04872 6.4316 6.3847 6.70553 7.42826L9.69054 18.7392H13.692L19.8565 4.25427H15.8642L11.9032 14.1026L10.2868 5.7547C10.1386 4.79929 9.38773 4.25427 8.46865 4.25427H2.10416ZM21.4618 4.25427L18.33 18.7392H22.137L25.2578 4.25427H21.4618ZM42.6945 4.25427C41.7765 4.25427 41.2901 4.73737 40.9332 5.58158L35.3558 18.7392H39.3481L40.1205 16.5463H44.9842L45.4539 18.7392H48.9764L45.9034 4.25427H42.6945ZM43.2137 8.16765L44.3971 13.6031H41.2268L43.2137 8.16765Z" fill="#1434CB"/>
</g>
<g clip-path="url(#clip1_3041_23645)">
<path d="M59.8917 21.9561V20.6288C59.8917 20.1211 59.5674 19.7886 59.0108 19.7886C58.7325 19.7886 58.4298 19.8762 58.2218 20.1649C58.0596 19.9226 57.8272 19.7886 57.4787 19.7886C57.2463 19.7886 57.0139 19.8556 56.8301 20.0979V19.8324H56.3438V21.9561H56.8301V20.7834C56.8301 20.4071 57.0382 20.2293 57.3625 20.2293C57.6867 20.2293 57.8489 20.4278 57.8489 20.7834V21.9561H58.3352V20.7834C58.3352 20.4071 58.5676 20.2293 58.8676 20.2293C59.1918 20.2293 59.354 20.4278 59.354 20.7834V21.9561H59.8917ZM67.1065 19.8324H66.3174V19.1906H65.831V19.8324H65.3906V20.2525H65.831V21.2267C65.831 21.7138 66.0391 21.9999 66.5958 21.9999C66.8038 21.9999 67.0362 21.9329 67.1983 21.8453L67.0578 21.4458C66.9173 21.5334 66.7552 21.5566 66.639 21.5566C66.4066 21.5566 66.3147 21.4226 66.3147 21.2035V20.2525H67.1038V19.8324H67.1065ZM71.2354 19.786C70.957 19.786 70.7706 19.92 70.6544 20.0953V19.8298H70.168V21.9535H70.6544V20.7577C70.6544 20.4046 70.8165 20.2035 71.1192 20.2035C71.211 20.2035 71.3272 20.2267 71.4218 20.2473L71.5623 19.804C71.465 19.786 71.3272 19.786 71.2354 19.786ZM64.9961 20.0077C64.7637 19.853 64.4394 19.786 64.0908 19.786C63.5342 19.786 63.164 20.0515 63.164 20.4716C63.164 20.8247 63.4423 21.0257 63.9287 21.0901L64.1611 21.1133C64.4151 21.1571 64.5556 21.2241 64.5556 21.335C64.5556 21.4896 64.3692 21.6004 64.0449 21.6004C63.7207 21.6004 63.4639 21.4896 63.3018 21.3788L63.0694 21.7319C63.3234 21.9097 63.672 21.9973 64.0206 21.9973C64.6691 21.9973 65.042 21.7087 65.042 21.3118C65.042 20.9355 64.7394 20.737 64.2773 20.67L64.0449 20.6468C63.8368 20.6236 63.6747 20.5798 63.6747 20.4484C63.6747 20.2937 63.8368 20.2061 64.0936 20.2061C64.3719 20.2061 64.6502 20.3169 64.7907 20.3839L64.9961 20.0077ZM77.9367 19.786C77.6584 19.786 77.472 19.92 77.3558 20.0953V19.8298H76.8694V21.9535H77.3558V20.7577C77.3558 20.4046 77.5179 20.2035 77.8205 20.2035C77.9124 20.2035 78.0286 20.2267 78.1232 20.2473L78.2637 19.8092C78.1691 19.786 78.0313 19.786 77.9367 19.786ZM71.7218 20.8942C71.7218 21.536 72.1865 21.9999 72.9053 21.9999C73.2296 21.9999 73.4619 21.9329 73.6943 21.7577L73.4619 21.3814C73.2755 21.5154 73.0917 21.5798 72.881 21.5798C72.4865 21.5798 72.2081 21.3144 72.2081 20.8942C72.2081 20.4948 72.4865 20.2293 72.881 20.2087C73.089 20.2087 73.2755 20.2757 73.4619 20.4071L73.6943 20.0308C73.4619 19.853 73.2296 19.7886 72.9053 19.7886C72.1865 19.786 71.7218 20.2525 71.7218 20.8942ZM76.2209 20.8942V19.8324H75.7345V20.0979C75.5723 19.8994 75.3399 19.7886 75.0373 19.7886C74.4104 19.7886 73.924 20.2525 73.924 20.8942C73.924 21.536 74.4104 21.9999 75.0373 21.9999C75.3616 21.9999 75.594 21.8891 75.7345 21.6906V21.9561H76.2209V20.8942ZM74.4347 20.8942C74.4347 20.518 74.6887 20.2087 75.1076 20.2087C75.5021 20.2087 75.7804 20.4973 75.7804 20.8942C75.7804 21.2705 75.5021 21.5798 75.1076 21.5798C74.6914 21.5566 74.4347 21.268 74.4347 20.8942ZM68.6143 19.786C67.9657 19.786 67.501 20.2293 67.501 20.8917C67.501 21.5566 67.9657 21.9973 68.6386 21.9973C68.9628 21.9973 69.2871 21.9097 69.5438 21.7087L69.3114 21.3762C69.125 21.5102 68.8926 21.5979 68.6629 21.5979C68.3603 21.5979 68.0603 21.4638 67.9901 21.0901H69.6357C69.6357 21.0231 69.6357 20.9793 69.6357 20.9123C69.6573 20.2293 69.2385 19.786 68.6143 19.786ZM68.6143 20.1855C68.9169 20.1855 69.125 20.3633 69.1709 20.6932H68.0117C68.0576 20.4071 68.2657 20.1855 68.6143 20.1855ZM80.6983 20.8942V18.9922H80.2119V20.0979C80.0498 19.8994 79.8174 19.7886 79.5148 19.7886C78.8879 19.7886 78.4015 20.2525 78.4015 20.8942C78.4015 21.536 78.8879 21.9999 79.5148 21.9999C79.839 21.9999 80.0714 21.8891 80.2119 21.6906V21.9561H80.6983V20.8942ZM78.9122 20.8942C78.9122 20.518 79.1662 20.2087 79.585 20.2087C79.9796 20.2087 80.2579 20.4973 80.2579 20.8942C80.2579 21.2705 79.9796 21.5798 79.585 21.5798C79.1662 21.5566 78.9122 21.268 78.9122 20.8942ZM62.629 20.8942V19.8324H62.1426V20.0979C61.9805 19.8994 61.7481 19.7886 61.4454 19.7886C60.8185 19.7886 60.3321 20.2525 60.3321 20.8942C60.3321 21.536 60.8185 21.9999 61.4454 21.9999C61.7697 21.9999 62.0021 21.8891 62.1426 21.6906V21.9561H62.629V20.8942ZM60.8212 20.8942C60.8212 20.518 61.0752 20.2087 61.4941 20.2087C61.8886 20.2087 62.1669 20.4973 62.1669 20.8942C62.1669 21.2705 61.8886 21.5798 61.4941 21.5798C61.0752 21.5566 60.8212 21.268 60.8212 20.8942Z" fill="#081D25"/>
<path d="M72.1426 3.70312H64.8359V16.2237H72.1426V3.70312Z" fill="#FF5A00"/>
<path d="M65.3223 9.96392C65.3223 7.4201 66.5761 5.16237 68.5 3.70361C67.0841 2.64175 65.2979 2 63.3497 2C58.7344 2 55 5.56186 55 9.96392C55 14.366 58.7344 17.9278 63.3497 17.9278C65.2979 17.9278 67.0841 17.2861 68.5 16.2242C66.5734 14.7861 65.3223 12.5077 65.3223 9.96392Z" fill="#EB001B"/>
<path d="M82 9.96392C82 14.366 78.2656 17.9278 73.6503 17.9278C71.7021 17.9278 69.9159 17.2861 68.5 16.2242C70.4483 14.7629 71.6777 12.5077 71.6777 9.96392C71.6777 7.4201 70.4239 5.16237 68.5 3.70361C69.9132 2.64175 71.6994 2 73.6476 2C78.2656 2 82 5.58505 82 9.96392Z" fill="#F79E1B"/>
</g>
<g clip-path="url(#clip2_3041_23645)">
<path d="M2.79688 25.7912H7.75272C8.20325 25.7912 9.55484 25.6515 10.1555 27.6084C10.6061 28.8664 11.2068 30.8233 12.1078 33.7587H12.4082C13.3093 30.6835 14.0601 28.5868 14.3605 27.6084C14.9612 25.6515 16.463 25.7912 17.0637 25.7912H21.7192V39.2101H16.9135V31.2427H16.6132L14.0601 39.2101H10.4559L7.90289 31.2427H7.45236V39.2101H2.79688M23.6715 25.7912H28.4771V33.7587H28.9277L32.0814 27.189C32.6821 25.931 34.0337 25.7912 34.0337 25.7912H38.539V39.2101H33.7333V31.2427H33.433L30.2793 37.8123C29.6786 39.0703 28.1768 39.2101 28.1768 39.2101H23.6715M44.9966 35.1565V39.2101H40.4913V32.2211H55.2086C54.6079 33.8985 52.5055 35.1565 50.1026 35.1565" fill="#0F754E"/>
<path d="M55.0947 31.3154C55.6821 28.8285 53.92 25.7891 50.1022 25.7891H40.1172C40.4109 28.6904 43.054 31.3154 45.8439 31.3154" fill="url(#paint0_linear_3041_23645)"/>
</g>
<defs>
<linearGradient id="paint0_linear_3041_23645" x1="53.3327" y1="23.993" x2="41.5856" y2="23.993" gradientUnits="userSpaceOnUse">
<stop stop-color="#1F5CD7"/>
<stop offset="1" stop-color="#02AEFF"/>
</linearGradient>
<clipPath id="clip0_3041_23645">
<rect width="47" height="15" fill="white" transform="translate(2 4)"/>
</clipPath>
<clipPath id="clip1_3041_23645">
<rect width="27" height="20" fill="white" transform="translate(55 2)"/>
</clipPath>
<clipPath id="clip2_3041_23645">
<rect width="54" height="15" fill="white" transform="translate(2 25)"/>
</clipPath>
</defs>
</svg>
