<svg width="37" height="21" viewBox="0 0 37 21" fill="none" xmlns="http://www.w3.org/2000/svg">
<g clip-path="url(#clip0_2006_7512)">
<path d="M26.0299 20.2505C31.6216 20.2505 36.1545 15.7175 36.1545 10.1258C36.1545 4.53417 31.6216 0.0012207 26.0299 0.0012207C20.4382 0.0012207 15.9053 4.53417 15.9053 10.1258C15.9053 15.7175 20.4382 20.2505 26.0299 20.2505Z" fill="#E5E3D6"/>
<path fill-rule="evenodd" clip-rule="evenodd" d="M18.0162 2.97904C17.0783 3.91768 16.3348 5.03202 15.828 6.2583C15.3213 7.48459 15.0614 8.79875 15.063 10.1256C15.063 12.9147 16.1905 15.4412 18.0162 17.2722C16.6016 18.6917 14.7977 19.6595 12.8327 20.0531C10.8677 20.4466 8.83018 20.2482 6.97807 19.483C5.12596 18.7177 3.5426 17.42 2.42851 15.7543C1.31443 14.0885 0.719727 12.1296 0.719727 10.1256C0.719727 8.12162 1.31443 6.16272 2.42851 4.49696C3.5426 2.8312 5.12596 1.53352 6.97807 0.768262C8.83018 0.0030029 10.8677 -0.195413 12.8327 0.198142C14.7977 0.591697 16.6016 1.55952 18.0162 2.97904ZM20.3878 9.35911C20.2343 6.83386 19.3063 4.64854 18.1658 3.69961L18.7065 3.05123C20.0978 4.21017 21.069 6.66717 21.2305 9.30792C21.3932 11.9697 20.7448 14.9412 18.7498 17.1567L18.1225 16.5923C19.9245 14.5907 20.5414 11.8647 20.3878 9.35911Z" fill="#E5E3D6"/>
</g>
<defs>
<clipPath id="clip0_2006_7512">
<rect width="35.4375" height="21" fill="white" transform="translate(0.717773)"/>
</clipPath>
</defs>
</svg>
