<svg width="84" height="44" viewBox="0 0 84 44" fill="none" xmlns="http://www.w3.org/2000/svg">
<path d="M73.1902 11.0523C73.1902 8.84453 71.566 7.05859 69.2719 7.05859C67.0231 7.05859 65.4219 8.77591 65.4219 11.1356C65.4219 13.5071 67.0685 15.2362 69.431 15.2362C70.93 15.2362 72.1906 14.5466 72.9742 13.1448L71.3845 12.3855C71.0098 13.0863 70.1917 13.542 69.431 13.542C68.4658 13.542 67.3529 12.7944 67.2845 11.7549H73.1334C73.1706 11.5227 73.1897 11.2877 73.1902 11.0523ZM67.3184 10.3773C67.4552 9.32603 68.159 8.63697 69.2834 8.63697C70.3963 8.63697 71.0777 9.31197 71.1684 10.3773H67.3184Z" fill="#081D25"/>
<path d="M51.2923 7.05664C48.9867 7.05664 47.3516 8.7627 47.3516 11.1691C47.3516 13.5518 48.9867 15.2343 51.3153 15.2343C53.6548 15.2343 55.29 13.5518 55.29 11.204C55.29 8.78577 53.6095 7.05664 51.2923 7.05664ZM51.3153 13.4466C50.1565 13.4466 49.4412 12.559 49.4412 11.1803C49.4412 9.77858 50.168 8.82064 51.3153 8.82064C52.4736 8.82064 53.2004 9.76677 53.2004 11.1803C53.2004 12.5708 52.4851 13.4466 51.3153 13.4466Z" fill="#081D25"/>
<path d="M43.0877 7.05873C42.1433 7.05873 41.4318 7.3906 40.7203 8.21354H40.4868C40.0088 7.47048 39.229 7.05873 38.354 7.05873C37.9171 7.05434 37.4855 7.15674 37.0946 7.35751C36.7037 7.55828 36.3648 7.85168 36.1058 8.21354H35.8723L35.8608 8.20229V7.21904H33.9062V15.0625H36.0183V11.026C36.0183 9.72273 36.552 8.9566 37.4746 8.9566C38.3305 8.9566 38.8861 9.60854 38.8861 10.603V15.0625H41.0091V11.026C41.0091 9.73229 41.5428 8.9566 42.4769 8.9566C43.3212 8.9566 43.8659 9.60854 43.8659 10.6149V15.0625H45.9894V10.3516C45.9894 8.30523 44.922 7.05873 43.0877 7.05873Z" fill="#081D25"/>
<path d="M77.884 12.3417H77.733C77.733 12.2022 76.8121 9.71823 76.2084 8.17923L75.831 7.2168H73.7031L76.7219 15.0879L75.5324 18.0871H77.6455L81.9927 7.21961H79.8637L79.5164 8.04255L78.339 11.039C78.007 11.876 77.8709 12.2641 77.884 12.3417Z" fill="#081D25"/>
<path d="M61.1498 7.05859C60.2048 7.05859 59.3932 7.48159 58.8485 8.23647H58.6259L58.6041 8.22522V7.21891H56.6484V15.0624H58.7605V11.049C58.7605 9.76872 59.362 8.96772 60.3502 8.96772C61.2728 8.96772 61.9509 9.67647 61.9509 10.797V15.0618H64.063V10.329C64.063 8.40803 62.8402 7.05859 61.1498 7.05859Z" fill="#081D25"/>
<path d="M19.558 2.5625C14.9949 2.5625 11.3281 6.35938 11.3281 11C11.3281 15.6789 15.031 19.4375 19.557 19.4375C24.0829 19.4375 27.7891 15.6406 27.7891 11C27.7891 6.35938 24.084 2.5625 19.558 2.5625ZM19.558 14.1449C17.8748 14.1449 16.4912 12.7257 16.4912 11C16.4912 9.27425 17.8748 7.85506 19.558 7.85506C21.2413 7.85506 22.6255 9.27425 22.6255 11C22.5877 12.7257 21.2413 14.1449 19.558 14.1449Z" fill="#8B3FFD"/>
<path d="M11.3284 5.01367V17.2863H8.4125L4.67188 5.01367H11.3284Z" fill="#8B3FFD"/>
<g clip-path="url(#clip0_3041_27369)">
<path fill-rule="evenodd" clip-rule="evenodd" d="M46.7119 39.6454C48.1831 39.6454 49.7793 40.1668 51.5466 41.7851C51.7236 41.9471 51.9593 41.7458 51.8045 41.5444C50.0682 39.2781 48.4623 38.8466 46.8607 38.4821C44.9012 38.0355 43.8937 36.8959 43.1915 35.6449C43.0519 35.3962 42.9889 35.4401 42.9764 35.7602C42.9606 36.1511 42.9873 36.6692 43.072 37.1788C42.9927 37.1822 42.9134 37.1816 42.833 37.1816C40.0306 37.1816 37.7583 34.8326 37.7583 31.9352C37.7583 29.0383 40.0306 26.6899 42.8336 26.6899C45.636 26.6899 47.9083 29.0383 47.9083 31.9352C47.9083 32.1416 47.8985 32.3458 47.8757 32.5455C47.5053 32.4763 46.7759 32.4684 46.2643 32.514C46.0721 32.5314 46.0992 32.6243 46.2448 32.6512C47.9224 32.9646 49.0744 34.0395 49.3383 35.9897C49.3437 36.0347 49.4013 36.0476 49.4236 36.0088C50.1369 34.7786 50.5127 33.3702 50.5103 31.9352C50.5103 27.5533 47.073 24 42.8336 24C38.5936 24 35.1562 27.5528 35.1562 31.9352C35.1562 36.3182 38.5936 39.8715 42.8336 39.8715C43.9578 39.8715 45.0744 39.6454 46.7119 39.6454ZM47.2832 36.7642C47.6248 37.0624 47.7286 37.4173 47.5482 37.6676C47.4478 37.8049 47.2848 37.8808 47.0893 37.8808C46.8986 37.8809 46.7139 37.8116 46.5674 37.6851C46.2567 37.4044 46.1655 36.9499 46.3681 36.6917C46.4474 36.5904 46.5761 36.5347 46.7303 36.5347C46.9177 36.5347 47.1143 36.6163 47.2832 36.7642ZM48.8593 36.006C48.9093 36.3536 48.8034 36.4976 48.6964 36.4976C48.5796 36.4976 48.4335 36.357 48.2613 36.0786C48.0908 35.8041 48.0283 35.4891 48.1131 35.3299C48.1685 35.2247 48.2852 35.1786 48.4324 35.2365C48.7175 35.3473 48.8289 35.7984 48.8593 36.006ZM59.5009 34.1891L58.6156 33.0883C58.5948 33.0624 58.5817 33.0308 58.5776 32.9974C58.5735 32.9639 58.5788 32.93 58.5927 32.8995C58.6066 32.869 58.6286 32.8433 58.6561 32.8253C58.6837 32.8074 58.7156 32.7979 58.7481 32.7981H60.5996C60.6875 32.5269 60.7375 32.2373 60.7375 31.9358C60.7375 30.5576 59.7447 29.3691 58.3826 29.3691C57.0205 29.3691 56.0277 30.5576 56.0277 31.9358C56.0277 33.3139 57.0205 34.4861 58.3826 34.4861C58.7954 34.4861 59.1734 34.377 59.5014 34.1886L59.5009 34.1891ZM63.5057 36.0482C63.6018 36.1584 63.5231 36.3351 63.3781 36.3351H61.3577C61.3171 36.3351 61.277 36.3259 61.2402 36.3081C61.2034 36.2903 61.1709 36.2644 61.1448 36.2321L60.8027 35.8063C60.0821 36.2903 59.2415 36.5475 58.3826 36.5466C55.9229 36.5466 53.9221 34.4782 53.9221 31.9358C53.9221 29.3932 55.9229 27.3249 58.3826 27.3249C60.8423 27.3249 62.8431 29.3932 62.8431 31.9358C62.8431 32.8526 62.5824 33.7065 62.1344 34.4254L63.5057 36.0482ZM82.1716 27.5381H80.5222C80.4642 27.5383 80.4086 27.5622 80.3676 27.6047C80.3266 27.6472 80.3035 27.7047 80.3034 27.7648V36.1084C80.3034 36.2338 80.4011 36.3351 80.5222 36.3351H82.1716C82.2927 36.3351 82.391 36.2338 82.391 36.1084V27.7643C82.391 27.704 82.3679 27.6462 82.3268 27.6036C82.2856 27.5609 82.2298 27.537 82.1716 27.537V27.5381ZM79.3964 27.5381H77.552C77.5051 27.5379 77.4595 27.5533 77.4216 27.5819C77.3838 27.6106 77.3559 27.651 77.3418 27.6973L75.882 32.6282L74.2771 27.6917C74.2624 27.6467 74.2344 27.6075 74.1971 27.5799C74.1597 27.5522 74.115 27.5374 74.0691 27.5376H72.7819C72.736 27.5374 72.6911 27.5522 72.6537 27.5798C72.6162 27.6075 72.5882 27.6466 72.5734 27.6917L70.969 32.6282L69.5092 27.6973C69.4952 27.6509 69.4673 27.6104 69.4295 27.5816C69.3917 27.5528 69.3459 27.5374 69.299 27.5376H67.4541C67.4194 27.5376 67.3853 27.5462 67.3544 27.5625C67.3235 27.5788 67.2968 27.6025 67.2765 27.6315C67.2561 27.6603 67.2427 27.6937 67.2374 27.7289C67.2322 27.7642 67.2351 27.8002 67.2461 27.834L69.9562 36.1821C69.986 36.2743 70.0702 36.3362 70.1642 36.3362H71.6284C71.7229 36.3362 71.8065 36.2743 71.8364 36.1826L73.4255 31.3052L75.0141 36.1821C75.0439 36.2743 75.1281 36.3362 75.2221 36.3362H76.6868C76.7813 36.3362 76.865 36.2743 76.8948 36.1821L79.6049 27.834C79.6159 27.8002 79.6189 27.7642 79.6137 27.729C79.6085 27.6938 79.5952 27.6604 79.5751 27.6315C79.5546 27.6024 79.5278 27.5787 79.4969 27.5624C79.4659 27.5461 79.4317 27.5376 79.3969 27.5376L79.3964 27.5381ZM66.5476 27.7648V36.1084C66.5476 36.2338 66.4499 36.3351 66.3282 36.3351H64.6794C64.6213 36.3351 64.5655 36.3112 64.5244 36.2687C64.4833 36.2262 64.4601 36.1685 64.4599 36.1084V27.7643C64.4599 27.6388 64.5577 27.537 64.6794 27.537H66.3282C66.4493 27.537 66.5476 27.6388 66.5476 27.7648Z" fill="#FF8C00"/>
</g>
<defs>
<clipPath id="clip0_3041_27369">
<rect width="47.25" height="18" fill="white" transform="translate(35 24)"/>
</clipPath>
</defs>
</svg>
