<svg width="84" height="44" viewBox="0 0 84 44" fill="none" xmlns="http://www.w3.org/2000/svg">
<path d="M30 24.501C30.8284 24.501 31.5 25.1726 31.5 26.001C31.5 26.8294 30.8284 27.501 30 27.501H25C24.1716 27.501 23.5 26.8294 23.5 26.001C23.5 25.1726 24.1716 24.501 25 24.501H30Z" fill="#1F1F1F"/>
<path fill-rule="evenodd" clip-rule="evenodd" d="M42 12.001C45.3137 12.001 48 14.6873 48 18.001C48 21.3147 45.3137 24.001 42 24.001C38.6863 24.001 36 21.3147 36 18.001C36 14.6873 38.6863 12.001 42 12.001ZM42 15.001C40.3431 15.001 39 16.3441 39 18.001C39 19.6578 40.3431 21.001 42 21.001C43.6569 21.001 45 19.6578 45 18.001C45 16.3441 43.6569 15.001 42 15.001Z" fill="#1F1F1F"/>
<path d="M58.1533 8.50879C58.9097 8.58559 59.5 9.22431 59.5 10.001C59.5 10.7776 58.9097 11.4164 58.1533 11.4932L52 11.501C51.1716 11.501 50.5 10.8294 50.5 10.001C50.5 9.17255 51.1716 8.50098 52 8.50098L58.1533 8.50879Z" fill="#1F1F1F"/>
<path fill-rule="evenodd" clip-rule="evenodd" d="M61.2568 3.00781C63.8989 3.14151 66 5.3257 66 8.00098V19.1348C65.9889 19.1328 65.9779 19.1308 65.9668 19.1289C69.962 19.824 73 23.3069 73 27.501C73 32.472 68.5597 36.453 63.6377 35.957C62.5838 39.4537 59.3403 42.001 55.5 42.001C50.6711 42.001 46.7366 37.81 47.0156 33.001H23C20.2677 32.9283 18.0733 30.7534 18 28.001V8.00098C18 5.3257 20.1011 3.14151 22.7432 3.00781H61.2568ZM55.5 28.001C52.4624 28.001 50 30.4634 50 33.501C50 36.5385 52.4624 39.001 55.5 39.001C58.5376 39.001 61 36.5385 61 33.501C61 30.4634 58.5376 28.001 55.5 28.001ZM64.5 22.001C62.0305 22.001 59.9402 23.6282 59.2451 25.8691C61.9447 27.2619 63.7956 29.9122 63.9824 32.9756C67.1552 33.2718 70 30.7025 70 27.501C70 24.4634 67.5376 22.001 64.5 22.001ZM23 6.00098C21.8954 6.00098 21 6.89641 21 8.00098V28.001C21 29.1055 21.8954 30.001 23 30.001H47.7539C49.1912 26.825 52.822 24.513 56.3613 25.0439C56.2256 25.0236 56.4991 25.0578 56.3613 25.0439C57.2749 22.0137 59.834 19.6976 63 19.1338V8.00098C63 6.96533 62.2128 6.11398 61.2041 6.01172L23 6.00098Z" fill="#1F1F1F"/>
</svg>
