<svg width="162" height="54" viewBox="0 0 162 54" fill="none" xmlns="http://www.w3.org/2000/svg">
<g clip-path="url(#clip0_3041_10790)">
<mask id="mask0_3041_10790" style="mask-type:luminance" maskUnits="userSpaceOnUse" x="0" y="2" width="162" height="21">
<path d="M162 2H0V22.25H162V2Z" fill="white"/>
</mask>
<g mask="url(#mask0_3041_10790)">
<mask id="mask1_3041_10790" style="mask-type:luminance" maskUnits="userSpaceOnUse" x="0" y="2" width="162" height="21">
<path d="M162 2H0V22.25H162V2Z" fill="white"/>
</mask>
<g mask="url(#mask1_3041_10790)">
<path d="M86.5793 5.10986H94.3512V3.10156H86.5793V5.10986ZM91.8369 3.10156V17.95H94.3512V3.10156H91.8369ZM86.9944 16.2622C87.1611 15.9489 87.313 15.5216 87.4521 14.9804C87.6039 14.4248 87.7288 13.7127 87.826 12.8439C87.9225 11.9608 87.9921 10.8641 88.0339 9.55371L88.2411 3.10156H85.8726L85.6647 9.21189C85.6093 11.1632 85.4844 12.6944 85.2907 13.8053C85.1105 14.9162 84.8196 15.7352 84.4179 16.2622H86.9944ZM85.9974 21.0479V17.95H93.3536V21.0479H95.7019V15.9418H83.6484V21.0479H85.9974Z" fill="#1F1F1F"/>
<path d="M101.363 6.98828C100.006 6.98828 98.8972 7.47255 98.0379 8.44108C97.1793 9.39538 96.75 10.777 96.75 12.5858C96.75 13.7823 96.9437 14.8007 97.3312 15.641C97.7193 16.4671 98.26 17.0938 98.9525 17.521C99.6451 17.9484 100.449 18.162 101.363 18.162C102.721 18.162 103.829 17.6848 104.688 16.7305C105.547 15.7621 105.977 14.3734 105.977 12.5644C105.977 11.3681 105.783 10.3568 105.395 9.53065C105.007 8.70458 104.467 8.07789 103.773 7.6506C103.081 7.20906 102.278 6.98828 101.363 6.98828ZM101.363 16.1538C100.67 16.1538 100.151 15.8689 99.8044 15.2991C99.4723 14.7294 99.3056 13.825 99.3056 12.5858C99.3056 11.3324 99.4723 10.4209 99.8044 9.85115C100.151 9.28145 100.67 8.9966 101.363 8.9966C102.056 8.9966 102.568 9.28145 102.901 9.85115C103.248 10.4209 103.42 11.3253 103.42 12.5644C103.42 13.8179 103.248 14.7294 102.901 15.2991C102.568 15.8689 102.056 16.1538 101.363 16.1538Z" fill="#1F1F1F"/>
<path d="M112.123 18.162C112.691 18.162 113.183 18.1051 113.599 17.991C114.015 17.8914 114.374 17.7277 114.68 17.4998V15.4274C114.361 15.6553 114.007 15.8333 113.62 15.9614C113.232 16.0896 112.781 16.1538 112.269 16.1538C111.382 16.1538 110.745 15.8262 110.357 15.171C109.969 14.5158 109.775 13.6327 109.775 12.5217C109.775 11.3538 109.99 10.4779 110.42 9.89387C110.862 9.29569 111.486 8.9966 112.289 8.9966C112.761 8.9966 113.211 9.06781 113.64 9.21023C114.084 9.35266 114.43 9.50224 114.68 9.65891V7.50104C114.416 7.34436 114.056 7.22329 113.599 7.13783C113.155 7.03813 112.629 6.98828 112.019 6.98828C110.966 6.98828 110.08 7.23042 109.359 7.71468C108.653 8.1847 108.119 8.83986 107.759 9.68024C107.399 10.5206 107.219 11.4891 107.219 12.5858C107.219 14.3805 107.621 15.7621 108.424 16.7305C109.242 17.6848 110.475 18.162 112.123 18.162Z" fill="#1F1F1F"/>
<path d="M123.909 9.21143V7.20312H115.617V9.21143H118.526V17.9496H120.999V9.21143H123.909Z" fill="#1F1F1F"/>
<path d="M130.087 15.3849C129.934 15.6127 129.713 15.8121 129.421 15.983C129.13 16.154 128.764 16.2394 128.32 16.2394C127.794 16.2394 127.399 16.1041 127.136 15.8335C126.886 15.5486 126.762 15.1783 126.762 14.7226C126.762 14.1101 126.99 13.6828 127.448 13.4407C127.919 13.1843 128.68 13.0561 129.733 13.0561H130.087V15.3849ZM132.559 10.6205C132.559 9.32437 132.234 8.40571 131.583 7.86446C130.932 7.30898 129.955 7.03125 128.653 7.03125C127.835 7.03125 127.108 7.13806 126.471 7.35171C125.847 7.56536 125.348 7.78614 124.974 8.01402V10.1291C125.196 9.9582 125.487 9.79444 125.847 9.63778C126.221 9.4668 126.63 9.33153 127.074 9.23183C127.517 9.11789 127.946 9.06092 128.362 9.06092C128.958 9.06092 129.394 9.18195 129.671 9.42407C129.948 9.66626 130.087 10.0721 130.087 10.6419V11.2401H129.692C127.807 11.2401 126.422 11.5463 125.535 12.1588C124.663 12.7712 124.227 13.6187 124.227 14.7012C124.227 15.7837 124.517 16.624 125.099 17.2222C125.695 17.8063 126.471 18.0981 127.427 18.0981C128.161 18.0981 128.708 17.9985 129.068 17.7991C129.442 17.5854 129.747 17.3503 129.983 17.094H130.087C130.1 17.2365 130.121 17.386 130.149 17.5427C130.19 17.6994 130.232 17.8347 130.274 17.9486H132.684C132.601 17.0655 132.559 16.1896 132.559 15.3207V10.6205Z" fill="#1F1F1F"/>
<path d="M138.869 17.9496C140.089 17.9496 141.044 17.6862 141.737 17.1591C142.43 16.6321 142.776 15.8559 142.776 14.8303C142.776 14.0328 142.527 13.4274 142.028 13.0143C141.529 12.587 140.837 12.3449 139.95 12.2879L139.991 12.4802C140.712 12.3662 141.287 12.1028 141.716 11.6898C142.16 11.2624 142.381 10.6785 142.381 9.9378C142.381 8.1147 141.225 7.20312 138.911 7.20312H135.545V9.08325H138.62C139.548 9.08325 140.012 9.49628 140.012 10.3224C140.012 10.6927 139.881 10.9847 139.617 11.1984C139.368 11.412 139.008 11.5188 138.537 11.5188H135.565V13.3775H138.661C139.742 13.3775 140.282 13.8048 140.282 14.6594C140.282 15.1579 140.137 15.5211 139.846 15.749C139.555 15.9626 139.16 16.0695 138.661 16.0695H135.565V17.9496H138.869ZM134.547 7.20312V17.9496H136.957V7.20312H134.547Z" fill="#1F1F1F"/>
<path d="M150.56 17.9496H153.366L149.397 12.2452L152.888 7.20312H150.395L146.904 12.2452V7.20312H144.43V17.9496H146.904V12.7579L150.56 17.9496Z" fill="#1F1F1F"/>
<path d="M159.329 15.3849C159.177 15.6127 158.955 15.8121 158.664 15.983C158.373 16.154 158.006 16.2394 157.562 16.2394C157.035 16.2394 156.642 16.1041 156.377 15.8335C156.129 15.5486 156.003 15.1783 156.003 14.7226C156.003 14.1101 156.232 13.6828 156.69 13.4407C157.161 13.1843 157.923 13.0561 158.975 13.0561H159.329V15.3849ZM161.802 10.6205C161.802 9.32437 161.476 8.40571 160.825 7.86446C160.174 7.30898 159.198 7.03125 157.895 7.03125C157.077 7.03125 156.35 7.13806 155.712 7.35171C155.09 7.56536 154.591 7.78614 154.217 8.01402V10.1291C154.438 9.9582 154.729 9.79444 155.09 9.63778C155.464 9.4668 155.872 9.33153 156.316 9.23183C156.759 9.11789 157.188 9.06092 157.604 9.06092C158.2 9.06092 158.636 9.18195 158.914 9.42407C159.191 9.66626 159.329 10.0721 159.329 10.6419V11.2401H158.934C157.05 11.2401 155.664 11.5463 154.778 12.1588C153.905 12.7712 153.469 13.6187 153.469 14.7012C153.469 15.7837 153.76 16.624 154.341 17.2222C154.938 17.8063 155.712 18.0981 156.669 18.0981C157.404 18.0981 157.951 17.9985 158.31 17.7991C158.684 17.5854 158.99 17.3503 159.225 17.094H159.329C159.342 17.2365 159.364 17.386 159.391 17.5427C159.434 17.6994 159.475 17.8347 159.516 17.9486H161.927C161.844 17.0655 161.802 16.1896 161.802 15.3207V10.6205Z" fill="#1F1F1F"/>
<path d="M17.4562 7.20359V11.4552H14.152V7.20359H11.6791V17.95H14.152V13.4634H17.4562V17.95H19.9292V7.20359H17.4562ZM31.0887 15.9418H29.9873V7.20359H22.7762V8.12228C22.7762 9.00534 22.7485 9.93826 22.6932 10.9211C22.6376 11.8896 22.5337 12.8225 22.3814 13.7198C22.2428 14.6029 22.0282 15.3435 21.7371 15.9418H20.9682V20.407H23.2542V17.95H28.8027V20.407H31.0887V15.9418ZM27.5143 15.9418H24.0231C24.2448 15.4005 24.4179 14.7525 24.5427 13.9976C24.6811 13.2285 24.7711 12.4522 24.8127 11.6688C24.8682 10.8712 24.8959 10.1591 24.8959 9.53238V9.21189H27.5143V15.9418ZM33.3954 13.4848H40.2117V12.1388C40.2117 10.8854 40.0454 9.88844 39.7128 9.14777C39.3804 8.39289 38.9094 7.84453 38.2998 7.5027C37.6902 7.16086 36.9698 6.98995 36.1386 6.98995C35.141 6.98995 34.3098 7.23208 33.6448 7.71633C32.9936 8.20061 32.5018 8.87007 32.1693 9.72462C31.8506 10.565 31.6913 11.5264 31.6913 12.6089C31.6913 14.4747 32.1208 15.8706 32.9798 16.7964C33.8388 17.7079 35.0579 18.1637 36.6372 18.1637C37.427 18.1637 38.1127 18.0711 38.6946 17.8859C39.2765 17.7009 39.7475 17.48 40.1078 17.2237V15.1513C39.7198 15.4219 39.228 15.6569 38.6322 15.8563C38.0504 16.0557 37.4547 16.1554 36.8451 16.1554C35.8752 16.1554 35.1964 15.9061 34.8086 15.4077C34.4345 14.8949 34.2473 14.1187 34.2473 13.0789V11.8825C34.2473 9.95966 34.8639 8.99825 36.097 8.99825C36.7065 8.99825 37.1221 9.23322 37.3438 9.70329C37.5793 10.1591 37.6971 10.7217 37.6971 11.3911V12.1175L38.5283 11.6047H33.3954V13.4848ZM48.0045 17.95H50.8101L46.8408 12.2457L50.332 7.20359H47.8384L44.347 12.2457V7.20359H41.8741V17.95H44.347V12.7584L48.0045 17.95ZM55.569 18.1637C56.1369 18.1637 56.6288 18.1068 57.0444 17.9927C57.46 17.8931 57.8203 17.7293 58.1251 17.5014V15.429C57.8065 15.6569 57.453 15.8349 57.0652 15.9631C56.6773 16.0914 56.227 16.1554 55.7144 16.1554C54.8278 16.1554 54.1905 15.8278 53.8026 15.1726C53.4146 14.5175 53.2206 13.6344 53.2206 12.5234C53.2206 11.3555 53.4354 10.4795 53.8649 9.89553C54.3083 9.29735 54.9317 8.99825 55.7352 8.99825C56.2063 8.99825 56.6565 9.06947 57.086 9.21189C57.5293 9.35432 57.8757 9.5039 58.1251 9.66056V7.5027C57.8618 7.34602 57.5016 7.22496 57.0444 7.13949C56.6011 7.0398 56.0747 6.98995 55.4651 6.98995C54.4122 6.98995 53.5255 7.23208 52.805 7.71633C52.0985 8.18637 51.5651 8.84152 51.2048 9.68189C50.8447 10.5223 50.6646 11.4908 50.6646 12.5875C50.6646 14.3821 51.0664 15.7637 51.8698 16.7323C52.6873 17.6865 53.9203 18.1637 55.569 18.1637ZM7.08642 17.95H9.60093V3.10156H5.94343C4.10083 3.10156 2.70156 3.55022 1.74562 4.44755C0.80354 5.33062 0.3325 6.48432 0.3325 7.90862C0.3325 9.04807 0.5888 9.99523 1.1014 10.7501C1.61401 11.505 2.34135 12.2314 3.28344 12.9293L0 17.95H2.72234L6.37983 12.3311L5.11218 11.4552C4.59957 11.0991 4.1701 10.7572 3.82374 10.4297C3.49125 10.0878 3.24187 9.71038 3.07562 9.29735C2.90936 8.87007 2.82625 8.3573 2.82625 7.75908C2.82625 6.9757 3.08947 6.34187 3.61593 5.85762C4.15624 5.35911 4.939 5.10986 5.96421 5.10986H7.08642V17.95Z" fill="#1F1F1F"/>
<mask id="mask2_3041_10790" style="mask-type:luminance" maskUnits="userSpaceOnUse" x="61" y="2" width="20" height="21">
<path d="M71.0781 2C65.6417 2 61.2344 6.53103 61.2344 12.1203C61.2344 17.7097 65.6417 22.2408 71.0781 22.2408C76.5152 22.2408 80.9223 17.7097 80.9223 12.1204C80.9223 6.5311 76.5152 2 71.0781 2Z" fill="white"/>
</mask>
<g mask="url(#mask2_3041_10790)">
<path d="M71.0703 2C65.6338 2 61.2266 6.53103 61.2266 12.1203C61.2266 17.7097 65.6338 22.2408 71.0703 22.2408C76.5074 22.2408 80.9145 17.7097 80.9145 12.1204C80.9145 6.5311 76.5074 2 71.0703 2Z" fill="#1F1F1F"/>
<mask id="mask3_3041_10790" style="mask-type:alpha" maskUnits="userSpaceOnUse" x="55" y="-2" width="26" height="28">
<path d="M56.2416 5.44372L67.3032 -1.24582C67.8335 -1.5665 68.4909 -1.5665 69.0215 -1.24582L80.0834 5.44372C80.6004 5.75671 80.9183 6.32792 80.9183 6.94522V17.2954C80.9183 17.9126 80.6004 18.4839 80.0834 18.7969L69.0215 25.4864C68.4909 25.807 67.8335 25.807 67.3032 25.4864L56.2416 18.7969C55.7241 18.4839 55.4062 17.9126 55.4062 17.2954V6.94522C55.4062 6.32792 55.7241 5.75671 56.2416 5.44372Z" fill="#C4C4C4"/>
</mask>
<g mask="url(#mask3_3041_10790)">
<path d="M68.1622 -1.76367L55.4062 5.95058L68.1622 13.6648L80.9183 5.95058L68.1622 -1.76367Z" fill="url(#paint0_linear_3041_10790)"/>
<path d="M55.4062 18.2918V5.94922L68.1622 13.6635V26.0063L55.4062 18.2918Z" fill="url(#paint1_radial_3041_10790)"/>
<path d="M80.9202 18.2921V5.94922L68.1641 13.6635V26.0063L80.9202 18.2921Z" fill="url(#paint2_radial_3041_10790)"/>
<path fill-rule="evenodd" clip-rule="evenodd" d="M61.6128 -0.335938L75.9594 8.43416C76.2395 8.60544 76.4116 8.91577 76.4116 9.25091V24.4645H72.66V11.4449C72.66 11.1098 72.4878 10.7995 72.2077 10.6282L59.6953 2.9794L61.6128 -0.335938Z" fill="url(#paint3_radial_3041_10790)"/>
</g>
<path fill-rule="evenodd" clip-rule="evenodd" d="M64.7998 5.47332L65.1289 5.32869L66.446 6.10001L67.0575 5.76255L65.7405 4.99124L66.0697 4.7984L63.9531 4.26812L64.7998 5.47332ZM66.352 4.60558L66.6811 4.41274L67.9981 5.18406L68.6569 4.89483L67.3397 4.07529L67.6687 3.88246L65.5523 3.40039L66.352 4.60558ZM66.399 6.43747L69.2212 4.84661L69.5034 5.03944L66.6811 6.63029L66.399 6.43747Z" fill="#1F1F1F"/>
<path fill-rule="evenodd" clip-rule="evenodd" d="M69.6959 8.55494C68.9527 8.02846 69.0458 7.26267 69.8349 6.83192C70.6247 6.3533 71.8781 6.44902 72.5747 6.9755C73.1789 7.40626 73.1323 8.12418 73.2713 9.17713C73.2713 9.27284 73.1789 9.32077 73.0391 9.32077C71.8322 9.08141 70.439 9.03355 69.6959 8.55494ZM71.7391 8.21991C72.1103 8.02846 72.1103 7.64556 71.7857 7.40626C71.4603 7.16694 70.9034 7.11908 70.5315 7.35839C70.1603 7.54984 70.1603 7.93274 70.4849 8.17204C70.8103 8.36349 71.3678 8.41136 71.7391 8.21991Z" fill="#1F1F1F"/>
<path d="M75.6609 10.6133L74.585 11.2292L74.456 11.6754L74.8563 11.4578L74.319 13.0303L74.456 11.888L74.0699 12.0907L74.1827 11.4875L73.2734 12.0215C73.2768 12.1584 73.2876 12.5229 73.3031 12.8869C73.3517 14.1478 74.0733 14.1678 74.3102 14.1395C74.3129 14.3067 74.371 14.886 74.2245 15.218C74.078 15.55 73.8107 15.6366 73.5758 15.8045C73.4503 15.8945 73.5178 16.0835 73.7729 15.9505C74.0274 15.8175 74.9515 15.2428 75.2566 15.0907C75.4132 15.0128 75.4368 14.7907 75.1877 14.9045C74.5019 15.218 74.585 14.6814 74.585 14.4911C74.585 14.3007 74.5823 14.2512 74.585 14.0216C75.638 12.6052 75.7412 11.1592 75.6609 10.6133Z" fill="#1F1F1F"/>
<path fill-rule="evenodd" clip-rule="evenodd" d="M73.2734 19.3861L73.5583 19.2405V20.8894L74.1273 20.55V18.9011L74.4115 18.7555L73.8431 17.2522L73.2734 19.3861ZM74.6491 18.6101L74.9333 18.4645V20.1134L75.5023 19.774V18.1252L75.7871 17.9796L75.1709 16.4277L74.6491 18.6101ZM73.2734 21.4229L75.7399 19.968V20.356L73.2734 21.8109V21.4229Z" fill="#1F1F1F"/>
</g>
</g>
</g>
</g>
<defs>
<linearGradient id="paint0_linear_3041_10790" x1="67.6519" y1="-0.930533" x2="68.5449" y2="11.3508" gradientUnits="userSpaceOnUse">
<stop stop-color="#FFE7C2"/>
<stop offset="1" stop-color="#E3B673"/>
</linearGradient>
<radialGradient id="paint1_radial_3041_10790" cx="0" cy="0" r="1" gradientUnits="userSpaceOnUse" gradientTransform="translate(67.604 25.0802) rotate(-129.289) scale(14.3528 13.3788)">
<stop stop-color="#CA8D32"/>
<stop offset="1" stop-color="#F2C888"/>
</radialGradient>
<radialGradient id="paint2_radial_3041_10790" cx="0" cy="0" r="1" gradientUnits="userSpaceOnUse" gradientTransform="translate(64.7149 20.9146) rotate(-28.0557) scale(16.2373 14.906)">
<stop stop-color="#C4892F"/>
<stop offset="1" stop-color="#E6BE81"/>
</radialGradient>
<radialGradient id="paint3_radial_3041_10790" cx="0" cy="0" r="1" gradientUnits="userSpaceOnUse" gradientTransform="translate(59.9036 3.25031) rotate(31.4646) scale(18.4738 13.7005)">
<stop stop-color="#FFF6E8"/>
<stop offset="0.677761" stop-color="#FFF9EF"/>
<stop offset="1" stop-color="#F0DBBC"/>
</radialGradient>
<clipPath id="clip0_3041_10790">
<rect width="162" height="20.25" fill="white" transform="translate(0 2)"/>
</clipPath>
</defs>
</svg>
