<svg width="84" height="44" viewBox="0 0 84 44" fill="none" xmlns="http://www.w3.org/2000/svg">
<path fill-rule="evenodd" clip-rule="evenodd" d="M46.2236 22C48.7196 22 50 24.4973 50 26.9355C49.9999 29.3146 48.8267 31.576 46.1816 31.5762H44.8164V32.3037H47.248V34.6436H44.8369V36H42V22H46.2236ZM44.8369 29.1377H46.1387C46.8639 29.1377 47.205 28.0368 47.2051 26.8965C47.2051 25.7757 46.8637 24.6152 46.0957 24.6152H44.8369V29.1377Z" fill="#1F1F1F"/>
<path d="M64 19.5C64.8284 19.5 65.5 20.1716 65.5 21C65.5 21.8284 64.8284 22.5 64 22.5H56C55.1716 22.5 54.5 21.8284 54.5 21C54.5 20.1716 55.1716 19.5 56 19.5H64Z" fill="#1F1F1F"/>
<path d="M63 11.5C63.8284 11.5 64.5 12.1716 64.5 13C64.5 13.8284 63.8284 14.5 63 14.5H45C44.1716 14.5 43.5 13.8284 43.5 13C43.5 12.1716 44.1716 11.5 45 11.5H63Z" fill="#1F1F1F"/>
<path fill-rule="evenodd" clip-rule="evenodd" d="M68 2C70.7614 2 73 4.23858 73 7V37C73 39.7614 70.7614 42 68 42H41L40.7432 41.9932C38.1011 41.8595 36 39.6753 36 37V7C36 4.23858 38.2386 2 41 2H68ZM41 5C39.8954 5 39 5.89543 39 7V37C39 38.1046 39.8954 39 41 39H68C69.1046 39 70 38.1046 70 37V7C70 5.89543 69.1046 5 68 5H41Z" fill="#1F1F1F"/>
</svg>
