<svg width="56" height="19" viewBox="0 0 56 19" fill="none" xmlns="http://www.w3.org/2000/svg">
<g clip-path="url(#clip0_2006_7509)">
<path d="M22.5094 1.55615L19.6944 18.0746H24.1972L27.0135 1.55615H22.5094ZM15.92 1.57415L11.5114 12.8394L11.0406 11.1391C10.171 9.08984 7.70366 6.14615 4.80566 4.29077L8.83628 18.0663L13.5994 18.058L20.6886 1.57138L15.92 1.57415Z" fill="#E5E3D6"/>
<path d="M9.33301 2.75688C9.06993 1.75027 8.30978 1.45119 7.36962 1.41381H0.391162L0.333008 1.74473C5.76485 3.0615 9.35793 6.23642 10.8492 10.0538L9.33301 2.75688ZM36.1378 4.72304C37.2925 4.69757 38.4398 4.91308 39.5065 5.3558L39.9122 5.54688L40.5215 1.96627C39.229 1.49886 37.8638 1.26446 36.4895 1.27396C32.0407 1.27396 28.9059 3.51288 28.881 6.7238C28.8533 9.09565 31.1144 10.4207 32.823 11.2113C34.5773 12.0227 35.1658 12.5378 35.1575 13.2606C35.1436 14.3669 33.759 14.8736 32.4658 14.8736C30.663 14.8736 29.7049 14.6244 28.2261 14.0097L27.6473 13.7452L27.0132 17.4421C28.0669 17.9046 30.0109 18.3006 32.0296 18.3213C36.7609 18.3213 39.8361 16.1087 39.8693 12.6777C39.8887 10.8001 38.6882 9.36842 36.0865 8.19288C34.5122 7.42719 33.5485 6.91765 33.5582 6.14365C33.5582 5.45688 34.3752 4.72304 36.1378 4.72304ZM52.0761 1.57442H48.5965C47.5165 1.57442 46.7135 1.86934 46.2385 2.94519L39.5536 18.0846H44.2821C44.2821 18.0846 45.0519 16.0492 45.2278 15.6033L50.9919 15.6103C51.1262 16.1877 51.5416 18.0846 51.5416 18.0846H55.7176L52.0761 1.57442ZM46.5238 12.2221L48.3169 7.60442C48.2919 7.65011 48.6838 6.64904 48.9164 6.02734L49.221 7.45211L50.2622 12.2207L46.5238 12.2221Z" fill="#E5E3D6"/>
</g>
<defs>
<clipPath id="clip0_2006_7509">
<rect width="55.3846" height="18" fill="white" transform="translate(0.333008 0.5)"/>
</clipPath>
</defs>
</svg>
