<svg width="120" height="120" viewBox="0 0 120 120" fill="none" xmlns="http://www.w3.org/2000/svg">
<path d="M77.3016 33H80.0925C84.7815 44.7718 87.1618 54.1593 87.15 62.7772C87.1384 71.1992 84.8436 78.7671 80.3934 87.0001H77.4208C82.209 78.5128 84.5671 71.0472 84.5785 62.7733C84.5899 54.432 82.2172 45.1361 77.3016 33Z" fill="#E790B2"/>
<path d="M40.2076 33H42.9985C38.0828 45.1361 35.7102 54.432 35.7216 62.7733C35.733 71.0472 38.0912 78.5128 42.8793 87.0001H39.9067C35.4565 78.7671 33.1617 71.1992 33.1502 62.7772C33.1384 54.1593 35.5186 44.7718 40.2076 33Z" fill="#E790B2"/>
<path d="M58.8645 71.3193V86.9999H61.4359V71.319L71.9689 60.2595L70.1506 58.3503L60.15 68.8508L50.1495 58.3503L48.3312 60.2595L58.8645 71.3193Z" fill="#E790B2"/>
</svg>
