<svg width="120" height="120" viewBox="0 0 120 120" fill="none" xmlns="http://www.w3.org/2000/svg">
<path fill-rule="evenodd" clip-rule="evenodd" d="M59.75 33C60.9926 33 62 34.0074 62 35.25V58.5H65V39.75C65 38.5074 66.0074 37.5 67.25 37.5C68.4926 37.5 69.5 38.5074 69.5 39.75V63.1283C69.5 65.9847 73.1144 67.2248 74.868 64.9699L79.6478 58.8246C80.5697 57.6393 82.3662 57.6551 83.2673 58.8564C83.8255 59.6007 83.8748 60.6096 83.3919 61.4049L72.586 79.1988C69.6443 84.0424 64.3882 87 58.7211 87C49.7624 87 42.5 79.7376 42.5 70.7789V48.75C42.5 47.5074 43.5074 46.5 44.75 46.5C45.9926 46.5 47 47.5074 47 48.75V61.6764H50V39.75C50 38.5074 51.0074 37.5 52.25 37.5C53.4926 37.5 54.5 38.5074 54.5 39.75V58.5H57.5V35.25C57.5 34.0074 58.5074 33 59.75 33ZM54.5056 35.0078C54.632 32.2208 56.9317 30 59.75 30C62.5683 30 64.868 32.2208 64.9944 35.0078C65.6778 34.6823 66.4427 34.5 67.25 34.5C70.1495 34.5 72.5 36.8505 72.5 39.75V63.1283L77.2798 56.9827C79.416 54.2361 83.5794 54.2725 85.6673 57.0564C86.9609 58.7811 87.0752 61.1193 85.956 62.9621L75.1501 80.756C71.6645 86.4955 65.4362 90 58.7211 90C48.1056 90 39.5 81.3943 39.5 70.7789V48.75C39.5 45.8505 41.8505 43.5 44.75 43.5C45.5552 43.5 46.3181 43.6812 47 44.0052V39.75C47 36.8505 49.3505 34.5 52.25 34.5C53.0573 34.5 53.8222 34.6823 54.5056 35.0078Z" fill="#BF8BC8"/>
</svg>
