<svg width="120" height="120" viewBox="0 0 120 120" fill="none" xmlns="http://www.w3.org/2000/svg">
<path fill-rule="evenodd" clip-rule="evenodd" d="M81.2712 45.0247C82.086 45.1746 82.6251 45.9565 82.4753 46.7712C80.2886 58.6639 75.01 66.9105 67.5714 72.1536C60.1675 77.3721 50.7878 79.5 40.5785 79.5H34.5C33.6716 79.5 33 78.8284 33 78C33 77.1715 33.6716 76.5 34.5 76.5H40.5785C50.4056 76.5 59.109 74.4478 65.8431 69.7014C72.5424 64.9795 77.4567 57.4759 79.5247 46.2288C79.6746 45.414 80.4566 44.8749 81.2712 45.0247Z" fill="#6880C5"/>
<path fill-rule="evenodd" clip-rule="evenodd" d="M81.9235 43.5441C82.3394 43.6473 82.6913 43.9233 82.8905 44.3028L86.828 51.8028C87.2131 52.5363 86.9306 53.4431 86.1971 53.8281C85.4636 54.2132 84.5569 53.9307 84.1718 53.1972L81.0188 47.1915L75.8482 50.7371C75.1649 51.2057 74.2313 51.0315 73.7629 50.3483C73.2943 49.665 73.4684 48.7314 74.1517 48.263L80.7142 43.763C81.0676 43.5206 81.5077 43.4409 81.9235 43.5441Z" fill="#6880C5"/>
<path fill-rule="evenodd" clip-rule="evenodd" d="M36 33V84H87V87H34.5C33.6716 87 33 86.3284 33 85.5V33H36Z" fill="#6880C5"/>
<path fill-rule="evenodd" clip-rule="evenodd" d="M49.6088 34.1088C50.3187 33.3989 51.2817 33 52.2856 33H55.7144C56.7183 33 57.6813 33.3989 58.3913 34.1088C59.1012 34.8188 59.5 35.7817 59.5 36.7857V40.9999H63.7143C64.7183 40.9999 65.6812 41.3988 66.3912 42.1088C67.1011 42.8187 67.5 43.7817 67.5 44.7856V48.2144C67.5 49.2183 67.1011 50.1813 66.3912 50.8913C65.6812 51.6012 64.7183 52 63.7143 52H59.5V56.2143C59.5 57.2183 59.1012 58.1812 58.3913 58.8912C57.6813 59.6011 56.7183 60 55.7144 60H52.2856C51.2817 60 50.3187 59.6011 49.6088 58.8912C48.8988 58.1812 48.4999 57.2183 48.4999 56.2143V52H44.2857C43.2817 52 42.3187 51.6012 41.6088 50.8913C40.8988 50.1813 40.5 49.2183 40.5 48.2144V44.7856C40.5 43.7817 40.8988 42.8187 41.6088 42.1088C42.3187 41.3988 43.2817 40.9999 44.2857 40.9999H48.4999V36.7857C48.4999 35.7817 48.8988 34.8188 49.6088 34.1088ZM52.2856 36C52.0773 36 51.8775 36.0828 51.7302 36.2301C51.5827 36.3775 51.4999 36.5773 51.4999 36.7857V42.4999C51.4999 43.3284 50.8284 43.9999 49.9999 43.9999H44.2857C44.0773 43.9999 43.8776 44.0828 43.7301 44.2302C43.5828 44.3775 43.5 44.5773 43.5 44.7856V48.2144C43.5 48.4227 43.5828 48.6225 43.7301 48.7698C43.8776 48.9173 44.0773 49 44.2857 49H49.9999C50.8284 49 51.4999 49.6716 51.4999 50.5V56.2143C51.4999 56.4226 51.5827 56.6224 51.7302 56.7699C51.8775 56.9172 52.0773 57 52.2856 57H55.7144C55.9227 57 56.1225 56.9172 56.2698 56.7699C56.4173 56.6224 56.5 56.4226 56.5 56.2143V50.5C56.5 49.6716 57.1716 49 58 49H63.7143C63.9226 49 64.1224 48.9173 64.2699 48.7698C64.4172 48.6225 64.5 48.4227 64.5 48.2144V44.7856C64.5 44.5773 64.4172 44.3775 64.2699 44.2302C64.1224 44.0828 63.9226 43.9999 63.7143 43.9999H58C57.1716 43.9999 56.5 43.3284 56.5 42.4999V36.7857C56.5 36.5773 56.4173 36.3775 56.2698 36.2301C56.1225 36.0828 55.9227 36 55.7144 36H52.2856Z" fill="#6880C5"/>
</svg>
