<?xml version="1.0" encoding="utf-8"?>
<!-- Generator: Adobe Illustrator 23.1.0, SVG Export Plug-In . SVG Version: 6.00 Build 0)  -->
<svg version="1.1" id="Слой_1" xmlns="http://www.w3.org/2000/svg" xmlns:xlink="http://www.w3.org/1999/xlink" x="0px" y="0px"
	 viewBox="0 0 597 392" style="enable-background:new 0 0 597 392;" xml:space="preserve">
<style type="text/css">
	.st0{clip-path:url(#SVGID_2_);}
	.st1{fill:#EB99B9;}
	.st2{clip-path:url(#SVGID_2_);fill:#EB99B9;}
</style>
<g>
	<defs>
		<rect id="SVGID_1_" width="596.7" height="392"/>
	</defs>
	<clipPath id="SVGID_2_">
		<use xlink:href="#SVGID_1_"  style="overflow:visible;"/>
	</clipPath>
	<g class="st0">
		<path class="st1" d="M437,505.5c2.6-0.4,5.2-0.9,7.8-1.6"/>
		<path class="st1" d="M467.8,490.9c0.3-2.3,0.7-4.5,0.9-6.7c16.1-10.7,31.1-22.8,44.9-36.3c13.9-13.2,27-27.1,39.2-41.9
			c24.7-29.6,45.9-61.9,63.2-96.4c9.9-19.9,18.5-40.5,25.8-61.6c4.3-12.5-12.7-20.9-21.5-12.5c-17.1,16.4-34.3,32.9-51.4,49.3
			c-16.2,15.6-32.6,31-48.1,47.2c-29.6,30.7-56.4,65.4-66.5,107.7c-2,8.5-3.3,17.2-3.7,25.9c-1-1.6-2.1-3.1-3-4.6
			c-14.3-22.6-25.4-47-33.2-72.6c0.4-0.7,0.6-1.4,0.5-2.2c-0.1-0.8-0.4-1.5-0.9-2l-1.1-1c-0.8-2.9-1.6-5.9-2.3-8.8
			c5.7-2.9,11.1-6.3,16.1-10.3c7.8-6,15.1-12.6,22-19.7c12.3-11.8,23.9-24.2,34.7-37.2c22.6-27.1,42.1-56.6,58.1-88.1
			c9.1-18,17-36.5,23.8-55.5c4-11.2-12.5-20.7-20.3-11.9c-25.6,29.3-56,53.7-83.3,81.3c-15.2,15.1-28.9,31.7-40.6,49.6
			c0.1-0.3,0.2-0.7,0.3-1c5.2-21.4,10.8-42.7,15.5-64.2c9.5-44.1,16.8-88.6,21.7-133.4c2.9-25.1,5.1-50.3,6.6-75.5
			c0.6-10-12.8-14.7-19.4-8C413.4,33,391,74.3,377.9,118.2c-13.5,45.3-16.3,93.3-12.7,140.3c0.9,13.7,2.7,27.4,5.4,40.9
			c0.3,1.5,0.6,3,1,4.6c-3.9-5.7-7.7-11.3-11.6-16.8c-19.3-26.7-40.1-52.4-62-76.9c-12.3-13.8-25-27.2-38.1-40.4
			c-2-2-4.6-3.3-7.4-3.7c-2.8-0.4-5.6,0.2-8.1,1.6c-2.4,1.4-4.4,3.6-5.4,6.2c-1.1,2.6-1.3,5.5-0.5,8.2c2.9,8.3,4.7,17.1,5.2,25.9
			c0.8,9.2,0.9,18.3,1.5,27.5c1,19.1,5.6,37.8,13.5,55.2c15.9,34.4,45,61.6,77.6,79.9c10.6,5.9,21.5,11,32.8,15.5
			c5.5,2.3,11.1,4.3,16.7,6.3l2.7,0.9c4.5,15.8,10.3,31.3,17.3,46.3c3.2,6.8,6.6,13.4,10.3,20l-0.8-0.5
			c-14.8-9.9-30.3-18.8-46.3-26.6c-16.5-8.1-33.7-14.5-51.5-19.2c-17-4.2-34.6-6-51.8-9.3c-9.4-1.6-18.6-3.8-27.6-6.7
			c-3.8-1.2-7.5-2.6-11.1-4.3c-4.7-2.2-9.2-4.8-13.5-7.7c-9.5-6.5-21.4,4.2-18.7,14.3c9.9,38.4,38.5,69.6,72.9,88.3L467.8,490.9z"/>
	</g>
	<path class="st2" d="M828.1,413.2"/>
</g>
</svg>
