<?xml version="1.0" encoding="utf-8"?>
<!-- Generator: Adobe Illustrator 23.1.0, SVG Export Plug-In . SVG Version: 6.00 Build 0)  -->
<svg version="1.1" id="Слой_1" xmlns="http://www.w3.org/2000/svg" xmlns:xlink="http://www.w3.org/1999/xlink" x="0px" y="0px"
	 viewBox="0 0 597 392" style="enable-background:new 0 0 597 392;" xml:space="preserve">
<style type="text/css">
	.st0{clip-path:url(#SVGID_2_);}
	.st1{fill:#BA7CC5;}
</style>
<g>
	<defs>
		<rect id="SVGID_1_" width="596.7" height="392"/>
	</defs>
	<clipPath id="SVGID_2_">
		<use xlink:href="#SVGID_1_"  style="overflow:visible;"/>
	</clipPath>
	<g class="st0">
		<path class="st1" d="M355.3,436.2c0.3-14.9-0.6-29.9-2.7-44.7c-3.1-18.7-9.4-36.8-18.6-53.4c-8.4-16.1-19.7-30.7-33.2-42.9
			c-14.3-12.6-30.9-21.6-47.7-30.8c-16.8-9.2-34.8-19.2-46.7-34.7c-1.4-2.2-3.5-3.9-5.9-4.7c-2.5-0.8-5.1-0.7-7.6,0.3
			c-2.4,1-4.4,2.8-5.5,5.2c-1.1,2.3-1.4,5-0.7,7.5c6.1,18.6,12.2,37.1,18.3,55.7c5.3,17.5,11.8,34.7,19.4,51.4
			c14.7,30.2,39.1,53.1,66.4,71.8c7.3,5,14.7,9.8,22.4,14.4c4,2.4,8,5,12.2,7c1.6,0.8,3.4,1.3,5.1,1.7c6.5,9.9,12.9,19.9,19,30.1
			L355.3,436.2z M494.1,445.2c9.7-27.4,21.6-54.1,35.5-79.6c7.3-5.4,14.7-11,22-16.3c16.2-12.2,31.2-26.1,46.1-39.8
			c27.2-25.1,52.8-52.8,70.7-85.4c10.1-18.1,17.2-37.7,21-58.1c1.8-10.3-10-18.8-18.3-10.7c-27.4,26.8-65.5,38.8-94.7,63.3
			c-29.2,24.5-48,57.4-60.5,92.4c-3.4,9.6-6.5,19.3-9.2,29.1c-3.1,9.9-5.3,20.1-6.5,30.5c-0.1,0.5,0.1,1,0.4,1.5
			c-6.4,13.1-12.4,26.3-17.8,39.4c-6.5,15.8-12.3,31.9-17.4,48.2c-0.7-18.8-2.3-37.6-5-56.3c-3.7-28.8-9-57.4-15.4-85.7
			c3.8-3.3,7-7.2,9.5-11.6c10.7-19,9.5-42,6.3-62.8c-3.9-22-11.1-43.2-21.3-63c-11.1-21.9-23.6-43.1-37.4-63.4
			c-7.3-11.3-14.8-22.5-22.4-33.8c-8-12-17.1-23-25.7-34.5c-2.1-3.1-5.3-5.2-8.9-6.1c-1.4-1.3-2.9-2.5-4.4-3.7
			c-0.8-0.5-1.8-0.7-2.8-0.7c-1,0-1.9,0.3-2.8,0.7c-0.8,0.5-1.6,1.2-2.1,2c-0.5,0.8-0.8,1.8-0.8,2.8c0,1.2,0,2.4,0.2,3.7
			c-1.4,1.5-2.3,3.4-2.8,5.4c-0.4,2-0.3,4.1,0.3,6c3.2,7.9,5.8,16.1,8.3,24.3c0.8,6.8,1.4,13.7,1.7,21c0.3,21.5-0.6,43-2.8,64.3
			c-2.9,37.9-2.2,78,15.4,112.5c8.7,17.1,23,33.4,40.7,41.5c9.5,4.8,20.3,6.6,30.9,5.3c5.4,22.6,10.4,45.3,14.8,68
			c4.5,22.8,9.2,45.9,11.5,69.1c1.5,13,2.1,26.1,1.9,39.3c0,2.6-0.3,5.2-0.5,7.9L494.1,445.2z M620.6,217.4c0.1-1.6,0.5-3.1,1.4-4.4
			v-0.2l0.5-0.8l0.3-0.6l0.5-1l-0.2,0.5c0.2-0.4,0.4-0.8,0.6-1.1l0.5-0.7l0.9-1.4l1-1.4l0.2-0.3l1.8-2.3l2.3-1.8l1.2-0.5
			c1.1-0.8,2.2-1.5,3.4-2.1c1-0.6,2.2-1,3.4-1.1c1.2-0.3,2.5-0.3,3.7,0c1.5,0.5,2.9,1.3,4.1,2.3c0.9,0.8,1.5,1.9,1.9,3
			c0.4,0.7,0.6,1.5,0.6,2.3c0.3,1.2,0.2,2.5-0.2,3.7c0,0.2,0,0.3,0,0.5c-0.2,0.4-0.3,0.8-0.4,1.2c-0.1,0.4,0,0.3,0,0.5
			c0,1-0.3,2.1-0.4,3.1c0,0.1,0,0.2,0,0.4c-0.2,0.4-0.3,0.8-0.4,1.1l-0.9,2.4l-0.3,0.6c-0.6,2.1-1.8,4.1-3.3,5.7
			c-0.3,0.4-0.6,0.7-0.9,1l-1,1l-0.4,0.3c-1,1.1-2.3,2-3.7,2.5c-1.5,0.7-3.2,1.1-4.9,1.1c-3,0-5.9-1.2-8.1-3.4
			c-1.1-1-1.9-2.3-2.4-3.7c-1-2-1.2-4.2-0.8-6.3L620.6,217.4z M621.8,252.2c1.7-1.6,3.5-3,5.5-4.3c2-1.1,4.2-1.4,6.4-0.8
			c2.1,0.6,3.8,1.9,5,3.7c0.6,0.9,1,2,1,3.1c0.3,1.1,0.3,2.2,0,3.3c-0.5,2.1-1.9,3.8-3.7,5c-1.3,0.7-2.5,1.5-3.7,2.3
			c-0.7,0.5-1.5,0.9-2.3,1.1c-1.4,0.4-2.9,0.4-4.3,0c-0.6,0.1-1.2,0.1-1.8,0c-1,0-2-0.5-2.8-1.2c-0.7-0.7-1.2-1.7-1.2-2.8
			c0-0.7,0.1-1.5,0.3-2.2c-0.3-1.3-0.3-2.6-0.1-3.8C620.4,254.4,620.9,253.2,621.8,252.2L621.8,252.2z M565.7,257
			c0.5-1.1,1-2.2,1.7-3.2c0.6-1,1.5-2,2.3-3l1-1.4c1-1.4,2.2-2.7,3.4-3.9l1.8-1.9c1.2-1.4,2.6-2.5,4.2-3.3c2-1.8,4.6-3,7.3-3.3
			c2.7-0.3,5.5,0.2,7.9,1.6c2.4,1.4,4.3,3.6,5.3,6.2c0.8,1.5,1.2,3.3,1.1,5l-0.3,2.2c0.1,1,0.1,2,0,3c-0.1,1.4-0.5,2.8-1.1,4.1
			l-1,2.3v0.3c-0.4,1.5-1,2.8-1.8,4.1l-1,1.4c-1.3,2-2.7,3.9-4.3,5.7c-0.8,0.9-1.8,1.8-2.7,2.6c-1.2,1.2-2.6,2.2-4,3
			c-1.4,0.8-2.9,1.3-4.4,1.6c-1.2,0.4-2.4,0.8-3.7,1.1c-1.6,0.4-3.3,0.5-4.9,0.2c-1.6-0.3-3.1-1-4.4-2.1c-1.1-0.8-2.1-1.8-2.7-3
			c-1-1.6-1.5-3.5-1.5-5.4c-0.1-0.9-0.2-1.8-0.2-2.7C563.1,264.4,563.9,260.5,565.7,257L565.7,257z M395.6,264
			c-0.6,2-1.6,3.9-3.1,5.3c-1.5,1.5-3.3,2.5-5.4,3.1c-2,0.5-4.2,0.5-6.2,0c-2-0.5-3.9-1.6-5.3-3.1c-2.7-2.3-4.7-5.4-5.7-8.9
			c-0.5-1.8-0.9-3.7-1.4-5.3c-0.9-3.3-1.9-6.6-2.8-10c-0.8-3.1-1.5-6.3-2-9.5c-0.5-2.3-0.8-4.7-0.9-7.1c0-0.6,0-1.2,0-1.9
			c0-0.7,0-1.3,0.2-1.8v-0.7c0-2.2,0.8-4.3,2.1-6c1.3-1.7,3.1-3,5.2-3.7c2-0.5,4.2-0.5,6.1,0.3c2,0.7,3.7,2.1,4.9,3.8
			c2.4,2.5,4.4,5.5,5.8,8.7c1.8,3.6,3.3,7.2,4.6,11c1,3.2,1.9,6.4,2.9,9.6C396.1,253.3,397.6,258.4,395.6,264z M404.5,205.6
			c-0.6,0-1.1,0-1.7,0H402l-3.4-0.5c-0.5-0.2-1.1-0.4-1.6-0.7c-0.6-0.2-1.2-0.5-1.8-0.8l-0.5-0.3h-0.3l-1.4-1.1
			c-0.5-0.3-1-0.7-1.4-1.1l-0.5-0.7c-0.6-0.8-1.2-1.6-1.8-2.3l-0.5-0.6c-0.7-0.8-1.4-1.7-2.1-2.6c-0.5-0.8-0.9-2.1-1.3-3.1l-0.4-1.1
			c-0.5-1.9-0.5-3.9,0-5.9c0.5-1.8,1.5-3.5,2.8-4.9c1.3-1.4,3-2.4,4.9-2.9c1.9-0.5,4-0.5,5.9,0c0.6,0,1.1,0,1.7,0.3
			c0.6,0.3,2.5,1.1,2.9,1.2h0.2h0.4l0.8,0.4l1.6,0.8l0.7,0.4l0.4,0.2c0.5,0.3,1,0.7,1.4,1.1c0.5,0.3,1,0.7,1.4,1.1l0.5,0.6l0.2,0.2
			l2.1,2.6c0.3,0.4,1.3,3.1,0.7,1.6c0.6,1,0.9,2.1,0.9,3.3c0,0.4,0,0.8,0,1.1c0.2,1,0.2,2,0,3c0,0.6-0.1,1.2-0.3,1.8
			c-0.5,1.9-1.6,3.7-3,5.1c-1.4,1.4-3.2,2.4-5.1,3L404.5,205.6z M435,266.7c-0.4,1.1-0.8,2.2-1.4,3.3c-1.1,1.9-2.6,3.4-4.5,4.5
			c-1.4,0.9-3,1.4-4.7,1.5c-1.7,0.4-3.4,0.3-5-0.2c-2.1-0.6-4-1.7-5.5-3.2c-1.6-1.7-2.8-3.7-3.4-5.9c-0.3-1.2-0.4-2.6-0.5-3.9
			c0-0.3,0-0.5,0-0.8c0,0,0-0.3,0-0.4c0-0.1,0-0.2,0-0.3v0.3c-0.1-1-0.1-1.9,0-2.9c0-1.9,0.1-3.7,0.5-5.6c0.1-1.3,0.4-2.5,0.9-3.7
			c0.6-2.4,2.2-4.5,4.4-5.8c1.4-0.8,3.1-1.3,4.8-1.3c1.7,0,3.3,0.4,4.8,1.3c1.7,0.6,3.2,1.6,4.3,3l0.4,0.5c2,2.1,3.5,4.6,4.3,7.3
			c0.3,0.7,0.6,1.4,0.8,2.2c0.4,1.8,0.6,3.6,0.6,5.4c0,0.3,0,0.7,0,1c-0.1,1.3-0.3,2.6-0.8,3.8H435z M278.3,348
			c-2.4,2.3-5.7,3.7-9,3.7c-3.5,0-6.8-1.3-9.3-3.7c-1-0.8-1.9-1.6-2.8-2.6l-2.2-2.5c-2.3-2.4-4.2-5.2-5.6-8.3
			c-0.4-0.8-0.8-1.7-1.1-2.5c-0.9-1.5-1.3-3.3-1.2-5.1c-0.3-1.1-0.3-2.2,0-3.3c0-0.1,0-0.2,0-0.3c-0.2-0.2-0.3-0.4-0.3-0.6
			c-0.1-0.2-0.1-0.5-0.1-0.7c0-0.2,0.1-0.4,0.2-0.6c0.1-0.2,0.3-0.4,0.5-0.5h0.2c0.5-0.5,1-0.8,1.6-1c1.3-1.2,3-1.9,4.7-2.1
			c1.9-0.5,4-0.4,5.8,0.3c1.1,0.2,2.3,0.6,3.3,1c0.6,0.2,1.2,0.4,1.7,0.6c0.7,0.3,1.3,0.5,1.9,0.8l1.5,0.9c1.7,1.1,3.3,2.3,4.8,3.7
			c0.9,0.8,1.8,1.5,2.7,2.3c0.9,0.8,1.7,1.7,2.4,2.6c1.6,1.6,2.7,3.5,3.3,5.7l0.4,3.4C281.8,342.5,280.5,345.6,278.3,348z
			 M300.3,346.6c-0.8-0.3-1.5-0.8-2.1-1.3c-0.2-0.2-0.4-0.5-0.6-0.8l-0.5-0.6l-0.6-0.6c-0.3-0.3-0.5-0.6-0.8-0.9
			c-0.4-0.4-0.7-0.9-1.1-1.3l-0.9-0.9h-0.2c-0.6-0.5-1-1.2-1.2-1.9c-0.3-0.5-0.4-1-0.4-1.5c-0.1-0.4-0.1-0.8,0-1.2
			c-0.1-0.6,0-1.3,0.3-1.8c0.2-0.5,0.5-0.9,0.9-1.3c0.4-0.4,0.8-0.6,1.3-0.8c0.5-0.3,1-0.6,1.6-0.8l1.6-0.2l1.5,0.2l0.8,0.3
			c0.9,0.3,1.7,0.7,2.6,1.1c1.2,0.5,2.4,1.3,3.4,2.2c0.8,0.8,1.5,1.8,2.2,2.7c0.5,0.6,0.9,1.4,1.1,2.1c0.3,1.2,0.3,2.5,0,3.7
			c0,0.1,0,0.2,0,0.3c-0.3,1-0.8,1.9-1.5,2.6l-1.2,0.9c-0.6,0.4-1.4,0.7-2.2,0.7c-0.8,0.2-1.6,0.2-2.3,0c-0.6-0.3-1.1-0.6-1.6-1.1
			L300.3,346.6z M332,396c-0.6,2.1-1.7,4-3.2,5.6l-2.6,2c-3,1.6-6.5,2-9.8,1.3c-1.6-0.4-3.1-1.2-4.3-2.3c-1.4-0.9-2.5-2.2-3.3-3.7
			c-0.6-1.1-1.2-2.2-1.8-3.3c-0.9-1.7-1.7-3.5-2.4-5.3c0-0.4-0.3-0.8-0.5-1.3c-0.2-0.7-0.4-1.3-0.5-2c0-0.5-0.3-0.9-0.4-1.4
			c-0.6-1.7-1-3.4-1-5.2c0-0.9,0.1-1.8,0.3-2.6c-0.1-0.5-0.1-1.1,0-1.7c0-1.3,0.4-2.6,1.1-3.7l1.5-2l1.9-1.5
			c1.1-0.7,2.4-1.1,3.7-1.1c0.9-0.2,1.8-0.2,2.6,0c1.3,0.1,2.6,0.5,3.7,1.1l1.3,1c0.4,0.1,0.7,0.3,1.1,0.4l2.3,1.8
			c0.8,0.6,1.5,1.5,1.9,2.4l0.4,0.5l0.4,0.5l0.3,0.3c0.8,0.8,1.5,1.7,2.1,2.8c0.1,0.2,0.3,0.4,0.4,0.6l0.7,1.2
			c0.4,0.7,0.8,1.5,1.2,2.2l1.6,3.3c1.1,1.9,1.7,4.2,1.7,6.4c-0.3,1.2-0.5,2.3-0.7,3.4L332,396z"/>
		<path class="st1" d="M643.6,437.8"/>
	</g>
</g>
</svg>
