<?xml version="1.0" encoding="utf-8"?>
<!-- Generator: Adobe Illustrator 23.1.0, SVG Export Plug-In . SVG Version: 6.00 Build 0)  -->
<svg version="1.1" id="Слой_1" xmlns="http://www.w3.org/2000/svg" xmlns:xlink="http://www.w3.org/1999/xlink" x="0px" y="0px"
	 viewBox="0 0 597 392" style="enable-background:new 0 0 597 392;" xml:space="preserve">
<style type="text/css">
	.st0{clip-path:url(#SVGID_2_);}
	.st1{fill:#5B78CB;}
</style>
<g>
	<defs>
		<rect id="SVGID_1_" width="596.7" height="392"/>
	</defs>
	<clipPath id="SVGID_2_">
		<use xlink:href="#SVGID_1_"  style="overflow:visible;"/>
	</clipPath>
	<g class="st0">
		<path class="st1" d="M267.4,416.6c5.2-36.4-147.1-199.5-52.4-219.4c17.1-3.5,30,12.7,37.8,25.6c7.6,13.4,13.5,27.8,17.3,42.8
			c4.3,15.3,8.4,30.7,12.3,46.1c1.1,4.6,2.2,9.1,3.3,13.6c-3.6-15.4,14.3-46.3,16.9-62.7c1.9-11.7,1.1-24,2.9-35.8
			c4.4-28.6,12.1-56.6,23-83.4c17.3-42.9,53.6-110.9,110.8-92.9c19.4,6.2,27.6,26.8,22.9,45.9c-3.1,12.3-10.4,23.2-17.6,33.6
			c-31,44.5-65.1,86.2-98.1,129.1c-29.3,38-28.1,78.8-48.8,119l5.4-9.8c5.4-9.6,11.2-18.6,17.3-27.6c12.6-18.3,26.3-35.9,41-52.5
			c15.5-17.6,131.7-136,146.6-63.8c4.6,22.4-26.8,57.7-41.3,71.9c-29.5,28.9-66.8,48.1-102.8,67.5c-16.1,8.6-68.8,27.3-72.2,48.3
			L267.4,416.6z"/>
	</g>
</g>
</svg>
