<svg width="2600" height="1200" viewBox="0 0 2600 1200" fill="none" xmlns="http://www.w3.org/2000/svg">
<path d="M2408.79 22.0234C2456.29 -11.2293 2521.76 0.326904 2555.02 47.8351C2588.27 95.3437 2576.71 160.814 2529.21 194.067C2184.57 435.29 1896.45 453.394 1684.47 443.926C1634.89 441.712 1584.78 437.686 1547.83 435.51C1507.67 433.144 1478.07 432.568 1454.64 434.847C1431.7 437.078 1421.43 441.507 1416.77 444.399C1413.73 446.285 1408.12 450.339 1401.58 465.073L1401.1 466.177C1398.88 471.458 1399.26 473.298 1401.37 478.004C1405.56 487.322 1417.88 504.515 1447.72 527.321C1507.64 573.106 1607.74 618.787 1732.11 659.972C1978.31 741.498 2279.88 792.802 2432.21 803.293L2433.56 803.395C2490.74 808.062 2533.7 857.859 2529.75 915.26C2525.76 973.113 2475.63 1016.78 2417.78 1012.8L2413.79 1012.52C2243.59 1000.29 1927.56 945.909 1666.09 859.326C1535.61 816.116 1408.54 761.667 1320.22 694.186C1275.95 660.359 1233.89 617.634 1209.82 564.075C1184.02 506.669 1182.01 443.139 1209.02 381.279L1209.66 379.818C1231.01 331.754 1262.68 292.881 1306.02 265.978C1347.74 240.081 1392.95 229.857 1434.31 225.834C1475.17 221.86 1518.69 223.43 1560.18 225.873C1604.89 228.507 1644.97 231.952 1693.84 234.135C1875.65 242.255 2113.42 228.759 2408.79 22.0234Z" fill="#FF6A9B"/>
<path d="M1028.95 580.635C1083.61 608.629 1137 641.607 1177.6 683.256C1220.13 726.88 1252.32 784.171 1252.32 855.557L1252.31 858.494C1251.85 920.127 1236.74 977.628 1201.03 1025.38C1164.98 1073.6 1115.78 1101.34 1066.71 1117.18C974.864 1146.83 859.069 1141.77 757.69 1134.53C647.512 1126.68 543.664 1115.05 445.796 1117.32C347.465 1119.59 278.851 1136.21 235.614 1168.33C189.063 1202.91 123.293 1193.21 88.7119 1146.66C54.1313 1100.11 63.8352 1034.34 110.386 999.757C207.149 927.876 330.326 909.935 440.931 907.372C551.998 904.798 674.23 918.048 772.632 925.067C879.832 932.714 955.119 932.532 1002.21 917.334C1022.6 910.752 1029.84 903.644 1032.85 899.623C1035.6 895.943 1042.11 885.158 1042.32 856.915L1042.32 855.557C1042.32 852.693 1042.35 845.348 1027.24 829.85C1010.2 812.378 980.477 791.748 933.222 767.545C837.311 718.421 711.947 674.464 556.204 609.517L548.765 606.408C412.802 549.474 272.991 509.389 189.918 488.468C186.403 488.091 182.873 487.533 179.34 486.788L170.287 484.868C149.929 480.523 134.903 477.123 124.799 474.672C119.692 473.433 113.623 471.908 108.525 470.343C107.182 469.93 104.503 469.089 101.333 467.897C99.8028 467.321 96.8979 466.196 93.3858 464.548C91.8104 463.809 81.8795 459.301 71.2911 450.631C66.9754 447.097 52.1997 434.769 42.2313 412.892C37.9516 401.905 32.9872 375.998 33.0804 361.355C35.482 345.654 46.4937 317.445 54.5012 305.378C73.9661 280.028 98.6208 271.658 105.073 269.54C114.575 266.422 122.425 265.37 126.057 264.958C133.695 264.092 139.744 264.277 141.756 264.347C144.557 264.443 146.843 264.632 148.232 264.761C158.587 265.723 174.074 269.066 184.489 271.351C198.551 274.438 217.251 278.809 239.579 284.416C328.256 306.686 479.916 349.909 629.877 412.705L636.518 415.48C776.108 473.658 924.228 526.995 1028.95 580.635Z" fill="#FF6A9B"/>
</svg>
