<svg width="101" height="101" viewBox="0 0 101 101" fill="none" xmlns="http://www.w3.org/2000/svg">
<mask id="mask0_3006_11166" style="mask-type:alpha" maskUnits="userSpaceOnUse" x="31" y="36" width="38" height="33">
<path fill-rule="evenodd" clip-rule="evenodd" d="M37.5118 37.1394C38.7597 36.5903 40.1048 36.3047 41.4685 36.3047C42.8322 36.3047 44.1773 36.5903 45.4251 37.1394C46.6723 37.6881 47.7926 38.4868 48.7277 39.4801C49.2981 40.086 50.2889 40.086 50.8592 39.4801C52.7496 37.472 55.356 36.3047 58.1184 36.3047C60.8809 36.3047 63.4873 37.472 65.3776 39.4801C67.2624 41.4822 68.2935 44.1625 68.2935 46.9242C68.2935 49.686 67.2624 52.3663 65.3776 54.3684L53.911 66.5491C51.7074 68.8899 47.8795 68.8899 45.6759 66.5491L34.2093 54.3684C33.2746 53.3754 32.5417 52.2061 32.0446 50.9312C31.5475 49.6563 31.2935 48.2953 31.2935 46.9242C31.2935 45.5532 31.5475 44.1922 32.0446 42.9173C32.5417 41.6424 33.2746 40.473 34.2093 39.4801C35.1444 38.4868 36.2647 37.6881 37.5118 37.1394Z" fill="white"/>
</mask>
<g mask="url(#mask0_3006_11166)">
<mask id="mask1_3006_11166" style="mask-type:luminance" maskUnits="userSpaceOnUse" x="28" y="36" width="44" height="33">
<rect x="28.9595" y="36.3047" width="42.6667" height="32" fill="white"/>
</mask>
<g mask="url(#mask1_3006_11166)">
<path fill-rule="evenodd" clip-rule="evenodd" d="M56.292 36.3047H69.6253V68.3047H56.292V36.3047Z" fill="#F50100"/>
<path fill-rule="evenodd" clip-rule="evenodd" d="M28.959 36.3047H44.959V68.3047H28.959V36.3047Z" fill="#2E42A5"/>
<path fill-rule="evenodd" clip-rule="evenodd" d="M43.001 34H57.001V70H43.001V34Z" fill="#F7FCFF"/>
</g>
<rect x="28.96" y="36.3047" width="42.6667" height="32" fill="url(#paint0_linear_3006_11166)" style="mix-blend-mode:overlay"/>
</g>
<path d="M10.3359 50.0957C10.3359 28.0043 28.2446 10.0957 50.3359 10.0957C72.4273 10.0957 90.3359 28.0043 90.3359 50.0957C90.3359 72.1871 72.4273 90.0957 50.3359 90.0957C28.2445 90.0957 10.3359 72.1871 10.3359 50.0957Z" stroke="white" stroke-opacity="0.2" stroke-width="20"/>
<path d="M15.0173 49.6582L5.32203 48.2291L6.62458 39.3926L16.3198 40.8217L15.9911 43.0516L7.61166 41.8165L8.19966 41.3795L7.40343 46.7812L6.96651 46.1932L15.346 47.4283L15.0173 49.6582Z" fill="white"/>
<path d="M16.802 39.1588L7.92461 35.0076L9.7215 31.1649C10.0931 30.3702 10.5444 29.7467 11.0753 29.2943C11.5978 28.838 12.1732 28.5661 12.8014 28.4786C13.4296 28.3912 14.0776 28.5036 14.7455 28.8159C15.405 29.1243 15.9025 29.5476 16.2382 30.0858C16.5738 30.6239 16.7382 31.2418 16.7315 31.9392C16.7163 32.6328 16.5229 33.3769 16.1512 34.1716L14.8881 36.8729L14.3893 35.5269L17.7627 37.1043L16.802 39.1588ZM14.6176 35.6336L13.2141 36.0901L14.4238 33.5029C14.7204 32.8689 14.8065 32.3321 14.6822 31.8928C14.558 31.4535 14.2549 31.1211 13.773 30.8958C13.2826 30.6665 12.829 30.645 12.4122 30.8313C11.9953 31.0176 11.6387 31.4278 11.3421 32.0619L10.1324 34.649L9.58283 33.2793L14.6176 35.6336Z" fill="white"/>
<path d="M24.1376 27.135C23.6184 27.7099 23.0432 28.1588 22.412 28.4817C21.7871 28.7977 21.1423 28.9825 20.4776 29.0362C19.8192 29.0829 19.1707 29.0003 18.5321 28.7883C17.8998 28.5694 17.3135 28.216 16.7732 27.7281C16.2329 27.2401 15.8217 26.6928 15.5397 26.0859C15.264 25.4722 15.119 24.832 15.1049 24.1653C15.0908 23.4986 15.2092 22.8383 15.46 22.1845C15.7109 21.5308 16.0928 20.9199 16.6058 20.3519C17.125 19.777 17.6939 19.335 18.3125 19.026C18.9375 18.71 19.5791 18.5286 20.2376 18.4819C20.9023 18.4282 21.5539 18.5074 22.1925 18.7194C22.8241 18.9251 23.4136 19.275 23.9608 19.7692C24.5011 20.2572 24.9125 20.8111 25.1952 21.4311C25.471 22.0449 25.6159 22.6851 25.63 23.3518C25.6435 24.0053 25.5248 24.659 25.2739 25.3127C25.0293 25.9596 24.6505 26.567 24.1376 27.135ZM22.6944 25.8505C22.9884 25.5249 23.2019 25.177 23.3351 24.8068C23.4745 24.4297 23.5341 24.0433 23.514 23.6479C23.4938 23.2524 23.3918 22.871 23.2079 22.5037C23.0302 22.1295 22.7682 21.786 22.4219 21.4732C22.0756 21.1604 21.7072 20.9347 21.3169 20.796C20.9328 20.6503 20.543 20.5876 20.1476 20.6077C19.7584 20.6209 19.3832 20.716 19.0222 20.893C18.6611 21.07 18.3336 21.3212 18.0396 21.6468C17.7456 21.9723 17.5289 22.3237 17.3895 22.7009C17.2563 23.0711 17.1998 23.4539 17.22 23.8494C17.2401 24.2449 17.339 24.6297 17.5167 25.004C17.7006 25.3713 17.9657 25.7113 18.312 26.0241C18.6514 26.3306 19.0167 26.5598 19.4077 26.7117C19.798 26.8504 20.1878 26.9132 20.577 26.9C20.9725 26.8798 21.3507 26.7813 21.7118 26.6043C22.0728 26.4273 22.4003 26.1761 22.6944 25.8505Z" fill="white"/>
<path d="M28.7741 22.117L23.8831 13.6248L25.8363 12.4999L29.0224 18.0319L29.8883 10.1662L31.7324 9.10412L36.6233 17.5964L34.6823 18.7143L31.5031 13.1943L30.6302 21.048L28.7741 22.117Z" fill="white"/>
<path d="M37.0732 16.4327L37.3573 14.6872C37.8259 14.8295 38.3081 14.9107 38.8039 14.9307C39.3064 14.9394 39.7818 14.8972 40.2299 14.8041C40.6848 14.6997 41.0809 14.5523 41.418 14.3619C41.7643 14.1692 42.021 13.9461 42.1884 13.6925C42.3648 13.4365 42.4144 13.1547 42.3372 12.8469C42.2464 12.4848 42.0301 12.2551 41.6882 12.158C41.3441 12.0519 40.923 12.0612 40.4251 12.186L38.103 12.7682L37.6876 11.1115L39.8468 10.5702C40.2904 10.459 40.6117 10.2822 40.8107 10.0398C41.0188 9.79521 41.0832 9.51447 41.0037 9.19761C40.9356 8.92602 40.7906 8.73144 40.5687 8.61388C40.3445 8.48726 40.0638 8.42294 39.7265 8.4209C39.3983 8.4166 39.0406 8.46777 38.6536 8.57442C38.2666 8.68107 37.8796 8.84545 37.4927 9.06755C37.1057 9.28965 36.7483 9.55248 36.4202 9.85603L35.3292 8.32539C35.8654 7.85419 36.4582 7.47463 37.1077 7.1867C37.764 6.88746 38.4169 6.69008 39.0665 6.59457C39.7229 6.48773 40.3386 6.48732 40.9137 6.59332C41.4865 6.69028 41.9733 6.88576 42.3741 7.17976C42.775 7.47377 43.039 7.87426 43.1661 8.38124C43.2796 8.83389 43.2629 9.26626 43.116 9.67835C42.9692 10.0904 42.7068 10.4449 42.329 10.7417C41.9602 11.0362 41.5042 11.2516 40.961 11.3877L40.8928 10.8852C41.5265 10.7264 42.1015 10.6977 42.6177 10.7992C43.1406 10.8894 43.5765 11.0928 43.9253 11.4095C44.2809 11.7149 44.52 12.112 44.6426 12.6008C44.7561 13.0535 44.736 13.4915 44.5824 13.9149C44.4355 14.327 44.1845 14.7075 43.8293 15.0563C43.4742 15.4052 43.0443 15.7054 42.5396 15.957C42.035 16.2086 41.4771 16.4014 40.866 16.5354C40.264 16.6671 39.6404 16.732 38.9953 16.7302C38.3478 16.7193 37.7072 16.6201 37.0732 16.4327Z" fill="white"/>
<path d="M46.775 15.0207L46.9641 5.22254L51.5273 5.31062C52.6657 5.33259 53.548 5.56899 54.1741 6.01983C54.8001 6.47066 55.1053 7.102 55.0897 7.91385C55.0742 8.71637 54.7635 9.33582 54.1576 9.77221C53.552 10.1993 52.7545 10.4032 51.7654 10.3842L52.0427 9.8014C53.1438 9.82265 53.9934 10.0584 54.5915 10.5087C55.1896 10.959 55.4806 11.5994 55.4646 12.4299C55.448 13.2884 55.1084 13.9587 54.4456 14.4406C53.7924 14.9135 52.8452 15.1379 51.6041 15.1139L46.775 15.0207ZM49.061 13.3845L51.5525 13.4326C52.0751 13.4427 52.4737 13.3477 52.7482 13.1476C53.0228 12.9476 53.1642 12.6329 53.1725 12.2037C53.1805 11.7931 53.051 11.4872 52.7842 11.286C52.5175 11.0755 52.1229 10.9652 51.6003 10.9551L49.1088 10.907L49.061 13.3845ZM49.1393 9.32528L51.2529 9.36608C51.7475 9.37562 52.1227 9.28485 52.3784 9.09375C52.6343 8.89331 52.7661 8.59714 52.7736 8.20521C52.7812 7.81328 52.6609 7.5169 52.4127 7.31608C52.1647 7.10592 51.7934 6.99607 51.2989 6.98652L49.1853 6.94572L49.1393 9.32528Z" fill="white"/>
<path d="M60.1052 10.3863L64.6398 11.6893L64.1526 13.3847L59.6181 12.0817L60.1052 10.3863ZM59.1532 14.3079L64.2798 15.781L63.7772 17.5302L56.4843 15.4347L59.1906 6.01578L66.3086 8.06104L65.806 9.81026L60.8544 8.38748L59.1532 14.3079Z" fill="white"/>
<path d="M70.796 20.4344L74.5452 14.5895L71.717 12.7754L70.9107 13.9547C70.5595 14.4502 70.2143 14.9107 69.8749 15.3361C69.5433 15.7666 69.2134 16.1427 68.8851 16.4643C68.5618 16.7781 68.2464 17.0193 67.9387 17.1878C67.6388 17.3614 67.3515 17.4377 67.0767 17.4167L65.2043 15.8498C65.4821 16.039 65.7768 16.0895 66.0886 16.0011C66.4081 15.9178 66.7413 15.7268 67.0881 15.4281C67.44 15.1216 67.8008 14.732 68.1704 14.2595C68.5479 13.7919 68.9374 13.2711 69.3389 12.6971L71.0885 10.1768L77.4284 14.2434L72.6815 21.6438L70.796 20.4344ZM62.8395 18.9401L64.9451 15.6835L74.2899 21.6775L72.1961 24.9417L70.4285 23.8079L71.5245 22.0992L65.7032 18.3652L64.6071 20.0739L62.8395 18.9401Z" fill="white"/>
<path d="M80.0952 22.0632L83.1932 25.6216L81.8627 26.7799L78.7647 23.2215L80.0952 22.0632ZM77.1645 24.8375L80.667 28.8604L79.2943 30.0555L74.3118 24.3325L81.7031 17.8976L86.5661 23.4833L85.1934 24.6783L81.8104 20.7926L77.1645 24.8375Z" fill="white"/>
<path d="M91.7119 32.7791L92.6802 34.83L83.8184 39.0142L82.85 36.9633L91.7119 32.7791ZM80.9492 32.9375L79.9809 30.8866L88.8427 26.7024L89.8111 28.7533L80.9492 32.9375ZM86.5551 35.3997L84.5108 31.0701L86.2452 30.2512L88.2895 34.5808L86.5551 35.3997Z" fill="white"/>
<path d="M84.8111 45.0553C84.7129 44.2869 84.7467 43.5581 84.9126 42.8688C85.0798 42.1888 85.3594 41.5791 85.7515 41.0397C86.1447 40.5095 86.6297 40.0711 87.2064 39.7245C87.7843 39.3872 88.4343 39.1724 89.1564 39.08C89.8786 38.9877 90.5617 39.0321 91.2059 39.2132C91.8512 39.4036 92.4315 39.7105 92.9467 40.1339C93.4619 40.5573 93.8859 41.0771 94.2187 41.6932C94.5515 42.3093 94.7664 42.9969 94.8635 43.756C94.9617 44.5244 94.9267 45.244 94.7584 45.9148C94.5913 46.5948 94.3111 47.1999 93.9178 47.73C93.5257 48.2695 93.0413 48.7125 92.4646 49.0591C91.8972 49.4045 91.2478 49.6239 90.5164 49.7174C89.7943 49.8098 89.1059 49.7613 88.4513 49.5722C87.806 49.3818 87.2257 49.0749 86.7105 48.6515C86.2057 48.2361 85.787 47.7204 85.4541 47.1043C85.1225 46.4975 84.9082 45.8145 84.8111 45.0553ZM86.7257 44.7964C86.7814 45.2316 86.9063 45.6202 87.1006 45.9623C87.2961 46.3137 87.5504 46.6105 87.8637 46.8527C88.1769 47.095 88.5328 47.2659 88.9313 47.3655C89.331 47.4743 89.7623 47.4992 90.2252 47.44C90.6881 47.3808 91.0993 47.2483 91.4588 47.0423C91.8194 46.8457 92.1208 46.5907 92.3631 46.2775C92.6065 45.9735 92.7786 45.6269 92.8794 45.2376C92.9802 44.8484 93.0027 44.4362 92.9471 44.001C92.8915 43.5659 92.7659 43.1727 92.5704 42.8213C92.3762 42.4792 92.1224 42.187 91.8091 41.9448C91.4959 41.7025 91.1394 41.527 90.7397 41.4181C90.3412 41.3185 89.9105 41.2983 89.4476 41.3575C88.994 41.4155 88.5822 41.5434 88.2123 41.7412C87.8528 41.9472 87.5514 42.2021 87.308 42.5061C87.0658 42.8193 86.8943 43.1706 86.7935 43.5599C86.6927 43.9491 86.6701 44.3613 86.7257 44.7964Z" fill="white"/>
<path d="M6.14235 57.8281L15.5714 55.1574L16.8152 59.5486C17.1255 60.6442 17.1561 61.5571 16.907 62.2873C16.6579 63.0174 16.1427 63.4932 15.3615 63.7145C14.5892 63.9332 13.9061 63.8163 13.3123 63.3636C12.7274 62.9084 12.3002 62.2049 12.0306 61.253L12.6688 61.3487C12.969 62.4084 12.9907 63.2898 12.7339 63.9931C12.4772 64.6963 11.9492 65.1611 11.15 65.3875C10.3238 65.6215 9.58374 65.4916 8.92975 64.9978C8.28728 64.5104 7.79691 63.6696 7.45862 62.4752L6.14235 57.8281ZM8.37302 59.5389L9.05214 61.9366C9.19458 62.4395 9.40146 62.7931 9.67278 62.9976C9.94411 63.2021 10.2863 63.2458 10.6994 63.1288C11.0945 63.0169 11.3495 62.804 11.4643 62.4902C11.5881 62.1738 11.5788 61.7642 11.4363 61.2613L10.7572 58.8636L8.37302 59.5389ZM12.2794 58.4325L12.8555 60.4665C12.9903 60.9424 13.1863 61.2749 13.4436 61.464C13.7098 61.6505 14.0315 61.6903 14.4087 61.5835C14.7858 61.4766 15.0343 61.2753 15.1543 60.9794C15.2831 60.681 15.2802 60.2938 15.1454 59.8179L14.5693 57.7839L12.2794 58.4325Z" fill="white"/>
<path d="M12.4105 73.7946C11.9874 73.1457 11.7005 72.4748 11.5498 71.7821C11.4041 71.0971 11.3904 70.4265 11.5085 69.7702C11.6317 69.1217 11.8774 68.5159 12.2456 67.9527C12.619 67.3974 13.1106 66.921 13.7204 66.5235C14.3303 66.1259 14.9646 65.8684 15.6234 65.751C16.2872 65.6414 16.9432 65.665 17.5914 65.8218C18.2395 65.9787 18.8476 66.2619 19.4154 66.6717C19.9833 67.0814 20.4762 67.6068 20.8941 68.248C21.3172 68.8969 21.599 69.56 21.7395 70.2371C21.8852 70.922 21.8964 71.5887 21.7732 72.2372C21.6551 72.8936 21.4119 73.5033 21.0437 74.0664C20.6833 74.6244 20.1942 75.1048 19.5765 75.5074C18.9666 75.9049 18.3259 76.1611 17.6542 76.2758C16.9903 76.3854 16.3343 76.3618 15.6862 76.205C15.0509 76.0508 14.4494 75.7689 13.8815 75.3592C13.3187 74.9573 12.8284 74.4358 12.4105 73.7946ZM14.0213 72.7279C14.2609 73.0954 14.5426 73.3908 14.8664 73.6142C15.1954 73.8454 15.5536 74.0019 15.9411 74.0835C16.3286 74.1652 16.7234 74.1641 17.1255 74.0803C17.5327 74.0042 17.9318 73.8388 18.3227 73.584C18.7137 73.3291 19.0261 73.0308 19.26 72.6889C19.4991 72.3548 19.6594 71.994 19.7411 71.6066C19.8278 71.2269 19.8318 70.84 19.7531 70.4457C19.6743 70.0514 19.5152 69.6705 19.2756 69.303C19.0361 68.9355 18.7518 68.6361 18.4229 68.4049C18.099 68.1815 17.7433 68.029 17.3559 67.9473C16.9684 67.8657 16.571 67.8628 16.1638 67.9389C15.7617 68.0228 15.3652 68.1921 14.9742 68.4469C14.5911 68.6967 14.2761 68.9911 14.0293 69.3303C13.7953 69.6722 13.635 70.0329 13.5482 70.4126C13.4666 70.8 13.4651 71.1909 13.5439 71.5852C13.6226 71.9795 13.7818 72.3604 14.0213 72.7279Z" fill="white"/>
<path d="M27.4753 87.5683C26.3824 86.9227 25.5397 86.2298 24.9472 85.4895C24.3627 84.754 24.035 83.9967 23.9641 83.2176C23.8979 82.4306 24.0997 81.6392 24.5697 80.8437C25.0397 80.0481 25.6329 79.4934 26.3495 79.1796C27.0708 78.8577 27.8946 78.7753 28.8209 78.9322C29.7552 79.0939 30.7688 79.4975 31.8617 80.1432C31.8777 80.1526 31.9219 80.1788 31.9943 80.2215C32.0746 80.269 32.151 80.3141 32.2233 80.3568C32.3036 80.4042 32.3478 80.4304 32.3559 80.4351C33.4407 81.076 34.2714 81.7618 34.8478 82.4926C35.4323 83.2281 35.7536 83.987 35.8118 84.7694C35.8699 85.5517 35.6664 86.3366 35.2012 87.1242C34.7407 87.9036 34.1515 88.4607 33.4335 88.7954C32.7282 89.1267 31.9205 89.2187 31.0103 89.0712C30.1081 88.9285 29.1267 88.5439 28.0659 87.9172C28.0418 87.903 27.9856 87.8698 27.8972 87.8176C27.8088 87.7653 27.7204 87.7131 27.632 87.6609C27.5516 87.6134 27.4994 87.5826 27.4753 87.5683ZM28.5462 86.1684C28.5703 86.1826 28.6024 86.2016 28.6426 86.2254C28.6828 86.2491 28.7109 86.2657 28.727 86.2752C29.4663 86.712 30.1245 86.9924 30.7016 87.1165C31.2915 87.2373 31.8019 87.2082 32.2329 87.0292C32.6686 86.8421 33.0336 86.4995 33.3279 86.0013C33.6222 85.503 33.7398 85.0196 33.6806 84.551C33.6213 84.0824 33.3957 83.6294 33.0038 83.1919C32.6246 82.7511 32.0734 82.317 31.3502 81.8898C31.3341 81.8803 31.302 81.8613 31.2537 81.8328C31.2136 81.8091 31.1774 81.7877 31.1453 81.7688C30.3818 81.3178 29.7059 81.0215 29.1175 80.8798C28.5291 80.7382 28.013 80.7585 27.5693 80.9408C27.1303 81.1151 26.7612 81.4554 26.4622 81.9616C26.1631 82.4679 26.0488 82.9641 26.1194 83.4502C26.1947 83.9283 26.434 84.3949 26.8372 84.8499C27.2533 85.3017 27.823 85.7412 28.5462 86.1684ZM26.2662 88.0736L31.6851 78.9006L33.4811 79.9616L28.0623 89.1346L26.2662 88.0736Z" fill="white"/>
<path d="M36.533 92.6583L38.6622 83.0924L42.8028 84.014C43.6592 84.2046 44.3657 84.5101 44.9224 84.9304C45.4811 85.3416 45.8711 85.8443 46.0926 86.4387C46.3141 87.033 46.3448 87.69 46.1846 88.4097C46.0264 89.1203 45.721 89.6978 45.2683 90.142C44.8157 90.5863 44.2482 90.8807 43.5658 91.0252C42.8855 91.1607 42.1171 91.1331 41.2607 90.9424L38.3499 90.2946L39.5559 89.516L38.7468 93.151L36.533 92.6583ZM39.5012 89.762L38.7514 88.4907L41.5392 89.1112C42.2225 89.2633 42.7651 89.2311 43.1671 89.0146C43.5691 88.7981 43.8279 88.4302 43.9434 87.9109C44.0611 87.3825 43.9838 86.935 43.7116 86.5684C43.4394 86.2019 42.9616 85.9426 42.2784 85.7905L39.4906 85.17L40.7087 84.3367L39.5012 89.762Z" fill="white"/>
<path d="M47.7731 94.9893L51.4506 84.9098L53.6852 84.7544L58.7366 94.2267L56.3624 94.3919L52.1867 86.0094L53.0805 85.9472L50.0915 94.828L47.7731 94.9893ZM49.8061 92.7428L50.2872 90.9832L55.3151 90.6335L56.0491 92.3086L49.8061 92.7428Z" fill="white"/>
<path d="M65.2719 81.7552L67.3831 80.9267L70.9632 90.0494L68.8519 90.8779L65.2719 81.7552ZM64.7076 92.5043L62.5964 93.3328L59.0163 84.2101L61.1276 83.3816L64.7076 92.5043ZM67.5405 87.0763L63.0834 88.8254L62.3827 87.0399L66.8398 85.2908L67.5405 87.0763Z" fill="white"/>
<path d="M74.8482 87.9854L68.6587 80.3873L70.4063 78.9638L75.4286 85.129L78.8152 82.3703L73.7928 76.205L75.5404 74.7814L81.7299 82.3795L74.8482 87.9854ZM82.5066 84.4192L80.862 82.4003L81.5779 82.5033L79.9823 83.803L78.8152 82.3703L81.6481 80.0625L84.1239 83.1017L82.5066 84.4192Z" fill="white"/>
<path d="M85.8204 78.1202L77.591 72.7988L78.8149 70.906L84.1758 74.3725L81.3539 66.9794L82.5094 65.1925L90.7388 70.5138L89.5225 72.3948L84.1734 68.936L86.9835 76.3214L85.8204 78.1202Z" fill="white"/>
<path d="M92.675 66.4166L83.2359 63.7816L83.8419 61.6106L89.9909 63.3271L85.0992 57.1068L85.6713 55.0572L95.1105 57.6921L94.5082 59.8496L88.3728 58.1369L93.251 64.3534L92.675 66.4166Z" fill="white"/>
<defs>
<linearGradient id="paint0_linear_3006_11166" x1="50.2933" y1="36.3047" x2="50.2933" y2="68.3047" gradientUnits="userSpaceOnUse">
<stop stop-color="white" stop-opacity="0.7"/>
<stop offset="1" stop-opacity="0.3"/>
</linearGradient>
</defs>
</svg>
