<svg width="126" height="126" viewBox="0 0 126 126" fill="none" xmlns="http://www.w3.org/2000/svg">
<circle cx="63.1914" cy="62.5469" r="48" stroke="#ECF3F9" stroke-width="28"/>
<path d="M18.9217 55.3558L12.3155 54.5112L11.8476 58.1714L13.3762 58.4213C13.9207 58.5151 14.4458 58.6185 14.9516 58.7316C15.4454 58.8431 15.8998 58.9798 16.3146 59.1417C16.7175 59.3021 17.0429 59.501 17.2908 59.7383C17.5387 59.9757 17.683 60.2663 17.7237 60.6103L17.1014 62.7809C17.1471 62.4238 17.0705 62.1237 16.8717 61.8805C16.6626 61.6239 16.3633 61.4102 15.9738 61.2394C15.5739 61.0552 15.1159 60.8999 14.5998 60.7734C14.0718 60.6454 13.5236 60.533 12.9553 60.4362L9.70386 59.8934L10.7082 52.0374L19.2071 53.1239L18.9217 55.3558ZM21.0753 63.6337L17.058 63.1201L18.5304 51.6039L22.5477 52.1175L22.2806 54.2065L20.1559 53.9348L19.2154 61.2909L21.3401 61.5626L21.0753 63.6337Z" fill="#29366B"/>
<path d="M22.5062 46.8243C22.1433 47.7389 21.625 48.4757 20.9514 49.0347C20.2666 49.5892 19.4966 49.9357 18.6413 50.074C17.786 50.2123 16.9177 50.1067 16.0366 49.757C15.1442 49.403 14.4397 48.8847 13.9231 48.202C13.3953 47.5149 13.0778 46.737 12.9706 45.8682C12.8635 44.9995 12.9913 44.1078 13.3542 43.1931C13.7215 42.2673 14.242 41.525 14.9156 40.966C15.5937 40.3959 16.3526 40.045 17.1923 39.9134C18.0364 39.7707 18.9102 39.8785 19.8137 40.237C20.6949 40.5866 21.3994 41.1049 21.9272 41.792C22.4595 42.468 22.7825 43.2481 22.8964 44.1324C23.0036 45.0012 22.8735 45.8985 22.5062 46.8243ZM20.7159 46.114C20.9195 45.6009 20.9894 45.0993 20.9257 44.6092C20.8619 44.1192 20.6623 43.6785 20.327 43.2873C19.9961 42.8849 19.5462 42.5708 18.9773 42.3451C18.3973 42.115 17.8545 42.0352 17.3488 42.1057C16.8365 42.1606 16.3891 42.3446 16.0067 42.6576C15.6243 42.9706 15.3335 43.3781 15.1344 43.8801C14.9308 44.3932 14.8609 44.8947 14.9246 45.3848C14.9928 45.8637 15.1924 46.3043 15.5233 46.7068C15.8431 47.1047 16.293 47.4188 16.873 47.6489C17.4418 47.8746 17.9847 47.9544 18.5015 47.8884C19.0183 47.8223 19.4656 47.6383 19.8436 47.3364C20.226 47.0234 20.5168 46.6159 20.7159 46.114Z" fill="#29366B"/>
<path d="M26.8597 38.5819C26.4466 39.1862 25.9675 39.7381 25.4225 40.2377C24.8743 40.7206 24.304 41.1084 23.7115 41.401L22.685 39.9362C23.1671 39.6989 23.6335 39.3781 24.0842 38.974C24.5349 38.5698 24.9262 38.125 25.258 37.6396C25.5425 37.2235 25.7466 36.8398 25.8705 36.4884C25.9846 36.1303 26.0115 35.8144 25.9515 35.5408C25.8982 35.2572 25.7626 35.041 25.5446 34.892C25.2276 34.6753 24.8951 34.6514 24.5469 34.8205C24.1957 34.9728 23.8474 35.3016 23.502 35.8068L22.4557 37.3374L21.2075 36.4841L22.1522 35.1021C22.3689 34.7851 22.5171 34.494 22.5967 34.2286C22.6831 33.9534 22.6976 33.7089 22.6402 33.4952C22.5828 33.2815 22.46 33.1103 22.2717 32.9817C22.0835 32.853 21.8693 32.8155 21.629 32.8693C21.3856 32.9064 21.1378 33.035 20.8856 33.2551C20.6235 33.4684 20.3638 33.7633 20.1064 34.1397C19.8355 34.536 19.604 34.9809 19.4119 35.4746C19.2265 35.9584 19.079 36.4826 18.9692 37.0472L17.2771 36.5881C17.3946 35.9271 17.5564 35.3182 17.7626 34.7615C17.9657 34.188 18.2248 33.6601 18.5399 33.1779C19.0046 32.4344 19.5191 31.8412 20.0834 31.3985C20.6478 30.9557 21.2101 30.686 21.7704 30.5893C22.3307 30.4927 22.8387 30.6001 23.2944 30.9116C23.6708 31.169 23.9313 31.5215 24.0759 31.9692C24.2173 32.4002 24.2334 32.8763 24.1242 33.3976C24.0217 33.909 23.7944 34.4223 23.4422 34.9374L23.0816 34.6037C23.6844 33.722 24.3367 33.1505 25.0387 32.8891C25.7308 32.6209 26.379 32.6933 26.9833 33.1064C27.4688 33.4382 27.7879 33.8963 27.9409 34.4805C28.084 35.058 28.0631 35.7052 27.8784 36.422C27.7004 37.1288 27.3608 37.8488 26.8597 38.5819Z" fill="#29366B"/>
<path d="M29.8586 33.9395L23.3646 26.853L25.0234 25.3329L29.3041 30.0041L28.9383 21.7454L30.4511 20.359L36.9451 27.4455L35.2863 28.9656L31.0056 24.2944L31.3847 32.541L29.8586 33.9395Z" fill="#29366B"/>
<path d="M43.1355 24.0411C42.4443 24.4026 41.7282 24.5741 40.9872 24.5554C40.2567 24.5312 39.5545 24.2891 38.8806 23.829C38.2117 23.3528 37.6186 22.6203 37.1014 21.6314C36.5785 20.6319 36.3098 19.7297 36.2951 18.9248C36.291 18.1144 36.4901 17.4076 36.8924 16.8045C37.2891 16.1907 37.849 15.6947 38.572 15.3165C39.4121 14.8771 40.2456 14.6714 41.0727 14.6992C41.9105 14.7215 42.685 14.9596 43.3965 15.4135C44.1185 15.8619 44.7104 16.5274 45.172 17.41C45.6336 18.2926 45.8455 19.1636 45.8075 20.0231C45.7746 20.8664 45.5284 21.6384 45.0689 22.3392C44.62 23.0344 43.9755 23.6018 43.1355 24.0411ZM39.9744 29.4932L33.9009 17.8817L35.799 16.8889L36.8501 18.8986L37.971 21.1968L39.3152 23.3783L41.9681 28.4504L39.9744 29.4932ZM42.0195 22.4513C42.498 22.201 42.8677 21.8722 43.1287 21.4649C43.4002 21.052 43.542 20.5851 43.5539 20.0643C43.5659 19.5434 43.43 19.0118 43.1464 18.4695C42.8572 17.9166 42.498 17.5018 42.0689 17.2252C41.6343 16.9379 41.1699 16.788 40.6759 16.7756C40.1925 16.7576 39.7116 16.8737 39.2331 17.124C38.7546 17.3743 38.3795 17.7059 38.108 18.1188C37.8364 18.5317 37.6947 18.9985 37.6827 19.5194C37.6652 20.0296 37.801 20.5612 38.0902 21.1141C38.3739 21.6564 38.733 22.0712 39.1677 22.3585C39.6023 22.6458 40.0667 22.7956 40.5607 22.808C41.0547 22.8205 41.541 22.7016 42.0195 22.4513Z" fill="#29366B"/>
<path d="M52.7641 20.4802C51.8062 20.705 50.9053 20.7006 50.0617 20.4671C49.2153 20.2219 48.4911 19.7879 47.8889 19.165C47.2867 18.542 46.8773 17.7691 46.6608 16.8462C46.4415 15.9116 46.4644 15.0372 46.7295 14.2231C46.9918 13.3974 47.4489 12.6924 48.1007 12.1081C48.7524 11.5238 49.5573 11.1192 50.5153 10.8945C51.485 10.667 52.3916 10.67 53.2352 10.9035C54.0906 11.1342 54.8121 11.5566 55.3999 12.1706C55.9993 12.7818 56.4101 13.5606 56.6321 14.5069C56.8486 15.4298 56.8257 16.3042 56.5634 17.1299C56.3127 17.9529 55.857 18.6638 55.1963 19.2625C54.5445 19.8468 53.7338 20.2527 52.7641 20.4802ZM52.3242 18.6051C52.8616 18.479 53.3132 18.2498 53.679 17.9175C54.0448 17.5852 54.2924 17.1697 54.4219 16.6709C54.5631 16.1694 54.5638 15.6207 54.424 15.0249C54.2815 14.4174 54.0369 13.9263 53.6901 13.5516C53.3523 13.1624 52.9457 12.9004 52.4703 12.7654C51.9949 12.6304 51.4943 12.6246 50.9686 12.7479C50.4312 12.874 49.9796 13.1032 49.6139 13.4355C49.2598 13.7651 49.0121 14.1807 48.8709 14.6822C48.727 15.172 48.7263 15.7207 48.8688 16.3282C49.0086 16.924 49.2533 17.4151 49.6027 17.8015C49.9522 18.1879 50.3588 18.4499 50.8226 18.5877C51.298 18.7226 51.7985 18.7285 52.3242 18.6051Z" fill="#29366B"/>
<path d="M58.9813 19.1158L59.0926 9.50449L63.7903 9.55889C64.9542 9.57237 65.8637 9.79892 66.5186 10.2385C67.1856 10.6783 67.5145 11.2941 67.5053 12.0861C67.4963 12.866 67.1772 13.4744 66.5481 13.9111C65.9191 14.3359 65.0887 14.5423 64.0568 14.5303L64.3332 13.9755C65.4971 13.989 66.3586 14.2149 66.9175 14.6534C67.4886 15.0801 67.7695 15.7014 67.76 16.5173C67.7501 17.3693 67.4245 18.0315 66.7829 18.5041C66.1416 18.9647 65.1729 19.1875 63.877 19.1725L58.9813 19.1158ZM61.1422 17.5028L63.716 17.5326C64.3279 17.5397 64.791 17.449 65.1052 17.2606C65.4196 17.0603 65.5791 16.7561 65.5838 16.3481C65.5888 15.9161 65.4485 15.5965 65.1629 15.3892C64.8773 15.1819 64.4285 15.0747 63.8165 15.0676L61.1707 15.0369L61.1422 17.5028ZM61.188 13.543L63.5459 13.5703C64.1218 13.577 64.555 13.48 64.8453 13.2794C65.1478 13.0668 65.3013 12.7686 65.3057 12.3846C65.3103 11.9887 65.1637 11.6929 64.8659 11.4975C64.5802 11.3022 64.1493 11.2012 63.5734 11.1945L61.2155 11.1672L61.188 13.543Z" fill="#29366B"/>
<path d="M76.1354 21.1356L73.9065 15.8126L75.9656 15.1669L78.6995 21.7888L76.1354 21.1356ZM69.4548 19.4336L71.8277 10.1191L74.0081 10.6746L71.6351 19.9891L69.4548 19.4336ZM71.9407 16.0919L72.4029 14.2778L75.56 15.0821L75.0979 16.8962L71.9407 16.0919ZM75.8772 16.3889L73.8986 15.6248L78.5083 11.8211L80.8457 12.4165L75.8772 16.3889Z" fill="#29366B"/>
<path d="M84.7317 24.982L85.6327 23.2594L85.7129 22.8342L87.2897 19.8196C87.5956 19.2348 87.6565 18.6911 87.4725 18.1886C87.294 17.6754 86.8485 17.2325 86.1361 16.8599C85.6576 16.6096 85.1455 16.4365 84.5998 16.3407C84.0647 16.2504 83.5681 16.2547 83.1101 16.3537L83.0877 14.4935C83.7285 14.3817 84.407 14.4049 85.1234 14.5629C85.8559 14.7158 86.5625 14.9703 87.243 15.3262C88.4765 15.9714 89.2724 16.7669 89.6308 17.7128C90.0055 18.6535 89.8702 19.7407 89.225 20.9741L86.6138 25.9665L84.7317 24.982ZM81.9937 23.6921C81.3557 23.3584 80.8531 22.9601 80.4858 22.4971C80.1241 22.0235 79.9105 21.5258 79.8449 21.004C79.7954 20.4771 79.8987 19.9691 80.1545 19.4799C80.4048 19.0014 80.7417 18.6292 81.1652 18.3632C81.5994 18.1027 82.1354 17.9971 82.7732 18.0464C83.411 18.0956 84.1606 18.3455 85.0219 18.796L87.4941 20.0891L86.8017 21.4129L84.473 20.1949C83.7924 19.8389 83.2768 19.7114 82.9261 19.8124C82.5809 19.9027 82.3249 20.1073 82.1581 20.4263C81.969 20.7879 81.9623 21.15 82.1382 21.5129C82.3141 21.8757 82.6572 22.1906 83.1676 22.4576C83.6567 22.7134 84.1511 22.8298 84.6507 22.8067C85.1609 22.7892 85.6151 22.607 86.0133 22.26L85.7225 23.6314C85.2697 24.0311 84.7211 24.2384 84.0768 24.2535C83.443 24.2741 82.7487 24.087 81.9937 23.6921Z" fill="#29366B"/>
<path d="M91.3869 29.4956L98.3543 22.8739L101.591 26.2793C102.393 27.123 102.864 27.9329 103.006 28.7089C103.156 29.4936 102.943 30.1588 102.369 30.7044C101.804 31.2417 101.145 31.4372 100.394 31.2907C99.6507 31.136 98.9238 30.6846 98.2128 29.9366L98.8033 29.7479C99.6052 30.5916 100.044 31.3667 100.119 32.0731C100.212 32.78 99.962 33.4145 99.3705 33.9766C98.7529 34.5636 98.0511 34.7919 97.265 34.6615C96.4877 34.5229 95.6526 33.9839 94.7598 33.0445L91.3869 29.4956ZM94.0499 29.9198L95.8231 31.7856C96.2447 32.2292 96.6326 32.498 96.9867 32.5918C97.3495 32.6775 97.6787 32.5797 97.9745 32.2987C98.2876 32.0011 98.4189 31.6776 98.3684 31.3283C98.3179 30.979 98.0818 30.5826 97.6602 30.139L95.8374 28.221L94.0499 29.9198ZM96.9203 27.1918L98.5447 28.901C98.9415 29.3185 99.3131 29.5614 99.6594 29.6296C100.023 29.6983 100.343 29.6003 100.622 29.3358C100.909 29.063 101.019 28.7517 100.951 28.402C100.892 28.061 100.664 27.6817 100.267 27.2642L98.6426 25.555L96.9203 27.1918Z" fill="#29366B"/>
<path d="M101.4 42.3887L111.827 37.0814L111.346 38.4775L109.672 35.189L111.421 34.299L113.691 38.7586L102.461 44.4741L101.4 42.3887Z" fill="#29366B"/>
<path d="M105.579 54.875C105.39 53.8848 105.428 52.9614 105.692 52.1047C105.97 51.2576 106.433 50.5463 107.081 49.9708C107.729 49.3952 108.518 49.0186 109.449 48.841C110.392 48.6612 111.265 48.7207 112.067 49.0197C112.881 49.3165 113.567 49.8086 114.126 50.4961C114.687 51.1954 115.062 52.0401 115.251 53.0302C115.426 53.9497 115.392 54.7931 115.147 55.5605C114.917 56.3374 114.477 56.9772 113.827 57.4797L112.513 55.9712C112.907 55.6029 113.171 55.1922 113.305 54.7391C113.44 54.2979 113.463 53.8415 113.373 53.37C113.27 52.8278 113.059 52.3611 112.74 51.9699C112.421 51.5788 112.014 51.3021 111.519 51.14C111.035 50.9757 110.487 50.952 109.874 51.0689C109.261 51.1858 108.754 51.4107 108.354 51.7437C107.965 52.0744 107.694 52.4803 107.541 52.9614C107.389 53.4425 107.364 53.9542 107.468 54.4964C107.558 54.9679 107.747 55.3838 108.036 55.7441C108.326 56.1162 108.723 56.401 109.225 56.5985L108.558 58.4847C107.781 58.2542 107.131 57.8224 106.607 57.1894C106.097 56.5659 105.755 55.7944 105.579 54.875Z" fill="#29366B"/>
<path d="M106.308 66.0489L108.251 66.1164L108.669 66.0048L112.069 66.123C112.729 66.1459 113.245 65.9657 113.619 65.5825C114.004 65.1996 114.211 64.6065 114.239 63.8029C114.258 63.2633 114.192 62.7267 114.043 62.1932C113.893 61.6716 113.674 61.2258 113.387 60.8556L115.054 60.031C115.432 60.5604 115.705 61.1823 115.872 61.8965C116.051 62.6232 116.127 63.3703 116.1 64.1378C116.052 65.529 115.679 66.5906 114.981 67.3228C114.295 68.0675 113.256 68.4156 111.865 68.3673L106.234 68.1716L106.308 66.0489ZM106.287 63.0223C106.312 62.3028 106.454 61.6773 106.713 61.146C106.983 60.615 107.34 60.2072 107.782 59.9224C108.236 59.65 108.738 59.5233 109.29 59.5425C109.83 59.5613 110.311 59.7041 110.734 59.9709C111.156 60.2498 111.483 60.6874 111.715 61.2838C111.946 61.8802 112.045 62.6641 112.011 63.6355L111.915 66.4238L110.421 66.3719L110.513 63.7455C110.539 62.978 110.431 62.4579 110.189 62.1853C109.958 61.9131 109.663 61.7708 109.303 61.7583C108.895 61.7441 108.566 61.8948 108.315 62.2102C108.064 62.5257 107.928 62.9713 107.908 63.5469C107.889 64.0986 107.998 64.5947 108.235 65.0352C108.471 65.4876 108.832 65.8184 109.317 66.0273L107.954 66.3582C107.398 66.1228 106.974 65.7178 106.682 65.1433C106.389 64.5808 106.258 63.8738 106.287 63.0223Z" fill="#29366B"/>
<path d="M106.269 76.1981L105.913 75.5651L113.725 78.1985L113.006 80.3306L105.194 77.6972L105.878 77.358L104.36 81.8611L104.015 81.1939L111.827 83.8273L111.109 85.9594L102 82.8891L106.525 69.4652L115.634 72.5356L114.915 74.6677L107.103 72.0343L107.781 71.7122L106.269 76.1981Z" fill="#29366B"/>
<path d="M98.1217 87.9841C98.7467 87.1182 99.4649 86.4822 100.276 86.0761C101.09 85.6868 101.928 85.5298 102.791 85.6053C103.647 85.6905 104.46 86.0105 105.229 86.5653C106.007 87.1272 106.57 87.7926 106.918 88.5616C107.268 89.3474 107.396 90.1648 107.301 91.0138C107.199 91.8726 106.867 92.6912 106.305 93.4696C105.757 94.2286 105.104 94.7854 104.345 95.1401C103.585 95.4948 102.781 95.6247 101.932 95.5298C101.083 95.4349 100.25 95.0925 99.4325 94.5025C99.3547 94.4463 99.2706 94.3782 99.1803 94.2983C99.083 94.228 98.9941 94.1564 98.9136 94.0835L103.602 87.5888L104.813 88.4632L100.82 93.9947L100.957 93.0056C101.398 93.3384 101.858 93.5304 102.339 93.5817C102.82 93.6329 103.281 93.5585 103.722 93.3584C104.155 93.168 104.53 92.8539 104.846 92.4161C105.169 91.9685 105.356 91.5042 105.407 91.0232C105.451 90.5519 105.369 90.0926 105.159 89.6451C104.952 89.2144 104.615 88.8305 104.148 88.4934L103.856 88.2827C103.389 87.9456 102.898 87.7541 102.383 87.7083C101.869 87.6625 101.374 87.7639 100.898 88.0127C100.423 88.2614 100.002 88.6387 99.6371 89.1447C99.321 89.5825 99.1047 90.0257 98.9881 90.4743C98.8714 90.9229 98.8608 91.3888 98.956 91.872L97.1263 92.0386C96.9705 91.3933 96.9739 90.7224 97.1364 90.0257C97.3016 89.3458 97.63 88.6652 98.1217 87.9841Z" fill="#29366B"/>
<path d="M97.3911 95.5216L98.6758 96.8832L95.0754 100.28L93.7907 98.9186L97.3911 95.5216Z" fill="#29366B"/>
<path d="M90.2906 96.846L95.3909 104.993L87.5792 109.883L82.479 101.736L84.3709 100.552L88.7357 107.524L88.0162 107.359L92.9138 104.293L92.7483 105.012L88.3835 98.0399L90.2906 96.846Z" fill="#29366B"/>
<path d="M74.863 104.536L75.47 106.383L75.719 106.737L76.7814 109.969C76.9875 110.596 77.3348 111.019 77.8235 111.237C78.3158 111.467 78.9439 111.456 79.7077 111.205C80.2207 111.036 80.7017 110.79 81.1509 110.465C81.5886 110.145 81.9316 109.786 82.18 109.388L83.5294 110.669C83.1628 111.206 82.6732 111.677 82.0606 112.08C81.4403 112.499 80.7654 112.828 80.0358 113.068C78.7134 113.502 77.5882 113.519 76.6601 113.116C75.7244 112.729 75.0392 111.874 74.6045 110.552L72.8452 105.2L74.863 104.536ZM77.6964 103.472C78.3804 103.248 79.0164 103.165 79.6043 103.224C80.196 103.295 80.7018 103.489 81.1217 103.805C81.5339 104.137 81.8262 104.565 81.9986 105.09C82.1672 105.603 82.1993 106.104 82.0948 106.593C81.9789 107.086 81.681 107.544 81.2011 107.967C80.7212 108.39 80.0196 108.753 79.0962 109.057L76.4457 109.928L75.9792 108.509L78.4757 107.688C79.2053 107.448 79.6562 107.167 79.8283 106.845C80.0041 106.535 80.0359 106.209 79.9234 105.867C79.796 105.479 79.541 105.222 79.1582 105.095C78.7755 104.968 78.3105 104.995 77.7633 105.175C77.2389 105.347 76.8109 105.62 76.4792 105.995C76.1361 106.373 75.9501 106.825 75.9214 107.353L75.1407 106.188C75.1698 105.585 75.4035 105.047 75.8419 104.575C76.2688 104.106 76.887 103.739 77.6964 103.472Z" fill="#29366B"/>
<path d="M64.2855 106.207L68.1375 110.504L66.4042 111.789L61.649 106.431L64.2855 106.207ZM71.1547 105.622L71.9693 115.2L69.7274 115.39L68.9128 105.813L71.1547 105.622ZM69.9029 109.595L70.0615 111.46L66.8152 111.736L66.6566 109.871L69.9029 109.595ZM66.0868 110.606L68.2066 110.678L65.1001 115.784L62.6968 115.988L66.0868 110.606Z" fill="#29366B"/>
<path d="M56.3602 105.55C57.4156 105.714 58.3083 106.065 59.0383 106.603C59.7547 107.152 60.2752 107.828 60.5998 108.631C60.9125 109.432 60.9962 110.301 60.8507 111.238C60.7035 112.187 60.3662 112.991 59.8388 113.65C59.2978 114.318 58.6275 114.803 57.8279 115.104C57.0164 115.403 56.1363 115.479 55.1877 115.332C54.2628 115.188 53.4699 114.859 52.8092 114.343C52.1485 113.828 51.6676 113.17 51.3667 112.371C51.0659 111.571 50.9927 110.673 51.1474 109.677C51.1621 109.582 51.1846 109.476 51.2149 109.36C51.2333 109.241 51.2567 109.129 51.2851 109.025L59.2003 110.253L58.9711 111.73L52.2299 110.683L53.1732 110.356C53.0767 110.9 53.1148 111.397 53.2875 111.849C53.4602 112.301 53.7357 112.678 54.1139 112.979C54.4802 113.279 54.9302 113.47 55.4638 113.553C56.0093 113.638 56.508 113.594 56.9598 113.421C57.3998 113.247 57.7715 112.964 58.0749 112.574C58.3647 112.194 58.5537 111.72 58.6421 111.15L58.6973 110.795C58.7857 110.225 58.7335 109.701 58.5407 109.222C58.348 108.743 58.0328 108.348 57.5953 108.037C57.1578 107.726 56.6308 107.523 56.0142 107.427C55.4806 107.344 54.9874 107.353 54.5348 107.452C54.0821 107.552 53.6621 107.754 53.2749 108.058L52.2958 106.504C52.8 106.072 53.3994 105.77 54.0939 105.599C54.7747 105.437 55.5302 105.421 56.3602 105.55Z" fill="#29366B"/>
<path d="M48.307 103.689L45.2666 111.352L44.9806 110.658L48.6113 112.098L47.9076 113.872L39.542 110.553L40.2456 108.779L43.8596 110.213L43.1752 110.522L46.2156 102.86L48.307 103.689Z" fill="#29366B"/>
<path d="M42.3051 101.33L36.8227 109.225L34.9746 107.942L38.5885 102.738L30.613 104.913L28.9276 103.743L34.41 95.8477L36.2581 97.131L32.6442 102.335L40.6049 100.149L42.3051 101.33Z" fill="#29366B"/>
<path d="M28.4022 89.2749L27.1874 94.9164L25.1289 94.2688L26.672 87.2729L28.4022 89.2749ZM32.9101 94.4908L25.6377 100.776L24.1664 99.0736L31.4388 92.7885L32.9101 94.4908ZM28.9599 95.8112L27.5436 97.0352L25.4132 94.5702L26.8296 93.3462L28.9599 95.8112ZM25.9001 93.3168L27.0865 95.0749L21.1298 95.56L19.5526 93.7351L25.9001 93.3168Z" fill="#29366B"/>
<path d="M24.3078 82.488C24.7958 83.438 25.0367 84.3666 25.0304 85.2736C25.008 86.1755 24.7674 86.9939 24.3084 87.7288C23.844 88.453 23.1902 89.0317 22.3469 89.4648C21.493 89.9034 20.6445 90.1032 19.8015 90.064C18.9423 90.0197 18.1559 89.7626 17.4424 89.2927C16.7234 88.8121 16.1446 88.1449 15.7059 87.291C15.2783 86.4584 15.0787 85.6233 15.1071 84.7858C15.1356 83.9482 15.3848 83.1727 15.8547 82.4591C16.3246 81.7456 17.0078 81.1586 17.9045 80.698C17.9899 80.6541 18.0887 80.6101 18.2009 80.566C18.3076 80.5111 18.4118 80.4644 18.5133 80.4257L22.1732 87.5507L20.8442 88.2333L17.7272 82.1651L18.5465 82.7358C18.05 82.9773 17.6698 83.3008 17.4058 83.7062C17.1419 84.1116 16.9991 84.5559 16.9776 85.0391C16.9505 85.5117 17.0603 85.9882 17.3071 86.4685C17.5593 86.9595 17.8881 87.337 18.2935 87.6009C18.6934 87.8542 19.1403 87.9889 19.6342 88.005C20.112 88.0159 20.607 87.8898 21.1194 87.6266L21.4396 87.4621C21.952 87.1989 22.3453 86.8485 22.6196 86.4108C22.894 85.9731 23.0282 85.4859 23.0224 84.9493C23.0165 84.4127 22.8711 83.8668 22.586 83.3118C22.3392 82.8314 22.0424 82.4375 21.6956 82.13C21.3488 81.8225 20.9385 81.6015 20.4648 81.4671L21.1466 79.7611C21.7923 79.9151 22.3887 80.2226 22.9358 80.6836C23.4667 81.1393 23.924 81.7408 24.3078 82.488Z" fill="#29366B"/>
</svg>
