<svg width="1110" height="1110" viewBox="0 0 1110 1110" fill="none" xmlns="http://www.w3.org/2000/svg">
<g clip-path="url(#clip0_1126_22697)">
<path fill-rule="evenodd" clip-rule="evenodd" d="M910.382 199.476C713.918 3.01199 395.388 3.01197 198.924 199.476C2.46005 395.939 2.46005 714.47 198.924 910.934C395.388 1107.4 713.918 1107.4 910.382 910.934C1106.85 714.47 1106.85 395.94 910.382 199.476ZM940.026 169.832C727.19 -43.0041 382.115 -43.0041 169.28 169.832C-43.556 382.667 -43.556 727.742 169.28 940.578C382.115 1153.41 727.19 1153.41 940.026 940.578C1152.86 727.742 1152.86 382.667 940.026 169.832Z" fill="#ECF3F9"/>
<rect x="3.81104" y="589.654" width="58.6923" height="58.6923" rx="29.3462" transform="rotate(-94 3.81104 589.654)" fill="#DBE6F0"/>
<path fill-rule="evenodd" clip-rule="evenodd" d="M28.8235 552.849C29.226 548.623 32.9778 545.524 37.2035 545.926C41.4292 546.329 44.5285 550.08 44.126 554.306C43.7235 558.532 39.9717 561.631 35.746 561.229C31.5203 560.826 28.421 557.074 28.8235 552.849Z" fill="#29366B"/>
<path fill-rule="evenodd" clip-rule="evenodd" d="M16.7009 562.221C16.9937 559.148 19.7223 556.894 22.7955 557.186C25.8687 557.479 28.1228 560.208 27.8301 563.281C27.5373 566.354 24.8087 568.608 21.7355 568.315C18.6623 568.023 16.4082 565.294 16.7009 562.221Z" fill="#29366B"/>
<path fill-rule="evenodd" clip-rule="evenodd" d="M30.0825 569.111C30.302 566.806 32.3485 565.115 34.6534 565.335C36.9583 565.555 38.6488 567.601 38.4293 569.906C38.2098 572.211 36.1633 573.901 33.8584 573.682C31.5535 573.462 29.8629 571.416 30.0825 569.111Z" fill="#29366B"/>
<path d="M39.87 512.736L22.3525 510.956L23.9263 495.466L41.4438 497.246L41.1184 500.449L25.5528 498.868L26.4299 498.198L25.3544 508.784L24.6299 507.952L40.1955 509.533L39.87 512.736Z" fill="#29366B"/>
<path d="M41.9149 493.414L28.6067 491.594L29.033 488.478L37.8054 489.679L30.0388 481.127L30.4275 478.286L43.7357 480.106L43.3095 483.222L34.5371 482.021L42.307 490.548L41.9149 493.414Z" fill="#29366B"/>
<path d="M44.4743 475.47L31.2286 473.24L32.9409 463.07L35.5702 463.513L34.2588 471.302L33.6854 470.465L44.9964 472.37L44.4743 475.47Z" fill="#29366B"/>
<path d="M46.53 463.221L33.3592 460.584L34.0061 457.353L44.4155 453.921L44.1587 455.204L35.9268 447.758L36.5045 444.873L49.6803 447.485L49.1223 450.272L39.2565 448.297L39.6759 447.868L46.8523 454.435L46.5857 455.767L37.2073 459.046L37.1778 458.424L47.0929 460.409L46.53 463.221Z" fill="#29366B"/>
<path d="M52.5762 435.855C52.2273 437.306 51.6361 438.509 50.8028 439.465C49.9571 440.4 48.9563 441.047 47.8003 441.407C46.6483 441.751 45.4283 441.768 44.1402 441.459C42.8359 441.145 41.755 440.583 40.8976 439.774C40.0279 438.944 39.4292 437.954 39.1016 436.806C38.778 435.642 38.773 434.408 39.0866 433.103C39.3924 431.831 39.942 430.765 40.7355 429.904C41.529 429.042 42.4998 428.448 43.6479 428.12C44.796 427.793 46.0549 427.794 47.4244 428.123C47.5549 428.154 47.6997 428.198 47.8588 428.253C48.0218 428.292 48.1748 428.338 48.3176 428.389L45.7007 439.273L43.6708 438.785L45.8995 429.515L46.2473 430.867C45.5012 430.67 44.8036 430.666 44.1545 430.855C43.5055 431.044 42.9493 431.385 42.486 431.877C42.0266 432.353 41.7087 432.958 41.5323 433.691C41.3519 434.441 41.3562 435.141 41.5451 435.79C41.7379 436.423 42.0885 436.973 42.5971 437.44C43.0933 437.887 43.7327 438.204 44.5153 438.393L45.0044 438.51C45.787 438.698 46.5231 438.686 47.2126 438.472C47.9021 438.258 48.4883 437.865 48.9713 437.291C49.4542 436.717 49.7975 436.006 50.0014 435.159C50.1778 434.425 50.2225 433.737 50.1353 433.095C50.0482 432.453 49.815 431.845 49.4356 431.271L51.7128 430.085C52.2564 430.837 52.608 431.706 52.7673 432.693C52.9143 433.66 52.8506 434.714 52.5762 435.855Z" fill="#29366B"/>
<path d="M54.5989 426.869L41.6413 423.331L42.4696 420.297L47.7352 421.735L49.5178 415.208L44.2523 413.77L45.0806 410.737L58.0383 414.276L57.2099 417.309L52.0899 415.911L50.3073 422.438L55.4273 423.836L54.5989 426.869Z" fill="#29366B"/>
<path d="M60.1991 407.083L49.1835 403.709L50.1186 403.233L48.5204 408.452L45.971 407.671L49.6534 395.646L52.2029 396.426L50.6121 401.621L50.1041 400.703L61.1197 404.076L60.1991 407.083Z" fill="#29366B"/>
<path d="M66.253 388.373L63.6809 387.499L63.0765 387.479L58.5752 385.95C57.702 385.653 56.9382 385.686 56.2838 386.048C55.6135 386.404 55.0976 387.115 54.7361 388.178C54.4933 388.893 54.3643 389.637 54.3492 390.411C54.3394 391.17 54.4521 391.854 54.6871 392.466L52.1233 392.896C51.8313 392.035 51.7175 391.093 51.7819 390.07C51.8357 389.026 52.0353 387.995 52.3806 386.979C53.0066 385.138 53.9341 383.868 55.1631 383.17C56.3817 382.45 57.9119 382.403 59.7537 383.029L67.2081 385.563L66.253 388.373ZM65.06 392.431C64.7362 393.383 64.2942 394.163 63.7338 394.77C63.1576 395.371 62.5162 395.773 61.8097 395.975C61.0928 396.157 60.3691 396.123 59.6387 395.875C58.9242 395.632 58.3379 395.247 57.8796 394.719C57.4267 394.176 57.1658 393.458 57.0968 392.567C57.0277 391.676 57.2118 390.587 57.6488 389.301L58.9034 385.61L60.8801 386.281L59.6984 389.759C59.3531 390.775 59.2877 391.514 59.5025 391.977C59.7013 392.434 60.0389 392.743 60.5152 392.905C61.055 393.089 61.5566 393.02 62.0198 392.699C62.483 392.379 62.8442 391.837 63.1032 391.075C63.3514 390.345 63.4059 389.637 63.2667 388.952C63.1329 388.251 62.7837 387.663 62.2191 387.188L64.1753 387.295C64.8244 387.834 65.2285 388.547 65.3877 389.434C65.5524 390.305 65.4431 391.303 65.06 392.431Z" fill="#29366B"/>
<path d="M68.4172 382.124L55.8365 377.418L56.9382 374.473L67.0216 378.245L69.2689 372.237L59.1855 368.465L60.2871 365.52L72.8678 370.227L68.4172 382.124ZM75.3541 372.124L72.4799 371.048L72.8062 370.392L71.7662 373.172L69.2689 372.237L71.0844 367.384L76.3853 369.367L75.3541 372.124Z" fill="#29366B"/>
<path d="M74.6152 365.774L62.2019 360.643L63.4031 357.737L71.5856 361.119L66.2379 350.879L67.3334 348.229L79.7467 353.361L78.5455 356.267L70.3629 352.884L75.7203 363.101L74.6152 365.774Z" fill="#29366B"/>
<path d="M85.1621 341.282L80.993 339.39L81.6611 339.196L79.9984 342.861C79.2363 344.541 78.2858 345.703 77.1469 346.346C75.9996 346.968 74.754 346.973 73.4102 346.364C71.9747 345.712 71.1114 344.713 70.8203 343.366C70.5362 342.003 70.7787 340.474 71.5477 338.779L74.0937 333.167L86.326 338.716L85.1621 341.282ZM81.1716 350.078L77.995 344.659L79.3252 341.727L82.5641 347.009L81.1716 350.078ZM80.0767 338.975L74.5791 336.481L75.5221 336.411L73.9945 339.779C73.5926 340.664 73.4489 341.428 73.5631 342.069C73.6691 342.688 74.0885 343.163 74.8216 343.496C76.196 344.12 77.2885 343.538 78.099 341.751L79.6682 338.292L80.0767 338.975Z" fill="#29366B"/>
<path d="M90.35 330.291L78.357 324.242L79.7729 321.435L87.6784 325.422L83.1146 314.809L84.406 312.249L96.399 318.298L94.983 321.105L87.0775 317.118L91.6527 327.708L90.35 330.291Z" fill="#29366B"/>
<path d="M105.385 301.922L103.017 300.591L102.426 300.461L98.2814 298.132C97.4773 297.68 96.7204 297.573 96.0108 297.809C95.2865 298.036 94.6492 298.64 94.0988 299.62C93.7292 300.277 93.466 300.985 93.3092 301.744C93.1606 302.487 93.1459 303.181 93.2649 303.825L90.6656 303.778C90.5364 302.879 90.5972 301.932 90.8479 300.938C91.0922 299.921 91.4773 298.945 92.003 298.009C92.9559 296.313 94.1004 295.235 95.4366 294.774C96.7664 294.29 98.2792 294.524 99.9751 295.477L106.839 299.334L105.385 301.922ZM103.468 305.692C102.976 306.569 102.398 307.255 101.736 307.748C101.059 308.234 100.355 308.511 99.6236 308.581C98.8855 308.628 98.1803 308.462 97.5078 308.084C96.8499 307.715 96.3441 307.229 95.9903 306.626C95.6447 306.009 95.5196 305.255 95.6151 304.367C95.7106 303.478 96.0911 302.441 96.7564 301.257L98.6663 297.858L100.486 298.881L98.6875 302.082C98.1617 303.018 97.962 303.733 98.0883 304.227C98.2 304.713 98.4751 305.079 98.9137 305.326C99.4107 305.605 99.9164 305.629 100.431 305.399C100.945 305.168 101.399 304.702 101.793 304.001C102.171 303.328 102.354 302.642 102.343 301.944C102.34 301.23 102.105 300.588 101.637 300.017L103.54 300.481C104.079 301.13 104.346 301.905 104.34 302.806C104.342 303.692 104.052 304.654 103.468 305.692Z" fill="#29366B"/>
<path d="M113.967 287.391L105.946 288.231L105.911 285.216L115.873 284.223L113.967 287.391ZM109 295.646L97.4906 288.721L99.1116 286.027L110.621 292.952L109 295.646ZM105.529 290.974L103.287 289.626L105.635 285.725L107.876 287.073L105.529 290.974ZM107.511 285.826L105.692 288.166L102.457 280.466L104.195 277.578L107.511 285.826Z" fill="#29366B"/>
<path d="M117.222 282.124L105.95 274.819L107.66 272.18L112.24 275.149L115.92 269.47L111.339 266.502L113.049 263.863L124.321 271.168L122.612 273.806L118.157 270.92L114.478 276.599L118.932 279.485L117.222 282.124Z" fill="#29366B"/>
<path d="M130.594 262.358C129.741 263.583 128.753 264.489 127.63 265.076C126.502 265.639 125.334 265.878 124.126 265.794C122.928 265.695 121.785 265.267 120.698 264.51C119.597 263.744 118.794 262.827 118.29 261.761C117.782 260.672 117.584 259.533 117.696 258.344C117.818 257.142 118.263 255.99 119.029 254.889C119.776 253.816 120.676 253.022 121.729 252.508C122.781 251.994 123.902 251.794 125.09 251.906C126.279 252.018 127.451 252.477 128.607 253.282C128.717 253.359 128.836 253.452 128.964 253.561C129.102 253.657 129.228 253.755 129.342 253.855L122.947 263.041L121.233 261.849L126.68 254.025L126.513 255.41C125.889 254.955 125.241 254.698 124.568 254.638C123.894 254.578 123.252 254.693 122.642 254.983C122.041 255.259 121.525 255.707 121.093 256.326C120.653 256.959 120.402 257.612 120.342 258.286C120.292 258.945 120.418 259.585 120.722 260.205C121.022 260.802 121.502 261.331 122.162 261.79L122.575 262.078C123.236 262.538 123.926 262.794 124.646 262.845C125.366 262.897 126.055 262.744 126.714 262.385C127.372 262.026 127.951 261.489 128.449 260.773C128.88 260.154 129.172 259.529 129.324 258.9C129.476 258.27 129.48 257.619 129.336 256.946L131.888 256.67C132.121 257.567 132.133 258.505 131.922 259.482C131.708 260.436 131.265 261.395 130.594 262.358Z" fill="#29366B"/>
<rect x="293.678" y="66.0117" width="58.6923" height="58.6923" rx="29.3462" transform="rotate(-24 293.678 66.0117)" fill="#DBE6F0"/>
<path d="M384.497 67.3731C383.229 67.8106 381.977 68.0119 380.741 67.977C379.515 67.9209 378.367 67.6517 377.296 67.1697C376.235 66.6663 375.303 65.9681 374.498 65.0749C373.693 64.1817 373.078 63.1169 372.651 61.8804C372.224 60.6439 372.053 59.4259 372.136 58.2265C372.219 57.0272 372.533 55.9076 373.079 54.8678C373.62 53.8121 374.358 52.8923 375.294 52.1083C376.224 51.3084 377.331 50.687 378.615 50.2441C379.979 49.7738 381.305 49.5824 382.595 49.6697C383.879 49.7412 385.068 50.1027 386.162 50.7542L384.812 53.3217C383.986 52.8796 383.145 52.6285 382.291 52.5684C381.431 52.4925 380.565 52.6049 379.693 52.9057C378.821 53.2064 378.07 53.6252 377.439 54.1621C376.824 54.6936 376.337 55.3138 375.979 56.0228C375.636 56.7264 375.437 57.4869 375.382 58.3041C375.343 59.1159 375.471 59.9498 375.766 60.8059C376.061 61.6619 376.475 62.3974 377.006 63.0124C377.553 63.6218 378.179 64.0979 378.882 64.4406C379.602 64.7778 380.367 64.9661 381.179 65.0054C382.007 65.0392 382.857 64.9057 383.729 64.6049C384.6 64.3042 385.354 63.8668 385.99 63.2927C386.62 62.7028 387.122 61.9711 387.494 61.0975L390.148 62.3108C389.683 63.4823 388.97 64.5 388.008 65.3638C387.047 66.2276 385.876 66.8974 384.497 67.3731Z" fill="#29366B"/>
<path d="M399.782 62.4161C398.724 62.7411 397.729 62.8713 396.797 62.8067C395.865 62.7422 394.993 62.4748 394.182 62.0047C393.382 61.5136 392.665 60.8044 392.029 59.8769C391.393 58.9495 390.859 57.7804 390.425 56.3698C390.11 55.3438 389.91 54.379 389.826 53.4752C389.741 52.5715 389.772 51.7288 389.918 50.9472C390.059 50.1496 390.312 49.4051 390.679 48.7136C391.061 48.0172 391.559 47.3819 392.172 46.8076C392.785 46.2334 393.519 45.7098 394.374 45.2368L399.945 42.1307L401.205 44.6908L396.135 47.4587C395.85 47.6164 395.511 47.8258 395.117 48.087C394.735 48.3272 394.357 48.6365 393.982 49.0148C393.618 49.3721 393.31 49.8263 393.058 50.3773C392.817 50.9073 392.68 51.5459 392.647 52.293C392.624 53.0192 392.765 53.8792 393.071 54.8731C393.164 55.1777 393.244 55.4076 393.309 55.563C393.385 55.6974 393.459 55.8503 393.529 56.0218C393.61 56.1722 393.7 56.4077 393.798 56.7283L392.306 55.8972C392.376 54.9812 392.602 54.1485 392.986 53.3991C393.381 52.6287 393.909 51.9756 394.568 51.4396C395.239 50.8826 396.024 50.4663 396.921 50.1906C398.124 49.8213 399.266 49.7423 400.348 49.9537C401.431 50.165 402.374 50.6383 403.179 51.3735C403.984 52.1087 404.561 53.0454 404.911 54.1835C405.275 55.3697 405.309 56.5083 405.012 57.5993C404.716 58.6903 404.12 59.6627 403.225 60.5167C402.34 61.3497 401.193 61.9829 399.782 62.4161ZM399.276 59.9137C399.998 59.6922 400.584 59.3454 401.036 58.8734C401.498 58.3805 401.798 57.8147 401.935 57.1761C402.088 56.5326 402.062 55.8743 401.855 55.201C401.648 54.5277 401.308 53.9919 400.835 53.5934C400.373 53.174 399.814 52.8982 399.16 52.7659C398.521 52.6288 397.825 52.6759 397.072 52.9073C396.35 53.1289 395.745 53.4726 395.257 53.9384C394.785 54.3993 394.467 54.9354 394.304 55.5468C394.152 56.1373 394.177 56.7612 394.379 57.4184C394.586 58.0917 394.935 58.6596 395.428 59.1222C395.921 59.5848 396.498 59.8902 397.157 60.0385C397.833 60.1818 398.539 60.1402 399.276 59.9137Z" fill="#29366B"/>
<path d="M416.561 57.4947C415.233 57.8531 413.975 57.889 412.786 57.6021C411.592 57.2991 410.561 56.7266 409.691 55.8846C408.821 55.0426 408.213 53.9821 407.868 52.7032C407.518 51.408 407.509 50.1858 407.841 49.0365C408.169 47.871 408.775 46.865 409.658 46.0186C410.541 45.1722 411.646 44.5698 412.974 44.2113C414.318 43.8484 415.584 43.8104 416.773 44.0973C417.979 44.3798 419.006 44.9361 419.856 45.7662C420.721 46.592 421.331 47.6606 421.685 48.9719C422.031 50.2509 422.039 51.4731 421.711 52.6386C421.399 53.7997 420.796 54.8138 419.901 55.6808C419.018 56.5272 417.905 57.1318 416.561 57.4947ZM415.859 54.8963C416.604 54.6952 417.224 54.354 417.719 53.8729C418.215 53.3917 418.541 52.7998 418.699 52.0972C418.873 51.3902 418.848 50.6239 418.625 49.7982C418.398 48.9564 418.034 48.2818 417.532 47.7746C417.042 47.2469 416.462 46.8998 415.792 46.7334C415.121 46.567 414.422 46.5821 413.693 46.7788C412.949 46.9799 412.329 47.3211 411.833 47.8022C411.354 48.279 411.028 48.8709 410.854 49.5779C410.675 50.2687 410.7 51.0351 410.927 51.8769C411.15 52.7026 411.515 53.3771 412.021 53.9005C412.527 54.4239 413.107 54.771 413.761 54.9418C414.431 55.1082 415.131 55.093 415.859 54.8963Z" fill="#29366B"/>
<path d="M427.152 54.5261L424.098 41.4457L427.16 40.7308L429.173 49.3531L434.386 39.0438L437.179 38.3918L440.233 51.4722L437.171 52.1871L435.158 43.5648L429.969 53.8684L427.152 54.5261ZM430.082 38.4213C428.776 38.7263 427.701 38.6587 426.858 38.2184C426.011 37.7618 425.442 36.9475 425.151 35.7755L427.184 35.3009C427.338 35.885 427.626 36.3084 428.049 36.5713C428.488 36.8304 429.026 36.8855 429.663 36.7369C430.284 36.592 430.734 36.3061 431.013 35.8793C431.308 35.4487 431.396 34.9375 431.275 34.3459L433.357 33.8598C433.615 35.0393 433.457 36.0233 432.884 36.8116C432.323 37.5797 431.389 38.1163 430.082 38.4213Z" fill="#29366B"/>
<path d="M448.925 49.6192L446.476 36.4122L449.716 35.8114L456.772 44.1988L455.486 44.4373L459.337 34.0273L462.231 33.4907L464.704 46.6931L461.91 47.2113L460.075 37.3185L460.629 37.5483L457.201 46.6519L455.865 46.8996L449.335 39.4125L449.901 39.154L451.745 49.0963L448.925 49.6192Z" fill="#29366B"/>
<path d="M476.604 45.0558C475.127 45.2713 473.79 45.1698 472.594 44.7513C471.411 44.3137 470.438 43.6253 469.674 42.6861C468.927 41.7445 468.457 40.6183 468.266 39.3074C468.072 37.9799 468.192 36.7677 468.625 35.6707C469.072 34.5548 469.768 33.6313 470.712 32.9004C471.673 32.1671 472.817 31.7036 474.144 31.5099C475.438 31.321 476.633 31.4348 477.727 31.8512C478.822 32.2677 479.735 32.948 480.465 33.892C481.196 34.836 481.664 36.005 481.867 37.3988C481.886 37.5316 481.9 37.6821 481.907 37.8505C481.932 38.0164 481.946 38.1753 481.952 38.327L470.875 39.9434L470.574 37.8775L480.007 36.5009L478.882 37.326C478.787 36.5603 478.532 35.9113 478.115 35.3789C477.698 34.8466 477.175 34.4568 476.546 34.2097C475.934 33.9602 475.254 33.8899 474.507 33.9989C473.744 34.1103 473.096 34.3743 472.564 34.7909C472.048 35.2051 471.668 35.7351 471.423 36.3809C471.193 37.0077 471.135 37.7193 471.252 38.5158L471.324 39.0136C471.441 39.8101 471.726 40.4887 472.181 41.0494C472.635 41.61 473.219 42.0079 473.931 42.2429C474.643 42.4779 475.431 42.5324 476.293 42.4065C477.04 42.2976 477.695 42.0833 478.259 41.7638C478.822 41.4444 479.3 41.0018 479.692 40.4362L481.639 42.1094C481.144 42.8935 480.467 43.543 479.61 44.0578C478.768 44.5536 477.765 44.8863 476.604 45.0558Z" fill="#29366B"/>
<path d="M485.771 43.5808L484.242 30.236L487.366 29.878L487.987 35.3009L494.709 34.5306L494.088 29.1077L497.212 28.7498L498.741 42.0946L495.617 42.4525L495.013 37.1796L488.291 37.9499L488.895 43.2228L485.771 43.5808Z" fill="#29366B"/>
<path d="M509.422 41.3273C508.018 41.4444 506.74 41.2565 505.588 40.7636C504.452 40.2527 503.531 39.5049 502.827 38.5204C502.122 37.5359 501.714 36.3836 501.604 35.0634C501.493 33.7265 501.704 32.5225 502.237 31.4516C502.769 30.3639 503.553 29.4823 504.591 28.8068C505.645 28.1299 506.874 27.7329 508.278 27.6158C509.581 27.507 510.748 27.6789 511.779 28.1314C512.825 28.5658 513.649 29.2711 514.252 30.2472L511.963 31.8517C511.509 31.2502 510.977 30.8234 510.367 30.5714C509.774 30.318 509.143 30.2192 508.474 30.2749C507.706 30.3391 507.026 30.564 506.436 30.9498C505.845 31.3356 505.401 31.8607 505.103 32.525C504.804 33.1726 504.69 33.9309 504.763 34.7999C504.835 35.6688 505.073 36.4062 505.477 37.012C505.88 37.601 506.404 38.0368 507.05 38.3195C507.697 38.6021 508.404 38.7114 509.173 38.6472C509.841 38.5915 510.447 38.3895 510.99 38.0413C511.55 37.6917 512.004 37.1826 512.352 36.5142L514.875 37.7171C514.441 38.763 513.746 39.6035 512.789 40.2386C511.848 40.8556 510.725 41.2185 509.422 41.3273Z" fill="#29366B"/>
<path d="M522.776 40.229L522.174 28.7243L522.941 29.4397L517.491 29.7254L517.351 27.0627L529.911 26.4045L530.05 29.0672L524.624 29.3515L525.313 28.5598L525.916 40.0644L522.776 40.229Z" fill="#29366B"/>
<path d="M541.555 39.6918C540.465 39.7152 539.462 39.4851 538.546 39.0016C537.646 38.5178 536.918 37.7786 536.36 36.7842C535.818 35.7727 535.53 34.4874 535.497 32.9282C535.463 31.3522 535.687 30.0559 536.168 29.0392C536.666 28.0221 537.354 27.2609 538.232 26.7556C539.11 26.2336 540.119 25.9603 541.259 25.9358C542.583 25.9073 543.755 26.1673 544.773 26.7157C545.808 27.2638 546.63 28.0428 547.239 29.0529C547.864 30.0626 548.192 31.2633 548.222 32.6548C548.252 34.0463 547.976 35.2683 547.395 36.3207C546.83 37.356 546.042 38.1696 545.032 38.7616C544.038 39.3533 542.879 39.6633 541.555 39.6918ZM534.212 44.5544L533.818 26.2466L536.811 26.1823L536.879 29.351L536.855 32.9242L537.183 36.4898L537.355 44.4869L534.212 44.5544ZM541.145 37.0085C541.899 36.9923 542.566 36.8102 543.146 36.4623C543.742 36.114 544.209 35.6176 544.548 34.9729C544.886 34.3283 545.046 33.5784 545.028 32.7234C545.009 31.8516 544.817 31.1093 544.452 30.4966C544.086 29.8671 543.598 29.3911 542.987 29.0688C542.393 28.7461 541.719 28.5928 540.964 28.6091C540.21 28.6253 539.534 28.8075 538.938 29.1558C538.342 29.504 537.874 30.0005 537.536 30.6452C537.197 31.273 537.037 32.0229 537.056 32.8947C537.074 33.7497 537.266 34.492 537.632 35.1215C537.998 35.751 538.486 36.227 539.097 36.5493C539.708 36.8716 540.39 37.0247 541.145 37.0085Z" fill="#29366B"/>
<path d="M552.41 44.4444C551.756 44.4382 551.103 44.3231 550.451 44.099C549.799 43.8749 549.257 43.5679 548.825 43.1782L550.104 40.8759C550.42 41.164 550.778 41.3937 551.179 41.5652C551.58 41.7366 551.99 41.8243 552.409 41.8283C552.98 41.8336 553.442 41.6954 553.797 41.4136C554.152 41.1319 554.483 40.657 554.791 39.9891L555.587 38.2357L555.843 37.8608L561.035 26.0363L564.053 26.0646L557.629 40.5188C557.2 41.521 556.723 42.3131 556.198 42.8951C555.689 43.4773 555.115 43.8828 554.476 44.1116C553.853 44.3405 553.165 44.4514 552.41 44.4444ZM555.22 39.8925L549.288 25.9262L552.558 25.9569L557.379 37.5985L555.22 39.8925Z" fill="#29366B"/>
<path d="M573.276 39.8325L573.374 37.1177L573.219 36.5331L573.392 31.7822C573.426 30.8605 573.175 30.1382 572.64 29.6154C572.106 29.0758 571.278 28.7856 570.155 28.7447C569.401 28.7173 568.651 28.8075 567.905 29.0153C567.176 29.2237 566.552 29.5283 566.034 29.9289L564.886 27.5967C565.626 27.0699 566.496 26.6904 567.494 26.4582C568.51 26.2098 569.554 26.1052 570.627 26.1442C572.571 26.2148 574.054 26.7386 575.075 27.7154C576.114 28.6761 576.599 30.1284 576.528 32.0724L576.242 39.9403L573.276 39.8325ZM569.046 39.8549C568.041 39.8184 567.167 39.6188 566.425 39.2562C565.684 38.8769 565.115 38.378 564.718 37.7594C564.338 37.1248 564.162 36.422 564.19 35.6511C564.217 34.897 564.418 34.2247 564.792 33.6342C565.183 33.0443 565.795 32.5883 566.629 32.2662C567.463 31.9442 568.558 31.8078 569.916 31.8572L573.812 31.9988L573.736 34.0852L570.066 33.9518C568.994 33.9128 568.267 34.0626 567.885 34.4011C567.504 34.7228 567.305 35.1351 567.287 35.6378C567.266 36.2076 567.476 36.6683 567.916 37.0199C568.356 37.3715 568.978 37.562 569.783 37.5912C570.554 37.6192 571.247 37.4682 571.863 37.1383C572.496 36.8089 572.959 36.3055 573.252 35.6282L573.712 37.5327C573.381 38.3093 572.814 38.9012 572.011 39.3083C571.224 39.716 570.236 39.8982 569.046 39.8549Z" fill="#29366B"/>
<path d="M580.737 40.1038L581.075 37.48C581.191 37.5051 581.298 37.5295 581.398 37.5534C581.497 37.5772 581.588 37.5921 581.672 37.5981C582.19 37.6349 582.603 37.5046 582.91 37.207C583.217 36.9094 583.456 36.4977 583.628 35.9719C583.818 35.4306 583.962 34.8272 584.06 34.1617C584.175 33.4807 584.274 32.7984 584.356 32.115L584.95 26.9624L595.789 27.7328L594.836 41.1311L591.7 40.9082L592.524 29.3164L593.191 30.2212L586.818 29.7682L587.558 28.9382L587.131 32.4635C586.996 33.6475 586.817 34.7444 586.594 35.754C586.389 36.7481 586.109 37.6109 585.755 38.3422C585.417 39.0747 584.974 39.6316 584.425 40.0129C583.894 40.3954 583.235 40.5587 582.449 40.5029C582.198 40.485 581.924 40.4403 581.626 40.3687C581.345 40.2984 581.049 40.2101 580.737 40.1038Z" fill="#29366B"/>
<path d="M606.609 33.2175C608.327 33.3928 609.598 33.9101 610.42 34.7694C611.243 35.6287 611.583 36.759 611.44 38.1604C611.292 39.6118 610.676 40.6951 609.591 41.4105C608.509 42.1091 607.059 42.3574 605.242 42.1552L598.989 41.492L600.352 28.1292L603.48 28.4482L603.033 32.8274L606.609 33.2175ZM605.202 39.8249C606.118 39.9352 606.838 39.8148 607.362 39.4638C607.887 39.1127 608.189 38.5535 608.267 37.7861C608.345 37.0187 608.159 36.4435 607.71 36.0605C607.278 35.6625 606.596 35.4075 605.664 35.2955L602.814 34.9795L602.352 39.5088L605.202 39.8249Z" fill="#29366B"/>
<path d="M613.48 42.9983L615.252 29.6835L618.368 30.0983L617.648 35.5089L624.356 36.4015L625.076 30.9908L628.192 31.4055L626.421 44.7203L623.304 44.3056L624.004 39.0445L617.297 38.152L616.597 43.4131L613.48 42.9983Z" fill="#29366B"/>
<path d="M637.456 46.66C636.1 46.4319 634.942 45.9395 633.981 45.1827C633.022 44.4093 632.324 43.4585 631.884 42.3303C631.445 41.2021 631.335 39.9848 631.555 38.6784C631.777 37.3554 632.279 36.241 633.061 35.3352C633.845 34.4128 634.815 33.7513 635.971 33.3505C637.127 32.9497 638.382 32.8634 639.738 33.0915C641.111 33.3224 642.278 33.8162 643.239 34.573C644.216 35.3326 644.918 36.2669 645.344 37.3758C645.786 38.4874 645.894 39.713 645.669 41.0525C645.449 42.3589 644.947 43.4733 644.163 44.3957C643.395 45.3208 642.424 45.9907 641.249 46.4052C640.093 46.806 638.829 46.8909 637.456 46.66ZM637.903 44.0059C638.663 44.1338 639.369 44.0825 640.02 43.8519C640.671 43.6213 641.215 43.2196 641.651 42.6468C642.104 42.0768 642.402 41.3702 642.543 40.5268C642.688 39.6669 642.638 38.9018 642.394 38.2315C642.169 37.5475 641.786 36.99 641.247 36.5591C640.707 36.1282 640.065 35.8502 639.321 35.725C638.56 35.5971 637.854 35.6484 637.204 35.879C636.569 36.1124 636.025 36.5141 635.572 37.0841C635.122 37.6375 634.825 38.3442 634.68 39.2041C634.538 40.0475 634.588 40.8126 634.83 41.4994C635.071 42.1862 635.454 42.7437 635.977 43.1718C636.517 43.6027 637.158 43.8807 637.903 44.0059Z" fill="#29366B"/>
<path d="M646.275 48.0115L648.855 34.8295L658.976 36.8106L658.464 39.4272L650.713 37.91L651.564 37.359L649.36 48.6155L646.275 48.0115Z" fill="#29366B"/>
<path d="M665.906 52.2573C664.565 51.9524 663.437 51.3947 662.52 50.5844C661.608 49.7577 660.964 48.7686 660.59 47.6172C660.215 46.4658 660.175 45.2442 660.469 43.9524C660.766 42.6443 661.331 41.5603 662.163 40.7005C662.999 39.8243 664.005 39.2191 665.181 38.8848C666.358 38.5505 667.617 38.5359 668.958 38.8409C670.315 39.1496 671.452 39.7091 672.368 40.5194C673.301 41.3335 673.948 42.3062 674.31 43.4375C674.688 44.5726 674.726 45.8023 674.425 47.1268C674.131 48.4186 673.566 49.5026 672.731 50.3788C671.912 51.2587 670.904 51.8721 669.707 52.219C668.53 52.5533 667.263 52.566 665.906 52.2573ZM666.503 49.6329C667.255 49.804 667.963 49.793 668.626 49.5998C669.289 49.4067 669.854 49.0366 670.323 48.4897C670.808 47.9464 671.145 47.2578 671.334 46.4239C671.528 45.5736 671.522 44.8069 671.316 44.1238C671.13 43.428 670.78 42.8497 670.266 42.3888C669.752 41.9279 669.127 41.6137 668.391 41.4464C667.639 41.2753 666.931 41.2863 666.268 41.4794C665.621 41.6763 665.056 42.0463 664.571 42.5896C664.09 43.1165 663.753 43.8051 663.559 44.6554C663.37 45.4893 663.376 46.256 663.578 46.9555C663.78 47.6549 664.13 48.2333 664.628 48.6905C665.142 49.1514 665.767 49.4655 666.503 49.6329Z" fill="#29366B"/>
<path d="M682.164 55.9854L685.734 43.0363L688.765 43.872L685.904 54.2506L692.087 55.9553L694.949 45.5766L697.98 46.4123L694.41 59.3614L682.164 55.9854ZM692.741 62.0064L693.557 59.048L694.24 59.3146L691.379 58.5257L692.087 55.9553L697.083 57.3324L695.579 62.7885L692.741 62.0064Z" fill="#29366B"/>
<path d="M698.78 60.6187L702.786 47.7979L705.788 48.7356L703.147 57.1868L712.87 50.9487L715.607 51.804L711.601 64.6248L708.6 63.6871L711.241 55.2359L701.541 61.4815L698.78 60.6187Z" fill="#29366B"/>
<path d="M725.604 69.4399L723.149 61.7586L726.094 61.1101L729.095 70.6611L725.604 69.4399ZM716.511 66.2583L720.947 53.5798L723.915 54.6182L719.479 67.2967L716.511 66.2583ZM720.378 61.9084L721.242 59.4392L725.539 60.9428L724.675 63.412L720.378 61.9084ZM725.822 62.8006L723.161 61.4962L730.04 56.7614L733.222 57.8746L725.822 62.8006Z" fill="#29366B"/>
<path d="M728.385 70.3558L729.472 67.9441C729.576 68.0018 729.671 68.0565 729.759 68.1082C729.847 68.1599 729.93 68.2008 730.009 68.2308C730.494 68.4171 730.927 68.4125 731.307 68.2172C731.687 68.0219 732.036 67.6978 732.354 67.2449C732.693 66.7823 733.006 66.2469 733.294 65.6387C733.602 65.0208 733.896 64.3969 734.173 63.7671L736.241 59.0105L746.386 62.9039L741.574 75.4443L738.638 74.3177L742.802 63.4682L743.177 64.528L737.212 62.2388L738.161 61.6602L736.726 64.9083C736.253 66.0019 735.762 66.9991 735.255 67.9001C734.769 68.7914 734.25 69.5352 733.698 70.1316C733.161 70.7339 732.575 71.1377 731.94 71.3428C731.32 71.554 730.642 71.5184 729.906 71.236C729.671 71.1458 729.422 71.0232 729.158 70.8681C728.91 70.719 728.652 70.5482 728.385 70.3558Z" fill="#29366B"/>
<path d="M752.168 79.807L753.216 77.3008L753.277 76.6991L755.112 72.3133C755.468 71.4625 755.488 70.6982 755.171 70.0206C754.861 69.3274 754.188 68.7641 753.152 68.3305C752.455 68.0393 751.722 67.8596 750.95 67.7914C750.195 67.7297 749.504 67.7952 748.878 67.9878L748.624 65.4004C749.503 65.1682 750.45 65.1192 751.467 65.2535C752.505 65.3788 753.519 65.6485 754.509 66.0627C756.304 66.8134 757.507 67.8258 758.119 69.0998C758.754 70.3648 758.695 71.8946 757.945 73.6892L754.906 80.9524L752.168 79.807ZM748.202 78.3386C747.273 77.9503 746.526 77.4559 745.959 76.8552C745.399 76.2391 745.042 75.5717 744.888 74.853C744.756 74.1253 744.839 73.4057 745.137 72.694C745.428 71.9979 745.853 71.4393 746.41 71.0183C746.984 70.6037 747.717 70.3925 748.611 70.3848C749.505 70.377 750.579 70.6352 751.832 71.1594L755.429 72.664L754.623 74.59L751.235 73.1728C750.245 72.7586 749.512 72.6428 749.036 72.8253C748.566 72.9923 748.234 73.3079 748.04 73.772C747.82 74.298 747.854 74.803 748.142 75.2872C748.43 75.7713 748.946 76.1687 749.688 76.4793C750.4 76.777 751.102 76.8799 751.795 76.788C752.503 76.7026 753.114 76.3945 753.627 75.8637L753.386 77.808C752.803 78.4186 752.064 78.7729 751.169 78.871C750.289 78.9756 749.3 78.7981 748.202 78.3386Z" fill="#29366B"/>
<path fill-rule="evenodd" clip-rule="evenodd" d="M345.075 79.6153C346.873 86.3247 342.892 93.2211 336.182 95.0188C329.473 96.8166 322.576 92.835 320.779 86.1256C319.801 82.4756 320.852 78.7921 322.319 75.8067C323.797 72.7996 325.794 70.3036 327.011 68.922C328.028 67.7666 329.618 67.3406 331.077 67.8325C332.821 68.4208 335.798 69.584 338.582 71.4491C341.346 73.3007 344.097 75.9653 345.075 79.6153Z" fill="#29366B"/>
<path d="M333.135 87.6973C333.135 87.6973 335.757 88.5111 337.729 86.5564C339.702 84.6017 338.779 82.783 338.779 82.783" stroke="white" stroke-width="3.49359" stroke-linecap="round" stroke-linejoin="round"/>
<path d="M992.107 278.852C991.961 278.608 991.837 278.35 991.734 278.079C991.631 277.809 991.522 277.512 991.408 277.19L993.965 275.928C994.028 276.164 994.128 276.397 994.265 276.628C994.626 277.233 995.159 277.569 995.863 277.637C996.582 277.697 997.471 277.518 998.531 277.101C999.59 276.683 1000.84 276.083 1002.29 275.299L1008.68 271.778L1015.32 282.903L1000.2 291.923L998.547 289.158L1011.98 281.143L1011.68 282.204L1007.39 275.01L1008.46 275.19L1003.88 277.718C1002.35 278.569 1000.98 279.254 999.744 279.774C998.512 280.294 997.408 280.621 996.433 280.753C995.481 280.892 994.644 280.815 993.923 280.522C993.202 280.23 992.597 279.673 992.107 278.852Z" fill="#29366B"/>
<path d="M1002.2 295.448L1013.97 288.965L1015.49 291.719L1007.73 295.992L1019.07 298.218L1020.45 300.729L1008.69 307.212L1007.17 304.458L1014.92 300.185L1003.6 297.981L1002.2 295.448Z" fill="#29366B"/>
<path d="M1017.32 318.223L1016.34 317.952L1026.65 312.819L1028.06 315.634L1017.74 320.767L1018.08 319.755L1021.04 325.7L1020.04 325.383L1030.35 320.251L1031.75 323.066L1019.73 329.05L1010.91 311.327L1022.93 305.343L1024.34 308.158L1014.02 313.29L1014.37 312.301L1017.32 318.223Z" fill="#29366B"/>
<path d="M1021.01 331.915L1033.26 326.395L1034.55 329.261L1029.57 331.504L1032.35 337.673L1037.33 335.43L1038.62 338.296L1026.38 343.816L1025.08 340.95L1029.92 338.769L1027.14 332.6L1022.3 334.781L1021.01 331.915Z" fill="#29366B"/>
<path d="M1028.22 348.09L1040.65 342.997L1041.84 345.906L1033.65 349.264L1044.65 352.772L1045.74 355.425L1033.31 360.519L1032.12 357.61L1040.31 354.252L1029.31 350.767L1028.22 348.09Z" fill="#29366B"/>
<path d="M1034.91 364.616L1047.5 359.956L1048.59 362.904L1040.29 365.977L1051.17 369.864L1052.16 372.553L1039.57 377.214L1038.48 374.265L1046.78 371.193L1035.91 367.329L1034.91 364.616ZM1051.25 365.516C1050.78 364.258 1050.72 363.183 1051.05 362.291C1051.4 361.394 1052.13 360.728 1053.26 360.293L1053.98 362.251C1053.42 362.476 1053.04 362.815 1052.83 363.268C1052.63 363.736 1052.64 364.277 1052.87 364.89C1053.09 365.488 1053.43 365.898 1053.89 366.122C1054.35 366.362 1054.87 366.385 1055.44 366.191L1056.18 368.196C1055.05 368.599 1054.05 368.565 1053.2 368.095C1052.36 367.634 1051.72 366.774 1051.25 365.516Z" fill="#29366B"/>
<path d="M1042.71 386.355L1055.49 382.233L1057.5 388.481C1058 390.029 1058.11 391.334 1057.82 392.398C1057.53 393.477 1056.86 394.186 1055.81 394.526C1054.77 394.86 1053.82 394.708 1052.96 394.068C1052.12 393.424 1051.48 392.415 1051.04 391.043L1051.89 391.162C1052.39 392.71 1052.48 393.952 1052.14 394.888C1051.83 395.834 1051.13 396.482 1050.05 396.832C1048.92 397.197 1047.89 397.06 1046.98 396.42C1046.09 395.775 1045.36 394.591 1044.81 392.867L1042.71 386.355ZM1045.8 388.502L1046.91 391.925C1047.17 392.739 1047.5 393.312 1047.88 393.645C1048.29 393.972 1048.76 394.048 1049.31 393.873C1049.88 393.688 1050.24 393.36 1050.39 392.89C1050.54 392.419 1050.48 391.777 1050.22 390.963L1049.08 387.444L1045.8 388.502ZM1051.07 386.803L1052.08 389.939C1052.33 390.705 1052.65 391.236 1053.04 391.532C1053.46 391.838 1053.92 391.909 1054.43 391.744C1054.96 391.574 1055.29 391.249 1055.41 390.767C1055.55 390.302 1055.49 389.686 1055.24 388.92L1054.23 385.784L1051.07 386.803Z" fill="#29366B"/>
<path d="M1049.01 407.277C1048.59 405.843 1048.51 404.505 1048.76 403.263C1049.04 402.032 1049.59 400.975 1050.41 400.09C1051.24 399.222 1052.3 398.604 1053.57 398.236C1054.86 397.864 1056.07 397.818 1057.22 398.098C1058.39 398.39 1059.4 398.953 1060.25 399.79C1061.1 400.642 1061.72 401.712 1062.09 403.001C1062.45 404.258 1062.5 405.457 1062.24 406.598C1061.98 407.738 1061.43 408.735 1060.59 409.587C1059.75 410.44 1058.66 411.061 1057.31 411.452C1057.18 411.489 1057.03 411.523 1056.86 411.553C1056.7 411.6 1056.55 411.636 1056.4 411.662L1053.29 400.908L1055.3 400.329L1057.94 409.488L1056.97 408.485C1057.72 408.287 1058.33 407.946 1058.8 407.461C1059.27 406.976 1059.58 406.405 1059.74 405.748C1059.91 405.107 1059.88 404.424 1059.67 403.699C1059.46 402.958 1059.11 402.352 1058.63 401.881C1058.15 401.426 1057.57 401.121 1056.9 400.967C1056.24 400.823 1055.53 400.863 1054.76 401.087L1054.27 401.226C1053.5 401.45 1052.87 401.825 1052.37 402.351C1051.88 402.878 1051.57 403.51 1051.43 404.247C1051.29 404.985 1051.35 405.772 1051.59 406.61C1051.8 407.335 1052.1 407.955 1052.49 408.47C1052.88 408.985 1053.39 409.398 1054 409.709L1052.61 411.866C1051.76 411.481 1051.03 410.899 1050.4 410.12C1049.8 409.353 1049.33 408.405 1049.01 407.277Z" fill="#29366B"/>
<path d="M1053.98 425.768C1053.64 424.402 1053.62 423.111 1053.92 421.894C1054.23 420.69 1054.82 419.66 1055.68 418.805C1056.54 417.95 1057.61 417.361 1058.89 417.038C1060.19 416.71 1061.42 416.723 1062.56 417.075C1063.72 417.423 1064.72 418.054 1065.55 418.968C1066.39 419.899 1066.98 421.047 1067.33 422.413C1067.64 423.681 1067.66 424.861 1067.39 425.951C1067.13 427.054 1066.56 427.982 1065.7 428.735L1063.74 426.737C1064.26 426.191 1064.6 425.597 1064.75 424.954C1064.9 424.328 1064.9 423.689 1064.73 423.039C1064.55 422.291 1064.21 421.657 1063.74 421.137C1063.26 420.617 1062.67 420.264 1061.97 420.078C1061.28 419.887 1060.51 419.899 1059.67 420.111C1058.82 420.324 1058.13 420.679 1057.6 421.176C1057.08 421.668 1056.74 422.257 1056.56 422.94C1056.39 423.624 1056.4 424.339 1056.59 425.088C1056.75 425.738 1057.05 426.303 1057.48 426.782C1057.91 427.278 1058.49 427.643 1059.21 427.878L1058.43 430.563C1057.33 430.305 1056.38 429.755 1055.6 428.914C1054.84 428.085 1054.3 427.037 1053.98 425.768Z" fill="#29366B"/>
<path d="M1053.1 431.896L1078.04 434.745L1078.67 437.493L1053.72 434.643L1053.1 431.896Z" fill="#29366B"/>
<path d="M1059.06 448.189C1058.79 446.841 1058.83 445.583 1059.19 444.415C1059.57 443.243 1060.21 442.25 1061.1 441.435C1062 440.62 1063.1 440.081 1064.39 439.818C1065.71 439.552 1066.93 439.621 1068.06 440.025C1069.2 440.427 1070.16 441.095 1070.95 442.03C1071.74 442.966 1072.27 444.107 1072.54 445.455C1072.82 446.819 1072.78 448.085 1072.42 449.253C1072.06 450.438 1071.44 451.428 1070.55 452.223C1069.68 453.035 1068.57 453.575 1067.24 453.845C1065.94 454.108 1064.72 454.039 1063.58 453.638C1062.44 453.253 1061.47 452.586 1060.66 451.638C1059.87 450.703 1059.34 449.553 1059.06 448.189ZM1061.7 447.654C1061.85 448.41 1062.15 449.051 1062.6 449.576C1063.05 450.101 1063.62 450.464 1064.31 450.666C1065 450.885 1065.77 450.909 1066.61 450.739C1067.46 450.566 1068.16 450.245 1068.7 449.776C1069.26 449.321 1069.64 448.764 1069.85 448.106C1070.06 447.448 1070.09 446.749 1069.94 446.009C1069.78 445.253 1069.48 444.613 1069.03 444.088C1068.59 443.579 1068.02 443.216 1067.32 442.997C1066.65 442.775 1065.88 442.751 1065.02 442.924C1064.19 443.094 1063.49 443.415 1062.94 443.887C1062.38 444.359 1062 444.915 1061.79 445.557C1061.58 446.216 1061.55 446.915 1061.7 447.654Z" fill="#29366B"/>
<path d="M1063.95 474.643L1069.68 469.734L1071.65 472.011L1064.56 478.342L1063.95 474.643ZM1068.23 467.397L1070.81 466.976L1071.53 471.42L1068.95 471.84L1068.23 467.397ZM1070.04 472.58L1069.91 469.594L1077.22 472.532L1077.76 475.834L1070.04 472.58ZM1061.67 460.641L1061.07 456.966L1069.81 460.691L1068.66 463.478L1061.67 460.641ZM1063.06 469.181L1062.56 466.102L1075.82 463.942L1076.32 467.02L1063.06 469.181ZM1068.02 466.155L1067.3 461.736L1069.89 461.315L1070.61 465.734L1068.02 466.155ZM1068.1 460.664L1074.38 455.129L1074.92 458.43L1068.92 463.512L1068.1 460.664Z" fill="#29366B"/>
<path d="M1064.87 480.986L1078.2 479.337L1078.59 482.457L1069.8 483.544L1079.5 489.821L1079.85 492.667L1066.52 494.317L1066.13 491.196L1074.92 490.109L1065.23 483.857L1064.87 480.986Z" fill="#29366B"/>
<path d="M1067.47 506.073C1067.37 504.987 1067.54 503.971 1067.96 503.025C1068.38 502.095 1069.07 501.318 1070.02 500.695C1071 500.086 1072.26 499.713 1073.81 499.575C1075.38 499.436 1076.69 499.572 1077.74 499.984C1078.79 500.413 1079.59 501.048 1080.15 501.89C1080.73 502.731 1081.07 503.719 1081.18 504.855C1081.29 506.175 1081.11 507.361 1080.63 508.414C1080.16 509.483 1079.43 510.355 1078.47 511.03C1077.5 511.722 1076.32 512.13 1074.94 512.253C1073.55 512.376 1072.31 512.183 1071.23 511.674C1070.15 511.18 1069.29 510.448 1068.63 509.48C1067.97 508.528 1067.59 507.393 1067.47 506.073ZM1062.13 499.073L1080.37 497.452L1080.63 500.434L1077.47 500.714L1073.91 500.93L1070.37 501.497L1062.4 502.205L1062.13 499.073ZM1070.12 505.484C1070.19 506.236 1070.41 506.889 1070.8 507.444C1071.19 508.016 1071.71 508.449 1072.38 508.743C1073.05 509.037 1073.8 509.147 1074.66 509.071C1075.52 508.994 1076.25 508.752 1076.84 508.347C1077.44 507.939 1077.88 507.42 1078.17 506.789C1078.45 506.175 1078.56 505.492 1078.49 504.74C1078.42 503.989 1078.19 503.327 1077.81 502.755C1077.42 502.184 1076.89 501.751 1076.23 501.456C1075.58 501.161 1074.82 501.051 1073.95 501.128C1073.1 501.204 1072.37 501.446 1071.77 501.853C1071.16 502.26 1070.72 502.779 1070.44 503.41C1070.16 504.041 1070.05 504.732 1070.12 505.484Z" fill="#29366B"/>
<path d="M1068.55 520.795C1068.46 519.305 1068.68 517.982 1069.2 516.827C1069.74 515.687 1070.51 514.777 1071.51 514.097C1072.52 513.434 1073.68 513.064 1075 512.987C1076.34 512.91 1077.54 513.134 1078.59 513.661C1079.67 514.203 1080.52 514.976 1081.17 515.98C1081.82 517.001 1082.18 518.181 1082.26 519.52C1082.33 520.826 1082.12 522.006 1081.61 523.06C1081.1 524.114 1080.34 524.965 1079.34 525.611C1078.33 526.257 1077.13 526.621 1075.72 526.703C1075.59 526.711 1075.44 526.711 1075.27 526.704C1075.1 526.714 1074.94 526.714 1074.79 526.706L1074.14 515.532L1076.22 515.411L1076.78 524.928L1076.05 523.735C1076.82 523.707 1077.49 523.509 1078.06 523.14C1078.63 522.771 1079.06 522.284 1079.36 521.679C1079.66 521.09 1079.79 520.419 1079.75 519.666C1079.7 518.896 1079.5 518.227 1079.13 517.661C1078.76 517.111 1078.26 516.686 1077.64 516.387C1077.04 516.103 1076.33 515.984 1075.53 516.031L1075.03 516.06C1074.22 516.107 1073.52 516.332 1072.93 516.736C1072.33 517.141 1071.88 517.687 1071.58 518.376C1071.29 519.066 1071.17 519.845 1071.22 520.716C1071.26 521.469 1071.42 522.14 1071.69 522.729C1071.96 523.319 1072.36 523.833 1072.88 524.272L1071.05 526.067C1070.31 525.505 1069.72 524.775 1069.28 523.877C1068.86 522.994 1068.62 521.967 1068.55 520.795Z" fill="#29366B"/>
<path d="M1069.3 531.649L1082.73 531.33L1082.8 534.473L1077.35 534.603L1077.51 541.368L1082.96 541.238L1083.04 544.381L1069.61 544.7L1069.53 541.557L1074.84 541.431L1074.68 534.666L1069.37 534.792L1069.3 531.649Z" fill="#29366B"/>
<path d="M1069.66 549.108L1083.09 549.248L1083.06 552.392L1074.2 552.299L1082.98 559.812L1082.95 562.679L1069.52 562.539L1069.55 559.395L1078.41 559.487L1069.63 552L1069.66 549.108Z" fill="#29366B"/>
<path d="M1068.94 573.403C1069.01 571.912 1069.36 570.618 1070 569.522C1070.65 568.443 1071.51 567.617 1072.57 567.043C1073.64 566.486 1074.83 566.237 1076.16 566.296C1077.5 566.356 1078.67 566.701 1079.66 567.333C1080.67 567.983 1081.45 568.84 1081.99 569.904C1082.53 570.986 1082.77 572.197 1082.71 573.537C1082.65 574.844 1082.32 575.995 1081.7 576.992C1081.09 577.988 1080.25 578.757 1079.18 579.297C1078.12 579.837 1076.88 580.076 1075.47 580.013C1075.34 580.007 1075.19 579.992 1075.02 579.968C1074.85 579.96 1074.69 579.945 1074.54 579.922L1075.04 568.739L1077.13 568.832L1076.7 578.356L1076.11 577.095C1076.88 577.146 1077.56 577.018 1078.16 576.709C1078.76 576.4 1079.24 575.959 1079.61 575.388C1079.97 574.833 1080.16 574.179 1080.2 573.425C1080.23 572.655 1080.09 571.969 1079.79 571.367C1079.48 570.783 1079.03 570.31 1078.44 569.948C1077.87 569.603 1077.18 569.413 1076.37 569.377L1075.87 569.355C1075.07 569.319 1074.35 569.472 1073.71 569.813C1073.07 570.154 1072.57 570.652 1072.21 571.307C1071.84 571.962 1071.64 572.726 1071.6 573.597C1071.57 574.351 1071.66 575.034 1071.86 575.648C1072.07 576.261 1072.42 576.814 1072.9 577.305L1070.89 578.903C1070.21 578.268 1069.7 577.482 1069.36 576.543C1069.03 575.622 1068.89 574.575 1068.94 573.403Z" fill="#29366B"/>
<rect x="930.243" y="237.275" width="58.6923" height="58.6923" rx="29.3462" transform="rotate(-45 930.243 237.275)" fill="#DBE6F0"/>
<path fill-rule="evenodd" clip-rule="evenodd" d="M973.435 256.052C972.889 256.598 972.004 256.598 971.458 256.052C971.458 256.052 963.788 253.125 960.193 249.53C956.599 245.936 953.671 238.265 953.671 238.265C953.125 237.719 953.125 236.834 953.671 236.289C954.217 235.743 955.102 235.743 955.647 236.289C955.647 236.289 958.575 243.959 962.169 247.554C965.764 251.148 973.435 254.076 973.435 254.076C973.98 254.622 973.98 255.506 973.435 256.052Z" fill="#29366B"/>
<path fill-rule="evenodd" clip-rule="evenodd" d="M991.222 238.266C990.676 238.811 989.791 238.811 989.245 238.266C989.245 238.266 986.318 230.595 982.723 227C979.129 223.406 971.458 220.478 971.458 220.478C970.912 219.933 970.912 219.048 971.458 218.502C972.004 217.956 972.889 217.956 973.435 218.502C973.435 218.502 981.105 221.43 984.7 225.024C988.294 228.619 991.222 236.289 991.222 236.289C991.768 236.835 991.768 237.72 991.222 238.266Z" fill="#29366B"/>
<path fill-rule="evenodd" clip-rule="evenodd" d="M963.147 235.029C963.567 234.369 964.16 233.704 964.858 233.006L968.178 229.686C968.876 228.988 969.54 228.396 970.201 227.976C970.875 227.547 971.617 227.251 972.447 227.251C973.277 227.251 974.018 227.547 974.693 227.976C975.353 228.396 976.018 228.988 976.716 229.686L980.036 233.006C980.734 233.704 981.326 234.369 981.747 235.029C982.176 235.704 982.472 236.445 982.472 237.275C982.472 238.105 982.176 238.847 981.747 239.521C981.326 240.182 980.734 240.846 980.036 241.544L976.716 244.865C976.018 245.563 975.353 246.155 974.693 246.575C974.018 247.004 973.277 247.3 972.447 247.3C971.617 247.3 970.875 247.004 970.201 246.575C969.54 246.155 968.876 245.563 968.178 244.865L964.858 241.544C964.16 240.846 963.567 240.182 963.147 239.521C962.718 238.847 962.422 238.105 962.422 237.275C962.422 236.445 962.718 235.704 963.147 235.029Z" fill="#29366B"/>
<rect x="1033.21" y="839.34" width="58.6923" height="58.6923" rx="29.3462" transform="rotate(126 1033.21 839.34)" fill="#DBE6F0"/>
<path fill-rule="evenodd" clip-rule="evenodd" d="M998.811 859.803C998.044 859.883 997.356 859.326 997.276 858.559L997.003 855.956C996.651 856.351 996.316 856.704 995.991 857.011C995.039 857.909 994.023 858.559 992.733 858.695C991.444 858.83 990.315 858.405 989.197 857.724C988.133 857.076 986.921 856.093 985.45 854.902L983.065 852.97C981.065 854.453 978.243 854.46 976.219 852.82C973.82 850.877 973.451 847.357 975.394 844.958C977.337 842.559 980.857 842.189 983.256 844.133C985.28 845.772 985.86 848.534 984.824 850.798L987.133 852.668C988.699 853.937 989.767 854.798 990.652 855.337C991.502 855.855 992.004 855.961 992.442 855.915C992.879 855.869 993.349 855.661 994.073 854.978C994.292 854.771 994.52 854.535 994.764 854.266L992.296 854.525C991.528 854.606 990.841 854.049 990.76 853.281C990.68 852.513 991.236 851.826 992.004 851.745L997.737 851.144C998.595 851.054 999.364 851.676 999.454 852.534L1000.06 858.267C1000.14 859.035 999.579 859.722 998.811 859.803Z" fill="#29366B"/>
<path fill-rule="evenodd" clip-rule="evenodd" d="M1007.9 840.355C1010.3 842.298 1010.67 845.818 1008.72 848.217C1006.78 850.616 1003.26 850.985 1000.86 849.042C998.837 847.402 998.257 844.641 999.293 842.376L996.984 840.506C995.418 839.238 994.35 838.377 993.465 837.838C992.615 837.32 992.113 837.214 991.675 837.26C991.238 837.306 990.768 837.513 990.044 838.197C989.825 838.403 989.597 838.639 989.353 838.909L991.821 838.649C992.589 838.569 993.276 839.126 993.357 839.893C993.437 840.661 992.88 841.349 992.113 841.429L986.385 842.03C985.524 842.121 984.753 841.496 984.663 840.636L984.061 834.907C983.981 834.14 984.538 833.452 985.305 833.372C986.073 833.291 986.761 833.848 986.841 834.616L987.114 837.218C987.465 836.824 987.801 836.471 988.126 836.164C989.078 835.266 990.094 834.615 991.383 834.48C992.673 834.345 993.802 834.77 994.919 835.451C995.984 836.099 997.196 837.081 998.667 838.272L1001.05 840.205C1003.05 838.722 1005.87 838.715 1007.9 840.355Z" fill="#29366B"/>
<path d="M956.671 879.658L970.315 890.788L968.279 893.283L958.592 885.381L962.301 900.612L960.377 902.97L946.733 891.84L948.769 889.345L958.436 897.232L954.747 882.016L956.671 879.658Z" fill="#29366B"/>
<path d="M940.798 898.337C941.471 897.567 942.227 896.881 943.066 896.278C943.907 895.699 944.762 895.255 945.633 894.947L946.814 897.15C946.106 897.399 945.406 897.767 944.714 898.253C944.021 898.739 943.405 899.292 942.864 899.91C942.4 900.44 942.053 900.939 941.823 901.406C941.606 901.884 941.516 902.318 941.554 902.708C941.581 903.11 941.733 903.432 942.011 903.675C942.415 904.028 942.873 904.117 943.384 903.94C943.896 903.787 944.434 903.388 944.997 902.744L946.702 900.794L948.293 902.184L946.753 903.946C946.4 904.35 946.146 904.729 945.992 905.084C945.826 905.452 945.766 905.788 945.81 906.094C945.854 906.401 945.996 906.658 946.236 906.868C946.476 907.078 946.767 907.165 947.109 907.13C947.453 907.119 947.818 906.982 948.205 906.718C948.604 906.466 949.013 906.1 949.433 905.62C949.874 905.115 950.269 904.536 950.617 903.883C950.955 903.242 951.246 902.539 951.492 901.774L953.764 902.691C953.491 903.589 953.166 904.407 952.788 905.145C952.411 905.907 951.964 906.597 951.447 907.214C950.679 908.169 949.867 908.906 949.01 909.427C948.154 909.948 947.329 910.229 946.536 910.271C945.742 910.312 945.055 910.079 944.474 909.571C943.995 909.152 943.692 908.619 943.565 907.974C943.44 907.353 943.497 906.689 943.735 905.984C943.962 905.291 944.362 904.617 944.936 903.96L945.381 904.483C944.399 905.607 943.399 906.292 942.381 906.538C941.377 906.796 940.489 906.588 939.719 905.915C939.1 905.374 938.733 904.685 938.618 903.849C938.515 903.024 938.651 902.13 939.026 901.166C939.39 900.214 939.981 899.272 940.798 898.337Z" fill="#29366B"/>
<path d="M935.29 904.986L945.128 914.131L942.885 916.544L932.22 914.015L933.111 913.057L936.223 923.711L934.219 925.867L924.364 916.74L926.299 914.658L933.669 921.508L933.087 921.654L930.414 912.301L931.338 911.306L941.045 913.426L940.744 913.971L933.338 907.086L935.29 904.986Z" fill="#29366B"/>
<path d="M916.017 924.903C917.074 923.85 918.208 923.134 919.418 922.757C920.628 922.403 921.82 922.375 922.993 922.674C924.154 922.984 925.203 923.609 926.138 924.547C927.085 925.497 927.712 926.542 928.018 927.681C928.324 928.843 928.316 929.999 927.994 931.149C927.66 932.31 927.018 933.365 926.068 934.312C925.141 935.235 924.115 935.856 922.988 936.174C921.861 936.492 920.722 936.49 919.573 936.168C918.423 935.846 917.351 935.186 916.357 934.188C916.262 934.093 916.161 933.98 916.055 933.85C915.936 933.731 915.83 933.612 915.735 933.493L923.664 925.592L925.138 927.071L918.385 933.8L918.796 932.467C919.329 933.025 919.921 933.394 920.573 933.573C921.225 933.752 921.877 933.753 922.53 933.576C923.17 933.411 923.758 933.063 924.292 932.53C924.839 931.985 925.201 931.387 925.38 930.735C925.547 930.095 925.537 929.443 925.348 928.779C925.159 928.138 924.781 927.533 924.213 926.963L923.858 926.606C923.29 926.036 922.656 925.661 921.957 925.482C921.257 925.303 920.552 925.332 919.84 925.568C919.128 925.804 918.463 926.229 917.845 926.845C917.311 927.378 916.913 927.94 916.651 928.533C916.389 929.125 916.269 929.765 916.292 930.453L913.731 930.271C913.661 929.346 913.817 928.421 914.198 927.497C914.579 926.596 915.185 925.732 916.017 924.903Z" fill="#29366B"/>
<path d="M908.41 932.63L917.558 942.465L915.256 944.607L911.539 940.61L906.584 945.218L910.301 949.215L907.999 951.356L898.851 941.521L901.153 939.379L904.768 943.266L909.723 938.658L906.108 934.771L908.41 932.63Z" fill="#29366B"/>
<path d="M891.44 947.834C892.564 946.852 893.741 946.212 894.974 945.914C896.204 945.64 897.395 945.69 898.547 946.064C899.685 946.45 900.691 947.141 901.563 948.138C902.446 949.148 903.003 950.232 903.234 951.388C903.464 952.568 903.381 953.721 902.985 954.847C902.576 955.985 901.866 956.995 900.856 957.878C899.872 958.739 898.807 959.291 897.661 959.535C896.516 959.779 895.38 959.703 894.254 959.307C893.128 958.91 892.101 958.182 891.174 957.122C891.085 957.021 890.992 956.901 890.895 956.764C890.784 956.638 890.686 956.512 890.599 956.388L899.026 949.02L900.4 950.592L893.223 956.867L893.72 955.563C894.216 956.155 894.783 956.561 895.421 956.782C896.06 957.004 896.711 957.047 897.373 956.913C898.023 956.791 898.632 956.481 899.201 955.984C899.781 955.476 900.182 954.903 900.403 954.264C900.612 953.637 900.644 952.985 900.499 952.31C900.352 951.658 900.014 951.029 899.484 950.423L899.153 950.045C898.623 949.439 898.015 949.024 897.329 948.799C896.643 948.575 895.937 948.558 895.211 948.747C894.486 948.936 893.795 949.317 893.138 949.891C892.57 950.388 892.136 950.923 891.836 951.497C891.536 952.071 891.375 952.702 891.353 953.39L888.809 953.041C888.8 952.114 889.016 951.201 889.456 950.304C889.895 949.43 890.556 948.607 891.44 947.834Z" fill="#29366B"/>
<path d="M883.167 955.2L891.652 965.612L889.215 967.598L885.767 963.367L880.521 967.642L883.97 971.873L881.532 973.859L873.047 963.447L875.484 961.461L878.837 965.575L884.082 961.3L880.729 957.186L883.167 955.2Z" fill="#29366B"/>
<path d="M870.628 965.366L878.788 976.035L876.291 977.945L870.911 970.912L870.397 982.453L868.119 984.195L859.959 973.526L862.456 971.616L867.835 978.649L868.33 967.123L870.628 965.366Z" fill="#29366B"/>
<path d="M849.996 980.723L852.664 984.443L851.988 984.278L855.259 981.932C856.758 980.857 858.161 980.326 859.469 980.337C860.773 980.371 861.856 980.988 862.715 982.188C863.634 983.469 863.883 984.766 863.462 986.078C863.028 987.401 862.055 988.604 860.542 989.689L855.534 993.28L847.706 982.364L849.996 980.723ZM857.846 975.094L857.892 981.375L855.276 983.251L855.106 977.058L857.846 975.094ZM853.25 985.261L856.768 990.167L855.916 989.756L858.921 987.601C859.712 987.034 860.217 986.445 860.438 985.832C860.656 985.243 860.53 984.622 860.061 983.967C859.181 982.741 857.944 982.699 856.35 983.843L853.263 986.056L853.25 985.261Z" fill="#29366B"/>
<path d="M837.013 989.669L844.326 1000.94L838.82 1004.51C837.455 1005.4 836.222 1005.84 835.12 1005.83C834.003 1005.84 833.144 1005.38 832.541 1004.45C831.948 1003.53 831.848 1002.58 832.241 1001.58C832.644 1000.6 833.45 999.719 834.66 998.934L834.768 999.793C833.403 1000.68 832.226 1001.08 831.237 1001.01C830.242 1000.95 829.434 1000.45 828.813 999.49C828.165 998.491 828.031 997.469 828.411 996.422C828.801 995.39 829.755 994.381 831.274 993.394L837.013 989.669ZM835.748 993.219L832.731 995.177C832.014 995.643 831.545 996.107 831.326 996.57C831.115 997.046 831.165 997.523 831.476 998.002C831.804 998.508 832.215 998.771 832.708 998.791C833.201 998.811 833.806 998.588 834.523 998.123L837.625 996.109L835.748 993.219ZM838.761 997.861L835.997 999.655C835.322 1000.09 834.894 1000.54 834.711 1001C834.524 1001.48 834.576 1001.95 834.869 1002.4C835.17 1002.86 835.569 1003.09 836.067 1003.09C836.551 1003.09 837.13 1002.88 837.805 1002.44L840.569 1000.65L838.761 997.861Z" fill="#29366B"/>
<path d="M819.318 1000.95L826.147 1012.51L815.057 1019.06L808.228 1007.5L810.913 1005.91L816.758 1015.81L815.759 1015.55L822.712 1011.45L822.455 1012.45L816.61 1002.55L819.318 1000.95Z" fill="#29366B"/>
<path d="M797.2 1013.42C798.157 1012.9 799.154 1012.64 800.19 1012.65C801.211 1012.67 802.197 1012.99 803.15 1013.62C804.096 1014.27 804.942 1015.28 805.688 1016.65C806.442 1018.03 806.838 1019.29 806.878 1020.41C806.902 1021.54 806.641 1022.53 806.093 1023.39C805.553 1024.25 804.782 1024.96 803.781 1025.51C802.618 1026.14 801.458 1026.45 800.301 1026.43C799.13 1026.41 798.042 1026.1 797.038 1025.48C796.018 1024.87 795.176 1023.96 794.51 1022.73C793.844 1021.51 793.528 1020.3 793.561 1019.1C793.587 1017.92 793.913 1016.84 794.538 1015.85C795.149 1014.86 796.036 1014.06 797.2 1013.42ZM801.489 1005.73L810.247 1021.81L807.619 1023.24L806.103 1020.46L804.483 1017.27L802.553 1014.26L798.727 1007.23L801.489 1005.73ZM798.796 1015.62C798.134 1015.98 797.625 1016.45 797.27 1017.02C796.9 1017.6 796.713 1018.26 796.709 1018.99C796.704 1019.72 796.906 1020.46 797.315 1021.21C797.733 1021.97 798.244 1022.54 798.85 1022.92C799.464 1023.31 800.116 1023.51 800.807 1023.52C801.483 1023.53 802.152 1023.36 802.815 1023C803.478 1022.63 803.994 1022.16 804.364 1021.58C804.733 1021 804.92 1020.34 804.925 1019.61C804.937 1018.9 804.735 1018.16 804.318 1017.39C803.909 1016.64 803.397 1016.07 802.783 1015.68C802.169 1015.29 801.517 1015.09 800.826 1015.08C800.136 1015.08 799.459 1015.26 798.796 1015.62Z" fill="#29366B"/>
<path d="M781.896 1021.41C783.231 1020.74 784.532 1020.42 785.799 1020.44C787.059 1020.48 788.199 1020.83 789.219 1021.48C790.225 1022.14 791.024 1023.07 791.617 1024.25C792.217 1025.45 792.484 1026.64 792.417 1027.82C792.343 1029.02 791.972 1030.11 791.305 1031.1C790.623 1032.1 789.683 1032.9 788.483 1033.5C787.313 1034.08 786.144 1034.35 784.974 1034.3C783.804 1034.25 782.724 1033.89 781.733 1033.22C780.743 1032.55 779.933 1031.59 779.302 1030.33C779.242 1030.21 779.182 1030.07 779.122 1029.91C779.047 1029.77 778.983 1029.62 778.931 1029.48L788.94 1024.47L789.874 1026.33L781.35 1030.6L782.159 1029.46C782.489 1030.16 782.936 1030.7 783.498 1031.07C784.061 1031.45 784.68 1031.65 785.355 1031.69C786.015 1031.73 786.682 1031.59 787.357 1031.25C788.047 1030.9 788.579 1030.45 788.954 1029.89C789.313 1029.33 789.508 1028.71 789.538 1028.02C789.56 1027.35 789.391 1026.66 789.03 1025.94L788.805 1025.49C788.445 1024.77 787.961 1024.21 787.353 1023.83C786.746 1023.44 786.067 1023.24 785.317 1023.24C784.567 1023.24 783.802 1023.44 783.022 1023.83C782.348 1024.17 781.793 1024.57 781.358 1025.05C780.923 1025.53 780.609 1026.1 780.414 1026.76L778.04 1025.79C778.265 1024.89 778.703 1024.06 779.355 1023.3C779.999 1022.57 780.847 1021.93 781.896 1021.41Z" fill="#29366B"/>
<path d="M773.725 1025.69L779.32 1037.9L776.325 1039.27L767.437 1032.86L768.626 1032.31L767.429 1043.35L764.754 1044.57L759.136 1032.37L761.72 1031.19L765.911 1040.34L765.317 1040.25L766.422 1030.58L767.657 1030.02L775.816 1035.69L775.33 1036.07L771.118 1026.88L773.725 1025.69Z" fill="#29366B"/>
<path d="M747.919 1036.91C749.298 1036.34 750.619 1036.11 751.882 1036.23C753.135 1036.36 754.247 1036.79 755.217 1037.52C756.172 1038.25 756.902 1039.22 757.408 1040.45C757.92 1041.69 758.099 1042.89 757.947 1044.06C757.786 1045.25 757.337 1046.32 756.6 1047.26C755.847 1048.2 754.851 1048.93 753.611 1049.45C752.402 1049.94 751.216 1050.13 750.053 1049.99C748.889 1049.85 747.838 1049.42 746.899 1048.68C745.96 1047.94 745.221 1046.92 744.684 1045.62C744.633 1045.5 744.583 1045.35 744.534 1045.19C744.471 1045.04 744.417 1044.89 744.375 1044.74L754.722 1040.47L755.519 1042.4L746.707 1046.04L747.596 1044.96C747.875 1045.68 748.282 1046.25 748.816 1046.66C749.349 1047.08 749.952 1047.33 750.622 1047.41C751.277 1047.51 751.953 1047.41 752.651 1047.12C753.364 1046.83 753.928 1046.41 754.342 1045.88C754.741 1045.35 754.981 1044.74 755.06 1044.06C755.131 1043.39 755.013 1042.69 754.705 1041.95L754.514 1041.48C754.206 1040.74 753.764 1040.15 753.186 1039.72C752.608 1039.28 751.946 1039.04 751.198 1038.99C750.45 1038.93 749.673 1039.07 748.867 1039.4C748.169 1039.69 747.586 1040.06 747.118 1040.51C746.649 1040.95 746.294 1041.5 746.052 1042.14L743.755 1041C744.044 1040.11 744.542 1039.32 745.247 1038.61C745.943 1037.93 746.834 1037.36 747.919 1036.91Z" fill="#29366B"/>
<path d="M740.158 1040.29L744.903 1052.85L741.962 1053.96L740.033 1048.86L733.703 1051.25L735.632 1056.35L732.69 1057.46L727.945 1044.9L730.887 1043.79L732.761 1048.75L739.092 1046.36L737.217 1041.4L740.158 1040.29Z" fill="#29366B"/>
<path d="M717.484 1048.36C718.786 1047.92 720.04 1047.81 721.245 1048.02C722.455 1048.24 723.521 1048.75 724.442 1049.54C725.364 1050.32 726.037 1051.34 726.463 1052.6C726.893 1053.87 726.979 1055.09 726.72 1056.25C726.466 1057.44 725.926 1058.48 725.098 1059.38C724.27 1060.28 723.205 1060.95 721.902 1061.39C720.584 1061.84 719.323 1061.96 718.118 1061.75C716.897 1061.54 715.837 1061.05 714.936 1060.28C714.02 1059.51 713.344 1058.48 712.908 1057.19C712.483 1055.94 712.397 1054.72 712.651 1053.53C712.888 1052.36 713.426 1051.31 714.265 1050.38C715.093 1049.48 716.166 1048.81 717.484 1048.36ZM718.348 1050.91C717.618 1051.16 717.02 1051.54 716.556 1052.05C716.092 1052.56 715.804 1053.17 715.691 1053.88C715.562 1054.6 715.635 1055.36 715.91 1056.17C716.19 1057 716.596 1057.65 717.129 1058.12C717.651 1058.62 718.252 1058.93 718.931 1059.05C719.611 1059.18 720.308 1059.12 721.022 1058.88C721.753 1058.63 722.35 1058.25 722.814 1057.74C723.262 1057.23 723.551 1056.62 723.68 1055.9C723.814 1055.2 723.741 1054.44 723.461 1053.61C723.186 1052.8 722.78 1052.15 722.242 1051.66C721.704 1051.17 721.103 1050.86 720.439 1050.73C719.76 1050.61 719.063 1050.67 718.348 1050.91Z" fill="#29366B"/>
<path d="M707.112 1052.01L710.99 1064.87L698.66 1068.58L694.782 1055.72L697.768 1054.82L701.087 1065.83L700.178 1065.34L707.908 1063.01L707.421 1063.92L704.101 1052.91L707.112 1052.01Z" fill="#29366B"/>
<path d="M683.834 1058.73L684.54 1061.35L684.86 1061.86L686.096 1066.46C686.335 1067.35 686.787 1067.96 687.453 1068.3C688.122 1068.66 688.999 1068.7 690.084 1068.4C690.813 1068.21 691.503 1067.9 692.155 1067.48C692.79 1067.07 693.296 1066.59 693.673 1066.06L695.458 1067.95C694.905 1068.67 694.186 1069.29 693.3 1069.8C692.403 1070.34 691.436 1070.75 690.399 1071.03C688.521 1071.53 686.95 1071.47 685.686 1070.84C684.41 1070.23 683.519 1068.98 683.014 1067.1L680.968 1059.5L683.834 1058.73ZM687.869 1057.46C688.841 1057.2 689.735 1057.13 690.551 1057.26C691.371 1057.4 692.062 1057.71 692.623 1058.19C693.173 1058.68 693.548 1059.3 693.749 1060.05C693.945 1060.77 693.951 1061.48 693.768 1062.15C693.569 1062.83 693.118 1063.45 692.416 1064C691.714 1064.55 690.707 1065.01 689.395 1065.36L685.63 1066.37L685.088 1064.36L688.634 1063.4C689.671 1063.12 690.321 1062.77 690.586 1062.33C690.855 1061.91 690.924 1061.46 690.794 1060.97C690.646 1060.42 690.309 1060.04 689.785 1059.84C689.261 1059.63 688.61 1059.63 687.833 1059.84C687.088 1060.04 686.469 1060.39 685.978 1060.89C685.47 1061.39 685.176 1062.01 685.096 1062.74L684.096 1061.05C684.182 1060.21 684.55 1059.48 685.197 1058.86C685.829 1058.23 686.72 1057.77 687.869 1057.46Z" fill="#29366B"/>
<path d="M674.583 1055.91C675.219 1055.76 675.881 1055.71 676.567 1055.77C677.254 1055.83 677.854 1056 678.367 1056.28L677.677 1058.82C677.301 1058.62 676.898 1058.48 676.468 1058.41C676.038 1058.34 675.619 1058.35 675.211 1058.45C674.656 1058.58 674.24 1058.82 673.963 1059.18C673.686 1059.54 673.479 1060.08 673.34 1060.8L672.987 1062.7L672.829 1063.12L670.624 1075.85L667.687 1076.54L670.458 1060.97C670.634 1059.89 670.907 1059.01 671.277 1058.32C671.631 1057.63 672.091 1057.1 672.657 1056.73C673.207 1056.35 673.849 1056.08 674.583 1055.91ZM672.947 1061L682.054 1073.14L678.872 1073.89L671.4 1063.75L672.947 1061Z" fill="#29366B"/>
<path d="M657.167 1064.81C658.169 1064.61 659.186 1064.52 660.219 1064.54C661.239 1064.59 662.189 1064.76 663.068 1065.04L662.677 1067.51C661.962 1067.28 661.182 1067.15 660.337 1067.11C659.491 1067.08 658.666 1067.15 657.861 1067.32C657.172 1067.46 656.594 1067.64 656.128 1067.88C655.666 1068.13 655.332 1068.42 655.127 1068.75C654.905 1069.09 654.831 1069.44 654.905 1069.8C655.013 1070.32 655.325 1070.67 655.838 1070.84C656.339 1071.03 657.009 1071.03 657.846 1070.86L660.384 1070.34L660.81 1072.41L658.519 1072.88C657.993 1072.99 657.561 1073.14 657.224 1073.33C656.869 1073.52 656.618 1073.75 656.468 1074.02C656.318 1074.29 656.275 1074.58 656.339 1074.9C656.404 1075.21 656.582 1075.45 656.876 1075.63C657.157 1075.83 657.531 1075.94 657.998 1075.97C658.468 1076.01 659.016 1075.96 659.64 1075.84C660.297 1075.7 660.962 1075.48 661.634 1075.17C662.29 1074.86 662.947 1074.48 663.606 1074.02L664.861 1076.12C664.101 1076.67 663.347 1077.13 662.599 1077.49C661.838 1077.87 661.065 1078.14 660.28 1078.32C659.091 1078.62 657.998 1078.72 657.001 1078.61C656.004 1078.51 655.177 1078.23 654.52 1077.79C653.863 1077.34 653.457 1076.74 653.302 1075.98C653.173 1075.36 653.254 1074.75 653.543 1074.16C653.82 1073.59 654.266 1073.1 654.882 1072.68C655.481 1072.27 656.208 1071.97 657.062 1071.79L657.101 1072.48C655.639 1072.78 654.428 1072.72 653.469 1072.3C652.513 1071.9 651.932 1071.2 651.726 1070.2C651.56 1069.39 651.684 1068.62 652.098 1067.88C652.515 1067.17 653.164 1066.54 654.046 1065.99C654.911 1065.46 655.951 1065.06 657.167 1064.81Z" fill="#29366B"/>
<path d="M644.726 1062.36C645.37 1062.25 646.033 1062.25 646.715 1062.35C647.397 1062.45 647.986 1062.65 648.482 1062.96L647.641 1065.46C647.278 1065.23 646.884 1065.07 646.459 1064.97C646.034 1064.88 645.614 1064.86 645.201 1064.94C644.64 1065.04 644.21 1065.25 643.912 1065.6C643.615 1065.94 643.375 1066.47 643.193 1067.18L642.728 1069.05L642.545 1069.46L639.585 1082.03L636.612 1082.55L640.306 1067.17C640.546 1066.11 640.871 1065.24 641.282 1064.58C641.677 1063.91 642.168 1063.41 642.755 1063.07C643.326 1062.73 643.983 1062.49 644.726 1062.36ZM642.789 1067.35L651.156 1080.01L647.935 1080.57L641.081 1070L642.789 1067.35Z" fill="#29366B"/>
<path d="M304.409 1011.88L297.924 1023.53L303.946 1026.88L305.573 1024.21C306.188 1023.21 306.797 1022.28 307.398 1021.4C307.977 1020.53 308.563 1019.78 309.155 1019.13C309.732 1018.47 310.306 1017.97 310.876 1017.64C311.446 1017.3 311.989 1017.17 312.503 1017.25L315.336 1019.4C314.795 1019.06 314.235 1019 313.655 1019.21C313.06 1019.42 312.456 1019.83 311.843 1020.45C311.23 1021.07 310.599 1021.84 309.95 1022.76C309.293 1023.7 308.62 1024.74 307.932 1025.87L305.04 1030.65L293.765 1024.38L301.596 1010.31L304.409 1011.88ZM319.032 1014L315.841 1019.68L298.765 1010.17L301.934 1004.48L304.571 1005.95L302.748 1009.23L314.55 1015.8L316.373 1012.52L319.032 1014Z" fill="#29366B"/>
<path d="M292.708 1003.07C293.986 1003.84 294.954 1004.77 295.613 1005.85C296.249 1006.94 296.564 1008.09 296.559 1009.3C296.539 1010.5 296.186 1011.67 295.502 1012.81C294.809 1013.96 293.948 1014.82 292.917 1015.39C291.863 1015.97 290.739 1016.24 289.546 1016.21C288.338 1016.16 287.16 1015.79 286.011 1015.1C284.891 1014.43 284.04 1013.58 283.459 1012.56C282.877 1011.55 282.604 1010.44 282.638 1009.25C282.672 1008.06 283.053 1006.86 283.781 1005.65C283.85 1005.53 283.935 1005.41 284.036 1005.27C284.123 1005.13 284.212 1005 284.304 1004.88L293.89 1010.66L292.811 1012.45L284.648 1007.52L286.041 1007.6C285.628 1008.25 285.414 1008.92 285.398 1009.59C285.382 1010.27 285.539 1010.9 285.868 1011.49C286.183 1012.07 286.664 1012.56 287.31 1012.95C287.97 1013.35 288.639 1013.55 289.314 1013.57C289.976 1013.58 290.606 1013.41 291.205 1013.06C291.781 1012.73 292.277 1012.21 292.693 1011.52L292.952 1011.09C293.368 1010.4 293.578 1009.7 293.583 1008.98C293.587 1008.25 293.389 1007.58 292.988 1006.94C292.587 1006.31 292.013 1005.77 291.266 1005.32C290.62 1004.93 289.978 1004.68 289.339 1004.57C288.701 1004.46 288.051 1004.49 287.389 1004.68L286.946 1002.15C287.827 1001.86 288.762 1001.79 289.751 1001.94C290.717 1002.09 291.702 1002.47 292.708 1003.07Z" fill="#29366B"/>
<path d="M284.623 998.353L277.334 1009.64L266.516 1002.65L273.805 991.365L276.425 993.058L270.187 1002.71L269.971 1001.71L276.753 1006.09L275.744 1006.3L281.982 996.647L284.623 998.353Z" fill="#29366B"/>
<path d="M263.588 984.155C264.483 984.777 265.158 985.554 265.613 986.484C266.055 987.405 266.209 988.431 266.075 989.564C265.917 990.7 265.392 991.908 264.501 993.188C263.601 994.482 262.656 995.398 261.669 995.936C260.667 996.465 259.663 996.675 258.656 996.566C257.639 996.471 256.662 996.098 255.727 995.447C254.639 994.69 253.846 993.79 253.346 992.747C252.832 991.695 252.626 990.581 252.729 989.406C252.818 988.222 253.26 987.058 254.056 985.916C254.851 984.774 255.793 983.948 256.883 983.44C257.949 982.936 259.065 982.742 260.23 982.859C261.381 982.966 262.501 983.398 263.588 984.155ZM272.386 984.548L261.923 999.577L259.467 997.867L261.278 995.266L263.401 992.392L265.235 989.316L269.806 982.752L272.386 984.548ZM262.339 986.565C261.72 986.133 261.074 985.888 260.4 985.828C259.713 985.758 259.043 985.884 258.39 986.206C257.737 986.528 257.166 987.039 256.677 987.741C256.179 988.457 255.897 989.17 255.832 989.88C255.757 990.605 255.871 991.277 256.175 991.897C256.465 992.508 256.92 993.028 257.539 993.46C258.158 993.891 258.811 994.141 259.499 994.211C260.186 994.281 260.856 994.155 261.509 993.833C262.152 993.525 262.723 993.013 263.221 992.297C263.71 991.595 263.992 990.882 264.067 990.158C264.142 989.434 264.028 988.762 263.724 988.142C263.42 987.521 262.959 986.996 262.339 986.565Z" fill="#29366B"/>
<path d="M249.759 974.151C250.954 975.046 251.825 976.065 252.372 977.208C252.896 978.354 253.095 979.53 252.969 980.734C252.829 981.928 252.362 983.055 251.568 984.116C250.764 985.19 249.82 985.96 248.737 986.427C247.631 986.897 246.486 987.056 245.302 986.903C244.104 986.739 242.969 986.256 241.895 985.451C240.848 984.667 240.086 983.741 239.609 982.671C239.131 981.602 238.97 980.475 239.123 979.291C239.276 978.107 239.775 976.951 240.619 975.824C240.7 975.716 240.797 975.6 240.911 975.476C241.011 975.342 241.114 975.219 241.217 975.109L250.178 981.818L248.926 983.489L241.295 977.775L242.674 977.99C242.198 978.598 241.918 979.237 241.835 979.908C241.752 980.578 241.844 981.224 242.113 981.844C242.369 982.454 242.798 982.986 243.402 983.438C244.02 983.9 244.664 984.173 245.335 984.256C245.992 984.33 246.636 984.225 247.266 983.943C247.873 983.664 248.418 983.203 248.9 982.558L249.202 982.156C249.684 981.511 249.964 980.83 250.04 980.112C250.117 979.395 249.987 978.7 249.651 978.03C249.315 977.359 248.798 976.763 248.1 976.24C247.496 975.788 246.882 975.475 246.258 975.301C245.635 975.127 244.984 975.101 244.306 975.222L244.118 972.661C245.024 972.46 245.961 972.481 246.931 972.725C247.877 972.972 248.819 973.448 249.759 974.151Z" fill="#29366B"/>
<path d="M237.889 964.99C238.993 965.865 239.797 966.875 240.301 968.022C240.781 969.172 240.942 970.347 240.783 971.548C240.624 972.748 240.134 973.867 239.312 974.906C238.479 975.958 237.502 976.693 236.381 977.11C235.249 977.54 234.074 977.647 232.855 977.431C231.623 977.204 230.454 976.653 229.35 975.779C228.324 974.968 227.59 974.044 227.147 973.009C226.681 971.977 226.561 970.899 226.789 969.774L229.556 970.168C229.476 970.918 229.573 971.593 229.846 972.194C230.105 972.785 230.498 973.288 231.024 973.704C231.629 974.183 232.279 974.483 232.974 974.605C233.668 974.727 234.351 974.648 235.023 974.367C235.684 974.099 236.285 973.623 236.827 972.939C237.368 972.256 237.698 971.555 237.817 970.836C237.926 970.131 237.841 969.455 237.563 968.807C237.285 968.159 236.843 967.595 236.238 967.116C235.712 966.7 235.132 966.433 234.498 966.316C233.85 966.189 233.171 966.25 232.46 966.5L231.441 963.897C232.473 963.43 233.555 963.292 234.687 963.483C235.796 963.676 236.863 964.179 237.889 964.99Z" fill="#29366B"/>
<path d="M225.926 955.178C227.004 956.085 227.777 957.12 228.245 958.282C228.69 959.446 228.814 960.625 228.619 961.82C228.424 963.015 227.899 964.119 227.046 965.132C226.181 966.158 225.182 966.863 224.049 967.245C222.904 967.641 221.726 967.712 220.515 967.458C219.29 967.194 218.139 966.608 217.062 965.701C216.061 964.858 215.356 963.913 214.945 962.865C214.51 961.819 214.424 960.738 214.685 959.62L217.44 960.099C217.337 960.845 217.413 961.523 217.667 962.132C217.909 962.73 218.286 963.246 218.799 963.678C219.389 964.175 220.029 964.495 220.72 964.638C221.41 964.781 222.096 964.723 222.775 964.462C223.445 964.215 224.06 963.757 224.622 963.09C225.184 962.424 225.535 961.733 225.676 961.019C225.807 960.317 225.743 959.639 225.484 958.982C225.226 958.326 224.802 957.749 224.212 957.252C223.699 956.82 223.127 956.536 222.496 956.399C221.853 956.252 221.172 956.293 220.454 956.521L219.515 953.888C220.56 953.453 221.646 953.348 222.772 953.573C223.875 953.8 224.926 954.335 225.926 955.178Z" fill="#29366B"/>
<path d="M219.688 950.103L210.725 960.107L208.383 958.009L214.292 951.415L202.857 953.058L200.721 951.144L209.684 941.14L212.026 943.238L206.118 949.833L217.534 948.173L219.688 950.103Z" fill="#29366B"/>
<path d="M200.987 932.896L197.83 936.212L197.866 935.517L200.781 938.292C202.117 939.564 202.901 940.844 203.134 942.131C203.344 943.419 202.94 944.597 201.922 945.666C200.835 946.807 199.608 947.294 198.239 947.126C196.859 946.946 195.495 946.214 194.147 944.931L189.684 940.681L198.946 930.953L200.987 932.896ZM207.982 939.557L201.82 940.775L199.488 938.555L205.541 937.233L207.982 939.557ZM197.136 936.94L192.973 941.312L193.217 940.399L195.895 942.949C196.6 943.619 197.273 944.006 197.916 944.109C198.536 944.212 199.123 943.973 199.678 943.39C200.719 942.297 200.529 941.074 199.108 939.721L196.357 937.102L197.136 936.94Z" fill="#29366B"/>
<path d="M198.853 925.489L193.896 928.397L194.906 926.777C195.322 927.191 195.548 927.665 195.585 928.198C195.598 928.732 195.385 929.219 194.947 929.658C194.497 930.109 194.006 930.33 193.472 930.319C192.915 930.308 192.434 930.101 192.03 929.699C191.614 929.285 191.406 928.805 191.405 928.259C191.404 927.714 191.623 927.221 192.061 926.782C192.179 926.663 192.321 926.544 192.487 926.425C192.641 926.318 192.836 926.205 193.073 926.086C193.298 925.955 193.606 925.813 193.997 925.658L197.41 924.051L198.853 925.489Z" fill="#29366B"/>
<path d="M182.996 914.269C183.753 915.077 184.307 915.913 184.659 916.779C185.011 917.644 185.154 918.545 185.088 919.48C184.999 920.414 184.677 921.371 184.124 922.349C183.57 923.328 182.755 924.322 181.679 925.332C180.896 926.066 180.117 926.669 179.343 927.143C178.568 927.616 177.798 927.959 177.032 928.172C176.253 928.396 175.473 928.495 174.691 928.47C173.897 928.432 173.108 928.265 172.322 927.967C171.537 927.668 170.744 927.24 169.944 926.68L164.704 923.041L166.45 920.784L171.165 924.121C171.432 924.308 171.769 924.52 172.176 924.759C172.56 924.996 173.005 925.201 173.509 925.371C173.99 925.541 174.533 925.618 175.139 925.601C175.721 925.585 176.355 925.427 177.041 925.129C177.703 924.83 178.413 924.325 179.171 923.614C179.404 923.396 179.576 923.223 179.686 923.096C179.774 922.969 179.879 922.836 180.002 922.697C180.101 922.558 180.273 922.374 180.518 922.144L180.427 923.85C179.574 924.19 178.726 924.353 177.885 924.337C177.019 924.321 176.201 924.135 175.429 923.778C174.634 923.42 173.915 922.899 173.273 922.214C172.413 921.296 171.839 920.305 171.553 919.24C171.267 918.175 171.278 917.119 171.584 916.073C171.891 915.027 172.478 914.097 173.347 913.283C174.252 912.434 175.26 911.903 176.37 911.689C177.48 911.476 178.616 911.584 179.776 912.013C180.913 912.441 181.986 913.193 182.996 914.269ZM180.97 915.824C180.454 915.273 179.885 914.899 179.263 914.701C178.617 914.502 177.977 914.482 177.343 914.639C176.697 914.784 176.118 915.098 175.604 915.58C175.09 916.061 174.758 916.602 174.609 917.203C174.435 917.802 174.433 918.425 174.602 919.071C174.759 919.705 175.108 920.309 175.647 920.884C176.163 921.435 176.738 921.827 177.371 922.061C177.992 922.282 178.614 922.332 179.234 922.21C179.832 922.087 180.381 921.79 180.882 921.32C181.396 920.838 181.753 920.274 181.951 919.628C182.15 918.982 182.171 918.33 182.014 917.672C181.846 917.003 181.498 916.386 180.97 915.824Z" fill="#29366B"/>
<path d="M171.11 901.251C172.094 902.374 172.735 903.551 173.034 904.783C173.309 906.013 173.26 907.204 172.887 908.356C172.502 909.495 171.812 910.501 170.816 911.374C169.806 912.258 168.724 912.816 167.568 913.049C166.388 913.28 165.235 913.198 164.108 912.802C162.97 912.394 161.96 911.686 161.076 910.677C160.214 909.693 159.66 908.628 159.415 907.483C159.17 906.338 159.245 905.202 159.64 904.076C160.036 902.949 160.763 901.922 161.823 900.994C161.924 900.905 162.043 900.812 162.18 900.714C162.306 900.604 162.431 900.505 162.556 900.418L169.932 908.838L168.361 910.214L162.079 903.043L163.383 903.539C162.792 904.035 162.386 904.602 162.166 905.241C161.945 905.88 161.902 906.531 162.037 907.193C162.16 907.843 162.47 908.452 162.968 909.019C163.476 909.6 164.05 910 164.689 910.221C165.317 910.428 165.968 910.46 166.643 910.314C167.295 910.167 167.923 909.828 168.529 909.298L168.907 908.966C169.512 908.436 169.927 907.828 170.151 907.141C170.374 906.455 170.391 905.749 170.202 905.023C170.012 904.298 169.63 903.607 169.055 902.951C168.558 902.384 168.022 901.95 167.448 901.651C166.873 901.351 166.242 901.191 165.554 901.169L165.901 898.625C166.828 898.615 167.741 898.83 168.639 899.27C169.513 899.708 170.337 900.368 171.11 901.251Z" fill="#29366B"/>
<path d="M160.562 888.794C161.458 889.881 162.032 891.038 162.283 892.265C162.511 893.49 162.421 894.673 162.013 895.813C161.606 896.953 160.891 897.945 159.868 898.787C158.833 899.641 157.724 900.153 156.54 900.325C155.343 900.508 154.171 900.365 153.025 899.897C151.868 899.417 150.842 898.633 149.946 897.546C149.114 896.537 148.59 895.48 148.375 894.375C148.136 893.268 148.246 892.189 148.704 891.137L151.327 892.104C151.092 892.82 151.044 893.5 151.184 894.145C151.314 894.777 151.592 895.352 152.019 895.87C152.51 896.465 153.082 896.895 153.735 897.16C154.389 897.426 155.073 897.492 155.789 897.358C156.492 897.235 157.18 896.896 157.852 896.342C158.525 895.787 158.996 895.171 159.263 894.494C159.518 893.828 159.577 893.148 159.442 892.456C159.306 891.764 158.992 891.121 158.502 890.525C158.075 890.008 157.564 889.625 156.968 889.377C156.362 889.116 155.685 889.033 154.937 889.128L154.488 886.369C155.595 886.13 156.682 886.223 157.749 886.647C158.793 887.069 159.73 887.785 160.562 888.794Z" fill="#29366B"/>
<path d="M151.238 877.072C152.101 878.185 152.64 879.359 152.854 880.593C153.045 881.824 152.92 883.004 152.479 884.131C152.037 885.258 151.293 886.228 150.246 887.04C149.186 887.862 148.062 888.341 146.873 888.478C145.671 888.624 144.504 888.447 143.373 887.945C142.231 887.43 141.228 886.616 140.365 885.503C139.563 884.469 139.071 883.397 138.889 882.287C138.683 881.173 138.825 880.097 139.315 879.06L141.908 880.105C141.651 880.813 141.583 881.492 141.704 882.141C141.815 882.776 142.076 883.359 142.487 883.889C142.96 884.499 143.519 884.946 144.164 885.231C144.809 885.515 145.492 885.602 146.211 885.49C146.917 885.388 147.615 885.07 148.304 884.535C148.993 884.001 149.481 883.399 149.769 882.731C150.044 882.072 150.123 881.395 150.008 880.699C149.893 880.003 149.599 879.35 149.126 878.741C148.715 878.211 148.216 877.813 147.628 877.547C147.03 877.269 146.356 877.165 145.605 877.238L145.239 874.466C146.353 874.261 147.436 874.386 148.49 874.842C149.521 875.295 150.436 876.038 151.238 877.072Z" fill="#29366B"/>
<path d="M142.723 865.717C143.533 866.828 144.016 867.99 144.174 869.203C144.319 870.426 144.153 871.594 143.679 872.708C143.204 873.822 142.431 874.769 141.361 875.549C140.276 876.339 139.138 876.785 137.946 876.886C136.741 876.997 135.585 876.792 134.478 876.27C133.372 875.749 132.413 874.932 131.603 873.821C130.784 872.696 130.295 871.527 130.137 870.314C129.969 869.088 130.121 867.929 130.592 866.839C131.053 865.735 131.833 864.783 132.93 863.983C134.001 863.202 135.139 862.757 136.345 862.646C137.54 862.521 138.703 862.722 139.833 863.247C140.94 863.769 141.903 864.592 142.723 865.717ZM140.548 867.302C140.093 866.678 139.553 866.222 138.926 865.931C138.299 865.641 137.63 865.548 136.917 865.652C136.195 865.743 135.488 866.04 134.797 866.544C134.092 867.058 133.593 867.639 133.299 868.29C132.982 868.936 132.865 869.602 132.95 870.287C133.034 870.973 133.299 871.62 133.743 872.23C134.198 872.853 134.738 873.31 135.365 873.601C135.982 873.877 136.651 873.97 137.374 873.88C138.082 873.799 138.789 873.501 139.494 872.988C140.185 872.484 140.684 871.902 140.992 871.242C141.299 870.582 141.416 869.917 141.341 869.245C141.257 868.559 140.992 867.912 140.548 867.302Z" fill="#29366B"/>
<path d="M136.397 857.22L125.285 864.765L123.518 862.164L128.034 859.098L124.233 853.5L119.717 856.566L117.951 853.965L129.064 846.419L130.83 849.021L126.439 852.002L130.24 857.6L134.631 854.619L136.397 857.22Z" fill="#29366B"/>
<path d="M126.722 842.835L115.365 850.007L113.686 847.349L118.301 844.434L114.688 838.713L110.073 841.627L108.394 838.969L119.751 831.797L121.43 834.455L116.943 837.289L120.555 843.01L125.043 840.177L126.722 842.835Z" fill="#29366B"/>
<path d="M117.531 828.125L105.943 834.917L104.353 832.204L111.992 827.727L100.601 825.803L99.151 823.329L110.739 816.537L112.329 819.249L104.691 823.726L116.069 825.629L117.531 828.125Z" fill="#29366B"/>
<path d="M108.835 813.104L97.0289 819.509L95.5295 816.746L104.992 811.612L101.933 805.974L92.4706 811.108L90.9712 808.344L102.778 801.939L108.835 813.104ZM105.84 801.307L103.143 802.77L102.862 802.093L104.277 804.702L101.933 805.974L99.4623 801.419L104.437 798.72L105.84 801.307Z" fill="#29366B"/>
<path d="M96.7947 790.104L94.3655 791.32L93.927 791.736L89.676 793.865C88.8512 794.278 88.3378 794.844 88.1357 795.564C87.9186 796.292 88.0615 797.158 88.5645 798.162C88.9024 798.837 89.3414 799.452 89.8817 800.007C90.4144 800.546 90.9808 800.947 91.5809 801.209L90.0859 803.336C89.2682 802.939 88.518 802.358 87.8352 801.594C87.1298 800.822 86.5369 799.956 86.0564 798.996C85.1856 797.257 84.9335 795.705 85.3003 794.339C85.6445 792.967 86.6864 791.845 88.4258 790.974L95.4659 787.45L96.7947 790.104ZM98.844 793.804C99.2944 794.703 99.5386 795.566 99.5765 796.391C99.5995 797.223 99.4349 797.962 99.0827 798.607C98.7081 799.245 98.1759 799.736 97.4861 800.081C96.8113 800.419 96.1252 800.566 95.4278 800.521C94.7228 800.462 94.0289 800.143 93.3462 799.566C92.6634 798.989 92.018 798.093 91.4099 796.879L89.6644 793.392L91.5313 792.458L93.1754 795.741C93.6559 796.701 94.1361 797.267 94.6162 797.439C95.0812 797.619 95.5387 797.596 95.9886 797.371C96.4984 797.116 96.8019 796.711 96.8991 796.156C96.9963 795.601 96.8647 794.963 96.5044 794.244C96.159 793.554 95.6938 793.018 95.1086 792.636C94.516 792.239 93.8522 792.074 93.1173 792.142L94.5677 790.825C95.4076 790.742 96.1989 790.955 96.9416 791.465C97.6768 791.959 98.3109 792.739 98.844 793.804Z" fill="#29366B"/>
<rect x="368.3" y="1083.18" width="58.6923" height="58.6923" rx="29.3462" transform="rotate(-150 368.3 1083.18)" fill="#DBE6F0"/>
<path d="M349.016 1055.12C342.617 1050.8 340.93 1042.11 345.245 1035.72C349.561 1029.32 358.246 1027.63 364.644 1031.95C371.042 1036.26 372.731 1044.95 368.416 1051.34C364.1 1057.74 355.414 1059.43 349.016 1055.12ZM357.612 1042.37C359.744 1043.81 362.301 1044.13 364.592 1043.48L365.047 1043.34L365.18 1043.29C365.822 1042.99 366.147 1042.25 365.91 1041.56C365.674 1040.88 364.96 1040.5 364.271 1040.66L364.133 1040.7L363.829 1040.8C362.296 1041.23 360.595 1041.01 359.174 1040.05C357.659 1039.03 356.803 1037.4 356.716 1035.7C356.677 1034.93 356.021 1034.33 355.25 1034.37C354.48 1034.41 353.887 1035.07 353.926 1035.84C354.055 1038.38 355.337 1040.84 357.612 1042.37ZM351.011 1044.66C351.65 1045.09 352.519 1044.92 352.951 1044.28L352.959 1044.27C353.39 1043.63 353.221 1042.76 352.582 1042.33C351.942 1041.9 351.073 1042.07 350.642 1042.71L350.634 1042.72C350.202 1043.36 350.371 1044.23 351.011 1044.66ZM357.961 1049.35C358.6 1049.78 359.469 1049.61 359.901 1048.97L359.909 1048.96C360.34 1048.32 360.171 1047.45 359.532 1047.02C358.892 1046.59 358.023 1046.76 357.592 1047.4L357.583 1047.41C357.152 1048.05 357.321 1048.92 357.961 1049.35Z" fill="#29366B"/>
<circle cx="555.001" cy="555" r="418.707" stroke="#DBE6F0" stroke-width="1.04808"/>
<circle cx="555.001" cy="555.001" r="292.938" stroke="#DBE6F0" stroke-width="1.04808"/>
</g>
<defs>
<clipPath id="clip0_1126_22697">
<rect width="1110" height="1110" fill="white"/>
</clipPath>
</defs>
</svg>
