<svg width="52" height="52" viewBox="0 0 52 52" fill="none" xmlns="http://www.w3.org/2000/svg">
<g clip-path="url(#clip0_871_4575)">
<path d="M47.0215 12.1885C47.0215 12.7495 46.5668 13.2041 46.0059 13.2041C45.4449 13.2041 44.9902 12.7495 44.9902 12.1885C44.9902 11.6275 45.4449 11.1729 46.0059 11.1729C46.5668 11.1729 47.0215 11.6275 47.0215 12.1885Z" fill="white"/>
<path d="M40.9272 12.1885C40.9272 12.7495 40.4725 13.2041 39.9115 13.2041C39.3506 13.2041 38.8955 12.7495 38.8955 12.1885C38.8955 11.6275 39.3506 11.1729 39.9115 11.1729C40.4725 11.1729 40.9272 11.6275 40.9272 12.1885Z" fill="white"/>
<path d="M34.8324 12.1885C34.8324 12.7495 34.3774 13.2041 33.8164 13.2041C33.2554 13.2041 32.8008 12.7495 32.8008 12.1885C32.8008 11.6275 33.2554 11.1729 33.8164 11.1729C34.3774 11.1729 34.8324 11.6275 34.8324 12.1885Z" fill="white"/>
<path d="M39.9114 0C33.1904 0 27.7227 5.46772 27.7227 12.1887C27.7227 14.6254 28.4408 16.9629 29.8051 18.9815L27.7747 25.0717C27.645 25.4617 27.7628 25.8909 28.073 26.1603C28.3841 26.4305 28.8264 26.4844 29.1926 26.3015L35.0685 23.3634C36.6118 24.0366 38.2384 24.3774 39.9114 24.3774C46.632 24.3774 52.1001 18.9093 52.1001 12.1887C52.1001 5.46772 46.632 0 39.9114 0ZM39.9114 22.3458C38.3804 22.3458 36.8935 22.0018 35.493 21.323C35.2094 21.1857 34.8777 21.1877 34.5956 21.3285L30.4776 23.3876L31.8947 19.1366C31.9994 18.8224 31.9447 18.4772 31.7479 18.211C30.4435 16.4484 29.754 14.3659 29.754 12.1887C29.754 6.58808 34.3104 2.03165 39.9114 2.03165C45.512 2.03165 50.0685 6.58808 50.0685 12.1887C50.0685 17.7893 45.512 22.3458 39.9114 22.3458Z" fill="white"/>
<path d="M35.3354 32.055C34.9391 31.6583 34.2956 31.6587 33.8989 32.055L29.0302 36.9229C28.3391 37.6144 27.2723 37.7552 26.4939 37.2581C25.3756 36.5436 17.9155 28.6674 16.8789 27.8418C16.4401 27.4927 15.7298 27.4601 15.3803 27.8989C15.0312 28.3381 15.117 29.0482 15.5558 29.3977C16.6476 30.2666 24.2227 38.2178 25.4006 38.97C26.9768 39.9765 29.108 39.7194 30.4672 38.359L34.617 34.2097L44.1555 43.747L40.3973 47.504C37.9717 49.9304 34.3234 50.6481 31.319 49.2905C15.3431 42.0708 7.03003 29.8306 2.86954 20.8335C1.44092 17.7442 2.12686 14.0229 4.57666 11.5735L8.27854 7.87083L17.8171 17.4086L13.6669 21.5584C12.3065 22.9188 12.0502 25.05 13.0571 26.6254C13.7752 27.7497 21.9552 35.5277 22.7804 36.5747C23.1275 37.0154 23.7663 37.0912 24.2066 36.7437C24.6474 36.3965 24.7232 35.7578 24.3756 35.3174C23.5917 34.3228 15.451 26.5996 14.7686 25.5316C14.2711 24.7532 14.412 23.6864 15.1035 22.9949L19.9717 18.1267C20.3681 17.7299 20.3685 17.0868 19.9717 16.6901L8.99702 5.71619C8.60029 5.31986 7.95719 5.31986 7.56046 5.71619L3.14011 10.1369C0.0908513 13.1858 -0.758545 17.8275 1.02594 21.6865C6.9495 34.4961 16.9883 45.0435 30.4827 51.1416C34.2746 52.8555 38.833 51.9426 41.8339 48.9406L46.3102 44.4655C46.7065 44.0688 46.7069 43.4253 46.3102 43.0289L35.3354 32.055Z" fill="white"/>
</g>
<defs>
<clipPath id="clip0_871_4575">
<rect width="52" height="52" fill="white"/>
</clipPath>
</defs>
</svg>
