<svg width="66" height="66" viewBox="0 0 66 66" fill="none" xmlns="http://www.w3.org/2000/svg">
<path fill-rule="evenodd" clip-rule="evenodd" d="M32 62L32 35L34 35L34 62L32 62Z" fill="white"/>
<path fill-rule="evenodd" clip-rule="evenodd" d="M18.5 62L45.5 62L45.5 65L18.5 65L18.5 62Z" fill="white"/>
<path fill-rule="evenodd" clip-rule="evenodd" d="M9.08177 12.5C9.28918 15.0322 9.88957 17.5209 10.865 19.8757C12.0962 22.8482 13.9008 25.5491 16.1759 27.8241C18.4509 30.0991 21.1518 31.9038 24.1243 33.135C27.0967 34.3663 30.2826 35 33.5 35C36.7174 35 39.9033 34.3663 42.8757 33.135C45.8482 31.9038 48.5491 30.0991 50.8241 27.8241C53.0992 25.5491 54.9038 22.8482 56.1351 19.8757C57.1104 17.5209 57.7108 15.0322 57.9182 12.5L9.08177 12.5ZM7.07558 12.5C7.28714 15.2952 7.94122 18.0435 9.01719 20.6411C10.3489 23.8562 12.3009 26.7776 14.7617 29.2383C17.2224 31.6991 20.1438 33.6511 23.3589 34.9828C26.574 36.3146 30.02 37 33.5 37C36.98 37 40.426 36.3146 43.6411 34.9828C46.8562 33.6511 49.7776 31.6991 52.2383 29.2383C54.6991 26.7776 56.6511 23.8562 57.9828 20.6411C59.0588 18.0435 59.7129 15.2952 59.9244 12.5C59.9747 11.8355 60 11.1684 60 10.5L7 10.5C7 11.1684 7.02529 11.8355 7.07558 12.5Z" fill="white"/>
</svg>
