<svg width="66" height="66" viewBox="0 0 66 66" fill="none" xmlns="http://www.w3.org/2000/svg">
<g clip-path="url(#clip0_686_10122)">
<path fill-rule="evenodd" clip-rule="evenodd" d="M33.5002 66L64.2441 12.75L2.75633 12.75L33.5002 66ZM33.5002 62L60.78 14.75L6.22043 14.75L33.5002 62Z" fill="white"/>
<path d="M34.473 33.2365C34.473 33.9194 33.9194 34.473 33.2365 34.473C32.5536 34.473 32 33.9194 32 33.2365C32 32.5536 32.5536 32 33.2365 32C33.9194 32 34.473 32.5536 34.473 33.2365Z" fill="white"/>
<path d="M34.473 39.007C34.473 39.6899 33.9194 40.2435 33.2365 40.2435C32.5536 40.2435 32 39.6899 32 39.007C32 38.3241 32.5536 37.7705 33.2365 37.7705C33.9194 37.7705 34.473 38.3241 34.473 39.007Z" fill="white"/>
<path d="M34.473 44.777C34.473 45.4599 33.9194 46.0135 33.2365 46.0135C32.5536 46.0135 32 45.4599 32 44.777C32 44.0941 32.5536 43.5405 33.2365 43.5405C33.9194 43.5405 34.473 44.0941 34.473 44.777Z" fill="white"/>
<path d="M45 25C43.5555 25 42.1251 24.7025 40.7905 24.1246C39.4559 23.5467 38.2433 22.6996 37.2218 21.6317C36.2004 20.5639 35.3901 19.2961 34.8373 17.9009C34.2845 16.5056 34 15.0102 34 13.5C34 11.9898 34.2845 10.4944 34.8373 9.09914C35.3901 7.7039 36.2004 6.43615 37.2218 5.36827C38.2433 4.3004 39.4559 3.45331 40.7905 2.87538C42.1251 2.29746 43.5555 2 45 2L45 13.5L45 25Z" fill="#B99C7E"/>
<path fill-rule="evenodd" clip-rule="evenodd" d="M43 22.7623C42.5183 22.6464 42.0451 22.4884 41.5852 22.2893C40.4996 21.8192 39.5071 21.1275 38.6671 20.2493C37.8269 19.3709 37.156 18.3233 36.6967 17.1642C36.2374 16.0049 36 14.7596 36 13.5C36 12.2404 36.2374 10.9951 36.6967 9.83583C37.156 8.67671 37.8269 7.62912 38.6671 6.75072C39.5071 5.8725 40.4996 5.18084 41.5852 4.71069C42.0451 4.51156 42.5183 4.35359 43 4.23766L43 22.7623ZM43 24.8083C42.2444 24.6623 41.5038 24.4335 40.7905 24.1246C39.4559 23.5467 38.2433 22.6996 37.2218 21.6317C36.2004 20.5639 35.3901 19.2961 34.8373 17.9009C34.2845 16.5056 34 15.0102 34 13.5C34 11.9898 34.2845 10.4944 34.8373 9.09914C35.3901 7.7039 36.2004 6.43615 37.2218 5.36827C38.2433 4.3004 39.4559 3.45331 40.7905 2.87538C41.5038 2.5665 42.2444 2.33773 43 2.19168C43.6581 2.06446 44.3275 2 45 2L45 25C44.3275 25 43.6581 24.9355 43 24.8083Z" fill="white"/>
<path d="M22.5 25C24.0102 25 25.5056 24.7025 26.9009 24.1246C28.2961 23.5467 29.5639 22.6996 30.6317 21.6317C31.6996 20.5639 32.5467 19.2961 33.1246 17.9009C33.7025 16.5056 34 15.0102 34 13.5C34 11.9898 33.7025 10.4944 33.1246 9.09914C32.5467 7.7039 31.6996 6.43615 30.6317 5.36827C29.5639 4.3004 28.2961 3.45331 26.9009 2.87538C25.5056 2.29746 24.0102 2 22.5 2L22.5 13.5L22.5 25Z" fill="#B99C7E"/>
<path fill-rule="evenodd" clip-rule="evenodd" d="M24.5 22.7871C25.0581 22.6669 25.6055 22.4964 26.1355 22.2769C27.2881 21.7994 28.3354 21.0997 29.2175 20.2175C30.0997 19.3354 30.7994 18.2881 31.2769 17.1355C31.7543 15.9829 32 14.7476 32 13.5C32 12.2524 31.7543 11.0171 31.2769 9.86451C30.7994 8.71191 30.0997 7.66464 29.2175 6.78249C28.3354 5.90033 27.2881 5.20056 26.1355 4.72314C25.6055 4.50363 25.0581 4.3331 24.5 4.21291L24.5 22.7871ZM24.5 24.8248C25.3214 24.6797 26.1266 24.4453 26.9009 24.1246C28.2961 23.5467 29.5639 22.6996 30.6317 21.6317C31.6996 20.5639 32.5467 19.2961 33.1246 17.9009C33.7025 16.5056 34 15.0102 34 13.5C34 11.9898 33.7025 10.4944 33.1246 9.09914C32.5467 7.7039 31.6996 6.43615 30.6317 5.36827C29.5639 4.3004 28.2961 3.45331 26.9009 2.87538C26.1266 2.55466 25.3214 2.32031 24.5 2.17525C23.8413 2.05891 23.1721 2 22.5 2L22.5 25C23.1721 25 23.8413 24.9411 24.5 24.8248Z" fill="white"/>
</g>
<defs>
<clipPath id="clip0_686_10122">
<rect width="66" height="66" fill="white"/>
</clipPath>
</defs>
</svg>
