<svg width="66" height="66" viewBox="0 0 66 66" fill="none" xmlns="http://www.w3.org/2000/svg">
<path fill-rule="evenodd" clip-rule="evenodd" d="M34 28C35.6569 28 37 26.6569 37 25C37 23.3431 35.6569 22 34 22C32.3431 22 31 23.3431 31 25C31 26.6569 32.3431 28 34 28ZM34 30C36.7614 30 39 27.7614 39 25C39 22.2386 36.7614 20 34 20C31.2386 20 29 22.2386 29 25C29 27.7614 31.2386 30 34 30Z" fill="white"/>
<path fill-rule="evenodd" clip-rule="evenodd" d="M2 61L65 61V64L2 64V61Z" fill="white"/>
<path fill-rule="evenodd" clip-rule="evenodd" d="M61.9285 57C61.7142 54.0076 61.02 51.0646 59.8686 48.2849C58.4615 44.8877 56.399 41.8011 53.799 39.201C51.1989 36.601 48.1123 34.5385 44.7151 33.1314C41.318 31.7242 37.677 31 34 31C30.323 31 26.682 31.7242 23.2849 33.1314C19.8877 34.5385 16.801 36.601 14.201 39.201C11.601 41.8011 9.5385 44.8877 8.13137 48.2849C6.97998 51.0646 6.28581 54.0076 6.07152 57L61.9285 57ZM63.9333 57C63.7158 53.7447 62.9683 50.542 61.7164 47.5195C60.2087 43.8797 57.999 40.5726 55.2132 37.7868C52.4274 35.001 49.1203 32.7913 45.4805 31.2836C41.8407 29.776 37.9397 29 34 29C30.0603 29 26.1593 29.776 22.5195 31.2836C18.8797 32.7913 15.5726 35.001 12.7868 37.7868C10.001 40.5726 7.79125 43.8797 6.28361 47.5195C5.03166 50.542 4.28424 53.7447 4.06674 57C4.02232 57.6648 4 58.3319 4 59L64 59C64 58.3319 63.9777 57.6648 63.9333 57Z" fill="white"/>
</svg>
