<svg width="46" height="46" viewBox="0 0 46 46" fill="none" xmlns="http://www.w3.org/2000/svg">
<path d="M46 21.5015V0H24.5539V9.40692H21.4461V0H0V21.5015H9.38733V24.4985H0V46H21.4461V36.5931H24.5539V46H46V24.4985H36.6127V21.5015H46ZM29.8861 5.35407H40.6571V16.1475H29.8861V5.35407ZM5.34288 5.35407H16.1138V16.1475H5.34288V5.35407ZM16.1138 40.646H5.34288V29.8526H16.1138V40.646ZM40.6571 40.646H29.8861V29.8526H40.6571V40.646ZM33.9412 24.4985H24.5539V33.9054H21.4461V24.4985H12.0694V21.5015H21.4461V12.0946H24.5539V21.5015H33.9412V24.4985Z" fill="white"/>
</svg>
