<svg width="24" height="24" viewBox="0 0 24 24" fill="none" xmlns="http://www.w3.org/2000/svg">
<path fill-rule="evenodd" clip-rule="evenodd" d="M16.336 1.99805C19.725 1.99805 22.002 4.37605 22.002 7.91405V16.082C22.002 19.62 19.725 21.998 16.334 21.998H7.66595C4.27795 21.998 2.00195 19.62 2.00195 16.082V7.91405C2.00195 4.37605 4.27795 1.99805 7.66595 1.99805H16.336ZM16.336 3.49805H7.66595C5.13695 3.49805 3.50195 5.23105 3.50195 7.91405V16.082C3.50195 18.765 5.13695 20.498 7.66595 20.498H16.334C18.866 20.498 20.502 18.765 20.502 16.082V7.91405C20.502 5.23105 18.866 3.49805 16.336 3.49805ZM11.996 11.248C12.41 11.248 12.746 11.584 12.746 11.998V15.998C12.746 16.412 12.41 16.748 11.996 16.748C11.582 16.748 11.246 16.412 11.246 15.998V11.998C11.246 11.584 11.582 11.248 11.996 11.248ZM12.0009 7.20215C12.5539 7.20215 13.0009 7.64915 13.0009 8.20215C13.0009 8.75515 12.5539 9.20215 12.0009 9.20215C11.4479 9.20215 10.9959 8.75515 10.9959 8.20215C10.9959 7.64915 11.4389 7.20215 11.9909 7.20215H12.0009Z" fill="#FE548B"/>
</svg>
