<svg width="166" height="96" viewBox="0 0 166 96" fill="none" xmlns="http://www.w3.org/2000/svg">
<path d="M40.2272 24.6121H30.1641V58.7239H40.2272V24.6121Z" fill="#006AAB"/>
<path d="M63.1215 24.6121H53.0625V58.7239H63.1215V24.6121Z" fill="#006AAB"/>
<path d="M48.2932 24.6121H41.8281V40.4838H48.2932C50.3706 40.4838 51.4675 38.4811 51.4675 36.6613V28.4429C51.4675 26.6147 50.3872 24.6121 48.2932 24.6121Z" fill="#006AAB"/>
<path d="M48.2932 42.4365H41.8281V58.7238H48.2932C50.3706 58.7238 51.4675 56.6712 51.4675 54.7974V46.3671C51.4675 44.4849 50.3872 42.4365 48.2932 42.4365Z" fill="#006AAB"/>
<path d="M72.7247 37.9578C74.0917 37.9578 75.0556 37.8997 75.6331 37.5008C75.9397 37.2818 76.1873 36.9905 76.3541 36.6527C76.5208 36.3149 76.6014 35.9411 76.5888 35.5646C76.6126 35.1445 76.5167 34.7263 76.3122 34.3585C76.1078 33.9908 75.8031 33.6886 75.4337 33.4871C74.8128 33.2169 74.1355 33.1014 73.4601 33.1506H71.8937V37.9578H72.7247ZM72.8161 31.2767C75.0141 31.2767 75.9988 30.7657 75.9988 29.1993C75.9988 27.3129 74.9684 26.9515 72.8161 26.9515H71.8937V31.2767H72.8161ZM69.4922 24.8782H73.2648C74.8562 24.8782 76.0528 24.9488 76.9793 25.6468C77.4556 26.0264 77.8361 26.5125 78.0901 27.0661C78.3442 27.6196 78.4646 28.225 78.4419 28.8336C78.4419 30.4499 77.6898 31.5676 76.2855 31.9997C78.0222 32.2739 79.0942 33.6907 79.0942 35.7391C79.1112 36.9084 78.6715 38.0383 77.8685 38.8885C76.8007 39.973 75.3755 40.0353 73.2981 40.0353H69.5005L69.4922 24.8782Z" fill="#006AAB"/>
<path d="M81.5859 24.8823H89.9456V26.9764H84.0124V30.7657H89.9456V32.9221H84.0124V37.8207H89.9456V40.0187H81.5859V24.8823Z" fill="#006AAB"/>
<path d="M93.8227 36.0799C94.18 37.4344 95.1855 38.1574 96.7311 38.1574C98.1978 38.1574 99.0994 37.2682 99.0994 35.9179C99.0994 34.4346 97.9859 34.0731 96.4402 33.3128C93.777 32.004 92.3103 30.9819 92.3103 28.7008C92.3103 26.266 94.0844 24.5459 96.81 24.5459C99.0371 24.5459 100.549 25.4558 101.131 27.0388L99.224 28.0319C98.6382 27.1012 97.9485 26.6566 97.0053 26.6566C95.6799 26.6566 94.8697 27.4211 94.8697 28.5595C94.8697 30.0221 96.0414 30.4708 97.72 31.2436C100.362 32.4901 101.592 33.5579 101.592 35.7309C101.592 38.5479 99.7309 40.4135 96.6272 40.4135C94.0678 40.4135 92.3934 39.167 91.8906 36.9898L93.8227 36.0799Z" fill="#006AAB"/>
<path d="M106.708 24.8904H104.273V40.0184H106.708V24.8904Z" fill="#006AAB"/>
<path d="M110.203 24.2964L119.714 33.5369C120.308 34.1143 120.863 34.7306 121.376 35.3817V24.8781H123.619V40.6086L113.897 31.1935C113.365 30.6732 112.88 30.1073 112.447 29.5025V40.0186H110.203V24.2964Z" fill="#006AAB"/>
<path d="M128.127 36.0799C128.485 37.4344 129.486 38.1574 131.036 38.1574C132.498 38.1574 133.4 37.2682 133.4 35.9179C133.4 34.4346 132.286 34.0731 130.741 33.3128C128.082 32.004 126.611 30.9819 126.611 28.7008C126.611 26.266 128.393 24.5459 131.119 24.5459C133.338 24.5459 134.858 25.4558 135.436 27.0388L133.529 28.0319C132.943 27.1012 132.245 26.6566 131.31 26.6566C129.989 26.6566 129.17 27.4211 129.17 28.5595C129.17 30.0221 130.346 30.4708 132.02 31.2436C134.659 32.4901 135.893 33.5579 135.893 35.7309C135.893 38.5479 134.031 40.4135 130.928 40.4135C128.372 40.4135 126.694 39.167 126.195 36.9898L128.127 36.0799Z" fill="#006AAB"/>
<path d="M74.9263 49.0388V45.4739H75.8944V54.2574H74.9263V49.9487H70.4722V54.2574H69.5V45.4739H70.4722V49.0388H74.9263Z" fill="#006AAB"/>
<path d="M77.7031 45.4739H82.2112V46.3796H78.6712V48.9931H82.1032V49.8989H78.6712V53.3433H82.2112V54.2574H77.7031V45.4739Z" fill="#006AAB"/>
<path d="M87.0439 47.3355L85.5523 50.8589H88.4981L87.0439 47.3355ZM85.1617 51.7688L84.1064 54.2617H83.0469L87.0605 45.0503L90.9744 54.2617H89.9232L88.9053 51.7688H85.1617Z" fill="#006AAB"/>
<path d="M92.89 53.3433H95.2957V54.2574H91.9219V45.4739H92.89V53.3433Z" fill="#006AAB"/>
<path d="M97.6444 54.2574H96.6722V46.3796H94.5781V45.4739H99.7676V46.3796H97.6444V54.2574Z" fill="#006AAB"/>
<path d="M106.223 49.0388V45.4739H107.191V54.2574H106.223V49.9487H101.773V54.2574H100.805V45.4739H101.773V49.0388H106.223Z" fill="#006AAB"/>
<path d="M115.63 47.3895C115.287 47.0279 114.876 46.7383 114.42 46.5378C113.964 46.3373 113.473 46.2299 112.975 46.2219C112.04 46.2697 111.159 46.6757 110.515 47.3556C109.871 48.0355 109.514 48.9372 109.517 49.8735C109.52 50.8099 109.884 51.7091 110.532 52.3846C111.181 53.06 112.064 53.46 113 53.5013C113.995 53.4692 114.938 53.0503 115.63 52.3338V53.5512C114.958 54.0388 114.165 54.3307 113.337 54.3945C112.51 54.4584 111.68 54.2917 110.942 53.913C110.203 53.5342 109.584 52.9583 109.153 52.249C108.722 51.5397 108.496 50.7249 108.5 49.8949C108.5 48.6892 108.976 47.5323 109.825 46.6763C110.674 45.8202 111.827 45.3343 113.033 45.3245C113.971 45.3139 114.885 45.6182 115.63 46.1887V47.3895Z" fill="#006AAB"/>
<path d="M120.446 47.3355L118.954 50.8589H121.917L120.446 47.3355ZM118.564 51.7688L117.517 54.2617H116.453L120.471 45.0503L124.377 54.2617H123.305L122.282 51.7688H118.564Z" fill="#006AAB"/>
<path d="M126.292 49.5374H126.591C127.688 49.5374 128.802 49.3296 128.802 47.9627C128.802 46.5126 127.746 46.3797 126.583 46.3797H126.292V49.5374ZM126.292 54.2574H125.328V45.4697H126.575C128.237 45.4697 129.757 45.9101 129.757 47.892C129.776 48.1951 129.734 48.4989 129.634 48.7856C129.534 49.0723 129.378 49.3362 129.175 49.562C128.972 49.7878 128.726 49.971 128.451 50.1009C128.177 50.2308 127.879 50.3047 127.576 50.3185L130.356 54.2615H129.167L126.537 50.4058H126.292V54.2574Z" fill="#006AAB"/>
<path d="M131.484 45.4531V54.2449H136.001V53.335H132.457V49.8864H135.893V48.9765H132.457V46.3672H136.001V45.4531H131.484Z" fill="#006AAB"/>
<path d="M135.891 58.0967H69.5V58.7241H135.891V58.0967Z" fill="#006AAB"/>
<path d="M34.1403 69.1319H33.5295V66.639H30.7748V69.1319H30.1641V63.8884H30.7748V66.1196H33.5295V63.8884H34.1403V69.1319Z" fill="#006AAB"/>
<path d="M36.7855 65.1306C37.1604 65.1019 37.5324 65.2145 37.8284 65.4464C37.9531 65.5813 38.0482 65.7409 38.1076 65.9147C38.167 66.0886 38.1894 66.273 38.1732 66.4561V69.1318H37.737L37.6248 68.5501H37.5957C37.4922 68.6824 37.3753 68.8036 37.2467 68.9116C37.1225 69.0083 36.9817 69.0815 36.8312 69.1277C36.6432 69.1796 36.4487 69.2048 36.2537 69.2024C36.0355 69.2046 35.8192 69.1622 35.618 69.0778C35.4449 68.9941 35.3003 68.8611 35.2025 68.6955C35.0881 68.5007 35.0319 68.2773 35.0404 68.0515C35.0312 67.8737 35.0681 67.6965 35.1474 67.5371C35.2268 67.3777 35.3459 67.2415 35.4933 67.1416C35.9266 66.899 36.418 66.7797 36.9143 66.7968L37.5957 66.7677V66.5267C37.6089 66.3989 37.5962 66.2697 37.5584 66.1469C37.5206 66.0241 37.4584 65.9102 37.3755 65.812C37.204 65.6682 36.984 65.5953 36.7606 65.6085C36.5602 65.6064 36.3609 65.6373 36.1706 65.6999C35.9885 65.7579 35.8108 65.8287 35.6388 65.9118L35.4518 65.4796C35.6465 65.3806 35.8513 65.3026 36.0626 65.247C36.2968 65.174 36.5402 65.1348 36.7855 65.1306ZM37.5832 67.2081L36.9849 67.233C36.6235 67.2204 36.2652 67.3036 35.9462 67.474C35.8492 67.54 35.7705 67.6294 35.7175 67.7341C35.6644 67.8387 35.6388 67.9551 35.6429 68.0723C35.636 68.1659 35.6512 68.2598 35.6873 68.3464C35.7234 68.433 35.7794 68.5099 35.8507 68.5709C36.0063 68.6862 36.1974 68.7435 36.3908 68.7329C36.7024 68.7465 37.0078 68.6427 37.2467 68.4421C37.3641 68.3287 37.4542 68.1901 37.5103 68.0368C37.5665 67.8835 37.5871 67.7195 37.5708 67.5571L37.5832 67.2081Z" fill="#006AAB"/>
<path d="M44.0854 66.182C44.0923 66.288 44.0766 66.3943 44.0393 66.4939C44.0021 66.5934 43.9442 66.684 43.8694 66.7595C43.7131 66.902 43.5204 66.9984 43.3126 67.0379V67.067C43.5454 67.0957 43.7663 67.186 43.9525 67.3287C44.0444 67.4079 44.1169 67.5072 44.1644 67.6188C44.212 67.7305 44.2333 67.8516 44.2267 67.9727C44.2316 68.1836 44.1753 68.3914 44.0647 68.571C43.9428 68.7587 43.7657 68.9039 43.5578 68.9865C43.2726 69.0941 42.9691 69.1449 42.6645 69.1361H40.9609V65.2014H42.6229C42.8754 65.1981 43.1272 65.2303 43.3708 65.297C43.5683 65.3477 43.7462 65.4562 43.8818 65.6086C44.0197 65.7671 44.0925 65.972 44.0854 66.182ZM43.4788 66.2526C43.4845 66.1715 43.4686 66.0904 43.4329 66.0175C43.3971 65.9445 43.3427 65.8823 43.2752 65.8371C43.0706 65.7264 42.8382 65.6773 42.6063 65.6958H41.5592V66.826H42.4983C42.7494 66.8388 43.0001 66.7919 43.2295 66.6889C43.3078 66.6468 43.3727 66.5836 43.4168 66.5065C43.4609 66.4294 43.4824 66.3414 43.4788 66.2526ZM43.5993 67.9769C43.6065 67.8777 43.5853 67.7786 43.5382 67.691C43.4911 67.6034 43.4201 67.5311 43.3334 67.4824C43.098 67.3601 42.8337 67.3041 42.5689 67.3204H41.5592V68.6417H42.5647C42.8254 68.6566 43.0856 68.6052 43.3209 68.4921C43.4119 68.441 43.4865 68.365 43.5358 68.273C43.5851 68.181 43.6071 68.0768 43.5993 67.9727V67.9769Z" fill="#006AAB"/>
<path d="M46.4618 65.1306C46.8367 65.1019 47.2087 65.2145 47.5047 65.4464C47.6286 65.5817 47.723 65.7414 47.7817 65.9152C47.8403 66.0891 47.862 66.2733 47.8454 66.4561V69.1318H47.4299L47.3135 68.5501H47.2886C47.1851 68.6824 47.0682 68.8036 46.9396 68.9116C46.8149 69.0075 46.6742 69.0806 46.5241 69.1277C46.3361 69.1796 46.1416 69.2048 45.9466 69.2024C45.7284 69.2046 45.5121 69.1622 45.3109 69.0778C45.1297 68.9965 44.9765 68.8635 44.8704 68.6955C44.7594 68.4995 44.7048 68.2767 44.7126 68.0515C44.7025 67.8736 44.739 67.6961 44.8184 67.5366C44.8979 67.377 45.0174 67.2409 45.1654 67.1416C45.5987 66.899 46.0902 66.7797 46.5864 66.7968L47.2637 66.7677V66.5267C47.2775 66.3992 47.2654 66.2702 47.2283 66.1474C47.1912 66.0246 47.1297 65.9106 47.0476 65.812C46.8741 65.669 46.6531 65.5963 46.4285 65.6085C46.2282 65.6067 46.0289 65.6376 45.8385 65.6999C45.6581 65.7586 45.4818 65.8294 45.3109 65.9118L45.1281 65.4796C45.3213 65.3806 45.5247 65.3026 45.7347 65.247C45.9704 65.1742 46.2151 65.1351 46.4618 65.1306ZM47.2595 67.2081L46.6571 67.233C46.2969 67.2196 45.9397 67.3028 45.6225 67.474C45.5249 67.5394 45.4458 67.6288 45.3927 67.7335C45.3395 67.8383 45.3142 67.955 45.3192 68.0723C45.3124 68.1655 45.3273 68.259 45.3626 68.3454C45.3979 68.4319 45.4527 68.5091 45.5228 68.5709C45.6805 68.6853 45.8725 68.7424 46.0671 68.7329C46.3787 68.7465 46.6841 68.6427 46.923 68.4421C47.0403 68.3316 47.1314 68.1963 47.1896 68.046C47.2479 67.8958 47.2717 67.7344 47.2595 67.5737V67.2081Z" fill="#006AAB"/>
<path d="M54.1913 65.1973V69.132H48.9062V65.1973H49.4962V68.6251H51.2372V65.1973H51.8355V68.6251H53.5805V65.1973H54.1913Z" fill="#006AAB"/>
<path d="M56.7731 65.1267C57.0747 65.1188 57.3725 65.1951 57.6332 65.3469C57.8735 65.496 58.0643 65.7128 58.1816 65.9701C58.3155 66.2632 58.3808 66.5829 58.3728 66.905V67.2748H55.6596C55.6387 67.6566 55.7601 68.0326 56.0003 68.3301C56.122 68.4538 56.2688 68.5501 56.4307 68.6124C56.5927 68.6747 56.7661 68.7017 56.9393 68.6916C57.1613 68.6933 57.3828 68.671 57.6 68.6251C57.8053 68.576 58.0056 68.5078 58.1983 68.4215V68.945C58.0085 69.0293 57.8109 69.0948 57.6083 69.1403C57.3811 69.1847 57.15 69.2056 56.9186 69.2026C56.5744 69.211 56.234 69.1309 55.9297 68.97C55.6472 68.8142 55.4183 68.5767 55.2732 68.2886C55.1069 67.9475 55.027 67.5708 55.0405 67.1917C55.0311 66.815 55.1034 66.4408 55.2524 66.0948C55.3769 65.8027 55.5851 65.5541 55.8507 65.3801C56.1247 65.2025 56.4469 65.114 56.7731 65.1267ZM56.7731 65.6128C56.631 65.6063 56.4891 65.6313 56.3577 65.6858C56.2263 65.7404 56.1085 65.8233 56.0128 65.9286C55.8082 66.1732 55.6899 66.4784 55.6762 66.7969H57.7537C57.754 66.5855 57.716 66.3758 57.6415 66.1779C57.5786 66.0106 57.4672 65.8659 57.3216 65.7624C57.1562 65.6556 56.9615 65.6033 56.7648 65.6128H56.7731Z" fill="#006AAB"/>
<path d="M59.776 65.1973V67.8523V68.0933C59.776 68.1805 59.776 68.2595 59.776 68.3384C59.776 68.4174 59.776 68.4797 59.776 68.5295L61.9199 65.2056H62.6554V69.1403H62.057V66.7263C62.057 66.6474 62.057 66.5518 62.057 66.4313V66.0782C62.057 65.9618 62.057 65.8746 62.057 65.8081L59.9173 69.132H59.2109V65.1973H59.776ZM62.3188 63.5811C62.3067 63.793 62.2455 63.9992 62.1401 64.1835C62.0434 64.3469 61.8982 64.4762 61.7247 64.5533C61.491 64.6461 61.2404 64.6886 60.9892 64.678C60.7357 64.6888 60.4826 64.6478 60.2455 64.5575C60.068 64.4888 59.9207 64.3592 59.83 64.1918C59.7307 64.003 59.6753 63.7942 59.668 63.5811H60.2289C60.2273 63.7804 60.3033 63.9726 60.4408 64.117C60.606 64.2274 60.8037 64.2786 61.0017 64.2625C61.1933 64.2737 61.3833 64.2211 61.5418 64.1129C61.6158 64.0453 61.675 63.9632 61.7158 63.8717C61.7566 63.7802 61.778 63.6812 61.7787 63.5811H62.3188Z" fill="#006AAB"/>
<path d="M67.0157 69.2193C66.6892 69.2257 66.3663 69.15 66.0767 68.9991C65.8023 68.8477 65.5827 68.6136 65.4493 68.3301C65.2848 67.9783 65.2065 67.5923 65.2207 67.2042C65.2047 66.8003 65.2859 66.3984 65.4576 66.0325C65.6019 65.7459 65.8311 65.5108 66.1141 65.3594C66.4108 65.2122 66.7385 65.1381 67.0697 65.1433C67.2623 65.1435 67.4544 65.163 67.6431 65.2015C67.7987 65.231 67.9496 65.2814 68.0918 65.3511L67.909 65.8497C67.7742 65.7955 67.6352 65.7525 67.4935 65.7209C67.3499 65.6815 67.2019 65.6605 67.0531 65.6585C66.8135 65.6513 66.5769 65.7134 66.3717 65.8372C66.1827 65.9612 66.0373 66.1414 65.9562 66.3524C65.7753 66.8916 65.7753 67.4751 65.9562 68.0144C66.028 68.2223 66.1649 68.4015 66.3467 68.5254C66.5396 68.6534 66.7678 68.7174 66.999 68.7082C67.1894 68.7086 67.3791 68.6863 67.5641 68.6418C67.7191 68.5998 67.8706 68.5456 68.017 68.4797V69.0157C67.8766 69.0828 67.7288 69.1331 67.5766 69.1653C67.3922 69.2038 67.2041 69.2219 67.0157 69.2193Z" fill="#006AAB"/>
<path d="M71.4614 65.7042H70.1692V69.132H69.5668V65.7042H68.3203V65.1973H71.4822L71.4614 65.7042Z" fill="#006AAB"/>
<path d="M75.4545 67.1419C75.4601 67.4351 75.4166 67.7272 75.3257 68.0061C75.2518 68.2438 75.1286 68.4632 74.9642 68.6501C74.8077 68.831 74.6115 68.9732 74.3908 69.0656C74.1506 69.1621 73.8936 69.2102 73.6346 69.2069C73.3866 69.2086 73.1408 69.1606 72.9117 69.0656C72.6941 68.972 72.5009 68.8299 72.3466 68.6501C72.181 68.4627 72.0552 68.2436 71.9768 68.0061C71.7732 67.3626 71.8041 66.6678 72.0641 66.045C72.1963 65.7556 72.4138 65.5135 72.6873 65.3511C72.9843 65.1865 73.3201 65.1047 73.6596 65.1143C73.9901 65.1071 74.3162 65.1904 74.6027 65.3553C74.874 65.5217 75.0917 65.7626 75.2301 66.0491C75.3865 66.3918 75.4632 66.7654 75.4545 67.1419ZM72.4754 67.1419C72.47 67.4242 72.5136 67.7054 72.6042 67.9729C72.6726 68.1893 72.8079 68.3784 72.9906 68.513C73.1896 68.6448 73.4252 68.7103 73.6637 68.7C73.8975 68.7193 74.1309 68.6575 74.3245 68.5251C74.5182 68.3927 74.6605 68.1977 74.7274 67.9729C74.8165 67.7051 74.8587 67.424 74.852 67.1419C74.8603 66.8597 74.818 66.5783 74.7274 66.3109C74.6532 66.0997 74.5189 65.9148 74.341 65.7791C74.1383 65.6486 73.9005 65.5834 73.6596 65.5921C73.487 65.5798 73.3142 65.6114 73.1572 65.6841C73.0003 65.7567 72.8643 65.8681 72.7621 66.0076C72.5511 66.3468 72.4509 66.7432 72.4754 67.1419Z" fill="#006AAB"/>
<path d="M78.1566 65.1267C78.3778 65.1169 78.5983 65.157 78.8018 65.244C79.0054 65.331 79.1867 65.4628 79.3324 65.6294C79.649 66.07 79.7964 66.6098 79.7479 67.1501C79.7591 67.5365 79.6912 67.9211 79.5485 68.2803C79.4321 68.5597 79.2355 68.7983 78.9834 68.9658C78.7261 69.1271 78.427 69.2095 78.1234 69.2027C77.936 69.2029 77.7497 69.1749 77.5708 69.1196C77.4192 69.0719 77.2782 68.9958 77.1553 68.8952C77.0476 68.8073 76.9537 68.7036 76.8769 68.5877H76.8353C76.8353 68.6874 76.8353 68.7996 76.8603 68.9284C76.8852 69.0572 76.8603 69.1736 76.8603 69.2733V70.8812H76.2578V65.1973H76.7522L76.8312 65.779H76.8603C76.9401 65.658 77.0335 65.5465 77.1387 65.4466C77.2609 65.3431 77.402 65.2641 77.5541 65.2139C77.7479 65.148 77.9521 65.1184 78.1566 65.1267ZM78.0569 65.6253C77.8256 65.6138 77.596 65.6701 77.3963 65.7873C77.2254 65.8976 77.0977 66.0634 77.0348 66.2568C76.9484 66.5109 76.9063 66.7779 76.9101 67.0463V67.1418C76.9058 67.4226 76.9422 67.7025 77.0182 67.9728C77.0793 68.1804 77.2062 68.3627 77.3796 68.4922C77.5834 68.6195 77.821 68.6818 78.061 68.6708C78.2811 68.6784 78.4969 68.6094 78.6718 68.4755C78.8428 68.329 78.9694 68.1376 79.0374 67.9229C79.1194 67.6609 79.1587 67.3873 79.1538 67.1127C79.172 66.7252 79.0798 66.3405 78.8879 66.0034C78.7932 65.8746 78.6672 65.7722 78.5217 65.706C78.3762 65.6398 78.2162 65.612 78.0569 65.6253Z" fill="#006AAB"/>
<path d="M84.0138 67.1418C84.0186 67.4347 83.9765 67.7264 83.8892 68.006C83.8136 68.243 83.6906 68.4621 83.5277 68.65C83.3712 68.8309 83.1749 68.9731 82.9543 69.0655C82.7139 69.1617 82.457 69.2096 82.1981 69.2068C81.9501 69.2089 81.7042 69.1608 81.4752 69.0655C81.2564 68.9719 81.0617 68.8299 80.9059 68.65C80.7416 68.4624 80.6172 68.2433 80.5403 68.006C80.4479 67.7274 80.403 67.4353 80.4073 67.1418C80.3962 66.7646 80.4701 66.3897 80.6234 66.0449C80.7572 65.7553 80.976 65.5132 81.2508 65.351C81.5465 65.1869 81.8808 65.1051 82.2189 65.1142C82.5507 65.1064 82.8784 65.1898 83.1662 65.3552C83.4368 65.5212 83.6534 65.7622 83.7894 66.0491C83.9476 66.3911 84.0244 66.7651 84.0138 67.1418ZM81.0223 67.1418C81.0147 67.4243 81.0584 67.7058 81.1511 67.9728C81.2194 68.1892 81.3547 68.3783 81.5375 68.5129C81.7365 68.6448 81.9721 68.7102 82.2106 68.6999C82.4444 68.7163 82.6769 68.6535 82.8706 68.5216C83.0643 68.3897 83.208 68.1963 83.2784 67.9728C83.3675 67.705 83.4097 67.4239 83.403 67.1418C83.4113 66.8596 83.369 66.5782 83.2784 66.3108C83.2042 66.0985 83.0682 65.9133 82.8878 65.779C82.687 65.6479 82.4503 65.5825 82.2106 65.592C82.0381 65.5801 81.8654 65.6119 81.7085 65.6845C81.5516 65.7572 81.4156 65.8683 81.3131 66.0075C81.1006 66.3462 80.999 66.7427 81.0223 67.1418Z" fill="#006AAB"/>
<path d="M85.465 65.1973V66.8592H87.6546V65.1973H88.2612V69.132H87.6629V67.3537H85.4733V69.132H84.875V65.1973H85.465Z" fill="#006AAB"/>
<path d="M90.8551 65.1267C91.1567 65.1192 91.4544 65.1955 91.7152 65.3469C91.9543 65.4962 92.1437 65.7131 92.2595 65.9701C92.3933 66.2632 92.4587 66.5829 92.4506 66.905V67.2748H89.7375C89.7157 67.6574 89.8388 68.0342 90.0823 68.3301C90.2036 68.4545 90.3502 68.5512 90.5123 68.6136C90.6744 68.676 90.848 68.7026 91.0213 68.6916C91.2433 68.6931 91.4648 68.6708 91.682 68.6251C91.8871 68.5754 92.0874 68.5072 92.2803 68.4215V68.945C92.0891 69.0294 91.8901 69.0948 91.6861 69.1403C91.4576 69.1851 91.2251 69.206 90.9923 69.2026C90.6496 69.2096 90.3108 69.1295 90.0075 68.97C89.7272 68.8128 89.5001 68.5755 89.3552 68.2886C89.1875 67.9479 89.1062 67.5712 89.1184 67.1917C89.1103 66.8147 89.184 66.4405 89.3344 66.0948C89.4593 65.7979 89.6718 65.5461 89.9435 65.3731C90.2153 65.2001 90.5333 65.1142 90.8551 65.1267ZM90.8551 65.6128C90.7125 65.6071 90.5703 65.6324 90.4383 65.6869C90.3063 65.7414 90.1877 65.8239 90.0906 65.9286C89.8894 66.1751 89.7716 66.4792 89.7541 66.797H91.8315C91.8352 66.5856 91.7986 66.3755 91.7235 66.1779C91.662 66.0098 91.5503 65.8648 91.4036 65.7624C91.2379 65.6561 91.0434 65.6039 90.8468 65.6128H90.8551Z" fill="#006AAB"/>
<path d="M93.1983 68.7579C93.1912 68.6993 93.1967 68.6399 93.2144 68.5836C93.2321 68.5273 93.2616 68.4754 93.3009 68.4314C93.3402 68.3873 93.3884 68.3522 93.4424 68.3282C93.4963 68.3043 93.5548 68.2922 93.6138 68.2926C93.7273 68.2901 93.8378 68.3284 93.9254 68.4006C93.973 68.4461 94.0091 68.5021 94.0308 68.5643C94.0525 68.6264 94.0591 68.6928 94.0501 68.7579C94.0581 68.8187 94.0527 68.8804 94.0341 68.9388C94.0155 68.9971 93.9843 69.0506 93.9426 69.0955C93.9009 69.1404 93.8498 69.1755 93.793 69.1983C93.7361 69.2211 93.6749 69.231 93.6138 69.2274C93.5045 69.2303 93.3986 69.19 93.3188 69.1153C93.2749 69.0674 93.2415 69.0109 93.2207 68.9494C93.2 68.8878 93.1924 68.8226 93.1983 68.7579Z" fill="#006AAB"/>
<path d="M98.2383 63.8885C98.7661 63.8494 99.2909 63.9964 99.7216 64.304C99.8804 64.4452 100.005 64.6208 100.085 64.8173C100.166 65.0139 100.201 65.2263 100.187 65.4383C100.189 65.6536 100.153 65.8676 100.079 66.0698C100.006 66.2707 99.8847 66.4505 99.7258 66.5934C99.5431 66.7614 99.3241 66.8851 99.0859 66.9548C98.7708 67.0498 98.4427 67.0947 98.1137 67.0878H97.478V69.1652H96.8672V63.8885H98.2383ZM98.1801 64.4037H97.478V66.5435H98.0472C98.328 66.5495 98.6082 66.5131 98.8782 66.4355C99.0809 66.3757 99.2588 66.2518 99.3851 66.0823C99.5063 65.8902 99.5644 65.665 99.5513 65.4383C99.5623 65.292 99.5382 65.1452 99.4811 65.0101C99.4241 64.875 99.3356 64.7554 99.223 64.6613C98.9112 64.4677 98.5462 64.3775 98.1801 64.4037Z" fill="#006AAB"/>
<path d="M102.493 65.1309C102.867 65.1013 103.24 65.214 103.535 65.4466C103.659 65.5819 103.754 65.7416 103.812 65.9155C103.871 66.0893 103.893 66.2735 103.876 66.4563V69.132H103.461L103.348 68.5504H103.315C103.215 68.6824 103.1 68.8035 102.974 68.9118C102.85 69.0074 102.709 69.0805 102.559 69.1279C102.371 69.1863 102.175 69.2171 101.977 69.2193C101.758 69.2214 101.54 69.179 101.337 69.0946C101.158 69.012 101.007 68.8793 100.901 68.7124C100.788 68.5171 100.734 68.2937 100.743 68.0684C100.735 67.89 100.774 67.7126 100.856 67.5537C100.937 67.3949 101.059 67.26 101.209 67.1626C101.641 66.9205 102.131 66.8013 102.625 66.8178L103.307 66.7887V66.5477C103.32 66.4202 103.307 66.2914 103.27 66.1688C103.233 66.0462 103.172 65.9321 103.091 65.833C102.917 65.6904 102.696 65.6178 102.472 65.6295C102.271 65.6281 102.072 65.6589 101.882 65.7209C101.7 65.7796 101.522 65.8504 101.35 65.9328L101.146 65.4799C101.341 65.3815 101.546 65.3035 101.757 65.2472C101.995 65.1734 102.243 65.1342 102.493 65.1309ZM103.286 67.2083L102.692 67.2332C102.329 67.2211 101.97 67.3042 101.649 67.4742C101.553 67.5404 101.474 67.63 101.422 67.7347C101.37 67.8394 101.345 67.9556 101.35 68.0725C101.343 68.1657 101.358 68.2592 101.393 68.3457C101.429 68.4322 101.483 68.5093 101.554 68.5711C101.709 68.6865 101.9 68.7438 102.094 68.7332C102.407 68.7478 102.714 68.6439 102.954 68.4423C103.07 68.3309 103.159 68.1954 103.217 68.0453C103.274 67.8952 103.298 67.7342 103.286 67.574V67.2083Z" fill="#006AAB"/>
<path d="M107.787 65.1973V68.6251H108.352V70.4865H107.787V69.132H105.003V70.4865H104.43V68.6251H104.737C104.965 68.3085 105.154 67.9653 105.298 67.603C105.448 67.2253 105.562 66.8344 105.639 66.4354C105.715 66.0242 105.755 65.6071 105.759 65.189L107.787 65.1973ZM107.209 65.6709H106.274C106.253 66.0262 106.203 66.3792 106.125 66.7263C106.045 67.0758 105.94 67.4188 105.809 67.7525C105.689 68.0562 105.535 68.3449 105.348 68.6126H107.209V65.6709Z" fill="#006AAB"/>
<path d="M109.535 65.1973V67.8523V68.0932C109.535 68.1805 109.535 68.2594 109.535 68.3384C109.535 68.4173 109.535 68.4796 109.535 68.5295L111.688 65.2056H112.361V69.1403H111.821V66.4313C111.821 66.3108 111.821 66.1944 111.821 66.0781C111.821 65.9618 111.821 65.8745 111.821 65.808L109.685 69.132H108.945V65.1973H109.535Z" fill="#006AAB"/>
<path d="M119.8 65.1973L118.159 67.1085L119.937 69.132H119.256L117.532 67.1418V69.1403H116.979V67.1418L115.267 69.132H114.586L116.364 67.1085L114.702 65.1973H115.359L116.967 67.1044V65.1973H117.519V67.1044L119.136 65.1973H119.8Z" fill="#006AAB"/>
<path d="M120.99 65.1973V67.6902C120.99 67.7401 120.99 67.7982 120.99 67.873C120.994 67.9533 120.994 68.0337 120.99 68.114C120.99 68.2013 120.99 68.2802 120.99 68.3592C120.99 68.4381 120.99 68.5004 120.99 68.5503L123.138 65.2263H123.869V69.161H123.313V66.7263C123.313 66.6473 123.313 66.5518 123.313 66.4313C123.313 66.3108 123.313 66.1944 123.313 66.0781C123.313 65.9618 123.313 65.8745 123.313 65.808L121.173 69.132H120.438V65.1973H120.99Z" fill="#006AAB"/>
<path d="M125.924 65.1267C126.184 65.1201 126.443 65.1609 126.688 65.2472C126.884 65.3115 127.056 65.433 127.183 65.5962C127.305 65.7556 127.368 65.9523 127.361 66.153C127.371 66.3599 127.303 66.5629 127.17 66.7222C127.024 66.8719 126.838 66.977 126.634 67.0255V67.0546C126.787 67.0952 126.934 67.1567 127.07 67.2374C127.197 67.3191 127.304 67.4285 127.382 67.5574C127.465 67.7041 127.505 67.871 127.498 68.0393C127.5 68.2509 127.438 68.4581 127.32 68.6335C127.184 68.8231 126.994 68.9678 126.775 69.049C126.479 69.1585 126.165 69.2106 125.849 69.2027C125.672 69.2024 125.496 69.1913 125.321 69.1695C125.171 69.1532 125.022 69.124 124.877 69.0822C124.755 69.0476 124.637 69.0017 124.523 68.9451V68.3883C124.713 68.4788 124.91 68.5512 125.113 68.6044C125.351 68.6678 125.595 68.6985 125.841 68.6958C126.023 68.6996 126.205 68.6758 126.381 68.6252C126.529 68.5873 126.663 68.5081 126.767 68.3966C126.865 68.2813 126.914 68.1322 126.904 67.9812C126.91 67.8417 126.866 67.7048 126.78 67.5948C126.679 67.4848 126.549 67.4056 126.406 67.3662C126.199 67.3149 125.987 67.2911 125.774 67.2956H125.242V66.8053H125.679C125.954 66.8179 126.229 66.7697 126.485 66.6641C126.579 66.6251 126.658 66.5577 126.712 66.4712C126.765 66.3848 126.791 66.2836 126.784 66.1821C126.791 66.0947 126.773 66.0071 126.732 65.9292C126.692 65.8514 126.631 65.7864 126.555 65.7417C126.35 65.6317 126.118 65.5813 125.886 65.5962C125.694 65.5928 125.503 65.6151 125.317 65.6627C125.134 65.7103 124.954 65.7728 124.781 65.8497L124.569 65.376C124.776 65.2844 124.992 65.2148 125.213 65.1683C125.448 65.131 125.686 65.1171 125.924 65.1267Z" fill="#006AAB"/>
<path d="M128.887 65.1973V66.8592H131.081V65.1973H131.675V69.132H131.081V67.3537H128.887V69.132H128.289V65.1973H128.887Z" fill="#006AAB"/>
<path d="M133.323 65.1973V67.6902C133.323 67.7401 133.323 67.7982 133.323 67.873C133.327 67.9533 133.327 68.0337 133.323 68.114C133.327 68.1957 133.327 68.2775 133.323 68.3592C133.323 68.4339 133.323 68.5004 133.323 68.5503L135.471 65.2263H136.202V69.161H135.625V66.7263C135.625 66.6473 135.625 66.5518 135.625 66.4313C135.625 66.3108 135.625 66.1944 135.625 66.0781C135.625 65.9618 135.625 65.8745 135.625 65.808L133.485 69.132H132.758V65.1973H133.323Z" fill="#006AAB"/>
</svg>
