<svg width="144" height="44" viewBox="0 0 144 44" fill="none" xmlns="http://www.w3.org/2000/svg">
<path d="M4.35104 34.044C3.09156 34.044 2.37785 33.7478 2.16793 33.1979C2.08397 32.9864 2 32.5633 2 31.675V12.7655C2 11.4964 2.29388 11.031 2.46181 10.8618C2.62974 10.6926 3.13354 10.3965 4.43501 10.3965H17.7016C18.2054 10.3965 18.5413 10.3965 18.7932 10.4388C18.9611 10.4811 19.213 10.5657 19.4649 10.6926C19.6328 10.7772 19.7588 10.9887 19.8427 11.2425C19.9687 11.6233 20.0107 12.1309 20.0107 12.7655C20.0107 13.4 19.9687 13.95 19.8427 14.2884C19.7168 14.6268 19.5489 14.7537 19.4649 14.796C19.171 14.9229 18.9611 15.0075 18.7512 15.0498C18.5833 15.0498 18.2894 15.0921 17.6176 15.0921H7.28985C6.95398 15.0921 6.6601 15.3883 6.6601 15.7267V19.1532C6.6601 19.4917 6.95398 19.7878 7.28985 19.7878H13.9232C14.5529 19.7878 14.8888 19.8301 15.0567 19.8301C15.1826 19.8301 15.3925 19.9147 15.7284 20.0839C15.8963 20.1685 16.2742 20.5915 16.2742 22.1991C16.2742 23.4682 15.9803 24.2296 15.4345 24.3988C15.2666 24.4411 14.8048 24.5257 13.9232 24.5257H7.33183C6.99597 24.5257 6.70209 24.8219 6.70209 25.1603V31.5904C6.70209 32.098 6.70209 32.4787 6.6601 32.6903C6.6601 32.8172 6.57614 33.0287 6.40821 33.3671C6.24027 33.8324 5.48458 34.044 4.35104 34.044Z" fill="#26AD4F"/>
<path d="M28.1979 34.0858C27.6101 34.0858 26.8544 34.0435 26.0148 33.9166C24.5034 33.705 23.5378 33.2397 23.118 32.5206C22.5302 31.5053 22.2363 29.8132 22.2363 27.5288V11.369C22.2363 10.8613 22.2363 10.5229 22.2783 10.2691C22.3203 10.0576 22.3623 9.84606 22.5302 9.54994C22.6981 9.21151 23.4538 9 24.5874 9C25.6789 9 26.3926 9.21151 26.6026 9.59224C26.7285 9.84606 26.8125 10.0999 26.8544 10.2691C26.8964 10.5229 26.8964 10.9036 26.8964 11.369V27.1058C26.8964 28.3326 27.0644 28.7556 27.1903 29.0094C27.4422 29.4324 27.904 29.6439 28.6177 29.6439C29.2055 29.6439 29.3734 29.6862 29.4154 29.6862C29.4154 29.6862 29.5414 29.7286 29.7513 29.8555C29.7933 29.8978 30.1711 30.1516 30.1711 31.7591C30.1711 33.5358 29.7933 33.832 29.7513 33.8743C29.6253 33.9166 29.2475 34.0858 28.1979 34.0858Z" fill="#26AD4F"/>
<path d="M40.1622 34.3804C38.7767 34.3804 37.4333 34.042 36.1318 33.3652C34.8303 32.6883 33.7388 31.673 32.8571 30.3193C31.9755 29.0079 31.5137 27.485 31.5137 25.7929C31.5137 23.2547 32.3953 21.1818 34.1586 19.532C35.9219 17.8822 37.9371 17.0361 40.2041 17.0361C42.4712 17.0361 44.4444 17.8399 46.2077 19.4897C47.971 21.1395 48.8106 23.1701 48.8106 25.7506C48.8106 27.485 48.3488 29.0502 47.4672 30.4039C46.5855 31.7576 45.452 32.7729 44.1925 33.4075C42.891 34.042 41.5056 34.3804 40.1622 34.3804ZM40.1622 21.7318C39.1965 21.7318 38.3149 22.0702 37.5172 22.7048C36.6776 23.3816 36.2577 24.3969 36.2577 25.7083C36.2577 27.0197 36.7196 27.9927 37.6012 28.7118C38.4409 29.3464 39.2805 29.6848 40.1622 29.6848C41.0438 29.6848 41.9254 29.3464 42.7651 28.7118C43.6887 28.035 44.1086 27.0197 44.1086 25.7083C44.1086 24.3969 43.6887 23.3816 42.8071 22.7471C41.9674 22.0279 41.0858 21.7318 40.1622 21.7318Z" fill="#26AD4F"/>
<path d="M68.3335 34.2964C67.7037 34.2964 67.1579 33.8734 66.6961 33.408C66.2343 32.9004 65.9824 32.3505 65.9824 31.7159C65.9824 30.616 66.3603 29.6431 67.116 28.7547C67.9136 27.7817 68.8792 26.9357 70.0128 26.2588C71.1883 25.5396 72.4058 24.8205 73.5813 24.1013C74.7988 23.3399 75.8904 22.4938 76.772 21.5631C77.7376 20.5479 78.1995 19.4057 78.1995 18.2635C78.1995 17.9674 78.1155 17.629 77.9056 17.1636C77.7376 16.7406 77.5277 16.3599 77.2758 16.106C77.0239 15.8099 76.6461 15.5138 76.1843 15.26C75.6805 15.0062 75.0507 14.8792 74.2111 14.8792C73.3294 14.8792 72.5318 15.2177 71.902 15.8522C71.2723 16.4868 70.8944 17.1213 70.8105 17.7982L70.6845 18.5596C70.6845 18.6019 70.6845 18.6442 70.6845 18.6865V18.898C70.6845 19.3634 70.6845 19.7018 70.6425 19.9133C70.6425 20.0402 70.5586 20.2094 70.3906 20.5479C70.3067 20.6748 69.9288 21.0555 68.2915 21.0555C67.032 21.0555 66.2763 20.7594 66.1084 20.2094C66.0664 20.0402 65.9824 19.5749 65.9824 18.6865C65.9824 16.4868 66.7381 14.5408 68.3335 12.7641C69.8868 11.0297 71.902 10.1836 74.421 10.1836C76.9819 10.1836 78.9551 11.0297 80.5505 12.8064C82.1039 14.5831 82.9015 16.6137 82.9015 18.8557C82.9015 20.0402 82.6496 21.1824 82.1039 22.24C81.6001 23.2976 80.9703 24.1859 80.2146 24.8205C78.6193 26.2588 77.1919 27.2318 75.9324 27.7394L75.0927 28.0778C74.8408 28.1624 74.7149 28.4163 74.7149 28.6701V28.8393C74.7149 29.1777 75.0088 29.4738 75.3446 29.4738H81.5161C82.5657 29.4738 83.0275 29.6431 83.1954 29.7277C83.4473 29.8546 83.6153 30.0661 83.6992 30.3622C83.8252 30.7429 83.8671 31.2506 83.8671 31.9274C83.8671 32.562 83.8252 33.0696 83.6992 33.4503C83.5733 33.7888 83.4053 33.9157 83.3214 33.958C82.9015 34.2118 82.2718 34.2964 81.5161 34.2964H68.3335Z" fill="#F73866"/>
<path d="M93.9426 34.382C92.6831 34.382 91.5076 34.0859 90.5 33.5783C89.4504 33.0283 88.6107 32.3092 87.981 31.4631C86.6375 29.6864 86.0078 27.6981 86.0078 25.4984V19.3644C86.0078 18.9837 86.0078 18.7299 86.0498 18.476C86.0918 18.2222 86.1757 17.9684 86.3017 17.7569V17.7146V17.6723C86.3857 17.5877 86.5536 17.2915 86.9734 17.1223H87.0154C87.3093 17.0377 87.7291 16.9531 88.2749 16.9531C88.9046 16.9531 89.2825 16.9954 89.5764 17.1223C89.9122 17.2492 90.1641 17.4608 90.2481 17.7146C90.5 18.2645 90.542 18.8145 90.542 19.3221V25.4138C90.542 26.3867 90.7939 27.3174 91.2557 28.1635C91.5076 28.6288 91.8434 28.9672 92.2633 29.221C92.7671 29.5172 93.3128 29.6441 93.9426 29.6441C95.0761 29.6441 95.9158 29.221 96.4616 28.375C97.0073 27.5289 97.3012 26.5559 97.3012 25.3715V19.1106C97.3012 18.4337 97.3852 17.9684 97.5531 17.7146C97.721 17.4185 98.0149 17.2069 98.3508 17.1223C98.6867 17.0377 99.0645 16.9531 99.5683 16.9531C100.072 16.9531 100.45 16.9954 100.702 17.08H100.744C101.08 17.2069 101.29 17.2915 101.458 17.4185C101.583 17.5454 101.709 17.7569 101.751 17.9261C101.835 18.2645 101.919 18.6876 101.919 19.2798V25.4561C101.919 27.6558 101.248 29.6441 99.9042 31.4208C99.2324 32.2669 98.3928 32.9437 97.3852 33.4937C96.3776 34.0859 95.2441 34.382 93.9426 34.382Z" fill="#26AD4F"/>
<path d="M134.414 34.382C133.155 34.382 131.979 34.0859 130.972 33.5783C129.922 33.0283 129.082 32.3092 128.453 31.4631C127.109 29.6864 126.479 27.6981 126.479 25.4984V19.3644C126.479 18.9837 126.479 18.7299 126.521 18.476C126.563 18.2222 126.647 17.9684 126.773 17.7569V17.7146V17.6723C126.857 17.5877 127.025 17.2915 127.445 17.1223H127.487C127.781 17.0377 128.201 16.9531 128.747 16.9531C129.376 16.9531 129.754 16.9954 130.048 17.1223C130.384 17.2492 130.636 17.4608 130.72 17.7146C130.972 18.2645 131.014 18.8145 131.014 19.3221V25.4138C131.014 26.3867 131.266 27.3174 131.727 28.1635C131.979 28.6288 132.315 28.9672 132.735 29.221C133.239 29.5172 133.785 29.6441 134.414 29.6441C135.548 29.6441 136.387 29.221 136.933 28.375C137.479 27.5289 137.773 26.5559 137.773 25.3715V19.1106C137.773 18.4337 137.857 17.9684 138.025 17.7146C138.193 17.4185 138.487 17.2069 138.822 17.1223C139.158 17.0377 139.536 16.9531 140.04 16.9531C140.544 16.9531 140.922 16.9954 141.174 17.08H141.216C141.551 17.2069 141.761 17.2915 141.929 17.4185C142.055 17.5454 142.181 17.7569 142.223 17.9261C142.307 18.2645 142.391 18.6876 142.391 19.2798V25.4561C142.391 27.6558 141.719 29.6441 140.376 31.4208C139.704 32.2669 138.864 32.9437 137.857 33.4937C136.849 34.0859 135.674 34.382 134.414 34.382Z" fill="#26AD4F"/>
<path d="M63.8409 17.1207C63.8409 17.1207 59.6426 16.7823 57.2916 19.1513C56.4099 20.0397 55.8642 21.2241 55.6123 22.324L55.5703 20.2512C55.5703 19.7435 55.4443 17.8399 55.3184 17.5438C55.2344 17.3746 54.8146 17.0361 53.3032 17.0361C52.1697 17.0361 51.414 17.2476 51.246 17.5861C51.1201 17.8399 51.0361 18.0514 51.0361 18.2629C50.9941 18.5167 50.9941 19.1936 50.9941 19.7012V32.9421C51.0361 33.4075 51.1621 33.7882 51.372 33.9574C51.6239 34.1689 52.1277 34.3804 53.3032 34.3804C54.4367 34.3804 55.1924 34.1689 55.3604 33.8305C55.5283 33.4921 55.6123 33.2805 55.6123 33.1536C55.6542 32.8998 55.6542 32.5614 55.6542 32.0538V27.6119C55.6542 26.5966 56.368 25.7506 57.3755 25.6237C58.761 25.4545 60.5662 24.9468 61.8257 23.6777C64.1768 21.3511 63.8409 17.1207 63.8409 17.1207Z" fill="#26AD4F"/>
<path d="M123.708 17.1207C123.708 17.1207 119.51 16.7823 117.159 19.1513C116.277 20.0397 115.731 21.2241 115.479 22.324L115.437 20.2512C115.437 19.7435 115.312 17.8399 115.186 17.5438C115.102 17.3746 114.682 17.0361 113.17 17.0361C112.037 17.0361 111.281 17.2476 111.113 17.5861C110.987 17.8399 110.903 18.0514 110.903 18.2629C110.861 18.5167 110.861 19.1936 110.861 19.7012V32.9421C110.903 33.4075 111.029 33.7882 111.239 33.9574C111.491 34.1689 111.995 34.3804 113.17 34.3804C114.304 34.3804 115.06 34.1689 115.228 33.8305C115.395 33.4921 115.479 33.2805 115.479 33.1536C115.521 32.8998 115.521 32.5614 115.521 32.0538V27.6119C115.521 26.5966 116.235 25.7506 117.243 25.6237C118.628 25.4545 120.433 24.9468 121.693 23.6777C124.044 21.3511 123.708 17.1207 123.708 17.1207Z" fill="#26AD4F"/>
<path d="M106.119 34.3827C107.278 34.3827 108.218 33.4357 108.218 32.2675C108.218 31.0993 107.278 30.1523 106.119 30.1523C104.959 30.1523 104.02 31.0993 104.02 32.2675C104.02 33.4357 104.959 34.3827 106.119 34.3827Z" fill="#26AD4F"/>
</svg>
