<svg width="267" height="151" viewBox="0 0 267 151" fill="none" xmlns="http://www.w3.org/2000/svg">
<path d="M266.479 77.9609H248.987V100.39H231.212V77.9609H177.043V65.2649L225.711 1.64404H245.319L199.473 62.4436H231.777V42.5533H248.987V62.4436H266.479V77.9609Z" fill="#2A292A"/>
<path d="M134.832 101.956C126.932 101.956 119.879 99.9815 113.672 96.0316C107.465 91.9877 102.575 86.157 99.0011 78.5394C95.4275 70.8278 93.6406 61.7055 93.6406 51.1725C93.6406 40.6396 95.4275 31.5643 99.0011 23.9467C102.575 16.2351 107.465 10.4044 113.672 6.45452C119.879 2.41062 126.932 0.388672 134.832 0.388672C142.732 0.388672 149.785 2.41062 155.992 6.45452C162.293 10.4044 167.23 16.2351 170.804 23.9467C174.378 31.5643 176.164 40.6396 176.164 51.1725C176.164 61.7055 174.378 70.8278 170.804 78.5394C167.23 86.157 162.293 91.9877 155.992 96.0316C149.785 99.9815 142.732 101.956 134.832 101.956ZM134.832 86.0159C141.885 86.0159 147.434 83.1005 151.478 77.2698C155.616 71.4391 157.685 62.74 157.685 51.1725C157.685 39.6051 155.616 30.906 151.478 25.0753C147.434 19.2445 141.885 16.3292 134.832 16.3292C127.873 16.3292 122.324 19.2445 118.186 25.0753C114.142 30.906 112.12 39.6051 112.12 51.1725C112.12 62.74 114.142 71.4391 118.186 77.2698C122.324 83.1005 127.873 86.0159 134.832 86.0159Z" fill="#2A292A"/>
<path d="M175.878 58.1987C177.453 59.0861 178.999 60.0942 180.513 61.225C186.842 65.9519 191.284 71.7925 193.837 78.7465C196.522 85.6815 196.989 93.3083 195.238 101.625C193.543 109.867 189.544 118.207 183.242 126.646C176.939 135.085 170.048 141.325 162.571 145.366C155.149 149.331 147.705 151.048 140.237 150.518C132.9 149.969 126.067 147.33 119.738 142.603C113.408 137.876 108.939 132.073 106.33 125.195C103.776 118.241 103.347 110.643 105.041 102.401C105.775 98.9149 106.91 95.4189 108.444 91.9116C110.068 93.445 111.809 94.8194 113.669 96.0317C116.995 98.1481 120.565 99.6967 124.376 100.679C122.373 105.046 121.304 109.108 121.172 112.864C120.999 120.011 123.7 125.667 129.276 129.831C134.927 134.052 141.117 135.036 147.846 132.785C154.651 130.589 161.513 124.856 168.435 115.588C175.357 106.32 178.904 98.1129 179.078 90.9653C179.307 84.4376 177.035 79.1277 172.265 75.0327C174.163 69.9687 175.368 64.3578 175.878 58.1987ZM157.658 53.3276C157.501 60.033 156.602 65.7106 154.964 70.3618C154.121 70.538 153.267 70.7658 152.404 71.0444C146.259 73.1008 140.035 78.0824 133.73 85.9887C127.284 85.6947 122.102 82.7901 118.184 77.27C118.014 77.0247 117.849 76.7734 117.686 76.518C123.833 68.4595 130.508 62.5075 137.708 58.6606C144.415 55.037 151.065 53.2593 157.658 53.3276Z" fill="#9B1D32"/>
<g clip-path="url(#clip0_3033_14397)">
<path d="M119.74 142.603C113.411 137.876 108.941 132.073 106.331 125.194C103.778 118.24 103.349 110.642 105.044 102.401C106.795 94.0835 110.822 85.7054 117.124 77.2662C123.427 68.827 130.289 62.6249 137.71 58.6599C145.188 54.6196 152.595 52.8741 159.932 53.4234C167.325 53.8974 174.186 56.4979 180.515 61.2248C186.844 65.9518 191.286 71.7923 193.839 78.7464C196.524 85.6814 196.991 93.3075 195.24 101.625C193.545 109.866 189.546 118.207 183.244 126.646C176.941 135.085 170.051 141.325 162.573 145.365C155.152 149.33 147.707 151.048 140.239 150.517C132.902 149.968 126.069 147.33 119.74 142.603ZM129.278 129.831C134.929 134.052 141.12 135.036 147.849 132.784C154.653 130.588 161.516 124.856 168.438 115.588C175.359 106.32 178.907 98.1123 179.08 90.9646C179.329 83.8731 176.628 78.2172 170.977 73.9967C165.401 69.8325 159.211 68.8482 152.406 71.0439C145.677 73.2958 138.852 79.0558 131.93 88.3239C125.009 97.5919 121.424 105.772 121.175 112.863C121.001 120.011 123.702 125.667 129.278 129.831Z" fill="#9B1D32"/>
</g>
<path d="M89.9556 77.9609H72.4633V100.39H54.689V77.9609H0.519531V65.2649L49.1874 1.64404H68.7956L22.9491 62.4436H55.2533V42.5533H72.4633V62.4436H89.9556V77.9609Z" fill="#2A292A"/>
<defs>
<clipPath id="clip0_3033_14397">
<rect width="65.8593" height="81.1556" fill="white" transform="translate(147.648 36.7148)"/>
</clipPath>
</defs>
</svg>
