<svg width="459" height="67" viewBox="0 0 459 67" fill="none" xmlns="http://www.w3.org/2000/svg">
<path d="M23.21 13.085C24.3815 13.085 25.1533 13.7779 25.1533 14.9424V16.6426H28.54C33.3761 16.6426 36.3195 17.0927 38.6055 17.9785C42.2414 19.393 43.9911 22.2504 43.9912 26.2578H43.9775V38.7031C43.9774 43.0035 41.9554 46.6534 36.9121 47.9893C34.6475 48.5893 31.6324 48.79 28.2891 48.79H25.1533V50.8184C25.1533 51.8041 24.3607 52.5974 23.375 52.5977H20.6025C19.6168 52.5975 18.8242 51.797 18.8242 50.8184V48.79H15.6875C12.3515 48.79 9.33708 48.5893 7.06543 47.9893C2.02919 46.6534 0.000125524 43.0035 0 38.7031V26.2578C0.00011095 22.2503 1.75063 19.3929 5.38672 17.9785C7.67271 17.0856 10.6231 16.6426 15.4521 16.6426H18.8379V14.9424C18.8379 13.778 19.6097 13.085 20.7812 13.085H23.21ZM70.3779 14.7783C71.9566 14.7784 73.3421 15.4428 73.8779 16.3643L94.417 45.3613C95.3525 46.69 95.038 48.5183 93.7168 49.4541L93.5312 49.5898C92.2096 50.5257 90.3802 50.2113 89.4443 48.8896L83.751 40.6885H56.9258L51.2041 48.8545C50.2612 50.1832 48.4319 50.4904 47.1104 49.5547L46.9248 49.4258C45.5961 48.4828 45.2888 46.6536 46.2246 45.332L49.7246 40.4102L66.9844 16.207C67.5702 15.3641 68.892 14.7783 70.3779 14.7783ZM321.526 14.7783C323.105 14.7784 324.491 15.4427 325.026 16.3643C325.034 16.3643 345.565 45.3613 345.565 45.3613C346.501 46.69 346.187 48.5183 344.865 49.4541L344.68 49.5898C343.358 50.5257 341.529 50.2113 340.593 48.8896L334.899 40.6885H308.074L302.353 48.8545C301.41 50.1831 299.58 50.4903 298.259 49.5547L298.073 49.4258C296.745 48.4828 296.437 46.6536 297.373 45.332L300.873 40.4102L318.133 16.207C318.719 15.3641 320.04 14.7783 321.526 14.7783ZM372.887 14.7783C374.466 14.7783 375.852 15.4359 376.388 16.3574L396.926 45.3613C397.861 46.6829 397.547 48.5183 396.226 49.4541L396.04 49.583C394.711 50.5188 392.882 50.2116 391.946 48.8828L372.865 21.2148L353.706 48.8545C352.77 50.176 350.941 50.4903 349.612 49.5547L349.427 49.4189C348.105 48.4831 347.791 46.6536 348.727 45.332L352.227 40.4102L369.486 16.207C370.079 15.3641 371.401 14.7783 372.887 14.7783ZM255.589 14.7871C258.354 14.7871 259.189 16.8803 259.189 18.3662H259.183V48.1055C259.183 49.0913 258.389 49.8848 257.403 49.8848H254.604C253.618 49.8848 252.824 49.0913 252.824 48.1055V23.2383L223.242 48.0908C222.149 48.9338 221.006 50.0703 219.463 50.0703C216.698 50.0703 215.862 47.9765 215.862 46.4834V16.751C215.862 15.7654 216.662 14.9729 217.641 14.9727H220.448C221.434 14.9727 222.227 15.7653 222.228 16.751V41.6113L251.81 16.7588C252.903 15.923 254.039 14.7872 255.589 14.7871ZM154.493 14.7783C155.493 14.7783 156.329 14.9996 157.058 15.5996C157.972 16.3425 158.208 17.3428 158.208 18.4072L158.229 46.332V48.1113C158.229 49.0972 157.429 49.8975 156.443 49.8975H153.607C152.622 49.8975 151.821 49.0972 151.821 48.1113L151.843 46.332V24.9658L132.747 48.1895C131.733 49.4253 130.368 50.04 128.668 50.04H128.547C126.84 50.04 125.482 49.4253 124.468 48.1895L105.379 24.9658V46.332L105.4 48.1113C105.4 49.097 104.608 49.8972 103.615 49.8975H100.786C99.8003 49.8975 99 49.0972 99 48.1113V46.332L99.0215 18.4072C99.0215 17.3428 99.2575 16.3425 100.172 15.5996C100.9 15.0069 101.736 14.7783 102.736 14.7783C104.101 14.7784 105.322 15.45 106.308 16.5928L128.618 43.6963L150.929 16.5928C151.907 15.4499 153.129 14.7783 154.493 14.7783ZM192.895 14.9707C195.674 14.9707 199.734 15.2091 201.502 15.5215L201.824 15.5928C204.024 16.0786 205.954 16.7922 207.418 18.1709C209.082 19.714 209.818 22.1434 209.818 24.0508V26.4297C209.818 28.5299 209.075 30.2799 207.589 31.6729C207.375 31.8728 207.211 32.1158 207.211 32.4727C207.211 32.8272 207.583 33.1332 207.589 33.1377C209.075 34.5164 209.818 36.2592 209.818 38.3594V40.2881C209.818 44.1957 207.575 47.711 203.453 48.9326C201.603 49.4827 197.867 49.875 195.866 49.875L168.47 49.9043C167.313 49.9043 166.655 48.9899 166.662 48.1113V16.835C166.662 15.885 167.22 14.9707 168.577 14.9707H192.895ZM300.518 14.9707C301.632 14.9707 302.532 15.8709 302.532 16.9854V18.1924C302.532 19.3068 301.632 20.207 300.518 20.207V20.2139H286.188V48.1035C286.188 49.0894 285.387 49.8828 284.408 49.8828H281.615C280.629 49.8828 279.837 49.0893 279.837 48.1035L279.851 20.207H265.613C264.499 20.207 263.599 19.3068 263.599 18.1924V16.9854C263.599 15.8709 264.499 14.9707 265.613 14.9707H300.518ZM404.117 15C405.417 15 406.125 15.7711 406.125 16.8213V27.4443H428.178C431.881 27.4443 435.001 27.7522 437.472 28.7324L437.972 28.9443C441.451 30.5016 442.944 33.3804 442.944 36.8379V40.0459C442.944 41.4463 443.987 49.8827 429.035 49.8828H401.389C400.703 49.8828 399.767 49.1898 399.767 48.1396V16.8145C399.767 16.0287 400.267 15.0001 401.631 15H404.117ZM406.11 44.6826H429.078C434.607 44.6826 437.229 43.3962 437.229 40.9316V37.0957C437.229 35.4098 436.343 33.9948 434.679 33.3447C433.429 32.859 431.557 32.6592 428.964 32.6592H406.11V44.6826ZM173.027 44.6602H195.224C200.653 44.6601 204.075 43.9317 204.132 40.1885L204.139 40.1953V38.9697C204.118 38.3434 203.788 37.2671 203.024 36.624C201.467 35.3025 199.381 34.9951 195.452 34.9951H173.027V44.6602ZM14.5879 21.9365C8.17296 21.9365 5.73649 23.2791 5.73633 26.415V38.8096C5.73633 41.7885 7.6653 43.5674 14.0732 43.5674H18.8242V21.9365H14.5879ZM25.1816 43.5674H29.9258C36.3264 43.5673 38.2627 41.7885 38.2627 38.8096V26.415C38.2625 23.2863 35.8332 21.9365 29.4111 21.9365H25.1816V43.5674ZM60.6406 35.4385H80L70.3496 21.2148L60.6406 35.4385ZM311.789 35.4385H331.148L321.498 21.2148L311.789 35.4385ZM173.021 30.001H195.444C199.128 30.001 201.192 29.7251 202.719 28.6074L203.017 28.3799C203.831 27.6941 204.153 26.5151 204.124 25.915V24.8076C204.067 21.0644 200.645 20.3359 195.216 20.3359H173.021V30.001ZM453.424 13C456.503 13 458.875 15.3076 458.875 18.3223C458.875 21.3369 456.474 23.709 453.424 23.709C450.374 23.7089 447.938 21.2726 447.938 18.3223C447.938 15.3719 450.373 13.0001 453.424 13ZM453.417 14.0791C451.045 14.0791 449.295 15.9575 449.295 18.3291C449.295 20.6267 450.944 22.4618 453.229 22.5742L453.452 22.5869C455.788 22.5869 457.511 20.7369 457.511 18.3652C457.511 15.9935 455.789 14.0792 453.417 14.0791ZM453.385 15.6221C454.392 15.6221 454.85 15.786 455.235 16.0146C455.528 16.2433 455.757 16.6651 455.757 17.1865C455.757 17.7721 455.299 18.2219 454.649 18.4219L454.656 18.4795C455.178 18.6724 455.47 19.065 455.635 19.7793C455.799 20.5865 455.893 20.9155 456.028 21.1084H454.692C454.528 20.9155 454.435 20.422 454.271 19.8076C454.17 19.2221 453.842 18.9648 453.163 18.9648H452.578V21.1084H451.342V15.7861C451.828 15.6861 452.513 15.6221 453.385 15.6221ZM453.285 16.5146C452.964 16.5146 452.735 16.5434 452.606 16.5791V18.1006H453.185C453.87 18.1006 454.421 17.8721 454.421 17.3223C454.421 16.8365 454.071 16.5147 453.285 16.5146Z" fill="white"/>
</svg>
