<svg width="116" height="48" viewBox="0 0 116 48" fill="none" xmlns="http://www.w3.org/2000/svg">
<g clip-path="url(#clip0_3101_52)">
<mask id="mask0_3101_52" style="mask-type:luminance" maskUnits="userSpaceOnUse" x="0" y="0" width="116" height="48">
<path d="M115.557 0H0V48H115.557V0Z" fill="white"/>
</mask>
<g mask="url(#mask0_3101_52)">
<path d="M10.7142 0.623047H-0.256348V35.3785H10.7142V0.623047Z" fill="#2A292A"/>
<path d="M35.6769 0.623047H24.7109V35.3785H35.6769V0.623047Z" fill="#2A292A"/>
<path d="M19.5055 0.623047H12.4575V16.7943H19.5055C21.7702 16.7943 22.966 14.7538 22.966 12.8996V4.52616C22.966 2.6635 21.7884 0.623047 19.5055 0.623047Z" fill="#2A292A"/>
<path d="M19.5055 18.7852H12.4575V35.3797H19.5055C21.7702 35.3797 22.966 33.2884 22.966 31.3792V22.7898C22.966 20.8722 21.7884 18.7852 19.5055 18.7852Z" fill="#2A292A"/>
<path d="M46.1485 14.221C47.6387 14.221 48.6896 14.1617 49.3191 13.7553C49.6533 13.5322 49.9233 13.2353 50.105 12.8912C50.2868 12.547 50.3747 12.1662 50.361 11.7826C50.3869 11.3546 50.2824 10.9284 50.0595 10.5537C49.8366 10.179 49.5044 9.87119 49.1017 9.66594C48.4248 9.39059 47.6865 9.27294 46.9502 9.32301H45.2426V14.221H46.1485ZM46.2481 7.41381C48.6442 7.41381 49.7177 6.89312 49.7177 5.29717C49.7177 3.37525 48.5944 3.00695 46.2481 3.00695H45.2426V7.41381H46.2481ZM42.6245 0.894531H46.7373C48.4721 0.894531 49.7766 0.966499 50.7867 1.67769C51.306 2.06442 51.7207 2.55972 51.9977 3.12369C52.2746 3.68767 52.406 4.30454 52.3811 4.92463C52.3811 6.57141 51.5613 7.71016 50.0303 8.15039C51.9237 8.42983 53.0922 9.87338 53.0922 11.9604C53.1108 13.1518 52.6314 14.303 51.756 15.1692C50.5919 16.2741 49.0383 16.3376 46.7735 16.3376H42.6336L42.6245 0.894531Z" fill="#2A292A"/>
<path d="M55.8018 0.898438H64.9154V3.03202H58.4471V6.89277H64.9154V9.08986H58.4471V14.0809H64.9154V16.3204H55.8018V0.898438Z" fill="#2A292A"/>
<path d="M69.1415 12.3073C69.5313 13.6874 70.6274 14.4239 72.3123 14.4239C73.9114 14.4239 74.8942 13.518 74.8942 12.1422C74.8942 10.6309 73.6803 10.2626 71.9954 9.48796C69.0918 8.15443 67.4927 7.11305 67.4927 4.78897C67.4927 2.30825 69.4268 0.555664 72.3981 0.555664C74.8259 0.555664 76.4747 1.48276 77.1091 3.09564L75.0302 4.10741C74.3911 3.15915 73.6394 2.70618 72.6111 2.70618C71.166 2.70618 70.283 3.48511 70.283 4.64503C70.283 6.13516 71.5606 6.59236 73.3902 7.37977C76.271 8.64976 77.6116 9.73772 77.6116 11.9517C77.6116 14.8219 75.5823 16.7226 72.199 16.7226C69.4087 16.7226 67.5832 15.4527 67.0352 13.2344L69.1415 12.3073Z" fill="#2A292A"/>
<path d="M83.1909 0.907227H80.5366V16.3207H83.1909V0.907227Z" fill="#2A292A"/>
<path d="M87.0015 0.301758L97.3695 9.71663C98.0173 10.305 98.6226 10.9328 99.1817 11.5962V0.894421H101.628V16.9217L91.0285 7.32906C90.4489 6.79888 89.9196 6.22233 89.4474 5.60608V16.3206H87.0015V0.301758Z" fill="#2A292A"/>
<path d="M106.535 12.3073C106.925 13.6874 108.016 14.4239 109.706 14.4239C111.3 14.4239 112.283 13.518 112.283 12.1422C112.283 10.6309 111.069 10.2626 109.384 9.48796C106.485 8.15443 104.882 7.11305 104.882 4.78897C104.882 2.30825 106.825 0.555664 109.796 0.555664C112.215 0.555664 113.873 1.48276 114.503 3.09564L112.424 4.10741C111.785 3.15915 111.024 2.70618 110.005 2.70618C108.564 2.70618 107.672 3.48511 107.672 4.64503C107.672 6.13516 108.954 6.59236 110.78 7.37977C113.656 8.64976 115.001 9.73772 115.001 11.9517C115.001 14.8219 112.972 16.7226 109.588 16.7226C106.802 16.7226 104.973 15.4527 104.429 13.2344L106.535 12.3073Z" fill="#2A292A"/>
<path d="M48.5489 25.5111V21.8789H49.6043V30.8281H48.5489V26.4382H43.6932V30.8281H42.6333V21.8789H43.6932V25.5111H48.5489Z" fill="#2A292A"/>
<path d="M51.5693 21.8789H56.4839V22.8018H52.6248V25.4645H56.3661V26.3874H52.6248V29.8968H56.4839V30.8281H51.5693V21.8789Z" fill="#2A292A"/>
<path d="M61.752 23.7756L60.126 27.3654H63.3371L61.752 23.7756ZM59.7 28.2925L58.5496 30.8325H57.3945L61.7701 21.4473L66.0369 30.8325H64.8907L63.7812 28.2925H59.7Z" fill="#2A292A"/>
<path d="M68.1245 29.8968H70.7473V30.8281H67.0693V21.8789H68.1245V29.8968Z" fill="#2A292A"/>
<path d="M73.2986 30.8281H72.2387V22.8018H69.9556V21.8789H75.6132V22.8018H73.2986V30.8281Z" fill="#2A292A"/>
<path d="M82.6553 25.5111V21.8789H83.7111V30.8281H82.6553V26.4382H77.8042V30.8281H76.749V21.8789H77.8042V25.5111H82.6553Z" fill="#2A292A"/>
<path d="M92.9114 23.8308C92.5379 23.4624 92.0897 23.1673 91.5924 22.9631C91.0958 22.7588 90.56 22.6494 90.0172 22.6412C88.9976 22.6899 88.037 23.1036 87.3355 23.7963C86.6334 24.489 86.2441 25.4077 86.2476 26.3617C86.2511 27.3158 86.6474 28.2319 87.3542 28.9201C88.0609 29.6084 89.0245 30.0158 90.0441 30.058C91.129 30.0252 92.1574 29.5985 92.9114 28.8684V30.1088C92.179 30.6055 91.314 30.903 90.4118 30.968C89.5095 31.0331 88.606 30.8633 87.8006 30.4773C86.9958 30.0915 86.3206 29.5046 85.8507 28.782C85.3809 28.0593 85.1346 27.2291 85.1387 26.3835C85.1387 25.155 85.6581 23.9763 86.5838 23.1042C87.5094 22.2319 88.7659 21.7369 90.0803 21.7268C91.1028 21.7161 92.0996 22.0261 92.9114 22.6074V23.8308Z" fill="#2A292A"/>
<path d="M98.1657 23.7756L96.5392 27.3654H99.7689L98.1657 23.7756ZM96.1137 28.2925L94.9722 30.8325H93.8125L98.1926 21.4473L102.451 30.8325H101.282L100.168 28.2925H96.1137Z" fill="#2A292A"/>
<path d="M104.538 26.0184H104.864C106.06 26.0184 107.274 25.8068 107.274 24.414C107.274 22.9366 106.123 22.8011 104.855 22.8011H104.538V26.0184ZM104.538 30.8274H103.487V21.874H104.846C106.658 21.874 108.316 22.3228 108.316 24.342C108.336 24.6508 108.29 24.9603 108.181 25.2524C108.072 25.5446 107.902 25.8135 107.68 26.0435C107.459 26.2736 107.191 26.4603 106.892 26.5926C106.593 26.7249 106.268 26.8002 105.937 26.8143L108.968 30.8317H107.673L104.805 26.9032H104.538V30.8274Z" fill="#2A292A"/>
<path d="M110.2 21.8574V30.8151H115.124V29.888H111.26V26.3743H115.006V25.4473H111.26V22.7887H115.124V21.8574H110.2Z" fill="#2A292A"/>
<path d="M115.005 34.7393H42.6279V35.3785H115.005V34.7393Z" fill="#2A292A"/>
<path d="M4.07841 45.983H3.41257V43.4431H0.409493V45.983H-0.256348V40.6406H0.409493V42.9139H3.41257V40.6406H4.07841V45.983Z" fill="#2A292A"/>
<path d="M6.9625 41.9068C7.37116 41.8775 7.77677 41.9923 8.0994 42.2286C8.23538 42.3661 8.33909 42.5286 8.40382 42.7058C8.46854 42.8829 8.49294 43.0708 8.47537 43.2573V45.9835H7.99978L7.87745 45.3908H7.84576C7.73294 45.5256 7.60542 45.649 7.4653 45.7592C7.32989 45.8577 7.1764 45.9323 7.01235 45.9793C6.80732 46.0322 6.59535 46.0578 6.38273 46.0555C6.14485 46.0576 5.90907 46.0144 5.6897 45.9285C5.50098 45.8432 5.3434 45.7077 5.23675 45.539C5.11211 45.3405 5.05081 45.1129 5.0601 44.8828C5.05007 44.7017 5.09025 44.5212 5.17674 44.3587C5.26323 44.1963 5.39311 44.0575 5.55382 43.9557C6.02614 43.7085 6.56191 43.587 7.10292 43.6044L7.84576 43.5747V43.3292C7.86017 43.199 7.84634 43.0674 7.80508 42.9423C7.76382 42.8172 7.696 42.7011 7.60571 42.6011C7.41878 42.4545 7.17891 42.3803 6.93531 42.3937C6.71692 42.3916 6.49963 42.423 6.29216 42.4868C6.09367 42.5459 5.8999 42.6181 5.71235 42.7027L5.50852 42.2624C5.72081 42.1615 5.94402 42.082 6.17438 42.0254C6.42971 41.951 6.69509 41.9111 6.9625 41.9068ZM7.83216 44.0235L7.1799 44.0489C6.7859 44.0361 6.39528 44.1208 6.04756 44.2944C5.94175 44.3616 5.85596 44.4528 5.79815 44.5594C5.74032 44.666 5.71236 44.7846 5.71688 44.904C5.70937 44.9994 5.72595 45.095 5.76529 45.1833C5.80463 45.2715 5.86564 45.3499 5.94338 45.412C6.11304 45.5295 6.32134 45.5879 6.5322 45.5771C6.87193 45.591 7.20488 45.4852 7.4653 45.2808C7.59323 45.1652 7.69151 45.024 7.75267 44.8678C7.81389 44.7117 7.83642 44.5446 7.81856 44.3791L7.83216 44.0235Z" fill="#2A292A"/>
<path d="M14.9121 42.9778C14.9195 43.0859 14.9024 43.1942 14.8618 43.2956C14.8212 43.397 14.758 43.4893 14.6765 43.5662C14.5062 43.7114 14.2961 43.8096 14.0696 43.8498V43.8795C14.3234 43.9087 14.5642 44.0008 14.7671 44.1462C14.8673 44.2269 14.9464 44.328 14.9982 44.4418C15.05 44.5555 15.0733 44.6789 15.0661 44.8024C15.0714 45.0172 15.01 45.229 14.8894 45.412C14.7566 45.6031 14.5635 45.7511 14.3368 45.8353C14.0259 45.9449 13.6951 45.9966 13.3629 45.9877H11.5059V41.9788H13.3177C13.593 41.9754 13.8674 42.0082 14.133 42.0761C14.3483 42.1278 14.5423 42.2384 14.6901 42.3936C14.8404 42.5551 14.9198 42.7638 14.9121 42.9778ZM14.2508 43.0497C14.2569 42.9672 14.2397 42.8845 14.2007 42.8102C14.1617 42.7358 14.1024 42.6725 14.0288 42.6264C13.8057 42.5136 13.5524 42.4637 13.2996 42.4825H12.1581V43.6339H13.1818C13.4556 43.6471 13.7288 43.5992 13.979 43.4942C14.0643 43.4514 14.1351 43.3871 14.1831 43.3085C14.2312 43.2299 14.2546 43.1402 14.2508 43.0497ZM14.3821 44.8066C14.3899 44.7055 14.3668 44.6045 14.3155 44.5153C14.2642 44.4261 14.1867 44.3524 14.0922 44.3028C13.8356 44.1781 13.5475 44.1211 13.2588 44.1377H12.1581V45.4839H13.2543C13.5384 45.4992 13.8221 45.4468 14.0786 45.3315C14.1779 45.2795 14.2591 45.202 14.3128 45.1082C14.3666 45.0145 14.3906 44.9084 14.3821 44.8024V44.8066Z" fill="#2A292A"/>
<path d="M17.5171 41.9068C17.9257 41.8775 18.3314 41.9923 18.654 42.2286C18.7892 42.3664 18.892 42.5291 18.956 42.7063C19.0199 42.8834 19.0436 43.0711 19.0254 43.2573V45.9835H18.5725L18.4456 45.3908H18.4184C18.3057 45.5256 18.1782 45.649 18.038 45.7592C17.902 45.8569 17.7487 45.9314 17.585 45.9793C17.38 46.0322 17.1681 46.0578 16.9554 46.0555C16.7176 46.0576 16.4817 46.0144 16.2624 45.9285C16.0649 45.8456 15.8978 45.7101 15.7823 45.539C15.6613 45.3393 15.6017 45.1122 15.6102 44.8828C15.5993 44.7015 15.639 44.5207 15.7256 44.3582C15.8122 44.1956 15.9425 44.0569 16.1039 43.9557C16.5762 43.7085 17.1119 43.587 17.653 43.6044L18.3913 43.5747V43.3292C18.4063 43.1993 18.3932 43.0679 18.3527 42.9428C18.3123 42.8177 18.2453 42.7015 18.1558 42.6011C17.9665 42.4554 17.7257 42.3813 17.4809 42.3937C17.2625 42.3919 17.0452 42.4233 16.8376 42.4868C16.641 42.5467 16.4488 42.6188 16.2624 42.7027L16.0631 42.2624C16.2738 42.1615 16.4955 42.082 16.7244 42.0254C16.9814 41.9512 17.2482 41.9114 17.5171 41.9068ZM18.3868 44.0235L17.7299 44.0489C17.3373 44.0352 16.9479 44.12 16.6021 44.2944C16.4958 44.3611 16.4094 44.4521 16.3515 44.5588C16.2936 44.6656 16.2661 44.7844 16.2715 44.904C16.2641 44.999 16.2803 45.0942 16.3188 45.1823C16.3573 45.2704 16.4171 45.349 16.4934 45.412C16.6654 45.5286 16.8746 45.5868 17.0868 45.5771C17.4265 45.591 17.7595 45.4852 18.0199 45.2808C18.1478 45.1682 18.2471 45.0303 18.3105 44.8773C18.374 44.7242 18.4001 44.5597 18.3868 44.396V44.0235Z" fill="#2A292A"/>
<path d="M25.9374 41.9746V45.9835H20.1758V41.9746H20.819V45.4671H22.7169V41.9746H23.3691V45.4671H25.2715V41.9746H25.9374Z" fill="#2A292A"/>
<path d="M28.7562 41.9026C29.0849 41.8945 29.4096 41.9722 29.6938 42.1269C29.9557 42.2788 30.1637 42.4997 30.2917 42.7619C30.4375 43.0605 30.5088 43.3863 30.5 43.7144V44.0912H27.5422C27.5195 44.4802 27.6518 44.8633 27.9136 45.1664C28.0463 45.2925 28.2063 45.3905 28.3829 45.454C28.5594 45.5176 28.7485 45.5451 28.9373 45.5347C29.1793 45.5365 29.4207 45.5138 29.6575 45.467C29.8814 45.4169 30.0997 45.3475 30.3098 45.2596V45.793C30.1029 45.8788 29.8875 45.9455 29.6666 45.9919C29.4189 46.0372 29.167 46.0585 28.9147 46.0555C28.5395 46.0639 28.1683 45.9823 27.8367 45.8183C27.5286 45.6597 27.2792 45.4177 27.121 45.1241C26.9397 44.7766 26.8526 44.3929 26.8673 44.0065C26.8571 43.6228 26.9359 43.2415 27.0983 42.8889C27.2341 42.5913 27.4611 42.338 27.7506 42.1608C28.0493 41.9799 28.4005 41.8897 28.7562 41.9026ZM28.7562 42.3979C28.6012 42.3913 28.4466 42.4167 28.3033 42.4723C28.16 42.5279 28.0316 42.6123 27.9272 42.7196C27.7042 42.9688 27.5752 43.2797 27.5603 43.6043H29.8251C29.8255 43.3889 29.784 43.1752 29.7028 42.9736C29.6342 42.8032 29.5128 42.6557 29.354 42.5503C29.1737 42.4415 28.9615 42.3882 28.7471 42.3979H28.7562Z" fill="#2A292A"/>
<path d="M32.0252 41.9749V44.6799V44.9255C32.0252 45.0144 32.0252 45.0948 32.0252 45.1753C32.0252 45.2557 32.0252 45.3191 32.0252 45.37L34.3624 41.9833H35.1641V45.9923H34.5119V43.5327C34.5119 43.4523 34.5119 43.3549 34.5119 43.2322V42.8723C34.5119 42.7538 34.5119 42.6649 34.5119 42.5972L32.1792 45.9838H31.4092V41.9749H32.0252ZM34.7972 40.3281C34.784 40.5441 34.7174 40.7542 34.6025 40.9419C34.497 41.1085 34.3387 41.2401 34.1495 41.3187C33.8948 41.4133 33.6216 41.4566 33.3478 41.4457C33.0714 41.4567 32.7955 41.4149 32.537 41.3229C32.3435 41.2529 32.1829 41.1209 32.0841 40.9504C31.9758 40.7581 31.9154 40.5453 31.9074 40.3281H32.5189C32.5172 40.5313 32.6 40.7271 32.7499 40.8742C32.93 40.9867 33.1455 41.0389 33.3614 41.0224C33.5703 41.0338 33.7773 40.9802 33.9502 40.87C34.0309 40.8011 34.0954 40.7175 34.1399 40.6243C34.1843 40.531 34.2076 40.4302 34.2084 40.3281H34.7972Z" fill="#2A292A"/>
<path d="M39.916 46.0731C39.56 46.0796 39.208 46.0025 38.8923 45.8487C38.5932 45.6945 38.3538 45.4559 38.2083 45.1671C38.0291 44.8086 37.9437 44.4154 37.9592 44.0199C37.9417 43.6084 38.0302 43.1989 38.2174 42.8261C38.3747 42.5341 38.6247 42.2946 38.9331 42.1403C39.2566 41.9903 39.6138 41.9149 39.9749 41.9202C40.1848 41.9203 40.3942 41.9402 40.5999 41.9794C40.7696 42.0095 40.9341 42.0608 41.0891 42.1318L40.8898 42.6398C40.7429 42.5847 40.5914 42.5408 40.4369 42.5086C40.2804 42.4685 40.119 42.4471 39.9568 42.4451C39.6955 42.4378 39.4376 42.501 39.2139 42.6271C39.0079 42.7535 38.8495 42.9371 38.7609 43.152C38.5638 43.7015 38.5638 44.296 38.7609 44.8454C38.8392 45.0573 38.9885 45.2399 39.1867 45.3661C39.397 45.4965 39.6458 45.5616 39.8979 45.5524C40.1054 45.5527 40.3121 45.53 40.5139 45.4846C40.6829 45.4419 40.848 45.3867 41.0076 45.3195V45.8656C40.8546 45.934 40.6934 45.9852 40.5275 46.018C40.3264 46.0572 40.1213 46.0757 39.916 46.0731Z" fill="#2A292A"/>
<path d="M44.7622 42.4911H43.3535V45.9835H42.6967V42.4911H41.3379V41.9746H44.7848L44.7622 42.4911Z" fill="#2A292A"/>
<path d="M49.115 43.9553C49.1211 44.2541 49.0737 44.5517 48.9746 44.8358C48.8941 45.078 48.7598 45.3016 48.5805 45.492C48.4099 45.6763 48.196 45.8212 47.9555 45.9153C47.6935 46.0137 47.4133 46.0626 47.1311 46.0593C46.8607 46.0611 46.5927 46.0121 46.3429 45.9153C46.1058 45.8199 45.8951 45.6752 45.7269 45.492C45.5463 45.3011 45.4092 45.0778 45.3238 44.8358C45.1017 44.1802 45.1355 43.4723 45.4189 42.8377C45.5631 42.5429 45.8002 42.2962 46.0983 42.1307C46.4221 41.963 46.7882 41.8797 47.1582 41.8894C47.5186 41.8821 47.8741 41.967 48.1865 42.135C48.4822 42.3046 48.7196 42.5499 48.8704 42.842C49.0409 43.1911 49.1245 43.5717 49.115 43.9553ZM45.8673 43.9553C45.8614 44.243 45.9089 44.5294 46.0077 44.8019C46.0823 45.0225 46.2298 45.2152 46.429 45.3523C46.6459 45.4867 46.9028 45.5533 47.1628 45.5428C47.4177 45.5624 47.6721 45.4995 47.8832 45.3646C48.0943 45.2298 48.2494 45.0311 48.3223 44.8019C48.4195 44.5292 48.4655 44.2427 48.4583 43.9553C48.4672 43.6678 48.4212 43.381 48.3223 43.1086C48.2415 42.8935 48.0951 42.7051 47.9011 42.5668C47.6801 42.4339 47.4209 42.3674 47.1582 42.3763C46.9702 42.3637 46.7817 42.3959 46.6106 42.47C46.4395 42.544 46.2913 42.6574 46.1799 42.7996C45.9499 43.1452 45.8406 43.5491 45.8673 43.9553Z" fill="#2A292A"/>
<path d="M52.0553 41.9029C52.2964 41.8928 52.5368 41.9337 52.7587 42.0224C52.9807 42.1111 53.1784 42.2452 53.3372 42.415C53.6823 42.864 53.843 43.4139 53.7902 43.9645C53.8024 44.3581 53.7284 44.7499 53.5727 45.1159C53.4459 45.4006 53.2315 45.6437 52.9567 45.8144C52.6761 45.9788 52.3501 46.0627 52.0191 46.0557C51.8149 46.0559 51.6118 46.0274 51.4167 45.971C51.2515 45.9225 51.0977 45.8449 50.9637 45.7424C50.8463 45.6529 50.744 45.5473 50.6603 45.4292H50.615C50.615 45.5308 50.615 45.6451 50.6421 45.7763C50.6693 45.9075 50.6421 46.0261 50.6421 46.1277V47.7659H49.9854V41.9748H50.5244L50.6104 42.5674H50.6421C50.7292 42.4442 50.831 42.3305 50.9456 42.2288C51.0789 42.1233 51.2327 42.0428 51.3985 41.9917C51.6097 41.9246 51.8324 41.8944 52.0553 41.9029ZM51.9466 42.4108C51.6945 42.3991 51.4442 42.4565 51.2264 42.5759C51.0402 42.6883 50.901 42.8572 50.8324 43.0543C50.7382 43.3132 50.6922 43.5852 50.6965 43.8586V43.956C50.6918 44.242 50.7315 44.5272 50.8143 44.8027C50.881 45.0142 51.0192 45.1999 51.2083 45.3318C51.4305 45.4615 51.6895 45.525 51.9512 45.5138C52.191 45.5215 52.4264 45.4512 52.617 45.3149C52.8034 45.1655 52.9414 44.9705 53.0156 44.7518C53.105 44.4848 53.1478 44.2061 53.1424 43.9263C53.1622 43.5315 53.0617 43.1396 52.8525 42.796C52.7494 42.6648 52.6119 42.5605 52.4533 42.493C52.2947 42.4256 52.1202 42.3973 51.9466 42.4108Z" fill="#2A292A"/>
<path d="M58.4456 43.9552C58.4508 44.2536 58.4047 44.5509 58.3096 44.8358C58.2273 45.0772 58.0932 45.3004 57.9156 45.4919C57.745 45.6762 57.531 45.8211 57.2905 45.9152C57.0284 46.0132 56.7483 46.0621 56.4661 46.0592C56.1957 46.0613 55.9276 46.0124 55.678 45.9152C55.4395 45.8199 55.2273 45.6751 55.0575 45.4919C54.8783 45.3008 54.7427 45.0775 54.6589 44.8358C54.5581 44.5519 54.5092 44.2542 54.5139 43.9552C54.5018 43.5709 54.5823 43.189 54.7494 42.8376C54.8953 42.5425 55.1339 42.2959 55.4334 42.1307C55.7558 41.9634 56.1202 41.8801 56.4887 41.8894C56.8505 41.8815 57.2078 41.9663 57.5215 42.1349C57.8165 42.304 58.0526 42.5496 58.2009 42.8418C58.3732 43.1903 58.4572 43.5714 58.4456 43.9552ZM55.1843 43.9552C55.1761 44.2431 55.2236 44.5299 55.3247 44.8019C55.3992 45.0224 55.5467 45.2151 55.7459 45.3522C55.9628 45.4865 56.2197 45.5532 56.4797 45.5427C56.7346 45.5595 56.9881 45.4954 57.1993 45.361C57.4105 45.2266 57.567 45.0297 57.6438 44.8019C57.741 44.5291 57.7869 44.2426 57.7797 43.9552C57.7886 43.6677 57.7427 43.381 57.6438 43.1086C57.563 42.8922 57.4147 42.7035 57.218 42.5667C56.9991 42.4331 56.741 42.3665 56.4797 42.3762C56.2916 42.364 56.1034 42.3964 55.9324 42.4704C55.7613 42.5445 55.6131 42.6576 55.5013 42.7995C55.2697 43.1446 55.1589 43.5485 55.1843 43.9552Z" fill="#2A292A"/>
<path d="M60.0318 41.9746V43.6679H62.4188V41.9746H63.0801V45.9835H62.4276V44.1717H60.0406V45.9835H59.3887V41.9746H60.0318Z" fill="#2A292A"/>
<path d="M65.9063 41.9016C66.2349 41.894 66.5594 41.9716 66.8442 42.126C67.1045 42.2781 67.3111 42.4991 67.4372 42.761C67.5831 43.0596 67.6543 43.3853 67.6455 43.7134V44.0902H64.6877C64.6644 44.48 64.7986 44.8639 65.0641 45.1654C65.196 45.2922 65.356 45.3907 65.5328 45.4543C65.7091 45.5178 65.8987 45.545 66.0872 45.5338C66.3294 45.5353 66.5711 45.5126 66.808 45.466C67.0315 45.4153 67.2498 45.3459 67.4599 45.2586V45.792C67.2516 45.8779 67.0345 45.9446 66.8121 45.9909C66.5629 46.0366 66.3096 46.0579 66.0557 46.0545C65.6822 46.0615 65.3128 45.9799 64.9824 45.8174C64.6766 45.6572 64.4292 45.4155 64.271 45.1231C64.0883 44.776 63.9996 44.3922 64.013 44.0055C64.0043 43.6215 64.0848 43.2402 64.2488 42.888C64.3848 42.5854 64.6165 42.3289 64.9124 42.1527C65.2089 41.9764 65.5556 41.8888 65.9063 41.9016ZM65.9063 42.3969C65.7511 42.3911 65.5958 42.4168 65.4517 42.4724C65.3081 42.528 65.1785 42.612 65.0729 42.7186C64.8535 42.9698 64.7251 43.2796 64.7058 43.6034H66.9708C66.9749 43.388 66.9347 43.1739 66.8529 42.9726C66.7858 42.8014 66.6644 42.6536 66.5045 42.5493C66.3236 42.4411 66.1118 42.3878 65.8976 42.3969H65.9063Z" fill="#2A292A"/>
<path d="M68.4612 45.6031C68.4536 45.5434 68.4595 45.4829 68.4793 45.4255C68.4986 45.3681 68.5307 45.3152 68.5733 45.2704C68.6159 45.2255 68.669 45.1897 68.7273 45.1654C68.7863 45.141 68.8499 45.1286 68.9147 45.129C69.0384 45.1265 69.1586 45.1655 69.2544 45.2391C69.3063 45.2854 69.3454 45.3425 69.3687 45.4058C69.3927 45.4691 69.3997 45.5367 69.3898 45.6031C69.3991 45.665 69.3927 45.7279 69.3728 45.7873C69.3524 45.8468 69.3186 45.9013 69.273 45.947C69.2275 45.9927 69.1715 46.0285 69.1096 46.0518C69.0478 46.075 68.9812 46.0851 68.9147 46.0815C68.7956 46.0844 68.6801 46.0434 68.5931 45.9672C68.5453 45.9185 68.5085 45.8609 68.4857 45.7982C68.4635 45.7355 68.4548 45.669 68.4612 45.6031Z" fill="#2A292A"/>
<path d="M73.9518 40.6411C74.5266 40.6012 75.0992 40.751 75.5684 41.0644C75.7418 41.2082 75.8772 41.3872 75.9653 41.5874C76.0534 41.7877 76.0908 42.0041 76.0762 42.2201C76.0785 42.4394 76.0388 42.6575 75.9583 42.8635C75.8789 43.0682 75.7464 43.2514 75.5731 43.3969C75.3741 43.5682 75.1354 43.6942 74.8757 43.7652C74.5319 43.862 74.1741 43.9078 73.8158 43.9007H73.1225V46.0174H72.4565V40.6411H73.9518ZM73.8882 41.166H73.1225V43.3462H73.7434C74.0492 43.3523 74.3545 43.3152 74.6492 43.2361C74.8698 43.1752 75.0642 43.0489 75.2019 42.8762C75.3338 42.6805 75.3974 42.4511 75.3828 42.2201C75.3951 42.071 75.3688 41.9215 75.3064 41.7838C75.2439 41.6461 75.1476 41.5243 75.0251 41.4284C74.6854 41.2312 74.2874 41.1393 73.8882 41.166Z" fill="#2A292A"/>
<path d="M78.5876 41.9071C78.9967 41.8769 79.4023 41.9918 79.7245 42.2288C79.8599 42.3666 79.9626 42.5293 80.0268 42.7064C80.0904 42.8836 80.1143 43.0713 80.0962 43.2575V45.9837H79.6433L79.5208 45.3911H79.4846C79.3749 45.5256 79.2506 45.649 79.1128 45.7593C78.9768 45.8567 78.8233 45.9312 78.6599 45.9795C78.4545 46.039 78.2409 46.0704 78.0261 46.0727C77.7868 46.0748 77.5493 46.0316 77.3287 45.9456C77.1332 45.8615 76.968 45.7262 76.853 45.5562C76.7299 45.3572 76.6704 45.1296 76.6809 44.9C76.6721 44.7182 76.7141 44.5375 76.8034 44.3756C76.8921 44.2137 77.0246 44.0764 77.188 43.9771C77.659 43.7305 78.193 43.609 78.7329 43.6258L79.4753 43.5961V43.3506C79.4893 43.2207 79.4758 43.0895 79.4356 42.9646C79.3953 42.8396 79.3288 42.7233 79.2401 42.6225C79.0504 42.4771 78.8099 42.4031 78.5648 42.4151C78.3465 42.4136 78.1294 42.4451 77.9216 42.5082C77.7238 42.568 77.53 42.6402 77.3421 42.7241L77.1203 42.2627C77.3328 42.1625 77.5557 42.083 77.7857 42.0256C78.046 41.9504 78.3156 41.9105 78.5876 41.9071ZM79.4531 44.0237L78.8053 44.0491C78.4096 44.0367 78.0179 44.1214 77.6684 44.2946C77.5627 44.3621 77.4781 44.4534 77.4209 44.56C77.3637 44.6666 77.3369 44.7851 77.3421 44.9042C77.3345 44.9992 77.3509 45.0944 77.3894 45.1825C77.4279 45.2706 77.4874 45.3493 77.5639 45.4122C77.7337 45.5297 77.9421 45.5881 78.1528 45.5773C78.4942 45.5922 78.8292 45.4864 79.0906 45.281C79.2167 45.1675 79.3148 45.0294 79.3772 44.8764C79.4402 44.7235 79.4659 44.5596 79.4531 44.3963V44.0237Z" fill="#2A292A"/>
<path d="M84.3684 41.9743V45.4668H84.9841V47.3633H84.3684V45.9832H81.3336V47.3633H80.7085V45.4668H81.0435C81.2921 45.1442 81.4976 44.7945 81.6551 44.4254C81.8185 44.0406 81.9429 43.6423 82.0269 43.2358C82.1092 42.8168 82.1535 42.3919 82.1582 41.9658L84.3684 41.9743ZM83.7387 42.4569H82.7197C82.6969 42.8189 82.642 43.1785 82.5568 43.5321C82.4699 43.8882 82.3549 44.2377 82.2125 44.5778C82.0818 44.8872 81.9131 45.1812 81.7094 45.4541H83.7387V42.4569Z" fill="#2A292A"/>
<path d="M86.2696 41.9746V44.6797V44.9252C86.2696 45.0142 86.2696 45.0946 86.2696 45.175C86.2696 45.2554 86.2696 45.3189 86.2696 45.3697L88.6158 41.9831H89.3494V45.992H88.7605V43.2319C88.7605 43.1092 88.7605 42.9906 88.7605 42.8721C88.7605 42.7535 88.7605 42.6647 88.7605 42.5969L86.4325 45.9835H85.6265V41.9746H86.2696Z" fill="#2A292A"/>
<path d="M97.4628 41.9746L95.6734 43.9219L97.6122 45.9835H96.8693L94.9894 43.9558V45.992H94.3871V43.9558L92.5213 45.9835H91.7783L93.7171 43.9219L91.905 41.9746H92.6205L94.3737 43.9177V41.9746H94.976V43.9177L96.7379 41.9746H97.4628Z" fill="#2A292A"/>
<path d="M98.7542 41.9746V44.5146C98.7542 44.5654 98.7542 44.6246 98.7542 44.7008C98.7588 44.7827 98.7588 44.8646 98.7542 44.9464C98.7542 45.0353 98.7542 45.1157 98.7542 45.1962C98.7542 45.2766 98.7542 45.3401 98.7542 45.3909L101.096 42.0042H101.893V46.0132H101.286V43.5325C101.286 43.452 101.286 43.3547 101.286 43.2319C101.286 43.1092 101.286 42.9906 101.286 42.8721C101.286 42.7535 101.286 42.6647 101.286 42.5969L98.9532 45.9835H98.1519V41.9746H98.7542Z" fill="#2A292A"/>
<path d="M104.136 41.9024C104.419 41.8957 104.702 41.9373 104.969 42.0252C105.183 42.0906 105.371 42.2145 105.508 42.3808C105.641 42.5431 105.71 42.7436 105.703 42.9481C105.713 43.1589 105.639 43.3657 105.494 43.528C105.335 43.6805 105.132 43.7876 104.91 43.837V43.8667C105.077 43.908 105.237 43.9707 105.386 44.0529C105.524 44.1362 105.64 44.2477 105.725 44.3789C105.815 44.5285 105.86 44.6985 105.852 44.87C105.854 45.0855 105.787 45.2967 105.658 45.4753C105.509 45.6685 105.303 45.8159 105.064 45.8986C104.741 46.0102 104.398 46.0634 104.054 46.0553C103.862 46.055 103.67 46.0436 103.479 46.0214C103.315 46.0048 103.153 45.9751 102.994 45.9325C102.862 45.8973 102.733 45.8505 102.609 45.7928V45.2256C102.815 45.3177 103.031 45.3915 103.253 45.4457C103.511 45.5102 103.777 45.5416 104.045 45.5388C104.244 45.5427 104.443 45.5185 104.634 45.4669C104.795 45.4283 104.941 45.3475 105.055 45.234C105.162 45.1165 105.215 44.9646 105.205 44.8107C105.211 44.6686 105.162 44.5291 105.069 44.417C104.959 44.305 104.818 44.2243 104.661 44.1842C104.436 44.1318 104.205 44.1076 103.973 44.1122H103.393V43.6127H103.868C104.169 43.6255 104.469 43.5764 104.747 43.4688C104.849 43.4291 104.936 43.3604 104.995 43.2723C105.053 43.1842 105.081 43.0812 105.074 42.9777C105.081 42.8886 105.061 42.7994 105.017 42.7201C104.973 42.6408 104.907 42.5745 104.824 42.5289C104.601 42.4169 104.348 42.3656 104.095 42.3808C103.886 42.3772 103.677 42.4 103.474 42.4485C103.274 42.497 103.079 42.5607 102.89 42.639L102.659 42.1564C102.884 42.0631 103.12 41.9922 103.361 41.9448C103.617 41.9068 103.877 41.8926 104.136 41.9024Z" fill="#2A292A"/>
<path d="M107.366 41.9746V43.6679H109.758V41.9746H110.406V45.9835H109.758V44.1717H107.366V45.9835H106.714V41.9746H107.366Z" fill="#2A292A"/>
<path d="M112.208 41.9746V44.5146C112.208 44.5654 112.208 44.6246 112.208 44.7008C112.212 44.7827 112.212 44.8646 112.208 44.9464C112.213 45.0296 112.213 45.113 112.208 45.1962C112.208 45.2724 112.208 45.3401 112.208 45.3909L114.55 42.0042H115.347V46.0132H114.717V43.5325C114.717 43.452 114.717 43.3547 114.717 43.2319C114.717 43.1092 114.717 42.9906 114.717 42.8721C114.717 42.7535 114.717 42.6647 114.717 42.5969L112.384 45.9835H111.592V41.9746H112.208Z" fill="#2A292A"/>
</g>
</g>
<defs>
<clipPath id="clip0_3101_52">
<rect width="116" height="48" fill="white"/>
</clipPath>
</defs>
</svg>
