<svg width="169" height="25" viewBox="0 0 169 25" fill="none" xmlns="http://www.w3.org/2000/svg">
<path d="M8.54785 0.03125C8.97931 0.03125 9.26363 0.290169 9.26367 0.724609V1.35938H10.5107C12.2918 1.35938 13.3759 1.52695 14.2178 1.85742C15.557 2.38521 16.2021 3.45186 16.2021 4.94727H16.1963V9.59082C16.1962 11.1953 15.4519 12.5572 13.5947 13.0557C12.7607 13.2796 11.6502 13.3545 10.4189 13.3545H9.26367V14.1113C9.26367 14.4792 8.97148 14.7754 8.6084 14.7754H7.58789C7.22481 14.7754 6.93262 14.4765 6.93262 14.1113V13.3545H5.77734C4.549 13.3545 3.43907 13.2795 2.60254 13.0557C0.747795 12.5572 9.74208e-05 11.1954 0 9.59082V4.94727C0 3.45197 0.644404 2.38525 1.9834 1.85742C2.82525 1.52425 3.91213 1.3594 5.69043 1.35938H6.9375V0.724609C6.93754 0.290269 7.22203 0.0313688 7.65332 0.03125H8.54785ZM25.9199 0.663086C26.5011 0.663185 27.0116 0.91119 27.209 1.25488L34.7725 12.0752C35.1171 12.571 35.0014 13.2533 34.5146 13.6025L34.4463 13.6533C33.9596 14.0022 33.286 13.8846 32.9414 13.3916L30.8447 10.332H20.9658L18.8584 13.3789C18.5111 13.8746 17.8373 13.9887 17.3506 13.6396L17.2822 13.5918C16.7929 13.2399 16.6798 12.5576 17.0244 12.0645L18.3135 10.2275L24.6699 1.19629C24.8858 0.88189 25.3728 0.663086 25.9199 0.663086ZM118.416 0.663086C118.997 0.663202 119.508 0.911187 119.705 1.25488C119.71 1.25876 127.253 12.0525 127.269 12.0752C127.613 12.571 127.497 13.2533 127.011 13.6025L126.942 13.6533C126.456 14.0022 125.782 13.8846 125.438 13.3916L123.341 10.332H113.461L111.354 13.3789C111.006 13.8742 110.333 13.9886 109.847 13.6396L109.778 13.5918C109.289 13.2399 109.176 12.5576 109.521 12.0645L110.81 10.2275L117.166 1.19629C117.382 0.881905 117.869 0.663086 118.416 0.663086ZM137.331 0.663086C137.913 0.663086 138.423 0.909066 138.62 1.25293L146.185 12.0752C146.529 12.5683 146.413 13.2534 145.927 13.6025L145.858 13.6504C145.369 13.9995 144.695 13.8845 144.351 13.3887L137.323 3.06543L130.267 13.3789C129.922 13.8715 129.249 13.9886 128.76 13.6396L128.691 13.5889C128.205 13.2397 128.089 12.5576 128.434 12.0645L129.723 10.2275L136.079 1.19629C136.298 0.881957 136.784 0.663155 137.331 0.663086ZM94.1318 0.666992C95.1497 0.667169 95.457 1.44758 95.457 2.00195H95.4551V13.0986C95.4551 13.4665 95.1629 13.7627 94.7998 13.7627H93.7686C93.4055 13.7627 93.1133 13.4665 93.1133 13.0986V3.82031L82.2178 13.0938C81.8153 13.4083 81.3943 13.832 80.8262 13.832C79.8083 13.8319 79.5001 13.0512 79.5 12.4941V1.39941C79.5001 1.03176 79.795 0.736474 80.1553 0.736328H81.1895C81.5525 0.736328 81.8446 1.03167 81.8447 1.39941V10.6758L92.7393 1.40234C93.1418 1.09047 93.5609 0.666992 94.1318 0.666992ZM56.8984 0.663086C57.2666 0.663086 57.5745 0.746037 57.8428 0.969727C58.1795 1.24695 58.2666 1.6204 58.2666 2.01758L58.2744 12.4375V13.1016C58.2742 13.4691 57.98 13.7674 57.6172 13.7676H56.5723C56.2094 13.7675 55.9152 13.4692 55.915 13.1016L55.9229 12.4375V4.46484L48.8896 13.1309C48.5161 13.5918 48.0137 13.8212 47.3877 13.8213H47.3428C46.7141 13.8213 46.2144 13.5917 45.8408 13.1309L38.8105 4.46484V12.4375L38.8184 13.1016C38.8182 13.4692 38.5257 13.7676 38.1602 13.7676H37.1191C36.7562 13.7676 36.4611 13.4692 36.4609 13.1016V12.4375L36.4688 2.01758C36.4688 1.6204 36.5558 1.24695 36.8926 0.969727C37.1609 0.74863 37.4687 0.663088 37.8369 0.663086C38.3394 0.663086 38.7893 0.914323 39.1523 1.34082L47.3691 11.4541L55.5859 1.34082C55.9463 0.914374 56.396 0.663146 56.8984 0.663086ZM71.041 0.735352C71.9963 0.735352 73.3629 0.812882 74.0703 0.917969L74.3301 0.966797C75.1404 1.14806 75.8513 1.41523 76.3906 1.92969C77.0034 2.50541 77.2744 3.41147 77.2744 4.12305V5.01074C77.2744 5.79443 77.0004 6.44798 76.4531 6.96777C76.3744 7.04228 76.3146 7.13275 76.3145 7.26562C76.3145 7.39513 76.4457 7.50744 76.4531 7.51367C77.0004 8.02813 77.2744 8.6792 77.2744 9.46289V10.1826C77.2743 11.6405 76.4476 12.9515 74.9297 13.4072C74.2482 13.6124 72.8723 13.7598 72.1357 13.7598L62.0459 13.7705C61.6198 13.7704 61.3782 13.4284 61.3809 13.1006V1.43066C61.381 1.07626 61.5862 0.735352 62.0859 0.735352H71.041ZM110.679 0.735352C111.089 0.735512 111.42 1.07157 111.42 1.4873V1.9375C111.42 2.35322 111.089 2.68929 110.679 2.68945V2.69141H105.4V13.0986C105.4 13.4664 105.105 13.7617 104.745 13.7617H103.717C103.354 13.7617 103.062 13.4664 103.062 13.0986L103.066 2.68945H97.8232C97.4128 2.68943 97.0811 2.35331 97.0811 1.9375V1.4873C97.0811 1.07148 97.4128 0.735375 97.8232 0.735352H110.679ZM148.833 0.746094C149.312 0.746094 149.572 1.03394 149.572 1.42578V5.38965H157.694C159.058 5.38965 160.207 5.50443 161.117 5.87012L161.302 5.94922C162.583 6.53029 163.133 7.60453 163.133 8.89453V10.0918C163.133 10.6147 163.516 13.7617 158.01 13.7617H147.828C147.576 13.7617 147.23 13.5031 147.23 13.1113V1.42285C147.231 1.12967 147.416 0.746094 147.918 0.746094H148.833ZM149.567 11.8213H158.026C160.063 11.8212 161.028 11.3415 161.028 10.4219V8.99121C161.028 8.36223 160.702 7.83442 160.089 7.5918C159.629 7.41057 158.939 7.33499 157.984 7.33496H149.567V11.8213ZM63.7246 11.8135H71.8994C73.8989 11.8135 75.1586 11.5413 75.1797 10.1445L75.1826 10.1475V9.73438C75.1905 9.51046 75.0724 9.07035 74.7725 8.81445C74.1989 8.32133 73.4304 8.20703 71.9834 8.20703H63.7246V11.8135ZM5.37207 3.33398C3.00976 3.33405 2.1123 3.83573 2.1123 5.00586V9.63086C2.11246 10.7421 2.82324 11.4062 5.18262 11.4062H6.93262V3.33398H5.37207ZM9.27441 11.4062H11.0215C13.3785 11.4062 14.0916 10.7422 14.0918 9.63086V5.00586C14.0918 3.83835 13.1972 3.33401 10.832 3.33398H9.27441V11.4062ZM22.334 8.37207H29.4639L25.9092 3.06543L22.334 8.37207ZM114.829 8.37207H121.96L118.405 3.06543L114.829 8.37207ZM63.7217 6.34375H71.9805C73.3375 6.34375 74.0978 6.24057 74.6602 5.82324L74.7695 5.73828C75.0692 5.4825 75.1881 5.04333 75.1777 4.81934V4.40625C75.1567 3.00947 73.8961 2.7373 71.8965 2.7373H63.7217V6.34375ZM166.992 0C168.126 0 169 0.860699 169 1.98535C169 3.11024 168.116 3.99609 166.992 3.99609C165.869 3.9959 164.972 3.08613 164.972 1.98535C164.972 0.884792 165.869 0.000185172 166.992 0ZM166.99 0.402344C166.117 0.402344 165.472 1.1034 165.472 1.98828C165.472 2.81783 166.041 3.48598 166.84 3.56641L167.003 3.57715C167.863 3.57715 168.497 2.88687 168.497 2.00195C168.497 1.11708 167.864 0.402514 166.99 0.402344ZM166.979 0.978516C167.349 0.978555 167.517 1.03979 167.659 1.125C167.767 1.21024 167.851 1.36712 167.852 1.56152C167.852 1.78 167.684 1.94875 167.444 2.02344L167.446 2.04395C167.638 2.11589 167.746 2.26292 167.807 2.5293C167.867 2.83026 167.901 2.95339 167.951 3.02539H167.46C167.399 2.95342 167.365 2.76928 167.305 2.54004C167.268 2.32154 167.146 2.22559 166.896 2.22559H166.681V3.02539H166.226V1.03906C166.404 1.00174 166.658 0.978516 166.979 0.978516ZM166.941 1.31152C166.823 1.31152 166.739 1.32165 166.691 1.33496V1.90332H166.904C167.157 1.90332 167.359 1.81756 167.359 1.6123C167.359 1.43121 167.231 1.31155 166.941 1.31152Z" fill="#9B1D32"/>
<path d="M115.059 19.9949C115.059 20.2268 114.946 20.3415 114.717 20.3415H111.297C110.468 20.3415 110.052 20.5094 110.052 20.8453V23.4896C110.052 23.7428 110.236 23.9187 110.602 24.0173C110.762 24.0627 111.041 24.084 111.433 24.084H114.696C114.922 24.084 115.033 24.1986 115.033 24.4305V24.5398C115.033 24.7717 114.919 24.8863 114.696 24.8863H111.433C111.039 24.8863 110.76 24.8757 110.599 24.8517C110.318 24.8144 110.055 24.7291 109.815 24.5984C109.334 24.3372 109.092 23.9747 109.092 23.5082V20.8506C109.092 20.5174 109.244 20.2322 109.552 19.9923C109.813 19.7897 110.118 19.6591 110.473 19.5978C110.668 19.5631 110.939 19.5471 111.283 19.5471H114.72C114.948 19.5471 115.062 19.6617 115.062 19.8883V19.9976L115.059 19.9949Z" fill="#2A292A"/>
<path d="M124.97 24.5389C124.97 24.7708 124.857 24.8854 124.633 24.8854H124.346C124.123 24.8854 124.01 24.7708 124.01 24.5389V21.0869L121.176 24.6269C121.026 24.8161 120.824 24.9094 120.568 24.9094C120.313 24.9094 120.105 24.8161 119.953 24.6269L117.066 21.0709V24.5416C117.066 24.7735 116.953 24.8881 116.724 24.8881H116.44C116.217 24.8881 116.104 24.7735 116.104 24.5416V20.0607C116.104 19.9141 116.164 19.7915 116.282 19.6955C116.393 19.6049 116.522 19.5569 116.674 19.5569C116.88 19.5569 117.059 19.6448 117.206 19.8208L120.582 23.8672L123.876 19.8154C124.01 19.6502 124.199 19.5675 124.441 19.5675C124.794 19.5675 124.97 19.7461 124.97 20.1007V24.5416V24.5389Z" fill="#2A292A"/>
<path d="M133.17 24.387C133.178 24.4297 133.183 24.4723 133.183 24.5176C133.183 24.6616 133.136 24.7788 133.038 24.8668C132.943 24.9548 132.822 25.0001 132.678 25.0001C132.533 25.0001 132.394 24.9095 132.273 24.7309L131.423 23.4754H127.368L126.516 24.7335C126.49 24.7868 126.463 24.8242 126.437 24.8455C126.376 24.9041 126.305 24.9335 126.219 24.9335C126.034 24.9335 125.898 24.8668 125.811 24.7335C125.771 24.6749 125.753 24.6189 125.753 24.5683C125.753 24.5309 125.758 24.5016 125.769 24.4803L128.808 19.7755C128.939 19.5729 129.134 19.477 129.394 19.4876C129.705 19.4983 129.889 19.5942 129.949 19.7755L133.167 24.3897L133.17 24.387ZM130.857 22.673L129.4 20.4952L127.931 22.673H130.857Z" fill="#2A292A"/>
<path d="M140.472 21.5647C140.472 22.0952 140.209 22.479 139.683 22.7189C139.299 22.8949 138.809 22.9802 138.212 22.9802H134.878V24.5369C134.878 24.7688 134.765 24.8834 134.536 24.8834H134.252C134.029 24.8834 133.916 24.7688 133.916 24.5369V19.8854C133.916 19.6561 134.029 19.5442 134.252 19.5442H138.257C138.772 19.5442 139.23 19.6188 139.63 19.7708C140.193 19.9813 140.472 20.3039 140.472 20.7357V21.5647ZM139.52 21.5327V20.805C139.52 20.4958 139.101 20.3439 138.265 20.3439H134.878V22.1858H138.27C138.662 22.1858 138.954 22.1485 139.141 22.0738C139.393 21.9726 139.52 21.794 139.52 21.5354V21.5327Z" fill="#2A292A"/>
<path d="M146.966 19.9944C146.966 20.2263 146.853 20.341 146.624 20.341H144.496V24.5393C144.496 24.7712 144.383 24.8858 144.159 24.8858H143.875C143.651 24.8858 143.538 24.7712 143.538 24.5393V20.341H141.42C141.194 20.341 141.078 20.2263 141.078 19.9944V19.8851C141.078 19.6559 141.191 19.5439 141.42 19.5439H146.624C146.853 19.5439 146.966 19.6586 146.966 19.8851V19.9944Z" fill="#2A292A"/>
</svg>
