<svg width="880" height="300" viewBox="0 0 880 300" fill="none" xmlns="http://www.w3.org/2000/svg">
<path d="M164.312 244.066C167.687 242.555 170.359 239.576 171.364 235.74C171.586 234.885 171.724 234.014 171.768 233.134C171.881 230.91 171.404 228.753 170.452 226.846C169.823 225.581 168.983 224.427 167.973 223.437C166.363 221.862 164.315 220.7 161.961 220.168C158.569 219.403 155.275 218.789 152.085 218.312C141.446 216.716 131.94 216.615 123.627 217.39C114.084 218.283 106.114 220.329 99.816 222.587C94.39 224.533 90.203 226.637 87.318 228.297C84.969 229.651 82.452 231.111 80.692 233.233C77.167 237.482 76.769 243.673 79.924 248.381C83.932 254.373 92.39 255.742 98.06 251.313C98.12 251.267 99.972 249.916 103.544 248.268C107.623 246.384 113.949 244.112 122.414 242.957C129.787 241.95 138.783 241.79 149.328 243.471C151.634 243.838 154.011 244.292 156.463 244.847C159.201 245.464 161.932 245.132 164.312 244.066Z" fill="url(#paint0_radial_602_3296)"/>
<path d="M164.312 244.066C167.687 242.555 170.359 239.576 171.364 235.74C171.586 234.885 171.724 234.014 171.768 233.134C171.881 230.91 171.404 228.753 170.452 226.846C169.823 225.581 168.983 224.427 167.973 223.437C166.363 221.862 164.315 220.7 161.961 220.168C158.569 219.403 155.275 218.789 152.085 218.312C141.446 216.716 131.94 216.615 123.627 217.39C114.084 218.283 106.114 220.329 99.816 222.587C94.39 224.533 90.203 226.637 87.318 228.297C84.969 229.651 82.452 231.111 80.692 233.233C77.167 237.482 76.769 243.673 79.924 248.381C83.932 254.373 92.39 255.742 98.06 251.313C98.12 251.267 99.972 249.916 103.544 248.268C107.623 246.384 113.949 244.112 122.414 242.957C129.787 241.95 138.783 241.79 149.328 243.471C151.634 243.838 154.011 244.292 156.463 244.847C159.201 245.464 161.932 245.132 164.312 244.066Z" fill="url(#paint1_linear_602_3296)" fill-opacity="0.4"/>
<path d="M159.881 245.858C163.017 248.989 166.82 251.452 171.058 253.015C174.4 254.249 178.013 254.92 181.785 254.92C190.337 254.92 198.082 251.459 203.688 245.858C209.309 240.247 212.784 232.491 212.784 223.921C212.784 220.428 212.206 217.07 211.145 213.939C209.598 209.393 207.027 205.321 203.705 201.999C198.095 196.389 190.346 192.92 181.785 192.92C178.016 192.92 174.406 193.594 171.064 194.824C166.824 196.387 163.017 198.849 159.881 201.982C156.554 205.304 153.981 209.376 152.433 213.924C151.365 217.059 150.784 220.421 150.784 223.921C150.784 232.491 154.263 240.247 159.881 245.858Z" fill="url(#paint2_radial_602_3296)"/>
<path d="M600.881 256.858C604.016 259.989 607.82 262.452 612.057 264.015C615.399 265.249 619.012 265.92 622.784 265.92C631.336 265.92 639.08 262.458 644.687 256.858C650.307 251.247 653.784 243.491 653.784 234.921C653.784 231.428 653.206 228.07 652.142 224.939C650.596 220.393 648.025 216.321 644.703 212.999C639.093 207.388 631.344 203.92 622.784 203.92C619.015 203.92 615.403 204.593 612.064 205.824C607.822 207.388 604.017 209.849 600.881 212.982C597.554 216.304 594.979 220.376 593.43 224.924C592.363 228.059 591.784 231.421 591.784 234.921C591.784 243.491 595.26 251.247 600.881 256.858Z" fill="url(#paint3_radial_602_3296)"/>
<path d="M727.766 257.909C731.441 257.761 735.004 256.02 737.334 252.897C737.854 252.2 738.294 251.457 738.664 250.672C739.574 248.689 739.924 246.556 739.734 244.474C739.614 243.098 739.264 241.743 738.684 240.477C737.774 238.456 736.294 236.659 734.314 235.321C731.449 233.394 728.627 231.641 725.849 230.049C716.581 224.738 707.817 221.195 699.841 218.884C690.679 216.234 682.555 215.206 675.901 214.973C670.167 214.774 665.521 215.168 662.249 215.631C659.579 216.008 656.715 216.423 654.313 217.715C649.5 220.301 646.873 225.788 648.073 231.215C649.596 238.12 656.928 242.432 663.793 240.464C663.866 240.441 666.073 239.886 669.98 239.683C674.444 239.449 681.127 239.677 689.388 241.697C696.58 243.458 704.965 246.578 714.115 251.933C716.115 253.104 718.15 254.378 720.217 255.774C722.527 257.328 725.176 258.016 727.766 257.909Z" fill="url(#paint4_radial_602_3296)"/>
<path d="M727.766 257.909C731.441 257.761 735.004 256.02 737.334 252.897C737.854 252.2 738.294 251.457 738.664 250.672C739.574 248.689 739.924 246.556 739.734 244.474C739.614 243.098 739.264 241.743 738.684 240.477C737.774 238.456 736.294 236.659 734.314 235.321C731.449 233.394 728.627 231.641 725.849 230.049C716.581 224.738 707.817 221.195 699.841 218.884C690.679 216.234 682.555 215.206 675.901 214.973C670.167 214.774 665.521 215.168 662.249 215.631C659.579 216.008 656.715 216.423 654.313 217.715C649.5 220.301 646.873 225.788 648.073 231.215C649.596 238.12 656.928 242.432 663.793 240.464C663.866 240.441 666.073 239.886 669.98 239.683C674.444 239.449 681.127 239.677 689.388 241.697C696.58 243.458 704.965 246.578 714.115 251.933C716.115 253.104 718.15 254.378 720.217 255.774C722.527 257.328 725.176 258.016 727.766 257.909Z" fill="url(#paint5_linear_602_3296)" fill-opacity="0.4"/>
<path d="M732.981 239.312C735.774 241.71 739.564 242.865 743.394 242.173C744.254 242.017 745.084 241.775 745.884 241.449C747.904 240.622 749.614 239.297 750.894 237.65C751.744 236.561 752.414 235.327 752.854 234.008C753.564 231.907 753.714 229.588 753.174 227.257C752.394 223.895 751.524 220.688 750.584 217.629C747.424 207.424 743.434 198.856 739.174 191.726C734.284 183.539 729.039 177.247 724.332 172.539C720.274 168.482 716.608 165.602 713.899 163.709C711.688 162.164 709.311 160.514 706.673 159.821C701.39 158.43 695.726 160.651 692.903 165.438C689.307 171.527 691.729 179.681 698.092 182.924C698.161 182.957 700.153 184.056 703.149 186.572C706.573 189.445 711.306 194.17 715.97 201.282C720.029 207.474 724.033 215.474 727.074 225.631C727.737 227.851 728.357 230.172 728.917 232.602C729.546 235.314 731.014 237.624 732.981 239.312Z" fill="url(#paint6_radial_602_3296)"/>
<path d="M732.981 239.312C735.774 241.71 739.564 242.865 743.394 242.173C744.254 242.017 745.084 241.775 745.884 241.449C747.904 240.622 749.614 239.297 750.894 237.65C751.744 236.561 752.414 235.327 752.854 234.008C753.564 231.907 753.714 229.588 753.174 227.257C752.394 223.895 751.524 220.688 750.584 217.629C747.424 207.424 743.434 198.856 739.174 191.726C734.284 183.539 729.039 177.247 724.332 172.539C720.274 168.482 716.608 165.602 713.899 163.709C711.688 162.164 709.311 160.514 706.673 159.821C701.39 158.43 695.726 160.651 692.903 165.438C689.307 171.527 691.729 179.681 698.092 182.924C698.161 182.957 700.153 184.056 703.149 186.572C706.573 189.445 711.306 194.17 715.97 201.282C720.029 207.474 724.033 215.474 727.074 225.631C727.737 227.851 728.357 230.172 728.917 232.602C729.546 235.314 731.014 237.624 732.981 239.312Z" fill="url(#paint7_linear_602_3296)" fill-opacity="0.4"/>
<path d="M731.881 287.857C735.014 290.988 738.824 293.451 743.054 295.013C746.404 296.247 750.014 296.92 753.784 296.92C762.334 296.92 770.084 293.458 775.684 287.857C781.304 282.246 784.784 274.489 784.784 265.919C784.784 262.427 784.204 259.068 783.144 255.937C781.594 251.391 779.024 247.319 775.704 243.998C770.094 238.388 762.344 234.92 753.784 234.92C750.014 234.92 746.404 235.593 743.064 236.822C738.824 238.387 735.014 240.849 731.881 243.982C728.554 247.304 725.979 251.375 724.432 255.922C723.363 259.059 722.784 262.421 722.784 265.919C722.784 274.489 726.261 282.246 731.881 287.857Z" fill="url(#paint8_radial_602_3296)"/>
<path opacity="0.4" d="M348.234 274.38C323.596 279.712 285.234 304.38 260.234 295.38C235.234 286.38 229.047 276.574 227.234 274.38C211.144 254.907 221.324 233.358 234.848 213.267C248.234 193.38 295.234 193.38 305.234 156.38C315.234 119.38 319.235 104.381 336.453 95.689C353.672 86.9976 378.234 114.38 417.234 120.38C456.234 126.38 490.234 148.38 510.234 169.38C530.234 190.38 575.408 241.132 571.215 271.318C567.022 301.504 463.307 249.477 348.234 274.38Z" fill="white"/>
<path d="M465.431 255.568C469.537 259.006 475.086 260.633 480.689 259.577C481.931 259.343 483.147 258.983 484.312 258.503C487.253 257.283 489.737 255.34 491.596 252.936C492.831 251.344 493.787 249.549 494.424 247.633C495.433 244.584 495.634 241.212 494.816 237.846C493.645 232.982 492.34 228.343 490.929 223.914C486.221 209.159 480.292 196.792 473.998 186.506C466.765 174.702 459.046 165.64 452.116 158.868C446.145 153.04 440.762 148.917 436.775 146.204C433.532 143.991 430.044 141.63 426.179 140.653C418.447 138.698 410.188 141.985 406.113 148.965C400.925 157.835 404.542 169.627 413.874 174.244C413.973 174.292 416.897 175.858 421.305 179.478C426.331 183.598 433.296 190.391 440.182 200.64C446.178 209.569 452.11 221.113 456.662 235.8C457.652 239.012 458.582 242.369 459.43 245.882C460.375 249.809 462.538 253.134 465.431 255.568Z" fill="url(#paint9_radial_602_3296)"/>
<path d="M465.431 255.568C469.537 259.006 475.086 260.633 480.689 259.577C481.931 259.343 483.147 258.983 484.312 258.503C487.253 257.283 489.737 255.34 491.596 252.936C492.831 251.344 493.787 249.549 494.424 247.633C495.433 244.584 495.634 241.212 494.816 237.846C493.645 232.982 492.34 228.343 490.929 223.914C486.221 209.159 480.292 196.792 473.998 186.506C466.765 174.702 459.046 165.64 452.116 158.868C446.145 153.04 440.762 148.917 436.775 146.204C433.532 143.991 430.044 141.63 426.179 140.653C418.447 138.698 410.188 141.985 406.113 148.965C400.925 157.835 404.542 169.627 413.874 174.244C413.973 174.292 416.897 175.858 421.305 179.478C426.331 183.598 433.296 190.391 440.182 200.64C446.178 209.569 452.11 221.113 456.662 235.8C457.652 239.012 458.582 242.369 459.43 245.882C460.375 249.809 462.538 253.134 465.431 255.568Z" fill="url(#paint10_linear_602_3296)"/>
<path d="M234.493 242.634C230.937 246.623 229.186 252.111 230.146 257.737C230.361 258.984 230.697 260.211 231.16 261.389C232.338 264.364 234.257 266.907 236.654 268.837C238.239 270.12 240.035 271.132 241.961 271.829C245.027 272.934 248.434 273.239 251.854 272.533C256.795 271.515 261.513 270.363 266.019 269.093C281.031 264.859 293.654 259.334 304.18 253.374C316.257 246.529 325.571 239.108 332.55 232.407C338.56 226.631 342.838 221.386 345.655 217.491C347.957 214.324 350.409 210.915 351.47 207.086C353.599 199.428 350.433 191.08 343.452 186.79C334.581 181.327 322.585 184.566 317.739 193.737C317.685 193.835 316.047 196.706 312.301 200.99C308.035 205.875 301.031 212.615 290.533 219.167C281.387 224.869 269.597 230.428 254.656 234.505C251.386 235.389 247.975 236.211 244.405 236.948C240.417 237.766 237.01 239.819 234.493 242.634Z" fill="url(#paint11_radial_602_3296)"/>
<path d="M234.493 242.634C230.937 246.623 229.186 252.111 230.146 257.737C230.361 258.984 230.697 260.211 231.16 261.389C232.338 264.364 234.257 266.907 236.654 268.837C238.239 270.12 240.035 271.132 241.961 271.829C245.027 272.934 248.434 273.239 251.854 272.533C256.795 271.515 261.513 270.363 266.019 269.093C281.031 264.859 293.654 259.334 304.18 253.374C316.257 246.529 325.571 239.108 332.55 232.407C338.56 226.631 342.838 221.386 345.655 217.491C347.957 214.324 350.409 210.915 351.47 207.086C353.599 199.428 350.433 191.08 343.452 186.79C334.581 181.327 322.585 184.566 317.739 193.737C317.685 193.835 316.047 196.706 312.301 200.99C308.035 205.875 301.031 212.615 290.533 219.167C281.387 224.869 269.597 230.428 254.656 234.505C251.386 235.389 247.975 236.211 244.405 236.948C240.417 237.766 237.01 239.819 234.493 242.634Z" fill="url(#paint12_linear_602_3296)"/>
<path d="M374.288 248.577C377.68 252.617 382.799 255.117 388.433 254.996C389.682 254.965 390.926 254.812 392.143 254.528C395.221 253.812 397.974 252.311 400.204 250.257C401.683 248.897 402.923 247.293 403.877 245.517C405.393 242.69 406.173 239.42 405.968 235.984C405.673 231.024 405.212 226.262 404.609 221.693C402.594 206.461 398.984 193.369 394.647 182.261C389.668 169.507 383.735 159.366 378.17 151.604C373.376 144.915 368.856 139.993 365.452 136.683C362.681 133.987 359.697 131.103 356.109 129.519C348.922 126.347 340.319 128.222 335.135 134.403C328.542 142.254 330.007 154.404 338.286 160.452C338.372 160.515 340.944 162.528 344.602 166.787C348.778 171.649 354.372 179.446 359.286 190.615C363.565 200.344 367.327 212.633 369.196 227.77C369.6 231.079 369.919 234.523 370.132 238.105C370.369 242.107 371.895 245.724 374.288 248.577Z" fill="url(#paint13_radial_602_3296)"/>
<path d="M374.288 248.577C377.68 252.617 382.799 255.117 388.433 254.996C389.682 254.965 390.926 254.812 392.143 254.528C395.221 253.812 397.974 252.311 400.204 250.257C401.683 248.897 402.923 247.293 403.877 245.517C405.393 242.69 406.173 239.42 405.968 235.984C405.673 231.024 405.212 226.262 404.609 221.693C402.594 206.461 398.984 193.369 394.647 182.261C389.668 169.507 383.735 159.366 378.17 151.604C373.376 144.915 368.856 139.993 365.452 136.683C362.681 133.987 359.697 131.103 356.109 129.519C348.922 126.347 340.319 128.222 335.135 134.403C328.542 142.254 330.007 154.404 338.286 160.452C338.372 160.515 340.944 162.528 344.602 166.787C348.778 171.649 354.372 179.446 359.286 190.615C363.565 200.344 367.327 212.633 369.196 227.77C369.6 231.079 369.919 234.523 370.132 238.105C370.369 242.107 371.895 245.724 374.288 248.577Z" fill="url(#paint14_linear_602_3296)"/>
<path d="M517.572 265.238C522.842 265.704 528.248 263.841 532.163 259.748C533.028 258.839 533.802 257.844 534.466 256.776C536.145 254.076 537.036 251.049 537.164 248C537.249 245.981 536.995 243.955 536.412 242.01C535.485 238.918 533.724 236.037 531.144 233.734C527.421 230.411 523.721 227.346 520.052 224.522C507.831 215.106 495.991 208.35 485.044 203.522C472.471 197.978 461.077 194.977 451.625 193.405C443.482 192.051 436.785 191.76 432.025 191.823C428.146 191.873 423.983 191.947 420.315 193.368C412.962 196.219 408.185 203.675 408.879 211.766C409.762 222.045 419.411 229.658 429.573 228.078C429.679 228.065 432.931 227.664 438.546 228.096C444.958 228.588 454.454 230.163 465.854 234.626C475.783 238.51 487.164 244.588 499.214 254.042C501.849 256.109 504.513 258.336 507.202 260.734C510.206 263.418 513.851 264.907 517.572 265.238Z" fill="url(#paint15_radial_602_3296)"/>
<path d="M517.572 265.238C522.842 265.704 528.248 263.841 532.163 259.748C533.028 258.839 533.802 257.844 534.466 256.776C536.145 254.076 537.036 251.049 537.164 248C537.249 245.981 536.995 243.955 536.412 242.01C535.485 238.918 533.724 236.037 531.144 233.734C527.421 230.411 523.721 227.346 520.052 224.522C507.831 215.106 495.991 208.35 485.044 203.522C472.471 197.978 461.077 194.977 451.625 193.405C443.482 192.051 436.785 191.76 432.025 191.823C428.146 191.873 423.983 191.947 420.315 193.368C412.962 196.219 408.185 203.675 408.879 211.766C409.762 222.045 419.411 229.658 429.573 228.078C429.679 228.065 432.931 227.664 438.546 228.096C444.958 228.588 454.454 230.163 465.854 234.626C475.783 238.51 487.164 244.588 499.214 254.042C501.849 256.109 504.513 258.336 507.202 260.734C510.206 263.418 513.851 264.907 517.572 265.238Z" fill="url(#paint16_linear_602_3296)"/>
<path d="M243.467 222.538C243.973 223.043 244.586 223.441 245.27 223.693C245.809 223.892 246.392 224 247 224C248.38 224 249.629 223.442 250.533 222.538C251.44 221.633 252 220.382 252 219C252 218.437 251.907 217.895 251.736 217.39C251.486 216.657 251.072 216 250.536 215.464C249.631 214.56 248.381 214 247 214C246.392 214 245.81 214.109 245.271 214.307C244.587 214.559 243.973 214.956 243.467 215.462C242.931 215.997 242.516 216.654 242.266 217.388C242.094 217.893 242 218.436 242 219C242 220.382 242.561 221.633 243.467 222.538Z" fill="url(#paint17_radial_602_3296)"/>
<path d="M263.467 212.538C263.973 213.043 264.586 213.441 265.27 213.693C265.809 213.892 266.392 214 267 214C268.38 214 269.629 213.442 270.533 212.538C271.44 211.633 272 210.382 272 209C272 208.437 271.907 207.895 271.736 207.39C271.486 206.657 271.072 206 270.536 205.464C269.631 204.56 268.381 204 267 204C266.392 204 265.81 204.109 265.271 204.307C264.587 204.559 263.973 204.956 263.467 205.462C262.931 205.997 262.516 206.654 262.266 207.388C262.094 207.893 262 208.436 262 209C262 210.382 262.561 211.633 263.467 212.538Z" fill="url(#paint18_radial_602_3296)"/>
<path d="M283.467 209.538C283.973 210.043 284.586 210.441 285.27 210.693C285.809 210.892 286.392 211 287 211C288.38 211 289.629 210.442 290.533 209.538C291.44 208.633 292 207.382 292 206C292 205.437 291.907 204.895 291.736 204.39C291.486 203.657 291.072 203 290.536 202.464C289.631 201.56 288.381 201 287 201C286.392 201 285.81 201.109 285.271 201.307C284.587 201.559 283.973 201.956 283.467 202.462C282.931 202.997 282.516 203.654 282.266 204.388C282.094 204.893 282 205.436 282 206C282 207.382 282.561 208.633 283.467 209.538Z" fill="url(#paint19_radial_602_3296)"/>
<path d="M303.467 189.538C303.973 190.043 304.586 190.441 305.27 190.693C305.809 190.892 306.392 191 307 191C308.38 191 309.629 190.442 310.533 189.538C311.44 188.633 312 187.382 312 186C312 185.437 311.907 184.895 311.736 184.39C311.486 183.657 311.072 183 310.536 182.464C309.631 181.56 308.381 181 307 181C306.392 181 305.81 181.109 305.271 181.307C304.587 181.559 303.973 181.956 303.467 182.462C302.931 182.997 302.516 183.654 302.266 184.388C302.094 184.893 302 185.436 302 186C302 187.382 302.561 188.633 303.467 189.538Z" fill="url(#paint20_radial_602_3296)"/>
<path d="M263.467 280.538C263.973 281.043 264.586 281.441 265.27 281.693C265.809 281.892 266.392 282 267 282C268.38 282 269.629 281.442 270.533 280.538C271.44 279.633 272 278.382 272 277C272 276.437 271.907 275.895 271.736 275.39C271.486 274.657 271.072 274 270.536 273.464C269.631 272.56 268.381 272 267 272C266.392 272 265.81 272.109 265.271 272.307C264.587 272.559 263.973 272.956 263.467 273.462C262.931 273.997 262.516 274.654 262.266 275.388C262.094 275.893 262 276.436 262 277C262 278.382 262.561 279.633 263.467 280.538Z" fill="url(#paint21_radial_602_3296)"/>
<path d="M345.683 245.618C346.189 246.123 346.802 246.521 347.486 246.773C348.025 246.972 348.608 247.08 349.216 247.08C350.596 247.08 351.845 246.522 352.749 245.618C353.656 244.713 354.216 243.462 354.216 242.08C354.216 241.517 354.123 240.975 353.952 240.47C353.702 239.737 353.288 239.08 352.752 238.544C351.847 237.64 350.597 237.08 349.216 237.08C348.608 237.08 348.026 237.189 347.487 237.387C346.803 237.639 346.189 238.036 345.683 238.542C345.147 239.077 344.732 239.734 344.482 240.468C344.31 240.973 344.216 241.516 344.216 242.08C344.216 243.462 344.777 244.713 345.683 245.618Z" fill="url(#paint22_radial_602_3296)"/>
<path d="M298.683 275.618C299.189 276.123 299.802 276.521 300.486 276.773C301.025 276.972 301.608 277.08 302.216 277.08C303.596 277.08 304.845 276.522 305.749 275.618C306.656 274.713 307.216 273.462 307.216 272.08C307.216 271.517 307.123 270.975 306.952 270.47C306.702 269.737 306.288 269.08 305.752 268.544C304.847 267.64 303.597 267.08 302.216 267.08C301.608 267.08 301.026 267.189 300.487 267.387C299.803 267.639 299.189 268.036 298.683 268.542C298.147 269.077 297.732 269.734 297.482 270.468C297.31 270.973 297.216 271.516 297.216 272.08C297.216 273.462 297.777 274.713 298.683 275.618Z" fill="url(#paint23_radial_602_3296)"/>
<path d="M325.683 263.618C326.189 264.123 326.802 264.521 327.486 264.773C328.025 264.972 328.608 265.08 329.216 265.08C330.596 265.08 331.845 264.522 332.749 263.618C333.656 262.713 334.216 261.462 334.216 260.08C334.216 259.517 334.123 258.975 333.952 258.47C333.702 257.737 333.288 257.08 332.752 256.544C331.847 255.64 330.597 255.08 329.216 255.08C328.608 255.08 328.026 255.189 327.487 255.387C326.803 255.639 326.189 256.036 325.683 256.542C325.147 257.077 324.732 257.734 324.482 258.468C324.31 258.973 324.216 259.516 324.216 260.08C324.216 261.462 324.777 262.713 325.683 263.618Z" fill="url(#paint24_radial_602_3296)"/>
<path d="M358.683 227.618C359.189 228.123 359.802 228.521 360.486 228.773C361.025 228.972 361.608 229.08 362.216 229.08C363.596 229.08 364.845 228.522 365.749 227.618C366.656 226.713 367.216 225.462 367.216 224.08C367.216 223.517 367.123 222.975 366.952 222.47C366.702 221.737 366.288 221.08 365.752 220.544C364.847 219.64 363.597 219.08 362.216 219.08C361.608 219.08 361.026 219.189 360.487 219.387C359.803 219.639 359.189 220.036 358.683 220.542C358.147 221.077 357.732 221.734 357.482 222.468C357.31 222.973 357.216 223.516 357.216 224.08C357.216 225.462 357.777 226.713 358.683 227.618Z" fill="url(#paint25_radial_602_3296)"/>
<path d="M313.683 165.618C314.189 166.123 314.802 166.521 315.486 166.773C316.025 166.972 316.608 167.08 317.216 167.08C318.596 167.08 319.845 166.522 320.749 165.618C321.656 164.713 322.216 163.462 322.216 162.08C322.216 161.517 322.123 160.975 321.952 160.47C321.702 159.737 321.288 159.08 320.752 158.544C319.847 157.64 318.597 157.08 317.216 157.08C316.608 157.08 316.026 157.189 315.487 157.387C314.803 157.639 314.189 158.036 313.683 158.542C313.147 159.077 312.732 159.734 312.482 160.468C312.31 160.973 312.216 161.516 312.216 162.08C312.216 163.462 312.777 164.713 313.683 165.618Z" fill="url(#paint26_radial_602_3296)"/>
<path d="M315.467 143.538C315.973 144.043 316.586 144.441 317.27 144.693C317.809 144.892 318.392 145 319 145C320.38 145 321.629 144.442 322.533 143.538C323.44 142.633 324 141.382 324 140C324 139.437 323.907 138.895 323.736 138.39C323.486 137.657 323.072 137 322.536 136.464C321.631 135.56 320.381 135 319 135C318.392 135 317.81 135.109 317.271 135.307C316.587 135.559 315.973 135.956 315.467 136.462C314.931 136.997 314.516 137.654 314.266 138.388C314.094 138.893 314 139.436 314 140C314 141.382 314.561 142.633 315.467 143.538Z" fill="url(#paint27_radial_602_3296)"/>
<path d="M325.467 116.538C325.973 117.043 326.586 117.441 327.27 117.693C327.809 117.892 328.392 118 329 118C330.38 118 331.629 117.442 332.533 116.538C333.44 115.633 334 114.382 334 113C334 112.437 333.907 111.895 333.736 111.39C333.486 110.657 333.072 110 332.536 109.464C331.631 108.56 330.381 108 329 108C328.392 108 327.81 108.109 327.271 108.307C326.587 108.559 325.973 108.956 325.467 109.462C324.931 109.998 324.516 110.654 324.266 111.388C324.094 111.893 324 112.436 324 113C324 114.382 324.561 115.633 325.467 116.538Z" fill="url(#paint28_radial_602_3296)"/>
<path d="M353.467 112.538C353.973 113.043 354.586 113.441 355.27 113.693C355.809 113.892 356.392 114 357 114C358.38 114 359.629 113.442 360.533 112.538C361.44 111.633 362 110.382 362 109C362 108.437 361.907 107.895 361.736 107.39C361.486 106.657 361.072 106 360.536 105.464C359.631 104.56 358.381 104 357 104C356.392 104 355.81 104.109 355.271 104.307C354.587 104.559 353.973 104.956 353.467 105.462C352.931 105.998 352.516 106.654 352.266 107.388C352.094 107.893 352 108.436 352 109C352 110.382 352.561 111.633 353.467 112.538Z" fill="url(#paint29_radial_602_3296)"/>
<path d="M371.467 127.538C371.973 128.043 372.586 128.441 373.27 128.693C373.809 128.892 374.392 129 375 129C376.38 129 377.629 128.442 378.533 127.538C379.44 126.633 380 125.382 380 124C380 123.437 379.907 122.895 379.736 122.39C379.486 121.657 379.072 121 378.536 120.464C377.631 119.56 376.381 119 375 119C374.392 119 373.81 119.109 373.271 119.307C372.587 119.559 371.973 119.956 371.467 120.462C370.931 120.997 370.516 121.654 370.266 122.388C370.094 122.893 370 123.436 370 124C370 125.382 370.561 126.633 371.467 127.538Z" fill="url(#paint30_radial_602_3296)"/>
<path d="M381.467 147.538C381.973 148.043 382.586 148.441 383.27 148.693C383.809 148.892 384.392 149 385 149C386.38 149 387.629 148.442 388.533 147.538C389.44 146.633 390 145.382 390 144C390 143.437 389.907 142.895 389.736 142.39C389.486 141.657 389.072 141 388.536 140.464C387.631 139.56 386.381 139 385 139C384.392 139 383.81 139.109 383.271 139.307C382.587 139.559 381.973 139.956 381.467 140.462C380.931 140.997 380.516 141.654 380.266 142.388C380.094 142.893 380 143.436 380 144C380 145.382 380.561 146.633 381.467 147.538Z" fill="url(#paint31_radial_602_3296)"/>
<path d="M409.683 133.618C410.189 134.123 410.802 134.521 411.486 134.773C412.025 134.972 412.608 135.08 413.216 135.08C414.596 135.08 415.845 134.522 416.749 133.618C417.656 132.713 418.216 131.462 418.216 130.08C418.216 129.517 418.123 128.975 417.952 128.47C417.702 127.737 417.288 127.08 416.752 126.544C415.847 125.64 414.597 125.08 413.216 125.08C412.608 125.08 412.026 125.189 411.487 125.387C410.803 125.639 410.189 126.036 409.683 126.542C409.147 127.077 408.732 127.734 408.482 128.468C408.31 128.973 408.216 129.516 408.216 130.08C408.216 131.462 408.777 132.713 409.683 133.618Z" fill="url(#paint32_radial_602_3296)"/>
<path d="M397.683 165.618C398.189 166.123 398.802 166.521 399.486 166.773C400.025 166.972 400.608 167.08 401.216 167.08C402.596 167.08 403.845 166.522 404.749 165.618C405.656 164.713 406.216 163.462 406.216 162.08C406.216 161.517 406.123 160.975 405.952 160.47C405.702 159.737 405.288 159.08 404.752 158.544C403.847 157.64 402.597 157.08 401.216 157.08C400.608 157.08 400.026 157.189 399.487 157.387C398.803 157.639 398.189 158.036 397.683 158.542C397.147 159.077 396.732 159.734 396.482 160.468C396.31 160.973 396.216 161.516 396.216 162.08C396.216 163.462 396.777 164.713 397.683 165.618Z" fill="url(#paint33_radial_602_3296)"/>
<path d="M456.683 153.618C457.189 154.123 457.802 154.521 458.486 154.773C459.025 154.972 459.608 155.08 460.216 155.08C461.596 155.08 462.845 154.522 463.749 153.618C464.656 152.713 465.216 151.462 465.216 150.08C465.216 149.517 465.123 148.975 464.952 148.47C464.702 147.737 464.288 147.08 463.752 146.544C462.847 145.64 461.597 145.08 460.216 145.08C459.608 145.08 459.026 145.189 458.487 145.387C457.803 145.639 457.189 146.036 456.683 146.542C456.147 147.077 455.732 147.734 455.482 148.468C455.31 148.973 455.216 149.516 455.216 150.08C455.216 151.462 455.777 152.713 456.683 153.618Z" fill="url(#paint34_radial_602_3296)"/>
<path d="M432.683 142.618C433.189 143.123 433.802 143.521 434.486 143.773C435.025 143.972 435.608 144.08 436.216 144.08C437.596 144.08 438.845 143.522 439.749 142.618C440.656 141.713 441.216 140.462 441.216 139.08C441.216 138.517 441.123 137.975 440.952 137.47C440.702 136.737 440.288 136.08 439.752 135.544C438.847 134.64 437.597 134.08 436.216 134.08C435.608 134.08 435.026 134.189 434.487 134.387C433.803 134.639 433.189 135.036 432.683 135.542C432.147 136.077 431.732 136.734 431.482 137.468C431.31 137.973 431.216 138.516 431.216 139.08C431.216 140.462 431.777 141.713 432.683 142.618Z" fill="url(#paint35_radial_602_3296)"/>
<path d="M474.467 175.538C474.973 176.043 475.586 176.441 476.27 176.693C476.809 176.892 477.392 177 478 177C479.38 177 480.629 176.442 481.533 175.538C482.44 174.633 483 173.382 483 172C483 171.437 482.907 170.895 482.736 170.39C482.486 169.657 482.072 169 481.536 168.464C480.631 167.56 479.381 167 478 167C477.392 167 476.81 167.109 476.271 167.307C475.587 167.559 474.973 167.956 474.467 168.462C473.931 168.997 473.516 169.654 473.266 170.388C473.094 170.893 473 171.436 473 172C473 173.382 473.561 174.633 474.467 175.538Z" fill="url(#paint36_radial_602_3296)"/>
<path d="M494.467 185.538C494.973 186.043 495.586 186.441 496.27 186.693C496.809 186.892 497.392 187 498 187C499.38 187 500.629 186.442 501.533 185.538C502.44 184.633 503 183.382 503 182C503 181.437 502.907 180.895 502.736 180.39C502.486 179.657 502.072 179 501.536 178.464C500.631 177.56 499.381 177 498 177C497.392 177 496.81 177.109 496.271 177.307C495.587 177.559 494.973 177.956 494.467 178.462C493.931 178.997 493.516 179.654 493.266 180.388C493.094 180.893 493 181.436 493 182C493 183.382 493.561 184.633 494.467 185.538Z" fill="url(#paint37_radial_602_3296)"/>
<path d="M506.467 206.538C506.973 207.043 507.586 207.441 508.27 207.693C508.809 207.892 509.392 208 510 208C511.38 208 512.629 207.442 513.533 206.538C514.44 205.633 515 204.382 515 203C515 202.437 514.907 201.895 514.736 201.39C514.486 200.657 514.072 200 513.536 199.464C512.631 198.56 511.381 198 510 198C509.392 198 508.81 198.109 508.271 198.307C507.587 198.559 506.973 198.956 506.467 199.462C505.931 199.997 505.516 200.654 505.266 201.388C505.094 201.893 505 202.436 505 203C505 204.382 505.561 205.633 506.467 206.538Z" fill="url(#paint38_radial_602_3296)"/>
<path d="M524.467 226.538C524.973 227.043 525.586 227.441 526.27 227.693C526.809 227.892 527.392 228 528 228C529.38 228 530.629 227.442 531.533 226.538C532.44 225.633 533 224.382 533 223C533 222.437 532.907 221.895 532.736 221.39C532.486 220.657 532.072 220 531.536 219.464C530.631 218.56 529.381 218 528 218C527.392 218 526.81 218.109 526.271 218.307C525.587 218.559 524.973 218.956 524.467 219.462C523.931 219.997 523.516 220.654 523.266 221.388C523.094 221.893 523 222.436 523 223C523 224.382 523.561 225.633 524.467 226.538Z" fill="url(#paint39_radial_602_3296)"/>
<path d="M540.467 230.538C540.973 231.043 541.586 231.441 542.27 231.693C542.809 231.892 543.392 232 544 232C545.38 232 546.629 231.442 547.533 230.538C548.44 229.633 549 228.382 549 227C549 226.437 548.907 225.895 548.736 225.39C548.486 224.657 548.072 224 547.536 223.464C546.631 222.56 545.381 222 544 222C543.392 222 542.81 222.109 542.271 222.307C541.587 222.559 540.973 222.956 540.467 223.462C539.931 223.997 539.516 224.654 539.266 225.388C539.094 225.893 539 226.436 539 227C539 228.382 539.561 229.633 540.467 230.538Z" fill="url(#paint40_radial_602_3296)"/>
<path d="M550.467 250.538C550.973 251.043 551.586 251.441 552.27 251.693C552.809 251.892 553.392 252 554 252C555.38 252 556.629 251.442 557.533 250.538C558.44 249.633 559 248.382 559 247C559 246.437 558.907 245.895 558.736 245.39C558.486 244.657 558.072 244 557.536 243.464C556.631 242.56 555.381 242 554 242C553.392 242 552.81 242.109 552.271 242.307C551.587 242.559 550.973 242.956 550.467 243.462C549.931 243.997 549.516 244.654 549.266 245.388C549.094 245.893 549 246.436 549 247C549 248.382 549.561 249.633 550.467 250.538Z" fill="url(#paint41_radial_602_3296)"/>
<path d="M540.467 270.538C540.973 271.043 541.586 271.441 542.27 271.693C542.809 271.892 543.392 272 544 272C545.38 272 546.629 271.442 547.533 270.538C548.44 269.633 549 268.382 549 267C549 266.437 548.907 265.895 548.736 265.39C548.486 264.657 548.072 264 547.536 263.464C546.631 262.56 545.381 262 544 262C543.392 262 542.81 262.109 542.271 262.307C541.587 262.559 540.973 262.956 540.467 263.462C539.931 263.997 539.516 264.654 539.266 265.388C539.094 265.893 539 266.436 539 267C539 268.382 539.561 269.633 540.467 270.538Z" fill="url(#paint42_radial_602_3296)"/>
<path d="M414.683 250.618C415.189 251.123 415.802 251.521 416.486 251.773C417.025 251.972 417.608 252.08 418.216 252.08C419.596 252.08 420.845 251.522 421.749 250.618C422.656 249.713 423.216 248.462 423.216 247.08C423.216 246.517 423.123 245.975 422.952 245.47C422.702 244.737 422.288 244.08 421.752 243.544C420.847 242.64 419.597 242.08 418.216 242.08C417.608 242.08 417.026 242.189 416.487 242.387C415.803 242.639 415.189 243.036 414.683 243.542C414.147 244.077 413.732 244.734 413.482 245.468C413.31 245.973 413.216 246.516 413.216 247.08C413.216 248.462 413.777 249.713 414.683 250.618Z" fill="url(#paint43_radial_602_3296)"/>
<path d="M434.683 255.618C435.189 256.123 435.802 256.521 436.486 256.773C437.025 256.972 437.608 257.08 438.216 257.08C439.596 257.08 440.845 256.522 441.749 255.618C442.656 254.713 443.216 253.462 443.216 252.08C443.216 251.517 443.123 250.975 442.952 250.47C442.702 249.737 442.288 249.08 441.752 248.544C440.847 247.64 439.597 247.08 438.216 247.08C437.608 247.08 437.026 247.189 436.487 247.387C435.803 247.639 435.189 248.036 434.683 248.542C434.147 249.077 433.732 249.734 433.482 250.468C433.31 250.973 433.216 251.516 433.216 252.08C433.216 253.462 433.777 254.713 434.683 255.618Z" fill="url(#paint44_radial_602_3296)"/>
<path d="M404.467 185.538C404.973 186.043 405.586 186.441 406.27 186.693C406.809 186.892 407.392 187 408 187C409.38 187 410.629 186.442 411.533 185.538C412.44 184.633 413 183.382 413 182C413 181.437 412.907 180.895 412.736 180.39C412.486 179.657 412.072 179 411.536 178.464C410.631 177.56 409.381 177 408 177C407.392 177 406.81 177.109 406.271 177.307C405.587 177.559 404.973 177.956 404.467 178.462C403.931 178.997 403.516 179.654 403.266 180.388C403.094 180.893 403 181.436 403 182C403 183.382 403.561 184.633 404.467 185.538Z" fill="url(#paint45_radial_602_3296)"/>
<path opacity="0.2" fill-rule="evenodd" clip-rule="evenodd" d="M323 15.5C310.021 15.5 299.5 26.0213 299.5 39V167C299.5 167.276 299.276 167.5 299 167.5C298.724 167.5 298.5 167.276 298.5 167V39C298.5 25.469 309.469 14.5 323 14.5H336C336.276 14.5 336.5 14.7239 336.5 15C336.5 15.2761 336.276 15.5 336 15.5H323Z" fill="black"/>
<path opacity="0.2" fill-rule="evenodd" clip-rule="evenodd" d="M243 15.5C255.979 15.5 266.5 26.0213 266.5 39V202C266.5 202.276 266.724 202.5 267 202.5C267.276 202.5 267.5 202.276 267.5 202V39C267.5 25.469 256.531 14.5 243 14.5H159C158.724 14.5 158.5 14.7239 158.5 15C158.5 15.2761 158.724 15.5 159 15.5H243Z" fill="black"/>
<path d="M54.4382 8.90909H56.8352L61.0028 19.0852H61.1562L65.3239 8.90909H67.7209V22H65.8416V12.527H65.7202L61.8594 21.9808H60.2997L56.4389 12.5206H56.3175V22H54.4382V8.90909ZM74.5748 22.1982C73.6543 22.1982 72.851 21.9872 72.165 21.5653C71.4789 21.1435 70.9462 20.5533 70.5669 19.7947C70.1877 19.0362 69.998 18.1499 69.998 17.1357C69.998 16.1172 70.1877 15.2266 70.5669 14.4638C70.9462 13.701 71.4789 13.1087 72.165 12.6868C72.851 12.2649 73.6543 12.054 74.5748 12.054C75.4952 12.054 76.2985 12.2649 76.9846 12.6868C77.6706 13.1087 78.2033 13.701 78.5826 14.4638C78.9618 15.2266 79.1515 16.1172 79.1515 17.1357C79.1515 18.1499 78.9618 19.0362 78.5826 19.7947C78.2033 20.5533 77.6706 21.1435 76.9846 21.5653C76.2985 21.9872 75.4952 22.1982 74.5748 22.1982ZM74.5811 20.5938C75.1777 20.5938 75.6721 20.4361 76.0641 20.1207C76.4561 19.8054 76.7459 19.3857 76.9334 18.8615C77.1252 18.3374 77.2211 17.7599 77.2211 17.1293C77.2211 16.5028 77.1252 15.9276 76.9334 15.4034C76.7459 14.875 76.4561 14.451 76.0641 14.1314C75.6721 13.8118 75.1777 13.652 74.5811 13.652C73.9803 13.652 73.4817 13.8118 73.0854 14.1314C72.6934 14.451 72.4015 14.875 72.2097 15.4034C72.0222 15.9276 71.9284 16.5028 71.9284 17.1293C71.9284 17.7599 72.0222 18.3374 72.2097 18.8615C72.4015 19.3857 72.6934 19.8054 73.0854 20.1207C73.4817 20.4361 73.9803 20.5938 74.5811 20.5938ZM80.5114 22L80.505 20.3445H80.8565C81.1293 20.3445 81.3572 20.2869 81.5405 20.1719C81.728 20.0526 81.8814 19.8523 82.0007 19.571C82.12 19.2898 82.2116 18.902 82.2756 18.4077C82.3395 17.9091 82.3864 17.2827 82.4162 16.5284L82.5888 12.1818H89.4411V22H87.5682V13.831H84.3594L84.206 17.1676C84.1676 17.9773 84.0845 18.6847 83.9567 19.2898C83.8331 19.8949 83.652 20.3999 83.4134 20.8047C83.1747 21.2053 82.8679 21.5057 82.4929 21.706C82.1179 21.902 81.6619 22 81.125 22H80.5114ZM96.1255 22.1982C95.2051 22.1982 94.4018 21.9872 93.7157 21.5653C93.0297 21.1435 92.497 20.5533 92.1177 19.7947C91.7385 19.0362 91.5488 18.1499 91.5488 17.1357C91.5488 16.1172 91.7385 15.2266 92.1177 14.4638C92.497 13.701 93.0297 13.1087 93.7157 12.6868C94.4018 12.2649 95.2051 12.054 96.1255 12.054C97.046 12.054 97.8493 12.2649 98.5353 12.6868C99.2214 13.1087 99.7541 13.701 100.133 14.4638C100.513 15.2266 100.702 16.1172 100.702 17.1357C100.702 18.1499 100.513 19.0362 100.133 19.7947C99.7541 20.5533 99.2214 21.1435 98.5353 21.5653C97.8493 21.9872 97.046 22.1982 96.1255 22.1982ZM96.1319 20.5938C96.7285 20.5938 97.2228 20.4361 97.6149 20.1207C98.0069 19.8054 98.2967 19.3857 98.4842 18.8615C98.676 18.3374 98.7718 17.7599 98.7718 17.1293C98.7718 16.5028 98.676 15.9276 98.4842 15.4034C98.2967 14.875 98.0069 14.451 97.6149 14.1314C97.2228 13.8118 96.7285 13.652 96.1319 13.652C95.5311 13.652 95.0325 13.8118 94.6362 14.1314C94.2441 14.451 93.9522 14.875 93.7605 15.4034C93.573 15.9276 93.4792 16.5028 93.4792 17.1293C93.4792 17.7599 93.573 18.3374 93.7605 18.8615C93.9522 19.3857 94.2441 19.8054 94.6362 20.1207C95.0325 20.4361 95.5311 20.5938 96.1319 20.5938ZM110.717 12.1818V22H108.85V12.1818H110.717ZM109.905 16.7393V18.3885C109.611 18.5078 109.3 18.6143 108.972 18.7081C108.644 18.7976 108.299 18.8679 107.936 18.919C107.574 18.9702 107.197 18.9957 106.805 18.9957C105.591 18.9957 104.625 18.6996 103.909 18.1072C103.194 17.5107 102.836 16.5987 102.836 15.3714V12.1626H104.696V15.3714C104.696 15.8359 104.781 16.2131 104.951 16.5028C105.122 16.7926 105.365 17.0057 105.68 17.142C105.995 17.2784 106.37 17.3466 106.805 17.3466C107.38 17.3466 107.911 17.2933 108.397 17.1868C108.887 17.076 109.39 16.9268 109.905 16.7393ZM119.914 16.2663V17.9219H114.595V16.2663H119.914ZM115.132 12.1818V22H113.259V12.1818H115.132ZM121.249 12.1818V22H119.383V12.1818H121.249ZM126.664 22.2173C126.041 22.2173 125.479 22.1023 124.976 21.8722C124.473 21.6378 124.075 21.299 123.781 20.8558C123.491 20.4126 123.346 19.8693 123.346 19.2259C123.346 18.6719 123.453 18.2159 123.666 17.858C123.879 17.5 124.166 17.2166 124.529 17.0078C124.891 16.799 125.296 16.6413 125.743 16.5348C126.191 16.4283 126.646 16.3473 127.111 16.2919C127.699 16.2237 128.176 16.1683 128.543 16.1257C128.909 16.0788 129.176 16.0043 129.342 15.902C129.508 15.7997 129.591 15.6335 129.591 15.4034V15.3587C129.591 14.8004 129.433 14.3679 129.118 14.0611C128.807 13.7543 128.343 13.6009 127.725 13.6009C127.081 13.6009 126.574 13.7436 126.203 14.0291C125.837 14.3104 125.583 14.6236 125.443 14.9688L123.646 14.5597C123.86 13.9631 124.171 13.4815 124.58 13.1151C124.993 12.7443 125.468 12.4759 126.005 12.3097C126.542 12.1392 127.107 12.054 127.699 12.054C128.091 12.054 128.507 12.1009 128.945 12.1946C129.389 12.2841 129.802 12.4503 130.186 12.6932C130.573 12.9361 130.891 13.2834 131.138 13.7351C131.385 14.1825 131.509 14.7642 131.509 15.4801V22H129.642V20.6577H129.566C129.442 20.9048 129.257 21.1477 129.009 21.3864C128.762 21.625 128.445 21.8232 128.057 21.9808C127.669 22.1385 127.205 22.2173 126.664 22.2173ZM127.079 20.6832C127.607 20.6832 128.059 20.5788 128.434 20.37C128.813 20.1612 129.101 19.8885 129.297 19.5518C129.497 19.2109 129.597 18.8466 129.597 18.4588V17.1932C129.529 17.2614 129.397 17.3253 129.201 17.3849C129.009 17.4403 128.79 17.4893 128.543 17.532C128.296 17.5703 128.055 17.6065 127.82 17.6406C127.586 17.6705 127.39 17.696 127.232 17.7173C126.862 17.7642 126.523 17.843 126.216 17.9538C125.914 18.0646 125.671 18.2244 125.487 18.4332C125.308 18.6378 125.219 18.9105 125.219 19.2514C125.219 19.7244 125.394 20.0824 125.743 20.3253C126.093 20.5639 126.538 20.6832 127.079 20.6832ZM139.909 22V13.8118H137.557C136.999 13.8118 136.564 13.9418 136.253 14.2017C135.942 14.4616 135.787 14.8026 135.787 15.2244C135.787 15.642 135.929 15.9787 136.215 16.2344C136.505 16.4858 136.909 16.6115 137.429 16.6115H140.466V18.1584H137.429C136.705 18.1584 136.078 18.0391 135.55 17.8004C135.026 17.5575 134.621 17.2145 134.336 16.7713C134.054 16.3281 133.914 15.804 133.914 15.1989C133.914 14.581 134.059 14.0483 134.348 13.6009C134.642 13.1491 135.062 12.7997 135.608 12.5526C136.157 12.3054 136.807 12.1818 137.557 12.1818H141.706V22H139.909ZM133.466 22L136.234 17.0398H138.19L135.422 22H133.466ZM54.2848 50V40.1818H56.196V44.2983H57.1165L60.3572 40.1818H62.7223L58.919 44.9567L62.767 50H60.3956L57.4361 46.0753H56.196V50H54.2848ZM66.1245 47.3217L70.4519 40.1818H72.5101V50H70.6373V42.8537L66.329 50H64.2516V40.1818H66.1245V47.3217ZM79.2154 50.1982C78.2651 50.1982 77.4469 49.983 76.7608 49.5526C76.079 49.1179 75.5549 48.5192 75.1884 47.7564C74.8219 46.9936 74.6387 46.12 74.6387 45.1357C74.6387 44.1385 74.8262 43.2585 75.2012 42.4957C75.5762 41.7287 76.1046 41.13 76.7864 40.6996C77.4682 40.2692 78.2715 40.054 79.1962 40.054C79.9419 40.054 80.6067 40.1925 81.1905 40.4695C81.7743 40.7422 82.2452 41.1257 82.6032 41.62C82.9654 42.1143 83.1806 42.6918 83.2488 43.3523H81.3887C81.2864 42.892 81.052 42.4957 80.6855 42.1634C80.3233 41.831 79.8375 41.6648 79.2282 41.6648C78.6955 41.6648 78.2289 41.8054 77.8283 42.0866C77.432 42.3636 77.123 42.7599 76.9015 43.2756C76.6799 43.7869 76.5691 44.392 76.5691 45.0909C76.5691 45.8068 76.6777 46.4247 76.8951 46.9446C77.1124 47.4645 77.4192 47.8672 77.8155 48.1527C78.2161 48.4382 78.687 48.581 79.2282 48.581C79.5904 48.581 79.9185 48.5149 80.2125 48.3828C80.5108 48.2464 80.7601 48.0526 80.9604 47.8011C81.165 47.5497 81.3077 47.2472 81.3887 46.8935H83.2488C83.1806 47.5284 82.9739 48.0952 82.6287 48.5938C82.2836 49.0923 81.8212 49.4844 81.2417 49.7699C80.6664 50.0554 79.9909 50.1982 79.2154 50.1982ZM84.5192 50L84.5128 48.3445H84.8643C85.1371 48.3445 85.3651 48.2869 85.5483 48.1719C85.7358 48.0526 85.8892 47.8523 86.0085 47.571C86.1278 47.2898 86.2195 46.902 86.2834 46.4077C86.3473 45.9091 86.3942 45.2827 86.424 44.5284L86.5966 40.1818H93.4489V50H91.576V41.831H88.3672L88.2138 45.1676C88.1754 45.9773 88.0923 46.6847 87.9645 47.2898C87.8409 47.8949 87.6598 48.3999 87.4212 48.8047C87.1825 49.2053 86.8757 49.5057 86.5007 49.706C86.1257 49.902 85.6697 50 85.1328 50H84.5192ZM100.133 50.1982C99.2129 50.1982 98.4096 49.9872 97.7235 49.5653C97.0375 49.1435 96.5048 48.5533 96.1255 47.7947C95.7463 47.0362 95.5566 46.1499 95.5566 45.1357C95.5566 44.1172 95.7463 43.2266 96.1255 42.4638C96.5048 41.701 97.0375 41.1087 97.7235 40.6868C98.4096 40.2649 99.2129 40.054 100.133 40.054C101.054 40.054 101.857 40.2649 102.543 40.6868C103.229 41.1087 103.762 41.701 104.141 42.4638C104.52 43.2266 104.71 44.1172 104.71 45.1357C104.71 46.1499 104.52 47.0362 104.141 47.7947C103.762 48.5533 103.229 49.1435 102.543 49.5653C101.857 49.9872 101.054 50.1982 100.133 50.1982ZM100.14 48.5938C100.736 48.5938 101.231 48.4361 101.623 48.1207C102.015 47.8054 102.305 47.3857 102.492 46.8615C102.684 46.3374 102.78 45.7599 102.78 45.1293C102.78 44.5028 102.684 43.9276 102.492 43.4034C102.305 42.875 102.015 42.451 101.623 42.1314C101.231 41.8118 100.736 41.652 100.14 41.652C99.5389 41.652 99.0403 41.8118 98.644 42.1314C98.252 42.451 97.96 42.875 97.7683 43.4034C97.5808 43.9276 97.487 44.5028 97.487 45.1293C97.487 45.7599 97.5808 46.3374 97.7683 46.8615C97.96 47.3857 98.252 47.8054 98.644 48.1207C99.0403 48.4361 99.5389 48.5938 100.14 48.5938ZM105.661 41.831V40.1818H113.945V41.831H110.743V50H108.876V41.831H105.661ZM118.367 50.2173C117.744 50.2173 117.182 50.1023 116.679 49.8722C116.176 49.6378 115.778 49.299 115.484 48.8558C115.194 48.4126 115.049 47.8693 115.049 47.2259C115.049 46.6719 115.156 46.2159 115.369 45.858C115.582 45.5 115.869 45.2166 116.232 45.0078C116.594 44.799 116.999 44.6413 117.446 44.5348C117.894 44.4283 118.35 44.3473 118.814 44.2919C119.402 44.2237 119.879 44.1683 120.246 44.1257C120.612 44.0788 120.879 44.0043 121.045 43.902C121.211 43.7997 121.294 43.6335 121.294 43.4034V43.3587C121.294 42.8004 121.137 42.3679 120.821 42.0611C120.51 41.7543 120.046 41.6009 119.428 41.6009C118.784 41.6009 118.277 41.7436 117.906 42.0291C117.54 42.3104 117.286 42.6236 117.146 42.9688L115.35 42.5597C115.563 41.9631 115.874 41.4815 116.283 41.1151C116.696 40.7443 117.171 40.4759 117.708 40.3097C118.245 40.1392 118.81 40.054 119.402 40.054C119.794 40.054 120.21 40.1009 120.649 40.1946C121.092 40.2841 121.505 40.4503 121.889 40.6932C122.276 40.9361 122.594 41.2834 122.841 41.7351C123.088 42.1825 123.212 42.7642 123.212 43.4801V50H121.345V48.6577H121.269C121.145 48.9048 120.96 49.1477 120.713 49.3864C120.465 49.625 120.148 49.8232 119.76 49.9808C119.372 50.1385 118.908 50.2173 118.367 50.2173ZM118.782 48.6832C119.311 48.6832 119.762 48.5788 120.137 48.37C120.517 48.1612 120.804 47.8885 121 47.5518C121.2 47.2109 121.301 46.8466 121.301 46.4588V45.1932C121.232 45.2614 121.1 45.3253 120.904 45.3849C120.713 45.4403 120.493 45.4893 120.246 45.532C119.999 45.5703 119.758 45.6065 119.524 45.6406C119.289 45.6705 119.093 45.696 118.936 45.7173C118.565 45.7642 118.226 45.843 117.919 45.9538C117.617 46.0646 117.374 46.2244 117.191 46.4332C117.012 46.6378 116.922 46.9105 116.922 47.2514C116.922 47.7244 117.097 48.0824 117.446 48.3253C117.796 48.5639 118.241 48.6832 118.782 48.6832Z" fill="#313940"/>
<path d="M364.81 15.4545C364.81 16.8523 364.554 18.054 364.043 19.0597C363.531 20.0611 362.83 20.8324 361.94 21.3736C361.053 21.9105 360.045 22.179 358.916 22.179C357.783 22.179 356.771 21.9105 355.88 21.3736C354.994 20.8324 354.295 20.0589 353.783 19.0533C353.272 18.0476 353.016 16.848 353.016 15.4545C353.016 14.0568 353.272 12.8572 353.783 11.8558C354.295 10.8501 354.994 10.0788 355.88 9.5419C356.771 9.00071 357.783 8.73011 358.916 8.73011C360.045 8.73011 361.053 9.00071 361.94 9.5419C362.83 10.0788 363.531 10.8501 364.043 11.8558C364.554 12.8572 364.81 14.0568 364.81 15.4545ZM362.854 15.4545C362.854 14.3892 362.681 13.4922 362.336 12.7635C361.995 12.0305 361.526 11.4766 360.93 11.1016C360.337 10.7223 359.666 10.5327 358.916 10.5327C358.162 10.5327 357.489 10.7223 356.896 11.1016C356.304 11.4766 355.835 12.0305 355.49 12.7635C355.149 13.4922 354.979 14.3892 354.979 15.4545C354.979 16.5199 355.149 17.419 355.49 18.152C355.835 18.8807 356.304 19.4347 356.896 19.8139C357.489 20.1889 358.162 20.3764 358.916 20.3764C359.666 20.3764 360.337 20.1889 360.93 19.8139C361.526 19.4347 361.995 18.8807 362.336 18.152C362.681 17.419 362.854 16.5199 362.854 15.4545ZM374.693 8.52557L375.486 9.73366C375.192 10.0021 374.857 10.1939 374.482 10.3089C374.112 10.4197 373.683 10.4901 373.198 10.5199C372.712 10.5455 372.156 10.5689 371.529 10.5902C370.822 10.6115 370.24 10.7649 369.784 11.0504C369.328 11.3317 368.977 11.7493 368.73 12.3033C368.487 12.853 368.329 13.5433 368.257 14.3743H368.378C368.698 13.7649 369.141 13.3089 369.708 13.0064C370.279 12.7038 370.92 12.5526 371.632 12.5526C372.424 12.5526 373.129 12.7337 373.747 13.0959C374.365 13.4581 374.851 13.9886 375.205 14.6875C375.563 15.3821 375.742 16.2322 375.742 17.2379C375.742 18.2564 375.554 19.1364 375.179 19.8778C374.808 20.6193 374.284 21.1925 373.607 21.5973C372.933 21.9979 372.139 22.1982 371.222 22.1982C370.306 22.1982 369.507 21.9915 368.825 21.5781C368.148 21.1605 367.622 20.5426 367.247 19.7244C366.876 18.9062 366.691 17.8963 366.691 16.6946V15.723C366.691 13.4773 367.091 11.7876 367.892 10.6541C368.693 9.5206 369.891 8.93892 371.485 8.90909C372 8.89631 372.46 8.89418 372.865 8.9027C373.27 8.90696 373.624 8.88778 373.926 8.84517C374.233 8.7983 374.489 8.69176 374.693 8.52557ZM371.229 20.5938C371.762 20.5938 372.22 20.4595 372.603 20.1911C372.991 19.9183 373.289 19.5327 373.498 19.0341C373.707 18.5355 373.811 17.9474 373.811 17.2699C373.811 16.6051 373.707 16.0405 373.498 15.576C373.289 15.1115 372.991 14.7578 372.603 14.5149C372.215 14.2678 371.751 14.1442 371.21 14.1442C370.809 14.1442 370.451 14.2145 370.136 14.3551C369.82 14.4915 369.55 14.6939 369.324 14.9624C369.102 15.2308 368.93 15.5589 368.806 15.9467C368.687 16.3303 368.623 16.7713 368.615 17.2699C368.615 18.2841 368.847 19.0916 369.311 19.6925C369.78 20.2933 370.419 20.5938 371.229 20.5938ZM377.877 25.6818V12.1818H379.743V13.7734H379.903C380.014 13.5689 380.173 13.3324 380.382 13.0639C380.591 12.7955 380.881 12.5611 381.252 12.3608C381.622 12.1562 382.112 12.054 382.722 12.054C383.514 12.054 384.222 12.2543 384.844 12.6548C385.466 13.0554 385.954 13.6328 386.308 14.3871C386.666 15.1413 386.845 16.049 386.845 17.1101C386.845 18.1712 386.668 19.081 386.314 19.8395C385.96 20.5937 385.475 21.1754 384.857 21.5845C384.239 21.9893 383.534 22.1918 382.741 22.1918C382.144 22.1918 381.656 22.0916 381.277 21.8913C380.902 21.6911 380.608 21.4567 380.395 21.1882C380.182 20.9197 380.018 20.6811 379.903 20.4723H379.788V25.6818H377.877ZM379.749 17.0909C379.749 17.7812 379.85 18.3864 380.05 18.9062C380.25 19.4261 380.54 19.8331 380.919 20.1271C381.298 20.4169 381.763 20.5618 382.313 20.5618C382.884 20.5618 383.361 20.4105 383.744 20.108C384.128 19.8011 384.418 19.3857 384.614 18.8615C384.814 18.3374 384.914 17.7472 384.914 17.0909C384.914 16.4432 384.816 15.8615 384.62 15.3459C384.428 14.8303 384.139 14.4233 383.751 14.125C383.367 13.8267 382.888 13.6776 382.313 13.6776C381.759 13.6776 381.29 13.8203 380.906 14.1058C380.527 14.3913 380.24 14.7898 380.044 15.3011C379.847 15.8125 379.749 16.4091 379.749 17.0909ZM391.843 22.2173C391.221 22.2173 390.659 22.1023 390.156 21.8722C389.653 21.6378 389.254 21.299 388.96 20.8558C388.671 20.4126 388.526 19.8693 388.526 19.2259C388.526 18.6719 388.632 18.2159 388.845 17.858C389.058 17.5 389.346 17.2166 389.708 17.0078C390.07 16.799 390.475 16.6413 390.923 16.5348C391.37 16.4283 391.826 16.3473 392.291 16.2919C392.879 16.2237 393.356 16.1683 393.722 16.1257C394.089 16.0788 394.355 16.0043 394.521 15.902C394.688 15.7997 394.771 15.6335 394.771 15.4034V15.3587C394.771 14.8004 394.613 14.3679 394.298 14.0611C393.987 13.7543 393.522 13.6009 392.904 13.6009C392.261 13.6009 391.754 13.7436 391.383 14.0291C391.017 14.3104 390.763 14.6236 390.622 14.9688L388.826 14.5597C389.039 13.9631 389.35 13.4815 389.759 13.1151C390.173 12.7443 390.648 12.4759 391.185 12.3097C391.722 12.1392 392.286 12.054 392.879 12.054C393.271 12.054 393.686 12.1009 394.125 12.1946C394.568 12.2841 394.982 12.4503 395.365 12.6932C395.753 12.9361 396.07 13.2834 396.318 13.7351C396.565 14.1825 396.688 14.7642 396.688 15.4801V22H394.822V20.6577H394.745C394.622 20.9048 394.436 21.1477 394.189 21.3864C393.942 21.625 393.624 21.8232 393.237 21.9808C392.849 22.1385 392.384 22.2173 391.843 22.2173ZM392.259 20.6832C392.787 20.6832 393.239 20.5788 393.614 20.37C393.993 20.1612 394.281 19.8885 394.477 19.5518C394.677 19.2109 394.777 18.8466 394.777 18.4588V17.1932C394.709 17.2614 394.577 17.3253 394.381 17.3849C394.189 17.4403 393.97 17.4893 393.722 17.532C393.475 17.5703 393.235 17.6065 393 17.6406C392.766 17.6705 392.57 17.696 392.412 17.7173C392.041 17.7642 391.703 17.843 391.396 17.9538C391.093 18.0646 390.85 18.2244 390.667 18.4332C390.488 18.6378 390.399 18.9105 390.399 19.2514C390.399 19.7244 390.573 20.0824 390.923 20.3253C391.272 20.5639 391.718 20.6832 392.259 20.6832ZM398.652 19.4048H400.608C400.634 19.8054 400.815 20.1143 401.152 20.3317C401.493 20.549 401.934 20.6577 402.475 20.6577C403.025 20.6577 403.493 20.5405 403.881 20.3061C404.269 20.0675 404.463 19.6989 404.463 19.2003C404.463 18.902 404.388 18.642 404.239 18.4205C404.094 18.1946 403.887 18.0199 403.619 17.8963C403.355 17.7727 403.042 17.7109 402.679 17.7109H401.081V16.2088H402.679C403.221 16.2088 403.625 16.0852 403.894 15.8381C404.162 15.5909 404.297 15.282 404.297 14.9112C404.297 14.5107 404.152 14.1889 403.862 13.946C403.576 13.6989 403.178 13.5753 402.667 13.5753C402.147 13.5753 401.714 13.6925 401.369 13.9268C401.024 14.157 400.843 14.4553 400.826 14.8217H398.895C398.908 14.272 399.074 13.7905 399.394 13.3771C399.718 12.9595 400.152 12.6357 400.698 12.4055C401.248 12.1712 401.872 12.054 402.571 12.054C403.299 12.054 403.93 12.1712 404.463 12.4055C404.995 12.6399 405.407 12.9638 405.696 13.3771C405.99 13.7905 406.137 14.2656 406.137 14.8026C406.137 15.3437 405.975 15.7869 405.652 16.1321C405.332 16.473 404.914 16.718 404.399 16.8672V16.9695C404.778 16.995 405.115 17.1101 405.409 17.3146C405.703 17.5192 405.933 17.7898 406.099 18.1264C406.265 18.4631 406.348 18.8445 406.348 19.2706C406.348 19.8714 406.182 20.3913 405.85 20.8303C405.522 21.2692 405.066 21.608 404.482 21.8466C403.902 22.081 403.24 22.1982 402.494 22.1982C401.77 22.1982 401.12 22.0852 400.544 21.8594C399.973 21.6293 399.52 21.3054 399.183 20.8878C398.85 20.4702 398.674 19.9759 398.652 19.4048ZM412.458 22.1982C411.537 22.1982 410.734 21.9872 410.048 21.5653C409.362 21.1435 408.829 20.5533 408.45 19.7947C408.07 19.0362 407.881 18.1499 407.881 17.1357C407.881 16.1172 408.07 15.2266 408.45 14.4638C408.829 13.701 409.362 13.1087 410.048 12.6868C410.734 12.2649 411.537 12.054 412.458 12.054C413.378 12.054 414.181 12.2649 414.867 12.6868C415.553 13.1087 416.086 13.701 416.465 14.4638C416.845 15.2266 417.034 16.1172 417.034 17.1357C417.034 18.1499 416.845 19.0362 416.465 19.7947C416.086 20.5533 415.553 21.1435 414.867 21.5653C414.181 21.9872 413.378 22.1982 412.458 22.1982ZM412.464 20.5938C413.061 20.5938 413.555 20.4361 413.947 20.1207C414.339 19.8054 414.629 19.3857 414.816 18.8615C415.008 18.3374 415.104 17.7599 415.104 17.1293C415.104 16.5028 415.008 15.9276 414.816 15.4034C414.629 14.875 414.339 14.451 413.947 14.1314C413.555 13.8118 413.061 13.652 412.464 13.652C411.863 13.652 411.365 13.8118 410.968 14.1314C410.576 14.451 410.284 14.875 410.093 15.4034C409.905 15.9276 409.811 16.5028 409.811 17.1293C409.811 17.7599 409.905 18.3374 410.093 18.8615C410.284 19.3857 410.576 19.8054 410.968 20.1207C411.365 20.4361 411.863 20.5938 412.464 20.5938ZM419.168 22V12.1818H423.239C424.347 12.1818 425.225 12.4183 425.873 12.8913C426.521 13.3601 426.844 13.9972 426.844 14.8026C426.844 15.3778 426.661 15.8338 426.295 16.1705C425.928 16.5071 425.442 16.733 424.837 16.848C425.276 16.8991 425.679 17.0312 426.045 17.2443C426.412 17.4531 426.706 17.7344 426.928 18.0881C427.153 18.4418 427.266 18.8636 427.266 19.3537C427.266 19.8736 427.132 20.3338 426.864 20.7344C426.595 21.1307 426.205 21.4418 425.694 21.6676C425.187 21.8892 424.575 22 423.859 22H419.168ZM420.964 20.402H423.859C424.332 20.402 424.703 20.2891 424.972 20.0632C425.24 19.8374 425.374 19.5305 425.374 19.1428C425.374 18.6868 425.24 18.3288 424.972 18.0689C424.703 17.8047 424.332 17.6726 423.859 17.6726H420.964V20.402ZM420.964 16.2727H423.259C423.616 16.2727 423.923 16.2216 424.179 16.1193C424.439 16.017 424.637 15.8722 424.773 15.6847C424.914 15.4929 424.984 15.267 424.984 15.0071C424.984 14.6278 424.829 14.3317 424.518 14.1186C424.207 13.9055 423.781 13.799 423.239 13.799H420.964V16.2727ZM432.22 22.2173C431.598 22.2173 431.036 22.1023 430.533 21.8722C430.03 21.6378 429.631 21.299 429.337 20.8558C429.048 20.4126 428.903 19.8693 428.903 19.2259C428.903 18.6719 429.009 18.2159 429.222 17.858C429.435 17.5 429.723 17.2166 430.085 17.0078C430.447 16.799 430.852 16.6413 431.3 16.5348C431.747 16.4283 432.203 16.3473 432.668 16.2919C433.256 16.2237 433.733 16.1683 434.099 16.1257C434.466 16.0788 434.732 16.0043 434.898 15.902C435.065 15.7997 435.148 15.6335 435.148 15.4034V15.3587C435.148 14.8004 434.99 14.3679 434.675 14.0611C434.364 13.7543 433.899 13.6009 433.281 13.6009C432.638 13.6009 432.131 13.7436 431.76 14.0291C431.393 14.3104 431.14 14.6236 430.999 14.9688L429.203 14.5597C429.416 13.9631 429.727 13.4815 430.136 13.1151C430.55 12.7443 431.025 12.4759 431.562 12.3097C432.099 12.1392 432.663 12.054 433.256 12.054C433.648 12.054 434.063 12.1009 434.502 12.1946C434.945 12.2841 435.359 12.4503 435.742 12.6932C436.13 12.9361 436.447 13.2834 436.695 13.7351C436.942 14.1825 437.065 14.7642 437.065 15.4801V22H435.199V20.6577H435.122C434.999 20.9048 434.813 21.1477 434.566 21.3864C434.319 21.625 434.001 21.8232 433.614 21.9808C433.226 22.1385 432.761 22.2173 432.22 22.2173ZM432.636 20.6832C433.164 20.6832 433.616 20.5788 433.991 20.37C434.37 20.1612 434.658 19.8885 434.854 19.5518C435.054 19.2109 435.154 18.8466 435.154 18.4588V17.1932C435.086 17.2614 434.954 17.3253 434.758 17.3849C434.566 17.4403 434.347 17.4893 434.099 17.532C433.852 17.5703 433.612 17.6065 433.377 17.6406C433.143 17.6705 432.947 17.696 432.789 17.7173C432.418 17.7642 432.08 17.843 431.773 17.9538C431.47 18.0646 431.227 18.2244 431.044 18.4332C430.865 18.6378 430.776 18.9105 430.776 19.2514C430.776 19.7244 430.95 20.0824 431.3 20.3253C431.649 20.5639 432.094 20.6832 432.636 20.6832ZM446.265 16.2663V17.9219H440.947V16.2663H446.265ZM441.484 12.1818V22H439.611V12.1818H441.484ZM447.601 12.1818V22H445.735V12.1818H447.601ZM452.031 19.3217L456.358 12.1818H458.416V22H456.544V14.8537L452.235 22H450.158V12.1818H452.031V19.3217ZM465.218 22.1982C464.25 22.1982 463.417 21.9915 462.718 21.5781C462.024 21.1605 461.487 20.5746 461.107 19.8203C460.732 19.0618 460.545 18.1733 460.545 17.1548C460.545 16.1491 460.732 15.2628 461.107 14.4957C461.487 13.7287 462.015 13.13 462.693 12.6996C463.374 12.2692 464.171 12.054 465.083 12.054C465.637 12.054 466.174 12.1456 466.694 12.3288C467.214 12.5121 467.681 12.7997 468.094 13.1918C468.507 13.5838 468.833 14.093 469.072 14.7195C469.311 15.3416 469.43 16.098 469.43 16.9886V17.6662H461.625V16.2344H467.557C467.557 15.7315 467.455 15.2862 467.25 14.8984C467.046 14.5064 466.758 14.1974 466.387 13.9716C466.021 13.7457 465.59 13.6328 465.096 13.6328C464.559 13.6328 464.09 13.7649 463.69 14.0291C463.294 14.2891 462.987 14.63 462.769 15.0518C462.556 15.4695 462.45 15.9233 462.45 16.4134V17.532C462.45 18.1882 462.565 18.7464 462.795 19.2067C463.029 19.6669 463.355 20.0185 463.773 20.2614C464.191 20.5 464.678 20.6193 465.237 20.6193C465.599 20.6193 465.929 20.5682 466.227 20.4659C466.526 20.3594 466.784 20.2017 467.001 19.9929C467.218 19.7841 467.384 19.5263 467.499 19.2195L469.308 19.5455C469.164 20.0781 468.904 20.5447 468.529 20.9453C468.158 21.3416 467.691 21.6506 467.129 21.8722C466.57 22.0895 465.933 22.1982 465.218 22.1982ZM483.889 8.52557L484.681 9.73366C484.387 10.0021 484.053 10.1939 483.678 10.3089C483.307 10.4197 482.879 10.4901 482.393 10.5199C481.907 10.5455 481.351 10.5689 480.725 10.5902C480.017 10.6115 479.436 10.7649 478.98 11.0504C478.524 11.3317 478.172 11.7493 477.925 12.3033C477.682 12.853 477.524 13.5433 477.452 14.3743H477.573C477.893 13.7649 478.336 13.3089 478.903 13.0064C479.474 12.7038 480.115 12.5526 480.827 12.5526C481.619 12.5526 482.325 12.7337 482.943 13.0959C483.561 13.4581 484.046 13.9886 484.4 14.6875C484.758 15.3821 484.937 16.2322 484.937 17.2379C484.937 18.2564 484.749 19.1364 484.374 19.8778C484.004 20.6193 483.48 21.1925 482.802 21.5973C482.129 21.9979 481.334 22.1982 480.418 22.1982C479.502 22.1982 478.703 21.9915 478.021 21.5781C477.343 21.1605 476.817 20.5426 476.442 19.7244C476.071 18.9062 475.886 17.8963 475.886 16.6946V15.723C475.886 13.4773 476.286 11.7876 477.088 10.6541C477.889 9.5206 479.086 8.93892 480.68 8.90909C481.195 8.89631 481.656 8.89418 482.061 8.9027C482.465 8.90696 482.819 8.88778 483.122 8.84517C483.428 8.7983 483.684 8.69176 483.889 8.52557ZM480.424 20.5938C480.957 20.5938 481.415 20.4595 481.798 20.1911C482.186 19.9183 482.485 19.5327 482.693 19.0341C482.902 18.5355 483.007 17.9474 483.007 17.2699C483.007 16.6051 482.902 16.0405 482.693 15.576C482.485 15.1115 482.186 14.7578 481.798 14.5149C481.411 14.2678 480.946 14.1442 480.405 14.1442C480.004 14.1442 479.646 14.2145 479.331 14.3551C479.016 14.4915 478.745 14.6939 478.519 14.9624C478.298 15.2308 478.125 15.5589 478.002 15.9467C477.882 16.3303 477.818 16.7713 477.81 17.2699C477.81 18.2841 478.042 19.0916 478.507 19.6925C478.975 20.2933 479.615 20.5938 480.424 20.5938ZM488.945 19.3217L493.272 12.1818H495.33V22H493.458V14.8537L489.149 22H487.072V12.1818H488.945V19.3217ZM502.036 22.1982C501.115 22.1982 500.312 21.9872 499.626 21.5653C498.94 21.1435 498.407 20.5533 498.028 19.7947C497.649 19.0362 497.459 18.1499 497.459 17.1357C497.459 16.1172 497.649 15.2266 498.028 14.4638C498.407 13.701 498.94 13.1087 499.626 12.6868C500.312 12.2649 501.115 12.054 502.036 12.054C502.956 12.054 503.759 12.2649 504.445 12.6868C505.132 13.1087 505.664 13.701 506.044 14.4638C506.423 15.2266 506.612 16.1172 506.612 17.1357C506.612 18.1499 506.423 19.0362 506.044 19.7947C505.664 20.5533 505.132 21.1435 504.445 21.5653C503.759 21.9872 502.956 22.1982 502.036 22.1982ZM502.042 20.5938C502.639 20.5938 503.133 20.4361 503.525 20.1207C503.917 19.8054 504.207 19.3857 504.394 18.8615C504.586 18.3374 504.682 17.7599 504.682 17.1293C504.682 16.5028 504.586 15.9276 504.394 15.4034C504.207 14.875 503.917 14.451 503.525 14.1314C503.133 13.8118 502.639 13.652 502.042 13.652C501.441 13.652 500.943 13.8118 500.546 14.1314C500.154 14.451 499.862 14.875 499.671 15.4034C499.483 15.9276 499.389 16.5028 499.389 17.1293C499.389 17.7599 499.483 18.3374 499.671 18.8615C499.862 19.3857 500.154 19.8054 500.546 20.1207C500.943 20.4361 501.441 20.5938 502.042 20.5938ZM508.746 22V12.1818H516.755V22H514.882V13.831H510.606V22H508.746ZM518.537 22L518.53 20.3445H518.882C519.155 20.3445 519.383 20.2869 519.566 20.1719C519.753 20.0526 519.907 19.8523 520.026 19.571C520.145 19.2898 520.237 18.902 520.301 18.4077C520.365 17.9091 520.412 17.2827 520.442 16.5284L520.614 12.1818H527.466V22H525.594V13.831H522.385L522.231 17.1676C522.193 17.9773 522.11 18.6847 521.982 19.2898C521.858 19.8949 521.677 20.3999 521.439 20.8047C521.2 21.2053 520.893 21.5057 520.518 21.706C520.143 21.902 519.687 22 519.15 22H518.537ZM534.247 22.1982C533.279 22.1982 532.446 21.9915 531.748 21.5781C531.053 21.1605 530.516 20.5746 530.137 19.8203C529.762 19.0618 529.574 18.1733 529.574 17.1548C529.574 16.1491 529.762 15.2628 530.137 14.4957C530.516 13.7287 531.044 13.13 531.722 12.6996C532.404 12.2692 533.201 12.054 534.113 12.054C534.667 12.054 535.203 12.1456 535.723 12.3288C536.243 12.5121 536.71 12.7997 537.123 13.1918C537.537 13.5838 537.863 14.093 538.101 14.7195C538.34 15.3416 538.459 16.098 538.459 16.9886V17.6662H530.654V16.2344H536.586C536.586 15.7315 536.484 15.2862 536.279 14.8984C536.075 14.5064 535.787 14.1974 535.417 13.9716C535.05 13.7457 534.62 13.6328 534.125 13.6328C533.588 13.6328 533.12 13.7649 532.719 14.0291C532.323 14.2891 532.016 14.63 531.799 15.0518C531.586 15.4695 531.479 15.9233 531.479 16.4134V17.532C531.479 18.1882 531.594 18.7464 531.824 19.2067C532.059 19.6669 532.385 20.0185 532.802 20.2614C533.22 20.5 533.708 20.6193 534.266 20.6193C534.628 20.6193 534.958 20.5682 535.257 20.4659C535.555 20.3594 535.813 20.2017 536.03 19.9929C536.248 19.7841 536.414 19.5263 536.529 19.2195L538.338 19.5455C538.193 20.0781 537.933 20.5447 537.558 20.9453C537.187 21.3416 536.721 21.6506 536.158 21.8722C535.6 22.0895 534.963 22.1982 534.247 22.1982ZM547.234 16.2663V17.9219H541.916V16.2663H547.234ZM542.453 12.1818V22H540.58V12.1818H542.453ZM548.57 12.1818V22H546.703V12.1818H548.57ZM555.262 22.1982C554.342 22.1982 553.539 21.9872 552.852 21.5653C552.166 21.1435 551.634 20.5533 551.254 19.7947C550.875 19.0362 550.686 18.1499 550.686 17.1357C550.686 16.1172 550.875 15.2266 551.254 14.4638C551.634 13.701 552.166 13.1087 552.852 12.6868C553.539 12.2649 554.342 12.054 555.262 12.054C556.183 12.054 556.986 12.2649 557.672 12.6868C558.358 13.1087 558.891 13.701 559.27 14.4638C559.649 15.2266 559.839 16.1172 559.839 17.1357C559.839 18.1499 559.649 19.0362 559.27 19.7947C558.891 20.5533 558.358 21.1435 557.672 21.5653C556.986 21.9872 556.183 22.1982 555.262 22.1982ZM555.269 20.5938C555.865 20.5938 556.36 20.4361 556.752 20.1207C557.144 19.8054 557.433 19.3857 557.621 18.8615C557.813 18.3374 557.909 17.7599 557.909 17.1293C557.909 16.5028 557.813 15.9276 557.621 15.4034C557.433 14.875 557.144 14.451 556.752 14.1314C556.36 13.8118 555.865 13.652 555.269 13.652C554.668 13.652 554.169 13.8118 553.773 14.1314C553.381 14.451 553.089 14.875 552.897 15.4034C552.71 15.9276 552.616 16.5028 552.616 17.1293C552.616 17.7599 552.71 18.3374 552.897 18.8615C553.089 19.3857 553.381 19.8054 553.773 20.1207C554.169 20.4361 554.668 20.5938 555.269 20.5938ZM561.972 22V12.1818H563.884V16.2983H564.804L568.045 12.1818H570.41L566.607 16.9567L570.455 22H568.083L565.124 18.0753H563.884V22H561.972ZM352.511 50L352.505 48.3445H352.857C353.129 48.3445 353.357 48.2869 353.54 48.1719C353.728 48.0526 353.881 47.8523 354.001 47.571C354.12 47.2898 354.212 46.902 354.276 46.4077C354.339 45.9091 354.386 45.2827 354.416 44.5284L354.589 40.1818H361.441V50H359.568V41.831H356.359L356.206 45.1676C356.168 45.9773 356.085 46.6847 355.957 47.2898C355.833 47.8949 355.652 48.3999 355.413 48.8047C355.175 49.2053 354.868 49.5057 354.493 49.706C354.118 49.902 353.662 50 353.125 50H352.511ZM366.847 50.2173C366.225 50.2173 365.662 50.1023 365.16 49.8722C364.657 49.6378 364.258 49.299 363.964 48.8558C363.675 48.4126 363.53 47.8693 363.53 47.2259C363.53 46.6719 363.636 46.2159 363.849 45.858C364.062 45.5 364.35 45.2166 364.712 45.0078C365.074 44.799 365.479 44.6413 365.927 44.5348C366.374 44.4283 366.83 44.3473 367.295 44.2919C367.883 44.2237 368.36 44.1683 368.726 44.1257C369.093 44.0788 369.359 44.0043 369.525 43.902C369.692 43.7997 369.775 43.6335 369.775 43.4034V43.3587C369.775 42.8004 369.617 42.3679 369.302 42.0611C368.991 41.7543 368.526 41.6009 367.908 41.6009C367.265 41.6009 366.758 41.7436 366.387 42.0291C366.02 42.3104 365.767 42.6236 365.626 42.9688L363.83 42.5597C364.043 41.9631 364.354 41.4815 364.763 41.1151C365.177 40.7443 365.652 40.4759 366.189 40.3097C366.726 40.1392 367.29 40.054 367.883 40.054C368.275 40.054 368.69 40.1009 369.129 40.1946C369.572 40.2841 369.986 40.4503 370.369 40.6932C370.757 40.9361 371.074 41.2834 371.322 41.7351C371.569 42.1825 371.692 42.7642 371.692 43.4801V50H369.826V48.6577H369.749C369.626 48.9048 369.44 49.1477 369.193 49.3864C368.946 49.625 368.628 49.8232 368.241 49.9808C367.853 50.1385 367.388 50.2173 366.847 50.2173ZM367.263 48.6832C367.791 48.6832 368.243 48.5788 368.618 48.37C368.997 48.1612 369.285 47.8885 369.481 47.5518C369.681 47.2109 369.781 46.8466 369.781 46.4588V45.1932C369.713 45.2614 369.581 45.3253 369.385 45.3849C369.193 45.4403 368.974 45.4893 368.726 45.532C368.479 45.5703 368.238 45.6065 368.004 45.6406C367.77 45.6705 367.574 45.696 367.416 45.7173C367.045 45.7642 366.706 45.843 366.4 45.9538C366.097 46.0646 365.854 46.2244 365.671 46.4332C365.492 46.6378 365.403 46.9105 365.403 47.2514C365.403 47.7244 365.577 48.0824 365.927 48.3253C366.276 48.5639 366.721 48.6832 367.263 48.6832ZM374.238 50V40.1818H376.149V44.2983H377.07L380.31 40.1818H382.675L378.872 44.9567L382.72 50H380.349L377.389 46.0753H376.149V50H374.238ZM383.655 41.831V40.1818H391.939V41.831H388.737V50H386.87V41.831H383.655ZM397.639 50.1982C396.719 50.1982 395.915 49.9872 395.229 49.5653C394.543 49.1435 394.011 48.5533 393.631 47.7947C393.252 47.0362 393.062 46.1499 393.062 45.1357C393.062 44.1172 393.252 43.2266 393.631 42.4638C394.011 41.701 394.543 41.1087 395.229 40.6868C395.915 40.2649 396.719 40.054 397.639 40.054C398.56 40.054 399.363 40.2649 400.049 40.6868C400.735 41.1087 401.268 41.701 401.647 42.4638C402.026 43.2266 402.216 44.1172 402.216 45.1357C402.216 46.1499 402.026 47.0362 401.647 47.7947C401.268 48.5533 400.735 49.1435 400.049 49.5653C399.363 49.9872 398.56 50.1982 397.639 50.1982ZM397.646 48.5938C398.242 48.5938 398.737 48.4361 399.129 48.1207C399.521 47.8054 399.81 47.3857 399.998 46.8615C400.19 46.3374 400.286 45.7599 400.286 45.1293C400.286 44.5028 400.19 43.9276 399.998 43.4034C399.81 42.875 399.521 42.451 399.129 42.1314C398.737 41.8118 398.242 41.652 397.646 41.652C397.045 41.652 396.546 41.8118 396.15 42.1314C395.758 42.451 395.466 42.875 395.274 43.4034C395.087 43.9276 394.993 44.5028 394.993 45.1293C394.993 45.7599 395.087 46.3374 395.274 46.8615C395.466 47.3857 395.758 47.8054 396.15 48.1207C396.546 48.4361 397.045 48.5938 397.646 48.5938ZM411.924 36.5256L412.716 37.7337C412.422 38.0021 412.088 38.1939 411.713 38.3089C411.342 38.4197 410.914 38.4901 410.428 38.5199C409.942 38.5455 409.386 38.5689 408.76 38.5902C408.052 38.6115 407.471 38.7649 407.015 39.0504C406.559 39.3317 406.207 39.7493 405.96 40.3033C405.717 40.853 405.559 41.5433 405.487 42.3743H405.608C405.928 41.7649 406.371 41.3089 406.938 41.0064C407.509 40.7038 408.15 40.5526 408.862 40.5526C409.655 40.5526 410.36 40.7337 410.978 41.0959C411.596 41.4581 412.081 41.9886 412.435 42.6875C412.793 43.3821 412.972 44.2322 412.972 45.2379C412.972 46.2564 412.785 47.1364 412.41 47.8778C412.039 48.6193 411.515 49.1925 410.837 49.5973C410.164 49.9979 409.369 50.1982 408.453 50.1982C407.537 50.1982 406.738 49.9915 406.056 49.5781C405.378 49.1605 404.852 48.5426 404.477 47.7244C404.106 46.9062 403.921 45.8963 403.921 44.6946V43.723C403.921 41.4773 404.322 39.7876 405.123 38.6541C405.924 37.5206 407.121 36.9389 408.715 36.9091C409.231 36.8963 409.691 36.8942 410.096 36.9027C410.501 36.907 410.854 36.8878 411.157 36.8452C411.464 36.7983 411.719 36.6918 411.924 36.5256ZM408.459 48.5938C408.992 48.5938 409.45 48.4595 409.834 48.1911C410.221 47.9183 410.52 47.5327 410.729 47.0341C410.937 46.5355 411.042 45.9474 411.042 45.2699C411.042 44.6051 410.937 44.0405 410.729 43.576C410.52 43.1115 410.221 42.7578 409.834 42.5149C409.446 42.2678 408.981 42.1442 408.44 42.1442C408.04 42.1442 407.682 42.2145 407.366 42.3551C407.051 42.4915 406.78 42.6939 406.555 42.9624C406.333 43.2308 406.16 43.5589 406.037 43.9467C405.917 44.3303 405.854 44.7713 405.845 45.2699C405.845 46.2841 406.077 47.0916 406.542 47.6925C407.01 48.2933 407.65 48.5938 408.459 48.5938ZM417.964 50.2173C417.342 50.2173 416.78 50.1023 416.277 49.8722C415.774 49.6378 415.376 49.299 415.081 48.8558C414.792 48.4126 414.647 47.8693 414.647 47.2259C414.647 46.6719 414.753 46.2159 414.966 45.858C415.18 45.5 415.467 45.2166 415.829 45.0078C416.192 44.799 416.596 44.6413 417.044 44.5348C417.491 44.4283 417.947 44.3473 418.412 44.2919C419 44.2237 419.477 44.1683 419.844 44.1257C420.21 44.0788 420.476 44.0043 420.643 43.902C420.809 43.7997 420.892 43.6335 420.892 43.4034V43.3587C420.892 42.8004 420.734 42.3679 420.419 42.0611C420.108 41.7543 419.643 41.6009 419.025 41.6009C418.382 41.6009 417.875 41.7436 417.504 42.0291C417.138 42.3104 416.884 42.6236 416.743 42.9688L414.947 42.5597C415.16 41.9631 415.471 41.4815 415.881 41.1151C416.294 40.7443 416.769 40.4759 417.306 40.3097C417.843 40.1392 418.407 40.054 419 40.054C419.392 40.054 419.807 40.1009 420.246 40.1946C420.689 40.2841 421.103 40.4503 421.486 40.6932C421.874 40.9361 422.192 41.2834 422.439 41.7351C422.686 42.1825 422.809 42.7642 422.809 43.4801V50H420.943V48.6577H420.866C420.743 48.9048 420.557 49.1477 420.31 49.3864C420.063 49.625 419.746 49.8232 419.358 49.9808C418.97 50.1385 418.506 50.2173 417.964 50.2173ZM418.38 48.6832C418.908 48.6832 419.36 48.5788 419.735 48.37C420.114 48.1612 420.402 47.8885 420.598 47.5518C420.798 47.2109 420.898 46.8466 420.898 46.4588V45.1932C420.83 45.2614 420.698 45.3253 420.502 45.3849C420.31 45.4403 420.091 45.4893 419.844 45.532C419.596 45.5703 419.356 45.6065 419.121 45.6406C418.887 45.6705 418.691 45.696 418.533 45.7173C418.162 45.7642 417.824 45.843 417.517 45.9538C417.214 46.0646 416.971 46.2244 416.788 46.4332C416.609 46.6378 416.52 46.9105 416.52 47.2514C416.52 47.7244 416.694 48.0824 417.044 48.3253C417.393 48.5639 417.839 48.6832 418.38 48.6832ZM425.355 50V40.1818H427.266V44.2983H428.187L431.428 40.1818H433.793L429.989 44.9567L433.837 50H431.466L428.506 46.0753H427.266V50H425.355ZM434.772 41.831V40.1818H443.056V41.831H439.854V50H437.987V41.831H434.772ZM448.852 50.1982C447.885 50.1982 447.052 49.9915 446.353 49.5781C445.658 49.1605 445.121 48.5746 444.742 47.8203C444.367 47.0618 444.18 46.1733 444.18 45.1548C444.18 44.1491 444.367 43.2628 444.742 42.4957C445.121 41.7287 445.65 41.13 446.327 40.6996C447.009 40.2692 447.806 40.054 448.718 40.054C449.272 40.054 449.809 40.1456 450.329 40.3288C450.849 40.5121 451.315 40.7997 451.729 41.1918C452.142 41.5838 452.468 42.093 452.707 42.7195C452.945 43.3416 453.065 44.098 453.065 44.9886V45.6662H445.26V44.2344H451.192C451.192 43.7315 451.089 43.2862 450.885 42.8984C450.68 42.5064 450.393 42.1974 450.022 41.9716C449.656 41.7457 449.225 41.6328 448.731 41.6328C448.194 41.6328 447.725 41.7649 447.325 42.0291C446.928 42.2891 446.621 42.63 446.404 43.0518C446.191 43.4695 446.085 43.9233 446.085 44.4134V45.532C446.085 46.1882 446.2 46.7464 446.43 47.2067C446.664 47.6669 446.99 48.0185 447.408 48.2614C447.825 48.5 448.313 48.6193 448.871 48.6193C449.234 48.6193 449.564 48.5682 449.862 48.4659C450.161 48.3594 450.418 48.2017 450.636 47.9929C450.853 47.7841 451.019 47.5263 451.134 47.2195L452.943 47.5455C452.798 48.0781 452.538 48.5447 452.163 48.9453C451.793 49.3416 451.326 49.6506 450.763 49.8722C450.205 50.0895 449.568 50.1982 448.852 50.1982ZM455.185 53.6818V40.1818H457.052V41.7734H457.211C457.322 41.5689 457.482 41.3324 457.691 41.0639C457.9 40.7955 458.189 40.5611 458.56 40.3608C458.931 40.1562 459.421 40.054 460.03 40.054C460.823 40.054 461.53 40.2543 462.153 40.6548C462.775 41.0554 463.263 41.6328 463.616 42.3871C463.974 43.1413 464.153 44.049 464.153 45.1101C464.153 46.1712 463.976 47.081 463.623 47.8395C463.269 48.5937 462.783 49.1754 462.165 49.5845C461.547 49.9893 460.842 50.1918 460.05 50.1918C459.453 50.1918 458.965 50.0916 458.586 49.8913C458.211 49.6911 457.917 49.4567 457.704 49.1882C457.491 48.9197 457.327 48.6811 457.211 48.4723H457.096V53.6818H455.185ZM457.058 45.0909C457.058 45.7812 457.158 46.3864 457.358 46.9062C457.559 47.4261 457.849 47.8331 458.228 48.1271C458.607 48.4169 459.072 48.5618 459.621 48.5618C460.192 48.5618 460.67 48.4105 461.053 48.108C461.437 47.8011 461.726 47.3857 461.922 46.8615C462.123 46.3374 462.223 45.7472 462.223 45.0909C462.223 44.4432 462.125 43.8615 461.929 43.3459C461.737 42.8303 461.447 42.4233 461.059 42.125C460.676 41.8267 460.197 41.6776 459.621 41.6776C459.067 41.6776 458.599 41.8203 458.215 42.1058C457.836 42.3913 457.548 42.7898 457.352 43.3011C457.156 43.8125 457.058 44.4091 457.058 45.0909ZM468.167 47.3217L472.495 40.1818H474.553V50H472.68V42.8537L468.372 50H466.295V40.1818H468.167V47.3217ZM478.996 47.3217L483.323 40.1818H485.381V50H483.508V42.8537L479.2 50H477.123V40.1818H478.996V47.3217ZM482.505 36.858H484.077C484.077 37.5781 483.822 38.1641 483.31 38.6158C482.803 39.0632 482.117 39.2869 481.252 39.2869C480.391 39.2869 479.707 39.0632 479.2 38.6158C478.693 38.1641 478.439 37.5781 478.439 36.858H480.006C480.006 37.1776 480.099 37.4609 480.287 37.7081C480.474 37.951 480.796 38.0724 481.252 38.0724C481.699 38.0724 482.019 37.951 482.211 37.7081C482.407 37.4652 482.505 37.1818 482.505 36.858Z" fill="#313940"/>
<defs>
<radialGradient id="paint0_radial_602_3296" cx="0" cy="0" r="1" gradientUnits="userSpaceOnUse" gradientTransform="translate(363.636 -666.035) rotate(-58.3172) scale(7958.82 3088.41)">
<stop stop-color="#E3FFBF"/>
<stop offset="0.201042" stop-color="#88BC87"/>
</radialGradient>
<linearGradient id="paint1_linear_602_3296" x1="135.784" y1="237.92" x2="121.284" y2="208.42" gradientUnits="userSpaceOnUse">
<stop stop-color="#88BC87"/>
<stop offset="1" stop-color="#E3FFBF"/>
</linearGradient>
<radialGradient id="paint2_radial_602_3296" cx="0" cy="0" r="1" gradientUnits="userSpaceOnUse" gradientTransform="translate(178.421 214.613) scale(34.8344)">
<stop stop-color="#E3FFBF"/>
<stop offset="1" stop-color="#88BC87"/>
</radialGradient>
<radialGradient id="paint3_radial_602_3296" cx="0" cy="0" r="1" gradientUnits="userSpaceOnUse" gradientTransform="translate(619.421 225.613) scale(34.8344)">
<stop stop-color="#E3FFBF"/>
<stop offset="1" stop-color="#88BC87"/>
</radialGradient>
<radialGradient id="paint4_radial_602_3296" cx="0" cy="0" r="1" gradientUnits="userSpaceOnUse" gradientTransform="translate(256.45 4534.63) rotate(54.9902) scale(8017.89 3814.1)">
<stop stop-color="#E3FFBF"/>
<stop offset="0.794792" stop-color="#88BC87"/>
</radialGradient>
<linearGradient id="paint5_linear_602_3296" x1="719.284" y1="251.92" x2="684.784" y2="215.42" gradientUnits="userSpaceOnUse">
<stop stop-color="#88BC87"/>
<stop offset="1" stop-color="#E3FFBF"/>
</linearGradient>
<radialGradient id="paint6_radial_602_3296" cx="0" cy="0" r="1" gradientUnits="userSpaceOnUse" gradientTransform="translate(-3110.04 2104.44) rotate(72.5358) scale(4234.8 7221.36)">
<stop stop-color="#E3FFBF"/>
<stop offset="0.867708" stop-color="#88BC87"/>
</radialGradient>
<linearGradient id="paint7_linear_602_3296" x1="753.784" y1="226.92" x2="702.284" y2="206.42" gradientUnits="userSpaceOnUse">
<stop stop-color="#88BC87"/>
<stop offset="1" stop-color="#E3FFBF"/>
</linearGradient>
<radialGradient id="paint8_radial_602_3296" cx="0" cy="0" r="1" gradientUnits="userSpaceOnUse" gradientTransform="translate(750.424 256.613) scale(34.8344)">
<stop stop-color="#E3FFBF"/>
<stop offset="1" stop-color="#88BC87"/>
</radialGradient>
<radialGradient id="paint9_radial_602_3296" cx="0" cy="0" r="1" gradientUnits="userSpaceOnUse" gradientTransform="translate(-3566.27 2153.44) rotate(58.0517) scale(5340.27 8073.77)">
<stop stop-color="white"/>
<stop offset="1" stop-color="#50C0E3"/>
</radialGradient>
<linearGradient id="paint10_linear_602_3296" x1="386.927" y1="140.203" x2="556.656" y2="195.193" gradientUnits="userSpaceOnUse">
<stop stop-color="#76DAFF"/>
<stop offset="0.529167" stop-color="#D0C1FF"/>
<stop offset="1" stop-color="#FFA4C8"/>
</linearGradient>
<radialGradient id="paint11_radial_602_3296" cx="0" cy="0" r="1" gradientUnits="userSpaceOnUse" gradientTransform="translate(9724.98 2792.98) rotate(-44.4701) scale(6687.04 5136.69)">
<stop stop-color="white"/>
<stop offset="1" stop-color="#50C0E3"/>
</radialGradient>
<linearGradient id="paint12_linear_602_3296" x1="263.044" y1="184.191" x2="297.629" y2="310.679" gradientUnits="userSpaceOnUse">
<stop stop-color="#76DAFF"/>
<stop offset="0.529167" stop-color="#D0C1FF"/>
<stop offset="1" stop-color="#FFA4C8"/>
</linearGradient>
<radialGradient id="paint13_radial_602_3296" cx="0" cy="0" r="1" gradientUnits="userSpaceOnUse" gradientTransform="translate(-2633.59 1119.02) rotate(26.7736) scale(3465.98 4779.31)">
<stop stop-color="white"/>
<stop offset="1" stop-color="#006DC3"/>
</radialGradient>
<linearGradient id="paint14_linear_602_3296" x1="331" y1="275.5" x2="406.296" y2="128.08" gradientUnits="userSpaceOnUse">
<stop stop-color="#6677BF"/>
<stop offset="0.508333" stop-color="#DB91DE"/>
<stop offset="1" stop-color="#F8BDD5"/>
</linearGradient>
<radialGradient id="paint15_radial_602_3296" cx="0" cy="0" r="1" gradientUnits="userSpaceOnUse" gradientTransform="translate(37.4899 11532.3) rotate(19.8666) scale(3670.07 3385.16)">
<stop stop-color="white"/>
<stop offset="1" stop-color="#006DC3"/>
</radialGradient>
<linearGradient id="paint16_linear_602_3296" x1="464.5" y1="291.5" x2="473" y2="163.5" gradientUnits="userSpaceOnUse">
<stop stop-color="#6677BF"/>
<stop offset="0.508333" stop-color="#DB91DE"/>
<stop offset="1" stop-color="#F8BDD5"/>
</linearGradient>
<radialGradient id="paint17_radial_602_3296" cx="0" cy="0" r="1" gradientUnits="userSpaceOnUse" gradientTransform="translate(246.458 217.499) scale(5.61846)">
<stop stop-color="#FFF6F9"/>
<stop offset="1" stop-color="#D38FDC"/>
</radialGradient>
<radialGradient id="paint18_radial_602_3296" cx="0" cy="0" r="1" gradientUnits="userSpaceOnUse" gradientTransform="translate(266.458 207.499) scale(5.61846)">
<stop stop-color="#F4FCFF"/>
<stop offset="1" stop-color="#C2C2C2"/>
</radialGradient>
<radialGradient id="paint19_radial_602_3296" cx="0" cy="0" r="1" gradientUnits="userSpaceOnUse" gradientTransform="translate(286.458 204.499) scale(5.61846)">
<stop stop-color="#FFF6F9"/>
<stop offset="1" stop-color="#D38FDC"/>
</radialGradient>
<radialGradient id="paint20_radial_602_3296" cx="0" cy="0" r="1" gradientUnits="userSpaceOnUse" gradientTransform="translate(306.458 184.499) scale(5.61846)">
<stop stop-color="#F4FCFF"/>
<stop offset="1" stop-color="#C2C2C2"/>
</radialGradient>
<radialGradient id="paint21_radial_602_3296" cx="0" cy="0" r="1" gradientUnits="userSpaceOnUse" gradientTransform="translate(266.458 275.499) scale(5.61846)">
<stop stop-color="#FFF6F9"/>
<stop offset="1" stop-color="#D38FDC"/>
</radialGradient>
<radialGradient id="paint22_radial_602_3296" cx="0" cy="0" r="1" gradientUnits="userSpaceOnUse" gradientTransform="translate(348.674 240.579) scale(5.61846)">
<stop stop-color="#F4FCFF"/>
<stop offset="1" stop-color="#C2C2C2"/>
</radialGradient>
<radialGradient id="paint23_radial_602_3296" cx="0" cy="0" r="1" gradientUnits="userSpaceOnUse" gradientTransform="translate(301.674 270.579) scale(5.61846)">
<stop stop-color="#F4FCFF"/>
<stop offset="1" stop-color="#C2C2C2"/>
</radialGradient>
<radialGradient id="paint24_radial_602_3296" cx="0" cy="0" r="1" gradientUnits="userSpaceOnUse" gradientTransform="translate(328.674 258.579) scale(5.61846)">
<stop stop-color="#FFF6F9"/>
<stop offset="1" stop-color="#D38FDC"/>
</radialGradient>
<radialGradient id="paint25_radial_602_3296" cx="0" cy="0" r="1" gradientUnits="userSpaceOnUse" gradientTransform="translate(361.674 222.579) scale(5.61846)">
<stop stop-color="#FFF6F9"/>
<stop offset="1" stop-color="#D38FDC"/>
</radialGradient>
<radialGradient id="paint26_radial_602_3296" cx="0" cy="0" r="1" gradientUnits="userSpaceOnUse" gradientTransform="translate(316.674 160.579) scale(5.61846)">
<stop stop-color="#FFF6F9"/>
<stop offset="1" stop-color="#D38FDC"/>
</radialGradient>
<radialGradient id="paint27_radial_602_3296" cx="0" cy="0" r="1" gradientUnits="userSpaceOnUse" gradientTransform="translate(318.458 138.499) scale(5.61846)">
<stop stop-color="#FFF6F9"/>
<stop offset="1" stop-color="#D38FDC"/>
</radialGradient>
<radialGradient id="paint28_radial_602_3296" cx="0" cy="0" r="1" gradientUnits="userSpaceOnUse" gradientTransform="translate(328.458 111.499) scale(5.61846)">
<stop stop-color="#F4FCFF"/>
<stop offset="1" stop-color="#C2C2C2"/>
</radialGradient>
<radialGradient id="paint29_radial_602_3296" cx="0" cy="0" r="1" gradientUnits="userSpaceOnUse" gradientTransform="translate(356.458 107.499) scale(5.61846)">
<stop stop-color="#FFF6F9"/>
<stop offset="1" stop-color="#D38FDC"/>
</radialGradient>
<radialGradient id="paint30_radial_602_3296" cx="0" cy="0" r="1" gradientUnits="userSpaceOnUse" gradientTransform="translate(374.458 122.499) scale(5.61846)">
<stop stop-color="#F4FCFF"/>
<stop offset="1" stop-color="#C2C2C2"/>
</radialGradient>
<radialGradient id="paint31_radial_602_3296" cx="0" cy="0" r="1" gradientUnits="userSpaceOnUse" gradientTransform="translate(384.458 142.499) scale(5.61846)">
<stop stop-color="#FFF6F9"/>
<stop offset="1" stop-color="#D38FDC"/>
</radialGradient>
<radialGradient id="paint32_radial_602_3296" cx="0" cy="0" r="1" gradientUnits="userSpaceOnUse" gradientTransform="translate(412.674 128.579) scale(5.61846)">
<stop stop-color="#FFF6F9"/>
<stop offset="1" stop-color="#D38FDC"/>
</radialGradient>
<radialGradient id="paint33_radial_602_3296" cx="0" cy="0" r="1" gradientUnits="userSpaceOnUse" gradientTransform="translate(400.674 160.579) scale(5.61846)">
<stop stop-color="#F4FCFF"/>
<stop offset="1" stop-color="#C2C2C2"/>
</radialGradient>
<radialGradient id="paint34_radial_602_3296" cx="0" cy="0" r="1" gradientUnits="userSpaceOnUse" gradientTransform="translate(459.674 148.579) scale(5.61846)">
<stop stop-color="#FFF6F9"/>
<stop offset="1" stop-color="#D38FDC"/>
</radialGradient>
<radialGradient id="paint35_radial_602_3296" cx="0" cy="0" r="1" gradientUnits="userSpaceOnUse" gradientTransform="translate(435.674 137.579) scale(5.61846)">
<stop stop-color="#F4FCFF"/>
<stop offset="1" stop-color="#C2C2C2"/>
</radialGradient>
<radialGradient id="paint36_radial_602_3296" cx="0" cy="0" r="1" gradientUnits="userSpaceOnUse" gradientTransform="translate(477.458 170.499) scale(5.61846)">
<stop stop-color="#FFF6F9"/>
<stop offset="1" stop-color="#D38FDC"/>
</radialGradient>
<radialGradient id="paint37_radial_602_3296" cx="0" cy="0" r="1" gradientUnits="userSpaceOnUse" gradientTransform="translate(497.458 180.499) scale(5.61846)">
<stop stop-color="#F4FCFF"/>
<stop offset="1" stop-color="#C2C2C2"/>
</radialGradient>
<radialGradient id="paint38_radial_602_3296" cx="0" cy="0" r="1" gradientUnits="userSpaceOnUse" gradientTransform="translate(509.458 201.499) scale(5.61846)">
<stop stop-color="#FFF6F9"/>
<stop offset="1" stop-color="#D38FDC"/>
</radialGradient>
<radialGradient id="paint39_radial_602_3296" cx="0" cy="0" r="1" gradientUnits="userSpaceOnUse" gradientTransform="translate(527.458 221.499) scale(5.61846)">
<stop stop-color="#F4FCFF"/>
<stop offset="1" stop-color="#C2C2C2"/>
</radialGradient>
<radialGradient id="paint40_radial_602_3296" cx="0" cy="0" r="1" gradientUnits="userSpaceOnUse" gradientTransform="translate(543.458 225.499) scale(5.61846)">
<stop stop-color="#FFF6F9"/>
<stop offset="1" stop-color="#D38FDC"/>
</radialGradient>
<radialGradient id="paint41_radial_602_3296" cx="0" cy="0" r="1" gradientUnits="userSpaceOnUse" gradientTransform="translate(553.458 245.499) scale(5.61846)">
<stop stop-color="#F4FCFF"/>
<stop offset="1" stop-color="#C2C2C2"/>
</radialGradient>
<radialGradient id="paint42_radial_602_3296" cx="0" cy="0" r="1" gradientUnits="userSpaceOnUse" gradientTransform="translate(543.458 265.499) scale(5.61846)">
<stop stop-color="#FFF6F9"/>
<stop offset="1" stop-color="#D38FDC"/>
</radialGradient>
<radialGradient id="paint43_radial_602_3296" cx="0" cy="0" r="1" gradientUnits="userSpaceOnUse" gradientTransform="translate(417.674 245.579) scale(5.61846)">
<stop stop-color="#FFF6F9"/>
<stop offset="1" stop-color="#D38FDC"/>
</radialGradient>
<radialGradient id="paint44_radial_602_3296" cx="0" cy="0" r="1" gradientUnits="userSpaceOnUse" gradientTransform="translate(437.674 250.579) scale(5.61846)">
<stop stop-color="#F4FCFF"/>
<stop offset="1" stop-color="#C2C2C2"/>
</radialGradient>
<radialGradient id="paint45_radial_602_3296" cx="0" cy="0" r="1" gradientUnits="userSpaceOnUse" gradientTransform="translate(407.458 180.499) scale(5.61846)">
<stop stop-color="#FFF6F9"/>
<stop offset="1" stop-color="#D38FDC"/>
</radialGradient>
</defs>
</svg>
