<svg width="120" height="120" viewBox="0 0 120 120" fill="none" xmlns="http://www.w3.org/2000/svg">
<path d="M58.9116 7.94165C58.7187 10.4843 59.7938 16.8238 64.6937 22.0004" stroke="url(#paint0_radial_386_9358)" stroke-width="7.75221" stroke-linecap="round"/>
<path d="M52.3977 34.0474C52.5145 31.5002 51.2506 25.1959 46.1982 20.1672" stroke="url(#paint1_radial_386_9358)" stroke-width="7.75221" stroke-linecap="round"/>
<path d="M60.4385 87.3595C62.3473 85.669 65.9917 80.3717 66.0818 73.2441" stroke="url(#paint2_radial_386_9358)" stroke-width="7.75221" stroke-linecap="round"/>
<path d="M82.9336 36.7819C85.4808 36.8986 91.7851 35.634 96.8132 30.5811" stroke="url(#paint3_radial_386_9358)" stroke-width="7.75221" stroke-linecap="round"/>
<path d="M41.3506 47.6908C42.7907 45.5866 45.0352 39.5608 43.3869 32.6262" stroke="url(#paint4_radial_386_9358)" stroke-width="7.75221" stroke-linecap="round"/>
<path d="M86.278 24.2774C85.4819 21.8549 82.0588 16.412 75.5488 13.5083" stroke="url(#paint5_radial_386_9358)" stroke-width="7.75221" stroke-linecap="round"/>
<path d="M100.119 45.4011C97.5708 45.5016 91.3971 47.2978 86.8174 52.7604" stroke="url(#paint6_radial_386_9358)" stroke-width="7.75221" stroke-linecap="round"/>
<path d="M100.119 45.4011C97.5708 45.5016 91.3971 47.2978 86.8174 52.7604" stroke="url(#paint7_radial_386_9358)" stroke-width="7.75221" stroke-linecap="round"/>
<path d="M63.9365 59.294C66.0822 57.9161 70.495 53.2393 71.6759 46.21" stroke="url(#paint8_radial_386_9358)" stroke-width="7.75221" stroke-linecap="round"/>
<path d="M63.9365 59.294C66.0822 57.9161 70.495 53.2393 71.6759 46.21" stroke="url(#paint9_radial_386_9358)" stroke-width="7.75221" stroke-linecap="round"/>
<path d="M90.505 67.4726C88.9781 65.4309 83.9991 61.3624 76.9033 60.6853" stroke="url(#paint10_radial_386_9358)" stroke-width="7.75221" stroke-linecap="round"/>
<path d="M51.5027 106.216C51.8959 103.697 51.3256 97.2919 46.8506 91.7439" stroke="url(#paint11_radial_386_9358)" stroke-width="7.75221" stroke-linecap="round"/>
<path d="M51.5027 106.216C51.8959 103.697 51.3256 97.2919 46.8506 91.7439" stroke="url(#paint12_radial_386_9358)" stroke-width="7.75221" stroke-linecap="round"/>
<path d="M19.2985 84.7904C19.5288 82.2513 18.5475 75.8967 13.7246 70.6479" stroke="url(#paint13_radial_386_9358)" stroke-width="7.75221" stroke-linecap="round"/>
<path d="M83.1357 77.6084C85.2046 79.0984 91.175 81.4862 98.1472 80.0037" stroke="url(#paint14_radial_386_9358)" stroke-width="7.75221" stroke-linecap="round"/>
<path d="M61.8115 95.2405C62.6059 97.6629 66.025 103.109 72.5326 106.017" stroke="url(#paint15_radial_386_9358)" stroke-width="7.75221" stroke-linecap="round"/>
<path d="M18.8721 28.3376C20.6006 30.2118 25.9714 33.747 33.0994 33.6921" stroke="url(#paint16_radial_386_9358)" stroke-width="7.75221" stroke-linecap="round"/>
<path d="M18.8721 28.3376C20.6006 30.2118 25.9714 33.747 33.0994 33.6921" stroke="url(#paint17_radial_386_9358)" stroke-width="7.75221" stroke-linecap="round"/>
<path d="M13.9756 56.7919C15.7918 55.0026 19.1481 49.5181 18.8577 42.3958" stroke="url(#paint18_radial_386_9358)" stroke-width="7.75221" stroke-linecap="round"/>
<path d="M52.1335 59.3306C49.6396 59.8609 43.8585 62.6757 40.2686 68.8338" stroke="url(#paint19_radial_386_9358)" stroke-width="7.75221" stroke-linecap="round"/>
<path d="M33.7886 24.2827C36.4661 24.2827 38.6367 22.1121 38.6367 19.4346C38.6367 16.757 36.4661 14.5864 33.7886 14.5864C31.111 14.5864 28.9404 16.757 28.9404 19.4346C28.9404 22.1121 31.111 24.2827 33.7886 24.2827Z" fill="url(#paint20_radial_386_9358)"/>
<path d="M69.5425 36.8029C72.22 36.8029 74.3906 34.6324 74.3906 31.9548C74.3906 29.2773 72.22 27.1067 69.5425 27.1067C66.8649 27.1067 64.6943 29.2773 64.6943 31.9548C64.6943 34.6324 66.8649 36.8029 69.5425 36.8029Z" fill="url(#paint21_radial_386_9358)"/>
<path d="M58.6079 51.0581C61.2854 51.0581 63.456 48.8875 63.456 46.2099C63.456 43.5324 61.2854 41.3618 58.6079 41.3618C55.9303 41.3618 53.7598 43.5324 53.7598 46.2099C53.7598 48.8875 55.9303 51.0581 58.6079 51.0581Z" fill="url(#paint22_radial_386_9358)"/>
<path d="M30.8276 58.7663C33.5052 58.7663 35.6758 56.5958 35.6758 53.9182C35.6758 51.2407 33.5052 49.0701 30.8276 49.0701C28.1501 49.0701 25.9795 51.2407 25.9795 53.9182C25.9795 56.5958 28.1501 58.7663 30.8276 58.7663Z" fill="url(#paint23_radial_386_9358)"/>
<path d="M27.0093 72.6743C29.6868 72.6743 31.8574 70.5037 31.8574 67.8262C31.8574 65.1486 29.6868 62.978 27.0093 62.978C24.3317 62.978 22.1611 65.1486 22.1611 67.8262C22.1611 70.5037 24.3317 72.6743 27.0093 72.6743Z" fill="url(#paint24_radial_386_9358)"/>
<path d="M52.6352 80.1784C55.3128 80.1784 57.4834 78.0079 57.4834 75.3303C57.4834 72.6528 55.3128 70.4822 52.6352 70.4822C49.9577 70.4822 47.7871 72.6528 47.7871 75.3303C47.7871 78.0079 49.9577 80.1784 52.6352 80.1784Z" fill="url(#paint25_radial_386_9358)"/>
<path d="M73.6343 93.0281C76.3118 93.0281 78.4824 90.8575 78.4824 88.1799C78.4824 85.5024 76.3118 83.3318 73.6343 83.3318C70.9567 83.3318 68.7861 85.5024 68.7861 88.1799C68.7861 90.8575 70.9567 93.0281 73.6343 93.0281Z" fill="url(#paint26_radial_386_9358)"/>
<path d="M33.6567 87.4153C36.3343 87.4153 38.5049 85.2447 38.5049 82.5671C38.5049 79.8896 36.3343 77.719 33.6567 77.719C30.9792 77.719 28.8086 79.8896 28.8086 82.5671C28.8086 85.2447 30.9792 87.4153 33.6567 87.4153Z" fill="url(#paint27_radial_386_9358)"/>
<path d="M90.521 96.5915C93.1985 96.5915 95.3691 94.4209 95.3691 91.7434C95.3691 89.0658 93.1985 86.8953 90.521 86.8953C87.8434 86.8953 85.6729 89.0658 85.6729 91.7434C85.6729 94.4209 87.8434 96.5915 90.521 96.5915Z" fill="url(#paint28_radial_386_9358)"/>
<path d="M102.063 64.0722C104.741 64.0722 106.911 61.9017 106.911 59.2241C106.911 56.5466 104.741 54.376 102.063 54.376C99.3854 54.376 97.2148 56.5466 97.2148 59.2241C97.2148 61.9017 99.3854 64.0722 102.063 64.0722Z" fill="url(#paint29_radial_386_9358)"/>
<path d="M33.7886 101.44C36.4661 101.44 38.6367 99.2693 38.6367 96.5918C38.6367 93.9142 36.4661 91.7437 33.7886 91.7437C31.111 91.7437 28.9404 93.9142 28.9404 96.5918C28.9404 99.2693 31.111 101.44 33.7886 101.44Z" fill="url(#paint30_radial_386_9358)"/>
<defs>
<radialGradient id="paint0_radial_386_9358" cx="0" cy="0" r="1" gradientUnits="userSpaceOnUse" gradientTransform="translate(60.5 8) rotate(86.5664) scale(25.045 17.4424)">
<stop stop-color="#F8BDD5"/>
<stop offset="0.4875" stop-color="#DB91DE"/>
<stop offset="1" stop-color="#6677BF"/>
</radialGradient>
<radialGradient id="paint1_radial_386_9358" cx="0" cy="0" r="1" gradientUnits="userSpaceOnUse" gradientTransform="translate(49 34) rotate(-90) scale(20 8.66676)">
<stop stop-color="#E3FFBF"/>
<stop offset="1" stop-color="#88BC87"/>
</radialGradient>
<radialGradient id="paint2_radial_386_9358" cx="0" cy="0" r="1" gradientUnits="userSpaceOnUse" gradientTransform="translate(60 84.5) rotate(-55.8403) scale(16.9189 7.07375)">
<stop stop-color="#E3FFBF"/>
<stop offset="1" stop-color="#88BC87"/>
</radialGradient>
<radialGradient id="paint3_radial_386_9358" cx="0" cy="0" r="1" gradientUnits="userSpaceOnUse" gradientTransform="translate(82.5005 36) rotate(-16.1134) scale(23.4201 14.2309)">
<stop stop-color="#F8BDD5"/>
<stop offset="0.570833" stop-color="#DB91DE"/>
<stop offset="1" stop-color="#6677BF"/>
</radialGradient>
<radialGradient id="paint4_radial_386_9358" cx="0" cy="0" r="1" gradientUnits="userSpaceOnUse" gradientTransform="translate(38.5 46) rotate(-74.9816) scale(21.225 10.9482)">
<stop stop-color="#F8BDD5"/>
<stop offset="0.482292" stop-color="#DB91DE"/>
<stop offset="1" stop-color="#6677BF"/>
</radialGradient>
<radialGradient id="paint5_radial_386_9358" cx="0" cy="0" r="1" gradientUnits="userSpaceOnUse" gradientTransform="translate(70.334 16.0608) rotate(86.9382) scale(35.8402 32.718)">
<stop stop-color="#76DAFF"/>
<stop offset="0.529167" stop-color="#D0C1FF"/>
<stop offset="1" stop-color="#FFA4C8"/>
</radialGradient>
<radialGradient id="paint6_radial_386_9358" cx="0" cy="0" r="1" gradientUnits="userSpaceOnUse" gradientTransform="translate(94.5005 47) rotate(148.496) scale(18.1797 11.5241)">
<stop stop-color="#F8BDD5"/>
<stop offset="0.492708" stop-color="#DB91DE"/>
<stop offset="1" stop-color="#6677BF"/>
</radialGradient>
<radialGradient id="paint7_radial_386_9358" cx="0" cy="0" r="1" gradientUnits="userSpaceOnUse" gradientTransform="translate(80.3524 47.1454) rotate(84.4576) scale(24.572 40.4296)">
<stop stop-color="#76DAFF"/>
<stop offset="0.529167" stop-color="#D0C1FF"/>
<stop offset="1" stop-color="#FFA4C8"/>
</radialGradient>
<radialGradient id="paint8_radial_386_9358" cx="0" cy="0" r="1" gradientUnits="userSpaceOnUse" gradientTransform="translate(62.5005 55.5) rotate(-49.844) scale(20.9344 12.4298)">
<stop stop-color="#F8BDD5"/>
<stop offset="0.51875" stop-color="#DB91DE"/>
<stop offset="1" stop-color="#6677BF"/>
</radialGradient>
<radialGradient id="paint9_radial_386_9358" cx="0" cy="0" r="1" gradientUnits="userSpaceOnUse" gradientTransform="translate(60.1749 49.3111) rotate(88.1811) scale(43.5045 23.6227)">
<stop stop-color="#76DAFF"/>
<stop offset="0.529167" stop-color="#D0C1FF"/>
<stop offset="1" stop-color="#FFA4C8"/>
</radialGradient>
<radialGradient id="paint10_radial_386_9358" cx="0" cy="0" r="1" gradientUnits="userSpaceOnUse" gradientTransform="translate(89 68) rotate(-144.462) scale(25.807 11.4679)">
<stop stop-color="#F8BDD5"/>
<stop offset="0.523958" stop-color="#DB91DE"/>
<stop offset="1" stop-color="#6677BF"/>
</radialGradient>
<radialGradient id="paint11_radial_386_9358" cx="0" cy="0" r="1" gradientUnits="userSpaceOnUse" gradientTransform="translate(47.0005 93.5) rotate(73.0725) scale(24.0416 8.02849)">
<stop stop-color="#F8BDD5"/>
<stop offset="0.529167" stop-color="#DB91DE"/>
<stop offset="1" stop-color="#6677BF"/>
</radialGradient>
<radialGradient id="paint12_radial_386_9358" cx="0" cy="0" r="1" gradientUnits="userSpaceOnUse" gradientTransform="translate(44.5395 95.174) rotate(88.9894) scale(48.1019 14.518)">
<stop stop-color="#76DAFF"/>
<stop offset="0.529167" stop-color="#D0C1FF"/>
<stop offset="1" stop-color="#FFA4C8"/>
</radialGradient>
<radialGradient id="paint13_radial_386_9358" cx="0" cy="0" r="1" gradientUnits="userSpaceOnUse" gradientTransform="translate(11.0005 74) rotate(88.7811) scale(47.0106 17.1118)">
<stop stop-color="#76DAFF"/>
<stop offset="0.529167" stop-color="#D0C1FF"/>
<stop offset="1" stop-color="#FFA4C8"/>
</radialGradient>
<radialGradient id="paint14_radial_386_9358" cx="0" cy="0" r="1" gradientUnits="userSpaceOnUse" gradientTransform="translate(75.8396 78.2869) rotate(64.0493) scale(16.363 73.0579)">
<stop stop-color="#76DAFF"/>
<stop offset="0.529167" stop-color="#D0C1FF"/>
<stop offset="1" stop-color="#FFA4C8"/>
</radialGradient>
<radialGradient id="paint15_radial_386_9358" cx="0" cy="0" r="1" gradientUnits="userSpaceOnUse" gradientTransform="translate(62.0005 95) rotate(48.2705) scale(24.7891 10.3642)">
<stop stop-color="#F8BDD5"/>
<stop offset="0.529167" stop-color="#DB91DE"/>
<stop offset="1" stop-color="#6677BF"/>
</radialGradient>
<radialGradient id="paint16_radial_386_9358" cx="0" cy="0" r="1" gradientUnits="userSpaceOnUse" gradientTransform="translate(24.9995 29) rotate(14.0362) scale(16.4924 11.0225)">
<stop stop-color="#F8BDD5"/>
<stop offset="0.513542" stop-color="#DB91DE"/>
<stop offset="1" stop-color="#6677BF"/>
</radialGradient>
<radialGradient id="paint17_radial_386_9358" cx="0" cy="0" r="1" gradientUnits="userSpaceOnUse" gradientTransform="translate(11.957 29.6069) rotate(81.8823) scale(17.9769 43.0121)">
<stop stop-color="#76DAFF"/>
<stop offset="0.529167" stop-color="#D0C1FF"/>
<stop offset="1" stop-color="#FFA4C8"/>
</radialGradient>
<radialGradient id="paint18_radial_386_9358" cx="0" cy="0" r="1" gradientUnits="userSpaceOnUse" gradientTransform="translate(10 54.5) rotate(-59.2373) scale(24.4387 15.2198)">
<stop stop-color="#F8BDD5"/>
<stop offset="0.508333" stop-color="#DB91DE"/>
<stop offset="1" stop-color="#6677BF"/>
</radialGradient>
<radialGradient id="paint19_radial_386_9358" cx="0" cy="0" r="1" gradientUnits="userSpaceOnUse" gradientTransform="translate(47.5 64) rotate(147.804) scale(15.9531 10.2319)">
<stop stop-color="#F8BDD5"/>
<stop offset="0.523958" stop-color="#DB91DE"/>
<stop offset="1" stop-color="#6677BF"/>
</radialGradient>
<radialGradient id="paint20_radial_386_9358" cx="0" cy="0" r="1" gradientUnits="userSpaceOnUse" gradientTransform="translate(32.5 19) rotate(93.8141) scale(7.51665 7.61344)">
<stop stop-color="#F8BDD5"/>
<stop offset="0.513542" stop-color="#DB91DE"/>
<stop offset="1" stop-color="#6677BF"/>
</radialGradient>
<radialGradient id="paint21_radial_386_9358" cx="0" cy="0" r="1" gradientUnits="userSpaceOnUse" gradientTransform="translate(68.0005 31) rotate(86.1859) scale(7.51665 7.61343)">
<stop stop-color="#F8BDD5"/>
<stop offset="0.508333" stop-color="#DB91DE"/>
<stop offset="1" stop-color="#6677BF"/>
</radialGradient>
<radialGradient id="paint22_radial_386_9358" cx="0" cy="0" r="1" gradientUnits="userSpaceOnUse" gradientTransform="translate(58.0824 44.7545) scale(5.44781 5.4478)">
<stop stop-color="#F4FCFF"/>
<stop offset="1" stop-color="#C2C2C2"/>
</radialGradient>
<radialGradient id="paint23_radial_386_9358" cx="0" cy="0" r="1" gradientUnits="userSpaceOnUse" gradientTransform="translate(30.3021 52.4628) scale(5.44781 5.44781)">
<stop stop-color="#F4FCFF"/>
<stop offset="1" stop-color="#C2C2C2"/>
</radialGradient>
<radialGradient id="paint24_radial_386_9358" cx="0" cy="0" r="1" gradientUnits="userSpaceOnUse" gradientTransform="translate(25.076 68.7737) rotate(-68.1035) scale(7.83918 7.94012)">
<stop stop-color="#F8BDD5"/>
<stop offset="0.513542" stop-color="#DB91DE"/>
<stop offset="1" stop-color="#6677BF"/>
</radialGradient>
<radialGradient id="paint25_radial_386_9358" cx="0" cy="0" r="1" gradientUnits="userSpaceOnUse" gradientTransform="translate(52.1097 73.8749) scale(5.44781 5.44781)">
<stop stop-color="#F4FCFF"/>
<stop offset="1" stop-color="#C2C2C2"/>
</radialGradient>
<radialGradient id="paint26_radial_386_9358" cx="0" cy="0" r="1" gradientUnits="userSpaceOnUse" gradientTransform="translate(72 85) rotate(69.7751) scale(10.1242 10.2546)">
<stop stop-color="#F8BDD5"/>
<stop offset="0.508333" stop-color="#DB91DE"/>
<stop offset="1" stop-color="#6677BF"/>
</radialGradient>
<radialGradient id="paint27_radial_386_9358" cx="0" cy="0" r="1" gradientUnits="userSpaceOnUse" gradientTransform="translate(31.7235 83.5152) rotate(90) scale(4.85022 4.91268)">
<stop stop-color="#E3FFBF"/>
<stop offset="1" stop-color="#88BC87"/>
</radialGradient>
<radialGradient id="paint28_radial_386_9358" cx="0" cy="0" r="1" gradientUnits="userSpaceOnUse" gradientTransform="translate(89.9954 90.288) scale(5.44781 5.44781)">
<stop stop-color="#F4FCFF"/>
<stop offset="1" stop-color="#C2C2C2"/>
</radialGradient>
<radialGradient id="paint29_radial_386_9358" cx="0" cy="0" r="1" gradientUnits="userSpaceOnUse" gradientTransform="translate(101 58) rotate(97.0641) scale(7.07552 7.16663)">
<stop stop-color="#F8BDD5"/>
<stop offset="0.471875" stop-color="#DB91DE"/>
<stop offset="1" stop-color="#6677BF"/>
</radialGradient>
<radialGradient id="paint30_radial_386_9358" cx="0" cy="0" r="1" gradientUnits="userSpaceOnUse" gradientTransform="translate(36 94.5) rotate(72.4744) scale(9.96243 10.0907)">
<stop stop-color="#F8BDD5"/>
<stop offset="0.523958" stop-color="#DB91DE"/>
<stop offset="1" stop-color="#6677BF"/>
</radialGradient>
</defs>
</svg>
