<svg width="600" height="600" viewBox="0 0 600 600" fill="none" xmlns="http://www.w3.org/2000/svg">
<g clip-path="url(#clip0_523_2348)">
<path opacity="0.1" d="M-294.656 472.992C-303.017 472.244 -311.433 473.593 -319.141 476.919C-348.349 490.091 -362.91 522.319 -366.927 552.444C-376.134 620.542 -347.391 686.497 -343.341 753.805C-341.172 790.184 -359.734 828.26 -357.943 861.159C-355.025 914.049 -303.853 883.962 -262.148 904.002C-213.048 927.653 -181.58 982.936 -138.151 1014.97C-115.892 1031.53 -89.0056 1045.47 -60.5725 1044.69C-53.8196 1044.6 -47.1532 1043.16 -40.9703 1040.44C-34.7874 1037.72 -29.2143 1033.79 -24.5831 1028.88C-19.9809 1023.52 -16.6838 1017.16 -14.9509 1010.32C-13.2179 1003.47 -13.096 996.312 -14.5952 989.409C-20.5205 961.058 -45.3018 943.13 -67.9534 927.455C-111.391 897.626 -160.359 876.789 -211.973 866.172C-231.294 862.02 -250.978 859.783 -270.738 859.494C-281.995 855.449 -293.742 852.925 -305.668 851.99C-285.906 833.198 -265.005 815.642 -243.084 799.421C-221.647 783.889 -199.366 769.511 -176.512 756.125C-174.541 756.215 -172.601 756.28 -170.623 756.425C-66.8664 763.749 -0.124357 881.006 84.5813 924.732C113.043 939.4 154.839 937.561 169.608 909.227C183.035 883.384 166.741 852.047 147.146 830.586C82.1842 759.361 -4.48382 750.992 -85.0403 710.443C-46.9736 681.911 6.59057 665.581 50.1782 645.375C58.3658 641.588 66.5326 637.786 74.6788 633.967L133.008 606.261C173.891 585.693 214.522 564.233 253.832 540.501C294.032 516.267 561.677 613.664 537.672 492.462C533.229 470.59 507.738 463.559 488.726 460.868C469.128 458.594 449.313 458.953 429.81 461.936C409.661 464.484 389.536 467.449 369.488 470.572C363.577 471.516 357.699 472.503 351.854 473.533C371.769 470.007 399.135 433.601 417.102 422.339C429.873 414.302 444.756 409.053 457.705 401.106C489.075 381.636 518.083 358.597 544.149 332.449C585.888 290.747 647.668 214.059 597.904 155.996C580.966 136.303 552.598 136.939 532.536 152.047C519.562 161.817 510.476 175.805 501.834 189.541C464.978 248.133 433.113 309.012 399.201 369.195C369.171 422.593 320.701 441.59 283.858 485.956L292.638 474.666C301.211 463.515 308.954 452.215 316.452 440.525C331.712 416.621 345.447 391.777 357.576 366.141C370.466 339.134 451.475 143.509 359.267 162.04C330.7 167.796 304.816 222.327 295.403 246.464C276.201 295.54 272.234 348.898 267.426 400.906C265.284 424.077 269.775 495.361 246.77 509.774C233.152 518.196 219.405 526.337 205.529 534.194C173.238 552.484 140.222 569.464 106.865 585.731C111.408 581.244 115.655 576.466 119.581 571.43C127.399 560.736 134.828 549.84 141.637 538.46C177.755 478.449 239.836 373.725 201.233 302.591C163.709 233.142 111.705 300.011 97.331 344.479C76.9409 408.011 52.209 536.904 69.994 602.998L70.1801 603.143C48.4776 613.342 26.7268 623.454 4.92779 633.478C-29.661 649.401 -64.1364 665.56 -98.6254 681.611C-74.4037 670.167 -49.3078 596.242 -39.319 573.186C-21.1642 531.408 -4.6532 485.665 -1.84718 439.815C0.89686 394.814 -26.1823 264.7 -97.3028 301.621C-112.944 309.765 -122.158 324.749 -129.073 340.425C-169.107 431.585 -139.168 561.733 -150.779 659.866C-151.713 667.85 -152.905 675.783 -153.862 683.799C-154.33 687.652 -154.602 691.527 -154.678 695.408C-162.528 699.358 -170.247 703.459 -177.852 707.798C-192.532 716.242 -206.439 725.933 -220.223 735.72C-234.259 745.171 -247.586 755.634 -260.099 767.026L-260.46 767.491C-248.849 744.454 -239.731 720.242 -233.261 695.268C-219.222 640.286 -224.526 570.559 -243.974 517.357C-248.799 502.61 -258.399 489.89 -271.259 481.207C-278.253 476.564 -286.295 473.741 -294.656 472.992Z" fill="#3575AA"/>
</g>
<defs>
<clipPath id="clip0_523_2348">
<rect width="600" height="600" fill="white"/>
</clipPath>
</defs>
</svg>
