<svg width="44" height="44" viewBox="0 0 44 44" fill="none" xmlns="http://www.w3.org/2000/svg">
<path fill-rule="evenodd" clip-rule="evenodd" d="M9.12108 31.8103C9.72855 31.4609 10.5082 31.6633 10.8624 32.2625C12.2662 34.6367 14.4122 36.4321 17.0587 37.5971C17.7009 37.8798 17.9891 38.6224 17.7025 39.2557C17.4159 39.889 16.663 40.1733 16.0208 39.8907C12.9454 38.5369 10.3653 36.4075 8.66257 33.5277C8.30833 32.9286 8.51361 32.1596 9.12108 31.8103Z" fill="#31BBED"/>
<path fill-rule="evenodd" clip-rule="evenodd" d="M33.7241 8.47391C32.0028 6.7401 29.548 6.10057 27.1448 6.77499C26.4684 6.9648 25.7641 6.57789 25.5717 5.91081C25.3792 5.24373 25.7715 4.54908 26.4479 4.35927C29.7383 3.43585 33.1616 4.31746 35.5436 6.71672C36.0356 7.21228 36.0271 8.00737 35.5247 8.4926C35.0222 8.97783 34.2161 8.96947 33.7241 8.47391Z" fill="#31BBED"/>
<path fill-rule="evenodd" clip-rule="evenodd" d="M20.6253 7.44658C20.2619 6.83194 19.2028 6.45919 18.127 7.06558C17.0552 7.66975 16.8667 8.73474 17.2237 9.33868L21.5115 16.5907C21.8658 17.1899 21.6605 17.9588 21.053 18.3082C20.4456 18.6575 19.666 18.4551 19.3117 17.8559L13.5946 8.18655C13.2312 7.57191 12.1722 7.19916 11.0964 7.80556C10.0246 8.40973 9.83605 9.47471 10.1931 10.0787L16.6248 20.9567C16.9791 21.5559 16.7738 22.3248 16.1663 22.6742C15.5589 23.0235 14.7792 22.8211 14.425 22.2219L11.5665 17.3872C11.2031 16.7726 10.144 16.3999 9.06823 17.0063C7.99638 17.6104 7.80786 18.6754 8.16494 19.2794L14.5966 30.1574C17.3281 34.7773 24.0686 36.2765 29.7847 33.0545C35.4969 29.8347 37.5274 23.4025 34.8022 18.7934L30.5144 11.5413C30.151 10.9267 29.092 10.5539 28.0162 11.1603C26.9443 11.7645 26.7558 12.8295 27.1129 13.4334L29.9714 18.2681C30.1425 18.5575 30.1893 18.9022 30.1014 19.2258C30.0135 19.5493 29.7982 19.8248 29.5033 19.991C26.8847 21.4671 26.0822 24.3211 27.2286 26.2601C27.5829 26.8593 27.3776 27.6282 26.7701 27.9776C26.1626 28.327 25.383 28.1245 25.0288 27.5253C23.4793 24.9046 24.1054 21.7489 26.1068 19.5185C26.6663 18.8949 26.8579 17.9879 26.4326 17.2686L20.6253 7.44658Z" fill="#31BBED"/>
</svg>
