<svg width="44" height="44" viewBox="0 0 44 44" fill="none" xmlns="http://www.w3.org/2000/svg">
<path d="M31.732 12.2679C29.5154 10.0512 27.1858 8.12448 24.8441 6.52413C27.5244 5.15994 30.0624 4.33988 32.2643 4.08583C35.0413 3.76543 37.093 4.35548 38.3688 5.63123C39.6445 6.90699 40.2346 8.95877 39.9142 11.7357C39.6601 13.9376 38.8401 16.4756 37.4759 19.156C35.8755 16.8142 33.9487 14.4846 31.732 12.2679Z" fill="#BF59ED"/>
<path fill-rule="evenodd" clip-rule="evenodd" d="M29.6681 14.3318C32.146 16.8097 34.2247 19.4218 35.8533 22.0003C34.2248 24.5786 32.1462 27.1905 29.6685 29.6682C27.1906 32.1461 24.5784 34.2249 21.9998 35.8535C19.4213 34.225 16.8093 32.1463 14.3315 29.6685C11.8538 27.1907 9.77509 24.5787 8.14656 22.0003C9.77515 19.4217 11.8539 16.8095 14.3319 14.3315C16.8096 11.8538 19.4215 9.77524 21.9998 8.14673C24.5782 9.77528 27.1903 11.854 29.6681 14.3318ZM21.9994 26.866C24.6861 26.866 26.8641 24.688 26.8641 22.0013C26.8641 19.3146 24.6861 17.1366 21.9994 17.1366C19.3127 17.1366 17.1347 19.3146 17.1347 22.0013C17.1347 24.688 19.3127 26.866 21.9994 26.866Z" fill="#BF59ED"/>
<path d="M24.8442 37.4761C27.186 35.8757 29.5157 33.9489 31.7324 31.7321C33.9489 29.5156 35.8755 27.1862 37.4758 24.8447C38.8399 27.5249 39.6598 30.0628 39.9138 32.2645C40.2342 35.0414 39.6441 37.093 38.3684 38.3688C37.0927 39.6445 35.0409 40.2345 32.2641 39.9142C30.0623 39.6602 27.5244 38.8402 24.8442 37.4761Z" fill="#BF59ED"/>
<path d="M12.2676 31.7324C14.4842 33.949 16.8137 35.8757 19.1554 37.4761C16.4753 38.84 13.9374 39.66 11.7357 39.9139C8.95897 40.2343 6.90731 39.6442 5.63161 38.3685C4.35592 37.0928 3.76586 35.0411 4.08618 32.2644C4.34015 30.0627 5.16006 27.5248 6.52403 24.8447C8.12434 27.1864 10.051 29.5158 12.2676 31.7324Z" fill="#BF59ED"/>
<path d="M6.52398 19.1559C8.12437 16.8141 10.0512 14.4844 12.268 12.2676C14.4844 10.0511 16.8139 8.12446 19.1554 6.52417C16.4752 5.16008 13.9373 4.3401 11.7355 4.08608C8.95866 3.76573 6.90695 4.35578 5.63123 5.63151C4.3555 6.90725 3.76544 8.95899 4.08582 11.7359C4.33985 13.9377 5.15986 16.4757 6.52398 19.1559Z" fill="#BF59ED"/>
</svg>
