<svg width="44" height="44" viewBox="0 0 44 44" fill="none" xmlns="http://www.w3.org/2000/svg">
<path d="M23.8747 4H20.1247C16.5892 4 14.8214 4 13.7231 5.07983C12.947 5.84279 12.7193 6.93431 12.6525 8.73528C14.1916 8.60826 16.011 8.60836 18.0646 8.60847H25.9349C27.9884 8.60836 29.8079 8.60826 31.347 8.73527C31.2801 6.93431 31.0524 5.84279 30.2764 5.07983C29.178 4 27.4102 4 23.8747 4Z" fill="#3BA9EA"/>
<path fill-rule="evenodd" clip-rule="evenodd" d="M25.75 11.3762H18.25C12.9467 11.3762 10.295 11.3762 8.64752 12.9959C7 14.6157 7 17.2226 7 22.4365V24.3826C7 28.8171 7 31.0344 8.12012 32.8162C9.24024 34.598 11.2574 35.5896 15.2918 37.5728C18.5836 39.1909 20.2295 40 22 40C23.7705 40 25.4164 39.1909 28.7082 37.5728C32.7426 35.5896 34.7598 34.598 35.8799 32.8162C37 31.0344 37 28.8171 37 24.3826V22.4365C37 17.2226 37 14.6157 35.3525 12.9959C33.705 11.3762 31.0533 11.3762 25.75 11.3762ZM20.3987 20.6346C21.1111 19.378 21.4674 18.7497 22 18.7497C22.5326 18.7497 22.8889 19.378 23.6013 20.6346L23.7857 20.9597C23.9881 21.3168 24.0894 21.4953 24.2472 21.6131C24.4051 21.7309 24.6016 21.7746 24.9948 21.8621L25.3528 21.9417C26.7363 22.2495 27.4281 22.4034 27.5927 22.9237C27.7573 23.4441 27.2857 23.9863 26.3424 25.0706L26.0984 25.3512C25.8304 25.6593 25.6964 25.8134 25.6361 26.004C25.5758 26.1946 25.5961 26.4002 25.6366 26.8113L25.6735 27.1856C25.8161 28.6324 25.8874 29.3558 25.4565 29.6774C25.0256 29.999 24.3779 29.7058 23.0824 29.1194L22.7473 28.9677C22.3792 28.801 22.1951 28.7177 22 28.7177C21.8049 28.7177 21.6208 28.801 21.2527 28.9677L20.9176 29.1194C19.6221 29.7058 18.9744 29.999 18.5435 29.6774C18.1126 29.3558 18.1839 28.6324 18.3265 27.1856L18.3634 26.8113C18.404 26.4002 18.4242 26.1946 18.3639 26.004C18.3036 25.8134 18.1696 25.6593 17.9016 25.3512L17.6576 25.0706C16.7143 23.9862 16.2427 23.4441 16.4073 22.9237C16.5719 22.4034 17.2637 22.2495 18.6472 21.9417L19.0052 21.8621C19.3983 21.7746 19.5949 21.7309 19.7528 21.6131C19.9106 21.4953 20.0119 21.3168 20.2143 20.9597L20.3987 20.6346Z" fill="#3BA9EA"/>
</svg>
