<svg width="44" height="44" viewBox="0 0 44 44" fill="none" xmlns="http://www.w3.org/2000/svg">
<path fill-rule="evenodd" clip-rule="evenodd" d="M6.67114 9.54834C6 10.5165 6 13.3943 6 19.15V21.9844C6 32.133 13.5359 37.0579 18.2641 39.1491C19.5467 39.7164 20.188 40 22 40C23.812 40 24.4533 39.7164 25.7359 39.1491C30.4641 37.0579 38 32.133 38 21.9844V19.15C38 13.3943 38 10.5165 37.3289 9.54834C36.6577 8.58017 33.9852 7.65392 28.6402 5.80143L27.6218 5.44849C24.8356 4.48283 23.4425 4 22 4C20.5575 4 19.1644 4.48283 16.3782 5.44849L15.3598 5.80143C10.0148 7.65392 7.34228 8.58017 6.67114 9.54834ZM19.9756 15.454L19.7426 15.8773C19.4866 16.3422 19.3586 16.5746 19.1591 16.728C18.9595 16.8814 18.711 16.9383 18.214 17.0522L17.7614 17.1559C16.0123 17.5566 15.1378 17.7569 14.9297 18.4344C14.7217 19.1118 15.3179 19.8177 16.5103 21.2295L16.8188 21.5948C17.1576 21.996 17.3271 22.1966 17.4033 22.4448C17.4795 22.6929 17.4539 22.9606 17.4027 23.4958L17.356 23.9832C17.1757 25.8668 17.0856 26.8087 17.6303 27.2274C18.1751 27.646 18.9939 27.2643 20.6316 26.5008L21.0553 26.3033C21.5207 26.0864 21.7533 25.9779 22 25.9779C22.2467 25.9779 22.4793 26.0864 22.9447 26.3033L23.3684 26.5008C25.0061 27.2643 25.8249 27.646 26.3697 27.2274C26.9144 26.8087 26.8243 25.8668 26.644 23.9832L26.5973 23.4958C26.5461 22.9606 26.5205 22.6929 26.5967 22.4448C26.6729 22.1966 26.8424 21.996 27.1812 21.5948L27.4897 21.2295C28.6821 19.8177 29.2783 19.1118 29.0703 18.4344C28.8622 17.7569 27.9877 17.5566 26.2386 17.1559L25.786 17.0522C25.289 16.9383 25.0405 16.8814 24.8409 16.728C24.6414 16.5746 24.5134 16.3422 24.2575 15.8773L24.0244 15.454C23.1237 13.818 22.6733 13 22 13C21.3267 13 20.8763 13.818 19.9756 15.454Z" fill="#8759ED"/>
</svg>
