<svg width="80" height="80" viewBox="0 0 80 80" fill="none" xmlns="http://www.w3.org/2000/svg">
<rect x="16.5" y="16.5" width="47" height="47" rx="9.5" stroke="#1E232D"/>
<path d="M38.2451 35.5932C39.4041 33.6202 39.9836 32.6337 40.8499 32.6337C41.7163 32.6337 42.2958 33.6202 43.4548 35.5932L43.7547 36.1037C44.084 36.6643 44.2487 36.9447 44.5054 37.1297C44.7622 37.3146 45.082 37.3833 45.7215 37.5206L46.3038 37.6456C48.5544 38.1289 49.6797 38.3705 49.9475 39.1875C50.2152 40.0045 49.448 40.8558 47.9137 42.5585L47.5167 42.999C47.0807 43.4828 46.8627 43.7247 46.7647 44.024C46.6666 44.3233 46.6995 44.6461 46.7655 45.2916L46.8255 45.8793C47.0575 48.151 47.1734 49.2869 46.4725 49.7918C45.7716 50.2967 44.718 49.8364 42.6107 48.9156L42.0655 48.6774C41.4667 48.4158 41.1673 48.2849 40.8499 48.2849C40.5326 48.2849 40.2332 48.4158 39.6343 48.6774L39.0892 48.9156C36.9819 49.8364 35.9283 50.2967 35.2274 49.7918C34.5264 49.2869 34.6424 48.151 34.8744 45.8793L34.9344 45.2916C35.0003 44.6461 35.0333 44.3233 34.9352 44.024C34.8371 43.7247 34.6191 43.4828 34.1831 42.999L33.7862 42.5585C32.2518 40.8558 31.4847 40.0045 31.7524 39.1875C32.0201 38.3705 33.1454 38.1289 35.3961 37.6456L35.9783 37.5206C36.6179 37.3833 36.9377 37.3146 37.1944 37.1297C37.4512 36.9447 37.6159 36.6643 37.9452 36.1037L38.2451 35.5932Z" fill="#31BBED"/>
<path d="M32.6337 30.0814C32.666 29.9733 32.8681 29.9727 32.9012 30.0805C33.0521 30.573 33.332 31.301 33.7552 31.6999C34.1784 32.0988 34.9474 32.3594 35.4673 32.4993C35.5812 32.53 35.5819 32.7218 35.4682 32.7532C34.9493 32.8964 34.1821 33.162 33.7618 33.5636C33.3415 33.9651 33.0668 34.6949 32.9194 35.1884C32.8871 35.2964 32.685 35.2971 32.6519 35.1892C32.501 34.6967 32.2211 33.9687 31.7979 33.5698C31.3748 33.171 30.6058 32.9103 30.0858 32.7704C29.9719 32.7398 29.9712 32.548 30.0849 32.5166C30.6039 32.3734 31.371 32.1078 31.7913 31.7062C32.2117 31.3046 32.4863 30.5749 32.6337 30.0814Z" fill="#31BBED"/>
<path fill-rule="evenodd" clip-rule="evenodd" d="M47.847 30.846C48.2929 30.846 48.6544 31.189 48.6544 31.6121V31.8675H48.9235C49.3694 31.8675 49.7309 32.2105 49.7309 32.6337C49.7309 33.0568 49.3694 33.3998 48.9235 33.3998H48.6544V33.6552C48.6544 34.0784 48.2929 34.4214 47.847 34.4214C47.4012 34.4214 47.0397 34.0784 47.0397 33.6552V33.3998H46.7706C46.3247 33.3998 45.9632 33.0568 45.9632 32.6337C45.9632 32.2105 46.3247 31.8675 46.7706 31.8675H47.0397V31.6121C47.0397 31.189 47.4012 30.846 47.847 30.846Z" fill="#31BBED"/>
<rect x="8.5" y="8.5" width="63" height="62" rx="13.5" stroke="#1E232D"/>
</svg>
