<svg width="80" height="80" viewBox="0 0 80 80" fill="none" xmlns="http://www.w3.org/2000/svg">
<rect x="16.5" y="16.5" width="47" height="47" rx="9.5" stroke="#1E232D"/>
<path d="M44.866 35.1339C43.7577 34.0256 42.5929 33.0622 41.422 32.2621C42.7622 31.58 44.0312 31.1699 45.1322 31.0429C46.5206 30.8827 47.5465 31.1777 48.1844 31.8156C48.8223 32.4535 49.1173 33.4794 48.9571 34.8679C48.8301 35.9688 48.42 37.2378 47.7379 38.578C46.9378 37.4071 45.9744 36.2423 44.866 35.1339Z" fill="#8759ED"/>
<path fill-rule="evenodd" clip-rule="evenodd" d="M43.8341 36.1659C45.073 37.4048 46.1124 38.7109 46.9266 40.0001C46.1124 41.2893 45.0731 42.5953 43.8342 43.8341C42.5953 45.0731 41.2892 46.1125 39.9999 46.9268C38.7107 46.1125 37.4046 45.0731 36.1658 43.8342C34.9269 42.5954 33.8875 41.2894 33.0733 40.0001C33.8876 38.7108 34.927 37.4047 36.1659 36.1658C37.4048 34.9269 38.7107 33.8876 39.9999 33.0734C41.2891 33.8876 42.5952 34.927 43.8341 36.1659ZM39.9997 42.433C41.3431 42.433 42.4321 41.344 42.4321 40.0007C42.4321 38.6573 41.3431 37.5683 39.9997 37.5683C38.6564 37.5683 37.5674 38.6573 37.5674 40.0007C37.5674 41.344 38.6564 42.433 39.9997 42.433Z" fill="#8759ED"/>
<path d="M41.4221 47.738C42.593 46.9378 43.7578 45.9744 44.8662 44.8661C45.9744 43.7578 46.9378 42.5931 47.7379 41.4223C48.4199 42.7624 48.8299 44.0314 48.9569 45.1323C49.1171 46.5207 48.8221 47.5465 48.1842 48.1844C47.5463 48.8222 46.5205 49.1173 45.132 48.9571C44.0311 48.8301 42.7622 48.4201 41.4221 47.738Z" fill="#8759ED"/>
<path d="M35.1338 44.8662C36.2421 45.9745 37.4068 46.9379 38.5777 47.738C37.2376 48.42 35.9687 48.83 34.8679 48.957C33.4795 49.1171 32.4537 48.8221 31.8158 48.1842C31.178 47.5464 30.8829 46.5206 31.0431 45.1322C31.1701 44.0313 31.58 42.7624 32.262 41.4224C33.0622 42.5932 34.0255 43.7579 35.1338 44.8662Z" fill="#8759ED"/>
<path d="M32.262 38.578C33.0622 37.407 34.0256 36.2422 35.134 35.1338C36.2422 34.0256 37.4069 33.0622 38.5777 32.2621C37.2376 31.58 35.9686 31.17 34.8677 31.043C33.4793 30.8829 32.4535 31.1779 31.8156 31.8158C31.1777 32.4536 30.8827 33.4795 31.0429 34.8679C31.1699 35.9689 31.5799 37.2378 32.262 38.578Z" fill="#8759ED"/>
<rect x="8.5" y="8.5" width="63" height="62" rx="13.5" stroke="#1E232D"/>
</svg>
