<svg width="80" height="80" viewBox="0 0 80 80" fill="none" xmlns="http://www.w3.org/2000/svg">
<rect x="16.5" y="16.5" width="47" height="47" rx="9.5" stroke="#1E232D"/>
<path fill-rule="evenodd" clip-rule="evenodd" d="M49.4105 36.5747C49.3559 36.5714 49.2964 36.5714 49.2348 36.5714L49.2194 36.5714H46.8015C44.8086 36.5714 43.1033 38.0595 43.1033 40C43.1033 41.9405 44.8086 43.4286 46.8015 43.4286H49.2194L49.2348 43.4286C49.2964 43.4286 49.3559 43.4286 49.4105 43.4254C50.22 43.3769 50.9359 42.776 50.9961 41.9367C51.0001 41.8816 51 41.8223 51 41.7673L51 41.7524V38.2476L51 38.2327C51 38.1777 51.0001 38.1184 50.9961 38.0634C50.9359 37.2241 50.22 36.6231 49.4105 36.5747ZM46.5872 40.9143C47.1002 40.9143 47.5162 40.5049 47.5162 40C47.5162 39.4951 47.1002 39.0857 46.5872 39.0857C46.0741 39.0857 45.6581 39.4951 45.6581 40C45.6581 40.5049 46.0741 40.9143 46.5872 40.9143Z" fill="#538AF6"/>
<path fill-rule="evenodd" clip-rule="evenodd" d="M49.2341 44.8C49.3778 44.7965 49.4866 44.9227 49.4476 45.054C49.2541 45.7054 48.947 46.2605 48.4542 46.728C47.7329 47.4122 46.8183 47.7159 45.6882 47.86C44.5902 48 43.1872 48 41.4158 48H39.3794C37.608 48 36.205 48 35.107 47.86C33.9769 47.7159 33.0623 47.4122 32.341 46.728C31.6196 46.0438 31.2995 45.1762 31.1476 44.1043C31 43.0627 31 41.7318 31 40.0516V39.9484C31 38.2682 31 36.9373 31.1476 35.8958C31.2995 34.8238 31.6196 33.9562 32.341 33.272C33.0623 32.5878 33.9769 32.2841 35.107 32.14C36.205 32 37.608 32 39.3794 32L41.4158 32C43.1872 32 44.5902 32 45.6882 32.14C46.8183 32.2841 47.7329 32.5878 48.4542 33.272C48.947 33.7394 49.2541 34.2946 49.4476 34.946C49.4866 35.0773 49.3778 35.2035 49.2341 35.2L46.8015 35.2C44.0673 35.2 41.6575 37.2488 41.6575 40C41.6575 42.7512 44.0673 44.8 46.8015 44.8L49.2341 44.8ZM34.6145 35.6571C34.2152 35.6571 33.8916 35.9641 33.8916 36.3429C33.8916 36.7216 34.2152 37.0286 34.6145 37.0286H38.4699C38.8691 37.0286 39.1928 36.7216 39.1928 36.3429C39.1928 35.9641 38.8691 35.6571 38.4699 35.6571H34.6145Z" fill="#538AF6"/>
<rect x="8.5" y="8.5" width="63" height="62" rx="13.5" stroke="#1E232D"/>
</svg>
