<svg width="80" height="80" viewBox="0 0 80 80" fill="none" xmlns="http://www.w3.org/2000/svg">
<rect x="16.5" y="16.5" width="47" height="47" rx="9.5" stroke="#1E232D"/>
<path d="M46 36C46 39.3137 43.3137 42 40 42C36.6863 42 34 39.3137 34 36C34 32.6863 36.6863 30 40 30C43.3137 30 46 32.6863 46 36Z" fill="#31BBED"/>
<path d="M33.0335 38.7835C31.2216 39.816 30 41.7654 30 44C30 47.3137 32.6863 50 36 50C39.3137 50 42 47.3137 42 44C42 43.7437 41.9839 43.4911 41.9527 43.2433C41.3301 43.4107 40.6755 43.5 40 43.5C36.8414 43.5 34.1388 41.5474 33.0335 38.7835Z" fill="#31BBED"/>
<path d="M43.3866 42.6937C43.4611 43.1179 43.5 43.5544 43.5 44C43.5 46.0906 42.6446 47.9815 41.2647 49.3416C42.0849 49.7625 43.0147 50 44 50C47.3137 50 50 47.3137 50 44C50 41.7654 48.7784 39.8161 46.9665 38.7835C46.2876 40.4811 45.0062 41.8726 43.3866 42.6937Z" fill="#31BBED"/>
<rect x="8.5" y="8.5" width="63" height="62" rx="13.5" stroke="#1E232D"/>
</svg>
