<svg width="80" height="80" viewBox="0 0 80 80" fill="none" xmlns="http://www.w3.org/2000/svg">
<rect x="16.5" y="16.5" width="47" height="47" rx="9.5" stroke="#1E232D"/>
<path d="M43.7209 35.3488C43.7209 36.3763 42.888 37.2093 41.8605 37.2093C40.833 37.2093 40 36.3763 40 35.3488C40 34.3213 40.833 33.4884 41.8605 33.4884C42.888 33.4884 43.7209 34.3213 43.7209 35.3488Z" fill="#BF59ED"/>
<path d="M50 35.7537C50.0001 35.3801 50.0002 35.1121 49.9628 34.8759C49.8273 34.0206 49.3378 33.2872 48.6478 32.8293C48.5697 32.7774 48.4713 32.8451 48.4838 32.938C48.5838 33.6818 48.6011 34.565 48.604 35.5288C48.6045 35.6079 48.6046 35.7016 48.6046 35.814V35.9728V36.146V43.854C48.6046 43.912 48.6046 43.9697 48.6046 44.0272V44.186C48.6046 44.2985 48.6045 44.3923 48.604 44.4715C48.6011 45.4352 48.5838 46.3183 48.4838 47.062C48.4713 47.1549 48.5697 47.2226 48.6478 47.1707C49.3378 46.7128 49.8273 45.9794 49.9628 45.1241C50.0002 44.8879 50.0001 44.6199 50 44.2463L50 44.186V35.814L50 35.7537Z" fill="#BF59ED"/>
<path d="M31.3954 35.814C31.3954 35.7018 31.3955 35.6083 31.396 35.5292C31.3961 35.4688 31.3964 35.4086 31.3967 35.3488C31.4014 34.455 31.4225 33.6353 31.5162 32.938C31.5287 32.8451 31.4303 32.7774 31.3522 32.8293C30.6622 33.2872 30.1727 34.0206 30.0372 34.8759C29.9998 35.1121 29.9999 35.3801 30 35.7537L30 35.814V44.186L30 44.2463C29.9999 44.6199 29.9998 44.8879 30.0372 45.1241C30.1727 45.9794 30.6622 46.7128 31.3522 47.1707C31.4303 47.2226 31.5287 47.1549 31.5162 47.062C31.4225 46.3647 31.4014 45.545 31.3967 44.6512C31.3964 44.5913 31.3961 44.5312 31.396 44.4708C31.3955 44.3917 31.3954 44.2982 31.3954 44.186V44.0399C31.3954 43.9782 31.3954 43.9162 31.3954 43.854L31.3954 36.228L31.3954 36.146C31.3954 36.0838 31.3954 36.0218 31.3954 35.9601V35.814Z" fill="#BF59ED"/>
<path fill-rule="evenodd" clip-rule="evenodd" d="M44.0853 30.1084C43.2789 30 42.2535 30 40.9813 30H39.0187C37.7466 30 36.7211 30 35.9147 30.1084C35.0774 30.221 34.3724 30.4618 33.8124 31.0217C33.2525 31.5816 33.0117 32.2866 32.8991 33.124C32.7907 33.9304 32.7907 34.9558 32.7907 36.228V43.772C32.7907 45.0442 32.7907 46.0696 32.8991 46.876C33.0117 47.7134 33.2525 48.4184 33.8124 48.9783C34.3724 49.5382 35.0774 49.779 35.9147 49.8916C36.7211 50 37.7466 50 39.0187 50H40.9813C42.2534 50 43.2789 50 44.0853 49.8916C44.9226 49.779 45.6276 49.5382 46.1876 48.9783C46.7475 48.4184 46.9883 47.7134 47.1009 46.876C47.2093 46.0696 47.2093 45.0441 47.2093 43.772V36.228C47.2093 34.9559 47.2093 33.9304 47.1009 33.124C46.9883 32.2866 46.7475 31.5816 46.1876 31.0217C45.6276 30.4618 44.9226 30.221 44.0853 30.1084ZM44.8085 44.6302L45.7946 45.6708C45.8134 45.134 45.8139 44.4954 45.8139 43.7209V36.2791C45.8139 34.9438 45.8125 34.0125 45.718 33.3099C45.6262 32.6273 45.4584 32.2658 45.2009 32.0084C44.9435 31.7509 44.582 31.5831 43.8994 31.4913C43.1968 31.3968 42.2655 31.3953 40.9302 31.3953H39.0698C37.7345 31.3953 36.8032 31.3968 36.1006 31.4913C35.418 31.5831 35.0565 31.7509 34.7991 32.0084C34.5416 32.2658 34.3738 32.6273 34.282 33.3099C34.1875 34.0125 34.1861 34.9438 34.1861 36.2791V40.904L34.1894 40.9007C35.1062 39.96 36.5246 40.0245 37.3727 41.019L40.313 44.4668C40.5485 44.7429 40.8584 44.7555 41.0961 44.5596L41.3005 44.3912C42.3764 43.5045 43.8517 43.6204 44.8085 44.6302Z" fill="#BF59ED"/>
<rect x="8.5" y="8.5" width="63" height="62" rx="13.5" stroke="#1E232D"/>
</svg>
