<svg width="72" height="72" viewBox="0 0 72 72" fill="none" xmlns="http://www.w3.org/2000/svg">
<path d="M53.3015 9H56.0924C60.7814 20.7718 63.1618 30.1593 63.1499 38.7772C63.1384 47.1992 60.8435 54.7671 56.3933 63.0001H53.4208C58.2089 54.5128 60.5671 47.0472 60.5785 38.7733C60.5899 30.432 58.2172 21.1361 53.3015 9Z" fill="#3575AA"/>
<path d="M16.2076 9H18.9985C14.0828 21.1361 11.7102 30.432 11.7216 38.7733C11.733 47.0472 14.0912 54.5128 18.8793 63.0001H15.9067C11.4565 54.7671 9.16174 47.1992 9.15019 38.7772C9.13836 30.1593 11.5186 20.7718 16.2076 9Z" fill="#3575AA"/>
<path d="M34.8646 47.3193V62.9999H37.436V47.319L47.969 36.2595L46.1507 34.3503L36.1501 44.8508L26.1496 34.3503L24.3313 36.2595L34.8646 47.3193Z" fill="#C77897"/>
</svg>
