<svg width="72" height="72" viewBox="0 0 72 72" fill="none" xmlns="http://www.w3.org/2000/svg">
<path d="M17.9189 7.08751C17.8646 6.89802 17.7736 6.72106 17.6509 6.56676C17.5283 6.41245 17.3764 6.28382 17.204 6.1882C17.0317 6.09258 16.8422 6.03184 16.6463 6.00946C16.4505 5.98708 16.2521 6.00349 16.0626 6.05776C15.8731 6.11203 15.6962 6.20309 15.5419 6.32575C15.3876 6.44841 15.2589 6.60025 15.1633 6.77262C15.0677 6.94499 15.007 7.1345 14.9846 7.33035C14.9622 7.52619 14.9786 7.72452 15.0329 7.91401C17.7411 17.391 16.0424 25.4535 14.2416 33.9878C12.2174 43.5765 10.1256 53.4938 15.0974 65.0918C15.1751 65.2728 15.2877 65.4367 15.4288 65.5742C15.5698 65.7118 15.7366 65.8201 15.9196 65.8932C16.1025 65.9662 16.2981 66.0026 16.4951 66C16.6921 65.9975 16.8866 65.9562 17.0676 65.8785C17.2487 65.8008 17.4126 65.6882 17.5501 65.5471C17.6876 65.4061 17.796 65.2393 17.8691 65.0563C17.9421 64.8734 17.9784 64.6778 17.9759 64.4808C17.9734 64.2839 17.9321 64.0893 17.8544 63.9083C13.2569 53.1833 15.1619 44.1593 17.1756 34.6058C18.9734 26.0895 20.8311 17.283 17.9189 7.08751ZM46.0476 25.7528C48.7446 23.9625 50.1096 21.8063 50.1096 19.3215C50.1096 13.653 42.5894 8.37901 38.1464 6.15901C37.7905 5.98099 37.3785 5.95161 37.001 6.07736C36.6235 6.2031 36.3114 6.47366 36.1334 6.82951C35.9554 7.18537 35.926 7.59737 36.0517 7.97488C36.1775 8.35239 36.448 8.66449 36.8039 8.84251C40.7886 10.8353 47.1089 15.4403 47.1089 19.3223C47.1089 21.1035 45.6614 22.7295 42.8039 24.1598C42.5791 24.2726 42.3863 24.4402 42.2432 24.647C42.1001 24.8538 42.0112 25.0932 41.9847 25.3433C41.9582 25.5934 41.9949 25.8462 42.0915 26.0784C42.1881 26.3106 42.3415 26.5148 42.5376 26.6723C42.6816 26.787 56.9751 38.415 56.9751 52.5008C56.9262 55.0933 56.3235 57.6453 55.2074 59.9858C54.5045 61.3951 54.0858 62.929 53.9751 64.5C53.9751 64.8978 54.1332 65.2794 54.4145 65.5607C54.6958 65.842 55.0773 66 55.4751 66C55.873 66 56.2545 65.842 56.5358 65.5607C56.8171 65.2794 56.9751 64.8978 56.9751 64.5C57.1026 63.3264 57.4426 62.1858 57.9786 61.134C59.2504 58.4307 59.931 55.4872 59.9751 52.5C59.9751 39.8325 50.0586 29.4375 46.0476 25.7528Z" fill="#3575AA"/>
<path d="M38.9751 36C36.6017 36 34.2816 36.7038 32.3083 38.0224C30.3349 39.3409 28.7968 41.2151 27.8885 43.4078C26.9803 45.6005 26.7427 48.0133 27.2057 50.3411C27.6687 52.6689 28.8116 54.807 30.4898 56.4853C32.168 58.1635 34.3062 59.3064 36.634 59.7694C38.9618 60.2324 41.3746 59.9948 43.5673 59.0866C45.76 58.1783 47.6342 56.6402 48.9527 54.6668C50.2713 52.6935 50.9751 50.3734 50.9751 48C50.9717 44.8184 49.7064 41.7682 47.4567 39.5184C45.207 37.2687 42.1567 36.0034 38.9751 36ZM38.9751 57C37.1951 57 35.455 56.4722 33.975 55.4832C32.4949 54.4943 31.3414 53.0887 30.6602 51.4442C29.979 49.7996 29.8008 47.99 30.148 46.2442C30.4953 44.4984 31.3525 42.8947 32.6111 41.636C33.8698 40.3774 35.4735 39.5202 37.2193 39.1729C38.9651 38.8257 40.7747 39.0039 42.4193 39.6851C44.0638 40.3663 45.4694 41.5198 46.4583 42.9999C47.4473 44.4799 47.9751 46.22 47.9751 48C47.9725 50.3862 47.0235 52.6738 45.3362 54.3611C43.6489 56.0484 41.3613 56.9974 38.9751 57Z" fill="#C77897"/>
</svg>
