<svg width="72" height="72" viewBox="0 0 72 72" fill="none" xmlns="http://www.w3.org/2000/svg">
<path d="M60.0195 8H12.5595C11.6155 8 10.7101 8.37505 10.0425 9.04255C9.375 9.7101 9 10.6155 9 11.5595V28.9713C9 54.6888 30.802 63.2018 35.192 64.6553C35.9045 64.8928 36.6745 64.8928 37.387 64.6553C41.777 63.2018 63.579 54.6888 63.579 28.9713V11.5595C63.579 10.6155 63.204 9.7101 62.536 9.04255C61.8685 8.37505 60.9635 8 60.0195 8ZM61.206 28.9713C61.206 53.0573 40.739 61.0658 36.6455 62.4008C36.4165 62.4903 36.1625 62.4903 35.9335 62.4008C31.84 61.0658 11.373 53.0573 11.373 28.9713V11.5595C11.373 11.2449 11.498 10.9431 11.7205 10.7206C11.943 10.498 12.2448 10.373 12.5595 10.373H60.0195C60.334 10.373 60.636 10.498 60.8585 10.7206C61.081 10.9431 61.206 11.2449 61.206 11.5595V28.9713Z" fill="#3575AA"/>
<path d="M47.3844 36.4998C42.3479 33.4128 38.2379 29.0563 35.4649 23.8655C34.8984 22.8097 33.9729 21.9906 32.8499 21.5509C31.7264 21.1112 30.477 21.0788 29.3189 21.4594L29.2297 21.4902C28.512 21.7378 27.8548 22.1366 27.3038 22.6588C26.7528 23.181 26.3213 23.8141 26.0392 24.5143C25.758 25.2048 25.6311 25.9453 25.6671 26.6843C25.7032 27.4233 25.9013 28.1433 26.2479 28.7938C29.8675 35.5808 35.2399 41.2753 41.8259 45.3053C42.4709 45.6998 43.1989 45.9453 43.9569 46.0243C44.7149 46.1028 45.4834 46.0128 46.2069 45.7603C47.1409 45.4398 47.9684 44.8648 48.5934 44.1023C49.2189 43.3393 49.6159 42.4203 49.7389 41.4508C49.8619 40.4818 49.7064 39.5018 49.2894 38.6253C48.8724 37.7488 48.2119 37.0113 47.3839 36.4988L47.3844 36.4998ZM48.3844 42.3478C48.1609 42.9003 47.8194 43.4003 47.3839 43.8128C46.9484 44.2248 46.4289 44.5393 45.8614 44.7343C45.2919 44.9333 44.6864 45.0043 44.0899 44.9423C43.4929 44.8803 42.9199 44.6873 42.4119 44.3763C35.9889 40.4458 30.7494 34.8923 27.2192 28.2728C26.9468 27.7608 26.791 27.1943 26.7629 26.6123C26.7347 26.0308 26.8348 25.4478 27.0562 24.9048C27.2786 24.3528 27.6187 23.8533 28.0529 23.4413C28.4871 23.0293 29.0051 22.7145 29.5708 22.5187L29.6508 22.4911C30.5634 22.1915 31.5474 22.2171 32.4324 22.5635C33.3174 22.9098 34.0464 23.555 34.4934 24.3863C37.3559 29.7443 41.5979 34.2413 46.7969 37.4278C47.6034 37.9248 48.2044 38.6893 48.4944 39.5883C48.7844 40.4873 48.7454 41.4638 48.3844 42.3473V42.3478Z" fill="#C77897" stroke="#C77897" stroke-width="0.25"/>
<path d="M54.6001 38.8845L52.1751 39.522C51.9846 38.3695 51.5286 37.28 50.8421 36.3385L52.6171 34.38C52.6666 34.3265 52.7051 34.264 52.7306 34.1965C52.7556 34.1285 52.7671 34.0565 52.7641 33.985C52.7611 33.913 52.7441 33.8425 52.7136 33.778C52.6826 33.7135 52.6396 33.6555 52.5861 33.608C52.5321 33.56 52.4696 33.524 52.4011 33.5005C52.3331 33.4775 52.2606 33.468 52.1881 33.473C52.1156 33.478 52.0446 33.497 51.9796 33.529C51.9141 33.5615 51.8556 33.606 51.8071 33.6605L50.1351 35.5055C49.7116 35.073 49.2361 34.693 48.7196 34.3745C47.9791 33.921 47.2626 33.434 46.5666 32.922L48.7806 31.334C48.8971 31.2485 48.9761 31.121 48.9996 30.9795C49.0231 30.838 48.9896 30.694 48.9061 30.5785C48.8231 30.463 48.6966 30.3855 48.5546 30.3625C48.4131 30.34 48.2666 30.3735 48.1481 30.4565L45.6676 32.235C44.5441 31.344 43.4851 30.376 42.4981 29.3385L44.3111 27.128C44.3566 27.072 44.3911 27.008 44.4121 26.9395C44.4331 26.871 44.4406 26.799 44.4336 26.728C44.4266 26.657 44.4056 26.5885 44.3716 26.526C44.3381 26.4635 44.2921 26.4085 44.2366 26.364C44.1811 26.3195 44.1171 26.2865 44.0481 26.2665C43.9791 26.2465 43.9071 26.2405 43.8351 26.2485C43.7636 26.2565 43.6941 26.2785 43.6306 26.313C43.5666 26.3475 43.5106 26.394 43.4646 26.45L41.7571 28.532C40.5666 27.185 39.4981 25.736 38.5626 24.2018L40.8191 22.8647C40.8811 22.8277 40.9356 22.7792 40.9796 22.7217C41.0231 22.6642 41.0551 22.5989 41.0731 22.5296C41.0916 22.4603 41.0961 22.3883 41.0866 22.3177C41.0771 22.2471 41.0531 22.1793 41.0171 22.1181C40.9806 22.057 40.9326 22.0038 40.8756 21.9614C40.8181 21.9191 40.7526 21.8885 40.6831 21.8714C40.6136 21.8542 40.5411 21.8509 40.4696 21.8617C40.3986 21.8724 40.3296 21.8969 40.2676 21.9338L38.0161 23.2695C37.9061 23.0738 37.7951 22.8785 37.6891 22.6803C36.9391 21.2753 35.7561 20.1491 34.3091 19.4634L35.4816 16.9504C35.5131 16.885 35.5316 16.8142 35.5356 16.7422C35.5396 16.6702 35.5286 16.5983 35.5046 16.5308C35.4801 16.4633 35.4421 16.4015 35.3931 16.3491C35.3441 16.2966 35.2851 16.2545 35.2191 16.2251C35.1531 16.1958 35.0821 16.1799 35.0091 16.1782C34.9366 16.1766 34.8641 16.1893 34.7961 16.2157C34.7281 16.242 34.6656 16.2814 34.6126 16.3316C34.5596 16.3818 34.5171 16.4418 34.4876 16.5081L33.2936 19.0646C32.2281 18.7332 31.0991 18.6383 29.9853 18.7866L29.9985 16.5485C29.9993 16.4043 29.9424 16.2666 29.8402 16.1656C29.7379 16.0647 29.5988 16.0088 29.4534 16.0103C29.308 16.0117 29.1682 16.0704 29.0648 16.1735C28.9613 16.2765 28.9028 16.4154 28.9019 16.5596L28.8876 19.0193C28.788 19.0475 28.688 19.0699 28.589 19.1021C27.8226 19.3528 27.0983 19.7196 26.442 20.1894L24.3938 17.6543C24.3035 17.5427 24.1715 17.472 24.0271 17.4578C23.8826 17.4436 23.7374 17.4869 23.6235 17.5784C23.5096 17.6698 23.4362 17.8018 23.4195 17.9453C23.4029 18.0888 23.4443 18.2321 23.5346 18.3437L25.593 20.8903C25.0008 21.4525 24.5006 22.1026 24.111 22.8166L20.368 21.3429C20.2336 21.29 20.0827 21.2926 19.9484 21.35C19.8141 21.4074 19.7075 21.5151 19.652 21.6492C19.5965 21.7834 19.5967 21.933 19.6524 22.0653C19.7082 22.1975 19.815 22.3016 19.9494 22.3545L23.6578 23.8149C23.2166 24.9895 23.0726 26.2495 23.2387 27.4825L20.0539 28.0295C19.9103 28.054 19.7815 28.1345 19.6959 28.252C19.6103 28.37 19.5749 28.516 19.5975 28.6585C19.6201 28.8005 19.6988 28.927 19.8163 29.01C19.9338 29.093 20.0806 29.1255 20.2242 29.101L23.4608 28.5445C23.6037 29.0425 23.7981 29.5235 24.0409 29.9805C24.4022 30.6595 24.7861 31.3245 25.1797 31.983L23.1273 34.391C23.078 34.4455 23.04 34.509 23.0157 34.578C22.9913 34.647 22.9811 34.72 22.9856 34.7925C22.9901 34.865 23.0092 34.9355 23.0419 35C23.0745 35.0645 23.12 35.122 23.1756 35.1685C23.2312 35.215 23.2958 35.2495 23.3656 35.2705C23.4354 35.292 23.509 35.2985 23.582 35.291C23.655 35.2835 23.7259 35.261 23.7906 35.226C23.8553 35.1905 23.9124 35.143 23.9586 35.086L25.7754 32.953C26.6971 34.4045 27.7004 35.8025 28.7808 37.1405L26.7252 38.0745C26.5972 38.1335 26.496 38.239 26.4426 38.3685C26.3892 38.498 26.3876 38.642 26.4381 38.771C26.4886 38.9 26.5874 39.0045 26.7142 39.062C26.8409 39.12 26.9859 39.127 27.1194 39.082C27.1361 39.076 27.1527 39.0705 27.1689 39.062L29.4963 38.004C30.3161 38.9705 31.1741 39.902 32.0706 40.7995L30.355 43.3205C30.273 43.4405 30.242 43.5875 30.2689 43.729C30.2957 43.87 30.3783 43.994 30.4983 44.0735C30.6181 44.153 30.7661 44.1815 30.9091 44.1525C31.0516 44.1235 31.1781 44.0395 31.2601 43.9195L32.8651 41.565C34.2771 42.906 35.7751 44.156 37.3486 45.3075L35.3176 46.837C35.2596 46.8805 35.2111 46.935 35.1741 46.997C35.1371 47.0585 35.1126 47.127 35.1026 47.198C35.0921 47.2685 35.0956 47.3405 35.1131 47.4095C35.1311 47.4785 35.1621 47.5435 35.2051 47.6C35.2921 47.714 35.4216 47.789 35.5656 47.8075C35.6371 47.8165 35.7096 47.812 35.7796 47.793C35.8491 47.7745 35.9151 47.7425 35.9726 47.699L38.2731 45.967C38.9966 46.47 39.7336 46.9545 40.4861 47.4155C40.6126 47.4925 40.7406 47.5655 40.8711 47.635L40.0761 50.5455C40.0381 50.685 40.0571 50.8335 40.1296 50.957C40.2016 51.081 40.3211 51.171 40.4611 51.2065C40.6016 51.242 40.7511 51.2205 40.8776 51.147C41.0036 51.0735 41.0961 50.9535 41.1341 50.814L41.8806 48.08C43.4991 48.6595 45.2771 48.6735 46.9231 48.12L46.9921 48.096C47.0131 48.0885 47.0331 48.08 47.0536 48.073L48.2881 50.435C48.3476 50.5495 48.4471 50.6385 48.5681 50.686C48.6891 50.7335 48.8241 50.7365 48.9481 50.6935C48.9751 50.684 49.0016 50.673 49.0266 50.6595C49.0911 50.626 49.1476 50.58 49.1946 50.525C49.2411 50.4695 49.2761 50.406 49.2981 50.3375C49.3201 50.2695 49.3286 50.1975 49.3226 50.1265C49.3166 50.0555 49.2966 49.9865 49.2631 49.9235L48.0666 47.633C49.3186 46.982 50.3726 46.0055 51.1136 44.81L54.8596 46.528C54.9911 46.588 55.1416 46.5935 55.2786 46.5435C55.4161 46.493 55.5281 46.3915 55.5906 46.2605C55.6536 46.1295 55.6616 45.9795 55.6131 45.8445C55.5646 45.7095 55.4636 45.5995 55.3326 45.5395L51.6236 43.839C51.6551 43.7675 51.6876 43.697 51.7171 43.6245C52.1036 42.6665 52.2926 41.6435 52.2731 40.618L54.8641 39.937C54.8776 39.932 54.8916 39.9295 54.9051 39.9245C55.0396 39.878 55.1516 39.782 55.2176 39.6565C55.2836 39.531 55.2981 39.386 55.2586 39.2515C55.2191 39.117 55.1281 39.004 55.0051 38.936C54.8821 38.868 54.7366 38.85 54.5991 38.8865L54.6001 38.8845ZM50.7026 43.233C50.3391 44.1315 49.7821 44.943 49.0706 45.6095C48.3596 46.276 47.5116 46.7815 46.5871 47.09C45.6731 47.3985 44.7046 47.5045 43.7511 47.4005C42.7976 47.2965 41.8821 46.9845 41.0701 46.4875C34.2816 42.332 28.7436 36.46 25.0123 29.4615C24.5659 28.625 24.3126 27.6975 24.2702 26.7465C24.2279 25.795 24.3977 24.8425 24.7674 23.9571C25.1303 23.0807 25.6781 22.2892 26.3737 21.6364C27.0692 20.9837 27.896 20.4851 28.7978 20.1746L28.9168 20.1335C30.3881 19.6525 31.9746 19.696 33.4001 20.2564C34.8256 20.8168 36.0001 21.8587 36.7181 23.2005C36.9126 23.5651 37.1161 23.9238 37.3246 24.2801C37.3271 24.2877 37.3296 24.2953 37.3351 24.3023C37.3406 24.3093 37.3421 24.3094 37.3451 24.3139C38.4761 26.24 39.8086 28.0405 41.3201 29.687C41.3486 29.7285 41.3826 29.7665 41.4216 29.7985C42.6126 31.0845 43.9096 32.2705 45.2986 33.344C45.3096 33.354 45.3216 33.3635 45.3341 33.3725C46.2311 34.065 47.1651 34.7095 48.1321 35.303C49.4336 36.1025 50.4031 37.3345 50.8731 38.7835C51.3426 40.2325 51.2821 41.807 50.7026 43.233Z" fill="#C77897" stroke="#C77897" stroke-width="0.25"/>
<path d="M33.0735 26.1664C32.931 25.7434 32.665 25.3739 32.3085 25.1049C31.952 24.8354 31.5215 24.6784 31.071 24.6534C30.6205 24.6284 30.1706 24.7369 29.778 24.9644C29.3854 25.1919 29.0678 25.5289 28.8653 25.9324C28.6629 26.3364 28.5847 26.7884 28.6406 27.2319C28.6966 27.6754 28.8841 28.0904 29.1796 28.4244C29.4751 28.7579 29.8652 28.9959 30.3006 29.1079C30.736 29.2194 31.197 29.1999 31.626 29.0519C32.2 28.8529 32.675 28.4374 32.9465 27.8964C33.2175 27.3554 33.2635 26.7329 33.0735 26.1664ZM29.7765 27.3049C29.7025 27.0849 29.6962 26.8469 29.7586 26.6209C29.8209 26.3954 29.9491 26.1919 30.1269 26.0364C30.3047 25.8809 30.524 25.7809 30.7575 25.7479C30.9905 25.7154 31.2275 25.7519 31.4375 25.8529C31.6475 25.9544 31.8215 26.1154 31.938 26.3159C32.054 26.5169 32.107 26.7484 32.09 26.9809C32.073 27.2139 31.987 27.4374 31.8425 27.6239C31.6985 27.8104 31.502 27.9509 31.279 28.0279C30.98 28.1304 30.654 28.1119 30.3722 27.9764C30.0906 27.8409 29.8764 27.5994 29.7765 27.3049Z" fill="#C77897" stroke="#C77897" stroke-width="0.25"/>
<path d="M42.8607 37.29C42.7182 36.867 42.4522 36.498 42.0957 36.2285C41.7392 35.9595 41.3087 35.8025 40.8582 35.7775C40.4077 35.7525 39.9577 35.8605 39.5652 36.088C39.1722 36.316 38.8547 36.6525 38.6522 37.0565C38.4502 37.46 38.3717 37.912 38.4277 38.3555C38.4837 38.799 38.6712 39.214 38.9667 39.548C39.2622 39.882 39.6522 40.1195 40.0877 40.2315C40.5232 40.343 40.9842 40.324 41.4127 40.176C41.9872 39.9765 42.4617 39.561 42.7332 39.02C43.0047 38.479 43.0502 37.857 42.8607 37.29ZM41.0682 39.151C40.8447 39.228 40.6047 39.238 40.3782 39.18C40.1517 39.122 39.9482 38.998 39.7947 38.824C39.6407 38.6505 39.5432 38.4345 39.5142 38.2035C39.4847 37.9725 39.5257 37.7375 39.6312 37.527C39.7362 37.317 39.9017 37.1415 40.1062 37.023C40.3102 36.9045 40.5447 36.8485 40.7792 36.8615C41.0137 36.8745 41.2377 36.956 41.4232 37.0965C41.6087 37.2365 41.7472 37.429 41.8217 37.649C41.9207 37.944 41.8972 38.2685 41.7557 38.5505C41.6142 38.8325 41.3667 39.049 41.0677 39.153L41.0682 39.151Z" fill="#C77897" stroke="#C77897" stroke-width="0.25"/>
<path d="M34.7378 31.5898C34.7393 31.4463 34.6833 31.3093 34.5823 31.2083C34.4808 31.1073 34.3428 31.0508 34.1978 31.0518L32.0413 31.0633C31.9693 31.0638 31.8983 31.0778 31.8318 31.1053C31.7653 31.1333 31.7048 31.1733 31.6533 31.2238C31.6018 31.2743 31.5613 31.3343 31.5328 31.4003C31.5048 31.4658 31.4898 31.5363 31.4893 31.6073C31.4883 31.6783 31.5018 31.7488 31.5283 31.8143C31.5553 31.8798 31.5948 31.9393 31.6448 31.9893C31.6948 32.0393 31.7548 32.0788 31.8208 32.1058C31.8868 32.1328 31.9573 32.1463 32.0293 32.1458L34.1858 32.1343C34.2578 32.1343 34.3288 32.1198 34.3953 32.0923C34.4623 32.0648 34.5228 32.0243 34.5743 31.9738C34.6253 31.9233 34.6663 31.8633 34.6943 31.7973C34.7223 31.7318 34.7373 31.6613 34.7378 31.5898Z" fill="#C77897" stroke="#C77897" stroke-width="0.25"/>
<path d="M37.047 32.0013C36.903 31.9833 36.7565 32.0228 36.64 32.1108C36.5235 32.1988 36.4465 32.3283 36.425 32.4713L35.987 35.4713C35.977 35.5423 35.9805 35.6138 35.9985 35.6828C36.016 35.7518 36.0475 35.8163 36.0905 35.8733C36.1335 35.9298 36.1875 35.9768 36.2495 36.0123C36.3115 36.0483 36.38 36.0708 36.4515 36.0803C36.523 36.0893 36.5955 36.0843 36.6655 36.0658C36.735 36.0468 36.801 36.0148 36.8585 35.9713C36.9165 35.9278 36.965 35.8733 37.002 35.8113C37.0389 35.7493 37.063 35.6808 37.0735 35.6098L37.5115 32.6103C37.5325 32.4673 37.495 32.3228 37.408 32.2083C37.321 32.0943 37.191 32.0198 37.047 32.0013Z" fill="#C77897" stroke="#C77897" stroke-width="0.25"/>
<path d="M45.0394 39.7305C44.8974 39.7015 44.7489 39.729 44.6264 39.808C44.5034 39.8865 44.4164 40.01 44.3839 40.1505L43.8564 42.46C43.8404 42.53 43.8384 42.602 43.8509 42.6725C43.8629 42.7425 43.8889 42.8095 43.9274 42.8695C43.9659 42.929 44.0159 42.9805 44.0749 43.021C44.1339 43.061 44.2004 43.0895 44.2704 43.104C44.3409 43.1185 44.4134 43.1195 44.4849 43.106C44.5559 43.093 44.6239 43.066 44.6849 43.027C44.7454 42.988 44.7984 42.937 44.8399 42.878C44.8819 42.819 44.9114 42.753 44.9274 42.683L45.4544 40.3735C45.4704 40.3035 45.4724 40.2315 45.4599 40.1615C45.4474 40.091 45.4214 40.024 45.3829 39.9645C45.3444 39.905 45.2939 39.8535 45.2349 39.813C45.1759 39.773 45.1094 39.745 45.0394 39.7305Z" fill="#C77897" stroke="#C77897" stroke-width="0.25"/>
<path d="M19.6318 46.0972L52.1357 18.7779" stroke="#3575AA" stroke-width="2" stroke-linecap="round"/>
</svg>
