<svg width="72" height="72" viewBox="0 0 72 72" fill="none" xmlns="http://www.w3.org/2000/svg">
<path d="M42.7484 67.1357C54.1499 67.1357 62.7119 59.6622 64.5604 48.0957C64.6704 47.4082 64.2009 46.7617 63.5134 46.6517C62.8279 46.5437 62.1794 47.0112 62.0694 47.6992C60.4269 57.9742 52.8434 64.6152 42.7484 64.6152C30.9821 64.6152 23.0742 55.9682 23.0742 43.0977C23.0742 30.9579 38.8153 13.9752 42.7484 9.92205C44.1219 11.3347 46.9294 14.3151 49.9844 18.0932C50.4229 18.6354 51.2164 18.7199 51.7584 18.2818C52.3009 17.8437 52.3834 17.0499 51.9474 16.5077C47.5679 11.0851 43.7899 7.3797 43.6309 7.2245C43.1394 6.74515 42.3574 6.74515 41.8664 7.2245C40.9961 8.0752 20.5515 28.2349 20.5515 43.0957C20.5515 50.3297 22.7952 56.4537 27.0429 60.8037C31.0273 64.8862 36.605 67.1357 42.7484 67.1357Z" fill="#3575AA"/>
<path d="M63.6958 18.5215C63.4128 18.1188 62.9218 17.9164 62.4383 18.0029C61.6743 18.1404 43.6858 21.4823 38.823 30.5847C36.8328 34.3117 36.3082 38.0937 37.3043 41.5262C38.0214 43.9917 39.5165 46.1567 41.5993 47.8012C40.5028 50.2492 39.3692 52.9587 38.2061 55.9587C37.9546 56.6087 38.2768 57.3377 38.9271 57.5912C39.0764 57.6502 39.2316 57.6777 39.3829 57.6777C39.8878 57.6777 40.3653 57.3712 40.5598 56.8722C41.6503 54.0587 42.7148 51.5087 43.7423 49.1982C45.7443 50.2592 47.8763 50.7992 49.9803 50.7992C51.2143 50.7992 52.4383 50.6147 53.6188 50.2392C57.0258 49.1587 59.8763 46.6187 61.8668 42.8917C63.2403 40.3197 63.7393 36.577 63.3483 31.7674C63.2183 30.18 62.9923 28.4727 62.6743 26.6907C62.0103 22.9637 63.7333 19.9086 63.7488 19.8811C63.9963 19.4567 63.9768 18.9263 63.6938 18.5215H63.6958ZM59.6428 41.7027C57.9688 44.8367 55.6228 46.9562 52.8568 47.8327C50.3028 48.6422 47.4733 48.3297 44.8918 46.9507C44.8583 46.9327 44.8268 46.9132 44.7938 46.8957C46.0233 44.2627 47.1923 41.9817 48.2848 40.0072C49.9943 39.9407 54.2263 39.5927 58.0768 37.8382C58.7113 37.5497 58.9903 36.8007 58.7018 36.1683C58.4128 35.5337 57.6643 35.2548 57.0318 35.5436C54.4993 36.6987 51.7033 37.1722 49.8073 37.3667C53.8293 30.6731 56.4738 28.563 56.5423 28.508C57.0963 28.0895 57.2083 27.3037 56.7938 26.7477C56.3773 26.1897 55.5878 26.0757 55.0298 26.4923C54.9158 26.5767 53.8448 27.4039 52.0828 29.5827C52.0963 28.3469 52.1948 27.1897 52.4483 26.5807C52.7153 25.9382 52.4108 25.1995 51.7663 24.9323C51.1218 24.6651 50.3853 24.9696 50.1178 25.614C49.3338 27.506 49.5678 31.4334 49.6838 32.8421C48.3948 34.742 46.9193 37.1587 45.3023 40.2017C44.6658 39.0702 43.8308 37.1862 43.3988 34.5494C43.2868 33.8618 42.6363 33.3962 41.9508 33.5082C41.2631 33.6201 40.7975 34.2685 40.9095 34.9561C41.6188 39.2882 43.3003 41.8932 43.9703 42.7892C43.5518 43.6302 43.1258 44.5102 42.6913 45.4337C38.9841 42.1722 38.2748 36.9777 41.0529 31.7753C44.3948 25.5158 55.6978 22.1739 60.5958 20.9911C60.1298 22.5334 59.7628 24.7044 60.1948 27.1367C60.4993 28.8401 60.7153 30.4668 60.8373 31.9737C61.1868 36.2941 60.7863 39.5672 59.6448 41.7047L59.6428 41.7027Z" fill="#C77897"/>
<path d="M23.9287 13.7571H19.1054V8.12634C19.1054 7.42889 18.5416 6.86499 17.8441 6.86499C17.1466 6.86499 16.5828 7.42889 16.5828 8.12634V21.5766C16.5828 22.274 17.1466 22.8379 17.8441 22.8379C18.5416 22.8379 19.1054 22.274 19.1054 21.5766V15.9458H23.9287V21.5766C23.9287 22.1817 24.4199 22.6709 25.0231 22.6709C25.6262 22.6709 26.1174 22.1797 26.1174 21.5766V8.12634C26.1174 7.52124 25.6262 7.03199 25.0231 7.03199C24.4199 7.03199 23.9287 7.52319 23.9287 8.12634V13.7571Z" fill="#C77897"/>
<path d="M6.68469 9.68628C5.98719 9.68628 5.42334 10.2502 5.42334 10.9476V27.172C5.42334 27.8695 5.98719 28.4333 6.68469 28.4333C7.38214 28.4333 7.94599 27.8695 7.94599 27.172V21.5648H9.86354C12.6455 21.5648 14.9069 19.3015 14.9069 16.5214C14.9069 13.7414 12.6435 11.4781 9.86354 11.4781H7.94599V10.9457C7.94599 10.2482 7.38214 9.68433 6.68469 9.68433V9.68628ZM9.86354 14.0007C11.2545 14.0007 12.3842 15.1324 12.3842 16.5214C12.3842 17.9105 11.2525 19.0421 9.86354 19.0421H7.94599V14.0007H9.86354Z" fill="#C77897"/>
</svg>
