<svg width="72" height="72" viewBox="0 0 72 72" fill="none" xmlns="http://www.w3.org/2000/svg">
<path d="M59.7613 8.5459H12.239C11.2937 8.5459 10.3872 8.92145 9.7187 9.58985C9.0503 10.2582 8.6748 11.1648 8.6748 12.1101V29.5449C8.6748 55.2962 30.5054 63.8206 34.9013 65.2757C35.6148 65.5136 36.3858 65.5136 37.0993 65.2757C41.4948 63.8206 63.3258 55.2962 63.3258 29.5449V12.1101C63.3258 11.1648 62.9503 10.2582 62.2818 9.58985C61.6133 8.92145 60.7068 8.5459 59.7613 8.5459ZM60.9493 29.5449C60.9493 53.6627 40.4553 61.6821 36.3568 63.0186C36.1273 63.1081 35.8728 63.1081 35.6438 63.0186C31.545 61.6821 11.0509 53.6627 11.0509 29.5449V12.1101C11.0509 11.795 11.1761 11.4928 11.3989 11.27C11.6217 11.0472 11.9239 10.922 12.239 10.922H59.7613C60.0763 10.922 60.3788 11.0472 60.6013 11.27C60.8243 11.4928 60.9493 11.795 60.9493 12.1101V29.5449Z" fill="#3575AA"/>
<path d="M54.7038 13.5986H17.7369C17.0016 13.5986 16.2964 13.8945 15.7764 14.4213C15.2565 14.948 14.9644 15.6625 14.9644 16.4074V30.1473C14.9644 50.4413 31.9458 57.1588 35.3653 58.3058C35.9203 58.4933 36.5203 58.4933 37.0753 58.3058C40.4948 57.1588 57.4763 50.4413 57.4763 30.1473V16.4074C57.4763 15.6625 57.1843 14.948 56.6643 14.4213C56.1443 13.8945 55.4393 13.5986 54.7038 13.5986ZM55.6278 30.1473C55.6278 49.1538 39.6858 55.4738 36.4978 56.5268C36.3193 56.5973 36.1213 56.5973 35.9428 56.5268C32.7548 55.4738 16.8127 49.1538 16.8127 30.1473V16.4074C16.8127 16.1591 16.9101 15.921 17.0834 15.7454C17.2567 15.5698 17.4918 15.4712 17.7369 15.4712H54.7038C54.9488 15.4712 55.1838 15.5698 55.3573 15.7454C55.5303 15.921 55.6278 16.1591 55.6278 16.4074V30.1473Z" fill="#C77897" stroke="#C77897" stroke-width="0.5"/>
<path fill-rule="evenodd" clip-rule="evenodd" d="M36.0004 25.999C36.6908 25.999 37.2504 26.5587 37.2504 27.249V40.0131C37.2504 40.7034 36.6908 41.2631 36.0004 41.2631C35.3101 41.2631 34.7504 40.7034 34.7504 40.0131V27.249C34.7504 26.5587 35.3101 25.999 36.0004 25.999Z" fill="#C77897"/>
<path fill-rule="evenodd" clip-rule="evenodd" d="M28.3682 33.6309C28.3682 32.9405 28.9278 32.3809 29.6182 32.3809H42.3822C43.0725 32.3809 43.6322 32.9405 43.6322 33.6309C43.6322 34.3212 43.0725 34.8809 42.3822 34.8809H29.6182C28.9278 34.8809 28.3682 34.3212 28.3682 33.6309Z" fill="#C77897"/>
</svg>
