<svg width="64" height="64" viewBox="0 0 64 64" fill="none" xmlns="http://www.w3.org/2000/svg">
<path d="M32 41.0001C26.7 41.0001 21.6 36.0001 20.1 29.6001C18.7 29.1001 17 27.6001 17 24.0001C17 23.0001 17.2 22.1001 17.5 21.3001C17.8 20.6001 18.4 20.1001 19.1 19.9001C20.9 19.4001 25.6 15.5001 26 11.8001C26 11.4001 26.3 11.1001 26.7 11.0001C27.1 10.9001 27.5 11.0001 27.8 11.4001C30.9 15.6001 39.6 19.7001 44.4 20.0001C45.3 20.1001 46.2 20.6001 46.5 21.5001C46.8 22.2001 47 23.0001 47 24.0001C47 27.6001 45.2 29.1001 43.9 29.6001C42.4 36.0001 37.3 41.0001 32 41.0001ZM27.5 14.1001C26 18.1001 21.6 21.4001 19.7 21.9001C19.6 21.9001 19.4 22.0001 19.4 22.2001C19.2 22.5001 19 23.1001 19 24.0001C19 27.4001 20.9 27.8001 21.1 27.8001C21.5 27.9001 21.9 28.2001 22 28.6001C23.2 35.0001 28.1 39.0001 32 39.0001C35.9 39.0001 40.8 35.0001 42 28.6001C42.1 28.2001 42.4 27.8001 42.9 27.8001C43.1 27.8001 45 27.4001 45 24.0001C45 23.1001 44.8 22.6001 44.7 22.3001C44.6 22.1001 44.5 22.0001 44.3 22.0001C39.5 21.7001 31.6 18.2001 27.5 14.1001ZM60 63.0001C59.4 63.0001 59 62.6001 59 62.0001C59 58.2001 56.6 54.6001 52.2 51.8001C51.7 51.5001 51.6 50.9001 51.9 50.4001C52.2 49.9001 52.8 49.8001 53.3 50.1001C60 54.4001 61 59.4001 61 62.0001C61 62.6001 60.6 63.0001 60 63.0001ZM4 63.0001C3.4 63.0001 3 62.6001 3 62.0001C3 57.8001 5.4 53.9001 9.8 50.8001C10.4 50.4001 11.1 49.9001 11.8 49.6001C12.3 49.3001 12.9 49.5001 13.2 50.0001C13.5 50.5001 13.3 51.1001 12.8 51.4001C12.2 51.8001 11.6 52.1001 11 52.5001C6 55.9001 5 59.5001 5 62.0001C5 62.6001 4.6 63.0001 4 63.0001Z" fill="#3575AA"/>
<path d="M10.2998 52.7C9.6998 52.7 9.2998 52.3 9.2998 51.7C9.2998 42 11.7998 31.2 13.3998 24.7C13.8998 22.8 14.1998 21.2 14.3998 20.2C16.2998 9.6 20.9998 5.2 23.5998 3.6C25.6998 2.3 27.9998 1.7 29.8998 2C30.5998 1.6 32.3998 1 34.9998 1C48.0998 1 50.9998 23.2 50.9998 31C50.9998 32.4 51.1998 34 51.3998 35.8C51.6998 38 51.9998 40.5 51.9998 43C51.9998 43.6 51.5998 44 50.9998 44C50.3998 44 49.9998 43.6 49.9998 43C49.9998 40.6 49.6998 38.2 49.3998 36.1C49.1998 34.2 48.9998 32.5 48.9998 31C48.9998 25.1 46.5998 3 34.9998 3C32.0998 3 30.4998 3.9 30.4998 3.9C30.2998 4 29.9998 4 29.6998 4C28.5998 3.7 26.6998 3.9 24.5998 5.2C22.2998 6.7 18.0998 10.7 16.2998 20.5C16.0998 21.6 15.6998 23.1 15.2998 25.1C13.7998 31.5 11.2998 42.3 11.2998 51.7C11.2998 52.2 10.8998 52.7 10.2998 52.7Z" fill="#C77897"/>
<path d="M50.0001 62.9999C38.6001 62.9999 37.0001 52.8999 37.0001 41.9999C37.0001 41.3999 37.4001 40.9999 38.0001 40.9999C38.6001 40.9999 39.0001 41.3999 39.0001 41.9999C39.0001 52.7999 40.6001 59.8999 48.0001 60.8999C47.5001 59.8999 47.0001 58.5999 47.0001 56.9999C47.0001 53.3999 47.9001 50.7999 48.7001 48.3999C49.4001 46.4999 50.0001 44.7999 50.0001 42.9999C50.0001 42.3999 50.4001 41.9999 51.0001 41.9999C51.6001 41.9999 52.0001 42.3999 52.0001 42.9999C52.0001 45.1999 51.3001 47.0999 50.6001 49.0999C49.8001 51.3999 49.0001 53.6999 49.0001 56.9999C49.0001 59.4999 50.7001 61.2999 50.7001 61.2999C51.0001 61.5999 51.0001 61.9999 50.9001 62.3999C50.8001 62.7999 50.4001 62.9999 50.0001 62.9999ZM14.0001 62.9999C13.6001 62.9999 13.2001 62.7999 13.1001 62.3999C12.9001 61.9999 13.0001 61.5999 13.3001 61.2999C13.3001 61.2999 15.0001 59.5999 15.0001 56.9999C15.0001 53.8999 14.7001 51.4999 14.4001 49.2999C14.2001 47.3999 14.0001 45.6999 14.0001 43.6999C14.0001 41.2999 14.3001 38.7999 15.0001 35.6999C15.1001 35.1999 15.7001 34.7999 16.2001 34.8999C16.7001 34.9999 17.1001 35.5999 17.0001 36.0999C16.3001 38.9999 16.0001 41.3999 16.0001 43.5999C16.0001 45.3999 16.2001 47.0999 16.4001 48.8999C16.7001 51.0999 17.0001 53.5999 17.0001 56.7999C17.0001 58.3999 16.5001 59.6999 16.0001 60.6999C23.4001 59.6999 25.0001 52.5999 25.0001 41.7999C25.0001 41.1999 25.4001 40.7999 26.0001 40.7999C26.6001 40.7999 27.0001 41.1999 27.0001 41.7999C27.0001 52.8999 25.4001 62.9999 14.0001 62.9999Z" fill="#C77897"/>
<path d="M31.9998 60.9999C31.8998 60.9999 31.6998 60.9999 31.5998 60.8999C29.4998 59.9999 27.5998 58.4999 26.1998 56.5999C25.8998 56.1999 25.9998 55.4999 26.3998 55.1999C26.7998 54.8999 27.4998 54.9999 27.7998 55.3999C28.8998 56.8999 30.2998 58.0999 31.9998 58.8999C33.6998 58.0999 35.0998 56.8999 36.1998 55.3999C36.4998 54.9999 37.1998 54.8999 37.5998 55.1999C37.9998 55.4999 38.0998 56.1999 37.7998 56.5999C36.3998 58.4999 34.4998 59.9999 32.3998 60.8999C32.2998 60.9999 32.0998 60.9999 31.9998 60.9999Z" fill="#3575AA"/>
</svg>
