<svg width="362" height="548" viewBox="0 0 362 548" fill="none" xmlns="http://www.w3.org/2000/svg">
<mask id="path-1-inside-1_2248_14615" fill="white">
<path d="M118.867 418.279C112.503 429.317 98.4016 433.096 87.3709 426.718L85.2373 425.485C74.2066 419.107 70.4236 404.989 76.7878 393.951L108.367 339.178C109.64 336.97 112.46 336.214 114.667 337.49L148.757 357.199C150.963 358.475 151.72 361.298 150.447 363.506L118.867 418.279Z"/>
</mask>
<path d="M118.867 418.279C112.503 429.317 98.4016 433.096 87.3709 426.718L85.2373 425.485C74.2066 419.107 70.4236 404.989 76.7878 393.951L108.367 339.178C109.64 336.97 112.46 336.214 114.667 337.49L148.757 357.199C150.963 358.475 151.72 361.298 150.447 363.506L118.867 418.279Z" stroke="#C60E14" stroke-width="12" mask="url(#path-1-inside-1_2248_14615)"/>
<path d="M259.02 127.111C299.7 150.63 323.744 202.887 291.938 258.054C275.933 285.813 251.185 304.997 225.36 314.278C199.494 323.572 172.841 322.846 152.836 311.281C132.831 299.715 118.876 276.963 113.981 249.884C109.094 222.848 113.311 191.794 129.316 164.034C161.122 108.867 218.339 103.591 259.02 127.111Z" stroke="#C60E14" stroke-width="6"/>
<path d="M190.701 323.662C180.973 329.227 172.174 335.074 166.715 340.495C159.518 347.642 154.088 353.688 150.129 358.423C149.766 357.94 149.303 357.52 148.747 357.199L145.098 355.088C149.212 350.133 154.9 343.772 162.488 336.237C166.934 331.822 173.154 327.343 179.971 323.08C183.487 323.487 187.071 323.68 190.701 323.662ZM123.188 284.612C124.988 287.774 126.949 290.789 129.061 293.638C128.783 301.681 128.02 309.313 126.425 315.375C123.702 325.729 121.042 333.845 118.812 339.891L114.657 337.49C114.279 337.271 113.882 337.112 113.479 337.01C115.58 331.231 118.069 323.559 120.623 313.849C122.583 306.4 123.239 295.838 123.188 284.612Z" fill="#C60E14"/>
<ellipse cx="5.78641" cy="5.79041" rx="5.78641" ry="5.79041" transform="matrix(0.865726 0.500518 -0.499482 0.866324 210.555 138.766)" fill="#C60E14"/>
<ellipse cx="5.78641" cy="5.79041" rx="5.78641" ry="5.79041" transform="matrix(0.865726 0.500518 -0.499482 0.866324 190.023 174.383)" fill="#C60E14"/>
<ellipse cx="5.78641" cy="5.79041" rx="5.78641" ry="5.79041" transform="matrix(0.865726 0.500518 -0.499482 0.866324 163.469 159.033)" fill="#C60E14"/>
<ellipse cx="5.78641" cy="5.79041" rx="5.78641" ry="5.79041" transform="matrix(0.865726 0.500518 -0.499482 0.866324 269.672 220.432)" fill="#C60E14"/>
<ellipse cx="5.78641" cy="5.79041" rx="5.78641" ry="5.79041" transform="matrix(0.865726 0.500518 -0.499482 0.866324 169.484 209.998)" fill="#C60E14"/>
<ellipse cx="5.78641" cy="5.79041" rx="5.78641" ry="5.79041" transform="matrix(0.865726 0.500518 -0.499482 0.866324 142.938 194.648)" fill="#C60E14"/>
<ellipse cx="5.78641" cy="5.79041" rx="5.78641" ry="5.79041" transform="matrix(0.865726 0.500518 -0.499482 0.866324 249.141 256.049)" fill="#C60E14"/>
<ellipse cx="5.78641" cy="5.79041" rx="5.78641" ry="5.79041" transform="matrix(0.865726 0.500518 -0.499482 0.866324 148.953 245.615)" fill="#C60E14"/>
<ellipse cx="5.78641" cy="5.79041" rx="5.78641" ry="5.79041" transform="matrix(0.865726 0.500518 -0.499482 0.866324 237.109 154.115)" fill="#C60E14"/>
<ellipse cx="5.78641" cy="5.79041" rx="5.78641" ry="5.79041" transform="matrix(0.865726 0.500518 -0.499482 0.866324 216.57 189.732)" fill="#C60E14"/>
<ellipse cx="5.78641" cy="5.79041" rx="5.78641" ry="5.79041" transform="matrix(0.865726 0.500518 -0.499482 0.866324 196.039 225.348)" fill="#C60E14"/>
<ellipse cx="5.78641" cy="5.79041" rx="5.78641" ry="5.79041" transform="matrix(0.865726 0.500518 -0.499482 0.866324 175.5 260.965)" fill="#C60E14"/>
<ellipse cx="5.78641" cy="5.79041" rx="5.78641" ry="5.79041" transform="matrix(0.865726 0.500518 -0.499482 0.866324 263.656 169.465)" fill="#C60E14"/>
<ellipse cx="5.78641" cy="5.79041" rx="5.78641" ry="5.79041" transform="matrix(0.865726 0.500518 -0.499482 0.866324 243.125 205.082)" fill="#C60E14"/>
<ellipse cx="5.78641" cy="5.79041" rx="5.78641" ry="5.79041" transform="matrix(0.865726 0.500518 -0.499482 0.866324 222.586 240.697)" fill="#C60E14"/>
<ellipse cx="5.78641" cy="5.79041" rx="5.78641" ry="5.79041" transform="matrix(0.865726 0.500518 -0.499482 0.866324 202.055 276.314)" fill="#C60E14"/>
</svg>
