<svg width="362" height="548" viewBox="0 0 362 548" fill="none" xmlns="http://www.w3.org/2000/svg">
<mask id="path-1-inside-1_2087_12394" fill="white">
<path d="M95 0H268V76H95V0Z"/>
</mask>
<path d="M268 76V82H274V76H268ZM95 76H89V82H95V76ZM268 0H262V76H268H274V0H268ZM268 76V70H95V76V82H268V76ZM95 76H101V0H95H89V76H95Z" fill="#C60E14" mask="url(#path-1-inside-1_2087_12394)"/>
<mask id="path-3-inside-2_2087_12394" fill="white">
<path d="M268 548L95 548L95 472L268 472L268 548Z"/>
</mask>
<path d="M95 472L95 466L89 466L89 472L95 472ZM268 472L274 472L274 466L268 466L268 472ZM95 548L101 548L101 472L95 472L89 472L89 548L95 548ZM95 472L95 478L268 478L268 472L268 466L95 466L95 472ZM268 472L262 472L262 548L268 548L274 548L274 472L268 472Z" fill="#C60E14" mask="url(#path-3-inside-2_2087_12394)"/>
<circle cx="181" cy="274" r="83" stroke="#C60E14" stroke-width="6"/>
<line x1="1" y1="271" x2="361" y2="271" stroke="#C60E14" stroke-width="6"/>
</svg>
