<svg width="362" height="548" viewBox="0 0 362 548" fill="none" xmlns="http://www.w3.org/2000/svg">
<circle cx="181.001" cy="183.829" r="20.2903" stroke="#C60E14" stroke-width="4.5"/>
<circle cx="160.79" cy="218.806" r="20.2903" stroke="#C60E14" stroke-width="4.5"/>
<circle cx="182.556" cy="256.114" r="20.2903" stroke="#C60E14" stroke-width="4.5"/>
<circle cx="140.587" cy="256.114" r="20.2903" stroke="#C60E14" stroke-width="4.5"/>
<circle cx="119.595" cy="294.976" r="20.2903" stroke="#C60E14" stroke-width="4.5"/>
<circle cx="245.509" cy="294.976" r="20.2903" stroke="#C60E14" stroke-width="4.5"/>
<circle cx="203.54" cy="218.806" r="20.2903" stroke="#C60E14" stroke-width="4.5"/>
<circle cx="160.79" cy="294.976" r="20.2903" stroke="#C60E14" stroke-width="4.5"/>
<circle cx="225.306" cy="256.114" r="20.2903" stroke="#C60E14" stroke-width="4.5"/>
<circle cx="203.54" cy="294.976" r="20.2903" stroke="#C60E14" stroke-width="4.5"/>
<path d="M162.972 132.227C170.984 118.348 191.016 118.348 199.028 132.227L300.67 308.273C308.683 322.152 298.666 339.5 282.641 339.5H79.3594C63.334 339.5 53.3174 322.152 61.3301 308.273L162.972 132.227Z" stroke="#C60E14" stroke-width="5"/>
<path d="M310.694 391.646C314.075 391.59 316.846 394.314 316.846 397.695V415.281C316.845 418.662 314.075 421.387 310.694 421.33L51.8691 416.955C48.5684 416.899 45.9219 414.207 45.9219 410.906V402.07C45.9219 398.769 48.5684 396.077 51.8691 396.021L310.694 391.646Z" stroke="#C60E14" stroke-width="5"/>
<line x1="65.3594" y1="395.996" x2="65.3594" y2="415.427" stroke="#C60E14" stroke-width="5"/>
</svg>
