<svg width="362" height="548" viewBox="0 0 362 548" fill="none" xmlns="http://www.w3.org/2000/svg">
<path d="M47.8613 131.073C55.5163 131.073 61.7216 137.279 61.7217 144.934C61.7217 149.175 59.8166 152.97 56.8164 155.512L59.0049 160.049C64.6511 155.53 72.968 150.013 82.8906 145.292C95.1004 139.484 109.978 134.769 125.485 134.769C153.361 134.769 168.895 142.334 181.708 149.571C194.387 156.732 203.481 162.891 219.544 162.035C236.072 161.153 248.734 159.29 257.027 157.6C264.687 156.039 273.361 159.491 276.929 166.989L327.409 273.076C330.24 279.025 329.269 287.325 322.224 290.833C311.815 296.016 294.362 299.399 267.809 292.672C247.693 287.576 233.228 281.319 220.28 276.783C207.306 272.237 195.482 269.253 179.752 270.139C149.053 271.869 131.004 288.414 124.193 295.149L184.256 419.624C185.143 421.463 184.372 423.673 182.533 424.56C180.695 425.447 178.485 424.676 177.598 422.837L50.1045 158.613C49.3743 158.732 48.6252 158.795 47.8613 158.795C40.2061 158.795 34 152.589 34 144.934C34.0001 137.279 40.2061 131.073 47.8613 131.073ZM307.665 248.789C305.606 249.699 300.206 252.482 291.717 254.003C287.326 254.79 282.106 255.247 275.991 255.022L290.671 288.898C303.951 289.645 313.095 287.121 318.928 284.216C321.271 283.049 322.409 279.774 320.733 276.252L307.665 248.789ZM141.573 233.633C135.84 235.44 130.372 237.566 125.332 239.837C116.555 243.793 109.216 248.123 104.111 251.844L121.487 287.497C127.874 281.537 139.765 271.949 157.515 266.577L141.573 233.633ZM205.566 264.792C211.423 266.064 217.02 267.807 222.726 269.806C230.843 272.65 239.047 275.947 248.588 279.213L231.566 244.396C223.432 241.268 215.836 237.997 208.509 235.285C201.888 232.834 195.334 230.773 188.487 229.495L205.566 264.792ZM227.638 234.897C236.3 238.383 245.196 241.815 255.312 244.416C260.596 245.775 265.403 246.64 269.758 247.138L252.446 211.362C246.221 211.106 239.177 210.145 231.289 208.117C224.732 206.431 218.563 204.369 212.684 202.186L227.638 234.897ZM165.844 185.949C158.686 184.652 151.199 184.22 142.972 185.11C135.805 185.885 128.745 187.319 122.03 189.178L139.576 226.511C147.444 224.045 155.827 222.141 164.358 221.219C171.005 220.501 177.199 220.576 183.088 221.222L165.844 185.949ZM270.254 170.164C268.35 166.163 263.322 163.86 258.503 164.842C252.64 166.037 244.786 167.294 235.1 168.262L250.522 203.853C257.892 204.359 263.981 203.784 268.857 202.817C276.226 201.356 280.769 199.061 283.427 197.849L270.254 170.164ZM100.454 146.276C95.4026 147.87 90.5697 149.826 86.0674 151.968C75.9814 156.767 67.7294 162.401 62.5947 166.659L79.0381 200.398C84.5776 196.578 91.9478 192.539 100.414 188.93C105.844 186.615 111.78 184.453 118.044 182.626L100.454 146.276ZM163.95 178.15C172.744 179.424 180.889 181.929 188.895 184.892C195.158 187.21 201.22 189.752 207.441 192.235L193.895 164.526C188.387 162.063 183.347 158.986 178.073 156.007C170.03 151.464 161.05 146.864 148.287 144.276L163.95 178.15ZM47.8613 138.465C44.2889 138.465 41.3927 141.362 41.3926 144.934C41.3926 148.506 44.2889 151.403 47.8613 151.403C51.4336 151.403 54.3291 148.506 54.3291 144.934C54.329 141.362 51.4335 138.466 47.8613 138.465Z" fill="#C60E14"/>
</svg>
