<svg width="362" height="548" viewBox="0 0 362 548" fill="none" xmlns="http://www.w3.org/2000/svg">
<path d="M123.807 187.538C122.982 194.171 128.623 208.325 136.79 219.595C144.619 215.673 152.823 212.541 161.142 209.838C174.257 205.519 189.004 202.482 195.357 207.696C195.823 208.079 195.762 208.776 195.268 209.121C175.734 222.782 136.494 242.918 127.052 265.771C124.069 272.638 131.327 290.095 135.163 298.435C136.508 301.359 139.156 303.441 142.285 304.193L184.523 314.343L208.762 320.16C211.633 320.849 214.649 320.361 216.988 318.561C227.454 310.502 256.714 283.915 263.354 234.377C271.117 176.485 206.864 129.764 194.431 111.873C193.899 111.108 192.593 111.317 192.355 112.219C186.746 133.446 181.104 144.716 162.814 158.461C150.102 167.97 125.795 171.55 123.807 187.538Z" stroke="#C60E14" stroke-width="6" stroke-miterlimit="10"/>
<path d="M214.444 341.357L122.462 319.291C114.039 317.271 105.574 322.458 103.554 330.876C101.534 339.295 106.725 347.758 115.148 349.778L207.13 371.844C215.553 373.865 224.018 368.678 226.038 360.259C228.057 351.841 222.867 343.378 214.444 341.357Z" stroke="#C60E14" stroke-width="6" stroke-miterlimit="10"/>
<path d="M211.283 389.794L101.848 363.542C91.8314 361.138 81.7629 367.311 79.3599 377.328C76.9568 387.345 83.1292 397.413 93.1463 399.816L202.581 426.069C212.598 428.472 222.667 422.3 225.07 412.283C227.473 402.266 221.3 392.197 211.283 389.794Z" stroke="#C60E14" stroke-width="6" stroke-miterlimit="10"/>
</svg>
