<svg width="362" height="548" viewBox="0 0 362 548" fill="none" xmlns="http://www.w3.org/2000/svg">
<path d="M180.989 395.228C252.296 395.228 310.103 337.421 310.103 266.114C310.103 194.806 252.296 137 180.989 137C109.681 137 51.875 194.806 51.875 266.114C51.875 337.421 109.681 395.228 180.989 395.228Z" stroke="#C60E14" stroke-width="9" stroke-miterlimit="10"/>
<path d="M180.987 356.491C230.901 356.491 271.364 316.028 271.364 266.114C271.364 216.2 230.901 175.736 180.987 175.736C131.073 175.736 90.6094 216.2 90.6094 266.114C90.6094 316.028 131.073 356.491 180.987 356.491Z" stroke="#C60E14" stroke-width="9" stroke-miterlimit="10"/>
<path d="M180.985 317.755C209.505 317.755 232.626 294.634 232.626 266.114C232.626 237.593 209.505 214.473 180.985 214.473C152.464 214.473 129.344 237.593 129.344 266.114C129.344 294.634 152.464 317.755 180.985 317.755Z" stroke="#C60E14" stroke-width="9" stroke-miterlimit="10"/>
<path d="M180.991 279.018C188.118 279.018 193.895 273.241 193.895 266.114C193.895 258.987 188.118 253.209 180.991 253.209C173.864 253.209 168.086 258.987 168.086 266.114C168.086 273.241 173.864 279.018 180.991 279.018Z" stroke="#C60E14" stroke-width="9" stroke-miterlimit="10"/>
</svg>
