<svg width="362" height="548" viewBox="0 0 362 548" fill="none" xmlns="http://www.w3.org/2000/svg">
<path d="M225.581 207.013C201.306 206.82 161.559 206.518 137.284 206.324L94.9698 206.001C70.6947 205.808 50.6703 225.488 50.4761 249.712L50.0014 310.886C49.8072 335.11 69.5294 355.092 93.8046 355.286H97.0197C121.295 355.502 141.341 345.554 141.578 333.194C141.794 320.856 150.684 310.822 161.3 310.886C171.917 310.972 189.309 311.102 199.925 311.188C210.541 311.274 219.216 321.437 219.172 333.797C219.129 346.156 238.981 356.406 263.256 356.6H266.709C290.984 356.815 311.008 337.134 311.202 312.91L311.677 251.736C311.871 227.512 292.149 207.53 267.874 207.336L225.559 207.013H225.581Z" stroke="#C60E14" stroke-width="6" stroke-miterlimit="10"/>
<path d="M130.345 254.497L123.203 254.432L123.268 247.326C123.333 239.252 116.816 232.641 108.724 232.577C100.633 232.512 94.0081 239.015 93.9434 247.09L93.8786 254.195L86.7579 254.131C78.6662 254.066 72.0418 260.569 71.977 268.644C71.9123 276.718 78.4288 283.329 86.5206 283.393L93.6413 283.458L93.5766 290.564C93.5118 298.638 100.028 305.249 108.12 305.313C116.212 305.378 122.836 298.875 122.879 290.801L122.944 283.695L130.086 283.759C138.178 283.824 144.781 277.321 144.846 269.247C144.91 261.172 138.394 254.561 130.302 254.497H130.345Z" stroke="#C60E14" stroke-width="6" stroke-miterlimit="10"/>
<path d="M256.125 295.839C256.082 302.406 250.687 307.681 244.106 307.638C237.525 307.595 232.238 302.234 232.282 295.645C232.325 289.077 237.698 283.802 244.279 283.845C250.86 283.888 256.168 289.271 256.104 295.817L256.125 295.839Z" stroke="#C60E14" stroke-width="6" stroke-miterlimit="10"/>
<path d="M270.106 282.101C263.525 282.058 258.238 276.697 258.282 270.108C258.325 263.54 263.698 258.265 270.279 258.308C276.86 258.351 282.147 263.713 282.104 270.302C282.06 276.869 276.666 282.144 270.106 282.101Z" stroke="#C60E14" stroke-width="6" stroke-miterlimit="10"/>
<path d="M244.887 255.638C238.306 255.595 233.02 250.234 233.063 243.645C233.106 237.077 238.479 231.802 245.06 231.845C251.641 231.888 256.928 237.25 256.885 243.839C256.842 250.406 251.447 255.681 244.887 255.638Z" stroke="#C60E14" stroke-width="6" stroke-miterlimit="10"/>
<path d="M218.512 281.692C211.931 281.649 206.645 276.287 206.688 269.699C206.731 263.11 212.125 257.856 218.707 257.899C225.288 257.942 230.596 263.303 230.531 269.892C230.488 276.46 225.094 281.735 218.512 281.692Z" stroke="#C60E14" stroke-width="6" stroke-miterlimit="10"/>
</svg>
