<svg width="362" height="548" viewBox="0 0 362 548" fill="none" xmlns="http://www.w3.org/2000/svg">
<path fill-rule="evenodd" clip-rule="evenodd" d="M102.312 227.8C74.9007 253.777 73.7875 297.096 99.8073 324.462L114.696 340.114C137.353 363.915 173.136 367.851 200.107 351.343L242.615 396.027C246.256 399.848 252.308 400.01 256.135 396.375L263.023 389.846C266.849 386.211 267.011 380.168 263.37 376.348L220.862 331.663C238.742 305.616 236.655 269.752 214.021 245.928L199.133 230.277C173.09 202.911 129.723 201.799 102.312 227.777V227.8Z" stroke="#C60E14" stroke-width="6" stroke-miterlimit="10"/>
<path d="M246.756 173.455C257.115 173.455 265.512 165.07 265.512 154.728C265.512 144.385 257.115 136 246.756 136C236.397 136 228 144.385 228 154.728C228 165.07 236.397 173.455 246.756 173.455Z" stroke="#C60E14" stroke-width="6" stroke-miterlimit="10"/>
</svg>
