<svg width="362" height="548" viewBox="0 0 362 548" fill="none" xmlns="http://www.w3.org/2000/svg">
<path d="M267.984 190.572C267.984 142.072 229.033 102.755 180.984 102.755C132.936 102.755 93.9844 142.072 93.9844 190.572L93.9844 356.938C93.9844 405.438 132.936 444.755 180.984 444.755C229.033 444.755 267.984 405.438 267.984 356.938L267.984 190.572Z" stroke="#C60E14" stroke-width="6" stroke-miterlimit="10"/>
<path d="M251.984 189.046C251.984 150.225 220.197 118.755 180.984 118.755C141.772 118.755 109.984 150.225 109.984 189.046L109.984 355.464C109.984 394.285 141.772 425.755 180.984 425.755C220.197 425.755 251.984 394.285 251.984 355.464L251.984 189.046Z" stroke="#C60E14" stroke-width="6" stroke-miterlimit="10"/>
<path d="M180.993 84.7549L180.975 84.7549C122.99 84.7549 75.9844 132.041 75.9844 190.371L75.9844 357.139C75.9844 415.469 122.99 462.755 180.975 462.755L180.993 462.755C238.978 462.755 285.984 415.469 285.984 357.139L285.984 190.371C285.984 132.041 238.978 84.7549 180.993 84.7549Z" stroke="#C60E14" stroke-width="6" stroke-miterlimit="10"/>
<path d="M232.984 189.492C232.984 160.366 209.479 136.755 180.484 136.755C151.489 136.755 127.984 160.366 127.984 189.492L127.984 356.018C127.984 385.144 151.489 408.755 180.484 408.755C209.479 408.755 232.984 385.144 232.984 356.018L232.984 189.492Z" stroke="#C60E14" stroke-width="6" stroke-miterlimit="10"/>
</svg>
