<svg width="362" height="548" viewBox="0 0 362 548" fill="none" xmlns="http://www.w3.org/2000/svg">
<path d="M214.13 117.933C238.613 122.527 254.73 146.098 250.13 170.58L240.108 223.907L260.645 395.081C263.081 415.387 244.836 432.074 224.828 427.838L224.161 427.689C214.3 425.367 206.572 418.304 203.123 409.286C197.476 417.588 187.369 422.475 176.634 420.811C165.838 419.138 157.565 411.302 154.777 401.478C148.614 409.621 138.062 413.922 127.396 411.565C116.773 409.217 109.12 400.977 106.881 391.174C100.209 398.523 90.0941 402.325 79.7707 400.626C59.5882 397.303 48.5678 375.208 58.0542 357.087L138.083 204.213L148.006 151.416C152.607 126.934 176.184 110.811 200.667 115.406L214.13 117.933ZM130.82 328.456L113.971 378.741C110.139 390.179 117.063 402.415 128.842 405.019C140.016 407.488 151.024 400.24 153.169 388.998L163.548 334.602L130.82 328.456ZM170.864 335.976L160.802 390.432C158.723 401.686 166.351 412.434 177.66 414.186C189.581 416.034 200.474 407.142 201.051 395.094L203.592 342.121L170.864 335.976ZM85.102 319.871L63.9921 360.195C56.6244 374.27 65.1848 391.43 80.8601 394.01C92.1431 395.868 103.107 389.268 106.746 378.427L123.956 327.167L85.102 319.871ZM210.457 343.41L207.891 397.541C207.354 408.877 215.115 418.93 226.217 421.281C241.731 424.565 255.879 411.626 253.99 395.88L248.553 350.564L210.457 343.41ZM123.239 247.022L88.3529 313.661L126.11 320.751L149.224 251.901L123.239 247.022ZM156.044 253.182L132.971 322.039L164.804 328.017L178.286 257.359L156.044 253.182ZM185.151 258.648L172.082 329.385L203.916 335.363L207.395 262.825L185.151 258.648ZM214.213 264.105L210.776 336.651L247.716 343.588L238.732 268.709L214.213 264.105ZM143.208 208.88L126.49 240.812L151.378 245.485L162.451 212.505L143.208 208.88ZM169.252 213.767L158.194 246.765L179.543 250.774L186.005 216.913L169.252 213.767ZM192.633 218.157L186.369 252.056L207.719 256.065L209.387 221.304L192.633 218.157ZM216.183 222.562L214.534 257.345L237.894 261.732L233.588 225.83L216.183 222.562ZM149.559 179.447L145.416 201.495L234.364 218.186L238.507 196.137L149.559 179.447ZM199.429 121.994C178.584 118.082 158.511 131.809 154.595 152.652L150.797 172.859L239.745 189.55L243.542 169.343C247.459 148.5 233.736 128.431 212.892 124.52L199.429 121.994Z" fill="#C60E14"/>
</svg>
