<svg width="362" height="548" viewBox="0 0 362 548" fill="none" xmlns="http://www.w3.org/2000/svg">
<g clip-path="url(#clip0_2099_6010)">
<path d="M122.041 243.833C148.007 273.368 193.482 276.716 223.653 251.279L225.161 249.992C289.232 195.973 384.865 203.56 439.64 267.374L435.087 271.282C382.048 209.491 289.151 202.57 227.596 255.802L227.598 255.803C194.941 283.404 145.689 279.817 117.535 247.794L122.041 243.833ZM-77.6484 247.566C-24.0672 202.28 56.7995 208.164 102.997 260.718L102.984 260.728C137.983 301.657 198.973 306.2 239.477 270.889L239.476 270.887C293.432 224.302 374.877 230.365 421.383 284.408L419.109 286.365L416.835 288.322C372.545 236.854 295.029 231.029 243.585 275.268L242.57 276.145C199.438 312.949 135.028 307.772 98.1572 264.314L98.1621 264.31C54.0781 214.566 -22.805 209.069 -73.7754 252.148L-77.6484 247.566ZM-62.0928 266.427C-18.648 228.718 46.9357 233.581 84.4268 277.256C128.482 327.184 205.504 332.751 256.542 289.614L256.545 289.619C299.652 253.187 364.73 257.912 401.894 300.205L399.64 302.185L397.387 304.166C362.39 264.339 301.036 259.868 260.412 294.206L260.408 294.202C206.827 339.482 125.965 333.596 79.7695 281.045L79.7715 281.044C44.4263 239.999 -17.2709 235.467 -58.1592 270.957L-60.126 268.692L-62.0928 266.427ZM-45.0781 285.1C-12.4219 257.499 36.8304 261.086 64.9844 293.109L64.9805 293.113C118.05 354.741 210.836 361.591 272.33 308.396L276.256 312.933C212.186 368.357 115.476 361.155 60.2695 296.839L60.2705 296.838C34.2497 267.496 -11.1138 264.249 -41.2051 289.683L-43.1416 287.391L-45.0781 285.1Z" fill="#C60E14"/>
</g>
<defs>
<clipPath id="clip0_2099_6010">
<rect width="362" height="548" fill="white"/>
</clipPath>
</defs>
</svg>
