<svg width="35" height="35" viewBox="0 0 35 35" fill="none" xmlns="http://www.w3.org/2000/svg">
<path d="M25.3991 12.2733C23.9542 11.1533 22.2202 10.5933 20.3899 10.5L20.1009 10.78C21.7385 11.1533 23.1835 11.9 24.5321 12.9267C22.8945 12.0867 21.0642 11.5267 19.1376 11.34C18.5596 11.2467 18.078 11.2467 17.5 11.2467C16.922 11.2467 16.4404 11.2467 15.8624 11.34C13.9358 11.5267 12.1055 12.0867 10.4679 12.9267C11.8165 11.9 13.2615 11.1533 14.8991 10.78L14.6101 10.5C12.7798 10.5933 11.0458 11.1533 9.60092 12.2733C7.9633 15.26 7.09633 18.62 7 22.0733C8.44493 23.5667 10.4679 24.5 12.5872 24.5C12.5872 24.5 13.2615 23.7533 13.7431 23.1C12.4908 22.82 11.3349 22.1666 10.5642 21.14C11.2385 21.5133 11.9128 21.8867 12.5872 22.1666C13.4542 22.54 14.3211 22.7267 15.1881 22.9133C15.9587 23.0066 16.7294 23.1 17.5 23.1C18.2706 23.1 19.0413 23.0066 19.8119 22.9133C20.6789 22.7267 21.5458 22.54 22.4128 22.1666C23.0872 21.8867 23.7615 21.5133 24.4358 21.14C23.6651 22.1666 22.5092 22.82 21.2569 23.1C21.7385 23.7533 22.4128 24.5 22.4128 24.5C24.5321 24.5 26.5551 23.5667 28 22.0733C27.9037 18.62 27.0367 15.26 25.3991 12.2733ZM14.3211 20.3933C13.3578 20.3933 12.4908 19.5533 12.4908 18.5267C12.4908 17.5 13.3578 16.66 14.3211 16.66C15.2844 16.66 16.1514 17.5 16.1514 18.5267C16.1514 19.5533 15.2844 20.3933 14.3211 20.3933ZM20.6789 20.3933C19.7156 20.3933 18.8486 19.5533 18.8486 18.5267C18.8486 17.5 19.7156 16.66 20.6789 16.66C21.6422 16.66 22.5092 17.5 22.5092 18.5267C22.5092 19.5533 21.6422 20.3933 20.6789 20.3933Z" fill="white"/>
</svg>
