<svg width="35" height="35" viewBox="0 0 35 35" fill="none" xmlns="http://www.w3.org/2000/svg">
<path fill-rule="evenodd" clip-rule="evenodd" d="M14.0181 9H20.9819C21.9036 9.10241 22.5181 9.20482 23.0301 9.40964C23.6446 9.71687 24.0542 9.92169 24.5663 10.4337C25.0783 10.9458 25.3855 11.4578 25.5904 11.9699C25.7952 12.4819 26 13.0964 26 14.0181V20.9819C25.8976 21.9036 25.7952 22.5181 25.5904 23.0301C25.2831 23.6446 25.0783 24.0542 24.5663 24.5663C24.0542 25.0783 23.5422 25.3855 23.0301 25.5904C22.5181 25.7952 21.9036 26 20.9819 26H14.0181C13.0964 25.8976 12.4819 25.7952 11.9699 25.5904C11.3554 25.2831 10.9458 25.0783 10.4337 24.5663C9.92169 24.0542 9.61446 23.5422 9.40964 23.0301C9.20482 22.5181 9 21.9036 9 20.9819V14.0181C9.10241 13.0964 9.20482 12.4819 9.40964 11.9699C9.71687 11.3554 9.92169 10.9458 10.4337 10.4337C10.9458 9.92169 11.4578 9.61446 11.9699 9.40964C12.4819 9.20482 13.0964 9 14.0181 9ZM22.6 17.5C22.6 20.3167 20.3167 22.6 17.5 22.6C14.6833 22.6 12.4 20.3167 12.4 17.5C12.4 14.6833 14.6833 12.4 17.5 12.4C20.3167 12.4 22.6 14.6833 22.6 17.5ZM22.6 13.25C23.0694 13.25 23.45 12.8694 23.45 12.4C23.45 11.9306 23.0694 11.55 22.6 11.55C22.1306 11.55 21.75 11.9306 21.75 12.4C21.75 12.8694 22.1306 13.25 22.6 13.25Z" fill="white"/>
<path d="M20.9 17.4995C20.9 19.3773 19.3778 20.8995 17.5 20.8995C15.6222 20.8995 14.1 19.3773 14.1 17.4995C14.1 15.6218 15.6222 14.0995 17.5 14.0995C19.3778 14.0995 20.9 15.6218 20.9 17.4995Z" fill="white"/>
</svg>
