<svg width="35" height="35" viewBox="0 0 35 35" fill="none" xmlns="http://www.w3.org/2000/svg">
<path d="M19.3846 15.6138C19.1819 15.4099 18.9572 15.2292 18.7145 15.0749C18.0719 14.6634 17.3249 14.4448 16.5618 14.4448C15.5026 14.4428 14.4866 14.8636 13.7389 15.6138L10.112 19.2436C9.36571 19.9913 8.94623 21.0045 8.94556 22.061C8.94415 24.2656 10.7302 26.054 12.9349 26.0554C13.9924 26.0591 15.0075 25.6403 15.7549 24.8921L18.7488 21.8982C18.8032 21.8442 18.8335 21.7706 18.8331 21.6941C18.8322 21.5366 18.7038 21.4097 18.5463 21.4106H18.4323C17.8068 21.4128 17.1868 21.2927 16.6074 21.057C16.5007 21.0131 16.378 21.0379 16.2966 21.1197L14.1439 23.2753C13.4754 23.9438 12.3916 23.9438 11.7231 23.2753C11.0546 22.6069 11.0546 21.523 11.7231 20.8546L15.3642 17.2163C16.0322 16.5492 17.1142 16.5492 17.7822 17.2163C18.2323 17.6399 18.9345 17.6399 19.3846 17.2163C19.5783 17.0224 19.6957 16.7653 19.7154 16.492C19.7362 16.1654 19.6158 15.8455 19.3846 15.6138Z" fill="white"/>
<path d="M24.8852 10.1136C23.3262 8.55459 20.7985 8.55459 19.2395 10.1136L16.2484 13.1018C16.1663 13.1843 16.1426 13.3084 16.1886 13.4154C16.234 13.5227 16.3401 13.5916 16.4566 13.5894H16.5621C17.1868 13.5882 17.8058 13.7093 18.3841 13.9458C18.4908 13.9897 18.6135 13.9649 18.6949 13.8831L20.8419 11.7389C21.5104 11.0704 22.5942 11.0704 23.2627 11.7389C23.9312 12.4073 23.9312 13.4912 23.2627 14.1596L20.5881 16.8313L20.5653 16.857L19.6301 17.7865C18.9621 18.4537 17.8801 18.4537 17.2121 17.7865C16.762 17.3629 16.0598 17.3629 15.6097 17.7865C15.4148 17.9818 15.2973 18.2412 15.2789 18.5165C15.2581 18.8431 15.3785 19.163 15.6097 19.3947C15.9397 19.7261 16.3259 19.9964 16.7502 20.1931C16.8101 20.2216 16.87 20.2444 16.9299 20.2701C16.9897 20.2957 17.0525 20.3157 17.1123 20.3385C17.1722 20.3613 17.2349 20.3813 17.2948 20.3984L17.463 20.444C17.5771 20.4725 17.6912 20.4953 17.808 20.5152C17.9489 20.5362 18.0907 20.5495 18.2329 20.5552H18.4496L18.6207 20.5352C18.6834 20.5324 18.749 20.5181 18.8231 20.5181H18.9201L19.1168 20.4896L19.2081 20.4725L19.3734 20.4383H19.4048C20.1052 20.2624 20.7447 19.8997 21.2553 19.389L24.8851 15.7592C26.4442 14.2002 26.4442 11.6726 24.8852 10.1136Z" fill="white"/>
</svg>
