<svg width="35" height="35" viewBox="0 0 35 35" fill="none" xmlns="http://www.w3.org/2000/svg">
<path d="M25 19.1145V24.6302H21.7713V19.4508C21.7713 18.1728 21.3004 17.2984 20.157 17.2984C19.2825 17.2984 18.7444 17.9038 18.5426 18.4419C18.4753 18.6437 18.4081 18.9127 18.4081 19.249V24.6302H15.1794C15.1794 24.6302 15.2466 15.8858 15.1794 15.0114H18.4081V16.3567C18.8117 15.684 19.6188 14.7423 21.3004 14.7423C23.3856 14.7423 25 16.1549 25 19.1145ZM11.8161 10.3701C10.7399 10.3701 10 11.11 10 12.0517C10 12.9934 10.6726 13.7333 11.7489 13.7333C12.8924 13.7333 13.565 12.9934 13.565 12.0517C13.6323 11.0428 12.9596 10.3701 11.8161 10.3701ZM10.2018 24.6302H13.4305V15.0114H10.2018V24.6302Z" fill="white"/>
</svg>
