<svg width="35" height="35" viewBox="0 0 35 35" fill="none" xmlns="http://www.w3.org/2000/svg">
<path fill-rule="evenodd" clip-rule="evenodd" d="M20.475 20.0303C19.7275 20.0303 19.0994 19.4536 19.0994 18.7426C19.0994 18.0315 19.7275 17.4358 20.475 17.4358C21.2225 17.4358 21.8287 18.0315 21.8287 18.7426C21.8287 19.4536 21.2225 20.0303 20.475 20.0303ZM20.7925 22.5297C20.0962 23.1914 19.0225 23.5131 17.51 23.5131C17.5069 23.5131 17.5031 23.5125 17.4994 23.5125C17.4963 23.5125 17.4925 23.5131 17.4887 23.5131C15.9762 23.5131 14.9031 23.1914 14.2075 22.5297C13.9937 22.3264 13.9937 21.9976 14.2075 21.7949C14.4206 21.5922 14.7662 21.5922 14.98 21.7949C15.46 22.2515 16.2806 22.4738 17.4887 22.4738C17.4925 22.4738 17.4963 22.4744 17.4994 22.4744C17.5031 22.4744 17.5069 22.4738 17.51 22.4738C18.7181 22.4738 19.5394 22.2515 20.02 21.7949C20.2337 21.5916 20.5794 21.5922 20.7925 21.7949C21.0056 21.9982 21.0056 22.327 20.7925 22.5297ZM13.1712 18.7426C13.1712 18.0321 13.7981 17.4358 14.545 17.4358C15.2925 17.4358 15.8988 18.0321 15.8988 18.7426C15.8988 19.4536 15.2925 20.0303 14.545 20.0303C13.7981 20.0303 13.1712 19.4536 13.1712 18.7426ZM24.165 10.5392C24.6712 10.5392 25.0831 10.931 25.0831 11.412C25.0831 11.8936 24.6712 12.2854 24.165 12.2854C23.6587 12.2854 23.2469 11.8936 23.2469 11.412C23.2469 10.931 23.6587 10.5392 24.165 10.5392ZM27.5 17.3282C27.5 16.0672 26.4219 15.0416 25.0962 15.0416C24.5225 15.0416 23.9956 15.2342 23.5819 15.5547C22.1163 14.6784 20.2563 14.1504 18.2625 14.0386L19.3025 10.9108L22.1606 11.5511C22.2356 12.541 23.1056 13.3246 24.165 13.3246C25.2731 13.3246 26.175 12.4667 26.175 11.412C26.175 10.3579 25.2731 9.5 24.165 9.5C23.39 9.5 22.7163 9.91974 22.3806 10.5327L19.0594 9.78894C18.7812 9.72652 18.5 9.87872 18.4137 10.1379L17.1225 14.0202C14.9744 14.0702 12.955 14.5999 11.3819 15.5273C10.9737 15.2235 10.4606 15.0416 9.90375 15.0416C8.57812 15.0416 7.5 16.0672 7.5 17.3282C7.5 18.1076 7.9125 18.7967 8.54063 19.2093C8.51438 19.3906 8.50062 19.5731 8.50062 19.758C8.50062 21.3341 9.46375 22.8002 11.2125 23.8859C12.8887 24.9269 15.1075 25.5 17.4594 25.5C19.8112 25.5 22.03 24.9269 23.7062 23.8859C25.455 22.8002 26.4181 21.3341 26.4181 19.758C26.4181 19.5898 26.4062 19.4227 26.3844 19.2568C27.0544 18.8508 27.5 18.1379 27.5 17.3282Z" fill="white"/>
</svg>
