<svg width="35" height="35" viewBox="0 0 35 35" fill="none" xmlns="http://www.w3.org/2000/svg">
<path d="M24.9997 13.1596C23.8984 13.1596 22.8422 12.7213 22.0634 11.9412C21.2847 11.1612 20.8472 10.1032 20.8472 9H17.8804V20.6369C17.8798 21.1675 17.7126 21.6844 17.4024 22.1144C17.0921 22.5444 16.6546 22.8657 16.1519 23.0328C15.6492 23.1999 15.1067 23.2042 14.6014 23.0452C14.0961 22.8862 13.6535 22.5719 13.3365 22.1469C13.0194 21.7219 12.844 21.2077 12.835 20.6772C12.826 20.1467 12.9839 19.6269 13.2863 19.1913C13.5887 18.7558 14.0204 18.4266 14.52 18.2505C15.0196 18.0744 15.5619 18.0602 16.07 18.2101V15.3212C14.9902 15.1754 13.8917 15.363 12.9211 15.859C11.9506 16.355 11.1541 17.1358 10.6382 18.0971C10.1223 19.0584 9.91151 20.1545 10.0339 21.239C10.1563 22.3235 10.606 23.3448 11.3231 24.1665C12.0402 24.9882 12.9906 25.5712 14.0472 25.8377C15.1038 26.1042 16.2164 26.0414 17.2365 25.6578C18.2565 25.2742 19.1355 24.588 19.756 23.6909C20.3765 22.7937 20.7089 21.7283 20.709 20.6369L20.7956 14.7548C22.0145 15.6512 23.4878 16.1335 25 16.1312L24.9997 13.1596Z" fill="white"/>
</svg>
