<svg width="35" height="35" viewBox="0 0 35 35" fill="none" xmlns="http://www.w3.org/2000/svg">
<path d="M26.075 12.3373C25.4625 12.5998 24.7626 12.7748 24.0626 12.8623C24.7626 12.4248 25.375 11.7248 25.6375 10.9373C24.9375 11.3748 24.2375 11.6373 23.3625 11.8123C22.75 11.1123 21.7875 10.6748 20.825 10.6748C18.9 10.6748 17.325 12.2498 17.325 14.1748C17.325 14.4373 17.325 14.6998 17.4125 14.9623C14.525 14.7873 11.9 13.3873 10.15 11.2873C9.88754 11.8123 9.71254 12.4248 9.71254 13.0373C9.71254 14.2623 10.325 15.3123 11.2875 15.9248C10.675 15.9248 10.15 15.7498 9.71254 15.4873C9.71254 17.1498 10.9375 18.6373 12.5125 18.8998C12.25 18.9873 11.9 18.9873 11.55 18.9873C11.2875 18.9873 11.1125 18.9873 10.85 18.8998C11.2875 20.2998 12.6 21.3498 14.175 21.3498C12.95 22.3123 11.4625 22.8373 9.80005 22.8373C9.53755 22.8373 9.27505 22.8373 8.92505 22.7498C10.5 23.7123 12.3375 24.3248 14.35 24.3248C20.825 24.3248 24.325 18.9873 24.325 14.3498V13.9123C25.025 13.6498 25.6375 13.0373 26.075 12.3373Z" fill="white"/>
</svg>
