<svg width="35" height="35" viewBox="0 0 35 35" fill="none" xmlns="http://www.w3.org/2000/svg">
<path d="M18.3039 23C12.154 23 8.64616 18.8709 8.5 12H11.5806C11.6818 17.043 13.9528 19.1792 15.7517 19.6196V12H18.6524V16.3493C20.4288 16.1622 22.2951 14.1802 22.9247 12H25.8254C25.5882 13.1307 25.1152 14.2013 24.4362 15.1448C23.7572 16.0883 22.8867 16.8845 21.8791 17.4835C23.0038 18.0308 23.9972 18.8055 24.7937 19.7564C25.5902 20.7073 26.1718 21.8128 26.5 23H23.307C23.0124 21.9688 22.4135 21.0458 21.5855 20.3465C20.7575 19.6472 19.7372 19.2029 18.6524 19.0691V23H18.3039Z" fill="white"/>
</svg>
