<svg width="45" height="45" viewBox="0 0 45 45" fill="none" xmlns="http://www.w3.org/2000/svg">
<path d="M22.003 11H21.997C15.3805 11 10 16.382 10 23C10 25.625 10.846 28.058 12.2845 30.0335L10.789 34.4915L15.4015 33.017C17.299 34.274 19.5625 35 22.003 35C28.6195 35 34 29.6165 34 23C34 16.3835 28.6195 11 22.003 11ZM28.9855 27.9455C28.696 28.763 27.547 29.441 26.6305 29.639C26.0035 29.7725 25.1845 29.879 22.4275 28.736C18.901 27.275 16.63 23.6915 16.453 23.459C16.2835 23.2265 15.028 21.5615 15.028 19.8395C15.028 18.1175 15.9025 17.279 16.255 16.919C16.5445 16.6235 17.023 16.4885 17.482 16.4885C17.6305 16.4885 17.764 16.496 17.884 16.502C18.2365 16.517 18.4135 16.538 18.646 17.0945C18.9355 17.792 19.6405 19.514 19.7245 19.691C19.81 19.868 19.8955 20.108 19.7755 20.3405C19.663 20.5805 19.564 20.687 19.387 20.891C19.21 21.095 19.042 21.251 18.865 21.47C18.703 21.6605 18.52 21.8645 18.724 22.217C18.928 22.562 19.633 23.7125 20.671 24.6365C22.0105 25.829 23.0965 26.21 23.485 26.372C23.7745 26.492 24.1195 26.4635 24.331 26.2385C24.5995 25.949 24.931 25.469 25.2685 24.9965C25.5085 24.6575 25.8115 24.6155 26.1295 24.7355C26.4535 24.848 28.168 25.6955 28.5205 25.871C28.873 26.048 29.1055 26.132 29.191 26.2805C29.275 26.429 29.275 27.1265 28.9855 27.9455Z" fill="white"/>
</svg>
