<svg width="35" height="35" viewBox="0 0 35 35" fill="none" xmlns="http://www.w3.org/2000/svg">
<path fill-rule="evenodd" clip-rule="evenodd" d="M9.55681 23.6159C9.20021 23.5153 8.87483 23.3364 8.60814 23.0942C8.34145 22.852 8.14128 22.5537 8.0245 22.2244C7.3572 20.5224 7.15948 13.4153 8.44465 12.0123C8.87237 11.5559 9.47627 11.2749 10.1252 11.2303C13.5729 10.8853 24.225 10.9313 25.4484 11.3453C25.7924 11.4492 26.1068 11.6242 26.3679 11.8572C26.629 12.0903 26.83 12.3752 26.956 12.6908C27.685 14.4503 27.7097 20.8444 26.8571 22.5349C26.6309 22.9749 26.2522 23.3314 25.782 23.5469C24.4968 24.1449 11.2621 24.1334 9.55681 23.6159ZM15.0311 20.2809L21.2098 17.2909L15.0311 14.2778V20.2809Z" fill="white"/>
</svg>
