<svg width="1900" height="280" viewBox="0 0 1900 280" fill="none" xmlns="http://www.w3.org/2000/svg">
<path d="M1244.13 72.9252C1238.49 73.4977 1233.71 74.0225 1233.51 74.0225C1233.28 74.0702 1233.13 100.167 1233.13 132.036V190.002H1257.52L1257.62 167.818L1257.76 145.681L1271.87 167.627C1279.61 179.745 1286.21 189.716 1286.45 189.811C1286.74 189.907 1293.1 189.954 1300.65 189.907L1314.33 189.764L1302.14 172.111C1295.44 162.379 1288.36 152.169 1286.45 149.402L1282.91 144.345L1297.98 126.55C1306.25 116.769 1313.14 108.564 1313.28 108.373C1313.42 108.134 1307.44 107.943 1299.98 107.991H1286.45L1257.76 143.2L1257.62 107.466L1257.52 71.6847L1255.94 71.7325C1255.13 71.7802 1249.77 72.305 1244.13 72.9252Z" fill="#1C1C1C"/>
<path d="M1026.07 190.002H1053.23C1083.02 190.002 1086.32 189.764 1093.78 187.187C1107.99 182.321 1115.92 171.062 1118.65 151.978C1119.61 145.061 1119.75 126.216 1118.89 119.155C1117.79 110.472 1115.4 102.743 1112.1 97.0658C1109.85 93.2491 1103.49 87.0469 1099.86 85.1386C1090.29 80.0815 1083.55 79.3181 1048.93 79.3181H1026.07V190.002ZM1074.61 100.548C1078.96 101.693 1081.54 103.125 1084.22 105.796C1087.28 108.85 1088.95 112.046 1090.48 117.914C1092.11 124.117 1092.59 139.431 1091.39 147.064C1089.62 158.085 1086.08 164.096 1079.29 167.531C1075.42 169.44 1071.88 169.965 1061.6 169.965H1051.89V99.2126L1061.84 99.4989C1068.63 99.6897 1072.65 100.024 1074.61 100.548Z" fill="#1C1C1C"/>
<path d="M1167.38 106.512C1150.07 108.945 1139.69 118.869 1136.2 136.426C1134.91 142.866 1135.05 157.561 1136.49 164.24C1139.69 179.411 1147.73 187.522 1162.74 190.861C1165.66 191.529 1168.77 191.672 1177.9 191.672C1188.61 191.624 1189.76 191.529 1195.21 190.336C1200.9 189.048 1210.7 185.995 1212.95 184.802C1213.57 184.468 1214 183.943 1213.86 183.657C1213.77 183.323 1212.43 179.316 1210.94 174.64L1208.27 166.244L1203.39 168.39C1200.66 169.583 1195.98 171.205 1192.96 171.969C1188.18 173.257 1186.6 173.448 1181.01 173.448C1175.75 173.448 1173.98 173.257 1171.54 172.446C1165.99 170.633 1163.27 168.009 1161.4 162.618C1160.88 161.043 1160.54 159.707 1160.64 159.612C1160.68 159.517 1173.55 157.799 1189.14 155.795L1217.5 152.122L1217.21 143.725C1216.78 131.178 1214.91 124.88 1209.56 118.201C1205.16 112.714 1199.66 109.375 1191.86 107.419C1188.8 106.655 1186.03 106.417 1179.1 106.274C1174.22 106.178 1168.96 106.274 1167.38 106.512ZM1183.93 124.403C1188.71 126.025 1191.77 130.367 1192.34 136.235C1192.58 138.811 1192.49 139.431 1191.96 139.431C1191.58 139.479 1184.21 140.29 1175.51 141.292C1166.85 142.294 1159.68 143.057 1159.63 143.057C1159.58 143.009 1159.73 141.387 1159.97 139.431C1160.97 131.321 1164.27 126.645 1170.49 124.498C1173.36 123.497 1181.06 123.449 1183.93 124.403Z" fill="#1C1C1C"/>
<path d="M1349.1 106.56C1340.2 107.705 1333.89 110.472 1328.96 115.338C1321.5 122.733 1318.73 131.846 1318.73 148.973C1318.73 165.719 1321.6 175.403 1328.63 182.512C1333.36 187.235 1339.25 189.907 1348 191.243C1354.31 192.197 1373.2 191.911 1378.08 190.766C1396.58 186.472 1404.33 174.115 1404.33 148.925C1404.33 132.943 1401.22 122.59 1394.24 115.529C1389.27 110.472 1382.71 107.753 1372.77 106.512C1367.99 105.94 1353.88 105.987 1349.1 106.56ZM1367.6 125.214C1371.38 126.025 1373.92 127.933 1375.59 131.416C1379.41 139.288 1379.94 154.173 1376.69 164.001C1374.35 171.014 1370.42 173.495 1361.53 173.495C1355.79 173.495 1352.44 172.541 1349.72 170.06C1345.89 166.577 1344.6 162.236 1344.22 151.358C1343.65 133.229 1347.42 125.834 1357.94 124.689C1361.34 124.308 1364.11 124.451 1367.6 125.214Z" fill="#1C1C1C"/>
<path d="M1468.65 106.369C1460.61 107.514 1453.06 110.663 1448.47 114.861L1445.45 117.58V112.046C1445.45 107.085 1445.36 106.512 1444.64 106.512C1444.16 106.512 1438.76 106.941 1432.69 107.562L1421.54 108.611V190.002H1445.45V142.055L1447.18 139.526C1452.87 131.082 1460.71 127.265 1474.15 126.263L1478.74 125.977L1477.49 116.101L1476.3 106.274L1473.19 106.226C1471.47 106.178 1469.46 106.274 1468.65 106.369Z" fill="#1C1C1C"/>
<path d="M70.1014 69.9733L0 139.911L109.233 248.889L125.092 233.067L31.7185 139.911L156.276 15.6444L148.435 7.82222C144.123 3.52 140.524 0 140.417 0C140.31 0 108.698 31.4667 70.1014 69.9733Z" fill="#023378"/>
<path d="M163.475 38.6844C159.234 42.9155 155.741 46.5778 155.741 46.7555C155.741 46.9689 176.661 67.9822 202.25 93.5111L248.759 139.911L186.747 201.778C152.641 235.804 124.736 263.822 124.736 264C124.736 264.213 128.264 267.876 132.576 272.178L140.417 280L210.447 210.133C248.972 171.698 280.477 140.124 280.477 139.911C280.477 139.556 171.779 30.9333 171.423 30.9333C171.316 30.9333 167.752 34.4178 163.475 38.6844Z" fill="#023378"/>
<path d="M116.788 85.6178L93.3735 108.978L101.143 116.729C105.384 120.96 109.055 124.445 109.233 124.445C109.447 124.445 120.103 113.956 132.933 101.156L156.276 77.8667L148.435 70.0445C144.123 65.7423 140.524 62.2223 140.417 62.2223C140.31 62.2223 129.689 72.7467 116.788 85.6178Z" fill="#023378"/>
<path d="M132.291 132.018L93.3735 170.844L109.233 186.667L187.282 108.8L179.441 100.978C175.129 96.6756 171.529 93.1556 171.422 93.1556C171.316 93.1556 153.71 110.649 132.291 132.018Z" fill="#023378"/>
<path d="M70.0302 131.911L62.1896 139.733L78.2271 155.733L85.9607 148.018C90.2374 143.751 93.7299 140.124 93.7299 139.911C93.7299 139.555 78.4053 124.089 78.0489 124.089C77.942 124.089 74.3425 127.609 70.0302 131.911Z" fill="#023378"/>
<path d="M171.244 155.378L179.192 163.271L187.103 171.2L218.466 139.911L202.606 124.089L171.244 155.378Z" fill="#023378"/>
<path d="M124.558 201.956L132.505 209.849L140.417 217.778L171.779 186.489L155.92 170.667L124.558 201.956Z" fill="#023378"/>
<path d="M596.524 65.8248L586.511 66.8582V186.732H611.667V182.353L615.267 184.272C621.433 187.569 625.428 188.455 634.849 188.455C644.517 188.455 648.66 187.667 654.579 184.715C666.664 178.662 671.843 166.458 671.843 144.117C671.843 127.091 668.735 116.363 661.83 109.326C649.795 97.122 627.697 96.7775 614.478 108.539L611.667 111.048V64.693L609.102 64.7422C607.671 64.7914 601.999 65.2835 596.524 65.8248ZM635.638 120.398C641.705 123.4 644.172 130.043 644.172 143.182C644.221 157.502 641.607 165.08 635.638 168.131C634.159 168.918 632.432 169.263 629.276 169.411C623.949 169.657 619.608 168.426 615.021 165.375L611.913 163.309L611.765 147.07L611.667 130.88L613.985 128.025C620.644 120.054 629.029 117.101 635.638 120.398Z" fill="#1C1C1C"/>
<path d="M797.522 65.8246L787.755 66.8088V186.732H812.418V64.6928L809.853 64.742C808.422 64.7912 802.849 65.2833 797.522 65.8246Z" fill="#1C1C1C"/>
<path d="M496.247 86.345H516.47V66.1691H496.247V86.345Z" fill="#1C1C1C"/>
<path d="M533.24 86.345H553.463V66.1691H533.24V86.345Z" fill="#1C1C1C"/>
<path d="M349.26 186.732H372.442L372.541 149.727L372.689 112.721L396.365 168.032H411.261L434.838 111.688L434.986 149.234L435.084 186.732H461.226V72.5663L445.887 72.6647L430.547 72.8123L418.511 102.83C411.902 119.315 406.328 133.241 406.131 133.684C405.835 134.324 401.938 125.466 392.715 103.568L379.693 72.5663H349.26V186.732Z" fill="#1C1C1C"/>
<path d="M516.421 100.124C504.435 101.009 496.938 103.814 491.019 109.719C485.001 115.723 482.14 123.203 480.907 135.8C479.97 145.692 481.006 158.634 483.275 165.818C486.086 174.823 492.35 181.86 500.39 185.108C510.157 189.094 532.106 189.882 544.289 186.732C556.324 183.583 564.019 175.512 567.324 162.62C568.803 156.813 569.247 137.621 568.064 130.24C566.14 117.888 560.764 109.424 551.984 104.848C544.191 100.763 531.465 99.0902 516.421 100.124ZM532.649 120.004C537.236 121.677 539.307 124.187 541.132 130.633C542.661 135.85 543.056 147.758 541.922 154.254C539.801 166.212 535.164 170.001 523.277 169.41C517.654 169.115 515.533 168.426 512.771 165.966C509.417 163.062 507.937 158.781 507.098 149.973C506.457 143.329 507.098 134.275 508.578 129.502C510.354 123.793 513.856 120.496 519.43 119.315C522.488 118.676 530.084 119.069 532.649 120.004Z" fill="#1C1C1C"/>
<path d="M723.387 100.124C711.648 101.01 703.953 104.061 697.541 110.507C693.94 114.05 691.474 118.036 689.55 123.252C684.568 136.933 685.456 159.618 691.375 171.084C693.989 176.103 699.465 181.467 704.446 183.928C717.123 190.177 738.924 190.276 758.062 184.223C763.488 182.5 767.532 180.877 767.532 180.384C767.532 180.237 766.201 176.103 764.622 171.232C762.649 165.031 761.564 162.423 761.071 162.472C760.676 162.521 758.309 163.456 755.793 164.539C753.278 165.671 749.036 167.147 746.422 167.885C742.13 169.066 740.798 169.214 733.498 169.214C726.198 169.214 725.064 169.116 722.598 168.131C718.75 166.606 715.89 163.998 714.213 160.455C713.423 158.782 712.782 156.912 712.782 156.223V154.992L741.045 151.4C756.533 149.383 769.653 147.66 770.196 147.513C771.084 147.267 771.084 146.774 770.837 138.556C770.541 128.321 769.555 123.646 766.497 117.839C762.896 110.901 757.273 105.832 750.072 103.027C743.511 100.468 733.301 99.3858 723.387 100.124ZM737.05 119.07C741.686 120.693 745.336 126.549 745.336 132.405V134.324L730.687 135.948C722.598 136.883 715.002 137.72 713.818 137.868L711.648 138.163L711.944 134.521C712.782 123.4 719.54 117.495 730.786 118.036C732.956 118.184 735.767 118.627 737.05 119.07Z" fill="#1C1C1C"/>
<path d="M1521.72 186.732H1597.19V166.064H1548.36V136.539H1589.3V115.871H1548.36V93.2343H1594.03L1595.66 83.7369C1596.55 78.5699 1597.38 73.895 1597.48 73.4029C1597.73 72.6155 1595.71 72.5663 1559.75 72.5663H1521.72V186.732Z" fill="#1C1C1C"/>
<path d="M1758.68 100.173C1752.26 100.911 1744.96 104.257 1738.9 109.277L1737.27 110.605V105.34C1737.27 102.486 1737.22 100.124 1737.17 100.124C1737.07 100.124 1731.6 100.665 1724.94 101.354C1718.28 102.043 1712.71 102.584 1712.51 102.584C1712.26 102.584 1712.11 129.6 1712.11 162.62V222.655H1737.27V183.878L1740.97 185.305C1747.92 188.012 1750.54 188.405 1760.45 188.405C1770.66 188.356 1774.36 187.667 1780.23 184.715C1784.82 182.451 1790.39 176.694 1792.66 171.969C1796.21 164.637 1797.79 153.762 1797.3 140.475C1796.61 122.268 1792.41 112.082 1782.94 105.586C1776.78 101.354 1767.06 99.1887 1758.68 100.173ZM1761.49 120.595C1767.75 124.039 1770.32 132.405 1769.68 147.365C1769.18 157.748 1767.41 163.259 1763.41 166.704C1760.65 169.066 1757.99 169.706 1752.17 169.361C1747.08 169.115 1743.19 167.983 1739.39 165.818L1737.27 164.539V131.027L1739 128.616C1740.72 126.303 1743.98 123.351 1746.84 121.579C1751.72 118.479 1756.95 118.184 1761.49 120.595Z" fill="#1C1C1C"/>
<path d="M1847.71 100.124C1831.68 101.256 1821.91 106.718 1816.78 117.347C1813.08 125.024 1811.35 135.702 1811.9 148.103C1812.93 172.068 1820.82 183.386 1839.12 187.323C1848.05 189.193 1866.06 188.996 1874.74 186.929C1886.28 184.174 1894.17 176.743 1897.72 165.326C1899.69 158.978 1900.19 153.664 1899.94 141.411C1899.69 131.618 1899.55 129.846 1898.41 125.614C1894.47 110.753 1885.14 102.732 1869.46 100.665C1863.84 99.927 1854.07 99.681 1847.71 100.124ZM1863.54 119.857C1870.54 122.367 1873.26 128.272 1873.75 142.198C1874.05 150.317 1873.36 155.73 1871.43 160.799C1870.05 164.539 1868.13 166.655 1864.92 168.082C1862.6 169.115 1861.57 169.263 1856.14 169.263C1849.04 169.263 1847.07 168.722 1844.2 166.163C1840.55 162.866 1838.78 157.748 1838.14 148.349C1837.74 142.69 1838.53 133.783 1839.86 129.502C1842.28 121.678 1847.41 118.577 1857.13 119.02C1859.69 119.168 1862.6 119.512 1863.54 119.857Z" fill="#1C1C1C"/>
<path d="M1622.98 101.009C1616.37 101.403 1611 101.944 1611 102.141C1611 102.387 1617.26 111.343 1624.86 122.12C1632.5 132.897 1638.82 141.902 1638.92 142.198C1639.01 142.444 1631.47 152.433 1622.1 164.342C1612.77 176.251 1605.13 186.142 1605.08 186.338C1605.08 186.584 1611.24 186.732 1618.79 186.732L1632.45 186.683L1642.62 173.249L1652.73 159.815L1661.56 173.249L1670.39 186.732H1699.83L1698.2 184.37C1697.32 183.091 1690.36 173.15 1682.72 162.275L1668.76 142.493L1684.74 122.415C1693.52 111.393 1700.72 102.19 1700.77 101.944C1700.77 101.747 1694.6 101.6 1687.11 101.6H1673.39L1666.24 111.786C1662.3 117.347 1658.4 122.908 1657.51 124.138L1655.98 126.352L1638.47 100.124L1636.7 100.222C1635.71 100.222 1629.54 100.616 1622.98 101.009Z" fill="#1C1C1C"/>
<path d="M954.016 114.171H928.082C927.614 110.264 925.932 107.101 923.035 104.682C920.231 102.17 916.213 100.914 910.979 100.914C907.895 100.914 905.232 101.333 902.989 102.17C900.839 103.007 899.157 104.17 897.942 105.659C896.727 107.147 896.12 108.962 896.12 111.101C896.12 112.683 896.634 114.357 897.662 116.125C898.69 117.8 900.372 119.66 902.708 121.707L982.193 189.389H949.39L882.802 132.871C878.597 129.243 875.139 125.521 872.429 121.707C869.812 117.8 868.503 113.66 868.503 109.287C868.503 103.984 870.092 99.3326 873.27 95.3322C876.541 91.3318 881.26 88.2152 887.428 85.9824C893.69 83.6565 901.213 82.4936 909.998 82.4936C919.063 82.4936 926.82 83.8891 933.268 86.6801C939.717 89.4711 944.67 93.2389 948.128 97.9836C951.679 102.728 953.642 108.124 954.016 114.171ZM948.689 132.173H975.884L943.782 169.014C939.296 174.317 934.717 178.643 930.044 181.992C925.465 185.249 920.465 187.667 915.044 189.249C909.718 190.831 903.596 191.621 896.68 191.621C888.082 191.621 880.699 190.272 874.531 187.574C868.363 184.783 863.597 181.062 860.233 176.41C856.962 171.759 855.326 166.502 855.326 160.641C855.326 155.431 856.681 150.687 859.391 146.407C862.195 142.128 866.541 138.546 872.429 135.662C878.316 132.685 885.933 130.731 895.279 129.801L900.746 139.988C894.578 141.29 889.765 143.477 886.307 146.547C882.942 149.524 881.26 153.106 881.26 157.292C881.26 159.99 882.055 162.502 883.643 164.828C885.232 167.061 887.428 168.828 890.232 170.131C893.129 171.433 896.54 172.084 900.465 172.084C907.288 172.084 912.942 170.782 917.428 168.177C921.914 165.572 925.792 162.13 929.063 157.85L948.689 132.173Z" fill="#1C1C1C"/>
</svg>
