<svg width="250" height="66" viewBox="0 0 250 66" fill="none" xmlns="http://www.w3.org/2000/svg">
<g clip-path="url(#clip0_1074_10916)">
<path d="M168.763 44.0029C167.733 44.0029 166.864 43.6503 166.16 42.946C165.481 42.213 165.143 41.3186 165.143 40.2607C165.143 39.1761 165.481 38.2817 166.159 37.5764C166.864 36.8435 167.733 36.478 168.762 36.478C169.793 36.478 170.648 36.8435 171.325 37.5764C172.031 38.2817 172.383 39.1761 172.383 40.2607C172.383 41.3186 172.031 42.213 171.325 42.946C170.648 43.6503 169.793 44.0029 168.763 44.0029ZM177.501 43.5155V23.3389H182.382L182.789 26.878H182.952C183.684 25.4943 184.565 24.478 185.596 23.8272C186.625 23.1764 187.656 22.8506 188.688 22.8506C189.257 22.8506 189.718 22.8912 190.07 22.9724C190.449 23.0278 190.788 23.122 191.087 23.2577L190.111 28.4232C189.763 28.3222 189.41 28.2409 189.053 28.1795C188.676 28.1215 188.296 28.0944 187.915 28.0983C187.154 28.0983 186.355 28.3697 185.515 28.9115C184.701 29.4543 184.022 30.4161 183.48 31.7998V43.5155H177.501ZM199.769 44.0029C197.572 44.0029 195.972 43.2847 194.969 41.8475C193.993 40.4103 193.505 38.4164 193.505 35.8678V23.3389H199.485V35.0943C199.485 36.5592 199.688 37.5626 200.094 38.1054C200.502 38.6472 201.139 38.9177 202.007 38.9177C202.765 38.9177 203.403 38.7423 203.918 38.3897C204.433 38.037 204.99 37.4675 205.586 36.682V23.338H211.566V43.5146H206.685L206.237 40.7075H206.115C205.247 41.7377 204.312 42.5518 203.309 43.1481C202.332 43.7177 201.153 44.0029 199.769 44.0029Z" fill="#FF465C"/>
<path d="M46.0203 44.0031C45.0982 44.0031 44.2572 43.8406 43.4985 43.5157C42.7915 43.2342 42.1533 42.8038 41.6274 42.2538C41.1089 41.6798 40.6955 41.0189 40.4062 40.3015C40.1357 39.5695 40 38.7692 40 37.9015C40 35.7868 40.8954 34.1326 42.6843 32.9391C44.4751 31.7455 47.3625 30.9452 51.3492 30.5391C51.2948 29.6437 51.0234 28.9394 50.536 28.4234C50.0745 27.8815 49.288 27.6102 48.1766 27.6102C47.3089 27.6102 46.4412 27.7726 45.5735 28.0985C44.7326 28.4234 43.8234 28.8711 42.8477 29.4406L40.6914 25.4954C41.9764 24.7172 43.34 24.0767 44.7594 23.5846C46.2275 23.0912 47.7669 22.8436 49.3157 22.8517C51.9188 22.8517 53.8978 23.5975 55.2538 25.0892C56.6375 26.5532 57.3289 28.8452 57.3289 31.9634V43.5166H52.4477L52.0415 41.4415H51.8782C51.0493 42.1741 50.1338 42.8025 49.1523 43.3126C48.2034 43.7742 47.1585 44.0049 46.0203 44.0049V44.0031ZM48.0538 39.3665C48.7323 39.3665 49.3157 39.2169 49.8031 38.9188C50.2923 38.6206 50.8065 38.1997 51.3492 37.6578V34.1188C49.2335 34.4169 47.7695 34.8508 46.9554 35.4203C46.1431 35.9898 45.736 36.6674 45.736 37.4538C45.736 38.1055 45.9391 38.5929 46.3452 38.9188C46.7791 39.2169 47.3495 39.3665 48.0538 39.3665ZM62.3865 51V23.3391H67.2686L67.6748 25.3329H67.8372C68.629 24.624 69.5199 24.0344 70.4818 23.5828C71.4852 23.0945 72.5154 22.8508 73.5742 22.8508C74.7935 22.8508 75.8911 23.0945 76.8686 23.5828C77.8459 24.0719 78.6956 24.7824 79.3498 25.6578C80.0274 26.5532 80.5425 27.6369 80.8951 28.9117C81.2754 30.1597 81.4646 31.5563 81.4646 33.1025C81.4646 34.8378 81.2209 36.3831 80.7326 37.7391C80.2711 39.0683 79.6342 40.2065 78.8209 41.1563C78.0345 42.0775 77.1262 42.7828 76.0951 43.2711C75.1211 43.7523 74.0494 44.0027 72.9631 44.0031C72.0954 44.0031 71.2554 43.8277 70.4412 43.4742C69.5994 43.0751 68.8296 42.5392 68.1631 41.8883L68.3662 45.1015V51H62.3865ZM71.5803 39.1218C72.6105 39.1218 73.4911 38.6603 74.224 37.7391C74.956 36.7902 75.3225 35.2708 75.3225 33.1828C75.3225 29.5495 74.1566 27.732 71.824 27.732C70.6582 27.732 69.5052 28.3422 68.3662 29.5625V37.8203C68.9089 38.3086 69.4517 38.6474 69.9935 38.8375C70.5363 39.0268 71.0643 39.1218 71.5803 39.1218ZM92.4022 44.0031C91.1551 44.0031 90.0834 43.8138 89.1889 43.4335C88.3212 43.0551 87.6012 42.5252 87.0326 41.8477C86.4898 41.1692 86.0837 40.356 85.8123 39.4071C85.5686 38.4305 85.4458 37.3597 85.4458 36.1929V28.0172H82.6803V23.5828L85.7717 23.3391L86.4631 17.9695H91.4255V23.3391H96.2662V28.0172H91.4255V36.1126C91.4255 37.2508 91.6563 38.0788 92.1178 38.5929C92.6052 39.0822 93.2431 39.3258 94.0286 39.3258C94.3545 39.3258 94.6803 39.2843 95.0052 39.2031C95.324 39.1323 95.6369 39.0372 95.9412 38.9188L96.8763 43.2711C96.3345 43.4335 95.6966 43.5969 94.9655 43.7594C94.2326 43.9218 93.3778 44.0031 92.4022 44.0031ZM108.52 44.0031C107.083 44.0031 105.741 43.7723 104.493 43.3117C103.28 42.8456 102.173 42.1402 101.239 41.2375C100.317 40.3145 99.5985 39.2031 99.0825 37.9015C98.5674 36.6 98.3098 35.1083 98.3098 33.4274C98.3098 31.8 98.5812 30.3351 99.1231 29.0335C99.6659 27.7043 100.371 26.5929 101.239 25.6985C102.104 24.7966 103.142 24.0772 104.29 23.5828C105.407 23.0992 106.611 22.8501 107.829 22.8508C109.266 22.8508 110.513 23.0945 111.571 23.5828C112.655 24.072 113.551 24.7495 114.256 25.6172C114.988 26.4849 115.53 27.5151 115.882 28.7086C116.235 29.8745 116.411 31.1492 116.411 32.532C116.411 33.0748 116.384 33.5898 116.33 34.0782C116.276 34.5665 116.222 34.932 116.168 35.1766H104.086C104.358 36.6406 104.954 37.7252 105.876 38.4305C106.825 39.108 107.978 39.4477 109.333 39.4477C110.771 39.4477 112.222 39 113.686 38.1055L115.679 41.7258C114.614 42.4474 113.449 43.0091 112.222 43.3929C111.028 43.7909 109.778 43.9969 108.52 44.0031ZM104.046 31.2305H111.327C111.327 30.0914 111.069 29.1692 110.554 28.464C110.038 27.7597 109.171 27.4071 107.95 27.4071C107.024 27.3988 106.126 27.7316 105.429 28.3422C104.723 28.9662 104.263 29.928 104.046 31.2305ZM120.544 43.5157V15H126.36V31.3523H126.524L132.91 23.3391H139.417L132.34 31.6375L139.946 43.5157H133.479L128.924 35.664L126.36 38.5532V43.5157H120.544ZM147.516 44.0031C146.595 44.0031 145.753 43.8406 144.994 43.5157C144.287 43.2342 143.649 42.8039 143.123 42.2538C142.605 41.6796 142.192 41.0188 141.903 40.3015C141.632 39.5695 141.497 38.7692 141.497 37.9015C141.497 35.7868 142.391 34.1326 144.181 32.9391C145.971 31.7455 148.858 30.9452 152.845 30.5391C152.791 29.6437 152.52 28.9394 152.032 28.4234C151.57 27.8815 150.785 27.6102 149.673 27.6102C148.805 27.6102 147.937 27.7726 147.07 28.0985C146.229 28.4234 145.32 28.8711 144.344 29.4406L142.187 25.4945C143.472 24.7163 144.836 24.0759 146.255 23.5837C147.723 23.0903 149.263 22.8426 150.812 22.8508C153.415 22.8508 155.394 23.5966 156.751 25.0883C158.134 26.5523 158.825 28.8443 158.825 31.9625V43.5157H153.944L153.538 41.4406H153.374C152.545 42.1732 151.63 42.8015 150.648 43.3117C149.699 43.7732 148.655 44.0031 147.516 44.0031ZM149.551 39.3665C150.228 39.3665 150.812 39.2169 151.299 38.9188C151.788 38.6206 152.302 38.1997 152.845 37.6578V34.1188C150.73 34.4169 149.266 34.8508 148.451 35.4203C147.639 35.9898 147.232 36.6674 147.232 37.4538C147.232 38.1055 147.435 38.5929 147.841 38.9188C148.275 39.2169 148.845 39.3665 149.551 39.3665Z" fill="#1C257B"/>
</g>
<defs>
<clipPath id="clip0_1074_10916">
<rect width="170.769" height="36" fill="white" transform="translate(40 15)"/>
</clipPath>
</defs>
</svg>
