<svg width="250" height="66" viewBox="0 0 250 66" fill="none" xmlns="http://www.w3.org/2000/svg">
<g clip-path="url(#clip0_1074_10890)">
<path fill-rule="evenodd" clip-rule="evenodd" d="M61.1351 6.16553C49.0354 6.16553 39.2266 15.9743 39.2266 28.074V60.1531H187.945C200.045 60.1531 209.854 50.3441 209.854 38.2445V6.16553H61.1351ZM57.0032 30.6366V42.6983H61.0237V30.6366H64.0045V27.6974H61.0237V26.4912C61.0237 25.0771 61.777 24.37 63.2836 24.37C63.7642 24.37 64.1709 24.4116 64.5036 24.4948L64.5452 21.3893C63.7411 21.2044 63.0617 21.112 62.5072 21.112C60.7696 21.112 59.4155 21.5787 58.445 22.5122C57.4838 23.4365 57.0032 24.7397 57.0032 26.4219V27.6974H54.771V30.6366H57.0032ZM73.9251 42.6983C73.7404 42.3378 73.6062 41.8897 73.523 41.3534C72.5526 42.435 71.2909 42.9756 69.7381 42.9756C68.2685 42.9756 67.0485 42.5505 66.078 41.7C65.1168 40.8498 64.6362 39.7775 64.6362 38.4836C64.6362 36.8939 65.2231 35.6738 66.3969 34.8235C67.5799 33.9732 69.2852 33.5434 71.5127 33.5342H73.3565V32.6746C73.3565 31.9814 73.1764 31.4268 72.8159 31.0109C72.4647 30.595 71.9055 30.387 71.1384 30.387C70.4637 30.387 69.9322 30.5488 69.544 30.8723C69.1651 31.1958 68.9756 31.6394 68.9756 32.2032H64.9689C64.9689 31.3344 65.2369 30.5303 65.773 29.7909C66.3091 29.0514 67.067 28.4738 68.0467 28.0579C69.0264 27.6327 70.1263 27.4201 71.3464 27.4201C73.1947 27.4201 74.6598 27.8869 75.7414 28.8204C76.8319 29.7447 77.3772 31.0479 77.3772 32.7301V39.2323C77.3865 40.6557 77.5852 41.7326 77.9734 42.4626V42.6983H73.9251ZM72.2475 39.5235C71.7484 39.7822 71.2031 39.9117 70.6115 39.9117C70.0016 39.9117 69.5209 39.7499 69.1697 39.4264C68.8185 39.1029 68.6429 38.6916 68.6429 38.1925L68.6567 37.9568C68.7861 36.5704 69.8537 35.8772 71.8593 35.8772H73.3565V38.4559C73.1162 38.8996 72.7467 39.2554 72.2475 39.5235ZM86.5906 31.3436C87.0067 31.3436 87.4874 31.3806 88.0327 31.4546L88.0879 27.6003C87.6998 27.4802 87.284 27.4201 86.8403 27.4201C85.4168 27.4201 84.303 28.1087 83.499 29.4859L83.3882 27.6974H79.6032V42.6983H83.6099V32.8826C84.0813 31.8566 85.075 31.3436 86.5906 31.3436ZM92.8789 27.6974L93.0037 29.3749C94.0667 28.0717 95.5038 27.4201 97.3153 27.4201C99.2471 27.4201 100.573 28.1826 101.294 29.7077C102.348 28.1826 103.85 27.4201 105.8 27.4201C107.427 27.4201 108.638 27.8961 109.433 28.8481C110.228 29.7909 110.625 31.2142 110.625 33.1182V42.6983H106.604V33.1321C106.604 32.2818 106.438 31.6625 106.105 31.2743C105.772 30.8769 105.186 30.6782 104.344 30.6782C103.143 30.6782 102.311 31.2512 101.849 32.3973L101.863 42.6983H97.856V33.146C97.856 32.2772 97.6852 31.6487 97.343 31.2604C97.0011 30.8723 96.4189 30.6782 95.5963 30.6782C94.4595 30.6782 93.6369 31.1496 93.1286 32.0923V42.6983H89.1216V27.6974H92.8789ZM113.073 42.6983H117.093V21.4031H113.073V42.6983ZM126.459 42.9756C124.26 42.9756 122.467 42.3008 121.08 40.9513C119.703 39.6021 119.014 37.8043 119.014 35.5583V35.1701C119.014 33.6635 119.305 32.3187 119.888 31.1357C120.47 29.9434 121.292 29.0283 122.355 28.3906C123.428 27.7436 124.648 27.4201 126.016 27.4201C128.067 27.4201 129.68 28.0671 130.854 29.3611C132.037 30.655 132.629 32.4897 132.629 34.8651V36.5011H123.076C123.206 37.4808 123.594 38.2664 124.241 38.8579C124.897 39.4495 125.725 39.7452 126.723 39.7452C128.266 39.7452 129.472 39.1861 130.341 38.0677L132.31 40.2722C131.709 41.1224 130.896 41.7879 129.87 42.2685C128.844 42.7399 127.707 42.9756 126.459 42.9756ZM124.061 31.4684C124.56 30.9323 125.207 30.6643 126.002 30.6643C126.852 30.6643 127.508 30.9092 127.971 31.3991C128.433 31.8797 128.673 32.5637 128.691 33.451V33.7698H123.118C123.257 32.7716 123.571 32.0045 124.061 31.4684ZM137.877 29.4304L137.752 27.6974H133.981V42.6983H137.988V32.12C138.552 31.1588 139.398 30.6782 140.525 30.6782C141.385 30.6782 141.999 30.8723 142.369 31.2604C142.739 31.6394 142.924 32.2541 142.924 33.1044V42.6983H146.93V33.0073C146.912 31.1496 146.515 29.7539 145.738 28.8204C144.962 27.8869 143.779 27.4201 142.189 27.4201C140.386 27.4201 138.949 28.0902 137.877 29.4304ZM148.505 35.0869C148.505 32.7485 149.027 30.8861 150.072 29.4997C151.125 28.1133 152.562 27.4201 154.383 27.4201C155.844 27.4201 157.05 27.9654 158.002 29.0561V21.4031H162.022V42.6983H158.404L158.21 41.1041C157.211 42.3518 155.927 42.9756 154.356 42.9756C152.59 42.9756 151.171 42.2825 150.099 40.896C149.036 39.5002 148.505 37.564 148.505 35.0869ZM153.246 38.6084C152.756 37.8597 152.512 36.783 152.512 35.3781C152.512 32.2448 153.477 30.6782 155.409 30.6782C156.638 30.6782 157.503 31.2004 158.002 32.2448V38.1648C157.493 39.2092 156.62 39.7313 155.382 39.7313C154.448 39.7313 153.736 39.3571 153.246 38.6084ZM186.086 42.9756C187.833 42.9756 189.201 42.3747 190.19 41.1733L190.3 42.6983H194.071V27.6974H190.051V38.3173C189.542 39.26 188.609 39.7313 187.25 39.7313C185.827 39.7313 185.115 38.9504 185.115 37.3884V27.6974H181.109V37.527C181.127 39.3108 181.557 40.665 182.398 41.5891C183.248 42.5136 184.477 42.9756 186.086 42.9756ZM180.117 31.4546C179.571 31.3806 179.091 31.3436 178.675 31.3436C177.159 31.3436 176.165 31.8566 175.694 32.8826V42.6983H171.687V27.6974H175.472L175.583 29.4859C176.387 28.1087 177.501 27.4201 178.924 27.4201C179.368 27.4201 179.784 27.4802 180.172 27.6003L180.117 31.4546ZM165.122 39.1768C164.696 39.5741 164.484 40.0918 164.484 40.7296C164.484 41.3581 164.696 41.8711 165.122 42.2685C165.547 42.6567 166.088 42.8508 166.744 42.8508C167.409 42.8508 167.954 42.6567 168.38 42.2685C168.805 41.8711 169.017 41.3581 169.017 40.7296C169.017 40.0918 168.8 39.5741 168.366 39.1768C167.941 38.7794 167.4 38.5807 166.744 38.5807C166.097 38.5807 165.556 38.7794 165.122 39.1768Z" fill="#00A052"/>
</g>
<defs>
<clipPath id="clip0_1074_10890">
<rect width="170.773" height="54.2612" fill="white" transform="translate(39.2266 6.16553)"/>
</clipPath>
</defs>
</svg>
