<svg width="250" height="66" viewBox="0 0 250 66" fill="none" xmlns="http://www.w3.org/2000/svg">
<path fill-rule="evenodd" clip-rule="evenodd" d="M206.142 14.4143C207.249 14.4143 208.147 15.3534 208.147 16.5113C208.147 17.6693 207.249 18.6076 206.142 18.6076C205.034 18.6076 204.137 17.6693 204.137 16.5113C204.137 15.3534 205.034 14.4143 206.142 14.4143ZM210.669 24.6047V13.084H204.997C203.625 13.084 202.103 13.1306 201.241 14.4174C200.601 15.3797 200.554 16.9343 201.123 17.944C201.382 18.4105 201.741 18.7861 202.199 19.0756C202.49 19.258 202.891 19.4117 203.394 19.532C202.522 19.8378 201.905 20.3989 201.492 21.2783L199.838 24.6063H203.686L205.503 21.0928C205.734 20.638 205.938 20.3415 206.119 20.2041C206.364 20.0279 206.644 19.9402 206.954 19.9402H207.253V24.6063H210.669V24.6047ZM95.6045 20.0217L98.622 20.974C98.4196 21.858 98.1005 22.5984 97.6633 23.1898C97.245 23.7694 96.686 24.2316 96.0394 24.5325C95.3936 24.8321 94.5724 24.985 93.5735 24.985C92.3606 24.985 91.3741 24.8011 90.6039 24.434C89.8368 24.0653 89.1747 23.4172 88.6162 22.4929C88.0599 21.567 87.7803 20.3811 87.7803 18.9383C87.7803 17.0135 88.2701 15.5311 89.2496 14.4965C90.2315 13.4627 91.619 12.9443 93.4136 12.9443C94.8165 12.9443 95.9197 13.24 96.7239 13.8345C97.525 14.4274 98.1237 15.3402 98.5123 16.5711L95.4793 17.2727C95.3735 16.9203 95.2623 16.6627 95.1456 16.5005C94.9625 16.2366 94.7201 16.0199 94.438 15.8679C94.1491 15.7169 93.8273 15.6406 93.5016 15.646C92.7175 15.646 92.1188 15.9743 91.704 16.6277C91.3919 17.1128 91.2335 17.8773 91.2335 18.9165C91.2335 20.2072 91.4204 21.0889 91.7959 21.5677C92.1713 22.0451 92.6974 22.2841 93.3773 22.2841C94.0355 22.2841 94.533 22.0916 94.8698 21.7043C95.2074 21.3194 95.4507 20.7575 95.6037 20.0225L95.6045 20.0217ZM125.149 27.3343H122.397V24.8119H113.367V13.2299H116.783V21.9643H120.542V13.2307H123.96V22.1421H125.149V27.3343V27.3343ZM137.111 13.1569V24.6916H133.907V18.3585L129.809 24.6916H126.577V13.1569H129.795V19.5397L133.925 13.1569H137.111ZM145.417 20.232L144.211 16.0798L143.001 20.232H145.417V20.232ZM146.14 22.7335H142.274L141.717 24.6365H138.235L142.391 13.0832H146.128L150.267 24.6365H146.694L146.14 22.7335V22.7335ZM161.738 24.725H158.303V15.9455H155.613V19.5258C155.613 20.9965 155.539 22.0777 155.391 22.7684C155.24 23.4591 154.891 23.9675 154.341 24.2896C153.792 24.6117 152.907 24.7747 151.681 24.7747C151.248 24.7686 150.817 24.7261 150.391 24.6474V22.2872H150.905C151.37 22.2872 151.699 22.1786 151.89 21.9643C152.083 21.7501 152.178 21.3574 152.178 20.7846V13.084H161.738V24.7258V24.725ZM175.947 12.9357H179.387V17.0057H183.154V12.9357H186.61V24.5923H183.154V19.8719H179.387V24.5923H175.947V12.9357ZM194.869 20.1824L193.67 16.0589L192.468 20.1824H194.869ZM195.587 22.666H191.746L191.195 24.5566H187.736L191.864 13.0832H195.573L199.685 24.5566H196.135L195.587 22.6667V22.666ZM105.649 16.27C107.026 16.27 108.144 17.4388 108.144 18.8808C108.144 20.3213 107.026 21.4894 105.649 21.4894C104.271 21.4894 103.153 20.3213 103.153 18.8808C103.153 17.4388 104.271 16.27 105.649 16.27V16.27ZM105.649 12.9451C102.171 12.9451 99.9592 15.2424 99.9592 18.8808C99.9592 22.5177 102.336 24.8282 105.813 24.8282C109.29 24.8282 111.358 22.3516 111.358 18.7147C111.358 15.0778 109.127 12.9451 105.648 12.9451H105.649ZM168.899 18.901C170.036 18.901 170.957 19.8634 170.957 21.0524C170.957 22.2399 170.036 23.2054 168.899 23.2054C167.763 23.2054 166.842 22.2414 166.842 21.0524C166.842 19.8634 167.763 18.901 168.899 18.901V18.901ZM167.387 24.6846C169.895 24.6846 174.39 25.1037 174.297 21.1199C174.204 17.1361 170.143 17.4512 167.387 17.4194V12.8628H163.898V24.6846H167.387Z" fill="#FCCE00"/>
<path fill-rule="evenodd" clip-rule="evenodd" d="M204.161 44.7035L202 37.3024L199.83 44.7043H204.161V44.7035ZM205.456 49.1623H198.526L197.531 52.5563H191.288L198.738 31.9619H205.433L212.851 52.5563H206.446L205.456 49.1623ZM190.819 52.5563H183.93L181.524 47.2538C180.967 45.9934 180.534 45.208 180.221 44.8913C179.911 44.5747 179.478 44.4163 178.93 44.4163V52.5563H172.821V31.9619H178.93V39.8722C179.461 39.8427 179.875 39.6471 180.17 39.2823C180.47 38.9175 180.93 37.8682 181.562 36.1375C182.022 34.8584 182.483 33.9372 182.953 33.3815C183.419 32.825 184.18 32.4268 185.23 32.1831C186.284 31.9379 187.933 31.8184 190.183 31.8184V36.1607H189.873C188.827 36.1607 188.053 36.3672 187.552 36.7793C187.05 37.1922 186.634 37.8581 186.313 38.784C185.985 39.7092 185.639 40.3945 185.266 40.8493C184.893 41.3049 184.381 41.6696 183.736 41.9382C184.616 42.2393 185.386 42.7578 186.041 43.4912C186.7 44.2293 187.395 45.3748 188.131 46.9286L190.819 52.5563ZM152.857 31.9619H169.223V36.3625H158.994V39.6424H168.476V43.8412H158.994V47.8965H169.527V52.5563H152.857V31.9619ZM131.51 31.9619H150.115V37.0533H143.867V52.5563H137.757V37.0533H131.51V31.9619V31.9619ZM128.828 52.5563H122.719V37.0246H116.001V52.5563H109.891V31.9619H128.828V52.5563ZM99.2428 44.7043L97.082 37.3016L94.912 44.7043H99.2428ZM100.538 49.1623H93.608L92.6122 52.5563H86.3701L93.8196 31.9619H100.514L107.933 52.5563H101.529L100.538 49.1623V49.1623Z" fill="#CE0C36"/>
<path fill-rule="evenodd" clip-rule="evenodd" d="M79.1155 43.0796C77.2351 46.479 74.7283 48.6335 72.0422 50.2587C68.7898 52.2207 65.539 49.7294 61.2043 49.7294C57.8083 49.7294 54.4756 51.3802 50.8006 50.1818C44.985 48.2842 40.57 41.0516 40.57 34.512C40.57 27.9499 41.9343 22.722 47.5305 19.3404C52.4361 16.3741 59.1285 19.9559 59.1285 19.9559C59.1285 19.9559 54.3458 14.7062 47.8032 17.0718C40.3869 19.7525 37.5293 27.0799 37.5293 34.6618C37.5293 42.1847 42.8242 51.5967 50.1957 54.1494C55.5695 55.6232 55.4984 53.5968 61.1332 53.5968C66.7681 53.5968 68.1386 56.0741 71.9726 54.3387C77.0049 51.828 79.8447 48.2928 81.8108 43.0268C81.3481 43.0563 79.837 43.0796 79.1155 43.0796V43.0796ZM62.6103 17.8169C62.6667 17.5903 62.9634 16.5619 62.5601 15.414C62.1924 14.1117 60.8992 12.6565 59.5835 12.5494C59.5982 12.5913 60.1027 12.5765 60.9926 13.3146C61.803 14.0209 62.9974 15.4691 62.6103 17.8161V17.8169ZM62.2009 19.6477C62.4149 19.0796 62.4821 18.3928 62.4473 18.1964C62.4473 18.1925 61.7853 17.8208 61.2035 17.2123C60.5855 16.5821 60.0463 15.7151 59.4236 14.1815C58.879 12.9529 58.0447 12.3817 57.449 12.1225C56.8326 11.8664 56.4525 11.9207 56.2686 11.9673C56.6881 11.7988 58.4858 11.2098 60.6581 12.0115C61.6956 12.4058 62.7362 13.1532 63.2886 14.2623C63.8348 15.3535 63.8881 16.8126 62.8166 18.2111C62.8243 18.2259 62.4921 18.9873 62.2959 19.8573C62.2572 19.8147 62.2153 19.775 62.1708 19.7386C62.1816 19.7114 62.1901 19.6796 62.2017 19.6477H62.2009Z" fill="#008E62"/>
<path fill-rule="evenodd" clip-rule="evenodd" d="M69.0049 14.2584C66.5189 15.2076 64.8108 17.4125 64.9059 17.4032C68.5908 13.7578 71.7945 13.8098 73.5065 13.972C75.3127 14.2661 75.6271 14.6666 75.7352 14.7442C74.605 13.3255 71.4152 13.1648 69.0049 14.2584V14.2584ZM73.7599 18.9073C68.4363 23.8978 64.5853 18.3361 64.481 18.1933C64.1534 18.3097 63.1198 19.1014 62.5079 20.0366L62.1201 19.9334C63.1345 18.8802 64.1805 17.1432 64.1982 17.1533C65.8654 12.5921 68.4827 11.3906 70.635 11.091C72.8444 10.8598 74.5888 11.535 75.8465 12.2979C78.1927 13.8144 79.2441 15.9162 79.5794 16.9181C79.3244 16.4913 78.1733 15.2479 73.7599 18.9066V18.9073ZM63.3345 29.7249H68.9431V23.8241H73.7668V29.7257H79.4079V34.7689H73.766V40.634H68.9431V34.7689H63.3338V29.7249H63.3345Z" fill="#008E62"/>
<path fill-rule="evenodd" clip-rule="evenodd" d="M63.3997 36.1622C63.3997 33.1594 62.8434 32.6262 61.4312 32.6262C60.8287 32.6262 60.4115 32.6976 59.9704 32.8428V38.6823C59.9951 39.1907 60.5266 39.5547 61.4784 39.5547C62.7971 39.5547 63.3997 38.7816 63.3997 36.163V36.1622ZM56.4067 38.659V32.842C55.9888 32.6976 55.5507 32.6262 54.9489 32.6262C53.5352 32.6262 52.979 33.1602 52.979 36.1622C52.979 38.7816 53.6047 39.5547 54.9026 39.5547C55.8737 39.5547 56.4067 39.1627 56.4067 38.659V38.659ZM56.4067 24.9248H59.9704V29.6747C60.4115 29.5489 60.8743 29.5272 61.4305 29.5272C65.3441 29.5264 66.8019 31.0034 66.8019 36.0699C66.8019 41.079 65.0444 42.6048 62.2393 42.6048C61.1979 42.6048 60.5034 42.337 59.9704 42.0506V46.9177H56.4067V42.0499C55.8953 42.337 55.2015 42.604 54.1378 42.604C51.335 42.604 49.5752 41.0797 49.5752 36.0691C49.5752 31.0034 51.0337 29.5264 54.9489 29.5264C55.5036 29.5264 55.9656 29.5497 56.4067 29.6747V24.9248V24.9248Z" fill="#CE0C36"/>
</svg>
