<svg width="250" height="66" viewBox="0 0 250 66" fill="none" xmlns="http://www.w3.org/2000/svg">
<g clip-path="url(#clip0_1074_10895)">
<mask id="mask0_1074_10895" style="mask-type:luminance" maskUnits="userSpaceOnUse" x="64" y="15" width="156" height="36">
<path d="M220 15H64V51H220V15Z" fill="white"/>
</mask>
<g mask="url(#mask0_1074_10895)">
<path d="M144.64 28.6649V15H153.253V18.2042H148.236V28.6649H144.64Z" fill="#019BBD"/>
<path d="M164.232 28.6649V23.2932H158.837V28.6649H155.24V15H158.837V20.089H164.232V15H167.829V28.6649H164.232Z" fill="#019BBD"/>
<path d="M188.841 28.6649V18.2042H184.581V15H196.696V18.2042H192.437V28.6649H188.841Z" fill="#019BBD"/>
<path d="M179.281 28.6649V20.8429L173.508 28.6649H170.479V15H174.075V22.7277L179.754 15H182.878V28.6649H179.281Z" fill="#019BBD"/>
<path d="M123.817 28.6649V20.5602L120.22 24.8953L116.624 20.5602V28.6649H112.933V15H116.529L120.22 19.712L123.817 15H127.414V28.6649H123.817Z" fill="#019BBD"/>
<path d="M139.529 28.6649L138.772 26.7801H133.188L132.43 28.6649H128.739L134.323 15H137.636L143.22 28.6649H139.529ZM134.323 23.8586H137.731L135.932 19.6178L134.323 23.8586Z" fill="#019BBD"/>
<path d="M147.006 50.9999V40.5392H142.747V37.335H154.862V40.5392H150.603V50.9999H147.006Z" fill="#019BBD"/>
<path d="M136.879 50.9999V40.5392H132.241V50.9999H128.645V37.335H140.57V50.9999H136.879Z" fill="#019BBD"/>
<path d="M157.134 50.9999V37.335H167.166V40.5392H160.73V42.5182H166.409V45.5339H160.73V47.7957H167.166V50.9999H157.134Z" fill="#019BBD"/>
<path d="M178.808 50.9999L174.265 45.2512H173.318V50.9999H169.722V37.335H173.318V41.9528H174.454L177.956 37.335H182.121L177.388 43.6491L182.972 50.9999H178.808Z" fill="#019BBD"/>
<path d="M123.722 50.9999L122.965 49.1151H117.286L116.529 50.9999H112.933L118.517 37.335H121.83L127.414 50.9999H123.722ZM118.517 46.1936H121.924L120.22 41.8585L118.517 46.1936Z" fill="#019BBD"/>
<path d="M194.709 50.9999L193.952 49.1151H188.273L187.515 50.9999H183.919L189.503 37.335H192.816L198.4 50.9999H194.709ZM189.408 46.1936H192.816L191.112 41.8585L189.408 46.1936Z" fill="#019BBD"/>
<path d="M79.5227 26.0264V30.4557H75.0742V35.6389H79.5227V39.974H84.7283V35.6389H89.0821V30.4557H84.7283V26.0264H79.5227Z" fill="#019BBD"/>
<path d="M64 25.9319C64 23.0105 65.1358 20.2775 67.218 18.2042C69.3003 16.1309 72.0451 15 74.9792 15H100.25V20.5602H74.9792C73.5594 20.5602 72.2344 21.1257 71.1932 22.1623C70.1521 23.1989 69.5842 24.5183 69.5842 25.9319V35.2618C69.3003 37.712 67.502 39.6911 65.0411 40.0681L64.0946 40.2565V25.9319H64Z" fill="#019BBD"/>
<path d="M64 51.0002V45.44H89.271C90.6907 45.44 92.0158 44.8746 93.0569 43.8379C94.098 42.8013 94.6659 41.4819 94.6659 40.0683V31.2096C94.6659 28.5709 96.6535 26.3091 99.209 25.9322L100.155 25.7437V39.974C100.155 42.8955 99.0197 45.6285 96.9375 47.7018C94.8552 49.7751 92.1104 50.906 89.1763 50.906H64V51.0002Z" fill="#019BBD"/>
</g>
</g>
<defs>
<clipPath id="clip0_1074_10895">
<rect width="156" height="36" fill="white" transform="translate(64 15)"/>
</clipPath>
</defs>
</svg>
