<svg width="250" height="66" viewBox="0 0 250 66" fill="none" xmlns="http://www.w3.org/2000/svg">
<path d="M7.16414 31.5508H11.0321C11.6836 31.5508 12.2536 31.4287 12.6608 31.1436C13.1087 30.8992 13.3122 30.4512 13.3122 29.8403C13.3122 29.1887 13.0679 28.7 12.5386 28.4149C12.0093 28.1299 11.3172 27.9669 10.3807 27.9669C9.24065 27.9669 8.22276 28.1706 7.32701 28.5778C6.47198 28.9851 5.73909 29.4331 5.12835 29.9625L2.6854 26.7452C3.54043 25.9306 4.68048 25.2383 6.06482 24.6274C7.44916 24.0165 9.07779 23.7314 10.9507 23.7314C12.0908 23.7314 13.1494 23.8536 14.1266 24.1387C15.1037 24.3831 15.9181 24.7496 16.6102 25.2383C17.3024 25.727 17.8317 26.2972 18.2389 26.9895C18.6053 27.6819 18.8089 28.4557 18.8089 29.3109C18.8089 30.2476 18.5646 31.1028 18.076 31.8766C17.5874 32.6504 16.8545 33.2206 15.9588 33.5871C17.0174 33.9129 17.8317 34.4424 18.4424 35.2569C19.0532 36.0714 19.3382 37.0081 19.3382 38.1077C19.3382 39.0444 19.1346 39.8589 18.7274 40.592C18.3203 41.2843 17.7095 41.8545 16.9767 42.3432C16.2438 42.7912 15.3887 43.1577 14.3708 43.4021C13.353 43.6464 12.2943 43.7686 11.1543 43.7686C9.28137 43.7686 7.5713 43.4835 6.06482 42.9134C4.55833 42.3432 3.33686 41.6101 2.40039 40.7956L4.84334 37.4561C5.45408 37.9448 6.22768 38.4335 7.16414 38.8408C8.10061 39.248 9.24065 39.4517 10.5436 39.4517C11.5207 39.4517 12.2943 39.2888 12.9051 39.0037C13.5158 38.7186 13.8008 38.1892 13.8008 37.4561C13.8008 36.7638 13.5565 36.3158 13.0679 36.0714C12.5794 35.8271 11.9686 35.7049 11.2357 35.7049H7.24558V31.5508H7.16414Z" fill="#0A215D"/>
<path d="M41.2021 24.3428V38.5562H43.5636V47.9231H38.5963V43.036H26.178V47.9231H21.1699V38.5562H23.3279C23.9386 37.7009 24.4679 36.8049 24.9158 35.8275C25.3229 34.8501 25.6894 33.7912 25.9337 32.6102C26.178 31.4698 26.4223 30.2073 26.5444 28.8226C26.7073 27.4379 26.8294 25.9718 26.9516 24.3428H41.2021V24.3428ZM35.7869 38.5562V28.8226H31.5932C31.3896 31.1033 31.1046 32.9767 30.6974 34.4836C30.2903 35.9904 29.7203 37.3751 29.0281 38.5562H35.7869V38.5562Z" fill="#0A215D"/>
<path d="M76.9106 27.966C75.9334 27.966 74.9155 28.1696 74.0198 28.5769C73.1647 28.9841 72.4319 29.4321 71.8211 29.9615L69.3782 26.7442C70.2332 25.9297 71.3732 25.2373 72.7576 24.6264C74.1419 24.0156 75.7706 23.7305 77.6435 23.7305C80.4529 23.7305 82.5294 24.5043 83.873 26.0519C85.2166 27.5994 85.8274 29.6765 85.8274 32.2422V43.116H80.4936L80.3307 41.3648C79.6793 42.0979 78.9057 42.6681 77.9285 43.0753C76.9513 43.4826 75.8927 43.6862 74.7119 43.6862C74.0605 43.6862 73.3683 43.6048 72.6354 43.4011C71.9026 43.1975 71.2511 42.9124 70.6404 42.4644C70.0296 42.0164 69.5003 41.4056 69.0932 40.6725C68.686 39.9394 68.4824 39.0027 68.4824 37.9031C68.4824 36.8035 68.686 35.8261 69.1339 34.9708C69.5818 34.1156 70.1518 33.4233 70.9254 32.8531C71.699 32.2829 72.5947 31.8349 73.6126 31.5499C74.6305 31.2648 75.7706 31.1019 76.992 31.1019C77.6435 31.1019 78.2949 31.1019 78.9464 31.1426C79.5978 31.1833 80.0457 31.2241 80.29 31.2241L80.3307 30.7761C80.3307 30.2874 80.2493 29.8801 80.0457 29.5543C79.8421 29.2285 79.5978 28.9027 79.2721 28.699C78.9464 28.4547 78.5799 28.2918 78.1728 28.2103C77.8471 28.0067 77.3585 27.966 76.9106 27.966ZM80.3307 34.6858C80.0864 34.645 79.8014 34.6043 79.435 34.5636C79.0685 34.5229 78.7021 34.5229 78.3357 34.5229C76.7477 34.5229 75.6484 34.7672 74.997 35.2152C74.3455 35.7039 74.0198 36.3555 74.0198 37.17C74.0198 38.7584 74.9562 39.5322 76.7884 39.5322C77.2363 39.5322 77.6842 39.4507 78.0914 39.3285C78.5392 39.1656 78.9057 38.962 79.2314 38.7176C79.5571 38.4733 79.8421 38.1067 80.0457 37.7402C80.2493 37.333 80.3714 36.885 80.3714 36.3555V34.6858H80.3307Z" fill="#0A215D"/>
<path d="M89.9395 43.0347V24.3008H100.444C102.399 24.3008 103.905 24.7488 104.882 25.6447C105.9 26.5407 106.389 27.681 106.389 29.0657C106.389 30.1653 106.104 31.0613 105.574 31.7129C105.045 32.3645 104.394 32.8532 103.701 33.1383C104.719 33.4234 105.534 33.9528 106.226 34.6859C106.918 35.419 107.284 36.4779 107.284 37.8625C107.284 39.6138 106.674 40.917 105.411 41.7722C104.149 42.6275 102.521 43.0755 100.444 43.0755H89.9395V43.0347ZM95.2325 31.8351H98.9784C100.363 31.8351 101.014 31.2242 101.014 30.0024C101.014 29.3101 100.77 28.8621 100.363 28.577C99.9148 28.3327 99.3041 28.1698 98.4898 28.1698H95.1918V31.8351H95.2325ZM95.2325 39.2065H99.7113C101.136 39.2065 101.828 38.5956 101.828 37.3331C101.828 36.7222 101.666 36.2742 101.299 35.9484C100.933 35.6226 100.403 35.4597 99.7113 35.4597H95.2325V39.2065V39.2065Z" fill="#0A215D"/>
<path d="M127.356 40.5924C126.582 41.4477 125.605 42.14 124.343 42.7509C123.122 43.3618 121.615 43.6469 119.905 43.6469C118.399 43.6469 117.055 43.4025 115.833 42.9138C114.612 42.4251 113.553 41.7327 112.698 40.8368C111.843 39.9408 111.151 38.9226 110.663 37.7009C110.174 36.4791 109.93 35.1759 109.93 33.7504C109.93 32.325 110.174 31.0218 110.663 29.7593C111.151 28.5375 111.843 27.4379 112.739 26.5419C113.635 25.646 114.693 24.9129 115.915 24.4242C117.136 23.8947 118.521 23.6504 119.987 23.6504C121.615 23.6504 123.081 23.9355 124.302 24.5056C125.565 25.0758 126.582 25.8089 127.397 26.6641L123.977 30.3702C123.651 29.9629 123.162 29.5557 122.552 29.1484C121.941 28.7411 121.127 28.5375 120.149 28.5375C119.416 28.5375 118.765 28.6597 118.236 28.9448C117.666 29.2299 117.218 29.5964 116.851 30.0444C116.485 30.4924 116.2 31.0218 115.996 31.6327C115.793 32.2436 115.711 32.8545 115.711 33.4654C115.711 34.0763 115.793 34.7279 115.996 35.3388C116.2 35.9496 116.485 36.5198 116.851 37.0085C117.218 37.4972 117.666 37.8638 118.236 38.1896C118.806 38.4747 119.457 38.6376 120.231 38.6376C121.167 38.6376 121.941 38.4339 122.552 38.0674C123.162 37.7009 123.692 37.2529 124.099 36.8456L127.356 40.5924Z" fill="#0A215D"/>
<path d="M142.991 43.0347V31.6315L134.726 43.0347H130.084V24.3008H135.458V35.2968L143.439 24.3008H148.365V43.0347H142.991Z" fill="#0A215D"/>
<path d="M168.927 24.3428V29.1892H162.983V43.0767H157.323V29.1892H151.379V24.3428H168.927Z" fill="#0A215D"/>
<path d="M184.848 43.0347V31.6315L176.583 43.0347H171.941V24.3008H177.357V35.2968L185.337 24.3008H190.264V43.0347H184.848Z" fill="#0A215D"/>
<path d="M65.6719 29.8001C65.3462 28.619 64.8169 27.5601 64.1247 26.6642C63.4325 25.7682 62.6182 25.0351 61.6003 24.5057C60.5824 23.9762 59.4424 23.6912 58.1802 23.6912C57.0809 23.6912 56.063 23.8948 55.1265 24.3021C54.19 24.7093 53.4164 25.4017 52.7243 26.2976C52.6835 25.9718 52.6835 25.6053 52.6428 25.2795C52.6021 24.9537 52.5614 24.6279 52.5207 24.2613H47.1055V51.2626H52.7243V42.9138C53.1721 43.0767 53.7014 43.2396 54.2715 43.4025C54.8415 43.5654 55.5744 43.6469 56.3887 43.6469C57.5694 43.6469 58.7502 43.4433 59.8902 43.036C61.0303 42.6287 62.0889 42.0178 63.0254 41.1626C63.9618 40.3074 64.6947 39.2892 65.3055 38.0267C65.8755 36.7642 66.1605 35.2573 66.1605 33.5468C66.2012 32.2436 66.0383 30.9811 65.6719 29.8001ZM59.3202 37.4565C58.5059 38.434 57.3251 38.8819 55.7372 38.8819C55.6558 38.8819 55.5336 38.8819 55.4115 38.8819C54.3122 38.8005 53.2536 39.3299 52.765 40.3481V40.3888V38.1896V33.221C52.765 32.7731 52.8057 32.3251 52.8871 31.8771C53.05 31.144 53.335 30.4924 53.7422 29.963C54.0679 29.5557 54.475 29.1892 54.9636 28.9448C55.4522 28.7005 56.0222 28.5376 56.7144 28.5376C57.4066 28.5376 57.9766 28.6597 58.4652 28.9448C58.9538 29.2299 59.3202 29.5964 59.646 30.0851C59.931 30.5739 60.1753 31.1033 60.2974 31.7142C60.4603 32.3251 60.501 32.936 60.501 33.5876C60.501 35.2166 60.1345 36.5198 59.3202 37.4565Z" fill="#0A215D"/>
<path d="M248.546 28.0283C248.152 25.9613 246.725 24.9769 245.2 25.3214C243.134 25.7644 239.689 31.6211 227.241 35.8045C217.006 39.2496 208.396 37.97 205.886 37.6255C205.444 37.5762 205.296 37.8223 205.394 38.3145C205.739 40.1847 207.215 44.6142 209.035 45.3032C211.102 46.0906 218.925 48.5022 228.225 46.632C234.917 45.3032 239.542 42.6455 242.543 40.5784C247.66 36.7396 249.333 32.064 248.546 28.0283Z" fill="#FE610F"/>
<path d="M240.968 20.106C242.542 17.4976 241.558 16.5133 240.624 16.4148C239.738 16.3164 238.951 16.3164 237.819 16.3164C237.819 16.3164 237.573 16.3164 237.475 16.3164C237.13 16.3164 236.343 16.3164 236.343 16.3164C232.456 16.4148 228.618 17.0546 225.075 18.0882C221.286 19.1709 217.596 20.8443 214.3 22.8621C210.954 24.88 207.952 27.39 205.246 30.1461C204.41 31.1797 204.557 33.542 204.606 34.5264C204.656 35.2646 205.098 35.0677 205.787 34.9693C227.093 31.7703 239 23.3543 240.968 20.106Z" fill="#FE610F"/>
<path d="M211.691 48.5533C215.677 52.5398 221.089 55.0006 227.141 55.0006C233.685 55.0006 239.59 52.146 243.625 47.6182C238.557 50.2758 232.701 51.7523 226.6 51.7523C221.237 51.8015 216.267 50.6203 211.691 48.5533Z" fill="#FE610F"/>
<path d="M231.52 11.4429C230.044 11.1476 228.568 11 227.042 11C226.895 11 226.747 11 226.599 11C218.136 11.0984 210.116 16.6106 206.918 24.3376C213.314 17.5457 221.925 12.8702 231.52 11.4429Z" fill="#FE610F"/>
</svg>
