<svg width="250" height="66" viewBox="0 0 250 66" fill="none" xmlns="http://www.w3.org/2000/svg">
<path d="M143.88 5.67314C138.524 3.8748 132.148 2.84717 125.346 2.84717C118.205 2.84717 111.659 3.8748 106.133 5.93006C96.9511 9.18421 91 14.7505 91 21.0019C91 27.1677 96.9511 32.6484 106.133 35.9882C111.574 37.8722 118.205 39.0711 125.346 39.0711C132.148 39.0711 138.524 38.0434 143.88 36.1594C153.316 32.9052 159.608 27.339 159.608 21.0019C159.608 14.5793 153.316 8.92729 143.88 5.67314ZM118.29 36.245C114.804 35.6455 111.744 34.4467 109.108 32.9052L111.744 31.7064C113.614 32.9052 115.91 33.8472 118.29 34.4467V36.245ZM107.068 27.339C108.003 28.7947 109.363 30.0794 110.894 31.1925L108.258 32.477C108.088 32.3916 108.003 32.3059 107.833 32.2202C103.582 29.3085 100.947 25.455 100.947 21.1732C100.947 16.8914 103.497 12.9522 107.833 10.0406L110.554 11.2395C109.278 12.1815 108.173 13.2947 107.323 14.5793H105.028V27.339H107.068ZM118.29 33.6761C116.165 33.1622 114.294 32.3059 112.594 31.2782L116.335 29.5655C116.505 29.4799 116.59 29.2229 116.505 29.0517C116.42 28.8804 116.165 28.7947 115.995 28.8804L111.829 30.7644C110.384 29.7367 109.108 28.6235 108.173 27.339H118.375V33.6761H118.29ZM118.29 14.4936H108.343C109.193 13.3804 110.214 12.4384 111.489 11.582L115.995 13.466C116.165 13.5516 116.42 13.466 116.505 13.2091C116.59 13.0378 116.505 12.7809 116.335 12.6953L112.339 10.9826C114.124 9.8693 116.165 9.01294 118.375 8.41349V14.4936H118.29ZM118.29 7.55712C115.654 8.24221 113.359 9.26984 111.319 10.5544L108.683 9.44111C111.404 7.81404 114.634 6.61514 118.29 5.93006V7.55712ZM118.29 5.15934C107.918 6.95767 100.182 13.3804 100.182 21.1732C100.182 28.8804 107.918 35.2174 118.29 37.1014V37.1871C113.869 36.5875 109.704 35.5601 106.218 34.0185C98.9064 30.9357 94.2306 26.2257 94.2306 20.8307C94.2306 15.5213 98.9064 10.7256 106.218 7.55712C109.704 6.18696 113.869 4.98805 118.29 4.47425V5.15934ZM131.127 5.93006C134.698 6.61514 137.844 7.81404 140.564 9.44111L138.099 10.64C136.143 9.26984 133.763 8.24221 131.127 7.55712V5.93006ZM141.924 14.4936C141.074 13.2947 140.054 12.1815 138.779 11.2395L141.329 9.95493L141.414 10.0406C145.75 12.9522 148.301 16.8914 148.301 21.1732C148.301 25.3694 145.75 29.2229 141.584 32.0489L139.034 30.7644C140.309 29.7367 141.329 28.6235 142.179 27.339H144.135V14.4936H141.924ZM131.127 8.41349C133.423 9.01294 135.463 9.95493 137.249 11.0682L134.273 12.524C134.103 12.6096 134.018 12.8665 134.103 13.0378C134.188 13.2091 134.443 13.2947 134.613 13.2091L138.014 11.4964C139.119 12.3527 140.139 13.2947 140.904 14.408H131.127V8.41349ZM131.127 27.339H141.159C140.394 28.4522 139.374 29.4799 138.184 30.3362L134.613 28.7092C134.443 28.6235 134.188 28.7092 134.103 28.8804C134.018 29.0517 134.103 29.3085 134.273 29.3942L137.418 30.85C135.633 32.0489 133.508 32.9909 131.127 33.5904V27.339ZM131.127 34.5324C133.848 33.8472 136.228 32.7341 138.269 31.3639L140.904 32.5627C138.184 34.2754 134.868 35.5601 131.212 36.245V34.5324H131.127ZM143.88 34.361C140.139 35.7312 135.803 36.8446 131.127 37.3584V37.1014C141.414 35.2174 149.151 28.8804 149.151 21.1732C149.151 16.4632 146.26 12.2671 141.754 9.26984C141.669 9.18421 141.584 9.09858 141.499 9.09858C138.609 7.30022 135.038 5.93006 131.127 5.15934V4.47425C135.803 4.98805 140.139 5.93006 143.88 7.47149C151.531 10.5544 156.547 15.4356 156.547 20.9163C156.547 26.397 151.531 31.2782 143.88 34.361Z" fill="#FA251E"/>
<path d="M41 62.8468V61.2061L41.972 61.0655L46.2989 49.1968H49.0932L53.392 61.0655L54.3638 61.2061V62.8468H49.7286V61.2061L50.6725 61.0373L50.0744 59.1625H45.2896L44.6915 61.0373L45.6354 61.2061V62.8468H41ZM45.9344 57.1468H49.4296L47.8408 52.4686L47.7101 52.0562H47.6539L47.5137 52.4968L45.9344 57.1468Z" fill="#FA251E"/>
<path d="M55.1631 62.8468V61.2061L56.6116 60.9249V51.128L55.1631 50.8468V49.1968H69.069V50.8468L67.6205 51.128V60.9249L69.069 61.2061V62.8468H63.443V61.2061L64.8916 60.9249V51.3062H59.3405V60.9249L60.7983 61.2061V62.8468H55.1631Z" fill="#FA251E"/>
<path d="M72.9893 62.8468V61.2061L74.4472 60.9249V51.3062H71.9706L71.8211 52.9374H69.7559V49.1968H81.8954V52.9374H79.8207L79.6713 51.3062H77.176V60.9249L78.6432 61.2061V62.8468H72.9893Z" fill="#FA251E"/>
<path d="M82.6572 62.8468V61.2061L84.1059 60.9249V51.128L82.6572 50.8468V49.1968H93.2175V52.8811H91.1241L91.0027 51.3062H86.8347V54.7374H91.442V56.8468H86.8347V60.7468H91.227L91.3485 59.1156H93.423V62.8468H82.6572Z" fill="#FA251E"/>
<path d="M94.6895 62.8467V61.206L96.138 60.9248V51.1279L94.6895 50.8467V49.1967H100.25V50.8467L98.8669 51.1279V54.7748H100.091L102.642 51.0904C103.184 50.3279 103.686 49.7998 104.147 49.5061C104.608 49.2123 105.122 49.0654 105.689 49.0654C106.038 49.0654 106.349 49.1092 106.623 49.1967C106.904 49.2842 107.159 49.3998 107.39 49.5436L106.932 51.5967C106.801 51.5654 106.68 51.5404 106.567 51.5217C106.462 51.4967 106.356 51.4842 106.25 51.4842C105.982 51.4842 105.717 51.5654 105.455 51.7279C105.2 51.8904 104.901 52.1936 104.558 52.6373L102.427 55.5624L106.194 60.9716L107.623 61.206V62.8467H102.231V61.206L103.007 61.0936L102.988 61.0654L100.465 57.2592H98.8669V60.9248L100.25 61.206V62.8467H94.6895Z" fill="#FA251E"/>
<path d="M108.039 62.8468V61.2061L109.011 61.0655L113.338 49.1968H116.132L120.431 61.0655L121.403 61.2061V62.8468H116.768V61.2061L117.712 61.0373L117.113 59.1625H112.329L111.731 61.0373L112.674 61.2061V62.8468H108.039ZM112.973 57.1468H116.469L114.88 52.4686L114.749 52.0562H114.693L114.553 52.4968L112.973 57.1468Z" fill="#FA251E"/>
<path d="M128.75 61.7592L126.133 58.103V57.9248L128.75 54.2686H130.497L128.254 58.0185L130.497 61.7592H128.75ZM132.441 61.7592L129.824 58.103V57.9248L132.441 54.2686H134.189L131.946 58.0185L134.189 61.7592H132.441Z" fill="#FA251E"/>
<path d="M141.576 63.0437C140.66 63.0437 139.825 62.8718 139.07 62.5282C138.317 62.1843 137.667 61.7032 137.118 61.0843C136.576 60.4594 136.158 59.7282 135.866 58.8906C135.573 58.0469 135.426 57.125 135.426 56.125V55.9187C135.426 54.925 135.573 54.0094 135.866 53.1719C136.158 52.3281 136.576 51.5938 137.118 50.9688C137.66 50.3438 138.308 49.8594 139.062 49.5156C139.815 49.1719 140.651 49 141.566 49C142.488 49 143.329 49.1719 144.089 49.5156C144.85 49.8594 145.504 50.3438 146.051 50.9688C146.6 51.5938 147.021 52.3281 147.313 53.1719C147.613 54.0094 147.763 54.925 147.763 55.9187V56.125C147.763 57.125 147.613 58.0469 147.313 58.8906C147.021 59.7282 146.6 60.4594 146.051 61.0843C145.504 61.7032 144.85 62.1843 144.089 62.5282C143.335 62.8718 142.498 63.0437 141.576 63.0437ZM141.576 60.9157C142.348 60.9157 142.989 60.7157 143.501 60.3157C144.011 59.9157 144.394 59.3563 144.651 58.6374C144.912 57.9187 145.043 57.0813 145.043 56.125V55.9C145.043 54.9563 144.912 54.1281 144.651 53.4156C144.388 52.6969 143.999 52.1375 143.482 51.7375C142.971 51.3375 142.332 51.1375 141.566 51.1375C140.806 51.1375 140.174 51.3375 139.668 51.7375C139.164 52.1312 138.785 52.6844 138.53 53.3969C138.279 54.1094 138.155 54.9437 138.155 55.9V56.125C138.155 57.0813 138.279 57.9187 138.53 58.6374C138.785 59.3563 139.164 59.9157 139.668 60.3157C140.18 60.7157 140.815 60.9157 141.576 60.9157Z" fill="#FA251E"/>
<path d="M153.693 63.0437C152.782 63.0437 151.945 62.8938 151.178 62.5938C150.418 62.2938 149.811 61.8531 149.356 61.2718C148.902 60.6843 148.683 59.9656 148.702 59.1157L148.72 59.0594H151.374C151.374 59.4094 151.468 59.7282 151.655 60.0157C151.848 60.3032 152.122 60.5312 152.478 60.7C152.832 60.8626 153.249 60.9437 153.73 60.9437C154.452 60.9437 155.041 60.7594 155.495 60.3906C155.956 60.0157 156.187 59.4906 156.187 58.8157C156.187 58.2219 155.991 57.7563 155.599 57.4187C155.213 57.0813 154.626 56.9125 153.841 56.9125H152.187V54.8594H153.841C154.57 54.8594 155.109 54.6969 155.458 54.3719C155.808 54.0406 155.982 53.6 155.982 53.05C155.982 52.4625 155.776 51.9938 155.364 51.6438C154.959 51.2875 154.35 51.1094 153.533 51.1094C152.978 51.1094 152.497 51.1906 152.085 51.3531C151.68 51.5094 151.356 51.7188 151.112 51.9812L150.833 53.6781H148.804V51.1C149.334 50.4688 150.023 49.9625 150.87 49.5812C151.723 49.1938 152.677 49 153.73 49C155.256 49 156.465 49.3312 157.355 49.9938C158.253 50.65 158.701 51.5531 158.701 52.7031C158.701 53.4281 158.514 54.0594 158.141 54.5969C157.766 55.1344 157.253 55.5469 156.599 55.8344C157.347 56.1032 157.919 56.5094 158.318 57.0531C158.717 57.5906 158.916 58.2501 158.916 59.0312C158.916 59.8626 158.695 60.5781 158.253 61.1781C157.816 61.7781 157.207 62.2406 156.42 62.5656C155.636 62.8843 154.726 63.0437 153.693 63.0437Z" fill="#FA251E"/>
<path d="M159.912 62.8468V61.2061L161.36 60.9249V51.128L159.912 50.8468V49.1968H170.472V52.8811H168.38L168.258 51.3062H164.089V54.7374H168.697V56.8468H164.089V60.7468H168.482L168.603 59.1156H170.678V62.8468H159.912Z" fill="#FA251E"/>
<path d="M171.943 62.8468V61.2061L173.392 60.9249V51.128L171.943 50.8468V49.1968H173.392H178.42C179.46 49.1968 180.358 49.3811 181.111 49.7499C181.865 50.1124 182.444 50.6218 182.85 51.278C183.255 51.928 183.457 52.6874 183.457 53.5562C183.457 54.4249 183.255 55.1874 182.85 55.8436C182.444 56.4937 181.865 56.9999 181.111 57.3625C180.358 57.7186 179.46 57.8967 178.42 57.8967H176.121V60.9249L177.578 61.2061V62.8468H171.943ZM176.121 55.7874H178.42C179.18 55.7874 179.754 55.5812 180.14 55.1687C180.532 54.7499 180.728 54.2186 180.728 53.5749C180.728 52.9186 180.532 52.378 180.14 51.953C179.754 51.5218 179.18 51.3062 178.42 51.3062H176.121V55.7874Z" fill="#FA251E"/>
<path d="M184.146 62.8467V61.206L185.594 60.9248V51.1279L184.146 50.8467V49.1967H189.705V50.8467L188.323 51.1279V54.7748H189.546L192.098 51.0904C192.64 50.3279 193.141 49.7998 193.602 49.5061C194.063 49.2123 194.578 49.0654 195.144 49.0654C195.493 49.0654 195.804 49.1092 196.079 49.1967C196.36 49.2842 196.615 49.3998 196.846 49.5436L196.387 51.5967C196.256 51.5654 196.135 51.5404 196.023 51.5217C195.918 51.4967 195.811 51.4842 195.706 51.4842C195.438 51.4842 195.173 51.5654 194.911 51.7279C194.656 51.8904 194.356 52.1936 194.013 52.6373L191.883 55.5624L195.65 60.9716L197.079 61.206V62.8467H191.686V61.206L192.463 61.0936L192.444 61.0654L189.921 57.2592H188.323V60.9248L189.705 61.206V62.8467H184.146Z" fill="#FA251E"/>
<path d="M197.756 62.8468V61.2061L199.214 60.9249V51.128L197.756 50.8468V49.1968H199.214H201.933H203.391V50.8468L201.933 51.128V57.4468L201.989 57.4655L207.475 51.8874V51.128L206.027 50.8468V49.1968H207.475H210.214H211.662V50.8468L210.214 51.128V60.9249L211.662 61.2061V62.8468H206.027V61.2061L207.475 60.9249V54.7562L207.42 54.7374L201.933 60.3249V60.9249L203.391 61.2061V62.8468H197.756Z" fill="#FA251E"/>
<path d="M212.527 61.431L214.76 57.6904L212.527 53.9404H214.275L216.891 57.5968V57.7748L214.275 61.431H212.527ZM216.322 61.431L218.555 57.6904L216.322 53.9404H218.068L220.685 57.5968V57.7748L218.068 61.431H216.322Z" fill="#FA251E"/>
</svg>
