<svg width="250" height="66" viewBox="0 0 250 66" fill="none" xmlns="http://www.w3.org/2000/svg">
<g clip-path="url(#clip0_1074_10822)">
<mask id="mask0_1074_10822" style="mask-type:luminance" maskUnits="userSpaceOnUse" x="41" y="9" width="168" height="48">
<path d="M209 9H41V57H209V9Z" fill="white"/>
</mask>
<g mask="url(#mask0_1074_10822)">
<path d="M80.175 15.0605H79.8589L79.7446 15.3553L74.8001 28.1138V15.5221V15.0605H74.3385H61.5713H61.1097V15.5221V28.1608L56.0424 15.3523L55.9269 15.0605H55.6132H42.8459H42.1172L42.4286 15.7193L50.0817 31.9095C47.7472 32.4469 46.0026 33.5063 45.0183 34.9462C43.9666 36.4846 43.4787 38.8515 43.4787 41.8472V55.247V55.7085H43.9402H56.7076H57.1691V55.247V42.6773C57.1691 41.6745 57.3973 41.1077 57.7593 40.7547C58.1706 40.3536 58.5448 40.1742 59.1394 40.1742C59.5689 40.1742 60.0594 40.4307 60.5009 40.8553C60.8986 41.349 61.1097 41.9474 61.1097 42.7959V55.3655V55.827H61.5713H74.217H74.6785V55.3655V42.7959C74.6785 41.793 74.9068 41.2263 75.2687 40.8732C75.6704 40.4814 76.1634 40.2929 76.6488 40.2929C77.1342 40.2929 77.6272 40.4814 78.0289 40.8732C78.3866 41.222 78.6191 41.9025 78.6191 42.7959V55.4841V55.9457H79.0806H91.8479H92.3094V55.4841V41.9658C92.3094 38.8538 91.8222 36.4856 90.7698 34.9462L90.7626 34.9355L90.7547 34.9253C89.6678 33.512 88.0372 32.4502 85.7063 31.9098L93.3595 15.7193L93.671 15.0605H92.9423H80.175Z" fill="#FFF500" stroke="#00913A"/>
<path d="M131.487 27.3799H97.9277V52.7564H131.487V27.3799Z" fill="url(#paint0_linear_1074_10822)"/>
<path d="M97.1982 37.9339C94.4016 37.341 89.9027 31.6491 94.6448 23.5855C99.3869 15.522 114.343 6.15404 138.54 12.676C162.737 19.1981 187.298 23.3484 208.456 9C196.905 37.341 183.165 47.8948 168.695 50.7407C154.104 53.5867 131.974 53.231 122.854 51.9266C113.613 50.6222 100.724 48.4877 97.1982 37.9339Z" fill="#0E6A39"/>
<path d="M130.758 52.1635V52.6378C127.597 52.4007 124.8 52.2821 122.733 51.9263C114.465 50.7405 102.914 48.8432 98.293 40.4239C98.293 40.3053 98.1714 40.0682 98.0498 39.831C98.1714 39.5938 98.4146 39.4753 98.5362 39.2381C103.4 33.309 107.412 29.5144 110.696 27.3799C115.438 38.7638 122.368 46.7088 130.758 52.1635Z" fill="url(#paint1_linear_1074_10822)"/>
<path d="M110.695 27.3806C108.992 28.4478 107.168 29.9894 105.101 31.8867C103.034 33.784 100.846 36.2742 98.4137 39.2388C98.2921 39.4759 98.0489 39.5945 97.9273 39.8317C97.5625 39.1202 97.1978 38.1715 97.0761 37.9344C94.2795 37.3415 89.7806 31.6495 94.5227 23.586C98.0489 17.6569 107.047 11.0163 121.152 10.542C114.707 14.0995 109.965 21.0958 110.695 27.3806Z" fill="url(#paint2_linear_1074_10822)"/>
<path d="M146.809 14.8109C142.31 17.7754 138.419 21.4515 136.473 25.839C127.232 23.8231 120.423 22.8744 113.492 25.839C112.641 26.1948 111.668 26.669 110.695 27.3805C110.087 21.0958 114.708 14.218 121.274 10.542C126.381 10.4234 132.096 11.0163 138.419 12.6764C141.215 13.3879 144.012 14.0994 146.809 14.8109Z" fill="url(#paint3_linear_1074_10822)"/>
<path d="M167.966 18.368V29.7518H153.496C152.644 29.6333 151.793 29.396 150.942 29.1589C145.471 27.9731 140.728 26.7872 136.595 25.8386C138.54 21.4511 142.43 17.7751 146.93 14.8105C153.861 16.4707 160.913 17.7751 167.966 18.368Z" fill="url(#paint4_linear_1074_10822)"/>
<path d="M185.84 17.8936C183.772 23.2297 180.854 27.1429 176.964 30.3446C169.79 31.7676 162.251 31.4119 153.496 29.7517C158.36 27.8544 163.953 23.8226 167.966 18.3679C174.045 18.8422 180.003 18.7236 185.84 17.8936Z" fill="url(#paint5_linear_1074_10822)"/>
<path d="M208.334 9C204.808 13.9804 200.309 19.4352 194.716 22.5183C188.758 26.5501 183.043 29.0403 176.964 30.3447C180.854 27.143 183.772 23.2298 185.84 17.8936C193.621 16.5892 201.16 13.8618 208.334 9Z" fill="url(#paint6_linear_1074_10822)"/>
<path d="M152.037 52.6377C144.863 52.9934 137.446 52.9934 131.609 52.7563C122.855 47.3015 115.681 39.238 110.695 27.3798C111.668 26.7869 112.641 26.3125 113.492 25.8382C120.423 22.9923 127.354 23.8223 136.473 25.8382C138.905 36.5106 143.403 45.7599 152.037 52.6377Z" fill="url(#paint7_linear_1074_10822)"/>
<path d="M179.882 46.7091C176.234 48.725 172.343 50.0294 168.574 50.7408C163.71 51.6894 157.874 52.2824 152.037 52.6381C143.403 45.7604 138.904 36.511 136.473 25.9573C140.728 26.7873 145.471 27.9731 150.942 29.159C151.793 29.3961 152.645 29.5147 153.496 29.7519C159.94 38.0525 169.546 44.2188 179.882 46.7091Z" fill="url(#paint8_linear_1074_10822)"/>
<path d="M194.716 33.6647C189.974 39.7124 184.989 43.8628 179.882 46.7087C169.546 44.2185 159.94 38.1708 153.496 29.7515C162.129 31.4117 169.79 31.7674 176.964 30.3445C182.678 32.7161 188.636 33.9019 194.716 33.6647Z" fill="url(#paint9_linear_1074_10822)"/>
<path d="M208.334 9C204.079 19.4352 199.458 27.4987 194.716 33.665C188.636 33.9021 182.8 32.7163 176.964 30.3447C183.043 29.1589 188.758 26.6687 194.594 22.6369C201.525 18.2494 205.295 13.1504 208.334 9Z" fill="url(#paint10_linear_1074_10822)"/>
<path d="M194.716 22.5181C180.368 32.4789 166.75 32.7161 150.942 29.1586C135.013 25.6012 123.584 21.5695 113.491 25.8384C109.6 27.4985 104.737 31.5303 98.4139 39.2381C94.8876 43.507 92.3342 47.0645 87.592 49.3175H85.6465V40.0682C90.2671 40.0682 93.307 38.1709 95.9819 36.0364C104.615 29.2772 107.533 22.8739 122.246 22.0437C138.297 21.2137 164.317 39.831 194.716 22.5181Z" fill="url(#paint11_linear_1074_10822)"/>
<path d="M85.7683 40.0684C85.7683 40.0684 90.2673 49.6734 86.8626 49.5549C83.2149 49.4363 85.7683 40.0684 85.7683 40.0684Z" fill="#0E6A39"/>
<path d="M165.777 26.4311C165.777 25.9568 165.777 25.4825 165.899 25.1267C165.899 24.6524 166.02 24.2967 166.02 23.8223C166.02 23.7038 166.02 23.7038 166.02 23.5852C166.02 23.4665 166.02 23.4665 166.02 23.348C166.02 23.2294 166.02 23.1109 166.02 23.1109C166.02 22.9923 166.02 22.8737 166.02 22.8737C166.02 22.3994 166.02 22.0436 166.142 21.8065C166.142 21.5693 166.263 21.4507 166.385 21.4507H166.506C166.506 21.4507 166.628 21.4507 166.75 21.4507C166.872 21.4507 166.872 21.5693 166.993 21.5693C167.236 21.6879 167.357 21.8065 167.479 21.925C167.601 22.0436 167.723 22.1621 167.723 22.2808C167.723 22.2808 167.844 22.3994 167.844 22.5179C167.844 22.6365 167.844 22.6365 167.844 22.7551C167.844 22.8737 167.844 22.8737 167.844 22.9923C167.844 23.1109 167.844 23.2294 167.844 23.348C167.844 23.5852 167.723 23.8223 167.723 24.1781C167.723 24.5338 167.601 25.0082 167.601 25.4825C167.723 25.3639 167.844 25.2453 167.966 25.1267C168.087 25.0082 168.209 24.8896 168.33 24.7709C168.33 24.7709 168.33 24.7709 168.452 24.6524C168.452 24.6524 168.452 24.6524 168.574 24.5338C168.939 24.0595 169.303 23.5852 169.668 23.2294C170.032 22.7551 170.276 22.5179 170.398 22.2808C170.519 22.1621 170.641 22.0436 170.763 21.925C170.884 21.8065 171.005 21.8065 171.127 21.8065H171.249C171.37 21.8065 171.37 21.8065 171.492 21.8065C171.614 21.8065 171.735 21.925 171.735 21.925C171.735 21.925 171.735 21.925 171.856 22.0436C171.856 22.0436 171.856 22.0436 171.978 22.1621C171.978 22.1621 171.978 22.2808 172.1 22.2808V22.3994C172.1 22.5179 172.1 22.6365 171.978 22.6365C171.978 22.7551 171.856 22.8737 171.856 22.8737C171.856 22.9923 171.856 23.1109 171.856 23.2294C171.856 23.348 171.856 23.4665 171.856 23.5852V23.7038V23.8223V25.1267C171.856 25.6011 171.856 25.9568 171.856 26.3126C171.856 26.6683 171.978 27.024 171.978 27.3797C171.978 27.4984 172.1 27.7355 172.1 27.8541C172.1 27.9727 172.222 28.2099 172.222 28.3284C172.222 28.447 172.222 28.447 172.222 28.5656C172.222 28.6841 172.222 28.6841 172.222 28.6841V28.8028H172.1H171.978C171.856 28.8028 171.856 28.8028 171.735 28.8028C171.614 28.8028 171.492 28.6841 171.37 28.6841C171.249 28.6841 171.127 28.6841 171.127 28.5656C171.005 28.5656 171.005 28.5656 170.884 28.447C170.519 28.3284 170.398 28.2099 170.276 27.9727C170.154 27.7355 170.154 27.4984 170.154 27.024C170.154 26.9055 170.154 26.7869 170.154 26.6683C170.154 26.5497 170.154 26.4311 170.154 26.3126C170.154 26.194 170.154 26.194 170.154 26.0753C170.154 25.9568 170.154 25.9568 170.154 25.8382C170.154 25.8382 170.154 25.8382 170.154 25.7196C170.154 25.7196 170.154 25.7196 170.154 25.6011C170.154 25.6011 170.154 25.6011 170.154 25.4825C170.154 25.3639 170.154 25.1267 170.154 25.0082C170.154 24.8896 170.154 24.6524 170.154 24.5338V24.4153V24.2967C170.032 24.4152 170.032 24.5338 169.911 24.5338C169.79 24.6524 169.79 24.6524 169.79 24.7709C169.79 24.7709 169.79 24.7709 169.668 24.8896C169.668 24.8896 169.668 24.8896 169.547 25.0082C169.425 25.1267 169.303 25.3639 169.181 25.4825C169.06 25.7196 168.939 25.8382 168.695 26.194C168.452 26.5497 168.209 26.9055 168.087 27.2612C167.966 27.617 167.844 27.7355 167.844 27.8541V27.9727V28.0913V28.2099V28.3284C167.844 28.3284 167.844 28.3284 167.844 28.447C167.844 28.447 167.844 28.447 167.723 28.447H167.601H167.479H167.357C166.75 28.3284 166.263 28.2099 166.142 28.0913C166.02 27.8541 165.899 27.4984 165.899 26.6683C165.899 26.6683 165.899 26.6683 165.899 26.5497C165.899 26.5497 165.899 26.5497 165.899 26.4311C165.777 26.5497 165.777 26.5497 165.777 26.4311ZM160.305 24.8896C160.427 25.0082 160.427 25.1267 160.549 25.2453C160.671 25.3639 160.791 25.6011 160.913 25.7196C161.035 25.8382 161.035 25.9568 161.156 26.0753C161.278 26.194 161.278 26.3126 161.4 26.3126C161.522 26.5497 161.764 26.6683 161.886 26.9055C162.129 27.1426 162.251 27.2612 162.494 27.4984C162.615 27.617 162.859 27.8541 162.98 27.9727C163.102 28.0913 163.346 28.2099 163.467 28.3284L163.588 28.447H163.467H163.346H163.224C163.102 28.447 162.98 28.447 162.98 28.5656C162.859 28.5656 162.737 28.5656 162.615 28.5656H162.494C162.373 28.5656 162.373 28.5656 162.251 28.5656C162.129 28.5656 162.129 28.447 162.008 28.447C162.008 28.447 162.008 28.447 161.886 28.447H161.764C161.643 28.3284 161.522 28.2099 161.4 28.0913C161.278 27.9727 161.156 27.8541 161.035 27.7355C160.791 27.4984 160.427 27.1426 160.184 26.7869C159.94 26.4311 159.698 26.0753 159.454 25.7196C159.333 25.6011 159.333 25.4825 159.211 25.3639C159.089 25.2453 159.089 25.1267 159.089 25.0082C159.089 25.0082 159.089 25.0082 158.967 24.8896L158.725 27.617C158.725 27.617 158.725 27.617 158.603 27.617H158.481H158.36C158.36 27.617 158.238 27.617 158.116 27.617C157.995 27.617 157.874 27.4984 157.752 27.4984H157.63H157.509C157.265 27.3797 157.023 27.3797 156.901 27.2612C156.779 27.1426 156.779 27.024 156.779 26.7869V26.6683V26.5497V26.4311V26.3126C156.901 25.8382 157.023 25.2453 157.023 24.4153C157.143 23.5852 157.143 22.6365 157.265 21.8065C157.265 21.6879 157.265 21.5693 157.265 21.4507C157.265 21.3321 157.265 21.2135 157.265 21.095C157.265 20.9764 157.265 20.8577 157.387 20.8577C157.387 20.8577 157.509 20.7392 157.509 20.8577H157.63H157.752H157.874C157.995 20.8577 158.116 20.9764 158.238 20.9764C158.36 21.095 158.603 21.095 158.725 21.2135C158.847 21.2135 158.847 21.3321 158.847 21.3321H158.967V21.4507V21.5693L158.847 23.348V23.4665C158.847 23.4665 158.847 23.4665 158.967 23.5852C159.333 23.348 159.698 23.1109 159.94 22.8737C160.184 22.6365 160.427 22.3994 160.671 22.0436C160.791 21.925 160.913 21.8065 160.913 21.6879C161.035 21.5693 161.035 21.4507 161.156 21.3321C161.156 21.3321 161.156 21.3321 161.278 21.3321H161.4H161.522C161.643 21.3321 161.643 21.4507 161.764 21.4507C161.886 21.5693 162.129 21.6879 162.129 21.8065C162.251 21.925 162.251 21.925 162.373 22.0436V22.1621V22.2808V22.3994V22.5179C162.373 22.6365 162.251 22.7551 162.251 22.8737C162.129 22.9923 162.129 23.1109 162.008 23.2294C161.764 23.4665 161.522 23.8223 161.278 24.0595C161.035 24.2967 160.671 24.5338 160.427 24.6524C160.427 24.6524 160.427 24.6524 160.305 24.6524C160.305 24.7709 160.305 24.7709 160.305 24.8896C160.305 24.7709 160.305 24.7709 160.305 24.8896ZM153.375 21.095L153.01 20.9764C152.888 20.9764 152.766 20.9764 152.523 20.8577C152.402 20.8577 152.159 20.8577 152.037 20.7392C151.915 20.7392 151.794 20.7392 151.794 20.7392C151.794 20.7392 151.672 20.7392 151.672 20.8577C151.672 20.9764 151.551 20.9764 151.551 21.095C151.551 21.2135 151.551 21.2135 151.429 21.3321C151.429 21.4507 151.308 21.5693 151.308 21.6879C151.308 21.8065 151.308 21.925 151.308 22.1621V22.2808C151.308 22.2808 151.308 22.2808 151.429 22.3994C151.551 22.3994 151.672 22.3994 151.794 22.3994C151.915 22.3994 152.037 22.3994 152.037 22.3994H152.159C152.523 22.5179 152.766 22.5179 152.888 22.6365C153.01 22.7551 153.132 22.8737 153.253 23.1109C153.253 23.1109 153.253 23.2294 153.375 23.2294C153.375 23.2294 153.375 23.348 153.496 23.348C153.496 23.4665 153.375 23.4665 153.01 23.4665C152.645 23.4665 152.28 23.348 151.915 23.348C151.794 23.348 151.794 23.348 151.672 23.348C151.551 23.348 151.551 23.348 151.429 23.348H151.308C151.308 23.348 151.308 23.348 151.186 23.348C151.186 23.4665 151.186 23.5852 151.186 23.8223C151.186 24.0595 151.186 24.2967 151.186 24.5338V25.0082C151.186 25.0082 151.186 25.1267 151.308 25.1267C151.308 25.1267 151.429 25.2453 151.551 25.2453C151.672 25.2453 151.915 25.2453 152.159 25.2453C152.402 25.2453 152.766 25.2453 153.132 25.2453C153.253 25.2453 153.253 25.2453 153.375 25.2453C153.496 25.2453 153.496 25.2453 153.496 25.2453H153.617C153.861 25.2453 153.983 25.3639 154.104 25.4825C154.226 25.6011 154.347 25.7196 154.347 25.8382C154.347 25.8382 154.347 25.8382 154.347 25.9568C154.347 25.9568 154.347 25.9568 154.347 26.0753C154.347 26.194 154.347 26.194 154.347 26.3126C154.347 26.4311 154.226 26.4311 154.104 26.4311C153.983 26.4311 153.861 26.4311 153.739 26.4311C153.617 26.4311 153.496 26.4311 153.253 26.4311C153.01 26.4311 152.766 26.4311 152.523 26.4311C152.28 26.4311 152.037 26.4311 151.794 26.4311C151.672 26.4311 151.672 26.4311 151.551 26.4311C151.429 26.4311 151.429 26.4311 151.308 26.4311H151.186C150.821 26.3126 150.578 26.3126 150.335 26.194C150.091 26.0753 149.848 25.9568 149.727 25.7196C149.605 25.6011 149.362 25.2453 149.362 24.8896C149.24 24.5338 149.24 24.0595 149.24 23.5852C149.24 23.4665 149.24 23.348 149.24 23.2294C149.24 23.1109 149.24 22.9923 149.24 22.8737C149.24 22.5179 149.362 22.1621 149.484 21.8065C149.605 21.4507 149.727 21.2135 149.848 20.9764C149.848 20.9764 149.848 20.9764 149.848 20.8577L149.727 20.7392L149.605 20.6206C149.605 20.5021 149.484 20.5021 149.484 20.3835C149.484 20.2649 149.362 20.2649 149.362 20.1463C149.362 20.0277 149.24 20.0277 149.24 19.9091C149.24 19.7906 149.24 19.7906 149.24 19.672C149.362 19.5533 149.605 19.5533 150.091 19.5533C150.578 19.5533 151.186 19.672 152.159 19.9091H152.28C152.402 19.9091 152.523 19.9091 152.523 19.9091C152.645 19.9091 152.645 19.9091 152.766 19.9091C152.766 19.9091 152.888 19.9091 152.888 20.0277C152.888 20.0277 153.01 20.1463 153.132 20.1463C153.253 20.2649 153.375 20.3835 153.496 20.5021C153.617 20.6206 153.739 20.7392 153.861 20.8577C153.861 20.9764 153.983 20.9764 153.983 20.9764V21.095C153.617 21.095 153.617 21.095 153.375 21.095ZM145.836 18.1304C146.2 18.2489 146.322 18.3676 146.565 18.4862C146.809 18.6047 146.931 18.8419 147.051 18.9605L147.173 19.0791C147.173 19.0791 147.173 19.1977 147.295 19.1977V19.3162C147.295 19.3162 147.295 19.3162 147.295 19.4348C147.295 19.5533 147.295 19.5533 147.173 19.5533C147.051 19.5533 147.051 19.5533 146.931 19.5533C146.809 19.5533 146.565 19.4348 146.444 19.4348C146.322 19.4348 146.2 19.4348 146.079 19.3162C145.836 19.3162 145.714 19.1977 145.714 19.1977C145.714 19.1977 145.593 19.1977 145.593 19.3162C145.471 19.9091 145.349 20.5021 145.349 20.9764C145.349 21.5693 145.227 22.0436 145.227 22.5179C145.227 22.7551 145.227 22.9923 145.227 23.2294C145.227 23.4665 145.227 23.7038 145.227 23.8223C145.227 23.9409 145.227 24.0595 145.227 24.1781C145.227 24.2967 145.227 24.4153 145.227 24.4153C145.227 24.5338 145.227 24.6524 145.227 24.6524C145.227 24.7709 145.107 24.7709 144.985 24.7709H144.863C144.863 24.7709 144.741 24.7709 144.741 24.6524C144.741 24.6524 144.62 24.6524 144.498 24.5338C144.376 24.5338 144.376 24.4153 144.255 24.4153C144.134 24.4153 144.134 24.2967 144.012 24.2967C143.769 24.1781 143.525 23.9409 143.403 23.8223C143.283 23.7038 143.161 23.4665 143.161 23.2294V23.1109V22.9923C143.161 22.7551 143.161 22.5179 143.161 22.2808C143.161 22.0436 143.161 21.8065 143.161 21.5693C143.161 21.2135 143.161 20.8577 143.283 20.5021C143.283 20.1463 143.283 19.7906 143.403 19.4348C143.403 19.3162 143.403 19.1977 143.403 19.1977C143.403 19.0791 143.403 19.0791 143.403 18.9605C143.403 18.8419 143.403 18.8419 143.403 18.7233L143.283 18.6047C143.283 18.6047 143.161 18.6047 143.039 18.6047C142.918 18.6047 142.918 18.6047 142.796 18.6047H142.674H142.552H142.431C142.188 18.6047 142.066 18.4862 141.945 18.3676C141.823 18.2489 141.701 18.1304 141.701 18.0118C141.701 17.8932 141.701 17.8932 141.701 17.8932V17.7747C141.701 17.6561 141.701 17.6561 141.823 17.5375C141.823 17.5375 141.945 17.4189 142.066 17.4189C142.066 17.4189 142.188 17.4189 142.31 17.4189C142.431 17.4189 142.431 17.4189 142.552 17.4189C143.161 17.4189 143.647 17.5375 144.255 17.6561C144.863 17.7747 145.349 17.8932 145.836 18.0118H145.958L145.836 18.1304ZM133.92 16.5888C133.798 16.5888 133.798 16.5888 133.798 16.5888H133.676H133.555H133.433H133.311L133.19 16.4703L133.068 16.3517C133.068 16.2331 133.068 16.2331 133.068 16.1145C133.068 16.1145 133.068 16.1145 133.068 15.9959V15.8774V15.7588V15.6402C133.068 15.6402 133.068 15.6402 133.068 15.5216C133.068 15.5216 133.068 15.5216 133.068 15.403C133.068 15.2844 133.19 15.2845 133.311 15.1659C133.433 15.1659 133.555 15.1659 133.676 15.1659C133.676 15.1659 133.676 15.1659 133.798 15.1659C133.798 15.1659 133.798 15.1659 133.92 15.1659C134.162 15.1659 134.284 15.2844 134.527 15.2844C134.771 15.2844 134.892 15.403 135.135 15.403C135.622 15.5216 135.986 15.6402 136.473 15.6402C136.959 15.7588 137.446 15.8774 137.932 15.9959H138.054H138.175H138.297C138.54 16.1145 138.783 16.1145 138.905 16.2331C139.148 16.3517 139.27 16.4703 139.27 16.5888C139.27 16.5888 139.27 16.5888 139.27 16.7074C139.27 16.7074 139.27 16.7074 139.27 16.826C139.27 16.9446 139.27 16.9446 139.392 17.0632C139.392 17.1818 139.392 17.1818 139.392 17.3003C139.392 17.3003 139.392 17.4189 139.392 17.5375C139.392 17.6561 139.392 17.8932 139.392 18.0118C139.392 18.1304 139.392 18.2489 139.392 18.3676C139.392 18.4862 139.392 18.7233 139.392 18.8419C139.392 19.0791 139.392 19.3162 139.392 19.672C139.392 19.9091 139.392 20.2649 139.392 20.5021C139.392 20.6206 139.392 20.7392 139.392 20.9764C139.392 21.095 139.392 21.3321 139.392 21.4507C139.392 21.6879 139.392 21.925 139.392 22.1621C139.392 22.3994 139.392 22.6365 139.512 22.8737V23.1109C139.512 23.2294 139.512 23.2294 139.512 23.2294H139.392H139.27C139.27 23.2294 139.148 23.2294 139.026 23.1109C138.905 23.1109 138.783 22.9923 138.783 22.9923C138.661 22.8737 138.54 22.8737 138.419 22.7551C138.297 22.6365 138.175 22.6365 138.175 22.5179C137.932 22.3994 137.81 22.1621 137.688 21.925C137.688 21.6879 137.568 21.3321 137.568 20.8577V20.2649C137.568 20.2649 137.568 20.0277 137.568 19.7906C137.568 19.5533 137.688 19.1977 137.688 18.8419C137.688 18.6047 137.688 18.3676 137.81 18.0118C137.81 17.6561 137.81 17.4189 137.81 17.0632C137.568 17.0632 137.324 16.9446 137.202 16.9446C136.959 16.9446 136.837 16.826 136.595 16.826C136.473 16.826 136.351 16.826 136.351 16.826C136.23 16.826 136.23 16.826 136.108 16.826C136.108 16.9446 136.108 16.9446 136.108 17.1818C136.108 17.3003 136.108 17.5375 136.108 17.6561V19.1977C136.108 19.3162 136.108 19.4348 136.108 19.5533C136.108 19.672 136.108 19.7906 136.108 20.0277C136.108 20.3835 136.108 20.7392 136.108 20.9764C136.108 21.3321 135.986 21.5693 135.986 21.8065C135.986 21.925 135.864 22.1621 135.864 22.1621C135.744 22.2808 135.622 22.2808 135.5 22.2808H135.379C135.257 22.2808 135.257 22.2808 135.135 22.1621C135.013 22.0436 134.892 22.0436 134.771 21.925C134.406 21.5693 134.162 21.4507 133.92 21.2135C133.798 21.095 133.676 20.9764 133.676 20.8577C133.676 20.7392 133.676 20.7392 133.798 20.6206C133.92 20.5021 133.92 20.3835 134.041 20.2649C134.041 20.1463 134.162 20.1463 134.162 20.0277C134.162 19.9091 134.284 19.9091 134.284 19.7906C134.284 19.5533 134.406 19.1977 134.406 18.8419C134.406 18.3676 134.527 17.8933 134.527 17.3003C134.527 17.3003 134.527 17.1818 134.527 17.0632C134.527 16.9446 134.527 16.9446 134.527 16.826V16.7074C133.92 16.5888 133.92 16.5888 133.92 16.5888ZM127.232 17.6561C127.232 17.7747 127.232 17.7747 127.232 17.6561C127.232 17.7747 127.353 17.7747 127.353 17.7747L128.326 17.8932C128.326 17.7747 128.204 17.5375 128.204 17.1818C128.083 16.826 128.083 16.4703 127.961 16.1145C127.84 16.2331 127.718 16.3517 127.718 16.4703C127.597 16.5888 127.597 16.826 127.475 16.9446C127.475 17.0632 127.353 17.1818 127.353 17.3003C127.232 17.5375 127.232 17.5375 127.232 17.6561ZM124.678 18.8419L124.557 18.7233C124.435 18.7233 124.435 18.6047 124.314 18.4862C124.314 18.3676 124.192 18.3676 124.192 18.2489C124.07 18.1304 124.07 18.0118 124.07 17.8932C124.192 17.7747 124.314 17.7747 124.435 17.7747C124.557 17.7747 124.678 17.7747 124.8 17.7747C124.921 17.7747 125.043 17.7747 125.165 17.6561C125.286 17.6561 125.286 17.5375 125.408 17.3003C125.651 16.5889 125.894 16.1145 126.016 15.6402C126.137 15.2845 126.381 14.9287 126.502 14.8101C126.624 14.6915 126.624 14.6915 126.745 14.6915C126.867 14.6915 126.867 14.6915 126.989 14.6915H127.11H127.232H127.353L127.11 14.0986C127.11 14.0986 127.11 14.0986 127.232 14.0986C127.232 14.0986 127.353 14.0986 127.475 14.0986H127.597H127.718C128.083 14.2172 128.448 14.3358 128.691 14.573C128.934 14.8101 129.177 15.1659 129.42 15.7588C129.664 16.2331 129.785 17.0632 130.028 17.8932C130.272 18.8419 130.515 20.0277 130.88 21.4507C130.88 21.4507 130.88 21.4507 130.758 21.4507C130.636 21.4507 130.636 21.4507 130.515 21.4507H130.393C130.272 21.4507 130.15 21.4507 130.028 21.3321C129.907 21.3321 129.785 21.3321 129.664 21.2135C129.542 21.2135 129.299 21.095 129.177 21.095C129.056 21.095 128.934 20.9764 128.812 20.9764C128.812 20.9764 128.691 20.9764 128.691 20.8577C128.691 20.8577 128.691 20.8577 128.569 20.8577C128.569 20.7392 128.569 20.7392 128.569 20.6206C128.569 20.5021 128.569 20.5021 128.569 20.3835C128.569 20.2649 128.569 20.1463 128.569 20.1463C128.569 20.0277 128.569 20.0277 128.569 19.9091C128.569 19.7906 128.569 19.672 128.448 19.4348C128.448 19.3162 128.448 19.0791 128.326 18.9605C128.326 18.9605 128.326 18.9605 128.326 18.8419C128.326 18.8419 128.326 18.8419 128.204 18.8419H126.989C126.867 18.8419 126.745 18.8419 126.745 18.8419C126.745 18.8419 126.624 18.8419 126.624 18.9605C126.745 19.3162 126.745 19.672 126.745 19.9091C126.745 20.1463 126.745 20.5021 126.624 20.7392C126.624 20.7392 126.624 20.8577 126.502 20.8577C126.381 20.8577 126.381 20.8577 126.259 20.8577H126.137C126.016 20.8577 125.894 20.8577 125.773 20.7392C125.651 20.7392 125.53 20.6206 125.408 20.6206C125.286 20.6206 125.165 20.5021 125.165 20.5021C125.043 20.5021 124.921 20.3835 124.921 20.3835C124.921 20.3835 124.921 20.3835 124.8 20.2649C124.8 20.2649 124.8 20.2649 124.8 20.1463V20.0277V19.9091V19.7906V19.672C124.8 19.5533 124.8 19.4348 124.8 19.3162C124.557 19.0791 124.678 18.9605 124.678 18.8419Z" fill="#FEFEFE"/>
<path d="M115.802 28.46H115.341V28.9215V46.5903C115.341 49.5396 116.228 51.9192 118.155 53.7984C120.084 55.6799 122.642 56.5383 125.651 56.5383C129.043 56.5383 131.729 55.4311 133.654 53.3033L133.662 53.295L133.669 53.2863C135.198 51.4224 135.962 49.3022 135.962 46.7088C135.962 45.0686 135.444 43.4388 134.425 41.9463C133.702 40.84 132.809 39.9717 131.811 39.3466C132.301 39.0033 132.734 38.5571 133.102 37.9299C133.637 37.0178 133.895 35.9858 133.895 34.732C133.895 32.8352 133.239 31.3916 131.905 30.3453C130.452 29.0631 128.381 28.46 125.651 28.46H115.802ZM123.438 35.1936H124.679C125.251 35.1936 125.753 35.3091 126.008 35.4747C126.267 35.6434 126.406 35.8651 126.406 36.1551C126.406 36.389 126.331 36.643 126.147 36.923C125.943 37.112 125.705 37.2351 125.53 37.2351H125.457L125.387 37.2577L124.657 37.4948L124.365 37.59L124.34 37.8968L123.854 43.9444L123.789 44.7508L124.516 44.3963C124.756 44.2791 124.975 44.1726 125.308 44.0646C125.594 43.9714 125.891 43.9686 126.138 43.9686C126.757 43.9686 127.246 44.1653 127.639 44.5491C128.012 44.912 128.23 45.4887 128.23 46.2345C128.23 46.9585 128.024 47.4259 127.639 47.8013C127.253 48.1779 126.768 48.3818 126.016 48.3818C125.299 48.3818 124.702 48.0851 124.306 47.6019L124.261 47.5466L124.201 47.5077C123.665 47.1596 123.438 46.5284 123.438 45.6416V35.1936ZM95.1314 35.6935H94.6699V36.1551V50.0291C94.6699 51.9146 95.3178 53.599 96.7806 54.7706C98.095 55.9207 99.6671 56.4197 101.576 56.4197C102.235 56.4197 103.022 56.2927 103.689 56.0324C104.122 55.8635 104.622 55.6341 105.105 55.3417L105.131 55.5425L105.182 55.9454H105.588H113.492H113.954V55.4838V36.1551V35.6935H113.492H105.953H105.492V36.1551V47.8947C105.492 48.2295 105.314 48.5502 105.094 48.6935C104.906 48.8155 104.748 48.9175 104.596 48.9917C104.445 49.0653 104.335 49.0933 104.251 49.0933C103.975 49.0933 103.737 49.0017 103.6 48.8686C103.286 48.5618 103.132 48.3177 103.132 47.8947V36.1551V35.6935H102.67H95.1314ZM137.567 35.6935H137.106V36.1551V50.0291C137.106 51.9146 137.754 53.599 139.217 54.7706C140.531 55.9207 142.103 56.4197 144.012 56.4197C144.67 56.4197 145.457 56.2927 146.125 56.0324C146.558 55.8635 147.058 55.6341 147.541 55.3417L147.567 55.5425L147.618 55.9454H148.024H155.928H156.389V55.4838V36.1551V35.6935H155.928H148.389H147.927V36.1551V47.8947C147.927 48.2295 147.75 48.5502 147.53 48.6935C147.342 48.8155 147.183 48.9175 147.032 48.9917C146.881 49.0653 146.771 49.0933 146.687 49.0933C146.41 49.0933 146.173 49.0017 146.036 48.8686C145.721 48.5618 145.567 48.3177 145.567 47.8947V36.1551V35.6935H145.106H137.567ZM158.141 55.4838V55.9454H158.603H166.142H166.603V55.4838V49.3766C166.718 48.942 166.808 48.763 167.001 48.6374C167.343 48.4155 167.493 48.3562 167.722 48.3562C167.999 48.3562 168.236 48.4477 168.373 48.5808C168.534 48.7382 168.72 49.0961 168.72 49.4362V55.3653V55.8268H169.181H176.72H177.182V55.3653V50.0291C177.182 49.0141 177.151 48.1359 177.073 47.4009C176.995 46.6712 176.867 46.0533 176.656 45.5745L176.651 45.5618L176.644 45.5496C176.149 44.5815 175.328 43.9605 174.099 43.5687L177.742 36.2419L178.073 35.5749H177.328H169.546H169.25L169.126 35.8451L166.603 41.3814V36.0364V35.5749H166.142H158.603H158.141V36.0364V36.1551V55.4838ZM192.187 55.3653V55.8268H192.649H200.187H200.649V55.3653V45.7601C200.649 42.792 199.628 40.3005 197.47 38.1963C195.313 36.0926 192.764 35.1006 189.731 35.1006C186.698 35.1006 184.148 36.0926 181.991 38.1963C179.834 40.3005 178.812 42.792 178.812 45.7601C178.812 48.7284 179.834 51.2198 181.991 53.3241C184.148 55.4278 186.698 56.4197 189.731 56.4197H190.09L190.179 56.0713L192.187 48.1181V55.3653ZM192.187 45.8787V47.8599L191.441 47.4833C191.073 47.932 190.501 48.1446 189.731 48.1446C189.107 48.1446 188.498 47.9446 187.986 47.4457L187.968 47.4278L187.947 47.4122C187.488 47.0535 187.274 46.5014 187.274 45.7601C187.274 45.0189 187.488 44.4668 187.947 44.1082L187.968 44.0925L187.986 44.0747C188.504 43.569 188.995 43.3757 189.731 43.3757C190.466 43.3757 190.957 43.569 191.475 44.0747L191.494 44.0925L191.514 44.1082C191.967 44.4616 192.187 45.0074 192.187 45.8787Z" fill="#FFF500"/>
<path d="M167.001 48.6374C166.808 48.763 166.718 48.942 166.603 49.3766V55.4838V55.9454H166.142H158.603H158.141V55.4838V36.1551V36.0364V35.5749H158.603H166.142H166.603V36.0364V41.3814L169.126 35.8451L169.25 35.5749H169.546H177.328H178.073L177.742 36.2419L174.099 43.5687C175.328 43.9605 176.149 44.5815 176.644 45.5496L176.651 45.5618L176.656 45.5745C176.867 46.0533 176.995 46.6712 177.073 47.4009C177.151 48.1359 177.182 49.0141 177.182 50.0291V55.3653V55.8268H176.72H169.181H168.72V55.3653V49.4362C168.72 49.0961 168.534 48.7382 168.373 48.5808C168.236 48.4477 167.999 48.3562 167.722 48.3562C167.493 48.3562 167.343 48.4155 167.001 48.6374ZM167.001 48.6374L166.75 48.2504M115.802 28.46H115.341V28.9215V46.5903C115.341 49.5396 116.228 51.9192 118.155 53.7984C120.084 55.6799 122.642 56.5383 125.651 56.5383C129.043 56.5383 131.729 55.4311 133.654 53.3033L133.662 53.295L133.669 53.2863C135.198 51.4224 135.962 49.3022 135.962 46.7088C135.962 45.0686 135.444 43.4388 134.425 41.9463C133.702 40.84 132.809 39.9717 131.811 39.3466C132.301 39.0033 132.734 38.5571 133.102 37.9299C133.637 37.0178 133.895 35.9858 133.895 34.732C133.895 32.8352 133.239 31.3916 131.905 30.3453C130.452 29.0631 128.381 28.46 125.651 28.46H115.802ZM123.438 35.1936H124.679C125.251 35.1936 125.753 35.3091 126.008 35.4747C126.267 35.6434 126.406 35.8651 126.406 36.1551C126.406 36.389 126.331 36.643 126.147 36.923C125.943 37.112 125.705 37.2351 125.53 37.2351H125.457L125.387 37.2577L124.657 37.4948L124.365 37.59L124.34 37.8968L123.854 43.9444L123.789 44.7508L124.516 44.3963C124.756 44.2791 124.975 44.1726 125.308 44.0646C125.594 43.9714 125.891 43.9686 126.138 43.9686C126.757 43.9686 127.246 44.1653 127.639 44.5491C128.012 44.912 128.23 45.4887 128.23 46.2345C128.23 46.9585 128.024 47.4259 127.639 47.8013C127.253 48.1779 126.768 48.3818 126.016 48.3818C125.299 48.3818 124.702 48.0851 124.306 47.6019L124.261 47.5466L124.201 47.5077C123.665 47.1596 123.438 46.5284 123.438 45.6416V35.1936ZM95.1314 35.6935H94.6699V36.1551V50.0291C94.6699 51.9146 95.3178 53.599 96.7806 54.7706C98.095 55.9207 99.6671 56.4197 101.576 56.4197C102.235 56.4197 103.022 56.2927 103.689 56.0324C104.122 55.8635 104.622 55.6341 105.105 55.3417L105.131 55.5425L105.182 55.9454H105.588H113.492H113.954V55.4838V36.1551V35.6935H113.492H105.953H105.492V36.1551V47.8947C105.492 48.2295 105.314 48.5502 105.094 48.6935C104.906 48.8155 104.748 48.9175 104.596 48.9917C104.445 49.0653 104.335 49.0933 104.251 49.0933C103.975 49.0933 103.737 49.0017 103.6 48.8686C103.286 48.5618 103.132 48.3177 103.132 47.8947V36.1551V35.6935H102.67H95.1314ZM137.567 35.6935H137.106V36.1551V50.0291C137.106 51.9146 137.754 53.599 139.217 54.7706C140.531 55.9207 142.103 56.4197 144.012 56.4197C144.67 56.4197 145.457 56.2927 146.125 56.0324C146.558 55.8635 147.058 55.6341 147.541 55.3417L147.567 55.5425L147.618 55.9454H148.024H155.928H156.389V55.4838V36.1551V35.6935H155.928H148.389H147.927V36.1551V47.8947C147.927 48.2295 147.75 48.5502 147.53 48.6935C147.342 48.8155 147.183 48.9175 147.032 48.9917C146.881 49.0653 146.771 49.0933 146.687 49.0933C146.41 49.0933 146.173 49.0017 146.036 48.8686C145.721 48.5618 145.567 48.3177 145.567 47.8947V36.1551V35.6935H145.106H137.567ZM192.187 55.3653V55.8268H192.649H200.187H200.649V55.3653V45.7601C200.649 42.792 199.628 40.3005 197.47 38.1963C195.313 36.0926 192.764 35.1006 189.731 35.1006C186.698 35.1006 184.148 36.0926 181.991 38.1963C179.834 40.3005 178.812 42.792 178.812 45.7601C178.812 48.7284 179.834 51.2198 181.991 53.3241C184.148 55.4278 186.698 56.4197 189.731 56.4197H190.09L190.179 56.0713L192.187 48.1181V55.3653ZM192.187 45.8787V47.8599L191.441 47.4833C191.073 47.932 190.501 48.1446 189.731 48.1446C189.107 48.1446 188.498 47.9446 187.986 47.4457L187.968 47.4278L187.947 47.4122C187.488 47.0535 187.274 46.5014 187.274 45.7601C187.274 45.0189 187.488 44.4668 187.947 44.1082L187.968 44.0925L187.986 44.0747C188.504 43.569 188.995 43.3757 189.731 43.3757C190.466 43.3757 190.957 43.569 191.475 44.0747L191.494 44.0925L191.514 44.1082C191.967 44.4616 192.187 45.0074 192.187 45.8787Z" stroke="#00913A"/>
</g>
</g>
<defs>
<linearGradient id="paint0_linear_1074_10822" x1="102.068" y1="31.9677" x2="128.163" y2="49.3931" gradientUnits="userSpaceOnUse">
<stop stop-color="#0E6A39"/>
<stop offset="1" stop-color="#009E43"/>
</linearGradient>
<linearGradient id="paint1_linear_1074_10822" x1="106.05" y1="36.2276" x2="130.194" y2="49.9793" gradientUnits="userSpaceOnUse">
<stop stop-color="#0E6A39"/>
<stop offset="1" stop-color="#009E43"/>
</linearGradient>
<linearGradient id="paint2_linear_1074_10822" x1="119.646" y1="13.0644" x2="99.7501" y2="28.9048" gradientUnits="userSpaceOnUse">
<stop stop-color="#077E42"/>
<stop offset="1" stop-color="#21A73F"/>
</linearGradient>
<linearGradient id="paint3_linear_1074_10822" x1="146.305" y1="13.3981" x2="110.519" y2="23.7556" gradientUnits="userSpaceOnUse">
<stop stop-color="#077E42"/>
<stop offset="1" stop-color="#21A73F"/>
</linearGradient>
<linearGradient id="paint4_linear_1074_10822" x1="168.903" y1="20.5218" x2="135.656" y2="25.8333" gradientUnits="userSpaceOnUse">
<stop stop-color="#077E42"/>
<stop offset="1" stop-color="#21A73F"/>
</linearGradient>
<linearGradient id="paint5_linear_1074_10822" x1="185.874" y1="20.0935" x2="155.886" y2="30.1038" gradientUnits="userSpaceOnUse">
<stop stop-color="#077E42"/>
<stop offset="1" stop-color="#21A73F"/>
</linearGradient>
<linearGradient id="paint6_linear_1074_10822" x1="208.559" y1="8.21665" x2="178.454" y2="28.9835" gradientUnits="userSpaceOnUse">
<stop stop-color="#077E42"/>
<stop offset="1" stop-color="#21A73F"/>
</linearGradient>
<linearGradient id="paint7_linear_1074_10822" x1="118.28" y1="25.4946" x2="144.832" y2="50.9906" gradientUnits="userSpaceOnUse">
<stop stop-color="#0E6A39"/>
<stop offset="1" stop-color="#009E43"/>
</linearGradient>
<linearGradient id="paint8_linear_1074_10822" x1="135.983" y1="30.5788" x2="169.165" y2="52.6061" gradientUnits="userSpaceOnUse">
<stop stop-color="#0E6A39"/>
<stop offset="1" stop-color="#009E43"/>
</linearGradient>
<linearGradient id="paint9_linear_1074_10822" x1="153.93" y1="33.3362" x2="189.544" y2="40.999" gradientUnits="userSpaceOnUse">
<stop stop-color="#0E6A39"/>
<stop offset="1" stop-color="#009E43"/>
</linearGradient>
<linearGradient id="paint10_linear_1074_10822" x1="180.689" y1="33.0423" x2="212.046" y2="14.4675" gradientUnits="userSpaceOnUse">
<stop stop-color="#0E6A39"/>
<stop offset="1" stop-color="#009E43"/>
</linearGradient>
<linearGradient id="paint11_linear_1074_10822" x1="139.534" y1="33.9737" x2="135.745" y2="22.3236" gradientUnits="userSpaceOnUse">
<stop stop-color="#0E6A39"/>
<stop offset="1" stop-color="#009846"/>
</linearGradient>
<clipPath id="clip0_1074_10822">
<rect width="168" height="48" fill="white" transform="translate(41 9)"/>
</clipPath>
</defs>
</svg>
