<svg width="250" height="66" viewBox="0 0 250 66" fill="none" xmlns="http://www.w3.org/2000/svg">
<path fill-rule="evenodd" clip-rule="evenodd" d="M178.917 37.3259L176.591 26.8632C176.047 24.4093 174.936 23.7751 173.21 23.7751C171.488 23.7751 170.38 24.4093 169.842 26.8632L167.505 37.3259C166.212 43.1494 163.988 45.1882 159.5 45.1882V44.554C160.286 44.3477 161.044 42.9747 162.555 37.1489L165.205 26.7601C166.249 22.721 168.616 20.1265 173.21 20.1265C177.809 20.1265 180.177 22.721 181.213 26.7601L183.876 37.1489C185.384 42.9747 186.133 44.3477 186.93 44.554V45.1882C182.44 45.1882 180.207 43.1494 178.917 37.3259Z" fill="#00953B"/>
<path fill-rule="evenodd" clip-rule="evenodd" d="M103.33 24.2658H98.9525V32.5514H103.33C105.594 32.5514 107.565 30.9744 107.565 28.4104C107.565 25.8462 105.594 24.2658 103.33 24.2658ZM98.9656 37.0652C98.9656 43.6249 97.3026 44.8665 92.8145 44.8537V44.224C93.6358 44.0283 94.2881 43.6671 94.2881 36.8155L94.2845 27.0738C94.2845 22.268 93.9655 21.4578 92.8551 21.2503V20.6172H104.371C108.898 20.6172 112.34 23.9199 112.34 28.4104C112.34 32.9031 108.898 36.2046 104.371 36.2046H98.9525L98.9656 37.0652Z" fill="#00953B"/>
<path fill-rule="evenodd" clip-rule="evenodd" d="M207.448 37.3259L207.01 35.5345H195.888L195.454 37.3259C194.052 43.1494 192.115 45.1882 187.631 45.1882V44.554C188.421 44.3477 189.206 42.9747 190.678 37.1489L193.335 26.7601C194.413 22.5135 196.929 20.1265 201.453 20.1265C205.973 20.1265 208.485 22.5135 209.561 26.7601L212.216 37.1489C213.69 42.9747 214.483 44.3477 215.268 44.554V45.1882C210.781 45.1882 208.848 43.1494 207.448 37.3259ZM205.111 27.1493C204.466 24.4093 203.388 23.7751 201.453 23.7751C199.51 23.7751 198.433 24.4093 197.786 27.1493L196.677 31.954H206.223L205.111 27.1493Z" fill="#00953B"/>
<path fill-rule="evenodd" clip-rule="evenodd" d="M116.71 26.948C116.71 22.1423 116.582 21.4482 115.332 21.1234V20.488H121.194V36.0953L121.483 36.2712L138.104 19.917H138.749V36.814C138.749 43.6669 139.402 44.028 140.225 44.2226V44.8522C135.921 44.9038 134.264 43.7173 134.264 37.1036V29.3586L133.976 29.1792L117.354 45.5392H116.71V26.948Z" fill="#00953B"/>
<path fill-rule="evenodd" clip-rule="evenodd" d="M144.582 20.5884H162.806V25.6451H162.152C161.939 24.4469 160.647 24.2358 156.197 24.2358H150.73V36.9765C150.73 43.5376 149.069 44.8659 144.588 44.853V44.2245C145.405 44.0287 146.041 43.6676 146.041 36.8149V27.0743C146.041 22.2673 145.696 21.4572 144.582 21.2508V20.5884Z" fill="#00953B"/>
<path fill-rule="evenodd" clip-rule="evenodd" d="M44.3142 20.0734C44.4113 20.191 44.6461 20.4688 44.8742 20.7179C45.0172 20.8632 47.5936 23.4517 48.9321 24.793C48.0216 23.0926 46.4157 20.0894 46.3109 19.9216C46.1417 19.6288 45.9463 19.3306 45.8578 19.1949C45.3262 18.3687 44.3273 17.6292 43.2148 17.2188C43.3153 18.3014 43.7083 19.3627 44.3142 20.0734Z" fill="url(#paint0_radial_1074_10960)"/>
<path fill-rule="evenodd" clip-rule="evenodd" d="M40.0963 36.0563C39.7655 36.128 39.4183 36.2199 39.2546 36.253C38.2873 36.4936 37.2666 37.1946 36.5166 38.0999C37.6028 38.3499 38.7622 38.3029 39.6301 37.9641C39.7786 37.9086 40.1149 37.7803 40.4249 37.6434C40.6225 37.5602 43.9293 35.9538 45.6399 35.1255C43.7153 35.446 40.295 36.0125 40.0963 36.0563Z" fill="url(#paint1_radial_1074_10960)"/>
<path fill-rule="evenodd" clip-rule="evenodd" d="M53.8662 46.8331C53.8237 47.1667 53.8052 47.5193 53.7899 47.6764C53.7244 48.6532 54.0824 49.8246 54.7419 50.8026C55.3172 49.8663 55.6304 48.7782 55.5715 47.8656C55.555 47.6999 55.5387 47.3536 55.5017 47.0202C55.4852 46.8139 54.9449 43.2401 54.6675 41.3857C54.3849 43.2807 53.8805 46.6376 53.8662 46.8331Z" fill="url(#paint2_radial_1074_10960)"/>
<path fill-rule="evenodd" clip-rule="evenodd" d="M63.1427 18.8809C63.0597 19.0156 62.8632 19.3116 62.6907 19.6044C62.5892 19.7765 60.8731 22.9806 59.9834 24.6393C61.3567 23.2671 63.7747 20.8431 63.9134 20.6988C64.1339 20.4498 64.3644 20.172 64.4659 20.0544C65.1099 19.2977 65.5194 18.1456 65.5849 16.9807L65.5837 16.9785C64.5499 17.4049 63.6437 18.1039 63.1427 18.8809Z" fill="url(#paint3_radial_1074_10960)"/>
<path fill-rule="evenodd" clip-rule="evenodd" d="M63.5361 34.9092C65.283 35.7589 68.3876 37.2627 68.5733 37.3406C68.8823 37.4742 69.224 37.6088 69.3725 37.6623C70.3025 38.0289 71.5525 38.0514 72.6966 37.7467C71.9696 36.9227 71.0088 36.2944 70.1006 36.0667C69.9488 36.0282 69.5973 35.9385 69.2621 35.8733C69.0558 35.8283 65.4161 35.2203 63.5361 34.9092Z" fill="url(#paint4_radial_1074_10960)"/>
<path fill-rule="evenodd" clip-rule="evenodd" d="M66.1321 16.7898C65.9476 16.8454 65.7619 16.9191 65.5851 16.9875C65.5196 18.1525 65.1103 19.3056 64.4716 20.0634C64.3646 20.181 64.1343 20.4588 63.9138 20.7079C63.7751 20.8521 61.3569 23.2761 59.9836 24.6484C59.6714 25.2383 59.4574 25.6316 59.4574 25.6316C58.6343 27.161 57.9989 28.9126 58.5709 30.722C59.1943 32.51 60.7576 33.5607 62.3471 34.3259C62.3471 34.3259 62.8318 34.5621 63.5359 34.9041C65.4159 35.2151 69.0546 35.8232 69.2619 35.8681C69.5971 35.9334 69.9486 36.023 70.1004 36.0617C71.0086 36.2892 71.9694 36.9177 72.6986 37.7416C72.8166 37.7107 72.9344 37.6797 73.0491 37.6422C76.0033 36.6601 77.6211 33.5874 76.7761 30.6847C75.9563 28.3173 74.0753 28.6636 73.2084 26.0623C72.3526 23.4652 74.0763 22.6626 73.3209 20.2729C72.4628 17.9836 70.2478 16.5322 67.8603 16.5322C67.2881 16.5322 66.7063 16.6156 66.1321 16.7898Z" fill="#D8D8D8"/>
<mask id="mask0_1074_10960" style="mask-type:alpha" maskUnits="userSpaceOnUse" x="58" y="16" width="19" height="22">
<path fill-rule="evenodd" clip-rule="evenodd" d="M66.1321 16.7888C65.9476 16.8444 65.7619 16.9181 65.5851 16.9865C65.5196 18.1515 65.1103 19.3047 64.4716 20.0624C64.3646 20.18 64.1343 20.4579 63.9138 20.7069C63.7751 20.8512 61.3569 23.2751 59.9836 24.6474C59.6714 25.2373 59.4574 25.6306 59.4574 25.6306C58.6343 27.16 57.9989 28.9117 58.5709 30.721C59.1943 32.5091 60.7576 33.5597 62.3471 34.325C62.3471 34.325 62.8318 34.5611 63.5359 34.9032C65.4159 35.2141 69.0546 35.8223 69.2619 35.8671C69.5971 35.9324 69.9486 36.0221 70.1004 36.0605C71.0086 36.2882 71.9694 36.9167 72.6986 37.7407C72.8166 37.7097 72.9344 37.6787 73.0491 37.6413C76.0033 36.6591 77.6211 33.5864 76.7761 30.6837C75.9563 28.3164 74.0753 28.6627 73.2084 26.0613C72.3526 23.4643 74.0763 22.6616 73.3209 20.2719C72.4628 17.9826 70.2478 16.5312 67.8603 16.5312C67.2881 16.5312 66.7063 16.6146 66.1321 16.7888Z" fill="white"/>
</mask>
<g mask="url(#mask0_1074_10960)">
<path d="M77.3882 9.06836L86.1582 35.886L60.3159 44.2089L51.5459 17.3911L77.3882 9.06836Z" fill="url(#paint5_radial_1074_10960)"/>
</g>
<path fill-rule="evenodd" clip-rule="evenodd" d="M57.1941 35.4564C55.6516 36.5861 55.1056 38.3677 54.8601 40.081C54.8601 40.081 54.7826 40.6067 54.668 41.3623C54.9453 43.2165 55.4856 46.7905 55.502 46.9968C55.5391 47.3302 55.5555 47.6765 55.5718 47.8422C55.6308 48.7548 55.3175 49.8429 54.7421 50.7792C54.8076 50.8795 54.8753 50.9811 54.9496 51.0741C56.8088 53.5161 60.3 54.0762 62.8535 52.3897C64.907 50.8945 63.9823 49.2498 66.2443 47.6423C68.5053 46.0371 69.8153 47.4029 71.907 45.9537C74.3328 44.0972 74.8698 40.6772 73.0663 38.1849C72.9571 38.0299 72.8283 37.8782 72.6996 37.7328C71.5533 38.0374 70.3033 38.0149 69.3731 37.6484C69.2246 37.595 68.883 37.4604 68.5773 37.3267C68.3928 37.2487 65.2825 35.7439 63.537 34.8953C62.8666 34.783 62.4211 34.7061 62.4211 34.7061C61.7848 34.5992 61.1341 34.5234 60.4856 34.5234C59.3393 34.5234 58.204 34.7563 57.1941 35.4564Z" fill="#D8D8D8"/>
<mask id="mask1_1074_10960" style="mask-type:alpha" maskUnits="userSpaceOnUse" x="54" y="34" width="21" height="20">
<path fill-rule="evenodd" clip-rule="evenodd" d="M57.1941 35.4564C55.6516 36.5861 55.1056 38.3677 54.8601 40.081C54.8601 40.081 54.7826 40.6067 54.668 41.3623C54.9453 43.2165 55.4856 46.7905 55.502 46.9968C55.5391 47.3302 55.5555 47.6765 55.5718 47.8422C55.6308 48.7548 55.3175 49.8429 54.7421 50.7792C54.8076 50.8795 54.8753 50.9811 54.9496 51.0741C56.8088 53.5161 60.3 54.0762 62.8535 52.3897C64.907 50.8945 63.9823 49.2498 66.2443 47.6423C68.5053 46.0371 69.8153 47.4029 71.907 45.9537C74.3328 44.0972 74.8698 40.6772 73.0663 38.1849C72.9571 38.0299 72.8283 37.8782 72.6996 37.7328C71.5533 38.0374 70.3033 38.0149 69.3731 37.6484C69.2246 37.595 68.883 37.4604 68.5773 37.3267C68.3928 37.2487 65.2825 35.7439 63.537 34.8953C62.8666 34.783 62.4211 34.7061 62.4211 34.7061C61.7848 34.5992 61.1341 34.5234 60.4856 34.5234C59.3393 34.5234 58.204 34.7563 57.1941 35.4564Z" fill="white"/>
</mask>
<g mask="url(#mask1_1074_10960)">
<path d="M86.6287 48.4595L62.3064 65.9141L44.6494 41.9862L68.9717 24.416L86.6287 48.4595Z" fill="url(#paint6_radial_1074_10960)"/>
</g>
<path fill-rule="evenodd" clip-rule="evenodd" d="M46.9475 34.8995C46.9475 34.8995 46.4147 34.985 45.6396 35.1154C43.93 35.9437 40.6222 37.5501 40.4246 37.6333C40.1145 37.7702 39.7783 37.8985 39.6298 37.9541C38.7619 38.2929 37.6069 38.3398 36.5163 38.0898C36.4399 38.1838 36.3678 38.281 36.2936 38.3761C34.4988 40.8673 35.0283 44.2874 37.4606 46.1439C39.5436 47.5909 40.8558 46.2293 43.1167 47.8314C45.3765 49.4389 44.4595 51.0879 46.5053 52.5842C49.0698 54.2707 52.5511 53.7106 54.4136 51.2642C54.5316 51.1061 54.6384 50.9512 54.7411 50.7866C54.0818 49.8086 53.7236 48.6373 53.7891 47.6605C53.8044 47.5034 53.8229 47.1505 53.8656 46.8171C53.8798 46.6216 54.3841 43.2647 54.6669 41.3698C54.5698 40.7135 54.5009 40.2732 54.5009 40.2732C54.2509 38.5567 53.7116 36.7752 52.1636 35.6455C51.1571 34.9497 50.0218 34.7168 48.8809 34.7168C48.2302 34.7168 47.5785 34.7905 46.9475 34.8995Z" fill="#D8D8D8"/>
<mask id="mask2_1074_10960" style="mask-type:alpha" maskUnits="userSpaceOnUse" x="35" y="34" width="20" height="20">
<path fill-rule="evenodd" clip-rule="evenodd" d="M46.9475 34.9C46.9475 34.9 46.4147 34.9855 45.6396 35.1159C43.93 35.9442 40.6222 37.5506 40.4246 37.6338C40.1145 37.7707 39.7783 37.899 39.6298 37.9545C38.7619 38.2933 37.6069 38.3403 36.5163 38.0903C36.4399 38.1843 36.3678 38.2814 36.2936 38.3766C34.4988 40.8678 35.0283 44.2879 37.4606 46.1444C39.5436 47.5914 40.8558 46.2298 43.1167 47.8319C45.3765 49.4394 44.4595 51.0884 46.5053 52.5847C49.0698 54.2712 52.5511 53.7111 54.4136 51.2647C54.5316 51.1066 54.6384 50.9517 54.7411 50.7871C54.0818 49.8091 53.7236 48.6377 53.7891 47.6609C53.8044 47.5038 53.8229 47.151 53.8656 46.8176C53.8798 46.6221 54.3841 43.2652 54.6669 41.3702C54.5698 40.714 54.5009 40.2737 54.5009 40.2737C54.2509 38.5572 53.7116 36.7757 52.1636 35.646C51.1571 34.9502 50.0218 34.7173 48.8809 34.7173C48.2302 34.7173 47.5785 34.7909 46.9475 34.9Z" fill="white"/>
</mask>
<g mask="url(#mask2_1074_10960)">
<path d="M47.3369 66.148L23.0146 48.6934L40.6717 24.6499L65.1109 42.1045L47.3369 66.148Z" fill="url(#paint7_radial_1074_10960)"/>
</g>
<path fill-rule="evenodd" clip-rule="evenodd" d="M35.6826 20.5767C34.9217 22.9664 36.6554 23.769 35.7864 26.365C34.9283 28.9642 33.0473 28.6223 32.2263 30.9874C31.3737 33.8923 32.9982 36.9606 35.9523 37.9439C36.1357 38.0006 36.3257 38.0572 36.5167 38.0968C37.2667 37.1915 38.2874 36.4905 39.2569 36.2499C39.4184 36.2168 39.7656 36.1249 40.0964 36.0532C40.2951 36.0094 43.7154 35.4408 45.64 35.1224C46.2525 34.8274 46.6586 34.6276 46.6586 34.6276C48.2459 33.8645 49.8103 32.8117 50.4305 31.0195C51.0013 29.2176 50.3715 27.4669 49.5418 25.9375C49.5418 25.9375 49.2928 25.463 48.9315 24.7886C47.5942 23.4473 45.0167 20.8599 44.8737 20.7135C44.6455 20.4644 44.4108 20.1866 44.3136 20.069C43.7077 19.3583 43.3147 18.297 43.2143 17.2144C43.1051 17.1695 42.9894 17.1321 42.877 17.0947C42.2994 16.9183 41.7154 16.835 41.1423 16.835C38.7558 16.8339 36.5385 18.2895 35.6826 20.5767Z" fill="#D8D8D8"/>
<mask id="mask3_1074_10960" style="mask-type:alpha" maskUnits="userSpaceOnUse" x="32" y="16" width="19" height="23">
<path fill-rule="evenodd" clip-rule="evenodd" d="M35.6826 20.5767C34.9217 22.9664 36.6554 23.769 35.7864 26.365C34.9283 28.9642 33.0473 28.6223 32.2263 30.9874C31.3737 33.8923 32.9982 36.9606 35.9523 37.9439C36.1357 38.0006 36.3257 38.0572 36.5167 38.0968C37.2667 37.1915 38.2874 36.4905 39.2569 36.2499C39.4184 36.2168 39.7656 36.1249 40.0964 36.0532C40.2951 36.0094 43.7154 35.4408 45.64 35.1224C46.2525 34.8274 46.6586 34.6276 46.6586 34.6276C48.2459 33.8645 49.8103 32.8117 50.4305 31.0195C51.0013 29.2176 50.3715 27.4669 49.5418 25.9375C49.5418 25.9375 49.2928 25.463 48.9315 24.7886C47.5942 23.4473 45.0167 20.8599 44.8737 20.7135C44.6455 20.4644 44.4108 20.1866 44.3136 20.069C43.7077 19.3583 43.3147 18.297 43.2143 17.2144C43.1051 17.1695 42.9894 17.1321 42.877 17.0947C42.2994 16.9183 41.7154 16.835 41.1423 16.835C38.7558 16.8339 36.5385 18.2895 35.6826 20.5767Z" fill="white"/>
</mask>
<g mask="url(#mask3_1074_10960)">
<path d="M23.0156 36.3498L31.9026 9.4165L57.745 17.7392L48.858 44.6726L23.0156 36.3498Z" fill="url(#paint8_radial_1074_10960)"/>
</g>
<path fill-rule="evenodd" clip-rule="evenodd" d="M54.3889 12.8896C51.6051 12.8896 51.3551 11.0342 48.8037 11C45.7196 11.109 43.2284 13.5639 43.1934 16.6163C43.1869 16.8097 43.1967 17.0011 43.2142 17.1945C44.3266 17.6049 45.3255 18.3445 45.8572 19.1706C45.9456 19.3064 46.141 19.6045 46.3103 19.8974C46.4151 20.0652 48.0231 23.0694 48.9314 24.7688C49.4041 25.2412 49.7196 25.5618 49.7196 25.5618C50.9544 26.8037 52.4597 27.9312 54.3889 27.9579C56.3256 27.9312 57.8266 26.8037 59.0612 25.5618C59.0612 25.5618 59.4456 25.1824 59.9837 24.6341C60.8736 22.9754 62.5897 19.7713 62.6912 19.5992C62.8637 19.3064 63.0602 19.0103 63.1432 18.8757C63.6442 18.0987 64.5504 17.3997 65.5852 16.9733C65.5864 16.8557 65.5951 16.7339 65.5864 16.6163C65.5471 13.5639 63.0657 11.109 59.9837 11C57.4271 11.0342 57.1802 12.8896 54.3889 12.8896Z" fill="#D8D8D8"/>
<mask id="mask4_1074_10960" style="mask-type:alpha" maskUnits="userSpaceOnUse" x="43" y="11" width="23" height="17">
<path fill-rule="evenodd" clip-rule="evenodd" d="M54.3889 12.8896C51.6051 12.8896 51.3551 11.0342 48.8037 11C45.7196 11.109 43.2284 13.5639 43.1934 16.6163C43.1869 16.8097 43.1967 17.0011 43.2142 17.1945C44.3266 17.6049 45.3255 18.3445 45.8572 19.1706C45.9456 19.3064 46.141 19.6045 46.3103 19.8974C46.4151 20.0652 48.0231 23.0694 48.9314 24.7688C49.4041 25.2412 49.7196 25.5618 49.7196 25.5618C50.9544 26.8037 52.4597 27.9312 54.3889 27.9579C56.3256 27.9312 57.8266 26.8037 59.0612 25.5618C59.0612 25.5618 59.4456 25.1824 59.9837 24.6341C60.8736 22.9754 62.5897 19.7713 62.6912 19.5992C62.8637 19.3064 63.0602 19.0103 63.1432 18.8757C63.6442 18.0987 64.5504 17.3997 65.5852 16.9733C65.5864 16.8557 65.5951 16.7339 65.5864 16.6163C65.5471 13.5639 63.0657 11.109 59.9837 11C57.4271 11.0342 57.1802 12.8896 54.3889 12.8896Z" fill="white"/>
</mask>
<g mask="url(#mask4_1074_10960)">
<path d="M42.7773 9.75H66.7488V28.1295H42.7773V9.75Z" fill="url(#paint9_radial_1074_10960)"/>
</g>
<defs>
<radialGradient id="paint0_radial_1074_10960" cx="0" cy="0" r="1" gradientTransform="matrix(2.93136 -11.0159 8.75576 2.22752 50.4764 28.7445)" gradientUnits="userSpaceOnUse">
<stop stop-color="#F4ECE0"/>
<stop offset="0.5112" stop-color="#B48C80"/>
<stop offset="1" stop-color="#933F39"/>
</radialGradient>
<radialGradient id="paint1_radial_1074_10960" cx="0" cy="0" r="1" gradientTransform="matrix(-10.2811 -2.61158 1.35951 -5.11681 51.0097 35.6242)" gradientUnits="userSpaceOnUse">
<stop stop-color="#F4EDEB"/>
<stop offset="0.5112" stop-color="#B49B9E"/>
<stop offset="1" stop-color="#785830"/>
</radialGradient>
<radialGradient id="paint2_radial_1074_10960" cx="0" cy="0" r="1" gradientTransform="matrix(-2.22244 8.22291 -4.4094 -1.13936 54.7339 34.7276)" gradientUnits="userSpaceOnUse">
<stop stop-color="#EFEBE0"/>
<stop offset="0.5112" stop-color="#AE9954"/>
<stop offset="1" stop-color="#91592F"/>
</radialGradient>
<radialGradient id="paint3_radial_1074_10960" cx="0" cy="0" r="1" gradientTransform="matrix(2.8737 11.1483 -8.61718 2.12363 58.5912 28.5628)" gradientUnits="userSpaceOnUse">
<stop stop-color="#E2DDDB"/>
<stop offset="0.5112" stop-color="#9D8F8C"/>
<stop offset="1" stop-color="#2B2E2E"/>
</radialGradient>
<radialGradient id="paint4_radial_1074_10960" cx="0" cy="0" r="1" gradientTransform="matrix(4.32471 5.71981 -11.8167 8.54182 57.3735 34.7604)" gradientUnits="userSpaceOnUse">
<stop stop-color="#B4C9B6"/>
<stop offset="0.5112" stop-color="#889281"/>
<stop offset="1" stop-color="#194936"/>
</radialGradient>
<radialGradient id="paint5_radial_1074_10960" cx="0" cy="0" r="1" gradientTransform="matrix(5.637 17.1517 -17.0176 5.3471 55.2129 31.7295)" gradientUnits="userSpaceOnUse">
<stop stop-color="#8FD0F1"/>
<stop offset="0.5112" stop-color="#4B97D1"/>
<stop offset="1" stop-color="#0064AD"/>
</radialGradient>
<radialGradient id="paint6_radial_1074_10960" cx="0" cy="0" r="1" gradientTransform="matrix(-14.7599 10.6013 -10.8783 -14.48 55.2224 32.4653)" gradientUnits="userSpaceOnUse">
<stop stop-color="#FFF0E2"/>
<stop offset="0.5112" stop-color="#FFD02A"/>
<stop offset="1" stop-color="#F59324"/>
</radialGradient>
<radialGradient id="paint7_radial_1074_10960" cx="0" cy="0" r="1" gradientTransform="matrix(-14.7604 -10.6017 10.8695 -14.4682 54.4538 32.6595)" gradientUnits="userSpaceOnUse">
<stop stop-color="#EDE6F1"/>
<stop offset="0.5112" stop-color="#C2A4CE"/>
<stop offset="1" stop-color="#8D5BA4"/>
</radialGradient>
<radialGradient id="paint8_radial_1074_10960" cx="0" cy="0" r="1" gradientTransform="matrix(5.63656 -17.1505 17.0176 5.34707 54.027 32.0811)" gradientUnits="userSpaceOnUse">
<stop stop-color="#F6F8E8"/>
<stop offset="0.5112" stop-color="#B2D138"/>
<stop offset="1" stop-color="#74BD43"/>
</radialGradient>
<radialGradient id="paint9_radial_1074_10960" cx="0" cy="0" r="1" gradientUnits="userSpaceOnUse" gradientTransform="translate(54.738 32.0487) scale(18.2458 13.9894)">
<stop stop-color="#FFF5E5"/>
<stop offset="0.5112" stop-color="#FAB678"/>
<stop offset="1" stop-color="#E91D26"/>
</radialGradient>
</defs>
</svg>
