<svg width="250" height="66" viewBox="0 0 250 66" fill="none" xmlns="http://www.w3.org/2000/svg">
<g clip-path="url(#clip0_1074_11002)">
<path fill-rule="evenodd" clip-rule="evenodd" d="M58.0471 39.6699C57.613 35.0582 56.5623 35.266 54.7371 31.258C53.2572 28.0021 52.2903 24.8947 53.2128 20.3721C50.174 24.296 49 28.9423 49 33.3462C49 42.9406 56.2761 51.9364 66.0928 53.6683C62.1316 50.9369 58.5848 45.4197 58.0471 39.6699Z" fill="#20A357"/>
<path fill-rule="evenodd" clip-rule="evenodd" d="M71.8452 37.6715C88.055 25.8553 75.2293 13.0198 74.8494 12.5942C76.0925 23.406 66.9813 26.7014 64.0363 29.7297C59.8236 34.0643 59.1823 37.434 60.1985 41.9665C61.3182 46.9444 65.5261 52.9267 70.908 54.0005C65.309 51.8579 63.3654 43.8518 71.8452 37.6715Z" fill="#20A357"/>
<path fill-rule="evenodd" clip-rule="evenodd" d="M77.6805 13.479C80.3986 16.6508 82.4113 21.7424 81.4444 27.0221C79.5797 37.1857 69.472 38.7245 68.0168 45.3402C67.1141 49.467 69.5904 52.9159 73.8871 52.9258C82.8108 52.9456 91.044 43.2917 90.8911 32.8857C90.7677 24.6915 86.1159 16.8932 77.6805 13.479Z" fill="#00A0E3"/>
<path fill-rule="evenodd" clip-rule="evenodd" d="M66.5323 25.6668C75.1897 20.016 73.1179 12.2326 73.1179 12.2326C72.3384 12.0792 71.4061 12 70.3751 12C64.8107 12.0049 56.4444 14.3801 54.9694 20.2931C53.0308 28.0716 58.7333 34.3954 58.7333 34.3954C58.7333 34.3954 60.0948 29.8629 66.5323 25.6668ZM187.578 35.6918C185.985 35.6918 184.559 36.4043 183.592 37.5226L187.538 26.7109L190.814 35.6918H187.578ZM191.421 19.8676H186.162C185.428 19.8672 184.712 20.0929 184.11 20.5141C183.509 20.9354 183.05 21.5319 182.798 22.2229L174.076 46.1324H180.455L182.314 41.0259H192.758L194.622 46.1324H201.001L191.421 19.8676ZM175.837 22.6732V19.8676H156.737C155.788 19.8689 154.878 20.2479 154.208 20.9215C153.537 21.5951 153.16 22.508 153.16 23.4599V26.2655H161.31V46.1324H167.688V26.2655H172.261C174.234 26.2655 175.837 24.6574 175.837 22.6732ZM141.992 21.8122L132.402 35.3801V19.8676H129.605C128.656 19.8676 127.745 20.2461 127.073 20.9198C126.401 21.5935 126.024 22.5072 126.024 23.4599V46.1324H132.402L143.368 30.9811V46.1324H149.747V19.8676H145.741C145.007 19.8674 144.283 20.0439 143.631 20.3823C142.978 20.7207 142.417 21.211 141.992 21.8122ZM114.525 40.4074H106.48V35.2811H114.501C115.151 35.3184 115.763 35.6031 116.212 36.0771C116.66 36.5512 116.912 37.179 116.915 37.8326C116.918 38.4862 116.673 39.1164 116.229 39.5948C115.785 40.0732 115.175 40.3638 114.525 40.4074ZM106.48 25.5926H114.333C115.374 25.5926 116.291 26.3695 116.375 27.4135C116.397 27.685 116.363 27.9581 116.274 28.2157C116.186 28.4734 116.046 28.7101 115.863 28.911C115.68 29.112 115.457 29.273 115.209 29.384C114.961 29.495 114.693 29.5536 114.422 29.5561H111.383C109.282 29.5561 107.451 30.709 106.48 32.4112V25.5926ZM122.068 27.0276C121.787 22.9701 118.319 19.8676 114.264 19.8676H103.683C102.733 19.8676 101.822 20.2461 101.15 20.9198C100.479 21.5935 100.101 22.5072 100.101 23.4599V46.1324H114.363C118.768 46.1324 122.502 42.7231 122.744 38.3094C122.877 35.9639 122.019 33.7917 120.549 32.2033C121.614 30.7733 122.201 28.9623 122.068 27.0276Z" fill="#EC691F"/>
</g>
<defs>
<clipPath id="clip0_1074_11002">
<rect width="152" height="42" fill="white" transform="translate(49 12)"/>
</clipPath>
</defs>
</svg>
