<svg width="250" height="66" viewBox="0 0 250 66" fill="none" xmlns="http://www.w3.org/2000/svg">
<g clip-path="url(#clip0_1074_10939)">
<path d="M97.8054 46.9517H102.098L108.098 24.659V46.9517H112.927V17.4883H106.293L100.293 39.098L94.2932 17.4883H87.5127V46.9517H91.659V24.659L97.8054 46.9517ZM133.122 32.3663C133.122 27.1468 130.537 25.1956 125.171 25.1956C121.805 25.1956 119.171 26.22 117.61 27.1468V31.2932C118.927 30.2688 121.903 29.1956 124.537 29.1956C127.025 29.1956 128.049 30.1224 128.049 32.3176V33.4883H127.269C119.561 33.4883 116.049 36.0736 116.049 40.4151C116.049 44.7566 118.635 47.1956 122.586 47.1956C125.561 47.1956 126.879 46.2688 127.805 45.2444H128.049C128.049 45.781 128.293 46.5615 128.44 46.9517H133.415C133.269 45.2444 133.171 43.4395 133.171 41.7322C133.122 41.7322 133.122 32.3663 133.122 32.3663ZM128.049 41.8785C127.415 42.8054 126.244 43.5858 124.391 43.5858C122.293 43.5858 121.269 42.2688 121.269 40.4639C121.269 37.9761 122.976 37.098 127.415 37.098H128.196V41.9273H128.049V41.8785ZM141.854 25.5858H137.171V53.098H142.244V44.5127C143.561 46.4639 145.366 47.3907 147.61 47.3907C152.586 47.3907 155.952 43.4883 155.952 36.3176C155.952 29.1468 152.683 25.2444 147.854 25.2444C145.513 25.2444 143.561 26.2688 142.098 28.3663C142.147 28.3175 141.854 25.5858 141.854 25.5858ZM146.196 43.4395C143.61 43.4395 142.147 41.2444 142.147 36.4151C142.147 31.4395 143.561 29.2444 146.44 29.2444C149.171 29.2444 150.586 31.4395 150.586 36.2688C150.586 41.2444 149.171 43.4395 146.196 43.4395ZM171.708 46.9517H177.464L169.366 35.4883L176.537 25.5858H171.464L164.293 35.4883V25.5858H159.22V46.9517H164.293V36.5127L171.708 46.9517ZM194.391 45.5371V41.3907C192.83 42.4151 190.244 43.3419 187.757 43.3419C184.098 43.3419 182.683 41.6346 182.391 37.9761H194.488V35.2444C194.488 27.8297 191.22 25.098 186.147 25.098C180 25.098 177.025 29.781 177.025 36.3176C177.025 43.7322 180.683 47.3907 187.074 47.3907C190.635 47.3419 192.976 46.5614 194.391 45.5371ZM186.196 29.2444C188.683 29.2444 189.464 31.3419 189.464 33.9273V34.3175H182.391C182.537 30.9517 183.854 29.2444 186.196 29.2444ZM212.635 29.6346V25.5858H195.708V29.6346H201.708V46.9517H206.781V29.6346H212.635Z" fill="black"/>
<path d="M57.4143 52.1708C68.2436 52.1708 76.9753 43.4391 76.9753 32.6098C76.9753 21.7805 68.2436 13.0488 57.4143 13.0488C46.585 13.0488 37.8533 21.7805 37.8533 32.6098C37.7558 43.4391 46.6338 52.1708 57.4143 52.1708Z" fill="#FED42B"/>
<mask id="mask0_1074_10939" style="mask-type:luminance" maskUnits="userSpaceOnUse" x="37" y="13" width="40" height="40">
<path d="M57.4143 52.1708C68.2436 52.1708 76.9753 43.4391 76.9753 32.6098C76.9753 21.7805 68.2436 13.0488 57.4143 13.0488C46.585 13.0488 37.8533 21.7805 37.8533 32.6098C37.7558 43.4391 46.6338 52.1708 57.4143 52.1708Z" fill="white"/>
</mask>
<g mask="url(#mask0_1074_10939)">
<path d="M47.8045 23.78L30.585 46.3166L35.1703 51.5361L47.9508 34.6093L46.6337 43.8776L53.8045 46.3654L62.5362 32.4142C62.1459 34.9995 61.5118 40.9995 67.2191 42.8532C76.1947 45.5849 84.0484 29.4385 87.6581 21.2434L82.4386 18.5117C78.3898 26.9995 72.1459 36.3654 69.6581 35.7312C67.1703 35.0971 69.4142 27.1459 70.8288 22.0239V21.8776L62.8776 19.1459L53.3654 34.6581L54.6825 26.1703L47.8045 23.78Z" fill="black"/>
</g>
</g>
<defs>
<clipPath id="clip0_1074_10939">
<rect width="174.634" height="40" fill="white" transform="translate(38 13)"/>
</clipPath>
</defs>
</svg>
