<svg width="250" height="66" viewBox="0 0 250 66" fill="none" xmlns="http://www.w3.org/2000/svg">
<g clip-path="url(#clip0_1074_11044)">
<path d="M40.9199 24.2001C40.8584 23.889 40.768 23.5844 40.6499 23.2901V23.2001C40.5305 22.9213 40.3866 22.6535 40.2199 22.4001V22.3001C39.8573 21.7677 39.3997 21.3066 38.8699 20.9401H38.7699C38.4699 20.7201 38.1399 20.5301 37.7899 20.3801H37.7299C36.501 19.8896 35.1314 19.886 33.8999 20.3701L33.5999 20.5301C33.3999 20.6201 33.2199 20.7101 33.0399 20.8301C32.8899 20.9101 32.7599 21.0401 32.6199 21.1501L32.2599 21.4401L32.1699 21.5001L25.5099 28.0801L18.8999 21.5201L18.8099 21.4501L18.5099 21.2001C18.3599 21.0701 18.2099 20.9501 18.0499 20.8401C17.9299 20.7601 17.7699 20.7101 17.6799 20.6401C17.5199 20.5401 17.3499 20.4501 17.1799 20.3701C16.4173 20.0675 15.594 19.9496 14.7771 20.0261C13.9603 20.1025 13.1731 20.3712 12.4799 20.8101H12.3999C12.1399 20.9901 11.8999 21.1901 11.6599 21.4101C11.3799 21.6701 11.1199 21.9501 10.8899 22.2601V22.3601C10.7199 22.6101 10.5799 22.8801 10.4599 23.1601V23.2401C10.3399 23.5401 10.2599 23.8401 10.1899 24.1401C10.0899 24.4801 10.0399 24.8301 10.0099 25.1801V39.8001C10.0046 40.4845 10.1355 41.1631 10.3949 41.7964C10.6543 42.4297 11.0372 43.005 11.5211 43.4889C12.005 43.9729 12.5804 44.3557 13.2137 44.6151C13.847 44.8746 14.5256 45.0054 15.2099 45.0001C16.5832 44.9923 17.8983 44.4447 18.8712 43.4755C19.8441 42.5063 20.3968 41.1933 20.4099 39.8201V37.6801L20.9199 38.1801C21.3638 38.9698 22.0122 39.6252 22.7971 40.0774C23.5819 40.5297 24.4742 40.7621 25.3799 40.7501H25.6299C26.5345 40.7557 27.4242 40.5207 28.2079 40.0691C28.9917 39.6175 29.6412 38.9655 30.0899 38.1801L30.5799 37.6901V39.8401C30.5799 40.522 30.715 41.1971 30.9774 41.8264C31.2399 42.4557 31.6244 43.0268 32.1089 43.5066C32.5933 43.9864 33.1681 44.3654 33.7999 44.6218C34.4317 44.8781 35.1081 45.0067 35.7899 45.0001C37.1615 44.9923 38.4751 44.4461 39.4477 43.479C40.4204 42.512 40.9742 41.2016 40.9899 39.8301V25.1801C40.9999 24.8501 40.9799 24.5201 40.9199 24.2001ZM33.9499 23.3401C34.3164 22.9773 34.7815 22.7302 35.2873 22.6297C35.7931 22.5291 36.3173 22.5794 36.7947 22.7745C37.2722 22.9695 37.6817 23.3005 37.9724 23.7265C38.2632 24.1524 38.4223 24.6545 38.4299 25.1701C38.429 25.5124 38.3605 25.8511 38.2284 26.1669C38.0963 26.4826 37.9031 26.7692 37.6599 27.0101L30.6099 34.0201C30.3615 33.2068 29.9148 32.4679 29.3099 31.8701L27.3499 29.9701L33.9499 23.3401ZM13.3599 23.3401C13.8607 22.869 14.5224 22.6067 15.2099 22.6067C15.8975 22.6067 16.5591 22.869 17.0599 23.3401L27.4799 33.7001C27.8463 34.063 28.096 34.5269 28.1971 35.0326C28.2981 35.5382 28.246 36.0625 28.0473 36.5383C27.8486 37.0141 27.5124 37.4198 27.0817 37.7034C26.651 37.987 26.1455 38.1356 25.6299 38.1301C24.9299 38.1301 24.2699 37.8601 23.7799 37.3701L13.3599 27.0101C13.1159 26.7709 12.9221 26.4853 12.7898 26.1702C12.6574 25.8552 12.5893 25.5169 12.5893 25.1751C12.5893 24.8334 12.6574 24.4951 12.7898 24.18C12.9221 23.8649 13.1159 23.5794 13.3599 23.3401ZM17.8199 39.8101C17.8213 40.1488 17.7554 40.4844 17.626 40.7975C17.4967 41.1106 17.3066 41.3949 17.0666 41.6339C16.8266 41.8729 16.5416 42.062 16.2281 42.1901C15.9145 42.3182 15.5786 42.3828 15.2399 42.3801C14.5573 42.3775 13.903 42.1066 13.4184 41.6257C12.9338 41.1449 12.6578 40.4927 12.6499 39.8101V29.9701L17.8199 35.1001V39.8101ZM35.7999 42.3801C35.119 42.3749 34.4673 42.1028 33.9848 41.6222C33.5024 41.1417 33.2278 40.491 33.2199 39.8101V35.1101L38.3899 29.9701V39.8701C38.3847 40.5421 38.1154 41.1852 37.6402 41.6604C37.165 42.1356 36.522 42.4049 35.8499 42.4101L35.7999 42.3801Z" fill="black"/>
<path d="M134.06 28.0298C134.43 28.7898 134.62 29.6198 134.61 30.4598C134.617 31.2918 134.429 32.114 134.06 32.8598C133.74 33.5398 133.26 34.1198 132.66 34.5798C131.652 35.3943 130.405 35.8547 129.11 35.8898H126.49V38.9298C126.45 39.1298 126.39 39.3098 126.29 39.4798C126.09 39.8398 125.55 40.0298 124.66 40.0298C123.77 40.0298 123.12 39.7798 122.94 39.2698C122.84 38.9198 122.81 38.5698 122.82 38.2098V26.7898C122.805 26.5567 122.805 26.3229 122.82 26.0898C122.85 25.8898 122.92 25.6998 123.02 25.5298C123.22 25.1898 123.76 25.0198 124.65 25.0198H129.11C130.41 25.0298 131.66 25.4698 132.67 26.2698C133.27 26.7298 133.74 27.3198 134.07 27.9898V28.0298H134.06ZM112.39 36.7798V33.7698H113.79L112.39 30.9598V25.0198C112.74 25.0148 113.084 25.1125 113.379 25.3009C113.674 25.4893 113.907 25.7601 114.05 26.0798L119.71 37.5198C119.9 37.8398 120.01 38.1998 120.06 38.5698C120.06 39.0598 119.64 39.5098 118.79 39.9098C118.45 40.1098 118.07 40.2198 117.68 40.2598C117.471 40.2591 117.266 40.2066 117.083 40.1071C116.9 40.0076 116.744 39.8642 116.63 39.6898C116.55 39.5398 116.43 39.3398 116.31 39.0698L115.23 36.8598L112.39 36.7798ZM129.11 32.2598C129.58 32.2598 130.03 32.0998 130.38 31.8098C130.583 31.6506 130.744 31.4447 130.85 31.2096C130.957 30.9746 131.004 30.7173 130.99 30.4598C131.01 30.1982 130.967 29.9355 130.862 29.6948C130.757 29.4542 130.595 29.2429 130.39 29.0798C130.03 28.7798 129.58 28.6198 129.11 28.6198H126.49V32.2598H129.11ZM138.13 25.0198H149.71C150.05 24.9998 150.38 25.0498 150.69 25.1698C150.79 25.2178 150.879 25.2862 150.951 25.3705C151.024 25.4549 151.078 25.5534 151.11 25.6598C151.19 25.9398 151.22 26.2298 151.21 26.5198C151.22 26.8098 151.19 27.0898 151.11 27.3698C151.084 27.4642 151.038 27.5522 150.976 27.628C150.914 27.7037 150.837 27.7657 150.75 27.8098C150.42 27.9498 150.05 28.0098 149.69 27.9898H145.7V38.2698C145.72 38.4998 145.72 38.7398 145.7 38.9698C145.67 39.1498 145.6 39.3298 145.51 39.4898C145.452 39.5966 145.372 39.6901 145.275 39.7641C145.179 39.8382 145.068 39.8912 144.95 39.9198C144.62 40.0198 144.26 40.0498 143.91 40.0398C143.57 40.0498 143.21 40.0098 142.88 39.9198C142.765 39.8887 142.658 39.8346 142.565 39.7606C142.472 39.6867 142.396 39.5945 142.34 39.4898C142.24 39.3298 142.18 39.1398 142.14 38.9598C142.125 38.72 142.125 38.4796 142.14 38.2398V27.9398H138.15C137.82 27.9598 137.48 27.9098 137.17 27.7898C137.07 27.7439 136.981 27.6774 136.908 27.5947C136.836 27.5119 136.782 27.4148 136.75 27.3098C136.673 27.0264 136.639 26.7331 136.65 26.4398C136.65 26.1598 136.68 25.8698 136.75 25.5898C136.777 25.4971 136.823 25.4111 136.885 25.3371C136.947 25.2631 137.023 25.2028 137.11 25.1598C137.44 25.0398 137.78 24.9898 138.13 25.0198ZM158.43 36.4598H164.86C165.1 36.4398 165.34 36.4398 165.58 36.4598C165.78 36.4898 165.96 36.5598 166.14 36.6598C166.51 36.8398 166.7 37.3798 166.7 38.2598C166.7 39.1298 166.44 39.7598 165.92 39.9398C165.57 40.0398 165.21 40.0798 164.84 40.0698H156.59C155.62 40.0698 155.06 39.8098 154.88 39.2898C154.78 38.9498 154.74 38.5898 154.75 38.2398V26.7998C154.69 26.2998 154.83 25.7898 155.15 25.3798C155.58 25.0798 156.12 24.9398 156.65 24.9998H165.58C165.78 25.0398 165.96 25.0998 166.14 25.1998C166.51 25.3998 166.7 25.9298 166.7 26.7998C166.7 27.6798 166.44 28.3198 165.92 28.4998C165.57 28.5898 165.21 28.6298 164.84 28.6198H158.5V30.6998H163.34C163.54 30.7398 163.74 30.7998 163.9 30.8998C164.27 31.0998 164.46 31.6298 164.46 32.4998C164.46 33.3798 164.19 34.0198 163.68 34.1998C163.32 34.2798 162.96 34.3298 162.6 34.3198H158.5V36.3898L158.43 36.4698V36.4598ZM177.63 32.5198L181.56 37.0398C181.92 37.3798 182.16 37.8098 182.24 38.2898C182.24 38.6398 181.96 39.0598 181.41 39.5398C181.042 39.9264 180.557 40.1797 180.03 40.2598C179.68 40.2598 179.26 39.9598 178.77 39.3898L174.18 34.2398V38.2398C174.2 38.4798 174.2 38.7198 174.18 38.9598C174.15 39.1498 174.08 39.3298 173.98 39.4898C173.79 39.8598 173.25 40.0398 172.36 40.0398C171.46 40.0398 170.82 39.7798 170.64 39.2698C170.54 38.9298 170.5 38.5698 170.52 38.2198V26.7898C170.506 26.5566 170.506 26.3229 170.52 26.0898C170.55 25.8898 170.62 25.6998 170.72 25.5298C170.91 25.1698 171.46 24.9798 172.34 24.9798C173.24 24.9798 173.9 25.2298 174.07 25.7398C174.16 26.0898 174.19 26.4398 174.17 26.8098V30.7398C176.06 28.6498 177.59 26.9398 178.75 25.5898C179.24 25.0298 179.67 24.7598 180.02 24.7598C180.55 24.8398 181.03 25.0898 181.39 25.4598C181.95 25.9398 182.23 26.3598 182.23 26.7198C182.18 27.1898 181.96 27.6298 181.61 27.9698L177.62 32.5198H177.63ZM194.21 26.0798L199.84 37.5198C200.02 37.8398 200.14 38.1998 200.19 38.5698C200.19 39.0598 199.77 39.5098 198.92 39.9098C198.58 40.1098 198.2 40.2198 197.81 40.2598C197.601 40.2591 197.396 40.2066 197.213 40.1071C197.03 40.0076 196.874 39.8642 196.76 39.6898C196.68 39.5398 196.56 39.3398 196.43 39.0698L195.35 36.8598H189.58L188.5 39.0598C188.36 39.3398 188.26 39.5398 188.18 39.6598C188.08 39.8198 187.95 39.9398 187.8 40.0398C187.6 40.1798 187.37 40.2498 187.13 40.2398C186.73 40.2098 186.36 40.0898 186.01 39.8898C185.21 39.5098 184.74 39.0698 184.74 38.5898C184.79 38.2098 184.91 37.8498 185.1 37.5298L190.72 26.0598C190.89 25.722 191.156 25.4427 191.486 25.2574C191.815 25.0721 192.193 24.9894 192.57 25.0198C192.921 25.0128 193.267 25.1096 193.564 25.2981C193.861 25.4867 194.096 25.7585 194.24 26.0798H194.21ZM192.57 30.9798L191.14 33.7698H193.91L192.57 30.9798ZM207.72 36.0798C208.06 36.5698 208.22 37.1698 208.14 37.7598V38.7098C208.09 38.9398 208.01 39.1598 207.88 39.3698C207.63 39.8298 207.03 40.0698 206.04 40.0698C205.36 40.1509 204.674 39.9917 204.1 39.6198C203.723 39.1264 203.555 38.5056 203.63 37.8898V37.7898C203.613 37.5134 203.613 37.2362 203.63 36.9598C203.67 36.7298 203.75 36.5098 203.86 36.3098C204.1 35.8298 204.71 35.5898 205.7 35.5898C206.42 35.5098 207.14 35.6898 207.73 36.0898H207.72V36.0798ZM223.47 37.5198C223.64 37.8498 223.75 38.2198 223.79 38.5798C223.79 39.1098 223.35 39.5298 222.52 39.8898C222.18 40.0598 221.82 40.1498 221.44 40.1898C221.197 40.2 220.958 40.1296 220.76 39.9898C220.61 39.8698 220.48 39.7398 220.38 39.5898C220.25 39.3298 219.7 38.0898 218.76 35.8298H215.42V38.1598C215.44 38.3898 215.44 38.6298 215.42 38.8598C215.39 39.0598 215.32 39.2498 215.22 39.4198C215.02 39.7798 214.48 39.9698 213.59 39.9698C212.71 39.9698 212.06 39.7198 211.89 39.2098C211.79 38.8598 211.74 38.5098 211.75 38.1398V26.7998C211.736 26.5666 211.736 26.3329 211.75 26.0998C211.79 25.8998 211.85 25.7098 211.95 25.5398C212.15 25.1798 212.69 24.9898 213.58 24.9898H218.08C219.4 24.9998 220.68 25.4598 221.69 26.2798C222.271 26.753 222.733 27.3557 223.04 28.0398C223.41 28.7998 223.59 29.6298 223.58 30.4698C223.6 31.1771 223.472 31.8809 223.203 32.5355C222.935 33.1902 222.531 33.781 222.02 34.2698C222.32 34.9998 222.81 36.0698 223.44 37.4998L223.47 37.5298V37.5198ZM215.42 32.2598H218.09C218.55 32.2598 218.99 32.0998 219.36 31.8098C219.561 31.6495 219.72 31.4432 219.825 31.2082C219.929 30.9732 219.976 30.7164 219.96 30.4598C219.98 30.1997 219.935 29.9387 219.831 29.6998C219.726 29.4609 219.564 29.2514 219.36 29.0898C219 28.7998 218.56 28.6398 218.09 28.6298H215.42V32.2598ZM237.28 25.5398C237.42 25.3198 237.63 25.1598 237.88 25.0898C238.21 24.9998 238.54 24.9598 238.88 24.9698C239.2 24.9598 239.52 24.9898 239.83 25.0698C240.03 25.1198 240.21 25.1998 240.37 25.3198C240.5 25.4298 240.6 25.5798 240.64 25.7398C240.74 26.0898 240.78 26.4398 240.77 26.8098V33.0598C240.77 34.8398 240.17 36.5798 239.05 37.9798C238.495 38.6731 237.795 39.2363 237 39.6298C236.1 40.0698 235.1 40.2898 234.1 40.2798C233.136 40.2882 232.184 40.0775 231.314 39.6634C230.444 39.2493 229.68 38.6428 229.08 37.8898C227.975 36.4887 227.379 34.7539 227.39 32.9698V26.7898C227.377 26.5499 227.377 26.3096 227.39 26.0698C227.42 25.8698 227.49 25.6898 227.59 25.5198C227.649 25.414 227.729 25.3215 227.826 25.2476C227.922 25.1737 228.032 25.12 228.15 25.0898C228.85 24.9298 229.58 24.9298 230.28 25.0898C230.396 25.1196 230.505 25.1732 230.6 25.2472C230.694 25.3212 230.773 25.414 230.83 25.5198C231.01 25.9198 231.09 26.3398 231.08 26.7698V32.9298C231.08 33.7698 231.3 34.5898 231.71 35.3198C231.92 35.7098 232.25 36.0298 232.65 36.2398C233.105 36.4816 233.614 36.6022 234.13 36.5898C234.571 36.617 235.011 36.5301 235.409 36.3374C235.807 36.1447 236.148 35.8528 236.4 35.4898C236.9 34.7198 237.17 33.8298 237.15 32.9198V26.6698C237.11 26.2798 237.17 25.8998 237.33 25.5398H237.28Z" fill="#F63F3F"/>
<path d="M69.2004 25.5699C69.3004 25.7399 69.3604 25.9199 69.4004 26.1199V38.2199C69.4004 39.1599 69.1304 39.7199 68.6104 39.8799C68.2804 39.9799 67.9504 40.0099 67.6104 40.0099C67.2804 40.0099 66.9604 39.9799 66.6404 39.9099C66.4404 39.8599 66.2604 39.7699 66.1004 39.6599C65.9593 39.5543 65.8545 39.4076 65.8004 39.2399C65.7162 38.8932 65.6825 38.5362 65.7004 38.1799V31.2699C65.3604 31.6899 64.8504 32.3699 64.1804 33.2899L62.9104 35.0299L62.5304 35.5199C62.1685 35.8895 61.6775 36.1046 61.1604 36.1199C60.8604 36.1199 60.5604 36.0399 60.3004 35.8899C60.0804 35.7899 59.9004 35.6499 59.7404 35.4699L59.5704 35.2399L57.9204 33.0599L56.6204 31.2599V38.1799C56.6404 38.4199 56.6404 38.6599 56.6204 38.8899C56.5904 39.0799 56.5204 39.2599 56.4204 39.4199C56.2104 39.7799 55.6804 39.9699 54.8004 39.9699C53.9204 39.9699 53.4304 39.7799 53.2104 39.4199C53.1104 39.2499 53.0404 39.0699 53.0104 38.8799V26.7999C52.9965 26.5667 52.9965 26.333 53.0104 26.0999C53.0404 25.8999 53.1104 25.7099 53.2104 25.5399C53.4104 25.1799 53.9604 24.9999 54.8404 24.9999C55.1704 24.9999 55.4904 25.0499 55.8004 25.1399C56.0004 25.1899 56.1804 25.2899 56.3404 25.4199L56.4604 25.5399L61.2004 31.6499C63.5604 28.5799 65.1704 26.5699 65.9304 25.5499C66.149 25.3452 66.4107 25.1922 66.6963 25.1022C66.9819 25.0122 67.284 24.9875 67.5804 25.0299C68.4704 25.0299 69.0004 25.2199 69.1904 25.5799L69.2004 25.5699ZM77.6004 36.4099H84.0304C84.2704 36.3899 84.5104 36.3899 84.7504 36.4099C84.9504 36.4399 85.1404 36.5099 85.3104 36.6099C85.6804 36.7899 85.8704 37.3299 85.8704 38.2099C85.8704 39.0799 85.6204 39.7099 85.1004 39.8899C84.7504 39.9899 84.3804 40.0299 84.0204 40.0199H75.8004C74.8204 40.0199 74.2604 39.7599 74.0804 39.2399C73.9804 38.8999 73.9404 38.5399 73.9604 38.1899V26.7999C73.9004 26.2999 74.0404 25.7899 74.3504 25.3799C74.7704 25.0999 75.2904 24.9799 75.8004 25.0299H84.6904C84.8904 25.0599 85.0804 25.1299 85.2504 25.2299C85.6204 25.4199 85.8104 25.9499 85.8104 26.8299C85.8104 27.6999 85.5504 28.3399 85.0304 28.5199C84.6804 28.6199 84.3204 28.6499 83.9504 28.6399H77.6104V30.6999H82.4604C82.6604 30.7399 82.8404 30.7999 83.0204 30.8999C83.3804 31.0999 83.5704 31.6299 83.5704 32.4999C83.5704 33.3799 83.3104 34.0199 82.7904 34.1999C82.4404 34.2899 82.0704 34.3299 81.7104 34.3199H77.6104V36.3999L77.6004 36.4099ZM96.7604 30.9699H100.43C101.18 30.9699 101.63 31.1899 101.8 31.5399C101.95 31.9099 102.02 32.2999 102 32.6899V37.2099C101.98 37.6799 101.77 38.1299 101.42 38.4599C100.711 39.0997 99.8791 39.5876 98.9745 39.8938C98.0699 40.1999 97.1122 40.3177 96.1604 40.2399C95.1527 40.2437 94.1549 40.0416 93.2281 39.6461C92.3012 39.2507 91.4649 38.67 90.7704 37.9399C90.0355 37.2108 89.4556 36.3406 89.0655 35.3817C88.6754 34.4228 88.4832 33.3949 88.5004 32.3599C88.4746 31.3374 88.6693 30.3213 89.0714 29.3809C89.4734 28.4404 90.0734 27.5976 90.8304 26.9099C92.1678 25.6002 93.933 24.8174 95.8015 24.7054C97.67 24.5933 99.5161 25.1595 101 26.2999C101.161 26.3965 101.296 26.5307 101.394 26.6909C101.491 26.8512 101.548 27.0327 101.56 27.2199C101.52 27.6499 101.36 28.0499 101.07 28.3799C100.54 29.1099 100.03 29.4799 99.5904 29.4799C99.1304 29.3799 98.6904 29.1999 98.3204 28.9099C97.6965 28.5243 96.9735 28.3297 96.2404 28.3499C95.4472 28.3423 94.6688 28.565 93.9997 28.991C93.3305 29.417 92.7993 30.028 92.4704 30.7499C92.2504 31.2435 92.1411 31.7794 92.1504 32.3199C92.1427 32.8821 92.2516 33.4398 92.4702 33.9579C92.6887 34.4759 93.0123 34.9431 93.4204 35.3299C93.7819 35.7202 94.2195 36.0325 94.7062 36.2475C95.1929 36.4624 95.7184 36.5756 96.2504 36.5799C96.9504 36.5899 97.6604 36.4699 98.3204 36.2099V33.9699H96.6704C96.3604 33.9899 96.0404 33.9399 95.7604 33.8099C95.6707 33.7564 95.5926 33.6856 95.5307 33.6014C95.4689 33.5172 95.4246 33.4215 95.4004 33.3199C95.3404 33.0399 95.3004 32.7499 95.3104 32.4599C95.3104 32.1599 95.3304 31.8699 95.4004 31.5799C95.421 31.4846 95.462 31.3951 95.5208 31.3173C95.5795 31.2396 95.6544 31.1756 95.7404 31.1299C96.0604 30.9999 96.4004 30.9299 96.7404 30.9499H96.7704L96.7604 30.9699ZM112.39 36.8399H109.52L108.44 39.0599L108.12 39.6599C108.02 39.7999 107.89 39.9299 107.74 40.0299C107.54 40.1699 107.31 40.2399 107.07 40.2299C106.67 40.1899 106.29 40.0699 105.95 39.8799C105.15 39.4899 104.68 39.0599 104.68 38.5699C104.73 38.1999 104.85 37.8399 105.04 37.5199L110.66 26.0399C110.817 25.7164 111.065 25.4467 111.375 25.265C111.685 25.0834 112.042 24.9981 112.4 25.0199V31.0199L111 33.7699H112.38V36.8399H112.39Z" fill="black"/>
</g>
<defs>
<clipPath id="clip0_1074_11044">
<rect width="231" height="25" fill="white" transform="translate(10 20)"/>
</clipPath>
</defs>
</svg>
