<svg width="250" height="66" viewBox="0 0 250 66" fill="none" xmlns="http://www.w3.org/2000/svg">
<g clip-path="url(#clip0_1074_11040)">
<path d="M99.1432 46.0282H93.1287L92.2211 43.5141C92.2069 43.4409 92.1666 43.3754 92.1076 43.3297C92.0486 43.2841 91.9751 43.2614 91.9006 43.266H81.204C81.1318 43.2689 81.0623 43.2944 81.0054 43.3389C80.9485 43.3834 80.9071 43.4447 80.8869 43.5141L80.002 46.0287H73.9834L82.902 21.2103H90.2286L99.1432 46.0282ZM122.5 21.2103V45.9557H116.806V26.8736H107.424V45.9557H101.767V21.2103H122.5ZM138.636 21.2833C140.078 21.2732 141.506 21.5623 142.83 22.1323C144.107 22.678 145.271 23.458 146.261 24.432C147.248 25.4101 148.035 26.5711 148.578 27.8501C149.145 29.1769 149.432 30.6063 149.421 32.0489C149.417 33.3851 149.15 34.7075 148.637 35.9412C148.135 37.2013 147.414 38.3624 146.506 39.3703C145.516 40.4701 144.304 41.3477 142.95 41.9456C141.596 42.5436 140.131 42.8482 138.651 42.8395H132.341V46.0287H126.712V21.2833H138.636ZM138.6 37.1762C139.958 37.1842 141.265 36.6612 142.243 35.7186C142.717 35.2535 143.096 34.7003 143.358 34.0901C143.626 33.4558 143.765 32.7742 143.765 32.0855C143.765 31.3967 143.626 30.7151 143.358 30.0808C143.096 29.4703 142.726 28.9123 142.265 28.4337C141.8 27.9568 141.247 27.5755 140.636 27.3112C140.007 27.0372 139.326 26.8982 138.64 26.9032H132.731C132.648 26.8901 132.563 26.9076 132.493 26.9524C132.422 26.9972 132.37 27.0662 132.347 27.1466C132.331 27.2001 132.329 27.2566 132.341 27.3112V36.8227C132.341 37.0603 132.468 37.1878 132.731 37.1878L138.6 37.1762ZM204.28 46.0287V21.2833H209.898V24.4685H216.201C217.681 24.4595 219.146 24.764 220.5 25.3619C221.854 25.9599 223.066 26.8377 224.056 27.9376C224.973 28.9448 225.704 30.1074 226.213 31.3709C226.725 32.6057 226.99 33.9294 226.992 35.2666C227.001 36.7083 226.712 38.1363 226.144 39.4613C225.597 40.7372 224.81 41.8964 223.827 42.876C222.838 43.8489 221.675 44.6267 220.398 45.1687C219.076 45.7399 217.649 46.0302 216.208 46.0212L204.28 46.0287ZM210.295 30.1318C210.037 30.1318 209.905 30.2518 209.905 30.4963V40.0078C209.9 40.0864 209.92 40.1645 209.963 40.2308C210.006 40.297 210.068 40.3479 210.142 40.3758C210.191 40.3941 210.243 40.4016 210.295 40.3979H216.208C216.895 40.4028 217.575 40.2638 218.205 39.9899C218.817 39.7304 219.37 39.3513 219.834 38.8748C220.297 38.3994 220.667 37.8421 220.927 37.2312C221.197 36.5974 221.336 35.9156 221.336 35.2266C221.336 34.5376 221.197 33.8557 220.927 33.2219C220.666 32.6108 220.287 32.0573 219.811 31.5934C218.835 30.6491 217.527 30.1256 216.168 30.1353L210.295 30.1318ZM158.35 26.9466C158.292 26.9386 158.233 26.9512 158.183 26.982C158.133 27.0129 158.095 27.0602 158.076 27.1158C158.064 27.1528 158.06 27.1921 158.066 27.2306V30.6673C158.066 30.8788 158.161 30.9843 158.35 30.9843H169.852V36.6117H158.35C158.161 36.6117 158.066 36.7207 158.066 36.9322V40.0443C158.061 40.0829 158.064 40.1221 158.077 40.1589C158.089 40.1957 158.11 40.2291 158.138 40.2565C158.165 40.284 158.199 40.3048 158.236 40.3172C158.272 40.3297 158.312 40.3335 158.35 40.3283H172.577V45.9922H152.404V21.2109H172.577V26.9466H158.35ZM201.205 45.9922H195.191L189.103 29.0707C189.075 29.0036 189.029 28.9462 188.969 28.9059C188.908 28.8657 188.838 28.8443 188.765 28.8446C188.693 28.8449 188.623 28.8665 188.563 28.9067C188.503 28.9469 188.456 29.004 188.429 29.0707L182.344 45.9916H176.326L185.245 21.1772H192.287L201.205 45.9922ZM83.186 37.1507C83.1617 37.2016 83.1523 37.2584 83.1587 37.3144C83.1652 37.3705 83.1873 37.4236 83.2225 37.4677C83.2539 37.5127 83.296 37.5492 83.3449 37.5741C83.3938 37.599 83.4481 37.6114 83.503 37.6103H89.6271C89.9331 37.6103 90.0391 37.4573 89.9441 37.1507L86.902 28.6447C86.8764 28.5696 86.827 28.5048 86.7614 28.4602C86.6957 28.4156 86.6174 28.3935 86.5381 28.3972C86.4636 28.3923 86.3899 28.4148 86.3308 28.4603C86.2717 28.5059 86.2313 28.5714 86.217 28.6447L83.186 37.1507Z" fill="#3F51B5"/>
<path d="M45.6063 9.81836C33.1212 9.81836 23 20.198 23 33.0002C23 45.8023 33.1212 56.182 45.6063 56.182C58.0921 56.182 68.1947 45.8023 68.1947 33.0002C68.1947 20.198 58.0915 9.81836 45.6063 9.81836ZM62.1581 31.8266H49.7698C49.7152 31.8284 49.6611 31.8167 49.6122 31.7925C49.5632 31.7683 49.521 31.7325 49.4893 31.6881C49.4543 31.6439 49.4323 31.5908 49.4258 31.5348C49.4194 31.4788 49.4287 31.4221 49.4528 31.3711L53.9344 18.8454C53.9484 18.7728 53.9883 18.7077 54.0465 18.6622C54.1048 18.6167 54.1776 18.5939 54.2514 18.5979H54.4624C56.6854 20.0525 58.5385 22.0057 59.8743 24.3022C61.21 26.5986 61.9917 29.1751 62.157 31.8266H62.1581ZM29.0041 33.0002C29.0041 23.6011 36.4327 15.9807 45.5994 15.9807C46.5237 15.983 47.4464 16.0635 48.3568 16.2218L37.1502 47.6395C34.651 46.1032 32.5895 43.9494 31.1641 41.3855C29.7387 38.8215 28.9974 35.9337 29.0116 33.0002H29.0041ZM45.6063 50.0156C44.7104 50.0156 43.8155 49.9414 42.9323 49.7937L46.9688 38.2004C46.9916 38.1326 47.0338 38.073 47.0901 38.029C47.1465 37.985 47.2146 37.9586 47.2858 37.953H61.4946C59.4325 44.9353 53.0894 50.0156 45.6063 50.0156Z" fill="#FF0089"/>
</g>
<defs>
<clipPath id="clip0_1074_11040">
<rect width="204" height="48" fill="white" transform="translate(23 9)"/>
</clipPath>
</defs>
</svg>
