<svg width="250" height="66" viewBox="0 0 250 66" fill="none" xmlns="http://www.w3.org/2000/svg">
<path d="M58.9222 57.1281C72.3428 57.1281 83.2223 46.1054 83.2223 32.5082C83.2223 18.9109 72.3428 7.88818 58.9222 7.88818C45.5016 7.88818 34.6221 18.9109 34.6221 32.5082C34.6221 46.1054 45.5016 57.1281 58.9222 57.1281Z" fill="#50BE14"/>
<path d="M67.8577 20.0484C64.9895 17.5188 61.2532 15.9756 57.153 15.9756C48.1421 15.9756 40.835 23.3763 40.835 32.5058C40.835 41.6354 48.1421 49.0386 57.153 49.0386C61.2532 49.0386 64.9895 47.4954 67.8577 44.9658V48.3751H73.6918V16.6391H67.8577V20.0484ZM57.153 43.082C51.3991 43.082 46.7168 38.338 46.7168 32.5084C46.7168 26.6788 51.3991 21.9348 57.153 21.9348C62.9068 21.9348 67.5892 26.6788 67.5892 32.5084C67.5917 38.338 62.9093 43.082 57.153 43.082Z" fill="white"/>
<path d="M104.82 30.449C104.167 29.7422 103.422 29.16 102.589 28.7126C101.397 28.0719 100.067 27.749 98.642 27.749C96.7801 27.749 95.0938 28.2066 93.6284 29.1117C92.163 30.0168 91.0062 31.2829 90.1856 32.8744C89.3701 34.4582 88.9561 36.2836 88.9561 38.2946C88.9561 40.3336 89.3776 42.1768 90.2082 43.7759C91.0438 45.3827 92.2156 46.6564 93.6936 47.5589C95.1716 48.4614 96.8629 48.9216 98.7248 48.9216C100.125 48.9216 101.435 48.5962 102.614 47.9555C103.437 47.508 104.175 46.936 104.825 46.2445V48.2733H108.413V28.3999H104.825V30.449H104.82ZM98.642 31.1405C99.8339 31.1405 100.908 31.4456 101.836 32.0456C102.765 32.6481 103.503 33.5049 104.024 34.5904C104.554 35.6887 104.822 36.9472 104.822 38.3353C104.822 39.7234 104.554 40.9844 104.024 42.0802C103.503 43.1657 102.765 44.0225 101.836 44.625C100.91 45.225 99.8364 45.5301 98.642 45.5301C97.4777 45.5301 96.4238 45.225 95.5104 44.625C94.5945 44.0225 93.8643 43.1657 93.3398 42.0802C92.8104 40.9819 92.5419 39.7082 92.5419 38.2946C92.5419 36.9091 92.8104 35.6557 93.3398 34.5701C93.8643 33.4972 94.5945 32.6456 95.5129 32.043C96.4212 31.4456 97.4751 31.1405 98.642 31.1405Z" fill="#2D2C31"/>
<path d="M126.018 38.3429C124.794 37.3311 122.929 36.7031 120.473 36.4794C118.636 36.3243 117.336 35.9887 116.616 35.4803C115.946 35.0074 115.62 34.415 115.62 33.6676C115.62 32.8642 115.918 32.2668 116.536 31.8346C117.193 31.3744 118.182 31.1405 119.477 31.1405C120.754 31.1405 121.808 31.3795 122.603 31.8524C123.386 32.3151 123.993 33.0523 124.407 34.0413L124.586 34.4659L127.815 32.8566L127.642 32.4701C126.237 29.338 123.557 27.749 119.677 27.749C117.399 27.749 115.572 28.2702 114.247 29.2998C112.885 30.3549 112.195 31.8523 112.195 33.7464C112.195 35.4447 112.804 36.8277 114.009 37.8548C115.198 38.8717 117.08 39.4768 119.76 39.7031C121.514 39.8582 122.744 40.1861 123.409 40.6768C124.031 41.137 124.332 41.831 124.332 42.7996C124.332 43.72 123.958 44.3784 123.19 44.8132C122.352 45.2886 121.263 45.5301 119.956 45.5301C117.228 45.5301 115.454 44.564 114.538 42.5759L114.35 42.1717L111.118 43.781L111.316 44.175C112.074 45.6826 113.191 46.8623 114.634 47.686C116.069 48.5046 117.75 48.919 119.632 48.919C121.065 48.919 122.425 48.6775 123.67 48.1996C124.939 47.714 125.971 46.9792 126.739 46.0157C127.521 45.0344 127.915 43.842 127.915 42.4742C127.92 40.7759 127.281 39.3853 126.018 38.3429Z" fill="#2D2C31"/>
<path d="M144.364 28.6057C143.202 28.0387 141.917 27.7515 140.55 27.7515C139.084 27.7515 137.775 28.1074 136.655 28.8116C135.938 29.2616 135.308 29.8362 134.771 30.5302V28.3998H131.183V48.2732H134.771V38.3377C134.771 36.1132 135.23 34.3259 136.133 33.0294C137.017 31.7607 138.317 31.1429 140.108 31.1429C143.16 31.1429 144.645 32.8463 144.645 36.3496V48.2757H148.233V35.1319C148.233 33.6217 147.882 32.287 147.184 31.1658C146.492 30.0421 145.543 29.1803 144.364 28.6057Z" fill="#2D2C31"/>
<path d="M167.405 30.449C166.752 29.7422 166.007 29.16 165.174 28.7126C163.982 28.0719 162.652 27.749 161.227 27.749C159.365 27.749 157.679 28.2066 156.213 29.1117C154.748 30.0168 153.591 31.2829 152.771 32.8744C151.955 34.4582 151.541 36.2836 151.541 38.2946C151.541 40.3336 151.963 42.1768 152.793 43.7759C153.629 45.3827 154.801 46.6564 156.279 47.5589C157.757 48.4614 159.448 48.9216 161.31 48.9216C162.71 48.9216 164.02 48.5962 165.199 47.9555C166.022 47.508 166.76 46.936 167.41 46.2445V48.2733H170.998V28.3999H167.41V30.449H167.405ZM161.224 31.1405C162.416 31.1405 163.49 31.4456 164.419 32.0456C165.347 32.6481 166.085 33.5049 166.607 34.5904C167.136 35.6887 167.405 36.9472 167.405 38.3353C167.405 39.7234 167.136 40.9844 166.607 42.0802C166.085 43.1657 165.347 44.0225 164.419 44.625C163.493 45.225 162.419 45.5301 161.224 45.5301C160.06 45.5301 159.006 45.225 158.093 44.625C157.177 44.0225 156.447 43.1657 155.922 42.0802C155.393 40.9819 155.124 39.7082 155.124 38.2946C155.124 36.9091 155.393 35.6557 155.922 34.5701C156.447 33.4972 157.177 32.6456 158.095 32.043C159.006 31.4456 160.06 31.1405 161.224 31.1405Z" fill="#2D2C31"/>
<path d="M177.131 43.2979C176.426 43.2979 175.816 43.5623 175.319 44.0809C174.827 44.597 174.576 45.2173 174.576 45.9266C174.576 46.6639 174.827 47.2995 175.319 47.8156C175.816 48.3342 176.426 48.5986 177.131 48.5986C177.861 48.5986 178.488 48.3368 178.998 47.8207C179.507 47.3046 179.765 46.6817 179.765 45.9698C179.765 45.23 179.507 44.5944 178.998 44.0758C178.488 43.5597 177.861 43.2979 177.131 43.2979Z" fill="#2D2C31"/>
<path d="M194.455 37.1936C195.223 36.2758 195.604 35.1724 195.604 33.8835C195.604 32.8233 195.371 31.8801 194.904 31.0564C194.437 30.2327 193.762 29.592 192.884 29.1369C192.006 28.6818 190.987 28.4556 189.825 28.4556H183.432V47.8358H185.534V39.2834H189.321L194.174 47.8358H196.39L191.396 39.0546C192.671 38.7317 193.69 38.1114 194.455 37.1936ZM185.537 37.519V30.2174H189.547C190.781 30.2174 191.73 30.553 192.392 31.2267C193.055 31.9004 193.389 32.7852 193.389 33.8835C193.389 34.9817 193.057 35.8639 192.392 36.5249C191.73 37.1885 190.779 37.519 189.547 37.519H185.537Z" fill="#2D2C31"/>
<path d="M211.649 28.4556V40.6461C211.649 42.4842 211.215 43.8952 210.344 44.8816C209.476 45.8655 208.291 46.3587 206.796 46.3587C203.486 46.3587 201.832 44.4545 201.832 40.6461V28.4556H199.729V40.6461C199.729 43.1477 200.319 45.0468 201.496 46.3434C202.673 47.64 204.442 48.2909 206.796 48.2909C208.984 48.2909 210.69 47.6324 211.915 46.3155C213.139 44.9985 213.751 43.1096 213.751 40.6461V28.4556H211.649Z" fill="#2D2C31"/>
</svg>
