<svg width="250" height="66" viewBox="0 0 250 66" fill="none" xmlns="http://www.w3.org/2000/svg">
<g clip-path="url(#clip0_1074_11014)">
<path d="M124.989 14.7016C119.904 14.7016 116.083 17.833 116.083 23.1788C116.083 28.5245 119.904 31.656 124.989 31.656C130.075 31.656 133.896 28.5245 133.896 23.1788C133.896 17.833 130.076 14.7016 124.989 14.7016ZM124.989 27.3079C122.206 27.3079 120.991 25.5876 120.991 23.1763C120.991 20.7651 122.208 19.0447 124.989 19.0447C127.771 19.0447 128.989 20.7651 128.989 23.1763C128.989 25.5876 127.772 27.3079 124.989 27.3079ZM160.66 31.0495H144.4V27.5403L153.229 19.3846H144.602V15.3007H160.263V18.81L151.436 26.9656H160.66V31.0495ZM136.188 9H141.095V31.0458H136.188V9ZM191.129 15.3007H194.099V17.3769H191.129C189.014 17.3769 187.793 18.7195 187.793 21.5208V31.0483H185.337V21.5159C185.337 17.372 187.767 15.3007 191.129 15.3007ZM208.919 15.3007H211.374V24.9016C211.374 28.9733 208.16 31.6535 204.169 31.6535C200.178 31.6535 196.959 28.9757 196.959 24.9016V15.3007H199.416V24.9016C199.416 27.5867 201.535 29.4404 204.17 29.4404C206.805 29.4404 208.924 27.5916 208.924 24.9016V15.3007H208.919ZM171.551 14.7016C166.466 14.7016 162.646 17.833 162.646 23.1788C162.646 28.5245 166.057 31.656 170.676 31.656C172.852 31.656 174.539 30.5017 175.229 29.5199C175.268 29.4636 175.324 29.4294 175.391 29.4294C175.494 29.4294 175.578 29.5113 175.578 29.614V31.0507H180.459V23.1837C180.459 17.8391 176.639 14.7065 171.552 14.7065V14.7016H171.551ZM171.551 27.3079C168.848 27.3079 167.553 25.5876 167.553 23.1763C167.553 20.7651 168.769 19.0447 171.551 19.0447C174.333 19.0447 175.551 20.7651 175.551 23.1763C175.551 25.5876 174.334 27.3079 171.551 27.3079ZM105.441 14.7016C100.356 14.7016 96.5352 17.833 96.5352 23.1739V37.3429H101.416V29.6042C101.416 29.5015 101.499 29.4196 101.605 29.4196C101.671 29.4196 101.727 29.4587 101.767 29.5101C102.46 30.4931 104.144 31.6462 106.321 31.6462C110.939 31.6462 114.35 28.5148 114.35 23.169C114.35 17.8232 110.533 14.7004 105.444 14.7004L105.441 14.7016ZM105.441 27.3079C102.659 27.3079 101.442 25.5876 101.442 23.1763C101.442 20.7651 102.659 19.0447 105.441 19.0447C108.224 19.0447 109.44 20.7651 109.44 23.1763C109.44 25.5876 108.144 27.3079 105.441 27.3079Z" fill="#5D8DD4"/>
<path d="M107.553 45.7594C107.112 45.1896 106.587 44.7208 105.971 44.3808C105.078 43.8845 104.085 43.6455 102.99 43.6455C101.72 43.6455 100.597 43.9213 99.5944 44.4819C98.6007 45.0425 97.8186 45.8145 97.2389 46.8071C96.6593 47.7997 96.374 48.9669 96.374 50.2904C96.374 51.6139 96.6593 52.7903 97.2389 53.7921C97.8186 54.7938 98.6007 55.575 99.5944 56.1357C100.588 56.6963 101.72 56.972 102.99 56.972C104.121 56.972 105.134 56.7239 106.026 56.2184C106.661 55.86 107.204 55.3637 107.655 54.7571V56.825H109.927V43.765H107.563V45.7594H107.553ZM107.001 52.7259C106.615 53.4244 106.091 53.9575 105.419 54.3435C104.756 54.7203 104.011 54.9133 103.183 54.9133C102.355 54.9133 101.6 54.7203 100.938 54.3435C100.285 53.9667 99.7509 53.4244 99.3552 52.7259C98.9596 52.0274 98.7663 51.2187 98.7663 50.2996C98.7663 49.3805 98.9596 48.5534 99.3552 47.8732C99.7509 47.1931 100.275 46.6601 100.938 46.2833C101.6 45.9064 102.346 45.7134 103.183 45.7134C104.02 45.7134 104.747 45.9064 105.419 46.2833C106.091 46.6601 106.615 47.1931 107.001 47.8732C107.388 48.5534 107.581 49.3621 107.581 50.2996C107.581 51.237 107.388 52.0274 107.001 52.7259Z" fill="#5D8DD4"/>
<path d="M112.519 56.8251H114.883V45.8422H122.263V56.8251H124.627V43.7651H112.519V56.8251Z" fill="#5D8DD4"/>
<path d="M126.909 45.8422H131.694V56.8251H134.058V45.8422H138.843V43.7651H126.909V45.8422Z" fill="#5D8DD4"/>
<path d="M149.305 44.4819C148.339 43.9213 147.216 43.6455 145.947 43.6455C144.677 43.6455 143.573 43.9304 142.579 44.4911C141.585 45.0609 140.803 45.8421 140.233 46.8439C139.662 47.8457 139.386 48.9945 139.386 50.2904C139.386 51.5863 139.681 52.7351 140.26 53.7369C140.84 54.7387 141.668 55.5291 142.726 56.0989C143.784 56.6779 145.017 56.9628 146.416 56.9628C147.502 56.9628 148.486 56.779 149.36 56.4206C150.244 56.0622 150.98 55.5383 151.569 54.8398L150.262 53.3141C149.784 53.838 149.232 54.2332 148.597 54.4997C147.962 54.7663 147.262 54.8949 146.49 54.8949C145.551 54.8949 144.723 54.7019 143.996 54.3251C143.269 53.9483 142.708 53.4152 142.303 52.7351C142.009 52.2296 141.815 51.6782 141.742 51.0716H152.351C152.369 50.9613 152.378 50.8327 152.388 50.704C152.388 50.5753 152.397 50.4558 152.397 50.3547C152.397 49.0037 152.121 47.8273 151.569 46.8163C151.017 45.8053 150.253 45.0241 149.287 44.4635L149.305 44.4819ZM143.757 46.1914C144.401 45.8237 145.128 45.6399 145.956 45.6399C146.784 45.6399 147.529 45.8237 148.164 46.1914C148.799 46.559 149.296 47.0737 149.655 47.7354C149.931 48.2317 150.096 48.7831 150.152 49.3897H141.751C141.825 48.7923 141.99 48.2409 142.257 47.7538C142.616 47.092 143.122 46.5682 143.766 46.2005L143.757 46.1914Z" fill="#5D8DD4"/>
<path d="M166.52 43.7651H163.981L159.739 49.2887H156.979V43.7651H154.614V56.8251H156.979V51.3107H159.693L164.082 56.8251H166.87L161.579 50.0608L166.52 43.7651Z" fill="#5D8DD4"/>
<path d="M178.04 43.765V45.7594C177.599 45.1896 177.074 44.7208 176.458 44.3808C175.565 43.8845 174.571 43.6455 173.477 43.6455C172.207 43.6455 171.084 43.9213 170.081 44.4819C169.088 45.0425 168.305 45.8145 167.726 46.8071C167.146 47.7997 166.861 48.9669 166.861 50.2904C166.861 51.6139 167.146 52.7903 167.726 53.7921C168.305 54.7938 169.088 55.5751 170.081 56.1357C171.075 56.6963 172.207 56.972 173.477 56.972C174.608 56.972 175.62 56.7239 176.513 56.2184C177.148 55.86 177.691 55.3637 178.142 54.7571V56.825H180.414V43.765H178.05H178.04ZM177.488 52.7259C177.102 53.4244 176.577 53.9575 175.906 54.3435C175.243 54.7203 174.498 54.9133 173.67 54.9133C172.842 54.9133 172.087 54.7203 171.425 54.3435C170.771 53.9667 170.238 53.4244 169.842 52.7259C169.446 52.0274 169.253 51.2187 169.253 50.2996C169.253 49.3805 169.446 48.5534 169.842 47.8732C170.238 47.1931 170.762 46.6601 171.425 46.2833C172.087 45.9064 172.832 45.7134 173.67 45.7134C174.507 45.7134 175.234 45.9064 175.906 46.2833C176.577 46.6601 177.102 47.1931 177.488 47.8732C177.875 48.5534 178.068 49.3621 178.068 50.2996C178.068 51.237 177.875 52.0274 177.488 52.7259Z" fill="#5D8DD4"/>
<path d="M87.0002 33C87.0002 35.212 86.1035 37.2148 84.6528 38.6655C83.2041 40.1163 81.2013 41.013 78.9893 41.013H71.0112V48.9891C71.0112 53.4131 67.4264 57 63.0002 57C58.5741 57 54.9893 53.4131 54.9893 48.9891V41.013H62.9879C65.2 41.013 67.2027 40.1163 68.6534 38.6655C70.1021 37.2148 70.9989 35.212 70.9989 33C70.9989 28.5759 67.414 24.9891 62.9879 24.9891H54.9893V17.0109C54.9893 12.5869 58.5762 9 63.0002 9C65.2123 9 67.215 9.89672 68.6658 11.3475C70.1145 12.7962 71.0112 14.7989 71.0112 17.0109V24.9891H78.9893C83.4134 24.9891 87.0002 28.5759 87.0002 33Z" fill="#5D8DD4"/>
<path d="M70.9989 33.0003C70.9989 35.2123 70.1021 37.2151 68.6534 38.6658C67.2027 40.1166 65.2 41.0133 62.9879 41.0133H54.9893V24.9893H62.9879C67.414 24.9893 70.9989 28.5762 70.9989 33.0003Z" fill="white"/>
<path d="M54.9891 24.9893V41.0133H47.013C42.5869 41.0133 39 37.4244 39 33.0003C39 28.5762 42.5869 24.9893 47.013 24.9893H54.9891Z" fill="#5D8DD4"/>
</g>
<defs>
<clipPath id="clip0_1074_11014">
<rect width="173" height="48" fill="white" transform="translate(39 9)"/>
</clipPath>
</defs>
</svg>
