<svg width="250" height="66" viewBox="0 0 250 66" fill="none" xmlns="http://www.w3.org/2000/svg">
<g clip-path="url(#clip0_1074_10882)">
<path d="M79.5488 21.3921C79.5488 34.8116 87.251 43.8585 104.733 55.4003L107.323 57.0899L116.222 62.7527L117.525 63.5876C122.63 66.749 127.042 66.7952 132.266 63.7691L132.936 63.3632C134.436 62.4161 142.952 57.0024 145.374 55.4036L146.961 54.3443C163.326 43.2992 170.563 34.4024 170.563 21.3938L170.555 20.7618C169.952 0.301836 140.102 -6.93506 125.371 7.79944L125.054 8.12449L125.109 8.17894C110.476 -7.23702 79.5488 0.240786 79.5488 21.3921Z" fill="white"/>
<path fill-rule="evenodd" clip-rule="evenodd" d="M127.318 10.4444C139.698 -2.57738 167.264 2.88082 167.264 21.2882C167.264 39.0323 149.721 48.5363 131.027 60.5054C126.63 63.1817 123.439 63.2048 119.302 60.6457C100.525 48.6089 82.8486 39.0983 82.8486 21.2882C82.8486 2.88082 110.415 -2.57738 122.795 10.4461C124.252 11.8783 125.249 12.502 127.316 10.4461L127.318 10.4444Z" fill="#EC1D24"/>
<path fill-rule="evenodd" clip-rule="evenodd" d="M167.546 49.642C166.916 51.2095 165.335 51.6303 163.911 50.9571C152.191 45.6606 137.709 43.6938 124.999 43.6938C112.397 43.6938 98.1423 45.6177 86.4883 50.7789L86.4553 50.7904L86.4223 50.8069C84.5265 51.5593 82.9821 50.901 82.1868 49.0167L74.3608 30.7099C73.4071 28.7695 74.4367 26.5338 76.3045 25.6708C91.3459 18.6121 108.534 15.52 125.001 15.52C141.854 15.52 159.535 18.7689 174.836 26.217C176.228 26.8902 176.629 28.3851 176.034 29.7793L167.546 49.642Z" fill="#EC1D24"/>
<path fill-rule="evenodd" clip-rule="evenodd" d="M124.999 17.397C143.499 17.397 160.527 21.3273 174.06 27.9157C174.559 28.1616 174.542 28.5972 174.364 29.0212L165.861 48.9103C165.644 49.4796 165.157 49.4829 164.664 49.2453C154.519 44.6583 140.493 41.8137 124.998 41.8137C109.725 41.8137 95.8718 44.5791 85.7656 49.0489C84.6238 49.506 84.1865 49.044 83.8598 48.2635L76.0124 29.9007C75.5471 29.0097 76.0124 27.8662 77.0585 27.3811C90.407 21.1161 107.006 17.397 124.999 17.397Z" fill="white"/>
<path fill-rule="evenodd" clip-rule="evenodd" d="M97.096 37.6166C97.091 37.5886 97.0366 37.4665 96.9508 37.2487L96.5812 36.3626C96.4244 35.9996 96.2462 35.5756 96.0515 35.1086C95.8519 34.64 95.6341 34.1483 95.4113 33.6236L94.7233 32.0528C94.4923 31.5281 94.2695 31.0216 94.0534 30.5365C93.8306 30.0514 93.6244 29.6125 93.4396 29.2165C93.3323 28.9987 93.2086 28.837 93.0568 28.7347C92.905 28.6291 92.7416 28.5697 92.5733 28.5466C92.4001 28.5301 92.2318 28.5301 92.0651 28.5565C91.8968 28.5911 91.7467 28.6241 91.6097 28.6703C91.5239 28.6918 91.415 28.7248 91.2913 28.7693C91.1659 28.8139 91.0421 28.8683 90.9118 28.9475C90.7748 29.0201 90.6577 29.1158 90.5488 29.2264C90.4613 29.3221 90.397 29.4326 90.3541 29.5613C90.3046 29.6884 90.2716 29.8121 90.2518 29.9342C90.2353 30.0563 90.2237 30.1586 90.2188 30.2296C90.2188 30.4028 90.2122 30.5975 90.2122 30.8054C90.2072 31.0216 90.2072 31.2394 90.2023 31.4654V32.1304L90.2188 32.7739C90.2287 33.0131 90.2287 33.2623 90.2237 33.5312C90.2188 33.7919 90.1957 34.0493 90.1577 34.3001C90.1214 34.546 90.0554 34.7737 89.968 34.9684C89.9581 34.9898 89.9416 35.0245 89.9152 35.0624C89.8937 35.102 89.8607 35.1482 89.8228 35.1862C89.7848 35.2241 89.7353 35.2522 89.6809 35.2687C89.6281 35.2802 89.5736 35.2852 89.5192 35.2753C89.4647 35.2637 89.4119 35.2472 89.3674 35.2258C89.3245 35.2027 89.2915 35.1928 89.275 35.1746C89.0984 35.0575 88.9285 34.9024 88.7668 34.7126C88.61 34.5163 88.4533 34.3117 88.3114 34.0922C88.1711 33.8695 88.0408 33.6583 87.922 33.4471C87.7966 33.2408 87.6943 33.056 87.5969 32.8993C87.493 32.7161 87.3808 32.528 87.2669 32.3317L86.9204 31.7789L86.6069 31.2938C86.5673 31.2328 86.5129 31.1552 86.4337 31.0595C86.3561 30.9721 86.2654 30.8813 86.1614 30.7988C86.0591 30.7163 85.9453 30.6536 85.8265 30.6206C85.6747 30.581 85.5229 30.5711 85.376 30.581C85.2259 30.586 85.084 30.6091 84.9586 30.6371C84.8282 30.6652 84.721 30.6982 84.6401 30.7262C84.4933 30.7642 84.3481 30.8153 84.1897 30.8813C84.0329 30.949 83.8877 31.0447 83.7524 31.1552C83.6155 31.2608 83.5132 31.4027 83.4373 31.5743C83.3614 31.741 83.3399 31.9472 83.3614 32.1848C83.4109 32.627 83.4653 33.1121 83.5297 33.6418C83.5957 34.1698 83.665 34.7242 83.7409 35.2967C83.8118 35.8709 83.8877 36.4402 83.9686 37.0078L84.1897 38.6083C84.2606 39.1165 84.325 39.5669 84.386 39.9646C84.4388 40.3606 84.4883 40.6774 84.5263 40.9117C84.5642 41.1509 84.5857 41.278 84.5923 41.3077C84.655 41.5469 84.7424 41.7416 84.8513 41.8918C84.9586 42.037 85.1071 42.1376 85.2952 42.1706C85.4849 42.2102 85.7341 42.1871 86.0426 42.0997C86.3396 42.0089 86.5673 41.8984 86.7142 41.7631C86.8709 41.6245 86.9683 41.4562 87.0178 41.2516C87.0673 41.0503 87.0772 40.7995 87.0607 40.5091C87.0442 40.2187 87.0112 39.8804 86.9617 39.4844L86.8709 38.6759C86.8379 38.4284 86.8165 38.1859 86.8 37.9499C86.7851 37.7156 86.7901 37.4714 86.8 37.2272C86.8066 37.148 86.828 37.0705 86.866 36.9962C86.9023 36.9302 86.9485 36.8692 86.9963 36.8246C87.0392 36.7751 87.0871 36.7471 87.1267 36.7306C87.2768 36.691 87.4237 36.719 87.5705 36.8081C87.7108 36.9022 87.8576 37.0424 88.0028 37.2322C88.1497 37.4137 88.2949 37.6331 88.4417 37.879C88.5935 38.1281 88.7387 38.3855 88.8971 38.6545C89.0539 38.9201 89.2156 39.1825 89.3938 39.4382C89.5736 39.6907 89.7568 39.9167 89.9548 40.1147C90.1412 40.3028 90.3425 40.448 90.5488 40.5371C90.755 40.6262 90.9547 40.6427 91.1659 40.5866C91.3721 40.5206 91.5338 40.3985 91.6592 40.2071C91.783 40.019 91.8737 39.7946 91.9348 39.5224C92.0008 39.2567 92.0387 38.9647 92.0585 38.6545C92.075 38.341 92.0816 38.0225 92.075 37.7107C92.0701 37.3988 92.0651 37.1035 92.0651 36.8147C92.0585 36.5227 92.0701 36.262 92.0981 36.0227C92.1245 35.7818 92.1724 35.5871 92.2499 35.4254C92.3258 35.2703 92.4397 35.168 92.5898 35.1185C92.6327 35.107 92.6888 35.107 92.7532 35.1251C92.8192 35.1416 92.8835 35.168 92.9429 35.2027C93.0139 35.2472 93.0617 35.2967 93.1046 35.3644C93.2465 35.5657 93.3703 35.7703 93.4841 35.9782C93.593 36.1828 93.7003 36.4022 93.8092 36.625L94.1441 37.3658C94.3075 37.7222 94.4593 38.0291 94.5896 38.2898C94.7233 38.5423 94.8652 38.7485 95.0104 38.8937C95.1589 39.0373 95.3255 39.128 95.5252 39.161C95.7265 39.194 95.974 39.166 96.2726 39.0785C96.5762 38.9878 96.799 38.8772 96.9392 38.737C97.0795 38.6017 97.1554 38.435 97.1785 38.2519C97.1933 38.0638 97.1669 37.8509 97.096 37.6166ZM108.123 34.8512C107.978 34.5608 107.814 34.2556 107.644 33.9322C107.473 33.6071 107.298 33.2854 107.126 32.9719C106.958 32.66 106.796 32.3647 106.649 32.104C106.503 31.835 106.379 31.6189 106.282 31.439C106.184 31.2674 106.125 31.1618 106.103 31.1156C105.999 30.9176 105.876 30.6817 105.735 30.4078C105.587 30.1405 105.438 29.8616 105.278 29.5663C105.122 29.266 104.965 28.9756 104.813 28.6918C104.656 28.4129 104.523 28.1506 104.397 27.9212C104.272 27.6935 104.176 27.5087 104.1 27.3701C104.023 27.2381 103.985 27.1639 103.985 27.1589C103.866 26.9411 103.714 26.7844 103.531 26.6854C103.346 26.5913 103.151 26.5286 102.94 26.5121C102.729 26.4956 102.523 26.5006 102.323 26.5237C102.117 26.5501 101.937 26.5798 101.775 26.6062C101.607 26.6293 101.424 26.6623 101.229 26.6969C101.035 26.7299 100.855 26.7794 100.686 26.8405C100.525 26.9015 100.394 26.9857 100.307 27.0863C100.193 27.2249 100.097 27.3701 100.02 27.5203C99.9455 27.6605 99.8795 27.8272 99.8267 28.007C99.7723 28.1902 99.7228 28.408 99.6782 28.6522C99.6304 28.9046 99.5825 29.2049 99.5231 29.5498L99.307 30.7939L98.878 33.2738C98.8235 33.5576 98.7691 33.8596 98.7097 34.1813C98.6503 34.5113 98.5958 34.8347 98.5315 35.168C98.477 35.498 98.416 35.8148 98.3632 36.1217C98.3087 36.4286 98.2609 36.7009 98.2229 36.9533C98.1784 37.1975 98.147 37.3988 98.1239 37.5556C98.0992 37.7057 98.0926 37.7998 98.0992 37.8295C98.1305 38.0341 98.2015 38.1908 98.3087 38.2915C98.4127 38.3905 98.5364 38.4581 98.6783 38.4812C98.8235 38.5076 98.9654 38.5142 99.1156 38.5027C99.2641 38.4862 99.3928 38.4697 99.5165 38.4466C99.8317 38.3905 100.079 38.3245 100.264 38.2354C100.449 38.1463 100.584 38.0456 100.681 37.9351C100.767 37.8229 100.838 37.7008 100.886 37.5721C100.931 37.4434 100.969 37.3081 101.006 37.1761C101.051 37.0375 101.105 36.9022 101.18 36.7685C101.256 36.6365 101.365 36.5078 101.52 36.3841C101.673 36.262 101.883 36.1514 102.16 36.0491C102.432 35.9501 102.788 35.861 103.221 35.7884C103.633 35.7224 103.98 35.6927 104.267 35.7092C104.542 35.7158 104.775 35.7587 104.96 35.8264C105.14 35.8924 105.29 35.9782 105.409 36.0838C105.524 36.1828 105.626 36.295 105.719 36.4055C105.8 36.5227 105.886 36.6365 105.978 36.7421C106.07 36.8477 106.179 36.9401 106.308 37.0193C106.433 37.0919 106.597 37.148 106.79 37.1711C106.991 37.1975 107.24 37.1876 107.544 37.1381C107.646 37.1249 107.765 37.0985 107.907 37.0705C109.103 36.79 108.535 35.6713 108.123 34.8512ZM103.759 32.3647C103.79 32.6105 103.769 32.8234 103.688 32.9834C103.6 33.1517 103.486 33.2738 103.335 33.3629C103.189 33.452 103.038 33.5131 102.874 33.5362C102.696 33.5626 102.523 33.5626 102.35 33.5362C102.176 33.5081 102.025 33.4289 101.894 33.3085C101.759 33.1847 101.673 32.995 101.63 32.7442V32.528C101.64 32.4158 101.65 32.2706 101.668 32.099C101.685 31.9307 101.711 31.7525 101.744 31.5628C101.78 31.378 101.823 31.1998 101.878 31.0331C101.932 30.8599 102.003 30.7196 102.079 30.6091C102.16 30.4985 102.252 30.4309 102.366 30.4078C102.475 30.3913 102.582 30.4243 102.691 30.5101C102.798 30.586 102.906 30.6982 103.011 30.8368C103.114 30.977 103.204 31.1272 103.298 31.2938C103.384 31.4621 103.465 31.6189 103.529 31.7674L103.694 32.1634C103.731 32.2706 103.752 32.3383 103.759 32.3647ZM119.171 35.5327C119.079 34.4899 115.652 31.6057 115.564 30.3929C115.441 28.6291 120.373 24.2203 115.993 24.8654C114.271 25.1228 114.074 27.6209 112.957 28.6918C112.264 29.3551 111.91 28.4294 111.849 27.8272C111.725 26.4676 111.623 25.0057 109.829 25.4858C109.319 25.6261 108.875 25.9891 108.908 26.5913L109.986 35.7439C110.101 37.1926 112.769 37.0804 112.774 35.4584C112.781 34.8628 112.385 32.929 113.279 32.8729C114.177 32.8118 115.456 35.7323 116.464 36.1399C116.983 36.3445 119.219 36.5309 119.171 35.5327ZM127.057 34.5163C127.057 34.3496 127.024 34.1764 126.958 34.0163C126.893 33.853 126.796 33.7144 126.656 33.6071C126.527 33.5015 126.359 33.4471 126.152 33.4421C125.979 33.4471 125.832 33.4586 125.707 33.4966C125.583 33.5246 125.464 33.5626 125.351 33.6071C125.242 33.6533 125.123 33.6913 124.993 33.721C124.862 33.754 124.712 33.7705 124.532 33.7754C120.595 33.7919 120.589 27.0533 124.382 27.0418C124.544 27.0418 124.684 27.0533 124.803 27.0797C124.922 27.1028 125.026 27.1408 125.116 27.182C125.215 27.215 125.308 27.253 125.405 27.2926C125.502 27.3371 125.616 27.3635 125.74 27.3916C125.872 27.4213 126.027 27.4312 126.212 27.4361C126.402 27.4312 126.553 27.3817 126.666 27.2876C126.786 27.1919 126.867 27.0583 126.921 26.8966C126.971 26.7349 126.996 26.5567 126.996 26.3554C126.992 26.032 126.933 25.7482 126.803 25.5238C126.677 25.2911 126.511 25.1063 126.303 24.9628C126.093 24.811 125.859 24.6988 125.606 24.6229C125.346 24.5387 125.09 24.4826 124.826 24.4546C124.565 24.4216 124.316 24.4051 124.088 24.41C116.799 24.4661 116.538 36.389 124.181 36.4055C124.323 36.4055 124.489 36.4022 124.684 36.3841C124.874 36.3725 125.08 36.3445 125.296 36.3065C125.512 36.2669 125.72 36.2075 125.93 36.1217C126.136 36.0392 126.326 35.927 126.499 35.7884C126.666 35.6548 126.803 35.4749 126.9 35.2703C127.002 35.0624 127.057 34.8116 127.057 34.5163ZM138.31 35.7934C138.316 35.6828 138.293 35.5129 138.245 35.2802C138.197 35.041 138.131 34.7687 138.051 34.4503C137.965 34.1335 137.872 33.8035 137.77 33.4471C137.666 33.0956 137.564 32.7442 137.455 32.3993C137.351 32.0594 137.255 31.736 137.161 31.4456L136.934 30.7196C136.881 30.5315 136.843 30.4144 136.831 30.3632C136.765 30.1471 136.698 29.8897 136.61 29.5943L136.335 28.6703C136.241 28.3453 136.15 28.0268 136.057 27.7216C135.958 27.4097 135.879 27.1292 135.803 26.8751L135.623 26.2729C135.581 26.1211 135.559 26.0435 135.554 26.0435C135.485 25.8043 135.364 25.6145 135.208 25.4809C135.051 25.3456 134.866 25.2466 134.666 25.1839C134.465 25.1228 134.261 25.0849 134.059 25.0618C133.853 25.0453 133.67 25.0354 133.507 25.0288C133.333 25.0172 133.15 25.0057 132.954 25.0007C132.756 24.9892 132.569 25.0007 132.396 25.0238C132.223 25.0453 132.083 25.1014 131.974 25.1855C131.833 25.2961 131.71 25.4182 131.606 25.5419C131.502 25.6706 131.406 25.8158 131.319 25.9825C131.231 26.1491 131.135 26.3504 131.041 26.5847C130.946 26.8124 130.837 27.0962 130.706 27.4262C130.581 27.7562 130.426 28.144 130.246 28.5977L129.325 30.9275L128.979 31.7855C128.854 32.0924 128.73 32.3993 128.606 32.7112C128.481 33.0164 128.362 33.3184 128.248 33.6071C128.134 33.8926 128.027 34.1549 127.939 34.3876C127.847 34.6186 127.778 34.8067 127.723 34.9519C127.669 35.1004 127.641 35.1862 127.641 35.2192C127.629 35.4254 127.669 35.5921 127.756 35.7142C127.837 35.8379 127.944 35.927 128.075 35.9831C128.215 36.0392 128.35 36.0772 128.502 36.0953C128.649 36.1118 128.784 36.1217 128.903 36.1283C129.223 36.1399 129.482 36.1283 129.679 36.0838C129.878 36.0343 130.03 35.9666 130.144 35.8759C130.258 35.7818 130.348 35.6828 130.419 35.5657C130.49 35.4485 130.555 35.3264 130.621 35.2027C130.687 35.0806 130.771 34.9568 130.868 34.8463C130.972 34.7308 131.107 34.6285 131.281 34.5394C131.454 34.4503 131.687 34.3876 131.974 34.3496C132.261 34.3051 132.624 34.2935 133.068 34.3216C133.485 34.3447 133.832 34.3876 134.102 34.4618C134.374 34.5344 134.596 34.6219 134.757 34.7291C134.921 34.8347 135.051 34.9469 135.147 35.0756C135.241 35.1977 135.315 35.3264 135.381 35.4584C135.44 35.5921 135.505 35.7158 135.571 35.8445C135.637 35.9666 135.727 36.0772 135.835 36.1828C135.945 36.2834 136.09 36.3676 136.28 36.4352C136.468 36.5012 136.717 36.5458 137.023 36.5639C137.125 36.5738 137.249 36.5738 137.391 36.5738C137.524 36.5689 137.666 36.5458 137.801 36.5078C137.937 36.4682 138.049 36.3841 138.148 36.2735C138.247 36.1663 138.3 36.0046 138.311 35.795L138.31 35.7934ZM134.28 31.0826C134.266 31.3334 134.2 31.5347 134.087 31.6733C133.972 31.8202 133.832 31.9208 133.67 31.9703C133.507 32.0314 133.345 32.0528 133.181 32.0413C133.002 32.0314 132.835 31.9984 132.667 31.9307C132.505 31.8647 132.37 31.7575 132.266 31.6073C132.163 31.4572 132.121 31.2559 132.125 30.9985C132.125 30.9721 132.142 30.9044 132.168 30.7873C132.201 30.6767 132.239 30.5414 132.294 30.3748C132.343 30.2147 132.403 30.0448 132.474 29.8666C132.548 29.695 132.624 29.5283 132.711 29.3782C132.802 29.2264 132.894 29.1043 132.998 29.0102C133.101 28.9145 133.203 28.87 133.312 28.8749C133.426 28.8815 133.523 28.936 133.615 29.0416C133.706 29.1439 133.789 29.2709 133.86 29.4277C133.934 29.5894 133.993 29.761 134.048 29.9392C134.102 30.119 134.147 30.2906 134.178 30.454C134.216 30.6206 134.237 30.7592 134.261 30.8714C134.275 30.9886 134.28 31.0546 134.28 31.0826ZM148.249 35.0261C148.292 34.6516 148.287 34.3265 148.228 34.0427C148.162 33.7639 148.071 33.5197 147.951 33.3085C147.832 33.094 147.706 32.9059 147.583 32.7392C147.457 32.566 147.355 32.4043 147.272 32.2525C147.193 32.0974 147.165 31.9423 147.182 31.7789C147.198 31.6568 147.248 31.5446 147.317 31.439C147.386 31.3334 147.474 31.2229 147.571 31.1057C147.675 30.9935 147.777 30.8599 147.88 30.7147C147.984 30.5662 148.079 30.3863 148.167 30.1867C148.253 29.9804 148.314 29.7346 148.357 29.4491C148.401 29.1026 148.378 28.7875 148.304 28.4855C148.221 28.1902 148.102 27.9163 147.929 27.6704C147.761 27.4312 147.56 27.2134 147.329 27.0352C147.099 26.852 146.852 26.7019 146.596 26.5897C146.337 26.4775 146.076 26.3999 145.822 26.3669L141.43 25.7317C141.257 25.7036 141.083 25.7201 140.91 25.7812C140.732 25.8422 140.58 25.9544 140.445 26.1211C140.314 26.2844 140.227 26.5121 140.179 26.7976L138.96 35.7274C138.95 35.833 138.955 35.9551 138.983 36.0838C139.014 36.2125 139.059 36.3346 139.128 36.4583C139.199 36.5804 139.286 36.686 139.389 36.7685C139.496 36.8527 139.62 36.9088 139.762 36.9319L144.745 37.6546C145.222 37.7156 145.659 37.6876 146.06 37.5721C146.466 37.4566 146.819 37.2652 147.127 37.0078C147.437 36.7586 147.685 36.4583 147.88 36.1102C148.071 35.7703 148.195 35.4089 148.249 35.0245V35.0261ZM145.54 29.6669C145.514 29.8666 145.449 30.0299 145.358 30.1619C145.264 30.2972 145.144 30.3962 145.015 30.4804C144.88 30.5596 144.738 30.6157 144.593 30.6536C144.446 30.6932 144.312 30.7097 144.175 30.7147C144.045 30.7213 143.938 30.7213 143.845 30.7031C143.585 30.6652 143.369 30.581 143.195 30.4474C143.022 30.3203 142.892 30.152 142.816 29.9458C142.742 29.7445 142.718 29.5217 142.751 29.266C142.789 29.0102 142.872 28.7908 142.999 28.6126C143.124 28.4393 143.293 28.3123 143.494 28.2397C143.699 28.1621 143.931 28.139 144.192 28.1786C144.332 28.1951 144.486 28.2446 144.654 28.3238C144.816 28.3964 144.972 28.4954 145.119 28.6241C145.264 28.7528 145.378 28.9046 145.459 29.0762C145.542 29.2495 145.566 29.4491 145.54 29.6669ZM145.312 34.2935C145.279 34.5163 145.215 34.7011 145.108 34.8512C145.005 34.9964 144.88 35.1136 144.728 35.1977C144.581 35.2802 144.425 35.3413 144.258 35.3759C144.09 35.4089 143.926 35.4254 143.77 35.4254C143.608 35.432 143.466 35.4205 143.342 35.4023C142.865 35.3314 142.524 35.1631 142.329 34.9024C142.134 34.6334 142.065 34.2886 142.124 33.8645C142.172 33.5246 142.27 33.2672 142.426 33.089C142.578 32.9174 142.768 32.8003 142.991 32.7491C143.218 32.6996 143.466 32.6947 143.738 32.7392C143.911 32.7607 144.095 32.8118 144.283 32.8844C144.481 32.9554 144.664 33.056 144.832 33.1798C144.994 33.3085 145.129 33.4636 145.222 33.6484C145.312 33.8315 145.345 34.0493 145.312 34.2935ZM162.563 30.2972C162.703 30.3137 162.822 30.3368 162.91 30.3748L167.876 32.1304C168.114 32.2145 168.303 32.3317 168.455 32.4769C168.6 32.6221 168.694 32.8003 168.736 33.0065C168.774 33.2128 168.752 33.4405 168.666 33.7028C168.581 33.9536 168.482 34.1434 168.369 34.2655C168.254 34.3876 168.135 34.4717 168 34.5047C167.864 34.5394 167.729 34.5509 167.577 34.5278C167.432 34.5163 167.28 34.4948 167.124 34.4668C166.967 34.4404 166.802 34.4288 166.64 34.4338C166.483 34.4338 166.327 34.4717 166.168 34.5509C166.018 34.6219 165.866 34.7572 165.726 34.9519C165.589 35.1416 165.462 35.4089 165.342 35.7604L163.494 41.2747C163.413 41.5139 163.299 41.6872 163.154 41.8093C163.005 41.9248 162.85 41.9974 162.675 42.032C162.504 42.065 162.34 42.07 162.177 42.0485C162.02 42.0254 161.887 41.999 161.771 41.9528C161.657 41.9149 161.533 41.8538 161.403 41.7746C161.273 41.6921 161.156 41.5849 161.047 41.4529C160.938 41.3242 160.867 41.1674 160.831 40.9826C160.791 40.8011 160.814 40.5866 160.89 40.3474L162.736 34.8364C162.85 34.4833 162.91 34.1929 162.914 33.9536C162.921 33.7144 162.881 33.5131 162.807 33.358C162.731 33.2012 162.627 33.0676 162.504 32.962C162.378 32.8547 162.243 32.7673 162.103 32.6815C161.961 32.6105 161.83 32.533 161.707 32.4488C161.576 32.3696 161.476 32.2756 161.393 32.1584C161.307 32.0479 161.256 31.9076 161.241 31.741C161.225 31.5743 161.263 31.3615 161.344 31.1107C161.425 30.8665 161.54 30.6883 161.68 30.5662C161.816 30.4424 161.961 30.3632 162.118 30.3302C162.276 30.2906 162.421 30.2807 162.563 30.2972ZM152.046 27.4312C152.196 27.4312 152.315 27.4427 152.402 27.4642C152.65 27.5318 152.864 27.6325 153.036 27.7661C153.209 27.8981 153.335 28.0681 153.404 28.2727C153.48 28.474 153.48 28.7083 153.42 28.969L152.694 31.9687C152.673 32.0627 152.651 32.1799 152.642 32.3267C152.625 32.4719 152.625 32.6155 152.642 32.7673C152.658 32.9224 152.691 33.0511 152.755 33.1682C152.815 33.2837 152.906 33.358 153.031 33.391C153.161 33.419 153.311 33.391 153.491 33.3019C153.67 33.2128 153.871 33.089 154.077 32.929C154.287 32.7673 154.493 32.5891 154.704 32.3927C154.91 32.203 155.105 32.0083 155.283 31.8301C155.463 31.6453 155.613 31.4902 155.734 31.3549C155.857 31.2278 155.935 31.1437 155.965 31.1074C156.069 30.9985 156.199 30.8764 156.341 30.7378C156.486 30.5975 156.638 30.4474 156.811 30.2923C156.978 30.1289 157.151 29.9738 157.336 29.8171C157.514 29.6686 157.694 29.5217 157.872 29.393C158.04 29.2775 158.209 29.2049 158.375 29.1769C158.555 29.1439 158.728 29.1439 158.912 29.1653C159.091 29.1884 159.281 29.2264 159.469 29.2808C159.606 29.3105 159.75 29.3666 159.92 29.4491C160.083 29.5333 160.233 29.6389 160.382 29.7791C160.52 29.9128 160.629 30.0794 160.7 30.2791C160.766 30.4754 160.769 30.7031 160.71 30.9721L158.674 39.3838C158.608 39.6461 158.517 39.8507 158.398 39.9959C158.278 40.1477 158.143 40.2533 157.993 40.3144C157.841 40.3771 157.677 40.4035 157.509 40.3969C157.347 40.3969 157.179 40.3705 157.017 40.3259C156.577 40.2088 156.275 40.0124 156.108 39.7303C155.938 39.4448 155.9 39.1099 155.998 38.7089L156.762 35.5426C156.79 35.4485 156.811 35.3363 156.833 35.2126C156.856 35.0971 156.861 34.975 156.844 34.8562C156.838 34.7357 156.795 34.6334 156.729 34.5394C156.664 34.4503 156.564 34.3826 156.422 34.3447C156.301 34.3166 156.182 34.3216 156.052 34.3661C155.928 34.4057 155.805 34.4668 155.679 34.5509C155.554 34.6334 155.435 34.7242 155.328 34.8232C155.219 34.9222 155.122 35.0195 155.034 35.102L154.839 35.3083C154.471 35.6713 154.113 36.0392 153.757 36.4055C153.399 36.7751 153.031 37.1365 152.645 37.4879C152.255 37.8443 151.838 38.1859 151.378 38.5076C151.249 38.5918 151.092 38.6429 150.929 38.6545C150.762 38.6644 150.587 38.6545 150.414 38.6198C150.236 38.5868 150.068 38.5472 149.906 38.5027C149.749 38.4647 149.592 38.4086 149.429 38.3245C149.272 38.2453 149.125 38.1463 149.002 38.0225C148.878 37.8938 148.784 37.7387 148.731 37.5605C148.677 37.3823 148.677 37.1711 148.731 36.9319L150.815 28.3288C150.874 28.1011 150.972 27.9212 151.109 27.7942C151.244 27.6655 151.396 27.5764 151.562 27.5203C151.736 27.4658 151.892 27.4378 152.046 27.4312Z" fill="#EC1D24"/>
</g>
<defs>
<clipPath id="clip0_1074_10882">
<rect width="102.3" height="66" fill="white" transform="translate(74)"/>
</clipPath>
</defs>
</svg>
