<svg width="200" height="62" viewBox="0 0 200 62" fill="none" xmlns="http://www.w3.org/2000/svg">
<path d="M101.181 17.9867H108.45V44.9621C108.45 49.3493 106.974 52.6849 104.022 55.0054C101.07 57.3259 97.5277 58.4498 93.3948 58.4498C90.2952 58.4498 87.5277 57.8697 85.1661 56.7095C82.8044 55.5493 80.9963 53.8089 79.7048 51.561L86.0517 48.0077C87.5277 50.6545 90.0369 51.9598 93.6162 51.9598C95.9779 51.9598 97.8229 51.3434 99.1513 50.1469C100.48 48.9504 101.181 47.2101 101.181 44.9984V41.9528C99.0037 44.8171 95.9041 46.2674 91.9557 46.2674C87.8967 46.2674 84.465 44.8534 81.7343 42.0615C79.0037 39.2335 77.6015 35.8253 77.6015 31.7645C77.6015 27.7762 78.9668 24.3317 81.7343 21.5037C84.5019 18.6756 87.8967 17.2615 91.9557 17.2615C95.9041 17.2615 99.0037 18.7118 101.181 21.5762V17.9867ZM87.3063 37.2756C88.8192 38.7259 90.738 39.451 93.0996 39.451C95.4613 39.451 97.3801 38.7259 98.893 37.2756C100.406 35.8253 101.181 33.9762 101.181 31.692C101.181 29.4803 100.406 27.6311 98.893 26.1808C97.3801 24.7306 95.4613 24.0054 93.0996 24.0054C90.738 24.0054 88.8192 24.7306 87.3063 26.1808C85.7934 27.6311 85.0185 29.4803 85.0185 31.692C85.0185 33.9762 85.7934 35.8253 87.3063 37.2756Z" fill="#0B112D"/>
<path d="M117.86 14.5785C116.642 14.5785 115.572 14.1434 114.649 13.237C113.764 12.3668 113.284 11.3154 113.284 10.0826C113.284 8.84986 113.727 7.79839 114.649 6.89195C115.535 5.98552 116.605 5.55044 117.86 5.55044C119.114 5.55044 120.221 5.98552 121.107 6.89195C121.993 7.79839 122.472 8.84986 122.472 10.0826C122.472 11.3154 122.03 12.3305 121.107 13.237C120.221 14.1434 119.151 14.5785 117.86 14.5785ZM114.17 46.3037V17.9867H121.624V46.3037H114.17Z" fill="#0B112D"/>
<path d="M144.686 12.8744C140.627 12.5844 138.561 14.1797 138.561 17.6966V17.9867H144.686V25.0206H138.561V46.3037H131.107V25.0206H126.937V17.9867H131.107V17.6966C131.107 13.7083 132.251 10.6627 134.502 8.55979C136.753 6.49313 140.148 5.58669 144.649 5.8405V12.8744H144.686Z" fill="#0B112D"/>
<path d="M160.332 25.0931V36.5504C160.332 37.5294 160.59 38.2545 161.07 38.6896C161.587 39.1247 162.288 39.4148 163.247 39.451C164.207 39.5235 165.387 39.4873 166.827 39.4148V46.0498C161.697 46.63 158.118 46.1586 156.015 44.6358C153.911 43.113 152.878 40.43 152.878 36.5504V25.0931H147.897V17.9142H152.915V12.5844H160.369V17.9142H166.9V25.0931H160.332Z" fill="#0B112D"/>
<path d="M195.387 42.7867C192.435 45.6873 188.819 47.1376 184.539 47.1376C180.258 47.1376 176.679 45.6873 173.727 42.7867C170.775 39.8861 169.299 36.3691 169.299 32.1633C169.299 27.9575 170.775 24.4405 173.727 21.5399C176.679 18.6393 180.258 17.189 184.539 17.189C188.819 17.189 192.435 18.6393 195.387 21.5399C198.34 24.4405 199.816 27.9575 199.816 32.1633C199.816 36.3691 198.376 39.8861 195.387 42.7867ZM179.004 37.7469C180.48 39.2335 182.325 39.9586 184.576 39.9586C186.79 39.9586 188.672 39.2335 190.184 37.7469C191.697 36.2604 192.435 34.4113 192.435 32.127C192.435 29.8428 191.697 27.9937 190.184 26.5072C188.672 25.0206 186.827 24.2955 184.576 24.2955C182.362 24.2955 180.48 25.0206 179.004 26.5072C177.528 27.9937 176.79 29.8428 176.79 32.127C176.79 34.4113 177.528 36.2966 179.004 37.7469Z" fill="#0B112D"/>
<path d="M35.0554 57.6884C34.0221 58.2686 32.7675 57.9422 31.8081 57.3621C31.8081 57.3621 16.3469 48.6604 11.2177 45.6873C7.97048 43.8019 6.64207 42.5329 6.64207 37.9282C6.64207 32.127 6.71587 14.6873 6.71587 14.6873C6.71587 13.5996 7.04797 12.4031 8.04428 11.7867L1.40222 15.5937C0.88561 15.8838 0.516609 16.3914 0.332107 16.9352C0.147605 17.4428 0.0737996 17.9504 0.0737996 18.4943C0.0737996 18.4943 0 35.9341 0 41.7352C0 45.506 2.06642 47.9715 4.13284 49.2405C5.38745 50.0019 25.166 61.1692 25.166 61.1692C25.7196 61.4955 26.3469 61.713 27.0111 61.7855C27.4908 61.8218 28.0074 61.713 28.4133 61.4955L35.0554 57.6884Z" fill="#0B112D"/>
<path d="M36.679 46.5575C36.679 44.9259 36.0517 44.0194 34.7233 43.2943C30.9963 41.2639 20 34.9189 20 34.9189L13.3579 38.7259C13.3579 38.7259 24.4649 44.9259 28.0812 47.1013C29.2251 47.7902 30.0369 48.6241 30.0369 50.437C30.0369 52.4311 30 58.3773 30 58.3773C30 59.5013 29.6679 60.7341 28.6347 61.3504L35.2768 57.5434C35.7196 57.2896 36.0886 56.8908 36.31 56.3832C36.5683 55.8031 36.679 55.1867 36.679 54.5703C36.6421 54.4615 36.679 48.044 36.679 46.5575Z" fill="#0B112D"/>
<path d="M47.1218 38.7259C47.0849 39.306 47.1956 49.0955 46.9742 49.313C46.8266 50.0744 46.3838 50.7633 45.7196 51.1621L39.0775 54.9691C40.1107 54.3528 40.4428 53.12 40.4428 51.9961L40.4797 42.5329L47.1218 38.7259Z" fill="#0B112D"/>
<path d="M36.679 31.5832C36.679 27.9212 35.1661 25.7095 32.6199 24.1867C30.1107 22.7001 11.4022 12.0768 11.4022 12.0768C10.738 11.7142 9.9631 11.4241 9.1882 11.4604C8.78229 11.4604 8.41329 11.5691 8.04428 11.7867L1.40222 15.5937C2.47233 15.0136 3.76384 15.3399 4.76015 15.92C4.76015 15.92 22.5461 25.9633 25.3506 27.5949C28.3764 29.3715 30.0369 30.8218 30.0369 35.0276C30.0369 37.1668 30.0369 39.8861 30.0369 40.2487L36.679 36.4417C36.679 36.4417 36.679 34.23 36.679 31.5832Z" fill="#0B112D"/>
<path d="M47.1218 25.8545C47.1218 22.1925 45.6089 19.9809 43.0627 18.458C40.5535 16.9715 21.845 6.34809 21.845 6.34809C21.1808 5.98552 20.4059 5.69547 19.631 5.73173C19.2251 5.73173 18.8561 5.8405 18.4871 6.05804L11.845 9.86506C12.9151 9.28494 14.2066 9.61125 15.2029 10.1914C15.2029 10.1914 32.9889 20.2346 35.7934 21.8662C38.8192 23.6428 40.4797 25.0931 40.4797 29.299C40.4797 31.4382 40.4797 34.1575 40.4797 34.52L47.1218 30.713C47.1218 30.713 47.1218 28.5013 47.1218 25.8545Z" fill="#0B112D"/>
<path d="M57.4908 20.1259C57.4908 16.4639 55.9779 14.2522 53.4317 12.7294C50.9225 11.2428 32.214 0.619445 32.214 0.619445C31.5498 0.256872 30.7749 -0.0331909 30 0.00306639C29.5941 0.00306639 29.2251 0.111847 28.8561 0.329391L22.214 4.13641C23.2841 3.55629 24.5756 3.88261 25.572 4.46272C25.572 4.46272 43.3579 14.506 46.1624 16.1376C49.1882 17.9142 50.8487 19.3645 50.8487 23.5703C50.8487 25.7095 50.8487 28.4288 50.8487 28.7914L57.4908 24.9844C57.4908 24.9844 57.4908 22.7727 57.4908 20.1259Z" fill="#0B112D"/>
<path d="M57.4908 33.251C57.4539 33.8311 57.5646 43.6206 57.3432 43.8382C57.1956 44.5996 56.7528 45.2884 56.0886 45.6873L49.4465 49.4943C50.4797 48.8779 50.8118 47.6452 50.8118 46.5212L50.8487 37.058L57.4908 33.251Z" fill="#0B112D"/>
</svg>
