<svg width="200" height="62" viewBox="0 0 200 62" fill="none" xmlns="http://www.w3.org/2000/svg">
<path d="M101.181 17.987H108.45V44.9625C108.45 49.3496 106.974 52.6853 104.022 55.0058C101.07 57.3262 97.5278 58.4502 93.3949 58.4502C90.2953 58.4502 87.5278 57.8701 85.1661 56.7098C82.8045 55.5496 80.9964 53.8093 79.7049 51.5613L86.0518 48.0081C87.5278 50.6549 90.037 51.9601 93.6163 51.9601C95.9779 51.9601 97.823 51.3438 99.1514 50.1473C100.48 48.9508 101.181 47.2104 101.181 44.9987V41.9531C99.0038 44.8174 95.9041 46.2677 91.9558 46.2677C87.8968 46.2677 84.465 44.8537 81.7344 42.0619C79.0038 39.2338 77.6016 35.8256 77.6016 31.7648C77.6016 27.7765 78.9669 24.3321 81.7344 21.504C84.5019 18.6759 87.8968 17.2619 91.9558 17.2619C95.9041 17.2619 99.0038 18.7122 101.181 21.5765V17.987ZM87.3064 37.2759C88.8193 38.7262 90.7381 39.4514 93.0997 39.4514C95.4613 39.4514 97.3802 38.7262 98.8931 37.2759C100.406 35.8256 101.181 33.9765 101.181 31.6923C101.181 29.4806 100.406 27.6315 98.8931 26.1812C97.3802 24.7309 95.4613 24.0057 93.0997 24.0057C90.7381 24.0057 88.8193 24.7309 87.3064 26.1812C85.7934 27.6315 85.0185 29.4806 85.0185 31.6923C85.0185 33.9765 85.7934 35.8256 87.3064 37.2759Z" fill="#0B112D"/>
<path d="M117.86 14.5788C116.642 14.5788 115.572 14.1438 114.65 13.2373C113.764 12.3671 113.284 11.3157 113.284 10.0829C113.284 8.8502 113.727 7.79873 114.65 6.8923C115.535 5.98586 116.605 5.55078 117.86 5.55078C119.114 5.55078 120.221 5.98586 121.107 6.8923C121.993 7.79873 122.472 8.8502 122.472 10.0829C122.472 11.3157 122.03 12.3309 121.107 13.2373C120.221 14.1438 119.151 14.5788 117.86 14.5788ZM114.17 46.304V17.987H121.624V46.304H114.17Z" fill="#0B112D"/>
<path d="M144.686 12.8748C140.627 12.5847 138.561 14.18 138.561 17.697V17.987H144.686V25.021H138.561V46.304H131.107V25.021H126.937V17.987H131.107V17.697C131.107 13.7087 132.251 10.6631 134.502 8.56013C136.753 6.49347 140.148 5.58704 144.65 5.84084V12.8748H144.686Z" fill="#0B112D"/>
<path d="M160.332 25.0935V36.5508C160.332 37.5297 160.591 38.2549 161.07 38.69C161.587 39.1251 162.288 39.4151 163.247 39.4514C164.207 39.5239 165.388 39.4876 166.827 39.4151V46.0502C161.697 46.6303 158.118 46.159 156.015 44.6362C153.912 43.1133 152.878 40.4303 152.878 36.5508V25.0935H147.897V17.9145H152.915V12.5847H160.369V17.9145H166.9V25.0935H160.332Z" fill="#0B112D"/>
<path d="M195.388 42.787C192.436 45.6876 188.819 47.1379 184.539 47.1379C180.258 47.1379 176.679 45.6876 173.727 42.787C170.775 39.8864 169.299 36.3695 169.299 32.1636C169.299 27.9578 170.775 24.4408 173.727 21.5403C176.679 18.6397 180.258 17.1894 184.539 17.1894C188.819 17.1894 192.436 18.6397 195.388 21.5403C198.34 24.4408 199.816 27.9578 199.816 32.1636C199.816 36.3695 198.377 39.8864 195.388 42.787ZM179.004 37.7473C180.48 39.2338 182.325 39.959 184.576 39.959C186.79 39.959 188.672 39.2338 190.185 37.7473C191.697 36.2607 192.436 34.4116 192.436 32.1274C192.436 29.8432 191.697 27.994 190.185 26.5075C188.672 25.021 186.827 24.2958 184.576 24.2958C182.362 24.2958 180.48 25.021 179.004 26.5075C177.528 27.994 176.79 29.8432 176.79 32.1274C176.79 34.4116 177.528 36.297 179.004 37.7473Z" fill="#0B112D"/>
<path d="M35.0554 57.6884C34.0221 58.2686 32.7675 57.9422 31.8081 57.3621C31.8081 57.3621 16.3469 48.6604 11.2177 45.6873C7.97048 43.8019 6.64207 42.5329 6.64207 37.9282C6.64207 32.127 6.71587 14.6873 6.71587 14.6873C6.71587 13.5996 7.04797 12.4031 8.04428 11.7867L1.40222 15.5937C0.88561 15.8838 0.516609 16.3914 0.332107 16.9352C0.147605 17.4428 0.0737996 17.9504 0.0737996 18.4943C0.0737996 18.4943 0 35.9341 0 41.7352C0 45.506 2.06642 47.9715 4.13284 49.2405C5.38745 50.0019 25.166 61.1692 25.166 61.1692C25.7196 61.4955 26.3469 61.713 27.0111 61.7855C27.4908 61.8218 28.0074 61.713 28.4133 61.4955L35.0554 57.6884Z" fill="#FF2B42"/>
<path d="M36.679 46.5575C36.679 44.9259 36.0517 44.0194 34.7233 43.2943C30.9963 41.2639 20 34.9189 20 34.9189L13.3579 38.7259C13.3579 38.7259 24.4649 44.9259 28.0812 47.1013C29.2251 47.7902 30.0369 48.6241 30.0369 50.437C30.0369 52.4311 30 58.3773 30 58.3773C30 59.5013 29.6679 60.7341 28.6347 61.3504L35.2768 57.5434C35.7196 57.2896 36.0886 56.8908 36.31 56.3832C36.5683 55.8031 36.679 55.1867 36.679 54.5703C36.6421 54.4615 36.679 48.044 36.679 46.5575Z" fill="#FF2B42"/>
<path d="M47.1218 38.7259C47.0849 39.306 47.1956 49.0955 46.9742 49.313C46.8266 50.0744 46.3838 50.7633 45.7196 51.1621L39.0775 54.9691C40.1107 54.3528 40.4428 53.12 40.4428 51.9961L40.4797 42.5329L47.1218 38.7259Z" fill="#FF2B42"/>
<path d="M36.679 31.5832C36.679 27.9212 35.1661 25.7095 32.6199 24.1867C30.1107 22.7001 11.4022 12.0768 11.4022 12.0768C10.738 11.7142 9.9631 11.4241 9.1882 11.4604C8.78229 11.4604 8.41328 11.5691 8.04428 11.7867L1.40222 15.5937C2.47233 15.0136 3.76384 15.3399 4.76015 15.92C4.76015 15.92 22.5461 25.9633 25.3506 27.5949C28.3764 29.3715 30.0369 30.8218 30.0369 35.0276C30.0369 37.1668 30.0369 39.8861 30.0369 40.2487L36.679 36.4417C36.679 36.4417 36.679 34.23 36.679 31.5832Z" fill="#FF2B42"/>
<path d="M47.1218 25.8545C47.1218 22.1925 45.6089 19.9809 43.0627 18.458C40.5535 16.9715 21.845 6.34809 21.845 6.34809C21.1808 5.98552 20.4059 5.69547 19.631 5.73173C19.2251 5.73173 18.8561 5.8405 18.4871 6.05804L11.845 9.86506C12.9151 9.28494 14.2066 9.61125 15.2029 10.1914C15.2029 10.1914 32.9889 20.2346 35.7934 21.8662C38.8192 23.6428 40.4797 25.0931 40.4797 29.299C40.4797 31.4382 40.4797 34.1575 40.4797 34.52L47.1218 30.713C47.1218 30.713 47.1218 28.5013 47.1218 25.8545Z" fill="#FF2B42"/>
<path d="M57.4908 20.1259C57.4908 16.4639 55.9779 14.2522 53.4317 12.7294C50.9225 11.2428 32.214 0.619445 32.214 0.619445C31.5498 0.256872 30.7749 -0.0331909 30 0.00306639C29.5941 0.00306639 29.2251 0.111847 28.8561 0.329391L22.214 4.13641C23.2841 3.55629 24.5756 3.8826 25.572 4.46272C25.572 4.46272 43.3579 14.506 46.1624 16.1376C49.1882 17.9142 50.8487 19.3645 50.8487 23.5703C50.8487 25.7095 50.8487 28.4288 50.8487 28.7914L57.4908 24.9844C57.4908 24.9844 57.4908 22.7727 57.4908 20.1259Z" fill="#FF2B42"/>
<path d="M57.4908 33.251C57.4539 33.8311 57.5646 43.6206 57.3432 43.8382C57.1956 44.5996 56.7528 45.2884 56.0886 45.6873L49.4465 49.4943C50.4797 48.8779 50.8118 47.6452 50.8118 46.5212L50.8487 37.058L57.4908 33.251Z" fill="#FF2B42"/>
</svg>
