<svg width="375" height="192" viewBox="0 0 375 192" fill="none" xmlns="http://www.w3.org/2000/svg">
<g clip-path="url(#clip0_933_22518)">
<mask id="mask0_933_22518" style="mask-type:alpha" maskUnits="userSpaceOnUse" x="88" y="9" width="180" height="180">
<path d="M264.458 122.236C251.689 169.892 202.705 198.173 155.049 185.404C107.393 172.635 79.1122 123.65 91.8815 75.9944C104.651 28.3386 153.635 0.0575259 201.291 12.8269C248.947 25.5962 277.228 74.5805 264.458 122.236Z" fill="#D9D9D9"/>
</mask>
<g mask="url(#mask0_933_22518)">
<path fill-rule="evenodd" clip-rule="evenodd" d="M142.884 -6.17783C154.241 -3.27418 150.197 16.4042 172.45 38.1221C189.198 54.4666 208.534 63.0022 228.348 66.5668C267.377 73.59 277.788 62.5115 301.605 72.7292C318.471 79.9658 341.919 97.8269 342.689 117.752C344.185 156.478 260.335 211.176 183.534 196.629C146.818 189.672 92.2911 163.208 81.4795 111.273C68.7987 50.3222 123.52 -11.1308 142.884 -6.17783Z" fill="url(#paint0_linear_933_22518)"/>
<g style="mix-blend-mode:lighten">
<path fill-rule="evenodd" clip-rule="evenodd" d="M142.884 -6.17783C154.241 -3.27418 150.197 16.4042 172.45 38.1221C189.198 54.4666 208.534 63.0022 228.348 66.5668C267.377 73.59 277.788 62.5115 301.605 72.7292C318.471 79.9658 341.919 97.8269 342.689 117.752C344.185 156.478 260.335 211.176 183.534 196.629C146.818 189.672 92.2911 163.208 81.4795 111.273C68.7987 50.3222 123.52 -11.1308 142.884 -6.17783Z" fill="url(#paint1_radial_933_22518)"/>
</g>
<path fill-rule="evenodd" clip-rule="evenodd" d="M91.618 36.895C95.0224 41.7715 113.493 24.6114 134.232 28.5896C159.3 33.402 150.764 59.5424 180.379 71.7744C202.888 81.0727 217.191 74.9779 236.449 83.2773C272.332 98.7469 264.889 151.974 294.64 160.07C312.464 164.922 330.987 148.449 338.975 141.339C356.338 125.893 370.919 98.8073 365.376 72.1556C358.572 39.4458 324.955 24.2427 300.608 13.2322C275.603 1.923 243.917 1.19744 180.556 -0.258676C147.25 -1.02488 122.335 0.143493 103.778 17.0331C96.4215 23.7391 89.3145 33.5933 91.618 36.895Z" fill="url(#paint2_linear_933_22518)"/>
<g filter="url(#filter0_i_933_22518)">
<path d="M40.8818 104.394C40.093 83.2824 68.1319 60.6371 90.3182 63.832C110.669 66.7641 110.352 89.1614 136.523 97.9636C161.989 106.527 173.387 89.0593 197.389 97.786C222.715 106.992 219.606 129.924 244.264 137.848C269.039 145.81 286.6 127.287 298.972 135.881C312.007 144.932 310.571 178.012 292.531 197.233C257.604 234.451 159.251 220.974 111.411 184.265C103.025 177.833 91.0567 165.417 67.1261 140.585C44.9631 117.593 41.1645 111.833 40.8818 104.394Z" fill="#1383FE" fill-opacity="0.42"/>
<path d="M40.8818 104.394C40.093 83.2824 68.1319 60.6371 90.3182 63.832C110.669 66.7641 110.352 89.1614 136.523 97.9636C161.989 106.527 173.387 89.0593 197.389 97.786C222.715 106.992 219.606 129.924 244.264 137.848C269.039 145.81 286.6 127.287 298.972 135.881C312.007 144.932 310.571 178.012 292.531 197.233C257.604 234.451 159.251 220.974 111.411 184.265C103.025 177.833 91.0567 165.417 67.1261 140.585C44.9631 117.593 41.1645 111.833 40.8818 104.394Z" fill="url(#paint3_linear_933_22518)" fill-opacity="0.2"/>
</g>
<path d="M48.5104 179.535C43.3849 157.368 68.1853 127.657 92.1077 126.479C114.051 125.4 118.278 149.154 147.522 153.088C175.977 156.915 184.377 136.099 211.33 140.398C239.769 144.933 241.177 169.826 268.654 173.142C296.262 176.474 310.912 153.277 325.639 159.825C341.155 166.72 346.383 202.002 331.374 226.037C302.314 272.576 196.405 278.524 138.751 249.525C128.645 244.445 113.564 233.77 83.4067 212.422C55.4784 192.657 50.3215 187.345 48.5104 179.535Z" fill="url(#paint4_linear_933_22518)"/>
<g filter="url(#filter1_d_933_22518)">
<path d="M263.954 67.2554C262.126 69.1791 259.746 70.107 256.619 68.7868C252.569 67.0743 253.023 61.0316 250.295 59.6435C241.796 55.3207 249.835 78.6846 241.766 78.662C236.576 78.6469 238.457 71.2688 238.646 68.2738C239.024 62.2462 236.856 62.2386 234.121 57.3124C231.779 53.1179 232.935 51.2092 227.14 49.1799C221.572 47.226 219.095 49.5269 215.204 53.2688C216.292 56.9125 222.177 58.8589 221.663 63.2797C221.165 67.61 215.234 70.0391 211.638 68.7717C208.337 67.61 206.433 63.4457 203.154 62.2688C198.304 60.5487 194.481 63.4834 198.281 68.1758C200.45 70.8614 204.605 71.3971 206.539 74.7541C207.46 76.361 206.146 78.1188 207.74 79.6502C209.009 80.8648 211.6 80.2462 213.028 80.8724C216.934 82.5698 217.856 84.6595 217.138 89.2462C216.307 94.5572 213.716 94.5044 210.618 98.1105C206.312 103.112 209.069 105.27 211.275 110.219C213.33 114.82 212.975 120.909 211.532 125.699C210.082 130.527 205.126 132.768 203.222 137.189C201.507 141.187 203.207 147.705 200.042 151.175C196.733 154.804 190.039 153.242 186.609 150.557C182.802 147.562 182.666 142.552 180.15 138.682C177.219 134.163 172.172 130.437 170.238 125.209C168.705 121.082 169.914 115.198 163.726 114.632C162.329 111.916 163.953 108.725 163.137 105.737C161.868 101.083 160.198 102.441 156.761 100.721C154.155 99.4156 153.12 96.6318 149.66 96.7148C145.081 96.8204 143.246 102.245 139.106 103.263C123.226 107.193 125.59 81.9285 127.985 73.7961C130.569 65.0224 139.196 54.8077 148.133 54.2948C152.545 54.0383 155.439 52.7256 159.639 53.6837C162.926 54.4381 166.982 57.6745 170.639 56.1883C172.898 55.2755 173.109 52.7105 175.141 51.7977C176.871 51.0206 178.624 51.8957 180.641 51.8052C184.66 51.6317 191.361 47.92 185.136 45.8077C183.127 45.1212 181.147 47.1732 179.236 46.2C178.035 45.5889 178.511 43.0692 177.038 42.3224C172.709 40.1497 172.799 47.2713 167.745 44.7063C165.94 43.7859 167.164 40.9267 164.134 40.7909C161.875 40.6853 161.347 43.6728 159.533 44.2084C157.667 44.7591 155.303 43.537 153.135 44.1631C151.374 44.661 149.856 46.63 148.164 47.3165C144.56 48.7725 139.385 49.7532 141.002 44.8195C142.226 41.0776 148.821 39.2444 151.51 36.6794C154.661 33.6769 155.794 33.3299 160.025 31.7079C163.507 30.3802 167.912 28.811 165.547 24.4204C163.802 24.1186 161.687 24.1714 160.115 24.7976C158.332 25.5067 159.277 29.4372 156.111 27.4682C151.956 24.873 159.042 21.3047 160.659 19.9543C163.394 17.6685 164.58 15.1111 168.637 15.8428C171.931 16.4388 172.724 20.5579 176.562 18.7624C176.131 15.6844 173.714 11.8671 172.973 8.35917C174.915 8.22338 176.879 8.16302 178.858 8.16302C217.878 8.16302 251.134 32.749 263.954 67.2554Z" fill="url(#paint5_linear_933_22518)"/>
</g>
<path d="M123.656 163.54C122.614 164.951 121.216 166.226 119.569 167.357C100.312 150.745 88.1265 126.182 88.1265 98.7744C88.1265 87.6771 90.1209 77.04 93.7849 67.2177C95.938 68.5681 97.7058 70.4767 98.6426 72.8682C100.516 77.6435 96.5273 83.9805 99.5038 88.2882C101.528 91.2152 104.686 89.9856 107.157 92.113C110.111 94.6478 108.721 97.4692 109.733 100.721C111.229 105.541 113.268 103.987 116.033 107.201C118.451 110.015 116.608 113.251 117.605 116.216C119.32 121.263 128.068 125.035 125.046 131.606C117.129 131.659 121.103 140.395 123.022 144.182C125.703 149.47 127.607 158.199 123.656 163.54Z" fill="url(#paint6_linear_933_22518)"/>
<path d="M151.147 16.3483C150.029 21.3877 146.584 21.8026 143.034 24.1941C137.874 27.687 141.024 30.3123 138.267 34.4539C136.287 37.4414 131.868 37.1245 129.533 39.3048C126.293 42.3148 128.128 46.1396 125.53 49.278C122.704 52.6954 117.778 52.6049 115.542 48.8857C112.097 48.3878 110.216 52.9972 106.628 53.8044C104.392 54.3098 102.201 54.1967 100.168 53.6309C111.364 34.2125 129.549 19.3357 151.306 12.4254C151.51 13.5947 151.465 14.8923 151.147 16.3483Z" fill="url(#paint7_linear_933_22518)"/>
<path d="M222.803 178.062C212.219 183.924 200.336 187.733 187.689 188.948C184.788 189.235 181.842 189.378 178.858 189.378C171.107 189.378 163.582 188.405 156.398 186.579C148.888 184.671 141.757 181.826 135.131 178.175C138.72 168.549 146.72 161.767 158.521 165.026C162.555 166.135 166.325 169.424 170.638 169.145C175.874 168.806 177.747 163.578 182.62 162.031C189.246 159.926 190.719 162.883 196.173 165.675C201.371 168.323 202.036 164.4 207.112 163.638C213.541 162.672 217.749 168.338 220.643 173.249C221.519 174.735 222.237 176.357 222.803 178.062Z" fill="#2595FF"/>
</g>
<path fill-rule="evenodd" clip-rule="evenodd" d="M261.101 59.8182C261.3 59.2852 261.893 59.0143 262.426 59.2133C263.623 59.66 264.808 60.1075 265.983 60.5557C266.514 60.7586 266.781 61.354 266.578 61.8856C266.375 62.4171 265.78 62.6835 265.248 62.4807C264.078 62.0342 262.897 61.5885 261.706 61.1436C261.173 60.9446 260.902 60.3512 261.101 59.8182ZM271.675 63.8756C271.886 63.3472 272.486 63.09 273.014 63.3011C275.391 64.2508 277.719 65.2037 279.999 66.1594C280.524 66.3793 280.771 66.983 280.551 67.5077C280.331 68.0325 279.727 68.2795 279.202 68.0595C276.934 67.1085 274.616 66.16 272.249 65.2144C271.721 65.0033 271.464 64.4039 271.675 63.8756ZM285.571 69.6658C285.801 69.1452 286.409 68.9093 286.929 69.1389C289.275 70.1736 291.565 71.2112 293.799 72.2509C294.315 72.4911 294.538 73.1039 294.298 73.6197C294.058 74.1355 293.445 74.3589 292.929 74.1188C290.709 73.0851 288.432 72.0533 286.098 71.0241C285.577 70.7945 285.341 70.1863 285.571 69.6658ZM299.25 75.9919C299.502 75.4817 300.12 75.2722 300.63 75.5239C302.944 76.6657 305.191 77.8096 307.371 78.9551C307.875 79.2198 308.069 79.8426 307.804 80.3463C307.539 80.8499 306.917 81.0437 306.413 80.7791C304.249 79.642 302.017 78.5059 299.718 77.3716C299.208 77.1199 298.998 76.5022 299.25 75.9919ZM312.597 82.9503C312.876 82.4545 313.504 82.2787 314 82.5577C316.264 83.832 318.447 85.1075 320.547 86.3834C321.034 86.6788 321.188 87.3124 320.893 87.7987C320.598 88.285 319.964 88.4397 319.478 88.1444C317.398 86.8809 315.235 85.6169 312.989 84.3533C312.493 84.0743 312.318 83.4462 312.597 82.9503ZM121.231 23.8083C121.182 24.3752 120.683 24.7955 120.116 24.7471C118.943 24.6469 117.779 24.5542 116.624 24.4691C116.057 24.4272 115.631 23.9334 115.673 23.3659C115.715 22.7985 116.208 22.3725 116.776 22.4143C117.938 22.5 119.11 22.5933 120.292 22.6942C120.859 22.7426 121.279 23.2414 121.231 23.8083ZM110.716 23.0613C110.688 23.6296 110.205 24.0679 109.637 24.0403C107.258 23.9248 104.927 23.8438 102.646 23.7972C102.077 23.7856 101.625 23.3151 101.637 22.7463C101.648 22.1774 102.119 21.7257 102.688 21.7373C104.989 21.7842 107.34 21.8659 109.737 21.9823C110.305 22.0099 110.743 22.493 110.716 23.0613ZM325.506 90.7194C325.82 90.2449 326.459 90.1149 326.933 90.4289C329.117 91.8741 331.196 93.3189 333.171 94.7619C333.63 95.0976 333.73 95.7422 333.394 96.2015C333.059 96.6609 332.414 96.7611 331.955 96.4254C330.008 95.0023 327.955 93.5757 325.796 92.147C325.322 91.833 325.192 91.1939 325.506 90.7194ZM96.6741 22.7222C96.6808 23.2911 96.225 23.7577 95.6561 23.7644C93.2643 23.7925 90.9366 23.8624 88.6766 23.9739C88.1083 24.002 87.6249 23.564 87.5969 22.9958C87.5688 22.4275 88.0068 21.9441 88.575 21.9161C90.8622 21.8032 93.2158 21.7326 95.6319 21.7042C96.2008 21.6975 96.6674 22.1533 96.6741 22.7222ZM337.72 99.5452C338.081 99.1056 338.73 99.042 339.17 99.4032C341.213 101.081 343.114 102.756 344.874 104.426C345.286 104.817 345.303 105.469 344.912 105.882C344.52 106.295 343.868 106.312 343.456 105.92C341.734 104.287 339.87 102.645 337.862 100.995C337.422 100.634 337.359 99.9848 337.72 99.5452ZM82.6528 23.3462C82.7064 23.9126 82.2906 24.4152 81.7242 24.4688C79.3229 24.6958 77.0148 24.9766 74.805 25.3108C74.2424 25.3959 73.7174 25.0088 73.6323 24.4463C73.5472 23.8837 73.9343 23.3587 74.4968 23.2736C76.7476 22.9332 79.0939 22.648 81.5302 22.4176C82.0966 22.364 82.5992 22.7798 82.6528 23.3462ZM348.717 109.82C349.146 109.446 349.796 109.489 350.171 109.917C351.946 111.946 353.51 113.965 354.863 115.972C355.181 116.444 355.056 117.084 354.584 117.402C354.112 117.72 353.472 117.595 353.154 117.124C351.855 115.196 350.345 113.244 348.62 111.274C348.246 110.846 348.289 110.195 348.717 109.82ZM68.7577 25.3523C68.8831 25.9073 68.5348 26.4588 67.9798 26.5842C65.6017 27.1214 63.3742 27.7341 61.3054 28.4214C60.7655 28.6008 60.1824 28.3085 60.003 27.7686C59.8236 27.2287 60.1159 26.6455 60.6559 26.4662C62.7962 25.7551 65.0896 25.1248 67.5258 24.5745C68.0808 24.4491 68.6323 24.7973 68.7577 25.3523ZM357.261 122.166C357.782 121.936 358.39 122.171 358.621 122.691C359.727 125.19 360.494 127.665 360.915 130.108C361.012 130.669 360.636 131.202 360.075 131.298C359.514 131.395 358.981 131.019 358.885 130.458C358.495 128.199 357.782 125.886 356.737 123.525C356.506 123.005 356.741 122.397 357.261 122.166ZM55.4106 29.6332C55.6657 30.1418 55.4601 30.7609 54.9515 31.0159C52.7559 32.1168 50.8483 33.3357 49.2397 34.668C48.8015 35.0309 48.1521 34.9698 47.7892 34.5316C47.4263 34.0935 47.4873 33.444 47.9255 33.0811C49.6735 31.6335 51.7172 30.3328 54.028 29.1741C54.5366 28.9191 55.1556 29.1246 55.4106 29.6332ZM360.183 136.763C360.747 136.843 361.138 137.364 361.058 137.927C360.874 139.223 360.585 140.501 360.191 141.761C359.788 143.047 359.235 144.272 358.539 145.435C358.247 145.923 357.614 146.082 357.126 145.79C356.638 145.498 356.479 144.865 356.771 144.377C357.386 143.349 357.872 142.273 358.224 141.146C358.586 139.991 358.85 138.822 359.019 137.638C359.099 137.074 359.62 136.683 360.183 136.763ZM44.5327 38.2648C45.0258 38.5487 45.1953 39.1786 44.9114 39.6716C44.3598 40.6294 43.9194 41.6296 43.5928 42.673C43.2401 43.8 43.0252 44.9613 42.9449 46.1559C42.9067 46.7235 42.4155 47.1528 41.8478 47.1146C41.2802 47.0764 40.8509 46.5852 40.8891 46.0175C40.9801 44.6653 41.224 43.3436 41.6265 42.0576C41.9991 40.8671 42.5009 39.7287 43.1259 38.6434C43.4098 38.1504 44.0397 37.9809 44.5327 38.2648ZM42.6114 52.59C43.1538 52.4183 43.7327 52.7189 43.9044 53.2613C44.5824 55.4036 45.6042 57.6295 46.9613 59.9268C47.2507 60.4167 47.0881 61.0484 46.5983 61.3378C46.1084 61.6272 45.4767 61.4646 45.1873 60.9748C43.7655 58.5679 42.6732 56.1994 41.9401 53.883C41.7684 53.3405 42.069 52.7616 42.6114 52.59ZM353.377 149.853C353.725 150.303 353.641 150.95 353.191 151.298C351.268 152.783 349.021 154.106 346.48 155.273C345.963 155.51 345.352 155.284 345.114 154.767C344.877 154.25 345.103 153.638 345.62 153.401C348.045 152.287 350.153 151.041 351.932 149.667C352.382 149.319 353.029 149.403 353.377 149.853ZM49.7741 65.87C50.2183 65.5145 50.8666 65.5864 51.2221 66.0306C52.6967 67.873 54.3581 69.7452 56.1992 71.641C56.5955 72.0492 56.586 72.7014 56.1778 73.0977C55.7696 73.4941 55.1174 73.4845 54.7211 73.0764C52.8398 71.1391 51.1339 69.2178 49.6135 67.3181C49.258 66.8739 49.3299 66.2256 49.7741 65.87ZM339.921 156.68C340.083 157.225 339.773 157.799 339.227 157.961C336.895 158.655 334.398 159.261 331.748 159.78C331.19 159.889 330.649 159.525 330.539 158.967C330.43 158.409 330.794 157.867 331.352 157.758C333.946 157.25 336.378 156.659 338.64 155.986C339.185 155.824 339.759 156.134 339.921 156.68ZM60.1945 76.9365C60.5739 76.5125 61.2251 76.4764 61.6491 76.8558C63.4458 78.4636 65.3607 80.0828 67.3892 81.7099C67.833 82.0659 67.9042 82.7142 67.5482 83.158C67.1922 83.6019 66.5438 83.6731 66.1 83.3171C64.045 81.6687 62.1016 80.0256 60.2752 78.3912C59.8512 78.0118 59.8151 77.3605 60.1945 76.9365ZM325.051 159.831C325.121 160.396 324.72 160.91 324.155 160.98C321.723 161.281 319.19 161.523 316.562 161.706C315.994 161.746 315.502 161.317 315.462 160.75C315.423 160.182 315.851 159.69 316.419 159.651C319.013 159.47 321.509 159.232 323.902 158.935C324.466 158.865 324.981 159.266 325.051 159.831ZM71.9551 86.5302C72.2913 86.0712 72.936 85.9717 73.395 86.3079C75.3723 87.7562 77.4343 89.2078 79.5777 90.6603C80.0487 90.9795 80.1718 91.6201 79.8526 92.091C79.5334 92.562 78.8929 92.6851 78.4219 92.3659C76.2588 90.9001 74.1761 89.434 72.1775 87.97C71.7185 87.6338 71.6189 86.9892 71.9551 86.5302ZM309.919 161.008C309.934 161.577 309.485 162.049 308.916 162.064C306.439 162.127 303.892 162.144 301.279 162.116C300.71 162.109 300.254 161.643 300.261 161.074C300.267 160.505 300.733 160.049 301.302 160.055C303.891 160.084 306.413 160.067 308.863 160.004C309.432 159.99 309.905 160.439 309.919 161.008ZM84.4749 95.1152C84.7791 94.6344 85.4155 94.4913 85.8962 94.7955C87.9833 96.1161 90.1349 97.4354 92.3483 98.7517C92.8374 99.0425 92.998 99.6746 92.7072 100.164C92.4164 100.653 91.7843 100.813 91.2952 100.523C89.0661 99.197 86.8983 97.8677 84.7946 96.5366C84.3138 96.2324 84.1706 95.596 84.4749 95.1152ZM294.739 160.923C294.715 161.492 294.234 161.933 293.666 161.909C291.179 161.803 288.64 161.659 286.053 161.478C285.485 161.438 285.058 160.945 285.097 160.378C285.137 159.81 285.63 159.382 286.197 159.422C288.766 159.603 291.286 159.745 293.754 159.85C294.322 159.875 294.763 160.355 294.739 160.923ZM97.5065 102.936C97.7851 102.44 98.4131 102.264 98.9092 102.542C101.076 103.759 103.294 104.972 105.561 106.179C106.063 106.446 106.253 107.07 105.986 107.572C105.719 108.074 105.095 108.265 104.593 107.997C102.312 106.783 100.081 105.563 97.9003 104.339C97.4042 104.06 97.2279 103.432 97.5065 102.936ZM279.574 159.919C279.52 160.485 279.017 160.901 278.451 160.847C275.961 160.61 273.432 160.34 270.867 160.038C270.302 159.971 269.898 159.459 269.964 158.894C270.031 158.329 270.543 157.925 271.108 157.991C273.659 158.292 276.172 158.56 278.646 158.796C279.212 158.85 279.628 159.353 279.574 159.919ZM110.906 110.125C111.162 109.618 111.782 109.414 112.29 109.671C114.514 110.797 116.78 111.917 119.087 113.029C119.599 113.276 119.814 113.892 119.567 114.404C119.32 114.917 118.704 115.132 118.192 114.885C115.874 113.767 113.596 112.642 111.359 111.51C110.852 111.253 110.649 110.633 110.906 110.125ZM264.467 158.187C264.389 158.75 263.868 159.144 263.305 159.065C260.822 158.72 258.309 158.346 255.768 157.943C255.206 157.854 254.822 157.326 254.911 156.764C255.001 156.202 255.528 155.819 256.09 155.908C258.619 156.309 261.119 156.681 263.589 157.025C264.152 157.103 264.545 157.623 264.467 158.187ZM124.574 116.763C124.812 116.246 125.424 116.019 125.94 116.257C128.21 117.302 130.514 118.338 132.852 119.366C133.373 119.595 133.61 120.203 133.381 120.724C133.152 121.245 132.544 121.481 132.023 121.252C129.675 120.22 127.359 119.178 125.079 118.129C124.562 117.891 124.336 117.279 124.574 116.763ZM249.454 155.847C249.354 156.407 248.82 156.781 248.26 156.682C245.788 156.244 243.292 155.78 240.774 155.289C240.216 155.18 239.851 154.639 239.96 154.081C240.069 153.522 240.61 153.158 241.168 153.267C243.675 153.755 246.159 154.217 248.619 154.653C249.179 154.752 249.553 155.287 249.454 155.847ZM138.468 122.91C138.688 122.386 139.292 122.139 139.817 122.36C142.124 123.33 144.461 124.29 146.825 125.241C147.353 125.453 147.609 126.053 147.397 126.581C147.185 127.109 146.585 127.365 146.057 127.153C143.682 126.198 141.336 125.233 139.018 124.259C138.494 124.039 138.247 123.435 138.468 122.91ZM234.534 152.977C234.416 153.534 233.869 153.889 233.313 153.771C230.853 153.25 228.376 152.705 225.88 152.136C225.326 152.009 224.979 151.457 225.105 150.902C225.232 150.347 225.784 150 226.339 150.127C228.824 150.694 231.291 151.237 233.739 151.756C234.296 151.874 234.652 152.42 234.534 152.977ZM152.546 128.606C152.75 128.075 153.346 127.81 153.877 128.014C156.217 128.914 158.582 129.803 160.97 130.681C161.504 130.878 161.778 131.47 161.581 132.004C161.385 132.538 160.793 132.812 160.259 132.615C157.861 131.733 155.487 130.84 153.138 129.937C152.607 129.733 152.342 129.137 152.546 128.606ZM219.721 149.63C219.586 150.183 219.028 150.521 218.476 150.386C216.031 149.789 213.571 149.169 211.098 148.527C210.548 148.384 210.217 147.821 210.36 147.271C210.503 146.72 211.066 146.39 211.616 146.533C214.08 147.173 216.529 147.79 218.965 148.385C219.517 148.52 219.856 149.077 219.721 149.63ZM166.788 133.876C166.977 133.34 167.565 133.058 168.102 133.246C170.47 134.079 172.86 134.901 175.27 135.71C175.81 135.891 176.1 136.475 175.919 137.015C175.738 137.554 175.154 137.844 174.614 137.663C172.195 136.851 169.796 136.026 167.418 135.19C166.882 135.001 166.6 134.413 166.788 133.876ZM205.015 145.841C204.864 146.389 204.297 146.711 203.748 146.561C201.318 145.892 198.877 145.202 196.426 144.49C195.88 144.331 195.566 143.76 195.724 143.213C195.883 142.667 196.454 142.353 197.001 142.511C199.442 143.22 201.874 143.908 204.295 144.574C204.843 144.725 205.166 145.292 205.015 145.841ZM181.179 138.741C181.352 138.199 181.932 137.901 182.474 138.074C183.678 138.46 184.887 138.843 186.1 139.223C187.314 139.603 188.525 139.977 189.735 140.347C190.279 140.513 190.585 141.089 190.419 141.633C190.253 142.177 189.677 142.483 189.133 142.317C187.919 141.946 186.703 141.57 185.485 141.189C184.267 140.808 183.054 140.424 181.845 140.036C181.303 139.863 181.005 139.283 181.179 138.741Z" fill="#E5F2FF"/>
<path fill-rule="evenodd" clip-rule="evenodd" d="M171.302 41.6027C171.946 41.4261 172.592 41.251 173.239 41.0775C173.887 40.904 174.534 40.7327 175.18 40.5636C175.73 40.4195 176.293 40.749 176.437 41.2994C176.582 41.8498 176.252 42.4128 175.702 42.5568C175.059 42.7249 174.416 42.8952 173.773 43.0677C173.129 43.2402 172.487 43.4142 171.847 43.5898C171.298 43.7402 170.731 43.4174 170.581 42.8687C170.43 42.32 170.753 41.7532 171.302 41.6027ZM186.701 38.8151C186.577 38.2597 186.927 37.7094 187.483 37.5859C188.789 37.2954 190.092 37.014 191.391 36.7416C191.948 36.6248 192.494 36.9816 192.611 37.5384C192.728 38.0953 192.371 38.6413 191.814 38.7581C190.523 39.0288 189.229 39.3085 187.93 39.5972C187.374 39.7206 186.824 39.3705 186.701 38.8151ZM160.45 45.8488C160.621 46.3915 160.32 46.9699 159.777 47.1407C158.508 47.54 157.247 47.9452 155.994 48.3562C155.453 48.5334 154.871 48.2389 154.694 47.6983C154.516 47.1577 154.811 46.5757 155.352 46.3984C156.613 45.9849 157.882 45.5771 159.159 45.1753C159.701 45.0046 160.28 45.3061 160.45 45.8488ZM202.989 35.5722C202.894 35.0112 203.272 34.4796 203.833 34.3848C205.156 34.1614 206.473 33.9476 207.785 33.7436C208.347 33.6561 208.873 34.0409 208.961 34.6031C209.048 35.1653 208.664 35.692 208.101 35.7794C206.799 35.9821 205.491 36.1944 204.176 36.4164C203.615 36.5112 203.084 36.1332 202.989 35.5722ZM144.723 51.1846C144.921 51.7178 144.65 52.311 144.117 52.5094C142.868 52.9742 141.628 53.4446 140.399 53.9202C139.868 54.1255 139.272 53.8618 139.067 53.3312C138.861 52.8006 139.125 52.204 139.656 51.9987C140.893 51.5198 142.141 51.0463 143.398 50.5784C143.931 50.38 144.524 50.6514 144.723 51.1846ZM129.299 57.3511C129.527 57.8724 129.289 58.4798 128.768 58.7078C127.549 59.2408 126.343 59.7789 125.149 60.3218C124.631 60.5573 124.02 60.3284 123.784 59.8104C123.549 59.2925 123.778 58.6817 124.296 58.4462C125.499 57.8992 126.714 57.3571 127.942 56.8201C128.463 56.5921 129.071 56.8298 129.299 57.3511ZM219.43 33.2004C219.367 32.635 219.774 32.1254 220.34 32.0622C221.671 31.9135 222.995 31.7752 224.31 31.6475C224.876 31.5925 225.38 32.0069 225.435 32.5732C225.49 33.1395 225.076 33.6432 224.509 33.6982C223.204 33.825 221.89 33.9622 220.568 34.1099C220.003 34.173 219.493 33.7659 219.43 33.2004ZM114.272 64.4159C114.533 64.9216 114.334 65.5429 113.829 65.8037C112.647 66.4136 111.48 67.0278 110.33 67.6462C109.828 67.9156 109.204 67.7278 108.934 67.2266C108.665 66.7255 108.853 66.1009 109.354 65.8315C110.515 65.2074 111.692 64.5877 112.884 63.9726C113.39 63.7118 114.011 63.9103 114.272 64.4159ZM235.976 31.8054C235.949 31.2371 236.388 30.7546 236.956 30.7277C238.296 30.6641 239.625 30.6124 240.943 30.5724C241.511 30.5551 241.986 31.0021 242.004 31.5708C242.021 32.1395 241.574 32.6145 241.005 32.6318C239.7 32.6714 238.382 32.7227 237.054 32.7857C236.485 32.8126 236.003 32.3738 235.976 31.8054ZM99.7675 72.5042C100.067 72.9881 99.9169 73.623 99.433 73.9222C98.2978 74.6239 97.1836 75.3293 96.0909 76.038C95.6135 76.3475 94.9756 76.2115 94.666 75.7341C94.3564 75.2568 94.4925 74.6189 94.9698 74.3093C96.0753 73.5924 97.2021 72.879 98.3495 72.1696C98.8335 71.8705 99.4683 72.0203 99.7675 72.5042ZM252.581 31.5579C252.598 30.9892 253.073 30.542 253.642 30.5592C254.99 30.5997 256.323 30.6541 257.639 30.7223C258.207 30.7517 258.644 31.2361 258.614 31.8043C258.585 32.3725 258.1 32.8093 257.532 32.7799C256.232 32.7125 254.914 32.6587 253.58 32.6186C253.011 32.6015 252.564 32.1266 252.581 31.5579ZM86.0281 81.8177C86.3752 82.2686 86.2911 82.9154 85.8403 83.2625C84.7771 84.0811 83.7436 84.902 82.7406 85.7246C82.3007 86.0854 81.6516 86.0212 81.2908 85.5813C80.93 85.1414 80.9941 84.4923 81.4341 84.1315C82.4539 83.2951 83.504 82.461 84.5834 81.6299C85.0342 81.2829 85.681 81.3669 86.0281 81.8177ZM269.137 32.7539C269.212 32.19 269.73 31.7938 270.294 31.8689C271.644 32.049 272.971 32.2462 274.272 32.4607C274.834 32.5532 275.214 33.0832 275.121 33.6446C275.029 34.206 274.499 34.5861 273.937 34.4936C272.657 34.2827 271.352 34.0886 270.022 33.9112C269.458 33.836 269.062 33.3179 269.137 32.7539ZM73.523 92.733C73.9355 93.1248 73.9522 93.7769 73.5604 94.1894C72.6353 95.1632 71.7566 96.1361 70.9253 97.1071C70.5553 97.5393 69.905 97.5897 69.4728 97.2197C69.0406 96.8497 68.9902 96.1994 69.3602 95.7672C70.2157 94.7678 71.1184 93.7686 72.0666 92.7704C72.4584 92.3579 73.1105 92.3411 73.523 92.733ZM285.424 35.9542C285.585 35.4086 286.159 35.0971 286.704 35.2584C288.024 35.6488 289.306 36.0629 290.546 36.5005C291.083 36.6898 291.364 37.2782 291.175 37.8148C290.986 38.3513 290.397 38.6328 289.861 38.4435C288.655 38.0183 287.408 37.6151 286.12 37.2342C285.574 37.0729 285.263 36.4998 285.424 35.9542ZM300.699 42.3432C301.009 41.866 301.647 41.7305 302.124 42.0404C303.303 42.8064 304.409 43.611 305.436 44.4543C305.876 44.8152 305.94 45.4643 305.579 45.9042C305.218 46.344 304.569 46.408 304.129 46.0471C303.165 45.2556 302.122 44.4957 301.002 43.7682C300.524 43.4583 300.389 42.8203 300.699 42.3432ZM63.4892 105.903C63.9962 106.162 64.1978 106.782 63.9396 107.289C63.3333 108.479 62.8097 109.659 62.3701 110.826C62.1696 111.359 61.5755 111.628 61.043 111.427C60.5105 111.227 60.2414 110.633 60.4418 110.1C60.9102 108.856 61.4654 107.607 62.1037 106.354C62.3619 105.847 62.9823 105.645 63.4892 105.903ZM311.901 54.2587C312.433 54.0575 313.028 54.3259 313.229 54.8581C313.476 55.511 313.69 56.1763 313.872 56.8537C314.053 57.5312 314.2 58.2146 314.313 58.9035C314.405 59.465 314.024 59.9946 313.463 60.0865C312.901 60.1783 312.371 59.7976 312.28 59.2361C312.178 58.6145 312.045 57.998 311.882 57.387C311.718 56.776 311.524 56.1759 311.302 55.5866C311.1 55.0544 311.369 54.4599 311.901 54.2587ZM59.7456 121.824C60.3071 121.732 60.8367 122.112 60.9286 122.674C61.0303 123.296 61.1627 123.912 61.3265 124.523C61.4902 125.134 61.6837 125.734 61.9065 126.323C62.1077 126.856 61.8393 127.45 61.3071 127.651C60.7749 127.853 60.1804 127.584 59.9792 127.052C59.7324 126.399 59.5178 125.734 59.3363 125.056C59.1548 124.379 59.008 123.695 58.8953 123.007C58.8034 122.445 59.1841 121.915 59.7456 121.824ZM312.165 70.4826C312.698 70.683 312.967 71.2772 312.766 71.8096C312.298 73.0538 311.743 74.3034 311.104 75.5564C310.846 76.0634 310.226 76.265 309.719 76.0068C309.212 75.7485 309.01 75.1282 309.269 74.6212C309.875 73.4312 310.398 72.2514 310.838 71.0837C311.038 70.5513 311.633 70.2821 312.165 70.4826ZM67.6288 136.006C67.9897 135.566 68.6388 135.502 69.0787 135.863C70.0432 136.654 71.0866 137.414 72.2066 138.142C72.6837 138.452 72.8193 139.09 72.5094 139.567C72.1994 140.044 71.5614 140.18 71.0843 139.87C69.905 139.104 68.7994 138.299 67.7717 137.456C67.3319 137.095 67.2679 136.446 67.6288 136.006ZM82.033 144.095C82.2223 143.559 82.8107 143.277 83.3473 143.467C84.5527 143.892 85.8002 144.295 87.0882 144.676C87.6338 144.837 87.9453 145.41 87.784 145.956C87.6227 146.501 87.0496 146.813 86.504 146.652C85.1837 146.261 83.9024 145.847 82.6618 145.409C82.1253 145.22 81.8438 144.632 82.033 144.095ZM303.735 84.6903C304.168 85.0603 304.218 85.7106 303.848 86.1428C302.992 87.1422 302.09 88.1415 301.142 89.1397C300.75 89.5522 300.098 89.5689 299.685 89.1771C299.273 88.7852 299.256 88.1332 299.648 87.7207C300.573 86.7468 301.452 85.7739 302.283 84.8029C302.653 84.3707 303.303 84.3203 303.735 84.6903ZM98.0869 148.265C98.1794 147.704 98.7095 147.324 99.2709 147.416C100.551 147.627 101.856 147.821 103.186 147.999C103.75 148.074 104.147 148.592 104.071 149.156C103.996 149.72 103.478 150.116 102.914 150.041C101.564 149.861 100.237 149.664 98.9359 149.449C98.3745 149.357 97.9944 148.827 98.0869 148.265ZM291.917 96.3287C292.278 96.7687 292.214 97.4178 291.774 97.7786C290.754 98.615 289.704 99.449 288.625 100.28C288.174 100.627 287.527 100.543 287.18 100.092C286.833 99.6415 286.917 98.9946 287.368 98.6476C288.431 97.8289 289.465 97.008 290.468 96.1854C290.907 95.8247 291.557 95.8888 291.917 96.3287ZM114.594 150.106C114.623 149.538 115.108 149.101 115.676 149.13C116.977 149.197 118.294 149.251 119.628 149.291C120.197 149.309 120.644 149.783 120.627 150.352C120.61 150.921 120.135 151.368 119.566 151.351C118.218 151.31 116.885 151.256 115.569 151.188C115.001 151.158 114.564 150.674 114.594 150.106ZM278.542 106.176C278.852 106.653 278.716 107.291 278.238 107.601C277.133 108.318 276.006 109.031 274.859 109.74C274.375 110.04 273.74 109.89 273.441 109.406C273.141 108.922 273.291 108.287 273.775 107.988C274.91 107.286 276.024 106.581 277.117 105.872C277.595 105.563 278.233 105.699 278.542 106.176ZM131.204 150.339C131.187 149.771 131.634 149.296 132.203 149.278C133.508 149.239 134.826 149.187 136.154 149.124C136.723 149.097 137.205 149.536 137.232 150.105C137.259 150.673 136.82 151.155 136.252 151.182C134.912 151.246 133.583 151.298 132.265 151.338C131.697 151.355 131.222 150.908 131.204 150.339ZM264.274 114.683C264.543 115.185 264.355 115.809 263.854 116.079C262.693 116.703 261.516 117.322 260.324 117.937C259.818 118.198 259.197 118 258.936 117.494C258.675 116.988 258.874 116.367 259.379 116.106C260.562 115.496 261.728 114.882 262.879 114.264C263.38 113.994 264.004 114.182 264.274 114.683ZM147.773 149.337C147.718 148.771 148.132 148.267 148.699 148.212C150.004 148.085 151.318 147.948 152.64 147.8C153.205 147.737 153.715 148.144 153.778 148.71C153.841 149.275 153.434 149.785 152.869 149.848C151.537 149.997 150.213 150.135 148.898 150.263C148.332 150.318 147.828 149.903 147.773 149.337ZM249.424 122.1C249.659 122.618 249.43 123.228 248.912 123.464C247.709 124.011 246.494 124.553 245.266 125.09C244.745 125.318 244.138 125.08 243.91 124.559C243.682 124.038 243.919 123.43 244.441 123.202C245.659 122.669 246.866 122.131 248.059 121.588C248.577 121.353 249.188 121.582 249.424 122.1ZM164.247 147.307C164.16 146.745 164.545 146.218 165.107 146.131C166.409 145.928 167.718 145.716 169.032 145.494C169.593 145.399 170.124 145.777 170.219 146.338C170.314 146.899 169.936 147.43 169.375 147.525C168.052 147.749 166.735 147.962 165.424 148.166C164.861 148.254 164.335 147.869 164.247 147.307ZM234.142 128.579C234.347 129.109 234.083 129.706 233.553 129.911C232.315 130.39 231.067 130.864 229.81 131.332C229.277 131.53 228.684 131.259 228.485 130.725C228.287 130.192 228.558 129.599 229.092 129.401C230.341 128.936 231.58 128.465 232.809 127.99C233.34 127.784 233.936 128.048 234.142 128.579ZM180.597 144.372C180.481 143.815 180.837 143.269 181.394 143.152C182.685 142.881 183.98 142.602 185.278 142.313C185.834 142.189 186.384 142.54 186.507 143.095C186.631 143.65 186.281 144.201 185.725 144.324C184.419 144.615 183.116 144.896 181.817 145.168C181.26 145.285 180.714 144.928 180.597 144.372ZM218.514 134.212C218.692 134.752 218.397 135.334 217.857 135.512C216.596 135.925 215.326 136.333 214.05 136.735C213.507 136.905 212.928 136.604 212.758 136.061C212.587 135.518 212.888 134.94 213.431 134.769C214.7 134.37 215.961 133.965 217.214 133.554C217.755 133.377 218.337 133.671 218.514 134.212ZM196.771 140.611C196.627 140.06 196.956 139.497 197.506 139.353C198.149 139.185 198.792 139.015 199.435 138.842C200.079 138.67 200.721 138.496 201.361 138.32C201.91 138.17 202.477 138.493 202.627 139.041C202.778 139.59 202.455 140.157 201.906 140.307C201.262 140.484 200.616 140.659 199.969 140.832C199.321 141.006 198.674 141.177 198.028 141.346C197.478 141.49 196.915 141.161 196.771 140.611Z" fill="url(#paint8_linear_933_22518)"/>
<path d="M222.585 107.342C222.585 100.214 227.589 91.5458 233.763 87.9816L253.754 76.4395C259.928 72.8753 264.932 75.7647 264.932 82.8931V82.8931C264.932 90.0215 259.928 98.6895 253.754 102.254L233.763 113.796C227.589 117.36 222.585 114.471 222.585 107.342V107.342Z" fill="url(#paint9_linear_933_22518)" fill-opacity="0.63"/>
<path d="M224.523 108.731C224.523 102.192 229.113 94.2414 234.776 90.9722L258.999 76.9869C264.662 73.7176 269.252 76.3679 269.252 82.9064V82.9064C269.252 89.4449 264.662 97.3957 258.999 100.665L234.776 114.65C229.113 117.92 224.523 115.269 224.523 108.731V108.731Z" fill="url(#paint10_linear_933_22518)" fill-opacity="0.63"/>
<path d="M227.444 108.75C227.444 103.038 231.454 96.0924 236.401 93.2364L262.851 77.9652C267.798 75.1091 271.808 77.4244 271.808 83.1366V83.1366C271.808 88.8487 267.798 95.7946 262.851 98.6507L236.401 113.922C231.454 116.778 227.444 114.463 227.444 108.75V108.75Z" fill="url(#paint11_linear_933_22518)"/>
<path d="M248.448 112.614C248.448 112.614 248.005 110.096 247.387 108.872C246.769 107.648 245.284 106.344 245.284 106.344L251.612 102.69C251.612 102.69 250.126 105.709 249.508 107.647C248.891 109.585 248.448 112.614 248.448 112.614Z" fill="#EEF6FF"/>
<g clip-path="url(#clip1_933_22518)">
<path d="M238.207 107.202C240.526 105.863 242.407 102.606 242.407 99.9272C242.407 97.2487 240.526 96.1631 238.207 97.5023C235.887 98.8415 234.007 102.098 234.007 104.777C234.007 107.455 235.887 108.541 238.207 107.202Z" fill="#F0F0F0"/>
<path d="M242.371 99.3151L237.294 102.247L237.294 102.247L237.294 98.1447C236.906 98.4682 236.538 98.8417 236.198 99.2517L236.198 102.879L236.198 102.879L234.042 104.124C234.019 104.344 234.007 104.563 234.007 104.777C234.007 104.991 234.019 105.195 234.042 105.389L236.198 104.144L236.198 104.144L236.198 107.772C236.538 107.79 236.906 107.738 237.294 107.614L237.294 103.512L237.294 103.512L242.371 100.58C242.395 100.36 242.407 100.142 242.407 99.9272C242.407 99.7128 242.395 99.5087 242.371 99.3151Z" fill="#0052B4"/>
</g>
<path d="M247.446 95.4357L247.446 96.0464L246.248 96.7377L246.248 97.5056L247.411 96.834L247.411 97.4447L246.248 98.1162L246.248 99.3652L245.658 99.706L245.658 96.4678L247.446 95.4357Z" fill="#3A98FF"/>
<path d="M248.124 95.6919C248.032 95.7446 247.953 95.7552 247.884 95.7238C247.819 95.6876 247.786 95.6202 247.786 95.5215C247.786 95.4228 247.819 95.3176 247.884 95.2057C247.953 95.0922 248.032 95.0091 248.124 94.9564C248.218 94.9021 248.298 94.893 248.363 94.9292C248.432 94.9637 248.466 95.0303 248.466 95.129C248.466 95.2276 248.432 95.3338 248.363 95.4473C248.298 95.5561 248.218 95.6376 248.124 95.6919ZM248.402 98.122L247.85 98.4405L247.85 96.1275L248.402 95.809L248.402 98.122Z" fill="#3A98FF"/>
<path d="M250.095 94.7664C250.332 94.6298 250.524 94.6035 250.673 94.6875C250.827 94.7713 250.904 94.9613 250.904 95.2573L250.904 96.6775L250.352 96.996L250.352 95.6498C250.352 95.4987 250.313 95.4038 250.237 95.3649C250.162 95.3245 250.06 95.3421 249.929 95.4178C249.783 95.5017 249.668 95.6177 249.582 95.7658C249.5 95.9091 249.458 96.0749 249.458 96.263L249.458 97.512L248.907 97.8305L248.907 95.5175L249.458 95.199L249.458 95.4581C249.589 95.1665 249.802 94.9359 250.095 94.7664Z" fill="#3A98FF"/>
<path d="M251.926 96.0871L251.375 96.4056L251.375 93.0286L251.926 92.7101L251.926 96.0871Z" fill="#3A98FF"/>
<path d="M254.056 92.8173L254.056 92.5444L254.608 92.2259L254.608 94.5389L254.056 94.8574L254.056 94.5844C253.891 94.905 253.658 95.1518 253.359 95.3246C253.074 95.4892 252.829 95.5135 252.624 95.3977C252.421 95.277 252.32 95.0456 252.32 94.7033C252.32 94.364 252.421 94.0172 252.624 93.6629C252.829 93.3069 253.074 93.0466 253.359 92.8821C253.658 92.7092 253.891 92.6876 254.056 92.8173ZM253.038 94.7603C253.15 94.8164 253.291 94.7951 253.462 94.6963C253.633 94.5976 253.774 94.456 253.885 94.2715C253.999 94.0823 254.056 93.8921 254.056 93.7009C254.056 93.5097 253.999 93.3868 253.885 93.3324C253.774 93.2732 253.633 93.293 253.462 93.3918C253.291 93.4906 253.15 93.6337 253.038 93.8213C252.927 94.0057 252.872 94.1936 252.872 94.3848C252.872 94.576 252.927 94.7012 253.038 94.7603Z" fill="#3A98FF"/>
<path d="M256.297 91.186C256.533 91.0493 256.726 91.0231 256.874 91.1071C257.028 91.1909 257.105 91.3808 257.105 91.6769L257.105 93.0971L256.553 93.4156L256.553 92.0694C256.553 91.9183 256.515 91.8233 256.438 91.7845C256.364 91.744 256.261 91.7617 256.13 91.8374C255.985 91.9213 255.869 92.0373 255.784 92.1854C255.701 92.3287 255.66 92.4944 255.66 92.6826L255.66 93.9316L255.108 94.2501L255.108 91.9371L255.66 91.6186L255.66 91.8776C255.791 91.5861 256.003 91.3555 256.297 91.186Z" fill="#3A98FF"/>
<path d="M259.197 89.8494L259.197 88.6512L259.748 88.3327L259.748 91.5709L259.197 91.8894L259.197 91.6165C259.034 91.9354 258.803 92.1813 258.504 92.3542C258.216 92.5204 257.97 92.5456 257.764 92.4297C257.562 92.3091 257.461 92.0776 257.461 91.7353C257.461 91.3961 257.562 91.0493 257.764 90.695C257.97 90.339 258.216 90.0779 258.504 89.9116C258.803 89.7388 259.034 89.718 259.197 89.8494ZM258.179 91.7924C258.296 91.8452 258.439 91.823 258.607 91.7259C258.778 91.6271 258.919 91.4855 259.03 91.3011C259.141 91.1135 259.197 90.9241 259.197 90.7329C259.197 90.5417 259.141 90.4181 259.03 90.362C258.919 90.3028 258.778 90.3226 258.607 90.4214C258.436 90.5201 258.293 90.6641 258.179 90.8533C258.068 91.0378 258.012 91.2256 258.012 91.4168C258.012 91.608 258.068 91.7332 258.179 91.7924Z" fill="#3A98FF"/>
<path d="M252.209 122.052C252.209 123.326 251.176 124.359 249.901 124.359C248.627 124.359 247.594 123.326 247.594 122.052C247.594 120.777 248.627 119.745 249.901 119.745C251.176 119.745 252.209 120.777 252.209 122.052Z" fill="white"/>
<path d="M60.9254 110.935C60.9254 112.557 59.6108 113.872 57.9891 113.872C56.3674 113.872 55.0527 112.557 55.0527 110.935C55.0527 109.314 56.3674 107.999 57.9891 107.999C59.6108 107.999 60.9254 109.314 60.9254 110.935Z" fill="#07ECEF"/>
<path d="M336.524 123.1C336.524 124.259 335.585 125.198 334.426 125.198C333.268 125.198 332.329 124.259 332.329 123.1C332.329 121.942 333.268 121.003 334.426 121.003C335.585 121.003 336.524 121.942 336.524 123.1Z" fill="#07ECEF"/>
<path d="M339.88 113.452C339.88 113.916 339.504 114.291 339.041 114.291C338.577 114.291 338.202 113.916 338.202 113.452C338.202 112.989 338.577 112.613 339.041 112.613C339.504 112.613 339.88 112.989 339.88 113.452Z" fill="#07ECEF"/>
<path d="M323.52 180.989C323.52 183.074 321.83 184.764 319.745 184.764C317.66 184.764 315.969 183.074 315.969 180.989C315.969 178.903 317.66 177.213 319.745 177.213C321.83 177.213 323.52 178.903 323.52 180.989Z" fill="#0D4EFF"/>
<path d="M194.777 141.348C194.777 143.085 193.368 144.494 191.631 144.494C189.893 144.494 188.485 143.085 188.485 141.348C188.485 139.61 189.893 138.202 191.631 138.202C193.368 138.202 194.777 139.61 194.777 141.348Z" fill="#FEFFFF"/>
<path d="M75.1929 56.7155C75.1929 49.1295 80.5187 46.0546 87.0884 49.8477L116.414 66.7786C122.983 70.5716 128.309 79.7961 128.309 87.3822L128.309 91.888C128.309 99.4741 122.983 102.549 116.414 98.7559L87.0884 81.825C80.5187 78.032 75.1929 68.8074 75.1929 61.2214L75.1929 56.7155Z" fill="url(#paint12_linear_933_22518)" fill-opacity="0.63"/>
<path d="M69.7666 56.9832C69.7666 49.3972 75.0924 46.3223 81.6621 50.1153L114.088 68.8364C120.658 72.6294 125.983 81.854 125.983 89.44L125.983 91.2998C125.983 98.8858 120.658 101.961 114.088 98.1677L81.6621 79.4466C75.0924 75.6536 69.7666 66.429 69.7666 58.843L69.7666 56.9832Z" fill="url(#paint13_linear_933_22518)" fill-opacity="0.63"/>
<path d="M67.6372 58.364C67.6372 51.2881 72.6049 48.4201 78.7328 51.958L111.399 70.8181C117.527 74.356 122.495 82.9603 122.495 90.0362V90.0362C122.495 97.1121 117.527 99.9801 111.399 96.4422L78.7328 77.5821C72.6049 74.0442 67.6372 65.4399 67.6372 58.364V58.364Z" fill="#EEF6FF"/>
<path d="M93.6064 93.1653C93.6064 93.1653 93.0578 89.4126 92.2925 87.0122C91.5271 84.6117 89.6869 80.8719 89.6869 80.8719L97.5259 85.3977C97.5259 85.3977 95.6857 87.0127 94.9204 88.5294C94.155 90.0461 93.6064 93.1653 93.6064 93.1653Z" fill="#EEF6FF"/>
<g clip-path="url(#clip2_933_22518)">
<path d="M75.9238 65.1751C76.6664 67.9148 78.5929 70.674 80.8527 71.9787C83.1125 73.2834 85.039 72.7487 85.7816 70.8665L80.8527 67.4931L75.9238 65.1751Z" fill="#FFDA44"/>
<path d="M80.8527 59.8411C78.5929 58.5364 76.6664 59.071 75.9238 60.9533L80.8527 64.3267L85.7816 66.6447C85.039 63.9049 83.1125 61.1458 80.8527 59.8411Z" fill="black"/>
<path d="M75.9241 60.9533C75.7128 61.4888 75.5972 62.1331 75.5972 62.8755C75.5972 63.6178 75.7128 64.3957 75.9241 65.1751L85.7819 70.8665C85.9931 70.331 86.1087 69.6867 86.1087 68.9443C86.1087 68.202 85.9931 67.4241 85.7818 66.6447L75.9241 60.9533Z" fill="#D80027"/>
</g>
<path d="M91.4969 72.0696L93.1463 73.0219L93.1463 73.3149C93.1463 73.8575 92.996 74.2102 92.6952 74.373C92.3945 74.5358 92.006 74.4798 91.5298 74.2048C91.0223 73.9118 90.6009 73.4786 90.2657 72.9052C89.9336 72.3301 89.7676 71.7675 89.7676 71.2177C89.7676 70.6642 89.9321 70.2907 90.261 70.0972C90.5931 69.9055 91.0035 69.9507 91.4922 70.2328C91.7961 70.4083 92.0749 70.6488 92.3287 70.9545C92.5824 71.2602 92.7814 71.5903 92.9255 71.9448L92.371 71.9936C92.2926 71.7929 92.1736 71.5975 92.0138 71.4076C91.854 71.2177 91.6786 71.0676 91.4875 70.9572C91.1711 70.7745 90.9126 70.7447 90.7121 70.8677C90.5116 70.9835 90.4114 71.224 90.4114 71.5894C90.4114 71.9475 90.5132 72.3029 90.7168 72.6556C90.9205 73.0047 91.193 73.2778 91.5345 73.475C91.782 73.6179 91.9888 73.674 92.1548 73.6432C92.3208 73.6125 92.4336 73.5003 92.4931 73.3068L91.4969 72.7316L91.4969 72.0696Z" fill="#3A98FF"/>
<path d="M95.8632 75.5618L94.0916 74.539C94.1699 74.9242 94.3908 75.2218 94.7542 75.4316C94.986 75.5654 95.1615 75.5763 95.2805 75.4641L95.7692 76.0719C95.5374 76.3251 95.1959 76.3215 94.7448 76.061C94.3563 75.8367 94.0446 75.5211 93.8097 75.1141C93.5747 74.7072 93.4572 74.2975 93.4572 73.8851C93.4572 73.4799 93.5731 73.2068 93.805 73.0657C94.0337 72.9229 94.3313 72.9572 94.6978 73.1688C95.0456 73.3696 95.3291 73.6708 95.5484 74.0723C95.7739 74.4775 95.8867 74.8826 95.8867 75.2878C95.8867 75.3637 95.8789 75.4551 95.8632 75.5618ZM94.0822 73.9909L95.2805 74.6828C95.2461 74.4856 95.1756 74.3092 95.0691 74.1537C94.9657 74 94.8419 73.8815 94.6978 73.7983C94.5349 73.7042 94.4002 73.6753 94.2937 73.7115C94.1872 73.744 94.1167 73.8372 94.0822 73.9909Z" fill="#3A98FF"/>
<path d="M96.9161 74.5255L96.9161 74.9922C96.9694 74.8529 97.0602 74.777 97.1887 74.7643C97.3171 74.748 97.4644 74.7878 97.6304 74.8837L97.6304 75.665C97.4456 75.5294 97.2795 75.4769 97.1323 75.5077C96.9882 75.5366 96.9161 75.6813 96.9161 75.9418L96.9161 77.2386L96.3099 76.8887L96.3099 74.1756L96.9161 74.5255Z" fill="#3A98FF"/>
<path d="M100.584 76.567C100.853 76.7226 101.068 76.9477 101.227 77.2426C101.39 77.5392 101.472 77.8575 101.472 78.1976L101.472 79.8689L100.866 79.5189L100.866 77.8964C100.866 77.7336 100.831 77.5871 100.762 77.4569C100.693 77.3267 100.596 77.2254 100.471 77.153C100.333 77.0735 100.225 77.0635 100.147 77.1232C100.071 77.1847 100.034 77.3149 100.034 77.5139L100.034 79.0386L99.4276 78.6887L99.4276 77.0662C99.4276 76.9034 99.3931 76.7569 99.3242 76.6267C99.2553 76.4965 99.1582 76.3952 99.0329 76.3228C98.8982 76.2451 98.7901 76.2369 98.7086 76.2984C98.6303 76.3581 98.5911 76.4856 98.5911 76.681L98.5911 78.2057L97.9849 77.8557L97.9849 75.1426L98.5911 75.4926L98.5911 75.7802C98.7321 75.6192 98.9498 75.6237 99.2443 75.7938C99.5357 75.962 99.7487 76.2152 99.8834 76.5534C100.037 76.3816 100.27 76.3861 100.584 76.567Z" fill="#3A98FF"/>
<path d="M103.772 78.8041L103.772 78.484L104.379 78.834L104.379 81.5471L103.772 81.1971L103.772 80.8769C103.591 81.0361 103.335 81.0207 103.006 80.8308C102.693 80.65 102.424 80.3569 102.198 79.9518C101.976 79.5448 101.864 79.1406 101.864 78.739C101.864 78.3411 101.976 78.0671 102.198 77.9169C102.424 77.7686 102.693 77.7849 103.006 77.9658C103.335 78.1557 103.591 78.4352 103.772 78.8041ZM102.654 79.7483C102.776 79.9599 102.931 80.12 103.119 80.2285C103.307 80.337 103.462 80.356 103.584 80.2855C103.71 80.2131 103.772 80.0648 103.772 79.8405C103.772 79.6163 103.71 79.3974 103.584 79.184C103.462 78.9687 103.307 78.8068 103.119 78.6983C102.931 78.5898 102.776 78.5726 102.654 78.6468C102.532 78.7173 102.471 78.8647 102.471 79.089C102.471 79.3133 102.532 79.5331 102.654 79.7483Z" fill="#3A98FF"/>
<path d="M106.235 79.8296C106.495 79.9798 106.706 80.2013 106.869 80.4943C107.038 80.7946 107.123 81.1184 107.123 81.4656L107.123 83.1315L106.517 82.7815L106.517 81.2025C106.517 81.0252 106.474 80.8633 106.39 80.7168C106.308 80.5721 106.195 80.4582 106.051 80.375C105.892 80.2827 105.765 80.2673 105.671 80.3288C105.58 80.3885 105.534 80.5287 105.534 80.7494L105.534 82.2144L104.928 81.8645L104.928 79.1513L105.534 79.5013L105.534 79.8052C105.679 79.6352 105.912 79.6433 106.235 79.8296Z" fill="#3A98FF"/>
<path d="M108.6 83.0946L109.122 81.5725L109.77 81.947L108.915 84.1663C108.793 84.4864 108.63 84.6745 108.426 84.7306C108.226 84.7921 107.975 84.727 107.675 84.5353L107.675 83.8841C107.834 83.98 107.963 84.0143 108.06 83.9872C108.157 83.9601 108.234 83.8705 108.29 83.7186L107.327 80.5361L107.989 80.9187L108.6 83.0946Z" fill="#3A98FF"/>
<path d="M94.5908 100.446C94.5908 101.72 93.5579 102.753 92.2837 102.753C91.0095 102.753 89.9766 101.72 89.9766 100.446C89.9766 99.1721 91.0095 98.1392 92.2837 98.1392C93.5579 98.1392 94.5908 99.1721 94.5908 100.446Z" fill="white"/>
<path d="M321.842 10.2604L322.861 13.016L325.617 14.0357L322.861 15.0554L321.842 17.811L320.822 15.0554L318.066 14.0357L320.822 13.016L321.842 10.2604Z" fill="#BCDCFF"/>
<path d="M313.871 22.4253L314.551 24.2624L316.388 24.9422L314.551 25.622L313.871 27.4591L313.192 25.622L311.354 24.9422L313.192 24.2624L313.871 22.4253Z" fill="#DAEBFF"/>
</g>
<defs>
<filter id="filter0_i_933_22518" x="-6.13428" y="63.5289" width="313.727" height="169.811" filterUnits="userSpaceOnUse" color-interpolation-filters="sRGB">
<feFlood flood-opacity="0" result="BackgroundImageFix"/>
<feBlend mode="normal" in="SourceGraphic" in2="BackgroundImageFix" result="shape"/>
<feColorMatrix in="SourceAlpha" type="matrix" values="0 0 0 0 0 0 0 0 0 0 0 0 0 0 0 0 0 0 127 0" result="hardAlpha"/>
<feOffset dx="-61" dy="14"/>
<feGaussianBlur stdDeviation="23.5"/>
<feComposite in2="hardAlpha" operator="arithmetic" k2="-1" k3="1"/>
<feColorMatrix type="matrix" values="0 0 0 0 0 0 0 0 0 1 0 0 0 0 1 0 0 0 0.73 0"/>
<feBlend mode="normal" in2="shape" result="effect1_innerShadow_933_22518"/>
</filter>
<filter id="filter1_d_933_22518" x="77.2603" y="-36.837" width="235.694" height="243.139" filterUnits="userSpaceOnUse" color-interpolation-filters="sRGB">
<feFlood flood-opacity="0" result="BackgroundImageFix"/>
<feColorMatrix in="SourceAlpha" type="matrix" values="0 0 0 0 0 0 0 0 0 0 0 0 0 0 0 0 0 0 127 0" result="hardAlpha"/>
<feOffset dy="4"/>
<feGaussianBlur stdDeviation="24.5"/>
<feComposite in2="hardAlpha" operator="out"/>
<feColorMatrix type="matrix" values="0 0 0 0 0.0666667 0 0 0 0 0.101961 0 0 0 0 1 0 0 0 0.19 0"/>
<feBlend mode="normal" in2="BackgroundImageFix" result="effect1_dropShadow_933_22518"/>
<feBlend mode="normal" in="SourceGraphic" in2="effect1_dropShadow_933_22518" result="shape"/>
</filter>
<linearGradient id="paint0_linear_933_22518" x1="146.197" y1="5.84198" x2="256.827" y2="91.2972" gradientUnits="userSpaceOnUse">
<stop offset="0.0187499" stop-color="#02E1FF"/>
<stop offset="1" stop-color="#101AFF"/>
</linearGradient>
<radialGradient id="paint1_radial_933_22518" cx="0" cy="0" r="1" gradientUnits="userSpaceOnUse" gradientTransform="translate(135.757 14.7493) rotate(79.1375) scale(90.9605 115.859)">
<stop offset="0.0187499" stop-color="#02FFE1"/>
<stop offset="1" stop-color="#1C47FC" stop-opacity="0"/>
</radialGradient>
<linearGradient id="paint2_linear_933_22518" x1="248.834" y1="95.7503" x2="73.197" y2="1.93793" gradientUnits="userSpaceOnUse">
<stop offset="0.182972" stop-color="#0057FF"/>
<stop offset="0.945628" stop-color="#1DFFF1"/>
</linearGradient>
<linearGradient id="paint3_linear_933_22518" x1="223.032" y1="116.823" x2="137.993" y2="162.645" gradientUnits="userSpaceOnUse">
<stop stop-color="#23FBB2"/>
<stop offset="1" stop-color="#1383FE"/>
</linearGradient>
<linearGradient id="paint4_linear_933_22518" x1="233.943" y1="146.058" x2="150.647" y2="189.548" gradientUnits="userSpaceOnUse">
<stop stop-color="#00FFE0" stop-opacity="0.73"/>
<stop offset="1" stop-color="#025FFF" stop-opacity="0"/>
</linearGradient>
<linearGradient id="paint5_linear_933_22518" x1="190.336" y1="11.3091" x2="238.851" y2="107.822" gradientUnits="userSpaceOnUse">
<stop offset="0.201042" stop-color="#00CAFF"/>
<stop offset="1" stop-color="#06FCDF"/>
</linearGradient>
<linearGradient id="paint6_linear_933_22518" x1="107.02" y1="67.2177" x2="107.02" y2="167.357" gradientUnits="userSpaceOnUse">
<stop stop-color="#48FAC9"/>
<stop offset="1" stop-color="#3A98FF"/>
</linearGradient>
<linearGradient id="paint7_linear_933_22518" x1="125.799" y1="12.4254" x2="125.799" y2="54.1265" gradientUnits="userSpaceOnUse">
<stop stop-color="#00CAFF"/>
<stop offset="1" stop-color="#06F5E2"/>
</linearGradient>
<linearGradient id="paint8_linear_933_22518" x1="201.772" y1="137.099" x2="150.048" y2="52.8154" gradientUnits="userSpaceOnUse">
<stop stop-color="#E1F0FF"/>
<stop offset="1" stop-color="#E4EEFF" stop-opacity="0"/>
</linearGradient>
<linearGradient id="paint9_linear_933_22518" x1="243.759" y1="82.2106" x2="254.936" y2="101.571" gradientUnits="userSpaceOnUse">
<stop stop-color="white"/>
<stop offset="1" stop-color="#3A98FF" stop-opacity="0"/>
</linearGradient>
<linearGradient id="paint10_linear_933_22518" x1="246.887" y1="83.9795" x2="257.14" y2="101.738" gradientUnits="userSpaceOnUse">
<stop stop-color="white"/>
<stop offset="1" stop-color="#3A98FF" stop-opacity="0"/>
</linearGradient>
<linearGradient id="paint11_linear_933_22518" x1="249.626" y1="85.6008" x2="258.583" y2="101.115" gradientUnits="userSpaceOnUse">
<stop stop-color="white"/>
<stop offset="1" stop-color="#EEF6FF"/>
</linearGradient>
<linearGradient id="paint12_linear_933_22518" x1="101.751" y1="58.3131" x2="87.9044" y2="82.2961" gradientUnits="userSpaceOnUse">
<stop stop-color="white"/>
<stop offset="1" stop-color="#3A98FF" stop-opacity="0"/>
</linearGradient>
<linearGradient id="paint13_linear_933_22518" x1="97.875" y1="59.4759" x2="85.1742" y2="81.4743" gradientUnits="userSpaceOnUse">
<stop stop-color="white"/>
<stop offset="1" stop-color="#3A98FF" stop-opacity="0"/>
</linearGradient>
<clipPath id="clip0_933_22518">
<rect width="375" height="192" fill="white"/>
</clipPath>
<clipPath id="clip1_933_22518">
<rect width="9.69945" height="9.69945" fill="white" transform="matrix(0.866025 -0.5 2.20305e-08 1 234.007 99.9272)"/>
</clipPath>
<clipPath id="clip2_933_22518">
<rect width="12.1377" height="12.1377" fill="white" transform="matrix(0.866025 0.5 -2.20305e-08 1 75.5972 56.8066)"/>
</clipPath>
</defs>
</svg>
