<svg width="1240" height="400" viewBox="0 0 1240 400" fill="none" xmlns="http://www.w3.org/2000/svg">
<g clip-path="url(#clip0_979_933)">
<path fill-rule="evenodd" clip-rule="evenodd" d="M-188.976 0V415H1531.02V0H1233.35C1234.04 0.871472 1234.09 2.69732 1234.14 4.125C1234.14 4.29883 1234.15 4.4668 1234.15 4.62646C1234.26 7.70752 1232.5 8.09326 1230.61 8.5083C1229.84 8.67676 1229.05 8.8501 1228.35 9.21045C1219.19 13.9632 1209.52 14.0449 1199.82 14.1269L1199.82 14.127L1199.81 14.127C1197.48 14.1465 1195.14 14.166 1192.8 14.251C1191.14 14.3076 1189.51 15.168 1187.75 16.0942L1187.74 16.0976C1186.9 16.5409 1186.03 16.999 1185.11 17.3906C1187.95 19.2572 1190.33 21.3423 1192.67 23.3905L1192.67 23.394L1192.67 23.3945C1196.01 26.3138 1199.26 29.1583 1203.6 31.189C1208.22 33.3496 1206.73 36.9331 1205.05 40.9727C1203.63 44.3877 1202.07 48.1289 1203.96 51.6118C1194.1 46.3394 1185.13 48.6646 1176.48 50.9067C1173.38 51.7119 1170.31 52.5063 1167.26 52.9346C1155.62 54.5649 1144.24 54.8262 1133.01 52.9346C1127.15 51.9482 1121.46 52.4556 1115.82 52.96L1115.81 52.9605C1112.18 53.2846 1108.56 53.6074 1104.91 53.5308C1096.58 53.3512 1088.27 52.5907 1079.95 51.8298L1079.94 51.8286C1074.48 51.3291 1069.02 50.8296 1063.55 50.4937C1058.38 50.1743 1053.25 50.8315 1048.11 51.4902L1048.1 51.4909C1042.14 52.2544 1036.17 53.0193 1030.1 52.2637C1028.44 52.0591 1025.17 53.7358 1024.88 55.04C1021.62 69.793 1010.6 71.1274 999.948 72.4189L999.934 72.4207C997.149 72.7585 994.389 73.0933 991.799 73.6646C989.649 74.138 987.499 74.6106 985.35 75.0832L984.995 75.1611L984.992 75.162C963.708 79.8428 942.445 84.5194 921.311 89.9414C914.645 91.655 907.717 92.3415 900.791 93.0279L900.787 93.0283L900.781 93.0289C893.776 93.7235 886.773 94.418 880.045 96.1743C869.708 98.875 859.221 99.4316 848.705 99.9897C838.25 100.545 827.767 101.102 817.375 103.768C784.625 112.218 750.87 116.01 716.705 114.771C711.615 114.587 706.53 114.496 701.45 114.405L701.435 114.405C683.441 114.084 665.511 113.765 647.632 109.283C621.927 102.845 595.71 98.3359 569.568 93.8545C565.299 93.124 560.927 93.4863 556.538 93.8501L556.537 93.8502C550.068 94.3863 543.56 94.9256 537.284 91.9727C536.901 91.792 536.435 91.8677 535.966 91.9438L535.965 91.9439C535.033 92.0953 534.091 92.2482 533.775 90.3887C532.64 83.6152 527.279 79.5903 518.969 79.4971C509.385 79.3848 499.801 79.4038 490.219 79.4233H490.218C484.745 79.4346 479.274 79.4458 473.804 79.4321C460.505 79.4136 448.964 78.4912 438.076 66.8916C432.399 60.8447 418.597 57.5562 407.085 58.8325C406.348 58.915 405.591 59.0615 404.827 59.2095C401.631 59.8281 398.31 60.4707 395.861 56.5684C395.154 55.4502 393.162 54.3696 391.878 54.5C375.799 56.0669 361.04 51.3271 346.307 46.5957C336.506 43.4482 326.717 40.3047 316.56 39.0244C314.031 38.7065 311.5 38.853 308.964 39C303.773 39.3008 298.561 39.6025 293.302 35.9224C292.858 35.6111 292.425 35.3246 292.01 35.0507L292.007 35.0488L292.005 35.0478C289.668 33.5044 287.944 32.3655 288.426 29.4468C289.237 24.5218 292.518 26.3509 294.623 27.5247L294.624 27.5249C295.198 27.8457 295.685 28.1172 296.011 28.189C306.436 30.5186 316.945 32.3916 327.456 34.2651C341.202 36.7148 354.953 39.166 368.528 42.6396C382.057 46.0997 395.904 48.3083 409.754 50.5174L409.77 50.52C417.398 51.7363 425.026 52.9531 432.604 54.3789C441.578 56.0684 441.737 51.0859 441.891 46.2476C441.961 44.0415 442.03 41.8657 442.934 40.3662C445.716 35.7451 442.133 31.7295 436.112 31.7202C426.354 31.7017 416.935 29.6626 407.468 27.6133L407.465 27.6128C398.08 25.5812 388.647 23.5395 378.793 23.4468C369.331 23.355 359.85 21.4114 350.304 19.4544L350.295 19.4526C343.423 18.0435 336.517 16.6279 329.561 15.8906C305.392 13.3286 281.232 10.3379 257.258 6.39697C250.687 5.31745 244.019 4.98247 237.352 4.64753L237.351 4.64746C226.692 4.11214 216.036 3.57681 205.779 0H198.585C198.076 0.288367 197.552 0.634825 197.017 1.03955C200.816 2.38184 204.631 4.09668 208.446 5.81152C217.022 9.66748 225.598 13.5225 233.992 13.1421C241.656 12.7974 248.235 15.6621 254.737 18.4937C261.943 21.6318 269.054 24.729 277.444 23.3721C281.362 22.7388 280.729 27.8535 277.909 30.77C274.811 33.9658 247.421 37.2358 246.351 33.8071C241.567 18.5835 226.062 16.9155 216.486 16.3472C201.815 15.483 189.888 9.71686 177.846 3.89537L177.845 3.89453C175.127 2.5805 172.404 1.26379 169.641 0H-188.976ZM1227.73 0C1226.5 0.0615552 1225.28 0.0582897 1224.08 0H1227.73Z" fill="#30453A"/>
</g>
<defs>
<clipPath id="clip0_979_933">
<rect width="1240" height="400" fill="white"/>
</clipPath>
</defs>
</svg>
