<svg width="1240" height="1066" preserveAspectRatio="none" viewBox="0 0 1240 1066" fill="none" xmlns="http://www.w3.org/2000/svg">
<path d="M954.343 84.4402C944.041 87.524 934.753 86.816 926.07 84.7849C892.789 77.0146 860.012 66.561 825.475 65.9462C817.723 65.8064 812.548 59.3499 804.451 59.9368C800.608 60.2163 798.672 59.7971 797.63 63.7847C793.395 79.8936 798.467 84.3284 814.996 85.2694C833.953 86.3502 852.762 90.4869 871.524 93.9155C874.158 94.4 876.838 95.7789 879.769 95.8907C920.802 97.3814 960.904 106.586 1001.62 110.527C1013.72 111.701 1025.72 113.416 1038.08 113.993C1012.94 101.676 984.869 98.8627 959.089 89.2011C965.716 79.9867 980.811 74.8904 991.272 78.5706C994.641 79.7538 995.767 81.878 994.408 86.3315C993.673 88.7539 993.552 90.8968 996.251 90.5893C1009.83 89.0334 1020.22 100.167 1035.2 98.4155C1043.55 97.4372 1056.53 105.692 1066.2 111.506C1081.77 120.869 1095.47 133.317 1112.86 140.342C1114.93 135.04 1104.74 131.351 1109.68 127.671C1113.19 125.053 1119.28 128.975 1124.15 130.81C1137.02 135.655 1147.58 145.252 1161.13 148.568C1163.84 149.23 1163.93 151.196 1163.77 153.357C1163.61 155.519 1162.01 156.124 1160.32 156.013C1156.31 155.742 1151.23 158.137 1148.52 154.149C1142.21 144.851 1130.46 150.32 1121.95 141.04C1123.76 149.267 1128.55 151.326 1131.32 154.876C1134.38 158.798 1135.3 161.128 1129.84 164.463C1121.13 169.783 1121.35 177.087 1129.47 183.013C1131.67 184.615 1135.76 185.184 1132.18 188.994C1127.13 194.389 1130.03 200.464 1129.65 206.445C1129.11 214.933 1130.08 220.746 1137.13 226.886C1143.68 232.57 1136.27 237.964 1131.48 239.697C1119.38 244.067 1124.02 247.803 1130.85 252.536C1133.21 254.166 1134.84 256.626 1138.2 256.784C1141.47 256.952 1144.64 259.626 1143.55 262.374C1139.13 273.378 1146.65 275.148 1154.06 278.371C1177.48 288.564 1185.1 313.645 1182.72 337.282C1182.57 338.717 1183.07 340.59 1182.34 341.521C1174.12 352.012 1148.18 353.885 1137.69 344.903C1134.78 342.407 1106.97 340.385 1105.04 342.975C1102.58 346.273 1103.29 348.565 1108 349.804C1120.36 353.065 1130.6 360.789 1141.24 367.366C1157.61 377.494 1159.93 388.516 1154.42 406.852C1149.32 423.836 1139.26 437.141 1127.73 449.728C1124.59 453.166 1122.27 456.883 1124.43 460.787C1126.5 464.532 1131.26 462.343 1134.82 462.557C1142.18 462.995 1148.42 458.728 1154.15 455.448C1161.16 451.433 1166.99 453.24 1173.85 455.365C1169.46 457.843 1164.52 459.688 1160.86 462.967C1156.42 466.936 1144.48 465.958 1148 474.241C1150.97 481.219 1157.14 491.505 1168.6 487.601C1183.04 482.682 1189.58 488.663 1194.11 501.865C1197.3 511.173 1202.62 519.623 1212.05 525.083C1218.07 528.567 1221.71 533.664 1213.53 540.521C1208.66 544.593 1204.45 549.773 1198.91 552.978C1192.02 556.956 1185.67 563.748 1185.19 569.72C1184.12 583.09 1174.38 591.801 1166.83 596.944C1155.26 604.817 1150.58 616.51 1142.19 625.845C1134.89 633.97 1127.87 642.299 1118.19 647.619C1108.92 652.725 1099.38 657.364 1089.02 662.694C1100.4 672.877 1108.04 652.361 1119.41 661.222C1108.85 667.101 1098.74 673.436 1088 678.383C1083.36 680.526 1081.02 684.747 1076.8 687.02C1074.79 688.101 1072.78 690.188 1074.47 693.225C1076.72 697.259 1079.34 694.026 1081.8 693.644C1087.35 692.778 1093.42 685.185 1097.4 689.154C1107.09 698.825 1120.07 690.393 1129.64 697.148C1145.49 687.309 1159.8 704.946 1176.09 699.505C1184.35 696.747 1193.66 701.983 1201.88 705.57C1211.27 709.669 1220.77 714.039 1231 713.582C1239.24 713.219 1239.25 717.84 1239.91 723.253C1240.93 731.564 1233.3 729.3 1229.97 730.12C1226.49 730.977 1220.78 725.266 1223.08 734.955C1223.65 737.359 1220.89 737.574 1217.82 737.154C1209.41 736.018 1200.91 730.632 1192.62 740.424C1188.27 745.558 1183.63 734.657 1177.51 735.282C1175.34 743.779 1186.87 753.738 1175.38 761.779C1175.07 762.002 1174.59 762.534 1174.68 762.72C1176.14 766.353 1183.3 770.658 1176.56 773.565C1170.01 776.388 1162.52 779.807 1154.42 776.928C1148.08 774.673 1140.77 771.329 1138.65 782.276C1130.42 777.906 1124.2 792.143 1114.99 784.493C1111.78 781.829 1106.55 777.925 1101.08 782.891C1098.94 784.838 1095.46 785.584 1093.82 781.792C1092.43 778.577 1089.03 778.344 1087.68 779.397C1075.42 789.003 1064.36 776.08 1052.79 777.897C1043.62 779.341 1034.85 781.456 1029.11 770.993C1038.07 796.084 1059.64 802.307 1085.43 806.397C1073.29 809.761 1073.29 809.761 1060.23 808.261C1079.28 812.146 1089.13 834.693 1111.51 832.42C1114.7 832.093 1119.59 834.572 1118.76 840.469C1117.88 846.721 1113.17 844.243 1110.03 844.373C1101.68 844.727 1093.31 844.429 1084.94 844.56C1082.69 844.597 1079.77 843.702 1078.91 847.215C1077.9 851.333 1081.37 852.246 1083.77 853.196C1086.37 854.221 1089.69 855.106 1092.2 854.37C1102.54 851.352 1110.33 860.594 1120.13 859.737C1120.84 859.672 1121.68 861.078 1122.45 861.805C1120.74 862.727 1122.32 865.988 1119.23 866.1C1116.03 866.221 1112.73 867.451 1109.66 866.985C1078.53 862.262 1047.1 866.277 1015.92 863.566C994.399 861.693 974.511 864.842 953.859 873.246C934.716 881.035 913.571 885.899 888.769 887.594C901.631 893.278 910.1 900.694 921.956 899.818C923.576 899.697 925.772 899.548 926.805 900.442C944.813 916.169 966.898 907.234 986.944 909.787C994.743 910.784 1003.91 907.206 1012.35 907.812C1022.08 908.52 1035.37 902.138 1039.2 918.461C1039.32 918.983 1040.72 919.728 1041.27 919.561C1050.9 916.551 1060.03 927.424 1070.15 920.045C1075.71 916.001 1082.51 914.66 1089.44 918.927C1091.63 920.278 1095.65 920.669 1097.91 919.579C1112.82 912.424 1127.11 917.893 1142.44 921.033C1121.75 930.377 1099.08 922.961 1078.47 932.166C1083.28 938.343 1090.31 934.514 1094.92 934.309C1111.52 933.555 1128.05 932.241 1144.65 934.188C1145.4 934.272 1146.38 933.331 1146.98 933.573C1162.87 940.086 1177.4 940.43 1190.44 942.704C1204.23 945.107 1216.97 953.157 1231.99 950.521C1234.14 950.148 1234.05 953.577 1234.13 955.626C1234.28 959.959 1230.74 958.962 1228.33 960.21C1216.96 966.108 1204.81 964.813 1192.78 965.251C1190.32 965.334 1187.92 967.179 1185.09 968.39C1191.96 972.918 1196.18 978.732 1203.57 982.189C1212.11 986.176 1199.81 995.009 1203.94 1002.61C1190.53 995.447 1178.78 1002.31 1167.24 1003.93C1155.6 1005.56 1144.22 1005.83 1132.98 1003.93C1123.35 1002.31 1114.2 1004.73 1104.89 1004.53C1091.08 1004.23 1077.33 1002.34 1063.53 1001.49C1052.35 1000.8 1041.38 1004.67 1030.08 1003.26C1028.41 1003.06 1025.15 1004.74 1024.86 1006.04C1020.74 1024.66 1004.28 1021.91 991.774 1024.66C968.219 1029.85 944.674 1034.94 921.286 1040.94C907.876 1044.39 893.404 1043.68 880.021 1047.17C859.407 1052.56 838.197 1049.42 817.35 1054.77C784.601 1063.22 750.846 1067.01 716.681 1065.77C693.554 1064.93 670.539 1066.03 647.608 1060.28C621.903 1053.85 595.686 1049.34 569.544 1044.85C558.981 1043.05 547.795 1047.93 537.26 1042.97C536.115 1042.43 534.226 1044.18 533.751 1041.39C532.616 1034.62 527.255 1030.59 518.944 1030.5C503.886 1030.32 488.828 1030.47 473.779 1030.43C460.48 1030.41 448.94 1029.49 438.052 1017.89C432.375 1011.84 418.573 1008.56 407.061 1009.83C403.245 1010.26 398.871 1012.4 395.837 1007.57C395.13 1006.45 393.138 1005.37 391.854 1005.5C365.079 1008.11 341.961 993.229 316.536 990.024C308.83 989.055 301.105 992.4 293.278 986.922C290.328 984.854 287.834 983.885 288.402 980.447C289.435 974.176 294.47 978.853 295.987 979.189C320.044 984.565 344.548 987.509 368.503 993.639C389.49 999.006 411.239 1001.36 432.579 1005.38C445.646 1007.84 440.025 996.155 442.91 991.366C445.692 986.745 442.109 982.729 436.088 982.72C416.656 982.683 398.564 974.633 378.769 974.447C362.491 974.288 346.158 968.651 329.537 966.891C305.368 964.328 281.208 961.338 257.234 957.397C239.421 954.471 220.901 957.015 203.61 950.204C201.832 949.505 199.543 950.111 196.993 952.039C209.333 956.4 221.841 964.692 233.968 964.142C250.124 963.415 261.459 976.953 277.42 974.372C281.338 973.738 280.705 978.853 277.885 981.77C274.786 984.965 247.397 988.236 246.327 984.807C241.543 969.583 226.038 967.915 216.462 967.347C197.802 966.248 183.582 957.22 167.919 950.232C167.184 949.906 165.602 950.129 165.536 949.859C161.842 932.381 141.134 939.042 133.466 927.201C132.638 925.924 131.27 924.555 128.338 925.915C123.592 929.241 136.435 934.076 129.622 935.772C123.247 937.365 113.085 937.878 109.641 932.344C103.806 922.971 94.1456 924.061 86.4863 920.52C82.4845 918.666 79.5063 917.148 77.8032 913.44C77.068 911.837 78.2035 909.703 80.1485 910.123C84.2434 910.999 88.0405 906.554 92.6659 911.082C101.265 919.477 114.127 918.461 124.373 924.042C120.26 918.452 113.187 917.325 109.455 911.455C107.082 907.719 105.639 906.023 110.423 902.753C117.254 898.076 121.079 891.992 111.912 885.144C110.106 883.802 108.115 879.284 108.403 879.051C117.933 871.588 105.425 860.575 112.684 853.038C115.672 849.926 112.535 846.06 111.586 845.78C104.671 843.712 105.434 836.184 101.293 832.355C107.845 829.131 112.759 822.125 121.861 823.755C113.634 819.87 109.855 810.441 100.288 809.211C94.341 808.447 95.4951 804.143 97.7193 801.171C102.084 795.329 97.7751 791.239 94.0897 790.447C67.7055 784.773 58.7713 760.111 58.6968 734.126C58.6689 723.356 67.5474 720.514 75.793 719.182C83.1359 717.999 90.8138 718.912 98.3336 718.903C99.1711 718.903 100.595 718.679 100.753 719.014C107.091 732.822 118.827 723.57 127.91 725.518C130.786 726.133 133.745 727.903 134.778 723.524C135.523 720.403 133.326 719.778 130.674 718.716C118.51 713.844 107.882 706.241 97.1795 698.797C83.685 689.415 81.2281 674.564 87.0633 659.563C93.5035 642.998 103.461 629.442 114.676 616.268C117.263 613.221 119.729 607.873 116.546 604.948C112.908 601.603 107.231 602.87 102.363 604.622C93.6615 607.752 86.1884 614.805 76.0722 613.324C74.0527 613.025 71.4002 617.06 70.1346 612.765C69.1667 609.476 71.5213 608.954 74.2294 608.115C77.2448 607.184 79.9345 605.059 82.6426 603.271C87.2122 600.252 96.5559 598.184 93.7732 592.454C90.3484 585.391 85.7882 575.171 73.6151 578.162C71.2514 578.739 68.906 578.879 66.5049 579.885C58.5479 583.23 53.5782 584.721 51.2887 571.845C49.2972 560.646 41.6658 549.559 30.7585 542.543C24.2066 538.332 20.0093 535.546 28.227 526.49C36.2678 517.639 48.2641 513.772 54.3227 502.648C56.9192 497.896 60.7815 494.104 59.7392 488.272C58.2222 479.784 66.9517 477.474 70.5719 474.949C82.9776 466.284 92.4704 454.638 99.0222 442.461C106.198 429.138 118.333 422.029 128.896 415.246C135.178 411.221 143.331 403.535 155.513 405.156C141.953 397.479 133.382 409.19 122.335 409.442C125.025 398.289 135.727 399.668 142.102 395.271C149.911 389.886 160.027 387.724 165.322 378.864C166.29 377.243 170.022 378.034 168.645 374.997C167.416 372.295 164.699 371.615 162.242 372.491C158.789 373.73 155.606 375.715 152.265 377.289C146.002 380.243 139.58 382.795 135.094 374.783C132.796 370.674 128.896 371.662 126.337 372.398C100.874 379.712 76.9283 367.516 52.1077 366.23C37.2916 365.466 22.5593 356.736 7.27795 353.186C2.57812 352.087 5.51892 344.596 0.000117884 343.897C3.77856 342.127 4.93273 337.515 10.3026 336.779C22.3359 335.139 34.3321 332.521 45.956 329.028C49.8834 327.844 52.6941 326.233 55.9048 329.419C58.1757 331.674 61.0607 333.248 63.5361 331.059C65.7977 329.056 64.0201 325.58 64.2528 322.841C64.7461 317.176 52.1914 309.518 66.5049 305.717C66.6352 305.679 66.477 303.434 66.0211 302.428C61.619 292.785 61.6097 292.543 71.5491 291.872C79.1061 291.369 87.3517 291.657 94.099 290.642C102.912 289.319 113.419 285.21 121.218 276.21C121.926 282.294 125.36 283.347 130.506 284.865C137.198 286.841 146.337 280.887 150.748 290.409C155.327 286.803 159.924 282.443 166.327 284.921C174.182 287.959 183.61 283.747 190.58 290.567C192.423 292.375 194.489 291.974 195.047 289.133C195.68 285.909 194.238 280.747 200.669 284.008C200.938 281.931 201.208 279.853 201.488 277.766C192.172 278.213 190.618 264.089 179.915 266.455C176.704 267.163 172.739 265.906 169.51 264.592C166.448 263.353 160.911 266.781 160.427 260.809C159.85 253.645 167.333 258.601 170.72 253.551C158.668 248.353 151.334 234.936 135.597 236.464C132.805 236.734 129.883 236.995 127.175 235.067C124.587 233.222 120.046 232.877 120.558 228.722C121.153 223.896 125.472 223.98 129.315 223.989C137.458 224.008 145.602 223.877 153.745 223.952C157.728 223.989 162.139 223.691 162.121 218.902C162.102 215.007 159.692 212.986 154.285 213.135C143.796 213.414 134.517 206.166 123.74 206.315C119.32 206.371 119.804 201.666 114.49 198.069C140.474 199.979 163.526 201.405 186.513 203.51C194.135 204.209 200.883 200.874 208.495 201.069C227.844 201.544 247.332 206.827 266.643 199.402C276.945 195.442 287.974 193.439 298.471 189.926C309.314 186.302 320.044 182.622 331.473 181.029C336.163 180.376 340.546 177.488 347.768 174.497C337.019 171.265 328.634 168.693 320.212 166.252C317.866 165.572 314.935 165.972 313.092 164.696C290.71 149.156 266.131 157.606 242.26 157.718C229.808 157.783 213.847 161.007 205.862 154.699C197.43 148.037 189.37 147.767 181.125 144.488C177.97 143.239 178.445 141.758 174.433 144.255C167.602 148.503 158.547 149.761 150.376 147.292C145.322 145.764 140.008 145.084 135.699 146.407C123.61 150.106 112.061 146.146 100.083 144.572C119.794 135.851 141.739 139.289 162.195 133.168C129.678 129.879 97.0864 134.09 62.5031 133.512C67.7613 130.019 73.4012 131.752 75.4486 126.897C67.9567 124.624 59.5716 126.786 52.6474 124.354C38.3712 119.341 24.2252 114.832 9.01827 114.124C7.67806 114.059 4.14156 113.211 6.73811 110.351C9.69759 107.09 12.08 102.375 17.7756 103.652C19.6741 104.071 21.1726 106.689 23.3689 105.348C32.9733 99.4685 44.467 103.736 55.4209 99.4778C50.935 93.7852 50.5814 85.6236 40.6513 85.8751C35.8211 85.9963 32.8059 80.9745 35.5327 76.9496C38.0548 73.2229 33.9692 65.6109 43.4619 65.4898C68.2174 65.1823 92.4051 59.089 117.738 61.3717C137.142 63.1139 156.611 66.7195 176.332 65.8065C185.573 65.3779 194.526 62.9555 203.972 63.3468C210.096 63.5984 216.843 61.5207 218.388 52.679C219.142 48.3746 223.339 45.2441 228.849 45.5982C249.891 46.9584 268.244 31.9583 289.667 35.4893C303.432 20.8619 323.273 26.8246 339.904 21.7004C355.912 16.7624 374.413 17.489 391.723 16.2871C408.95 15.0852 425.162 10.7249 441.876 8.03237C477.316 2.33033 512.951 -1.02368 548.976 0.28076C573.946 1.18444 597.324 10.6317 621.661 13.2871C643.038 15.6256 662.982 25.2127 685.113 23.7779C690.409 23.4332 701.856 18.8772 704.08 32.2843C704.415 34.2873 715.359 35.3028 721.427 35.424C740.655 35.8153 759.91 35.1724 779.137 35.7688C786.843 36.0109 796.364 35.1259 798.207 46.7627C798.411 48.0484 800.552 50.1261 801.613 50.0236C813.563 48.8776 823.139 61.7069 835.805 55.7907C848.834 67.3344 865.475 56.033 880.989 64.1946C895.544 71.8624 914.111 77.1264 932.333 75.6822C940.569 75.0394 947.345 77.173 954.343 84.4402Z" fill="#212C26"/>
</svg>
