<svg width="360" height="300" preserveAspectRatio="none" viewBox="0 0 360 300" fill="none" xmlns="http://www.w3.org/2000/svg">
<path d="M277.067 23.7636C274.076 24.6315 271.38 24.4322 268.859 23.8606C259.197 21.6738 249.681 18.732 239.654 18.5589C237.403 18.5196 235.901 16.7025 233.55 16.8677C232.434 16.9464 231.873 16.8284 231.57 17.9506C230.341 22.4841 231.813 23.7321 236.612 23.9969C242.115 24.3011 247.576 25.4653 253.023 26.4302C253.788 26.5665 254.566 26.9546 255.417 26.986C267.33 27.4056 278.972 29.9961 290.793 31.1052C294.306 31.4356 297.791 31.9181 301.379 32.0806C294.079 28.6143 285.93 27.8225 278.445 25.1034C280.369 22.5103 284.752 21.076 287.789 22.1117C288.767 22.4447 289.094 23.0425 288.699 24.2958C288.486 24.9776 288.45 25.5806 289.234 25.4941C293.176 25.0562 296.191 28.1896 300.542 27.6966C302.965 27.4213 306.734 29.7444 309.542 31.3806C314.062 34.0157 318.039 37.5187 323.089 39.4957C323.689 38.0038 320.73 36.9654 322.165 35.9297C323.184 35.1929 324.953 36.2968 326.366 36.8134C330.103 38.1768 333.167 40.8775 337.101 41.8109C337.89 41.9971 337.914 42.5503 337.868 43.1586C337.822 43.7669 337.358 43.9374 336.866 43.9059C335.701 43.8299 334.229 44.5037 333.443 43.3815C331.611 40.7647 328.198 42.3039 325.729 39.6923C326.253 42.0076 327.644 42.587 328.447 43.586C329.336 44.6899 329.603 45.3454 328.017 46.2841C325.488 47.7813 325.553 49.8369 327.912 51.5045C328.55 51.9555 329.736 52.1155 328.698 53.1879C327.231 54.706 328.074 56.4155 327.963 58.0989C327.807 60.4875 328.088 62.1237 330.136 63.8516C332.035 65.451 329.884 66.9692 328.496 67.4569C324.98 68.6866 326.329 69.738 328.312 71.07C328.995 71.5289 329.471 72.2211 330.446 72.2656C331.395 72.3129 332.316 73.0654 331.997 73.8389C330.714 76.9355 332.9 77.4336 335.05 78.3409C341.848 81.2094 344.061 88.2678 343.37 94.9199C343.326 95.3237 343.472 95.8507 343.261 96.1129C340.873 99.0653 333.343 99.5923 330.298 97.0647C329.452 96.362 321.379 95.793 320.817 96.5219C320.103 97.4501 320.309 98.0951 321.679 98.4439C325.267 99.3616 328.239 101.535 331.327 103.386C336.08 106.237 336.753 109.338 335.153 114.498C333.672 119.278 330.754 123.023 327.407 126.565C326.493 127.533 325.821 128.579 326.447 129.677C327.047 130.731 328.431 130.115 329.463 130.176C331.6 130.299 333.413 129.098 335.075 128.175C337.112 127.045 338.803 127.554 340.795 128.151C339.522 128.849 338.087 129.368 337.023 130.291C335.734 131.408 332.267 131.133 333.291 133.464C334.153 135.427 335.945 138.322 339.271 137.223C343.464 135.839 345.361 137.522 346.677 141.238C347.603 143.857 349.149 146.235 351.886 147.772C353.634 148.753 354.691 150.187 352.316 152.117C350.902 153.262 349.678 154.72 348.071 155.622C346.071 156.742 344.226 158.653 344.088 160.334C343.778 164.097 340.949 166.548 338.757 167.995C335.399 170.211 334.04 173.502 331.603 176.129C329.484 178.415 327.447 180.759 324.637 182.257C321.943 183.694 319.174 184.999 316.167 186.499C319.471 189.365 321.689 183.591 324.991 186.085C321.924 187.739 318.99 189.522 315.872 190.915C314.524 191.518 313.846 192.705 312.619 193.345C312.035 193.649 311.452 194.237 311.944 195.091C312.597 196.227 313.357 195.317 314.07 195.209C315.683 194.966 317.445 192.829 318.601 193.946C321.414 196.667 325.18 194.294 327.961 196.195C332.562 193.426 336.715 198.39 341.446 196.859C343.842 196.083 346.547 197.556 348.933 198.566C351.659 199.719 354.418 200.949 357.387 200.821C359.778 200.718 359.781 202.019 359.973 203.542C360.27 205.881 358.054 205.244 357.087 205.475C356.077 205.716 354.42 204.109 355.088 206.835C355.253 207.512 354.453 207.572 353.561 207.454C351.119 207.134 348.652 205.619 346.244 208.375C344.983 209.819 343.634 206.752 341.856 206.927C341.227 209.318 344.575 212.121 341.24 214.384C341.149 214.447 341.011 214.597 341.035 214.649C341.459 215.672 343.54 216.883 341.581 217.701C339.681 218.496 337.506 219.458 335.153 218.648C333.313 218.013 331.192 217.072 330.576 220.153C328.188 218.923 326.38 222.929 323.708 220.777C322.776 220.027 321.257 218.928 319.668 220.326C319.047 220.874 318.036 221.083 317.561 220.016C317.158 219.112 316.169 219.046 315.778 219.342C312.219 222.046 309.007 218.409 305.648 218.92C302.987 219.327 300.442 219.922 298.775 216.977C301.374 224.038 307.637 225.79 315.124 226.941C311.6 227.888 311.6 227.888 307.81 227.465C313.341 228.559 316.199 234.904 322.697 234.264C323.621 234.173 325.042 234.87 324.802 236.53C324.545 238.289 323.178 237.592 322.268 237.628C319.844 237.728 317.412 237.644 314.983 237.681C314.329 237.691 313.481 237.44 313.232 238.428C312.938 239.587 313.946 239.844 314.643 240.111C315.397 240.4 316.361 240.649 317.091 240.442C320.093 239.592 322.354 242.193 325.199 241.952C325.405 241.934 325.648 242.33 325.872 242.534C325.375 242.794 325.834 243.711 324.937 243.743C324.008 243.777 323.051 244.123 322.16 243.992C313.122 242.663 303.997 243.793 294.946 243.03C288.696 242.503 282.922 243.389 276.927 245.754C271.369 247.946 265.23 249.315 258.03 249.792C261.764 251.391 264.223 253.479 267.665 253.232C268.135 253.198 268.773 253.156 269.072 253.408C274.301 257.834 280.712 255.319 286.532 256.038C288.796 256.318 291.458 255.311 293.908 255.482C296.732 255.681 300.59 253.885 301.703 258.479C301.739 258.626 302.144 258.835 302.303 258.788C305.1 257.941 307.75 261.001 310.69 258.924C312.303 257.786 314.278 257.409 316.288 258.61C316.926 258.99 318.09 259.1 318.747 258.793C323.076 256.78 327.226 258.319 331.676 259.202C325.669 261.832 319.087 259.745 313.105 262.336C314.5 264.074 316.542 262.996 317.88 262.939C322.7 262.726 327.499 262.357 332.319 262.905C332.535 262.928 332.821 262.663 332.994 262.732C337.606 264.564 341.827 264.661 345.612 265.301C349.616 265.978 353.313 268.243 357.673 267.501C358.298 267.396 358.273 268.361 358.295 268.938C358.338 270.157 357.311 269.877 356.612 270.228C353.31 271.888 349.784 271.523 346.29 271.646C345.577 271.67 344.88 272.189 344.059 272.53C346.053 273.804 347.279 275.441 349.425 276.413C351.902 277.535 348.333 280.021 349.53 282.161C345.639 280.144 342.227 282.077 338.876 282.533C335.496 282.992 332.192 283.065 328.931 282.533C326.134 282.077 323.478 282.756 320.773 282.701C316.767 282.617 312.773 282.085 308.766 281.846C305.521 281.652 302.336 282.74 299.056 282.344C298.572 282.287 297.624 282.759 297.54 283.126C296.343 288.364 291.566 287.591 287.934 288.367C281.096 289.828 274.26 291.259 267.47 292.948C263.577 293.918 259.375 293.719 255.49 294.702C249.505 296.217 243.348 295.334 237.295 296.839C227.787 299.217 217.987 300.284 208.069 299.935C201.354 299.699 194.673 300.009 188.015 298.391C180.552 296.579 172.941 295.31 165.352 294.049C162.285 293.54 159.037 294.914 155.979 293.519C155.646 293.367 155.098 293.86 154.96 293.074C154.63 291.167 153.074 290.035 150.661 290.008C146.29 289.959 141.918 290.001 137.549 289.99C133.688 289.985 130.337 289.725 127.176 286.461C125.528 284.759 121.521 283.834 118.179 284.193C117.071 284.313 115.801 284.917 114.92 283.556C114.715 283.241 114.137 282.937 113.764 282.974C105.991 283.708 99.279 279.52 91.8974 278.618C89.6602 278.346 87.4176 279.287 85.1453 277.745C84.2888 277.163 83.5647 276.891 83.7295 275.923C84.0294 274.158 85.4912 275.475 85.9316 275.569C92.916 277.082 100.03 277.91 106.985 279.636C113.078 281.146 119.392 281.809 125.588 282.94C129.381 283.632 127.749 280.344 128.587 278.996C129.395 277.695 128.354 276.565 126.606 276.563C120.965 276.552 115.712 274.287 109.965 274.234C105.239 274.19 100.498 272.604 95.672 272.108C88.6551 271.387 81.641 270.545 74.6808 269.436C69.5094 268.613 64.1326 269.329 59.1125 267.412C58.5964 267.215 57.9317 267.386 57.1914 267.928C60.7741 269.156 64.4055 271.489 67.9261 271.334C72.6166 271.13 75.9075 274.94 80.5413 274.213C81.6788 274.035 81.4951 275.475 80.6764 276.295C79.7766 277.195 71.8249 278.115 71.5142 277.15C70.1255 272.866 65.624 272.396 62.8438 272.236C57.4264 271.927 53.2979 269.386 48.7506 267.42C48.5372 267.328 48.0778 267.391 48.0589 267.315C46.9863 262.396 40.9745 264.271 38.7482 260.938C38.5077 260.579 38.1105 260.194 37.2594 260.576C35.8814 261.512 39.6101 262.873 37.6323 263.35C35.7815 263.799 32.831 263.943 31.8313 262.386C30.1372 259.748 27.3326 260.055 25.1089 259.058C23.9471 258.536 23.0825 258.109 22.588 257.065C22.3746 256.614 22.7042 256.014 23.2689 256.132C24.4578 256.378 25.5601 255.128 26.903 256.402C29.3996 258.765 33.1336 258.479 36.1084 260.049C34.9141 258.476 32.8607 258.159 31.7772 256.507C31.0882 255.456 30.6695 254.978 32.0582 254.058C34.0414 252.742 35.1519 251.03 32.4905 249.102C31.9664 248.725 31.3881 247.453 31.4719 247.388C34.2386 245.287 30.6073 242.188 32.7148 240.067C33.5821 239.191 32.6716 238.103 32.396 238.024C30.3884 237.442 30.61 235.324 29.4076 234.246C31.3098 233.339 32.7364 231.367 35.3789 231.826C32.9904 230.733 31.8934 228.079 29.1158 227.733C27.3893 227.518 27.7244 226.307 28.3701 225.47C29.6373 223.826 28.3863 222.675 27.3164 222.452C19.6564 220.855 17.0626 213.915 17.041 206.602C17.0329 203.571 19.6105 202.771 22.0044 202.396C24.1362 202.063 26.3653 202.32 28.5484 202.318C28.7916 202.318 29.205 202.255 29.2509 202.349C31.0909 206.235 34.4981 203.631 37.1351 204.179C37.97 204.352 38.8292 204.851 39.1291 203.618C39.3453 202.74 38.7076 202.564 37.9376 202.265C34.4062 200.894 31.3206 198.754 28.2134 196.659C24.2956 194.019 23.5823 189.84 25.2764 185.618C27.1462 180.956 30.0372 177.141 33.293 173.434C34.0441 172.576 34.7601 171.071 33.8361 170.248C32.7796 169.307 31.1314 169.663 29.7184 170.156C27.1921 171.037 25.0224 173.022 22.0855 172.605C21.4991 172.521 20.7291 173.656 20.3616 172.448C20.0806 171.522 20.7642 171.375 21.5505 171.139C22.4259 170.877 23.2068 170.279 23.993 169.776C25.3196 168.926 28.0324 168.344 27.2245 166.732C26.2302 164.744 24.9062 161.868 21.3721 162.71C20.6859 162.872 20.005 162.911 19.3079 163.195C16.9977 164.136 15.5549 164.555 14.8903 160.932C14.312 157.78 12.0965 154.66 8.92988 152.686C7.02771 151.5 5.80915 150.716 8.19492 148.168C10.5294 145.677 14.0121 144.589 15.7711 141.458C16.5249 140.121 17.6462 139.054 17.3436 137.412C16.9032 135.024 19.4376 134.373 20.4886 133.663C24.0902 131.224 26.8462 127.947 28.7484 124.52C30.8315 120.77 34.3548 118.77 37.4215 116.861C39.2453 115.728 41.6122 113.565 45.149 114.021C41.2122 111.861 38.7238 115.157 35.5167 115.227C36.2975 112.089 39.4047 112.477 41.2555 111.239C43.5224 109.724 46.4594 109.116 47.9968 106.622C48.2778 106.166 49.3612 106.389 48.9613 105.534C48.6047 104.773 47.8157 104.582 47.1024 104.829C46.1 105.177 45.176 105.736 44.206 106.179C42.3876 107.01 40.5233 107.728 39.221 105.474C38.5536 104.317 37.4215 104.595 36.6785 104.802C29.286 106.861 22.334 103.428 15.128 103.067C10.8266 102.852 6.54946 100.395 2.11294 99.3957C0.74847 99.0863 1.60226 96.9782 2.55033e-05 96.7816C1.09701 96.2834 1.43206 94.9855 2.99105 94.7783C6.48464 94.3169 9.96737 93.5801 13.3421 92.5968C14.4823 92.2638 15.2983 91.8102 16.2304 92.7069C16.8897 93.3415 17.7273 93.7846 18.446 93.1684C19.1025 92.6047 18.5865 91.6267 18.654 90.8558C18.7972 89.2616 15.1523 87.1063 19.3079 86.0365C19.3457 86.026 19.2998 85.3941 19.1674 85.111C17.8894 82.3972 17.8867 82.329 20.7723 82.1402C22.9663 81.9986 25.3602 82.0799 27.319 81.7941C29.8777 81.4218 32.9282 80.2655 35.1924 77.7326C35.3978 79.4448 36.3947 79.7411 37.8889 80.1685C39.8316 80.7243 42.4849 79.0489 43.7656 81.7286C45.0949 80.7138 46.4296 79.4867 48.2886 80.1842C50.569 81.039 53.306 79.8538 55.3297 81.7731C55.8647 82.2818 56.4645 82.169 56.6266 81.3693C56.8104 80.4621 56.3916 79.0095 58.2586 79.9272C58.337 79.3425 58.4153 78.7578 58.4964 78.1705C55.7918 78.2963 55.3406 74.3214 52.2334 74.9874C51.3012 75.1866 50.1502 74.8327 49.2126 74.463C48.3237 74.1142 46.7161 75.0791 46.5756 73.3984C46.408 71.3821 48.5804 72.777 49.5639 71.3559C46.0649 69.8928 43.9358 66.1171 39.3669 66.5471C38.5563 66.6231 37.7079 66.6965 36.9216 66.1538C36.1705 65.6346 34.852 65.5376 35.0006 64.3682C35.1735 63.01 36.4272 63.0336 37.5431 63.0362C39.9072 63.0414 42.2714 63.0047 44.6356 63.0257C45.792 63.0362 47.0727 62.9523 47.0673 61.6046C47.0619 60.5086 46.3621 59.9396 44.7923 59.9815C41.7472 60.0602 39.0534 58.0203 35.9246 58.0622C34.6412 58.078 34.7817 56.7538 33.2389 55.7418C40.7826 56.2793 47.4753 56.6804 54.149 57.273C56.3619 57.4697 58.3208 56.531 60.5309 56.586C66.1482 56.7198 71.806 58.2064 77.4124 56.1167C80.4035 55.0023 83.6052 54.4386 86.653 53.4501C89.8007 52.4301 92.916 51.3944 96.2339 50.9461C97.5957 50.7625 98.8683 49.9497 100.965 49.108C97.8443 48.1982 95.4098 47.4745 92.9646 46.7876C92.2837 46.5961 91.4326 46.7089 90.8977 46.3497C84.3996 41.9762 77.2638 44.3543 70.3335 44.3858C66.7183 44.4041 62.0845 45.3114 59.7663 43.5362C57.3183 41.6615 54.9785 41.5855 52.5846 40.6625C51.6687 40.3112 51.8064 39.8943 50.6419 40.597C48.6587 41.7926 46.0297 42.1466 43.6575 41.4517C42.1903 41.0218 40.6476 40.8303 39.3966 41.2027C35.8868 42.2436 32.5337 41.1292 29.0564 40.6861C34.779 38.2319 41.1501 39.1995 47.0889 37.4768C37.6485 36.5512 28.1864 37.7364 18.146 37.5738C19.6726 36.5905 21.31 37.0782 21.9044 35.7122C19.7294 35.0724 17.295 35.6807 15.2847 34.9964C11.14 33.5857 7.0331 32.3167 2.61818 32.1174C2.22911 32.099 1.20238 31.8604 1.95619 31.0555C2.81541 30.1378 3.50709 28.811 5.16066 29.1702C5.71184 29.2882 6.14686 30.025 6.7845 29.6475C9.57289 27.993 12.9097 29.1938 16.0899 27.9956C14.7876 26.3935 14.6849 24.0966 11.802 24.1674C10.3997 24.2015 9.52427 22.7883 10.3159 21.6555C11.0481 20.6068 9.86201 18.4645 12.618 18.4305C19.805 18.3439 26.8273 16.6291 34.1819 17.2715C39.8153 17.7618 45.4678 18.7765 51.1931 18.5196C53.8761 18.399 56.4754 17.7172 59.2178 17.8274C60.9956 17.8982 62.9545 17.3135 63.4031 14.8252C63.6219 13.6138 64.8405 12.7328 66.44 12.8324C72.549 13.2153 77.8771 8.99382 84.0969 9.98757C88.0931 5.87099 93.8536 7.54906 98.6819 6.10695C103.329 4.7173 108.701 4.9218 113.726 4.58354C118.727 4.24531 123.434 3.0182 128.287 2.26045C138.576 0.65577 148.921 -0.288141 159.38 0.078923C166.629 0.333255 173.417 2.99198 180.482 3.73926C186.688 4.39737 192.479 7.09543 198.904 6.69165C200.441 6.59463 203.765 5.31247 204.41 9.08554C204.508 9.64929 207.685 9.93509 209.447 9.96917C215.029 10.0793 220.619 9.89837 226.201 10.0662C228.438 10.1344 231.202 9.88528 231.737 13.1602C231.797 13.522 232.418 14.1067 232.726 14.0779C236.196 13.7554 238.976 17.3659 242.653 15.7009C246.436 18.9496 251.267 15.7691 255.771 18.0659C259.997 20.2239 265.387 21.7053 270.677 21.2989C273.069 21.118 275.036 21.7184 277.067 23.7636Z" fill="#9B553A"/>
</svg>
