<svg width="1231" height="34" viewBox="0 0 1231 34" fill="none" xmlns="http://www.w3.org/2000/svg">
<g clip-path="url(#clip0_2602_1483)">
<mask id="mask0_2602_1483" style="mask-type:luminance" maskUnits="userSpaceOnUse" x="0" y="0" width="1231" height="42">
<path d="M0 0H1231V42H0V0Z" fill="white"/>
</mask>
<g mask="url(#mask0_2602_1483)">
<path d="M-810.194 6.39003C-809.23 6.21039 -808.257 6.08519 -807.279 6.01503C-803.29 5.73103 -801.232 6.47903 -798.235 6.83803C-791.763 7.60803 -791.301 5.30503 -786.507 6.56103C-782.987 7.48103 -782.764 8.85003 -779.856 9.50803C-775.427 10.51 -773.235 7.54103 -768.053 6.43403C-764.191 5.61103 -763.348 6.66603 -755.944 7.39903C-744.992 8.47603 -742.941 6.53903 -731.265 7.52603C-726.396 7.93703 -724.95 8.42303 -720.282 9.08103C-707.495 10.876 -697.445 10.151 -689.273 9.59703C-614.318 4.53503 -596.729 7.39903 -592.628 8.16903C-590.965 8.48303 -587.647 9.17903 -582.935 9.46303C-569.477 10.27 -568.418 6.25503 -559.419 7.90703C-553.805 8.93903 -548.861 11.482 -544.559 8.68503C-543.769 8.16903 -543.277 7.66003 -543.135 7.51803C-534.493 -1.07397 -455.885 11.743 -434.74 8.68503C-431.951 8.28103 -426.031 7.00203 -418.59 8.68503C-414.198 9.68003 -412.998 10.861 -407.48 11.795C-402.768 12.596 -401.396 12.117 -395.595 12.701C-388.072 13.463 -387.923 14.525 -383.711 14.772C-375.285 15.273 -374.1 11.16 -361.745 8.68503C-360.232 8.38503 -353.723 7.13703 -345.335 7.51803C-337.797 7.86203 -335.09 9.23803 -328.536 10.113C-318.493 11.452 -311.111 10.061 -305.795 9.33603C-289.183 7.07003 -274.793 8.87903 -239.772 8.94603C-222.646 8.97603 -197.81 8.60303 -166.644 6.61303C-166.644 6.61303 -163.542 8.94703 -161.477 9.07303C-160.179 9.15603 -159.896 8.57303 -158.807 8.05703C-157.95 7.65303 -157.234 7.45803 -155.661 7.38403C-153.178 7.27203 -151.941 7.21203 -148.429 8.93903C-142.889 11.661 -126.098 9.94903 -116.905 9.32803C-99.055 8.11703 -100.867 10.42 -76.725 9.45503C-65.078 8.99203 -66.629 8.53503 -52.694 7.77303C-24.167 6.21003 -9.90399 5.42403 -1.01599 7.51003C2.81601 8.40703 12.069 10.912 24.178 9.45403C27.235 9.08803 29.412 8.59403 30.247 8.41403C46.21 5.04203 72.477 10.957 79.859 12.43C115.238 19.49 143.474 9.56603 174.431 9.19203C175.945 9.17703 180.97 9.13203 187.867 8.80403C193.347 8.54203 195.8 8.29503 198.589 8.15303C207.439 7.71903 212.062 8.75103 219.518 9.31903C232.186 10.284 233.155 8.39903 253.368 8.15303C262.613 8.04103 268.668 8.36303 273.783 8.54203C325.542 10.382 383.513 1.77403 404.017 8.02603C406.507 8.78903 413.203 11.211 421.591 9.97003C425.371 9.41003 426.661 8.52703 431.283 7.76403C437.203 6.79203 441.632 7.17403 447.045 7.63703C473.089 9.85003 478.137 10.187 485.548 9.19203C490.447 8.53403 489.753 8.19003 494.592 7.51003C508.237 5.58803 519.622 7.51003 527.153 9.45403C527.153 9.45403 528.965 10.748 529.994 10.748C531.022 10.748 537.748 7.63703 540.849 7.89803C543.951 8.16003 549.506 8.41503 551.959 8.41503C554.412 8.41503 559.452 8.28703 560.228 8.28703C561.003 8.28703 564.88 6.60503 569.011 6.99403C573.149 7.38303 584.9 7.51003 584.9 7.51003C599.402 9.05383 613.989 9.66076 628.569 9.32703C644.16 8.96703 655.135 7.63703 661.257 6.99403C679.569 5.06403 704.382 5.87903 754.024 7.51003C777.235 8.27203 819.279 9.94803 835.936 7.89903C838.009 7.64403 842.646 6.97103 849.111 6.99403C859.765 7.03103 859.974 8.90803 867.713 8.16003C871.583 7.78603 876.638 6.82203 881.798 7.38303C882.282 7.43503 883.483 7.57703 885.161 7.64403C889.038 7.78603 891.893 7.36003 892.654 7.25503C897.769 6.55203 927.966 4.02503 958.028 6.86703C965.149 7.54003 963.337 7.66703 969.138 8.16003C987.136 9.68603 993.467 7.48703 1017.71 6.86703C1030.54 6.53703 1041.45 6.82203 1043.03 6.86703C1052.67 7.13603 1056.75 7.55503 1065.39 7.64403C1075.13 7.74903 1083.07 7.35303 1088.25 6.99403C1088.25 6.99403 1088.9 8.28703 1092.39 8.28703C1095.88 8.28703 1098.21 7.24703 1100.15 7.51003C1102.09 7.77103 1107.77 8.02603 1108.54 8.02603C1108.54 8.02603 1113.47 8.56403 1122.88 8.80303C1132.27 9.04303 1132.66 7.42703 1141.48 7.24803C1155.89 6.94803 1160.32 11.122 1174.68 8.80303C1176.39 8.52703 1176.77 8.40003 1178.69 8.02603C1206.23 2.69403 1230.04 9.81303 1250.78 7.89803C1252.45 7.74103 1256.46 7.31503 1262.02 7.24803C1269.24 7.16603 1272.86 7.12103 1275.2 7.63703C1277.56 8.15303 1282.31 9.47703 1285.41 8.15303C1285.74 8.01103 1286.28 7.74103 1287.08 7.63703C1289.05 7.36703 1290.01 8.37703 1291.99 8.54203C1293.37 8.65403 1294.29 8.28703 1295.22 8.02603C1298.9 6.98603 1303.27 7.49503 1306.59 7.63603C1315.34 8.01803 1316.74 5.84903 1325.19 5.99203C1328.64 6.05203 1333.67 6.50003 1339.79 8.41403V141.5H-810.194V6.39003Z" fill="#30453A"/>
<path d="M87.1 7.21998C88.89 5.19998 92.908 4.96898 94.4 7.21998C95.532 8.93198 94.928 11.677 93.199 12.955C90.85 14.69 87.003 13.299 86.205 10.921C85.75 9.59098 86.309 8.11698 87.1 7.21998ZM98.008 9.10498C98.955 7.83398 104.815 9.68098 104.927 11.52C104.994 12.597 103.108 13.936 101.318 13.786C98.634 13.554 97.314 10.047 98.008 9.10498ZM470.831 6.84598C471.092 5.77698 479.047 6.26298 479.181 7.37698C479.256 7.96098 477.168 8.88798 475.267 8.88798C472.911 8.87998 470.681 7.44498 470.831 6.84598ZM973.82 6.68998C973.724 7.24998 976.825 8.85798 979.838 8.04998C980.419 7.89298 981.925 7.39998 981.866 6.99598C981.754 6.09098 973.97 5.83698 973.82 6.68998ZM1161.93 7.75098C1161.83 8.62598 1168.31 11.221 1171.41 8.80498C1171.56 8.69298 1172.48 7.97498 1172.31 7.44498C1172.03 6.53998 1168.74 6.80898 1166.45 6.98798C1163.46 7.23498 1161.97 7.35498 1161.93 7.75098Z" fill="#30453A"/>
</g>
</g>
<defs>
<clipPath id="clip0_2602_1483">
<rect width="1231" height="34" fill="white"/>
</clipPath>
</defs>
</svg>
