<svg width="1000" height="90" viewBox="0 0 1000 90" fill="none" xmlns="http://www.w3.org/2000/svg">
<g clip-path="url(#clip0_1014_16440)">
<path d="M1679.65 110.962L1673.68 3.97563C1671.3 6.56621 1667.51 9.94597 1662.13 11.9189C1646.27 17.7692 1634.92 4.7305 1614.11 0.252742C1598.92 -3.02408 1601.36 3.13497 1554.53 8.24751C1527.55 11.1984 1514.08 12.6566 1505.29 10.7008C1495.94 8.60778 1484.15 4.23296 1468.21 7.02941C1461.75 8.16172 1457.16 10.0317 1455.45 10.7008C1448.59 13.3429 1422.42 21.8695 1332.66 13.7546C1293.86 10.2376 1285.49 7.45831 1264.57 10.0832C1255.9 11.1812 1247.44 12.8968 1230.53 14.3551C1219.12 15.333 1204.91 16.5168 1189.19 15.5732C1169.03 14.3722 1154.8 10.1861 1147.24 8.23033C1085.97 -7.53617 1022.2 10.6322 969.732 9.44841C965.364 9.34548 954.701 8.96804 940.557 10.6665C932.214 11.6616 931.583 12.3135 921.107 13.7203C902.595 16.2079 900.719 14.681 890.704 16.7741C881.303 18.7299 881.797 20.3083 863.354 27.1707C846.242 33.5356 837.694 36.7095 830.528 36.9497C818.5 37.3615 809.389 33.2955 792.839 25.9526C777.314 19.0559 771.291 13.583 758.188 13.1198C752.233 12.9139 752.643 14.0119 742.986 14.3379C726.573 14.9041 721.182 11.8674 711.371 11.8846C696.153 11.9189 696.596 19.2617 675.508 24.7174C665.22 27.3766 645.804 32.4033 626.883 24.7174C613.9 19.4504 612.756 12.9139 601.957 12.485C590.491 12.0218 585.987 19.1588 574.607 16.7569C567.629 15.2815 566.913 12.1076 558.808 8.81362C552.854 6.3946 545.449 4.95348 530.845 6.36028C492.337 10.1175 480.565 26.3472 462.753 18.5926C456.901 16.0364 454.785 12.811 446.34 10.6493C437.69 8.41902 428.869 8.98517 422.027 9.43123C416.158 9.80867 415.595 10.2547 410.477 10.6493C397.92 11.6444 388.706 9.99738 384.339 9.43123C368.25 7.35534 356.392 12.1762 341.788 14.9384C296.353 23.4993 284.086 0.76737 239.044 7.59552C228.278 9.22535 213.452 12.8968 196.493 11.2669C193.524 10.9753 187.109 10.2204 178.254 10.6493C169.024 11.1125 165.151 12.485 159.401 13.1026C146.349 14.4751 145.019 9.60278 127.787 7.59551C117.567 6.41174 101.12 6.15439 85.2355 9.43122C80.2195 10.4606 77.1654 11.4556 72.4735 10.6493C63.0897 9.03662 59.2852 2.29426 52.4094 3.92409C49.4578 4.62749 49.6967 5.98283 45.7213 7.59551C38.9991 10.3062 32.584 8.74497 29.9224 8.21313C20.3168 6.25732 17.0411 8.77928 -4.72925 8.83075C-29.4512 8.88222 -53.286 5.69117 -70.3815 4.55886C-143.08 -0.279175 -201.498 24.9061 -221.136 8.23027C-222.996 6.65191 -230.997 -0.811021 -239.375 0.938906C-243.418 1.77956 -268.862 5.18782 -270.5 7.09216L-276.466 11.9965L-270.5 110.945L1679.65 110.945L1679.65 110.962Z" fill="#212C26"/>
<path d="M32.2939 5.79414C32.7204 7.38966 35.8768 7.88719 37.873 7.74994C40.7222 7.56122 44.1686 5.84561 44.1003 4.09568C44.0321 2.31144 40.3469 0.475734 37.2246 1.09336C34.4778 1.64235 31.8503 4.12999 32.2939 5.79414Z" fill="#212C26"/>
<path d="M71.0745 6.22289C72.4394 7.57823 75.1009 8.79632 76.9435 7.52676C78.0867 6.73758 78.8033 5.05628 78.3767 3.78672C77.4042 0.870174 70.6308 0.321177 69.4877 2.20835C68.8394 3.28919 70.102 5.26215 71.0745 6.22289Z" fill="#212C26"/>
<path d="M81.0213 7.73297C80.7824 7.06388 81.482 6.1546 82.1645 5.70854C83.7512 4.71348 86.3274 5.63992 86.4639 6.56635C86.5662 7.28691 85.2526 8.16187 84.1777 8.43637C83.0004 8.74518 81.3113 8.57362 81.0213 7.73297Z" fill="#212C26"/>
<path d="M145.155 7.73299C144.37 4.54195 154.573 -2.52639 158.292 -0.0559048C160.374 1.33374 160.579 5.79434 158.719 8.38492C155.341 13.12 145.838 10.4608 145.155 7.73299Z" fill="#212C26"/>
<path d="M162.592 9.24276C161.687 7.99036 162.831 5.29684 164.537 4.04444C168.034 1.48818 173.886 5.0395 173.801 6.85806C173.682 9.12267 164.332 11.6446 162.592 9.24276Z" fill="#212C26"/>
<path d="M288.198 5.72517C287.635 7.54372 293.93 13.0852 300.721 11.9185C303.638 11.421 307.494 9.53384 307.289 7.98978C306.88 4.81589 289.068 2.99734 288.198 5.72517Z" fill="#212C26"/>
<path d="M313.943 12.2107C314.677 12.691 316.878 13.9777 319.795 13.6861C324.334 13.2229 327.627 9.22549 327.098 8.29906C326.688 7.56134 323.566 8.14465 313.943 12.2107Z" fill="#212C26"/>
<path d="M330.339 12.7077C330.732 14.0802 337.096 14.8351 338.614 11.8842C339.16 10.8205 339.177 9.10493 338.29 8.453C336.294 7.01188 329.896 11.1808 330.339 12.7077Z" fill="#212C26"/>
<path d="M392.63 7.14964C392.613 8.83094 397.527 11.3186 402.048 9.91178C405.938 8.69369 408.822 4.79925 408.037 3.37529C406.638 0.836174 392.648 4.33603 392.63 7.14964Z" fill="#212C26"/>
<path d="M463.282 12.8454C462.565 14.5782 467.718 20.4113 473.74 19.6564C476.504 19.3133 479.951 17.5119 479.78 15.9507C479.456 12.7939 464.34 10.3063 463.282 12.8454Z" fill="#212C26"/>
<path d="M486.553 14.7665C488.14 13.3597 489.13 10.4946 487.731 8.84765C486.314 7.18351 483.039 7.42369 481.537 9.29371C479.848 11.4039 480.855 15.0239 482.868 15.8131C484.574 16.4821 486.417 14.8866 486.553 14.7665Z" fill="#212C26"/>
<path d="M574.761 15.247C578.361 17.0313 584.486 17.2715 586.926 13.1368C589.058 9.48257 587.301 4.23278 584.127 2.32845C578.907 -0.811127 569.966 5.17637 570.103 9.86C570.171 12.7937 573.874 14.801 574.761 15.247Z" fill="#212C26"/>
<path d="M623.829 18.1982C624.307 22.7789 631.933 25.8327 637.751 25.9185C647.869 26.0557 658.106 17.2718 656.945 12.245C655.751 7.02957 641.897 4.07871 632.309 8.71088C631.729 9.00253 623.318 13.1543 623.829 18.1982Z" fill="#212C26"/>
<path d="M663.088 20.188C665.135 21.9208 668.957 20.4625 671.038 18.867C674.792 16.0019 676.378 10.0315 674.553 8.33308C672.215 6.17141 662.968 9.84283 661.876 15.4186C661.586 16.8769 661.723 19.0557 663.088 20.188Z" fill="#212C26"/>
<path d="M811.402 26.5529C813.62 27.0504 818.449 28.1141 821.861 25.3348C826.416 21.6291 826.331 12.828 822.663 8.35023C816.145 0.372613 797.463 5.00478 795.723 11.5927C794.341 16.7396 802.889 24.6657 811.402 26.5529Z" fill="#212C26"/>
<path d="M836.346 10.2715C834.913 12.0386 831.774 15.8815 832.695 20.2049C833.923 25.9694 841.771 29.8638 847.402 28.6114C857.417 26.3811 861.767 7.5265 856.717 2.98012C852.759 -0.588365 841.857 3.4948 836.346 10.2715Z" fill="#212C26"/>
</g>
<defs>
<clipPath id="clip0_1014_16440">
<rect width="90" height="1000" fill="white" transform="translate(1000) rotate(90)"/>
</clipPath>
</defs>
</svg>
