<svg width="2150" height="26" viewBox="0 0 2150 26" fill="none" xmlns="http://www.w3.org/2000/svg">
<g clip-path="url(#clip0_979_2010)">
<path d="M0.0148806 3.93533C0.685921 3.8082 3.06748 2.01882 4.29773 1.92909C8.28669 1.64492 8.97702 1.97604 11.9743 2.33499C18.4461 3.10524 18.9084 0.801964 23.7026 2.0583C27.2219 2.97811 27.4455 4.34662 30.3534 5.0047C34.7823 6.00677 36.9743 3.03794 42.1563 1.93117C46.0185 1.10857 46.861 2.163 54.2648 2.89586C65.2177 3.97271 67.2681 2.03587 78.9442 3.02299C83.813 3.43429 85.2594 3.92037 89.9269 4.57845C102.714 6.37321 112.765 5.64783 120.936 5.09445C195.892 0.0317316 213.48 2.89587 217.581 3.66612C219.244 3.9802 222.562 4.67568 227.274 4.95985C240.732 5.76749 241.791 1.75171 250.79 3.40439C256.405 4.43638 261.348 6.97896 265.65 4.18212C266.44 3.66613 266.933 3.15761 267.074 3.01553C275.716 -5.57689 354.324 7.2407 375.47 4.18213C378.258 3.77831 384.178 2.49954 391.619 4.18213C396.011 5.17673 397.211 6.35828 402.729 7.29305C407.441 8.09321 408.813 7.61462 414.614 8.19791C422.137 8.96069 422.286 10.0226 426.499 10.2694C434.924 10.7704 436.109 6.65741 448.464 4.18214C449.978 3.88301 456.487 2.63416 464.875 3.01555C472.413 3.35954 475.119 4.73552 481.673 5.61047C491.716 6.94906 499.098 5.55813 504.414 4.83275C521.026 2.56686 535.416 4.37658 570.437 4.44388C587.563 4.4738 612.399 4.09989 643.565 2.1107C643.565 2.1107 646.667 4.44389 648.732 4.57102C650.03 4.65328 650.313 4.06998 651.402 3.55399C652.259 3.15016 652.975 2.95574 654.548 2.88096C657.031 2.76878 658.269 2.70895 661.78 4.43641C667.32 7.15847 684.111 5.44597 693.305 4.82528C711.154 3.61382 709.342 5.91709 733.485 4.95241C745.131 4.48877 743.58 4.0326 757.516 3.26983C786.042 1.70689 800.306 0.921686 809.193 3.0081C813.026 3.90548 822.279 6.41066 834.387 4.95242C837.444 4.58599 839.621 4.09243 840.456 3.91296C856.42 0.540303 882.687 6.45554 890.069 7.92874C925.447 14.9881 953.683 5.06461 984.641 4.6907C986.154 4.67574 991.18 4.63087 998.076 4.30183C1003.56 4.0401 1006.01 3.79332 1008.8 3.65124C1017.65 3.2175 1022.27 4.24949 1029.73 4.81783C1042.39 5.78252 1043.36 3.89802 1063.58 3.65124C1072.82 3.53907 1078.88 3.86063 1083.99 4.04011C1135.75 5.87974 1193.72 -2.72762 1214.23 3.52413C1216.72 4.2869 1223.41 6.70983 1231.8 5.46845C1235.58 4.90759 1236.87 4.02516 1241.49 3.26239C1247.41 2.29023 1251.84 2.67162 1257.25 3.13526C1283.3 5.3488 1288.35 5.68532 1295.76 4.69073C1300.66 4.03265 1299.96 3.68865 1304.8 3.00814C1318.45 1.08625 1329.83 3.00814 1337.36 4.95247C1337.36 4.95247 1339.17 6.24619 1340.2 6.24619C1341.23 6.24619 1347.96 3.13527 1351.06 3.39701C1354.16 3.65874 1359.72 3.913 1362.17 3.913C1364.62 3.913 1369.66 3.78588 1370.44 3.78588C1371.21 3.78588 1375.09 2.10329 1379.22 2.49215C1383.36 2.88102 1395.11 3.00815 1395.11 3.00815C1405.11 4.07753 1420.28 5.24412 1438.78 4.82535C1454.37 4.4664 1465.34 3.13528 1471.47 2.49216C1489.78 0.562792 1514.59 1.37792 1564.23 3.00816C1587.44 3.77094 1629.49 5.44605 1646.15 3.39703C1648.22 3.14277 1652.86 2.46974 1659.32 2.49218C1669.97 2.52957 1670.18 4.40659 1677.92 3.65878C1681.79 3.28487 1686.85 2.32018 1692.01 2.88105C1692.49 2.93339 1693.69 3.07548 1695.37 3.14278C1699.25 3.28487 1702.1 2.85861 1702.86 2.75391C1707.98 2.05097 1738.17 -0.47665 1768.24 2.36506C1775.36 3.03809 1773.55 3.16522 1779.35 3.65878C1797.35 5.18433 1803.68 2.98575 1827.92 2.36506C1840.75 2.03602 1851.66 2.3202 1853.24 2.36506C1862.88 2.63428 1866.96 3.05306 1875.6 3.1428C1885.34 3.24749 1893.27 2.85115 1898.46 2.4922C1898.46 2.4922 1899.11 3.78592 1902.6 3.78592C1906.09 3.78592 1908.42 2.74646 1910.36 3.00819C1912.29 3.26993 1917.98 3.52419 1918.75 3.52419C1918.75 3.52419 1923.68 4.06261 1933.09 4.30191C1942.48 4.54122 1942.86 2.92594 1951.69 2.74646C1966.1 2.44734 1970.53 6.62015 1984.89 4.30192C1986.6 4.02523 1986.98 3.8981 1988.9 3.5242C2016.44 -1.80774 2040.25 5.31148 2060.99 3.39707C2062.66 3.24003 2066.66 2.81378 2072.23 2.74647C2079.45 2.66421 2083.07 2.61934 2085.41 3.13534C2087.76 3.65133 2092.51 4.97497 2095.62 3.65133C2095.95 3.50925 2096.49 3.24003 2097.29 3.13534C2099.26 2.86612 2100.22 3.87567 2102.2 4.04019C2103.58 4.15237 2104.5 3.78594 2105.43 3.52421C2109.11 2.48474 2113.48 2.99325 2116.8 3.13534C2125.55 3.51673 2126.95 1.34806 2135.4 1.49015C2138.85 1.54997 2143.88 1.99866 2150 3.91307L2150 136.997L0.0148806 136.996L0.0148806 3.93533Z" fill="#B56647"/>
</g>
<defs>
<clipPath id="clip0_979_2010">
<rect width="2150" height="26" fill="white" transform="matrix(-1 0 0 1 2150 0)"/>
</clipPath>
</defs>
</svg>
