<svg width="794" height="302" viewBox="0 0 794 302" fill="none" xmlns="http://www.w3.org/2000/svg">
<g clip-path="url(#clip0_2618_1378)">
<path d="M-362.829 205.353C-299.089 200.452 -214.637 188.989 -118.267 160.977C-43.637 139.281 -40.5342 130.525 7.05481 123.655C120.027 107.352 137.945 151.564 266.781 139.794C311.966 135.672 344.801 127.018 391.075 140.798C411.747 146.95 427.753 155.399 460.815 160.977C489.726 165.857 503.062 163.725 531.562 165.017C582.253 167.313 592.795 176.48 641.719 183.165C685.363 189.132 716.986 187.328 772.075 184.17C851.616 179.617 883.548 168.79 920.205 190.219C938.082 200.677 949.507 214.376 956 223.501V519H-379L-362.829 205.353Z" fill="#EDCC94"/>
<path d="M615.374 311C619.062 297.775 622.673 284.549 626.229 271.324L631.547 251.469L634.156 241.531C635.059 238.233 635.885 234.902 636.732 231.582L639.165 221.588L641.686 211.628C643.371 204.988 645 198.315 646.938 191.741C648.853 185.155 650.791 178.581 652.883 172.051C654.997 165.532 657.287 159.067 659.477 152.581C668.725 126.768 677.885 100.966 688.057 75.5485C698.12 50.0982 708.722 24.8897 720.711 0.197886L720.359 0C718.608 2.9573 716.913 5.93658 715.206 8.91587C713.5 11.8952 711.782 14.8744 710.12 17.8867C709.294 19.3928 708.403 20.877 707.643 22.4051L705.331 27.0114L700.74 36.2461C699.232 39.3354 697.691 42.4136 696.215 45.5138L692.065 54.9464L687.958 64.4009L685.922 69.1392C685.25 70.7223 684.645 72.3274 684.006 73.9214C681.529 80.3308 679.019 86.7291 676.619 93.1604C674.252 99.6137 672.083 106.133 669.804 112.608C668.692 115.862 667.514 119.083 666.457 122.349L663.353 132.166C662.307 135.431 661.283 138.718 660.292 141.994C659.279 145.27 658.277 148.557 657.353 151.867C655.415 158.452 653.576 165.059 651.562 171.622C649.635 178.207 647.709 184.793 645.672 191.334L639.507 210.969L636.413 220.786L633.452 230.647C631.525 237.232 629.686 243.851 628.046 250.513L625.525 260.495L623.169 270.521C620.053 283.89 617.257 297.335 615 310.879L615.374 311Z" fill="#B56647"/>
<path d="M647.918 185.98C674.109 162.256 702.92 140.411 738.612 128.461C755.886 122.7 774.216 120.59 793.383 120.612C802.73 120.743 812.341 121.062 820.741 123.866C829.78 126.251 835.989 133.452 833.886 141.741C839.512 133.683 833.05 122.799 823.582 118.875C809.633 112.278 793.956 111.311 778.741 111.069C722.263 110.135 672.887 145.029 647.918 185.98Z" fill="#B56647"/>
<path d="M675.848 101.285C676.839 99.097 678.028 97.0301 679.261 95.0073C680.505 92.9845 681.826 91.0166 683.246 89.1257C686.032 85.3109 689.125 81.7379 692.417 78.3959C699.023 71.7117 706.498 65.951 714.579 61.1578C722.616 56.2986 731.247 52.4288 740.142 49.2297C749.049 46.0415 758.253 43.5679 767.61 41.4242C758.021 41.8859 748.454 43.502 739.162 46.1844L735.673 47.2068L732.238 48.4051C729.937 49.1637 727.713 50.1421 725.445 51.0216C721.008 53.0005 716.627 55.1223 712.454 57.6398C708.304 60.1904 704.285 62.9498 700.509 66.039C696.788 69.1832 693.232 72.5253 690.061 76.2301C688.465 78.0661 686.946 79.968 685.514 81.9248C684.127 83.9147 682.762 85.9265 681.551 88.0263C680.34 90.1261 679.206 92.2589 678.237 94.4796C677.279 96.6893 676.432 98.954 675.848 101.285Z" fill="#B56647"/>
<path d="M659.268 143.599C658.784 138.883 658.729 134.178 658.971 129.516C659.169 124.844 659.764 120.216 660.6 115.653C662.34 106.54 665.268 97.6898 669.639 89.5764C670.663 87.5096 671.885 85.5527 673.063 83.5739C674.351 81.661 675.595 79.7151 677.015 77.8902C678.336 75.9883 679.856 74.2513 681.32 72.4483C682.068 71.5688 682.883 70.7443 683.665 69.8868C684.435 69.0183 685.206 68.1498 686.054 67.3582C692.604 60.762 700.025 54.9794 707.918 49.7024C699.21 53.4732 691.041 58.6622 683.852 65.0386C682.927 65.8081 682.057 66.6436 681.199 67.4902C680.351 68.3367 679.47 69.1722 678.656 70.0517C677.059 71.8546 675.397 73.6136 673.933 75.5375C672.38 77.3955 671.07 79.4293 669.694 81.4191C668.428 83.4859 667.118 85.5198 666.028 87.6745C663.815 91.9731 661.888 96.4365 660.468 101.054C659.081 105.682 658.013 110.398 657.463 115.181C656.868 119.952 656.714 124.767 656.978 129.538C657.287 134.277 657.903 139.048 659.268 143.599Z" fill="#B56647"/>
</g>
<defs>
<clipPath id="clip0_2618_1378">
<rect width="794" height="302" fill="white"/>
</clipPath>
</defs>
</svg>
