<svg width="1920" height="280" viewBox="0 0 1920 280" fill="none" xmlns="http://www.w3.org/2000/svg">
<g clip-path="url(#clip0_2612_1566)">
<mask id="mask0_2612_1566" style="mask-type:luminance" maskUnits="userSpaceOnUse" x="0" y="0" width="1920" height="280">
<path d="M0 0H1920V280H0V0Z" fill="white"/>
</mask>
<g mask="url(#mask0_2612_1566)">
<path d="M2027.74 133.27C1928.2 125.618 1796.98 114.027 1646.47 70.2892C1529.91 36.4132 1524.38 16.4333 1450.06 5.707C1273.62 -19.7481 1245.64 49.2848 1044.42 30.9059C973.851 24.4701 922.569 10.9581 850.3 32.4748C818.01 42.0805 793.01 55.2723 741.38 63.9815C696.23 71.602 675.4 68.272 630.89 70.2892C551.72 73.8753 535.25 88.1878 458.84 98.6259C390.68 107.943 341.29 105.126 255.25 100.195C131.03 93.0867 116.52 159.175 -0.0100098 123.485C-39.8 111.295 -21.86 147.359 -32 161.607V623H2053L2027.74 133.27Z" fill="#30453A"/>
</g>
</g>
<defs>
<clipPath id="clip0_2612_1566">
<rect width="1920" height="280" fill="white" transform="matrix(-1 0 0 1 1920 0)"/>
</clipPath>
</defs>
</svg>
