<svg width="250" height="211" viewBox="0 0 250 211" fill="none" xmlns="http://www.w3.org/2000/svg">
<path d="M211.055 70.3719C211.956 72.6508 211.956 72.6508 216.038 73.2294C216.289 74.0421 214.924 73.6629 215.251 74.7629C217.256 74.2561 219.377 73.8701 221.465 74.5995C223.546 75.3259 225.571 72.7225 227.707 74.4709C226.106 75.8781 224.611 76.2973 222.002 76.0993C223.8 77.6076 223.929 79.2538 222.324 80.4659C223.547 81.9793 225.52 81.851 226.865 81.6005C228.507 81.2941 230.051 81.7079 231.647 81.5118C233.118 81.3304 234.461 82.7239 236.228 82.3537C236.806 82.2325 236.592 83.3406 236.038 83.9636C235.127 84.9897 233.633 85.3496 233.144 86.9419C233.325 87.5301 236.081 86.9302 234.333 89.0811C233.919 89.5905 235.35 89.8119 235.828 90.0708C238.315 91.4229 238.38 91.3549 237.134 93.8948C238.425 94.1419 239.702 95.1747 240.851 93.3531C241.331 94.3884 241.959 95.1257 242.313 95.9109C242.554 96.4444 242.513 97.6141 241.394 97.9326C241.016 98.0405 240.409 98.1051 240.806 98.7437C240.969 99.0026 241.237 99.0607 241.681 98.9671C243.653 98.5535 245.379 99.0878 246.691 100.706C246.782 100.818 246.884 100.961 247.009 100.997C249.855 101.824 250.09 102.908 247.975 105.183C246.433 106.843 246.242 109.122 248.4 110.974C249.245 111.699 248.404 114.173 247.366 114.55C246.235 114.963 245.159 115.574 244.001 115.859C242.841 116.145 242.573 116.656 243.023 117.694C243.501 118.797 243.23 119.417 241.954 119.666C240.916 119.869 240.056 120.386 240.43 121.771C240.575 122.304 239.965 123.083 239.739 122.844C238.007 121.016 236.202 122.728 234.476 122.684C230.562 122.582 226.618 123.971 222.73 122.919C219.056 121.925 216.832 125.023 213.759 125.628C212.914 125.795 212.21 126.114 211.826 127.215C211.374 128.509 210.773 126.643 210.116 126.978C209.397 125.435 208.738 125.475 207.607 126.768C206.324 128.237 204.729 127.913 203.455 126.173C203.226 125.861 203.169 125.491 202.777 125.99C201.374 127.768 201.8 125.441 201.12 125.314C200.09 126.37 200.17 127.638 200.554 129.021C201.035 130.757 199.894 131.972 198.124 131.856C196.595 131.758 194.925 130.874 193.611 132.542C193.389 132.824 192.757 132.913 192.371 132.626C190.022 130.884 188.317 132.503 186.516 133.695C184.153 135.261 181.685 135.175 179.364 133.403C178.414 132.678 177.353 133.093 176.488 133.27C175.677 133.437 176.318 134.206 176.543 134.82C176.983 136.021 175.723 137.215 174.432 136.799C173.033 136.348 172.082 136.596 171.464 137.948C171.105 138.735 170.443 138.9 169.653 138.85C166.302 138.631 162.963 138.59 159.993 140.487C159.557 140.766 159.084 140.834 158.826 140.709C156.743 139.708 155.571 141.345 154.188 142.271C153.386 142.809 152.614 143.429 151.623 143.153C147.855 142.105 144.996 143.803 142.029 145.843C139.005 147.922 136.29 150.776 132.208 150.884C131.722 150.897 131.112 151.062 130.786 151.386C127.737 154.413 123.707 155.457 119.875 156.903C119.671 156.979 119.318 157.016 119.285 157.138C118.646 159.506 117.404 159.605 115.536 158.337C115.07 158.021 114.681 159.017 114.401 159.388C112.585 161.772 110.306 163.306 107.495 164.404C105.413 165.217 102.796 165.418 101.64 167.966C101.387 168.522 100.316 168.774 99.86 168.463C97.5278 166.886 97.3103 168.881 97.0803 170.195C96.8042 171.77 95.7755 171.595 94.6829 171.937C90.2789 173.309 86.4841 175.917 82.4778 178.126C79.524 179.755 77.2677 182.326 74.1854 183.678C73.1634 184.125 72.2285 184.533 71.9801 185.809C71.9227 186.105 71.3542 186.445 70.9771 186.51C68.741 186.897 67.4953 188.744 65.7675 189.862C62.8959 191.723 60.4846 194.106 57.7639 196.101C57.1675 196.538 56.0594 197.496 54.8863 196.851C54.2114 198.915 51.7184 198.191 50.7142 199.467C48.9534 201.702 46.7051 203.031 44.0298 203.32C42.3054 203.507 41.0698 203.97 39.7446 205.124C38.653 206.074 37.4587 204.493 37.0118 203.763C36.0863 202.255 35.0281 203.449 34.1581 203.4C33.6457 203.37 32.2547 203.687 32.1563 205.227C32.0491 206.904 32.0609 209.252 29.0547 208.426C27.951 208.122 28.6738 209.68 27.8241 209.801C26.911 209.931 26.069 210.459 25.0021 210.336C25.0786 209.061 26.548 208.91 26.9941 207.409C24.2825 208.941 22.6511 206.371 20.3921 206.225C19.4515 206.165 18.9923 205.615 18.9243 204.694C18.819 203.282 19.8439 204.362 20.266 204.086C21.6247 203.202 22.9265 202.728 24.3458 204.154C24.789 204.599 28.4378 201.616 28.3138 200.908C28.2114 200.331 27.8381 199.725 27.2057 200.342C26.5584 200.973 25.7302 201.886 25.2591 200.738C24.7988 199.618 23.4165 198.092 25.2151 196.86C26.3355 196.093 27.4831 195.34 28.8183 194.954C29.1986 194.843 29.7406 194.87 29.7082 194.227C29.68 193.669 29.222 193.671 28.8507 193.457C26.5492 192.126 24.1742 192.402 21.8748 193.219C19.6044 194.025 17.6812 193.319 15.651 192.434C16.1075 191.922 16.4825 191.502 16.9195 191.012C16.3274 190.942 15.8308 190.839 15.3356 190.841C14.7696 190.844 14.2272 190.721 14.174 190.132C14.1132 189.471 14.6213 189.435 15.204 189.437C15.9874 189.44 16.0588 188.58 16.3974 188.226C18.2402 186.303 18.2507 182.722 21.7239 182.244C22.4463 182.145 23.6164 182.313 23.7267 181.025C23.7995 180.176 24.4199 179.111 23.6086 178.545C22.9322 178.073 21.8772 178.164 21.0164 178.603C19.5008 179.374 17.5922 178.162 16.1702 179.572C15.993 179.748 15.6658 179.27 15.7009 179.01C15.8072 178.249 15.9121 177.406 16.5365 176.916C16.9643 176.58 17.6104 176.524 18.212 176.207C16.9236 176.51 16.2659 175.636 16.0103 174.795C15.6919 173.746 16.2387 172.783 17.3091 172.371C16.9126 171.402 15.7458 172.486 15.4629 171.456C15.3538 171.061 15.4747 170.486 15.7167 170.489C16.8375 170.504 16.471 169.508 16.7712 169.174C18.3285 167.451 18.0106 164.193 21.1009 163.747C21.278 163.722 21.4476 163.499 21.5808 163.335C22.2857 162.472 23.3644 161.411 22.7598 160.451C22.3339 159.775 20.923 159.551 19.7554 160.01C18.5497 160.483 17.2489 160.715 15.6216 161.151C16.1703 160.051 15.2787 158.883 16.8672 158.466C17.5023 158.299 17.418 157.921 16.7002 157.44C15.5086 156.637 15.2203 155.757 16.4688 154.757C16.6883 154.581 16.9596 154.455 17.225 154.35C20.2288 153.165 21.5519 150.599 22.5802 147.801C22.8192 147.151 22.5807 146.935 21.4899 146.754C20.8755 146.652 20.8045 146.015 20.9014 145.766C22.0048 142.903 20.5125 140.33 20.0731 137.645C20.0069 137.241 20.4523 136.8 19.9185 136.376C18.7828 136.758 18.9006 137.959 18.5086 138.769C17.6641 139.149 17.6023 137.848 16.6914 138.156C17.7582 139.815 16.4649 140.32 15.356 140.191C13.8534 140.016 13.7432 141.45 12.8274 141.822C12.1005 142.118 11.3075 142.249 10.4923 142.468C10.1624 141.004 11.2545 140.61 12.3974 139.656C9.56727 139.72 7.59041 138.443 5.47427 137.501C4.80393 137.203 4.23033 137.014 4.29041 136.231C4.359 135.322 4.97544 135.451 5.7023 135.45C6.3094 135.45 6.95522 134.964 7.50956 134.584C7.95685 134.277 8.16298 134.127 8.37163 134.792C8.76625 136.045 9.86525 135.941 10.6505 135.542C11.7747 134.972 13.2238 134.494 13.2482 132.854C13.2554 132.421 13.1332 131.405 12.2405 132.241C11.1509 133.261 9.95071 132.515 9.8128 131.78C9.64716 130.903 9.05367 129.532 10.4986 128.743C11.4314 128.233 12.1723 127.328 13.284 127.177C14.2545 127.047 14.5273 126.315 14.4424 125.652C14.3406 124.857 13.528 124.493 12.775 124.604C10.4122 124.952 8.01293 124.049 5.6274 125.029C4.67169 125.422 3.42105 125.142 2.38438 124.364C1.43462 123.653 1.31292 123.148 2.32089 122.554C1.92219 121.708 1.37043 122.33 0.938969 122.225C0.0526421 122.008 0.0163603 120.884 0.342822 120.768C2.82655 119.889 2.88105 117.008 4.7482 115.579C5.32366 115.139 5.82026 114.619 6.54635 114.389C7.03146 114.236 7.53246 114.11 7.99281 113.895C9.25973 113.304 10.3338 111.911 9.83065 110.965C9.30377 109.975 7.65463 109.46 6.15129 109.956C4.94117 110.356 3.67854 110.598 2.44723 110.938C1.9901 111.064 1.45079 111.123 1.27098 110.71C1.09811 110.31 1.06669 109.746 1.55436 109.35C2.20692 108.82 2.42644 107.77 3.62468 107.829C2.62837 107.353 1.51247 107.255 1.54005 105.891C1.56686 104.575 2.82065 104.784 3.49756 104.314C5.38337 103.005 7.45 102.143 9.72473 101.593C11.2961 101.213 11.971 96.5992 10.7504 95.5124C10.168 94.9944 9.59423 94.6347 9.94803 93.7392C10.0208 93.5575 10.0224 93.2108 9.90801 93.1114C8.02119 91.4834 8.53557 89.2358 8.33177 87.1721C8.31077 86.9615 8.24005 86.7102 8.10159 86.5648C6.23537 84.6172 5.99711 82.9412 7.34602 80.3331C7.76607 79.5212 8.22509 78.7917 7.54652 77.9212C6.95554 77.963 6.93931 79.1363 6.27565 78.7431C5.61798 78.3535 6.37656 77.76 6.37643 77.3377C6.37518 74.985 7.75366 73.7778 9.49734 72.5234C11.9567 70.7546 14.0409 68.4984 16.5177 66.7131C17.1131 66.285 17.3983 66.1089 17.8769 66.5669C18.5938 67.2532 17.7989 67.4341 17.4494 67.8233C15.9965 69.439 15.3023 71.2044 16.8352 73.6265C18.0321 70.6841 20.3439 68.8366 22.1672 66.5828C23.0199 65.5283 24.1422 64.6431 25.2693 63.8698C29.0758 61.2553 32.9759 58.7761 36.7532 56.122C37.6304 55.5052 38.3361 54.708 39.4666 54.5081C39.776 54.454 40.2411 54.125 40.2801 53.8679C40.6765 51.2616 43.1659 51.8209 44.6213 50.8313C47.3452 48.9798 50.6114 47.9999 52.9635 45.5791C53.7566 44.7618 54.8799 45.7564 55.8096 44.9263C57.3951 43.5098 59.6377 43.0407 61.1889 41.4899C61.415 41.2638 61.8697 41.223 62.2287 41.1843C65.3194 40.8527 67.8201 39.3009 70.1497 37.3878C70.5659 37.0466 71.0776 36.8284 71.5687 36.9806C74.1962 37.7968 76.0159 36.3227 77.6275 34.6949C79.5545 32.7461 81.6416 31.6464 84.4687 31.4581C86.3796 31.3312 88.4954 30.962 89.7973 28.9526C90.6005 27.7137 92.3284 27.5463 93.5505 27.4993C95.379 27.43 96.7709 26.4303 98.4019 26.0963C99.4095 25.8905 100.519 26.7504 101.599 26.0658C101.985 25.822 102.769 26.0275 102.689 25.2702C102.574 24.1794 103.169 24.4541 103.43 24.9449C104.073 26.1544 104.283 25.9123 104.905 24.879C105.629 23.6767 106.563 22.4586 108.318 22.6453C108.588 23.546 106.938 23.8463 107.766 24.7393C108.387 25.409 109.228 24.6261 109.812 24.8263C111.548 25.4202 112.374 24.0028 113.019 23.1611C114.741 20.9125 117.305 21.1782 119.545 20.5492C120.044 20.4088 120.463 20.4181 120.718 19.9394C121.208 19.0191 121.66 18.3492 122.338 19.8431C122.511 20.2225 123.273 20.4929 123.464 20.1427C124.172 18.85 125.191 19.4114 126.201 19.2522C127.009 19.1253 127.603 18.9798 128.28 19.4115C128.618 19.6268 129.11 19.7718 129.296 19.5194C130.392 18.0197 131.835 18.3374 133.394 18.396C135.633 18.4834 134.204 16.6097 134.619 15.4797C133.202 16.1501 131.93 15.3507 130.592 15.3106C130.296 15.302 129.464 15.1515 129.711 14.3911C129.898 13.8173 130.401 13.6302 130.944 13.8227C132.667 14.4318 134.191 13.8293 135.82 13.2998C138.703 12.3635 141.661 11.6435 144.614 10.9351C145.314 10.7677 145.9 10.6108 146.502 10.1521C148.605 8.54982 150.939 9.17939 152.198 11.8743C152.436 10.0891 153.303 9.91928 154.787 9.93044C156.251 9.94035 158.059 9.78867 159.073 8.22454C159.449 7.64768 160.076 7.67889 160.616 7.52752C162.588 6.97024 164.574 6.46024 166.553 5.92145C167.627 5.6287 168.633 5.29156 167.946 3.80652C167.693 3.25782 167.82 2.81999 168.501 2.6746C169.637 2.4311 170.767 2.16395 171.901 1.91571C172.483 1.78859 172.979 1.73489 173.083 2.58723C173.179 3.38587 173.363 4.16246 174.56 3.89936C174.927 3.81771 175.32 4.19908 175.038 4.80845C174.886 5.13626 174.153 5.56587 174.904 5.93896C175.398 6.18488 175.982 6.27341 176.554 5.88524C178.471 4.58446 180.587 3.73038 182.807 3.07126C183.571 2.84457 184.246 2.54889 185.096 2.60651C185.782 2.6526 186.773 2.53732 187.146 2.0911C188.694 0.2372 190.639 0.631358 192.631 0.69391C193.484 0.720625 193.642 1.06668 193.71 1.67186C193.817 2.63139 193.173 2.22447 192.714 2.19722C192.013 2.15692 191.474 2.48043 190.996 2.98854C190.491 3.526 189.824 4.07956 189.116 3.92819C187.603 3.60366 186.899 4.49187 186.107 5.69219C187.061 5.94005 187.877 6.79568 188.873 5.74001C189.206 5.38704 189.354 5.67866 189.429 5.98452C189.822 7.58363 190.796 7.71281 192.218 7.29639C193.174 7.01668 193.939 7.59374 194.147 8.62402C194.245 9.10958 194.652 8.98533 194.684 8.97018C196.249 8.14535 197.866 9.33209 199.347 8.91668C200.839 8.49831 202.326 8.66732 203.802 8.44749C204.333 8.36791 204.945 8.21575 205.226 8.931C205.539 9.72883 204.163 9.51127 204.414 10.2769C203.216 10.4221 202.119 11.2416 200.864 10.8158C200.597 12.1274 202.597 13.7586 200.206 14.8167C202.76 16.3165 205.51 15.6692 208.161 15.768C209.106 15.8035 209.992 15.5779 210.823 16.4432C211.296 16.9364 212.089 17.8305 213.093 16.8874C213.207 16.7807 214.064 16.7689 214.323 17.4208C214.611 18.1427 213.95 18.3063 213.647 18.6121C213.363 18.8978 212.775 18.8865 212.502 19.1775C211.8 19.9264 210.992 20.4249 211.88 21.9066C212.605 23.118 213.279 24.0286 214.474 24.7185C215.025 25.0371 215.956 25.6288 215.607 26.3525C214.294 29.0656 216.687 27.8199 217.499 28.1782C217.962 28.3819 218.757 26.728 219.017 28.2968C219.188 29.3321 220.551 30.4688 219.011 31.5283C218.641 31.7829 218.3 32.136 218.506 32.6079C218.699 33.0527 219.128 32.7468 219.465 32.7512C222.328 32.8018 224.56 34.2882 226.568 36.0982C227.215 36.6831 227.393 37.541 226.238 38.2625C224.348 39.4429 223.378 43.382 224.881 44.3712C226.241 45.2669 225.806 46.1554 226.034 47.2008C226.308 48.4635 225.04 48.9166 224.847 48.8636C223.378 48.4631 222.65 49.8998 221.452 50.0621C221.148 50.1031 220.61 50.4582 220.615 50.4688C221.797 53.0424 219.592 53.5184 218.259 54.7284C217.703 55.2338 218.004 56.8594 218.153 57.8076C218.471 59.8037 217.032 60.0252 215.989 60.249C212.927 60.9022 209.854 61.3676 207.131 63.1241C206.323 63.6448 205.603 63.792 206.29 64.9458C206.576 65.4283 206.706 66.152 205.808 66.4703C204.974 66.7646 204.3 66.437 203.839 65.8933C203.365 65.3359 203.182 64.7263 204.424 64.7482C204.849 64.7558 204.461 64.2331 204.187 64.0635C202.973 63.3177 198.955 64.1865 198.609 65.5022C198.13 67.3215 196.448 67.3381 195.342 68.1783C195.164 68.3138 194.705 68.3052 194.594 68.6525C194.382 69.3209 194.898 69.2854 195.325 69.3841C195.78 69.4902 195.83 69.7739 195.877 70.2951C195.999 71.6256 197.091 71.3618 197.838 71.0199C200.827 69.6496 203.857 68.4507 207.127 67.9057C208.167 67.7319 209.06 67.2933 209.957 66.5056C211.389 65.2484 213.443 66.2574 215.194 65.8878C215.303 65.8654 215.582 66.4307 215.706 66.7524C215.87 67.1763 215.638 67.5256 215.23 67.5454C213.176 67.6398 211.824 70.0307 209.546 69.2981C208.319 68.9024 208.449 70.1497 207.923 70.5877C207.539 70.9087 207.947 71.3127 208.278 71.3829C208.972 71.5313 209.767 72.2254 210.354 71.1528C210.474 70.928 210.704 70.7548 211.055 70.3719ZM22.4177 191.211C22.4045 190.991 22.3917 190.773 22.3784 190.554C21.1672 190.358 19.9403 189.947 18.7163 190.459C18.3055 190.632 17.5348 190.985 17.8098 191.69C18.0037 192.187 18.5764 192.253 19.1235 192.098C20.2194 191.788 21.3192 191.505 22.4177 191.211ZM3.05082 123.169C4.5491 123.945 5.72508 123.121 6.93666 122.645C7.00222 122.619 6.9911 122.155 6.95341 122.147C5.58899 121.801 4.31418 121.91 3.05082 123.169Z" fill="#B56647"/>
</svg>
