<svg width="1920" height="280" viewBox="0 0 1920 280" fill="none" xmlns="http://www.w3.org/2000/svg">
<g clip-path="url(#clip0_2612_1584)">
<path d="M502.256 133.27C601.805 125.618 733.022 114.027 883.532 70.2892C1000.09 36.4132 1005.61 16.4333 1079.94 5.707C1256.38 -19.7481 1284.36 49.2848 1485.58 30.9059C1556.15 24.4701 1607.43 10.9581 1679.7 32.4748C1711.99 42.0805 1736.99 55.2723 1788.62 63.9815C1833.77 71.602 1854.6 68.272 1899.11 70.2892C1978.28 73.8753 1994.75 88.1878 2071.16 98.6259C2139.32 107.943 2188.71 105.126 2274.75 100.195C2398.97 93.0867 2413.48 159.175 2530.01 123.485C2569.8 111.295 2551.86 147.359 2562 161.607V623H477L502.256 133.27Z" fill="#EDCC94"/>
<path d="M-1417.74 133.27C-1318.2 125.618 -1186.98 114.027 -1036.47 70.2892C-919.911 36.4132 -914.385 16.4333 -840.06 5.707C-663.62 -19.7481 -635.636 49.2848 -434.421 30.9059C-363.851 24.4701 -312.569 10.9581 -240.3 32.4748C-208.01 42.0805 -183.01 55.2723 -131.38 63.9815C-86.23 71.602 -65.4 68.272 -20.89 70.2892C58.28 73.8753 74.75 88.1878 151.16 98.6259C219.32 107.943 268.71 105.126 354.75 100.195C478.97 93.0867 493.48 159.175 610.01 123.485C649.8 111.295 631.86 147.359 642 161.607V623H-1443L-1417.74 133.27Z" fill="#EDCC94"/>
</g>
<defs>
<clipPath id="clip0_2612_1584">
<rect width="1920" height="280" fill="white"/>
</clipPath>
</defs>
</svg>
