<svg width="1920" height="363" viewBox="0 0 1920 363" fill="none" xmlns="http://www.w3.org/2000/svg">
<g clip-path="url(#clip0_979_860)">
<path d="M470.5 166.025C628.076 117.913 803.768 10.7067 889.787 18.3924C968.103 25.3981 1016.9 40.7282 1128.25 42.7063C1239.78 44.6843 1297.68 31.2087 1361.65 26.4901C1457.64 19.4226 1598.8 29.7663 1783 115.669V294.025H522L470.5 166.025Z" fill="#30453A"/>
<path d="M2028.88 21.7273L2029.12 900.7L-170.877 901.299L-171.111 42.2206C-55.6381 27.8067 123.962 8.8552 345.277 0.658584C712.601 -12.9609 747.853 183.55 1002.18 157.428C1257.75 131.162 1303.88 89.9537 1640.83 49.1391C1803.69 29.4114 1938.6 21.3821 2028.88 17.7003" fill="#2C3631"/>
<path d="M2130.5 393.025C1972.92 344.913 1797.23 237.707 1711.21 245.392C1632.9 252.398 1584.1 267.728 1472.75 269.706C1361.22 271.684 1303.32 258.209 1239.35 253.49C1143.36 246.423 1002.2 256.766 818 342.669V521.025H2079L2130.5 393.025Z" fill="#212C26"/>
<path d="M557.52 341.717C561.577 327.165 565.551 312.614 569.463 298.062L575.314 276.217L578.185 265.282C579.178 261.653 580.086 257.988 581.019 254.335L583.696 243.34L586.47 232.381C588.323 225.075 590.116 217.733 592.248 210.499C594.356 203.254 596.488 196.02 598.789 188.835C601.115 181.662 603.634 174.55 606.045 167.413C616.22 139.012 626.298 110.622 637.491 82.6562C648.562 54.6539 660.227 26.9177 673.419 -0.250045L673.031 -0.467773C671.105 2.78606 669.24 6.06409 667.362 9.34211C665.484 12.6201 663.595 15.8982 661.766 19.2125C660.857 20.8696 659.876 22.5026 659.04 24.1839L656.496 29.2522L651.445 39.4129C649.786 42.8118 648.09 46.1987 646.467 49.6098L641.9 59.9882L637.382 70.3908L635.141 75.6042C634.402 77.346 633.736 79.112 633.033 80.866C630.308 87.918 627.546 94.9579 624.905 102.034C622.301 109.134 619.915 116.307 617.407 123.432C616.184 127.012 614.888 130.556 613.725 134.149L610.309 144.951C609.158 148.543 608.032 152.16 606.941 155.765C605.827 159.369 604.725 162.986 603.707 166.627C601.575 173.872 599.552 181.142 597.336 188.363C595.216 195.609 593.096 202.854 590.855 210.052L584.072 231.655L580.668 242.457L577.409 253.307C575.29 260.553 573.267 267.834 571.462 275.165L568.688 286.148L566.096 297.179C562.668 311.888 559.591 326.682 557.108 341.584L557.52 341.717Z" fill="#B56647"/>
<path d="M593.326 204.161C622.143 178.058 653.844 154.023 693.115 140.874C712.12 134.536 732.289 132.214 753.378 132.238C763.662 132.383 774.237 132.734 783.479 135.818C793.424 138.443 800.256 146.366 797.942 155.486C804.132 146.62 797.022 134.645 786.604 130.327C771.257 123.069 754.008 122.005 737.267 121.738C675.127 120.71 620.799 159.103 593.326 204.161Z" fill="#B56647"/>
<path d="M624.057 110.973C625.147 108.566 626.456 106.292 627.812 104.066C629.181 101.84 630.635 99.6753 632.197 97.5948C635.262 93.3975 638.666 89.4663 642.288 85.7891C649.556 78.4347 657.78 72.0964 666.672 66.8225C675.514 61.476 685.011 57.2182 694.798 53.6983C704.598 50.1904 714.725 47.4688 725.021 45.1101C714.47 45.6181 703.944 47.3962 693.72 50.3477L689.88 51.4726L686.101 52.7911C683.569 53.6257 681.123 54.7022 678.627 55.6699C673.746 57.8472 668.925 60.1818 664.334 62.9517C659.767 65.758 655.346 68.7941 651.191 72.1931C647.097 75.6526 643.184 79.3298 639.695 83.4061C637.939 85.4262 636.267 87.5188 634.693 89.6719C633.166 91.8613 631.664 94.0748 630.332 96.3852C628.999 98.6955 627.752 101.042 626.686 103.486C625.632 105.917 624.699 108.409 624.057 110.973Z" fill="#B56647"/>
<path d="M605.815 157.531C605.282 152.341 605.221 147.164 605.488 142.036C605.706 136.895 606.36 131.802 607.281 126.783C609.194 116.755 612.417 107.018 617.225 98.0907C618.352 95.8167 619.697 93.6636 620.993 91.4863C622.41 89.3816 623.779 87.2406 625.341 85.2327C626.795 83.14 628.466 81.2289 630.078 79.2451C630.901 78.2774 631.798 77.3702 632.658 76.4267C633.506 75.4711 634.354 74.5156 635.286 73.6446C642.494 66.387 650.658 60.0245 659.343 54.2184C649.761 58.3673 640.774 64.0767 632.864 71.0924C631.846 71.9391 630.889 72.8584 629.944 73.7898C629.012 74.7212 628.043 75.6405 627.146 76.6082C625.39 78.5919 623.561 80.5273 621.95 82.6441C620.242 84.6883 618.8 86.9261 617.286 89.1155C615.893 91.3895 614.452 93.6273 613.252 95.9981C610.818 100.728 608.698 105.639 607.135 110.719C605.609 115.811 604.434 121.001 603.828 126.262C603.174 131.512 603.005 136.81 603.295 142.06C603.634 147.273 604.313 152.523 605.815 157.531Z" fill="#B56647"/>
<path d="M-130 333.039C74.7162 292.527 184.76 291.457 295.77 288C566.306 279.544 589.836 338.422 891.054 327.373C958.662 324.883 1095.46 317.929 1284.21 330.418C1344.09 334.368 1384.39 338.648 1404.49 340.541C1529.18 352.248 1722.64 351.405 2021 294V903H-128.705L-130 333.039Z" fill="#30453A"/>
</g>
<defs>
<clipPath id="clip0_979_860">
<rect width="1920" height="363" fill="white"/>
</clipPath>
</defs>
</svg>
