<svg width="1920" height="433" viewBox="0 0 1920 433" fill="none" xmlns="http://www.w3.org/2000/svg">
<g clip-path="url(#clip0_979_820)">
<path d="M716.171 85.353C779.911 80.4519 864.363 68.9888 960.733 40.9769C1035.36 19.281 1038.47 10.5247 1086.05 3.65504C1199.03 -12.6476 1216.95 31.5644 1345.78 19.7937C1390.97 15.6719 1423.8 7.01811 1470.08 20.7985C1490.75 26.9504 1506.75 35.3991 1539.82 40.9769C1568.73 45.8574 1582.06 43.7248 1610.56 45.0167C1661.25 47.3134 1671.79 56.4798 1720.72 63.1649C1764.36 69.1323 1795.99 67.3277 1851.08 64.1697C1930.62 59.6173 1962.55 48.7899 1999.21 70.2192C2017.08 80.6775 2028.51 94.3758 2035 103.501V399H700L716.171 85.353Z" fill="#212C26"/>
<path d="M-174.829 85.353C-111.089 80.4519 -26.637 68.9888 69.7329 40.9769C144.363 19.281 147.466 10.5247 195.055 3.65504C308.027 -12.6476 325.945 31.5644 454.781 19.7937C499.966 15.6719 532.801 7.01811 579.075 20.7985C599.747 26.9504 615.753 35.3991 648.815 40.9769C677.726 45.8574 691.062 43.7248 719.562 45.0167C770.253 47.3134 780.795 56.4798 829.719 63.1649C873.363 69.1323 904.986 67.3277 960.075 64.1697C1039.62 59.6173 1071.55 48.7899 1108.21 70.2192C1126.08 80.6775 1137.51 94.3758 1144 103.501V399H-191L-174.829 85.353Z" fill="#212C26"/>
<path d="M-134 98.8178C84.0566 108.055 238.279 104.032 337.031 98.8178C544.031 87.8974 647.51 82.4372 671.597 78.6191C688.449 75.9506 722.669 70.1825 768.623 72.5636C859.689 77.2849 924.448 110.272 947.528 121.028C1075.94 180.803 1142.34 123.533 1444.82 158.388C1599.19 176.164 1610.06 194.331 1777.38 208.864C1881.12 217.875 1966.91 218.717 2024 217.957V433H-134V98.8178Z" fill="#26372E"/>
<path d="M-107 113.146C22.7036 70.2991 124.6 68.345 194.21 74.701C276.911 82.2707 293.764 99.7138 415.576 109.094C494.742 115.182 530.646 111.109 610.655 126.29C670.482 137.624 717.381 152.598 741.037 160.682C777.044 172.983 807.625 185.839 832 197.111V448H-107V113.146Z" fill="#212C26"/>
<path d="M542 234.146C671.704 191.299 773.6 189.345 843.21 195.701C925.911 203.271 942.764 220.714 1064.58 230.094C1143.74 236.182 1179.65 232.109 1259.65 247.29C1319.48 258.624 1366.38 273.598 1390.04 281.682C1426.04 293.983 1456.63 306.839 1481 318.111V569H542V234.146Z" fill="#212C26"/>
<path d="M1248.48 309.531C1369.82 246.79 1470.13 228.81 1539.88 224.123C1622.74 218.572 1642.13 233.143 1763.9 223.22C1843.03 216.763 1877.85 207.086 1959.25 209.475C2020.11 211.245 2068.79 218.645 2093.42 222.903C2130.91 229.378 2163.14 237.257 2188.99 244.55L2228.5 492.307L1301.22 640.205L1248.48 309.531Z" fill="#212C26"/>
</g>
<defs>
<clipPath id="clip0_979_820">
<rect width="1920" height="433" fill="white"/>
</clipPath>
</defs>
</svg>
