<svg width="582" height="288" viewBox="0 0 582 288" fill="none" xmlns="http://www.w3.org/2000/svg">
<g clip-path="url(#clip0_373_1443)">
<path opacity="0.1" d="M206.901 103.573C206.042 102.678 204.974 102.011 203.793 101.633C202.612 101.255 201.355 101.177 200.137 101.407C197.887 101.851 195.85 103.031 194.347 104.762C188.644 110.887 183.918 120.074 182.672 128.364C182.119 132.135 181.97 135.955 182.228 139.757C182.22 139.729 182.213 139.701 182.205 139.673C181.156 137.404 179.943 135.215 178.575 133.122C177.26 130.998 175.924 128.881 174.41 126.888C173.624 125.861 172.809 124.859 171.967 123.871C172.18 123.338 172.365 122.795 172.523 122.244C172.853 121.098 173.146 119.949 173.478 118.809C177.532 104.784 189.081 88.7872 188.866 74.0794C188.825 71.5484 188.431 68.9796 186.769 66.9729C179.208 57.8633 168.051 74.0198 165.84 80.3031C163.589 86.7054 163.21 93.8802 163.283 100.61C163.318 104.332 162.485 115.889 165.152 118.798C161.371 114.625 157.599 110.438 153.797 106.276C151.406 103.66 149.026 101.034 146.657 98.3997L146.691 98.3907C152.907 90.4151 156.942 71.4497 157.814 61.6307C158.411 54.7521 155.172 42.6635 146.076 49.9624C136.737 57.4287 139.174 75.249 140.644 85.4918C140.918 87.4318 141.303 89.3416 141.754 91.2462C141.999 92.1572 142.302 93.0514 142.663 93.9231C139.057 89.7934 135.537 85.5862 132.192 81.2423C130.754 79.3759 129.351 77.4785 127.981 75.5499C125.677 72.2671 130.381 62.8215 131.42 59.5444C133.752 52.1889 136.276 44.6978 136.48 36.9148C136.585 33.0887 136.193 24.1795 132.635 21.7556C121.147 13.9383 120.941 45.219 121.145 49.6355C121.324 53.8216 121.767 57.9922 122.472 62.1224C122.821 64.1441 123.226 66.1269 123.753 68.1372C123.936 68.8213 124.118 69.4997 124.3 70.1781C121.832 62.0233 116.325 56.6541 115.304 47.6611C114.143 37.5215 113.301 27.4047 111.649 17.3127C111.261 14.9467 110.828 12.5208 109.623 10.4459C107.759 7.23731 103.934 5.52186 100.498 7.22992C90.3897 12.2761 94.3957 26.2625 97.6828 34.336C99.7294 39.392 102.355 44.1939 105.507 48.6454C106.814 50.4708 108.538 52.0399 109.815 53.8673C111.614 56.432 113.249 62.9591 115.757 64.5826C115.021 64.1069 114.277 63.635 113.527 63.167C110.977 61.5906 108.408 60.0315 105.812 58.5277C103.328 57.0017 100.651 55.815 97.853 54.9992C95.1105 54.2737 91.2369 53.7672 89.3762 56.4893C79.1489 71.6093 121.174 73.7199 125.255 79.3271C129.243 84.8148 133.542 90.0693 137.926 95.2166L136.519 94.8544C126.935 92.3502 115.025 87.1281 105.572 92.6659C103.376 93.9574 101.404 95.9943 101.09 98.5242C100.705 101.572 102.926 104.48 105.689 105.819C108.452 107.159 111.632 107.232 114.706 107.129C124.509 106.756 133.673 102.582 143.291 102.547C143.629 102.537 143.962 102.466 144.275 102.337C145.164 103.325 146.058 104.311 146.955 105.297C151.728 110.551 158.081 115.849 161.625 121.919C148.331 122.813 136.053 118.975 123.12 124.941C119.22 126.737 115.203 130.067 115.547 134.356C115.93 139.06 121.514 141.711 126.23 141.348C140.272 140.26 156.09 128.131 170.634 133.092C170.912 133.186 171.18 133.289 171.453 133.39C173.795 136.524 176.003 139.761 178.029 143.106C180.081 146.573 181.918 150.163 183.529 153.855C181.852 153.298 180.108 152.967 178.344 152.871C175.637 151.776 172.829 150.95 169.961 150.406C162.325 148.887 154.463 148.912 146.838 150.478C142.854 151.311 138.451 152.329 136.017 155.847C135.416 156.701 135.022 157.682 134.865 158.714C134.707 159.746 134.791 160.8 135.11 161.793C135.458 162.728 135.991 163.584 136.677 164.309C137.362 165.033 138.187 165.613 139.101 166.012C142.926 167.752 147.387 167.398 151.368 166.421C159.119 164.555 166.577 158.837 174.619 158.437C181.446 158.103 186.684 165.137 190.119 158.105C192.252 153.73 191.911 147.481 194.296 142.653C198.712 133.724 206.412 126.396 209.069 116.598C210.252 112.267 210.12 107.044 206.901 103.573Z" fill="#3575AA"/>
<path opacity="0.1" d="M151.489 199.616C154.286 201.233 156.935 203.087 159.561 204.96L154.852 211.037C153.648 210.287 152.436 209.553 151.214 208.834C150.838 208.851 150.468 208.862 150.09 208.889C130.295 210.244 117.516 232.585 101.339 240.892C95.904 243.679 87.9316 243.311 85.1259 237.9C82.5749 232.965 85.6959 226.993 89.4427 222.907C101.864 209.347 118.4 207.785 133.783 200.083C126.533 194.625 116.322 191.488 108.015 187.616C106.455 186.89 104.899 186.161 103.346 185.43C103.039 185.739 102.677 185.99 102.28 186.17C90.8447 191.014 82.0171 200.56 70.5298 205.9C66.9212 207.557 63.0973 209.058 59.1391 208.843C55.1809 208.628 51.0833 206.274 50.0202 202.452C49.1304 199.283 50.4618 195.873 52.4318 193.239C60.9233 181.924 77.7126 182.195 90.3741 180.392L92.2305 180.121C84.44 176.181 76.698 172.07 69.2086 167.527C61.5499 162.888 10.4544 181.359 15.0827 158.248C15.9392 154.078 20.8046 152.747 24.4324 152.241C28.172 151.815 31.9517 151.892 35.6709 152.469C39.5135 152.963 43.3513 153.537 47.1745 154.141C48.3017 154.323 49.4226 154.514 50.537 154.713C46.7396 154.032 41.5339 147.076 38.1111 144.92C35.6783 143.382 32.8413 142.375 30.3742 140.854C24.398 137.127 18.8737 132.72 13.9121 127.722C5.96677 119.749 -5.78725 105.095 3.72925 94.0395C6.96838 90.2897 12.3795 90.4224 16.2004 93.3126C18.6714 95.1817 20.399 97.8537 22.042 100.478C29.0488 111.669 35.1028 123.296 41.5476 134.79C47.2543 144.988 56.4929 148.632 63.503 157.11L61.8327 154.953C60.2018 152.822 58.7294 150.663 57.3039 148.431C54.4025 143.864 51.7924 139.119 49.4891 134.224C47.0412 129.067 31.6672 91.7167 49.2493 95.2891C54.6965 96.3987 59.6119 106.812 61.3978 111.42C65.0409 120.789 65.776 130.97 66.672 140.893C67.0713 145.314 66.1858 158.91 70.5683 161.669C73.1627 163.281 75.7818 164.839 78.4255 166.344C84.5781 169.846 90.8692 173.098 97.2258 176.215C96.3611 175.357 95.5528 174.444 94.806 173.482C93.3189 171.439 91.9062 169.357 90.612 167.184C83.7464 155.721 71.9462 135.719 79.3389 122.165C86.5252 108.932 96.4183 121.709 99.1424 130.198C103.006 142.325 107.672 166.923 104.252 179.524L104.217 179.551C108.353 181.506 112.498 183.443 116.652 185.365C123.257 188.422 129.839 191.525 136.425 194.606L147.074 197.243C148.569 198 150.04 198.785 151.489 199.616Z" fill="#3575AA"/>
<path opacity="0.1" d="M443.544 264.253C444.761 262.62 445.551 260.709 445.843 258.694C446.135 256.678 445.92 254.622 445.216 252.711C443.887 249.189 441.423 246.21 438.213 244.245C426.746 236.672 410.586 231.512 396.822 231.744C390.565 231.872 384.339 232.667 378.251 234.116C378.294 234.096 378.337 234.076 378.381 234.057C381.771 231.742 384.987 229.183 388.005 226.4C391.087 223.695 394.154 220.956 396.97 217.964C398.42 216.412 399.821 214.82 401.193 213.189C402.113 213.388 403.043 213.541 403.979 213.647C405.925 213.87 407.864 214.033 409.801 214.261C433.613 217.02 462.654 231.382 486.414 227.042C490.501 226.288 494.554 224.954 497.353 221.718C510.054 207.002 480.861 193.317 470.086 191.443C459.107 189.535 447.385 190.868 436.507 192.812C430.488 193.88 411.546 195.667 407.558 200.774C413.291 193.52 419.048 186.274 424.756 178.989C428.344 174.406 431.95 169.839 435.574 165.288L435.597 165.34C450.2 173.242 482.009 174.629 498.147 173.378C509.448 172.477 528.146 163.951 513.857 151.202C499.231 138.103 471.034 146.887 454.845 152.048C451.778 153.017 448.79 154.16 445.827 155.406C444.419 156.05 443.053 156.784 441.739 157.605C447.448 150.644 453.307 143.803 459.433 137.207C462.066 134.372 464.758 131.584 467.509 128.841C472.2 124.219 488.773 129.275 494.362 130.068C506.907 131.848 519.723 133.903 532.383 132.121C538.607 131.252 552.929 128.2 555.889 121.78C565.431 101.055 514.718 109.21 507.621 110.739C500.89 112.165 494.256 114.014 487.759 116.276C484.58 117.391 481.479 118.585 478.366 119.983C477.308 120.466 476.259 120.944 475.209 121.423C487.746 115.214 494.946 104.838 509.233 100.743C525.338 96.1122 541.493 92.0034 557.388 86.5886C561.115 85.3188 564.926 83.9582 567.959 81.4437C572.649 77.5554 574.389 70.8955 570.691 65.7938C559.775 50.7939 538.212 61.0771 526.03 68.5913C518.398 73.2778 511.334 78.8331 504.98 85.146C502.379 87.757 500.306 90.9756 497.693 93.5393C494.028 97.1487 483.901 101.567 481.953 106.07C482.523 104.748 483.086 103.416 483.64 102.074C485.501 97.5171 487.328 92.9334 489.059 88.3205C490.856 83.8845 492.052 79.2278 492.613 74.4746C493.044 69.8365 492.813 63.4259 487.9 61.1513C460.638 48.6922 468.625 117.322 460.652 125.452C452.848 133.4 445.505 141.788 438.359 150.284L438.563 147.907C440.018 131.708 445.243 111.004 433.709 97.1971C431.022 93.9913 427.188 91.3502 423.006 91.5288C417.965 91.7321 413.859 96.119 412.44 100.956C411.021 105.794 411.766 110.964 412.765 115.914C416.031 131.689 425.277 145.396 427.944 160.962C428.051 161.507 428.257 162.027 428.55 162.498C427.192 164.207 425.837 165.922 424.485 167.642C417.272 176.797 410.416 188.524 401.548 195.91C396.492 174.624 399.375 153.699 386.205 134.374C382.238 128.546 375.755 122.944 368.903 124.664C361.387 126.562 358.61 136.324 360.477 143.864C366.05 166.307 389.985 188.632 385.898 213.532C385.821 214.007 385.728 214.469 385.639 214.939C381.198 219.583 376.556 224.036 371.688 228.225C366.631 232.49 361.316 236.439 355.773 240.05C356.221 237.183 356.283 234.269 355.96 231.385C356.999 226.705 357.574 221.934 357.677 217.141C358.064 204.363 355.891 191.638 351.285 179.713C348.855 173.488 346.012 166.634 339.653 163.647C338.108 162.906 336.412 162.534 334.698 162.559C332.985 162.584 331.301 163.006 329.778 163.792C328.358 164.61 327.117 165.705 326.13 167.012C325.142 168.319 324.427 169.811 324.028 171.4C322.25 178.067 324.033 185.195 326.695 191.377C331.821 203.422 343.106 213.948 345.936 226.863C348.328 237.83 338.359 248.221 350.679 251.874C358.343 254.141 368.371 251.894 376.836 254.445C392.495 259.173 406.451 269.654 423.04 271.298C430.375 272.039 438.798 270.408 443.544 264.253Z" fill="#3575AA"/>
</g>
<defs>
<clipPath id="clip0_373_1443">
<rect width="582" height="288" fill="white"/>
</clipPath>
</defs>
</svg>
