<svg width="55" height="55" viewBox="0 0 55 55" fill="none" xmlns="http://www.w3.org/2000/svg">
<g clip-path="url(#clip0_2001_36854)">
<path fill-rule="evenodd" clip-rule="evenodd" d="M14.2659 30.1756H12.5411C9.85039 30.1756 11.8052 24.6174 14.0705 24.6174H16.7957C17.2326 24.6174 18.0031 24.6957 18.3825 23.6445L18.969 22.0117H15.2318C13.2081 22.0117 11.6327 22.7051 10.4943 23.8682C8.52802 25.8588 7.86108 28.9678 8.33254 30.4551C8.78099 31.8307 9.99987 32.7365 11.9087 32.7589L13.392 32.7701H15.2203L15.6688 31.4616C16.0023 30.5334 15.2549 30.1756 14.2659 30.1756ZM35.2629 27.8718L35.8262 26.0936H29.8124C28.812 26.0936 28.3635 26.362 28.1911 26.9212L27.6276 28.6994H33.6415C34.6419 28.6994 35.0904 28.431 35.2629 27.8718ZM26.7307 31.0031L26.1673 32.7813H32.1812C33.1701 32.7813 33.63 32.5129 33.8025 31.9537L34.366 30.1756H28.3521C27.3632 30.1756 26.9147 30.444 26.7307 31.0031ZM36.6657 23.8011L37.2293 22.0229H31.2153C30.2149 22.0229 29.7664 22.2913 29.5939 22.8505L29.0305 24.6286H35.0444C36.0334 24.6286 36.4817 24.3602 36.6657 23.8011ZM27.5816 24.1589C27.3286 22.5038 26.4202 22.0229 24.2125 22.0229H20.1879L17.8421 28.6994H19.3254C20.2108 28.6994 20.6593 28.7105 21.1308 27.4804L22.1082 24.6174H23.603C24.8794 24.6174 24.5919 26.1719 23.948 27.6817C23.3731 29.0125 22.3726 30.1867 21.1652 30.1867H18.67C17.6696 30.1867 17.2097 30.4551 17.0257 31.0143L16.4047 32.7925H18.2331L20.0269 32.7813C21.6137 32.7701 22.9131 32.6583 24.4309 31.3274C26.0408 29.9072 27.9036 26.2614 27.5816 24.1589ZM47.7967 22.0117H44.3126L41.0353 25.4003C40.6558 25.7917 40.2649 26.1831 39.8853 26.6416H39.8508L41.4836 22.0117H38.6436L34.8144 32.7813H37.6547L38.8734 29.3927L40.1382 28.3527L41.1388 31.4169C41.4491 32.3675 41.7713 32.7813 42.4613 32.7813H44.6345L42.4036 26.7646L47.7967 22.0117Z" fill="#00B33C"/>
</g>
<defs>
<clipPath id="clip0_2001_36854">
<rect width="40" height="11" fill="white" transform="translate(8 22)"/>
</clipPath>
</defs>
</svg>
