<svg width="55" height="55" viewBox="0 0 55 55" fill="none" xmlns="http://www.w3.org/2000/svg">
<g clip-path="url(#clip0_877_50138)">
<path d="M36 38H20C19.7348 38 19.4804 37.8946 19.2929 37.7071C19.1054 37.5196 19 37.2652 19 37V19C19 18.7348 19.1054 18.4804 19.2929 18.2929C19.4804 18.1054 19.7348 18 20 18H36C36.2652 18 36.5196 18.1054 36.7071 18.2929C36.8946 18.4804 37 18.7348 37 19V37C37 37.2652 36.8946 37.5196 36.7071 37.7071C36.5196 37.8946 36.2652 38 36 38ZM35 36V20H21V36H35ZM24 23H32V25H24V23ZM24 27H32V29H24V27ZM24 31H29V33H24V31Z" fill="#181C23"/>
</g>
<defs>
<clipPath id="clip0_877_50138">
<rect width="24" height="24" fill="white" transform="translate(16 16)"/>
</clipPath>
</defs>
</svg>
