<svg width="24" height="24" viewBox="0 0 24 24" fill="none" xmlns="http://www.w3.org/2000/svg">
<g clip-path="url(#clip0_2038_26783)">
<path fill-rule="evenodd" clip-rule="evenodd" d="M14.9785 8.64162C15.9351 8.08932 17.1587 8.41748 17.7109 9.37405L22.0029 16.8086L22.0498 16.8994C22.2438 17.3309 22.1063 17.8414 21.7227 18.1182L21.6367 18.1748L20.46 18.8535L22.4707 22.335L20.7393 23.335L18.7285 19.8526L17.3027 20.6768L17.2109 20.7237C16.7794 20.9174 16.2678 20.7804 15.9912 20.3965L15.9365 20.3115L11.6445 12.877C11.0923 11.9205 11.4196 10.6969 12.376 10.1446L14.9785 8.64162ZM13.376 11.877L13.71 12.4561C14.2517 12.1681 14.9279 12.3582 15.2373 12.8936C15.5465 13.4292 15.3728 14.1093 14.8525 14.4346L15.6699 15.8506C15.6877 15.839 15.706 15.8272 15.7246 15.8164C16.272 15.5008 16.972 15.6882 17.2881 16.2354C17.6042 16.7829 17.4166 17.4837 16.8691 17.7998C16.8508 17.8104 16.8312 17.8187 16.8125 17.8281L17.1689 18.4453L19.7715 16.9424L19.4346 16.3584C18.9563 16.4699 18.4418 16.2637 18.1836 15.8164C17.9256 15.3693 18.0034 14.8203 18.3389 14.4619L17.4814 12.9776C16.9696 13.1631 16.3833 12.9626 16.1016 12.4746C15.82 11.9867 15.9388 11.3778 16.3555 11.0274L15.9785 10.374L13.376 11.877Z" fill="#181C23"/>
<path fill-rule="evenodd" clip-rule="evenodd" d="M3.99707 1.60744C6.33851 0.206699 9.33368 0.807305 10.9648 2.9385L11.8789 2.41116L12.0605 2.31838C12.9852 1.90262 14.0935 2.24668 14.6113 3.14358L15.6328 4.91311L15.7266 5.0967C16.1139 5.95962 15.8396 6.98198 15.0723 7.53518L14.9004 7.64553L11.6084 9.54592L11.4268 9.63967C10.5021 10.0555 9.39382 9.71137 8.87598 8.81448L7.85449 7.04397C7.30225 6.08739 7.63034 4.86382 8.58691 4.31155L9.20898 3.95119C8.16145 2.78732 6.40976 2.49471 5.02441 3.32326C3.46284 4.25772 2.93968 6.27261 3.84961 7.84866L5.72168 11.0908C7.6545 14.4388 6.50704 18.7203 3.15918 20.6533L1.35059 21.6973L0.350586 19.9658L2.15918 18.9219C4.55058 17.5412 5.36982 14.4823 3.98926 12.0908L2.11719 8.84866C0.66121 6.32664 1.49828 3.1028 3.99707 1.60744ZM9.58691 6.04397L10.6084 7.8135L13.9004 5.91311L12.8789 4.14358L9.58691 6.04397Z" fill="#181C23"/>
</g>
<defs>
<clipPath id="clip0_2038_26783">
<rect width="24" height="24" fill="white"/>
</clipPath>
</defs>
</svg>
