<svg width="24" height="24" viewBox="0 0 24 24" fill="none" xmlns="http://www.w3.org/2000/svg">
<path d="M13 11H16L11 18V13H8L13 6V11Z" fill="#181C23"/>
<path fill-rule="evenodd" clip-rule="evenodd" d="M12 2C17.523 2 22 6.477 22 12C22 17.523 17.523 22 12 22C6.477 22 2 17.523 2 12C2 6.477 6.477 2 12 2ZM12 4C10.2144 4 8.49139 4.59826 7.0957 5.68164L9.69043 8.27637L8.27637 9.69043L5.68164 7.0957C4.59826 8.49139 4 10.2144 4 12C4 14.1217 4.84248 16.1569 6.34277 17.6572C7.84306 19.1575 9.87827 20 12 20C13.7855 20 15.5077 19.4007 16.9033 18.3174L14.4824 15.8965L15.8965 14.4824L18.3174 16.9033C19.4007 15.5077 20 13.7855 20 12C20 9.87827 19.1575 7.84306 17.6572 6.34277C16.1569 4.84248 14.1217 4 12 4Z" fill="#181C23"/>
</svg>
