<svg width="55" height="55" viewBox="0 0 55 55" fill="none" xmlns="http://www.w3.org/2000/svg">
<g clip-path="url(#clip0_2001_18806)">
<path d="M29.5102 33.4602L19.1352 28.8594L16.9375 32.769L28.5862 35.066L29.5102 33.4602Z" fill="#FCAF17"/>
<path d="M33.9711 25.5189L27.4967 14L25.0547 18.3433L32.8227 27.5516L33.9711 25.5189Z" fill="#FCAF17"/>
<path d="M32.3095 28.4798L24.5415 19.2715L22.3438 23.1811L31.4053 30.0857L32.3095 28.4798Z" fill="#FCAF17"/>
<path d="M30.9132 30.9534L21.8516 24.0488L19.6406 27.9923L29.9958 32.5863L30.9132 30.9534Z" fill="#FCAF17"/>
<path d="M16.4354 33.6631L14 37.9997H26.9423L28.0907 35.9669L16.4354 33.6631Z" fill="#FCAF17"/>
<path d="M28.0625 38.0004H31.501L34.5303 32.6203L37.5598 38.0004H40.9982L34.5303 26.4814L28.0625 38.0004Z" fill="#FCAF17"/>
</g>
<defs>
<clipPath id="clip0_2001_18806">
<rect width="27" height="24" fill="white" transform="translate(14 14)"/>
</clipPath>
</defs>
</svg>
