<svg width="24" height="24" viewBox="0 0 24 24" fill="none" xmlns="http://www.w3.org/2000/svg">
<g clip-path="url(#clip0_2038_26804)">
<path fill-rule="evenodd" clip-rule="evenodd" d="M14.7861 1.1582C15.8078 1.1582 16.6651 1.92849 16.7744 2.94434L17.3447 8.23438C17.4641 9.34301 16.6566 10.319 15.5752 10.4365L15.3555 10.4492H12.9512V12.8496H16.1826L16.2031 12.8506V11.4492H18.2031V15.8809H18.1826V16.54L18.1719 16.7441C18.0764 17.6857 17.3283 18.4338 16.3867 18.5293L16.1826 18.54H12.9512V20.6045H15.6494V22.6045H8.34961V20.6045H10.9512V18.54H7.81738C6.78174 18.54 5.93039 17.7528 5.82812 16.7441L5.81738 16.54V11.4492H7.81738V12.8496H10.9512V10.4492H8.64355L8.42383 10.4365C7.34283 10.3186 6.53598 9.34274 6.65527 8.23438L7.22461 2.94434C7.33393 1.92867 8.19142 1.15849 9.21289 1.1582H14.7861ZM7.81738 16.54H16.1826V14.8496H7.81738V16.54ZM8.64355 8.44922L15.3555 8.44824L14.7861 3.1582H9.21289L8.64355 8.44922Z" fill="#181C23"/>
</g>
<defs>
<clipPath id="clip0_2038_26804">
<rect width="24" height="24" fill="white"/>
</clipPath>
</defs>
</svg>
