<svg width="55" height="55" viewBox="0 0 55 55" fill="none" xmlns="http://www.w3.org/2000/svg">
<g clip-path="url(#clip0_2001_36834)">
<path d="M20 22.1433V34.9673L25.065 32.7973L31.065 35.7973L36 33.6803V20.8573L37.303 20.2993C37.3791 20.2666 37.4621 20.2534 37.5445 20.2608C37.627 20.2682 37.7063 20.2959 37.7754 20.3415C37.8445 20.3871 37.9012 20.4491 37.9404 20.5221C37.9796 20.595 38.0001 20.6765 38 20.7593V35.0003L31 38.0003L25 35.0003L18.697 37.7013C18.6209 37.7339 18.5379 37.7471 18.4555 37.7397C18.373 37.7323 18.2937 37.7046 18.2246 37.659C18.1555 37.6134 18.0988 37.5514 18.0596 37.4785C18.0204 37.4055 17.9999 37.324 18 37.2413V23.0003L20 22.1433ZM32.243 27.2433L28 31.4853L23.757 27.2433C22.918 26.4041 22.3466 25.335 22.1152 24.1711C21.8838 23.0073 22.0027 21.8009 22.4568 20.7046C22.911 19.6083 23.68 18.6713 24.6667 18.0121C25.6534 17.3528 26.8134 17.001 28 17.001C29.1866 17.001 30.3466 17.3528 31.3333 18.0121C32.32 18.6713 33.089 19.6083 33.5432 20.7046C33.9973 21.8009 34.1162 23.0073 33.8848 24.1711C33.6534 25.335 33.082 26.4041 32.243 27.2433ZM28 28.6573L30.828 25.8283C31.3875 25.2689 31.7686 24.5562 31.9231 23.7802C32.0775 23.0043 31.9983 22.1999 31.6956 21.4689C31.3929 20.738 30.8802 20.1132 30.2224 19.6736C29.5646 19.234 28.7912 18.9994 28 18.9994C27.2088 18.9994 26.4354 19.234 25.7776 19.6736C25.1198 20.1132 24.6071 20.738 24.3044 21.4689C24.0017 22.1999 23.9225 23.0043 24.0769 23.7802C24.2314 24.5562 24.6125 25.2689 25.172 25.8283L28 28.6573Z" fill="#181C23"/>
</g>
<defs>
<clipPath id="clip0_2001_36834">
<rect width="24" height="24" fill="white" transform="translate(16 16)"/>
</clipPath>
</defs>
</svg>
