<svg width="24" height="24" viewBox="0 0 24 24" fill="none" xmlns="http://www.w3.org/2000/svg">
<g clip-path="url(#clip0_2038_26777)">
<path d="M4 6.143V18.967L9.065 16.797L15.065 19.797L20 17.68V4.857L21.303 4.299C21.3791 4.26638 21.4621 4.25317 21.5445 4.26054C21.627 4.26791 21.7063 4.29564 21.7754 4.34124C21.8445 4.38684 21.9012 4.44888 21.9404 4.5218C21.9796 4.59471 22.0001 4.67622 22 4.759V19L15 22L9 19L2.697 21.701C2.62091 21.7336 2.53792 21.7468 2.45547 21.7395C2.37301 21.7321 2.29368 21.7044 2.22459 21.6588C2.1555 21.6132 2.09881 21.5511 2.05961 21.4782C2.02041 21.4053 1.99993 21.3238 2 21.241V7L4 6.143ZM16.243 11.243L12 15.485L7.757 11.243C6.91799 10.4038 6.34664 9.33474 6.11521 8.17089C5.88378 7.00703 6.00266 5.80068 6.45682 4.70438C6.91098 3.60808 7.68001 2.67107 8.66668 2.01183C9.65336 1.35259 10.8134 1.00072 12 1.00072C13.1866 1.00072 14.3466 1.35259 15.3333 2.01183C16.32 2.67107 17.089 3.60808 17.5432 4.70438C17.9973 5.80068 18.1162 7.00703 17.8848 8.17089C17.6534 9.33474 17.082 10.4038 16.243 11.243V11.243ZM12 12.657L14.828 9.828C15.3875 9.26864 15.7686 8.55591 15.9231 7.77995C16.0775 7.00399 15.9983 6.19966 15.6956 5.46869C15.3929 4.73771 14.8802 4.11293 14.2224 3.67335C13.5646 3.23377 12.7912 2.99914 12 2.99914C11.2088 2.99914 10.4354 3.23377 9.77759 3.67335C9.11977 4.11293 8.60708 4.73771 8.30437 5.46869C8.00165 6.19966 7.92251 7.00399 8.07695 7.77995C8.23139 8.55591 8.61247 9.26864 9.172 9.828L12 12.657Z" fill="#181C23"/>
</g>
<defs>
<clipPath id="clip0_2038_26777">
<rect width="24" height="24" fill="white"/>
</clipPath>
</defs>
</svg>
