<svg width="24" height="24" viewBox="0 0 24 24" fill="none" xmlns="http://www.w3.org/2000/svg">
<mask id="path-1-inside-1_2068_11202" fill="white">
<path d="M22 12C22 17.5228 17.5228 22 12 22C6.47715 22 2 17.5228 2 12C2 6.47715 6.47715 2 12 2C17.5228 2 22 6.47715 22 12ZM5.30269 12C5.30269 15.6988 8.30118 18.6973 12 18.6973C15.6988 18.6973 18.6973 15.6988 18.6973 12C18.6973 8.30118 15.6988 5.30269 12 5.30269C8.30118 5.30269 5.30269 8.30118 5.30269 12Z"/>
</mask>
<path d="M22 12C22 17.5228 17.5228 22 12 22C6.47715 22 2 17.5228 2 12C2 6.47715 6.47715 2 12 2C17.5228 2 22 6.47715 22 12ZM5.30269 12C5.30269 15.6988 8.30118 18.6973 12 18.6973C15.6988 18.6973 18.6973 15.6988 18.6973 12C18.6973 8.30118 15.6988 5.30269 12 5.30269C8.30118 5.30269 5.30269 8.30118 5.30269 12Z" stroke="#2A98FF" stroke-width="4" mask="url(#path-1-inside-1_2068_11202)"/>
<mask id="path-2-inside-2_2068_11202" fill="white">
<path d="M20.0225 17.9699C21.0707 16.5612 21.7296 14.9014 21.9328 13.1572C22.136 11.4131 21.8764 9.64622 21.18 8.03428C20.4837 6.42234 19.3752 5.02217 17.966 3.97459C16.5568 2.92701 14.8966 2.26896 13.1523 2.06662L12.7718 5.34731C13.9399 5.48282 15.0518 5.92354 15.9956 6.62513C16.9394 7.32673 17.6818 8.26447 18.1482 9.34404C18.6145 10.4236 18.7884 11.6069 18.6523 12.775C18.5162 13.9431 18.075 15.0548 17.3729 15.9982L20.0225 17.9699Z"/>
</mask>
<path d="M20.0225 17.9699C21.0707 16.5612 21.7296 14.9014 21.9328 13.1572C22.136 11.4131 21.8764 9.64622 21.18 8.03428C20.4837 6.42234 19.3752 5.02217 17.966 3.97459C16.5568 2.92701 14.8966 2.26896 13.1523 2.06662L12.7718 5.34731C13.9399 5.48282 15.0518 5.92354 15.9956 6.62513C16.9394 7.32673 17.6818 8.26447 18.1482 9.34404C18.6145 10.4236 18.7884 11.6069 18.6523 12.775C18.5162 13.9431 18.075 15.0548 17.3729 15.9982L20.0225 17.9699Z" stroke="#DDE5EC" stroke-width="4" mask="url(#path-2-inside-2_2068_11202)"/>
</svg>
