<svg width="28" height="28" viewBox="0 0 28 28" fill="none" xmlns="http://www.w3.org/2000/svg">
<rect width="28" height="28" fill="#FF8800"/>
<g clip-path="url(#clip0_547_27367)">
<path d="M14.666 18.0002V19.3335H18.666V20.6668H14.666C14.3124 20.6668 13.9733 20.5264 13.7232 20.2763C13.4732 20.0263 13.3327 19.6871 13.3327 19.3335V18.0002H11.3327C10.6254 18.0002 9.94716 17.7192 9.44706 17.2191C8.94697 16.719 8.66602 16.0407 8.66602 15.3335V10.6668C8.66602 10.49 8.73625 10.3204 8.86128 10.1954C8.9863 10.0704 9.15587 10.0002 9.33268 10.0002H11.3327V7.3335H12.666V10.0002H15.3327V7.3335H16.666V10.0002H18.666C18.8428 10.0002 19.0124 10.0704 19.1374 10.1954C19.2624 10.3204 19.3327 10.49 19.3327 10.6668V15.3335C19.3327 16.0407 19.0517 16.719 18.5516 17.2191C18.0515 17.7192 17.3733 18.0002 16.666 18.0002H14.666ZM11.3327 16.6668H16.666C17.0196 16.6668 17.3588 16.5264 17.6088 16.2763C17.8589 16.0263 17.9993 15.6871 17.9993 15.3335V13.3335H9.99935V15.3335C9.99935 15.6871 10.1398 16.0263 10.3899 16.2763C10.6399 16.5264 10.9791 16.6668 11.3327 16.6668ZM17.9993 11.3335H9.99935V12.0002H17.9993V11.3335ZM13.9993 15.6668C13.8225 15.6668 13.653 15.5966 13.5279 15.4716C13.4029 15.3465 13.3327 15.177 13.3327 15.0002C13.3327 14.8234 13.4029 14.6538 13.5279 14.5288C13.653 14.4037 13.8225 14.3335 13.9993 14.3335C14.1762 14.3335 14.3457 14.4037 14.4708 14.5288C14.5958 14.6538 14.666 14.8234 14.666 15.0002C14.666 15.177 14.5958 15.3465 14.4708 15.4716C14.3457 15.5966 14.1762 15.6668 13.9993 15.6668Z" fill="white"/>
</g>
<defs>
<clipPath id="clip0_547_27367">
<rect width="16" height="16" fill="white" transform="translate(6 6)"/>
</clipPath>
</defs>
</svg>
