<svg width="28" height="28" viewBox="0 0 28 28" fill="none" xmlns="http://www.w3.org/2000/svg">
<rect width="28" height="28" fill="#FF5252"/>
<g clip-path="url(#clip0_2020_20596)">
<path d="M14.6666 17.9997V19.333H18.6666V20.6663H14.6666C14.313 20.6663 13.9739 20.5259 13.7238 20.2758C13.4738 20.0258 13.3333 19.6866 13.3333 19.333V17.9997H11.3333C10.626 17.9997 9.94777 17.7187 9.44767 17.2186C8.94758 16.7185 8.66663 16.0403 8.66663 15.333V10.6663C8.66663 10.4895 8.73686 10.32 8.86189 10.1949C8.98691 10.0699 9.15648 9.99967 9.33329 9.99967H11.3333V7.33301H12.6666V9.99967H15.3333V7.33301H16.6666V9.99967H18.6666C18.8434 9.99967 19.013 10.0699 19.138 10.1949C19.2631 10.32 19.3333 10.4895 19.3333 10.6663V15.333C19.3333 16.0403 19.0523 16.7185 18.5522 17.2186C18.0521 17.7187 17.3739 17.9997 16.6666 17.9997H14.6666ZM11.3333 16.6663H16.6666C17.0202 16.6663 17.3594 16.5259 17.6094 16.2758C17.8595 16.0258 18 15.6866 18 15.333V13.333H9.99996V15.333C9.99996 15.6866 10.1404 16.0258 10.3905 16.2758C10.6405 16.5259 10.9797 16.6663 11.3333 16.6663ZM18 11.333H9.99996V11.9997H18V11.333ZM14 15.6663C13.8231 15.6663 13.6536 15.5961 13.5286 15.4711C13.4035 15.3461 13.3333 15.1765 13.3333 14.9997C13.3333 14.8229 13.4035 14.6533 13.5286 14.5283C13.6536 14.4032 13.8231 14.333 14 14.333C14.1768 14.333 14.3463 14.4032 14.4714 14.5283C14.5964 14.6533 14.6666 14.8229 14.6666 14.9997C14.6666 15.1765 14.5964 15.3461 14.4714 15.4711C14.3463 15.5961 14.1768 15.6663 14 15.6663Z" fill="white"/>
</g>
<defs>
<clipPath id="clip0_2020_20596">
<rect width="16" height="16" fill="white" transform="translate(6 6)"/>
</clipPath>
</defs>
</svg>
