<svg width="28" height="28" viewBox="0 0 28 28" fill="none" xmlns="http://www.w3.org/2000/svg">
<rect width="28" height="28" fill="#2A98FF"/>
<g clip-path="url(#clip0_547_27366)">
<path d="M18.666 6.6665C19.034 6.6665 19.3327 6.96517 19.3327 7.33317V20.6665C19.3327 21.0345 19.034 21.3332 18.666 21.3332H9.33268C8.96468 21.3332 8.66602 21.0345 8.66602 20.6665V7.33317C8.66602 6.96517 8.96468 6.6665 9.33268 6.6665H18.666ZM17.9993 13.9998H9.99935V19.9998H17.9993V13.9998ZM12.666 15.3332V17.9998H11.3327V15.3332H12.666ZM17.9993 7.99984H9.99935V12.6665H17.9993V7.99984ZM12.666 9.33317V11.3332H11.3327V9.33317H12.666Z" fill="white"/>
</g>
<defs>
<clipPath id="clip0_547_27366">
<rect width="16" height="16" fill="white" transform="translate(6 6)"/>
</clipPath>
</defs>
</svg>
