<svg width="20" height="20" viewBox="0 0 20 20" fill="none" xmlns="http://www.w3.org/2000/svg">
<g clip-path="url(#clip0_435_1100)">
<g clip-path="url(#clip1_435_1100)">
<path d="M-3.63647 -0.227295H23.6363V20.2273H-3.63647V-0.227295Z" fill="#012169"/>
<path d="M-0.440452 -0.227295L9.95728 7.48577L20.3124 -0.227295H23.6363V2.41475L13.409 10.0426L23.6363 17.6278V20.2273H20.2272L9.99989 12.5994L-0.18477 20.2273H-3.63647V17.6704L6.54818 10.0852L-3.63647 2.49998V-0.227295H-0.440452Z" fill="white"/>
<path d="M14.4317 11.7471L23.6363 18.5227V20.2273L12.088 11.7471H14.4317ZM6.5908 12.5994L6.84648 14.0909L-1.33534 20.2273H-3.63647L6.5908 12.5994ZM23.6363 -0.227295V-0.099454L13.0255 7.91191L13.1107 6.03691L21.5056 -0.227295H23.6363ZM-3.63647 -0.227295L6.54818 7.27271H3.99137L-3.63647 1.56248V-0.227295Z" fill="#C8102E"/>
<path d="M6.63341 -0.227295V20.2273H13.4516V-0.227295H6.63341ZM-3.63647 6.59089V13.4091H23.6363V6.59089H-3.63647Z" fill="white"/>
<path d="M-3.63647 7.99714V12.088H23.6363V7.99714H-3.63647ZM7.99705 -0.227295V20.2273H12.088V-0.227295H7.99705Z" fill="#C8102E"/>
</g>
</g>
<defs>
<clipPath id="clip0_435_1100">
<rect width="20" height="20" rx="10" fill="white"/>
</clipPath>
<clipPath id="clip1_435_1100">
<rect width="27.2727" height="20.4545" fill="white" transform="translate(-3.63647 -0.227295)"/>
</clipPath>
</defs>
</svg>
