<svg width="20" height="20" viewBox="0 0 20 20" fill="none" xmlns="http://www.w3.org/2000/svg">
<g clip-path="url(#clip0_991_8793)">
<g clip-path="url(#clip1_991_8793)">
<path d="M7.27271 -0.227539H23.6363V20.227H7.27271V-0.227539Z" fill="#FF0000"/>
<path d="M-3.63647 -0.227539H7.27262V20.227H-3.63647V-0.227539Z" fill="#006600"/>
<path fill-rule="evenodd" clip-rule="evenodd" d="M10.831 12.8211C9.45457 12.7785 3.16053 8.84952 3.11792 8.21884L3.46309 7.64355C4.08951 8.55123 10.5242 12.3737 11.1591 12.2373L10.831 12.8211Z" fill="#FFFF00"/>
<path fill-rule="evenodd" clip-rule="evenodd" d="M3.46253 7.63087C3.46687 7.63073 3.47099 7.63281 3.47346 7.63638C3.55059 7.74814 3.71828 7.90612 3.95545 8.09727C4.19225 8.28812 4.49719 8.51116 4.84768 8.75299C5.54864 9.23665 6.43129 9.79514 7.31429 10.321C8.1973 10.847 9.08045 11.3402 9.78242 11.6934C10.1334 11.87 10.4389 12.0114 10.6763 12.1045C10.7951 12.151 10.8965 12.1853 10.9779 12.2059C11.0599 12.2265 11.1197 12.2327 11.1563 12.2249C11.1612 12.2238 11.1663 12.2258 11.1692 12.2298C11.1722 12.2339 11.1726 12.2393 11.1701 12.2437L10.842 12.8275C10.8396 12.8316 10.8352 12.8341 10.8304 12.834C10.6562 12.8286 10.4056 12.7619 10.1015 12.6491C9.79707 12.5361 9.43772 12.3765 9.04536 12.1843C8.26061 11.7999 7.34314 11.2848 6.46747 10.7515C5.59181 10.2182 4.7577 9.66638 4.13974 9.20838C3.83079 8.97941 3.57561 8.7737 3.39622 8.60533C3.30654 8.52117 3.23552 8.44608 3.18615 8.38187C3.13724 8.31826 3.10795 8.26331 3.10501 8.21979C3.10483 8.21718 3.10546 8.21459 3.1068 8.21235L3.45197 7.63707C3.45421 7.63334 3.45818 7.631 3.46253 7.63087ZM3.46386 7.66695L3.13087 8.22194C3.13473 8.25697 3.15954 8.30532 3.20642 8.36629C3.2546 8.42894 3.32452 8.50297 3.41371 8.58669C3.59206 8.75407 3.84634 8.95911 4.15496 9.18784C4.77212 9.64524 5.60554 10.1966 6.48077 10.7297C7.35599 11.2627 8.27276 11.7774 9.0566 12.1613C9.44853 12.3533 9.80705 12.5126 10.1104 12.6251C10.4096 12.7361 10.6539 12.8012 10.8235 12.8081L11.1353 12.2533C11.094 12.2558 11.0386 12.2475 10.9716 12.2306C10.8888 12.2097 10.7862 12.175 10.667 12.1283C10.4285 12.0348 10.1222 11.893 9.77093 11.7162C9.06825 11.3627 8.18454 10.8691 7.30121 10.343C6.41787 9.8169 5.53472 9.25811 4.83316 8.77404C4.48239 8.53201 4.17689 8.30857 3.93941 8.11718C3.71313 7.93481 3.54758 7.78073 3.46386 7.66695Z" fill="black"/>
<path fill-rule="evenodd" clip-rule="evenodd" d="M3.3906 7.56259C3.26702 7.89498 5.03548 8.98588 7.15764 10.2813C9.28406 11.5725 11.1164 12.3694 11.2485 12.2586L11.3125 12.1393C11.2869 12.1819 11.2272 12.1947 11.1292 12.1649C10.5539 11.9987 9.05821 11.3126 7.20452 10.1876C5.34656 9.06259 3.73577 8.02708 3.48435 7.58816C3.46475 7.54701 3.45595 7.50155 3.45878 7.45605H3.45025L3.39912 7.5498L3.3906 7.56259ZM10.8608 12.8382C10.8395 12.8808 10.7926 12.8808 10.7116 12.8722C10.2003 12.8168 8.6406 12.0583 6.79543 10.9546C4.6477 9.6677 2.87497 8.50009 3.07099 8.19327L3.12213 8.09952L3.13065 8.10378C2.9602 8.62367 6.62923 10.7203 6.84656 10.8566C8.96872 12.1691 10.7585 12.9404 10.9162 12.7401L10.8608 12.8382Z" fill="#FFFF00"/>
<path fill-rule="evenodd" clip-rule="evenodd" d="M3.43889 7.45002C3.44113 7.44591 3.44544 7.44336 3.45011 7.44336H3.45864C3.46216 7.44336 3.46554 7.44482 3.46795 7.44739C3.47037 7.44996 3.47161 7.45342 3.4714 7.45694C3.46871 7.5001 3.47702 7.54324 3.49554 7.58231C3.55723 7.68973 3.7032 7.83529 3.91837 8.01148C4.13336 8.18752 4.41599 8.39303 4.74904 8.62012C5.41511 9.07428 6.28205 9.61426 7.211 10.1767L7.21101 10.1767C9.06448 11.3016 10.559 11.987 11.1326 12.1527L11.1328 12.1527C11.1809 12.1673 11.2182 12.1711 11.2459 12.1667C11.2731 12.1624 11.2908 12.1504 11.3014 12.1328C11.3049 12.1269 11.3126 12.1248 11.3186 12.1283C11.3247 12.1317 11.3269 12.1393 11.3236 12.1454L11.2597 12.2647C11.2589 12.2662 11.2579 12.2674 11.2566 12.2685C11.2446 12.2785 11.2257 12.2818 11.204 12.2817C11.1816 12.2817 11.1532 12.278 11.1193 12.271C11.0516 12.2572 10.9602 12.2298 10.8482 12.1901C10.6241 12.1106 10.3158 11.9809 9.9454 11.8074C9.20454 11.4604 8.21444 10.9382 7.15086 10.2924L7.15084 10.2923C6.08985 9.64467 5.11687 9.04788 4.42458 8.57143C4.0785 8.33325 3.80207 8.12481 3.61977 7.95489C3.52869 7.86998 3.46053 7.79417 3.419 7.72864C3.37783 7.6637 3.36083 7.60568 3.37847 7.55822L3.39045 7.56268L3.37982 7.55559L3.38803 7.54327L3.43889 7.45002ZM3.40195 7.56848C3.38947 7.604 3.40092 7.65235 3.44059 7.71495C3.48041 7.77777 3.54672 7.85184 3.63721 7.93618C3.81806 8.10477 4.09321 8.31234 4.43907 8.55037C5.13066 9.02633 6.10297 9.62272 7.16413 10.2705C8.22698 10.9159 9.21628 11.4377 9.95625 11.7842C10.3263 11.9575 10.6337 12.0869 10.8568 12.166C10.9684 12.2056 11.0584 12.2325 11.1245 12.246C11.1575 12.2528 11.1841 12.2561 11.2041 12.2562C11.2226 12.2562 11.2332 12.2534 11.2385 12.2501L11.2727 12.1863C11.2656 12.1888 11.258 12.1907 11.2499 12.192C11.2169 12.1972 11.1754 12.1924 11.1255 12.1772C10.5485 12.0105 9.05159 11.3237 7.19775 10.1986C6.26874 9.63609 5.40131 9.09582 4.73464 8.64124C4.40132 8.41397 4.11799 8.20798 3.90217 8.03126C3.68683 7.85493 3.53727 7.7066 3.47311 7.5946C3.47295 7.59432 3.4728 7.59403 3.47266 7.59374C3.4572 7.56128 3.44815 7.52625 3.4459 7.49057L3.4102 7.55601C3.41002 7.55635 3.40982 7.55667 3.40961 7.55698L3.40195 7.56848ZM3.11077 8.09349C3.11406 8.08744 3.12155 8.0851 3.12771 8.08817L3.13623 8.09244C3.1419 8.09527 3.14463 8.10183 3.14266 8.10785C3.13329 8.13641 3.13668 8.17178 3.15364 8.21422C3.17057 8.25659 3.20055 8.30475 3.24237 8.35792C3.326 8.46425 3.45541 8.58866 3.61687 8.72437C3.93968 8.99566 4.38861 9.31041 4.85006 9.61343C5.58437 10.0956 6.3485 10.547 6.68561 10.7461C6.77231 10.7973 6.83077 10.8318 6.8532 10.8459C7.91389 11.5019 8.89137 12.0225 9.62318 12.3541C9.98916 12.5199 10.2933 12.6383 10.5156 12.7027C10.6268 12.7349 10.7169 12.7535 10.7838 12.7579C10.8172 12.7601 10.8442 12.7587 10.8648 12.754C10.8855 12.7494 10.8986 12.7417 10.906 12.7323C10.9101 12.7271 10.9176 12.7259 10.9231 12.7296C10.9287 12.7333 10.9304 12.7407 10.9272 12.7465L10.8719 12.8443C10.8591 12.8697 10.8381 12.8823 10.8106 12.8871C10.7841 12.8917 10.7504 12.8893 10.7101 12.885L10.7101 12.885C10.5805 12.871 10.3858 12.8127 10.1387 12.7165C9.89128 12.6201 9.59038 12.4855 9.24795 12.3181C8.56306 11.9834 7.71153 11.5177 6.78872 10.9657L6.78871 10.9657C5.71481 10.3222 4.73432 9.70834 4.04673 9.2169C3.70302 8.97124 3.43198 8.75581 3.25902 8.58231C3.17262 8.49564 3.11002 8.41878 3.07523 8.35332C3.04077 8.28849 3.03179 8.23117 3.05983 8.18686L3.11077 8.09349ZM10.8606 12.8382L10.8495 12.832L10.881 12.7762C10.8776 12.7772 10.8741 12.7782 10.8705 12.779C10.8465 12.7844 10.8168 12.7857 10.7821 12.7834C10.7126 12.7788 10.6204 12.7597 10.5085 12.7273C10.2845 12.6624 9.97907 12.5434 9.61263 12.3774C8.87961 12.0453 7.90114 11.5241 6.8397 10.8676L6.83963 10.8675C6.81772 10.8538 6.76008 10.8198 6.67437 10.7691C6.33844 10.5707 5.57143 10.1177 4.83603 9.6348C4.37436 9.33164 3.92441 9.01623 3.60042 8.74394C3.43849 8.60785 3.30752 8.48211 3.22228 8.37373C3.17967 8.31956 3.14809 8.26923 3.12989 8.22371C3.11877 8.19588 3.11247 8.16936 3.112 8.14463L3.08207 8.19948C3.08193 8.19974 3.08178 8.19999 3.08162 8.20024C3.06096 8.23259 3.06454 8.27873 3.0978 8.34132C3.13083 8.40346 3.19134 8.47821 3.27713 8.56426C3.44854 8.7362 3.71816 8.95063 4.0616 9.1961C4.74829 9.6869 5.72803 10.3003 6.80185 10.9438C7.72421 11.4955 8.57509 11.9608 9.25917 12.2952C9.60122 12.4623 9.90144 12.5967 10.148 12.6926C10.3948 12.7887 10.5868 12.846 10.7128 12.8596C10.7535 12.8639 10.7838 12.8658 10.8062 12.8619C10.8276 12.8582 10.8407 12.8495 10.8492 12.8325L10.8606 12.8382Z" fill="black"/>
<path fill-rule="evenodd" clip-rule="evenodd" d="M7.28127 8.60192C8.65343 8.58913 10.3495 8.41442 11.3296 8.02237L11.1165 7.68146C10.5412 8.00107 8.83667 8.21413 7.26849 8.24396C5.41906 8.22692 4.11082 8.0522 3.45457 7.61328L3.25854 7.97976C4.46025 8.49112 5.69605 8.59766 7.28127 8.60192Z" fill="#FFFF00"/>
<path fill-rule="evenodd" clip-rule="evenodd" d="M3.45131 7.60097C3.45481 7.60009 3.45852 7.60074 3.46152 7.60274C3.78733 7.82066 4.27626 7.97371 4.91591 8.07429C5.55527 8.17482 6.34392 8.22274 7.26827 8.23127C8.05187 8.21635 8.86946 8.15566 9.56291 8.05881C9.90966 8.01037 10.2252 7.95292 10.4899 7.88767C10.7547 7.82237 10.9678 7.74945 11.1101 7.67038C11.1161 7.66707 11.1236 7.66901 11.1272 7.67478L11.3403 8.01569C11.3423 8.0189 11.3427 8.02283 11.3416 8.02643C11.3404 8.03003 11.3377 8.03292 11.3342 8.03433C10.3517 8.42731 8.65368 8.602 7.28124 8.61479C7.28119 8.61479 7.28113 8.61479 7.28108 8.61479C7.27411 8.61475 7.2684 8.60912 7.26833 8.60212C7.26827 8.59506 7.27394 8.58929 7.281 8.58922C7.28102 8.58922 7.28105 8.58922 7.28107 8.58922C5.70195 8.58497 4.47146 8.47916 3.27626 7.97354L3.45906 7.63179C3.78939 7.84862 4.27861 7.99996 4.91194 8.09954C5.55309 8.20036 6.34321 8.24831 7.26821 8.25684V8.25684L7.26858 8.25683C8.0531 8.24191 8.8718 8.18115 9.56644 8.08413C9.91376 8.03562 10.2302 7.97801 10.496 7.91249C10.7551 7.8486 10.9668 7.77701 11.1119 7.69856L11.3105 8.01624C10.3305 8.40338 8.64631 8.5765 7.28107 8.58922M3.45131 7.60097C3.44781 7.60184 3.44484 7.60416 3.44314 7.60734L3.45131 7.60097ZM3.44314 7.60734L3.24712 7.97382L3.44314 7.60734ZM7.28108 8.61479C5.69545 8.61053 4.45753 8.50401 3.25338 7.99161C3.25008 7.99021 3.24752 7.98748 3.24633 7.98409C3.24514 7.98071 3.24542 7.97698 3.24712 7.97382" fill="black"/>
<path fill-rule="evenodd" clip-rule="evenodd" d="M11.3849 8.03116C11.3508 8.08656 10.7116 8.30389 9.7741 8.46582C8.94767 8.59106 8.11281 8.65232 7.27695 8.64906C6.4761 8.65206 5.67597 8.60081 4.88206 8.49565C3.89768 8.34224 3.39058 8.12917 3.19882 8.05247L3.24569 7.95872C3.78689 8.17179 4.29825 8.29963 4.89484 8.39338C5.68296 8.49979 6.47741 8.55247 7.27268 8.55105C8.10422 8.55192 8.93465 8.49067 9.75706 8.36781C10.7159 8.21014 11.24 8.00985 11.3167 7.92037L11.3849 8.03542V8.03116ZM11.1974 7.68599C11.0951 7.77122 10.5752 7.95446 9.66331 8.09934C8.87583 8.21327 8.08115 8.27024 7.28547 8.2698C6.34797 8.2698 5.57666 8.20162 4.99285 8.11639C4.06388 7.99707 3.56956 7.77548 3.39058 7.71582L3.44598 7.62207C3.5866 7.69451 4.05961 7.88627 5.00138 8.01838C5.75844 8.11978 6.52166 8.1682 7.28547 8.16326C8.07548 8.16351 8.86448 8.10654 9.64626 7.99281C10.5625 7.86497 11.0568 7.63485 11.1335 7.5752L11.1974 7.68599ZM2.76842 10.2556C3.61217 10.7116 5.49143 10.9374 7.26842 10.9545C8.88774 10.9587 10.9929 10.7073 11.7812 10.2897L11.7599 9.83372C11.5127 10.2172 9.25422 10.588 7.25138 10.5752C5.24854 10.5581 3.38632 10.2513 2.76416 9.85076V10.2556" fill="#FFFF00"/>
<path fill-rule="evenodd" clip-rule="evenodd" d="M11.1358 7.56274C11.1394 7.56345 11.1426 7.56569 11.1444 7.5689L11.2083 7.67969L11.1972 7.68608L11.2054 7.6959C11.1782 7.71858 11.1249 7.74663 11.0474 7.77809C10.9696 7.80973 10.866 7.84529 10.7374 7.88266C10.48 7.95741 10.1216 8.03955 9.66516 8.11206L9.66498 8.11208C8.87689 8.2261 8.0816 8.28311 7.2853 8.28267L7.28531 8.26989V8.28267C7.28531 8.28267 7.28531 8.28267 7.2853 8.28267C6.34725 8.28267 5.57537 8.21445 4.99096 8.12914C4.991 8.12915 4.99103 8.12915 4.99107 8.12916L4.9927 8.11648L4.99085 8.12913C4.99089 8.12913 4.99093 8.12914 4.99096 8.12914C4.19654 8.0271 3.71902 7.85026 3.48534 7.76372C3.44533 7.7489 3.41246 7.73673 3.38638 7.72804C3.38272 7.72682 3.3798 7.724 3.37845 7.72038C3.3771 7.71677 3.37745 7.71273 3.37942 7.70941L3.43482 7.61566C3.43826 7.60982 3.44566 7.60769 3.45168 7.61079C3.59066 7.68239 4.06218 7.87383 5.00296 8.0058C5.00294 8.0058 5.00293 8.0058 5.00292 8.00579L5.00122 8.01847L5.003 8.00581C5.00298 8.0058 5.00297 8.0058 5.00296 8.0058C5.75942 8.10712 6.52203 8.1555 7.28523 8.15057L7.28532 8.15057C8.07471 8.15081 8.86309 8.09389 9.64427 7.98025L9.64434 7.98024C10.1017 7.91642 10.4536 7.82709 10.7006 7.74637C10.824 7.70601 10.9212 7.66781 10.9922 7.63606C11.0635 7.60414 11.1076 7.57909 11.1255 7.56519C11.1284 7.56292 11.1322 7.56203 11.1358 7.56274ZM11.1806 7.68281L11.1293 7.59384C11.1051 7.60985 11.0627 7.63254 11.0026 7.6594C10.9307 7.69156 10.8327 7.73007 10.7085 7.77067C10.4601 7.85188 10.1067 7.94153 9.64791 8.00555C8.86554 8.11937 8.07595 8.17638 7.28535 8.17614C6.52096 8.18107 5.75716 8.13262 4.99952 8.03114L4.99945 8.03113C4.07925 7.90205 3.60517 7.71595 3.45073 7.63898L3.40943 7.70888C3.43301 7.71708 3.46117 7.72751 3.49411 7.7397C3.728 7.8263 4.20296 8.00215 4.99433 8.1038L4.99455 8.10383L4.99454 8.10383C5.57774 8.18896 6.34842 8.2571 7.28531 8.2571H7.28532C8.08036 8.25754 8.87439 8.20063 9.66123 8.08679C10.1167 8.01442 10.4741 7.9325 10.7303 7.85811C10.8583 7.8209 10.961 7.78562 11.0378 7.7544C11.1069 7.72633 11.1543 7.70191 11.1806 7.68281ZM11.3177 7.90772C11.3218 7.90808 11.3255 7.91039 11.3276 7.91394L11.3902 8.01971C11.3946 8.0218 11.3975 8.02626 11.3975 8.03125V8.03551C11.3975 8.04127 11.3937 8.04632 11.3881 8.04784C11.3875 8.04801 11.3869 8.04813 11.3863 8.0482C11.3839 8.05021 11.3813 8.05215 11.3786 8.05401C11.3712 8.05912 11.3616 8.06465 11.35 8.07057C11.3269 8.08242 11.295 8.09626 11.2551 8.11169C11.1753 8.14256 11.0625 8.1801 10.9217 8.22091C10.64 8.30255 10.2453 8.39746 9.77612 8.47851L9.77587 8.47855C8.9488 8.60388 8.11329 8.66519 7.27679 8.66193C6.47538 8.66494 5.6747 8.61365 4.88022 8.50841L4.87993 8.50837L4.87993 8.50837C3.93051 8.36041 3.42419 8.15695 3.21643 8.07346C3.20849 8.07027 3.20099 8.06726 3.19392 8.06443C3.1906 8.0631 3.18798 8.06044 3.18671 8.0571C3.18544 8.05376 3.18563 8.05004 3.18723 8.04684L3.2341 7.95309C3.23707 7.94717 3.24406 7.94449 3.25022 7.94691C3.79034 8.15956 4.30073 8.28718 4.89654 8.38082C5.68404 8.48714 6.47786 8.53978 7.27251 8.53835H7.27254C8.10341 8.53922 8.93318 8.47802 9.75492 8.35527C10.2338 8.27651 10.6039 8.18715 10.8637 8.1064C10.9936 8.06602 11.0958 8.02784 11.1701 7.9943C11.2072 7.97752 11.2372 7.96198 11.2602 7.94799C11.2834 7.93387 11.2986 7.92179 11.3069 7.91213C11.3095 7.90901 11.3136 7.90736 11.3177 7.90772ZM11.3671 8.0308L11.3139 7.94108C11.3035 7.95023 11.2899 7.95983 11.2735 7.96982C11.2494 7.98453 11.2184 8.00055 11.1806 8.0176C11.1051 8.05171 11.0019 8.09023 10.8713 8.13082C10.6102 8.21199 10.2388 8.3016 9.75898 8.38051L9.75879 8.38054C8.93576 8.50349 8.1047 8.56479 7.27254 8.56392C6.47669 8.56534 5.68167 8.51263 4.89298 8.40614L4.8927 8.4061L4.8927 8.4061C4.29938 8.31286 3.78995 8.18589 3.25175 7.97498L3.21631 8.04586C3.21946 8.04712 3.22268 8.04842 3.22599 8.04975C3.43285 8.13288 3.93719 8.33556 4.88373 8.48308C5.67702 8.58816 6.47652 8.63937 7.27674 8.63636H7.27684C8.112 8.63962 8.94617 8.57841 9.77191 8.45329C10.2402 8.3724 10.6338 8.2777 10.9146 8.19635C11.055 8.15566 11.167 8.11836 11.2459 8.08784C11.2854 8.07257 11.3164 8.05909 11.3384 8.04781C11.3494 8.04217 11.3579 8.0372 11.3641 8.03295C11.3652 8.03219 11.3662 8.03147 11.3671 8.0308ZM11.7631 9.82146C11.7684 9.82291 11.7723 9.82766 11.7725 9.83321L11.7938 10.2892C11.7941 10.2941 11.7914 10.2988 11.787 10.3011C11.3907 10.511 10.6653 10.6785 9.83802 10.793C9.01019 10.9076 8.07849 10.9695 7.26823 10.9673L7.26814 10.9673C6.3792 10.9588 5.46455 10.898 4.66647 10.7824C3.87053 10.667 3.18913 10.4968 2.76497 10.2684C2.76465 10.2685 2.76433 10.2685 2.764 10.2685C2.75694 10.2685 2.75122 10.2627 2.75122 10.2557V9.85085C2.75122 9.84617 2.75378 9.84187 2.75788 9.83963C2.76199 9.83739 2.76699 9.83757 2.77093 9.8401C3.07955 10.0388 3.69825 10.2154 4.49191 10.3443C5.28486 10.4731 6.25046 10.554 7.2513 10.5625C8.252 10.5689 9.31662 10.4795 10.1618 10.3405C10.5844 10.2711 10.9518 10.1893 11.2288 10.1011C11.3673 10.057 11.4828 10.0113 11.5713 9.96498C11.6601 9.91844 11.7199 9.87196 11.749 9.82688C11.752 9.82221 11.7577 9.82002 11.7631 9.82146ZM2.77679 10.2458C3.19677 10.472 3.87455 10.6417 4.67014 10.7571C5.46686 10.8725 6.38033 10.9332 7.26838 10.9418M2.77679 10.2458V9.874V10.2458Z" fill="black"/>
<path fill-rule="evenodd" clip-rule="evenodd" d="M11.8237 10.1916V10.2981C11.7044 10.443 10.9629 10.6561 10.0339 10.8095C9.11099 10.9421 8.17936 11.0048 7.24698 10.997C6.36288 11.0045 5.47953 10.9433 4.60494 10.8137C3.95233 10.7383 3.31463 10.566 2.71289 10.3024V10.1788C3.12624 10.4515 4.24272 10.6561 4.61772 10.7157C5.29102 10.818 6.15607 10.8947 7.24698 10.8947C8.39329 10.8947 9.30948 10.8137 10.0169 10.7072C10.6859 10.6092 11.6362 10.3578 11.8237 10.1916ZM11.8237 9.80806V9.91459C11.7044 10.0552 10.9629 10.2683 10.0339 10.4217C9.1111 10.5558 8.17946 10.6199 7.24698 10.6135C6.36295 10.6187 5.47978 10.5574 4.60494 10.4302C3.95233 10.3548 3.31463 10.1825 2.71289 9.91886V9.79102C3.12624 10.068 4.24698 10.2683 4.61772 10.3279C5.48824 10.4555 6.36719 10.5167 7.24698 10.5112C8.39329 10.5112 9.31374 10.426 10.0169 10.3194C10.6859 10.2257 11.6362 9.97425 11.8237 9.80806ZM7.26403 12.7399C5.32085 12.7314 3.65465 12.2115 3.30096 12.1262L3.55664 12.5268C4.75191 12.9501 6.01321 13.1565 7.28107 13.1362C8.75977 13.0936 10.051 12.9785 10.9586 12.5353L11.2228 12.1177C10.6049 12.4118 8.49556 12.7399 7.25977 12.7399" fill="#FFFF00"/>
<path fill-rule="evenodd" clip-rule="evenodd" d="M2.70696 9.77983C2.71112 9.7776 2.71617 9.77786 2.7201 9.78048C2.92463 9.91754 3.306 10.0364 3.6844 10.1286C4.06207 10.2207 4.43451 10.2856 4.61975 10.3154C5.4896 10.4428 6.36787 10.504 7.24699 10.4985L7.24707 10.4985C8.39274 10.4985 9.31255 10.4133 10.015 10.3069L10.0152 10.3069C10.3491 10.2601 10.7534 10.1739 11.0975 10.0787C11.2696 10.0311 11.4265 9.98125 11.5519 9.93305C11.6778 9.88461 11.7703 9.83842 11.8153 9.79858L11.8238 9.80815H11.8366V9.91468C11.8366 9.91771 11.8355 9.92064 11.8335 9.92295C11.8172 9.94216 11.7911 9.96174 11.7572 9.98159C11.723 10.0016 11.6801 10.0223 11.6294 10.0435C11.5279 10.0859 11.3945 10.1307 11.236 10.1757C10.919 10.2659 10.5009 10.3576 10.0361 10.4344L10.0358 10.4344C9.11241 10.5686 8.18016 10.6328 7.24706 10.6263C6.36248 10.6315 5.47876 10.5702 4.60337 10.443C3.94957 10.3674 3.3107 10.1947 2.70785 9.93066C2.7032 9.92862 2.7002 9.92402 2.7002 9.91895V9.7911C2.7002 9.78638 2.7028 9.78205 2.70696 9.77983ZM11.811 9.83469C11.758 9.87327 11.6706 9.91478 11.561 9.95691C11.4346 10.0055 11.2769 10.0556 11.1043 10.1033C10.7593 10.1988 10.3539 10.2852 10.0188 10.3322C9.31506 10.4388 8.394 10.5241 7.24711 10.5241C7.2471 10.5241 7.24708 10.5241 7.24707 10.5241V10.5113L7.24715 10.5241C7.24714 10.5241 7.24712 10.5241 7.24711 10.5241C6.36668 10.5296 5.48711 10.4683 4.61596 10.3407L4.61578 10.3407L4.61578 10.3407C4.43025 10.3108 4.05701 10.2458 3.67835 10.1535C3.31206 10.0642 2.93856 9.94904 2.72576 9.81466V9.7911H2.71298L2.70586 9.80172C2.71233 9.80606 2.71896 9.81037 2.72576 9.81466V9.91058C2.72321 9.90947 2.72066 9.90835 2.71811 9.90724L2.71298 9.91895H2.72576V9.91058C3.32409 10.1718 3.95792 10.3427 4.60649 10.4176L4.60686 10.4177L4.60686 10.4177C5.48108 10.5448 6.36361 10.606 7.24699 10.6008L7.24716 10.6008C8.17896 10.6072 9.10991 10.5431 10.032 10.4092C10.032 10.4092 10.032 10.4092 10.0319 10.4092L10.034 10.4218L10.0322 10.4091C10.0321 10.4091 10.0321 10.4091 10.032 10.4092C10.4961 10.3325 10.9132 10.241 11.229 10.1511C11.387 10.1062 11.5193 10.0618 11.6195 10.0199C11.6696 9.99894 11.7114 9.97872 11.7443 9.95952C11.775 9.94158 11.7971 9.92491 11.811 9.90985V9.91468H11.8238L11.814 9.90641C11.8131 9.90755 11.8121 9.90869 11.811 9.90985V9.83469ZM2.70692 10.1676C2.71106 10.1654 2.71609 10.1656 2.72002 10.1682C2.9246 10.3032 3.30497 10.4221 3.68282 10.5148C4.06 10.6074 4.43247 10.6734 4.61977 10.7032C5.29239 10.8054 6.15679 10.882 7.24707 10.882C8.39278 10.882 9.30833 10.8011 10.0151 10.6947L10.0151 10.6946C10.349 10.6457 10.7533 10.5585 11.0975 10.4627C11.2696 10.4149 11.4264 10.3649 11.5518 10.3166C11.6778 10.2681 11.7703 10.2219 11.8153 10.1821L11.8238 10.1917H11.8366V10.2982C11.8366 10.3012 11.8355 10.304 11.8336 10.3063C11.8174 10.3261 11.7913 10.3462 11.7573 10.3665C11.7231 10.3869 11.6801 10.4079 11.6294 10.4294C11.5279 10.4725 11.3945 10.5176 11.236 10.563C10.919 10.6537 10.5009 10.7454 10.0361 10.8222L10.0358 10.8222C9.1123 10.955 8.18005 11.0177 7.24707 11.0099C6.36241 11.0174 5.47851 10.9561 4.60335 10.8265C3.94956 10.7509 3.31069 10.5783 2.70785 10.3142C2.7032 10.3121 2.7002 10.3075 2.7002 10.3025V10.1789C2.7002 10.1742 2.70278 10.1699 2.70692 10.1676ZM11.811 10.2182C11.758 10.2568 11.6706 10.2983 11.561 10.3405C11.4346 10.3892 11.2769 10.4394 11.1044 10.4874C10.7593 10.5834 10.3539 10.6709 10.0188 10.7199C9.31078 10.8266 8.39396 10.9076 7.24707 10.9076C6.15556 10.9076 5.28986 10.8308 4.61589 10.7285L4.6158 10.7284C4.42809 10.6986 4.05485 10.6325 3.67673 10.5397C3.3109 10.4499 2.93844 10.3347 2.72576 10.2023V10.2941C3.32409 10.5553 3.95792 10.7262 4.60649 10.8011L4.6069 10.8012L4.6069 10.8012C5.48084 10.9306 6.36352 10.9918 7.24696 10.9843H7.24718C8.17886 10.9921 9.10981 10.9295 10.032 10.7969C10.4961 10.7203 10.9132 10.6288 11.229 10.5384C11.3869 10.4932 11.5193 10.4484 11.6194 10.4059C11.6695 10.3847 11.7113 10.3641 11.7442 10.3445C11.7749 10.3262 11.7971 10.309 11.811 10.2935V10.2182ZM11.2325 12.1093C11.2363 12.1136 11.2368 12.1198 11.2337 12.1246L10.9695 12.5423C10.9683 12.5443 10.9665 12.5459 10.9643 12.5469C10.0538 12.9915 8.75994 13.1064 7.28153 13.1491L7.28137 13.1491C6.01198 13.1694 4.74917 12.9628 3.55246 12.539C3.54978 12.538 3.54749 12.5362 3.54595 12.5338L3.29027 12.1332C3.28747 12.1288 3.28761 12.1232 3.29064 12.1189C3.29367 12.1147 3.29897 12.1127 3.30404 12.1139C3.34736 12.1243 3.41025 12.1413 3.49081 12.1629C4.06942 12.3186 5.55993 12.7197 7.26384 12.7272C7.88046 12.7268 8.71408 12.645 9.47112 12.5265C10.2304 12.4077 10.9104 12.2524 11.2174 12.1063C11.2226 12.1038 11.2287 12.1051 11.2325 12.1093ZM7.25908 12.7527C7.25933 12.7527 7.25959 12.7528 7.25985 12.7528C7.26119 12.7528 7.26253 12.7528 7.26387 12.7528M7.25908 12.7527C5.55332 12.7445 4.06141 12.343 3.48399 12.1876C3.42126 12.1707 3.36932 12.1567 3.32907 12.1465L3.56514 12.5163C4.75773 12.9381 6.01604 13.1438 7.28089 13.1235C8.75806 13.0809 10.0452 12.966 10.9499 12.5255L11.1892 12.1472C10.8626 12.2897 10.2035 12.4378 9.47508 12.5518C8.71746 12.6703 7.88264 12.7524 7.26429 12.7528" fill="black"/>
<path fill-rule="evenodd" clip-rule="evenodd" d="M11.061 12.4418C11.0222 12.4993 10.9824 12.5561 10.9417 12.6122C10.5156 12.7656 9.83374 12.9276 9.55249 12.9702C8.7978 13.1108 8.03182 13.1821 7.26414 13.1832C5.54255 13.1577 4.13204 12.821 3.47152 12.5312L3.41613 12.4418L3.42465 12.4247L3.51414 12.4631C4.72694 12.8644 5.99521 13.0729 7.27266 13.081C8.0738 13.081 8.87067 12.9915 9.51414 12.8764C10.5028 12.6761 10.9033 12.527 11.0269 12.4588L11.0568 12.4418H11.061ZM11.2869 12.0668C11.2588 12.1167 11.2304 12.1664 11.2016 12.2159C10.9715 12.3011 10.3494 12.4801 9.44169 12.608C8.8451 12.6889 8.47436 12.7699 7.28544 12.7912C5.92633 12.7775 4.57558 12.5768 3.27124 12.1946L3.22437 12.0881C4.54958 12.4543 5.91513 12.6547 7.28971 12.6847C8.37635 12.6634 8.84084 12.5824 9.43317 12.5014C10.49 12.3395 11.0227 12.1605 11.1803 12.1136C11.1804 12.1108 11.1804 12.108 11.1803 12.1051L11.2911 12.0625L11.2869 12.0668Z" fill="#FFFF00"/>
<path fill-rule="evenodd" clip-rule="evenodd" d="M11.3019 12.0556C11.3052 12.0607 11.3045 12.0674 11.3003 12.0716L11.2972 12.0746C11.2694 12.1241 11.2413 12.1734 11.2128 12.2224C11.2113 12.225 11.209 12.227 11.2062 12.228C10.975 12.3136 10.3519 12.4928 9.44357 12.6207L9.4435 12.6207C9.35113 12.6332 9.26415 12.6458 9.17869 12.6581C8.71233 12.7253 8.29129 12.786 7.28576 12.8041L7.2854 12.8041C5.92512 12.7904 4.5732 12.5895 3.26773 12.207C3.26411 12.2059 3.26115 12.2033 3.25963 12.1998L3.21275 12.0933C3.21076 12.0888 3.21156 12.0835 3.21478 12.0798C3.21801 12.0761 3.2231 12.0745 3.22786 12.0758C4.55197 12.4418 5.91638 12.642 7.28981 12.672C8.25741 12.653 8.73106 12.5867 9.24193 12.5152C9.30422 12.5065 9.36707 12.4977 9.43143 12.4889C10.3948 12.3412 10.922 12.1795 11.1267 12.1167C11.1422 12.112 11.1558 12.1078 11.1677 12.1042C11.1681 12.0993 11.1712 12.0951 11.1758 12.0933L11.2866 12.0507C11.2923 12.0485 11.2986 12.0506 11.3019 12.0556ZM11.2602 12.0882L11.1932 12.114C11.1932 12.114 11.1932 12.1141 11.1932 12.1142C11.193 12.1197 11.1893 12.1244 11.1841 12.126C11.1703 12.1301 11.1536 12.1352 11.1339 12.1412C10.9289 12.2041 10.4004 12.3663 9.4352 12.5141L9.43499 12.5142C9.37063 12.523 9.30778 12.5318 9.24546 12.5405C8.73422 12.6121 8.25935 12.6785 7.29005 12.6975L7.28952 12.6975L7.28952 12.6975C5.92285 12.6678 4.5651 12.4696 3.24699 12.1076L3.28063 12.1841C4.58202 12.5649 5.92959 12.7649 7.28548 12.7785C8.28929 12.7605 8.70907 12.7 9.17509 12.6328C9.26055 12.6205 9.34757 12.6079 9.44003 12.5954C10.3414 12.4684 10.9605 12.2911 11.193 12.2056C11.2156 12.1666 11.238 12.1275 11.2602 12.0882ZM3.4133 12.4191C3.41633 12.413 3.42355 12.4104 3.42977 12.4131L3.51876 12.4512C4.73012 12.852 5.99687 13.0602 7.27279 13.0683C8.07297 13.0683 8.86901 12.9789 9.51183 12.864C10.5002 12.6637 10.899 12.5149 11.0208 12.4477C11.0208 12.4477 11.0208 12.4477 11.0208 12.4477L11.0505 12.4308C11.0524 12.4296 11.0546 12.4291 11.0568 12.4291H11.0611C11.0658 12.4291 11.0702 12.4317 11.0724 12.4359C11.0746 12.44 11.0743 12.4451 11.0717 12.449C11.0328 12.5066 10.993 12.5636 10.9521 12.6198C10.9506 12.6219 10.9485 12.6235 10.9461 12.6243C10.5193 12.778 9.83688 12.9401 9.55471 12.9829C8.79932 13.1236 8.03264 13.195 7.26425 13.1961L7.26404 13.1961C5.54123 13.1705 4.12894 12.8337 3.46648 12.543C3.46411 12.542 3.46211 12.5403 3.46074 12.5381L3.40535 12.4486C3.40301 12.4448 3.4028 12.4401 3.40478 12.4361L3.4133 12.4191ZM3.43096 12.4414L3.48039 12.5212C4.14047 12.8098 5.54715 13.145 7.26431 13.1705C8.03118 13.1694 8.79634 13.0982 9.55024 12.9577L9.55066 12.9576L9.55066 12.9576C9.83031 12.9153 10.5082 12.7543 10.9337 12.6016C10.9639 12.5601 10.9935 12.5181 11.0225 12.4758C10.8857 12.5474 10.4789 12.6941 9.51677 12.889L9.51648 12.8891C8.87241 13.0043 8.07477 13.0938 7.27275 13.0938L7.27267 13.0938C5.99388 13.0858 4.72428 12.8771 3.51021 12.4753C3.50987 12.4752 3.50953 12.4751 3.50919 12.4749L3.43096 12.4414Z" fill="black"/>
<path fill-rule="evenodd" clip-rule="evenodd" d="M11.3125 9.89755C11.3167 11.176 10.6605 12.3265 10.1363 12.8294C9.36218 13.5844 8.32836 14.0144 7.24712 14.0311C5.95593 14.0524 4.74144 13.2129 4.41331 12.8422C3.67926 12.0637 3.26148 11.0398 3.24144 9.96999C3.31814 8.57227 3.86786 7.60067 4.66047 6.93164C5.43044 6.29779 6.39901 5.95532 7.39627 5.96431C7.97842 5.99254 8.54826 6.14206 9.06927 6.4033C9.59028 6.66454 10.051 7.03173 10.4218 7.48136C10.9545 8.12908 11.1889 8.83221 11.3125 9.89755ZM7.25564 5.52539C8.44776 5.52536 9.59155 5.99658 10.4377 6.83633C11.2838 7.67608 11.7637 8.81627 11.7727 10.0083C11.7727 10.5999 11.6562 11.1856 11.4298 11.7321C11.2035 12.2785 10.8717 12.7751 10.4534 13.1933C10.0352 13.6116 9.53862 13.9434 8.99213 14.1697C8.44565 14.3961 7.85994 14.5126 7.26843 14.5126C6.67692 14.5126 6.0912 14.3961 5.54472 14.1697C4.99824 13.9434 4.50169 13.6116 4.08343 13.1933C3.66518 12.7751 3.33339 12.2785 3.10703 11.7321C2.88067 11.1856 2.76417 10.5999 2.76417 10.0083C2.75991 7.53675 4.77979 5.52539 7.25564 5.52539Z" fill="#FFFF00"/>
<path fill-rule="evenodd" clip-rule="evenodd" d="M10.4285 6.84549C9.58478 6.00811 8.44423 5.53823 7.25549 5.53826C4.78665 5.53826 2.77255 7.54394 2.7768 10.0084L2.7768 10.0084C2.7768 10.5983 2.89297 11.1823 3.11869 11.7272C3.34441 12.2722 3.67525 12.7673 4.09232 13.1844C4.50939 13.6015 5.00453 13.9323 5.54946 14.158C6.09439 14.3837 6.67844 14.4999 7.26827 14.4999C7.8581 14.4999 8.44216 14.3837 8.98709 14.158C9.53202 13.9323 10.0272 13.6015 10.4442 13.1844C10.8613 12.7673 11.1921 12.2722 11.4179 11.7272C11.6436 11.1823 11.7597 10.5983 11.7598 10.0084C11.7508 8.81977 11.2722 7.68284 10.4285 6.84549ZM7.25549 5.5127C8.45098 5.51266 9.598 5.98521 10.4465 6.82734C11.2951 7.66947 11.7763 8.81289 11.7853 10.0083V10.0084C11.7853 10.6016 11.6685 11.189 11.4415 11.737C11.2145 12.2851 10.8818 12.783 10.4623 13.2025C10.0429 13.6219 9.54491 13.9546 8.99687 14.1816C8.44884 14.4086 7.86146 14.5255 7.26827 14.5255C6.67509 14.5255 6.08771 14.4086 5.53967 14.1816C4.99164 13.9546 4.49369 13.6219 4.07424 13.2025C3.65479 12.783 3.32207 12.2851 3.09507 11.737C2.86807 11.189 2.75123 10.6016 2.75123 10.0084C2.74696 7.52974 4.77262 5.5127 7.25549 5.5127ZM7.39575 5.97718C6.40161 5.96828 5.43607 6.3097 4.66851 6.94155C3.87879 7.60816 3.33069 8.57628 3.25407 9.97031C3.27417 11.0367 3.6907 12.0575 4.42246 12.8335L4.42274 12.8338L4.42273 12.8338C4.58541 13.0176 4.96959 13.3192 5.47464 13.5723C5.97953 13.8253 6.60387 14.029 7.24676 14.0184H7.24677C8.32474 14.0017 9.35544 13.573 10.1272 12.8203L10.1273 12.8202C10.6491 12.3196 11.3035 11.1727 11.2995 9.8984C11.1761 8.83483 10.9422 8.13457 10.4118 7.48958C10.0421 7.04133 9.58281 6.67526 9.06339 6.41481C8.54404 6.15441 7.97603 6.00535 7.39575 5.97718ZM11.3123 9.89764L11.325 9.89617C11.2013 8.82946 10.9664 8.12364 10.4316 7.47332L10.4315 7.47331C10.0596 7.02231 9.59745 6.654 9.07485 6.39196C8.55224 6.12992 7.98066 5.97994 7.39673 5.95163L7.39673 5.95162L7.39623 5.95162C6.39597 5.9426 5.42447 6.2861 4.65219 6.92186L4.65207 6.92196C3.85668 7.59334 3.30541 8.56825 3.22852 9.96938C3.2285 9.96969 3.2285 9.97001 3.2285 9.97032C3.2486 11.0432 3.66758 12.0701 4.40372 12.8509C4.56924 13.0378 4.9563 13.3412 5.46319 13.5951C5.97037 13.8493 6.59887 14.0546 7.24718 14.0439C8.33164 14.0272 9.36856 13.5959 10.145 12.8387C10.145 12.8387 10.145 12.8387 10.145 12.8387L10.1362 12.8295L10.1451 12.8386C10.1451 12.8386 10.145 12.8387 10.145 12.8387" fill="black"/>
<path fill-rule="evenodd" clip-rule="evenodd" d="M7.26844 5.50391C9.74856 5.50391 11.7684 7.52379 11.7684 10.0039C11.7684 12.484 9.74856 14.5039 7.27271 14.5039C4.79685 14.5039 2.77271 12.484 2.77271 10.0039C2.77271 7.52379 4.79259 5.50391 7.27271 5.50391H7.26844ZM2.86646 9.99964C2.86646 12.4201 4.85651 14.4016 7.26844 14.4016C9.68038 14.4016 11.6704 12.4201 11.6704 9.99964C11.6704 7.57919 9.68038 5.59766 7.26844 5.59766C4.85651 5.59766 2.86646 7.57919 2.86646 9.99964Z" fill="#FFFF00"/>
<path fill-rule="evenodd" clip-rule="evenodd" d="M7.27042 5.51678C4.79834 5.51794 2.78533 7.53165 2.78533 10.004C2.78533 12.477 4.80375 14.4912 7.27255 14.4912C9.74133 14.4912 11.7555 12.4771 11.7555 10.004C11.7555 7.53165 9.7425 5.51794 7.27042 5.51678ZM7.27279 5.49121C9.75791 5.49366 11.7811 7.51832 11.7811 10.004C11.7811 12.4912 9.75547 14.5168 7.27255 14.5168C4.78965 14.5168 2.75977 12.4912 2.75977 10.004C2.75977 7.51832 4.78293 5.49366 7.26805 5.49121C7.26813 5.49121 7.26821 5.49121 7.26829 5.49121H7.27255C7.27263 5.49121 7.27271 5.49121 7.27279 5.49121ZM2.85352 9.99973C2.85352 7.5722 4.84931 5.58496 7.26829 5.58496C9.68726 5.58496 11.6831 7.5722 11.6831 9.99973C11.6831 12.4273 9.68726 14.4145 7.26829 14.4145C4.84931 14.4145 2.85352 12.4273 2.85352 9.99973ZM7.26829 5.61053C4.8634 5.61053 2.87908 7.58636 2.87908 9.99973C2.87908 12.4131 4.8634 14.3889 7.26829 14.3889C9.67318 14.3889 11.6575 12.4131 11.6575 9.99973C11.6575 7.58636 9.67318 5.61053 7.26829 5.61053Z" fill="black"/>
<path fill-rule="evenodd" clip-rule="evenodd" d="M7.27259 5.87891C8.36444 5.88228 9.41061 6.31751 10.1827 7.08957C10.9547 7.86163 11.39 8.90779 11.3933 9.99964C11.39 11.0919 10.9549 12.1385 10.1829 12.9112C9.411 13.684 8.36484 14.1201 7.27259 14.1246C5.01407 14.1246 3.15186 12.2667 3.15186 9.99964C3.15634 8.90814 3.59193 7.86262 4.36375 7.0908C5.13557 6.31898 6.18109 5.88339 7.27259 5.87891ZM3.24987 9.99964C3.24987 12.2156 5.06521 14.0224 7.27259 14.0224C9.47998 14.0224 11.2953 12.2113 11.2953 9.99964C11.2953 7.78374 9.47998 5.97692 7.27259 5.97692C6.20708 5.9814 5.18649 6.40667 4.43305 7.1601C3.67962 7.91354 3.25435 8.93413 3.24987 9.99964Z" fill="#FFFF00"/>
<path fill-rule="evenodd" clip-rule="evenodd" d="M10.1737 7.0987C9.40406 6.32904 8.36115 5.89515 7.27269 5.89178C6.18457 5.89626 5.1423 6.33051 4.37288 7.09993C3.60345 7.86936 3.16921 8.91164 3.16473 9.99976C3.16474 12.2597 5.0212 14.1119 7.27263 14.1119C8.3615 14.1075 9.40443 13.6726 10.174 12.9023C10.9435 12.132 11.3773 11.0886 11.3806 9.99973C11.3773 8.91127 10.9434 7.86836 10.1737 7.0987ZM7.27268 5.87899L7.27272 5.86621C8.36795 5.86959 9.41735 6.30617 10.1918 7.08062C10.9662 7.85506 11.4028 8.90447 11.4062 9.99969V9.99977C11.4028 11.0954 10.9664 12.1452 10.1921 12.9204C9.41774 13.6955 8.36835 14.133 7.27274 14.1375H7.27268C5.0071 14.1375 3.13916 12.2738 3.13916 9.99973L3.13916 9.99968C3.14366 8.9048 3.5806 7.85605 4.3548 7.08185C5.129 6.30765 6.17775 5.87071 7.27263 5.86621L7.27268 5.87899ZM7.27268 5.96422C9.48711 5.96422 11.3082 7.77675 11.3082 9.99973C11.3082 12.2185 9.48712 14.0352 7.27268 14.0352C5.05825 14.0352 3.23717 12.2227 3.23717 9.99973H3.24996L3.23717 9.99968C3.24167 8.9308 3.66828 7.90697 4.4241 7.15115C5.17992 6.39533 6.20375 5.96872 7.27263 5.96422L7.27268 5.96422ZM3.26274 9.99976C3.26275 12.2086 5.07235 14.0097 7.27268 14.0097C9.47302 14.0097 11.2826 12.2043 11.2826 9.99973C11.2826 7.79091 9.47304 5.98981 7.27271 5.98979C6.21058 5.99427 5.19323 6.41819 4.44218 7.16923C3.69113 7.92028 3.26722 8.93763 3.26274 9.99976Z" fill="black"/>
<path fill-rule="evenodd" clip-rule="evenodd" d="M7.4559 5.48242H7.06812V14.5293H7.45164L7.4559 5.48242Z" fill="#FFFF00"/>
<path fill-rule="evenodd" clip-rule="evenodd" d="M7.05542 5.48251C7.05542 5.47545 7.06114 5.46973 7.0682 5.46973H7.45599C7.45938 5.46973 7.46263 5.47107 7.46503 5.47347C7.46743 5.47587 7.46877 5.47913 7.46877 5.48252L7.46451 14.5294C7.46451 14.5364 7.45879 14.5422 7.45173 14.5422H7.0682C7.06114 14.5422 7.05542 14.5364 7.05542 14.5294V5.48251ZM7.08099 5.49529V14.5166H7.43895L7.4432 5.49529H7.08099Z" fill="black"/>
<path fill-rule="evenodd" clip-rule="evenodd" d="M7.41331 5.43164H7.51132V14.5808H7.41757V5.43164H7.41331ZM7.02979 5.43164H7.13206V14.5808H7.03405V5.43164H7.02979Z" fill="#FFFF00"/>
<path fill-rule="evenodd" clip-rule="evenodd" d="M7.01685 5.43173C7.01685 5.42467 7.02257 5.41895 7.02963 5.41895H7.1319C7.13896 5.41895 7.14469 5.42467 7.14469 5.43173V14.5809C7.14469 14.5879 7.13896 14.5937 7.1319 14.5937H7.03389C7.02683 14.5937 7.02111 14.5879 7.02111 14.5809V5.44126C7.01849 5.43892 7.01685 5.43552 7.01685 5.43173ZM7.04667 5.44451V14.5681H7.11912V5.44451H7.04667ZM7.40037 5.43173C7.40037 5.42467 7.40609 5.41895 7.41315 5.41895H7.51116C7.51823 5.41895 7.52395 5.42467 7.52395 5.43173V14.5809C7.52395 14.5879 7.51823 14.5937 7.51116 14.5937H7.41741C7.41035 14.5937 7.40463 14.5879 7.40463 14.5809V5.44126C7.40201 5.43892 7.40037 5.43552 7.40037 5.43173ZM7.4302 5.44451V14.5681H7.49838V5.44451H7.4302Z" fill="black"/>
<path fill-rule="evenodd" clip-rule="evenodd" d="M11.7725 10.1791V9.84668L11.4998 9.591L9.95292 9.18191L7.72849 8.95605L5.04383 9.09242L3.13474 9.54412L2.75122 9.82963V10.1663L3.72707 9.72736L6.04525 9.36515H8.27395L9.91031 9.54412L11.0438 9.81685L11.7725 10.1791Z" fill="#FFFF00"/>
<path fill-rule="evenodd" clip-rule="evenodd" d="M7.72793 8.94338C7.72858 8.94334 7.72923 8.94336 7.72987 8.94342L9.95431 9.16928C9.95497 9.16934 9.95563 9.16947 9.95628 9.16964L11.5032 9.57873C11.5052 9.57927 11.5071 9.58031 11.5086 9.58176L11.7814 9.83744C11.7839 9.83986 11.7854 9.84323 11.7854 9.84677V10.1792C11.7854 10.1836 11.7831 10.1877 11.7794 10.19C11.7756 10.1924 11.7709 10.1926 11.7669 10.1906L11.0395 9.82903L9.9082 9.55683L8.27334 9.37802H6.04634L3.73084 9.73982L2.75655 10.178C2.7526 10.1798 2.74801 10.1795 2.74437 10.1771C2.74072 10.1747 2.73853 10.1707 2.73853 10.1664V9.82972C2.73853 9.82568 2.74043 9.82188 2.74368 9.81947L3.1272 9.53396C3.1286 9.53292 3.13019 9.53217 3.13189 9.53177L5.04098 9.08007C5.04173 9.07989 5.0425 9.07978 5.04327 9.07974L7.72793 8.94338ZM5.04573 9.10522L3.14035 9.55604L2.76409 9.83614V10.1466L3.72192 9.71579C3.72296 9.71532 3.72406 9.715 3.72519 9.71482L6.04337 9.3526C6.04402 9.3525 6.04468 9.35245 6.04534 9.35245H8.27404C8.27422 9.35245 8.2744 9.35245 8.27459 9.35246C8.27487 9.35247 8.27515 9.3525 8.27543 9.35253L9.91179 9.5315C9.91233 9.53156 9.91286 9.53166 9.91339 9.53178L11.0469 9.80451C11.0478 9.80473 11.0488 9.80506 11.0496 9.80549L11.7598 10.1585V9.85231L11.4935 9.60262L9.95072 9.19461L7.72826 8.96896L5.04573 9.10522Z" fill="black"/>
<path fill-rule="evenodd" clip-rule="evenodd" d="M7.27255 9.30988C8.33363 9.30988 9.36062 9.40789 10.1831 9.56556C11.0268 9.73601 11.6191 9.94908 11.8237 10.1835V10.3028C11.5765 10.0045 10.7797 9.79141 10.1618 9.66357C9.35209 9.51016 8.32937 9.40789 7.26829 9.40789C6.15607 9.40789 5.1163 9.51868 4.31516 9.67209C3.67596 9.79993 2.81942 10.0556 2.71289 10.3028V10.1792C2.76829 10.0087 3.40749 9.75306 4.30238 9.56982C5.10778 9.41215 6.14755 9.30988 7.26829 9.30988H7.27255ZM7.27255 8.92209C8.24841 8.92014 9.22249 9.00571 10.1831 9.17777C11.0268 9.34823 11.6191 9.5613 11.8237 9.79993V9.91499C11.5765 9.62096 10.7797 9.40363 10.1618 9.28005C9.35209 9.12238 8.32937 9.02437 7.26829 9.02437C6.27929 9.02123 5.29212 9.10968 4.31942 9.28857C3.70153 9.40363 2.8109 9.66783 2.71289 9.91499V9.79567C2.77255 9.62522 3.42028 9.35675 4.30238 9.1863C5.11204 9.02863 6.14755 8.92209 7.27255 8.92209ZM7.24698 6.95334C8.9217 6.94482 10.3833 7.18772 11.0524 7.52863L11.2953 7.95476C10.7157 7.63942 9.13903 7.31556 7.25124 7.35817C5.71289 7.37096 4.068 7.52863 3.24556 7.97181L3.53533 7.48601C4.21289 7.13232 5.80664 6.95334 7.24698 6.95334Z" fill="#FFFF00"/>
<path fill-rule="evenodd" clip-rule="evenodd" d="M9.52494 7.12267C8.8673 7.02051 8.08389 6.96196 7.24713 6.96622C7.24711 6.96622 7.24709 6.96622 7.24707 6.96622M9.52494 7.12267C10.1806 7.22452 10.7103 7.36958 11.0433 7.53838L9.52494 7.12267ZM11.0433 7.53838L11.2626 7.92322C10.9631 7.77127 10.4389 7.6199 9.766 7.50971C9.06264 7.39452 8.19577 7.32416 7.25113 7.34548C6.48164 7.35188 5.68529 7.39451 4.9783 7.49101C4.2942 7.58439 3.69255 7.72836 3.27986 7.9395L3.54454 7.49577C3.88159 7.32085 4.44602 7.18845 5.1069 7.0998C5.76941 7.01094 6.52734 6.96622 7.24702 6.96622M7.24704 6.94065C6.5264 6.94065 5.76732 6.98542 5.1035 7.07446C4.44013 7.16344 3.8704 7.29682 3.52951 7.47477C3.52741 7.47586 3.52566 7.47752 3.52444 7.47955L3.23467 7.96535C3.23172 7.97029 3.23244 7.97658 3.23642 7.98074C3.24039 7.98489 3.24665 7.98588 3.25171 7.98315C3.66085 7.76269 4.2758 7.61271 4.98175 7.51635C5.68737 7.42003 6.48261 7.37743 7.25144 7.37104L7.25162 7.37104C8.19473 7.34975 9.06007 7.42001 9.76187 7.53494C10.4641 7.64993 11.0014 7.80946 11.2893 7.96608C11.2943 7.96881 11.3005 7.96788 11.3045 7.9638C11.3085 7.95972 11.3093 7.95348 11.3065 7.94852L11.0636 7.52238C11.0623 7.52022 11.0605 7.51846 11.0583 7.51732C10.722 7.34595 10.1877 7.19975 9.52886 7.0974C8.86975 6.99502 8.08498 6.93638 7.24704 6.94065ZM10.1808 9.19042C9.22098 9.0185 8.24772 8.93301 7.27266 8.93497L7.27264 8.92218V8.93497C6.14839 8.93497 5.1137 9.04143 4.30491 9.19893L4.30489 9.19894C3.86442 9.28405 3.48275 9.39359 3.20398 9.50297C3.06455 9.55768 2.95122 9.61222 2.86923 9.66345C2.82824 9.68906 2.79536 9.71368 2.77105 9.73688C2.74747 9.75938 2.73263 9.77989 2.72576 9.79801V9.86674C2.73922 9.84835 2.75627 9.83021 2.77631 9.81237C2.81212 9.78049 2.85816 9.74895 2.9121 9.71802C3.01996 9.65616 3.16058 9.59608 3.31699 9.54029C3.6299 9.42869 4.00771 9.33371 4.31717 9.27609L4.3172 9.27609C5.29067 9.09705 6.27863 9.00854 7.26842 9.01167C8.33019 9.01167 9.35373 9.10974 10.1643 9.26759L10.1643 9.2676C10.4736 9.32945 10.8279 9.41481 11.136 9.52161C11.2901 9.57501 11.4328 9.63385 11.5527 9.69793C11.6591 9.75474 11.7481 9.81601 11.811 9.88174V9.80479C11.71 9.68936 11.5146 9.57856 11.2387 9.47535C10.9605 9.37128 10.6022 9.27557 10.1808 9.19042ZM7.27261 8.9094C8.24924 8.90744 9.22407 8.99308 10.1854 9.16528L10.1857 9.16533C10.6079 9.25063 10.9677 9.34667 11.2476 9.4514C11.5271 9.55593 11.729 9.66978 11.8335 9.7917C11.8355 9.79402 11.8366 9.79697 11.8366 9.80002V9.91508C11.8366 9.92045 11.8332 9.92525 11.8282 9.92709C11.8231 9.92893 11.8174 9.92742 11.814 9.92331C11.7537 9.85159 11.6592 9.78379 11.5407 9.72048C11.4224 9.65724 11.2809 9.5989 11.1276 9.54577C10.8211 9.4395 10.468 9.35441 10.1594 9.29268C9.35061 9.13519 8.32872 9.03724 7.26838 9.03724H7.26834C6.28012 9.03411 5.29374 9.12249 4.32183 9.30123C4.0134 9.35866 3.63695 9.45332 3.32558 9.56437C3.16986 9.61991 3.03082 9.67941 2.92482 9.7402C2.87182 9.7706 2.82737 9.80114 2.79331 9.83147C2.75914 9.86188 2.73609 9.89147 2.72486 9.91979C2.7226 9.92549 2.71661 9.92879 2.71058 9.92764C2.70455 9.92648 2.7002 9.92121 2.7002 9.91508V9.79576C2.7002 9.79432 2.70044 9.79289 2.70091 9.79154C2.70932 9.76753 2.72756 9.74303 2.7534 9.71838C2.77938 9.6936 2.81378 9.66795 2.85569 9.64176C2.9395 9.58939 3.05441 9.53419 3.19464 9.47917C3.47517 9.3691 3.85841 9.25917 4.30004 9.17383C5.11056 9.016 6.14688 8.9094 7.27261 8.9094ZM7.26838 9.32275C6.14838 9.32275 5.10946 9.42496 4.30499 9.58244C3.85804 9.67396 3.47527 9.78351 3.19754 9.89131C3.05863 9.94523 2.94638 9.99856 2.86562 10.0488C2.82523 10.0739 2.79302 10.098 2.76935 10.1209C2.74636 10.1431 2.73212 10.1633 2.72576 10.1814V10.256C2.76365 10.2048 2.82896 10.1549 2.912 10.107C3.01819 10.0457 3.15601 9.98627 3.31003 9.93075C3.61814 9.81968 3.99272 9.72365 4.31275 9.65965L4.31285 9.65963C5.11479 9.50606 6.15537 9.39519 7.26838 9.39519C8.33021 9.39519 9.35374 9.49753 10.1642 9.6511L10.1644 9.65114C10.4736 9.71511 10.8279 9.80046 11.136 9.90726C11.2901 9.96066 11.4328 10.0195 11.5528 10.0839C11.6591 10.1409 11.7481 10.2026 11.811 10.2692V10.1884C11.71 10.075 11.5146 9.96528 11.2387 9.86261C10.9605 9.75906 10.6022 9.66334 10.1807 9.57819C9.35913 9.4207 8.33298 9.32275 7.27264 9.32275H7.26838ZM4.30001 9.55736C5.10632 9.39951 6.14693 9.29718 7.26838 9.29718H7.27264C8.33444 9.29718 9.36224 9.39525 10.1856 9.55309L10.1857 9.55312C10.6079 9.63842 10.9677 9.73446 11.2476 9.83864C11.5271 9.94264 11.7289 10.0554 11.8334 10.1751C11.8354 10.1775 11.8366 10.1805 11.8366 10.1835V10.3029C11.8366 10.3083 11.8332 10.3131 11.8281 10.3149C11.823 10.3167 11.8174 10.3152 11.8139 10.311C11.7537 10.2383 11.6591 10.17 11.5407 10.1064C11.4224 10.0429 11.2809 9.98456 11.1276 9.93142C10.8211 9.82516 10.4681 9.74007 10.1594 9.6762C9.35054 9.52296 8.32865 9.42076 7.26838 9.42076C6.15697 9.42076 5.11802 9.53148 4.3177 9.68473C3.99853 9.74857 3.62527 9.84429 3.3187 9.9548C3.16537 10.0101 3.02913 10.0689 2.92478 10.1291C2.81973 10.1897 2.74957 10.2503 2.72472 10.3079C2.72232 10.3135 2.71634 10.3166 2.7104 10.3154C2.70446 10.3142 2.7002 10.3089 2.7002 10.3029V10.1793C2.7002 10.1779 2.70041 10.1766 2.70082 10.1753C2.70866 10.1512 2.72633 10.1269 2.7516 10.1025C2.77699 10.078 2.8108 10.0528 2.85211 10.0271C2.93475 9.97568 3.04861 9.92169 3.18829 9.86747C3.46773 9.75901 3.85198 9.6491 4.2999 9.55738L4.30001 9.55736Z" fill="black"/>
<path fill-rule="evenodd" clip-rule="evenodd" d="M7.27264 7.30275C8.14704 7.28799 9.02107 7.34931 9.88485 7.48599C10.5667 7.61383 11.2187 7.80133 11.3124 7.9036L11.3849 8.03144C11.159 7.88656 10.5922 7.72036 9.86781 7.584C9.14338 7.44764 8.21866 7.40076 7.26838 7.40502C6.19025 7.40076 5.35076 7.45616 4.63485 7.584C4.14134 7.65317 3.6622 7.80137 3.21582 8.02292L3.28826 7.89082C3.54395 7.76298 3.94025 7.60531 4.61355 7.48173C5.35929 7.34536 6.2073 7.30701 7.27264 7.30275ZM7.27264 6.91923C8.18457 6.9107 9.08798 6.96184 9.7911 7.08968C10.2467 7.15732 10.6875 7.30139 11.0951 7.51582L11.2016 7.68627C11.0226 7.48599 10.3493 7.29423 9.74849 7.19195C9.04963 7.06837 8.18457 7.0215 7.27264 7.01298C6.42374 7.00541 5.57568 7.06812 4.73713 7.20048C4.29867 7.26157 3.87282 7.39249 3.47576 7.58826L3.56951 7.44764C3.81667 7.31979 4.21724 7.20048 4.72008 7.10247C5.56416 6.96838 6.41803 6.90565 7.27264 6.91497V6.91923ZM9.50559 11.8752C8.76698 11.7473 8.01784 11.6902 7.26838 11.7047C4.47718 11.7388 3.57804 12.28 3.46724 12.442L3.25417 12.101C3.97008 11.5897 5.48713 11.2999 7.28542 11.3255C8.21866 11.3425 9.02406 11.4064 9.69735 11.5385L9.50559 11.8795" fill="#FFFF00"/>
<path fill-rule="evenodd" clip-rule="evenodd" d="M4.7224 7.11514C4.22199 7.21269 3.82412 7.33117 3.5784 7.45757L3.5126 7.55627C3.8987 7.37132 4.31113 7.24704 4.73534 7.18792C5.57455 7.05547 6.42328 6.99271 7.27284 7.00028L7.27285 7.00028C8.18498 7.00881 9.05085 7.05569 9.75076 7.17945C10.0516 7.23066 10.3708 7.30429 10.6373 7.39028C10.7705 7.43327 10.8909 7.47943 10.9893 7.52753C11.0495 7.55696 11.1019 7.58731 11.1441 7.61837L11.0862 7.52561C10.6807 7.31274 10.2423 7.16967 9.78932 7.10242L9.78891 7.10235L9.78891 7.10235C9.08688 6.97471 8.18436 6.92358 7.27285 6.9321C7.26944 6.93213 7.26615 6.9308 7.26373 6.9284C7.26351 6.92818 7.26331 6.92796 7.26311 6.92774C6.41246 6.919 5.56257 6.98169 4.7224 7.11514ZM7.28218 6.90644C7.27987 6.90391 7.27656 6.90231 7.27287 6.90227C6.41754 6.89295 5.56295 6.95573 4.71817 7.08993L4.71816 7.08992L4.71773 7.09001C4.21455 7.18808 3.81254 7.30768 3.56373 7.43637C3.56181 7.43736 3.56017 7.43883 3.55897 7.44063L3.46522 7.58126C3.46201 7.58607 3.46243 7.59244 3.46624 7.59678C3.47006 7.60113 3.47632 7.60237 3.48151 7.59982C3.87734 7.40465 4.30187 7.27413 4.73898 7.21323L4.73898 7.21323L4.73921 7.21319C5.57706 7.08095 6.42442 7.01829 7.27261 7.02585C8.18432 7.03437 9.04854 7.08124 9.74635 7.20463L9.74644 7.20465C10.0464 7.25571 10.3643 7.32908 10.6294 7.41461C10.762 7.45738 10.8811 7.50311 10.978 7.5505C11.0753 7.59801 11.1491 7.64668 11.1922 7.69488C11.1966 7.69983 11.2041 7.70057 11.2094 7.69658C11.2147 7.6926 11.2161 7.68521 11.2125 7.67958L11.106 7.50913C11.1048 7.50721 11.1031 7.50565 11.1011 7.50459C10.6923 7.28952 10.2502 7.14501 9.79328 7.07716C9.09154 6.94959 8.19119 6.89836 7.28218 6.90644ZM9.88277 7.49868C9.01978 7.36213 8.14655 7.30088 7.27294 7.31562L7.27273 7.30284L7.27278 7.31562C6.20758 7.31988 5.36051 7.35824 4.61594 7.49439C3.94689 7.61719 3.5523 7.77361 3.29764 7.90056L3.24655 7.99373C3.68371 7.78147 4.15151 7.63896 4.63293 7.57146C5.34982 7.44347 6.19007 7.38807 7.26846 7.39233C8.21902 7.38807 9.14466 7.43494 9.87026 7.57152C10.2328 7.63976 10.556 7.71549 10.817 7.79235C11.0483 7.86047 11.2316 7.92972 11.35 7.99581L11.3021 7.91131C11.2917 7.90037 11.2731 7.88742 11.2461 7.87288C11.2186 7.85803 11.1833 7.84202 11.141 7.82514C11.0566 7.7914 10.9454 7.75451 10.8157 7.71675C10.5562 7.64126 10.2233 7.56253 9.88277 7.49868ZM7.27259 7.29005C6.20715 7.29432 5.35822 7.33267 4.61134 7.46924L4.61133 7.46924C3.93693 7.59302 3.53946 7.75106 3.28264 7.87947C3.28031 7.88063 3.27839 7.88248 3.27714 7.88476L3.2047 8.01686C3.20201 8.02176 3.20282 8.02783 3.20669 8.03186C3.21055 8.03589 3.21659 8.03694 3.22159 8.03446C3.66674 7.81352 4.14457 7.66572 4.63672 7.59675L4.63672 7.59676L4.63719 7.59667C5.35206 7.46902 6.1907 7.41364 7.26842 7.41789H7.26852C8.21852 7.41363 9.14229 7.46051 9.86553 7.59665C10.2275 7.66478 10.5498 7.74032 10.8098 7.81688C11.0701 7.89353 11.2667 7.9709 11.378 8.04229C11.383 8.04547 11.3895 8.04486 11.3937 8.04082C11.398 8.03677 11.399 8.03034 11.3961 8.02523L11.3236 7.89739C11.3231 7.89655 11.3226 7.89576 11.3219 7.89505C11.3087 7.88064 11.2867 7.86571 11.2583 7.85037C11.2296 7.8349 11.1933 7.81848 11.1505 7.8014C11.065 7.76723 10.953 7.73008 10.8228 7.6922C10.5624 7.61642 10.2285 7.5375 9.8873 7.47351L9.8873 7.47351L9.88694 7.47345C9.02245 7.33666 8.14771 7.27529 7.27259 7.29005ZM3.27149 12.1046L3.46844 12.4197C3.5047 12.377 3.58165 12.318 3.70963 12.252C3.85408 12.1774 4.06497 12.0932 4.35939 12.0132C4.94825 11.853 5.87196 11.7091 7.26829 11.692C7.2683 11.692 7.2683 11.692 7.26831 11.692L7.26847 11.7048L7.26822 11.692C7.26824 11.692 7.26827 11.692 7.26829 11.692C8.01627 11.6776 8.76393 11.7343 9.50115 11.8615L9.49454 11.8733C9.49215 11.8775 9.49245 11.8825 9.49488 11.8864C8.75986 11.7597 8.01445 11.7032 7.26871 11.7176L7.26862 11.7176C5.87377 11.7346 4.95232 11.8784 4.3661 12.0378C4.073 12.1176 3.86387 12.2012 3.72135 12.2747C3.57826 12.3485 3.5037 12.4115 3.47788 12.4493C3.47544 12.4528 3.47138 12.4549 3.46706 12.4548C3.46275 12.4547 3.45877 12.4525 3.45649 12.4488L3.24342 12.1079C3.23984 12.1022 3.24133 12.0947 3.24683 12.0907C3.60697 11.8335 4.16731 11.6328 4.86158 11.4994C5.55614 11.3661 6.38586 11.3 7.28569 11.3128L7.28574 11.3128C8.21935 11.3298 9.02558 11.3938 9.6999 11.5261C9.70393 11.5269 9.70733 11.5296 9.70905 11.5333C9.71077 11.537 9.7106 11.5413 9.70859 11.5449L9.51682 11.8858C9.51336 11.892 9.50557 11.8941 9.49941 11.8907C9.4975 11.8896 9.49598 11.8881 9.49488 11.8864M9.67762 11.5478L9.50115 11.8615L9.67762 11.5478ZM9.67762 11.5478C9.68342 11.5489 9.68921 11.55 9.69498 11.5512L9.69744 11.5386L9.6863 11.5324L9.67762 11.5478ZM9.67762 11.5478C9.0089 11.4182 8.21017 11.3552 7.28533 11.3383L7.28551 11.3256L7.28528 11.3383C7.2853 11.3383 7.28531 11.3383 7.28533 11.3383C6.38687 11.3256 5.55892 11.3916 4.8664 11.5246C4.17993 11.6564 3.62763 11.8538 3.27149 12.1046" fill="black"/>
<path fill-rule="evenodd" clip-rule="evenodd" d="M7.25548 11.6577C8.03105 11.6705 8.78957 11.7003 9.52679 11.8367L9.47565 11.9304C8.79384 11.8026 8.06088 11.7599 7.25974 11.7599C6.22423 11.7514 5.18446 11.8494 4.27679 12.1094C3.99128 12.1903 3.51827 12.3736 3.46713 12.527L3.41599 12.4418C3.43304 12.348 3.71429 12.1605 4.25122 12.0156C5.29099 11.7173 6.26259 11.6619 7.25548 11.6577ZM7.28957 11.2656C8.10817 11.2648 8.92525 11.3361 9.73134 11.4787L9.67594 11.5767C8.8888 11.4323 8.08982 11.3624 7.28957 11.3679C6.25832 11.3679 5.16315 11.4446 4.16599 11.7344C3.84639 11.8281 3.28815 12.0327 3.27111 12.1903L3.21997 12.0966C3.22849 11.9517 3.71003 11.7599 4.14469 11.6364C5.14611 11.3423 6.24554 11.2699 7.28957 11.2656Z" fill="#FFFF00"/>
<path fill-rule="evenodd" clip-rule="evenodd" d="M9.7114 11.4882C8.91183 11.3479 8.10151 11.2777 7.28969 11.2785C6.24606 11.2828 5.14806 11.3552 4.14838 11.6487L4.14827 11.6488C3.9313 11.7104 3.70295 11.7891 3.52799 11.8702C3.44045 11.9108 3.36682 11.9517 3.31474 11.9912C3.2887 12.011 3.26845 12.03 3.25456 12.0482C3.24172 12.0649 3.23481 12.0802 3.23314 12.094L3.26776 12.1574C3.27354 12.1451 3.2817 12.133 3.29164 12.1212C3.3101 12.0992 3.33547 12.0772 3.36582 12.0555C3.42653 12.0119 3.50876 11.9683 3.59989 11.9268C3.78226 11.8439 4.00234 11.7692 4.16248 11.7222L4.16252 11.7222C5.16135 11.4319 6.25789 11.3552 7.28962 11.3552C8.08762 11.3497 8.88436 11.4192 9.66937 11.5626L9.7114 11.4882ZM7.28966 11.2657L7.28965 11.2529C8.109 11.2521 8.92683 11.3235 9.73365 11.4662C9.73774 11.4669 9.74122 11.4696 9.74299 11.4733C9.74476 11.4771 9.7446 11.4815 9.74255 11.4851L9.68715 11.5831C9.68447 11.5878 9.67908 11.5904 9.67372 11.5894C8.88738 11.4451 8.08919 11.3753 7.28975 11.3808L7.28966 11.3808C6.25891 11.3808 5.16513 11.4575 4.16966 11.7467C4.0102 11.7935 3.79137 11.8679 3.61047 11.9501C3.51996 11.9913 3.43946 12.0341 3.38072 12.0762C3.35134 12.0973 3.32781 12.1179 3.31122 12.1376C3.29456 12.1575 3.28566 12.1756 3.28391 12.1918C3.28331 12.1974 3.27917 12.2019 3.27368 12.203C3.2682 12.2041 3.26265 12.2015 3.25997 12.1966L3.20884 12.1028C3.20769 12.1007 3.20716 12.0983 3.2073 12.0959C3.20857 12.0744 3.21853 12.0531 3.23427 12.0326C3.25004 12.012 3.2722 11.9914 3.29929 11.9708C3.35348 11.9298 3.429 11.8879 3.51724 11.847C3.69383 11.7651 3.92355 11.6861 4.14123 11.6242C5.14436 11.3296 6.2452 11.2572 7.28961 11.2529L7.28966 11.2657ZM7.25578 11.645V11.645C8.03143 11.6578 8.79087 11.6876 9.5292 11.8242C9.53323 11.8249 9.53666 11.8275 9.53842 11.8312C9.54018 11.8349 9.54006 11.8393 9.5381 11.8429L9.48697 11.9366C9.48431 11.9415 9.47883 11.9441 9.47339 11.9431C8.79265 11.8154 8.06057 11.7728 7.25983 11.7728L7.25973 11.7728C6.22498 11.7643 5.18652 11.8623 4.2804 12.1218L4.28037 12.1218C4.13812 12.1621 3.94916 12.2279 3.78958 12.3027C3.70976 12.3401 3.63769 12.3795 3.58258 12.4189C3.52689 12.4587 3.49076 12.4969 3.47935 12.5311C3.47777 12.5359 3.47358 12.5392 3.46861 12.5398C3.46365 12.5403 3.45883 12.5379 3.45626 12.5337L3.40512 12.4484C3.40352 12.4458 3.40295 12.4426 3.4035 12.4396C3.40858 12.4117 3.43225 12.3799 3.46978 12.3465C3.50787 12.3127 3.56228 12.2754 3.63258 12.2368C3.77323 12.1595 3.97874 12.076 4.24788 12.0034C5.28929 11.7047 6.26222 11.6492 7.25552 11.645L7.25578 11.645ZM7.25549 11.6706C6.26307 11.6748 5.29289 11.7302 4.25484 12.028L4.25464 12.0281L4.25464 12.0281C3.9869 12.1003 3.78335 12.1831 3.6449 12.2592C3.57564 12.2972 3.52298 12.3335 3.48677 12.3657C3.45277 12.3959 3.43493 12.4211 3.4297 12.4397L3.46566 12.4996C3.48524 12.4651 3.52177 12.4309 3.56772 12.3981C3.6246 12.3574 3.69822 12.3173 3.77873 12.2795C3.93982 12.2041 4.13011 12.1378 4.27337 12.0972C5.18258 11.8368 6.22363 11.7387 7.25988 11.7473C8.05783 11.7473 8.78867 11.7895 9.46897 11.9162L9.5072 11.8461C8.77659 11.7127 8.02484 11.6832 7.25549 11.6706Z" fill="black"/>
<path fill-rule="evenodd" clip-rule="evenodd" d="M11.2526 12.1521L10.9203 12.6762L9.95293 11.8197L7.45577 10.1365L4.63474 8.58958L3.1731 8.091L3.48418 7.51145L3.59071 7.45605L4.49838 7.68191L7.49838 9.22878L9.22849 10.3197L10.6816 11.3637L11.2739 12.0455L11.2526 12.1521Z" fill="#FFFF00"/>
<path fill-rule="evenodd" clip-rule="evenodd" d="M3.5849 7.4448C3.58767 7.44336 3.59086 7.44299 3.59389 7.44374L4.50155 7.66959C4.50252 7.66983 4.50345 7.67018 4.50433 7.67063L7.50433 9.21751C7.50465 9.21768 7.50497 9.21786 7.50529 9.21806L9.2354 10.309C9.23562 10.3091 9.23583 10.3092 9.23604 10.3094L10.6892 11.3534C10.69 11.354 10.6907 11.3547 10.6914 11.3554L11.2837 12.0372C11.2863 12.0402 11.2873 12.0443 11.2866 12.0481L11.2653 12.1547C11.265 12.1562 11.2644 12.1577 11.2635 12.159L10.9311 12.6832C10.9291 12.6863 10.9258 12.6884 10.9221 12.689C10.9184 12.6895 10.9147 12.6884 10.9119 12.6859L9.94517 11.8299L7.44919 10.1475L4.62966 8.60141L3.16906 8.10319C3.1655 8.10197 3.16266 8.09926 3.16129 8.09577C3.15991 8.09227 3.16014 8.08835 3.16192 8.08504L3.473 7.5055C3.47422 7.50323 3.47609 7.50138 3.47837 7.5002L3.5849 7.4448ZM3.5924 7.46972L3.49366 7.52106L3.19158 8.08385L4.63896 8.57757C4.63966 8.5778 4.64033 8.5781 4.64098 8.57846L7.462 10.1253C7.46234 10.1255 7.46268 10.1257 7.463 10.1259L9.96016 11.8092C9.96062 11.8095 9.96107 11.8098 9.96149 11.8102L10.9176 12.6568L11.2407 12.1473L11.2603 12.0493L10.673 11.3733L9.22143 10.3304L7.49212 9.23998L4.49393 7.69404L3.5924 7.46972Z" fill="black"/>
<path fill-rule="evenodd" clip-rule="evenodd" d="M3.12205 8.1034C3.37773 7.93295 5.26125 8.76817 7.23853 9.96136C9.20301 11.1545 11.0865 12.5011 10.9161 12.7525L10.8607 12.842L10.8351 12.8633C10.8394 12.8591 10.8692 12.8207 10.8351 12.7312C10.7499 12.4543 9.41182 11.3889 7.20017 10.0508C5.03966 8.76817 3.24137 7.99261 3.06665 8.2142L3.12205 8.1034ZM11.3209 12.1474C11.4828 11.8236 9.73568 10.5068 7.56665 9.22414C5.35074 7.96704 3.74847 7.22556 3.45443 7.44715L3.39478 7.57073C3.39478 7.57499 3.39478 7.56221 3.41182 7.54942C3.46296 7.50681 3.55245 7.50681 3.5908 7.50681C4.09364 7.51533 5.52972 8.17585 7.54534 9.33067C8.43171 9.84204 11.2783 11.6744 11.2655 12.1858C11.2655 12.2284 11.2698 12.2369 11.2527 12.2625L11.3252 12.1517L11.3209 12.1474Z" fill="#FFFF00"/>
<path fill-rule="evenodd" clip-rule="evenodd" d="M4.79508 7.76953C5.50998 8.08459 6.46497 8.58449 7.57305 9.21311L7.57325 9.21322C8.65805 9.85473 9.63757 10.5049 10.3258 11.0353C10.6698 11.3005 10.9415 11.536 11.1171 11.7258C11.2049 11.8207 11.2692 11.9046 11.3065 11.9756C11.3412 12.0418 11.3541 12.0998 11.3361 12.145C11.3387 12.1492 11.3387 12.1545 11.336 12.1588L11.2651 12.2671C11.2646 12.2679 11.264 12.2688 11.2635 12.2697C11.2596 12.2755 11.2516 12.2771 11.2458 12.2733C11.2399 12.2694 11.2383 12.2615 11.2421 12.2556L11.2422 12.2555C11.2427 12.2547 11.2432 12.254 11.2437 12.2532C11.2502 12.2431 11.2521 12.2369 11.2529 12.2293C11.2533 12.2248 11.2534 12.2197 11.2532 12.2125C11.2531 12.2055 11.2528 12.1967 11.2528 12.1859L11.2528 12.1856C11.2536 12.1565 11.2441 12.1215 11.2242 12.0808C11.2043 12.0402 11.1746 11.9948 11.1357 11.9452C11.058 11.846 10.945 11.7311 10.8058 11.6054C10.5274 11.3542 10.1456 11.0616 9.73527 10.7687C8.91477 10.183 7.98188 9.59732 7.53905 9.34184C6.53143 8.76454 5.66887 8.31091 4.99552 8.00058C4.65883 7.84541 4.36961 7.72615 4.13333 7.64517C3.8968 7.56411 3.71438 7.5218 3.59078 7.51968C3.57158 7.51968 3.54059 7.51971 3.5082 7.52485C3.47551 7.53004 3.44305 7.54021 3.4201 7.55933C3.41993 7.55947 3.41976 7.55961 3.41958 7.55974C3.41278 7.56484 3.40975 7.56963 3.40843 7.57228C3.40777 7.57359 3.40746 7.57452 3.40727 7.57511C3.40723 7.57521 3.40706 7.57574 3.40688 7.57619C3.40683 7.57632 3.40643 7.57739 3.40569 7.57853C3.40543 7.57895 3.40404 7.58114 3.40133 7.58271C3.39965 7.58368 3.3969 7.58475 3.39345 7.58436C3.38994 7.58396 3.3874 7.58223 3.38586 7.58069C3.38344 7.57828 3.38271 7.57557 3.38258 7.57508C3.38257 7.57506 3.38257 7.57505 3.38257 7.57504C3.38232 7.57416 3.38223 7.57345 3.38219 7.57315C3.38211 7.57251 3.3821 7.57198 3.38209 7.57182C3.38208 7.57144 3.38208 7.57099 3.38208 7.57082C3.38208 7.5689 3.38252 7.567 3.38335 7.56526L3.44301 7.44168C3.4439 7.43985 3.44521 7.43826 3.44683 7.43703C3.487 7.40676 3.54771 7.39409 3.62501 7.39563C3.70267 7.39718 3.7991 7.41313 3.91267 7.44225C4.13986 7.5005 4.4377 7.61202 4.79508 7.76953ZM11.2785 12.1999L11.3093 12.1528C11.3078 12.1493 11.3078 12.1453 11.3096 12.1418C11.3269 12.1072 11.3199 12.0562 11.2838 11.9875C11.2481 11.9194 11.1855 11.8374 11.0984 11.7432C10.9242 11.5549 10.6538 11.3204 10.3102 11.0556C9.62306 10.526 8.64453 9.87644 7.56034 9.2353C6.45255 8.60684 5.49848 8.10746 4.78477 7.79292C4.42785 7.63562 4.1315 7.52475 3.90632 7.46702C3.7937 7.43814 3.6994 7.42269 3.6245 7.4212C3.55105 7.41973 3.49815 7.43173 3.46465 7.45566L3.43322 7.52077C3.45571 7.50968 3.48075 7.50332 3.50419 7.4996C3.53874 7.49412 3.57152 7.49412 3.59071 7.49412H3.59111C3.71892 7.49628 3.90454 7.53974 4.14162 7.62098C4.37901 7.70234 4.66908 7.82198 5.00622 7.97736C5.68051 8.28812 6.54379 8.74215 7.55179 9.31967C7.99533 9.57556 8.92895 10.1617 9.75013 10.7479C10.1607 11.041 10.5435 11.3343 10.8229 11.5865C10.9626 11.7125 11.0768 11.8286 11.1558 11.9295C11.1953 11.9799 11.2263 12.0268 11.2472 12.0695C11.268 12.1121 11.2792 12.1513 11.2784 12.186C11.2784 12.1911 11.2785 12.1957 11.2785 12.1999ZM3.13199 8.11238L3.0998 8.17675C3.10462 8.17494 3.10967 8.17334 3.11494 8.17195C3.13989 8.16533 3.17059 8.16292 3.20636 8.1642C3.2779 8.16676 3.37201 8.18417 3.48584 8.21507C3.71366 8.2769 4.02301 8.39345 4.39398 8.55681C5.13605 8.8836 6.12622 9.39842 7.20679 10.0399L7.20688 10.04C8.31298 10.7092 9.20078 11.3103 9.82283 11.7788C10.1338 12.0131 10.3786 12.2143 10.551 12.3745C10.6372 12.4545 10.7055 12.5245 10.755 12.5833C10.8041 12.6415 10.8357 12.69 10.8473 12.7272C10.8607 12.7625 10.8647 12.7907 10.8641 12.8125L10.9056 12.7455C10.9137 12.7334 10.9165 12.7173 10.912 12.6955C10.9075 12.6736 10.8959 12.6471 10.8768 12.6162C10.8386 12.5543 10.7722 12.4772 10.6808 12.3874C10.4981 12.2077 10.2178 11.979 9.87037 11.7205C9.17565 11.2036 8.21401 10.5688 7.23198 9.97237C6.24371 9.376 5.27898 8.86916 4.52955 8.53277C4.15477 8.36455 3.83415 8.23909 3.59148 8.16634C3.4701 8.12995 3.36866 8.10689 3.28992 8.09815C3.25055 8.09379 3.21722 8.09304 3.19011 8.09587C3.16465 8.09853 3.14548 8.10425 3.13199 8.11238ZM3.12214 8.10349L3.11505 8.09285C3.13342 8.08061 3.15805 8.07351 3.18745 8.07044C3.21699 8.06736 3.25227 8.06825 3.29274 8.07274C3.37366 8.08172 3.47677 8.10526 3.59882 8.14185C3.84301 8.21505 4.16479 8.34101 4.54002 8.50944C5.29057 8.84634 6.25623 9.35369 7.24522 9.9505C8.22768 10.5472 9.19007 11.1824 9.88563 11.6999C10.2333 11.9587 10.5147 12.1883 10.6987 12.3691C10.7906 12.4595 10.8587 12.5382 10.8985 12.6027C10.9184 12.635 10.9317 12.6644 10.9371 12.6904C10.9424 12.7165 10.9399 12.7402 10.9269 12.7596L10.8716 12.8489C10.8709 12.85 10.87 12.8511 10.869 12.8519L10.8434 12.8733C10.8381 12.8776 10.8304 12.8771 10.8258 12.8721C10.8212 12.867 10.8213 12.8592 10.8262 12.8544C10.8263 12.8543 10.8281 12.8522 10.8304 12.8478C10.8327 12.8433 10.8354 12.8365 10.837 12.8271C10.8403 12.8085 10.8396 12.7789 10.8233 12.7359C10.8232 12.7356 10.8231 12.7354 10.823 12.7351C10.8131 12.7031 10.7844 12.6578 10.7355 12.5997C10.6869 12.542 10.6194 12.4729 10.5336 12.3932C10.3621 12.2339 10.1181 12.0332 9.80745 11.7992C9.18626 11.3314 8.29922 10.7308 7.19369 10.0619C6.11377 9.42076 5.12455 8.90647 4.38368 8.58021C4.01317 8.41705 3.70516 8.30109 3.47914 8.23974C3.36606 8.20905 3.27413 8.1922 3.20544 8.18975C3.1711 8.18852 3.14314 8.19092 3.1215 8.19666C3.09984 8.2024 3.08543 8.21124 3.07678 8.2222C3.07272 8.22735 3.06542 8.22859 3.05989 8.22508C3.05435 8.22157 3.05237 8.21443 3.05531 8.20857L3.1107 8.09777L3.12214 8.10349Z" fill="black"/>
<path d="M4.57251 10.501C4.57318 10.8539 4.64384 11.2031 4.78038 11.5285C4.91692 11.8538 5.11663 12.1488 5.36797 12.3965C5.61624 12.6486 5.91194 12.8491 6.23803 12.9864C6.56412 13.1237 6.91416 13.1951 7.26797 13.1965C7.98404 13.1965 8.67076 12.912 9.17707 12.4056C9.42752 12.1566 9.62631 11.8605 9.76204 11.5345C9.89776 11.2084 9.96775 10.8588 9.96798 10.5056V6.90558L4.57251 6.89648V10.501Z" fill="white"/>
<path fill-rule="evenodd" clip-rule="evenodd" d="M4.55664 6.88086L9.98393 6.89V10.5059C9.9837 10.8612 9.9133 11.2129 9.77676 11.5409C9.64024 11.8689 9.44027 12.1667 9.18834 12.4172C9.18834 12.4172 9.18835 12.4172 9.18834 12.4172M5.35676 12.4081C5.60649 12.6616 5.90391 12.8632 6.23189 13.0013C6.55992 13.1395 6.91203 13.2113 7.26795 13.2127H7.26801C7.98828 13.2127 8.67905 12.9265 9.18834 12.4172M5.35676 12.4081C5.10397 12.159 4.90309 11.8622 4.76575 11.5349C4.62839 11.2076 4.55732 10.8563 4.55664 10.5014L4.55664 6.88086M4.58846 10.5013C4.58913 10.8521 4.65936 11.1992 4.79509 11.5226C4.93081 11.846 5.12934 12.1393 5.37917 12.3855L5.37934 12.3856C5.62614 12.6362 5.92008 12.8355 6.24424 12.972C6.5684 13.1085 6.91636 13.1795 7.26808 13.1809C7.9799 13.1808 8.66255 12.898 9.16586 12.3947L9.16589 12.3946C9.41485 12.1471 9.61247 11.8528 9.74739 11.5287C9.88231 11.2046 9.95188 10.857 9.95211 10.5059V6.92177L4.58846 6.91273V10.5013Z" fill="black"/>
<path d="M4.67261 10.5056C4.67357 10.844 4.74154 11.179 4.87261 11.491C5.00367 11.8031 5.19524 12.0861 5.43625 12.3238C5.92018 12.8102 6.57734 13.0849 7.26352 13.0874C7.9485 13.0878 8.60566 12.8164 9.0908 12.3328C9.33099 12.0948 9.52171 11.8116 9.65199 11.4996C9.78227 11.1875 9.84953 10.8528 9.8499 10.5147V7.01465H4.6817V10.5056M8.81807 8.06465V10.2874L8.81353 10.5192C8.81506 10.7223 8.77559 10.9236 8.69749 11.111C8.61938 11.2985 8.50425 11.4682 8.35898 11.6101C8.06993 11.9002 7.67757 12.0637 7.26807 12.0647C6.8408 12.0647 6.46352 11.8828 6.1817 11.601C5.89164 11.312 5.72816 10.9196 5.72716 10.5101V8.05556L8.81807 8.06465Z" fill="#FF0000"/>
<path fill-rule="evenodd" clip-rule="evenodd" d="M4.67022 7.00391H9.86115V10.5153C9.86078 10.8549 9.79323 11.1912 9.66237 11.5046C9.53152 11.818 9.33996 12.1024 9.09871 12.3415C8.61144 12.8272 7.9514 13.0998 7.26341 13.0994C6.57423 13.0968 5.91417 12.821 5.42811 12.3324C5.18605 12.0937 4.99366 11.8095 4.86202 11.496C4.73037 11.1826 4.6621 10.8462 4.66113 10.5062L4.6725 10.5062H4.67022V7.00391ZM4.68386 10.5062C4.68482 10.8431 4.75249 11.1766 4.88297 11.4872C5.01346 11.7979 5.20417 12.0797 5.44411 12.3163L5.44419 12.3164C5.92601 12.8007 6.58028 13.0741 7.26346 13.0767C7.94541 13.077 8.59967 12.8068 9.08267 12.3254C9.32179 12.0885 9.51169 11.8065 9.6414 11.4958C9.7711 11.1852 9.83806 10.8519 9.83842 10.5153V7.02663H4.69295V10.5062H4.68386ZM5.71568 8.04478L8.82933 8.05394V10.288L8.82933 10.2882L8.82478 10.5197C8.82478 10.5198 8.82478 10.5198 8.82478 10.5199C8.8263 10.7244 8.78654 10.9272 8.70787 11.116C8.62918 11.3048 8.5132 11.4759 8.36686 11.6188C8.07569 11.911 7.68047 12.0756 7.26799 12.0766C6.83734 12.0766 6.45725 11.8934 6.17357 11.6097C5.88138 11.3185 5.71669 10.9233 5.71568 10.5108V8.04478ZM5.73841 8.06758V10.5107C5.7394 10.9172 5.90169 11.3067 6.18961 11.5936C6.46956 11.8735 6.84404 12.0539 7.26793 12.0539C7.67442 12.0529 8.06389 11.8906 8.35082 11.6027L8.35093 11.6026C8.4951 11.4618 8.60937 11.2933 8.68689 11.1073C8.7644 10.9212 8.80358 10.7214 8.80205 10.5199L8.80205 10.5196L8.8066 10.288V8.0766L5.73841 8.06758Z" fill="black"/>
<path d="M5.00879 7.92823C5.01333 7.67823 5.19061 7.61914 5.19061 7.61914C5.19515 7.61914 5.38606 7.68278 5.38606 7.93278H5.00879" fill="#FFFF00"/>
<path d="M4.85447 7.62369L4.82265 7.91005H5.01356C5.01356 7.67369 5.19538 7.63732 5.19538 7.63732C5.19992 7.63732 5.37719 7.68732 5.38174 7.91005H5.57265L5.53629 7.61914H4.85447V7.62369ZM4.80901 7.9146H5.58174C5.59538 7.9146 5.60901 7.92823 5.60901 7.94641C5.60901 7.96914 5.59538 7.98278 5.58174 7.98278H4.80901C4.79537 7.98278 4.78174 7.96914 4.78174 7.94641C4.78174 7.92823 4.79537 7.9146 4.81356 7.9146H4.80901Z" fill="#FFFF00"/>
<path fill-rule="evenodd" clip-rule="evenodd" d="M4.84299 7.60742H5.54621L5.58314 7.90291C5.60348 7.90384 5.62027 7.92332 5.62027 7.94606C5.62027 7.97282 5.60357 7.99379 5.58163 7.99379H4.8089C4.78696 7.99379 4.77026 7.97282 4.77026 7.94606C4.77026 7.92314 4.78671 7.90526 4.8089 7.9031V7.90288H4.81186L4.84299 7.6227V7.60742ZM4.86503 7.63015L4.83523 7.89833H5.00222C5.00505 7.78367 5.05054 7.71552 5.097 7.67604C5.1208 7.6558 5.1446 7.6433 5.16249 7.63585C5.1682 7.63347 5.17333 7.6316 5.17768 7.63015H4.86503ZM5.19527 7.63697C5.19466 7.63395 5.19422 7.63175 5.1939 7.63015L5.19527 7.63697ZM5.21188 7.63015C5.21702 7.63203 5.22334 7.6346 5.23051 7.63798C5.24862 7.64652 5.2723 7.66029 5.29599 7.68131C5.34206 7.72219 5.38757 7.79005 5.39262 7.89833H5.55967L5.52614 7.63015H5.21188ZM5.37006 7.90288C5.36614 7.79913 5.32324 7.73588 5.2809 7.69831C5.25913 7.67899 5.23736 7.66634 5.22082 7.65854C5.21255 7.65464 5.20563 7.65198 5.20073 7.65031C5.19843 7.64952 5.19661 7.64897 5.19533 7.64862C5.19418 7.64891 5.1926 7.64932 5.19065 7.6499C5.18603 7.65125 5.17932 7.65346 5.17123 7.65683C5.15502 7.66359 5.13336 7.67495 5.11172 7.69335C5.06963 7.72913 5.02657 7.7923 5.02486 7.90288H5.37006ZM4.81345 7.9256C4.80154 7.9256 4.79299 7.93415 4.79299 7.94606C4.79299 7.96475 4.80357 7.97106 4.8089 7.97106H5.58163C5.58696 7.97106 5.59754 7.96475 5.59754 7.94606C5.59754 7.933 5.58789 7.9256 5.58163 7.9256H4.81345Z" fill="black"/>
<path d="M5.09071 7.91037C5.09071 7.76037 5.19526 7.71946 5.19526 7.71946C5.19526 7.71946 5.29981 7.76492 5.29981 7.91037H5.09071ZM4.82708 7.50128H5.56799C5.58162 7.50128 5.59526 7.51946 5.59526 7.53764C5.59526 7.55128 5.58162 7.56491 5.56799 7.56491H4.82708C4.81344 7.56491 4.7998 7.55128 4.7998 7.5331C4.7998 7.51946 4.81344 7.50582 4.82708 7.50582V7.50128ZM5.1089 7.97855H5.54526C5.5589 7.97855 5.57253 7.99219 5.57253 8.01037C5.57253 8.02855 5.5589 8.04219 5.54526 8.04219H4.84071C4.82253 8.04219 4.81344 8.02855 4.81344 8.01037C4.81344 7.99219 4.82253 7.97855 4.84071 7.97855H5.1089ZM5.33617 7.49673H5.39072V7.5331H5.43162V7.49673H5.49072V7.53764H5.53162V7.49219H5.58617V7.5831C5.58617 7.60128 5.57708 7.61037 5.56344 7.61037H5.36344C5.34981 7.61037 5.33617 7.60128 5.33617 7.58764V7.49673ZM5.54526 7.61946L5.5589 7.91037H5.36344L5.37708 7.61492H5.54526" fill="#FFFF00"/>
<path fill-rule="evenodd" clip-rule="evenodd" d="M5.52015 7.48047H5.59742V7.50788C5.60292 7.51614 5.60651 7.52658 5.60651 7.53729C5.60651 7.5463 5.60273 7.55462 5.59742 7.56104V7.58274C5.59742 7.5936 5.59471 7.60343 5.58836 7.61068C5.58184 7.61813 5.57279 7.62138 5.56333 7.62138H5.55663L5.5707 7.92138H5.35143L5.36528 7.62138H5.36333C5.35413 7.62138 5.34482 7.61835 5.3376 7.61273C5.33026 7.60702 5.32469 7.59824 5.32469 7.58729V7.57592H4.82697C4.80596 7.57592 4.78833 7.55604 4.78833 7.53274C4.78833 7.52223 4.79347 7.51266 4.80018 7.50596C4.80437 7.50177 4.80966 7.4982 4.8156 7.4961V7.48956H5.32469V7.48501H5.40197V7.48956H5.42015V7.48501H5.50197V7.48956H5.52015V7.48047ZM5.52015 7.51229H5.50197V7.52592H5.52015V7.51229ZM5.47924 7.51229V7.54865H5.54288V7.51229H5.56788C5.56925 7.51229 5.5718 7.51314 5.5747 7.51588V7.55106C5.5723 7.5525 5.56989 7.5532 5.56788 7.5532H5.34742V7.51229H5.37924V7.5441H5.44288V7.51229H5.47924ZM5.42015 7.51229H5.40197V7.52138H5.42015V7.51229ZM5.32469 7.51229H4.83833V7.51683H4.82697C4.82384 7.51683 4.81977 7.51851 4.81625 7.52203C4.81273 7.52555 4.81106 7.52962 4.81106 7.53274C4.81106 7.5458 4.8207 7.5532 4.82697 7.5532H5.32469V7.51229ZM5.34742 7.57592V7.58729C5.34742 7.58997 5.34867 7.59255 5.35156 7.59479C5.35457 7.59713 5.3589 7.59865 5.36333 7.59865H5.56333C5.56751 7.59865 5.56982 7.59735 5.57126 7.59571C5.57286 7.59388 5.5747 7.59006 5.5747 7.58274V7.57521C5.57248 7.57567 5.5702 7.57592 5.56788 7.57592H5.34742ZM5.38782 7.62592L5.37523 7.89865H5.54688L5.53409 7.62592H5.38782ZM5.19968 7.70868L5.19515 7.71911L5.19101 7.70852L5.19538 7.70681L5.19968 7.70868ZM5.19494 7.73172C5.19244 7.73298 5.18898 7.73486 5.18487 7.73745C5.17579 7.74318 5.16357 7.75233 5.15131 7.76592C5.12828 7.79146 5.10465 7.83317 5.10218 7.89865H5.28811C5.28557 7.83536 5.26202 7.79367 5.23891 7.76754C5.2266 7.75363 5.21432 7.74403 5.20518 7.73794C5.20099 7.73514 5.19747 7.7331 5.19494 7.73172ZM5.19101 7.70852C5.19102 7.70852 5.19101 7.70852 5.19515 7.71911C5.19968 7.70868 5.19967 7.70868 5.19968 7.70868L5.19975 7.70871L5.19985 7.70876L5.20017 7.70891C5.20044 7.70903 5.2008 7.70919 5.20125 7.70941C5.20215 7.70985 5.20342 7.71048 5.205 7.71132C5.20815 7.713 5.21255 7.71553 5.21779 7.71903C5.22825 7.726 5.2421 7.73685 5.25593 7.75249C5.28374 7.78392 5.31106 7.83427 5.31106 7.91002V7.92138H5.07924V7.91002C5.07924 7.83208 5.1065 7.78167 5.13444 7.7507C5.14832 7.73531 5.16223 7.72486 5.17275 7.71823C5.17802 7.71491 5.18245 7.71254 5.18563 7.71097C5.18721 7.71018 5.18849 7.7096 5.18941 7.7092C5.18986 7.709 5.19023 7.70884 5.1905 7.70873L5.19083 7.70859L5.19094 7.70855L5.19101 7.70852ZM4.82902 7.99439C4.82655 7.99748 4.82469 8.00266 4.82469 8.01002C4.82469 8.01737 4.82655 8.02255 4.82902 8.02564C4.83122 8.02839 4.83465 8.03047 4.8406 8.03047H5.54515C5.55141 8.03047 5.56106 8.02308 5.56106 8.01002C5.56106 7.99695 5.55141 7.98956 5.54515 7.98956H4.8406C4.83465 7.98956 4.83122 7.99164 4.82902 7.99439ZM4.81127 7.98019C4.81816 7.97158 4.82837 7.96683 4.8406 7.96683H5.54515C5.56616 7.96683 5.58379 7.98671 5.58379 8.01002C5.58379 8.03332 5.56616 8.0532 5.54515 8.0532H4.8406C4.82837 8.0532 4.81816 8.04845 4.81127 8.03984C4.80466 8.03157 4.80197 8.02084 4.80197 8.01002C4.80197 7.99919 4.80466 7.98846 4.81127 7.98019Z" fill="black"/>
<path d="M5.04534 7.34668V7.50123H4.86353V7.34668H5.04534Z" fill="#FFFF00"/>
<path fill-rule="evenodd" clip-rule="evenodd" d="M4.85205 7.33496H5.0566V7.51223H4.85205V7.33496ZM4.87478 7.35769V7.48951H5.03387V7.35769H4.87478Z" fill="black"/>
<path d="M4.83154 7.22852H4.88609V7.27397H4.927V7.22852H4.98154V7.27397H5.02245V7.22852H5.077V7.31942C5.077 7.33761 5.06791 7.3467 5.05427 7.3467H4.85882C4.85158 7.3467 4.84465 7.34382 4.83953 7.33871C4.83442 7.3336 4.83154 7.32666 4.83154 7.31942V7.22852Z" fill="#FFFF00"/>
<path fill-rule="evenodd" clip-rule="evenodd" d="M4.84304 7.23952V7.31907C4.84304 7.32329 4.84472 7.32734 4.8477 7.33032C4.85068 7.3333 4.85473 7.33498 4.85895 7.33498H5.0544C5.05858 7.33498 5.06089 7.33368 5.06233 7.33204C5.06394 7.3302 5.06577 7.32639 5.06577 7.31907V7.23952H5.03395V7.28498H4.97031V7.23952H4.93849V7.28498H4.87486V7.23952H4.84304ZM4.83168 7.22816V7.2168H4.89759V7.26225H4.91577V7.2168H4.99304V7.26225H5.01122V7.2168H5.08849V7.31907C5.08849 7.32993 5.08578 7.33975 5.07943 7.34701C5.07291 7.35446 5.06386 7.35771 5.0544 7.35771H4.85895C4.8487 7.35771 4.83887 7.35364 4.83163 7.34639C4.82438 7.33914 4.82031 7.32932 4.82031 7.31907V7.22816H4.83168Z" fill="black"/>
<path d="M5.177 7.30073C5.177 7.27346 5.21791 7.27346 5.21791 7.30073V7.37346H5.177V7.30073Z" fill="black"/>
<path d="M4.93628 7.40131C4.93628 7.37404 4.97264 7.37404 4.97264 7.40131V7.45586H4.93628V7.40131Z" fill="black"/>
<path d="M6.93629 10.1101C6.93547 10.206 6.97123 10.2986 7.03629 10.3691C7.06665 10.4031 7.10376 10.4303 7.14524 10.4491C7.18672 10.4679 7.23167 10.4778 7.2772 10.4782C7.37266 10.4782 7.45902 10.4328 7.51811 10.3691C7.58318 10.2986 7.61894 10.206 7.61811 10.1101V9.61914H6.93629V10.1101Z" fill="#003399"/>
<path d="M7.09528 9.87367C7.13294 9.87367 7.16346 9.84314 7.16346 9.80549C7.16346 9.76783 7.13294 9.7373 7.09528 9.7373C7.05763 9.7373 7.0271 9.76783 7.0271 9.80549C7.0271 9.84314 7.05763 9.87367 7.09528 9.87367Z" fill="white"/>
<path d="M7.47272 9.87367C7.51038 9.87367 7.5409 9.84314 7.5409 9.80549C7.5409 9.76783 7.51038 9.7373 7.47272 9.7373C7.43507 9.7373 7.40454 9.76783 7.40454 9.80549C7.40454 9.84314 7.43507 9.87367 7.47272 9.87367Z" fill="white"/>
<path d="M7.28181 10.0553C7.31946 10.0553 7.34999 10.0248 7.34999 9.98713C7.34999 9.94947 7.31946 9.91895 7.28181 9.91895C7.24415 9.91895 7.21362 9.94947 7.21362 9.98713C7.21362 10.0248 7.24415 10.0553 7.28181 10.0553Z" fill="white"/>
<path d="M7.09528 10.2467C7.13294 10.2467 7.16346 10.2162 7.16346 10.1785C7.16346 10.1409 7.13294 10.1104 7.09528 10.1104C7.05763 10.1104 7.0271 10.1409 7.0271 10.1785C7.0271 10.2162 7.05763 10.2467 7.09528 10.2467Z" fill="white"/>
<path d="M7.47272 10.2467C7.51038 10.2467 7.5409 10.2162 7.5409 10.1785C7.5409 10.1409 7.51038 10.1104 7.47272 10.1104C7.43507 10.1104 7.40454 10.1409 7.40454 10.1785C7.40454 10.2162 7.43507 10.2467 7.47272 10.2467Z" fill="white"/>
</g>
</g>
<defs>
<clipPath id="clip0_991_8793">
<rect width="20" height="20" rx="10" fill="white"/>
</clipPath>
<clipPath id="clip1_991_8793">
<rect width="27.2727" height="20.4545" fill="white" transform="translate(-3.63647 -0.227539)"/>
</clipPath>
</defs>
</svg>
