<svg width="526" height="597" viewBox="0 0 526 597" fill="none" xmlns="http://www.w3.org/2000/svg">
<path d="M404.826 47.2896C400.456 49.0167 396.516 48.6201 392.833 47.4826C378.715 43.131 364.811 37.2766 350.161 36.9322C346.873 36.854 344.678 33.2381 341.243 33.5668C339.613 33.7233 338.791 33.4885 338.349 35.7217C336.553 44.7433 338.705 47.227 345.716 47.754C353.758 48.3592 361.736 50.676 369.695 52.5961C370.812 52.8674 371.949 53.6397 373.192 53.7023C390.598 54.5371 407.609 59.6923 424.881 61.8994C430.013 62.5569 435.106 63.517 440.348 63.8405C429.681 56.9425 417.775 55.3667 406.84 49.9559C409.65 44.7954 416.054 41.9414 420.491 44.0024C421.92 44.665 422.398 45.8547 421.821 48.3488C421.51 49.7054 421.458 50.9055 422.603 50.7333C428.363 49.8619 432.769 56.0972 439.125 55.1163C442.666 54.5684 448.173 59.1914 452.275 62.4473C458.879 67.6912 464.69 74.6622 472.069 78.5964C472.945 75.6275 468.622 73.5613 470.719 71.5002C472.207 70.034 474.793 72.2307 476.858 73.2586C482.317 75.9719 486.794 81.3462 492.542 83.2038C493.695 83.5742 493.73 84.6752 493.663 85.8857C493.596 87.0963 492.917 87.4354 492.199 87.3728C490.497 87.2215 488.346 88.5625 487.197 86.3292C484.52 81.1219 479.534 84.1847 475.926 78.9878C476.692 83.5951 478.725 84.7483 479.897 86.7362C481.196 88.9329 481.587 90.2374 479.27 92.1054C475.575 95.0847 475.669 99.1755 479.116 102.494C480.047 103.392 481.78 103.71 480.264 105.844C478.121 108.865 479.353 112.267 479.191 115.617C478.962 120.37 479.372 123.626 482.365 127.065C485.14 130.248 481.998 133.269 479.968 134.239C474.832 136.686 476.802 138.779 479.7 141.429C480.699 142.342 481.394 143.72 482.819 143.809C484.204 143.903 485.551 145.4 485.085 146.939C483.21 153.102 486.403 154.093 489.546 155.898C499.478 161.607 502.712 175.653 501.701 188.891C501.638 189.694 501.851 190.743 501.543 191.265C498.053 197.14 487.051 198.189 482.602 193.159C481.366 191.76 469.57 190.628 468.749 192.079C467.707 193.926 468.007 195.209 470.008 195.903C475.251 197.73 479.593 202.055 484.106 205.739C491.05 211.411 492.033 217.583 489.696 227.852C487.532 237.364 483.269 244.815 478.377 251.864C477.043 253.79 476.06 255.872 476.976 258.058C477.852 260.155 479.874 258.929 481.382 259.049C484.504 259.295 487.153 256.905 489.581 255.068C492.558 252.819 495.029 253.832 497.939 255.021C496.079 256.409 493.983 257.442 492.428 259.279C490.545 261.502 485.48 260.954 486.976 265.592C488.235 269.501 490.852 275.261 495.712 273.075C501.839 270.32 504.611 273.67 506.533 281.063C507.887 286.276 510.145 291.008 514.144 294.066C516.699 296.018 518.242 298.872 514.772 302.712C512.707 304.992 510.919 307.893 508.57 309.688C505.649 311.916 502.952 315.72 502.751 319.065C502.297 326.552 498.164 331.431 494.962 334.311C490.055 338.72 488.069 345.268 484.508 350.497C481.413 355.047 478.437 359.711 474.331 362.691C470.395 365.55 466.349 368.149 461.955 371.133C466.783 376.836 470.024 365.347 474.848 370.309C470.367 373.601 466.08 377.149 461.524 379.92C459.554 381.12 458.564 383.484 456.771 384.757C455.919 385.362 455.066 386.531 455.784 388.232C456.74 390.491 457.849 388.681 458.891 388.467C461.248 387.981 463.822 383.729 465.512 385.952C469.621 391.368 475.125 386.646 479.187 390.429C485.91 384.919 491.978 394.796 498.89 391.749C502.392 390.204 506.344 393.137 509.83 395.146C513.813 397.441 517.844 399.889 522.182 399.633C525.676 399.429 525.68 402.017 525.96 405.049C526.394 409.703 523.157 408.435 521.744 408.894C520.268 409.375 517.848 406.176 518.823 411.603C519.063 412.949 517.895 413.069 516.592 412.834C513.023 412.197 509.419 409.181 505.901 414.665C504.058 417.54 502.088 411.436 499.49 411.785C498.57 416.544 503.462 422.122 498.59 426.625C498.456 426.75 498.255 427.047 498.29 427.152C498.91 429.187 501.95 431.597 499.088 433.225C496.312 434.806 493.134 436.721 489.696 435.109C487.007 433.846 483.908 431.973 483.008 438.104C479.518 435.657 476.877 443.629 472.973 439.346C471.611 437.853 469.392 435.667 467.071 438.448C466.163 439.539 464.687 439.956 463.992 437.832C463.404 436.032 461.959 435.902 461.386 436.492C456.187 441.871 451.493 434.634 446.586 435.651C442.697 436.46 438.979 437.645 436.543 431.785C440.341 445.837 449.492 449.322 460.431 451.613C455.283 453.496 455.283 453.496 449.744 452.656C457.825 454.832 462.002 467.459 471.497 466.186C472.847 466.003 474.923 467.391 474.572 470.694C474.197 474.195 472.199 472.807 470.869 472.881C467.328 473.079 463.775 472.912 460.226 472.985C459.27 473.006 458.031 472.505 457.667 474.472C457.237 476.778 458.71 477.29 459.728 477.822C460.83 478.396 462.239 478.891 463.305 478.479C467.691 476.789 470.995 481.965 475.152 481.485C475.452 481.448 475.808 482.236 476.135 482.643C475.409 483.16 476.08 484.986 474.769 485.048C473.411 485.116 472.014 485.805 470.711 485.544C457.506 482.899 444.174 485.148 430.949 483.629C421.818 482.58 413.381 484.344 404.621 489.051C396.5 493.413 387.531 496.136 377.01 497.086C382.466 500.269 386.058 504.422 391.088 503.932C391.775 503.864 392.707 503.78 393.145 504.281C400.784 513.089 410.152 508.085 418.655 509.515C421.964 510.073 425.852 508.069 429.433 508.409C433.558 508.805 439.196 505.231 440.822 514.373C440.874 514.665 441.466 515.082 441.699 514.988C445.785 513.303 449.657 519.392 453.953 515.26C456.309 512.995 459.195 512.244 462.132 514.633C463.064 515.39 464.766 515.609 465.725 514.999C472.049 510.991 478.113 514.054 484.615 515.813C475.839 521.046 466.222 516.893 457.482 522.048C459.519 525.507 462.503 523.363 464.458 523.248C471.5 522.825 478.512 522.09 485.555 523.18C485.87 523.227 486.289 522.7 486.542 522.836C493.28 526.483 499.447 526.676 504.978 527.949C510.828 529.296 516.229 533.804 522.601 532.327C523.513 532.118 523.477 534.039 523.509 535.186C523.572 537.613 522.072 537.054 521.049 537.754C516.225 541.056 511.073 540.331 505.969 540.576C504.926 540.623 503.908 541.657 502.708 542.335C505.621 544.871 507.414 548.127 510.548 550.062C514.168 552.296 508.953 557.242 510.702 561.5C505.017 557.487 500.031 561.333 495.136 562.241C490.197 563.154 485.369 563.3 480.604 562.241C476.518 561.333 472.637 562.684 468.686 562.575C462.831 562.408 456.996 561.349 451.142 560.874C446.4 560.488 441.746 562.653 436.953 561.865C436.247 561.75 434.861 562.69 434.739 563.42C432.99 573.845 426.01 572.306 420.704 573.85C410.712 576.757 400.724 579.606 390.804 582.966C385.115 584.897 378.976 584.5 373.299 586.457C364.555 589.473 355.558 587.714 346.715 590.709C332.822 595.442 318.504 597.565 304.012 596.871C294.201 596.402 284.438 597.018 274.711 593.798C263.807 590.193 252.686 587.667 241.597 585.157C237.116 584.145 232.371 586.879 227.902 584.103C227.416 583.801 226.615 584.782 226.414 583.216C225.932 579.423 223.658 577.169 220.133 577.117C213.745 577.018 207.358 577.101 200.974 577.08C195.333 577.07 190.438 576.553 185.819 570.057C183.41 566.671 177.556 564.829 172.672 565.544C171.054 565.784 169.198 566.984 167.911 564.276C167.611 563.65 166.767 563.044 166.222 563.117C154.864 564.578 145.058 556.246 134.272 554.451C131.004 553.908 127.727 555.781 124.407 552.713C123.155 551.555 122.097 551.012 122.338 549.087C122.776 545.575 124.912 548.195 125.556 548.382C135.761 551.393 146.155 553.042 156.317 556.475C165.219 559.481 174.445 560.801 183.497 563.05C189.04 564.427 186.656 557.884 187.879 555.202C189.06 552.614 187.54 550.365 184.986 550.36C176.743 550.339 169.068 545.831 160.671 545.726C153.766 545.638 146.838 542.481 139.787 541.495C129.535 540.06 119.286 538.385 109.117 536.178C101.561 534.539 93.7048 535.964 86.3698 532.15C85.6158 531.758 84.6446 532.098 83.5629 533.178C88.7977 535.62 94.1035 540.263 99.2475 539.956C106.101 539.549 110.909 547.13 117.68 545.685C119.342 545.33 119.073 548.195 117.877 549.828C116.562 551.617 104.944 553.449 104.49 551.529C102.461 543.003 95.884 542.069 91.8217 541.751C83.9064 541.135 77.8742 536.079 71.23 532.165C70.9182 531.983 70.247 532.108 70.2194 531.957C68.6521 522.168 59.8683 525.899 56.6153 519.267C56.264 518.552 55.6836 517.785 54.4401 518.547C52.4267 520.41 57.8747 523.118 54.9849 524.067C52.2806 524.96 47.9697 525.247 46.509 522.147C44.0337 516.898 39.9359 517.509 36.6869 515.526C34.9893 514.487 33.726 513.637 33.0036 511.56C32.6917 510.663 33.1733 509.468 33.9984 509.703C35.7354 510.193 37.3462 507.704 39.3082 510.24C42.956 514.941 48.4118 514.373 52.7583 517.498C51.0134 514.367 48.0131 513.736 46.43 510.449C45.4233 508.357 44.8114 507.407 46.8406 505.575C49.7383 502.956 51.3608 499.549 47.4722 495.714C46.7063 494.962 45.8615 492.432 45.9839 492.301C50.0264 488.122 44.7206 481.954 47.7999 477.733C49.0671 475.99 47.7367 473.825 47.334 473.668C44.4008 472.51 44.7245 468.294 42.9678 466.15C45.747 464.344 47.8315 460.42 51.6924 461.334C48.2026 459.158 46.5997 453.877 42.5414 453.189C40.0188 452.761 40.5083 450.35 41.4518 448.686C43.3033 445.414 41.4755 443.123 39.9122 442.68C28.7202 439.502 24.9303 425.691 24.8988 411.138C24.8869 405.106 28.6531 403.515 32.1508 402.769C35.2657 402.106 38.5226 402.618 41.7124 402.612C42.0677 402.612 42.6717 402.487 42.7388 402.675C45.4272 410.408 50.4054 405.226 54.2585 406.317C55.4783 406.661 56.7337 407.653 57.1719 405.2C57.4878 403.452 56.5561 403.103 55.431 402.508C50.2712 399.779 45.7628 395.521 41.2229 391.352C35.4986 386.098 34.4563 377.781 36.9316 369.38C39.6635 360.103 43.8876 352.511 48.6447 345.133C49.7422 343.427 50.7883 340.432 49.4382 338.793C47.8946 336.92 45.4864 337.63 43.4217 338.611C39.7306 340.364 36.5605 344.314 32.2692 343.484C31.4126 343.317 30.2874 345.576 29.7505 343.171C29.34 341.329 30.3388 341.037 31.4876 340.567C32.7667 340.046 33.9076 338.856 35.0564 337.854C36.9948 336.163 40.9583 335.005 39.7779 331.796C38.3252 327.841 36.3907 322.117 31.227 323.792C30.2243 324.116 29.2294 324.194 28.2109 324.757C24.8355 326.631 22.7274 327.465 21.7563 320.254C20.9114 313.983 17.6743 307.773 13.0475 303.844C10.2682 301.486 8.48773 299.926 11.9736 294.854C15.3845 289.897 20.4732 287.732 23.0432 281.502C24.1447 278.841 25.783 276.717 25.3409 273.451C24.6974 268.697 28.4004 267.403 29.9361 265.989C35.1985 261.137 39.2252 254.614 42.0045 247.795C45.0482 240.333 50.1961 236.352 54.6769 232.553C57.3416 230.299 60.7999 225.995 65.9676 226.902C60.2156 222.603 56.5797 229.162 51.8937 229.303C53.0346 223.057 57.5746 223.829 60.2788 221.366C63.591 218.35 67.8822 217.14 70.1285 212.178C70.5391 211.27 72.1222 211.713 71.5379 210.012C71.0168 208.499 69.864 208.118 68.8218 208.609C67.3572 209.303 66.007 210.414 64.5898 211.296C61.9329 212.95 59.209 214.38 57.3061 209.892C56.331 207.591 54.6769 208.144 53.5912 208.557C42.7901 212.653 32.6324 205.822 22.1037 205.102C15.8188 204.675 9.56945 199.785 3.08718 197.797C1.09354 197.182 2.34102 192.987 -2.39914e-05 192.595C1.60278 191.604 2.09233 189.021 4.37021 188.609C9.4747 187.691 14.5634 186.224 19.4942 184.268C21.1601 183.605 22.3524 182.702 23.7144 184.487C24.6776 185.75 25.9014 186.631 26.9516 185.405C27.9109 184.283 27.1568 182.337 27.2555 180.803C27.4648 177.631 22.1392 173.342 28.2109 171.213C28.2661 171.192 28.1991 169.934 28.0056 169.371C26.1383 163.97 26.1343 163.835 30.3506 163.459C33.5562 163.177 37.0539 163.339 39.9161 162.77C43.6546 162.029 48.1117 159.728 51.4199 154.688C51.72 158.095 53.1767 158.685 55.3598 159.535C58.1983 160.641 62.075 157.307 63.9463 162.64C65.8886 160.621 67.8388 158.179 70.5549 159.567C73.8868 161.268 77.8859 158.909 80.8428 162.729C81.6245 163.741 82.5009 163.516 82.7378 161.925C83.0062 160.12 82.3943 157.229 85.1222 159.055C85.2367 157.892 85.3512 156.728 85.4696 155.559C81.5179 155.81 80.8586 147.9 76.3187 149.225C74.9567 149.621 73.2749 148.917 71.905 148.181C70.6062 147.487 68.2573 149.407 68.052 146.063C67.8072 142.05 70.9813 144.826 72.4183 141.998C67.3059 139.087 64.195 131.573 57.5193 132.429C56.335 132.58 55.0953 132.726 53.9465 131.646C52.8491 130.613 50.9225 130.42 51.1397 128.093C51.3923 125.39 53.2241 125.437 54.8545 125.442C58.3089 125.452 61.7632 125.379 65.2175 125.421C66.9072 125.442 68.7784 125.275 68.7705 122.593C68.7626 120.412 67.7401 119.28 65.4465 119.363C60.9973 119.52 57.0613 115.46 52.4898 115.544C50.6146 115.575 50.8199 112.94 48.5657 110.926C59.5879 111.996 69.3666 112.794 79.1177 113.973C82.3509 114.365 85.213 112.497 88.4423 112.606C96.6498 112.872 104.916 115.831 113.108 111.672C117.478 109.455 122.156 108.333 126.61 106.366C131.209 104.336 135.761 102.275 140.608 101.383C142.598 101.017 144.457 99.3999 147.521 97.725C142.961 95.9144 139.404 94.4743 135.832 93.1073C134.837 92.7264 133.593 92.9507 132.812 92.2359C123.317 83.5326 112.891 88.2651 102.765 88.3277C97.4828 88.3643 90.7123 90.1696 87.3251 86.6372C83.7484 82.9064 80.3296 82.7551 76.8319 80.9184C75.4936 80.2193 75.6949 79.3896 73.9934 80.788C71.0957 83.1673 67.2545 83.8717 63.7883 82.489C61.6447 81.6333 59.3905 81.2524 57.5627 81.9933C52.4345 84.0648 47.5353 81.8472 42.4545 80.9654C50.8159 76.0815 60.1248 78.0069 68.8021 74.5788C55.0085 72.7369 41.1833 75.0954 26.5133 74.7719C28.7438 72.8152 31.1362 73.7857 32.0047 71.0672C28.8268 69.7941 25.2698 71.0046 22.3326 69.6428C16.2767 66.8356 10.2761 64.3102 3.82539 63.9136C3.25691 63.8771 1.75672 63.4023 2.85815 61.8004C4.11355 59.9742 5.12418 57.3339 7.54022 58.0488C8.34557 58.2836 8.98117 59.7498 9.91285 58.9984C13.987 55.706 18.8625 58.0957 23.5091 55.7112C21.6062 52.5231 21.4562 47.9523 17.2439 48.0932C15.195 48.161 13.9159 45.3487 15.0726 43.0946C16.1425 41.0074 14.4094 36.7445 18.4362 36.6766C28.9373 36.5044 39.1976 33.092 49.9435 34.3703C58.1746 35.3461 66.4334 37.3654 74.7987 36.854C78.7189 36.614 82.5167 35.2573 86.5237 35.4765C89.1213 35.6174 91.9835 34.4538 92.6388 29.5021C92.9586 27.0915 94.739 25.3383 97.0761 25.5366C106.002 26.2984 113.787 17.8977 122.875 19.8753C128.714 11.6833 137.13 15.0227 144.185 12.1529C150.975 9.38744 158.824 9.7944 166.166 9.1213C173.474 8.4482 180.351 6.00627 187.441 4.49832C202.474 1.30502 217.59 -0.573372 232.872 0.157119C243.464 0.663245 253.381 5.95409 263.704 7.44116C272.773 8.75083 281.233 14.12 290.621 13.3164C292.867 13.1234 297.723 10.5719 298.666 18.0803C298.808 19.2021 303.451 19.7709 306.025 19.8387C314.181 20.0578 322.349 19.6978 330.505 20.0317C333.774 20.1674 337.812 19.6717 338.594 26.1888C338.681 26.9088 339.589 28.0724 340.039 28.015C345.108 27.3732 349.17 34.5581 354.543 31.2448C360.07 37.7097 367.129 31.3805 373.71 35.9513C379.884 40.2455 387.76 43.1936 395.49 42.3848C398.983 42.0248 401.857 43.2197 404.826 47.2896Z" fill="#212C26"/>
</svg>
