<svg width="859" height="789" viewBox="0 0 859 789" fill="none" xmlns="http://www.w3.org/2000/svg">
<path d="M57.2975 373.621C48.9069 368.875 40.7511 363.695 32.0773 359.489C18.1482 352.735 11.7879 340.413 19.3636 324.951C24.8192 313.82 33.4999 305.697 40.4196 296.041C42.0494 293.763 45.6957 291.585 43.8518 289.281C41.8906 286.826 38.3202 289.347 35.3852 290.137C25.0609 292.921 15.1441 297.259 1.49121 298.588C11.2147 292.388 18.3001 288.175 27.2915 285.173C36.5938 282.067 46.918 280.98 55.6609 275.675C59.4177 273.398 60.9024 270.916 61.4549 267.289C62.2698 261.951 57.2768 264.617 55.3087 263.175C53.7065 262.01 49.3282 262.313 51.1651 258.85C53.0781 255.25 58.4715 255.329 60.0392 257.073C63.3885 260.812 66.9312 259.943 70.9228 259.825C70.5637 257.383 66.4202 255.079 71.5513 252.564C75.9365 250.412 76.7721 246.877 70.8192 244.916C67.6149 243.862 69.5831 241.486 69.0513 239.775C67.5251 234.851 72.9324 227.736 63.8857 225.089C63.4438 224.958 63.2366 222.792 63.5681 221.765C65.3498 216.243 68.1881 210.411 57.9743 210.207C56.7105 198.418 43.8587 202.69 38.3478 197.292C32.9129 191.973 28.7487 185.338 28.1272 177.492C27.768 173.003 30.2887 170.245 34.9294 169.567C43.3339 168.336 51.469 165.17 60.0599 170.824C64.1965 173.549 70.1563 169.745 75.7293 169.883C70.8952 161.55 61.6482 163.834 54.9081 161.174C42.2704 156.198 38.1407 145.383 46.1722 133.66C49.0727 129.428 51.7245 125.05 55.7852 121.555C59.1138 118.692 61.814 115.164 65.9575 110.674C53.7203 114.17 43.1336 117.198 32.5469 120.219C32.2292 119.383 31.9116 118.553 31.6008 117.718C37.6227 111.543 47.139 111.537 54.2728 107.304C59.535 104.184 65.992 104.25 71.4062 100.663C77.8425 96.4038 82.8631 89.3343 91.9857 89.1631C92.4139 89.1566 93.5879 86.2142 93.0769 85.3454C88.3256 77.2359 95.2591 73.6945 100.28 74.4252C106.592 75.3533 101.951 69.7517 104.872 69.8965C101.212 63.1035 107.296 64.5713 110.79 62.7809C120.224 57.9363 132.357 59.6609 140.285 51.4856C148.869 57.4295 152.495 46.6541 159.18 46.4105C163.703 46.246 168.862 49.3068 172.156 43.6459C172.377 43.2707 173.993 43.3826 174.835 43.6328C181.472 45.6141 188.771 44.3173 194.234 38.3669C201.161 30.8169 210.235 33.0549 218.584 31.0604C230.911 28.1115 246.684 34.0488 255.386 21.8582C262.098 12.4586 270.896 13.1431 280.191 13.0905C283.244 13.0773 286.158 14.0647 287.733 10.1482C288.416 8.44332 290.585 6.48177 292.532 9.74664C293.906 12.0439 294.583 11.1026 296.441 9.70056C298.381 8.23927 300.37 3.13134 304.673 10.135C308.091 15.7103 313.574 9.33853 316.475 3.21691C318.699 8.75269 320.453 10.0231 326.053 7.14001C335.956 2.06499 347.303 -1.12089 358.608 3.01944C362.772 4.54655 366.018 5.82353 369.132 2.56525C371.763 -0.19277 376.038 0.886742 377.288 1.47916C397.018 10.8591 416.403 -3.65511 435.767 1.02497C447.148 3.77641 458.156 3.26298 469.205 0.195591C471.664 -0.488977 473.452 0.755094 474.868 1.89385C478.238 4.59921 480.116 6.08683 484.833 2.37436C486.995 0.669523 494.771 1.84119 499.653 3.01944C507.961 5.02048 515.758 5.501 523.706 1.74903C526.013 0.662941 529.804 0.0507783 531.772 1.12371C539.728 5.47467 549.762 1.37384 557.144 7.24533C563.919 0.327239 571.08 13.7751 577.848 6.8833C583.435 11.9978 593.366 3.27615 597.654 12.5376C598.2 13.7158 598.476 14.486 599.864 12.8733C607.44 4.05945 615.817 9.23979 623.627 12.2809C627.736 13.8804 630.954 11.2869 634.925 11.6687C640.001 12.1558 645.401 8.89751 649.448 14.69C650.125 15.6576 652.349 15.2627 653.543 13.9857C657.383 9.8717 661.568 12.3006 665.822 13.2024C671.222 14.3477 675.435 17.1518 682.41 15.8288C695.98 13.2616 709.819 17.1452 721 25.4654C725.489 28.8092 729.826 30.5601 734.37 28.7895C741.207 26.117 744.618 26.9135 747.684 33.8645C749.873 38.8276 755.419 41.8884 761.068 44.0211C765.398 45.6536 767.007 47.1017 762.332 51.7225C747.74 66.1314 734.425 81.7185 720.019 96.3116C713.908 102.506 706.346 107.436 696.588 108.687C698.466 111.313 700.117 111.208 701.415 110.483C703.224 109.47 704.46 109.898 704.854 111.543C705.027 112.254 703.97 113.676 703.107 114.091C697.665 116.697 692.23 119.357 686.567 121.469C684.475 122.253 683.163 122.865 683.763 124.971C684.565 127.756 686.305 125.86 687.969 125.741C705.572 124.478 723.258 126.294 740.771 125.366C756.614 124.53 770.446 132.047 785.749 132.232C788.443 132.265 791.019 132.897 791.143 135.773C791.24 138.097 788.974 138.702 786.73 139.393C779.382 141.651 772.248 143.632 764.196 142.843C760.584 142.487 757.097 148.971 752.38 144.047C751.849 145.028 750.799 146.081 750.93 146.976C751.068 147.964 752.491 148.721 753.009 149.741C757.125 157.791 753.61 163.781 744.473 164.176C738.071 164.452 732.077 163.827 725.661 167.336C717.271 171.923 707.63 167.717 698.632 166.427C694.606 165.848 668.723 169.449 665.677 172.187C670.96 174.8 675.359 178.295 681.954 177.986C687.935 177.709 690.538 184.088 695.945 186.438C702.078 189.11 708.114 189.136 713.963 190.13C717.119 190.664 719.564 191.374 719.888 193.553C720.206 195.699 717.147 195.976 714.951 196.259C710.662 196.811 706.67 198.674 701.967 197.259C699.979 196.66 695.255 195.304 695.089 199.655C694.965 202.907 698.197 202.156 701.007 202.643C707.782 203.828 714.923 201.722 723.445 206.033C706.871 210.628 691.871 208.133 677.134 207.784C679.261 213.682 679.171 213.267 684.516 212.227C688.439 211.464 692.624 211.911 696.691 211.642C702.382 211.266 705.89 215.315 706.781 220.969C714.17 215.802 720.772 214.65 727.892 221.094C730.275 223.253 736.946 220.429 736.103 227.137C736.082 227.288 737.546 227.801 737.588 227.742C742.229 220.034 749.57 228.479 755.087 225.116C756.469 224.273 760.433 224.55 760.771 225.307C763.879 232.192 773.83 228.901 777.628 236.846C779.652 241.085 789.41 244.231 796.654 242.085C800.583 245.245 792.358 245.087 795.763 247.641C797.994 249.313 800.196 250.109 803.221 248.128C808.152 244.902 812.572 245.06 813.829 251.913C815.659 261.885 822.288 269.744 829.906 275.122C836.066 279.473 834.684 283.975 831.756 285.726C819.346 293.164 813.007 304.638 805.445 315.795C800.784 322.673 792.365 327.248 787.172 334.291C786.288 335.489 784.866 336.404 784.272 337.694C780.784 345.218 775.183 350.221 767.18 353.703C759.915 356.856 753.395 361.575 745.392 364.044C752.111 371.429 757.788 358.416 764.3 363.859C763.927 367.572 762.242 369.843 757.159 370.211C748.831 370.804 743.934 377.985 736.794 381.079C735.254 381.744 735.288 384.061 736.151 384.976C736.966 385.838 739.349 386.424 740.336 385.904C747.581 382.132 753.679 381.652 760.805 387.365C763.727 389.702 771.233 389.346 775.149 387.424C780.239 384.93 784.886 386.654 787.655 388.326C793.588 391.907 799.72 391.749 805.832 391.795C817.606 391.894 827.385 397.041 837.516 401.616C839.94 402.709 842.861 403.808 845.375 403.518C853.42 402.61 855.609 408.08 859 413.879C854.076 413.853 846.984 414.287 846.183 415.057C839.491 421.488 830.665 415.669 825.99 418.125C820.451 421.034 818.276 420.218 814.547 417.618C812.827 416.42 810.866 417.42 811.198 418.605C813.131 425.444 814.485 432.086 811.052 438.945C810.583 439.879 813.932 441.084 813.387 444.033C807.282 444.665 801.364 446.277 794.541 444.889C787.462 443.454 781.212 448.239 774.976 450.951C771.986 452.248 771.544 453.156 770.633 449.562C769.997 447.061 766.924 448.364 764.935 448.186C754.424 447.258 743.713 447.291 733.437 445.29C725.744 443.796 718.376 440.946 710.869 443.381C713.196 445.297 710.303 453.564 719.474 451.938C724.854 462.984 738.265 457.277 746.075 463.78C739.777 469.895 733.534 459.054 727.153 463.444C741.207 469.862 754.031 478.478 769.514 481.315C772.511 481.868 773.802 484.034 773.706 486.246C773.561 489.543 770.37 488.958 768.008 488.984C762.111 489.037 756.213 489.004 750.322 489.03C747.553 489.043 745.115 490.063 745.385 492.933C745.585 495.099 747.816 495.909 750.246 496.126C766.883 497.64 781.392 504.986 795.894 512.003C802.475 515.182 809.519 513.082 816.156 515.313C819.436 516.419 822.157 516.4 821.218 520.467C820.327 524.312 818.283 524.187 814.471 523.252C809.796 522.107 804.63 522.752 799.672 522.725C794.52 522.692 788.684 522.264 795.528 529.308C798.387 532.25 794.941 535.87 794.009 537.483C791.495 541.847 792.013 546.389 790.328 551.556C799.596 551.556 808.38 551.556 816.833 551.556C818.221 555.914 812.344 553.478 813.262 556.282C814.064 558.724 816.819 557.967 818.898 558.264C825.147 559.159 831.749 558.053 836.694 564.188C838.351 566.248 843.738 568.743 848.42 565.807C850.388 564.569 853.109 565.037 855.409 566.551C856.887 567.525 858.959 567.768 858.489 570.178C858.047 572.422 856.887 574.147 854.297 573.963C846.445 573.403 838.876 577.412 831.045 575.371C828.483 574.706 827.709 576.22 826.549 577.352C824.353 579.492 827.005 580.367 828.089 581.374C829.595 582.776 831.301 584.58 833.179 584.909C844.159 586.831 837.343 593.973 837.833 598.89C837.965 600.207 836.521 600.871 835.209 600.707C817.358 598.429 799.347 603.544 781.447 599.325C776.095 598.061 770.032 598.857 764.403 599.542C759.922 600.088 756.759 602.491 757.974 607.829C759.314 613.7 756.289 615.122 750.35 615.26C744.791 615.392 738.707 612.516 733.472 619.572C731.587 622.119 718.7 620.842 714.46 617.327C708.998 612.805 707.057 617.939 703.549 617.847C722.423 623.205 741.676 626.444 761.006 629.643C767.421 630.703 776.054 630.466 780.204 637.7C781.074 639.22 781.792 640.313 783.56 639.26C790.846 634.909 793.443 639.99 797.959 644.282C802.6 648.692 808.228 653.103 815.541 654.294C818.677 654.801 822.482 656.124 821.204 660.6C820.141 664.332 817.295 663.759 814.077 663.207C809.478 662.423 804.803 662.364 801.495 666.629C799.471 669.236 796.364 668.183 793.698 668.229C786.364 668.354 779.03 668.275 771.337 668.275C776.136 678.978 770.916 684.751 755.902 686.548C756.51 688.397 763.126 688.832 758.361 691.425C752.512 694.611 746.248 700.318 738.472 694.809C735.986 693.045 733.817 691.629 731.732 695.329C731.317 696.059 729.163 696.81 728.693 696.461C722.789 692.11 717.292 691.761 710.627 695.697C708.88 696.731 704.15 693.933 702.423 697.988C700.524 702.438 707.174 701.924 707.492 705.617C702.983 707.954 698.135 710.152 693.66 712.904C690.662 714.747 688.031 715.069 685.158 713.226C683.708 712.292 682.438 710.152 680.58 711.686C679.737 712.384 679.869 714.477 680.021 715.885C680.297 718.446 682.617 717.919 684.316 717.926C693.936 717.992 703.625 718.663 713.162 717.794C726.29 716.596 739.604 716.537 752.456 712.89C755.129 712.133 759.963 711.337 760.619 714.727C761.503 719.308 755.951 717.472 754.045 717.623C744.577 718.347 735.682 722.231 726.027 721.889C724.515 721.836 721.898 722.777 720.738 725.621C724.881 728.102 728.804 730.413 734.273 730.038C740.564 729.603 746.013 732.466 751.462 735.238C753.865 736.462 754.866 737.752 753.962 739.944C753.105 742.018 751.172 743.373 748.748 742.676C737.464 739.411 726.442 745.21 715.068 743.933C719.315 745.052 723.569 746.171 727.802 747.29C724.253 753.491 709.957 759.099 703.652 756.736C694.495 753.306 685.269 754.07 676.008 756.203C675.124 756.407 673.971 757.19 673.446 756.894C665.187 752.24 664.579 759.323 662.017 763.647C665.373 764.424 669.275 763.864 672.051 767.722C666.402 768.591 663.999 772.474 660.919 776.266C658.378 779.399 655.463 783.092 648.178 780.353C643.357 778.543 637.004 774.166 629.428 777.562C625.851 779.169 620.43 773.633 614.422 774.159C611.5 774.416 609.415 774.258 606.632 775.923C599.691 780.064 591.77 782.295 584.568 776.898C577.448 771.559 571.018 777.865 563.857 776.437C564.969 778.201 565.487 779.978 566.688 780.676C568.159 781.532 570.97 780.979 569.755 783.868C568.884 785.929 566.55 786.712 564.623 786.278C560.273 785.29 555.881 781.815 552.697 788.213C551.889 789.839 549.403 788.614 548.809 787.515C545.08 780.577 541.047 785.04 536.938 786.916C535.916 787.383 533.892 787.601 533.367 787.048C527.138 780.465 520.474 786.712 514.086 786.534C512.132 786.482 510.882 786.291 509.301 785.349C503.355 781.821 496.601 781.9 490.123 780.722C480.634 778.991 472.741 783.184 463.901 782.21C457.141 781.466 451.567 780.334 447.576 774.607C443.964 776.128 445.621 782.822 440.691 781.413C437.873 780.61 433.571 780.426 433.074 775.311C432.804 772.54 429.213 773.06 426.126 773.962C420.629 775.575 414.821 776.463 409.041 774.541C404.601 773.067 399.946 771.197 399.159 780.834C395.091 770.348 390.934 768.749 382.785 773.791C377.025 777.358 369.132 774.265 362.212 774.252C357.765 774.238 353.794 771.447 348.539 772.395C344.892 773.054 341.992 769.157 343.283 763.838C339.651 773.442 331.93 770.309 325.853 768.999C321.564 768.077 317.421 767.57 313.195 767.728C297.173 768.327 282.077 763.437 266.559 761.264C251.732 759.191 236.691 757.381 221.671 755.999C209.793 754.906 197.404 755.505 186.168 752.872C170.45 749.192 154.581 746.889 138.738 744.242C126.142 742.136 113.422 740.569 100.694 739.365C85.7152 737.943 72.4283 733.105 61.0681 723.64C59.1621 722.053 57.7948 720.361 57.8224 717.643C57.8984 710.429 58.7271 703.346 60.3016 696.277C61.3029 691.801 55.502 694.335 54.4247 691.741C54.5974 691.201 54.6112 690.53 54.9634 690.161C57.194 687.891 60.9577 692.584 62.1662 689.398C63.5819 685.646 58.4163 684.784 56.4619 683.085C53.3612 680.4 49.0865 677.661 43.6999 679.182C44.9429 673.679 50.1845 676.812 51.8695 674.601C53.8791 671.955 59.3555 677.405 58.5889 672.132C58.0641 668.538 54.7148 665.089 50.0878 664.813C45.6473 664.549 41.1171 664.813 36.9667 663.167C35.5302 662.601 34.6739 660.712 33.2996 659.132C38.7898 655.38 44.2938 659.567 49.3972 657.802C51.69 657.006 55.1222 657.48 54.0034 654.123C50.7301 644.309 58.2022 637.226 62.5322 630.894C67.1039 624.206 61.8002 625.22 59.5212 623.969C54.5352 621.237 48.168 623.515 43.1819 620.368C38.5274 617.426 30.6616 616.741 30.3647 610.567C30.0055 603.096 37.5951 600.569 43.6585 597.771C59.5489 590.445 63.045 589.492 80.0058 587.879C99.4182 586.036 87.9426 580.435 107.5 580.83C111.657 580.916 113.03 584.405 113.5 580.83C114.142 575.966 112.679 577.572 108.999 576.335C92.0101 570.661 105.613 570.41 88.5 565.032C79.8677 562.32 83.3465 562.654 73.6576 561.937C67.7876 561.502 62.3734 560.534 56.821 558.566C42.4637 553.478 41.1792 551.299 46.7523 538.306C48.8862 533.336 53.4234 527.688 48.3544 523.028C43.762 518.802 40.6406 512.707 32.5607 511.627C27.478 510.949 20.2268 509.929 18.8526 501.984C24.5154 501.411 29.7984 499.608 32.8853 506.526C34.3424 509.797 38.8313 509.245 41.2414 508.139C45.012 506.414 42.4085 503.84 40.6406 501.8C39.2456 500.187 38.9694 498.996 41.3381 497.679C44.3559 496.001 43.4444 492.604 42.7952 490.504C40.6061 483.422 41.6765 476.655 42.7054 469.566C43.4375 464.544 45.5921 458.231 37.0772 455.21C34.4253 454.268 33.5621 448.798 38.3824 445.876C40.3436 444.691 44.8808 444.961 43.7275 441.314C42.6571 437.918 40.1226 434.416 35.9791 434.139C29.5152 433.718 26.67 431.941 29.6741 425.411C30.7928 422.969 29.0802 420.988 26.4559 419.862C9.55036 412.648 -0.884408 401.78 1.40834 382.487C1.75363 379.565 -2.30702 375.721 1.98153 373.002C8.23134 369.046 15.5516 368.816 22.7544 369.389C31.8839 370.113 39.1282 377.551 49.3006 375.931C51.6831 375.576 54.2659 373.937 57.2975 373.621ZM646.209 712.087C655.822 713.391 664.91 712.706 674.081 715.411C667.341 706.808 650.526 704.557 646.209 712.087ZM583.822 760.553C578.021 761.83 579.402 769.025 572.061 770.381C583.856 771.559 583.856 771.559 583.822 760.553Z" fill="#F6D9A9"/>
</svg>
