<svg width="681" height="90" viewBox="0 0 681 90" fill="none" xmlns="http://www.w3.org/2000/svg">
<g clip-path="url(#clip0_1012_16117)">
<path d="M-2.5 1.88636C-1.82896 1.75923 -0.814942 1.60219 0.4153 1.51245C4.40426 1.22828 6.46212 1.97609 9.45944 2.33504C15.9313 3.10529 16.3935 0.802015 21.1877 2.05835C24.707 2.97816 24.9307 4.34667 27.8385 5.00475C32.2674 6.00682 34.4594 3.03799 39.6414 1.93122C43.5036 1.10862 44.3461 2.16304 51.7499 2.89591C62.7028 3.97276 64.7532 2.03591 76.4293 3.02303C81.2981 3.43433 82.7446 3.92041 87.412 4.57849C100.199 6.37325 110.25 5.64787 118.422 5.09449C193.377 0.0317678 210.966 2.8959 215.066 3.66616C216.729 3.98024 220.047 4.67571 224.759 4.95988C238.217 5.76752 239.276 1.75175 248.275 3.40442C253.89 4.43641 258.833 6.97899 263.135 4.18215C263.926 3.66616 264.418 3.15764 264.559 3.01556C273.201 -5.57686 351.81 7.24072 372.955 4.18215C375.743 3.77833 381.663 2.49956 389.104 4.18215C393.496 5.17675 394.697 6.3583 400.214 7.29307C404.926 8.09323 406.298 7.61464 412.099 8.19793C419.622 8.96071 419.771 10.0226 423.984 10.2694C432.409 10.7704 433.595 6.65743 445.949 4.18215C447.463 3.88303 453.972 2.63417 462.36 3.01556C469.898 3.35955 472.604 4.73553 479.158 5.61048C489.201 6.94907 496.583 5.55814 501.899 4.83275C518.511 2.56687 532.901 4.37658 567.922 4.44389C585.048 4.4738 609.884 4.09989 641.051 2.1107C641.051 2.1107 644.152 4.44388 646.218 4.57101C647.515 4.65327 647.798 4.06998 648.887 3.55398C649.744 3.15016 650.46 2.95573 652.033 2.88095C654.516 2.76878 655.754 2.70895 659.266 4.43641C664.805 7.15846 681.348 0.205233 690.542 -0.415455C708.391 -1.62692 706.827 5.91709 730.97 4.9524C742.616 4.48876 741.065 4.03259 755.001 3.26981C783.527 1.70688 797.791 0.921669 806.678 3.00808C810.511 3.90546 819.764 6.41065 831.872 4.9524C834.929 4.58597 837.106 4.09241 837.941 3.91294C853.905 0.540282 880.172 6.45552 887.554 7.92872C922.932 14.9881 951.168 5.06458 982.126 4.69067C983.639 4.67571 988.665 4.63084 995.561 4.3018C1001.04 4.04006 1003.49 3.79329 1006.28 3.6512C1015.13 3.21747 1019.76 4.24945 1027.21 4.81779C1039.88 5.78248 1040.85 3.89798 1061.06 3.6512C1070.31 3.53903 1076.36 3.86059 1081.48 4.04006C1133.24 5.87969 1191.21 -2.72768 1211.71 3.52407C1214.2 4.28685 1220.9 6.70977 1229.28 5.4684C1233.07 4.90753 1234.35 4.02511 1238.98 3.26233C1244.9 2.29017 1249.33 2.67156 1254.74 3.13521C1280.78 5.34874 1285.83 5.68526 1293.24 4.69067C1298.14 4.03259 1297.45 3.68859 1302.29 3.00808C1315.93 1.08619 1327.32 3.00808 1334.85 4.9524C1334.85 4.9524 1336.66 6.24613 1337.69 6.24613C1338.72 6.24613 1345.44 3.13521 1348.54 3.39694C1351.65 3.65868 1357.2 3.91294 1359.65 3.91294C1362.11 3.91294 1367.15 3.78581 1367.92 3.78581C1368.7 3.78581 1372.57 2.10322 1376.71 2.49208C1380.84 2.88095 1392.59 3.00808 1392.59 3.00808C1402.6 4.07746 1417.77 5.24405 1436.26 4.82527C1451.85 4.46632 1462.83 3.13521 1468.95 2.49208C1487.26 0.562715 1512.08 1.37784 1561.72 3.00808C1584.93 3.77085 1626.97 5.44596 1643.63 3.39694C1645.7 3.14268 1650.34 2.46965 1656.81 2.49208C1667.46 2.52947 1667.67 4.4065 1675.41 3.65868C1679.28 3.28477 1684.33 2.32009 1689.49 2.88095C1689.98 2.9333 1691.18 3.07538 1692.85 3.14269C1696.73 3.28477 1699.59 2.85851 1700.35 2.75382C1705.46 2.05087 1735.66 -0.476749 1765.72 2.36496C1772.84 3.03799 1771.03 3.16512 1776.83 3.65868C1794.83 5.18423 1801.16 2.98564 1825.41 2.36496C1838.23 2.03592 1849.14 2.32009 1850.73 2.36496C1860.37 2.63417 1864.45 3.05295 1873.08 3.14269C1882.83 3.24738 1890.76 2.85104 1895.95 2.49208C1895.95 2.49208 1896.6 3.78581 1900.09 3.78581C1903.58 3.78581 1905.9 2.74634 1907.84 3.00808C1909.78 3.26981 1915.46 3.52407 1916.24 3.52407C1916.24 3.52407 1921.17 4.0625 1930.57 4.3018C1939.97 4.5411 1940.35 2.92582 1949.18 2.74634C1963.58 2.44722 1968.02 6.62003 1982.38 4.3018C1984.09 4.02511 1984.47 3.89798 1986.38 3.52407C2013.93 -1.80786 2037.73 5.31135 2058.48 3.39694C2060.15 3.2399 2064.15 2.81365 2069.72 2.74634C2076.94 2.66408 2080.55 2.61921 2082.89 3.13521C2085.25 3.6512 2090 4.97484 2093.1 3.6512C2093.44 3.50912 2093.97 3.2399 2094.78 3.13521C2096.75 2.86599 2097.71 3.87554 2099.68 4.04006C2101.06 4.15224 2101.99 3.78581 2102.91 3.52407C2106.6 2.48461 2110.97 2.99312 2114.28 3.13521C2123.04 3.51659 2124.44 1.34793 2132.89 1.49001C2136.34 1.54984 2141.36 1.99853 2147.49 3.91294V70.4547L-2.5 70.4547L-2.5 1.88636Z" fill="#30453A"/>
<path d="M2150.49 88.1105C2149.81 88.2377 2148.8 88.3947 2147.57 88.4844C2143.58 88.7686 2141.52 88.0208 2138.53 87.6618C2132.05 86.8916 2131.59 89.1949 2126.8 87.9385C2123.28 87.0187 2123.05 85.6502 2120.15 84.9921C2115.72 83.9901 2113.53 86.9589 2108.34 88.0657C2104.48 88.8883 2103.64 87.8338 2096.24 87.101C2085.28 86.0241 2083.23 87.961 2071.56 86.9738C2066.69 86.5625 2065.24 86.0765 2060.57 85.4184C2047.79 83.6236 2037.74 84.349 2029.56 84.9024C1954.61 89.9651 1937.02 87.101 1932.92 86.3307C1931.26 86.0166 1927.94 85.3211 1923.23 85.037C1909.77 84.2293 1908.71 88.2451 1899.71 86.5924C1894.1 85.5604 1889.15 83.0179 1884.85 85.8147C1884.06 86.3307 1883.57 86.8392 1883.43 86.9813C1874.78 95.5737 1796.18 82.7561 1775.03 85.8147C1772.24 86.2185 1766.32 87.4973 1758.88 85.8147C1754.49 84.8201 1753.29 83.6385 1747.77 82.7038C1743.06 81.9036 1741.69 82.3822 1735.89 81.7989C1728.36 81.0361 1728.21 79.9742 1724 79.7275C1715.58 79.2264 1714.39 83.3394 1702.04 85.8147C1700.52 86.1138 1694.01 87.3627 1685.63 86.9813C1678.09 86.6373 1675.38 85.2613 1668.83 84.3864C1658.78 83.0478 1651.4 84.4387 1646.09 85.1641C1629.47 87.43 1615.08 85.6203 1580.06 85.5529C1562.94 85.523 1538.1 85.8969 1506.93 87.8861C1506.93 87.8861 1503.83 85.5529 1501.77 85.4258C1500.47 85.3435 1500.19 85.9268 1499.1 86.4428C1498.24 86.8467 1497.53 87.0411 1495.95 87.1159C1493.47 87.228 1492.23 87.2879 1488.72 85.5604C1483.18 82.8384 1466.39 84.5509 1457.2 85.1715C1439.35 86.383 1441.16 84.0797 1417.02 85.0444C1405.37 85.5081 1406.92 85.9642 1392.98 86.727C1364.46 88.2899 1350.19 89.0751 1341.31 86.9887C1337.47 86.0913 1328.22 83.5862 1316.11 85.0444C1313.06 85.4108 1310.88 85.9044 1310.04 86.0839C1294.08 89.4565 1267.81 83.5413 1260.43 82.0681C1225.05 75.0087 1196.82 84.9322 1165.86 85.3061C1164.35 85.3211 1159.32 85.366 1152.42 85.695C1146.94 85.9567 1144.49 86.2035 1141.7 86.3456C1132.85 86.7793 1128.23 85.7473 1120.77 85.179C1108.11 84.2143 1107.14 86.0988 1086.92 86.3456C1077.68 86.4578 1071.62 86.1362 1066.51 85.9567C1014.75 84.1171 956.778 92.7245 936.274 86.4727C933.784 85.7099 927.088 83.287 918.7 84.5284C914.92 85.0892 913.63 85.9717 909.007 86.7344C903.087 87.7066 898.658 87.3252 893.245 86.8616C867.202 84.648 862.154 84.3115 854.743 85.3061C849.844 85.9642 850.537 86.3082 845.698 86.9887C832.054 88.9106 820.668 86.9887 813.138 85.0444C813.138 85.0444 811.326 83.7506 810.297 83.7506C809.268 83.7506 802.543 86.8616 799.441 86.5998C796.34 86.3381 790.785 86.0838 788.332 86.0838C785.879 86.0838 780.839 86.211 780.063 86.211C779.288 86.211 775.411 87.8935 771.28 87.5047C767.142 87.1158 755.391 86.9887 755.391 86.9887C745.385 85.9193 730.22 84.7527 711.721 85.1715C696.131 85.5304 685.156 86.8615 679.034 87.5047C660.722 89.434 635.909 88.6189 586.267 86.9887C563.056 86.2259 521.011 84.5508 504.355 86.5998C502.282 86.8541 497.644 87.5271 491.18 87.5047C480.525 87.4673 480.317 85.5902 472.577 86.3381C468.708 86.712 463.652 87.6766 458.493 87.1158C458.008 87.0634 456.808 86.9213 455.13 86.854C451.253 86.712 448.397 87.1382 447.637 87.2429C442.522 87.9459 412.325 90.4735 382.263 87.6318C375.142 86.9587 376.954 86.8316 371.153 86.338C353.154 84.8125 346.824 87.0111 322.577 87.6318C309.753 87.9608 298.845 87.6766 297.257 87.6318C287.616 87.3625 283.538 86.9438 274.904 86.854C265.159 86.7493 257.225 87.1457 252.036 87.5046C252.036 87.5046 251.387 86.2109 247.898 86.2109C244.409 86.2109 242.082 87.2504 240.144 86.9886C238.205 86.7269 232.524 86.4726 231.748 86.4726C231.748 86.4726 226.82 85.9342 217.41 85.6949C208.016 85.4556 207.635 87.0709 198.807 87.2504C184.402 87.5495 179.966 83.3767 165.606 85.6949C163.898 85.9716 163.518 86.0987 161.602 86.4726C134.06 91.8046 110.253 84.6853 89.51 86.5998C87.8398 86.7568 83.8357 87.1831 78.2661 87.2504C71.0486 87.3326 67.4329 87.3775 65.0916 86.8615C62.7354 86.3455 57.9858 85.0219 54.884 86.3455C54.5486 86.4876 54.0117 86.7568 53.2065 86.8615C51.238 87.1307 50.2764 86.1212 48.3005 85.9566C46.9211 85.8445 45.9966 86.2109 45.072 86.4726C41.3887 87.5121 37.0195 87.0036 33.7017 86.8615C24.9482 86.4801 23.5466 88.6488 15.0989 88.5067C11.6467 88.4469 6.62134 87.9982 0.5 86.0838L0.500006 16.0001L2150.49 16.0002L2150.49 88.1105Z" fill="#30453A"/>
</g>
<defs>
<clipPath id="clip0_1012_16117">
<rect width="680" height="90" fill="white" transform="translate(0.5)"/>
</clipPath>
</defs>
</svg>
