<svg width="999" height="82" viewBox="0 0 999 82" fill="none" xmlns="http://www.w3.org/2000/svg">
<g clip-path="url(#clip0_1014_16415)">
<path d="M1679.15 110.465L1673.18 3.47905C1670.8 6.06963 1667.01 9.44939 1661.63 11.4223C1645.77 17.2726 1634.42 4.23392 1613.61 -0.24384C1598.42 -3.52067 1600.86 2.63839 1554.03 7.75092C1527.05 10.7018 1513.58 12.1601 1504.79 10.2043C1495.44 8.1112 1483.65 3.73638 1467.71 6.53283C1461.25 7.66514 1456.66 9.53516 1454.95 10.2043C1448.09 12.8463 1421.92 21.3729 1332.16 13.258C1293.36 9.74103 1284.99 6.96173 1264.07 9.58662C1255.4 10.6846 1246.94 12.4002 1230.03 13.8585C1218.62 14.8364 1204.41 16.0202 1188.69 15.0766C1168.53 13.8757 1154.3 9.68955 1146.74 7.73375C1085.47 -8.03276 1021.7 10.1356 969.232 8.95183C964.864 8.84889 954.201 8.47146 940.057 10.1699C931.714 11.165 931.083 11.8169 920.607 13.2237C902.095 15.7114 900.219 14.1845 890.204 16.2775C880.803 18.2333 881.297 19.8117 862.854 26.6741C845.742 33.0391 837.194 36.213 830.028 36.4531C818 36.8649 808.889 32.7989 792.339 25.456C776.814 18.5593 770.791 13.0865 757.688 12.6232C751.733 12.4174 752.143 13.5154 742.486 13.8413C726.073 14.4075 720.682 11.3708 710.871 11.388C695.653 11.4223 696.096 18.7651 675.008 24.2208C664.72 26.88 645.304 31.9068 626.383 24.2208C613.4 18.9539 612.256 12.4174 601.457 11.9885C589.991 11.5252 585.487 18.6622 574.107 16.2603C567.129 14.7849 566.413 11.611 558.308 8.31703C552.354 5.89802 544.949 4.4569 530.345 5.8637C491.837 9.6209 480.065 25.8506 462.253 18.096C456.401 15.5398 454.285 12.3144 445.84 10.1527C437.19 7.92244 428.369 8.48859 421.527 8.93465C415.658 9.31209 415.095 9.75814 409.977 10.1527C397.42 11.1478 388.206 9.5008 383.839 8.93465C367.75 6.85875 355.892 11.6796 341.288 14.4418C295.853 23.0027 283.586 0.270788 238.544 7.09894C227.778 8.72877 212.952 12.4002 195.993 10.7703C193.024 10.4787 186.609 9.72382 177.754 10.1527C168.524 10.6159 164.651 11.9884 158.901 12.6061C145.849 13.9785 144.519 9.1062 127.287 7.09893C117.067 5.91516 100.62 5.65781 84.7355 8.93464C79.7195 9.96401 76.6654 10.9591 71.9735 10.1527C62.5897 8.54004 58.7852 1.79767 51.9094 3.42751C48.9578 4.13091 49.1967 5.48625 45.2213 7.09893C38.4991 9.8096 32.084 8.24838 29.4224 7.71654C19.8168 5.76074 16.5411 8.2827 -5.22925 8.33417C-29.9512 8.38563 -53.786 5.19459 -70.8815 4.06228C-143.58 -0.775757 -201.998 24.4095 -221.636 7.73369C-223.496 6.15532 -231.497 -1.3076 -239.875 0.442324C-243.918 1.28298 -269.362 4.69124 -271 6.59557L-276.966 11.4999L-271 110.448L1679.15 110.448L1679.15 110.465Z" fill="#EDCC94"/>
<path d="M31.794 5.29756C32.2205 6.89308 35.3769 7.39061 37.3731 7.25336C40.2223 7.06464 43.6687 5.34903 43.6004 3.5991C43.5322 1.81486 39.847 -0.0208484 36.7248 0.596773C33.9779 1.14577 31.3504 3.63341 31.794 5.29756Z" fill="#EDCC94"/>
<path d="M70.5745 5.72631C71.9394 7.08165 74.6009 8.29974 76.4435 7.03018C77.5867 6.241 78.3033 4.55969 77.8767 3.29014C76.9042 0.373592 70.1308 -0.175405 68.9877 1.71177C68.3394 2.79261 69.602 4.76557 70.5745 5.72631Z" fill="#EDCC94"/>
<path d="M80.5213 7.23639C80.2824 6.5673 80.982 5.65802 81.6645 5.21196C83.2512 4.2169 85.8274 5.14334 85.9639 6.06977C86.0662 6.79033 84.7526 7.66529 83.6777 7.93979C82.5004 8.2486 80.8113 8.07704 80.5213 7.23639Z" fill="#EDCC94"/>
<path d="M144.655 7.23641C143.87 4.04536 154.073 -3.02297 157.792 -0.552487C159.874 0.837162 160.079 5.29776 158.219 7.88834C154.841 12.6234 145.338 9.96424 144.655 7.23641Z" fill="#EDCC94"/>
<path d="M162.092 8.74618C161.187 7.49378 162.331 4.80026 164.037 3.54786C167.534 0.991595 173.386 4.54292 173.301 6.36147C173.182 8.62609 163.832 11.148 162.092 8.74618Z" fill="#EDCC94"/>
<path d="M287.698 5.22859C287.135 7.04714 293.43 12.5886 300.221 11.422C303.138 10.9244 306.994 9.03725 306.789 7.4932C306.38 4.31931 288.568 2.50076 287.698 5.22859Z" fill="#EDCC94"/>
<path d="M313.443 11.7141C314.177 12.1944 316.378 13.4812 319.295 13.1895C323.834 12.7263 327.127 8.72891 326.598 7.80247C326.188 7.06476 323.066 7.64807 313.443 11.7141Z" fill="#EDCC94"/>
<path d="M329.839 12.2111C330.232 13.5836 336.596 14.3385 338.114 11.3876C338.66 10.324 338.677 8.60835 337.79 7.95642C335.794 6.5153 329.396 10.6842 329.839 12.2111Z" fill="#EDCC94"/>
<path d="M392.13 6.65306C392.113 8.33436 397.027 10.822 401.548 9.4152C405.438 8.19711 408.322 4.30266 407.537 2.8787C406.138 0.339592 392.148 3.83945 392.13 6.65306Z" fill="#EDCC94"/>
<path d="M462.782 12.3488C462.065 14.0816 467.218 19.9147 473.24 19.1598C476.004 18.8167 479.451 17.0153 479.28 15.4541C478.956 12.2974 463.84 9.80972 462.782 12.3488Z" fill="#EDCC94"/>
<path d="M486.053 14.2699C487.64 12.8631 488.63 9.99806 487.231 8.35107C485.814 6.68692 482.539 6.92711 481.037 8.79713C479.348 10.9073 480.355 14.5273 482.368 15.3165C484.074 15.9856 485.917 14.39 486.053 14.2699Z" fill="#EDCC94"/>
<path d="M574.261 14.7505C577.861 16.5347 583.986 16.7749 586.426 12.6402C588.558 8.98599 586.801 3.7362 583.627 1.83187C578.407 -1.30771 569.466 4.67979 569.603 9.36342C569.671 12.2971 573.374 14.3044 574.261 14.7505Z" fill="#EDCC94"/>
<path d="M623.329 17.7016C623.807 22.2823 631.433 25.3361 637.251 25.4219C647.369 25.5592 657.606 16.7752 656.445 11.7485C655.251 6.53299 641.397 3.58213 631.809 8.21429C631.229 8.50595 622.818 12.6577 623.329 17.7016Z" fill="#EDCC94"/>
<path d="M662.588 19.6914C664.635 21.4242 668.457 19.9659 670.538 18.3704C674.292 15.5053 675.878 9.53496 674.053 7.8365C671.715 5.67483 662.468 9.34625 661.376 14.922C661.086 16.3803 661.223 18.5591 662.588 19.6914Z" fill="#EDCC94"/>
<path d="M810.902 26.0563C813.12 26.5539 817.949 27.6175 821.361 24.8382C825.916 21.1325 825.831 12.3314 822.163 7.85364C815.645 -0.123969 796.963 4.50819 795.223 11.0962C793.841 16.243 802.389 24.1691 810.902 26.0563Z" fill="#EDCC94"/>
<path d="M835.846 9.7749C834.413 11.542 831.274 15.385 832.195 19.7083C833.423 25.4728 841.271 29.3672 846.902 28.1148C856.917 25.8845 861.267 7.02991 856.217 2.48353C852.259 -1.08495 841.357 2.99822 835.846 9.7749Z" fill="#EDCC94"/>
</g>
<defs>
<clipPath id="clip0_1014_16415">
<rect width="82" height="999" fill="white" transform="translate(999) rotate(90)"/>
</clipPath>
</defs>
</svg>
