<svg width="999" height="86" viewBox="0 0 999 86" fill="none" xmlns="http://www.w3.org/2000/svg">
<g clip-path="url(#clip0_2602_1492)">
<path d="M-674.185 -3V79.52C-671.796 76.93 -668.009 73.55 -662.634 71.577C-646.767 65.727 -635.421 78.765 -614.606 83.243C-599.422 86.52 -601.862 80.361 -555.028 75.248C-528.054 72.298 -514.576 70.838 -505.789 72.795C-496.439 74.888 -484.65 79.263 -468.715 76.466C-462.248 75.334 -457.659 73.464 -455.953 72.795C-449.094 70.153 -422.922 61.626 -333.162 69.741C-294.364 73.258 -285.987 76.037 -265.07 73.412C-256.403 72.314 -247.94 70.599 -231.032 69.14C-219.618 68.163 -205.406 66.979 -189.693 67.922C-169.526 69.123 -155.297 73.309 -147.739 75.265C-86.4711 91.032 -22.6961 72.863 29.7679 74.047C34.1359 74.15 44.7989 74.527 58.9429 72.829C67.2859 71.834 67.9169 71.182 78.3929 69.775C96.9049 67.288 98.781 68.815 108.796 66.722C118.197 64.766 117.703 63.187 136.146 56.325C153.258 49.96 161.806 46.786 168.972 46.545C181 46.135 190.111 50.2 206.661 57.543C222.186 64.44 228.209 69.913 241.312 70.376C247.267 70.582 246.857 69.484 256.514 69.158C272.927 68.591 278.318 71.628 288.129 71.611C303.347 71.577 302.904 64.234 323.992 58.778C334.28 56.119 353.696 51.092 372.617 58.778C385.6 64.045 386.743 70.582 397.543 71.01C409.009 71.474 413.513 64.337 424.893 66.739C431.871 68.214 432.587 71.388 440.692 74.682C446.646 77.101 454.051 78.542 468.655 77.135C507.163 73.378 518.935 57.148 536.747 64.903C542.599 67.459 544.715 70.685 553.16 72.846C561.81 75.076 570.631 74.51 577.473 74.064C583.342 73.687 583.905 73.241 589.023 72.846C601.58 71.851 610.794 73.498 615.161 74.064C631.25 76.14 643.108 71.319 657.712 68.557C703.147 59.997 715.414 82.728 760.456 75.9C771.222 74.27 786.048 70.599 803.007 72.229C805.976 72.52 812.391 73.275 821.246 72.846C830.476 72.383 834.349 71.011 840.099 70.393C853.151 69.02 854.481 73.893 871.713 75.9C881.933 77.084 898.38 77.341 914.265 74.064C919.281 73.034 922.335 72.04 927.026 72.846C936.41 74.459 940.215 81.201 947.091 79.571C950.042 78.868 949.803 77.513 953.779 75.9C960.501 73.19 966.916 74.75 969.578 75.282C979.183 77.238 982.459 74.716 1004.23 74.665C1028.95 74.613 1052.79 77.805 1069.88 78.937C1142.58 83.775 1201 58.589 1220.64 75.265C1222.5 76.844 1230.5 84.306 1238.87 82.557C1242.92 81.716 1268.36 78.307 1270 76.403L1275.97 71.499V-2.983H-674.185V-3Z" fill="#a65c39"/>
<path d="M967.206 77.702C966.779 76.107 963.623 75.609 961.627 75.747C958.778 75.935 955.331 77.651 955.4 79.401C955.468 81.185 959.153 83.021 962.275 82.403C965.022 81.854 967.65 79.366 967.206 77.702ZM928.425 77.274C927.061 75.918 924.399 74.7 922.556 75.97C921.413 76.759 920.697 78.44 921.123 79.71C922.096 82.626 928.869 83.175 930.012 81.288C930.661 80.208 929.398 78.234 928.425 77.274ZM918.479 75.764C918.718 76.433 918.018 77.342 917.336 77.788C915.749 78.783 913.173 77.857 913.036 76.93C912.934 76.21 914.247 75.335 915.322 75.06C916.5 74.751 918.189 74.923 918.479 75.764ZM854.345 75.764C855.13 78.954 844.927 86.023 841.208 83.552C839.126 82.162 838.921 77.702 840.781 75.112C844.159 70.377 853.662 73.036 854.345 75.764ZM836.908 74.254C837.813 75.506 836.669 78.2 834.963 79.452C831.466 82.008 825.614 78.457 825.699 76.638C825.818 74.374 835.168 71.852 836.908 74.254ZM711.302 77.771C711.865 75.953 705.57 70.411 698.779 71.578C695.862 72.076 692.006 73.963 692.211 75.507C692.62 78.681 710.432 80.499 711.302 77.771ZM685.557 71.286C684.823 70.806 682.622 69.519 679.705 69.811C675.166 70.274 671.873 74.271 672.402 75.197C672.812 75.935 675.934 75.352 685.557 71.286ZM669.161 70.789C668.768 69.416 662.404 68.662 660.886 71.612C660.34 72.676 660.323 74.392 661.21 75.044C663.206 76.484 669.604 72.316 669.161 70.789ZM606.87 76.347C606.887 74.666 601.973 72.178 597.452 73.585C593.562 74.803 590.678 78.697 591.463 80.121C592.862 82.661 606.852 79.161 606.87 76.347ZM536.218 70.651C536.935 68.918 531.782 63.085 525.76 63.841C522.996 64.183 519.549 65.985 519.72 67.546C520.044 70.703 535.16 73.19 536.218 70.651ZM512.947 68.73C511.36 70.137 510.37 73.002 511.769 74.649C513.186 76.313 516.461 76.073 517.963 74.203C519.652 72.093 518.645 68.473 516.632 67.683C514.926 67.014 513.083 68.61 512.947 68.73ZM421.941 70.36C418.341 68.576 412.216 68.335 409.776 72.47C407.644 76.124 409.401 81.374 412.574 83.278C417.795 86.418 426.735 80.431 426.599 75.747C426.531 72.813 422.828 70.806 421.941 70.36ZM375.671 65.298C375.193 60.718 367.567 57.664 361.749 57.578C351.631 57.441 341.394 66.225 342.555 71.251C343.749 76.467 357.603 79.418 367.191 74.786C367.771 74.494 376.182 70.342 375.671 65.298ZM336.412 63.309C334.365 61.576 330.543 63.034 328.462 64.629C324.708 67.495 323.122 73.465 324.947 75.164C327.285 77.325 336.532 73.654 337.624 68.078C337.914 66.62 337.777 64.442 336.412 63.309ZM188.098 56.944C185.88 56.446 181.051 55.382 177.639 58.162C173.084 61.868 173.169 70.669 176.837 75.146C183.355 83.124 202.037 78.492 203.777 71.904C205.159 66.757 196.611 58.831 188.098 56.944ZM163.154 73.225C164.587 71.458 167.726 67.615 166.805 63.292C165.577 57.527 157.729 53.632 152.098 54.885C142.083 57.115 137.733 75.97 142.783 80.516C146.741 84.085 157.643 80.001 163.154 73.225Z" fill="#a65c39"/>
</g>
<defs>
<clipPath id="clip0_2602_1492">
<rect width="999" height="86" fill="white"/>
</clipPath>
</defs>
</svg>
