<svg width="2150" height="26" viewBox="0 0 2150 26" fill="none" xmlns="http://www.w3.org/2000/svg">
<g clip-path="url(#clip0_979_2010)">
<path d="M2149.99 3.93533C2149.31 3.8082 2146.93 2.01882 2145.7 1.92909C2141.71 1.64492 2141.02 1.97604 2138.03 2.33499C2131.55 3.10524 2131.09 0.801964 2126.3 2.0583C2122.78 2.97811 2122.55 4.34662 2119.65 5.0047C2115.22 6.00677 2113.03 3.03794 2107.84 1.93117C2103.98 1.10857 2103.14 2.163 2095.74 2.89586C2084.78 3.97271 2082.73 2.03587 2071.06 3.02299C2066.19 3.43429 2064.74 3.92037 2060.07 4.57845C2047.29 6.37321 2037.24 5.64783 2029.06 5.09445C1954.11 0.0317316 1936.52 2.89587 1932.42 3.66612C1930.76 3.9802 1927.44 4.67568 1922.73 4.95985C1909.27 5.76749 1908.21 1.75171 1899.21 3.40439C1893.6 4.43638 1888.65 6.97896 1884.35 4.18212C1883.56 3.66613 1883.07 3.15761 1882.93 3.01553C1874.28 -5.57689 1795.68 7.2407 1774.53 4.18213C1771.74 3.77831 1765.82 2.49954 1758.38 4.18213C1753.99 5.17673 1752.79 6.35828 1747.27 7.29305C1742.56 8.09321 1741.19 7.61462 1735.39 8.19791C1727.86 8.96069 1727.71 10.0226 1723.5 10.2694C1715.08 10.7704 1713.89 6.65741 1701.54 4.18214C1700.02 3.88301 1693.51 2.63416 1685.13 3.01555C1677.59 3.35954 1674.88 4.73552 1668.33 5.61047C1658.28 6.94906 1650.9 5.55813 1645.59 4.83275C1628.97 2.56686 1614.58 4.37658 1579.56 4.44388C1562.44 4.4738 1537.6 4.09989 1506.43 2.1107C1506.43 2.1107 1503.33 4.44389 1501.27 4.57102C1499.97 4.65328 1499.69 4.06998 1498.6 3.55399C1497.74 3.15016 1497.03 2.95574 1495.45 2.88096C1492.97 2.76878 1491.73 2.70895 1488.22 4.43641C1482.68 7.15847 1465.89 5.44597 1456.7 4.82528C1438.85 3.61382 1440.66 5.91709 1416.52 4.95241C1404.87 4.48877 1406.42 4.0326 1392.48 3.26983C1363.96 1.70689 1349.69 0.921686 1340.81 3.0081C1336.97 3.90548 1327.72 6.41066 1315.61 4.95242C1312.56 4.58599 1310.38 4.09243 1309.54 3.91296C1293.58 0.540303 1267.31 6.45554 1259.93 7.92874C1224.55 14.9881 1196.32 5.06461 1165.36 4.6907C1163.85 4.67574 1158.82 4.63087 1151.92 4.30183C1146.44 4.0401 1143.99 3.79332 1141.2 3.65124C1132.35 3.2175 1127.73 4.24949 1120.27 4.81783C1107.61 5.78252 1106.64 3.89802 1086.42 3.65124C1077.18 3.53907 1071.12 3.86063 1066.01 4.04011C1014.25 5.87974 956.278 -2.72762 935.774 3.52413C933.284 4.2869 926.588 6.70983 918.2 5.46845C914.42 4.90759 913.13 4.02516 908.507 3.26239C902.587 2.29023 898.158 2.67162 892.745 3.13526C866.702 5.3488 861.654 5.68532 854.243 4.69073C849.344 4.03265 850.037 3.68865 845.198 3.00814C831.554 1.08625 820.168 3.00814 812.638 4.95247C812.638 4.95247 810.826 6.24619 809.797 6.24619C808.768 6.24619 802.043 3.13527 798.941 3.39701C795.84 3.65874 790.285 3.913 787.832 3.913C785.379 3.913 780.339 3.78588 779.563 3.78588C778.788 3.78588 774.911 2.10329 770.78 2.49215C766.642 2.88102 754.891 3.00815 754.891 3.00815C744.885 4.07753 729.72 5.24412 711.221 4.82535C695.631 4.4664 684.656 3.13528 678.534 2.49216C660.222 0.562792 635.409 1.37792 585.767 3.00816C562.556 3.77094 520.511 5.44605 503.855 3.39703C501.782 3.14277 497.144 2.46974 490.68 2.49218C480.025 2.52957 479.817 4.40659 472.077 3.65878C468.208 3.28487 463.152 2.32018 457.993 2.88105C457.508 2.93339 456.308 3.07548 454.63 3.14278C450.753 3.28487 447.897 2.85861 447.137 2.75391C442.022 2.05097 411.825 -0.47665 381.763 2.36506C374.642 3.03809 376.454 3.16522 370.653 3.65878C352.654 5.18433 346.324 2.98575 322.077 2.36506C309.253 2.03602 298.345 2.3202 296.757 2.36506C287.116 2.63428 283.038 3.05306 274.404 3.1428C264.659 3.24749 256.725 2.85115 251.536 2.4922C251.536 2.4922 250.887 3.78592 247.398 3.78592C243.909 3.78592 241.582 2.74646 239.644 3.00819C237.705 3.26993 232.024 3.52419 231.248 3.52419C231.248 3.52419 226.32 4.06261 216.91 4.30191C207.516 4.54122 207.135 2.92594 198.307 2.74646C183.902 2.44734 179.466 6.62015 165.106 4.30192C163.398 4.02523 163.018 3.8981 161.102 3.5242C133.56 -1.80774 109.753 5.31148 89.01 3.39707C87.3398 3.24003 83.3357 2.81378 77.7661 2.74647C70.5486 2.66421 66.9329 2.61934 64.5916 3.13534C62.2354 3.65133 57.4858 4.97497 54.384 3.65133C54.0486 3.50925 53.5117 3.24003 52.7065 3.13534C50.738 2.86612 49.7764 3.87567 47.8005 4.04019C46.4211 4.15237 45.4966 3.78594 44.572 3.52421C40.8887 2.48474 36.5195 2.99325 33.2017 3.13534C24.4482 3.51673 23.0466 1.34806 14.5989 1.49015C11.1467 1.54997 6.12134 1.99866 3.42075e-07 3.91307L1.19766e-05 136.997L2149.99 136.996V3.93533Z" fill="#B56647"/>
</g>
<defs>
<clipPath id="clip0_979_2010">
<rect width="2150" height="26" fill="white"/>
</clipPath>
</defs>
</svg>
