<svg width="999" height="92" viewBox="0 0 999 92" fill="none" xmlns="http://www.w3.org/2000/svg">
<g clip-path="url(#clip0_4016_23668)">
<mask id="mask0_4016_23668" style="mask-type:luminance" maskUnits="userSpaceOnUse" x="-1" y="3" width="1001" height="86">
<path d="M1000 3H-1V89H1000V3Z" fill="white"/>
</mask>
<g mask="url(#mask0_4016_23668)">
<path d="M-676.535 0V82.52C-674.141 79.93 -670.347 76.55 -664.961 74.577C-649.062 68.727 -637.694 81.765 -616.837 86.243C-601.623 89.52 -604.067 83.361 -557.14 78.248C-530.112 75.298 -516.607 73.838 -507.802 75.795C-498.433 77.888 -486.621 82.263 -470.654 79.466C-464.174 78.334 -459.576 76.464 -457.866 75.795C-450.994 73.153 -424.769 64.626 -334.829 72.741C-295.954 76.258 -287.56 79.037 -266.601 76.412C-257.917 75.314 -249.437 73.599 -232.495 72.14C-221.058 71.163 -206.818 69.979 -191.073 70.922C-170.866 72.123 -156.608 76.309 -149.035 78.265C-87.6448 94.032 -23.7421 75.863 28.827 77.047C33.2037 77.15 43.8882 77.527 58.0605 75.829C66.4202 74.834 67.0524 74.182 77.5493 72.775C96.0984 70.288 97.9782 71.815 108.013 69.722C117.433 67.766 116.938 66.187 135.418 59.325C152.564 52.96 161.129 49.786 168.31 49.545C180.362 49.135 189.491 53.2 206.074 60.543C221.63 67.44 227.665 72.913 240.795 73.376C246.762 73.582 246.351 72.484 256.027 72.158C272.473 71.591 277.875 74.628 287.705 74.611C302.954 74.577 302.51 67.234 323.64 61.778C333.949 59.119 353.404 54.092 372.363 61.778C385.372 67.045 386.517 73.582 397.338 74.01C408.827 74.474 413.34 67.337 424.743 69.739C431.735 71.214 432.453 74.388 440.574 77.682C446.54 80.101 453.96 81.542 468.593 80.135C507.178 76.378 518.973 60.148 536.821 67.903C542.685 70.459 544.805 73.685 553.267 75.846C561.934 78.076 570.773 77.51 577.629 77.064C583.509 76.687 584.074 76.241 589.202 75.846C601.784 74.851 611.016 76.498 615.392 77.064C631.513 79.14 643.395 74.319 658.028 71.557C703.554 62.997 715.846 85.728 760.978 78.9C771.766 77.27 786.621 73.599 803.614 75.229C806.589 75.52 813.017 76.275 821.89 75.846C831.138 75.383 835.019 74.011 840.78 73.393C853.859 72.02 855.191 76.893 872.458 78.9C882.698 80.084 899.178 80.341 915.095 77.064C920.121 76.034 923.181 75.04 927.881 75.846C937.284 77.459 941.097 84.201 947.987 82.571C950.944 81.868 950.704 80.513 954.688 78.9C961.423 76.19 967.851 77.75 970.519 78.282C980.143 80.238 983.425 77.716 1005.24 77.665C1030.01 77.613 1053.9 80.805 1071.02 81.937C1143.87 86.775 1202.4 61.589 1222.08 78.265C1223.95 79.844 1231.96 87.306 1240.35 85.557C1244.41 84.716 1269.9 81.307 1271.54 79.403L1277.52 74.499V0.017H-676.535V0Z" fill="#A65C39"/>
<path d="M968.142 80.7019C967.714 79.1069 964.551 78.6089 962.551 78.7469C959.697 78.9349 956.243 80.6509 956.312 82.4009C956.38 84.1849 960.073 86.0209 963.201 85.4029C965.953 84.8539 968.586 82.3659 968.142 80.7019ZM929.283 80.2739C927.916 78.9179 925.249 77.6999 923.402 78.9699C922.257 79.7589 921.539 81.4399 921.966 82.7099C922.941 85.6259 929.728 86.1749 930.873 84.2879C931.523 83.2079 930.258 81.2339 929.283 80.2739ZM919.317 78.7639C919.557 79.4329 918.855 80.3419 918.172 80.7879C916.582 81.7829 914 80.8569 913.863 79.9299C913.761 79.2099 915.077 78.3349 916.154 78.0599C917.334 77.7509 919.026 77.9229 919.317 78.7639ZM855.055 78.7639C855.841 81.9539 845.618 89.0229 841.891 86.5519C839.805 85.1619 839.6 80.7019 841.464 78.1119C844.848 73.3769 854.37 76.0359 855.055 78.7639ZM837.583 77.2539C838.49 78.5059 837.343 81.1999 835.634 82.4519C832.13 85.0079 826.266 81.4569 826.351 79.6379C826.471 77.3739 835.839 74.8519 837.583 77.2539ZM711.725 80.7709C712.289 78.9529 705.982 73.4109 699.177 74.5779C696.254 75.0759 692.391 76.9629 692.596 78.5069C693.006 81.6809 710.854 83.4989 711.725 80.7709ZM685.929 74.2859C685.193 73.8059 682.988 72.5189 680.065 72.8109C675.517 73.2739 672.217 77.2709 672.747 78.1969C673.158 78.9349 676.286 78.3519 685.929 74.2859ZM669.5 73.7889C669.106 72.4159 662.729 71.6619 661.208 74.6119C660.661 75.6759 660.644 77.3919 661.533 78.0439C663.533 79.4839 669.944 75.3159 669.5 73.7889ZM607.084 79.3469C607.101 77.6659 602.177 75.1779 597.647 76.5849C593.75 77.8029 590.86 81.6969 591.646 83.1209C593.048 85.6609 607.066 82.1609 607.084 79.3469ZM536.291 73.6509C537.009 71.9179 531.846 66.0849 525.812 66.8409C523.042 67.1829 519.588 68.9849 519.76 70.5459C520.084 73.7029 535.231 76.1899 536.291 73.6509ZM512.973 71.7299C511.383 73.1369 510.391 76.0019 511.793 77.6489C513.213 79.3129 516.494 79.0729 517.999 77.2029C519.692 75.0929 518.683 71.4729 516.666 70.6829C514.956 70.0139 513.109 71.6099 512.973 71.7299ZM421.785 73.3599C418.178 71.5759 412.04 71.3349 409.596 75.4699C407.459 79.1239 409.22 84.3739 412.399 86.2779C417.631 89.4179 426.589 83.4309 426.452 78.7469C426.384 75.8129 422.674 73.8059 421.785 73.3599ZM375.422 68.2979C374.943 63.7179 367.302 60.6639 361.472 60.5779C351.334 60.4409 341.077 69.2249 342.24 74.2509C343.436 79.4669 357.318 82.4179 366.925 77.7859C367.507 77.4939 375.934 73.3419 375.422 68.2979ZM336.085 66.3089C334.034 64.5759 330.204 66.0339 328.119 67.6289C324.357 70.4949 322.768 76.4649 324.597 78.1639C326.939 80.3249 336.205 76.6539 337.299 71.0779C337.59 69.6199 337.452 67.4419 336.085 66.3089ZM187.474 59.9439C185.251 59.4459 180.413 58.3819 176.994 61.1619C172.43 64.8679 172.515 73.6689 176.19 78.1459C182.721 86.1239 201.441 81.4919 203.184 74.9039C204.569 69.7569 196.004 61.8309 187.474 59.9439ZM162.48 76.2249C163.916 74.4579 167.061 70.6149 166.138 66.2919C164.908 60.5269 157.044 56.6319 151.402 57.8849C141.367 60.1149 137.008 78.9699 142.068 83.5159C146.034 87.0849 156.958 83.0009 162.48 76.2249Z" fill="#A65C39"/>
</g>
</g>
<defs>
<clipPath id="clip0_4016_23668">
<rect width="999" height="92" fill="white"/>
</clipPath>
</defs>
</svg>
