<svg width="2149" height="30" viewBox="0 0 2149 30" fill="none" xmlns="http://www.w3.org/2000/svg">
<g clip-path="url(#clip0_2602_1478)">
<path d="M-0.492444 3.43704C0.178597 3.30991 2.56016 1.52053 3.7904 1.43079C7.77937 1.14662 8.46969 1.47775 11.467 1.8367C17.9388 2.60695 18.4011 0.303673 23.1953 1.56001C26.7145 2.47982 26.9382 3.84833 29.8461 4.50641C34.2749 5.50848 36.467 2.53965 41.6489 1.43288C45.5111 0.610283 46.3537 1.6647 53.7575 2.39757C64.7104 3.47442 66.7608 1.53758 78.4369 2.5247C83.3057 2.936 84.7521 3.42208 89.4196 4.08016C102.207 5.87492 112.257 5.14954 120.429 4.59616C195.384 -0.466559 212.973 2.39758 217.074 3.16783C218.737 3.48191 222.055 4.17739 226.767 4.46156C240.225 5.2692 241.284 1.25342 250.283 2.9061C255.897 3.93809 260.841 6.48067 265.143 3.68383C265.933 3.16784 266.425 2.65932 266.567 2.51724C275.208 -6.07518 353.817 6.74241 374.962 3.68384C377.751 3.28002 383.671 2.00125 391.112 3.68384C395.504 4.67844 396.704 5.85999 402.222 6.79476C406.934 7.59492 408.306 7.11633 414.106 7.69962C421.63 8.4624 421.779 9.5243 425.991 9.77108C434.417 10.2721 435.602 6.15912 447.957 3.68385C449.47 3.38472 455.979 2.13587 464.367 2.51725C471.905 2.86125 474.612 4.23723 481.166 5.11218C491.209 6.45077 498.59 5.05984 503.907 4.33445C520.519 2.06857 534.909 3.87829 569.93 3.94559C587.056 3.97551 611.892 3.6016 643.058 1.61241C643.058 1.61241 646.16 3.9456 648.225 4.07273C649.522 4.15499 649.806 3.57169 650.894 3.05569C651.752 2.65187 652.468 2.45745 654.041 2.38266C656.524 2.27049 657.761 2.21066 661.273 3.93812C666.813 6.66017 683.604 4.94768 692.797 4.32699C710.647 3.11553 708.835 5.4188 732.978 4.45412C744.624 3.99048 743.073 3.53431 757.008 2.77154C785.535 1.2086 799.798 0.423395 808.686 2.50981C812.518 3.40719 821.771 5.91237 833.88 4.45413C836.937 4.0877 839.114 3.59414 839.949 3.41467C855.912 0.0420125 882.18 5.95725 889.561 7.43045C924.94 14.4898 953.176 4.56632 984.133 4.19241C985.647 4.17745 990.672 4.13258 997.569 3.80354C1003.05 3.54181 1005.5 3.29503 1008.29 3.15295C1017.14 2.71921 1021.76 3.7512 1029.22 4.31954C1041.89 5.28423 1042.86 3.39973 1063.07 3.15295C1072.32 3.04078 1078.37 3.36234 1083.48 3.54181C1135.24 5.38145 1193.21 -3.22592 1213.72 3.02584C1216.21 3.78861 1222.9 6.21154 1231.29 4.97016C1235.07 4.4093 1236.36 3.52687 1240.99 2.7641C1246.91 1.79194 1251.33 2.17333 1256.75 2.63697C1282.79 4.85051 1287.84 5.18703 1295.25 4.19244C1300.15 3.53436 1299.46 3.19036 1304.29 2.50985C1317.94 0.58796 1329.32 2.50985 1336.85 4.45417C1336.85 4.45417 1338.67 5.7479 1339.7 5.7479C1340.72 5.7479 1347.45 2.63698 1350.55 2.89872C1353.65 3.16045 1359.21 3.41471 1361.66 3.41471C1364.11 3.41471 1369.15 3.28758 1369.93 3.28758C1370.7 3.28758 1374.58 1.60499 1378.71 1.99386C1382.85 2.38272 1394.6 2.50986 1394.6 2.50986C1404.61 3.57924 1419.77 4.74583 1438.27 4.32706C1453.86 3.96811 1464.84 2.63699 1470.96 1.99387C1489.27 0.0645015 1514.08 0.879626 1563.73 2.50987C1586.94 3.27265 1628.98 4.94776 1645.64 2.89874C1647.71 2.64448 1652.35 1.97145 1658.81 1.99388C1669.47 2.03128 1669.68 3.9083 1677.42 3.16048C1681.28 2.78658 1686.34 1.82189 1691.5 2.38276C1691.98 2.4351 1693.18 2.57719 1694.86 2.64449C1698.74 2.78658 1701.6 2.36032 1702.36 2.25562C1707.47 1.55268 1737.67 -0.974941 1767.73 1.86677C1774.85 2.5398 1773.04 2.66693 1778.84 3.16049C1796.84 4.68604 1803.17 2.48746 1827.42 1.86677C1840.24 1.53773 1851.15 1.8219 1852.74 1.86677C1862.38 2.13599 1866.46 2.55477 1875.09 2.64451C1884.83 2.7492 1892.77 2.35286 1897.96 1.99391C1897.96 1.99391 1898.61 3.28763 1902.09 3.28763C1905.58 3.28763 1907.91 2.24817 1909.85 2.5099C1911.79 2.77164 1917.47 3.0259 1918.24 3.0259C1918.24 3.0259 1923.17 3.56432 1932.58 3.80362C1941.98 4.04293 1942.36 2.42765 1951.19 2.24817C1965.59 1.94904 1970.03 6.12186 1984.39 3.80363C1986.09 3.52694 1986.47 3.39981 1988.39 3.0259C2015.93 -2.30603 2039.74 4.81319 2060.48 2.89878C2062.15 2.74174 2066.16 2.31548 2071.73 2.24818C2078.94 2.16592 2082.56 2.12105 2084.9 2.63704C2087.26 3.15304 2092.01 4.47668 2095.11 3.15304C2095.44 3.01096 2095.98 2.74174 2096.79 2.63705C2098.75 2.36783 2099.72 3.37738 2101.69 3.5419C2103.07 3.65408 2104 3.28765 2104.92 3.02591C2108.6 1.98645 2112.97 2.49496 2116.29 2.63705C2125.04 3.01843 2126.45 0.849769 2134.89 0.991855C2138.35 1.05168 2143.37 1.50037 2149.49 3.41478L2149.49 136.498L-0.492444 136.498L-0.492444 3.43704Z" fill="#30453A"/>
</g>
<defs>
<clipPath id="clip0_2602_1478">
<rect width="2149" height="30" fill="white" transform="matrix(-1 0 0 -1 2149 30)"/>
</clipPath>
</defs>
</svg>
