<svg width="2150" height="32" viewBox="0 0 2150 32" fill="none" xmlns="http://www.w3.org/2000/svg">
<mask id="mask0_1282_17628" style="mask-type:luminance" maskUnits="userSpaceOnUse" x="0" y="3" width="2150" height="26">
<path d="M0 3H2150V29H0V3Z" fill="white"/>
</mask>
<g mask="url(#mask0_1282_17628)">
<path d="M0.0148926 6.93531C0.685933 6.80818 3.06749 5.0188 4.29774 4.92907C8.2867 4.6449 8.97703 4.97602 11.9743 5.33497C18.4461 6.10522 18.9084 3.80194 23.7026 5.05828C27.2219 5.97809 27.4455 7.3466 30.3534 8.00468C34.7823 9.00675 36.9743 6.03792 42.1563 4.93115C46.0185 4.10855 46.861 5.16298 54.2648 5.89584C65.2177 6.97269 67.2681 5.03585 78.9442 6.02297C83.813 6.43427 85.2594 6.92035 89.9269 7.57843C102.714 9.37319 112.765 8.64781 120.936 8.09443C195.892 3.03171 213.48 5.89585 217.581 6.6661C219.244 6.98018 222.562 7.67565 227.274 7.95983C240.732 8.76747 241.791 4.75169 250.79 6.40437C256.405 7.43636 261.348 9.97894 265.65 7.1821C266.44 6.66611 266.933 6.15759 267.074 6.01551C275.716 -2.57691 354.324 10.2407 375.47 7.18211C378.258 6.77829 384.178 5.49952 391.619 7.18211C396.011 8.1767 397.211 9.35825 402.729 10.293C407.441 11.0932 408.813 10.6146 414.614 11.1979C422.137 11.9607 422.286 13.0226 426.499 13.2694C434.924 13.7704 436.109 9.65738 448.464 7.18212C449.978 6.88299 456.487 5.63414 464.875 6.01553C472.413 6.35952 475.119 7.7355 481.673 8.61045C491.716 9.94904 499.098 8.5581 504.414 7.83273C521.026 5.56684 535.416 7.37656 570.437 7.44386C587.563 7.47378 612.399 7.09986 643.565 5.11068C643.565 5.11068 646.667 7.44387 648.732 7.571C650.03 7.65326 650.313 7.06995 651.402 6.55397C652.259 6.15014 652.975 5.95572 654.548 5.88094C657.031 5.76876 658.269 5.70893 661.78 7.43639C667.32 10.1584 684.111 8.44595 693.305 7.82526C711.154 6.6138 709.342 8.91707 733.485 7.95239C745.131 7.48875 743.58 7.03258 757.516 6.26981C786.042 4.70687 800.306 3.92166 809.193 6.00808C813.026 6.90546 822.279 9.41064 834.387 7.9524C837.444 7.58597 839.621 7.09241 840.456 6.91294C856.42 3.54028 882.687 9.45552 890.069 10.9287C925.447 17.9881 953.683 8.06459 984.641 7.69068C986.154 7.67572 991.18 7.63085 998.076 7.30181C1003.56 7.04007 1006.01 6.7933 1008.8 6.65122C1017.65 6.21748 1022.27 7.24947 1029.73 7.81781C1042.39 8.7825 1043.36 6.898 1063.58 6.65122C1072.82 6.53905 1078.88 6.86061 1083.99 7.04009C1135.75 8.87972 1193.72 0.272355 1214.23 6.52411C1216.72 7.28688 1223.41 9.70981 1231.8 8.46843C1235.58 7.90757 1236.87 7.02514 1241.49 6.26237C1247.41 5.29021 1251.84 5.6716 1257.25 6.13524C1283.3 8.34878 1288.35 8.6853 1295.76 7.69071C1300.66 7.03263 1299.96 6.68863 1304.8 6.00812C1318.45 4.08623 1329.83 6.00812 1337.36 7.95245C1337.36 7.95245 1339.17 9.24617 1340.2 9.24617C1341.23 9.24617 1347.96 6.13525 1351.06 6.39699C1354.16 6.65872 1359.72 6.91298 1362.17 6.91298C1364.62 6.91298 1369.66 6.78586 1370.44 6.78586C1371.21 6.78586 1375.09 5.10327 1379.22 5.49213C1383.36 5.881 1395.11 6.00813 1395.11 6.00813C1405.11 7.07751 1420.28 8.24409 1438.78 7.82533C1454.37 7.46637 1465.34 6.13526 1471.47 5.49214C1489.78 3.56277 1514.59 4.3779 1564.23 6.00814C1587.44 6.77092 1629.49 8.44603 1646.15 6.39701C1648.22 6.14275 1652.86 5.46972 1659.32 5.49216C1669.97 5.52955 1670.18 7.40657 1677.92 6.65876C1681.79 6.28485 1686.85 5.32016 1692.01 5.88103C1692.49 5.93337 1693.69 6.07546 1695.37 6.14276C1699.25 6.28485 1702.1 5.85859 1702.86 5.75389C1707.98 5.05095 1738.17 2.52333 1768.24 5.36504C1775.36 6.03807 1773.55 6.1652 1779.35 6.65876C1797.35 8.18431 1803.68 5.98573 1827.92 5.36504C1840.75 5.036 1851.66 5.32018 1853.24 5.36504C1862.88 5.63426 1866.96 6.05304 1875.6 6.14278C1885.34 6.24747 1893.27 5.85113 1898.46 5.49218C1898.46 5.49218 1899.11 6.7859 1902.6 6.7859C1906.09 6.7859 1908.42 5.74644 1910.36 6.00817C1912.29 6.26991 1917.98 6.52417 1918.75 6.52417C1918.75 6.52417 1923.68 7.06259 1933.09 7.30189C1942.48 7.54119 1942.86 5.92592 1951.69 5.74644C1966.1 5.44732 1970.53 9.62012 1984.89 7.3019C1986.6 7.02521 1986.98 6.89808 1988.9 6.52418C2016.44 1.19223 2040.25 8.31146 2060.99 6.39705C2062.66 6.24001 2066.66 5.81376 2072.23 5.74645C2079.45 5.66419 2083.07 5.61932 2085.41 6.13532C2087.76 6.65131 2092.51 7.97495 2095.62 6.65131C2095.95 6.50923 2096.49 6.24001 2097.29 6.13532C2099.26 5.8661 2100.22 6.87565 2102.2 7.04017C2103.58 7.15235 2104.5 6.78592 2105.43 6.52419C2109.11 5.48472 2113.48 5.99323 2116.8 6.13532C2125.55 6.51671 2126.95 4.34804 2135.4 4.49013C2138.85 4.54995 2143.88 4.99864 2150 6.91305V139.997L0.0148926 139.996V6.93531Z" fill="#B56647"/>
</g>
</svg>
