<svg width="2149" height="36" viewBox="0 0 2149 36" fill="none" xmlns="http://www.w3.org/2000/svg">
<mask id="mask0_1282_17570" style="mask-type:luminance" maskUnits="userSpaceOnUse" x="0" y="3" width="2149" height="30">
<path d="M0 33H2149V3H0V33Z" fill="white"/>
</mask>
<g mask="url(#mask0_1282_17570)">
<path d="M-0.492432 6.43701C0.178609 6.30988 2.56017 4.5205 3.79041 4.43076C7.77938 4.14659 8.4697 4.47772 11.467 4.83667C17.9388 5.60692 18.4011 3.30365 23.1953 4.55998C26.7145 5.47979 26.9382 6.8483 29.8461 7.50638C34.2749 8.50845 36.467 5.53962 41.6489 4.43285C45.5111 3.61026 46.3537 4.66467 53.7575 5.39754C64.7104 6.47439 66.7608 4.53755 78.4369 5.52467C83.3057 5.93597 84.7521 6.42205 89.4196 7.08013C102.207 8.87489 112.257 8.14951 120.429 7.59613C195.384 2.53342 212.973 5.39755 217.074 6.1678C218.737 6.48188 222.055 7.17736 226.767 7.46153C240.225 8.26917 241.284 4.25339 250.283 5.90607C255.897 6.93806 260.841 9.48064 265.143 6.6838C265.933 6.16781 266.425 5.65929 266.567 5.51721C275.208 -3.07521 353.817 9.74238 374.962 6.68381C377.751 6.27999 383.671 5.00122 391.112 6.68381C395.504 7.67841 396.704 8.85996 402.222 9.79473C406.934 10.5949 408.306 10.1163 414.106 10.6996C421.63 11.4624 421.779 12.5243 425.991 12.7711C434.417 13.2721 435.602 9.15909 447.957 6.68382C449.47 6.38469 455.979 5.13584 464.367 5.51722C471.905 5.86122 474.612 7.2372 481.166 8.11215C491.209 9.45074 498.59 8.05981 503.907 7.33442C520.519 5.06854 534.909 6.87826 569.93 6.94556C587.056 6.97548 611.892 6.60157 643.058 4.61238C643.058 4.61238 646.16 6.94557 648.225 7.0727C649.522 7.15496 649.806 6.57166 650.894 6.05566C651.752 5.65184 652.468 5.45742 654.041 5.38263C656.524 5.27046 657.761 5.21063 661.273 6.93809C666.813 9.66014 683.604 7.94765 692.797 7.32696C710.647 6.1155 708.835 8.41877 732.978 7.45409C744.624 6.99045 743.073 6.53428 757.008 5.77151C785.535 4.20857 799.798 3.42337 808.686 5.50978C812.518 6.40716 821.771 8.91234 833.88 7.4541C836.937 7.08767 839.114 6.59411 839.949 6.41464C855.912 3.04199 882.18 8.95722 889.561 10.4304C924.94 17.4898 953.176 7.56629 984.133 7.19238C985.647 7.17742 990.672 7.13255 997.569 6.80351C1003.05 6.54178 1005.5 6.295 1008.29 6.15292C1017.14 5.71918 1021.76 6.75117 1029.22 7.31951C1041.89 8.2842 1042.86 6.3997 1063.07 6.15292C1072.32 6.04075 1078.37 6.36231 1083.48 6.54178C1135.24 8.38142 1193.21 -0.225946 1213.72 6.02581C1216.21 6.78858 1222.9 9.21151 1231.29 7.97013C1235.07 7.40927 1236.36 6.52684 1240.99 5.76407C1246.91 4.79191 1251.33 5.1733 1256.75 5.63694C1282.79 7.85048 1287.84 8.187 1295.25 7.19241C1300.15 6.53433 1299.46 6.19033 1304.29 5.50982C1317.94 3.58793 1329.32 5.50982 1336.85 7.45414C1336.85 7.45414 1338.67 8.74787 1339.7 8.74787C1340.72 8.74787 1347.45 5.63695 1350.55 5.89869C1353.65 6.16042 1359.21 6.41468 1361.66 6.41468C1364.11 6.41468 1369.15 6.28755 1369.93 6.28755C1370.7 6.28755 1374.58 4.60496 1378.71 4.99383C1382.85 5.38269 1394.6 5.50983 1394.6 5.50983C1404.61 6.57921 1419.77 7.7458 1438.27 7.32703C1453.86 6.96808 1464.84 5.63696 1470.96 4.99384C1489.27 3.06448 1514.08 3.8796 1563.73 5.50984C1586.94 6.27262 1628.98 7.94773 1645.64 5.89871C1647.71 5.64445 1652.35 4.97142 1658.81 4.99385C1669.47 5.03125 1669.68 6.90827 1677.42 6.16045C1681.28 5.78655 1686.34 4.82186 1691.5 5.38273C1691.98 5.43507 1693.18 5.57716 1694.86 5.64446C1698.74 5.78655 1701.6 5.36029 1702.36 5.25559C1707.47 4.55265 1737.67 2.02503 1767.73 4.86674C1774.85 5.53977 1773.04 5.6669 1778.84 6.16046C1796.84 7.68601 1803.17 5.48743 1827.42 4.86674C1840.24 4.5377 1851.15 4.82187 1852.74 4.86674C1862.38 5.13596 1866.46 5.55474 1875.09 5.64448C1884.83 5.74917 1892.77 5.35283 1897.96 4.99388C1897.96 4.99388 1898.61 6.2876 1902.09 6.2876C1905.58 6.2876 1907.91 5.24814 1909.85 5.50987C1911.79 5.77161 1917.47 6.02587 1918.24 6.02587C1918.24 6.02587 1923.17 6.56429 1932.58 6.80359C1941.98 7.0429 1942.36 5.42762 1951.19 5.24814C1965.59 4.94901 1970.03 9.12183 1984.39 6.8036C1986.09 6.52691 1986.47 6.39978 1988.39 6.02587C2015.93 0.693944 2039.74 7.81316 2060.48 5.89875C2062.15 5.74171 2066.16 5.31545 2071.73 5.24815C2078.94 5.16589 2082.56 5.12102 2084.9 5.63701C2087.26 6.15301 2092.01 7.47665 2095.11 6.15301C2095.44 6.01093 2095.98 5.74171 2096.79 5.63702C2098.75 5.3678 2099.72 6.37735 2101.69 6.54187C2103.07 6.65405 2104 6.28762 2104.92 6.02588C2108.6 4.98642 2112.97 5.49493 2116.29 5.63702C2125.04 6.0184 2126.45 3.84974 2134.89 3.99183C2138.35 4.05165 2143.37 4.50034 2149.49 6.41475V139.498H-0.492432V6.43701Z" fill="#30453A"/>
</g>
</svg>
