<svg width="680" height="90" viewBox="0 0 680 90" fill="none" xmlns="http://www.w3.org/2000/svg">
<g clip-path="url(#clip0_1012_16117)">
<path d="M-3 1.88636C-2.32896 1.75923 -1.31494 1.60219 -0.0847003 1.51245C3.90426 1.22828 5.96212 1.97609 8.95944 2.33504C15.4313 3.10529 15.8935 0.802015 20.6877 2.05835C24.207 2.97816 24.4307 4.34667 27.3385 5.00475C31.7674 6.00682 33.9594 3.03799 39.1414 1.93122C43.0036 1.10862 43.8461 2.16304 51.2499 2.89591C62.2028 3.97276 64.2532 2.03591 75.9293 3.02303C80.7981 3.43433 82.2446 3.92041 86.912 4.57849C99.6991 6.37325 109.75 5.64787 117.922 5.09449C192.877 0.0317678 210.466 2.8959 214.566 3.66616C216.229 3.98024 219.547 4.67571 224.259 4.95988C237.717 5.76752 238.776 1.75175 247.775 3.40442C253.39 4.43641 258.333 6.97899 262.635 4.18215C263.426 3.66616 263.918 3.15764 264.059 3.01556C272.701 -5.57686 351.31 7.24072 372.455 4.18215C375.243 3.77833 381.163 2.49956 388.604 4.18215C392.996 5.17675 394.197 6.3583 399.714 7.29307C404.426 8.09323 405.798 7.61464 411.599 8.19793C419.122 8.96071 419.271 10.0226 423.484 10.2694C431.909 10.7704 433.095 6.65743 445.449 4.18215C446.963 3.88303 453.472 2.63417 461.86 3.01556C469.398 3.35955 472.104 4.73553 478.658 5.61048C488.701 6.94907 496.083 5.55814 501.399 4.83275C518.011 2.56687 532.401 4.37658 567.422 4.44389C584.548 4.4738 609.384 4.09989 640.551 2.1107C640.551 2.1107 643.652 4.44388 645.718 4.57101C647.015 4.65327 647.298 4.06998 648.387 3.55398C649.244 3.15016 649.96 2.95573 651.533 2.88095C654.016 2.76878 655.254 2.70895 658.766 4.43641C664.305 7.15846 680.848 0.205233 690.042 -0.415455C707.891 -1.62692 706.327 5.91709 730.47 4.9524C742.116 4.48876 740.565 4.03259 754.501 3.26981C783.027 1.70688 797.291 0.921669 806.178 3.00808C810.011 3.90546 819.264 6.41065 831.372 4.9524C834.429 4.58597 836.606 4.09241 837.441 3.91294C853.405 0.540282 879.672 6.45552 887.054 7.92872C922.432 14.9881 950.668 5.06458 981.626 4.69067C983.139 4.67571 988.165 4.63084 995.061 4.3018C1000.54 4.04006 1002.99 3.79329 1005.78 3.6512C1014.63 3.21747 1019.26 4.24945 1026.71 4.81779C1039.38 5.78248 1040.35 3.89798 1060.56 3.6512C1069.81 3.53903 1075.86 3.86059 1080.98 4.04006C1132.74 5.87969 1190.71 -2.72768 1211.21 3.52407C1213.7 4.28685 1220.4 6.70977 1228.78 5.4684C1232.57 4.90753 1233.85 4.02511 1238.48 3.26233C1244.4 2.29017 1248.83 2.67156 1254.24 3.13521C1280.28 5.34874 1285.33 5.68526 1292.74 4.69067C1297.64 4.03259 1296.95 3.68859 1301.79 3.00808C1315.43 1.08619 1326.82 3.00808 1334.35 4.9524C1334.35 4.9524 1336.16 6.24613 1337.19 6.24613C1338.22 6.24613 1344.94 3.13521 1348.04 3.39694C1351.15 3.65868 1356.7 3.91294 1359.15 3.91294C1361.61 3.91294 1366.65 3.78581 1367.42 3.78581C1368.2 3.78581 1372.07 2.10322 1376.21 2.49208C1380.34 2.88095 1392.09 3.00808 1392.09 3.00808C1402.1 4.07746 1417.27 5.24405 1435.76 4.82527C1451.35 4.46632 1462.33 3.13521 1468.45 2.49208C1486.76 0.562715 1511.58 1.37784 1561.22 3.00808C1584.43 3.77085 1626.47 5.44596 1643.13 3.39694C1645.2 3.14268 1649.84 2.46965 1656.31 2.49208C1666.96 2.52947 1667.17 4.4065 1674.91 3.65868C1678.78 3.28477 1683.83 2.32009 1688.99 2.88095C1689.48 2.9333 1690.68 3.07538 1692.35 3.14269C1696.23 3.28477 1699.09 2.85851 1699.85 2.75382C1704.96 2.05087 1735.16 -0.476749 1765.22 2.36496C1772.34 3.03799 1770.53 3.16512 1776.33 3.65868C1794.33 5.18423 1800.66 2.98564 1824.91 2.36496C1837.73 2.03592 1848.64 2.32009 1850.23 2.36496C1859.87 2.63417 1863.95 3.05295 1872.58 3.14269C1882.33 3.24738 1890.26 2.85104 1895.45 2.49208C1895.45 2.49208 1896.1 3.78581 1899.59 3.78581C1903.08 3.78581 1905.4 2.74634 1907.34 3.00808C1909.28 3.26981 1914.96 3.52407 1915.74 3.52407C1915.74 3.52407 1920.67 4.0625 1930.07 4.3018C1939.47 4.5411 1939.85 2.92582 1948.68 2.74634C1963.08 2.44722 1967.52 6.62003 1981.88 4.3018C1983.59 4.02511 1983.97 3.89798 1985.88 3.52407C2013.43 -1.80786 2037.23 5.31135 2057.98 3.39694C2059.65 3.2399 2063.65 2.81365 2069.22 2.74634C2076.44 2.66408 2080.05 2.61921 2082.39 3.13521C2084.75 3.6512 2089.5 4.97484 2092.6 3.6512C2092.94 3.50912 2093.47 3.2399 2094.28 3.13521C2096.25 2.86599 2097.21 3.87554 2099.18 4.04006C2100.56 4.15224 2101.49 3.78581 2102.41 3.52407C2106.1 2.48461 2110.47 2.99312 2113.78 3.13521C2122.54 3.51659 2123.94 1.34793 2132.39 1.49001C2135.84 1.54984 2140.86 1.99853 2146.99 3.91294V70.4547L-3 70.4547L-3 1.88636Z" fill="#212C26"/>
<path d="M2149.99 88.1105C2149.31 88.2377 2148.3 88.3947 2147.07 88.4844C2143.08 88.7686 2141.02 88.0208 2138.03 87.6618C2131.55 86.8916 2131.09 89.1949 2126.3 87.9385C2122.78 87.0187 2122.55 85.6502 2119.65 84.9921C2115.22 83.9901 2113.03 86.9589 2107.84 88.0657C2103.98 88.8883 2103.14 87.8338 2095.74 87.101C2084.78 86.0241 2082.73 87.961 2071.06 86.9738C2066.19 86.5625 2064.74 86.0765 2060.07 85.4184C2047.29 83.6236 2037.24 84.349 2029.06 84.9024C1954.11 89.9651 1936.52 87.101 1932.42 86.3307C1930.76 86.0166 1927.44 85.3211 1922.73 85.037C1909.27 84.2293 1908.21 88.2451 1899.21 86.5924C1893.6 85.5604 1888.65 83.0179 1884.35 85.8147C1883.56 86.3307 1883.07 86.8392 1882.93 86.9813C1874.28 95.5737 1795.68 82.7561 1774.53 85.8147C1771.74 86.2185 1765.82 87.4973 1758.38 85.8147C1753.99 84.8201 1752.79 83.6385 1747.27 82.7038C1742.56 81.9036 1741.19 82.3822 1735.39 81.7989C1727.86 81.0361 1727.71 79.9742 1723.5 79.7275C1715.08 79.2264 1713.89 83.3394 1701.54 85.8147C1700.02 86.1138 1693.51 87.3627 1685.13 86.9813C1677.59 86.6373 1674.88 85.2613 1668.33 84.3864C1658.28 83.0478 1650.9 84.4387 1645.59 85.1641C1628.97 87.43 1614.58 85.6203 1579.56 85.5529C1562.44 85.523 1537.6 85.8969 1506.43 87.8861C1506.43 87.8861 1503.33 85.5529 1501.27 85.4258C1499.97 85.3435 1499.69 85.9268 1498.6 86.4428C1497.74 86.8467 1497.03 87.0411 1495.45 87.1159C1492.97 87.228 1491.73 87.2879 1488.22 85.5604C1482.68 82.8384 1465.89 84.5509 1456.7 85.1715C1438.85 86.383 1440.66 84.0797 1416.52 85.0444C1404.87 85.5081 1406.42 85.9642 1392.48 86.727C1363.96 88.2899 1349.69 89.0751 1340.81 86.9887C1336.97 86.0913 1327.72 83.5862 1315.61 85.0444C1312.56 85.4108 1310.38 85.9044 1309.54 86.0839C1293.58 89.4565 1267.31 83.5413 1259.93 82.0681C1224.55 75.0087 1196.32 84.9322 1165.36 85.3061C1163.85 85.3211 1158.82 85.366 1151.92 85.695C1146.44 85.9567 1143.99 86.2035 1141.2 86.3456C1132.35 86.7793 1127.73 85.7473 1120.27 85.179C1107.61 84.2143 1106.64 86.0988 1086.42 86.3456C1077.18 86.4578 1071.12 86.1362 1066.01 85.9567C1014.25 84.1171 956.278 92.7245 935.774 86.4727C933.284 85.7099 926.588 83.287 918.2 84.5284C914.42 85.0892 913.13 85.9717 908.507 86.7344C902.587 87.7066 898.158 87.3252 892.745 86.8616C866.702 84.648 861.654 84.3115 854.243 85.3061C849.344 85.9642 850.037 86.3082 845.198 86.9887C831.554 88.9106 820.168 86.9887 812.638 85.0444C812.638 85.0444 810.826 83.7506 809.797 83.7506C808.768 83.7506 802.043 86.8616 798.941 86.5998C795.84 86.3381 790.285 86.0838 787.832 86.0838C785.379 86.0838 780.339 86.211 779.563 86.211C778.788 86.211 774.911 87.8935 770.78 87.5047C766.642 87.1158 754.891 86.9887 754.891 86.9887C744.885 85.9193 729.72 84.7527 711.221 85.1715C695.631 85.5304 684.656 86.8615 678.534 87.5047C660.222 89.434 635.409 88.6189 585.767 86.9887C562.556 86.2259 520.511 84.5508 503.855 86.5998C501.782 86.8541 497.144 87.5271 490.68 87.5047C480.025 87.4673 479.817 85.5902 472.077 86.3381C468.208 86.712 463.152 87.6766 457.993 87.1158C457.508 87.0634 456.308 86.9213 454.63 86.854C450.753 86.712 447.897 87.1382 447.137 87.2429C442.022 87.9459 411.825 90.4735 381.763 87.6318C374.642 86.9587 376.454 86.8316 370.653 86.338C352.654 84.8125 346.324 87.0111 322.077 87.6318C309.253 87.9608 298.345 87.6766 296.757 87.6318C287.116 87.3625 283.038 86.9438 274.404 86.854C264.659 86.7493 256.725 87.1457 251.536 87.5046C251.536 87.5046 250.887 86.2109 247.398 86.2109C243.909 86.2109 241.582 87.2504 239.644 86.9886C237.705 86.7269 232.024 86.4726 231.248 86.4726C231.248 86.4726 226.32 85.9342 216.91 85.6949C207.516 85.4556 207.135 87.0709 198.307 87.2504C183.902 87.5495 179.466 83.3767 165.106 85.6949C163.398 85.9716 163.018 86.0987 161.102 86.4726C133.56 91.8046 109.753 84.6853 89.01 86.5998C87.3398 86.7568 83.3357 87.1831 77.7661 87.2504C70.5486 87.3326 66.9329 87.3775 64.5916 86.8615C62.2354 86.3455 57.4858 85.0219 54.384 86.3455C54.0486 86.4876 53.5117 86.7568 52.7065 86.8615C50.738 87.1307 49.7764 86.1212 47.8005 85.9566C46.4211 85.8445 45.4966 86.2109 44.572 86.4726C40.8887 87.5121 36.5195 87.0036 33.2017 86.8615C24.4482 86.4801 23.0466 88.6488 14.5989 88.5067C11.1467 88.4469 6.12134 87.9982 3.42075e-07 86.0838L6.46899e-06 16.0001L2149.99 16.0002L2149.99 88.1105Z" fill="#212C26"/>
</g>
<defs>
<clipPath id="clip0_1012_16117">
<rect width="680" height="90" fill="white"/>
</clipPath>
</defs>
</svg>
