<svg width="999" height="92" viewBox="0 0 999 92" fill="none" xmlns="http://www.w3.org/2000/svg">
<mask id="mask0_1282_17530" style="mask-type:luminance" maskUnits="userSpaceOnUse" x="0" y="3" width="999" height="86">
<path d="M999 3H0V89H999V3Z" fill="white"/>
</mask>
<g mask="url(#mask0_1282_17530)">
<path d="M-674.185 0V82.52C-671.796 79.93 -668.009 76.55 -662.634 74.577C-646.767 68.727 -635.421 81.765 -614.606 86.243C-599.422 89.52 -601.862 83.361 -555.028 78.248C-528.054 75.298 -514.576 73.838 -505.789 75.795C-496.439 77.888 -484.65 82.263 -468.715 79.466C-462.248 78.334 -457.659 76.464 -455.953 75.795C-449.094 73.153 -422.922 64.626 -333.162 72.741C-294.364 76.258 -285.987 79.037 -265.07 76.412C-256.403 75.314 -247.94 73.599 -231.032 72.14C-219.618 71.163 -205.406 69.979 -189.693 70.922C-169.526 72.123 -155.297 76.309 -147.739 78.265C-86.4712 94.032 -22.6962 75.863 29.7678 77.047C34.1358 77.15 44.7989 77.527 58.9429 75.829C67.2859 74.834 67.9168 74.182 78.3928 72.775C96.9048 70.288 98.7809 71.815 108.796 69.722C118.197 67.766 117.703 66.187 136.146 59.325C153.258 52.96 161.806 49.786 168.972 49.545C181 49.135 190.111 53.2 206.661 60.543C222.186 67.44 228.209 72.913 241.312 73.376C247.267 73.582 246.857 72.484 256.514 72.158C272.927 71.591 278.318 74.628 288.129 74.611C303.347 74.577 302.904 67.234 323.992 61.778C334.28 59.119 353.696 54.092 372.617 61.778C385.6 67.045 386.743 73.582 397.543 74.01C409.009 74.474 413.513 67.337 424.893 69.739C431.871 71.214 432.587 74.388 440.692 77.682C446.646 80.101 454.051 81.542 468.655 80.135C507.163 76.378 518.935 60.148 536.747 67.903C542.599 70.459 544.715 73.685 553.16 75.846C561.81 78.076 570.631 77.51 577.473 77.064C583.342 76.687 583.905 76.241 589.023 75.846C601.58 74.851 610.794 76.498 615.161 77.064C631.25 79.14 643.108 74.319 657.712 71.557C703.147 62.997 715.414 85.728 760.456 78.9C771.222 77.27 786.048 73.599 803.007 75.229C805.976 75.52 812.391 76.275 821.246 75.846C830.476 75.383 834.349 74.011 840.099 73.393C853.151 72.02 854.481 76.893 871.713 78.9C881.933 80.084 898.38 80.341 914.265 77.064C919.281 76.034 922.335 75.04 927.026 75.846C936.41 77.459 940.215 84.201 947.091 82.571C950.042 81.868 949.803 80.513 953.779 78.9C960.501 76.19 966.916 77.75 969.578 78.282C979.183 80.238 982.459 77.716 1004.23 77.665C1028.95 77.613 1052.79 80.805 1069.88 81.937C1142.58 86.775 1201 61.589 1220.64 78.265C1222.5 79.844 1230.5 87.306 1238.87 85.557C1242.92 84.716 1268.36 81.307 1270 79.403L1275.97 74.499V0.017H-674.185V0Z" fill="#A65C39"/>
<path d="M967.206 80.702C966.779 79.107 963.623 78.609 961.627 78.747C958.778 78.935 955.331 80.651 955.4 82.401C955.468 84.185 959.153 86.021 962.275 85.403C965.022 84.854 967.65 82.366 967.206 80.702ZM928.425 80.274C927.061 78.918 924.399 77.7 922.556 78.97C921.413 79.759 920.697 81.44 921.123 82.71C922.096 85.626 928.869 86.175 930.012 84.288C930.661 83.208 929.398 81.234 928.425 80.274ZM918.479 78.764C918.718 79.433 918.018 80.342 917.336 80.788C915.749 81.783 913.173 80.857 913.036 79.93C912.934 79.21 914.247 78.335 915.322 78.06C916.5 77.751 918.189 77.923 918.479 78.764ZM854.345 78.764C855.13 81.954 844.927 89.023 841.208 86.552C839.126 85.162 838.921 80.702 840.781 78.112C844.159 73.377 853.662 76.036 854.345 78.764ZM836.908 77.254C837.813 78.506 836.669 81.2 834.963 82.452C831.466 85.008 825.614 81.457 825.699 79.638C825.818 77.374 835.168 74.852 836.908 77.254ZM711.302 80.771C711.865 78.953 705.57 73.411 698.779 74.578C695.862 75.076 692.006 76.963 692.211 78.507C692.62 81.681 710.432 83.499 711.302 80.771ZM685.557 74.286C684.823 73.806 682.622 72.519 679.705 72.811C675.166 73.274 671.873 77.271 672.402 78.197C672.812 78.935 675.934 78.352 685.557 74.286ZM669.161 73.789C668.768 72.416 662.404 71.662 660.886 74.612C660.34 75.676 660.323 77.392 661.21 78.044C663.206 79.484 669.604 75.316 669.161 73.789ZM606.87 79.347C606.887 77.666 601.973 75.178 597.452 76.585C593.562 77.803 590.678 81.697 591.463 83.121C592.862 85.661 606.852 82.161 606.87 79.347ZM536.218 73.651C536.935 71.918 531.782 66.085 525.76 66.841C522.996 67.183 519.549 68.985 519.72 70.546C520.044 73.703 535.16 76.19 536.218 73.651ZM512.947 71.73C511.36 73.137 510.37 76.002 511.769 77.649C513.186 79.313 516.461 79.073 517.963 77.203C519.652 75.093 518.645 71.473 516.632 70.683C514.926 70.014 513.083 71.61 512.947 71.73ZM421.941 73.36C418.341 71.576 412.216 71.335 409.776 75.47C407.644 79.124 409.401 84.374 412.574 86.278C417.795 89.418 426.735 83.431 426.599 78.747C426.531 75.813 422.828 73.806 421.941 73.36ZM375.671 68.298C375.193 63.718 367.567 60.664 361.749 60.578C351.631 60.441 341.394 69.225 342.555 74.251C343.749 79.467 357.603 82.418 367.191 77.786C367.771 77.494 376.182 73.342 375.671 68.298ZM336.412 66.309C334.365 64.576 330.543 66.034 328.462 67.629C324.708 70.495 323.122 76.465 324.947 78.164C327.285 80.325 336.532 76.654 337.624 71.078C337.914 69.62 337.777 67.442 336.412 66.309ZM188.098 59.944C185.88 59.446 181.051 58.382 177.639 61.162C173.084 64.868 173.169 73.669 176.837 78.146C183.355 86.124 202.037 81.492 203.777 74.904C205.159 69.757 196.611 61.831 188.098 59.944ZM163.154 76.225C164.587 74.458 167.726 70.615 166.805 66.292C165.577 60.527 157.729 56.632 152.098 57.885C142.083 60.115 137.733 78.97 142.783 83.516C146.741 87.085 157.643 83.001 163.154 76.225Z" fill="#A65C39"/>
</g>
</svg>
