<svg width="2149" height="30" viewBox="0 0 2149 30" fill="none" xmlns="http://www.w3.org/2000/svg">
<g clip-path="url(#clip0_1012_16011)">
<path d="M2149.49 3.43704C2148.82 3.30991 2146.44 1.52053 2145.21 1.43079C2141.22 1.14662 2140.53 1.47775 2137.53 1.8367C2131.06 2.60695 2130.6 0.303673 2125.8 1.56001C2122.29 2.47982 2122.06 3.84833 2119.15 4.50641C2114.73 5.50848 2112.53 2.53965 2107.35 1.43288C2103.49 0.610283 2102.65 1.6647 2095.24 2.39757C2084.29 3.47442 2082.24 1.53758 2070.56 2.5247C2065.69 2.936 2064.25 3.42208 2059.58 4.08016C2046.79 5.87492 2036.74 5.14954 2028.57 4.59616C1953.62 -0.466559 1936.03 2.39758 1931.93 3.16783C1930.26 3.48191 1926.95 4.17739 1922.23 4.46156C1908.78 5.2692 1907.72 1.25342 1898.72 2.9061C1893.1 3.93809 1888.16 6.48067 1883.86 3.68383C1883.07 3.16784 1882.57 2.65932 1882.43 2.51724C1873.79 -6.07518 1795.18 6.74241 1774.04 3.68384C1771.25 3.28002 1765.33 2.00125 1757.89 3.68384C1753.5 4.67844 1752.3 5.85999 1746.78 6.79476C1742.07 7.59492 1740.69 7.11633 1734.89 7.69962C1727.37 8.4624 1727.22 9.5243 1723.01 9.77108C1714.58 10.2721 1713.4 6.15912 1701.04 3.68385C1699.53 3.38472 1693.02 2.13587 1684.63 2.51725C1677.09 2.86125 1674.39 4.23723 1667.83 5.11218C1657.79 6.45077 1650.41 5.05984 1645.09 4.33445C1628.48 2.06857 1614.09 3.87829 1579.07 3.94559C1561.94 3.97551 1537.11 3.6016 1505.94 1.61241C1505.94 1.61241 1502.84 3.9456 1500.77 4.07273C1499.48 4.15499 1499.19 3.57169 1498.11 3.05569C1497.25 2.65187 1496.53 2.45745 1494.96 2.38266C1492.48 2.27049 1491.24 2.21066 1487.73 3.93812C1482.19 6.66017 1465.4 4.94768 1456.2 4.32699C1438.35 3.11553 1440.17 5.4188 1416.02 4.45412C1404.38 3.99048 1405.93 3.53431 1391.99 2.77154C1363.47 1.2086 1349.2 0.423395 1340.31 2.50981C1336.48 3.40719 1327.23 5.91237 1315.12 4.45413C1312.06 4.0877 1309.89 3.59414 1309.05 3.41467C1293.09 0.0420125 1266.82 5.95725 1259.44 7.43045C1224.06 14.4898 1195.82 4.56632 1164.87 4.19241C1163.35 4.17745 1158.33 4.13258 1151.43 3.80354C1145.95 3.54181 1143.5 3.29503 1140.71 3.15295C1131.86 2.71921 1127.24 3.7512 1119.78 4.31954C1107.11 5.28423 1106.14 3.39973 1085.93 3.15295C1076.68 3.04078 1070.63 3.36234 1065.52 3.54181C1013.76 5.38145 955.785 -3.22592 935.281 3.02584C932.791 3.78861 926.096 6.21154 917.708 4.97016C913.927 4.4093 912.637 3.52687 908.015 2.7641C902.095 1.79194 897.666 2.17333 892.253 2.63697C866.209 4.85051 861.161 5.18703 853.75 4.19244C848.851 3.53436 849.545 3.19036 844.706 2.50985C831.061 0.58796 819.676 2.50985 812.145 4.45417C812.145 4.45417 810.333 5.7479 809.305 5.7479C808.276 5.7479 801.55 2.63698 798.449 2.89872C795.347 3.16045 789.792 3.41471 787.339 3.41471C784.886 3.41471 779.846 3.28758 779.07 3.28758C778.295 3.28758 774.418 1.60499 770.287 1.99386C766.149 2.38272 754.399 2.50986 754.399 2.50986C744.393 3.57924 729.227 4.74583 710.729 4.32706C695.138 3.96811 684.163 2.63699 678.042 1.99387C659.729 0.0645015 634.916 0.879626 585.274 2.50987C562.063 3.27265 520.019 4.94776 503.362 2.89874C501.289 2.64448 496.652 1.97145 490.187 1.99388C479.533 2.03128 479.324 3.9083 471.585 3.16048C467.715 2.78658 462.66 1.82189 457.5 2.38276C457.016 2.4351 455.815 2.57719 454.138 2.64449C450.26 2.78658 447.405 2.36032 446.644 2.25562C441.529 1.55268 411.333 -0.974941 381.27 1.86677C374.149 2.5398 375.961 2.66693 370.161 3.16049C352.162 4.68604 345.832 2.48746 321.585 1.86677C308.76 1.53773 297.852 1.8219 296.264 1.86677C286.623 2.13599 282.545 2.55477 273.911 2.64451C264.166 2.7492 256.233 2.35286 251.043 1.99391C251.043 1.99391 250.395 3.28763 246.905 3.28763C243.416 3.28763 241.09 2.24817 239.151 2.5099C237.212 2.77164 231.531 3.0259 230.756 3.0259C230.756 3.0259 225.827 3.56432 216.418 3.80362C207.023 4.04293 206.643 2.42765 197.815 2.24817C183.41 1.94904 178.973 6.12186 164.613 3.80363C162.906 3.52694 162.526 3.39981 160.609 3.0259C133.067 -2.30603 109.26 4.81319 88.5173 2.89878C86.8472 2.74174 82.843 2.31548 77.2734 2.24818C70.0559 2.16592 66.4402 2.12105 64.0989 2.63704C61.7427 3.15304 56.9932 4.47668 53.8914 3.15304C53.5559 3.01096 53.019 2.74174 52.2139 2.63705C50.2454 2.36783 49.2837 3.37738 47.3079 3.5419C45.9285 3.65408 45.0039 3.28765 44.0793 3.02591C40.396 1.98645 36.0269 2.49496 32.709 2.63705C23.9556 3.01843 22.554 0.849769 14.1062 0.991855C10.6541 1.05168 5.62866 1.50037 -0.492675 3.41478L-0.492664 136.498L2149.49 136.498V3.43704Z" fill="#F6D9A9"/>
</g>
<defs>
<clipPath id="clip0_1012_16011">
<rect width="2149" height="30" fill="white" transform="matrix(1 0 0 -1 0 30)"/>
</clipPath>
</defs>
</svg>
