<svg width="680" height="96" viewBox="0 0 680 96" fill="none" xmlns="http://www.w3.org/2000/svg">
<mask id="mask0_1282_17523" style="mask-type:luminance" maskUnits="userSpaceOnUse" x="0" y="3" width="680" height="90">
<path d="M680 3H0V93H680V3Z" fill="white"/>
</mask>
<g mask="url(#mask0_1282_17523)">
<path d="M-3 4.88632C-2.32896 4.75919 -1.31494 4.60215 -0.0847003 4.51241C3.90426 4.22824 5.96212 4.97605 8.95944 5.335C15.4313 6.10525 15.8935 3.80198 20.6877 5.05831C24.207 5.97812 24.4307 7.34663 27.3385 8.00471C31.7674 9.00678 33.9594 6.03795 39.1414 4.93118C43.0036 4.10858 43.8461 5.163 51.2499 5.89587C62.2028 6.97272 64.2532 5.03587 75.9293 6.02299C80.7981 6.43429 82.2446 6.92037 86.912 7.57845C99.6991 9.37321 109.75 8.64783 117.922 8.09445C192.877 3.03173 210.466 5.89586 214.566 6.66612C216.229 6.9802 219.547 7.67567 224.259 7.95984C237.717 8.76748 238.776 4.75171 247.775 6.40438C253.39 7.43637 258.333 9.97895 262.635 7.18211C263.426 6.66612 263.918 6.1576 264.059 6.01552C272.701 -2.5769 351.31 10.2407 372.455 7.18211C375.243 6.77829 381.163 5.49952 388.604 7.18211C392.996 8.17671 394.197 9.35826 399.714 10.293C404.426 11.0932 405.798 10.6146 411.599 11.1979C419.122 11.9607 419.271 13.0226 423.484 13.2694C431.909 13.7704 433.095 9.65739 445.449 7.18211C446.963 6.88299 453.472 5.63413 461.86 6.01552C469.398 6.35951 472.104 7.73549 478.658 8.61044C488.701 9.94903 496.083 8.5581 501.399 7.83271C518.011 5.56683 532.401 7.37654 567.422 7.44385C584.548 7.47376 609.384 7.09985 640.551 5.11066C640.551 5.11066 643.652 7.44384 645.718 7.57097C647.015 7.65323 647.298 7.06994 648.387 6.55394C649.244 6.15012 649.96 5.95569 651.533 5.88091C654.016 5.76874 655.254 5.70891 658.766 7.43637C664.305 10.1584 680.848 3.2052 690.042 2.58451C707.891 1.37304 706.327 8.91705 730.47 7.95236C742.116 7.48872 740.565 7.03255 754.501 6.26977C783.027 4.70684 797.291 3.92163 806.178 6.00804C810.011 6.90542 819.264 9.41061 831.372 7.95236C834.429 7.58593 836.606 7.09237 837.441 6.9129C853.405 3.54025 879.672 9.45548 887.054 10.9287C922.432 17.9881 950.668 8.06454 981.626 7.69063C983.139 7.67567 988.165 7.6308 995.061 7.30176C1000.54 7.04002 1002.99 6.79325 1005.78 6.65116C1014.63 6.21743 1019.26 7.24941 1026.71 7.81775C1039.38 8.78244 1040.35 6.89794 1060.56 6.65116C1069.81 6.53899 1075.86 6.86055 1080.98 7.04002C1132.74 8.87965 1190.71 0.272284 1211.21 6.52403C1213.7 7.28681 1220.4 9.70973 1228.78 8.46836C1232.57 7.90749 1233.85 7.02507 1238.48 6.26229C1244.4 5.29013 1248.83 5.67152 1254.24 6.13517C1280.28 8.3487 1285.33 8.68522 1292.74 7.69063C1297.64 7.03255 1296.95 6.68855 1301.79 6.00804C1315.43 4.08615 1326.82 6.00804 1334.35 7.95236C1334.35 7.95236 1336.16 9.24609 1337.19 9.24609C1338.22 9.24609 1344.94 6.13517 1348.04 6.3969C1351.15 6.65864 1356.7 6.9129 1359.15 6.9129C1361.61 6.9129 1366.65 6.78577 1367.42 6.78577C1368.2 6.78577 1372.07 5.10318 1376.21 5.49204C1380.34 5.88091 1392.09 6.00804 1392.09 6.00804C1402.1 7.07742 1417.27 8.24401 1435.76 7.82523C1451.35 7.46628 1462.33 6.13517 1468.45 5.49204C1486.76 3.56268 1511.58 4.3778 1561.22 6.00804C1584.43 6.77081 1626.47 8.44592 1643.13 6.3969C1645.2 6.14264 1649.84 5.46961 1656.31 5.49204C1666.96 5.52943 1667.17 7.40646 1674.91 6.65864C1678.78 6.28473 1683.83 5.32005 1688.99 5.88091C1689.48 5.93326 1690.68 6.07534 1692.35 6.14265C1696.23 6.28473 1699.09 5.85847 1699.85 5.75378C1704.96 5.05083 1735.16 2.52322 1765.22 5.36492C1772.34 6.03795 1770.53 6.16508 1776.33 6.65864C1794.33 8.18419 1800.66 5.9856 1824.91 5.36492C1837.73 5.03588 1848.64 5.32005 1850.23 5.36492C1859.87 5.63413 1863.95 6.05291 1872.58 6.14265C1882.33 6.24734 1890.26 5.851 1895.45 5.49204C1895.45 5.49204 1896.1 6.78577 1899.59 6.78577C1903.08 6.78577 1905.4 5.7463 1907.34 6.00804C1909.28 6.26977 1914.96 6.52403 1915.74 6.52403C1915.74 6.52403 1920.67 7.06246 1930.07 7.30176C1939.47 7.54106 1939.85 5.92578 1948.68 5.7463C1963.08 5.44718 1967.52 9.61999 1981.88 7.30176C1983.59 7.02507 1983.97 6.89794 1985.88 6.52403C2013.43 1.1921 2037.23 8.31131 2057.98 6.3969C2059.65 6.23986 2063.65 5.81361 2069.22 5.7463C2076.44 5.66404 2080.05 5.61917 2082.39 6.13517C2084.75 6.65116 2089.5 7.9748 2092.6 6.65116C2092.94 6.50908 2093.47 6.23986 2094.28 6.13517C2096.25 5.86595 2097.21 6.8755 2099.18 7.04002C2100.56 7.1522 2101.49 6.78577 2102.41 6.52403C2106.1 5.48457 2110.47 5.99308 2113.78 6.13517C2122.54 6.51655 2123.94 4.34789 2132.39 4.48997C2135.84 4.5498 2140.86 4.99849 2146.99 6.9129V73.4547H-3V4.88632Z" fill="#212C26"/>
<path d="M2149.99 91.1105C2149.31 91.2377 2148.3 91.3947 2147.07 91.4844C2143.08 91.7686 2141.02 91.0208 2138.03 90.6618C2131.55 89.8916 2131.09 92.1949 2126.3 90.9385C2122.78 90.0187 2122.55 88.6502 2119.65 87.9921C2115.22 86.9901 2113.03 89.9589 2107.84 91.0657C2103.98 91.8883 2103.14 90.8338 2095.74 90.101C2084.78 89.0241 2082.73 90.961 2071.06 89.9738C2066.19 89.5625 2064.74 89.0765 2060.07 88.4184C2047.29 86.6236 2037.24 87.349 2029.06 87.9024C1954.11 92.9651 1936.52 90.101 1932.42 89.3307C1930.76 89.0166 1927.44 88.3211 1922.73 88.037C1909.27 87.2293 1908.21 91.2451 1899.21 89.5924C1893.6 88.5604 1888.65 86.0179 1884.35 88.8147C1883.56 89.3307 1883.07 89.8392 1882.93 89.9813C1874.28 98.5737 1795.68 85.7561 1774.53 88.8147C1771.74 89.2185 1765.82 90.4973 1758.38 88.8147C1753.99 87.8201 1752.79 86.6385 1747.27 85.7038C1742.56 84.9036 1741.19 85.3822 1735.39 84.7989C1727.86 84.0361 1727.71 82.9742 1723.5 82.7275C1715.08 82.2264 1713.89 86.3394 1701.54 88.8147C1700.02 89.1138 1693.51 90.3627 1685.13 89.9813C1677.59 89.6373 1674.88 88.2613 1668.33 87.3864C1658.28 86.0478 1650.9 87.4387 1645.59 88.1641C1628.97 90.43 1614.58 88.6203 1579.56 88.5529C1562.44 88.523 1537.6 88.8969 1506.43 90.8861C1506.43 90.8861 1503.33 88.5529 1501.27 88.4258C1499.97 88.3435 1499.69 88.9268 1498.6 89.4428C1497.74 89.8467 1497.03 90.0411 1495.45 90.1159C1492.97 90.228 1491.73 90.2879 1488.22 88.5604C1482.68 85.8384 1465.89 87.5509 1456.7 88.1715C1438.85 89.383 1440.66 87.0797 1416.52 88.0444C1404.87 88.5081 1406.42 88.9642 1392.48 89.727C1363.96 91.2899 1349.69 92.0751 1340.81 89.9887C1336.97 89.0913 1327.72 86.5862 1315.61 88.0444C1312.56 88.4108 1310.38 88.9044 1309.54 89.0839C1293.58 92.4565 1267.31 86.5413 1259.93 85.0681C1224.55 78.0087 1196.32 87.9322 1165.36 88.3061C1163.85 88.3211 1158.82 88.366 1151.92 88.695C1146.44 88.9567 1143.99 89.2035 1141.2 89.3456C1132.35 89.7793 1127.73 88.7473 1120.27 88.179C1107.61 87.2143 1106.64 89.0988 1086.42 89.3456C1077.18 89.4578 1071.12 89.1362 1066.01 88.9567C1014.25 87.1171 956.278 95.7245 935.774 89.4727C933.284 88.7099 926.588 86.287 918.2 87.5284C914.42 88.0892 913.13 88.9717 908.507 89.7344C902.587 90.7066 898.158 90.3252 892.745 89.8616C866.702 87.648 861.654 87.3115 854.243 88.3061C849.344 88.9642 850.037 89.3082 845.198 89.9887C831.554 91.9106 820.168 89.9887 812.638 88.0444C812.638 88.0444 810.826 86.7506 809.797 86.7506C808.768 86.7506 802.043 89.8616 798.941 89.5998C795.84 89.3381 790.285 89.0838 787.832 89.0838C785.379 89.0838 780.339 89.211 779.563 89.211C778.788 89.211 774.911 90.8935 770.78 90.5047C766.642 90.1158 754.891 89.9887 754.891 89.9887C744.885 88.9193 729.72 87.7527 711.221 88.1715C695.631 88.5304 684.656 89.8615 678.534 90.5047C660.222 92.434 635.409 91.6189 585.767 89.9887C562.556 89.2259 520.511 87.5508 503.855 89.5998C501.782 89.8541 497.144 90.5271 490.68 90.5047C480.025 90.4673 479.817 88.5902 472.077 89.3381C468.208 89.712 463.152 90.6766 457.993 90.1158C457.508 90.0634 456.308 89.9213 454.63 89.854C450.753 89.712 447.897 90.1382 447.137 90.2429C442.022 90.9459 411.825 93.4735 381.763 90.6318C374.642 89.9587 376.454 89.8316 370.653 89.338C352.654 87.8125 346.324 90.0111 322.077 90.6318C309.253 90.9608 298.345 90.6766 296.757 90.6318C287.116 90.3625 283.038 89.9438 274.404 89.854C264.659 89.7493 256.725 90.1457 251.536 90.5046C251.536 90.5046 250.887 89.2109 247.398 89.2109C243.909 89.2109 241.582 90.2504 239.644 89.9886C237.705 89.7269 232.024 89.4726 231.248 89.4726C231.248 89.4726 226.32 88.9342 216.91 88.6949C207.516 88.4556 207.135 90.0709 198.307 90.2504C183.902 90.5495 179.466 86.3767 165.106 88.6949C163.398 88.9716 163.018 89.0987 161.102 89.4726C133.56 94.8046 109.753 87.6853 89.01 89.5998C87.3398 89.7568 83.3357 90.1831 77.7661 90.2504C70.5486 90.3326 66.9329 90.3775 64.5916 89.8615C62.2354 89.3455 57.4858 88.0219 54.384 89.3455C54.0486 89.4876 53.5117 89.7568 52.7065 89.8615C50.738 90.1307 49.7764 89.1212 47.8005 88.9566C46.4211 88.8445 45.4966 89.2109 44.572 89.4726C40.8887 90.5121 36.5195 90.0036 33.2017 89.8615C24.4482 89.4801 23.0466 91.6488 14.5989 91.5067C11.1467 91.4469 6.12134 90.9982 0 89.0838L6.12691e-06 19.0001L2149.99 19.0002V91.1105Z" fill="#212C26"/>
</g>
</svg>
