<svg width="2149" height="36" viewBox="0 0 2149 36" fill="none" xmlns="http://www.w3.org/2000/svg">
<mask id="mask0_1282_17634" style="mask-type:luminance" maskUnits="userSpaceOnUse" x="0" y="3" width="2149" height="30">
<path d="M2149 33H0V3H2149V33Z" fill="white"/>
</mask>
<g mask="url(#mask0_1282_17634)">
<path d="M2149.49 6.43701C2148.82 6.30988 2146.44 4.5205 2145.21 4.43076C2141.22 4.14659 2140.53 4.47772 2137.53 4.83667C2131.06 5.60692 2130.6 3.30365 2125.8 4.55998C2122.29 5.47979 2122.06 6.8483 2119.15 7.50638C2114.73 8.50845 2112.53 5.53962 2107.35 4.43285C2103.49 3.61026 2102.65 4.66467 2095.24 5.39754C2084.29 6.47439 2082.24 4.53755 2070.56 5.52467C2065.69 5.93597 2064.25 6.42205 2059.58 7.08013C2046.79 8.87489 2036.74 8.14951 2028.57 7.59613C1953.62 2.53342 1936.03 5.39755 1931.93 6.1678C1930.26 6.48188 1926.95 7.17736 1922.23 7.46153C1908.78 8.26917 1907.72 4.25339 1898.72 5.90607C1893.1 6.93806 1888.16 9.48064 1883.86 6.6838C1883.07 6.16781 1882.57 5.65929 1882.43 5.51721C1873.79 -3.07521 1795.18 9.74238 1774.04 6.68381C1771.25 6.27999 1765.33 5.00122 1757.89 6.68381C1753.5 7.67841 1752.3 8.85996 1746.78 9.79473C1742.07 10.5949 1740.69 10.1163 1734.89 10.6996C1727.37 11.4624 1727.22 12.5243 1723.01 12.7711C1714.58 13.2721 1713.4 9.15909 1701.04 6.68382C1699.53 6.38469 1693.02 5.13584 1684.63 5.51722C1677.09 5.86122 1674.39 7.2372 1667.83 8.11215C1657.79 9.45074 1650.41 8.05981 1645.09 7.33442C1628.48 5.06854 1614.09 6.87826 1579.07 6.94556C1561.94 6.97548 1537.11 6.60157 1505.94 4.61238C1505.94 4.61238 1502.84 6.94557 1500.77 7.0727C1499.48 7.15496 1499.19 6.57166 1498.11 6.05566C1497.25 5.65184 1496.53 5.45742 1494.96 5.38263C1492.48 5.27046 1491.24 5.21063 1487.73 6.93809C1482.19 9.66014 1465.4 7.94765 1456.2 7.32696C1438.35 6.1155 1440.17 8.41877 1416.02 7.45409C1404.38 6.99045 1405.93 6.53428 1391.99 5.77151C1363.47 4.20857 1349.2 3.42337 1340.31 5.50978C1336.48 6.40716 1327.23 8.91234 1315.12 7.4541C1312.06 7.08767 1309.89 6.59411 1309.05 6.41464C1293.09 3.04199 1266.82 8.95722 1259.44 10.4304C1224.06 17.4898 1195.82 7.56629 1164.87 7.19238C1163.35 7.17742 1158.33 7.13255 1151.43 6.80351C1145.95 6.54178 1143.5 6.295 1140.71 6.15292C1131.86 5.71918 1127.24 6.75117 1119.78 7.31951C1107.11 8.2842 1106.14 6.3997 1085.93 6.15292C1076.68 6.04075 1070.63 6.36231 1065.52 6.54178C1013.76 8.38142 955.785 -0.225946 935.281 6.02581C932.791 6.78858 926.096 9.21151 917.708 7.97013C913.927 7.40927 912.637 6.52684 908.015 5.76407C902.095 4.79191 897.666 5.1733 892.253 5.63694C866.209 7.85048 861.161 8.187 853.75 7.19241C848.851 6.53433 849.545 6.19033 844.706 5.50982C831.061 3.58793 819.676 5.50982 812.145 7.45414C812.145 7.45414 810.333 8.74787 809.305 8.74787C808.276 8.74787 801.55 5.63695 798.449 5.89869C795.347 6.16042 789.792 6.41468 787.339 6.41468C784.886 6.41468 779.846 6.28755 779.07 6.28755C778.295 6.28755 774.418 4.60496 770.287 4.99383C766.149 5.38269 754.399 5.50983 754.399 5.50983C744.393 6.57921 729.227 7.7458 710.729 7.32703C695.138 6.96808 684.163 5.63696 678.042 4.99384C659.729 3.06448 634.916 3.8796 585.274 5.50984C562.063 6.27262 520.019 7.94773 503.362 5.89871C501.289 5.64445 496.652 4.97142 490.187 4.99385C479.533 5.03125 479.324 6.90827 471.585 6.16045C467.715 5.78655 462.66 4.82186 457.5 5.38273C457.016 5.43507 455.815 5.57716 454.138 5.64446C450.26 5.78655 447.405 5.36029 446.644 5.25559C441.529 4.55265 411.333 2.02503 381.27 4.86674C374.149 5.53977 375.961 5.6669 370.161 6.16046C352.162 7.68601 345.832 5.48743 321.585 4.86674C308.76 4.5377 297.852 4.82187 296.264 4.86674C286.623 5.13596 282.545 5.55474 273.911 5.64448C264.166 5.74917 256.233 5.35283 251.043 4.99388C251.043 4.99388 250.395 6.2876 246.905 6.2876C243.416 6.2876 241.09 5.24814 239.151 5.50987C237.212 5.77161 231.531 6.02587 230.756 6.02587C230.756 6.02587 225.827 6.56429 216.418 6.80359C207.023 7.0429 206.643 5.42762 197.815 5.24814C183.41 4.94901 178.973 9.12183 164.613 6.8036C162.906 6.52691 162.526 6.39978 160.609 6.02587C133.067 0.693944 109.26 7.81316 88.5173 5.89875C86.8472 5.74171 82.843 5.31545 77.2734 5.24815C70.0559 5.16589 66.4402 5.12102 64.0989 5.63701C61.7427 6.15301 56.9932 7.47665 53.8914 6.15301C53.5559 6.01093 53.019 5.74171 52.2139 5.63702C50.2454 5.3678 49.2837 6.37735 47.3079 6.54187C45.9285 6.65405 45.0039 6.28762 44.0793 6.02588C40.396 4.98642 36.0269 5.49493 32.709 5.63702C23.9556 6.0184 22.554 3.84974 14.1062 3.99183C10.6541 4.05165 5.62866 4.50034 -0.492676 6.41475L-0.492665 139.498H2149.49V6.43701Z" fill="#F6D9A9"/>
</g>
</svg>
