<svg width="1000" height="96" viewBox="0 0 1000 96" fill="none" xmlns="http://www.w3.org/2000/svg">
<mask id="mask0_1282_17640" style="mask-type:luminance" maskUnits="userSpaceOnUse" x="0" y="3" width="1000" height="90">
<path d="M1000 93V3L0 3V93L1000 93Z" fill="white"/>
</mask>
<g mask="url(#mask0_1282_17640)">
<path d="M1679.65 113.962L1673.68 6.97563C1671.3 9.56621 1667.51 12.946 1662.13 14.9189C1646.27 20.7692 1634.92 7.7305 1614.11 3.25274C1598.92 -0.0240779 1601.36 6.13497 1554.53 11.2475C1527.55 14.1984 1514.08 15.6566 1505.29 13.7008C1495.94 11.6078 1484.15 7.23296 1468.21 10.0294C1461.75 11.1617 1457.16 13.0317 1455.45 13.7008C1448.59 16.3429 1422.42 24.8695 1332.66 16.7546C1293.86 13.2376 1285.49 10.4583 1264.57 13.0832C1255.9 14.1812 1247.44 15.8968 1230.53 17.3551C1219.12 18.333 1204.91 19.5168 1189.19 18.5732C1169.03 17.3722 1154.8 13.1861 1147.24 11.2303C1085.97 -4.53617 1022.2 13.6322 969.732 12.4484C965.364 12.3455 954.701 11.968 940.557 13.6665C932.214 14.6616 931.583 15.3135 921.107 16.7203C902.595 19.2079 900.719 17.681 890.704 19.7741C881.303 21.7299 881.797 23.3083 863.354 30.1707C846.242 36.5356 837.694 39.7095 830.528 39.9497C818.5 40.3615 809.389 36.2955 792.839 28.9526C777.314 22.0559 771.291 16.583 758.188 16.1198C752.233 15.9139 752.643 17.0119 742.986 17.3379C726.573 17.9041 721.182 14.8674 711.371 14.8846C696.153 14.9189 696.596 22.2617 675.508 27.7174C665.22 30.3766 645.804 35.4033 626.883 27.7174C613.9 22.4504 612.756 15.9139 601.957 15.485C590.491 15.0218 585.987 22.1588 574.607 19.7569C567.629 18.2815 566.913 15.1076 558.808 11.8136C552.854 9.3946 545.449 7.95348 530.845 9.36028C492.337 13.1175 480.565 29.3472 462.753 21.5926C456.901 19.0364 454.785 15.811 446.34 13.6493C437.69 11.419 428.869 11.9852 422.027 12.4312C416.158 12.8087 415.595 13.2547 410.477 13.6493C397.92 14.6444 388.706 12.9974 384.339 12.4312C368.25 10.3553 356.392 15.1762 341.788 17.9384C296.353 26.4993 284.086 3.76737 239.044 10.5955C228.278 12.2254 213.452 15.8968 196.493 14.2669C193.524 13.9753 187.109 13.2204 178.254 13.6493C169.024 14.1125 165.151 15.485 159.401 16.1026C146.349 17.4751 145.019 12.6028 127.787 10.5955C117.567 9.41174 101.12 9.15439 85.2354 12.4312C80.2195 13.4606 77.1653 14.4556 72.4734 13.6493C63.0897 12.0366 59.2851 5.29426 52.4093 6.92409C49.4577 7.62749 49.6967 8.98283 45.7213 10.5955C38.9991 13.3062 32.5839 11.745 29.9223 11.2131C20.3167 9.25732 17.041 11.7793 -4.72931 11.8308C-29.4513 11.8822 -53.2861 8.69117 -70.3816 7.55886C-143.08 2.72083 -201.498 27.9061 -221.136 11.2303C-222.996 9.65191 -230.997 2.18898 -239.375 3.93891C-243.418 4.77956 -268.862 8.18782 -270.5 10.0922L-276.466 14.9965L-270.5 113.945H1679.65V113.962Z" fill="#212C26"/>
<path d="M32.2939 8.79414C32.7204 10.3897 35.8768 10.8872 37.873 10.7499C40.7222 10.5612 44.1686 8.84561 44.1003 7.09568C44.0321 5.31144 40.3469 3.47573 37.2246 4.09336C34.4778 4.64235 31.8503 7.12999 32.2939 8.79414Z" fill="#212C26"/>
<path d="M71.0745 9.22289C72.4394 10.5782 75.1009 11.7963 76.9435 10.5268C78.0867 9.73758 78.8033 8.05628 78.3767 6.78672C77.4042 3.87017 70.6308 3.32118 69.4877 5.20835C68.8394 6.28919 70.102 8.26215 71.0745 9.22289Z" fill="#212C26"/>
<path d="M81.0212 10.733C80.7823 10.0639 81.4819 9.1546 82.1644 8.70854C83.7511 7.71348 86.3273 8.63992 86.4638 9.56635C86.5661 10.2869 85.2525 11.1619 84.1776 11.4364C83.0003 11.7452 81.3112 11.5736 81.0212 10.733Z" fill="#212C26"/>
<path d="M145.155 10.733C144.37 7.54195 154.573 0.473609 158.292 2.94409C160.374 4.33374 160.579 8.79434 158.719 11.3849C155.341 16.12 145.838 13.4608 145.155 10.733Z" fill="#212C26"/>
<path d="M162.592 12.2428C161.687 10.9904 162.831 8.29684 164.537 7.04444C168.034 4.48818 173.886 8.0395 173.801 9.85806C173.682 12.1227 164.332 14.6446 162.592 12.2428Z" fill="#212C26"/>
<path d="M288.198 8.72517C287.635 10.5437 293.93 16.0852 300.721 14.9185C303.638 14.421 307.494 12.5338 307.289 10.9898C306.88 7.81589 289.068 5.99734 288.198 8.72517Z" fill="#212C26"/>
<path d="M313.943 15.2107C314.677 15.691 316.878 16.9777 319.795 16.6861C324.334 16.2229 327.627 12.2255 327.098 11.2991C326.688 10.5613 323.566 11.1446 313.943 15.2107Z" fill="#212C26"/>
<path d="M330.339 15.7077C330.732 17.0802 337.096 17.8351 338.614 14.8842C339.16 13.8205 339.177 12.1049 338.29 11.453C336.294 10.0119 329.896 14.1808 330.339 15.7077Z" fill="#212C26"/>
<path d="M392.63 10.1496C392.613 11.8309 397.527 14.3186 402.048 12.9118C405.938 11.6937 408.822 7.79925 408.037 6.37529C406.638 3.83617 392.648 7.33603 392.63 10.1496Z" fill="#212C26"/>
<path d="M463.282 15.8454C462.565 17.5782 467.718 23.4113 473.74 22.6564C476.504 22.3133 479.951 20.5119 479.78 18.9507C479.456 15.7939 464.34 13.3063 463.282 15.8454Z" fill="#212C26"/>
<path d="M486.553 17.7665C488.14 16.3597 489.13 13.4946 487.731 11.8477C486.314 10.1835 483.039 10.4237 481.537 12.2937C479.848 14.4039 480.855 18.0239 482.868 18.8131C484.574 19.4821 486.417 17.8866 486.553 17.7665Z" fill="#212C26"/>
<path d="M574.761 18.247C578.361 20.0313 584.486 20.2715 586.926 16.1368C589.058 12.4826 587.301 7.23278 584.127 5.32845C578.907 2.18887 569.966 8.17637 570.103 12.86C570.171 15.7937 573.874 17.801 574.761 18.247Z" fill="#212C26"/>
<path d="M623.829 21.1982C624.307 25.7789 631.933 28.8327 637.751 28.9185C647.869 29.0557 658.106 20.2718 656.945 15.245C655.751 10.0296 641.897 7.07871 632.309 11.7109C631.729 12.0025 623.318 16.1543 623.829 21.1982Z" fill="#212C26"/>
<path d="M663.088 23.188C665.135 24.9208 668.957 23.4625 671.038 21.867C674.792 19.0019 676.378 13.0315 674.553 11.3331C672.215 9.17141 662.968 12.8428 661.876 18.4186C661.586 19.8769 661.723 22.0557 663.088 23.188Z" fill="#212C26"/>
<path d="M811.402 29.5529C813.62 30.0504 818.449 31.1141 821.861 28.3348C826.416 24.6291 826.331 15.828 822.663 11.3502C816.145 3.37261 797.463 8.00478 795.723 14.5927C794.341 19.7396 802.889 27.6657 811.402 29.5529Z" fill="#212C26"/>
<path d="M836.346 13.2715C834.913 15.0386 831.774 18.8815 832.695 23.2049C833.923 28.9694 841.771 32.8638 847.402 31.6114C857.417 29.3811 861.767 10.5265 856.717 5.98012C852.759 2.41163 841.857 6.4948 836.346 13.2715Z" fill="#212C26"/>
</g>
</svg>
