<svg width="1231" height="40" viewBox="0 0 1231 40" fill="none" xmlns="http://www.w3.org/2000/svg">
<mask id="mask0_1282_17537" style="mask-type:luminance" maskUnits="userSpaceOnUse" x="0" y="3" width="1231" height="34">
<path d="M1231 3H0V37H1231V3Z" fill="white"/>
</mask>
<g mask="url(#mask0_1282_17537)">
<mask id="mask1_1282_17537" style="mask-type:luminance" maskUnits="userSpaceOnUse" x="0" y="3" width="1231" height="42">
<path d="M0 3H1231V45H0V3Z" fill="white"/>
</mask>
<g mask="url(#mask1_1282_17537)">
<path d="M-810.194 9.39003C-809.23 9.21039 -808.257 9.08519 -807.279 9.01503C-803.29 8.73103 -801.232 9.47903 -798.235 9.83803C-791.763 10.608 -791.301 8.30503 -786.507 9.56103C-782.987 10.481 -782.764 11.85 -779.856 12.508C-775.427 13.51 -773.235 10.541 -768.053 9.43403C-764.191 8.61103 -763.348 9.66603 -755.944 10.399C-744.992 11.476 -742.941 9.53903 -731.265 10.526C-726.396 10.937 -724.95 11.423 -720.282 12.081C-707.495 13.876 -697.445 13.151 -689.273 12.597C-614.318 7.53503 -596.729 10.399 -592.628 11.169C-590.965 11.483 -587.647 12.179 -582.935 12.463C-569.477 13.27 -568.418 9.25503 -559.419 10.907C-553.805 11.939 -548.861 14.482 -544.559 11.685C-543.769 11.169 -543.277 10.66 -543.135 10.518C-534.493 1.92603 -455.885 14.743 -434.74 11.685C-431.951 11.281 -426.031 10.002 -418.59 11.685C-414.198 12.68 -412.998 13.861 -407.48 14.795C-402.768 15.596 -401.396 15.117 -395.595 15.701C-388.072 16.463 -387.923 17.525 -383.711 17.772C-375.285 18.273 -374.1 14.16 -361.745 11.685C-360.232 11.385 -353.723 10.137 -345.335 10.518C-337.797 10.862 -335.09 12.238 -328.536 13.113C-318.493 14.452 -311.111 13.061 -305.795 12.336C-289.183 10.07 -274.793 11.879 -239.772 11.946C-222.646 11.976 -197.81 11.603 -166.644 9.61303C-166.644 9.61303 -163.542 11.947 -161.477 12.073C-160.179 12.156 -159.896 11.573 -158.807 11.057C-157.95 10.653 -157.234 10.458 -155.661 10.384C-153.178 10.272 -151.941 10.212 -148.429 11.939C-142.889 14.661 -126.098 12.949 -116.905 12.328C-99.0549 11.117 -100.867 13.42 -76.7249 12.455C-65.0779 11.992 -66.6288 11.535 -52.6938 10.773C-24.1669 9.21003 -9.90387 8.42403 -1.01587 10.51C2.8161 11.407 12.0691 13.912 24.1781 12.454C27.2351 12.088 29.4121 11.594 30.2471 11.414C46.2101 8.04203 72.4771 13.957 79.8591 15.43C115.238 22.49 143.474 12.566 174.431 12.192C175.945 12.177 180.97 12.132 187.867 11.804C193.347 11.542 195.8 11.295 198.589 11.153C207.439 10.719 212.062 11.751 219.518 12.319C232.186 13.284 233.155 11.399 253.368 11.153C262.613 11.041 268.668 11.363 273.783 11.542C325.542 13.382 383.513 4.77403 404.017 11.026C406.507 11.789 413.203 14.211 421.591 12.97C425.371 12.41 426.661 11.527 431.283 10.764C437.203 9.79203 441.632 10.174 447.045 10.637C473.089 12.85 478.137 13.187 485.548 12.192C490.447 11.534 489.753 11.19 494.592 10.51C508.237 8.58803 519.622 10.51 527.153 12.454C527.153 12.454 528.965 13.748 529.994 13.748C531.022 13.748 537.748 10.637 540.849 10.898C543.951 11.16 549.506 11.415 551.959 11.415C554.412 11.415 559.452 11.287 560.228 11.287C561.003 11.287 564.88 9.60503 569.011 9.99403C573.149 10.383 584.9 10.51 584.9 10.51C599.402 12.0538 613.989 12.6608 628.569 12.327C644.16 11.967 655.135 10.637 661.257 9.99403C679.569 8.06403 704.382 8.87903 754.024 10.51C777.235 11.272 819.279 12.948 835.936 10.899C838.009 10.644 842.646 9.97103 849.111 9.99403C859.765 10.031 859.974 11.908 867.713 11.16C871.583 10.786 876.638 9.82203 881.798 10.383C882.282 10.435 883.483 10.577 885.161 10.644C889.038 10.786 891.893 10.36 892.654 10.255C897.769 9.55203 927.966 7.02503 958.028 9.86703C965.149 10.54 963.337 10.667 969.138 11.16C987.136 12.686 993.467 10.487 1017.71 9.86703C1030.54 9.53703 1041.45 9.82203 1043.03 9.86703C1052.67 10.136 1056.75 10.555 1065.39 10.644C1075.13 10.749 1083.07 10.353 1088.25 9.99403C1088.25 9.99403 1088.9 11.287 1092.39 11.287C1095.88 11.287 1098.21 10.247 1100.15 10.51C1102.09 10.771 1107.77 11.026 1108.54 11.026C1108.54 11.026 1113.47 11.564 1122.88 11.803C1132.27 12.043 1132.66 10.427 1141.48 10.248C1155.89 9.94803 1160.32 14.122 1174.68 11.803C1176.39 11.527 1176.77 11.4 1178.69 11.026C1206.23 5.69403 1230.04 12.813 1250.78 10.898C1252.45 10.741 1256.46 10.315 1262.02 10.248C1269.24 10.166 1272.86 10.121 1275.2 10.637C1277.56 11.153 1282.31 12.477 1285.41 11.153C1285.74 11.011 1286.28 10.741 1287.08 10.637C1289.05 10.367 1290.01 11.377 1291.99 11.542C1293.37 11.654 1294.29 11.287 1295.22 11.026C1298.9 9.98603 1303.27 10.495 1306.59 10.636C1315.34 11.018 1316.74 8.84903 1325.19 8.99203C1328.64 9.05203 1333.67 9.50003 1339.79 11.414V144.5H-810.194V9.39003Z" fill="#30453A"/>
<path d="M87.1001 10.22C88.8901 8.19998 92.9081 7.96898 94.4001 10.22C95.5321 11.932 94.9281 14.677 93.1991 15.955C90.8501 17.69 87.0031 16.299 86.2051 13.921C85.7501 12.591 86.3091 11.117 87.1001 10.22ZM98.0081 12.105C98.9551 10.834 104.815 12.681 104.927 14.52C104.994 15.597 103.108 16.936 101.318 16.786C98.6341 16.554 97.3141 13.047 98.0081 12.105ZM470.831 9.84598C471.092 8.77698 479.047 9.26298 479.181 10.377C479.256 10.961 477.168 11.888 475.267 11.888C472.911 11.88 470.681 10.445 470.831 9.84598ZM973.82 9.68998C973.724 10.25 976.825 11.858 979.838 11.05C980.419 10.893 981.925 10.4 981.866 9.99598C981.754 9.09098 973.97 8.83698 973.82 9.68998ZM1161.93 10.751C1161.83 11.626 1168.31 14.221 1171.41 11.805C1171.56 11.693 1172.48 10.975 1172.31 10.445C1172.03 9.53998 1168.74 9.80898 1166.45 9.98798C1163.46 10.235 1161.97 10.355 1161.93 10.751Z" fill="#30453A"/>
</g>
</g>
</svg>
