<svg width="999" height="88" viewBox="0 0 999 88" fill="none" xmlns="http://www.w3.org/2000/svg">
<mask id="mask0_1282_17548" style="mask-type:luminance" maskUnits="userSpaceOnUse" x="0" y="3" width="999" height="82">
<path d="M999 85V3L0 3V85L999 85Z" fill="white"/>
</mask>
<g mask="url(#mask0_1282_17548)">
<path d="M1679.15 113.465L1673.18 6.47905C1670.8 9.06963 1667.01 12.4494 1661.63 14.4223C1645.77 20.2726 1634.42 7.23392 1613.61 2.75617C1598.42 -0.520665 1600.86 5.63839 1554.03 10.7509C1527.05 13.7018 1513.58 15.1601 1504.79 13.2043C1495.44 11.1112 1483.65 6.73639 1467.71 9.53284C1461.25 10.6651 1456.66 12.5352 1454.95 13.2043C1448.09 15.8463 1421.92 24.3729 1332.16 16.258C1293.36 12.741 1284.99 9.96173 1264.07 12.5866C1255.4 13.6846 1246.94 15.4002 1230.03 16.8585C1218.62 17.8364 1204.41 19.0202 1188.69 18.0766C1168.53 16.8757 1154.3 12.6896 1146.74 10.7338C1085.47 -5.03275 1021.7 13.1356 969.232 11.9518C964.864 11.8489 954.201 11.4715 940.057 13.1699C931.714 14.165 931.083 14.8169 920.607 16.2237C902.095 18.7114 900.219 17.1845 890.204 19.2775C880.803 21.2333 881.297 22.8117 862.854 29.6741C845.742 36.0391 837.194 39.213 830.028 39.4531C818 39.8649 808.889 35.7989 792.339 28.456C776.814 21.5593 770.791 16.0865 757.688 15.6232C751.733 15.4174 752.143 16.5154 742.486 16.8413C726.073 17.4075 720.682 14.3708 710.871 14.388C695.653 14.4223 696.096 21.7651 675.008 27.2208C664.72 29.88 645.304 34.9068 626.383 27.2208C613.4 21.9539 612.256 15.4174 601.457 14.9885C589.991 14.5252 585.487 21.6622 574.107 19.2603C567.129 17.7849 566.413 14.611 558.308 11.317C552.354 8.89802 544.949 7.4569 530.345 8.8637C491.837 12.6209 480.065 28.8506 462.253 21.096C456.401 18.5398 454.285 15.3144 445.84 13.1527C437.19 10.9224 428.369 11.4886 421.527 11.9347C415.658 12.3121 415.095 12.7581 409.977 13.1527C397.42 14.1478 388.206 12.5008 383.839 11.9347C367.75 9.85876 355.892 14.6796 341.288 17.4418C295.853 26.0027 283.586 3.27079 238.544 10.0989C227.778 11.7288 212.952 15.4002 195.993 13.7703C193.024 13.4787 186.609 12.7238 177.754 13.1527C168.524 13.6159 164.651 14.9884 158.901 15.6061C145.849 16.9785 144.519 12.1062 127.287 10.0989C117.067 8.91516 100.62 8.65781 84.7354 11.9346C79.7195 12.964 76.6653 13.9591 71.9734 13.1527C62.5897 11.54 58.7851 4.79768 51.9093 6.42752C48.9577 7.13092 49.1967 8.48626 45.2213 10.0989C38.4991 12.8096 32.0839 11.2484 29.4223 10.7165C19.8167 8.76075 16.541 11.2827 -5.22931 11.3342C-29.9513 11.3856 -53.7861 8.19459 -70.8816 7.06228C-143.58 2.22425 -201.998 27.4095 -221.636 10.7337C-223.496 9.15532 -231.497 1.69241 -239.875 3.44233C-243.918 4.28298 -269.362 7.69125 -271 9.59557L-276.966 14.4999L-271 113.448H1679.15V113.465Z" fill="#EDCC94"/>
<path d="M31.7939 8.29756C32.2204 9.89308 35.3768 10.3906 37.373 10.2534C40.2222 10.0646 43.6686 8.34903 43.6003 6.5991C43.5321 4.81486 39.8469 2.97915 36.7247 3.59677C33.9778 4.14577 31.3503 6.63341 31.7939 8.29756Z" fill="#EDCC94"/>
<path d="M70.5745 8.72631C71.9394 10.0816 74.6009 11.2997 76.4435 10.0302C77.5867 9.241 78.3033 7.55969 77.8767 6.29014C76.9042 3.37359 70.1308 2.8246 68.9877 4.71177C68.3394 5.79261 69.602 7.76557 70.5745 8.72631Z" fill="#EDCC94"/>
<path d="M80.5212 10.2364C80.2823 9.5673 80.9819 8.65802 81.6644 8.21196C83.2511 7.2169 85.8273 8.14334 85.9638 9.06977C86.0661 9.79033 84.7525 10.6653 83.6776 10.9398C82.5003 11.2486 80.8112 11.077 80.5212 10.2364Z" fill="#EDCC94"/>
<path d="M144.655 10.2364C143.87 7.04536 154.073 -0.0229707 157.792 2.44751C159.874 3.83716 160.079 8.29776 158.219 10.8883C154.841 15.6234 145.338 12.9642 144.655 10.2364Z" fill="#EDCC94"/>
<path d="M162.092 11.7462C161.187 10.4938 162.331 7.80026 164.037 6.54786C167.534 3.9916 173.386 7.54292 173.301 9.36147C173.182 11.6261 163.832 14.148 162.092 11.7462Z" fill="#EDCC94"/>
<path d="M287.698 8.22859C287.135 10.0471 293.43 15.5886 300.221 14.422C303.138 13.9244 306.994 12.0372 306.789 10.4932C306.38 7.31931 288.568 5.50076 287.698 8.22859Z" fill="#EDCC94"/>
<path d="M313.443 14.7141C314.177 15.1944 316.378 16.4812 319.295 16.1895C323.834 15.7263 327.127 11.7289 326.598 10.8025C326.188 10.0648 323.066 10.6481 313.443 14.7141Z" fill="#EDCC94"/>
<path d="M329.839 15.2111C330.232 16.5836 336.596 17.3385 338.114 14.3876C338.66 13.324 338.677 11.6084 337.79 10.9564C335.794 9.5153 329.396 13.6842 329.839 15.2111Z" fill="#EDCC94"/>
<path d="M392.13 9.65306C392.113 11.3344 397.027 13.822 401.548 12.4152C405.438 11.1971 408.322 7.30266 407.537 5.8787C406.138 3.33959 392.148 6.83945 392.13 9.65306Z" fill="#EDCC94"/>
<path d="M462.782 15.3488C462.065 17.0816 467.218 22.9147 473.24 22.1598C476.004 21.8167 479.451 20.0153 479.28 18.4541C478.956 15.2974 463.84 12.8097 462.782 15.3488Z" fill="#EDCC94"/>
<path d="M486.053 17.2699C487.64 15.8631 488.63 12.9981 487.231 11.3511C485.814 9.68692 482.539 9.92711 481.037 11.7971C479.348 13.9073 480.355 17.5273 482.368 18.3165C484.074 18.9856 485.917 17.39 486.053 17.2699Z" fill="#EDCC94"/>
<path d="M574.261 17.7505C577.861 19.5347 583.986 19.7749 586.426 15.6402C588.558 11.986 586.801 6.7362 583.627 4.83187C578.407 1.69229 569.466 7.67979 569.603 12.3634C569.671 15.2971 573.374 17.3044 574.261 17.7505Z" fill="#EDCC94"/>
<path d="M623.329 20.7016C623.807 25.2823 631.433 28.3361 637.251 28.4219C647.369 28.5592 657.606 19.7752 656.445 14.7485C655.251 9.53299 641.397 6.58213 631.809 11.2143C631.229 11.506 622.818 15.6577 623.329 20.7016Z" fill="#EDCC94"/>
<path d="M662.588 22.6914C664.635 24.4242 668.457 22.9659 670.538 21.3704C674.292 18.5053 675.878 12.535 674.053 10.8365C671.715 8.67483 662.468 12.3463 661.376 17.922C661.086 19.3803 661.223 21.5591 662.588 22.6914Z" fill="#EDCC94"/>
<path d="M810.902 29.0563C813.12 29.5539 817.949 30.6175 821.361 27.8382C825.916 24.1325 825.831 15.3314 822.163 10.8536C815.645 2.87603 796.963 7.50819 795.223 14.0962C793.841 19.243 802.389 27.1691 810.902 29.0563Z" fill="#EDCC94"/>
<path d="M835.846 12.7749C834.413 14.542 831.274 18.385 832.195 22.7083C833.423 28.4728 841.271 32.3672 846.902 31.1148C856.917 28.8845 861.267 10.0299 856.217 5.48353C852.259 1.91505 841.357 5.99822 835.846 12.7749Z" fill="#EDCC94"/>
</g>
</svg>
