<svg width="221" height="274" viewBox="0 0 221 274" fill="none" xmlns="http://www.w3.org/2000/svg">
<path d="M0.374313 311C4.06242 297.775 7.67345 284.549 11.2294 271.324L16.5469 251.469L19.1561 241.531C20.0589 238.233 20.8846 234.902 21.7323 231.582L24.1653 221.588L26.6865 211.628C28.3709 204.988 30.0002 198.315 31.9379 191.741C33.8535 185.155 35.7911 178.581 37.8829 172.051C39.9967 165.532 42.2866 159.067 44.4774 152.581C53.7252 126.768 62.8849 100.966 73.0575 75.5485C83.1199 50.0982 93.7219 24.8897 105.711 0.197886L105.359 0C103.608 2.9573 101.913 5.93658 100.206 8.91587C98.4999 11.8952 96.7825 14.8744 95.1201 17.8867C94.2944 19.3928 93.4026 20.877 92.643 22.4051L90.331 27.0114L85.7402 36.2461C84.2319 39.3354 82.6906 42.4136 81.2154 45.5138L77.0649 54.9464L72.9584 64.4009L70.9217 69.1392C70.2501 70.7223 69.6446 72.3274 69.0061 73.9214C66.529 80.3308 64.0189 86.7291 61.6189 93.1604C59.2519 99.6137 57.083 106.133 54.8041 112.608C53.6922 115.862 52.5142 119.083 51.4573 122.349L48.3527 132.166C47.3068 135.431 46.2829 138.718 45.2921 141.994C44.2793 145.27 43.2774 148.557 42.3526 151.867C40.415 158.452 38.5765 165.059 36.5618 171.622C34.6352 178.207 32.7085 184.793 30.6718 191.334L24.5066 210.969L21.413 220.786L18.4515 230.647C16.5249 237.232 14.6864 243.851 13.046 250.513L10.5249 260.495L8.16887 270.521C5.05325 283.89 2.2569 297.335 0 310.879L0.374313 311Z" fill="#30453A"/>
<path d="M32.9177 185.98C59.1087 162.256 87.92 140.411 123.612 128.461C140.886 122.7 159.216 120.59 178.383 120.612C187.73 120.743 197.341 121.062 205.741 123.866C214.78 126.251 220.989 133.452 218.886 141.741C224.512 133.683 218.05 122.799 208.582 118.875C194.633 112.278 178.956 111.311 163.741 111.069C107.263 110.135 57.8867 145.029 32.9177 185.98Z" fill="#30453A"/>
<path d="M60.8482 101.285C61.839 99.097 63.028 97.0301 64.2611 95.0073C65.5051 92.9845 66.8262 91.0166 68.2464 89.1257C71.0318 85.3109 74.1254 81.7379 77.4172 78.3959C84.0227 71.7117 91.498 65.951 99.5788 61.1578C107.616 56.2986 116.247 52.4288 125.142 49.2297C134.049 46.0415 143.253 43.5679 152.61 41.4242C143.021 41.8859 133.454 43.502 124.162 46.1844L120.673 47.2068L117.238 48.4051C114.937 49.1637 112.713 50.1421 110.445 51.0216C106.008 53.0005 101.627 55.1223 97.454 57.6398C93.3035 60.1904 89.2851 62.9498 85.509 66.039C81.7878 69.1832 78.2318 72.5253 75.0612 76.2301C73.4648 78.0661 71.9455 79.968 70.5143 81.9248C69.1272 83.9147 67.762 85.9265 66.551 88.0263C65.34 90.1261 64.206 92.2589 63.2372 94.4796C62.2794 96.6893 61.4317 98.954 60.8482 101.285Z" fill="#30453A"/>
<path d="M44.2683 143.599C43.7839 138.883 43.7288 134.178 43.971 129.516C44.1692 124.844 44.7637 120.216 45.6004 115.653C47.3398 106.54 50.2683 97.6898 54.639 89.5764C55.6629 87.5096 56.8849 85.5527 58.0629 83.5739C59.351 81.661 60.595 79.7151 62.0152 77.8902C63.3363 75.9883 64.8556 74.2513 66.3198 72.4483C67.0685 71.5688 67.8831 70.7443 68.6648 69.8868C69.4354 69.0183 70.2061 68.1498 71.0538 67.3582C77.6043 60.762 85.0246 54.9794 92.9182 49.7024C84.2099 53.4732 76.041 58.6622 68.852 65.0386C67.9272 65.8081 67.0574 66.6436 66.1987 67.4902C65.351 68.3367 64.4703 69.1722 63.6556 70.0517C62.0592 71.8546 60.3968 73.6136 58.9326 75.5375C57.3803 77.3955 56.0702 79.4293 54.694 81.4191C53.428 83.4859 52.1179 85.5198 51.028 87.6745C48.8151 91.9731 46.8885 96.4365 45.4683 101.054C44.0811 105.682 43.0132 110.398 42.4627 115.181C41.8682 119.952 41.7141 124.767 41.9783 129.538C42.2866 134.277 42.9031 139.048 44.2683 143.599Z" fill="#30453A"/>
</svg>
