<svg width="151" height="50" viewBox="0 0 151 50" fill="none" xmlns="http://www.w3.org/2000/svg">
<path d="M42.4706 33C37.1059 21.5227 11.9216 11.296 0 7.6174C14.3059 4.0858 34.2745 16.4462 42.4706 23.0678C42.4706 21.5963 47.4821 12.7151 53.6471 5.41018C59.2353 -1.21132 67.8039 -0.475597 76 0.995858C60.8 1.87873 47.3137 22.6998 42.4706 33Z" fill="#EDCC94"/>
<path d="M132.471 50C129.506 43.3918 115.588 37.5038 109 35.3858C116.906 33.3524 127.941 40.469 132.471 44.2815C132.471 43.4342 135.24 38.3208 138.647 34.115C141.735 30.3026 146.471 30.7262 151 31.5734C142.6 32.0817 135.147 44.0696 132.471 50Z" fill="#EDCC94"/>
<path d="M120.294 14C118.741 10.8698 111.451 8.08074 108 7.07747C112.141 6.11431 117.922 9.48532 120.294 11.2912C120.294 10.8899 121.745 8.46774 123.529 6.4755C125.147 4.66964 127.627 4.87029 130 5.2716C125.6 5.51238 121.696 11.1909 120.294 14Z" fill="#EDCC94"/>
</svg>
