<svg width="153" height="127" viewBox="0 0 153 127" fill="none" xmlns="http://www.w3.org/2000/svg">
<path d="M74.0425 60.98C74.1325 60.51 77.3125 0.1 77.3125 0.1L81.1226 63.12L117.913 32.93L84.1525 68.69L151.863 62.34L90.5425 72.97L125.113 88.19L87.3925 76.89L117.453 117.18L80.6025 77.88L80.7925 126.76L75.1825 79.06L32.9325 120.4L68.8026 77.09L19.0525 86.72L66.7825 70.96L0.272548 59.49L69.4525 64.81L33.4725 28.71L74.0425 60.98Z" fill="#EDCC94"/>
<path d="M74.0325 60.95L77.2125 0.1C77.2125 0.04 77.2626 0 77.3225 0C77.3726 0 77.4225 0.05 77.4225 0.1L81.3125 63.11L81.0126 62.98L117.773 32.74C117.873 32.66 118.023 32.67 118.113 32.77C118.193 32.86 118.183 33 118.103 33.09L84.3726 68.89L84.1325 68.4L151.853 62.1C151.983 62.09 152.093 62.18 152.103 62.31C152.113 62.43 152.033 62.54 151.913 62.56L90.5725 73.14L90.6125 72.8L125.173 88.05C125.243 88.08 125.273 88.16 125.243 88.24C125.213 88.31 125.143 88.34 125.073 88.32L87.3625 76.98L87.4725 76.82L117.553 117.09C117.603 117.15 117.583 117.24 117.523 117.28C117.463 117.32 117.383 117.31 117.343 117.26L80.4625 78.01L80.7825 77.88L81.0126 126.76C81.0126 126.89 80.9125 126.99 80.7825 126.99C80.6625 126.99 80.5626 126.9 80.5526 126.78L74.9126 79.1L75.3825 79.26L33.1525 120.62C33.0326 120.74 32.8425 120.73 32.7325 120.62C32.6225 120.51 32.6225 120.34 32.7125 120.22L68.5725 76.9L68.8726 77.4L19.1225 87.04C18.9525 87.07 18.7825 86.96 18.7525 86.79C18.7225 86.63 18.8125 86.48 18.9625 86.43L66.6825 70.66L66.7326 71.29L0.222548 59.75C0.0825483 59.72 -0.0174517 59.59 0.00254834 59.44C0.0225483 59.3 0.152548 59.21 0.282548 59.22L69.4525 64.64L69.3125 64.93L33.3925 28.78C33.3525 28.74 33.3525 28.67 33.3925 28.63C33.4325 28.59 33.4925 28.59 33.5325 28.62L74.0325 60.95ZM74.0526 61.02L33.4025 28.79L33.5425 28.64L69.5725 64.69C69.6425 64.76 69.6425 64.87 69.5725 64.93C69.5325 64.97 69.4826 64.98 69.4325 64.98L0.252548 59.75L0.312548 59.22L66.8326 70.64C67.0126 70.67 67.1325 70.84 67.1025 71.01C67.0826 71.13 66.9925 71.23 66.8825 71.26L19.1525 87.02L18.9925 86.41L68.7525 76.79C68.9225 76.76 69.0826 76.87 69.1125 77.03C69.1325 77.12 69.1026 77.22 69.0526 77.29L33.1625 120.6L32.7225 120.19L74.9925 78.87C75.1025 78.76 75.2725 78.77 75.3825 78.87C75.4225 78.92 75.4525 78.97 75.4625 79.03L81.0225 126.73L80.5625 126.76L80.4225 77.88C80.4225 77.78 80.5025 77.69 80.6125 77.69C80.6626 77.69 80.7125 77.71 80.7525 77.75L117.563 117.08L117.353 117.26L87.3125 76.95C87.2825 76.9 87.2925 76.84 87.3326 76.8C87.3625 76.78 87.3925 76.77 87.4225 76.78L125.153 88.05L125.053 88.32L90.4725 73.13C90.3826 73.09 90.3425 72.99 90.3825 72.9C90.4125 72.84 90.4625 72.81 90.5126 72.8L151.833 62.11L151.893 62.57L84.1825 68.98C84.0225 69 83.8825 68.88 83.8625 68.72C83.8525 68.63 83.8826 68.55 83.9426 68.49L117.753 32.77L118.083 33.12L81.2425 63.27C81.1625 63.33 81.0526 63.32 80.9826 63.24C80.9526 63.21 80.9426 63.17 80.9426 63.14L77.2125 0.11H77.4225L74.0526 61.02Z" fill="#EDCC94"/>
<path d="M65.5526 57.3L75.9126 66.21L77.1325 42.88L78.8726 68.5L90.5425 57.66L79.5126 70.43L104.773 68.04L82.9126 71.9L100.823 78.97L81.4625 73.21C81.4625 73.21 95.1325 90.82 95.0425 90.26C94.9526 89.72 78.6025 72.45 78.6025 72.45L78.8825 95.04L76.7725 74.47C76.7725 74.47 64.1926 87.05 64.3726 86.78C64.5526 86.5 74.5725 73.37 74.5725 73.37L44.6125 79.8L74.0025 70.25L45.3425 65.29L74.6926 67.56L65.5526 57.3Z" fill="#EDCC94"/>
</svg>
