<svg width="455" height="352" viewBox="0 0 455 352" preserveAspectRatio="none" fill="none" xmlns="http://www.w3.org/2000/svg">
<g clip-path="url(#clip0_904_747)">
<path fill-rule="evenodd" clip-rule="evenodd" d="M88.8121 7.98627C90.358 10.6191 94.2386 10.4662 96.5196 9.33001C97.0817 9.04597 99.4276 7.76778 99.4709 5.89965C99.5573 2.91719 93.8929 -0.895539 90.5849 1.10369C88.5743 2.31634 87.4608 5.6593 88.8121 7.98627ZM7.13537 467.275C8.30262 467.76 9.45865 468.197 10.6034 468.589C10.8597 468.986 11.0991 469.467 11.3765 470.024C13.241 473.772 16.8246 480.974 38.805 489.271C48.4474 490.224 57.7637 489.629 67.3363 489.017H67.3366H67.3369H67.3373H67.3376C73.2241 488.641 79.2074 488.259 85.4232 488.227C86.238 488.684 87.1572 489.059 88.1816 489.271C90.9556 489.847 93.6739 489.066 95.9544 487.923C98.6025 487.779 101.252 487.581 103.901 487.323C107.188 488.87 116.444 489.425 124.838 487.718C125.974 487.49 135.924 485.47 135.811 483.273C135.782 482.689 135.036 482.1 133.769 481.582C134.454 481.417 135.168 481.25 135.911 481.082C139.285 481.509 142.839 482.001 146.558 482.516L146.561 482.517L146.567 482.517L146.569 482.518L148.85 482.833C148.421 483.028 148.18 483.245 148.162 483.489C148.047 485.159 158.482 488.14 168.878 487.909C173.075 487.815 177.206 487.198 180.625 486.396C190.91 487.123 201.843 487.362 213.252 486.607C217.076 486.355 221.355 485.965 225.971 485.544L225.973 485.543L225.975 485.543L225.977 485.543C236.632 484.571 249.076 483.436 261.84 483.463C269.037 483.48 273.503 483.859 276.875 484.146H276.875H276.876C280.53 484.457 282.9 484.658 286.07 484.171C286.999 484.463 288.242 484.741 289.733 485.02C289.488 485.207 289.312 485.432 289.241 485.698C288.913 486.922 290.857 488.753 292.89 489.157C295.201 489.611 297.928 488.261 297.979 486.947C297.987 486.74 297.928 486.534 297.814 486.333C304.157 487.267 310.6 487.832 316.67 488.1C316.691 488.184 316.723 488.263 316.768 488.336C317.441 489.442 320.756 489.411 322.443 488.27C336.789 488.476 347.877 487 348.437 484.967C352.82 484.979 356.766 484.734 359.914 484.372C361.892 484.143 363.586 483.863 365.074 483.558C366.115 483.82 367.258 484.071 368.493 484.286C369.964 484.542 371.387 484.718 372.766 484.827C373.264 487.341 379.939 491.688 382.491 490.003C383.865 489.091 384.134 486.383 383.201 484.455C383.964 484.346 384.71 484.222 385.441 484.089C385.488 485.068 386.188 486.311 387.113 486.985C389.701 488.867 394.032 486.253 393.969 484.915C393.929 484.167 392.515 483.381 390.851 482.902C391.481 482.746 392.098 482.591 392.703 482.438C393.37 482.27 394.022 482.105 394.659 481.949C395.462 482.018 396.326 482.078 397.265 482.125C403.331 482.417 407.851 481.962 410.232 481.723L410.233 481.723C410.423 481.704 410.6 481.686 410.763 481.67C412.009 481.551 413.239 481.47 414.453 481.423C416.694 481.614 419.497 481.278 422.584 480.909H422.584C426.57 480.431 431.028 479.897 435.36 480.369C436.884 478.845 438.309 477.35 439.637 475.883C442.252 474.27 444.095 471.859 445.672 468.52C452.468 459.19 454.893 451.148 453.444 444.285C453.682 443.508 453.928 442.715 454.182 441.906C453.726 437.722 450.814 432.833 448.183 428.418L448.183 428.418C445.982 424.723 443.978 421.361 443.779 419.021C443.826 417.807 443.907 416.577 444.026 415.331L444.041 415.18L444.054 415.046L444.079 414.799L444.079 414.799L444.079 414.798C444.318 412.417 444.772 407.898 444.48 401.833C444.433 400.894 444.374 400.03 444.305 399.227C444.461 398.59 444.625 397.938 444.794 397.271L444.802 397.236C444.952 396.643 445.105 396.037 445.258 395.419C445.737 397.083 446.523 398.497 447.271 398.537C448.609 398.6 451.222 394.269 449.341 391.681C448.667 390.756 447.424 390.055 446.445 390.008C446.578 389.278 446.702 388.532 446.811 387.769C448.739 388.702 451.447 388.433 452.359 387.059C454.044 384.507 449.697 377.832 447.182 377.334C447.074 375.955 446.898 374.531 446.641 373.061C446.426 371.826 446.176 370.683 445.913 369.642C446.219 368.154 446.499 366.46 446.728 364.482C447.09 361.334 447.335 357.388 447.323 353.005C449.356 352.445 450.832 341.357 450.625 327.011C451.767 325.324 451.798 322.009 450.692 321.336C450.618 321.291 450.539 321.259 450.456 321.238C450.188 315.168 449.623 308.725 448.688 302.382C448.89 302.496 449.096 302.555 449.303 302.547C450.616 302.496 451.967 299.769 451.513 297.458C451.109 295.425 449.278 293.481 448.053 293.809C447.787 293.88 447.563 294.056 447.376 294.301C447.096 292.81 446.819 291.567 446.526 290.638C447.014 287.468 446.813 285.098 446.502 281.444V281.443V281.443C446.215 278.071 445.836 273.605 445.819 266.408C445.792 253.644 446.927 241.2 447.899 230.545L447.899 230.543L447.899 230.541L447.899 230.539C448.32 225.923 448.711 221.644 448.962 217.82C449.717 206.411 449.479 195.478 448.751 185.193C449.554 181.774 450.171 177.642 450.265 173.446C450.496 163.05 447.515 152.615 445.845 152.73C445.601 152.748 445.383 152.989 445.189 153.417L444.873 151.137L444.873 151.135L444.872 151.129L444.872 151.127V151.127C444.357 147.407 443.864 143.854 443.438 140.479C443.606 139.736 443.773 139.022 443.938 138.337C444.455 139.604 445.045 140.35 445.629 140.378C447.826 140.492 449.846 130.542 450.073 129.405C451.781 121.012 451.226 111.756 449.678 108.469C449.937 105.82 450.135 103.17 450.278 100.522C451.421 98.2418 452.203 95.5235 451.626 92.7496C451.415 91.7252 451.04 90.8059 450.583 89.9912C450.615 83.7754 450.997 77.792 451.373 71.9055V71.9052V71.9049V71.9045V71.9042V71.9039C451.985 62.3314 452.58 53.0153 451.626 43.3729C451.626 35.4473 450.045 30.4691 448.107 27.0112C448.225 26.2029 448.34 25.3827 448.453 24.5504C447.364 24.5478 446.596 24.3236 446.055 23.955C445.753 23.5715 445.453 23.2108 445.158 22.8682C444.767 22.004 444.756 20.9288 444.745 19.9465C444.729 18.518 444.716 17.286 443.543 17.1852C441.96 17.0492 440.963 14.5426 440.012 12.1536C439.083 9.82062 438.2 7.59977 436.859 7.80825C436.064 7.55492 435 7.31503 433.723 7.07337C433.933 6.91153 434.083 6.71724 434.144 6.48706C434.425 5.42736 432.761 3.84327 431.02 3.49368C429.042 3.10039 426.707 4.26934 426.664 5.40551C426.657 5.58478 426.707 5.76347 426.805 5.93765C424.142 5.54107 423.347 4.78082 422.616 4.08155C421.855 3.35469 421.164 2.6937 418.516 2.57551C418.497 2.50309 418.47 2.43457 418.432 2.37091C417.855 1.41412 415.017 1.44072 413.573 2.42867C401.291 2.24978 391.799 3.52693 391.319 5.28637C387.567 5.27599 384.189 5.48754 381.494 5.80129C379.801 5.99947 378.35 6.24151 377.077 6.50579C376.186 6.27877 375.206 6.06202 374.149 5.87599C372.891 5.65396 371.672 5.50169 370.491 5.40791C370.065 3.23234 364.35 -0.529549 362.165 0.928857C360.99 1.71779 360.759 4.06109 361.558 5.7291C360.905 5.82383 360.266 5.9306 359.641 6.04615C359.6 5.19887 359 4.12357 358.209 3.53987C355.993 1.91208 352.285 4.17351 352.339 5.33153C352.373 5.97845 353.584 6.65835 355.009 7.07337C354.473 7.2069 353.949 7.34062 353.435 7.47165L353.423 7.47465C352.852 7.62032 352.294 7.76262 351.749 7.89757C351.061 7.83791 350.322 7.78643 349.518 7.74589C344.324 7.49306 340.455 7.88624 338.417 8.09337C338.253 8.10998 338.101 8.1254 337.962 8.13919C336.895 8.24222 335.841 8.31199 334.803 8.35306C330.406 7.97389 325.071 7.38886 318.491 6.66541C303.694 5.04202 296.525 3.25582 291.91 2.10584C287.105 0.908712 285.067 0.401032 280.073 1.48418C276.835 2.1843 273.952 3.20737 271.298 4.30356C269.597 4.66434 268.218 5.18477 267.852 5.80034C267.568 5.92826 267.285 6.05565 267.005 6.18215L266.975 6.19551L266.927 6.21731C265.329 6.93811 263.799 7.62858 262.3 8.21799C257.175 6.10206 255.452 5.81306 255.211 6.24922C254.924 6.75445 256.413 8.69397 258.653 9.42579C256.371 10.0086 254.095 10.209 251.689 9.76368C252.463 9.64643 253.066 9.37824 253.157 9.05687C253.438 8.08457 249.384 5.42986 248.12 6.34754C247.557 6.76268 247.568 7.85516 247.914 8.53249L247.93 8.5615C245.079 7.26127 243.015 5.37963 241.654 3.8969V9.57323C240.788 9.37374 239.932 9.17023 239.081 8.96813C232.638 7.43674 226.534 5.98592 218.943 6.97026C218.634 7.01056 218.286 7.05947 217.901 7.11368L217.9 7.11388L217.898 7.11412L217.897 7.11429L217.896 7.11446L217.895 7.11462L217.892 7.11498L217.892 7.11504L217.889 7.11544L217.877 7.11709L217.875 7.11745C214.813 7.5487 209.428 8.30706 202.382 7.74591C200.893 7.63052 200.012 7.50822 199.135 7.38641C198.103 7.24297 197.075 7.10023 195.064 6.97026C190.729 6.68622 185.14 6.3257 179.66 7.74592C176.312 8.60709 174.534 9.73336 172.764 10.8546C171.705 11.5255 170.648 12.1947 169.26 12.8041C163.144 15.4801 158.152 13.6707 150.979 11.0708C144.915 8.87314 137.294 6.11068 126.118 5.01474C116.864 4.11891 112.173 5.03659 108.4 6.57698C106.082 7.52386 104.718 8.45515 103.512 9.27841L103.512 9.27855C102.047 10.2789 100.815 11.1198 98.3898 11.6351C94.4745 12.4657 91.8435 11.5051 89.0935 10.5009C86.7794 9.65592 84.3807 8.78008 81.0612 8.91488C77.1643 9.07042 75.2517 10.4873 72.8077 12.298L72.8076 12.2981L72.8075 12.2982C70.9601 13.6668 68.8091 15.2604 65.2678 16.7042C56.5585 20.2598 47.6837 19.543 40.9811 18.2356C38.3113 17.1966 34.6077 14.951 31.282 12.9345L31.282 12.9345C27.836 10.8451 24.7957 9.00169 23.732 9.0018C23.3449 9.00184 22.9159 8.98708 22.4523 8.97113C16.0546 8.75103 3.07596 8.30452 3.07596 43.4052C2.1237 53.0373 2.71636 62.2383 3.32707 71.7195C3.7037 77.5666 4.08719 83.5203 4.11942 89.7474C3.66221 90.5622 3.28772 91.4815 3.07596 92.5059C2.49978 95.2798 3.28082 97.9981 4.42396 100.279C4.49392 101.568 4.02895 102.924 3.56337 104.281C3.07292 105.711 2.58179 107.143 2.71454 108.502C1.16705 111.788 0.612234 121.045 2.31952 129.438C2.54678 130.575 4.56685 140.525 6.76368 140.411C7.34817 140.383 7.93751 139.637 8.45484 138.37C8.61981 139.055 8.78724 139.769 8.95534 140.512C8.52845 143.887 8.03597 147.442 7.52057 151.162L7.51977 151.168L7.51945 151.17L7.20386 153.45C7.00956 153.022 6.79188 152.78 6.54828 152.763C4.87786 152.648 1.8968 163.083 2.12809 173.479C2.22167 177.675 2.83911 181.807 3.64159 185.225C2.91407 195.511 2.67562 206.444 3.43056 217.853C3.6824 221.677 4.07263 225.956 4.49355 230.571L4.49372 230.574L4.49393 230.576L4.49415 230.578C5.46581 241.232 6.60072 253.677 6.5743 266.441C6.55738 273.638 6.17771 278.104 5.89101 281.476C5.58032 285.131 5.37882 287.501 5.86647 290.671C5.57369 291.599 5.29647 292.842 5.01718 294.334C4.83015 294.088 4.60561 293.913 4.33959 293.842C3.11492 293.513 1.28424 295.458 0.880223 297.491C0.425706 299.802 1.77663 302.529 3.08968 302.58C3.29685 302.588 3.50336 302.529 3.70465 302.415C2.76994 308.758 2.20532 315.201 1.93732 321.27C1.85363 321.292 1.77444 321.324 1.70087 321.368C0.595128 322.042 0.625876 325.357 1.76762 327.044C1.56088 341.39 3.03686 352.478 5.0702 353.038C5.0582 357.42 5.30268 361.367 5.66527 364.515C5.8943 366.492 6.17402 368.187 6.47944 369.675C6.21708 370.715 5.96658 371.859 5.75159 373.094C5.49501 374.564 5.31903 375.988 5.21064 377.367C2.6964 377.864 -1.65113 384.54 0.0343151 387.092C0.946065 388.465 3.65416 388.735 5.58184 387.802C5.69132 388.565 5.81471 389.311 5.94825 390.041C4.96906 390.088 3.72636 390.789 3.05179 391.713C1.1706 394.302 3.78407 398.633 5.12237 398.57C5.87 398.53 6.65575 397.116 7.13537 395.452C7.28855 396.073 7.44194 396.681 7.59229 397.277L7.59913 397.304C7.76748 397.971 7.93193 398.622 8.08788 399.26C8.01894 400.063 7.95944 400.926 7.9126 401.865C7.6204 407.932 8.07479 412.451 8.31416 414.832C8.33336 415.023 8.35118 415.2 8.36712 415.364C8.48619 416.61 8.56682 417.84 8.61428 419.054C8.4135 421.407 7.07023 424.444 5.59314 427.784C3.84649 431.733 1.91274 436.105 1.45975 440.27C0.299662 450.957 3.25248 456.692 5.36115 460.787C6.66267 463.314 7.6426 465.218 7.13537 467.275ZM376.364 413.111C305.785 406.788 194.224 414.624 72.3891 429.911C106.035 355.522 104.86 195.564 66.8634 76.9245H375.961C371.632 132.617 369.885 230.586 373.165 399.227L376.364 413.111ZM207.723 7.27615C210.587 8.17198 213.701 6.58789 213.69 5.51727C213.679 3.72561 204.814 1.49696 203.928 3.11383C203.431 4.02058 205.258 6.50049 207.723 7.27615ZM162.299 13.4814C166.115 13.9621 169.379 10.2477 168.925 9.14428C168.255 7.52742 158.677 9.11151 158.472 11.1217C158.364 12.1158 160.547 13.2629 162.299 13.4814ZM153.435 6.59882C152.548 7.6476 153.175 9.47203 154.18 10.3679C154.267 10.4443 155.434 11.4603 156.515 11.0343C157.791 10.5317 158.429 8.22661 157.359 6.88287C156.407 5.69207 154.332 5.53912 153.435 6.59882ZM67.2028 12.5528C66.9001 15.4697 62.0681 17.4143 58.3819 17.469C51.9716 17.5563 45.4856 11.9629 46.2206 8.76194C46.9774 5.44081 55.755 3.56176 61.8303 6.51144L61.8459 6.51937C62.3275 6.76203 67.523 9.38029 67.2028 12.5528ZM42.3289 13.8201C41.0317 14.9235 38.6103 13.9949 37.2914 12.9789C34.9133 11.1545 33.9079 7.35264 35.0646 6.2711C36.5456 4.89458 42.4045 7.23247 43.0963 10.783C43.2801 11.7116 43.1937 13.0991 42.3289 13.8201ZM341.859 6.39856C338.393 6.721 334.84 5.00875 334.961 4.07479C335.17 2.40701 347.382 1.76214 347.767 3.40768C347.987 4.29716 344.885 6.1206 341.859 6.39856ZM1.96603 227.858C3.2917 227.139 2.13016 221.204 1.06962 221.153C0.198467 221.103 -1.63222 224.992 0.0343362 226.962C0.476227 227.505 1.41051 228.161 1.96603 227.858ZM4.91624 410.778C5.28887 414.827 3.31007 418.977 2.23072 418.836C0.303305 418.592 -0.441962 404.327 1.45975 403.878C2.4877 403.62 4.59501 407.244 4.91624 410.778ZM449.884 221.153C448.823 221.204 447.662 227.139 448.988 227.858C449.543 228.161 450.477 227.505 450.919 226.962C452.586 224.992 450.755 221.103 449.884 221.153ZM448.723 418.836C447.644 418.977 445.665 414.827 446.037 410.778C446.359 407.244 448.466 403.62 449.494 403.878C451.396 404.327 450.65 418.592 448.723 418.836ZM223.29 486.632C222.571 485.306 216.636 486.468 216.585 487.528C216.535 488.399 220.424 490.23 222.394 488.564C222.937 488.122 223.593 487.187 223.29 486.632ZM406.21 483.682C410.259 483.309 414.409 485.288 414.268 486.367C414.024 488.295 399.759 489.04 399.31 487.138C399.053 486.11 402.677 484.003 406.21 483.682Z" fill="#F6D9A9"/>
</g>
<g clip-path="url(#clip1_904_747)">
<path fill-rule="evenodd" clip-rule="evenodd" d="M88.8121 -20.3853C90.358 -17.7524 94.2386 -17.9054 96.5196 -19.0416C97.0817 -19.3256 99.4276 -20.6038 99.4709 -22.4719C99.5573 -25.4544 93.8929 -29.2671 90.5849 -27.2679C88.5743 -26.0552 87.4608 -22.7123 88.8121 -20.3853ZM7.13537 438.904C8.30262 439.388 9.45865 439.826 10.6034 440.217C10.8597 440.614 11.0991 441.095 11.3765 441.653C13.241 445.4 16.8246 452.603 38.805 460.899C48.4474 461.852 57.7637 461.257 67.3363 460.646H67.3366H67.3369H67.3373H67.3376C73.2241 460.27 79.2074 459.888 85.4232 459.856C86.238 460.313 87.1572 460.687 88.1816 460.899C90.9556 461.475 93.6739 460.694 95.9544 459.551C98.6025 459.407 101.252 459.21 103.901 458.951C107.188 460.499 116.444 461.053 124.838 459.346C125.974 459.119 135.924 457.099 135.811 454.902C135.782 454.317 135.036 453.728 133.769 453.211C134.454 453.046 135.168 452.878 135.911 452.71C139.285 453.137 142.839 453.629 146.558 454.145L146.561 454.145L146.567 454.146L146.569 454.146L148.85 454.462C148.421 454.656 148.18 454.874 148.162 455.117C148.047 456.788 158.482 459.769 168.878 459.538C173.075 459.444 177.206 458.826 180.625 458.024C190.91 458.752 201.843 458.99 213.252 458.235C217.076 457.983 221.355 457.593 225.971 457.172L225.973 457.172L225.975 457.172L225.977 457.171C236.632 456.2 249.076 455.065 261.84 455.091C269.037 455.108 273.503 455.488 276.875 455.775H276.875H276.876C280.53 456.085 282.9 456.287 286.07 455.799C286.999 456.092 288.242 456.369 289.733 456.648C289.488 456.835 289.312 457.06 289.241 457.326C288.913 458.551 290.857 460.381 292.89 460.785C295.201 461.24 297.928 459.889 297.979 458.576C297.987 458.369 297.928 458.162 297.814 457.961C304.157 458.896 310.6 459.46 316.67 459.728C316.691 459.812 316.723 459.891 316.768 459.965C317.441 461.07 320.756 461.04 322.443 459.898C336.789 460.105 347.877 458.629 348.437 456.595C352.82 456.607 356.766 456.363 359.914 456C361.892 455.771 363.586 455.492 365.074 455.186C366.115 455.448 367.258 455.699 368.493 455.914C369.964 456.171 371.387 456.347 372.766 456.455C373.264 458.969 379.939 463.317 382.491 461.631C383.865 460.72 384.134 458.011 383.201 456.084C383.964 455.974 384.71 455.851 385.441 455.717C385.488 456.697 386.188 457.939 387.113 458.614C389.701 460.495 394.032 457.882 393.969 456.543C393.929 455.796 392.515 455.01 390.851 454.53C391.481 454.375 392.098 454.219 392.703 454.066C393.37 453.898 394.022 453.734 394.659 453.578C395.462 453.647 396.326 453.706 397.265 453.753C403.331 454.045 407.851 453.591 410.232 453.351L410.233 453.351C410.423 453.332 410.6 453.314 410.763 453.298C412.009 453.179 413.239 453.099 414.453 453.051C416.694 453.243 419.497 452.907 422.584 452.537H422.584C426.57 452.06 431.028 451.526 435.36 451.997C436.884 450.473 438.309 448.978 439.637 447.511C442.252 445.898 444.095 443.487 445.672 440.148C452.468 430.818 454.893 422.776 453.444 415.913C453.682 415.136 453.928 414.343 454.182 413.535C453.726 409.351 450.814 404.461 448.183 400.046C445.982 396.352 443.978 392.989 443.779 390.649C443.826 389.436 443.907 388.205 444.026 386.959C444.042 386.796 444.06 386.619 444.079 386.428L444.079 386.427L444.079 386.427C444.318 384.045 444.772 379.527 444.48 373.461C444.433 372.522 444.374 371.658 444.305 370.855C444.461 370.218 444.625 369.566 444.794 368.899L444.802 368.868C444.952 368.274 445.105 367.667 445.258 367.047C445.737 368.711 446.523 370.126 447.271 370.165C448.609 370.229 451.222 365.897 449.341 363.309C448.667 362.385 447.424 361.684 446.445 361.637C446.578 360.907 446.702 360.16 446.811 359.397C448.739 360.33 451.447 360.061 452.359 358.688C454.044 356.136 449.697 349.46 447.182 348.963C447.074 347.583 446.898 346.16 446.641 344.689C446.426 343.455 446.176 342.311 445.913 341.27C446.219 339.782 446.499 338.088 446.728 336.111C447.09 332.962 447.335 329.016 447.323 324.633C449.356 324.074 450.832 312.986 450.625 298.639C451.767 296.953 451.798 293.638 450.692 292.964C450.618 292.92 450.539 292.888 450.456 292.866C450.188 286.797 449.623 280.354 448.688 274.01C448.89 274.124 449.096 274.183 449.303 274.175C450.616 274.125 451.967 271.397 451.513 269.087C451.109 267.054 449.278 265.109 448.053 265.437C447.787 265.509 447.563 265.684 447.376 265.93C447.096 264.438 446.819 263.195 446.526 262.267C447.014 259.097 446.813 256.727 446.502 253.072V253.072V253.071C446.215 249.699 445.836 245.233 445.819 238.037C445.792 225.273 446.927 212.828 447.899 202.174L447.899 202.171L447.899 202.169L447.899 202.167C448.32 197.551 448.711 193.272 448.962 189.448C449.717 178.04 449.479 167.106 448.751 156.821C449.554 153.402 450.171 149.271 450.265 145.074C450.496 134.678 447.515 124.243 445.845 124.359C445.601 124.376 445.383 124.618 445.189 125.046L444.873 122.766L444.873 122.763L444.872 122.758L444.872 122.754C444.357 119.035 443.864 115.482 443.438 112.108C443.606 111.365 443.773 110.651 443.938 109.965C444.455 111.233 445.045 111.978 445.629 112.007C447.826 112.121 449.846 102.17 450.073 101.034C451.781 92.6405 451.226 83.384 449.678 80.0971C449.937 77.4482 450.135 74.7989 450.278 72.1507C451.421 69.8703 452.203 67.1519 451.626 64.378C451.415 63.3536 451.04 62.4343 450.583 61.6196C450.615 55.4038 450.997 49.4204 451.373 43.534V43.5336V43.5333V43.533V43.5326V43.5323C451.985 33.9598 452.58 24.6437 451.626 15.0013C451.626 7.07569 450.045 2.09753 448.107 -1.36041C448.225 -2.16871 448.34 -2.98893 448.453 -3.82123C447.364 -3.82382 446.596 -4.04797 446.055 -4.41663C445.753 -4.80004 445.453 -5.16076 445.158 -5.50342C444.767 -6.36756 444.756 -7.44277 444.745 -8.42508C444.729 -9.85354 444.716 -11.0856 443.543 -11.1863C441.96 -11.3223 440.963 -13.829 440.012 -16.218C439.083 -18.551 438.2 -20.7718 436.859 -20.5633C436.064 -20.8167 435 -21.0565 433.723 -21.2982C433.933 -21.4601 434.083 -21.6543 434.144 -21.8845C434.425 -22.9442 432.761 -24.5283 431.02 -24.8779C429.042 -25.2712 426.707 -24.1022 426.664 -22.9661C426.657 -22.7868 426.707 -22.6081 426.805 -22.4339C424.142 -22.8305 423.347 -23.5908 422.616 -24.29C421.855 -25.0169 421.164 -25.6779 418.516 -25.7961C418.497 -25.8685 418.47 -25.937 418.432 -26.0007C417.855 -26.9575 415.017 -26.9309 413.573 -25.9429C401.291 -26.1218 391.799 -24.8446 391.319 -23.0852C387.567 -23.0956 384.189 -22.884 381.494 -22.5703C379.801 -22.3721 378.35 -22.1301 377.077 -21.8658C376.186 -22.0928 375.206 -22.3096 374.149 -22.4956C372.891 -22.7176 371.672 -22.8699 370.491 -22.9637C370.065 -25.1392 364.35 -28.9011 362.165 -27.4427C360.99 -26.6538 360.759 -24.3105 361.558 -22.6425C360.905 -22.5478 360.266 -22.441 359.641 -22.3254C359.6 -23.1727 359 -24.248 358.209 -24.8317C355.993 -26.4595 352.285 -24.1981 352.339 -23.0401C352.373 -22.3931 353.584 -21.7132 355.009 -21.2982C354.473 -21.1647 353.949 -21.031 353.435 -20.8999L353.423 -20.8969C352.852 -20.7513 352.294 -20.609 351.749 -20.474C351.061 -20.5337 350.322 -20.5852 349.518 -20.6257C344.324 -20.8785 340.455 -20.4853 338.417 -20.2782C338.253 -20.2616 338.101 -20.2462 337.962 -20.2324C336.895 -20.1294 335.841 -20.0596 334.803 -20.0185C330.406 -20.3977 325.071 -20.9827 318.491 -21.7062C303.694 -23.3296 296.525 -25.1158 291.91 -26.2657C287.105 -27.4629 285.067 -27.9705 280.073 -26.8874C276.835 -26.1873 273.952 -25.1642 271.298 -24.068C269.597 -23.7072 268.218 -23.1868 267.852 -22.5712C267.579 -22.4487 267.309 -22.3266 267.04 -22.2053L267.005 -22.1894L266.975 -22.1761L266.927 -22.1543C265.329 -21.4335 263.799 -20.743 262.3 -20.1536C257.175 -22.2695 255.452 -22.5585 255.211 -22.1224C254.924 -21.6171 256.413 -19.6776 258.653 -18.9458C256.371 -18.363 254.095 -18.1626 251.689 -18.6079C252.463 -18.7251 253.066 -18.9933 253.157 -19.3147C253.438 -20.287 249.384 -22.9417 248.12 -22.024C247.557 -21.6089 247.568 -20.5164 247.914 -19.8391L247.93 -19.8101C245.079 -21.1103 243.015 -22.992 241.654 -24.4747V-18.7984C240.788 -18.9978 239.932 -19.2014 239.081 -19.4035C232.638 -20.9348 226.534 -22.3857 218.943 -21.4013C218.632 -21.3607 218.281 -21.3114 217.893 -21.2567L217.892 -21.2566L217.889 -21.2561L217.877 -21.2545L217.875 -21.2541C214.813 -20.8229 209.428 -20.0645 202.382 -20.6257C200.893 -20.7411 200.012 -20.8634 199.135 -20.9852C198.103 -21.1286 197.075 -21.2714 195.064 -21.4013C190.729 -21.6854 185.14 -22.0459 179.66 -20.6257C176.312 -19.7645 174.534 -18.6382 172.764 -17.517C171.705 -16.8461 170.648 -16.1769 169.26 -15.5675C163.144 -12.8915 158.152 -14.7009 150.979 -17.3008C144.915 -19.4984 137.294 -22.2609 126.118 -23.3568C116.864 -24.2527 112.173 -23.335 108.4 -21.7946C106.082 -20.8477 104.718 -19.9164 103.512 -19.0932L103.512 -19.093C102.047 -18.0927 100.815 -17.2518 98.3898 -16.7364C94.4745 -15.9059 91.8435 -16.8665 89.0935 -17.8707C86.7794 -18.7157 84.3807 -19.5915 81.0612 -19.4567C77.1643 -19.3012 75.2517 -17.8842 72.8077 -16.0736L72.8076 -16.0735C70.9602 -14.7048 68.8092 -13.1112 65.2678 -11.6674C56.5585 -8.11177 47.6838 -8.8286 40.9811 -10.136C38.3113 -11.175 34.6077 -13.4206 31.282 -15.4371L31.282 -15.4371C27.836 -17.5265 24.7957 -19.3699 23.732 -19.3698C23.3449 -19.3697 22.9159 -19.3845 22.4523 -19.4005C16.0546 -19.6206 3.07596 -20.0671 3.07596 15.0336C2.1237 24.6657 2.71636 33.8667 3.32707 43.3479C3.7037 49.1951 4.08719 55.1488 4.11942 61.3759C3.66221 62.1906 3.28772 63.1099 3.07596 64.1343C2.49977 66.9082 3.28082 69.6265 4.42396 71.907C4.49392 73.1967 4.02895 74.5522 3.56337 75.9095C3.07292 77.3393 2.58179 78.7711 2.71454 80.13C1.16705 83.4169 0.612234 92.6734 2.31952 101.067C2.54678 102.203 4.56685 112.153 6.76368 112.04C7.34817 112.011 7.93751 111.265 8.45484 109.998C8.61981 110.684 8.78724 111.398 8.95534 112.141C8.52845 115.516 8.03597 119.07 7.52057 122.79L7.51977 122.796L7.51945 122.799L7.20386 125.079C7.00956 124.651 6.79188 124.409 6.54828 124.392C4.87786 124.276 1.8968 134.711 2.12809 145.107C2.22167 149.304 2.83911 153.435 3.64159 156.854C2.91407 167.139 2.67562 178.073 3.43056 189.481C3.6824 193.305 4.07263 197.584 4.49355 202.2L4.49372 202.202L4.49393 202.204L4.49415 202.206C5.46581 212.861 6.60072 225.305 6.5743 238.07C6.55738 245.267 6.17771 249.733 5.89101 253.105C5.58032 256.759 5.37882 259.13 5.86647 262.299C5.57369 263.228 5.29647 264.471 5.01718 265.962C4.83015 265.717 4.60561 265.542 4.33959 265.47C3.11492 265.142 1.28424 267.086 0.880223 269.119C0.425706 271.43 1.77663 274.158 3.08968 274.208C3.29685 274.216 3.50336 274.157 3.70465 274.043C2.76994 280.386 2.20532 286.83 1.93732 292.899C1.85363 292.92 1.77444 292.953 1.70087 292.997C0.595128 293.67 0.625876 296.986 1.76762 298.672C1.56088 313.018 3.03686 324.106 5.0702 324.666C5.0582 329.049 5.30268 332.995 5.66527 336.143C5.8943 338.121 6.17402 339.815 6.47944 341.303C6.21708 342.344 5.96658 343.488 5.7516 344.722C5.49501 346.193 5.31903 347.616 5.21064 348.995C2.6964 349.493 -1.65113 356.169 0.034315 358.72C0.946065 360.094 3.65416 360.363 5.58184 359.43C5.69132 360.193 5.81471 360.939 5.94825 361.67C4.96906 361.717 3.72637 362.418 3.05179 363.342C1.1706 365.93 3.78407 370.261 5.12237 370.198C5.87 370.158 6.65575 368.744 7.13537 367.08C7.28787 367.698 7.44059 368.304 7.5903 368.897L7.59321 368.909L7.59913 368.932C7.76748 369.599 7.93193 370.251 8.08788 370.888C8.01894 371.691 7.95944 372.555 7.9126 373.494C7.6204 379.561 8.07479 384.08 8.31417 386.461C8.33336 386.652 8.35118 386.829 8.36712 386.992C8.48619 388.238 8.56682 389.469 8.61428 390.682C8.4135 393.035 7.07023 396.072 5.59314 399.412C3.84649 403.361 1.91274 407.734 1.45975 411.898C0.299662 422.586 3.25248 428.32 5.36115 432.415C6.66267 434.943 7.6426 436.846 7.13537 438.904ZM376.364 384.739C305.785 378.416 194.224 386.253 72.389 401.539C86.2447 370.905 94.1952 325.76 96.1008 274.964H371.753C372.023 304.068 372.487 335.947 373.165 370.855L376.364 384.739ZM374.177 76.9244H75.0616C71.6382 63.7425 67.8024 50.9143 63.5519 38.5912C116.532 37.9356 194.41 33.4377 241.654 27.6617C318.491 18.2677 241.654 29.0054 241.654 29.0054C294.652 29.0054 334.433 36.7873 364.283 42.6266C368.464 43.4445 372.45 44.2243 376.251 44.9392C375.479 54.2941 374.783 64.9062 374.177 76.9244ZM207.723 -21.0954C210.587 -20.1996 213.701 -21.7837 213.69 -22.8543C213.679 -24.646 204.814 -26.8746 203.928 -25.2578C203.431 -24.351 205.258 -21.8711 207.723 -21.0954ZM162.299 -14.8902C166.115 -14.4095 169.379 -18.1239 168.925 -19.2273C168.255 -20.8442 158.677 -19.2601 158.472 -17.2499C158.364 -16.2558 160.547 -15.1087 162.299 -14.8902ZM153.435 -21.7728C152.548 -20.724 153.175 -18.8996 154.18 -18.0037C154.267 -17.9273 155.434 -16.9113 156.515 -17.3373C157.791 -17.8399 158.429 -20.145 157.359 -21.4887C156.407 -22.6795 154.332 -22.8325 153.435 -21.7728ZM67.2028 -15.8188C66.9001 -12.9019 62.0681 -10.9573 58.3819 -10.9026C51.9716 -10.8152 45.4856 -16.4087 46.2206 -19.6096C46.9774 -22.9308 55.755 -24.8098 61.8303 -21.8601L61.8459 -21.8522C62.3275 -21.6096 67.523 -18.9913 67.2028 -15.8188ZM42.3288 -14.5515C41.0317 -13.4481 38.6103 -14.3767 37.2914 -15.3927C34.9133 -17.2171 33.9079 -21.0189 35.0646 -22.1005C36.5456 -23.477 42.4045 -21.1391 43.0962 -17.5886C43.2801 -16.66 43.1937 -15.2725 42.3288 -14.5515ZM341.859 -21.973C338.393 -21.6506 334.84 -23.3628 334.961 -24.2968C335.17 -25.9646 347.382 -26.6094 347.767 -24.9639C347.987 -24.0744 344.885 -22.251 341.859 -21.973ZM1.96603 199.487C3.2917 198.767 2.13016 192.832 1.06962 192.782C0.198467 192.731 -1.63222 196.62 0.0343362 198.59C0.476227 199.133 1.41051 199.79 1.96603 199.487ZM4.91624 382.407C5.28887 386.455 3.31007 390.606 2.23072 390.464C0.303305 390.22 -0.441962 375.956 1.45975 375.506C2.4877 375.249 4.59501 378.873 4.91624 382.407ZM449.884 192.782C448.823 192.832 447.662 198.767 448.988 199.487C449.543 199.79 450.477 199.133 450.919 198.59C452.586 196.62 450.755 192.731 449.884 192.782ZM448.723 390.464C447.644 390.606 445.665 386.455 446.037 382.407C446.359 378.873 448.466 375.249 449.494 375.506C451.396 375.956 450.65 390.22 448.723 390.464ZM223.29 458.26C222.571 456.935 216.636 458.096 216.585 459.157C216.535 460.028 220.424 461.859 222.394 460.192C222.937 459.75 223.593 458.816 223.29 458.26ZM406.21 455.31C410.259 454.937 414.409 456.916 414.268 457.996C414.024 459.923 399.759 460.668 399.31 458.767C399.053 457.739 402.677 455.631 406.21 455.31Z" fill="#F6D9A9"/>
</g>
<g clip-path="url(#clip2_904_747)">
<path fill-rule="evenodd" clip-rule="evenodd" d="M88.8122 -130.044C90.3581 -127.411 94.2388 -127.564 96.5197 -128.7C97.0818 -128.984 99.4277 -130.262 99.471 -132.13C99.5574 -135.113 93.893 -138.925 90.5851 -136.926C88.5744 -135.714 87.461 -132.371 88.8122 -130.044ZM7.1355 338.865C11.9457 340.861 16.5653 342.061 20.9935 342.517C24.9399 345.189 30.5865 348.138 38.8051 351.24C48.4476 352.194 57.7638 351.599 67.3364 350.987H67.3367H67.3371H67.3374H67.3377C73.2242 350.611 79.2076 350.229 85.4234 350.197C86.2381 350.654 87.1574 351.029 88.1818 351.24C90.9557 351.817 93.674 351.036 95.9545 349.892C98.6027 349.749 101.252 349.551 103.901 349.293C107.188 350.84 116.444 351.395 124.838 349.688C125.974 349.46 135.924 347.44 135.811 345.243C135.782 344.659 135.036 344.07 133.769 343.552C134.454 343.387 135.169 343.22 135.911 343.052C139.285 343.478 142.839 343.971 146.558 344.486L146.561 344.486L146.567 344.487L146.569 344.488L148.85 344.803C148.422 344.997 148.18 345.215 148.162 345.459C148.047 347.129 158.482 350.11 168.878 349.879C173.075 349.785 177.206 349.168 180.625 348.365C190.91 349.093 201.843 349.331 213.252 348.576C217.076 348.325 221.355 347.934 225.971 347.513L225.973 347.513L225.975 347.513L225.977 347.513C236.632 346.541 249.076 345.406 261.841 345.433C269.037 345.45 273.503 345.829 276.875 346.116H276.875H276.876C280.53 346.427 282.901 346.628 286.07 346.141C286.999 346.433 288.242 346.711 289.733 346.99C289.488 347.177 289.313 347.401 289.241 347.667C288.913 348.892 290.857 350.723 292.89 351.127C295.201 351.581 297.928 350.23 297.979 348.917C297.987 348.71 297.928 348.504 297.814 348.302C304.157 349.237 310.601 349.802 316.67 350.07C316.682 350.117 316.697 350.163 316.717 350.207C316.723 350.221 316.729 350.235 316.736 350.248C316.746 350.268 316.756 350.287 316.768 350.306C317.441 351.412 320.757 351.381 322.443 350.239C336.789 350.446 347.877 348.97 348.437 346.937C352.82 346.949 356.766 346.704 359.914 346.342C361.892 346.113 363.586 345.833 365.074 345.528C366.115 345.79 367.259 346.04 368.493 346.255C369.964 346.512 371.387 346.688 372.766 346.796C373.264 349.311 379.94 353.658 382.491 351.973C383.865 351.061 384.134 348.353 383.201 346.425C383.964 346.316 384.71 346.192 385.441 346.059C385.488 347.038 386.189 348.281 387.113 348.955C389.701 350.836 394.032 348.223 393.969 346.885C393.929 346.137 392.515 345.351 390.851 344.872C391.482 344.716 392.098 344.56 392.703 344.408L393.244 344.272L393.575 344.188L393.886 344.11C394.048 344.07 394.209 344.03 394.369 343.991C394.466 343.967 394.563 343.943 394.659 343.919C395.462 343.988 396.326 344.048 397.265 344.094C403.332 344.387 407.851 343.932 410.232 343.693L410.233 343.693C410.423 343.674 410.6 343.656 410.763 343.64C412.009 343.521 413.24 343.44 414.453 343.393C416.694 343.584 419.497 343.248 422.584 342.879H422.584C426.57 342.401 431.028 341.867 435.36 342.339C436.884 340.815 438.309 339.32 439.637 337.853C442.252 336.24 444.095 333.829 445.672 330.49C452.468 321.16 454.893 313.118 453.444 306.255C453.682 305.478 453.928 304.685 454.182 303.877C453.727 299.692 450.814 294.803 448.183 290.388C445.982 286.693 443.978 283.331 443.779 280.991C443.826 279.777 443.907 278.547 444.026 277.301C444.036 277.2 444.046 277.095 444.057 276.983L444.079 276.77L444.079 276.769L444.079 276.768C444.318 274.387 444.773 269.868 444.48 263.803C444.434 262.864 444.374 262 444.305 261.197C444.414 260.754 444.526 260.304 444.641 259.847C444.692 259.646 444.743 259.444 444.794 259.241C444.946 258.636 445.102 258.019 445.258 257.389C445.737 259.053 446.523 260.467 447.271 260.507C448.609 260.57 451.222 256.239 449.341 253.651C448.667 252.726 447.424 252.026 446.445 251.979C446.578 251.248 446.702 250.502 446.811 249.739C448.739 250.672 451.447 250.403 452.359 249.029C454.044 246.478 449.697 239.802 447.182 239.304C447.074 237.925 446.898 236.502 446.641 235.031C446.426 233.796 446.176 232.653 445.914 231.612C446.219 230.124 446.499 228.43 446.728 226.452C447.09 223.304 447.335 219.358 447.323 214.975C449.356 214.415 450.832 203.327 450.625 188.981C451.767 187.294 451.798 183.979 450.692 183.306C450.65 183.28 450.606 183.259 450.561 183.241C450.527 183.228 450.492 183.217 450.456 183.208C450.188 177.139 449.623 170.695 448.688 164.352C448.89 164.466 449.096 164.525 449.303 164.517C450.616 164.466 451.967 161.739 451.513 159.428C451.109 157.395 449.278 155.451 448.053 155.779C447.787 155.851 447.563 156.026 447.376 156.271C447.097 154.78 446.819 153.537 446.527 152.608C447.014 149.438 446.813 147.068 446.502 143.414V143.413V143.413C446.215 140.041 445.836 135.575 445.819 128.379C445.792 115.614 446.927 103.17 447.899 92.5153L447.899 92.5129L447.899 92.5109L447.899 92.5088C448.32 87.8931 448.711 83.6138 448.962 79.7899C449.717 68.3813 449.479 57.448 448.751 47.1626C449.554 43.7438 450.171 39.6126 450.265 35.4162C450.496 25.0197 447.515 14.5847 445.845 14.7003C445.601 14.7177 445.383 14.9594 445.189 15.3875L444.874 13.1073L444.873 13.105L444.872 13.0992L444.872 13.0957C444.357 9.37694 443.864 5.82335 443.438 2.4493C443.606 1.70644 443.773 0.992249 443.938 0.306946C444.456 1.57419 445.045 2.31976 445.629 2.34851C447.826 2.46219 449.846 -7.48796 450.074 -8.62442C451.781 -17.0178 451.226 -26.2743 449.678 -29.5612C449.937 -32.2101 450.135 -34.8594 450.278 -37.5076C451.422 -39.7881 452.203 -42.5064 451.626 -45.2803C451.415 -46.3047 451.04 -47.224 450.583 -48.0387C450.615 -54.2545 450.997 -60.2379 451.373 -66.1244V-66.1247V-66.125V-66.1254V-66.1257V-66.1261C451.985 -75.6986 452.58 -85.0147 451.626 -94.657C451.626 -102.583 450.045 -107.561 448.107 -111.019C448.225 -111.827 448.34 -112.647 448.453 -113.48C447.364 -113.482 446.597 -113.706 446.055 -114.075C445.754 -114.458 445.453 -114.819 445.158 -115.162C444.767 -116.026 444.756 -117.101 444.745 -118.083C444.729 -119.512 444.716 -120.744 443.543 -120.845C441.96 -120.981 440.963 -123.487 440.012 -125.876C439.084 -128.209 438.2 -130.43 436.859 -130.222C436.064 -130.475 435 -130.715 433.723 -130.957C433.933 -131.118 434.083 -131.313 434.144 -131.543C434.425 -132.603 432.761 -134.187 431.02 -134.536C429.042 -134.93 426.707 -133.761 426.664 -132.624C426.657 -132.445 426.708 -132.266 426.805 -132.092C424.142 -132.489 423.347 -133.249 422.616 -133.948C421.855 -134.675 421.164 -135.336 418.516 -135.454C418.497 -135.527 418.47 -135.595 418.432 -135.659C417.855 -136.616 415.017 -136.589 413.573 -135.601C401.291 -135.78 391.799 -134.503 391.32 -132.744C387.568 -132.754 384.189 -132.542 381.494 -132.229C379.801 -132.03 378.35 -131.788 377.077 -131.524C376.186 -131.751 375.207 -131.968 374.15 -132.154C372.891 -132.376 371.672 -132.528 370.491 -132.622C370.065 -134.798 364.35 -138.559 362.166 -137.101C360.99 -136.312 360.759 -133.969 361.558 -132.301C360.905 -132.206 360.266 -132.099 359.641 -131.984C359.6 -132.831 359 -133.906 358.209 -134.49C355.993 -136.118 352.285 -133.856 352.339 -132.698C352.373 -132.051 353.584 -131.372 355.009 -130.957C354.473 -130.823 353.949 -130.689 353.435 -130.558L353.423 -130.555C352.852 -130.41 352.294 -130.267 351.749 -130.132C351.061 -130.192 350.322 -130.243 349.518 -130.284C344.324 -130.537 340.455 -130.144 338.417 -129.937C338.253 -129.92 338.102 -129.905 337.962 -129.891C336.895 -129.788 335.842 -129.718 334.803 -129.677C330.406 -130.056 325.071 -130.641 318.491 -131.364C303.695 -132.988 296.525 -134.774 291.91 -135.924C287.105 -137.121 285.067 -137.629 280.073 -136.546C276.835 -135.846 273.952 -134.823 271.298 -133.726C269.597 -133.366 268.218 -132.845 267.852 -132.23C267.558 -132.097 267.265 -131.965 266.975 -131.834L266.927 -131.813C265.329 -131.092 263.799 -130.401 262.3 -129.812C257.175 -131.928 255.452 -132.217 255.211 -131.781C254.924 -131.275 256.413 -129.336 258.653 -128.604C256.371 -128.021 254.095 -127.821 251.689 -128.266C252.463 -128.383 253.066 -128.652 253.157 -128.973C253.438 -129.945 249.385 -132.6 248.12 -131.682C247.558 -131.267 247.568 -130.175 247.914 -129.497L247.93 -129.468C245.079 -130.769 243.015 -132.65 241.654 -134.133V-128.457C240.788 -128.656 239.932 -128.86 239.081 -129.062C232.638 -130.593 226.534 -132.044 218.943 -131.06C218.632 -131.019 218.281 -130.97 217.893 -130.915L217.892 -130.915L217.889 -130.914L217.877 -130.913L217.875 -130.912C214.813 -130.481 209.428 -129.723 202.382 -130.284C200.893 -130.399 200.013 -130.522 199.136 -130.644C198.103 -130.787 197.075 -130.93 195.064 -131.06C190.729 -131.344 185.14 -131.704 179.66 -130.284C176.312 -129.423 174.534 -128.297 172.764 -127.175C171.705 -126.504 170.649 -125.835 169.261 -125.226C163.144 -122.55 158.152 -124.359 150.979 -126.959C144.915 -129.157 137.294 -131.919 126.118 -133.015C116.864 -133.911 112.173 -132.993 108.4 -131.453C106.082 -130.506 104.718 -129.575 103.512 -128.752L103.512 -128.751C102.047 -127.751 100.815 -126.91 98.3899 -126.395C94.4746 -125.564 91.8436 -126.525 89.0936 -127.529C86.7795 -128.374 84.3809 -129.25 81.0613 -129.115C77.1645 -128.959 75.2518 -127.543 72.8078 -125.732L72.8077 -125.732C70.9603 -124.363 68.8093 -122.769 65.2679 -121.326C53.2875 -116.435 40.994 -119.628 34.472 -121.322L34.4719 -121.322L32.1712 -121.326C28.2781 -122.338 27.5639 -123.902 26.9205 -125.311C26.5342 -126.158 26.1734 -126.948 25.1652 -127.529C22.09 -129.302 12.5048 -120.367 9.00183 -115.935C8.67041 -115.515 8.39242 -114.3 8.15928 -112.531C5.20302 -107.599 3.07608 -99.2149 3.07608 -85.0054C2.12382 -75.3732 2.71648 -66.1722 3.32719 -56.691C3.70382 -50.8439 4.08731 -44.8902 4.11954 -38.6631C3.66234 -37.8483 3.28784 -36.9291 3.07608 -35.9047C2.4999 -33.1308 3.28094 -30.4124 4.42409 -28.132C4.49404 -26.8423 4.02907 -25.4868 3.56349 -24.1295C3.07304 -22.6997 2.58191 -21.2679 2.71466 -19.909C1.16718 -16.6221 0.612356 -7.36557 2.31964 1.02786C2.5469 2.16432 4.56697 12.1145 6.7638 12.0008C7.34829 11.972 7.93763 11.2265 8.45496 9.95923C8.61993 10.6445 8.78736 11.3587 8.95546 12.1016C8.52857 15.4767 8.03609 19.0314 7.5207 22.7515L7.51989 22.7572L7.51957 22.7596L7.20399 25.0398C7.00968 24.6117 6.792 24.3699 6.5484 24.3526C4.87798 24.237 1.89692 34.672 2.12821 45.0685C2.2218 49.2648 2.83923 53.3961 3.64171 56.8149C2.91419 67.1002 2.67574 78.0336 3.43069 89.4421C3.68253 93.266 4.07275 97.5452 4.49367 102.161L4.49384 102.163L4.49405 102.165L4.49427 102.167C5.46593 112.822 6.60084 125.266 6.57442 138.031C6.5575 145.228 6.17783 149.694 5.89113 153.066C5.58044 156.72 5.37894 159.091 5.86659 162.26C5.57381 163.189 5.29659 164.432 5.0173 165.923C4.83027 165.678 4.60573 165.503 4.33971 165.431C3.11505 165.103 1.28436 167.047 0.880345 169.08C0.425828 171.391 1.77675 174.119 3.0898 174.169C3.29697 174.177 3.50348 174.118 3.70477 174.004C2.77006 180.347 2.20544 186.791 1.93744 192.86C1.85375 192.881 1.77456 192.914 1.70099 192.958C0.59525 193.632 0.625998 196.947 1.76774 198.633C1.561 212.98 3.03698 224.067 5.07032 224.627C5.05832 229.01 5.3028 232.956 5.66539 236.104C5.89442 238.082 6.17414 239.776 6.47956 241.264C6.21721 242.305 5.96671 243.449 5.75172 244.683C5.49513 246.154 5.31915 247.577 5.21076 248.956C2.69652 249.454 -1.65101 256.13 0.0344371 258.681C0.946187 260.055 3.65428 260.324 5.58196 259.391C5.69144 260.154 5.81483 260.9 5.94837 261.631C4.96918 261.678 3.72649 262.379 3.05192 263.303C1.17073 265.891 3.7842 270.222 5.12249 270.159C5.87013 270.12 6.65587 268.705 7.1355 267.041C7.28867 267.662 7.44207 268.27 7.59241 268.866L7.59925 268.893C7.7676 269.56 7.93206 270.212 8.08801 270.849C8.0551 271.232 7.05999 271.906 6.02353 272.609C4.88831 273.378 3.70349 274.181 3.679 274.671C3.49151 278.564 5.35455 281.319 6.77707 283.422C7.57148 284.597 8.22851 285.569 8.31429 286.422C8.33349 286.613 8.3513 286.79 8.36724 286.953C8.48632 288.199 8.56695 289.43 8.6144 290.643C8.41363 292.996 7.07035 296.033 5.59326 299.373C3.84661 303.323 1.91286 307.695 1.45987 311.859C0.299785 322.547 3.25259 328.281 5.36127 332.376C6.66278 334.904 7.64272 336.807 7.1355 338.865ZM81.9549 274.964H250.822C299.123 272.305 341.593 272.072 375.037 274.964H376.337L373.166 261.197C369.813 88.8467 371.711 -9.68816 376.251 -64.7191C372.45 -65.4341 368.464 -66.2138 364.283 -67.0317C334.433 -72.871 294.652 -80.6529 241.654 -80.6529C241.654 -80.6529 318.491 -91.3907 241.654 -81.9966C193.381 -76.0947 113.123 -71.5273 60.1247 -71.0297C100.13 36.8432 106.836 188.384 81.9549 274.964ZM207.723 -130.754C210.587 -129.858 213.701 -131.442 213.69 -132.513C213.679 -134.304 204.815 -136.533 203.928 -134.916C203.431 -134.009 205.258 -131.529 207.723 -130.754ZM162.299 -124.549C166.115 -124.068 169.379 -127.782 168.925 -128.886C168.255 -130.502 158.677 -128.918 158.472 -126.908C158.364 -125.914 160.548 -124.767 162.299 -124.549ZM153.435 -131.431C152.548 -130.382 153.175 -128.558 154.181 -127.662C154.267 -127.586 155.434 -126.57 156.515 -126.996C157.791 -127.498 158.429 -129.803 157.359 -131.147C156.407 -132.338 154.332 -132.491 153.435 -131.431ZM67.2029 -125.477C66.9002 -122.56 62.0682 -120.616 58.382 -120.561C51.9717 -120.474 45.4857 -126.067 46.2207 -129.268C46.9775 -132.589 55.7551 -134.468 61.8304 -131.518L61.8461 -131.511C62.3276 -131.268 67.5232 -128.65 67.2029 -125.477ZM42.329 -124.21C41.0318 -123.106 38.6105 -124.035 37.2915 -125.051C34.9134 -126.875 33.908 -130.677 35.0648 -131.759C36.5457 -133.135 42.4046 -130.797 43.0964 -127.247C43.2802 -126.318 43.1938 -124.931 42.329 -124.21ZM341.859 -131.631C338.394 -131.309 334.84 -133.021 334.961 -133.955C335.17 -135.623 347.382 -136.268 347.767 -134.622C347.987 -133.733 344.885 -131.909 341.859 -131.631ZM1.96615 99.4477C3.29183 98.728 2.13028 92.7934 1.06975 92.7429C0.198589 92.6924 -1.6321 96.5814 0.0344583 98.5512C0.476349 99.0941 1.41063 99.7508 1.96615 99.4477ZM6.50841 289.23C6.88104 293.278 4.90224 297.429 3.82289 297.288C1.89548 297.043 1.15021 282.779 3.05192 282.329C4.07987 282.072 6.18718 285.696 6.50841 289.23ZM449.884 83.1235C448.824 83.174 447.662 89.1086 448.988 89.8284C449.543 90.1314 450.478 89.4748 450.919 88.9318C452.586 86.962 450.755 83.073 449.884 83.1235ZM447.479 282.203C446.4 282.345 444.421 278.194 444.794 274.146C445.115 270.612 447.222 266.988 448.25 267.245C450.152 267.695 449.407 281.959 447.479 282.203ZM223.29 348.602C222.571 347.276 216.636 348.438 216.586 349.498C216.535 350.369 220.424 352.2 222.394 350.533C222.937 350.092 223.593 349.157 223.29 348.602ZM406.211 345.652C410.259 345.279 414.41 347.258 414.268 348.337C414.024 350.264 399.76 351.01 399.31 349.108C399.053 348.08 402.677 345.973 406.211 345.652Z" fill="#F6D9A9"/>
</g>
<defs>
<clipPath id="clip0_904_747">
<rect width="455" height="76.9245" fill="white"/>
</clipPath>
<clipPath id="clip1_904_747">
<rect width="455" height="198.04" fill="white" transform="translate(0 76.9244)"/>
</clipPath>
<clipPath id="clip2_904_747">
<rect width="455" height="76.9245" fill="white" transform="translate(0 274.964)"/>
</clipPath>
</defs>
</svg>
