<svg width="108" height="89" viewBox="0 0 108 89" fill="none" xmlns="http://www.w3.org/2000/svg">
<path d="M52.5734 42.7374C52.6373 42.408 54.8953 0.0700843 54.8953 0.0700843L57.6005 44.2372L83.723 23.0787L59.752 48.1409L107.829 43.6905L64.2891 51.1405L88.8353 61.8073L62.0525 53.8878L83.3964 82.1247L57.2313 54.5816L57.3662 88.8388L53.3829 55.4086L23.3835 84.3815L48.8528 54.028L13.5281 60.7771L47.4185 49.7318L0.193521 41.6931L49.3143 45.4216L23.767 20.1212L52.5734 42.7374Z" fill="#B56647"/>
<path d="M52.5663 42.7164L54.8243 0.0700843C54.8243 0.0280337 54.8598 0 54.9024 0C54.9379 0 54.9734 0.0350421 54.9734 0.0700843L57.7354 44.2302L57.5224 44.1391L83.6236 22.9456C83.6946 22.8895 83.8011 22.8965 83.865 22.9666C83.9218 23.0297 83.9147 23.1278 83.8579 23.1909L59.9082 48.281L59.7378 47.9376L107.822 43.5223C107.914 43.5153 107.992 43.5784 107.999 43.6695C108.007 43.7536 107.95 43.8307 107.864 43.8447L64.3104 51.2596L64.3388 51.0213L88.8779 61.7092C88.9276 61.7302 88.9489 61.7863 88.9276 61.8424C88.9063 61.8914 88.8566 61.9124 88.8069 61.8984L62.0312 53.9509L62.1093 53.8387L83.4674 82.0617C83.5029 82.1037 83.4887 82.1668 83.4461 82.1948C83.4035 82.2229 83.3467 82.2159 83.3183 82.1808L57.1319 54.6727L57.3591 54.5816L57.5224 88.8388C57.5224 88.9299 57.4514 89 57.3591 89C57.2739 89 57.2029 88.9369 57.1958 88.8528L53.1912 55.4366L53.5249 55.5488L23.5397 84.5356C23.4545 84.6197 23.3196 84.6127 23.2415 84.5356C23.1634 84.4585 23.1634 84.3394 23.2273 84.2553L48.6895 53.8948L48.9025 54.2452L13.5778 61.0013C13.4571 61.0224 13.3364 60.9453 13.3151 60.8261C13.2938 60.714 13.3577 60.6089 13.4642 60.5738L47.3475 49.5215L47.383 49.9631L0.158019 41.8753C0.0586129 41.8543 -0.0123914 41.7632 0.00180943 41.6581C0.0160103 41.56 0.108316 41.4969 0.200622 41.5039L49.3143 45.3025L49.2149 45.5057L23.7102 20.1703C23.6818 20.1422 23.6818 20.0932 23.7102 20.0651C23.7386 20.0371 23.7812 20.0371 23.8096 20.0581L52.5663 42.7164ZM52.5805 42.7654L23.7173 20.1773L23.8167 20.0721L49.3995 45.3375C49.4492 45.3866 49.4492 45.4637 49.3995 45.5057C49.3711 45.5337 49.3356 45.5408 49.3001 45.5408L0.17932 41.8753L0.221923 41.5039L47.454 49.5075C47.5818 49.5285 47.667 49.6477 47.6457 49.7668C47.6315 49.8509 47.5676 49.921 47.4895 49.942L13.5991 60.9873L13.4855 60.5598L48.8173 53.8177C48.938 53.7967 49.0516 53.8738 49.0729 53.9859C49.0871 54.049 49.0658 54.1191 49.0303 54.1681L23.5468 84.5216L23.2344 84.2343L53.248 55.2755C53.3261 55.1984 53.4468 55.2054 53.5249 55.2755C53.5533 55.3105 53.5746 55.3455 53.5817 55.3876L57.5295 88.8178L57.2029 88.8388L57.1035 54.5816C57.1035 54.5115 57.1603 54.4485 57.2384 54.4485C57.2739 54.4485 57.3094 54.4625 57.3378 54.4905L83.4745 82.0547L83.3254 82.1808L61.9957 53.9298C61.9744 53.8948 61.9815 53.8527 62.0099 53.8247C62.0312 53.8107 62.0525 53.8037 62.0738 53.8107L88.8637 61.7092L88.7927 61.8984L64.2394 51.2526C64.1755 51.2246 64.1471 51.1545 64.1755 51.0914C64.1968 51.0494 64.2323 51.0284 64.2678 51.0213L107.808 43.5293L107.85 43.8517L59.7733 48.3441C59.6596 48.3581 59.5602 48.274 59.546 48.1619C59.5389 48.0988 59.5602 48.0428 59.6028 48.0007L83.6094 22.9666L83.8437 23.2119L57.6857 44.3423C57.6289 44.3844 57.5508 44.3774 57.5011 44.3213C57.4798 44.3003 57.4727 44.2722 57.4727 44.2512L54.8243 0.0770927H54.9734L52.5805 42.7654Z" fill="#B56647"/>
<path d="M46.5452 40.1583L53.9012 46.4028L54.7674 30.0521L56.0029 48.0077L64.2891 40.4106L56.4574 49.3603L74.393 47.6853L58.8715 50.3906L71.5884 55.3455L57.8419 51.3087C57.8419 51.3087 67.5482 63.6505 67.4843 63.2581C67.4204 62.8796 55.8112 50.776 55.8112 50.776L56.01 66.6081L54.5118 52.1917C54.5118 52.1917 45.5795 61.0084 45.7073 60.8191C45.8351 60.6229 52.9497 51.4208 52.9497 51.4208L31.6768 55.9272L52.545 49.2342L32.1952 45.758L53.0349 47.3489L46.5452 40.1583Z" fill="#B56647"/>
</svg>
