<svg width="365" height="114" viewBox="0 0 365 114" fill="none" xmlns="http://www.w3.org/2000/svg">
<circle cx="54" cy="57" r="52.5" stroke="#212C26" stroke-width="3"/>
<path d="M53.7996 35.2695C48.3847 35.2695 43.9891 30.8646 43.9891 25.4496C43.9891 20.0347 48.394 15.6392 53.7996 15.6392C59.2052 15.6392 63.6101 20.0441 63.6101 25.4496C63.6101 30.8552 59.2052 35.2695 53.7996 35.2695ZM53.7996 18.4448C49.9372 18.4448 46.7948 21.5872 46.7948 25.4496C46.7948 29.3121 49.9372 32.4638 53.7996 32.4638C57.6621 32.4638 60.8044 29.3215 60.8044 25.4496C60.8044 21.5778 57.6621 18.4448 53.7996 18.4448Z" fill="#212C26"/>
<path d="M40.9029 77.5134C40.7253 77.5134 40.5569 77.4853 40.3792 77.4105C39.6591 77.1206 39.3131 76.307 39.5936 75.5868C42.3525 68.6942 40.1454 61.5959 40.1267 61.5211C39.8929 60.7823 40.295 59.9967 41.0339 59.7629C41.7821 59.5197 42.5583 59.9312 42.8014 60.67C42.9043 60.9974 45.3453 68.7784 42.2029 76.6343C41.9878 77.1861 41.4547 77.5134 40.9029 77.5134Z" fill="#212C26"/>
<path d="M66.6963 77.5138C66.1446 77.5138 65.6115 77.1771 65.3964 76.6347C62.254 68.7788 64.695 60.9977 64.7978 60.6704C65.0316 59.9316 65.8266 59.5294 66.5654 59.7632C67.3042 59.997 67.7064 60.792 67.4726 61.5308C67.4352 61.6524 65.2561 68.7227 68.0057 75.5872C68.2956 76.3073 67.9402 77.121 67.2201 77.4109C67.0517 77.4764 66.874 77.5138 66.6963 77.5138Z" fill="#212C26"/>
<path d="M32.2427 64.785C31.2046 64.785 30.2133 64.3829 29.4371 63.6347C28.3896 62.6153 27.9875 61.1564 28.3522 59.7442L32.2334 44.6777C33.1873 40.9836 36.2361 38.2434 39.9957 37.6823C49.1516 36.3168 58.4383 36.3168 67.6035 37.6823C71.3725 38.2434 74.4213 40.993 75.3659 44.6777L79.247 59.7442C79.6118 61.1564 79.2096 62.6153 78.1622 63.6347C77.1147 64.6541 75.6558 65.0375 74.2436 64.6354L56.2406 59.5665C55.2773 59.2953 54.4449 58.7622 53.7903 58.0608C53.145 58.7622 52.3033 59.2953 51.3493 59.5665L33.3463 64.6354C32.9722 64.7383 32.6075 64.7944 32.2334 64.7944L32.2427 64.785ZM53.7996 39.4498C49.3293 39.4498 44.8495 39.7772 40.4072 40.4412C37.7606 40.834 35.6095 42.7699 34.9455 45.3605L31.0644 60.4269C30.9054 61.0535 31.2421 61.465 31.3917 61.6146C31.5413 61.7643 31.9715 62.0916 32.5888 61.9232L50.5918 56.8543C51.6486 56.5551 52.3968 55.5731 52.3968 54.4789V44.4626C51.9666 45.3043 51.2091 46.9129 50.9565 48.8488C50.6853 50.897 49.2077 52.5991 47.2063 53.1789L38.303 55.7601C37.5548 55.9752 36.7786 55.545 36.5635 54.8062C36.3484 54.0674 36.7786 53.2818 37.5174 53.0667L46.4207 50.4855C47.3653 50.2143 48.048 49.4287 48.1789 48.4747C48.5156 45.9309 49.535 43.8734 50.1149 42.8634C50.6012 42.0217 51.5083 41.4886 52.481 41.4886C52.9579 41.4886 53.4162 41.6102 53.809 41.8347C54.2018 41.6196 54.6507 41.4886 55.137 41.4886C56.1096 41.4886 57.0168 42.0124 57.5031 42.8634C58.0829 43.8641 59.1023 45.9309 59.439 48.4747C59.5606 49.4193 60.2527 50.2049 61.1972 50.4855L70.1006 53.0667C70.8487 53.2818 71.2696 54.058 71.0545 54.8062C70.8394 55.5544 70.0631 55.9846 69.315 55.7601L60.4117 53.1789C58.4009 52.5991 56.9326 50.897 56.6614 48.8488C56.4183 46.9784 55.7075 45.4166 55.2212 44.5281V54.4695C55.2212 55.5731 55.96 56.5551 57.0261 56.845L75.0292 61.9139C75.6464 62.0916 76.0673 61.7549 76.2263 61.6053C76.3759 61.4556 76.7219 61.0441 76.5536 60.4175L72.6724 45.3511C71.9991 42.7605 69.8574 40.8246 67.2107 40.4318C62.7684 39.7678 58.298 39.4405 53.8183 39.4405L53.7996 39.4498Z" fill="#212C26"/>
<path d="M78.8168 91.8413H53.7996C53.0234 91.8413 52.3968 91.2147 52.3968 90.4385C52.3968 89.6622 53.0234 89.0356 53.7996 89.0356H78.8168C82.6606 89.0356 85.7936 85.912 85.7936 82.0589C85.7936 79.8611 84.7929 77.841 83.044 76.5036C81.2952 75.1756 79.0787 74.7454 76.9557 75.3346L46.1869 83.8638C45.4387 84.0696 44.6718 83.63 44.4567 82.8912C44.251 82.143 44.6905 81.3762 45.4294 81.161L76.1982 72.6318C79.1629 71.8088 82.2771 72.4074 84.7274 74.2685C87.1777 76.1295 88.5899 78.9726 88.5899 82.0495C88.5899 87.4457 84.2037 91.8319 78.8075 91.8319L78.8168 91.8413Z" fill="#212C26"/>
<path d="M53.7996 91.8409H28.7824C23.3862 91.8409 19 87.4547 19 82.0585C19 78.9816 20.4028 76.1385 22.8625 74.2774C25.3221 72.4164 28.427 71.8085 31.3917 72.6408L54.0615 78.9255C54.8097 79.1313 55.2492 79.9075 55.0341 80.6557C54.8284 81.4038 54.0522 81.8341 53.304 81.6283L30.6342 75.3436C28.5112 74.7544 26.2947 75.1846 24.5459 76.5126C22.797 77.8406 21.7963 79.8701 21.7963 82.0679C21.7963 85.9116 24.92 89.0446 28.7731 89.0446H53.7903C54.5665 89.0446 55.1931 89.6712 55.1931 90.4475C55.1931 91.2237 54.5665 91.8503 53.7903 91.8503L53.7996 91.8409Z" fill="#212C26"/>
<g clip-path="url(#clip0_2603_16871)">
<circle cx="308" cy="57" r="55.5" stroke="#212C26" stroke-width="3"/>
<path d="M322.691 79.9467H272.972C271.533 79.9467 270.224 79.2736 269.385 78.1117C268.537 76.9407 268.316 75.493 268.768 74.1283L275.664 53.2984C277.461 47.8766 282.504 44.2251 288.22 44.2251C289.714 44.2251 291.133 44.5755 292.36 45.2302C294.849 46.5672 297.67 47.268 300.509 47.268C303.598 47.268 306.622 46.4381 309.277 44.8798C309.609 44.6861 309.996 44.64 310.365 44.7415C314.255 45.8572 317.371 48.6419 318.92 52.3671C319.215 53.0771 318.883 53.8793 318.173 54.1744C317.464 54.4695 316.662 54.1375 316.367 53.4275C315.233 50.6981 312.928 48.5405 310.134 47.563C307.193 49.1767 303.874 50.025 300.509 50.025C297.144 50.025 293.945 49.2044 291.05 47.6553C290.221 47.2127 289.262 46.9821 288.275 46.9821C283.703 46.9821 279.711 49.8683 278.291 54.156L271.395 74.9951C271.229 75.5115 271.312 76.0555 271.626 76.4889C271.939 76.9222 272.437 77.1804 272.972 77.1804H322.691C323.456 77.1804 324.074 77.7982 324.074 78.5636C324.074 79.3289 323.456 79.9467 322.691 79.9467Z" fill="#212C26"/>
<path d="M344.909 79.9465H309.941C309.507 79.9465 309.093 79.7436 308.834 79.3932C308.576 79.0428 308.493 78.591 308.613 78.1761L316.053 52.6804C316.228 52.0903 316.763 51.6846 317.381 51.6846H352.349C352.783 51.6846 353.197 51.8874 353.456 52.2378C353.714 52.5882 353.797 53.04 353.677 53.455L346.237 78.9506C346.062 79.5408 345.527 79.9465 344.909 79.9465ZM311.785 77.1802H343.877L350.505 54.4508H318.413L311.785 77.1802Z" fill="#212C26"/>
<path d="M284.569 65.9036H273.396C272.63 65.9036 272.013 65.2858 272.013 64.5205C272.013 63.7551 272.63 63.1373 273.396 63.1373H283.564L285.777 56.2955C286.008 55.567 286.791 55.1705 287.52 55.4103C288.248 55.6408 288.644 56.4246 288.405 57.153L285.888 64.9539C285.703 65.5255 285.169 65.9128 284.569 65.9128V65.9036Z" fill="#212C26"/>
<path d="M366.065 118.766H247.587C247.135 118.766 246.711 118.545 246.453 118.176C246.195 117.807 246.13 117.328 246.287 116.904L248.232 78.0843C248.435 77.5403 248.951 77.1807 249.532 77.1807H367.954C368.406 77.1807 368.83 77.402 369.088 77.7708C369.347 78.1396 369.411 78.6099 369.254 79.0341L367.355 117.853C367.162 118.407 366.636 118.766 366.055 118.766H366.065ZM249.578 116H365.097L366 79.9469H250.5L249.578 116Z" fill="#212C26"/>
<path d="M303.57 79.9465C302.805 79.9465 302.187 79.3287 302.187 78.5633C302.187 74.2756 300.685 72.5329 297.006 72.5329H282.32C281.887 72.5329 281.472 72.33 281.214 71.9796C280.955 71.6292 280.872 71.1774 280.992 70.7625L282.947 64.1419C283.168 63.4135 283.933 62.9893 284.662 63.2106C285.39 63.4319 285.814 64.1972 285.593 64.9257L284.164 69.7666H296.997C302.27 69.7666 304.944 72.7265 304.944 78.5633C304.944 79.3287 304.326 79.9465 303.561 79.9465H303.57Z" fill="#212C26"/>
<path d="M303.57 79.9469C302.805 79.9469 302.187 79.3291 302.187 78.5638C302.187 72.727 304.861 69.7671 310.134 69.7671H311.738C312.504 69.7671 313.121 70.3849 313.121 71.1502C313.121 71.9155 312.504 72.5333 311.738 72.5333H310.134C306.456 72.5333 304.953 74.2853 304.953 78.5638C304.953 79.3291 304.335 79.9469 303.57 79.9469Z" fill="#212C26"/>
<path d="M307.866 72.5237C307.728 72.5237 307.59 72.5053 307.442 72.4592C306.714 72.2287 306.318 71.4449 306.548 70.7164L311.075 56.5532C311.305 55.8248 312.089 55.4283 312.817 55.6588C313.545 55.8893 313.942 56.6731 313.711 57.4015L309.185 71.5648C309 72.1549 308.456 72.5237 307.866 72.5237Z" fill="#212C26"/>
<path d="M314.034 65.9035H310.125C309.36 65.9035 308.742 65.2857 308.742 64.5203C308.742 63.755 309.36 63.1372 310.125 63.1372H314.034C314.799 63.1372 315.417 63.755 315.417 64.5203C315.417 65.2857 314.799 65.9035 314.034 65.9035Z" fill="#212C26"/>
<path d="M289.105 39.1997C286.312 39.1997 284.044 36.9314 284.044 34.1374V30.7903C284.044 27.9964 286.312 25.728 289.105 25.728C291.899 25.728 294.167 27.9964 294.167 30.7903V34.1374C294.167 36.9314 291.899 39.1997 289.105 39.1997ZM289.105 28.5035C287.842 28.5035 286.81 29.5362 286.81 30.7995V34.1467C286.81 35.4099 287.842 36.4427 289.105 36.4427C290.368 36.4427 291.401 35.4099 291.401 34.1467V30.7995C291.401 29.5362 290.368 28.5035 289.105 28.5035Z" fill="#212C26"/>
<path d="M301.487 44.17C296.766 44.17 292.526 41.3669 290.673 37.0239C290.47 36.5536 290.553 36.0004 290.875 35.6039C291.216 35.1889 291.401 34.6818 291.401 34.147V30.7998C291.401 30.265 291.207 29.7394 290.857 29.3245C290.525 28.928 290.442 28.3747 290.636 27.9044C292.47 23.5153 296.73 20.6753 301.477 20.6753C307.959 20.6753 313.232 25.9496 313.232 32.4319C313.232 38.9141 307.959 44.1885 301.477 44.1885L301.487 44.17ZM293.53 36.5997C295.07 39.5412 298.122 41.4038 301.487 41.4038C306.437 41.4038 310.475 37.3743 310.475 32.4134C310.475 27.4526 306.447 23.4231 301.487 23.4231C298.094 23.4231 295.033 25.3134 293.503 28.2825C293.936 29.0386 294.167 29.9054 294.167 30.7814V34.1285C294.167 34.9861 293.945 35.8344 293.53 36.5813V36.5997Z" fill="#212C26"/>
<path d="M286.985 29.1766C286.819 29.1766 286.653 29.1489 286.487 29.0844C285.777 28.8078 285.418 28.0056 285.694 27.2955L286.146 26.1337C288.718 19.965 294.664 16 301.302 16C307.94 16 314.403 20.3522 316.745 26.8345C317.003 27.5537 316.634 28.3467 315.915 28.6049C315.196 28.8631 314.403 28.4943 314.145 27.775C312.199 22.3901 307.037 18.7663 301.312 18.7663C295.586 18.7663 290.848 22.0673 288.718 27.1665L288.285 28.2914C288.073 28.8354 287.547 29.1766 286.994 29.1766H286.985Z" fill="#212C26"/>
<path d="M313.619 39.1997C312.227 39.1997 310.89 38.6188 309.932 37.5953C309.554 37.1895 309.452 36.5902 309.683 36.083C310.208 34.912 310.475 33.6764 310.475 32.4131C310.475 31.1499 310.217 29.9512 309.71 28.7986C309.48 28.2822 309.59 27.6828 309.978 27.2771C310.946 26.2813 312.236 25.728 313.619 25.728C316.413 25.728 318.681 27.9964 318.681 30.7903V34.1374C318.681 36.9314 316.413 39.1997 313.619 39.1997ZM312.605 36.1937C312.919 36.3505 313.26 36.4334 313.619 36.4334C314.882 36.4334 315.915 35.4007 315.915 34.1374V30.7903C315.915 29.527 314.882 28.4943 313.619 28.4943C313.269 28.4943 312.937 28.5681 312.633 28.7156C313.029 29.9051 313.232 31.1499 313.232 32.4131C313.232 33.6764 313.02 34.9765 312.605 36.1937Z" fill="#212C26"/>
</g>
<g clip-path="url(#clip1_2603_16871)">
<path d="M185.18 27.9312C180.987 27.9312 177.575 24.5646 177.575 20.4281C177.575 16.2915 180.987 12.9331 185.18 12.9331C189.372 12.9331 192.784 16.2997 192.784 20.4363C192.784 24.5728 189.372 27.9394 185.18 27.9394V27.9312ZM185.18 15.3905C182.357 15.3905 180.066 17.6512 180.066 20.4363C180.066 23.2213 182.357 25.482 185.18 25.482C188.002 25.482 190.294 23.2213 190.294 20.4363C190.294 17.6512 188.002 15.3905 185.18 15.3905Z" fill="#212C26"/>
<path d="M181.17 39.5301C180.921 39.5301 180.672 39.4564 180.448 39.3007L175.533 35.8522C174.968 35.4591 174.844 34.6891 175.242 34.1403C175.641 33.5915 176.421 33.4604 176.977 33.8536L181.892 37.3021C182.448 37.6953 182.581 38.4652 182.183 39.0141C181.942 39.3499 181.56 39.5301 181.17 39.5301Z" fill="#212C26"/>
<path d="M159.444 88.3089C158.68 88.3089 157.916 88.1123 157.244 87.7437C155.06 86.5478 154.272 83.8201 155.484 81.6658L162.864 68.5681L166.019 55.3884C166.177 54.7249 166.849 54.3154 167.522 54.471C168.194 54.6266 168.609 55.2901 168.443 55.9454L165.247 69.2889C165.222 69.3954 165.18 69.5019 165.122 69.6002L157.651 82.8454C157.103 83.8119 157.46 85.0406 158.439 85.573C159.394 86.0973 160.681 85.7287 161.204 84.7949L168.891 71.1565C168.983 70.9927 169.049 70.8207 169.091 70.6405L171.656 59.9182C171.814 59.2547 172.486 58.8451 173.158 59.0007C173.831 59.1564 174.246 59.8199 174.08 60.4752L171.515 71.1975C171.415 71.5988 171.266 71.9838 171.066 72.3442L163.379 85.9826C162.582 87.3997 161.063 88.2761 159.419 88.2761L159.444 88.3089Z" fill="#212C26"/>
<path d="M183.743 86.2443C181.245 86.2443 179.219 84.2375 179.219 81.7801V66.7164L166.874 56.8542C166.874 56.8542 166.849 56.8296 166.832 56.8215L166.658 56.6658C166.575 56.5921 166.484 56.502 166.392 56.4037C164.74 54.7081 164.184 52.2589 164.956 50.0227L171.274 31.7973C172.411 28.5208 176.039 26.7597 179.368 27.8819C179.559 27.9474 179.75 28.0211 179.933 28.103C180.107 28.1768 180.315 28.2833 180.514 28.3979C180.755 28.5372 181.012 28.7092 181.278 28.9222L190.675 35.5079H202.032C204.531 35.5079 206.557 37.5148 206.557 39.9721C206.557 42.4295 204.523 44.4363 202.032 44.4363H189.231C188.285 44.4363 187.38 44.1496 186.608 43.609L181.809 40.2424L177.185 53.5859L186.591 61.0973C187.662 61.9492 188.268 63.2106 188.268 64.5703V81.7719C188.268 84.2375 186.234 86.2361 183.743 86.2361V86.2443ZM168.435 54.9457L181.245 65.1765C181.535 65.414 181.709 65.7581 181.709 66.1349V81.7883C181.709 82.8941 182.623 83.7951 183.743 83.7951C184.864 83.7951 185.777 82.8941 185.777 81.7883V64.5867C185.777 63.9806 185.503 63.4072 185.022 63.0222L174.927 54.962C174.495 54.618 174.346 54.0364 174.562 53.5368C174.611 53.4057 174.636 53.3566 174.661 53.2992L179.999 37.8997C180.124 37.5311 180.423 37.2444 180.796 37.1298C181.17 37.0069 181.577 37.0724 181.9 37.3018L188.06 41.6186C188.409 41.8643 188.816 41.9872 189.239 41.9872H202.041C203.162 41.9872 204.075 41.0861 204.075 39.9803C204.075 38.8745 203.162 37.9735 202.041 37.9735H190.285C190.028 37.9735 189.771 37.8916 189.563 37.7441L179.783 30.8881C179.559 30.716 179.402 30.6096 179.244 30.5195C179.128 30.4457 179.036 30.4048 178.945 30.3638C178.795 30.2983 178.688 30.2491 178.563 30.2082C176.537 29.5201 174.329 30.5932 173.632 32.5918L167.314 50.8173C166.841 52.177 167.181 53.676 168.194 54.7163C168.244 54.7736 168.294 54.8146 168.335 54.8556L168.435 54.9457Z" fill="#212C26"/>
<path d="M164.466 50.8993C164.051 50.8993 163.636 50.8337 163.238 50.6945L160.307 49.7033C158.315 49.0317 156.704 47.631 155.774 45.7634C154.845 43.8958 154.712 41.7824 155.392 39.8084L159.909 26.7761C161.802 21.3208 167.845 18.3965 173.374 20.2641L173.748 20.387C175.732 21.0587 176.795 23.1884 176.114 25.1461L168.069 48.3518C167.737 49.302 167.057 50.0638 166.143 50.5061C165.612 50.76 165.048 50.8911 164.475 50.8911L164.466 50.8993ZM164.043 48.3682C164.375 48.4747 164.732 48.4583 165.039 48.3026C165.355 48.147 165.587 47.8849 165.703 47.5572L173.748 24.3515C173.98 23.6798 173.615 22.9426 172.934 22.7133L172.569 22.5904C168.335 21.1651 163.711 23.3932 162.266 27.5707L157.75 40.6029C157.285 41.9545 157.377 43.3961 158.008 44.6821C158.647 45.96 159.743 46.9183 161.112 47.377L164.043 48.3682Z" fill="#212C26"/>
<path d="M202.813 79.5276C202.124 79.5276 201.568 78.9788 201.568 78.2989V43.3551C201.568 42.6753 202.124 42.1265 202.813 42.1265C203.502 42.1265 204.058 42.6753 204.058 43.3551V78.2989C204.058 78.9788 203.502 79.5276 202.813 79.5276Z" fill="#212C26"/>
<path d="M131.5 101C130.67 101 130 100.411 130 99.6802V64.3198C130 63.5895 130.67 63 131.5 63C132.33 63 133 63.5895 133 64.3198V99.6802C133 100.411 132.33 101 131.5 101Z" fill="#212C26"/>
<path d="M131.425 74C131.159 74 130.903 73.929 130.675 73.7958C130.257 73.5561 130 73.1299 130 72.6682V64.3312C130 63.8695 130.257 63.4434 130.675 63.2037C131.093 62.9551 131.615 62.9373 132.052 63.1326L141.202 67.2967C141.696 67.5186 142 67.9892 142 68.4953C142 69.0014 141.686 69.4719 141.202 69.6939L132.052 73.8579C131.853 73.9467 131.644 73.9911 131.425 73.9911V74ZM132.85 66.4621V70.5374L137.325 68.5042L132.85 66.471V66.4621Z" fill="#212C26"/>
<path d="M216.306 38C216.063 38 215.827 37.929 215.618 37.7958C215.235 37.5561 215 37.1299 215 36.6682V28.3312C215 27.8695 215.235 27.4434 215.618 27.2037C216.002 26.9551 216.481 26.9373 216.881 27.1326L225.268 31.2967C225.721 31.5186 226 31.9803 226 32.4953C226 33.0102 225.713 33.4719 225.268 33.6939L216.881 37.8579C216.698 37.9467 216.507 37.9911 216.306 37.9911V38ZM217.613 30.4621V34.5374L221.715 32.5042L217.613 30.471V30.4621Z" fill="#212C26"/>
<path d="M146.333 96.9912C145.905 96.9912 145.477 96.7889 145.227 96.4106C144.817 95.8035 144.978 94.9854 145.584 94.5807C147.394 93.3754 149.686 92.4429 152.576 91.7479C153.298 91.5719 154.021 92.003 154.199 92.7156C154.377 93.4194 153.94 94.1408 153.218 94.3079C150.632 94.9326 148.625 95.7419 147.082 96.7713C146.85 96.9208 146.592 97 146.333 97V96.9912ZM162.573 92.8651C161.895 92.8651 161.315 92.3549 161.244 91.6775C161.173 90.9561 161.708 90.3051 162.448 90.2347C164.428 90.0411 166.702 89.8564 169.591 89.654C170.314 89.6012 170.965 90.1467 171.018 90.8769C171.072 91.6071 170.519 92.2317 169.779 92.2845C166.907 92.4869 164.669 92.6628 162.707 92.8563C162.662 92.8563 162.617 92.8563 162.573 92.8563V92.8651ZM179.464 91.5543C178.777 91.5543 178.197 91.044 178.135 90.3578C178.064 89.6276 178.608 88.9854 179.339 88.9238C181.952 88.6863 184.244 88.4224 186.357 88.1145C187.098 88.0089 187.766 88.5104 187.873 89.2318C187.98 89.9531 187.472 90.6218 186.741 90.7273C184.583 91.0352 182.246 91.308 179.589 91.5543C179.544 91.5543 179.508 91.5543 179.464 91.5543ZM196.132 88.7039C195.561 88.7039 195.026 88.3344 194.856 87.7714C194.642 87.0763 195.035 86.3374 195.748 86.1262C198.031 85.44 200.207 84.613 202.214 83.6629C202.882 83.3462 203.676 83.6277 203.997 84.2875C204.318 84.9473 204.033 85.7303 203.364 86.047C201.233 87.05 198.932 87.9209 196.524 88.6511C196.39 88.6863 196.265 88.7127 196.132 88.7127V88.7039ZM210.998 80.9356C210.623 80.9356 210.258 80.7861 209.99 80.487C209.5 79.9415 209.553 79.1058 210.115 78.6219C211.881 77.0911 213.37 75.402 214.538 73.6073C214.94 72.9914 215.769 72.8155 216.384 73.2114C217.009 73.6073 217.187 74.4255 216.786 75.0325C215.484 77.0295 213.834 78.9034 211.881 80.6013C211.622 80.8213 211.31 80.9268 210.998 80.9268V80.9356Z" fill="#212C26"/>
<path d="M183.355 82C182.668 82 182.08 81.4956 182.008 80.8142C181.927 80.0885 182.469 79.4336 183.21 79.354C186.871 78.9735 189.972 78.5133 192.684 77.9734C205.203 75.4513 214.288 64.4336 214.288 51.7699V28.3274C214.288 27.5929 214.894 27 215.644 27C216.394 27 217 27.5929 217 28.3274V51.7788C217 65.6991 207.002 77.8053 193.226 80.5752C190.433 81.1327 187.251 81.6018 183.5 81.9911C183.454 81.9911 183.4 81.9911 183.355 81.9911V82Z" fill="#212C26"/>
<path d="M161.357 83.9912C160.688 83.9912 160.101 83.5092 160.01 82.8431C159.92 82.1245 160.444 81.4672 161.185 81.3708C165.342 80.8537 169.708 80.5294 173.928 80.2051L176.531 80.0036C177.281 79.951 177.932 80.4856 177.995 81.213C178.058 81.9404 177.498 82.5715 176.748 82.6328L174.136 82.8344C169.943 83.1499 165.613 83.4829 161.519 83.9912C161.465 83.9912 161.402 84 161.348 84L161.357 83.9912Z" fill="#212C26"/>
<path d="M131.37 101C131.188 101 131.005 100.964 130.832 100.891C130.139 100.599 129.811 99.7869 130.112 99.0937C133.604 90.8848 140.341 85.7862 151.3 83.0408C152.038 82.8584 152.777 83.3053 152.959 84.035C153.142 84.7646 152.695 85.5126 151.965 85.695C141.9 88.2124 135.755 92.8094 132.628 100.161C132.409 100.681 131.899 100.991 131.37 100.991V101Z" fill="#212C26"/>
<circle cx="180" cy="57" r="55.5" stroke="#212C26" stroke-width="3"/>
</g>
<defs>
<clipPath id="clip0_2603_16871">
<rect x="251" width="114" height="114" rx="57" fill="white"/>
</clipPath>
<clipPath id="clip1_2603_16871">
<rect x="123" width="114" height="114" rx="57" fill="white"/>
</clipPath>
</defs>
</svg>
