<svg width="453" height="353" preserveAspectRatio="none" viewBox="0 0 453 353" fill="none" xmlns="http://www.w3.org/2000/svg">
<path d="M87.953 8.17719C89.4989 10.8101 93.3795 10.6571 95.6604 9.52093C96.2226 9.23689 98.5685 7.95869 98.6118 6.09056C98.6982 3.10811 93.0338 -0.704621 89.7258 1.29461C87.7152 2.50725 86.6017 5.85022 87.953 8.17719Z" fill="#edcc94"/>
<path d="M450.968 77.1154C451.018 76.2762 450.879 75.4397 450.74 74.6055C450.6 73.767 450.461 72.9306 450.514 72.0965V72.0955C451.125 62.5229 451.721 53.2062 450.767 43.5638C450.767 35.6382 449.186 30.66 447.248 27.2021C447.366 26.3938 447.481 25.5736 447.594 24.7413C446.505 24.7387 445.737 24.5145 445.196 24.1459C444.894 23.7625 444.594 23.4017 444.299 23.0591C443.908 22.1949 443.896 21.1197 443.886 20.1374C443.87 18.709 443.857 17.4769 442.684 17.3762C441.101 17.2402 440.104 14.7335 439.153 12.3445C438.224 10.0115 437.341 7.79069 436 7.99917C435.205 7.74583 434.141 7.50595 432.864 7.26429C433.074 7.10245 433.224 6.90816 433.285 6.67798C433.566 5.61828 431.901 4.03419 430.161 3.6846C428.183 3.29131 425.848 4.46026 425.805 5.59643C425.798 5.77569 425.848 5.95439 425.946 6.12856C423.283 5.73199 422.488 4.97174 421.756 4.27247C420.996 3.54561 420.305 2.88462 417.657 2.76643C417.638 2.69401 417.611 2.62549 417.573 2.56183C416.996 1.60504 414.158 1.63164 412.714 2.61959C400.432 2.4407 390.94 3.71785 390.46 5.47729C386.708 5.46691 383.33 5.67846 380.635 5.99221C378.942 6.19039 377.491 6.43243 376.217 6.6967C375.326 6.46969 374.347 6.25294 373.29 6.06691C372.031 5.84488 370.813 5.69261 369.632 5.59882C369.206 3.42326 363.491 -0.338632 361.306 1.11977C360.131 1.90871 359.9 4.25201 360.699 5.92002C360.045 6.01475 359.407 6.12152 358.781 6.23707C358.741 5.38978 358.141 4.31449 357.35 3.73079C355.134 2.103 351.426 4.36442 351.48 5.52245C351.514 6.16937 352.725 6.84927 354.15 7.26429C353.614 7.39781 353.09 7.53154 352.576 7.66256L352.564 7.66557C351.993 7.81124 351.435 7.95354 350.889 8.08848C350.202 8.02882 349.462 7.97735 348.659 7.93681C343.465 7.68397 339.596 8.07716 337.558 8.28429C337.394 8.3009 337.242 8.31631 337.103 8.3301C336.036 8.43314 334.982 8.50291 333.944 8.54398C329.547 8.1648 324.212 7.57978 317.632 6.85633C302.835 5.23294 295.666 3.44674 291.051 2.29676C286.246 1.09963 284.208 0.59195 279.214 1.6751C275.975 2.37522 273.092 3.39829 270.438 4.49448C268.738 4.85526 267.359 5.37568 266.993 5.99126C266.72 6.11383 266.45 6.23593 266.181 6.35722L266.068 6.40823C264.47 7.12903 262.94 7.8195 261.441 8.40891C256.316 6.29298 254.593 6.00398 254.352 6.44014C254.065 6.94537 255.554 8.88489 257.794 9.61671C255.512 10.1995 253.236 10.3999 250.83 9.9546C251.604 9.83735 252.207 9.56916 252.298 9.24779C252.579 8.27549 248.525 5.62078 247.261 6.53846C246.698 6.9536 246.709 8.04608 247.055 8.72341L247.07 8.75242C244.219 7.45219 242.155 5.57055 240.795 4.08782V9.76415C239.929 9.56465 239.073 9.36115 238.222 9.15905C231.779 7.62766 225.675 6.17684 218.084 7.16118C217.775 7.20148 217.427 7.25039 217.042 7.30459L217.041 7.3048L217.035 7.30554L217.033 7.3059L217.03 7.30636L217.018 7.30801L217.015 7.30836C213.954 7.73962 208.569 8.49798 201.523 7.93683C200.034 7.82144 199.153 7.69914 198.276 7.57732C197.244 7.43389 196.216 7.29115 194.205 7.16118C189.87 6.87714 184.281 6.51662 178.801 7.93684C175.453 8.79801 173.675 9.92428 171.905 11.0455C170.846 11.7164 169.789 12.3856 168.401 12.995C162.285 15.671 157.293 13.8616 150.12 11.2617C144.056 9.06405 136.435 6.3016 125.258 5.20566C116.005 4.30983 111.313 5.22751 107.541 6.7679C105.223 7.71478 103.859 8.64607 102.653 9.46933C101.188 10.4697 99.9561 11.3107 97.5307 11.8261C93.6153 12.6566 90.9844 11.696 88.2344 10.6918C85.9202 9.84683 83.5216 8.971 80.2021 9.10579C76.3052 9.26134 74.3926 10.6783 71.9486 12.4889C70.1012 13.8576 67.95 15.4514 64.4087 16.8951C55.6992 20.4508 46.8243 19.7339 40.1216 18.4264C37.4518 17.3874 33.7483 15.1418 30.4227 13.1254C26.9767 11.036 23.9364 9.19261 22.8727 9.19272C22.4856 9.19276 22.0566 9.178 21.593 9.16205C15.1953 8.94194 2.21665 8.49544 2.21665 43.5961C1.26439 53.2282 1.85705 62.4292 2.46776 71.9104C2.57321 73.5475 2.67919 75.1928 2.77785 76.8502C2.64522 77.4842 2.96574 78.2318 3.27064 78.9429C3.48221 79.4364 3.68626 79.9124 3.72614 80.3206C2.17865 83.6075 1.62383 92.8641 3.33112 101.257C3.55838 102.394 5.57845 112.344 7.77528 112.23C8.35977 112.202 8.94911 111.456 9.46644 110.189C9.63141 110.874 9.79884 111.588 9.96693 112.331C9.54005 115.706 9.04756 119.261 8.53217 122.981L8.21546 125.269C8.02115 124.841 7.80348 124.6 7.55988 124.582C5.88945 124.467 2.90839 134.902 3.13968 145.298C3.23327 149.494 3.85071 153.626 4.65318 157.045C3.92566 167.33 3.68721 178.263 4.44216 189.672C4.694 193.496 5.08423 197.775 5.50514 202.391L5.50532 202.393L5.50552 202.395L5.50574 202.397C6.47741 213.052 7.61232 225.496 7.58589 238.26C7.56897 245.457 7.1893 249.923 6.90261 253.295C6.59192 256.95 6.39042 259.32 6.87806 262.49C6.58529 263.418 6.30806 264.662 6.02877 266.153C5.84174 265.908 5.6172 265.732 5.35119 265.661C4.12652 265.333 2.29583 267.277 1.89182 269.31C1.55053 271.045 2.22718 273.015 3.14138 273.91C3.11935 277.576 4.22713 281.615 5.57865 283.613C6.37306 284.788 7.03011 285.76 7.11588 286.613C7.13508 286.804 7.1529 286.981 7.16883 287.144C7.28791 288.39 7.36854 289.621 7.416 290.834C7.21523 293.187 5.87199 296.224 4.39494 299.564C2.6483 303.513 0.714457 307.886 0.261465 312.05C-0.898619 322.738 2.0542 328.472 4.16287 332.567C5.46439 335.095 6.44432 336.998 5.93709 339.056C10.7471 341.052 15.3665 342.252 19.7944 342.708C23.7409 345.38 29.3876 348.33 37.6065 351.432C47.2481 352.385 56.5636 351.79 66.1354 351.179H66.1366L66.1388 351.178C72.0252 350.803 78.009 350.42 84.2248 350.388C85.0395 350.845 85.9588 351.22 86.9832 351.432C89.7571 352.008 92.4754 351.227 94.7559 350.084C97.4041 349.94 100.053 349.742 102.702 349.484C105.989 351.031 115.246 351.586 123.639 349.879C124.776 349.651 134.726 347.631 134.612 345.435C134.583 344.85 133.838 344.261 132.57 343.743C133.256 343.578 133.97 343.411 134.713 343.243C138.087 343.67 141.64 344.162 145.359 344.677L145.363 344.678L145.368 344.678L145.371 344.679L147.651 344.994C147.223 345.189 146.981 345.406 146.964 345.65C146.848 347.32 157.283 350.301 167.68 350.07C171.876 349.977 176.007 349.359 179.426 348.557C189.711 349.284 200.645 349.523 212.053 348.768C215.877 348.516 220.157 348.126 224.772 347.705L224.774 347.704L224.776 347.704L224.779 347.704C235.433 346.732 247.878 345.598 260.642 345.624C267.838 345.641 272.303 346.021 275.675 346.307L275.677 346.307C279.331 346.618 281.702 346.819 284.872 346.332C285.8 346.625 287.043 346.902 288.535 347.181C288.289 347.368 288.114 347.593 288.042 347.859C287.714 349.083 289.659 350.914 291.692 351.318C294.003 351.773 296.73 350.422 296.78 349.109C296.789 348.901 296.729 348.695 296.616 348.494C302.959 349.428 309.402 349.993 315.471 350.261C315.483 350.305 315.497 350.348 315.514 350.389C315.53 350.427 315.548 350.463 315.569 350.497C316.243 351.603 319.558 351.572 321.244 350.431C335.591 350.637 346.679 349.161 347.239 347.128C351.621 347.14 355.568 346.896 358.716 346.533C360.693 346.304 362.388 346.024 363.875 345.719C364.916 345.981 366.06 346.232 367.295 346.447C368.765 346.703 370.189 346.879 371.568 346.988C372.065 349.502 378.741 353.849 381.293 352.164C382.666 351.252 382.936 348.544 382.003 346.616C382.766 346.507 383.512 346.384 384.242 346.25C384.289 347.229 384.99 348.472 385.914 349.146C388.503 351.028 392.834 348.414 392.77 347.076C392.731 346.328 391.317 345.542 389.652 345.063C390.273 344.91 390.881 344.756 391.477 344.606L391.504 344.599C391.792 344.527 392.077 344.455 392.359 344.384C392.731 344.291 393.098 344.199 393.46 344.11C394.263 344.179 395.127 344.239 396.066 344.286C402.133 344.578 406.652 344.123 409.033 343.884L409.345 343.853L409.564 343.831C410.81 343.712 412.041 343.631 413.254 343.584C415.496 343.775 418.299 343.439 421.385 343.07C425.371 342.593 429.83 342.059 434.161 342.53C435.685 341.006 437.11 339.511 438.438 338.044C441.054 336.431 442.897 334.02 444.475 330.68C451.269 321.351 453.694 313.309 452.245 306.447C452.484 305.669 452.729 304.876 452.984 304.068C452.528 299.883 449.615 294.994 446.985 290.579C444.784 286.884 442.78 283.522 442.581 281.182C442.628 279.968 442.709 278.738 442.828 277.492L442.832 277.446C442.847 277.295 442.863 277.134 442.881 276.961L442.881 276.959C442.904 276.733 443.019 276.183 443.145 275.583L443.145 275.582L443.145 275.58L443.191 275.363L443.234 275.155H443.611C444.009 278.631 445.436 282.505 446.281 282.394C447.094 282.291 449.029 278.501 449.694 275.155H449.838L449.774 274.712C449.799 274.563 449.821 274.416 449.84 274.271C449.996 274.339 450.155 274.372 450.315 274.366C451.628 274.315 452.979 271.588 452.525 269.277C452.12 267.244 450.29 265.3 449.065 265.628C448.799 265.7 448.575 265.875 448.388 266.12C448.108 264.629 447.831 263.386 447.538 262.457C448.026 259.287 447.824 256.917 447.514 253.263C447.227 249.891 446.847 245.424 446.83 238.227C446.804 225.463 447.939 213.019 448.911 202.364L448.911 202.362L448.911 202.36L448.911 202.358C449.332 197.742 449.722 193.463 449.974 189.639C450.729 178.23 450.491 167.297 449.763 157.012C450.566 153.593 451.183 149.462 451.277 145.265C451.508 134.869 448.527 124.434 446.856 124.549C446.613 124.567 446.395 124.808 446.201 125.236L445.885 122.956L445.885 122.954L445.884 122.948L445.884 122.945C445.368 119.226 444.876 115.672 444.449 112.298C444.617 111.555 444.785 110.841 444.95 110.156C445.467 111.423 446.057 112.169 446.641 112.197C448.838 112.311 450.858 102.361 451.085 101.225C452.792 92.8311 452.238 83.5747 450.69 80.2877C450.793 79.2303 450.887 78.1728 450.971 77.1153L450.968 77.1154Z" fill="#edcc94"/>
<path d="M206.863 7.46707C209.728 8.3629 212.841 6.77881 212.831 5.70819C212.82 3.91653 203.955 1.68788 203.069 3.30474C202.572 4.2115 204.399 6.69141 206.863 7.46707Z" fill="#edcc94"/>
<path d="M161.44 13.6723C165.256 14.153 168.52 10.4386 168.066 9.3352C167.396 7.71834 157.818 9.30243 157.613 11.3126C157.505 12.3067 159.688 13.4538 161.44 13.6723Z" fill="#edcc94"/>
<path d="M152.575 6.78974C151.689 7.83852 152.316 9.66295 153.321 10.5588C153.408 10.6352 154.575 11.6512 155.656 11.2252C156.932 10.7226 157.57 8.41753 156.499 7.07378C155.548 5.88299 153.473 5.73004 152.575 6.78974Z" fill="#edcc94"/>
<path d="M66.3437 12.7437C66.0409 15.6606 61.209 17.6052 57.5228 17.6599C51.1125 17.7473 44.6265 12.1538 45.3615 8.95285C46.1183 5.63173 54.8959 3.75268 60.9712 6.70236L60.9868 6.71029C61.4684 6.95295 66.6639 9.57121 66.3437 12.7437Z" fill="#edcc94"/>
<path d="M41.4697 14.011C40.1726 15.1144 37.7512 14.1858 36.4323 13.1698C34.0541 11.3454 33.0488 7.54356 34.2055 6.46201C35.6865 5.0855 41.5454 7.42339 42.2371 10.9739C42.421 11.9025 42.3346 13.29 41.4697 14.011Z" fill="#edcc94"/>
<path d="M341 6.58948C337.534 6.91192 333.981 5.19967 334.102 4.26571C334.311 2.59793 346.523 1.95306 346.908 3.5986C347.128 4.48808 344.025 6.31152 341 6.58948Z" fill="#edcc94"/>
<path d="M2.08122 192.972C3.14176 193.023 4.3033 198.958 2.97763 199.677C2.42211 199.98 1.48782 199.324 1.04593 198.781C-0.620626 196.811 1.21006 192.922 2.08122 192.972Z" fill="#edcc94"/>
<path d="M450.896 192.972C449.835 193.023 448.674 198.958 449.999 199.677C450.555 199.98 451.489 199.324 451.931 198.781C453.598 196.811 451.767 192.922 450.896 192.972Z" fill="#edcc94"/>
<path d="M2.62448 297.478C3.70383 297.62 5.68264 293.469 5.31001 289.421C4.98878 285.887 2.88147 282.263 1.85351 282.52C-0.0481949 282.97 0.697072 297.234 2.62448 297.478Z" fill="#edcc94"/>
<path d="M222.092 348.793C221.372 347.467 215.437 348.629 215.387 349.689C215.337 350.56 219.225 352.391 221.195 350.725C221.738 350.283 222.395 349.348 222.092 348.793Z" fill="#edcc94"/>
<path d="M413.07 348.528C413.211 347.449 409.06 345.47 405.012 345.843C401.478 346.164 397.854 348.271 398.111 349.299C398.561 351.201 412.825 350.456 413.07 348.528Z" fill="#edcc94"/>
</svg>
