<svg width="1920" height="286" viewBox="0 0 1920 286" fill="none" xmlns="http://www.w3.org/2000/svg">
<mask id="mask0_1282_17594" style="mask-type:luminance" maskUnits="userSpaceOnUse" x="0" y="3" width="1920" height="280">
<path d="M0 3H1920V283H0V3Z" fill="white"/>
</mask>
<g mask="url(#mask0_1282_17594)">
<mask id="mask1_1282_17594" style="mask-type:luminance" maskUnits="userSpaceOnUse" x="0" y="3" width="1920" height="280">
<path d="M0 3H1920V283H0V3Z" fill="white"/>
</mask>
<g mask="url(#mask1_1282_17594)">
<path d="M2027.74 136.27C1928.2 128.618 1796.98 117.027 1646.47 73.2892C1529.91 39.4132 1524.38 19.4333 1450.06 8.70701C1273.62 -16.7481 1245.64 52.2848 1044.42 33.9059C973.851 27.4701 922.569 13.9581 850.3 35.4748C818.01 45.0805 793.01 58.2723 741.38 66.9815C696.23 74.602 675.4 71.272 630.89 73.2892C551.72 76.8753 535.25 91.1878 458.84 101.626C390.68 110.943 341.29 108.126 255.25 103.195C131.03 96.0867 116.52 162.175 -0.0100098 126.485C-39.8 114.295 -21.86 150.359 -32 164.607V626H2053L2027.74 136.27Z" fill="#30453A"/>
</g>
</g>
</svg>
