<svg width="1920" height="280" viewBox="0 0 1920 280" fill="none" xmlns="http://www.w3.org/2000/svg">
<g clip-path="url(#clip0_1014_16478)">
<path d="M-107.744 133.27C-8.19526 125.618 123.022 114.027 273.532 70.2892C390.089 36.4132 395.615 16.4333 469.94 5.70699C646.38 -19.7481 674.364 49.2848 875.579 30.9059C946.149 24.4701 997.431 10.9581 1069.7 32.4748C1101.99 42.0805 1126.99 55.2723 1178.62 63.9815C1223.77 71.602 1244.6 68.272 1289.11 70.2892C1368.28 73.8753 1384.75 88.1878 1461.16 98.6259C1529.32 107.943 1578.71 105.126 1664.75 100.195C1788.97 93.0867 1803.48 159.175 1920.01 123.485C1959.8 111.295 1941.86 147.359 1952 161.607V623H-133L-107.744 133.27Z" fill="#EDCC94"/>
</g>
<defs>
<clipPath id="clip0_1014_16478">
<rect width="1920" height="280" fill="white"/>
</clipPath>
</defs>
</svg>
