<svg width="1920" height="286" viewBox="0 0 1920 286" fill="none" xmlns="http://www.w3.org/2000/svg">
<mask id="mask0_1282_17587" style="mask-type:luminance" maskUnits="userSpaceOnUse" x="0" y="3" width="1920" height="280">
<path d="M1920 3H0V283H1920V3Z" fill="white"/>
</mask>
<g mask="url(#mask0_1282_17587)">
<path d="M502.256 136.27C601.805 128.618 733.022 117.027 883.532 73.2892C1000.09 39.4132 1005.61 19.4333 1079.94 8.70701C1256.38 -16.7481 1284.36 52.2848 1485.58 33.9059C1556.15 27.4701 1607.43 13.9581 1679.7 35.4748C1711.99 45.0805 1736.99 58.2723 1788.62 66.9815C1833.77 74.602 1854.6 71.272 1899.11 73.2892C1978.28 76.8753 1994.75 91.1878 2071.16 101.626C2139.32 110.943 2188.71 108.126 2274.75 103.195C2398.97 96.0867 2413.48 162.175 2530.01 126.485C2569.8 114.295 2551.86 150.359 2562 164.607V626H477L502.256 136.27Z" fill="#EDCC94"/>
<path d="M-1417.74 136.27C-1318.2 128.618 -1186.98 117.027 -1036.47 73.2892C-919.911 39.4132 -914.385 19.4333 -840.06 8.70701C-663.62 -16.7481 -635.636 52.2848 -434.421 33.9059C-363.851 27.4701 -312.569 13.9581 -240.3 35.4748C-208.01 45.0805 -183.01 58.2723 -131.38 66.9815C-86.23 74.602 -65.4 71.272 -20.89 73.2892C58.28 76.8753 74.75 91.1878 151.16 101.626C219.32 110.943 268.71 108.126 354.75 103.195C478.97 96.0867 493.48 162.175 610.01 126.485C649.8 114.295 631.86 150.359 642 164.607V626H-1443L-1417.74 136.27Z" fill="#EDCC94"/>
</g>
</svg>
