<svg width="1920" height="341" viewBox="0 0 1920 341" fill="none" xmlns="http://www.w3.org/2000/svg">
<g clip-path="url(#clip0_4016_23657)">
<mask id="mask0_4016_23657" style="mask-type:luminance" maskUnits="userSpaceOnUse" x="-1" y="3" width="1922" height="335">
<path d="M1921 3H-1V338H1921V3Z" fill="white"/>
</mask>
<g mask="url(#mask0_4016_23657)">
<path d="M1960.64 95.1996C1860.99 87.5471 1714.08 110.719 1563.42 66.9815C1446.74 33.1054 1441.88 19.4333 1367.48 8.70701C1190.86 -16.7481 1162.85 52.2848 961.423 33.9059C890.779 27.4701 839.444 13.9581 767.097 35.4748C734.78 45.0805 709.755 58.2723 658.065 66.9815C612.865 74.602 592.015 71.272 547.458 73.2892C468.205 76.8753 451.725 91.1878 375.235 101.626C307.001 110.943 257.56 108.126 171.433 103.195C47.0763 96.0867 -2.84612 79.1807 -60.1575 112.64C-88.1064 128.97 -105.968 150.359 -116.12 164.607V316H1971.05L1960.64 95.1996Z" fill="#BC6C4E"/>
</g>
<mask id="mask1_4016_23657" style="mask-type:luminance" maskUnits="userSpaceOnUse" x="-1" y="175" width="1922" height="163">
<path d="M1921 175H-1V338H1921V175Z" fill="white"/>
</mask>
<g mask="url(#mask1_4016_23657)">
<path d="M-90.8376 308.27C8.81463 300.618 140.849 282.719 291.516 238.981C408.194 205.105 413.046 191.433 487.448 180.707C664.072 155.252 692.085 224.285 893.509 205.906C964.153 199.47 1015.49 185.958 1087.83 207.475C1120.16 217.081 1145.18 230.272 1196.87 238.981C1242.06 246.602 1262.91 243.272 1307.47 245.289C1386.72 248.875 1403.21 263.188 1479.7 273.626C1547.93 282.943 1597.37 280.126 1683.5 275.195C1807.85 268.087 1924.47 300.195 1924.47 300.195C1924.47 300.195 1974.5 320.107 1984.65 334.355L1971.05 798H-116.12L-90.8376 308.27Z" fill="#9B553A"/>
</g>
</g>
<defs>
<clipPath id="clip0_4016_23657">
<rect width="1920" height="341" fill="white"/>
</clipPath>
</defs>
</svg>
