<svg width="1920" height="341" viewBox="0 0 1920 341" fill="none" xmlns="http://www.w3.org/2000/svg">
<mask id="mask0_1282_17576" style="mask-type:luminance" maskUnits="userSpaceOnUse" x="0" y="3" width="1920" height="335">
<path d="M1920 3H0V338H1920V3Z" fill="white"/>
</mask>
<g mask="url(#mask0_1282_17576)">
<path d="M1959.6 95.1996C1860.05 87.5471 1713.3 110.719 1562.79 66.9815C1446.23 33.1054 1441.38 19.4333 1367.06 8.707C1190.62 -16.7481 1162.64 52.2848 961.421 33.9059C890.851 27.4701 839.569 13.9581 767.298 35.4748C735.014 45.0805 710.015 58.2723 658.379 66.9815C613.226 74.602 592.398 71.272 547.887 73.2892C468.717 76.8753 452.254 91.1878 375.843 101.626C307.68 110.943 258.291 108.126 172.253 103.195C48.0261 96.0867 -1.84436 79.1807 -59.0961 112.64C-87.0159 128.97 -104.859 150.359 -115 164.607V626H1970L1959.6 95.1996Z" fill="#BC6C4E"/>
</g>
<mask id="mask1_1282_17576" style="mask-type:luminance" maskUnits="userSpaceOnUse" x="0" y="175" width="1920" height="163">
<path d="M1920 175H0V338H1920V175Z" fill="white"/>
</mask>
<g mask="url(#mask1_1282_17576)">
<path d="M-89.7438 308.27C9.80474 300.618 141.702 282.719 292.212 238.981C408.769 205.105 413.615 191.433 487.94 180.707C664.38 155.252 692.364 224.285 893.579 205.906C964.149 199.47 1015.43 185.958 1087.7 207.475C1119.99 217.081 1144.99 230.272 1196.62 238.981C1241.77 246.602 1262.6 243.272 1307.11 245.289C1386.28 248.875 1402.75 263.188 1479.16 273.626C1547.32 282.943 1596.71 280.126 1682.75 275.195C1806.97 268.087 1923.47 300.195 1923.47 300.195C1923.47 300.195 1973.44 320.107 1983.58 334.355L1970 798H-115L-89.7438 308.27Z" fill="#9B553A"/>
</g>
</svg>
