<svg width="1920" height="335" viewBox="0 0 1920 335" fill="none" xmlns="http://www.w3.org/2000/svg">
<g clip-path="url(#clip0_2605_1472)">
<path d="M1959.6 92.1996C1860.05 84.5471 1713.3 107.719 1562.79 63.9815C1446.23 30.1054 1441.38 16.4333 1367.06 5.70699C1190.62 -19.7481 1162.64 49.2848 961.421 30.9059C890.851 24.4701 839.569 10.9581 767.298 32.4748C735.014 42.0805 710.015 55.2723 658.379 63.9815C613.226 71.602 592.398 68.272 547.887 70.2892C468.717 73.8753 452.254 88.1878 375.843 98.6259C307.68 107.943 258.291 105.126 172.253 100.195C48.0261 93.0867 -1.84436 76.1807 -59.0961 109.64C-87.0159 125.97 -104.859 147.359 -115 161.607V623H1970L1959.6 92.1996Z" fill="#BC6C4E"/>
</g>
<g clip-path="url(#clip1_2605_1472)">
<path d="M-89.7438 305.27C9.80474 297.618 141.702 279.719 292.212 235.981C408.769 202.105 413.615 188.433 487.94 177.707C664.38 152.252 692.364 221.285 893.579 202.906C964.149 196.47 1015.43 182.958 1087.7 204.475C1119.99 214.081 1144.99 227.272 1196.62 235.981C1241.77 243.602 1262.6 240.272 1307.11 242.289C1386.28 245.875 1402.75 260.188 1479.16 270.626C1547.32 279.943 1596.71 277.126 1682.75 272.195C1806.97 265.087 1923.47 297.195 1923.47 297.195C1923.47 297.195 1973.44 317.107 1983.58 331.355L1970 795H-115L-89.7438 305.27Z" fill="#9B553A"/>
</g>
<defs>
<clipPath id="clip0_2605_1472">
<rect width="1920" height="335" fill="white"/>
</clipPath>
<clipPath id="clip1_2605_1472">
<rect width="1920" height="163" fill="white" transform="translate(0 172)"/>
</clipPath>
</defs>
</svg>
