<svg width="1920" height="439" viewBox="0 0 1920 439" fill="none" xmlns="http://www.w3.org/2000/svg">
<mask id="mask0_1282_17604" style="mask-type:luminance" maskUnits="userSpaceOnUse" x="0" y="3" width="1920" height="433">
<path d="M1920 3H0V436H1920V3Z" fill="white"/>
</mask>
<g mask="url(#mask0_1282_17604)">
<path d="M716.171 88.353C779.911 83.4519 864.363 71.9888 960.733 43.9769C1035.36 22.281 1038.47 13.5247 1086.05 6.65503C1199.03 -9.64761 1216.95 34.5644 1345.78 22.7937C1390.97 18.6719 1423.8 10.0181 1470.08 23.7985C1490.75 29.9504 1506.75 38.3991 1539.82 43.9769C1568.73 48.8574 1582.06 46.7248 1610.56 48.0167C1661.25 50.3134 1671.79 59.4798 1720.72 66.1649C1764.36 72.1323 1795.99 70.3277 1851.08 67.1697C1930.62 62.6173 1962.55 51.7899 1999.21 73.2192C2017.08 83.6775 2028.51 97.3758 2035 106.501V402H700L716.171 88.353Z" fill="#212C26"/>
<path d="M-174.829 88.353C-111.089 83.4519 -26.637 71.9888 69.7329 43.9769C144.363 22.281 147.466 13.5247 195.055 6.65503C308.027 -9.64761 325.945 34.5644 454.781 22.7937C499.966 18.6719 532.801 10.0181 579.075 23.7985C599.747 29.9504 615.753 38.3991 648.815 43.9769C677.726 48.8574 691.062 46.7248 719.562 48.0167C770.253 50.3134 780.795 59.4798 829.719 66.1649C873.363 72.1323 904.986 70.3277 960.075 67.1697C1039.62 62.6173 1071.55 51.7899 1108.21 73.2192C1126.08 83.6775 1137.51 97.3758 1144 106.501V402H-191L-174.829 88.353Z" fill="#212C26"/>
<path d="M-134 101.818C84.0566 111.055 238.279 107.032 337.031 101.818C544.031 90.8974 647.51 85.4372 671.597 81.6191C688.449 78.9506 722.669 73.1825 768.623 75.5636C859.689 80.2849 924.448 113.272 947.528 124.028C1075.94 183.803 1142.34 126.533 1444.82 161.388C1599.19 179.164 1610.06 197.331 1777.38 211.864C1881.12 220.875 1966.91 221.717 2024 220.957V436H-134V101.818Z" fill="#26372E"/>
<path d="M-107 116.146C22.7036 73.2991 124.6 71.345 194.21 77.701C276.911 85.2707 293.764 102.714 415.576 112.094C494.742 118.182 530.646 114.109 610.655 129.29C670.482 140.624 717.381 155.598 741.037 163.682C777.044 175.983 807.625 188.839 832 200.111V451H-107V116.146Z" fill="#212C26"/>
<path d="M542 237.146C671.704 194.299 773.6 192.345 843.21 198.701C925.911 206.271 942.764 223.714 1064.58 233.094C1143.74 239.182 1179.65 235.109 1259.65 250.29C1319.48 261.624 1366.38 276.598 1390.04 284.682C1426.04 296.983 1456.63 309.839 1481 321.111V572H542V237.146Z" fill="#212C26"/>
<path d="M1248.48 312.531C1369.82 249.79 1470.13 231.81 1539.88 227.123C1622.74 221.572 1642.13 236.143 1763.9 226.22C1843.03 219.763 1877.85 210.086 1959.25 212.475C2020.11 214.245 2068.79 221.645 2093.42 225.903C2130.91 232.378 2163.14 240.257 2188.99 247.55L2228.5 495.307L1301.22 643.205L1248.48 312.531Z" fill="#212C26"/>
</g>
</svg>
