<svg width="1920" height="369" viewBox="0 0 1920 369" fill="none" xmlns="http://www.w3.org/2000/svg">
<mask id="mask0_1282_17615" style="mask-type:luminance" maskUnits="userSpaceOnUse" x="0" y="3" width="1920" height="363">
<path d="M1920 3H0V366H1920V3Z" fill="white"/>
</mask>
<g mask="url(#mask0_1282_17615)">
<path d="M470.5 169.025C628.076 120.913 803.768 13.7067 889.787 21.3924C968.103 28.3981 1016.9 43.7282 1128.25 45.7063C1239.78 47.6843 1297.68 34.2087 1361.65 29.4901C1457.64 22.4226 1598.8 32.7663 1783 118.669V297.025H522L470.5 169.025Z" fill="#30453A"/>
<path d="M2028.88 24.7273L2029.12 903.7L-170.877 904.299L-171.111 45.2206C-55.6382 30.8067 123.962 11.8552 345.277 3.65859C712.601 -9.96089 747.853 186.55 1002.18 160.428C1257.75 134.162 1303.88 92.9537 1640.83 52.1391C1803.69 32.4114 1938.6 24.3821 2028.88 20.7003" fill="#2C3631"/>
<path d="M2130.5 396.025C1972.92 347.913 1797.23 240.707 1711.21 248.392C1632.9 255.398 1584.1 270.728 1472.75 272.706C1361.22 274.684 1303.32 261.209 1239.35 256.49C1143.36 249.423 1002.2 259.766 818 345.669V524.025H2079L2130.5 396.025Z" fill="#212C26"/>
<path d="M557.52 344.717C561.577 330.165 565.551 315.614 569.463 301.062L575.314 279.217L578.185 268.282C579.178 264.653 580.086 260.988 581.019 257.335L583.696 246.34L586.47 235.381C588.323 228.075 590.116 220.733 592.248 213.499C594.356 206.254 596.488 199.02 598.789 191.835C601.115 184.662 603.634 177.55 606.045 170.413C616.22 142.012 626.298 113.622 637.491 85.6562C648.562 57.6539 660.227 29.9177 673.419 2.74995L673.031 2.53223C671.105 5.78606 669.24 9.06409 667.362 12.3421C665.484 15.6201 663.595 18.8982 661.766 22.2125C660.857 23.8696 659.876 25.5026 659.04 27.1839L656.496 32.2522L651.445 42.4129C649.786 45.8118 648.09 49.1987 646.467 52.6098L641.9 62.9882L637.382 73.3908L635.141 78.6042C634.402 80.346 633.736 82.112 633.033 83.866C630.308 90.918 627.546 97.9579 624.905 105.034C622.301 112.134 619.915 119.307 617.407 126.432C616.184 130.012 614.888 133.556 613.725 137.149L610.309 147.951C609.158 151.543 608.032 155.16 606.941 158.765C605.827 162.369 604.725 165.986 603.707 169.627C601.575 176.872 599.552 184.142 597.336 191.363C595.216 198.609 593.096 205.854 590.855 213.052L584.072 234.655L580.668 245.457L577.409 256.307C575.29 263.553 573.267 270.834 571.462 278.165L568.688 289.148L566.096 300.179C562.668 314.888 559.591 329.682 557.108 344.584L557.52 344.717Z" fill="#B56647"/>
<path d="M593.326 207.161C622.143 181.058 653.844 157.023 693.115 143.874C712.12 137.536 732.289 135.214 753.378 135.238C763.662 135.383 774.237 135.734 783.479 138.818C793.424 141.443 800.256 149.366 797.942 158.486C804.132 149.62 797.022 137.645 786.604 133.327C771.257 126.069 754.008 125.005 737.267 124.738C675.127 123.71 620.799 162.103 593.326 207.161Z" fill="#B56647"/>
<path d="M624.057 113.973C625.147 111.566 626.456 109.292 627.812 107.066C629.181 104.84 630.635 102.675 632.197 100.595C635.262 96.3975 638.666 92.4663 642.288 88.7891C649.556 81.4347 657.78 75.0964 666.672 69.8225C675.514 64.476 685.011 60.2182 694.798 56.6983C704.598 53.1904 714.725 50.4688 725.021 48.1101C714.47 48.6181 703.944 50.3962 693.72 53.3477L689.88 54.4726L686.101 55.7911C683.569 56.6257 681.123 57.7022 678.627 58.6699C673.746 60.8472 668.925 63.1818 664.334 65.9517C659.767 68.758 655.346 71.7941 651.191 75.1931C647.097 78.6526 643.184 82.3298 639.695 86.4061C637.939 88.4262 636.267 90.5188 634.693 92.6719C633.166 94.8613 631.664 97.0748 630.332 99.3852C628.999 101.696 627.752 104.042 626.686 106.486C625.632 108.917 624.699 111.409 624.057 113.973Z" fill="#B56647"/>
<path d="M605.815 160.531C605.282 155.341 605.221 150.164 605.488 145.036C605.706 139.895 606.36 134.802 607.281 129.783C609.194 119.755 612.417 110.018 617.225 101.091C618.352 98.8167 619.697 96.6636 620.993 94.4863C622.41 92.3816 623.779 90.2406 625.341 88.2327C626.795 86.14 628.466 84.2289 630.078 82.2451C630.901 81.2774 631.798 80.3702 632.658 79.4267C633.506 78.4711 634.354 77.5156 635.286 76.6446C642.494 69.387 650.658 63.0245 659.343 57.2184C649.761 61.3673 640.774 67.0767 632.864 74.0924C631.846 74.9391 630.889 75.8584 629.944 76.7898C629.012 77.7212 628.043 78.6405 627.146 79.6082C625.39 81.5919 623.561 83.5273 621.95 85.6441C620.242 87.6883 618.8 89.9261 617.286 92.1155C615.893 94.3895 614.452 96.6273 613.252 98.9981C610.818 103.728 608.698 108.639 607.135 113.719C605.609 118.811 604.434 124.001 603.828 129.262C603.174 134.512 603.005 139.81 603.295 145.06C603.634 150.273 604.313 155.523 605.815 160.531Z" fill="#B56647"/>
<path d="M-130 336.039C74.7162 295.527 184.76 294.457 295.77 291C566.306 282.544 589.836 341.422 891.054 330.373C958.662 327.883 1095.46 320.929 1284.21 333.418C1344.09 337.368 1384.39 341.648 1404.49 343.541C1529.18 355.248 1722.64 354.405 2021 297V906H-128.705L-130 336.039Z" fill="#30453A"/>
</g>
</svg>
