<svg width="260" height="120" viewBox="0 0 260 120" fill="none" xmlns="http://www.w3.org/2000/svg">
<path d="M32.4139 58.7914C32.4139 58.4526 32.4799 58.1173 32.6079 57.8045C32.7358 57.4917 32.9234 57.2077 33.1597 56.9688C33.3961 56.7298 33.6765 56.5407 33.985 56.4122C34.2935 56.2836 34.624 56.2183 34.9574 56.2199L39.1743 56.2339C39.8467 56.2339 40.4915 56.5052 40.9669 56.9882C41.4424 57.4712 41.7095 58.1263 41.7095 58.8094V75.0093C42.1844 74.8663 42.7922 74.7138 43.4611 74.5538C43.9245 74.443 44.3375 74.1765 44.6331 73.7974C44.9287 73.4183 45.0896 72.9489 45.0897 72.4653V52.3719C45.0897 51.6888 45.3568 51.0337 45.8322 50.5506C46.3076 50.0675 46.9524 49.796 47.6249 49.7959H51.8546C52.527 49.796 53.1718 50.0675 53.6472 50.5506C54.1226 51.0337 54.3897 51.6888 54.3897 52.3719V71.0218C54.3897 71.0218 55.4479 70.5868 56.478 70.1448C56.8608 69.9803 57.1874 69.705 57.4172 69.3532C57.6469 69.0013 57.7696 68.5885 57.7699 68.1663V45.9329C57.7699 45.25 58.037 44.595 58.5123 44.112C58.9876 43.629 59.6323 43.3576 60.3046 43.3574H64.5299C65.2018 43.3581 65.846 43.6298 66.3209 44.1127C66.7958 44.5956 67.0626 45.2503 67.0626 45.9329V64.2413C70.7258 61.5444 74.4382 58.3004 77.3843 54.3999C77.8118 53.8337 78.0946 53.1689 78.2076 52.4646C78.3206 51.7604 78.2603 51.0387 78.032 50.3639C76.6683 46.378 74.5005 42.7252 71.6674 39.6392C68.8342 36.5533 65.3982 34.1022 61.5791 32.4427C57.76 30.7832 53.6419 29.952 49.4885 30.0021C45.335 30.0523 41.2376 30.9828 37.4584 32.734C33.6792 34.4852 30.3014 37.0186 27.5413 40.1721C24.7812 43.3256 22.6995 47.0297 21.4294 51.0474C20.1593 55.0651 19.7287 59.308 20.1653 63.5045C20.6019 67.7009 21.896 71.7586 23.9648 75.4178C24.3252 76.049 24.8555 76.5627 25.4933 76.8983C26.1312 77.234 26.85 77.3778 27.5655 77.3128C28.3648 77.2413 29.36 77.1403 30.5431 76.9993C31.0581 76.9397 31.5335 76.6899 31.8788 76.2973C32.2242 75.9047 32.4153 75.3968 32.4158 74.8703V58.7914" fill="#12161C"/>
<path d="M32.3232 84.7743C36.777 88.0659 42.0402 90.0416 47.5307 90.483C53.0211 90.9243 58.5247 89.814 63.4326 87.2749C68.3404 84.7358 72.4612 80.8669 75.339 76.0962C78.2167 71.3256 79.7394 65.8392 79.7383 60.244C79.7383 59.544 79.7063 58.855 79.6606 58.168C68.7526 74.6954 48.6121 82.4218 32.3232 84.7743Z" fill="#F0B90B"/>
<path d="M104.455 60.1739C105.883 60.4354 107.172 61.2081 108.087 62.3519C108.994 63.4843 109.478 64.9062 109.452 66.3659C109.496 67.3156 109.329 68.2633 108.964 69.1388C108.599 70.0143 108.045 70.7952 107.343 71.4238C105.937 72.6598 103.9 73.2778 101.23 73.2778H90.4932V47.8619H101.018C103.544 47.8619 105.487 48.4259 106.847 49.5539C108.207 50.6819 108.886 52.2653 108.885 54.3039C108.943 55.7061 108.51 57.0839 107.662 58.1919C106.845 59.2023 105.714 59.9011 104.455 60.1739ZM95.4897 58.5179H99.9881C101.009 58.5914 102.021 58.2913 102.843 57.6719C103.175 57.3674 103.434 56.9907 103.603 56.57C103.772 56.1493 103.845 55.6953 103.817 55.2419C103.844 54.7872 103.773 54.332 103.607 53.9086C103.442 53.4852 103.187 53.104 102.86 52.7919C102.223 52.2159 101.242 51.9279 99.9192 51.9279H95.4897V58.5179ZM100.238 69.1378C101.324 69.2104 102.401 68.8988 103.286 68.2558C103.647 67.9396 103.931 67.5426 104.115 67.0959C104.3 66.6493 104.38 66.1652 104.349 65.6819C104.377 65.1917 104.293 64.7015 104.106 64.2491C103.918 63.7966 103.631 63.3939 103.266 63.0719C102.383 62.4077 101.297 62.0825 100.201 62.1539H95.4897V69.1378H100.238ZM119.728 53.0819C122.114 53.0819 124.028 53.6939 125.469 54.9179C126.922 56.1633 127.879 57.9037 128.162 59.8139H123.486C123.334 58.9198 122.884 58.1063 122.211 57.5099C121.481 56.9102 120.561 56.6028 119.624 56.6459C118.911 56.6008 118.206 56.8181 117.637 57.2579C117.403 57.4612 117.218 57.7159 117.095 58.0028C116.972 58.2898 116.915 58.6013 116.929 58.9139C116.919 59.1648 116.965 59.4147 117.064 59.6451C117.162 59.8756 117.309 60.0809 117.496 60.2459C117.911 60.6032 118.393 60.8725 118.913 61.0379C119.48 61.2299 120.295 61.4579 121.358 61.7219C122.593 61.9828 123.807 62.3378 124.99 62.7839C125.927 63.1575 126.756 63.764 127.402 64.5479C128.115 65.4741 128.474 66.6315 128.412 67.8058C128.431 68.6052 128.262 69.3976 127.92 70.1176C127.578 70.8375 127.071 71.4642 126.443 71.9458C125.132 73.0005 123.366 73.5278 121.145 73.5278C118.594 73.5278 116.551 72.9465 115.015 71.7838C114.243 71.1865 113.597 70.4371 113.116 69.5804C112.635 68.7237 112.328 67.7774 112.216 66.7978H116.999C117.041 67.2539 117.176 67.696 117.396 68.0959C117.615 68.4957 117.915 68.8445 118.275 69.1198C119.113 69.7167 120.123 70.0142 121.145 69.9658C121.85 70.0153 122.547 69.79 123.094 69.3358C123.316 69.1283 123.491 68.8745 123.608 68.5917C123.724 68.309 123.778 68.004 123.768 67.6978C123.777 67.4347 123.729 67.1727 123.628 66.9302C123.527 66.6877 123.375 66.4706 123.183 66.2939C122.762 65.916 122.267 65.6337 121.73 65.4659C121.151 65.2739 120.331 65.0459 119.269 64.7819C118.061 64.5207 116.871 64.178 115.708 63.7559C114.801 63.4095 113.996 62.8333 113.369 62.0819C112.676 61.1813 112.33 60.0551 112.395 58.9139C112.374 58.1061 112.54 57.3046 112.878 56.5733C113.216 55.8421 113.718 55.2012 114.344 54.7019C115.642 53.6219 117.436 53.0819 119.728 53.0819ZM140.954 53.0819C143.239 53.0002 145.479 53.7395 147.28 55.1699C148.992 56.6027 150.122 58.629 150.451 60.8579H145.169C144.998 59.8738 144.482 58.9858 143.716 58.3579C142.893 57.7234 141.879 57.399 140.846 57.4399C140.22 57.4276 139.599 57.555 139.026 57.8131C138.454 58.0713 137.944 58.4538 137.533 58.9339C136.647 59.9299 136.204 61.3879 136.204 63.3079C136.204 65.2279 136.647 66.6859 137.533 67.6818C137.944 68.1619 138.454 68.5445 139.026 68.8026C139.599 69.0607 140.22 69.1882 140.846 69.1758C141.879 69.2168 142.893 68.8923 143.716 68.2578C144.482 67.6299 144.998 66.742 145.169 65.7579H150.449C150.12 67.9868 148.99 70.013 147.278 71.4458C145.476 72.8736 143.237 73.6108 140.954 73.5278C139.177 73.5621 137.421 73.1353 135.851 72.2878C134.378 71.4752 133.171 70.2426 132.379 68.7418C131.519 67.0658 131.092 65.1953 131.138 63.3059C131.094 61.4108 131.52 59.5349 132.379 57.8519C133.164 56.346 134.373 55.1116 135.851 54.3059C137.424 53.4692 139.179 53.0482 140.954 53.0819ZM171.181 66.3319C171.191 67.5923 170.86 68.8312 170.225 69.9138C169.544 71.0455 168.561 71.9571 167.39 72.5418C165.966 73.239 164.398 73.5773 162.818 73.5278C161.19 73.5562 159.574 73.2437 158.07 72.6098C156.741 72.0485 155.585 71.1346 154.723 69.9638C153.875 68.7867 153.377 67.3875 153.288 65.9319H158.603C158.696 66.9104 159.13 67.8232 159.826 68.5058C160.2 68.8556 160.638 69.1264 161.116 69.3025C161.593 69.4786 162.1 69.5566 162.608 69.5318C163.042 69.5614 163.478 69.5017 163.889 69.3563C164.3 69.211 164.677 68.9829 165 68.6858C165.277 68.3995 165.494 68.0587 165.637 67.6842C165.781 67.3097 165.847 66.9094 165.832 66.5079C165.859 65.7911 165.618 65.0907 165.159 64.5459C164.687 64.0125 164.106 63.5888 163.458 63.3039C162.773 62.9919 161.828 62.6319 160.623 62.2239C159.311 61.7981 158.032 61.2747 156.796 60.6579C155.786 60.1258 154.917 59.354 154.263 58.4079C153.522 57.2694 153.156 55.9213 153.217 54.5579C153.176 53.572 153.365 52.5901 153.768 51.6923C154.172 50.7946 154.778 50.0064 155.538 49.3919C157.086 48.1319 159.135 47.502 161.686 47.502C164.332 47.502 166.441 48.1499 168.012 49.4459C168.783 50.0772 169.419 50.863 169.879 51.7545C170.339 52.646 170.613 53.6241 170.685 54.6279H165.299C165.184 53.769 164.785 52.9753 164.167 52.3779C163.474 51.7608 162.571 51.4442 161.651 51.4959C160.843 51.4573 160.049 51.7198 159.419 52.2339C159.127 52.5032 158.899 52.8358 158.751 53.207C158.604 53.5782 158.54 53.9784 158.566 54.3779C158.543 55.0583 158.778 55.7217 159.222 56.2319C159.689 56.7461 160.256 57.1567 160.887 57.4379C161.784 57.8356 162.7 58.1841 163.633 58.4819C164.968 58.9446 166.276 59.4855 167.549 60.1019C168.578 60.6281 169.462 61.4078 170.118 62.3699C170.873 63.5428 171.245 64.9278 171.181 66.3279V66.3319ZM183.69 53.0819C185.975 53.0002 188.215 53.7395 190.016 55.1699C191.728 56.6027 192.858 58.629 193.187 60.8579H187.907C187.736 59.8738 187.22 58.9858 186.454 58.3579C185.631 57.7234 184.617 57.399 183.584 57.4399C182.958 57.4276 182.337 57.555 181.764 57.8131C181.192 58.0713 180.682 58.4538 180.271 58.9339C179.385 59.9299 178.942 61.3879 178.942 63.3079C178.942 65.2279 179.385 66.6859 180.271 67.6818C180.682 68.1619 181.192 68.5445 181.764 68.8026C182.337 69.0607 182.958 69.1882 183.584 69.1758C184.617 69.2168 185.631 68.8923 186.454 68.2578C187.22 67.6299 187.736 66.742 187.907 65.7579H193.187C192.857 67.9853 191.727 70.01 190.016 71.4418C188.214 72.8715 185.975 73.6101 183.69 73.5278C181.913 73.5621 180.157 73.1353 178.588 72.2878C177.114 71.4752 175.907 70.2426 175.115 68.7418C174.255 67.0658 173.828 65.1953 173.874 63.3059C173.83 61.4108 174.256 59.5349 175.115 57.8519C175.9 56.346 177.109 55.1116 178.588 54.3059C180.16 53.4692 181.915 53.0482 183.69 53.0819ZM204.42 53.0819C205.923 53.0388 207.403 53.4525 208.673 54.2699C209.831 55.0327 210.714 56.1571 211.189 57.4739V53.3339H216.15V73.2778H211.189V69.1018C210.711 70.4218 209.829 71.5513 208.673 72.3238C207.407 73.1517 205.925 73.5714 204.42 73.5278C202.849 73.5505 201.302 73.1265 199.956 72.3038C198.603 71.4548 197.525 70.2221 196.855 68.7578C196.077 67.0505 195.695 65.1847 195.739 63.3039C195.695 61.4231 196.077 59.5572 196.855 57.8499C197.525 56.3857 198.603 55.153 199.956 54.3039C201.303 53.4819 202.849 53.0586 204.42 53.0819ZM205.98 57.5099C205.281 57.4802 204.584 57.6031 203.936 57.8705C203.288 58.1379 202.704 58.5435 202.223 59.0599C201.278 60.0932 200.806 61.5099 200.806 63.3099C200.806 65.1099 201.278 66.5198 202.223 67.5398C202.707 68.0511 203.292 68.4519 203.939 68.7157C204.587 68.9795 205.283 69.1002 205.98 69.0698C206.677 69.0916 207.37 68.9633 208.015 68.6934C208.659 68.4235 209.241 68.0181 209.72 67.5038C210.738 66.3589 211.267 64.8506 211.191 63.3099C211.271 61.7577 210.742 60.2367 209.72 59.0799C209.241 58.5649 208.66 58.1588 208.015 57.8882C207.371 57.6176 206.677 57.4887 205.98 57.5099ZM232.38 53.0459C233.391 52.9999 234.401 53.179 235.337 53.5708C236.274 53.9625 237.115 54.5574 237.801 55.3139C239.147 56.8259 239.819 58.9499 239.819 61.6859V73.2778H234.858V62.2619C234.858 60.6779 234.457 59.4479 233.653 58.5719C233.228 58.1266 232.713 57.7789 232.145 57.5523C231.576 57.3256 230.966 57.2253 230.356 57.2579C229.723 57.2297 229.091 57.3405 228.504 57.5828C227.917 57.8251 227.388 58.1932 226.954 58.6619C226.103 59.5979 225.678 60.9419 225.678 62.6939V73.2778H220.686V53.3339H225.682V57.3279C226.173 56.0189 227.077 54.9115 228.251 54.1779C229.494 53.4086 230.927 53.0158 232.382 53.0459H232.38Z" fill="#12161C"/>
</svg>
