<svg width="260" height="120" viewBox="0 0 260 120" fill="none" xmlns="http://www.w3.org/2000/svg">
<path d="M56.961 69.2301L50.9263 75.5635C50.7958 75.7011 50.6377 75.8108 50.4619 75.886C50.2862 75.9611 50.0965 76 49.9046 76.0001H21.2978C21.1614 76.0001 21.0279 75.9611 20.9138 75.8879C20.7997 75.8147 20.7098 75.7105 20.6552 75.5881C20.6007 75.4657 20.5837 75.3304 20.6065 75.1988C20.6293 75.0671 20.6909 74.9448 20.7836 74.8468L26.8115 68.5135C26.942 68.3759 27.1001 68.2661 27.2758 68.191C27.4516 68.1159 27.6413 68.077 27.8331 68.0768H56.4399C56.5776 68.074 56.7131 68.1112 56.8293 68.1836C56.9454 68.256 57.0372 68.3604 57.0929 68.4836C57.1486 68.6069 57.1658 68.7436 57.1423 68.8764C57.1188 69.0093 57.0557 69.1323 56.961 69.2301ZM50.9263 56.4735C50.7953 56.3365 50.6371 56.2272 50.4614 56.1521C50.2858 56.077 50.0963 56.0378 49.9046 56.0368H21.2978C21.1614 56.0369 21.0279 56.0759 20.9138 56.1491C20.7997 56.2223 20.7098 56.3264 20.6552 56.4488C20.6007 56.5712 20.5837 56.7065 20.6065 56.8382C20.6293 56.9699 20.6909 57.0922 20.7836 57.1901L26.8115 63.5268C26.9425 63.6638 27.1007 63.7731 27.2763 63.8482C27.452 63.9233 27.6414 63.9625 27.8331 63.9635H56.4399C56.5761 63.9628 56.7091 63.9233 56.8227 63.8498C56.9363 63.7764 57.0257 63.6722 57.0798 63.5499C57.134 63.4277 57.1506 63.2926 57.1277 63.1613C57.1048 63.0299 57.0433 62.9079 56.9508 62.8101L50.9263 56.4735ZM21.2978 51.9235H49.9046C50.0965 51.9233 50.2862 51.8845 50.462 51.8093C50.6377 51.7342 50.7958 51.6244 50.9263 51.4868L56.961 45.1535C57.0317 45.0803 57.0851 44.9927 57.1172 44.897C57.1493 44.8013 57.1595 44.6998 57.1469 44.5998C57.1343 44.4998 57.0993 44.4037 57.0444 44.3185C56.9895 44.2333 56.916 44.161 56.8292 44.1068C56.713 44.0345 56.5776 43.9974 56.4399 44.0001H27.8331C27.6413 44.0003 27.4516 44.0392 27.2758 44.1143C27.1001 44.1895 26.942 44.2992 26.8115 44.4368L20.7836 50.7701C20.6909 50.8681 20.6293 50.9904 20.6065 51.1221C20.5837 51.2538 20.6007 51.3891 20.6552 51.5115C20.7098 51.6339 20.7997 51.738 20.9138 51.8112C21.0279 51.8844 21.1614 51.9234 21.2978 51.9235Z" fill="url(#paint0_linear_42_6103)"/>
<path d="M91.8368 57.5331H76.5322V52.5997H95.8145V47.6664H76.4811C75.8205 47.6628 75.1657 47.7866 74.554 48.0308C73.9423 48.2749 73.3858 48.6346 72.9161 49.0893C72.4465 49.5441 72.073 50.0849 71.8169 50.6809C71.5609 51.2769 71.4273 51.9165 71.4238 52.5631V57.5631C71.4264 58.2102 71.5593 58.8505 71.815 59.4473C72.0706 60.0441 72.444 60.5857 72.9137 61.0411C73.3835 61.4965 73.9403 61.8568 74.5524 62.1014C75.1646 62.346 75.82 62.47 76.4811 62.4664H91.8062V67.3997H71.7882V72.3331H91.8368C92.8317 72.3385 93.8059 72.055 94.6361 71.5184C95.4663 70.9817 96.1152 70.2161 96.5008 69.3184C96.7569 68.7225 96.8906 68.0829 96.8941 67.4364V62.4364C96.8915 61.7893 96.7585 61.149 96.5028 60.5522C96.2472 59.9555 95.8738 59.4139 95.4041 58.9585C94.9344 58.503 94.3776 58.1427 93.7654 57.8982C93.1533 57.6536 92.498 57.5295 91.8368 57.5331ZM121.486 47.6664H106.123C105.127 47.6586 104.15 47.9407 103.318 48.4769C102.485 49.0131 101.834 49.7792 101.447 50.6781C101.19 51.2748 101.056 51.9154 101.052 52.5631V67.4364C101.056 68.0841 101.19 68.7247 101.447 69.3217C101.834 70.2206 102.485 70.9867 103.318 71.5229C104.15 72.059 105.127 72.341 106.123 72.3331H121.486C122.146 72.3367 122.801 72.2129 123.413 71.9687C124.025 71.7246 124.581 71.3648 125.051 70.9101C125.52 70.4554 125.894 69.9146 126.15 69.3186C126.406 68.7225 126.54 68.083 126.543 67.4364V52.5631C126.54 51.9165 126.406 51.277 126.15 50.681C125.894 50.085 125.52 49.5443 125.05 49.0897C124.581 48.6349 124.024 48.275 123.413 48.0308C122.801 47.7866 122.146 47.6628 121.486 47.6664ZM121.448 67.3997H106.161V52.5997H121.441L121.448 67.3997ZM175.294 47.6664H160.309C159.649 47.6628 158.994 47.7866 158.382 48.0308C157.77 48.2749 157.214 48.6346 156.744 49.0893C156.275 49.5441 155.901 50.0849 155.645 50.6809C155.389 51.2769 155.255 51.9165 155.252 52.5631V72.3331H160.36V64.2297H175.277V72.3331H180.385V52.5631C180.382 51.9136 180.247 51.2713 179.989 50.673C179.731 50.0748 179.354 49.5324 178.881 49.0772C178.408 48.6221 177.847 48.2631 177.231 48.0209C176.616 47.7788 175.957 47.6583 175.294 47.6664ZM175.256 59.2964H160.34V52.5997H175.256V59.2964ZM234.942 47.6664H219.958C219.297 47.6628 218.642 47.7866 218.031 48.0308C217.419 48.2749 216.863 48.6346 216.393 49.0893C215.923 49.5441 215.55 50.0849 215.294 50.6809C215.038 51.2769 214.904 51.9165 214.901 52.5631V72.3331H220.009V64.2297H234.891V72.3331H240V52.5631C239.996 51.9165 239.863 51.277 239.607 50.681C239.35 50.085 238.977 49.5443 238.507 49.0897C237.559 48.1714 236.276 47.6594 234.942 47.6664ZM234.891 59.2964H219.975V52.5997H234.891V59.2964ZM205.263 67.3997H203.219L195.915 49.7331C195.664 49.1235 195.234 48.601 194.678 48.2328C194.122 47.8646 193.466 47.6673 192.795 47.6664H188.262C187.599 47.6629 186.949 47.8522 186.395 48.2103C185.842 48.5684 185.409 49.0792 185.153 49.6781C184.982 50.0755 184.893 50.502 184.891 50.9331V72.3331H189.999V52.5997H192.042L199.344 70.2664C199.598 70.8749 200.032 71.3952 200.59 71.761C201.149 72.1268 201.805 72.3213 202.477 72.3197H207.01C207.45 72.3221 207.887 72.2393 208.295 72.0763C208.703 71.9133 209.074 71.6732 209.387 71.3697C210.019 70.7571 210.377 69.9238 210.381 69.0531V47.6664H205.263V67.3997ZM136.164 47.6664H131.055V67.4364C131.059 68.0843 131.193 68.7253 131.45 69.3223C131.707 69.9194 132.082 70.4609 132.554 70.9157C133.025 71.3706 133.584 71.7299 134.197 71.9732C134.811 72.2164 135.468 72.3387 136.13 72.3331H151.455V67.3997H136.164V47.6664Z" fill="white"/>
<defs>
<linearGradient id="paint0_linear_42_6103" x1="23.6817" y1="76.7635" x2="52.9601" y2="43.0402" gradientUnits="userSpaceOnUse">
<stop offset="0.08" stop-color="#9945FF"/>
<stop offset="0.3" stop-color="#8752F3"/>
<stop offset="0.5" stop-color="#5497D5"/>
<stop offset="0.6" stop-color="#43B4CA"/>
<stop offset="0.72" stop-color="#28E0B9"/>
<stop offset="0.97" stop-color="#19FB9B"/>
</linearGradient>
</defs>
</svg>
