<svg width="260" height="120" viewBox="0 0 260 120" fill="none" xmlns="http://www.w3.org/2000/svg">
<mask id="mask0_2005_3679" style="mask-type:luminance" maskUnits="userSpaceOnUse" x="20" y="43" width="220" height="34">
<path d="M240 43.0769H20V76.9231H240V43.0769Z" fill="white"/>
</mask>
<g mask="url(#mask0_2005_3679)">
<path d="M72.0871 66.8798L60.6569 46.9489C58.1623 42.7982 52.0188 42.7608 49.5986 47.1359L37.6096 67.852C35.3756 71.6662 38.1308 76.4152 42.636 76.4152H66.7257C71.2309 76.4526 74.6192 71.5166 72.0871 66.8798Z" fill="#003087"/>
<path d="M55.592 68.4502L54.8845 67.2161C54.2143 66.057 52.7623 63.589 52.7623 63.589L43.0817 46.687C40.5871 42.9477 34.6299 42.6111 32.1352 47.3601L20.8537 66.9544C18.508 71.0677 21.3005 76.4151 26.3642 76.4524H50.3049H60.5066H66.5757C60.3949 76.4899 58.4218 73.2366 55.592 68.4502Z" fill="#1877F2"/>
<path d="M55.5933 68.3754L54.8859 67.1414C54.2157 65.9822 52.7637 63.5142 52.7637 63.5142L46.5085 52.4457L37.5354 67.8519C35.3014 71.6661 38.0566 76.4151 42.5618 76.4151H50.269H60.4709H66.5771C60.3592 76.3777 58.4231 73.1992 55.5933 68.3754Z" fill="url(#paint0_linear_2005_3679)"/>
<path d="M220.898 52.3871C222.573 50.8165 225.515 50.0686 229.796 50.0686H239.812V44.3474H227.972C225.142 44.3474 222.759 44.6465 220.898 45.2448C219.073 45.8432 217.472 46.778 216.094 48.0867C214.642 49.5078 213.488 51.2652 212.669 53.3593C211.85 55.4907 211.44 57.8091 211.44 60.2397C211.44 62.5582 211.85 64.8017 212.669 66.8585C213.488 68.9152 214.642 70.71 216.094 72.131C217.435 73.4397 219.036 74.3745 220.823 74.9728C222.648 75.5712 225.068 75.8704 227.972 75.8704H239.812V70.2239H229.796C227.525 70.2239 225.961 70.1491 225.068 69.9621C224.137 69.7752 223.281 69.476 222.573 69.0273C221.159 68.1298 220.078 66.9706 219.371 65.5123C218.7 64.0913 218.365 62.2964 218.365 60.2024C218.365 56.6125 219.223 53.9576 220.898 52.3871Z" fill="white"/>
<path d="M133.734 75.9449H161.659V70.4107H140.548V62.5205H158.979V57.2855H140.548V49.9563H161.659V44.3846H133.734V75.9449Z" fill="white"/>
<path d="M168.621 44.3846L181.691 60.1648L168.621 75.9449H177.073L187.387 63.4555V56.9115L177.073 44.3846H168.621Z" fill="white"/>
<path d="M200.344 44.3846L190.03 56.9115V63.4555L200.344 75.9449H208.796L195.69 60.1648L208.796 44.3846H200.344Z" fill="white"/>
<path d="M106.369 59.9404L93.8213 44.3846H87.3428V75.9449H94.1563V54.8922L105.028 67.9801H107.672L118.544 54.7801V75.9449H125.357V44.3846H118.954L106.369 59.9404Z" fill="white"/>
</g>
<defs>
<linearGradient id="paint0_linear_2005_3679" x1="34.3328" y1="60.8696" x2="62.177" y2="71.1146" gradientUnits="userSpaceOnUse">
<stop stop-color="#003087" stop-opacity="0"/>
<stop offset="1" stop-color="#003087"/>
</linearGradient>
</defs>
</svg>
