<svg width="260" height="120" viewBox="0 0 260 120" fill="none" xmlns="http://www.w3.org/2000/svg">
<g clip-path="url(#clip0_2007_2384)">
<path d="M61.5601 68.1307L48.0517 44.576C45.1036 39.6706 37.843 39.6264 34.9828 44.797L20.814 69.2797C18.1738 73.7874 21.43 79.3998 26.7543 79.3998H55.2239C60.5483 79.444 64.5526 73.6106 61.5601 68.1307Z" fill="#003087"/>
<path d="M42.0658 69.9866L41.2297 68.5282C40.4377 67.1583 38.7216 64.2416 38.7216 64.2416L27.2809 44.2665C24.3328 39.8473 17.2924 39.4495 14.3442 45.062L1.01146 68.2189C-1.7607 73.0801 1.5395 79.3997 7.52385 79.4438H35.8174H47.874H55.0466C47.742 79.4881 45.4101 75.6433 42.0658 69.9866Z" fill="#1877F2"/>
<path d="M42.0673 69.8983L41.2313 68.44C40.4392 67.07 38.7232 64.1533 38.7232 64.1533L31.3307 51.0723L20.7261 69.2796C18.086 73.7873 21.3421 79.3998 26.6664 79.3998H35.775H47.8317H55.0482C47.6997 79.3556 45.4116 75.5992 42.0673 69.8983Z" fill="url(#paint0_linear_2007_2384)"/>
<path d="M237.427 51.0029C239.407 49.1468 242.883 48.2629 247.943 48.2629H259.78V41.5015H245.787C242.443 41.5015 239.627 41.855 237.427 42.5621C235.27 43.2692 233.378 44.374 231.75 45.9207C230.034 47.6001 228.67 49.6771 227.702 52.1519C226.734 54.6708 226.25 57.4108 226.25 60.2833C226.25 63.0233 226.734 65.6748 227.702 68.1055C228.67 70.5361 230.034 72.6573 231.75 74.3366C233.334 75.8833 235.226 76.9881 237.339 77.6952C239.495 78.4023 242.355 78.7559 245.787 78.7559H259.78V72.0828H247.943C245.259 72.0828 243.411 71.9944 242.355 71.7734C241.255 71.5525 240.243 71.1989 239.407 70.6686C237.735 69.608 236.458 68.238 235.623 66.5145C234.83 64.8352 234.434 62.7139 234.434 60.2392C234.434 55.9966 235.447 52.859 237.427 51.0029Z" fill="white"/>
<path d="M134.416 78.844H167.418V72.3035H142.468V62.9788H164.25V56.7919H142.468V48.1301H167.418V41.5454H134.416V78.844Z" fill="white"/>
<path d="M175.646 41.5454L191.092 60.1947L175.646 78.844H185.635L197.824 64.0837V56.3499L185.635 41.5454H175.646Z" fill="white"/>
<path d="M213.136 41.5454L200.947 56.3499V64.0837L213.136 78.844H223.125L207.636 60.1947L223.125 41.5454H213.136Z" fill="white"/>
<path d="M102.075 59.9296L87.2462 41.5454H79.5898V78.844H87.6422V53.9635L100.491 69.431H103.615L116.464 53.831V78.844H124.516V41.5454H116.948L102.075 59.9296Z" fill="white"/>
</g>
<defs>
<linearGradient id="paint0_linear_2007_2384" x1="16.9413" y1="61.0278" x2="49.8481" y2="73.1356" gradientUnits="userSpaceOnUse">
<stop stop-color="#003087" stop-opacity="0"/>
<stop offset="1" stop-color="#003087"/>
</linearGradient>
<clipPath id="clip0_2007_2384">
<rect width="260" height="40" fill="white" transform="translate(0 40)"/>
</clipPath>
</defs>
</svg>
