<svg width="260" height="120" viewBox="0 0 260 120" fill="none" xmlns="http://www.w3.org/2000/svg">
<path fill-rule="evenodd" clip-rule="evenodd" d="M61.5092 82.4282C61.1958 81.812 61.1958 81.0053 61.1958 79.3918V40.6081C61.1958 38.9951 61.1958 38.1886 61.5091 37.5726C61.7846 37.0306 62.2244 36.59 62.7652 36.3139C63.38 36 64.1849 36 65.7946 36H80.8367C84.8462 36 86.851 36 88.4958 36.4416C92.9593 37.64 96.4457 41.1335 97.6417 45.606C98.0824 47.2541 98.0824 49.2628 98.0824 53.2803C98.0824 55.896 96.9003 56.8536 95.8922 57.6701C95.1428 58.277 94.4895 58.8061 94.4895 59.8807C94.4895 60.9395 95.2506 61.4687 96.1332 62.0825C97.3513 62.9295 98.801 63.9375 98.801 66.7209C98.801 70.7313 98.801 72.7365 98.3617 74.382C97.1671 78.8576 93.679 82.3539 89.2127 83.5524C87.5707 83.993 85.5696 83.9937 81.5673 83.9949L65.7961 84C64.1859 84.0005 63.3808 84.0007 62.7658 83.6869C62.2248 83.4108 61.7849 82.9702 61.5092 82.4282ZM116.364 74.1611L114.403 80.3146C114.036 81.4667 113.853 82.0427 113.503 82.4691C113.195 82.8456 112.796 83.1375 112.344 83.3175C111.833 83.5214 111.229 83.5214 110.022 83.5214H101.35L115.27 39.4575C115.635 38.3018 115.817 37.7239 116.167 37.2961C116.475 36.9184 116.875 36.6254 117.327 36.4447C117.84 36.24 118.444 36.24 119.654 36.24H129.206C130.416 36.24 131.021 36.24 131.533 36.4446C131.986 36.6253 132.385 36.9182 132.693 37.2959C133.043 37.7236 133.225 38.3013 133.59 39.4568L147.518 83.5214H138.841C137.634 83.5214 137.031 83.5214 136.519 83.3176C136.068 83.1376 135.669 82.8457 135.36 82.4693C135.011 82.043 134.827 81.467 134.46 80.3151L132.499 74.1611H116.364ZM118.81 66.4809H130.052L124.43 48.8404L118.81 66.4809ZM24.5988 83.5214C22.9891 83.5214 22.1842 83.5214 21.5694 83.2075C21.0286 82.9314 20.5888 82.4908 20.3133 81.9489C20 81.3328 20 80.5263 20 78.9133V36.48H27.3751C28.9848 36.48 29.7897 36.48 30.4046 36.7939C30.9454 37.0701 31.3851 37.5107 31.6607 38.0526C31.9739 38.6687 31.9739 39.4752 31.9739 41.0882V70.177C31.9739 70.9835 31.9739 71.3868 32.1306 71.6948C32.2684 71.9658 32.4882 72.1861 32.7586 72.3241C33.0661 72.4811 33.4685 72.4811 34.2734 72.4811H51.4561C53.0659 72.4811 53.8707 72.4811 54.4856 72.795C55.0264 73.0711 55.4661 73.5117 55.7417 74.0536C56.055 74.6697 56.055 75.4762 56.055 77.0892V83.5214H24.5988ZM151.257 41.0882C151.257 39.4752 151.257 38.6687 151.57 38.0526C151.845 37.5107 152.285 37.0701 152.826 36.7939C153.441 36.48 154.246 36.48 155.855 36.48H160.088C161.059 36.48 161.544 36.48 161.979 36.6219C162.363 36.7475 162.716 36.9528 163.016 37.2246C163.355 37.5317 163.596 37.9538 164.079 38.7982L178.802 64.5609V41.0882C178.802 39.4752 178.802 38.6687 179.115 38.0526C179.391 37.5107 179.83 37.0701 180.371 36.7939C180.986 36.48 181.791 36.48 183.401 36.48H190.299V78.9061C190.299 80.5176 190.299 81.3233 189.986 81.9391C189.711 82.4807 189.272 82.9212 188.731 83.1976C188.117 83.5117 187.313 83.5125 185.705 83.5142L181.471 83.5186C180.499 83.5197 180.013 83.5202 179.578 83.3784C179.193 83.253 178.839 83.0477 178.539 82.7758C178.2 82.4684 177.958 82.0458 177.475 81.2005L162.754 55.4406V78.9133C162.754 80.5263 162.754 81.3328 162.44 81.9489C162.165 82.4908 161.725 82.9314 161.184 83.2075C160.569 83.5214 159.765 83.5214 158.155 83.5214H151.257V41.0882ZM202.706 36.48H195.808V78.9013C195.808 80.5143 195.808 81.3208 196.121 81.9369C196.397 82.4788 196.837 82.9194 197.377 83.1955C197.992 83.5094 198.797 83.5094 200.407 83.5094H207.305V64.3208H209.187C209.991 64.3208 210.394 64.3208 210.766 64.4227C211.095 64.5129 211.406 64.6612 211.683 64.8607C211.997 65.0859 212.25 65.3988 212.757 66.0248L225.551 81.8175C226.058 82.4434 226.312 82.7564 226.625 82.9816C226.902 83.1811 227.213 83.3294 227.543 83.4196C227.915 83.5214 228.317 83.5214 229.122 83.5214H240L223.079 62.6697C222.238 61.6329 221.817 61.1144 221.656 60.5381C221.514 60.0298 221.514 59.4921 221.656 58.9839C221.818 58.4078 222.239 57.8897 223.08 56.8538L223.081 56.8533L239.633 36.48H228.872C228.071 36.48 227.671 36.48 227.3 36.5811C226.972 36.6706 226.662 36.8178 226.385 37.0159C226.072 37.2394 225.819 37.5502 225.312 38.1718L212.801 53.5088C212.294 54.1302 212.04 54.4412 211.728 54.6647C211.451 54.8628 211.141 55.01 210.813 55.0995C210.442 55.2006 210.041 55.2006 209.24 55.2006H207.305V41.0882C207.305 39.4752 207.305 38.6687 206.992 38.0526C206.716 37.5107 206.277 37.0701 205.736 36.7939C205.121 36.48 204.316 36.48 202.706 36.48ZM82.6358 51.7396C83.5384 50.3201 84.3197 49.0914 84.3197 47.5203C84.3197 44.3391 81.7408 41.7602 78.5595 41.7602C75.3783 41.7602 72.7993 44.4602 72.7993 47.5203C72.7993 49.0914 73.602 50.3201 74.5293 51.7396C75.7977 53.6812 77.2994 55.98 77.2994 60.0007C77.2994 64.0214 75.7977 66.3202 74.5293 68.2618C73.602 69.6813 72.7993 70.91 72.7993 72.4811C72.7994 75.6623 75.3783 78.2412 78.5595 78.2412C81.7408 78.2412 84.3197 75.6623 84.3197 72.4811C84.3197 70.91 83.5384 69.6813 82.6358 68.2618C81.4012 66.3202 79.9395 64.0214 79.9395 60.0007C79.9395 55.98 81.4012 53.6812 82.6358 51.7396Z" fill="white"/>
</svg>
