<svg width="260" height="120" viewBox="0 0 260 120" fill="none" xmlns="http://www.w3.org/2000/svg">
<g clip-path="url(#clip0_2005_3754)">
<path d="M106.128 32H73.085C72.8812 32 72.6857 32.0745 72.5414 32.2077C72.3971 32.3404 72.3164 32.5209 72.3164 32.709V63.189C72.3164 63.3772 72.3976 63.5576 72.5414 63.6903C72.6857 63.8231 72.8812 63.8976 73.085 63.8976H106.128C106.333 63.8976 106.528 63.8231 106.672 63.6903C106.816 63.5572 106.897 63.3767 106.897 63.189V32.709C106.897 32.5209 106.816 32.3409 106.672 32.2077C106.528 32.075 106.332 32 106.128 32ZM95.3703 52.5563C95.3703 52.7445 95.2891 52.9245 95.1453 53.0577C95.001 53.1904 94.8055 53.2654 94.6017 53.2654H84.6117C84.4079 53.2654 84.2124 53.1908 84.0681 53.0577C83.9238 52.9245 83.8431 52.7445 83.8431 52.5563V43.3413C83.8431 43.1531 83.9242 42.9731 84.0681 42.8399C84.2124 42.7068 84.4079 42.6322 84.6117 42.6322H94.6017C94.8055 42.6322 95.001 42.7068 95.1453 42.8399C95.2896 42.9727 95.3703 43.1531 95.3703 43.3413V52.5563Z" fill="black"/>
<path d="M175.304 42.634H165.313C164.889 42.634 164.545 42.9513 164.545 43.3431V52.5581C164.545 52.9495 164.889 53.2672 165.313 53.2672H175.304C175.728 53.2672 176.072 52.9499 176.072 52.5581V43.3431C176.072 42.9517 175.728 42.634 175.304 42.634Z" fill="black"/>
<path d="M163.779 32.0005H153.789C153.364 32.0005 153.021 32.3177 153.021 32.7095V41.9246C153.021 42.3159 153.364 42.6336 153.789 42.6336H163.779C164.203 42.6336 164.547 42.3164 164.547 41.9246V32.7095C164.547 32.3182 164.203 32.0005 163.779 32.0005Z" fill="black"/>
<path d="M186.837 32.0005H176.847C176.423 32.0005 176.078 32.3177 176.078 32.7095V41.9246C176.078 42.3159 176.423 42.6336 176.847 42.6336H186.837C187.261 42.6336 187.605 42.3164 187.605 41.9246V32.7095C187.605 32.3182 187.261 32.0005 186.837 32.0005Z" fill="black"/>
<path d="M163.779 53.2662H153.789C153.364 53.2662 153.021 53.5835 153.021 53.9753V63.1903C153.021 63.5817 153.364 63.8994 153.789 63.8994H163.779C164.203 63.8994 164.547 63.5821 164.547 63.1903V53.9753C164.547 53.5839 164.203 53.2662 163.779 53.2662Z" fill="black"/>
<path d="M186.837 53.2662H176.847C176.423 53.2662 176.078 53.5835 176.078 53.9753V63.1903C176.078 63.5817 176.423 63.8994 176.847 63.8994H186.837C187.261 63.8994 187.605 63.5821 187.605 63.1903V53.9753C187.605 53.5839 187.261 53.2662 186.837 53.2662Z" fill="black"/>
<path d="M146.475 32.0005H136.485C136.061 32.0005 135.717 32.3177 135.717 32.7095V41.9246C135.717 42.3159 136.061 42.6336 136.485 42.6336H146.475C146.9 42.6336 147.243 42.3164 147.243 41.9246V32.7095C147.243 32.3182 146.9 32.0005 146.475 32.0005Z" fill="black"/>
<path d="M146.475 53.2662H136.485C136.061 53.2662 135.717 53.5835 135.717 53.9753V63.1903C135.717 63.5817 136.061 63.8994 136.485 63.8994H146.475C146.9 63.8994 147.243 63.5821 147.243 63.1903V53.9753C147.243 53.5839 146.9 53.2662 146.475 53.2662Z" fill="black"/>
<path d="M135.713 43.3335C135.713 43.1454 135.632 42.9654 135.488 42.8322C135.344 42.699 135.148 42.6245 134.945 42.6245H124.186V32.709C124.186 32.5209 124.105 32.3409 123.961 32.2077C123.818 32.075 123.622 32 123.418 32H113.429C113.224 32 113.029 32.0745 112.885 32.2077C112.741 32.3404 112.66 32.5209 112.66 32.709V63.1731C112.66 63.3613 112.741 63.5413 112.885 63.6745C113.029 63.8076 113.225 63.8822 113.429 63.8822H123.418C123.622 63.8822 123.818 63.8076 123.961 63.6745C124.105 63.5413 124.186 63.3613 124.186 63.1731V53.2572H134.945C135.149 53.2572 135.344 53.1827 135.488 53.0495C135.632 52.9163 135.713 52.7363 135.713 52.5482V43.3331V43.3335Z" fill="black"/>
<path d="M149.233 72.2219C150.793 72.2219 152.207 72.531 153.475 73.1487C154.743 73.7668 155.745 74.6681 156.481 75.8539C157.217 77.0392 157.586 78.4514 157.586 80.0894C157.586 81.7274 157.217 83.1432 156.481 84.3358C155.745 85.5289 154.747 86.4375 153.486 87.0624C152.225 87.6874 150.808 88.0001 149.233 88.0001H143.461V72.2219H149.233ZM148.818 84.8962C150.407 84.8962 151.609 84.4795 152.426 83.6459C153.242 82.8128 153.65 81.627 153.65 80.0894C153.65 78.5518 153.238 77.3915 152.415 76.5652C151.591 75.7389 150.392 75.3257 148.818 75.3257H147.2V84.8958H148.818V84.8962Z" fill="black"/>
<path d="M170.005 81.6415H163.751V84.8099H170.989V88.0001H160.013V72.2219H170.727V75.3903H163.752V78.4941H170.005V81.6411L170.005 81.6415Z" fill="black"/>
<path d="M187.716 72.2219L182.118 79.874L188 88.0001H183.386L179.822 82.8701L176.193 88.0001H171.907L177.789 79.9603L172.191 72.2224H176.761L180.063 76.9642L183.408 72.2224H187.716V72.2219Z" fill="black"/>
<path d="M135.698 78.9899H72V81.2165H135.698V78.9899Z" fill="black"/>
</g>
<defs>
<clipPath id="clip0_2005_3754">
<rect width="116" height="56" fill="white" transform="translate(72 32)"/>
</clipPath>
</defs>
</svg>
