<svg width="120" height="120" viewBox="0 0 120 120" fill="none" xmlns="http://www.w3.org/2000/svg">
<path d="M83.7775 44.5551C84.7592 44.5551 85.555 43.7593 85.555 42.7775C85.555 41.7958 84.7592 41 83.7775 41C82.7958 41 82 41.7958 82 42.7775C82 43.7593 82.7958 44.5551 83.7775 44.5551Z" fill="#C77897"/>
<path d="M46.9251 97.3876C47.9068 97.3876 48.7026 96.5918 48.7026 95.6101C48.7026 94.6285 47.9068 93.8326 46.9251 93.8326C45.9434 93.8326 45.1476 94.6285 45.1476 95.6101C45.1476 96.5918 45.9434 97.3876 46.9251 97.3876Z" fill="#C77897"/>
<path d="M90.4916 79.72C91.4733 79.72 92.2691 78.9242 92.2691 77.9425C92.2691 76.9609 91.4733 76.165 90.4916 76.165C89.5099 76.165 88.7141 76.9609 88.7141 77.9425C88.7141 78.9242 89.5099 79.72 90.4916 79.72Z" fill="#C77897"/>
<path d="M41.7776 83.555C42.7593 83.555 43.555 82.7592 43.555 81.7775C43.555 80.7958 42.7593 80 41.7776 80C40.7958 80 40 80.7958 40 81.7775C40 82.7592 40.7958 83.555 41.7776 83.555Z" fill="#C77897"/>
<path d="M29.7776 39.555C30.7593 39.555 31.555 38.7592 31.555 37.7775C31.555 36.7958 30.7593 36 29.7776 36C28.7958 36 28 36.7958 28 37.7775C28 38.7592 28.7958 39.555 29.7776 39.555Z" fill="#C77897"/>
<path d="M43.1816 45.01C44.1633 45.01 44.9591 44.2142 44.9591 43.2325C44.9591 42.2508 44.1633 41.455 43.1816 41.455C42.1999 41.455 41.4041 42.2508 41.4041 43.2325C41.4041 44.2142 42.1999 45.01 43.1816 45.01Z" fill="#C77897"/>
<path d="M50.7641 40.3675C51.7458 40.3675 52.5416 39.5717 52.5416 38.59C52.5416 37.6083 51.7458 36.8125 50.7641 36.8125C49.7824 36.8125 48.9866 37.6083 48.9866 38.59C48.9866 39.5717 49.7824 40.3675 50.7641 40.3675Z" fill="#C77897"/>
<path d="M58.7816 32.275C59.7633 32.275 60.5591 31.4792 60.5591 30.4975C60.5591 29.5158 59.7633 28.72 58.7816 28.72C57.7999 28.72 57.0041 29.5158 57.0041 30.4975C57.0041 31.4792 57.7999 32.275 58.7816 32.275Z" fill="#C77897"/>
<path d="M65.6741 29.665C66.6791 32.485 64.9691 34.7425 62.9291 35.23C60.8891 35.7175 51.3116 38.6875 47.0591 48.025C43.9841 54.775 35.5616 50.4325 39.4166 43.6825C42.0866 39.01 50.0216 29.5525 59.1491 27.5125C64.5791 26.2975 65.6741 29.665 65.6741 29.665Z" stroke="#C77897" stroke-width="1.6" stroke-miterlimit="10"/>
<path d="M89.0815 59.4399C90.0632 59.4399 90.859 58.6441 90.859 57.6624C90.859 56.6807 90.0632 55.8849 89.0815 55.8849C88.0998 55.8849 87.304 56.6807 87.304 57.6624C87.304 58.6441 88.0998 59.4399 89.0815 59.4399Z" fill="#C77897"/>
<path d="M85.7065 67.7499C86.6882 67.7499 87.484 66.9541 87.484 65.9724C87.484 64.9908 86.6882 64.1949 85.7065 64.1949C84.7248 64.1949 83.929 64.9908 83.929 65.9724C83.929 66.9541 84.7248 67.7499 85.7065 67.7499Z" fill="#C77897"/>
<path d="M76.9915 70.3074C77.9732 70.3074 78.769 69.5116 78.769 68.5299C78.769 67.5483 77.9732 66.7524 76.9915 66.7524C76.0098 66.7524 75.214 67.5483 75.214 68.5299C75.214 69.5116 76.0098 70.3074 76.9915 70.3074Z" fill="#C77897"/>
<path d="M71.8165 72.3851C69.3415 67.0601 73.159 64.5101 75.1165 63.7676C77.074 63.0251 81.9115 64.6526 83.509 55.5251C84.559 49.5326 96.3265 49.0826 94.4515 61.4426C93.649 66.7601 87.484 73.5101 79.759 75.0101C74.2915 76.0676 71.8165 72.3851 71.8165 72.3851Z" stroke="#C77897" stroke-width="1.6" stroke-miterlimit="10"/>
<path d="M44.2766 65.4174C45.2583 65.4174 46.0541 64.6216 46.0541 63.6399C46.0541 62.6583 45.2583 61.8624 44.2766 61.8624C43.2949 61.8624 42.4991 62.6583 42.4991 63.6399C42.4991 64.6216 43.2949 65.4174 44.2766 65.4174Z" fill="#C77897"/>
<path d="M32.8916 65.4174C33.8733 65.4174 34.6691 64.6216 34.6691 63.6399C34.6691 62.6583 33.8733 61.8624 32.8916 61.8624C31.9099 61.8624 31.1141 62.6583 31.1141 63.6399C31.1141 64.6216 31.9099 65.4174 32.8916 65.4174Z" fill="#C77897"/>
<path d="M28.1141 61.9C29.5166 58.0075 32.7266 58.66 34.0916 59.2825C35.4566 59.905 37.0991 63.1525 42.4691 59.425C45.9941 56.9725 52.1891 62.695 45.0641 67.9C42.0041 70.135 35.5016 70.375 30.8366 67.2175C27.5366 64.9825 28.1141 61.9 28.1141 61.9Z" stroke="#C77897" stroke-width="1.6" stroke-miterlimit="10"/>
<path d="M63.4166 52.4724C64.3983 52.4724 65.1941 51.6765 65.1941 50.6949C65.1941 49.7132 64.3983 48.9174 63.4166 48.9174C62.4349 48.9174 61.6391 49.7132 61.6391 50.6949C61.6391 51.6765 62.4349 52.4724 63.4166 52.4724Z" fill="#C77897"/>
<path d="M61.1144 62.8525C62.0961 62.8525 62.8919 62.0567 62.8919 61.075C62.8919 60.0933 62.0961 59.2975 61.1144 59.2975C60.1327 59.2975 59.3369 60.0933 59.3369 61.075C59.3369 62.0567 60.1327 62.8525 61.1144 62.8525Z" fill="#C77897"/>
<path d="M56.9591 71.6049C57.9408 71.6049 58.7366 70.8091 58.7366 69.8274C58.7366 68.8458 57.9408 68.0499 56.9591 68.0499C55.9774 68.0499 55.1816 68.8458 55.1816 69.8274C55.1816 70.8091 55.9774 71.6049 56.9591 71.6049Z" fill="#C77897"/>
<path d="M61.0766 80.4324C62.0583 80.4324 62.8541 79.6366 62.8541 78.6549C62.8541 77.6733 62.0583 76.8774 61.0766 76.8774C60.0949 76.8774 59.2991 77.6733 59.2991 78.6549C59.2991 79.6366 60.0949 80.4324 61.0766 80.4324Z" fill="#C77897"/>
<path d="M62.8166 90.385C63.7983 90.385 64.5941 89.5892 64.5941 88.6075C64.5941 87.6258 63.7983 86.83 62.8166 86.83C61.8349 86.83 61.0391 87.6258 61.0391 88.6075C61.0391 89.5892 61.8349 90.385 62.8166 90.385Z" fill="#C77897"/>
<path d="M69.3491 44.9348C71.7716 46.6898 71.6516 49.5173 70.2491 51.0698C68.8466 52.6223 54.3566 69.3848 69.4916 86.6198C74.3891 92.1923 67.0916 100.037 60.7991 90.2948C47.7191 70.0598 56.4041 53.7248 62.7566 46.8698C66.5366 42.7898 69.3491 44.9348 69.3491 44.9348Z" stroke="#C77897" stroke-width="1.6" stroke-miterlimit="10"/>
<path d="M81.7775 98.555C82.7593 98.555 83.555 97.7592 83.555 96.7775C83.555 95.7958 82.7593 95 81.7775 95C80.7958 95 80 95.7958 80 96.7775C80 97.7592 80.7958 98.555 81.7775 98.555Z" fill="#C77897"/>
<path d="M77.7775 24.555C78.7593 24.555 79.555 23.7592 79.555 22.7775C79.555 21.7958 78.7593 21 77.7775 21C76.7958 21 76 21.7958 76 22.7775C76 23.7592 76.7958 24.555 77.7775 24.555Z" fill="#C77897"/>
<path d="M23.7775 78.555C24.7592 78.555 25.555 77.7592 25.555 76.7775C25.555 75.7958 24.7592 75 23.7775 75C22.7958 75 22 75.7958 22 76.7775C22 77.7592 22.7958 78.555 23.7775 78.555Z" fill="#C77897"/>
</svg>
