<svg width="120" height="120" viewBox="0 0 120 120" fill="none" xmlns="http://www.w3.org/2000/svg">
<g clip-path="url(#clip0_373_1269)">
<path d="M74.5648 65.7804C66.9888 60.029 61.0545 52.3903 57.3548 43.6275C56.5982 41.8448 55.2399 40.3842 53.5168 39.5003C51.7937 38.6165 49.815 38.3655 47.9258 38.791L47.78 38.8262C46.6075 39.1087 45.5107 39.6432 44.5657 40.3925C43.6208 41.1419 42.8504 42.088 42.3081 43.1653C41.7687 44.2275 41.4671 45.3945 41.4245 46.585C41.3819 47.7756 41.5992 48.9612 42.0613 50.0592C46.8892 61.5159 54.6465 71.5007 64.5543 79.0107C65.5247 79.7459 66.6468 80.2554 67.8389 80.5023C69.0311 80.7492 70.2633 80.7272 71.4459 80.438C72.9714 80.073 74.3622 79.2833 75.4573 78.1603C76.5523 77.0373 77.3068 75.6269 77.6331 74.0927C77.9595 72.5585 77.8444 70.9632 77.3013 69.4917C76.7582 68.0202 75.8092 66.7328 74.5643 65.7785L74.5648 65.7804ZM75.3619 75.3142C74.9328 76.1649 74.3235 76.9119 73.5765 77.5033C72.8295 78.0947 71.9626 78.5163 71.0361 78.7387C70.105 78.9666 69.1348 78.9839 68.1961 78.7895C67.2575 78.5951 66.374 78.1938 65.61 77.6148C55.9472 70.2903 48.3817 60.5524 43.6733 49.3789C43.31 48.5145 43.1394 47.5814 43.1733 46.6445C43.2071 45.7075 43.4447 44.7891 43.8694 43.9533C44.2969 43.1038 44.9041 42.3576 45.6489 41.7663C46.3936 41.1751 47.2582 40.753 48.1824 40.5293L48.3132 40.4978C49.8016 40.1629 51.3604 40.3608 52.718 41.0571C54.0755 41.7533 55.1458 42.9037 55.7423 44.3079C59.5615 53.3531 65.687 61.2378 73.5072 67.1747C74.7204 68.0996 75.5706 69.4209 75.9096 70.9083C76.2486 72.3956 76.0545 73.955 75.3619 75.3142Z" fill="#C77897"/>
<path d="M85.7139 70.7647L81.7756 71.4001C81.6292 69.5214 81.052 67.7016 80.0889 66.0818L83.1732 63.2232C83.259 63.1455 83.3286 63.0515 83.3778 62.9468C83.4271 62.842 83.455 62.7285 83.4601 62.6128C83.4652 62.4972 83.4472 62.3817 83.4074 62.273C83.3675 62.1643 83.3064 62.0646 83.2277 61.9797C83.149 61.8948 83.0543 61.8264 82.9489 61.7783C82.8436 61.7303 82.7298 61.7037 82.6141 61.7C82.4984 61.6962 82.3831 61.7155 82.2749 61.7567C82.1666 61.7978 82.0677 61.8601 81.9837 61.9397L79.078 64.6324C78.4636 63.8711 77.7601 63.1863 76.9824 62.5928C75.8711 61.7468 74.7954 60.8548 73.7583 59.9191L77.4902 57.7257C77.6871 57.6066 77.8292 57.4147 77.8857 57.1916C77.9422 56.9685 77.9085 56.7321 77.7919 56.5337C77.6753 56.3352 77.4852 56.1907 77.2629 56.1314C77.0405 56.0721 76.8037 56.1029 76.6038 56.2169L72.4234 58.6744C70.7593 57.0658 69.2079 55.3445 67.7804 53.5227L70.9585 50.266C71.0387 50.1837 71.102 50.0865 71.1447 49.9798C71.1874 49.8731 71.2087 49.759 71.2073 49.6441C71.2059 49.5292 71.1819 49.4157 71.1366 49.3101C71.0913 49.2044 71.0257 49.1088 70.9435 49.0285C70.8612 48.9482 70.764 48.885 70.6573 48.8423C70.5506 48.7996 70.4366 48.7783 70.3216 48.7797C70.2067 48.7811 70.0932 48.8051 69.9876 48.8504C69.882 48.8956 69.7863 48.9613 69.706 49.0435L66.7121 52.1108C65.0032 49.7599 63.5012 47.2655 62.2229 44.6554L65.9879 42.8706C66.0917 42.8213 66.1848 42.7521 66.2619 42.6668C66.3389 42.5815 66.3984 42.4819 66.437 42.3737C66.4755 42.2654 66.4924 42.1506 66.4866 42.0359C66.4808 41.9211 66.4524 41.8086 66.4032 41.7048C66.3539 41.6009 66.2846 41.5078 66.1994 41.4308C66.1141 41.3537 66.0145 41.2942 65.9063 41.2557C65.798 41.2171 65.6832 41.2002 65.5684 41.206C65.4537 41.2118 65.3411 41.2402 65.2373 41.2895L61.4807 43.0728C61.3324 42.7413 61.1821 42.4103 61.0407 42.0756C60.0394 39.7023 58.3119 37.7072 56.1062 36.3766L58.3085 32.5327C58.3676 32.4328 58.4062 32.3222 58.4222 32.2073C58.4381 32.0924 58.431 31.9755 58.4013 31.8633C58.3716 31.7512 58.3199 31.646 58.2492 31.554C58.1785 31.462 58.0902 31.385 57.9895 31.3275C57.8888 31.2699 57.7776 31.233 57.6624 31.2188C57.5473 31.2046 57.4305 31.2135 57.3188 31.2448C57.2071 31.2762 57.1027 31.3295 57.0118 31.4016C56.9209 31.4736 56.8452 31.5631 56.7892 31.6647L54.5468 35.5748C52.8996 34.8733 51.1187 34.541 49.3292 34.6012L49.6527 31.0134C49.6736 30.7822 49.6017 30.5522 49.453 30.374C49.3042 30.1958 49.0908 30.084 48.8596 30.0631C48.6284 30.0423 48.3984 30.1141 48.2202 30.2629C48.042 30.4116 47.9301 30.6251 47.9093 30.8562L47.5542 34.7993C47.3921 34.8287 47.2303 34.8487 47.0687 34.8845C45.8173 35.1644 44.6171 35.6372 43.5111 36.2861L40.6002 31.893C40.4717 31.6997 40.2717 31.5653 40.0441 31.5194C39.8166 31.4735 39.5801 31.5199 39.3868 31.6484C39.1934 31.7769 39.059 31.9769 39.0131 32.2044C38.9673 32.432 39.0137 32.6684 39.1421 32.8618L42.0677 37.275C41.0511 38.0822 40.1687 39.0452 39.4532 40.1283L33.7065 37.1675C33.6043 37.1148 33.4928 37.0828 33.3783 37.0733C33.2638 37.0638 33.1485 37.0769 33.0391 37.1119C32.9296 37.1469 32.8281 37.2031 32.7404 37.2774C32.6527 37.3516 32.5804 37.4424 32.5278 37.5445C32.4215 37.7508 32.4015 37.9909 32.4722 38.212C32.5429 38.433 32.6986 38.6169 32.9049 38.7232L38.5983 41.6574C37.7387 43.4711 37.3398 45.4689 37.4369 47.4737L32.3039 47.8427C32.1892 47.851 32.0774 47.8817 31.9746 47.9332C31.8719 47.9847 31.7803 48.0559 31.7051 48.1428C31.6299 48.2297 31.5725 48.3306 31.5363 48.4396C31.5 48.5487 31.4856 48.6638 31.4939 48.7784C31.5021 48.893 31.5329 49.0049 31.5844 49.1076C31.6359 49.2104 31.7071 49.302 31.794 49.3772C31.8809 49.4524 31.9817 49.5098 32.0908 49.546C32.1998 49.5822 32.315 49.5966 32.4296 49.5884L37.6462 49.212C37.806 50.0336 38.0498 50.8366 38.3737 51.6083C38.8559 52.7547 39.3758 53.8827 39.912 55.0017L36.3263 58.5368C36.2406 58.6164 36.1717 58.7124 36.1237 58.8191C36.0757 58.9259 36.0496 59.0411 36.047 59.1581C36.0443 59.2751 36.0652 59.3914 36.1083 59.5002C36.1514 59.609 36.2158 59.708 36.2979 59.7914C36.3799 59.8749 36.4779 59.941 36.5859 59.9859C36.694 60.0308 36.8099 60.0536 36.9269 60.0529C37.044 60.0522 37.1596 60.028 37.2671 59.9819C37.3747 59.9357 37.4718 59.8684 37.5529 59.784L40.7273 56.6526C41.9952 59.1276 43.4 61.53 44.9354 63.8487L41.5438 65.0193C41.3324 65.0936 41.1575 65.2461 41.0552 65.4454C40.9528 65.6447 40.9308 65.8757 40.9936 66.0907C41.0564 66.3058 41.1993 66.4886 41.3928 66.6015C41.5863 66.7144 41.8158 66.7489 42.0339 66.6977C42.0611 66.6911 42.0883 66.6846 42.1151 66.674L45.9552 65.3479C47.1269 67.0287 48.364 68.6603 49.6666 70.2428L46.6009 74.0125C46.4543 74.1924 46.3852 74.4232 46.4088 74.654C46.4324 74.8849 46.5468 75.097 46.7267 75.2435C46.9066 75.3901 47.1374 75.4592 47.3683 75.4356C47.5991 75.412 47.8112 75.2976 47.9577 75.1177L50.8254 71.5974C52.8875 73.9737 55.0974 76.2175 57.4421 78.3155L54.0086 80.4447C53.9109 80.5054 53.8262 80.5847 53.7592 80.6782C53.6922 80.7716 53.6443 80.8773 53.6181 80.9893C53.592 81.1013 53.5882 81.2173 53.6069 81.3308C53.6256 81.4442 53.6665 81.5529 53.7272 81.6505C53.8497 81.8477 54.0456 81.9882 54.2718 82.041C54.3837 82.0671 54.4998 82.0709 54.6132 82.0522C54.7267 82.0335 54.8353 81.9926 54.933 81.9319L58.821 79.5203C59.9023 80.4425 61.0079 81.3373 62.141 82.1972C62.3313 82.3409 62.5252 82.4786 62.7225 82.6103L61.0666 87.1521C60.9871 87.3701 60.9975 87.6108 61.0955 87.8212C61.1935 88.0316 61.371 88.1944 61.5891 88.2738C61.8071 88.3533 62.0478 88.3429 62.2582 88.2449C62.4686 88.1469 62.6314 87.9694 62.7108 87.7513L64.2663 83.4859C66.7593 84.673 69.5813 84.979 72.2708 84.3537L72.384 84.3263C72.418 84.3181 72.451 84.3076 72.4845 84.2995L74.1265 88.2847C74.2054 88.4782 74.3511 88.637 74.537 88.7325C74.7229 88.8279 74.9369 88.8537 75.1402 88.805C75.1843 88.7944 75.2275 88.7803 75.2694 88.7631C75.3758 88.7193 75.4725 88.655 75.554 88.5738C75.6354 88.4927 75.7001 88.3962 75.7442 88.29C75.7884 88.1838 75.8111 88.07 75.8112 87.955C75.8113 87.84 75.7887 87.7261 75.7447 87.6198L74.1529 83.7553C76.2302 82.9104 78.0363 81.5126 79.375 79.7135L85.0938 83.0664C85.294 83.1837 85.5327 83.2166 85.7572 83.158C85.9817 83.0994 86.1738 82.954 86.2911 82.7537C86.4084 82.5535 86.4414 82.3149 86.3828 82.0903C86.3241 81.8658 86.1787 81.6737 85.9785 81.5564L80.3161 78.2373C80.3761 78.1276 80.4375 78.0197 80.4939 77.9079C81.2377 76.4326 81.6761 74.8225 81.7831 73.1738L85.9912 72.4949C86.0135 72.4895 86.0361 72.4872 86.058 72.4819C86.278 72.4288 86.4689 72.2926 86.5906 72.1017C86.7123 71.9109 86.7552 71.6803 86.7105 71.4585C86.6658 71.2366 86.5369 71.0407 86.3508 70.9119C86.1647 70.783 85.9359 70.7314 85.7125 70.7676L85.7139 70.7647ZM78.9349 77.1184C78.2363 78.5017 77.2418 79.7142 76.0219 80.67C74.8021 81.6257 73.3868 82.3012 71.8766 82.6486C70.3826 82.9975 68.83 83.0129 67.3294 82.6938C65.8288 82.3746 64.4169 81.7286 63.1943 80.8019C52.972 73.0531 44.9683 62.7512 39.9868 50.9308C39.3909 49.5172 39.1137 47.9898 39.1751 46.457C39.2364 44.9242 39.6348 43.4238 40.3418 42.0624C41.0367 40.7145 42.0139 39.5323 43.207 38.5962C44.4001 37.6601 45.7809 36.9923 47.2554 36.6381L47.4499 36.5912C49.8522 36.0544 52.3667 36.3772 54.5554 37.5036C56.7442 38.6299 58.4685 40.4883 59.428 42.7551C59.6876 43.3709 59.9628 43.9789 60.2454 44.5835C60.2484 44.5961 60.2515 44.6087 60.259 44.6208C60.2666 44.6329 60.2692 44.6333 60.2732 44.641C61.8101 47.9106 63.6831 51.0114 65.8618 53.8933C65.901 53.965 65.9502 54.0309 66.0077 54.089C67.7263 56.3417 69.6257 58.4505 71.687 60.3944C71.7038 60.4123 71.7215 60.4293 71.74 60.4454C73.0711 61.6993 74.4676 62.882 75.9236 63.9884C77.8827 65.4786 79.257 67.6088 79.8073 70.008C80.3575 72.4072 80.0488 74.9234 78.9349 77.1184Z" fill="#C77897"/>
<path d="M53.2653 47.0402C53.0961 46.3384 52.7225 45.7026 52.1919 45.2131C51.6613 44.7236 50.9975 44.4024 50.2844 44.2902C49.5713 44.178 48.8409 44.2797 48.1856 44.5826C47.5303 44.8855 46.9795 45.3759 46.603 45.9918C46.2264 46.6077 46.0409 47.3214 46.07 48.0427C46.099 48.7641 46.3413 49.4606 46.7662 50.0442C47.1911 50.6278 47.7796 51.0723 48.4571 51.3215C49.1346 51.5706 49.8708 51.6133 50.5726 51.4441C51.513 51.216 52.3245 50.6243 52.8293 49.7987C53.334 48.9732 53.4908 47.9812 53.2653 47.0402ZM47.867 48.3419C47.7789 47.9766 47.8011 47.5934 47.9309 47.2407C48.0606 46.888 48.292 46.5817 48.5958 46.3605C48.8996 46.1393 49.2621 46.0132 49.6376 45.998C50.0131 45.9829 50.3846 46.0795 50.7052 46.2755C51.0258 46.4715 51.2811 46.7582 51.4388 47.0993C51.5964 47.4404 51.6494 47.8206 51.591 48.1919C51.5326 48.5631 51.3654 48.9086 51.1106 49.1848C50.8558 49.461 50.5248 49.6555 50.1595 49.7436C49.6697 49.8606 49.1535 49.7788 48.7238 49.5161C48.2942 49.2534 47.9861 48.8312 47.867 48.3419ZM67.2615 66.2742C67.0923 65.5724 66.7188 64.9365 66.1882 64.447C65.6576 63.9575 64.9938 63.6364 64.2806 63.5242C63.5675 63.4119 62.8371 63.5137 62.1818 63.8166C61.5265 64.1195 60.9758 64.6099 60.5992 65.2258C60.2226 65.8417 60.0371 66.5554 60.0662 67.2767C60.0953 67.998 60.3376 68.6945 60.7625 69.2781C61.1874 69.8618 61.7758 70.3063 62.4533 70.5554C63.1309 70.8046 63.8671 70.8473 64.5689 70.6781C65.5091 70.4497 66.3204 69.858 66.8252 69.0325C67.3299 68.207 67.4868 67.2151 67.2615 66.2742ZM64.1586 68.9768C63.7933 69.0649 63.4101 69.0427 63.0574 68.913C62.7047 68.7833 62.3984 68.5519 62.1772 68.2481C61.956 67.9443 61.8299 67.5818 61.8148 67.2063C61.7997 66.8308 61.8962 66.4593 62.0922 66.1387C62.2883 65.8181 62.575 65.5628 62.9161 65.4051C63.2572 65.2474 63.6374 65.1945 64.0086 65.2529C64.3798 65.3113 64.7254 65.4785 65.0016 65.7333C65.2778 65.9881 65.4722 66.3191 65.5603 66.6844C65.6783 67.1747 65.5968 67.6918 65.3339 68.1222C65.0709 68.5525 64.6479 68.8609 64.1578 68.9796L64.1586 68.9768ZM55.1423 55.9566C55.1642 55.7257 55.0935 55.4954 54.9457 55.3165C54.798 55.1377 54.5852 55.0248 54.3542 55.0028L50.9131 54.6753C50.7987 54.6645 50.6832 54.6762 50.5734 54.7099C50.4635 54.7437 50.3614 54.7987 50.2728 54.8719C50.1842 54.9451 50.1109 55.0351 50.057 55.1366C50.0032 55.2381 49.9699 55.3493 49.959 55.4637C49.9482 55.5781 49.9599 55.6935 49.9936 55.8034C50.0274 55.9132 50.0824 56.0154 50.1556 56.104C50.2288 56.1926 50.3188 56.2659 50.4203 56.3197C50.5218 56.3735 50.633 56.4068 50.7474 56.4177L54.1885 56.7452C54.303 56.7562 54.4185 56.7446 54.5284 56.7109C54.6383 56.6772 54.7405 56.6222 54.8291 56.5489C54.9177 56.4757 54.991 56.3856 55.0447 56.284C55.0985 56.1824 55.1316 56.0711 55.1423 55.9566ZM58.7477 56.9311C58.5217 56.8792 58.2844 56.9188 58.0876 57.0415C57.8908 57.1641 57.7507 57.3597 57.6978 57.5855L56.5987 62.3252C56.5727 62.4371 56.569 62.5531 56.5879 62.6664C56.6067 62.7798 56.6476 62.8884 56.7084 62.9859C56.7692 63.0834 56.8486 63.168 56.942 63.2349C57.0355 63.3017 57.1412 63.3495 57.2532 63.3755C57.3651 63.4015 57.4811 63.4052 57.5945 63.3864C57.7078 63.3676 57.8164 63.3266 57.9139 63.2658C58.0114 63.2051 58.096 63.1257 58.1629 63.0322C58.2298 62.9387 58.2775 62.833 58.3035 62.7211L59.4026 57.9814C59.4549 57.7552 59.4153 57.5176 59.2925 57.3207C59.1697 57.1237 58.9737 56.9836 58.7477 56.9311ZM70.3825 70.4741C70.1616 70.4045 69.922 70.4253 69.7164 70.5319C69.5107 70.6386 69.3557 70.8224 69.2854 71.0431L68.136 74.6634C68.1013 74.7731 68.0885 74.8886 68.0984 75.0032C68.1083 75.1178 68.1407 75.2294 68.1937 75.3315C68.2467 75.4336 68.3193 75.5242 68.4074 75.5983C68.4954 75.6723 68.5972 75.7283 68.7069 75.763C68.8166 75.7977 68.932 75.8105 69.0467 75.8006C69.1613 75.7907 69.2728 75.7583 69.3749 75.7053C69.477 75.6522 69.5677 75.5796 69.6417 75.4916C69.7158 75.4035 69.7717 75.3018 69.8065 75.1921L70.9553 71.5719C70.99 71.4622 71.0026 71.3468 70.9925 71.2322C70.9825 71.1176 70.9499 71.0061 70.8967 70.9041C70.8435 70.8022 70.7707 70.7117 70.6825 70.6379C70.5942 70.5641 70.4923 70.5084 70.3825 70.4741Z" fill="#C77897"/>
<path d="M73.7775 40.555C74.7593 40.555 75.555 39.7592 75.555 38.7775C75.555 37.7958 74.7593 37 73.7775 37C72.7958 37 72 37.7958 72 38.7775C72 39.7592 72.7958 40.555 73.7775 40.555Z" fill="#C77897"/>
</g>
<path d="M56.7775 22.555C57.7593 22.555 58.555 21.7592 58.555 20.7775C58.555 19.7958 57.7593 19 56.7775 19C55.7958 19 55 19.7958 55 20.7775C55 21.7592 55.7958 22.555 56.7775 22.555Z" fill="#C77897"/>
<path d="M79.766 30.516C81.0913 30.9594 82.5252 30.2442 82.9687 28.9186C83.4122 27.593 82.6973 26.1589 81.3719 25.7154C80.0466 25.2721 78.6126 25.9873 78.1691 27.3129C77.7256 28.6385 78.4406 30.0726 79.766 30.516Z" stroke="#C77897" stroke-width="1.40325" stroke-miterlimit="10"/>
<path d="M84.3604 31.9462C85.6858 32.3896 87.1197 31.6744 87.5631 30.3488C88.0066 29.0232 87.2918 27.5891 85.9664 27.1456C84.641 26.7023 83.2071 27.4174 82.7636 28.7431C82.3201 30.0687 83.035 31.5028 84.3604 31.9462Z" stroke="#C77897" stroke-width="1.40325" stroke-miterlimit="10"/>
<path d="M89.2237 34.0003C90.549 34.4437 91.983 33.7285 92.4265 32.4028C92.87 31.0772 92.155 29.6431 90.8297 29.1997C89.5043 28.7563 88.0704 29.4715 87.6269 30.7972C87.1834 32.1228 87.8983 33.5569 89.2237 34.0003Z" stroke="#C77897" stroke-width="1.40325" stroke-miterlimit="10"/>
<path d="M96.9208 35.8789C98.2461 36.3223 99.6801 35.6071 100.123 34.2816C100.567 32.9557 99.8522 31.5218 98.5269 31.0783C97.2015 30.635 95.7675 31.3502 95.324 32.6758C94.8805 34.0015 95.5954 35.4356 96.9208 35.8789Z" stroke="#C77897" stroke-width="1.40325" stroke-miterlimit="10"/>
<path d="M92.8131 43.7235C94.1385 44.1668 95.5724 43.4516 96.0159 42.126C96.4594 40.8004 95.7445 39.3663 94.4191 38.9229C93.0938 38.4795 91.6599 39.1947 91.2164 40.5203C90.7729 41.846 91.4878 43.2801 92.8131 43.7235Z" stroke="#C77897" stroke-width="1.40325" stroke-miterlimit="10"/>
<path d="M89.8837 54.243C91.2091 54.6865 92.6431 53.9714 93.0865 52.6456C93.5299 51.3198 92.8152 49.886 91.4898 49.4425C90.1644 48.9991 88.7305 49.7143 88.2869 51.04C87.8436 52.3658 88.5583 53.7996 89.8837 54.243Z" stroke="#C77897" stroke-width="1.40325" stroke-miterlimit="10"/>
<path d="M94.7337 54.5735C96.0591 55.017 97.4931 54.3019 97.9365 52.9761C98.3801 51.6508 97.6651 50.2165 96.3397 49.773C95.0143 49.3296 93.5803 50.0447 93.1369 51.3705C92.6935 52.6963 93.4083 54.1301 94.7337 54.5735Z" stroke="#C77897" stroke-width="1.40325" stroke-miterlimit="10"/>
<path d="M97.1039 45.558C98.4293 46.0014 99.8632 45.2862 100.307 43.9605C100.75 42.6349 100.035 41.2008 98.7099 40.7574C97.3846 40.3141 95.9506 41.0292 95.5071 42.3549C95.0636 43.6805 95.7786 45.1146 97.1039 45.558Z" stroke="#C77897" stroke-width="1.40325" stroke-miterlimit="10"/>
<path d="M81.0997 35.6644C82.4251 36.1077 83.859 35.3925 84.3025 34.0669C84.746 32.7413 84.0311 31.3072 82.7057 30.8638C81.3804 30.4204 79.9465 31.1356 79.503 32.4612C79.0595 33.7868 79.7744 35.2209 81.0997 35.6644Z" stroke="#C77897" stroke-width="1.40325" stroke-miterlimit="10"/>
<path d="M83.9962 34.3795L90.7045 40.5394L91.5477 42.7541C91.5477 42.7541 91.843 57.4203 91.7675 58.687C91.6919 59.9538 94.5582 61.0086 95.393 58.5122C96.8874 54.0461 95.3383 54.6793 95.3383 54.6793" stroke="#C77897" stroke-width="1.40325" stroke-miterlimit="10"/>
<path d="M89.6129 34.1802L93.6815 38.7616L89.6129 34.1802Z" fill="#C77897"/>
<path d="M89.6129 34.1802L93.6815 38.7616" stroke="#C77897" stroke-width="1.40325" stroke-miterlimit="10"/>
<path d="M95.1365 39.2982L96.9211 35.878L95.1365 39.2982Z" fill="#C77897"/>
<path d="M95.1365 39.2982L96.9211 35.878" stroke="#C77897" stroke-width="1.40325" stroke-miterlimit="10"/>
<path d="M95.2802 43.6042L95.6624 49.581L95.2802 43.6042Z" fill="#C77897"/>
<path d="M95.2802 43.6042L95.6624 49.581" stroke="#C77897" stroke-width="1.40325" stroke-miterlimit="10"/>
<path d="M39.5588 93.5352C39.5598 94.3786 40.2443 95.0615 41.0877 95.0605C41.931 95.0595 42.6139 94.375 42.6129 93.5316C42.6119 92.6882 41.9274 92.0053 41.084 92.0063C40.2407 92.0073 39.5578 92.6918 39.5588 93.5352Z" fill="#C77897"/>
<path d="M32.4161 90.644C32.4171 91.4873 33.1016 92.1702 33.9449 92.1692C34.7883 92.1682 35.4712 91.4837 35.4702 90.6404C35.4692 89.797 34.7847 89.1141 33.9413 89.1151C33.0979 89.1161 32.4151 89.8006 32.4161 90.644Z" fill="#C77897"/>
<path d="M30.21 83.1595C30.211 84.0028 30.8955 84.6857 31.7389 84.6847C32.5823 84.6837 33.2652 83.9992 33.2642 83.1559C33.2632 82.3125 32.5787 81.6296 31.7353 81.6306C30.8919 81.6316 30.209 82.3161 30.21 83.1595Z" fill="#C77897"/>
<path d="M28.4199 78.7158C32.9922 76.5841 35.1868 79.8611 35.8267 81.5421C36.4666 83.223 35.0733 87.3806 42.9164 88.7438C48.0657 89.6397 48.4643 99.7488 37.8438 98.1506C33.2747 97.4666 27.4694 92.177 26.1729 85.542C25.2588 80.8458 28.4199 78.7158 28.4199 78.7158Z" stroke="#C77897" stroke-width="1.5464" stroke-miterlimit="10"/>
<path d="M23.7775 59.555C24.7593 59.555 25.555 58.7592 25.555 57.7775C25.555 56.7958 24.7593 56 23.7775 56C22.7958 56 22 56.7958 22 57.7775C22 58.7592 22.7958 59.555 23.7775 59.555Z" fill="#C77897"/>
<path d="M65.7775 100.555C66.7593 100.555 67.555 99.7592 67.555 98.7775C67.555 97.7958 66.7593 97 65.7775 97C64.7958 97 64 97.7958 64 98.7775C64 99.7592 64.7958 100.555 65.7775 100.555Z" fill="#C77897"/>
<path d="M94.7775 87.555C95.7593 87.555 96.555 86.7592 96.555 85.7775C96.555 84.7958 95.7593 84 94.7775 84C93.7958 84 93 84.7958 93 85.7775C93 86.7592 93.7958 87.555 94.7775 87.555Z" fill="#C77897"/>
<defs>
<clipPath id="clip0_373_1269">
<rect width="64" height="64" fill="white" transform="translate(28 28)"/>
</clipPath>
</defs>
</svg>
