<svg width="220" height="40" viewBox="0 0 220 40" fill="none" xmlns="http://www.w3.org/2000/svg">
<g clip-path="url(#clip0_16_123)">
<path d="M11.824 36.2632V0.115234L25.9942 8.20018V28.2097L11.824 36.2612V36.2632Z" fill="#282A40"/>
<path d="M10.8231 4.41959L0.390625 0.115234V36.2632L10.8231 31.9746V4.41959Z" fill="#282A40"/>
<path d="M33.2907 22.4247H38.4186V26.219C38.4186 26.7152 38.4583 27.1307 38.5378 27.4714C38.6172 27.7844 38.8396 28.0975 39.209 28.4106C39.6042 28.6981 40.1563 28.8398 40.8653 28.8398C41.9179 28.8398 42.6011 28.5799 42.9169 28.0581C43.2585 27.5363 43.4293 26.6621 43.4293 25.4373V24.4981C43.4293 23.612 43.2843 22.9209 42.9963 22.4247C42.7342 21.9029 42.2853 21.4342 41.6558 21.0168L36.804 17.8092C36.3313 17.4961 35.9361 17.1968 35.6203 16.9093C35.3045 16.6218 34.9629 16.232 34.5955 15.7358C34.2281 15.214 33.9521 14.5878 33.7674 13.8593C33.5827 13.1307 33.4913 12.282 33.4913 11.3172V10.7698C33.4913 6.2331 36.0155 3.96474 41.0659 3.96474C43.0639 3.96474 44.748 4.44716 46.1143 5.412C47.5085 6.37684 48.2056 7.87529 48.2056 9.90933V12.6463H43.1175V10.2224C43.1175 8.63141 42.3548 7.83591 40.8296 7.83591C40.0411 7.83591 39.4493 8.04463 39.0541 8.46207C38.6867 8.87951 38.502 9.66123 38.502 10.8092C38.502 11.5909 38.5934 12.2308 38.7781 12.7251C38.9628 13.1937 39.4215 13.6761 40.1583 14.1723L45.169 17.5355C47.4311 19.0477 48.5611 20.9518 48.5611 23.2458V25.8666C48.5611 28.0306 48.0229 29.7259 46.9445 30.9507C45.8661 32.1498 43.894 32.7504 41.0282 32.7504C40.0292 32.7504 39.0958 32.6598 38.2279 32.4767C37.3859 32.2936 36.5716 31.9805 35.7832 31.5375C35.0205 31.0944 34.4148 30.4427 33.968 29.5822C33.5211 28.7217 33.2967 27.6781 33.2967 26.4534V22.4247H33.2907ZM56.3284 32.1636H51.5957V4.55152H56.3284V32.1636ZM64.5345 9.24379H59.7999V4.54955H64.5345V9.24379ZM64.5345 32.1636H59.7999V12.1383H64.5345V32.1636ZM80.9449 32.1636H76.2499V30.2083C76.2241 30.2339 76.1447 30.3383 76.0136 30.5214C75.8825 30.7045 75.7773 30.8483 75.6978 30.9527C75.6184 31.057 75.4873 31.2007 75.3026 31.3819C75.1437 31.565 74.9749 31.7206 74.7902 31.8505C74.6055 31.9549 74.3831 32.0593 74.119 32.1636C73.8826 32.2936 73.6066 32.3861 73.2908 32.4373C73.0008 32.5161 72.6851 32.5555 72.3435 32.5555C70.844 32.5555 69.714 32.1124 68.9514 31.2263C68.1888 30.3403 67.8074 29.1135 67.8074 27.5501V16.3245C67.8074 15.2297 68.1629 14.1861 68.8719 13.1957C69.5829 12.2052 70.6871 11.709 72.1846 11.709C73.4199 11.709 74.7743 12.3864 76.2479 13.7431V4.55152H80.9429V32.1636H80.9449ZM72.4626 26.3746C72.4626 26.7133 72.4765 26.9732 72.5024 27.1563C72.5282 27.3394 72.5818 27.5737 72.6592 27.8612C72.7645 28.1211 72.9492 28.318 73.2114 28.448C73.5013 28.578 73.8548 28.6429 74.2759 28.6429C75.5906 28.6429 76.2479 27.8337 76.2479 26.2171V17.6123C76.2479 16.0744 75.5906 15.3045 74.2759 15.3045C73.8548 15.3045 73.4993 15.3833 73.2114 15.5389C72.9492 15.6964 72.7645 15.9307 72.6592 16.2438C72.5798 16.5569 72.5282 16.8168 72.5024 17.0255C72.4765 17.2342 72.4626 17.5079 72.4626 17.8466V26.3746ZM89.1887 9.24379H84.4561V4.54955H89.1887V9.24379ZM89.1887 32.1636H84.4561V12.1383H89.1887V32.1636ZM105.599 32.1636H100.984V17.4193C100.984 16.612 100.864 16.0114 100.628 15.6196C100.418 15.2278 99.9966 15.0328 99.365 15.0328C98.654 15.0328 98.1416 15.2415 97.8259 15.659C97.5101 16.0764 97.3532 16.7676 97.3532 17.7324V32.1636H92.6583V12.1383H97.3929V13.5856C98.0761 12.9338 98.7076 12.4652 99.2856 12.1777C99.8635 11.8902 100.574 11.7465 101.417 11.7465C102.811 11.7465 103.849 12.1501 104.533 12.9594C105.244 13.7667 105.597 14.706 105.597 15.7752V32.1636H105.599ZM122.049 12.1383V32.9453C122.049 34.9538 121.563 36.5034 120.589 37.6002C119.616 38.7206 117.815 39.2818 115.186 39.2818C113.108 39.2818 111.557 38.8643 110.53 38.0294C109.506 37.1946 108.991 35.7867 108.991 33.8058H113.646C113.646 35.2137 114.25 35.9186 115.462 35.9186C116.673 35.9186 117.354 35.1231 117.354 33.5321V30.4427C116.196 31.7462 114.83 32.3979 113.251 32.3979C110.332 32.3979 108.872 30.7813 108.872 27.5481V16.9487C108.872 13.4812 110.306 11.7465 113.172 11.7465C114.54 11.7465 115.932 12.412 117.354 13.7411V12.1383H122.049ZM113.529 17.6536V26.6109C113.529 28.0975 114.147 28.8398 115.384 28.8398C116.621 28.8398 117.316 28.0837 117.316 26.5715V17.7324C117.316 17.2894 117.291 16.9369 117.237 16.677C117.211 16.3895 117.04 16.0902 116.725 15.7771C116.435 15.4384 116.002 15.2691 115.424 15.2691C114.161 15.2691 113.531 16.0646 113.531 17.6556L113.529 17.6536ZM150.846 32.1636H146.35V29.8165C144.141 31.8505 141.589 32.8666 138.698 32.8666C137.016 32.8666 135.397 32.5673 133.846 31.9667C132.295 31.3406 130.901 30.4545 129.663 29.3065C128.454 28.133 127.481 26.6345 126.744 24.8092C126.007 22.9583 125.64 20.8986 125.64 18.6303C125.64 17.3012 125.797 15.9583 126.112 14.6016C126.454 13.2449 126.98 11.9158 127.691 10.6123C128.402 9.30876 129.27 8.1608 130.295 7.17037C131.32 6.17993 132.597 5.38443 134.122 4.78387C135.647 4.15771 137.318 3.84463 139.133 3.84463C141.973 3.84463 144.406 4.61453 146.431 6.15236C148.483 7.6902 149.954 9.63366 150.85 11.9808L145.879 13.9361C144.59 10.311 142.328 8.49948 139.095 8.49948C136.728 8.49948 134.835 9.39934 133.415 11.1991C132.021 12.9988 131.324 15.4227 131.324 18.4747C131.324 18.9178 131.35 19.414 131.403 19.9614C131.455 20.4832 131.626 21.2649 131.916 22.3085C132.231 23.3265 132.639 24.2244 133.139 25.0081C133.639 25.7898 134.414 26.4809 135.467 27.0815C136.545 27.682 137.794 27.9813 139.214 27.9813C141.081 27.9813 142.62 27.4477 143.83 26.3785C145.065 25.2837 145.816 23.6927 146.078 21.6075H139.135V17.0708H150.85V32.1676L150.846 32.1636ZM159.604 32.1636H154.792V4.55152H159.604V32.1636ZM180.63 32.1636H175.028L174.909 30.6376C173.199 31.9667 171.266 32.6323 169.109 32.6323C166.953 32.6323 165.177 32.0593 163.862 30.9113C162.574 29.7633 161.93 28.3436 161.93 26.6483C161.93 23.0764 164.272 20.873 168.953 20.0382C171.608 19.542 173.634 19.0595 175.028 18.5909C175.028 17.6792 174.791 16.9605 174.317 16.4407C173.87 15.9189 172.976 15.659 171.634 15.659C168.978 15.659 167.65 16.6376 167.65 18.5929L162.838 18.3192C162.863 18.0061 162.891 17.7462 162.917 17.5375C162.943 17.3287 163.022 16.9901 163.153 16.5214C163.285 16.0528 163.455 15.6472 163.666 15.3085C163.876 14.9442 164.192 14.5524 164.613 14.1349C165.06 13.6919 165.572 13.3256 166.152 13.0401C166.73 12.7526 167.481 12.5183 168.4 12.3352C169.32 12.1265 170.347 12.0221 171.477 12.0221C177 12.0221 179.76 13.873 179.76 17.5768V28.9974C179.76 29.7535 179.8 30.3265 179.88 30.7183C179.985 31.0826 180.235 31.565 180.628 32.1656L180.63 32.1636ZM175.028 25.0455V22.4247C174.003 22.9209 172.752 23.2851 171.28 23.5195C170.623 23.6238 170.083 23.7282 169.664 23.8325C169.243 23.9113 168.796 24.0531 168.323 24.2618C167.85 24.4449 167.495 24.7048 167.258 25.0435C167.048 25.3566 166.943 25.7484 166.943 26.2171C166.943 26.922 167.205 27.495 167.731 27.938C168.257 28.3811 169.072 28.6036 170.178 28.6036C171.413 28.6036 172.531 28.3043 173.53 27.7037C174.529 27.0775 175.03 26.1915 175.03 25.0435L175.028 25.0455ZM199.801 15.659L196.447 18.7484C195.422 16.7676 193.633 15.7752 191.083 15.7752C190.662 15.7752 190.229 15.8145 189.782 15.8933C189.361 15.9721 188.928 16.1808 188.481 16.5195C188.034 16.8325 187.81 17.2618 187.81 17.8112C187.81 18.4097 188.1 18.8666 188.678 19.1797C189.255 19.4671 190.308 19.7408 191.833 20.0007L195.029 20.5875C196.608 20.875 197.883 21.4874 198.856 22.4266C199.829 23.3383 200.315 24.5512 200.315 26.0635C200.315 27.9144 199.499 29.4916 197.869 30.7951C196.238 32.0986 194.095 32.7504 191.438 32.7504C187.414 32.7504 184.259 31.5768 181.971 29.2297L185.522 26.3746C186.785 28.0443 188.678 28.8773 191.202 28.8773C192.491 28.8773 193.45 28.6292 194.081 28.1349C194.739 27.6387 195.068 27.1189 195.068 26.5695C195.068 26.0202 194.832 25.6579 194.357 25.396C193.885 25.1085 193.148 24.8742 192.149 24.693L189.702 24.2638C185.127 23.4564 182.839 21.4992 182.839 18.3979C182.839 16.4939 183.641 14.956 185.246 13.7825C186.876 12.6089 188.902 12.0221 191.321 12.0221C194.872 12.0221 197.698 13.2351 199.803 15.659H199.801ZM219.188 15.659L215.836 18.7484C214.809 16.7676 213.022 15.7752 210.47 15.7752C210.049 15.7752 209.616 15.8145 209.169 15.8933C208.748 15.9721 208.313 16.1808 207.866 16.5195C207.419 16.8325 207.197 17.2618 207.197 17.8112C207.197 18.4097 207.485 18.8666 208.065 19.1797C208.643 19.4671 209.695 19.7408 211.221 20.0007L214.416 20.5875C215.993 20.875 217.268 21.4874 218.241 22.4266C219.214 23.3383 219.701 24.5512 219.701 26.0635C219.701 27.9144 218.887 29.4916 217.256 30.7951C215.626 32.0986 213.483 32.7504 210.825 32.7504C206.802 32.7504 203.646 31.5768 201.358 29.2297L204.909 26.3746C206.17 28.0443 208.065 28.8773 210.589 28.8773C211.878 28.8773 212.837 28.6292 213.469 28.1349C214.126 27.6387 214.454 27.1189 214.454 26.5695C214.454 26.0202 214.217 25.6579 213.745 25.396C213.272 25.1085 212.535 24.8742 211.536 24.693L209.09 24.2638C204.514 23.4564 202.226 21.4992 202.226 18.3979C202.226 16.4939 203.028 14.956 204.633 13.7825C206.264 12.6089 208.287 12.0221 210.706 12.0221C214.257 12.0221 217.085 13.2351 219.188 15.659Z" fill="#282A40"/>
</g>
<defs>
<clipPath id="clip0_16_123">
<rect width="220" height="40" fill="white"/>
</clipPath>
</defs>
</svg>
