<svg width="250" height="66" viewBox="0 0 250 66" fill="none" xmlns="http://www.w3.org/2000/svg">
<path fill-rule="evenodd" clip-rule="evenodd" d="M76.4517 19.077C73.578 18.774 70.6811 19.3694 68.1592 20.7812C65.6373 22.1931 63.6142 24.3521 62.3679 26.9616C61.1216 29.5711 60.7133 32.5029 61.1992 35.3541C61.685 38.2053 63.0412 40.8358 65.0813 42.8842C67.1213 44.9325 69.7451 46.2981 72.592 46.7933C75.4389 47.2885 78.3692 46.8889 80.98 45.6494C83.5908 44.41 85.754 42.3916 87.1723 39.8716C88.5906 37.3516 89.1943 34.4538 88.9005 31.5765C88.5771 28.3781 87.1627 25.3889 84.8953 23.1123C82.6278 20.8356 79.6459 19.4106 76.4517 19.077ZM75.9984 40.4088C74.4529 40.6163 72.8813 40.3339 71.5044 39.6012C70.1275 38.8685 69.0146 37.7223 68.3221 36.3238C67.6295 34.9253 67.3922 33.3447 67.6435 31.8042C67.8948 30.2637 68.622 28.8407 69.7229 27.7353C70.8238 26.6298 72.2431 25.8975 73.7813 25.6412C75.3196 25.3848 76.8993 25.6174 78.2987 26.3062C79.698 26.995 80.8466 28.1054 81.5829 29.4813C82.3192 30.8573 82.6063 32.4295 82.4038 33.9772C82.1913 35.6051 81.4485 37.1175 80.2906 38.2802C79.1327 39.4428 77.6241 40.191 75.9984 40.4088ZM96.3813 19.6309C95.8962 19.6321 95.4174 19.7415 94.9799 19.9511C94.5423 20.1608 94.157 20.4655 93.8519 20.843C93.5468 21.2205 93.3296 21.6614 93.2162 22.1335C93.1027 22.6056 93.0958 23.097 93.196 23.5721C93.5029 25.1113 94.9392 26.163 96.5038 26.163H105.584L91.4534 44.8804C91.3489 45.0185 91.2849 45.1831 91.2686 45.3557C91.2523 45.5282 91.2844 45.7019 91.3611 45.8572C91.4379 46.0126 91.5564 46.1434 91.7033 46.2351C91.8503 46.3268 92.0198 46.3758 92.1929 46.3764H114.357C115.921 46.3764 117.358 45.325 117.665 43.7856C117.765 43.3106 117.759 42.8192 117.645 42.3471C117.532 41.8751 117.315 41.4343 117.01 41.0567C116.705 40.6792 116.32 40.3744 115.882 40.1646C115.445 39.9548 114.966 39.8452 114.481 39.8438H103.418L117.538 21.141C117.643 21.0015 117.708 20.8353 117.724 20.661C117.741 20.4868 117.708 20.3115 117.631 20.1546C117.553 19.9978 117.433 19.8657 117.285 19.7732C117.137 19.6807 116.965 19.6314 116.79 19.6309H96.3813ZM184.949 19.7062C184.216 19.8809 183.563 20.301 183.1 20.8971C182.637 21.4932 182.392 22.2295 182.404 22.9844V33.8601L164.798 19.8363C164.66 19.7266 164.494 19.6582 164.318 19.6388C164.143 19.6195 163.966 19.65 163.807 19.727C163.649 19.8039 163.515 19.9241 163.422 20.0738C163.328 20.2234 163.279 20.3964 163.279 20.5728V43.0287C163.268 43.7836 163.513 44.52 163.976 45.1161C164.439 45.7122 165.091 46.1323 165.825 46.3069C166.302 46.4119 166.796 46.4084 167.271 46.2968C167.746 46.1851 168.19 45.9682 168.57 45.6619C168.95 45.3557 169.256 44.9679 169.467 44.5273C169.677 44.0866 169.786 43.6043 169.785 43.116V32.1462L187.391 46.1702C187.529 46.2799 187.695 46.3483 187.87 46.3676C188.045 46.3869 188.223 46.3564 188.381 46.2795C188.54 46.2025 188.673 46.0824 188.767 45.9328C188.86 45.7832 188.909 45.6103 188.909 45.434V22.8961C188.909 22.4079 188.8 21.9257 188.59 21.4852C188.38 21.0447 188.073 20.6571 187.693 20.351C187.313 20.0449 186.869 19.828 186.394 19.7164C185.92 19.6048 185.426 19.6014 184.949 19.7062ZM139.109 25.5377C146.556 25.5377 152.12 29.4768 152.12 33.0004C152.12 36.5239 146.556 40.463 139.109 40.463C131.662 40.463 126.098 36.5239 126.098 33.0004C126.098 29.4768 131.662 25.5377 139.109 25.5377ZM139.109 19.0059C128.33 19.0059 119.592 25.2715 119.592 33.0004C119.592 40.7292 128.33 46.9948 139.109 46.9948C149.888 46.9948 158.625 40.7292 158.625 33.0004C158.625 25.2715 149.888 19.0059 139.109 19.0059Z" fill="#0069FF"/>
</svg>
