<svg width="250" height="66" viewBox="0 0 250 66" fill="none" xmlns="http://www.w3.org/2000/svg">
<g clip-path="url(#clip0_402_2085)">
<mask id="mask0_402_2085" style="mask-type:luminance" maskUnits="userSpaceOnUse" x="64" y="15" width="156" height="36">
<path d="M220 15H64V51H220V15Z" fill="white"/>
</mask>
<g mask="url(#mask0_402_2085)">
<path d="M144.64 28.6649V15H153.253V18.2042H148.236V28.6649H144.64Z" fill="#019BBD"/>
<path d="M164.232 28.6649V23.2932H158.837V28.6649H155.241V15H158.837V20.089H164.232V15H167.829V28.6649H164.232Z" fill="#019BBD"/>
<path d="M188.841 28.6649V18.2042H184.581V15H196.696V18.2042H192.437V28.6649H188.841Z" fill="#019BBD"/>
<path d="M179.281 28.6649V20.8429L173.508 28.6649H170.479V15H174.075V22.7277L179.754 15H182.878V28.6649H179.281Z" fill="#019BBD"/>
<path d="M123.818 28.6649V20.5602L120.221 24.8953L116.624 20.5602V28.6649H112.933V15H116.53L120.221 19.712L123.818 15H127.414V28.6649H123.818Z" fill="#019BBD"/>
<path d="M139.529 28.6649L138.772 26.7801H133.188L132.43 28.6649H128.739L134.323 15H137.636L143.22 28.6649H139.529ZM134.323 23.8586H137.731L135.932 19.6178L134.323 23.8586Z" fill="#019BBD"/>
<path d="M147.006 51.0001V40.5394H142.747V37.3352H154.862V40.5394H150.603V51.0001H147.006Z" fill="#019BBD"/>
<path d="M136.879 51.0001V40.5394H132.241V51.0001H128.645V37.3352H140.57V51.0001H136.879Z" fill="#019BBD"/>
<path d="M157.134 51.0001V37.3352H167.166V40.5394H160.73V42.5184H166.409V45.5341H160.73V47.7959H167.166V51.0001H157.134Z" fill="#019BBD"/>
<path d="M178.808 51.0001L174.265 45.2514H173.318V51.0001H169.722V37.3352H173.318V41.953H174.454L177.956 37.3352H182.121L177.388 43.6493L182.972 51.0001H178.808Z" fill="#019BBD"/>
<path d="M123.723 51.0001L122.966 49.1153H117.287L116.53 51.0001H112.933L118.517 37.3352H121.83L127.414 51.0001H123.723ZM118.517 46.1938H121.925L120.221 41.8587L118.517 46.1938Z" fill="#019BBD"/>
<path d="M194.709 51.0001L193.952 49.1153H188.273L187.515 51.0001H183.919L189.503 37.3352H192.816L198.4 51.0001H194.709ZM189.408 46.1938H192.816L191.112 41.8587L189.408 46.1938Z" fill="#019BBD"/>
<path d="M79.5222 26.0261V30.4554H75.0737V35.6386H79.5222V39.9737H84.7278V35.6386H89.0816V30.4554H84.7278V26.0261H79.5222Z" fill="#019BBD"/>
<path d="M64 25.9319C64 23.0105 65.1358 20.2775 67.218 18.2042C69.3003 16.1309 72.0451 15 74.9792 15H100.25V20.5602H74.9792C73.5594 20.5602 72.2344 21.1257 71.1932 22.1623C70.1521 23.1989 69.5842 24.5183 69.5842 25.9319V35.2618C69.3003 37.712 67.502 39.6911 65.0411 40.0681L64.0946 40.2565V25.9319H64Z" fill="#019BBD"/>
<path d="M64 50.9999V45.4397H89.271C90.6907 45.4397 92.0158 44.8743 93.0569 43.8376C94.098 42.801 94.6659 41.4816 94.6659 40.068V31.2093C94.6659 28.5706 96.6535 26.3088 99.209 25.9319L100.155 25.7434V39.9737C100.155 42.8952 99.0197 45.6282 96.9375 47.7015C94.8552 49.7748 92.1104 50.9057 89.1763 50.9057H64V50.9999Z" fill="#019BBD"/>
</g>
</g>
<defs>
<clipPath id="clip0_402_2085">
<rect width="156" height="36" fill="white" transform="translate(64 15)"/>
</clipPath>
</defs>
</svg>
