<svg width="250" height="66" viewBox="0 0 250 66" fill="none" xmlns="http://www.w3.org/2000/svg">
<g clip-path="url(#clip0_388_3811)">
<path d="M97.8049 46.9515H102.098L108.098 24.6588V46.9515H112.927V17.488H106.293L100.293 39.0978L94.2927 17.488H87.5122V46.9515H91.6585V24.6588L97.8049 46.9515ZM133.122 32.3661C133.122 27.1466 130.537 25.1954 125.171 25.1954C121.805 25.1954 119.171 26.2197 117.61 27.1466V31.2929C118.927 30.2685 121.902 29.1954 124.537 29.1954C127.024 29.1954 128.049 30.1222 128.049 32.3173V33.488H127.268C119.561 33.488 116.049 36.0734 116.049 40.4149C116.049 44.7563 118.634 47.1954 122.585 47.1954C125.561 47.1954 126.878 46.2685 127.805 45.2441H128.049C128.049 45.7807 128.293 46.5612 128.439 46.9515H133.415C133.268 45.2441 133.171 43.4393 133.171 41.7319C133.122 41.7319 133.122 32.3661 133.122 32.3661ZM128.049 41.8783C127.415 42.8051 126.244 43.5856 124.39 43.5856C122.293 43.5856 121.268 42.2685 121.268 40.4636C121.268 37.9758 122.976 37.0978 127.415 37.0978H128.195V41.9271H128.049V41.8783ZM141.854 25.5856H137.171V53.0978H142.244V44.5124C143.561 46.4636 145.366 47.3905 147.61 47.3905C152.585 47.3905 155.951 43.488 155.951 36.3173C155.951 29.1466 152.683 25.2441 147.854 25.2441C145.512 25.2441 143.561 26.2685 142.098 28.3661C142.146 28.3173 141.854 25.5856 141.854 25.5856ZM146.195 43.4393C143.61 43.4393 142.146 41.2441 142.146 36.4149C142.146 31.4393 143.561 29.2441 146.439 29.2441C149.171 29.2441 150.585 31.4393 150.585 36.2685C150.585 41.2441 149.171 43.4393 146.195 43.4393ZM171.707 46.9515H177.463L169.366 35.488L176.537 25.5856H171.463L164.293 35.488V25.5856H159.22V46.9515H164.293V36.5124L171.707 46.9515ZM194.39 45.5368V41.3905C192.829 42.4149 190.244 43.3417 187.756 43.3417C184.098 43.3417 182.683 41.6344 182.39 37.9758H194.488V35.2441C194.488 27.8295 191.219 25.0978 186.146 25.0978C180 25.0978 177.024 29.7807 177.024 36.3173C177.024 43.7319 180.683 47.3905 187.073 47.3905C190.634 47.3417 192.976 46.5612 194.39 45.5368ZM186.195 29.2441C188.683 29.2441 189.463 31.3417 189.463 33.9271V34.3173H182.39C182.537 30.9515 183.854 29.2441 186.195 29.2441ZM212.634 29.6344V25.5856H195.707V29.6344H201.707V46.9515H206.78V29.6344H212.634Z" fill="black"/>
<path d="M57.4146 52.1708C68.2438 52.1708 76.9755 43.4391 76.9755 32.6098C76.9755 21.7805 68.2438 13.0488 57.4146 13.0488C46.5853 13.0488 37.8536 21.7805 37.8536 32.6098C37.756 43.4391 46.6341 52.1708 57.4146 52.1708Z" fill="#FED42B"/>
<mask id="mask0_388_3811" style="mask-type:luminance" maskUnits="userSpaceOnUse" x="37" y="13" width="40" height="40">
<path d="M57.4146 52.1708C68.2438 52.1708 76.9755 43.4391 76.9755 32.6098C76.9755 21.7805 68.2438 13.0488 57.4146 13.0488C46.5853 13.0488 37.8536 21.7805 37.8536 32.6098C37.756 43.4391 46.6341 52.1708 57.4146 52.1708Z" fill="white"/>
</mask>
<g mask="url(#mask0_388_3811)">
<path d="M47.8047 23.7803L30.5852 46.3168L35.1706 51.5364L47.951 34.6095L46.634 43.8778L53.8047 46.3656L62.5364 32.4144C62.1462 34.9998 61.512 40.9998 67.2193 42.8534C76.1949 45.5851 84.0486 29.4388 87.6584 21.2437L82.4388 18.512C78.3901 26.9998 72.1462 36.3656 69.6584 35.7315C67.1706 35.0973 69.4145 27.1461 70.8291 22.0242V21.8778L62.8779 19.1461L53.3657 34.6583L54.6828 26.1705L47.8047 23.7803Z" fill="black"/>
</g>
</g>
<defs>
<clipPath id="clip0_388_3811">
<rect width="174.634" height="40" fill="white" transform="translate(38 13)"/>
</clipPath>
</defs>
</svg>
