<svg width="250" height="66" viewBox="0 0 250 66" fill="none" xmlns="http://www.w3.org/2000/svg">
<path fill-rule="evenodd" clip-rule="evenodd" d="M206.142 14.4143C207.248 14.4143 208.147 15.3534 208.147 16.5113C208.147 17.6693 207.248 18.6076 206.142 18.6076C205.033 18.6076 204.137 17.6693 204.137 16.5113C204.137 15.3534 205.033 14.4143 206.142 14.4143ZM210.669 24.6047V13.084H204.996C203.624 13.084 202.103 13.1306 201.24 14.4174C200.601 15.3797 200.554 16.9343 201.123 17.944C201.382 18.4105 201.741 18.7861 202.199 19.0756C202.49 19.258 202.89 19.4117 203.394 19.532C202.522 19.8378 201.905 20.3989 201.492 21.2783L199.837 24.6063H203.685L205.503 21.0928C205.733 20.638 205.938 20.3415 206.119 20.2041C206.364 20.0279 206.643 19.9402 206.954 19.9402H207.253V24.6063H210.669V24.6047ZM95.6042 20.0217L98.6217 20.974C98.4193 21.858 98.1003 22.5984 97.663 23.1898C97.2448 23.7694 96.6857 24.2316 96.0392 24.5325C95.3933 24.8321 94.5721 24.985 93.5732 24.985C92.3604 24.985 91.3738 24.8011 90.6036 24.434C89.8365 24.0653 89.1745 23.4172 88.6159 22.4929C88.0597 21.567 87.78 20.3811 87.78 18.9383C87.78 17.0135 88.2698 15.5311 89.2494 14.4965C90.2313 13.4627 91.6187 12.9443 93.4133 12.9443C94.8163 12.9443 95.9194 13.24 96.7236 13.8345C97.5248 14.4274 98.1235 15.3402 98.512 16.5711L95.4791 17.2727C95.3733 16.9203 95.262 16.6627 95.1454 16.5005C94.9623 16.2366 94.7198 16.0199 94.4377 15.8679C94.1488 15.7169 93.827 15.6406 93.5014 15.646C92.7173 15.646 92.1186 15.9743 91.7037 16.6277C91.3916 17.1128 91.2332 17.8773 91.2332 18.9165C91.2332 20.2072 91.4202 21.0889 91.7957 21.5677C92.1711 22.0451 92.6972 22.2841 93.377 22.2841C94.0352 22.2841 94.5327 22.0916 94.8696 21.7043C95.2072 21.3194 95.4505 20.7575 95.6035 20.0225L95.6042 20.0217ZM125.149 27.3343H122.396V24.8119H113.367V13.2299H116.782V21.9643H120.542V13.2307H123.959V22.1421H125.149V27.3343ZM137.111 13.1569V24.6916H133.906V18.3585L129.809 24.6916H126.577V13.1569H129.795V19.5397L133.925 13.1569H137.111ZM145.417 20.232L144.21 16.0798L143.001 20.232H145.417ZM146.14 22.7335H142.274L141.717 24.6365H138.235L142.391 13.0832H146.128L150.266 24.6365H146.693L146.14 22.7335ZM161.738 24.725H158.303V15.9455H155.613V19.5258C155.613 20.9965 155.539 22.0777 155.391 22.7684C155.24 23.4591 154.891 23.9675 154.341 24.2896C153.792 24.6117 152.907 24.7747 151.681 24.7747C151.248 24.7686 150.816 24.7261 150.391 24.6474V22.2872H150.904C151.369 22.2872 151.699 22.1786 151.89 21.9643C152.083 21.7501 152.178 21.3574 152.178 20.7846V13.084H161.738V24.7258V24.725ZM175.947 12.9357H179.387V17.0057H183.154V12.9357H186.609V24.5923H183.154V19.8719H179.387V24.5923H175.947V12.9357ZM194.868 20.1824L193.67 16.0589L192.468 20.1824H194.868ZM195.587 22.666H191.746L191.194 24.5566H187.736L191.863 13.0832H195.573L199.685 24.5566H196.135L195.587 22.6667V22.666ZM105.649 16.27C107.026 16.27 108.144 17.4388 108.144 18.8808C108.144 20.3213 107.026 21.4894 105.649 21.4894C104.271 21.4894 103.153 20.3213 103.153 18.8808C103.153 17.4388 104.271 16.27 105.649 16.27ZM105.649 12.9451C102.171 12.9451 99.959 15.2424 99.959 18.8808C99.959 22.5177 102.335 24.8282 105.812 24.8282C109.29 24.8282 111.358 22.3516 111.358 18.7147C111.358 15.0778 109.127 12.9451 105.648 12.9451H105.649ZM168.899 18.901C170.035 18.901 170.957 19.8634 170.957 21.0524C170.957 22.2399 170.035 23.2054 168.899 23.2054C167.763 23.2054 166.842 22.2414 166.842 21.0524C166.842 19.8634 167.763 18.901 168.899 18.901ZM167.386 24.6846C169.895 24.6846 174.389 25.1037 174.297 21.1199C174.204 17.1361 170.143 17.4512 167.386 17.4194V12.8628H163.898V24.6846H167.386Z" fill="#FCCE00"/>
<path fill-rule="evenodd" clip-rule="evenodd" d="M204.161 44.7037L202 37.3027L199.831 44.7045H204.161V44.7037ZM205.456 49.1625H198.527L197.532 52.5565H191.288L198.738 31.9622H205.433L212.852 52.5565H206.447L205.456 49.1625ZM190.819 52.5565H183.93L181.525 47.2541C180.968 45.9937 180.534 45.2082 180.221 44.8916C179.912 44.5749 179.478 44.4166 178.931 44.4166V52.5565H172.821V31.9622H178.931V39.8724C179.461 39.8429 179.875 39.6473 180.17 39.2825C180.47 38.9178 180.931 37.8685 181.562 36.1377C182.022 34.8587 182.483 33.9374 182.953 33.3817C183.419 32.8252 184.18 32.4271 185.23 32.1834C186.284 31.9381 187.934 31.8186 190.183 31.8186V36.161H189.873C188.827 36.161 188.053 36.3674 187.552 36.7796C187.05 37.1925 186.634 37.8584 186.313 38.7843C185.985 39.7094 185.639 40.3947 185.266 40.8495C184.893 41.3051 184.382 41.6699 183.736 41.9384C184.616 42.2396 185.387 42.758 186.042 43.4914C186.7 44.2295 187.395 45.3751 188.131 46.9289L190.819 52.5565ZM152.857 31.9622H169.223V36.3628H158.994V39.6427H168.477V43.8415H158.994V47.8967H169.527V52.5565H152.857V31.9622ZM131.51 31.9622H150.115V37.0535H143.867V52.5565H137.758V37.0535H131.51V31.9622ZM128.828 52.5565H122.719V37.0248H116.001V52.5565H109.891V31.9622H128.828V52.5565ZM99.2431 44.7045L97.0823 37.3019L94.9122 44.7045H99.2431ZM100.538 49.1625H93.6082L92.6124 52.5565H86.3704L93.8199 31.9622H100.515L107.933 52.5565H101.529L100.538 49.1625Z" fill="#CE0C36"/>
<path fill-rule="evenodd" clip-rule="evenodd" d="M79.1155 43.0798C77.2351 46.4792 74.7283 48.6337 72.0422 50.2589C68.7898 52.2209 65.539 49.7296 61.2043 49.7296C57.8083 49.7296 54.4756 51.3804 50.8006 50.1821C44.985 48.2845 40.57 41.0518 40.57 34.5122C40.57 27.9501 41.9343 22.7222 47.5305 19.3406C52.4361 16.3743 59.1285 19.9561 59.1285 19.9561C59.1285 19.9561 54.3458 14.7064 47.8032 17.072C40.3869 19.7528 37.5293 27.0801 37.5293 34.662C37.5293 42.1849 42.8242 51.597 50.1957 54.1496C55.5695 55.6235 55.4984 53.597 61.1332 53.597C66.7681 53.597 68.1386 56.0744 71.9726 54.339C77.0049 51.8282 79.8447 48.293 81.8108 43.027C81.3481 43.0565 79.837 43.0798 79.1155 43.0798ZM62.6103 17.8171C62.6667 17.5905 62.9634 16.5621 62.5601 15.4143C62.1924 14.1119 60.8992 12.6567 59.5835 12.5496C59.5982 12.5915 60.1027 12.5768 60.9926 13.3149C61.803 14.0211 62.9974 15.4694 62.6103 17.8163V17.8171ZM62.2009 19.648C62.4149 19.0799 62.4821 18.393 62.4473 18.1966C62.4473 18.1928 61.7853 17.821 61.2035 17.2125C60.5855 16.5823 60.0463 15.7154 59.4236 14.1818C58.879 12.9532 58.0447 12.382 57.449 12.1227C56.8326 11.8666 56.4525 11.9209 56.2686 11.9675C56.6881 11.7991 58.4858 11.21 60.6581 12.0117C61.6956 12.406 62.7362 13.1534 63.2886 14.2625C63.8348 15.3537 63.8881 16.8128 62.8166 18.2114C62.8243 18.2261 62.4921 18.9875 62.2959 19.8575C62.2572 19.8149 62.2153 19.7752 62.1708 19.7388C62.1816 19.7116 62.1901 19.6798 62.2017 19.648H62.2009Z" fill="#008E62"/>
<path fill-rule="evenodd" clip-rule="evenodd" d="M69.0044 14.2581C66.5184 15.2073 64.8104 17.4123 64.9054 17.403C68.5904 13.7575 71.7941 13.8095 73.506 13.9718C75.3122 14.2659 75.6266 14.6664 75.7347 14.744C74.6045 13.3252 71.4147 13.1646 69.0044 14.2581ZM73.7594 18.9071C68.4359 23.8975 64.5848 18.3359 64.4805 18.1931C64.1529 18.3095 63.1193 19.1011 62.5074 20.0364L62.1196 19.9331C63.134 18.8799 64.18 17.143 64.1977 17.1531C65.8649 12.5918 68.4822 11.3904 70.6345 11.0908C72.8439 10.8595 74.5883 11.5347 75.846 12.2977C78.1922 13.8142 79.2436 15.9159 79.5789 16.9179C79.3239 16.491 78.1729 15.2477 73.7594 18.9063V18.9071ZM63.334 29.7247H68.9426V23.8238H73.7663V29.7254H79.4074V34.7687H73.7656V40.6338H68.9426V34.7687H63.3333V29.7247H63.334Z" fill="#008E62"/>
<path fill-rule="evenodd" clip-rule="evenodd" d="M63.3997 36.1625C63.3997 33.1597 62.8434 32.6265 61.4312 32.6265C60.8287 32.6265 60.4115 32.6979 59.9704 32.843V38.6825C59.9951 39.1909 60.5266 39.5549 61.4784 39.5549C62.7971 39.5549 63.3997 38.7819 63.3997 36.1633V36.1625ZM56.4067 38.6593V32.8422C55.9888 32.6979 55.5507 32.6265 54.9489 32.6265C53.5352 32.6265 52.979 33.1604 52.979 36.1625C52.979 38.7819 53.6047 39.5549 54.9026 39.5549C55.8737 39.5549 56.4067 39.163 56.4067 38.6593ZM56.4067 24.925H59.9704V29.6749C60.4115 29.5492 60.8743 29.5274 61.4305 29.5274C65.3441 29.5267 66.8019 31.0036 66.8019 36.0701C66.8019 41.0792 65.0444 42.605 62.2393 42.605C61.1979 42.605 60.5034 42.3373 59.9704 42.0509V46.9179H56.4067V42.0501C55.8953 42.3373 55.2015 42.6043 54.1378 42.6043C51.335 42.6043 49.5752 41.08 49.5752 36.0693C49.5752 31.0036 51.0337 29.5267 54.9489 29.5267C55.5036 29.5267 55.9656 29.5499 56.4067 29.6749V24.925Z" fill="#CE0C36"/>
</svg>
