<svg width="250" height="66" viewBox="0 0 250 66" fill="none" xmlns="http://www.w3.org/2000/svg">
<g clip-path="url(#clip0_388_3823)">
<path fill-rule="evenodd" clip-rule="evenodd" d="M178.916 37.3259L176.591 26.8632C176.047 24.4093 174.935 23.7751 173.21 23.7751C171.488 23.7751 170.38 24.4093 169.842 26.8632L167.505 37.3259C166.212 43.1494 163.988 45.1882 159.5 45.1882V44.554C160.286 44.3477 161.044 42.9747 162.555 37.1489L165.205 26.7601C166.249 22.721 168.616 20.1265 173.21 20.1265C177.808 20.1265 180.177 22.721 181.213 26.7601L183.876 37.1489C185.384 42.9747 186.132 44.3477 186.93 44.554V45.1882C182.439 45.1882 180.207 43.1494 178.916 37.3259Z" fill="#00953B"/>
<path fill-rule="evenodd" clip-rule="evenodd" d="M103.33 24.2658H98.952V32.5514H103.33C105.594 32.5514 107.565 30.9744 107.565 28.4104C107.565 25.8462 105.594 24.2658 103.33 24.2658ZM98.9651 37.0652C98.9651 43.6249 97.3021 44.8665 92.814 44.8537V44.224C93.6353 44.0283 94.2876 43.6671 94.2876 36.8155L94.284 27.0738C94.284 22.268 93.965 21.4578 92.8546 21.2503V20.6172H104.371C108.897 20.6172 112.34 23.9199 112.34 28.4104C112.34 32.9031 108.897 36.2046 104.371 36.2046H98.952L98.9651 37.0652Z" fill="#00953B"/>
<path fill-rule="evenodd" clip-rule="evenodd" d="M207.448 37.3259L207.01 35.5345H195.888L195.454 37.3259C194.052 43.1494 192.116 45.1882 187.631 45.1882V44.554C188.422 44.3477 189.207 42.9747 190.678 37.1489L193.335 26.7601C194.413 22.5135 196.929 20.1265 201.453 20.1265C205.973 20.1265 208.485 22.5135 209.562 26.7601L212.217 37.1489C213.69 42.9747 214.483 44.3477 215.268 44.554V45.1882C210.782 45.1882 208.848 43.1494 207.448 37.3259ZM205.112 27.1493C204.467 24.4093 203.388 23.7751 201.453 23.7751C199.51 23.7751 198.434 24.4093 197.786 27.1493L196.677 31.954H206.223L205.112 27.1493Z" fill="#00953B"/>
<path fill-rule="evenodd" clip-rule="evenodd" d="M116.71 26.9478C116.71 22.142 116.582 21.4479 115.332 21.1232V20.4877H121.195V36.0951L121.483 36.2709L138.104 19.9167H138.749V36.8138C138.749 43.6667 139.402 44.0278 140.225 44.2224V44.8519C135.922 44.9036 134.264 43.717 134.264 37.1033V29.3584L133.977 29.1789L117.354 45.539H116.71V26.9478Z" fill="#00953B"/>
<path fill-rule="evenodd" clip-rule="evenodd" d="M144.582 20.5884H162.805V25.6451H162.152C161.938 24.4469 160.647 24.2358 156.197 24.2358H150.729V36.9765C150.729 43.5376 149.069 44.8659 144.588 44.853V44.2245C145.404 44.0287 146.041 43.6676 146.041 36.8149V27.0743C146.041 22.2673 145.696 21.4572 144.582 21.2508V20.5884Z" fill="#00953B"/>
<path fill-rule="evenodd" clip-rule="evenodd" d="M44.3137 20.0736C44.4109 20.1912 44.6456 20.4691 44.8737 20.7181C45.0168 20.8634 47.5932 23.452 48.9316 24.7933C48.0211 23.0929 46.4152 20.0897 46.3104 19.9219C46.1412 19.629 45.9458 19.3309 45.8574 19.1951C45.3257 18.369 44.3268 17.6294 43.2144 17.219C43.3148 18.3016 43.7078 19.3629 44.3137 20.0736Z" fill="url(#paint0_radial_388_3823)"/>
<path fill-rule="evenodd" clip-rule="evenodd" d="M40.096 36.0561C39.7653 36.1278 39.4181 36.2197 39.2543 36.2528C38.2871 36.4933 37.2664 37.1944 36.5164 38.0996C37.6026 38.3496 38.762 38.3027 39.6299 37.9639C39.7784 37.9083 40.1146 37.7801 40.4246 37.6432C40.6222 37.5599 43.929 35.9536 45.6397 35.1252C43.715 35.4458 40.2947 36.0123 40.096 36.0561Z" fill="url(#paint1_radial_388_3823)"/>
<path fill-rule="evenodd" clip-rule="evenodd" d="M53.8657 46.8334C53.8232 47.1669 53.8047 47.5196 53.7894 47.6767C53.7239 48.6535 54.0819 49.8249 54.7414 50.8028C55.3167 49.8666 55.6299 48.7785 55.5711 47.8659C55.5546 47.7001 55.5382 47.3539 55.5012 47.0204C55.4847 46.8141 54.9444 43.2403 54.6671 41.386C54.3844 43.2809 53.8801 46.6378 53.8657 46.8334Z" fill="url(#paint2_radial_388_3823)"/>
<path fill-rule="evenodd" clip-rule="evenodd" d="M63.143 18.8807C63.06 19.0153 62.8635 19.3114 62.691 19.6042C62.5895 19.7763 60.8733 22.9804 59.9836 24.6391C61.357 23.2668 63.775 20.8429 63.9136 20.6986C64.1341 20.4496 64.3646 20.1717 64.4661 20.0541C65.1101 19.2975 65.5196 18.1453 65.5851 16.9804L65.584 16.9783C64.5501 17.4047 63.644 18.1037 63.143 18.8807Z" fill="url(#paint3_radial_388_3823)"/>
<path fill-rule="evenodd" clip-rule="evenodd" d="M63.5359 34.9092C65.2827 35.7589 68.3874 37.2627 68.5731 37.3406C68.8821 37.4742 69.2237 37.6088 69.3722 37.6623C70.3022 38.0289 71.5522 38.0514 72.6964 37.7467C71.9694 36.9227 71.0086 36.2944 70.1004 36.0667C69.9486 36.0282 69.5971 35.9385 69.2619 35.8733C69.0556 35.8283 65.4159 35.2203 63.5359 34.9092Z" fill="url(#paint4_radial_388_3823)"/>
<path fill-rule="evenodd" clip-rule="evenodd" d="M66.1326 16.7898C65.9481 16.8454 65.7624 16.9191 65.5856 16.9875C65.5201 18.1525 65.1108 19.3056 64.4721 20.0634C64.3651 20.181 64.1348 20.4588 63.9143 20.7079C63.7756 20.8521 61.3574 23.2761 59.9841 24.6484C59.6719 25.2383 59.4579 25.6316 59.4579 25.6316C58.6348 27.161 57.9994 28.9126 58.5714 30.722C59.1948 32.51 60.7581 33.5607 62.3476 34.3259C62.3476 34.3259 62.8323 34.5621 63.5364 34.9041C65.4164 35.2151 69.0551 35.8232 69.2624 35.8681C69.5976 35.9334 69.9491 36.023 70.1009 36.0617C71.0091 36.2892 71.9699 36.9177 72.6991 37.7416C72.8171 37.7107 72.9349 37.6797 73.0496 37.6422C76.0038 36.6601 77.6216 33.5874 76.7766 30.6847C75.9568 28.3173 74.0758 28.6636 73.2089 26.0623C72.3531 23.4652 74.0768 22.6626 73.3214 20.2729C72.4633 17.9836 70.2483 16.5322 67.8608 16.5322C67.2886 16.5322 66.7068 16.6156 66.1326 16.7898Z" fill="#D8D8D8"/>
<mask id="mask0_388_3823" style="mask-type:alpha" maskUnits="userSpaceOnUse" x="58" y="16" width="19" height="22">
<path fill-rule="evenodd" clip-rule="evenodd" d="M66.1323 16.7888C65.9478 16.8444 65.7622 16.9181 65.5853 16.9865C65.5198 18.1515 65.1105 19.3047 64.4718 20.0624C64.3648 20.18 64.1345 20.4579 63.914 20.7069C63.7753 20.8512 61.3572 23.2751 59.9838 24.6474C59.6717 25.2373 59.4577 25.6306 59.4577 25.6306C58.6345 27.16 57.9992 28.9117 58.5712 30.721C59.1945 32.5091 60.7578 33.5597 62.3473 34.325C62.3473 34.325 62.832 34.5611 63.5362 34.9032C65.4162 35.2141 69.0548 35.8223 69.2622 35.8671C69.5973 35.9324 69.9488 36.0221 70.1007 36.0605C71.0088 36.2882 71.9697 36.9167 72.6988 37.7407C72.8168 37.7097 72.9347 37.6787 73.0493 37.6413C76.0035 36.6591 77.6213 33.5864 76.7763 30.6837C75.9565 28.3164 74.0755 28.6627 73.2087 26.0613C72.3528 23.4643 74.0765 22.6616 73.3212 20.2719C72.463 17.9826 70.248 16.5312 67.8605 16.5312C67.2883 16.5312 66.7065 16.6146 66.1323 16.7888Z" fill="white"/>
</mask>
<g mask="url(#mask0_388_3823)">
<path d="M77.389 9.06812L86.159 35.8858L60.3166 44.2086L51.5466 17.3908L77.389 9.06812Z" fill="url(#paint5_radial_388_3823)"/>
</g>
<path fill-rule="evenodd" clip-rule="evenodd" d="M57.1939 35.4566C55.6514 36.5863 55.1054 38.368 54.8599 40.0812C54.8599 40.0812 54.7824 40.6069 54.6677 41.3626C54.9451 43.2168 55.4854 46.7907 55.5017 46.997C55.5389 47.3305 55.5552 47.6767 55.5716 47.8425C55.6306 48.7551 55.3172 49.8432 54.7419 50.7794C54.8074 50.8798 54.8751 50.9813 54.9494 51.0744C56.8086 53.5164 60.2997 54.0765 62.8532 52.39C64.9067 50.8948 63.9821 49.25 66.2441 47.6425C68.5051 46.0373 69.8151 47.4031 71.9067 45.9539C74.3326 44.0974 74.8696 40.6775 73.0661 38.1851C72.9569 38.0302 72.8281 37.8784 72.6994 37.7331C71.5531 38.0377 70.3031 38.0152 69.3729 37.6487C69.2244 37.5952 68.8827 37.4606 68.5771 37.327C68.3926 37.2489 65.2822 35.7441 63.5367 34.8956C62.8664 34.7833 62.4209 34.7064 62.4209 34.7064C61.7846 34.5995 61.1339 34.5237 60.4854 34.5237C59.3391 34.5237 58.2037 34.7566 57.1939 35.4566Z" fill="#D8D8D8"/>
<mask id="mask1_388_3823" style="mask-type:alpha" maskUnits="userSpaceOnUse" x="54" y="34" width="21" height="20">
<path fill-rule="evenodd" clip-rule="evenodd" d="M57.1939 35.4566C55.6514 36.5863 55.1054 38.368 54.8599 40.0812C54.8599 40.0812 54.7824 40.6069 54.6677 41.3626C54.9451 43.2168 55.4854 46.7907 55.5017 46.997C55.5389 47.3305 55.5552 47.6767 55.5716 47.8425C55.6306 48.7551 55.3172 49.8432 54.7419 50.7794C54.8074 50.8798 54.8751 50.9813 54.9494 51.0744C56.8086 53.5164 60.2997 54.0765 62.8532 52.39C64.9067 50.8948 63.9821 49.25 66.2441 47.6425C68.5051 46.0373 69.8151 47.4031 71.9067 45.9539C74.3326 44.0974 74.8696 40.6775 73.0661 38.1851C72.9569 38.0302 72.8281 37.8784 72.6994 37.7331C71.5531 38.0377 70.3031 38.0152 69.3729 37.6487C69.2244 37.5952 68.8827 37.4606 68.5771 37.327C68.3926 37.2489 65.2822 35.7441 63.5367 34.8956C62.8664 34.7833 62.4209 34.7064 62.4209 34.7064C61.7846 34.5995 61.1339 34.5237 60.4854 34.5237C59.3391 34.5237 58.2037 34.7566 57.1939 35.4566Z" fill="white"/>
</mask>
<g mask="url(#mask1_388_3823)">
<path d="M86.6282 48.4597L62.3059 65.9143L44.6489 41.9865L68.9712 24.4163L86.6282 48.4597Z" fill="url(#paint6_radial_388_3823)"/>
</g>
<path fill-rule="evenodd" clip-rule="evenodd" d="M46.9477 34.8995C46.9477 34.8995 46.415 34.985 45.6399 35.1154C43.9303 35.9437 40.6224 37.5501 40.4248 37.6333C40.1148 37.7702 39.7785 37.8985 39.6301 37.9541C38.7622 38.2929 37.6071 38.3398 36.5165 38.0898C36.4401 38.1838 36.3681 38.281 36.2938 38.3761C34.4991 40.8673 35.0285 44.2874 37.4608 46.1439C39.5438 47.5909 40.856 46.2293 43.1169 47.8314C45.3767 49.4389 44.4597 51.0879 46.5056 52.5842C49.07 54.2707 52.5513 53.7106 54.4138 51.2642C54.5318 51.1061 54.6387 50.9512 54.7413 50.7866C54.082 49.8086 53.7238 48.6373 53.7893 47.6605C53.8047 47.5034 53.8232 47.1505 53.8658 46.8171C53.88 46.6216 54.3843 43.2647 54.6672 41.3698C54.57 40.7135 54.5012 40.2732 54.5012 40.2732C54.2512 38.5567 53.7118 36.7752 52.1638 35.6455C51.1573 34.9497 50.022 34.7168 48.8812 34.7168C48.2305 34.7168 47.5787 34.7905 46.9477 34.8995Z" fill="#D8D8D8"/>
<mask id="mask2_388_3823" style="mask-type:alpha" maskUnits="userSpaceOnUse" x="35" y="34" width="20" height="20">
<path fill-rule="evenodd" clip-rule="evenodd" d="M46.9472 34.8997C46.9472 34.8997 46.4145 34.9853 45.6394 35.1156C43.9298 35.944 40.6219 37.5503 40.4243 37.6336C40.1143 37.7705 39.778 37.8987 39.6296 37.9543C38.7617 38.2931 37.6066 38.34 36.516 38.09C36.4396 38.1841 36.3676 38.2812 36.2933 38.3764C34.4986 40.8676 35.028 44.2877 37.4603 46.1442C39.5433 47.5911 40.8555 46.2296 43.1164 47.8317C45.3763 49.4391 44.4592 51.0881 46.5051 52.5845C49.0695 54.271 52.5508 53.7109 54.4133 51.2645C54.5313 51.1064 54.6382 50.9514 54.7408 50.7868C54.0815 49.8089 53.7233 48.6375 53.7888 47.6607C53.8042 47.5036 53.8227 47.1508 53.8653 46.8174C53.8795 46.6218 54.3838 43.2649 54.6667 41.37C54.5695 40.7138 54.5007 40.2734 54.5007 40.2734C54.2507 38.5569 53.7113 36.7754 52.1633 35.6458C51.1568 34.9499 50.0215 34.717 48.8807 34.717C48.23 34.717 47.5782 34.7907 46.9472 34.8997Z" fill="white"/>
</mask>
<g mask="url(#mask2_388_3823)">
<path d="M47.3369 66.1478L23.0146 48.6932L40.6717 24.6497L65.1109 42.1042L47.3369 66.1478Z" fill="url(#paint7_radial_388_3823)"/>
</g>
<path fill-rule="evenodd" clip-rule="evenodd" d="M35.6826 20.5767C34.9217 22.9664 36.6554 23.769 35.7864 26.365C34.9283 28.9642 33.0473 28.6223 32.2263 30.9874C31.3737 33.8923 32.9982 36.9606 35.9523 37.9439C36.1357 38.0006 36.3257 38.0572 36.5167 38.0968C37.2667 37.1915 38.2874 36.4905 39.2569 36.2499C39.4184 36.2168 39.7656 36.1249 40.0964 36.0532C40.2951 36.0094 43.7154 35.4408 45.64 35.1224C46.2525 34.8274 46.6586 34.6276 46.6586 34.6276C48.2459 33.8645 49.8103 32.8117 50.4305 31.0195C51.0013 29.2176 50.3715 27.4669 49.5418 25.9375C49.5418 25.9375 49.2928 25.463 48.9315 24.7886C47.5942 23.4473 45.0167 20.8599 44.8737 20.7135C44.6455 20.4644 44.4108 20.1866 44.3136 20.069C43.7077 19.3583 43.3147 18.297 43.2143 17.2144C43.1051 17.1695 42.9894 17.1321 42.877 17.0947C42.2994 16.9183 41.7154 16.835 41.1423 16.835C38.7558 16.8339 36.5385 18.2895 35.6826 20.5767Z" fill="#D8D8D8"/>
<mask id="mask3_388_3823" style="mask-type:alpha" maskUnits="userSpaceOnUse" x="32" y="16" width="19" height="23">
<path fill-rule="evenodd" clip-rule="evenodd" d="M35.6826 20.5767C34.9217 22.9664 36.6554 23.769 35.7864 26.365C34.9283 28.9642 33.0473 28.6223 32.2263 30.9874C31.3737 33.8923 32.9982 36.9606 35.9523 37.9439C36.1357 38.0006 36.3257 38.0572 36.5167 38.0968C37.2667 37.1915 38.2874 36.4905 39.2569 36.2499C39.4184 36.2168 39.7656 36.1249 40.0964 36.0532C40.2951 36.0094 43.7154 35.4408 45.64 35.1224C46.2525 34.8274 46.6586 34.6276 46.6586 34.6276C48.2459 33.8645 49.8103 32.8117 50.4305 31.0195C51.0013 29.2176 50.3715 27.4669 49.5418 25.9375C49.5418 25.9375 49.2928 25.463 48.9315 24.7886C47.5942 23.4473 45.0167 20.8599 44.8737 20.7135C44.6455 20.4644 44.4108 20.1866 44.3136 20.069C43.7077 19.3583 43.3147 18.297 43.2143 17.2144C43.1051 17.1695 42.9894 17.1321 42.877 17.0947C42.2994 16.9183 41.7154 16.835 41.1423 16.835C38.7558 16.8339 36.5385 18.2895 35.6826 20.5767Z" fill="white"/>
</mask>
<g mask="url(#mask3_388_3823)">
<path d="M23.0154 36.3498L31.9024 9.4165L57.7447 17.7392L48.8577 44.6726L23.0154 36.3498Z" fill="url(#paint8_radial_388_3823)"/>
</g>
<path fill-rule="evenodd" clip-rule="evenodd" d="M54.3884 12.8896C51.6046 12.8896 51.3546 11.0342 48.8033 11C45.7192 11.109 43.2279 13.5639 43.193 16.6163C43.1864 16.8097 43.1962 17.0011 43.2137 17.1945C44.3262 17.6049 45.3251 18.3445 45.8567 19.1706C45.9451 19.3064 46.1406 19.6045 46.3098 19.8974C46.4146 20.0652 48.0226 23.0694 48.9309 24.7688C49.4036 25.2412 49.7191 25.5618 49.7191 25.5618C50.9539 26.8037 52.4593 27.9312 54.3884 27.9579C56.3251 27.9312 57.8261 26.8037 59.0608 25.5618C59.0608 25.5618 59.4451 25.1824 59.9833 24.6341C60.8731 22.9754 62.5893 19.7713 62.6908 19.5992C62.8633 19.3064 63.0598 19.0103 63.1428 18.8757C63.6438 18.0987 64.5499 17.3997 65.5848 16.9733C65.5859 16.8557 65.5946 16.7339 65.5859 16.6163C65.5466 13.5639 63.0653 11.109 59.9833 11C57.4266 11.0342 57.1798 12.8896 54.3884 12.8896Z" fill="#D8D8D8"/>
<mask id="mask4_388_3823" style="mask-type:alpha" maskUnits="userSpaceOnUse" x="43" y="11" width="23" height="17">
<path fill-rule="evenodd" clip-rule="evenodd" d="M54.3884 12.8896C51.6046 12.8896 51.3546 11.0342 48.8033 11C45.7192 11.109 43.2279 13.5639 43.193 16.6163C43.1864 16.8097 43.1962 17.0011 43.2137 17.1945C44.3262 17.6049 45.3251 18.3445 45.8567 19.1706C45.9451 19.3064 46.1406 19.6045 46.3098 19.8974C46.4146 20.0652 48.0226 23.0694 48.9309 24.7688C49.4036 25.2412 49.7191 25.5618 49.7191 25.5618C50.9539 26.8037 52.4593 27.9312 54.3884 27.9579C56.3251 27.9312 57.8261 26.8037 59.0608 25.5618C59.0608 25.5618 59.4451 25.1824 59.9833 24.6341C60.8731 22.9754 62.5893 19.7713 62.6908 19.5992C62.8633 19.3064 63.0598 19.0103 63.1428 18.8757C63.6438 18.0987 64.5499 17.3997 65.5848 16.9733C65.5859 16.8557 65.5946 16.7339 65.5859 16.6163C65.5466 13.5639 63.0653 11.109 59.9833 11C57.4266 11.0342 57.1798 12.8896 54.3884 12.8896Z" fill="white"/>
</mask>
<g mask="url(#mask4_388_3823)">
<path d="M42.7773 9.75024H66.7488V28.1297H42.7773V9.75024Z" fill="url(#paint9_radial_388_3823)"/>
</g>
</g>
<defs>
<radialGradient id="paint0_radial_388_3823" cx="0" cy="0" r="1" gradientUnits="userSpaceOnUse" gradientTransform="translate(50.476 28.7448) rotate(-75.0988) scale(11.3993 9.03413)">
<stop stop-color="#F4ECE0"/>
<stop offset="0.5112" stop-color="#B48C80"/>
<stop offset="1" stop-color="#933F39"/>
</radialGradient>
<radialGradient id="paint1_radial_388_3823" cx="0" cy="0" r="1" gradientUnits="userSpaceOnUse" gradientTransform="translate(51.0095 35.6239) rotate(-165.747) scale(10.6076 5.29403)">
<stop stop-color="#F4EDEB"/>
<stop offset="0.5112" stop-color="#B49B9E"/>
<stop offset="1" stop-color="#785830"/>
</radialGradient>
<radialGradient id="paint2_radial_388_3823" cx="0" cy="0" r="1" gradientUnits="userSpaceOnUse" gradientTransform="translate(54.7334 34.7278) rotate(105.124) scale(8.51795 4.55394)">
<stop stop-color="#EFEBE0"/>
<stop offset="0.5112" stop-color="#AE9954"/>
<stop offset="1" stop-color="#91592F"/>
</radialGradient>
<radialGradient id="paint3_radial_388_3823" cx="0" cy="0" r="1" gradientUnits="userSpaceOnUse" gradientTransform="translate(58.5915 28.5626) rotate(75.5455) scale(11.5127 8.87449)">
<stop stop-color="#E2DDDB"/>
<stop offset="0.5112" stop-color="#9D8F8C"/>
<stop offset="1" stop-color="#2B2E2E"/>
</radialGradient>
<radialGradient id="paint4_radial_388_3823" cx="0" cy="0" r="1" gradientUnits="userSpaceOnUse" gradientTransform="translate(57.3732 34.7604) rotate(52.9073) scale(7.17073 14.5773)">
<stop stop-color="#B4C9B6"/>
<stop offset="0.5112" stop-color="#889281"/>
<stop offset="1" stop-color="#194936"/>
</radialGradient>
<radialGradient id="paint5_radial_388_3823" cx="0" cy="0" r="1" gradientUnits="userSpaceOnUse" gradientTransform="translate(55.2136 31.7293) rotate(71.8066) scale(18.0543 17.8363)">
<stop stop-color="#8FD0F1"/>
<stop offset="0.5112" stop-color="#4B97D1"/>
<stop offset="1" stop-color="#0064AD"/>
</radialGradient>
<radialGradient id="paint6_radial_388_3823" cx="0" cy="0" r="1" gradientUnits="userSpaceOnUse" gradientTransform="translate(55.2219 32.4655) rotate(144.312) scale(18.1726 18.1068)">
<stop stop-color="#FFF0E2"/>
<stop offset="0.5112" stop-color="#FFD02A"/>
<stop offset="1" stop-color="#F59324"/>
</radialGradient>
<radialGradient id="paint7_radial_388_3823" cx="0" cy="0" r="1" gradientUnits="userSpaceOnUse" gradientTransform="translate(54.4538 32.6592) rotate(-144.312) scale(18.1732 18.092)">
<stop stop-color="#EDE6F1"/>
<stop offset="0.5112" stop-color="#C2A4CE"/>
<stop offset="1" stop-color="#8D5BA4"/>
</radialGradient>
<radialGradient id="paint8_radial_388_3823" cx="0" cy="0" r="1" gradientUnits="userSpaceOnUse" gradientTransform="translate(54.0267 32.0811) rotate(-71.8067) scale(18.053 17.8363)">
<stop stop-color="#F6F8E8"/>
<stop offset="0.5112" stop-color="#B2D138"/>
<stop offset="1" stop-color="#74BD43"/>
</radialGradient>
<radialGradient id="paint9_radial_388_3823" cx="0" cy="0" r="1" gradientUnits="userSpaceOnUse" gradientTransform="translate(54.738 32.049) scale(18.2458 13.9894)">
<stop stop-color="#FFF5E5"/>
<stop offset="0.5112" stop-color="#FAB678"/>
<stop offset="1" stop-color="#E91D26"/>
</radialGradient>
<clipPath id="clip0_388_3823">
<rect width="185" height="44" fill="white" transform="translate(32 11)"/>
</clipPath>
</defs>
</svg>
