<svg width="250" height="66" viewBox="0 0 250 66" fill="none" xmlns="http://www.w3.org/2000/svg">
<g clip-path="url(#clip0_388_3824)">
<path fill-rule="evenodd" clip-rule="evenodd" d="M58.0476 39.6699C57.6135 35.0582 56.5628 35.266 54.7375 31.258C53.2577 28.0021 52.2908 24.8947 53.2133 20.3721C50.1745 24.296 49.0005 28.9423 49.0005 33.3462C49.0005 42.9406 56.2766 51.9364 66.0933 53.6683C62.1321 50.9369 58.5853 45.4197 58.0476 39.6699Z" fill="#20A357"/>
<path fill-rule="evenodd" clip-rule="evenodd" d="M71.845 37.6713C88.0548 25.8551 75.229 13.0195 74.8492 12.594C76.0923 23.4057 66.9811 26.7012 64.0361 29.7295C59.8233 34.0641 59.182 37.4338 60.1982 41.9663C61.318 46.9441 65.5258 52.9265 70.9077 54.0002C65.3088 51.8577 63.3652 43.8515 71.845 37.6713Z" fill="#20A357"/>
<path fill-rule="evenodd" clip-rule="evenodd" d="M77.6808 13.479C80.3988 16.6508 82.4115 21.7424 81.4446 27.0221C79.58 37.1857 69.4723 38.7245 68.0171 45.3402C67.1143 49.467 69.5907 52.9159 73.8873 52.9258C82.8111 52.9456 91.0442 43.2917 90.8913 32.8857C90.768 24.6915 86.1162 16.8932 77.6808 13.479Z" fill="#00A0E3"/>
<path fill-rule="evenodd" clip-rule="evenodd" d="M66.5321 25.6668C75.1895 20.016 73.1176 12.2326 73.1176 12.2326C72.3382 12.0792 71.4059 12 70.3749 12C64.8105 12.0049 56.4441 14.3801 54.9692 20.2931C53.0305 28.0716 58.733 34.3954 58.733 34.3954C58.733 34.3954 60.0945 29.8629 66.5321 25.6668ZM187.578 35.6918C185.984 35.6918 184.559 36.4043 183.592 37.5226L187.538 26.7109L190.814 35.6918H187.578ZM191.42 19.8676H186.162C185.428 19.8672 184.712 20.0929 184.11 20.5141C183.508 20.9354 183.05 21.5319 182.798 22.2229L174.076 46.1324H180.454L182.314 41.0259H192.757L194.622 46.1324H201L191.42 19.8676ZM175.837 22.6732V19.8676H156.737C155.788 19.8689 154.878 20.2479 154.207 20.9215C153.537 21.5951 153.16 22.508 153.16 23.4599V26.2655H161.309V46.1324H167.688V26.2655H172.261C174.234 26.2655 175.837 24.6574 175.837 22.6732ZM141.992 21.8122L132.402 35.3801V19.8676H129.605C128.655 19.8676 127.744 20.2461 127.073 20.9198C126.401 21.5935 126.024 22.5072 126.024 23.4599V46.1324H132.402L143.368 30.9811V46.1324H149.747V19.8676H145.741C145.007 19.8674 144.283 20.0439 143.631 20.3823C142.978 20.7207 142.416 21.211 141.992 21.8122ZM114.525 40.4074H106.479V35.2811H114.5C115.151 35.3184 115.763 35.6031 116.211 36.0771C116.66 36.5512 116.911 37.179 116.915 37.8326C116.918 38.4862 116.672 39.1164 116.228 39.5948C115.784 40.0732 115.175 40.3638 114.525 40.4074ZM106.479 25.5926H114.333C115.374 25.5926 116.291 26.3695 116.375 27.4135C116.397 27.685 116.362 27.9581 116.274 28.2157C116.186 28.4734 116.046 28.7101 115.863 28.911C115.68 29.112 115.457 29.273 115.209 29.384C114.961 29.495 114.693 29.5536 114.421 29.5561H111.383C109.281 29.5561 107.451 30.709 106.479 32.4112V25.5926ZM122.068 27.0276C121.786 22.9701 118.319 19.8676 114.264 19.8676H103.682C102.733 19.8676 101.822 20.2461 101.15 20.9198C100.478 21.5935 100.101 22.5072 100.101 23.4599V46.1324H114.362C118.767 46.1324 122.502 42.7231 122.743 38.3094C122.877 35.9639 122.018 33.7917 120.548 32.2033C121.614 30.7733 122.201 28.9623 122.068 27.0276Z" fill="#EC691F"/>
</g>
<defs>
<clipPath id="clip0_388_3824">
<rect width="152" height="42" fill="white" transform="translate(49 12)"/>
</clipPath>
</defs>
</svg>
