<svg width="250" height="66" viewBox="0 0 250 66" fill="none" xmlns="http://www.w3.org/2000/svg">
<path fill-rule="evenodd" clip-rule="evenodd" d="M53.5239 11C41.431 11 31.5369 20.9 31.5369 33C31.5369 45.1 41.431 55 53.5239 55C65.6168 55 75.511 45.1 75.511 33C75.6026 20.9 65.7084 11 53.5239 11ZM53.5239 15.5833C43.9046 15.5833 36.1175 23.375 36.1175 33C36.1175 42.625 43.9046 50.4166 53.5239 50.4166C63.1433 50.4166 70.9304 42.625 70.9304 33C71.022 23.4667 63.1433 15.5833 53.5239 15.5833Z" fill="#2AD1C5"/>
<path fill-rule="evenodd" clip-rule="evenodd" d="M54.3484 20.7163L58.929 25.2996C57.5548 26.2163 55.9974 26.7663 54.3484 26.9496V20.7163ZM54.5316 39.9663V46.6579H52.6993V39.9663C51.5084 40.8829 50.1342 41.4329 48.4852 41.4329C47.6606 41.4329 46.9277 41.3413 46.1948 41.0663C47.6606 38.958 50.0426 37.4913 52.791 37.2163V39.8746L52.6993 39.9663H54.2568V37.2163C57.0051 37.4913 59.3871 38.8663 60.8529 41.0663C60.12 41.3413 59.3871 41.4329 58.5626 41.4329C57.0968 41.3413 55.631 40.8829 54.5316 39.9663ZM60.0284 26.4913L63.6013 30.0663C63.9677 30.5246 64.3342 30.983 64.609 31.533H54.3484V28.5996C56.4555 28.4163 58.4709 27.5913 60.0284 26.4913ZM65.2503 32.9996C65.3419 33.5496 65.4335 34.008 65.4335 34.558C65.4335 36.9413 64.2426 39.0496 62.4103 40.2413C60.6697 37.583 57.738 35.8413 54.44 35.5663V32.9996H65.2503ZM44.8206 40.3329C42.9884 39.1413 41.7058 37.033 41.7058 34.6496C41.7058 34.0996 41.7974 33.5496 41.889 33.0913H52.791V35.658C49.4929 35.8413 46.5613 37.6746 44.8206 40.3329ZM42.4387 31.4413C42.8968 30.6163 43.4465 29.883 44.1794 29.333L47.111 26.3996C48.76 27.5913 50.6839 28.3246 52.791 28.508V31.4413H42.4387ZM48.2103 25.2996L52.791 20.7163V26.9496C51.1419 26.858 49.4929 26.2163 48.2103 25.2996Z" fill="#2AD1C5"/>
<path fill-rule="evenodd" clip-rule="evenodd" d="M84.3972 30.7083H88.9778V18.2417H94.5662V30.7083H99.1469V14.3H84.3972V30.7083ZM102.995 30.9833C103.544 30.9833 104.002 30.8917 104.46 30.8C104.918 30.7083 105.377 30.4333 105.743 30.0667C106.109 29.7 106.476 29.2417 106.842 28.6917C107.117 28.1417 107.392 27.4084 107.667 26.4917C107.85 25.575 108.033 24.5667 108.217 23.2834C108.308 22 108.4 20.5334 108.4 18.8834V18.2417H112.247V30.7083H116.828V14.3H104.186V16.5917C104.186 17.9667 104.186 19.25 104.094 20.35C104.002 21.45 104.002 22.3667 103.911 23.1C103.819 23.8334 103.728 24.475 103.636 25.025C103.544 25.575 103.361 25.9417 103.269 26.2167C103.086 26.4917 102.995 26.7667 102.811 26.8584C102.628 27.0417 102.445 27.1334 102.262 27.1334C102.078 27.225 101.895 27.225 101.712 27.225C101.62 27.225 101.529 27.225 101.346 27.225C101.254 27.225 101.071 27.225 100.888 27.225C100.796 27.225 100.613 27.225 100.521 27.1334L100.246 30.6167C100.338 30.6167 100.613 30.7083 100.888 30.8C101.162 30.8917 101.437 30.8917 101.895 30.9833C102.262 30.9833 102.628 30.9833 102.995 30.9833ZM118.386 30.7083H123.149L124.34 27.775H130.662L131.853 30.7083H136.708L129.746 14.1167H125.348L118.386 30.7083ZM125.715 24.2917L127.547 19.6167L129.379 24.2917H125.715ZM138.357 30.7083H142.938V24.475H148.801V30.7083H153.382V14.3H148.801V20.4417H142.938V14.3H138.357V30.7083ZM156.222 30.7083H169.597V26.8584H160.802V24.2917H168.681V20.7167H160.802V18.15H169.505V14.3H156.313V30.7083H156.222ZM175.918 30.7083H180.499V18.2417H185.446V14.3H171.063V18.2417H176.01V30.7083H175.918ZM184.438 30.7083H189.202L190.393 27.775H196.714L197.905 30.7083H202.761L195.798 14.1167H191.401L184.438 30.7083ZM191.767 24.2917L193.6 19.6167L195.432 24.2917H191.767ZM90.8101 51.5167C91.8178 51.5167 92.734 51.425 93.5585 51.15C94.383 50.875 95.0243 50.5083 95.574 50.05C96.1236 49.5917 96.5817 49.0417 96.8565 48.4C97.1314 47.7583 97.3146 47.1167 97.3146 46.3833C97.3146 45.65 97.223 45.1 96.9482 44.6417C96.6733 44.1833 96.3985 43.725 95.9404 43.3583C95.4824 42.9917 95.0243 42.8083 94.4746 42.5333C94.9327 42.35 95.3907 41.9833 95.7572 41.7083C96.1236 41.3417 96.3985 40.975 96.5817 40.5167C96.7649 40.0583 96.8565 39.5083 96.8565 38.8667C96.8565 38.225 96.6733 37.675 96.3985 37.125C96.1236 36.575 95.6656 36.1167 95.1159 35.75C94.5662 35.3833 93.9249 35.0167 93.192 34.8333C92.4591 34.65 91.6346 34.4667 90.7185 34.4667C89.7107 34.4667 88.703 34.5583 87.8785 34.8333C87.054 35.1083 86.3211 35.3833 85.5882 35.8417C84.9469 36.3 84.3056 36.7583 83.7559 37.3083L86.0462 39.9667C86.3211 39.6917 86.5959 39.5083 86.9624 39.325C87.3288 39.1417 87.6953 38.9583 88.0617 38.775C88.4282 38.5917 88.7946 38.5 89.2527 38.4083C89.6191 38.3167 89.9856 38.3167 90.352 38.3167C90.8101 38.3167 91.1766 38.4083 91.4514 38.5C91.7262 38.5917 92.0011 38.775 92.1843 38.9583C92.3675 39.1417 92.4591 39.4167 92.4591 39.6917C92.4591 39.9667 92.3675 40.2417 92.1843 40.425C92.0011 40.6083 91.8178 40.7917 91.4514 40.975C91.0849 41.0667 90.6269 41.1583 90.0772 41.1583H88.4282V44.55H90.1688C91.0849 44.55 91.7262 44.6417 92.1843 44.9167C92.6424 45.1917 92.8256 45.5583 92.8256 46.0167C92.8256 46.2917 92.734 46.5667 92.5507 46.8417C92.3675 47.1167 92.0927 47.3 91.7262 47.3917C91.3598 47.4833 90.9017 47.575 90.352 47.575C89.7107 47.575 89.0695 47.4833 88.5198 47.3C87.9701 47.1167 87.4204 46.9333 86.9624 46.6583C86.5043 46.3833 86.0462 46.0167 85.6798 45.65L83.2979 48.675C83.7559 49.0417 84.214 49.5 84.7637 49.775C85.2217 50.1417 85.7714 50.4167 86.4127 50.6C86.9624 50.875 87.6953 51.0583 88.4282 51.15C88.9778 51.425 89.8024 51.5167 90.8101 51.5167ZM98.2307 54.5417H102.353L102.628 51.2417H111.331V54.5417H115.179L115.729 47.3H113.897V34.7417H101.346V35.2C101.346 36.3917 101.346 37.5833 101.254 38.5C101.162 39.5083 101.162 40.425 101.071 41.25C100.979 42.075 100.888 42.8083 100.704 43.45C100.613 44.0917 100.429 44.825 100.246 45.375C100.063 46.0167 99.8798 46.5667 99.6049 47.2083H98.1391V54.5417H98.2307ZM104.46 47.2083C104.644 46.6583 104.827 46.1083 105.01 45.4667C105.193 44.9167 105.285 44.275 105.377 43.5417C105.468 42.9 105.56 42.1667 105.651 41.3417C105.743 40.6083 105.743 39.6917 105.743 38.8667V38.6833H109.316V47.1167H104.46V47.2083ZM125.806 51.5167C126.814 51.5167 127.822 51.3333 128.646 51.0583C129.562 50.7833 130.387 50.325 131.12 49.8667C131.853 49.3167 132.494 48.7667 133.044 48.0333C133.593 47.3 133.96 46.5667 134.235 45.65C134.509 44.825 134.693 43.9083 134.693 42.9917C134.693 42.075 134.509 41.1583 134.235 40.2417C133.96 39.4167 133.502 38.5917 133.044 37.8583C132.494 37.125 131.853 36.575 131.12 36.025C130.387 35.475 129.562 35.1083 128.646 34.8333C127.73 34.5583 126.814 34.375 125.806 34.375C124.798 34.375 123.791 34.5583 122.966 34.8333C122.05 35.1083 121.226 35.5667 120.493 36.025C119.76 36.575 119.118 37.125 118.569 37.8583C118.019 38.5917 117.653 39.325 117.378 40.2417C117.103 41.1583 117.011 42.075 117.011 42.9917C117.011 43.9083 117.195 44.825 117.469 45.7417C117.744 46.5667 118.202 47.3917 118.66 48.125C119.21 48.8583 119.851 49.4083 120.584 49.9583C121.317 50.5083 122.142 50.875 123.058 51.15C123.882 51.425 124.798 51.5167 125.806 51.5167ZM125.898 47.3917C125.257 47.3917 124.707 47.3 124.157 47.025C123.607 46.75 123.241 46.475 122.875 46.0167C122.508 45.65 122.233 45.1 122.05 44.6417C121.867 44.0917 121.775 43.5417 121.775 42.9C121.775 42.2583 121.867 41.7083 122.05 41.1583C122.233 40.6083 122.508 40.15 122.875 39.7833C123.241 39.4167 123.699 39.05 124.157 38.8667C124.707 38.5917 125.257 38.5 125.898 38.5C126.539 38.5 127.089 38.5917 127.638 38.8667C128.188 39.1417 128.555 39.4167 129.013 39.875C129.379 40.2417 129.654 40.7917 129.837 41.25C130.02 41.8 130.112 42.35 130.112 42.9917C130.112 43.6333 130.02 44.1833 129.837 44.7333C129.654 45.2833 129.379 45.7417 129.013 46.1083C128.646 46.475 128.188 46.8417 127.73 47.025C127.089 47.3 126.539 47.3917 125.898 47.3917ZM137.075 51.2417H141.655V46.5667H143.946C144.953 46.5667 145.869 46.475 146.786 46.2C147.61 45.925 148.435 45.5583 148.984 45.1C149.626 44.6417 150.084 44 150.45 43.2667C150.816 42.5333 151 41.7083 151 40.7C151 39.7833 150.816 38.9583 150.542 38.225C150.175 37.4917 149.717 36.85 149.167 36.3917C148.618 35.9333 147.885 35.475 146.969 35.2917C146.144 35.0167 145.228 34.925 144.129 34.925H137.075V51.2417ZM141.655 42.9V38.5917H143.762C144.312 38.5917 144.77 38.6833 145.136 38.8667C145.503 39.05 145.869 39.2333 146.053 39.6C146.236 39.9667 146.327 40.3333 146.327 40.7917C146.327 41.25 146.236 41.6167 146.053 41.9833C145.869 42.35 145.503 42.5333 145.136 42.7167C144.77 42.9 144.312 42.9917 143.762 42.9917H141.655V42.9ZM161.169 51.5167C162.176 51.5167 163.184 51.3333 164.009 51.0583C164.925 50.7833 165.749 50.325 166.482 49.8667C167.215 49.3167 167.856 48.7667 168.406 48.0333C168.956 47.3 169.322 46.5667 169.597 45.65C169.872 44.825 170.055 43.9083 170.055 42.9917C170.055 42.075 169.872 41.1583 169.597 40.2417C169.322 39.4167 168.864 38.5917 168.406 37.8583C167.856 37.125 167.215 36.575 166.482 36.025C165.749 35.475 164.925 35.1083 164.009 34.8333C163.093 34.5583 162.176 34.375 161.169 34.375C160.161 34.375 159.153 34.5583 158.329 34.8333C157.413 35.1083 156.588 35.5667 155.855 36.025C155.122 36.575 154.481 37.125 153.931 37.8583C153.382 38.5917 153.015 39.325 152.74 40.2417C152.466 41.0667 152.282 41.9833 152.282 42.9C152.282 43.8167 152.466 44.7333 152.74 45.65C153.015 46.475 153.473 47.3 153.931 48.0333C154.481 48.7667 155.122 49.3167 155.855 49.8667C156.588 50.4167 157.413 50.7833 158.329 51.0583C159.153 51.425 160.161 51.5167 161.169 51.5167ZM161.169 47.3917C160.527 47.3917 159.978 47.3 159.428 47.025C158.878 46.75 158.512 46.475 158.146 46.0167C157.779 45.65 157.504 45.1 157.321 44.6417C157.138 44.0917 157.046 43.5417 157.046 42.9C157.046 42.2583 157.138 41.7083 157.321 41.1583C157.504 40.6083 157.779 40.15 158.146 39.7833C158.512 39.4167 158.97 39.05 159.428 38.8667C159.978 38.5917 160.527 38.5 161.169 38.5C161.81 38.5 162.36 38.5917 162.909 38.8667C163.459 39.1417 163.825 39.4167 164.284 39.875C164.65 40.2417 164.925 40.7917 165.108 41.25C165.291 41.8 165.383 42.35 165.383 42.9917C165.383 43.6333 165.291 44.1833 165.108 44.7333C164.925 45.2833 164.65 45.7417 164.284 46.1083C163.917 46.475 163.459 46.8417 163.001 47.025C162.36 47.3 161.81 47.3917 161.169 47.3917ZM172.437 51.2417H180.957C182.24 51.2417 183.431 51.0583 184.347 50.6917C185.263 50.325 185.996 49.775 186.454 49.1333C186.912 48.4917 187.187 47.6667 187.187 46.75C187.187 46.0167 187.095 45.375 186.82 44.825C186.545 44.275 186.179 43.9083 185.721 43.5417C185.263 43.175 184.622 42.9 183.98 42.7167C184.438 42.5333 184.896 42.2583 185.263 41.8917C185.629 41.525 185.904 41.1583 186.179 40.7C186.362 40.2417 186.545 39.6917 186.545 39.05C186.545 38.5 186.454 37.95 186.271 37.4917C186.087 37.0333 185.813 36.6667 185.538 36.3C185.08 35.8417 184.438 35.475 183.705 35.2C182.973 34.925 182.056 34.8333 181.049 34.8333H172.62V51.2417H172.437ZM176.835 47.575V44.55H180.316C181.049 44.55 181.598 44.7333 181.965 44.9167C182.331 45.1917 182.515 45.5583 182.515 46.0167C182.515 46.5667 182.331 46.9333 181.965 47.2083C181.598 47.4833 181.049 47.575 180.316 47.575H176.835ZM176.835 41.3417V38.4083H179.766C180.407 38.4083 180.957 38.5 181.324 38.775C181.69 39.05 181.873 39.325 181.873 39.7833C181.873 40.3333 181.69 40.7 181.324 40.8833C180.957 41.1583 180.407 41.25 179.766 41.25H176.835V41.3417ZM189.202 51.2417H196.44C197.447 51.2417 198.364 51.15 199.188 50.875C200.013 50.6 200.654 50.2333 201.295 49.775C201.845 49.3167 202.303 48.675 202.578 47.9417C202.853 47.2083 203.036 46.475 203.036 45.5583C203.036 44.6417 202.853 43.8167 202.486 43.0833C202.12 42.35 201.662 41.8 201.02 41.3417C200.379 40.8833 199.646 40.5167 198.822 40.3333C197.997 40.0583 197.081 39.9667 196.073 39.9667H193.6V34.7417H189.019V51.2417H189.202ZM193.783 47.3917V43.5417H196.165C196.623 43.5417 197.081 43.6333 197.447 43.8167C197.814 44 198.089 44.1833 198.272 44.4583C198.455 44.7333 198.547 45.1 198.547 45.4667C198.547 46.1083 198.364 46.5667 197.905 46.9333C197.447 47.3 196.898 47.3917 196.165 47.3917H193.783ZM204.227 51.2417H209.449L212.747 46.2917H214.762V51.2417H219.343V34.7417H211.556C210.64 34.7417 209.724 34.8333 208.899 35.1083C208.074 35.2917 207.342 35.6583 206.7 36.1167C206.059 36.575 205.601 37.125 205.234 37.8583C204.868 38.5917 204.685 39.4167 204.685 40.3333C204.685 41.1583 204.868 41.9833 205.143 42.625C205.418 43.2667 205.784 43.8167 206.334 44.275C206.884 44.7333 207.433 45.1 208.074 45.375L204.227 51.2417ZM211.831 42.7167C211.281 42.7167 210.914 42.625 210.548 42.4417C210.182 42.2583 209.907 42.075 209.724 41.7083C209.54 41.4333 209.449 41.0667 209.449 40.6083C209.449 40.15 209.54 39.7833 209.724 39.5083C209.907 39.2333 210.182 38.9583 210.548 38.775C210.914 38.5917 211.373 38.5 211.831 38.5H214.854V42.625H211.831V42.7167Z" fill="#2AD1C5"/>
</svg>
