<svg width="250" height="66" viewBox="0 0 250 66" fill="none" xmlns="http://www.w3.org/2000/svg">
<path d="M7.16366 31.5508H11.0317C11.6831 31.5508 12.2531 31.4287 12.6603 31.1436C13.1082 30.8992 13.3117 30.4512 13.3117 29.8403C13.3117 29.1887 13.0675 28.7 12.5381 28.4149C12.0088 28.1299 11.3167 27.9669 10.3802 27.9669C9.24016 27.9669 8.22227 28.1706 7.32652 28.5778C6.47149 28.9851 5.7386 29.4331 5.12786 29.9625L2.68491 26.7452C3.53995 25.9306 4.67999 25.2383 6.06433 24.6274C7.44867 24.0165 9.0773 23.7314 10.9502 23.7314C12.0903 23.7314 13.1489 23.8536 14.1261 24.1387C15.1032 24.3831 15.9176 24.7496 16.6097 25.2383C17.3019 25.727 17.8312 26.2972 18.2384 26.9895C18.6048 27.6819 18.8084 28.4557 18.8084 29.3109C18.8084 30.2476 18.5641 31.1028 18.0755 31.8766C17.5869 32.6504 16.854 33.2206 15.9583 33.5871C17.0169 33.9129 17.8312 34.4424 18.4419 35.2569C19.0527 36.0714 19.3377 37.0081 19.3377 38.1077C19.3377 39.0444 19.1341 39.8589 18.727 40.592C18.3198 41.2843 17.7091 41.8545 16.9762 42.3432C16.2433 42.7912 15.3883 43.1577 14.3704 43.4021C13.3525 43.6464 12.2939 43.7686 11.1538 43.7686C9.28088 43.7686 7.57082 43.4835 6.06433 42.9134C4.55784 42.3432 3.33637 41.6101 2.3999 40.7956L4.84285 37.4561C5.45359 37.9448 6.22719 38.4335 7.16366 38.8408C8.10012 39.248 9.24016 39.4517 10.5431 39.4517C11.5203 39.4517 12.2939 39.2888 12.9046 39.0037C13.5153 38.7186 13.8003 38.1892 13.8003 37.4561C13.8003 36.7638 13.556 36.3158 13.0675 36.0714C12.5789 35.8271 11.9681 35.7049 11.2352 35.7049H7.24509V31.5508H7.16366Z" fill="#0A215D"/>
<path d="M41.2016 24.3428V38.5562H43.5632V47.9231H38.5958V43.036H26.1775V47.9231H21.1694V38.5562H23.3274C23.9381 37.7009 24.4674 36.8049 24.9153 35.8275C25.3225 34.8501 25.6889 33.7912 25.9332 32.6102C26.1775 31.4698 26.4218 30.2073 26.5439 28.8226C26.7068 27.438 26.8289 25.9718 26.9511 24.3428H41.2016ZM35.7864 38.5562V28.8226H31.5927C31.3891 31.1033 31.1041 32.9767 30.6969 34.4836C30.2898 35.9904 29.7198 37.3751 29.0276 38.5562H35.7864Z" fill="#0A215D"/>
<path d="M76.9101 27.966C75.9329 27.966 74.915 28.1696 74.0193 28.5769C73.1643 28.9841 72.4314 29.4321 71.8206 29.9615L69.3777 26.7442C70.2327 25.9297 71.3728 25.2373 72.7571 24.6264C74.1414 24.0156 75.7701 23.7305 77.643 23.7305C80.4524 23.7305 82.5289 24.5043 83.8725 26.0519C85.2161 27.5994 85.8269 29.6765 85.8269 32.2422V43.116H80.4931L80.3302 41.3648C79.6788 42.0979 78.9052 42.6681 77.928 43.0753C76.9508 43.4826 75.8922 43.6862 74.7115 43.6862C74.06 43.6862 73.3678 43.6048 72.6349 43.4011C71.9021 43.1975 71.2506 42.9124 70.6399 42.4644C70.0291 42.0164 69.4998 41.4056 69.0927 40.6725C68.6855 39.9394 68.4819 39.0027 68.4819 37.9031C68.4819 36.8035 68.6855 35.8261 69.1334 34.9708C69.5813 34.1156 70.1513 33.4233 70.9249 32.8531C71.6985 32.2829 72.5942 31.8349 73.6121 31.5499C74.63 31.2648 75.7701 31.1019 76.9915 31.1019C77.643 31.1019 78.2944 31.1019 78.9459 31.1426C79.5974 31.1833 80.0452 31.2241 80.2895 31.2241L80.3302 30.7761C80.3302 30.2874 80.2488 29.8801 80.0452 29.5543C79.8416 29.2285 79.5974 28.9027 79.2716 28.699C78.9459 28.4547 78.5795 28.2918 78.1723 28.2103C77.8466 28.0067 77.358 27.966 76.9101 27.966ZM80.3302 34.6858C80.0859 34.645 79.8009 34.6043 79.4345 34.5636C79.068 34.5229 78.7016 34.5229 78.3352 34.5229C76.7472 34.5229 75.6479 34.7672 74.9965 35.2152C74.345 35.7039 74.0193 36.3555 74.0193 37.17C74.0193 38.7584 74.9557 39.5322 76.788 39.5322C77.2358 39.5322 77.6837 39.4507 78.0909 39.3285C78.5387 39.1656 78.9052 38.962 79.2309 38.7176C79.5566 38.4733 79.8416 38.1067 80.0452 37.7402C80.2488 37.333 80.371 36.885 80.371 36.3555V34.6858H80.3302Z" fill="#0A215D"/>
<path d="M89.939 43.0347V24.3008H100.444C102.398 24.3008 103.905 24.7488 104.882 25.6447C105.9 26.5407 106.388 27.681 106.388 29.0657C106.388 30.1653 106.103 31.0613 105.574 31.7129C105.045 32.3645 104.393 32.8532 103.701 33.1383C104.719 33.4234 105.533 33.9528 106.225 34.6859C106.917 35.419 107.284 36.4779 107.284 37.8625C107.284 39.6138 106.673 40.917 105.411 41.7722C104.149 42.6275 102.52 43.0755 100.444 43.0755H89.939V43.0347ZM95.232 31.8351H98.9779C100.362 31.8351 101.014 31.2242 101.014 30.0024C101.014 29.3101 100.769 28.8621 100.362 28.577C99.9144 28.3327 99.3036 28.1698 98.4893 28.1698H95.1913V31.8351H95.232ZM95.232 39.2065H99.7108C101.136 39.2065 101.828 38.5956 101.828 37.3331C101.828 36.7222 101.665 36.2742 101.299 35.9484C100.932 35.6226 100.403 35.4597 99.7108 35.4597H95.232V39.2065Z" fill="#0A215D"/>
<path d="M127.356 40.5924C126.582 41.4477 125.605 42.14 124.343 42.7509C123.121 43.3618 121.615 43.6469 119.905 43.6469C118.398 43.6469 117.054 43.4025 115.833 42.9138C114.612 42.4251 113.553 41.7327 112.698 40.8368C111.843 39.9408 111.151 38.9226 110.662 37.7009C110.174 36.4791 109.929 35.1759 109.929 33.7504C109.929 32.325 110.174 31.0218 110.662 29.7593C111.151 28.5375 111.843 27.4379 112.739 26.5419C113.634 25.646 114.693 24.9129 115.914 24.4242C117.136 23.8947 118.52 23.6504 119.986 23.6504C121.615 23.6504 123.08 23.9355 124.302 24.5056C125.564 25.0758 126.582 25.8089 127.396 26.6641L123.976 30.3702C123.65 29.9629 123.162 29.5557 122.551 29.1484C121.94 28.7411 121.126 28.5375 120.149 28.5375C119.416 28.5375 118.765 28.6597 118.235 28.9448C117.665 29.2299 117.217 29.5964 116.851 30.0444C116.484 30.4924 116.199 31.0218 115.996 31.6327C115.792 32.2436 115.711 32.8545 115.711 33.4654C115.711 34.0763 115.792 34.7279 115.996 35.3388C116.199 35.9496 116.484 36.5198 116.851 37.0085C117.217 37.4972 117.665 37.8638 118.235 38.1896C118.805 38.4747 119.457 38.6376 120.23 38.6376C121.167 38.6376 121.94 38.4339 122.551 38.0674C123.162 37.7009 123.691 37.2529 124.098 36.8456L127.356 40.5924Z" fill="#0A215D"/>
<path d="M142.991 43.0347V31.6315L134.725 43.0347H130.084V24.3008H135.458V35.2968L143.439 24.3008H148.365V43.0347H142.991Z" fill="#0A215D"/>
<path d="M168.927 24.3428V29.1892H162.982V43.0767H157.323V29.1892H151.378V24.3428H168.927Z" fill="#0A215D"/>
<path d="M184.848 43.0347V31.6315L176.583 43.0347H171.941V24.3008H177.356V35.2968L185.336 24.3008H190.263V43.0347H184.848Z" fill="#0A215D"/>
<path d="M65.6717 29.8001C65.3459 28.619 64.8166 27.5601 64.1245 26.6642C63.4323 25.7682 62.618 25.0351 61.6001 24.5057C60.5822 23.9762 59.4421 23.6912 58.1799 23.6912C57.0806 23.6912 56.0627 23.8948 55.1262 24.3021C54.1898 24.7093 53.4162 25.4017 52.724 26.2976C52.6833 25.9718 52.6833 25.6053 52.6426 25.2795C52.6019 24.9537 52.5612 24.6279 52.5204 24.2613H47.1052V51.2626H52.724V42.9138C53.1719 43.0767 53.7012 43.2396 54.2712 43.4025C54.8412 43.5654 55.5741 43.6469 56.3884 43.6469C57.5692 43.6469 58.75 43.4433 59.89 43.036C61.03 42.6287 62.0887 42.0178 63.0251 41.1626C63.9616 40.3074 64.6945 39.2892 65.3052 38.0267C65.8752 36.7642 66.1602 35.2573 66.1602 33.5468C66.201 32.2436 66.0381 30.9811 65.6717 29.8001ZM59.32 37.4565C58.5057 38.434 57.3249 38.8819 55.737 38.8819C55.6556 38.8819 55.5334 38.8819 55.4113 38.8819C54.3119 38.8005 53.2533 39.3299 52.7647 40.3481V40.3888V38.1896V33.221C52.7647 32.7731 52.8054 32.3251 52.8869 31.8771C53.0497 31.144 53.3348 30.4924 53.7419 29.963C54.0676 29.5557 54.4748 29.1892 54.9634 28.9448C55.452 28.7005 56.022 28.5376 56.7142 28.5376C57.4063 28.5376 57.9764 28.6597 58.4649 28.9448C58.9535 29.2299 59.32 29.5964 59.6457 30.0851C59.9307 30.5739 60.175 31.1033 60.2972 31.7142C60.46 32.3251 60.5007 32.936 60.5007 33.5876C60.5007 35.2166 60.1343 36.5198 59.32 37.4565Z" fill="#0A215D"/>
<path d="M248.545 28.0283C248.152 25.9613 246.725 24.9769 245.2 25.3214C243.133 25.7644 239.689 31.6211 227.24 35.8045C217.006 39.2496 208.395 37.97 205.886 37.6255C205.443 37.5762 205.295 37.8223 205.394 38.3145C205.738 40.1847 207.214 44.6142 209.035 45.3032C211.102 46.0906 218.925 48.5022 228.224 46.632C234.916 45.3032 239.541 42.6455 242.543 40.5784C247.66 36.7396 249.333 32.064 248.545 28.0283Z" fill="#FE610F"/>
<path d="M240.967 20.106C242.542 17.4976 241.558 16.5133 240.623 16.4148C239.737 16.3164 238.95 16.3164 237.818 16.3164C237.818 16.3164 237.572 16.3164 237.474 16.3164C237.13 16.3164 236.342 16.3164 236.342 16.3164C232.455 16.4148 228.617 17.0546 225.075 18.0882C221.286 19.1709 217.596 20.8443 214.299 22.8621C210.953 24.88 207.952 27.39 205.246 30.1461C204.409 31.1797 204.557 33.542 204.606 34.5264C204.655 35.2646 205.098 35.0677 205.787 34.9693C227.092 31.7703 238.999 23.3543 240.967 20.106Z" fill="#FE610F"/>
<path d="M211.691 48.5533C215.676 52.5398 221.089 55.0006 227.141 55.0006C233.685 55.0006 239.589 52.146 243.624 47.6182C238.556 50.2758 232.701 51.7523 226.6 51.7523C221.236 51.8015 216.267 50.6203 211.691 48.5533Z" fill="#FE610F"/>
<path d="M231.519 11.4429C230.043 11.1476 228.567 11 227.042 11C226.894 11 226.747 11 226.599 11C218.136 11.0984 210.116 16.6106 206.917 24.3376C213.314 17.5457 221.925 12.8702 231.519 11.4429Z" fill="#FE610F"/>
</svg>
