<svg width="250" height="66" viewBox="0 0 250 66" fill="none" xmlns="http://www.w3.org/2000/svg">
<mask id="mask0_379_2956" style="mask-type:luminance" maskUnits="userSpaceOnUse" x="17" y="12" width="216" height="42">
<path d="M232.728 12.625H17.7998V53.3759H232.728V12.625Z" fill="white"/>
</mask>
<g mask="url(#mask0_379_2956)">
<path d="M105.363 21.251L114.929 44.5186H110.512L108.286 39.0004H97.6234L95.4307 44.5186H91.2158L100.645 21.251H105.363ZM99.1177 35.1807H106.76L102.943 25.6395L99.1177 35.1807Z" fill="#8168F0"/>
<path d="M134.754 25.0788H122.37V44.5186H118.22V21.251H138.912V44.5186H134.762V25.0788H134.754Z" fill="#8168F0"/>
<path d="M162.083 25.0794H154.246V44.5193H150.097V25.0794H142.39V21.2598H162.083V25.0794Z" fill="#8168F0"/>
<path d="M180.421 34.4493H169.726V40.699H182.013V44.5186H165.575V21.251H181.647V25.0708H169.726V30.6214H180.421V34.4493Z" fill="#8168F0"/>
<path d="M87.71 34.4493H77.0144V40.699H89.3017V44.5186H72.8645V21.251H88.9362V25.0708H77.0144V30.6214H87.71V34.4493Z" fill="#8168F0"/>
<path d="M191.106 44.5186H186.956V21.251H191.106V31.0197H194.59L202.062 21.251H207.113L198.244 32.3199L208.542 44.5186H203.231L194.793 34.4493H191.106V44.5186Z" fill="#8168F0"/>
<path d="M223.102 21.251L232.668 44.5186H228.25L226.026 39.0004H215.362L213.17 44.5186H208.954L218.383 21.251H223.102ZM216.857 35.1807H224.498L220.682 25.6395L216.857 35.1807Z" fill="#8168F0"/>
<path d="M53.2461 25.5684H54.0051C56.5716 25.5684 58.6562 27.6518 58.6562 30.2167V35.9248C58.6562 38.4898 56.5716 40.5731 54.0051 40.5731H47.9082C46.4622 40.5731 45.7754 41.3076 45.7754 42.7046V48.798C45.7754 51.3629 43.6909 53.4463 41.1244 53.4463H35.413C32.8465 53.4463 30.7619 51.3629 30.7619 48.798C30.7619 48.798 30.7619 44.234 30.7619 42.7046C30.7619 41.1873 30.0149 40.5731 28.6172 40.5731H22.5563C19.9898 40.5611 17.9053 38.4778 17.9053 35.9128V30.2047C17.9053 27.6398 19.9898 25.5564 22.5563 25.5564H28.6413C29.9908 25.5564 30.7861 24.7977 30.7861 23.3888V17.3436C30.7861 14.7787 32.8706 12.6953 35.4371 12.6953H41.1485C43.715 12.6953 45.7996 14.7787 45.7996 17.3436V23.4009C45.7996 24.8821 46.3418 25.5684 47.8962 25.5684H48.9685L45.8357 29.8435C43.4379 29.6507 41.522 27.6398 41.522 25.1952V19.1259C41.522 17.6447 40.9557 16.9703 39.3652 16.9703H37.1963C35.8468 16.9703 35.0636 17.6928 35.0636 19.1259V25.1952C35.0636 27.7602 32.9791 29.8435 30.4125 29.8435H24.3396C22.7732 29.8435 22.1828 30.8671 22.1828 32.0111V34.1547C22.1828 35.4431 22.966 36.2981 24.3155 36.2981H30.4125C32.9791 36.2981 35.0636 38.3815 35.0636 40.9464V47.0278C35.0636 48.4005 35.7504 49.1712 37.1722 49.1712H39.3532C40.7026 49.1712 41.51 48.3523 41.51 47.0036V40.9464C41.51 38.3815 43.5946 36.2981 46.1611 36.2981H52.258C53.728 36.2981 54.3908 35.5514 54.3908 34.1305V31.987C54.3908 30.5179 53.6196 29.8435 52.2098 29.8435H50.1132L53.2461 25.5684Z" fill="url(#paint0_linear_379_2956)"/>
</g>
<defs>
<linearGradient id="paint0_linear_379_2956" x1="34.096" y1="62.3437" x2="54.6379" y2="20.0193" gradientUnits="userSpaceOnUse">
<stop stop-color="#FF00D5"/>
<stop offset="0.187441" stop-color="#D438A2"/>
<stop offset="0.316217" stop-color="#B240E5"/>
<stop offset="0.541913" stop-color="#8168F0"/>
<stop offset="0.692074" stop-color="#8168F0"/>
<stop offset="0.9906" stop-color="#87DEFC"/>
</linearGradient>
</defs>
</svg>
