<svg width="250" height="66" viewBox="0 0 250 66" fill="none" xmlns="http://www.w3.org/2000/svg">
<g clip-path="url(#clip0_402_2083)">
<mask id="mask0_402_2083" style="mask-type:luminance" maskUnits="userSpaceOnUse" x="41" y="9" width="168" height="48">
<path d="M209 9H41V57H209V9Z" fill="white"/>
</mask>
<g mask="url(#mask0_402_2083)">
<path d="M80.1752 15.0605H79.8591L79.7448 15.3553L74.8003 28.1138V15.5221V15.0605H74.3387H61.5715H61.1099V15.5221V28.1608L56.0426 15.3523L55.9271 15.0605H55.6134H42.8461H42.1174L42.4288 15.7193L50.0819 31.9095C47.7475 32.4469 46.0029 33.5063 45.0185 34.9462C43.9669 36.4846 43.4789 38.8515 43.4789 41.8472V55.247V55.7085H43.9404H56.7078H57.1693V55.247V42.6773C57.1693 41.6745 57.3975 41.1077 57.7595 40.7547C58.1708 40.3536 58.545 40.1742 59.1396 40.1742C59.5691 40.1742 60.0596 40.4307 60.5011 40.8553C60.8988 41.349 61.1099 41.9474 61.1099 42.7959V55.3655V55.827H61.5715H74.2172H74.6787V55.3655V42.7959C74.6787 41.793 74.907 41.2263 75.2689 40.8732C75.6706 40.4814 76.1636 40.2929 76.649 40.2929C77.1344 40.2929 77.6274 40.4814 78.0291 40.8732C78.3868 41.222 78.6193 41.9025 78.6193 42.7959V55.4841V55.9457H79.0808H91.8481H92.3096V55.4841V41.9658C92.3096 38.8538 91.8224 36.4856 90.77 34.9462L90.7628 34.9355L90.7549 34.9253C89.668 33.512 88.0374 32.4502 85.7065 31.9098L93.3597 15.7193L93.6712 15.0605H92.9425H80.1752Z" fill="#FFF500" stroke="#00913A"/>
<path d="M131.487 27.3801H97.9277V52.7566H131.487V27.3801Z" fill="url(#paint0_linear_402_2083)"/>
<path d="M97.1982 37.9339C94.4016 37.341 89.9027 31.6491 94.6448 23.5855C99.3869 15.522 114.343 6.15404 138.54 12.676C162.737 19.1981 187.298 23.3484 208.456 9C196.905 37.341 183.165 47.8948 168.695 50.7407C154.104 53.5867 131.974 53.231 122.854 51.9266C113.613 50.6222 100.724 48.4877 97.1982 37.9339Z" fill="#0E6A39"/>
<path d="M130.758 52.1637V52.638C127.597 52.4009 124.8 52.2823 122.733 51.9265C114.465 50.7407 102.913 48.8434 98.2928 40.4241C98.2928 40.3055 98.1712 40.0684 98.0496 39.8312C98.1712 39.594 98.4144 39.4755 98.536 39.2383C103.4 33.3092 107.412 29.5146 110.695 27.3801C115.437 38.764 122.368 46.709 130.758 52.1637Z" fill="url(#paint1_linear_402_2083)"/>
<path d="M110.695 27.3806C108.993 28.4478 107.169 29.9894 105.102 31.8867C103.034 33.784 100.846 36.2742 98.414 39.2388C98.2924 39.4759 98.0492 39.5945 97.9276 39.8317C97.5628 39.1202 97.1981 38.1715 97.0764 37.9344C94.2798 37.3415 89.7809 31.6495 94.523 23.586C98.0492 17.6569 107.047 11.0163 121.152 10.542C114.707 14.0995 109.965 21.0958 110.695 27.3806Z" fill="url(#paint2_linear_402_2083)"/>
<path d="M146.809 14.8109C142.31 17.7754 138.419 21.4515 136.473 25.839C127.232 23.8231 120.423 22.8744 113.492 25.839C112.641 26.1948 111.668 26.669 110.695 27.3805C110.087 21.0958 114.708 14.218 121.274 10.542C126.381 10.4234 132.096 11.0163 138.419 12.6764C141.215 13.3879 144.012 14.0994 146.809 14.8109Z" fill="url(#paint3_linear_402_2083)"/>
<path d="M167.966 18.368V29.7518H153.496C152.644 29.6333 151.793 29.396 150.942 29.1589C145.471 27.9731 140.728 26.7872 136.595 25.8386C138.54 21.4511 142.43 17.7751 146.93 14.8105C153.861 16.4707 160.913 17.7751 167.966 18.368Z" fill="url(#paint4_linear_402_2083)"/>
<path d="M185.84 17.8936C183.772 23.2297 180.854 27.1429 176.964 30.3446C169.79 31.7676 162.251 31.4119 153.496 29.7517C158.36 27.8544 163.953 23.8226 167.966 18.3679C174.045 18.8422 180.003 18.7236 185.84 17.8936Z" fill="url(#paint5_linear_402_2083)"/>
<path d="M208.334 9C204.808 13.9804 200.309 19.4352 194.716 22.5183C188.758 26.5501 183.043 29.0403 176.964 30.3447C180.854 27.143 183.772 23.2298 185.84 17.8936C193.621 16.5892 201.16 13.8618 208.334 9Z" fill="url(#paint6_linear_402_2083)"/>
<path d="M152.037 52.6377C144.863 52.9934 137.446 52.9934 131.609 52.7563C122.854 47.3015 115.68 39.238 110.695 27.3798C111.668 26.7869 112.64 26.3125 113.492 25.8382C120.422 22.9923 127.353 23.8223 136.473 25.8382C138.905 36.5106 143.403 45.7599 152.037 52.6377Z" fill="url(#paint7_linear_402_2083)"/>
<path d="M179.882 46.7091C176.234 48.725 172.343 50.0294 168.574 50.7408C163.71 51.6894 157.874 52.2824 152.037 52.6381C143.403 45.7604 138.904 36.511 136.473 25.9573C140.728 26.7873 145.471 27.9731 150.942 29.159C151.793 29.3961 152.645 29.5147 153.496 29.7519C159.94 38.0525 169.546 44.2188 179.882 46.7091Z" fill="url(#paint8_linear_402_2083)"/>
<path d="M194.716 33.6649C189.974 39.7126 184.989 43.863 179.882 46.7089C169.546 44.2187 159.94 38.171 153.496 29.7517C162.129 31.4119 169.79 31.7676 176.964 30.3447C182.678 32.7163 188.636 33.9021 194.716 33.6649Z" fill="url(#paint9_linear_402_2083)"/>
<path d="M208.334 9C204.079 19.4352 199.458 27.4987 194.716 33.665C188.636 33.9021 182.8 32.7163 176.964 30.3447C183.043 29.1589 188.758 26.6687 194.594 22.6369C201.525 18.2494 205.295 13.1504 208.334 9Z" fill="url(#paint10_linear_402_2083)"/>
<path d="M194.716 22.5181C180.368 32.4789 166.75 32.7161 150.942 29.1586C135.013 25.6012 123.584 21.5695 113.492 25.8384C109.601 27.4985 104.737 31.5303 98.4141 39.2381C94.8878 43.507 92.3344 47.0645 87.5922 49.3175H85.6467V40.0682C90.2673 40.0682 93.3072 38.1709 95.9821 36.0364C104.615 29.2772 107.534 22.8739 122.246 22.0437C138.297 21.2137 164.317 39.831 194.716 22.5181Z" fill="url(#paint11_linear_402_2083)"/>
<path d="M85.7685 40.0684C85.7685 40.0684 90.2675 49.6734 86.8628 49.5549C83.2151 49.4363 85.7685 40.0684 85.7685 40.0684Z" fill="#0E6A39"/>
<path d="M165.777 26.4311C165.777 25.9568 165.777 25.4825 165.899 25.1267C165.899 24.6524 166.02 24.2967 166.02 23.8223C166.02 23.7038 166.02 23.7038 166.02 23.5852C166.02 23.4665 166.02 23.4665 166.02 23.348C166.02 23.2294 166.02 23.1109 166.02 23.1109C166.02 22.9923 166.02 22.8737 166.02 22.8737C166.02 22.3994 166.02 22.0436 166.142 21.8065C166.142 21.5693 166.263 21.4507 166.385 21.4507H166.506C166.506 21.4507 166.628 21.4507 166.75 21.4507C166.872 21.4507 166.872 21.5693 166.993 21.5693C167.236 21.6879 167.357 21.8065 167.479 21.925C167.601 22.0436 167.723 22.1621 167.723 22.2808C167.723 22.2808 167.844 22.3994 167.844 22.5179C167.844 22.6365 167.844 22.6365 167.844 22.7551C167.844 22.8737 167.844 22.8737 167.844 22.9923C167.844 23.1109 167.844 23.2294 167.844 23.348C167.844 23.5852 167.723 23.8223 167.723 24.1781C167.723 24.5338 167.601 25.0082 167.601 25.4825C167.723 25.3639 167.844 25.2453 167.966 25.1267C168.087 25.0082 168.209 24.8896 168.33 24.7709C168.33 24.7709 168.33 24.7709 168.452 24.6524C168.452 24.6524 168.452 24.6524 168.574 24.5338C168.939 24.0595 169.303 23.5852 169.668 23.2294C170.032 22.7551 170.276 22.5179 170.398 22.2808C170.519 22.1621 170.641 22.0436 170.763 21.925C170.884 21.8065 171.005 21.8065 171.127 21.8065H171.249C171.37 21.8065 171.37 21.8065 171.492 21.8065C171.614 21.8065 171.735 21.925 171.735 21.925C171.735 21.925 171.735 21.925 171.856 22.0436C171.856 22.0436 171.856 22.0436 171.978 22.1621C171.978 22.1621 171.978 22.2808 172.1 22.2808V22.3994C172.1 22.5179 172.1 22.6365 171.978 22.6365C171.978 22.7551 171.856 22.8737 171.856 22.8737C171.856 22.9923 171.856 23.1109 171.856 23.2294C171.856 23.348 171.856 23.4665 171.856 23.5852V23.7038V23.8223V25.1267C171.856 25.6011 171.856 25.9568 171.856 26.3126C171.856 26.6683 171.978 27.024 171.978 27.3797C171.978 27.4984 172.1 27.7355 172.1 27.8541C172.1 27.9727 172.222 28.2099 172.222 28.3284C172.222 28.447 172.222 28.447 172.222 28.5656C172.222 28.6841 172.222 28.6841 172.222 28.6841V28.8028H172.1H171.978C171.856 28.8028 171.856 28.8028 171.735 28.8028C171.614 28.8028 171.492 28.6841 171.37 28.6841C171.249 28.6841 171.127 28.6841 171.127 28.5656C171.005 28.5656 171.005 28.5656 170.884 28.447C170.519 28.3284 170.398 28.2099 170.276 27.9727C170.154 27.7355 170.154 27.4984 170.154 27.024C170.154 26.9055 170.154 26.7869 170.154 26.6683C170.154 26.5497 170.154 26.4311 170.154 26.3126C170.154 26.194 170.154 26.194 170.154 26.0753C170.154 25.9568 170.154 25.9568 170.154 25.8382C170.154 25.8382 170.154 25.8382 170.154 25.7196C170.154 25.7196 170.154 25.7196 170.154 25.6011C170.154 25.6011 170.154 25.6011 170.154 25.4825C170.154 25.3639 170.154 25.1267 170.154 25.0082C170.154 24.8896 170.154 24.6524 170.154 24.5338V24.4153V24.2967C170.032 24.4152 170.032 24.5338 169.911 24.5338C169.79 24.6524 169.79 24.6524 169.79 24.7709C169.79 24.7709 169.79 24.7709 169.668 24.8896C169.668 24.8896 169.668 24.8896 169.547 25.0082C169.425 25.1267 169.303 25.3639 169.181 25.4825C169.06 25.7196 168.939 25.8382 168.695 26.194C168.452 26.5497 168.209 26.9055 168.087 27.2612C167.966 27.617 167.844 27.7355 167.844 27.8541V27.9727V28.0913V28.2099V28.3284C167.844 28.3284 167.844 28.3284 167.844 28.447C167.844 28.447 167.844 28.447 167.723 28.447H167.601H167.479H167.357C166.75 28.3284 166.263 28.2099 166.142 28.0913C166.02 27.8541 165.899 27.4984 165.899 26.6683C165.899 26.6683 165.899 26.6683 165.899 26.5497C165.899 26.5497 165.899 26.5497 165.899 26.4311C165.777 26.5497 165.777 26.5497 165.777 26.4311ZM160.305 24.8896C160.427 25.0082 160.427 25.1267 160.549 25.2453C160.671 25.3639 160.791 25.6011 160.913 25.7196C161.035 25.8382 161.035 25.9568 161.156 26.0753C161.278 26.194 161.278 26.3126 161.4 26.3126C161.522 26.5497 161.764 26.6683 161.886 26.9055C162.129 27.1426 162.251 27.2612 162.494 27.4984C162.615 27.617 162.859 27.8541 162.98 27.9727C163.102 28.0913 163.346 28.2099 163.467 28.3284L163.588 28.447H163.467H163.346H163.224C163.102 28.447 162.98 28.447 162.98 28.5656C162.859 28.5656 162.737 28.5656 162.615 28.5656H162.494C162.373 28.5656 162.373 28.5656 162.251 28.5656C162.129 28.5656 162.129 28.447 162.008 28.447C162.008 28.447 162.008 28.447 161.886 28.447H161.764C161.643 28.3284 161.522 28.2099 161.4 28.0913C161.278 27.9727 161.156 27.8541 161.035 27.7355C160.791 27.4984 160.427 27.1426 160.184 26.7869C159.94 26.4311 159.698 26.0753 159.454 25.7196C159.333 25.6011 159.333 25.4825 159.211 25.3639C159.089 25.2453 159.089 25.1267 159.089 25.0082C159.089 25.0082 159.089 25.0082 158.967 24.8896L158.725 27.617C158.725 27.617 158.725 27.617 158.603 27.617H158.481H158.36C158.36 27.617 158.238 27.617 158.116 27.617C157.995 27.617 157.874 27.4984 157.752 27.4984H157.63H157.509C157.265 27.3797 157.023 27.3797 156.901 27.2612C156.779 27.1426 156.779 27.024 156.779 26.7869V26.6683V26.5497V26.4311V26.3126C156.901 25.8382 157.023 25.2453 157.023 24.4153C157.143 23.5852 157.143 22.6365 157.265 21.8065C157.265 21.6879 157.265 21.5693 157.265 21.4507C157.265 21.3321 157.265 21.2135 157.265 21.095C157.265 20.9764 157.265 20.8577 157.387 20.8577C157.387 20.8577 157.509 20.7392 157.509 20.8577H157.63H157.752H157.874C157.995 20.8577 158.116 20.9764 158.238 20.9764C158.36 21.095 158.603 21.095 158.725 21.2135C158.847 21.2135 158.847 21.3321 158.847 21.3321H158.967V21.4507V21.5693L158.847 23.348V23.4665C158.847 23.4665 158.847 23.4665 158.967 23.5852C159.333 23.348 159.698 23.1109 159.94 22.8737C160.184 22.6365 160.427 22.3994 160.671 22.0436C160.791 21.925 160.913 21.8065 160.913 21.6879C161.035 21.5693 161.035 21.4507 161.156 21.3321C161.156 21.3321 161.156 21.3321 161.278 21.3321H161.4H161.522C161.643 21.3321 161.643 21.4507 161.764 21.4507C161.886 21.5693 162.129 21.6879 162.129 21.8065C162.251 21.925 162.251 21.925 162.373 22.0436V22.1621V22.2808V22.3994V22.5179C162.373 22.6365 162.251 22.7551 162.251 22.8737C162.129 22.9923 162.129 23.1109 162.008 23.2294C161.764 23.4665 161.522 23.8223 161.278 24.0595C161.035 24.2967 160.671 24.5338 160.427 24.6524C160.427 24.6524 160.427 24.6524 160.305 24.6524C160.305 24.7709 160.305 24.7709 160.305 24.8896C160.305 24.7709 160.305 24.7709 160.305 24.8896ZM153.375 21.095L153.01 20.9764C152.888 20.9764 152.766 20.9764 152.523 20.8577C152.402 20.8577 152.159 20.8577 152.037 20.7392C151.915 20.7392 151.794 20.7392 151.794 20.7392C151.794 20.7392 151.672 20.7392 151.672 20.8577C151.672 20.9764 151.551 20.9764 151.551 21.095C151.551 21.2135 151.551 21.2135 151.429 21.3321C151.429 21.4507 151.308 21.5693 151.308 21.6879C151.308 21.8065 151.308 21.925 151.308 22.1621V22.2808C151.308 22.2808 151.308 22.2808 151.429 22.3994C151.551 22.3994 151.672 22.3994 151.794 22.3994C151.915 22.3994 152.037 22.3994 152.037 22.3994H152.159C152.523 22.5179 152.766 22.5179 152.888 22.6365C153.01 22.7551 153.132 22.8737 153.253 23.1109C153.253 23.1109 153.253 23.2294 153.375 23.2294C153.375 23.2294 153.375 23.348 153.496 23.348C153.496 23.4665 153.375 23.4665 153.01 23.4665C152.645 23.4665 152.28 23.348 151.915 23.348C151.794 23.348 151.794 23.348 151.672 23.348C151.551 23.348 151.551 23.348 151.429 23.348H151.308C151.308 23.348 151.308 23.348 151.186 23.348C151.186 23.4665 151.186 23.5852 151.186 23.8223C151.186 24.0595 151.186 24.2967 151.186 24.5338V25.0082C151.186 25.0082 151.186 25.1267 151.308 25.1267C151.308 25.1267 151.429 25.2453 151.551 25.2453C151.672 25.2453 151.915 25.2453 152.159 25.2453C152.402 25.2453 152.766 25.2453 153.132 25.2453C153.253 25.2453 153.253 25.2453 153.375 25.2453C153.496 25.2453 153.496 25.2453 153.496 25.2453H153.617C153.861 25.2453 153.983 25.3639 154.104 25.4825C154.226 25.6011 154.347 25.7196 154.347 25.8382C154.347 25.8382 154.347 25.8382 154.347 25.9568C154.347 25.9568 154.347 25.9568 154.347 26.0753C154.347 26.194 154.347 26.194 154.347 26.3126C154.347 26.4311 154.226 26.4311 154.104 26.4311C153.983 26.4311 153.861 26.4311 153.739 26.4311C153.617 26.4311 153.496 26.4311 153.253 26.4311C153.01 26.4311 152.766 26.4311 152.523 26.4311C152.28 26.4311 152.037 26.4311 151.794 26.4311C151.672 26.4311 151.672 26.4311 151.551 26.4311C151.429 26.4311 151.429 26.4311 151.308 26.4311H151.186C150.821 26.3126 150.578 26.3126 150.335 26.194C150.091 26.0753 149.848 25.9568 149.727 25.7196C149.605 25.6011 149.362 25.2453 149.362 24.8896C149.24 24.5338 149.24 24.0595 149.24 23.5852C149.24 23.4665 149.24 23.348 149.24 23.2294C149.24 23.1109 149.24 22.9923 149.24 22.8737C149.24 22.5179 149.362 22.1621 149.484 21.8065C149.605 21.4507 149.727 21.2135 149.848 20.9764C149.848 20.9764 149.848 20.9764 149.848 20.8577L149.727 20.7392L149.605 20.6206C149.605 20.5021 149.484 20.5021 149.484 20.3835C149.484 20.2649 149.362 20.2649 149.362 20.1463C149.362 20.0277 149.24 20.0277 149.24 19.9091C149.24 19.7906 149.24 19.7906 149.24 19.672C149.362 19.5533 149.605 19.5533 150.091 19.5533C150.578 19.5533 151.186 19.672 152.159 19.9091H152.28C152.402 19.9091 152.523 19.9091 152.523 19.9091C152.645 19.9091 152.645 19.9091 152.766 19.9091C152.766 19.9091 152.888 19.9091 152.888 20.0277C152.888 20.0277 153.01 20.1463 153.132 20.1463C153.253 20.2649 153.375 20.3835 153.496 20.5021C153.617 20.6206 153.739 20.7392 153.861 20.8577C153.861 20.9764 153.983 20.9764 153.983 20.9764V21.095C153.617 21.095 153.617 21.095 153.375 21.095ZM145.836 18.1304C146.2 18.2489 146.322 18.3676 146.565 18.4862C146.809 18.6047 146.931 18.8419 147.051 18.9605L147.173 19.0791C147.173 19.0791 147.173 19.1977 147.295 19.1977V19.3162C147.295 19.3162 147.295 19.3162 147.295 19.4348C147.295 19.5533 147.295 19.5533 147.173 19.5533C147.051 19.5533 147.051 19.5533 146.931 19.5533C146.809 19.5533 146.565 19.4348 146.444 19.4348C146.322 19.4348 146.2 19.4348 146.079 19.3162C145.836 19.3162 145.714 19.1977 145.714 19.1977C145.714 19.1977 145.593 19.1977 145.593 19.3162C145.471 19.9091 145.349 20.5021 145.349 20.9764C145.349 21.5693 145.227 22.0436 145.227 22.5179C145.227 22.7551 145.227 22.9923 145.227 23.2294C145.227 23.4665 145.227 23.7038 145.227 23.8223C145.227 23.9409 145.227 24.0595 145.227 24.1781C145.227 24.2967 145.227 24.4153 145.227 24.4153C145.227 24.5338 145.227 24.6524 145.227 24.6524C145.227 24.7709 145.107 24.7709 144.985 24.7709H144.863C144.863 24.7709 144.741 24.7709 144.741 24.6524C144.741 24.6524 144.62 24.6524 144.498 24.5338C144.376 24.5338 144.376 24.4153 144.255 24.4153C144.134 24.4153 144.134 24.2967 144.012 24.2967C143.769 24.1781 143.525 23.9409 143.403 23.8223C143.283 23.7038 143.161 23.4665 143.161 23.2294V23.1109V22.9923C143.161 22.7551 143.161 22.5179 143.161 22.2808C143.161 22.0436 143.161 21.8065 143.161 21.5693C143.161 21.2135 143.161 20.8577 143.283 20.5021C143.283 20.1463 143.283 19.7906 143.403 19.4348C143.403 19.3162 143.403 19.1977 143.403 19.1977C143.403 19.0791 143.403 19.0791 143.403 18.9605C143.403 18.8419 143.403 18.8419 143.403 18.7233L143.283 18.6047C143.283 18.6047 143.161 18.6047 143.039 18.6047C142.918 18.6047 142.918 18.6047 142.796 18.6047H142.674H142.552H142.431C142.188 18.6047 142.066 18.4862 141.945 18.3676C141.823 18.2489 141.701 18.1304 141.701 18.0118C141.701 17.8932 141.701 17.8932 141.701 17.8932V17.7747C141.701 17.6561 141.701 17.6561 141.823 17.5375C141.823 17.5375 141.945 17.4189 142.066 17.4189C142.066 17.4189 142.188 17.4189 142.31 17.4189C142.431 17.4189 142.431 17.4189 142.552 17.4189C143.161 17.4189 143.647 17.5375 144.255 17.6561C144.863 17.7747 145.349 17.8932 145.836 18.0118H145.958L145.836 18.1304ZM133.92 16.5888C133.798 16.5888 133.798 16.5888 133.798 16.5888H133.676H133.555H133.433H133.311L133.19 16.4703L133.068 16.3517C133.068 16.2331 133.068 16.2331 133.068 16.1145C133.068 16.1145 133.068 16.1145 133.068 15.9959V15.8774V15.7588V15.6402C133.068 15.6402 133.068 15.6402 133.068 15.5216C133.068 15.5216 133.068 15.5216 133.068 15.403C133.068 15.2844 133.19 15.2845 133.311 15.1659C133.433 15.1659 133.555 15.1659 133.676 15.1659C133.676 15.1659 133.676 15.1659 133.798 15.1659C133.798 15.1659 133.798 15.1659 133.92 15.1659C134.163 15.1659 134.284 15.2844 134.527 15.2844C134.771 15.2844 134.893 15.403 135.135 15.403C135.622 15.5216 135.987 15.6402 136.473 15.6402C136.959 15.7588 137.446 15.8774 137.932 15.9959H138.054H138.175H138.297C138.54 16.1145 138.783 16.1145 138.905 16.2331C139.148 16.3517 139.27 16.4703 139.27 16.5888C139.27 16.5888 139.27 16.5888 139.27 16.7074C139.27 16.7074 139.27 16.7074 139.27 16.826C139.27 16.9446 139.27 16.9446 139.392 17.0632C139.392 17.1818 139.392 17.1818 139.392 17.3003C139.392 17.3003 139.392 17.4189 139.392 17.5375C139.392 17.6561 139.392 17.8932 139.392 18.0118C139.392 18.1304 139.392 18.2489 139.392 18.3676C139.392 18.4862 139.392 18.7233 139.392 18.8419C139.392 19.0791 139.392 19.3162 139.392 19.672C139.392 19.9091 139.392 20.2649 139.392 20.5021C139.392 20.6206 139.392 20.7392 139.392 20.9764C139.392 21.095 139.392 21.3321 139.392 21.4507C139.392 21.6879 139.392 21.925 139.392 22.1621C139.392 22.3994 139.392 22.6365 139.513 22.8737V23.1109C139.513 23.2294 139.513 23.2294 139.513 23.2294H139.392H139.27C139.27 23.2294 139.148 23.2294 139.026 23.1109C138.905 23.1109 138.783 22.9923 138.783 22.9923C138.662 22.8737 138.54 22.8737 138.419 22.7551C138.297 22.6365 138.175 22.6365 138.175 22.5179C137.932 22.3994 137.811 22.1621 137.689 21.925C137.689 21.6879 137.568 21.3321 137.568 20.8577V20.2649C137.568 20.2649 137.568 20.0277 137.568 19.7906C137.568 19.5533 137.689 19.1977 137.689 18.8419C137.689 18.6047 137.689 18.3676 137.811 18.0118C137.811 17.6561 137.811 17.4189 137.811 17.0632C137.568 17.0632 137.324 16.9446 137.202 16.9446C136.959 16.9446 136.838 16.826 136.595 16.826C136.473 16.826 136.351 16.826 136.351 16.826C136.23 16.826 136.23 16.826 136.108 16.826C136.108 16.9446 136.108 16.9446 136.108 17.1818C136.108 17.3003 136.108 17.5375 136.108 17.6561V19.1977C136.108 19.3162 136.108 19.4348 136.108 19.5533C136.108 19.672 136.108 19.7906 136.108 20.0277C136.108 20.3835 136.108 20.7392 136.108 20.9764C136.108 21.3321 135.987 21.5693 135.987 21.8065C135.987 21.925 135.865 22.1621 135.865 22.1621C135.744 22.2808 135.622 22.2808 135.5 22.2808H135.379C135.257 22.2808 135.257 22.2808 135.135 22.1621C135.014 22.0436 134.893 22.0436 134.771 21.925C134.406 21.5693 134.163 21.4507 133.92 21.2135C133.798 21.095 133.676 20.9764 133.676 20.8577C133.676 20.7392 133.676 20.7392 133.798 20.6206C133.92 20.5021 133.92 20.3835 134.042 20.2649C134.042 20.1463 134.163 20.1463 134.163 20.0277C134.163 19.9091 134.284 19.9091 134.284 19.7906C134.284 19.5533 134.406 19.1977 134.406 18.8419C134.406 18.3676 134.527 17.8933 134.527 17.3003C134.527 17.3003 134.527 17.1818 134.527 17.0632C134.527 16.9446 134.527 16.9446 134.527 16.826V16.7074C133.92 16.5888 133.92 16.5888 133.92 16.5888ZM127.232 17.6561C127.232 17.7747 127.232 17.7747 127.232 17.6561C127.232 17.7747 127.354 17.7747 127.354 17.7747L128.326 17.8932C128.326 17.7747 128.205 17.5375 128.205 17.1818C128.083 16.826 128.083 16.4703 127.962 16.1145C127.84 16.2331 127.718 16.3517 127.718 16.4703C127.597 16.5888 127.597 16.826 127.475 16.9446C127.475 17.0632 127.354 17.1818 127.354 17.3003C127.232 17.5375 127.232 17.5375 127.232 17.6561ZM124.679 18.8419L124.557 18.7233C124.435 18.7233 124.435 18.6047 124.314 18.4862C124.314 18.3676 124.192 18.3676 124.192 18.2489C124.071 18.1304 124.071 18.0118 124.071 17.8932C124.192 17.7747 124.314 17.7747 124.435 17.7747C124.557 17.7747 124.679 17.7747 124.8 17.7747C124.922 17.7747 125.043 17.7747 125.165 17.6561C125.286 17.6561 125.286 17.5375 125.408 17.3003C125.651 16.5889 125.894 16.1145 126.016 15.6402C126.138 15.2845 126.381 14.9287 126.502 14.8101C126.624 14.6915 126.624 14.6915 126.746 14.6915C126.867 14.6915 126.867 14.6915 126.989 14.6915H127.11H127.232H127.354L127.11 14.0986C127.11 14.0986 127.11 14.0986 127.232 14.0986C127.232 14.0986 127.354 14.0986 127.475 14.0986H127.597H127.718C128.083 14.2172 128.448 14.3358 128.691 14.573C128.934 14.8101 129.177 15.1659 129.421 15.7588C129.664 16.2331 129.785 17.0632 130.029 17.8932C130.272 18.8419 130.515 20.0277 130.88 21.4507C130.88 21.4507 130.88 21.4507 130.758 21.4507C130.637 21.4507 130.637 21.4507 130.515 21.4507H130.393C130.272 21.4507 130.15 21.4507 130.029 21.3321C129.907 21.3321 129.785 21.3321 129.664 21.2135C129.542 21.2135 129.299 21.095 129.177 21.095C129.056 21.095 128.934 20.9764 128.813 20.9764C128.813 20.9764 128.691 20.9764 128.691 20.8577C128.691 20.8577 128.691 20.8577 128.569 20.8577C128.569 20.7392 128.569 20.7392 128.569 20.6206C128.569 20.5021 128.569 20.5021 128.569 20.3835C128.569 20.2649 128.569 20.1463 128.569 20.1463C128.569 20.0277 128.569 20.0277 128.569 19.9091C128.569 19.7906 128.569 19.672 128.448 19.4348C128.448 19.3162 128.448 19.0791 128.326 18.9605C128.326 18.9605 128.326 18.9605 128.326 18.8419C128.326 18.8419 128.326 18.8419 128.205 18.8419H126.989C126.867 18.8419 126.746 18.8419 126.746 18.8419C126.746 18.8419 126.624 18.8419 126.624 18.9605C126.746 19.3162 126.746 19.672 126.746 19.9091C126.746 20.1463 126.746 20.5021 126.624 20.7392C126.624 20.7392 126.624 20.8577 126.502 20.8577C126.381 20.8577 126.381 20.8577 126.259 20.8577H126.138C126.016 20.8577 125.894 20.8577 125.773 20.7392C125.651 20.7392 125.53 20.6206 125.408 20.6206C125.286 20.6206 125.165 20.5021 125.165 20.5021C125.043 20.5021 124.922 20.3835 124.922 20.3835C124.922 20.3835 124.922 20.3835 124.8 20.2649C124.8 20.2649 124.8 20.2649 124.8 20.1463V20.0277V19.9091V19.7906V19.672C124.8 19.5533 124.8 19.4348 124.8 19.3162C124.557 19.0791 124.679 18.9605 124.679 18.8419Z" fill="#FEFEFE"/>
<path d="M115.802 28.4602H115.34V28.9217V46.5905C115.34 49.5398 116.228 51.9194 118.155 53.7986C120.084 55.6801 122.642 56.5385 125.651 56.5385C129.042 56.5385 131.728 55.4313 133.654 53.3035L133.661 53.2952L133.669 53.2865C135.197 51.4226 135.962 49.3024 135.962 46.709C135.962 45.0688 135.444 43.439 134.425 41.9465C133.702 40.8402 132.809 39.9719 131.811 39.3468C132.301 39.0035 132.734 38.5573 133.102 37.9301C133.636 37.018 133.895 35.986 133.895 34.7322C133.895 32.8354 133.239 31.3918 131.904 30.3455C130.451 29.0633 128.381 28.4602 125.651 28.4602H115.802ZM123.438 35.1938H124.678C125.251 35.1938 125.753 35.3093 126.007 35.4749C126.267 35.6436 126.405 35.8653 126.405 36.1553C126.405 36.3892 126.33 36.6432 126.147 36.9232C125.942 37.1122 125.705 37.2353 125.529 37.2353H125.456L125.387 37.2579L124.657 37.495L124.365 37.5902L124.34 37.897L123.853 43.9446L123.789 44.751L124.516 44.3965C124.756 44.2793 124.975 44.1728 125.307 44.0648C125.594 43.9716 125.891 43.9688 126.137 43.9688C126.756 43.9688 127.246 44.1655 127.639 44.5493C128.011 44.9122 128.229 45.4889 128.229 46.2347C128.229 46.9587 128.024 47.4261 127.639 47.8015C127.253 48.1781 126.768 48.382 126.016 48.382C125.299 48.382 124.702 48.0853 124.306 47.6021L124.26 47.5468L124.2 47.5079C123.665 47.1598 123.438 46.5286 123.438 45.6418V35.1938ZM95.1312 35.6937H94.6697V36.1553V50.0293C94.6697 51.9148 95.3176 53.5992 96.7804 54.7708C98.0948 55.9209 99.6669 56.4199 101.576 56.4199C102.234 56.4199 103.021 56.2929 103.689 56.0326C104.122 55.8637 104.622 55.6343 105.105 55.3419L105.13 55.5427L105.182 55.9456H105.588H113.492H113.953V55.484V36.1553V35.6937H113.492H105.953H105.491V36.1553V47.8949C105.491 48.2297 105.314 48.5504 105.093 48.6937C104.906 48.8157 104.748 48.9177 104.596 48.9919C104.445 49.0655 104.335 49.0935 104.251 49.0935C103.974 49.0935 103.737 49.0019 103.6 48.8688C103.286 48.562 103.131 48.3179 103.131 47.8949V36.1553V35.6937H102.67H95.1312ZM137.567 35.6937H137.105V36.1553V50.0293C137.105 51.9148 137.753 53.5992 139.216 54.7708C140.531 55.9209 142.103 56.4199 144.012 56.4199C144.67 56.4199 145.457 56.2929 146.125 56.0326C146.558 55.8637 147.058 55.6343 147.541 55.3419L147.567 55.5427L147.618 55.9456H148.024H155.928H156.389V55.484V36.1553V35.6937H155.928H148.389H147.927V36.1553V47.8949C147.927 48.2297 147.75 48.5504 147.53 48.6937C147.342 48.8157 147.183 48.9177 147.032 48.9919C146.881 49.0655 146.771 49.0935 146.687 49.0935C146.41 49.0935 146.173 49.0019 146.036 48.8688C145.721 48.562 145.567 48.3179 145.567 47.8949V36.1553V35.6937H145.106H137.567ZM158.141 55.484V55.9456H158.603H166.142H166.603V55.484V49.3768C166.718 48.9422 166.808 48.7632 167.001 48.6376C167.343 48.4157 167.493 48.3564 167.722 48.3564C167.999 48.3564 168.236 48.4479 168.373 48.581C168.534 48.7384 168.72 49.0963 168.72 49.4364V55.3655V55.827H169.181H176.72H177.182V55.3655V50.0293C177.182 49.0143 177.151 48.1361 177.073 47.4011C176.995 46.6714 176.867 46.0535 176.656 45.5747L176.651 45.562L176.644 45.5498C176.149 44.5817 175.328 43.9607 174.099 43.5689L177.742 36.2421L178.073 35.5751H177.328H169.546H169.25L169.126 35.8453L166.603 41.3816V36.0366V35.5751H166.142H158.603H158.141V36.0366V36.1553V55.484ZM192.187 55.3655V55.827H192.649H200.187H200.649V55.3655V45.7603C200.649 42.7922 199.628 40.3007 197.47 38.1965C195.313 36.0928 192.764 35.1008 189.731 35.1008C186.698 35.1008 184.148 36.0928 181.991 38.1965C179.834 40.3007 178.812 42.7922 178.812 45.7603C178.812 48.7286 179.834 51.22 181.991 53.3243C184.148 55.428 186.698 56.4199 189.731 56.4199H190.09L190.179 56.0715L192.187 48.1183V55.3655ZM192.187 45.8789V47.8601L191.441 47.4835C191.073 47.9322 190.501 48.1448 189.731 48.1448C189.107 48.1448 188.498 47.9448 187.986 47.4459L187.968 47.428L187.947 47.4124C187.488 47.0537 187.274 46.5016 187.274 45.7603C187.274 45.0191 187.488 44.467 187.947 44.1084L187.968 44.0927L187.986 44.0749C188.504 43.5692 188.995 43.3759 189.731 43.3759C190.466 43.3759 190.957 43.5692 191.475 44.0749L191.494 44.0927L191.514 44.1084C191.967 44.4618 192.187 45.0076 192.187 45.8789Z" fill="#FFF500"/>
<path d="M167.001 48.6376C166.808 48.7632 166.718 48.9422 166.603 49.3768V55.484V55.9456H166.142H158.603H158.141V55.484V36.1553V36.0366V35.5751H158.603H166.142H166.603V36.0366V41.3816L169.126 35.8453L169.25 35.5751H169.546H177.328H178.073L177.742 36.2421L174.099 43.5689C175.328 43.9607 176.149 44.5817 176.644 45.5498L176.651 45.562L176.656 45.5747C176.867 46.0535 176.995 46.6714 177.073 47.4011C177.151 48.1361 177.182 49.0143 177.182 50.0293V55.3655V55.827H176.72H169.181H168.72V55.3655V49.4364C168.72 49.0963 168.534 48.7384 168.373 48.581C168.236 48.4479 167.999 48.3564 167.722 48.3564C167.493 48.3564 167.343 48.4157 167.001 48.6376ZM167.001 48.6376L166.75 48.2506M115.802 28.4602H115.34V28.9217V46.5905C115.34 49.5398 116.228 51.9194 118.155 53.7986C120.084 55.6801 122.642 56.5385 125.651 56.5385C129.042 56.5385 131.728 55.4313 133.654 53.3035L133.661 53.2952L133.669 53.2865C135.197 51.4226 135.962 49.3024 135.962 46.709C135.962 45.0688 135.444 43.439 134.425 41.9465C133.702 40.8402 132.809 39.9719 131.811 39.3468C132.301 39.0035 132.734 38.5573 133.102 37.9301C133.636 37.018 133.895 35.986 133.895 34.7322C133.895 32.8354 133.239 31.3918 131.904 30.3455C130.451 29.0633 128.381 28.4602 125.651 28.4602H115.802ZM123.438 35.1938H124.678C125.251 35.1938 125.753 35.3093 126.007 35.4749C126.267 35.6436 126.405 35.8653 126.405 36.1553C126.405 36.3892 126.33 36.6432 126.147 36.9232C125.942 37.1122 125.705 37.2353 125.529 37.2353H125.456L125.387 37.2579L124.657 37.495L124.365 37.5902L124.34 37.897L123.853 43.9446L123.789 44.751L124.516 44.3965C124.756 44.2793 124.975 44.1728 125.307 44.0648C125.594 43.9716 125.891 43.9688 126.137 43.9688C126.756 43.9688 127.246 44.1655 127.639 44.5493C128.011 44.9122 128.229 45.4889 128.229 46.2347C128.229 46.9587 128.024 47.4261 127.639 47.8015C127.253 48.1781 126.768 48.382 126.016 48.382C125.299 48.382 124.702 48.0853 124.306 47.6021L124.26 47.5468L124.2 47.5079C123.665 47.1598 123.438 46.5286 123.438 45.6418V35.1938ZM95.1312 35.6937H94.6697V36.1553V50.0293C94.6697 51.9148 95.3176 53.5992 96.7804 54.7708C98.0948 55.9209 99.6669 56.4199 101.576 56.4199C102.234 56.4199 103.021 56.2929 103.689 56.0326C104.122 55.8637 104.622 55.6343 105.105 55.3419L105.13 55.5427L105.182 55.9456H105.588H113.492H113.953V55.484V36.1553V35.6937H113.492H105.953H105.491V36.1553V47.8949C105.491 48.2297 105.314 48.5504 105.093 48.6937C104.906 48.8157 104.748 48.9177 104.596 48.9919C104.445 49.0655 104.335 49.0935 104.251 49.0935C103.974 49.0935 103.737 49.0019 103.6 48.8688C103.286 48.562 103.131 48.3179 103.131 47.8949V36.1553V35.6937H102.67H95.1312ZM137.567 35.6937H137.105V36.1553V50.0293C137.105 51.9148 137.753 53.5992 139.216 54.7708C140.531 55.9209 142.103 56.4199 144.012 56.4199C144.67 56.4199 145.457 56.2929 146.125 56.0326C146.558 55.8637 147.058 55.6343 147.541 55.3419L147.567 55.5427L147.618 55.9456H148.024H155.928H156.389V55.484V36.1553V35.6937H155.928H148.389H147.927V36.1553V47.8949C147.927 48.2297 147.75 48.5504 147.53 48.6937C147.342 48.8157 147.183 48.9177 147.032 48.9919C146.881 49.0655 146.771 49.0935 146.687 49.0935C146.41 49.0935 146.173 49.0019 146.036 48.8688C145.721 48.562 145.567 48.3179 145.567 47.8949V36.1553V35.6937H145.106H137.567ZM192.187 55.3655V55.827H192.649H200.187H200.649V55.3655V45.7603C200.649 42.7922 199.628 40.3007 197.47 38.1965C195.313 36.0928 192.764 35.1008 189.731 35.1008C186.698 35.1008 184.148 36.0928 181.991 38.1965C179.834 40.3007 178.812 42.7922 178.812 45.7603C178.812 48.7286 179.834 51.22 181.991 53.3243C184.148 55.428 186.698 56.4199 189.731 56.4199H190.09L190.179 56.0715L192.187 48.1183V55.3655ZM192.187 45.8789V47.8601L191.441 47.4835C191.073 47.9322 190.501 48.1448 189.731 48.1448C189.107 48.1448 188.498 47.9448 187.986 47.4459L187.968 47.428L187.947 47.4124C187.488 47.0537 187.274 46.5016 187.274 45.7603C187.274 45.0191 187.488 44.467 187.947 44.1084L187.968 44.0927L187.986 44.0749C188.504 43.5692 188.995 43.3759 189.731 43.3759C190.466 43.3759 190.957 43.5692 191.475 44.0749L191.494 44.0927L191.514 44.1084C191.967 44.4618 192.187 45.0076 192.187 45.8789Z" stroke="#00913A"/>
</g>
</g>
<defs>
<linearGradient id="paint0_linear_402_2083" x1="102.068" y1="31.9679" x2="128.163" y2="49.3933" gradientUnits="userSpaceOnUse">
<stop stop-color="#0E6A39"/>
<stop offset="1" stop-color="#009E43"/>
</linearGradient>
<linearGradient id="paint1_linear_402_2083" x1="106.05" y1="36.2278" x2="130.193" y2="49.9795" gradientUnits="userSpaceOnUse">
<stop stop-color="#0E6A39"/>
<stop offset="1" stop-color="#009E43"/>
</linearGradient>
<linearGradient id="paint2_linear_402_2083" x1="119.646" y1="13.0644" x2="99.7504" y2="28.9048" gradientUnits="userSpaceOnUse">
<stop stop-color="#077E42"/>
<stop offset="1" stop-color="#21A73F"/>
</linearGradient>
<linearGradient id="paint3_linear_402_2083" x1="146.305" y1="13.3981" x2="110.519" y2="23.7556" gradientUnits="userSpaceOnUse">
<stop stop-color="#077E42"/>
<stop offset="1" stop-color="#21A73F"/>
</linearGradient>
<linearGradient id="paint4_linear_402_2083" x1="168.903" y1="20.5218" x2="135.656" y2="25.8333" gradientUnits="userSpaceOnUse">
<stop stop-color="#077E42"/>
<stop offset="1" stop-color="#21A73F"/>
</linearGradient>
<linearGradient id="paint5_linear_402_2083" x1="185.874" y1="20.0935" x2="155.886" y2="30.1038" gradientUnits="userSpaceOnUse">
<stop stop-color="#077E42"/>
<stop offset="1" stop-color="#21A73F"/>
</linearGradient>
<linearGradient id="paint6_linear_402_2083" x1="208.559" y1="8.21665" x2="178.454" y2="28.9835" gradientUnits="userSpaceOnUse">
<stop stop-color="#077E42"/>
<stop offset="1" stop-color="#21A73F"/>
</linearGradient>
<linearGradient id="paint7_linear_402_2083" x1="118.28" y1="25.4946" x2="144.832" y2="50.9906" gradientUnits="userSpaceOnUse">
<stop stop-color="#0E6A39"/>
<stop offset="1" stop-color="#009E43"/>
</linearGradient>
<linearGradient id="paint8_linear_402_2083" x1="135.984" y1="30.5788" x2="169.165" y2="52.6061" gradientUnits="userSpaceOnUse">
<stop stop-color="#0E6A39"/>
<stop offset="1" stop-color="#009E43"/>
</linearGradient>
<linearGradient id="paint9_linear_402_2083" x1="153.93" y1="33.3364" x2="189.544" y2="40.9992" gradientUnits="userSpaceOnUse">
<stop stop-color="#0E6A39"/>
<stop offset="1" stop-color="#009E43"/>
</linearGradient>
<linearGradient id="paint10_linear_402_2083" x1="180.689" y1="33.0423" x2="212.046" y2="14.4675" gradientUnits="userSpaceOnUse">
<stop stop-color="#0E6A39"/>
<stop offset="1" stop-color="#009E43"/>
</linearGradient>
<linearGradient id="paint11_linear_402_2083" x1="139.535" y1="33.9737" x2="135.745" y2="22.3236" gradientUnits="userSpaceOnUse">
<stop stop-color="#0E6A39"/>
<stop offset="1" stop-color="#009846"/>
</linearGradient>
<clipPath id="clip0_402_2083">
<rect width="168" height="48" fill="white" transform="translate(41 9)"/>
</clipPath>
</defs>
</svg>
