<svg width="250" height="66" viewBox="0 0 250 66" fill="none" xmlns="http://www.w3.org/2000/svg">
<path d="M64.5352 37.8495C65.2795 41.6151 68.8165 42.2181 72.7414 42.2316C77.146 42.2469 80.6848 41.5332 80.7037 36.4752C80.7118 34.2378 79.99 32.4063 77.5186 32.2929V32.0922C79.9045 31.7889 80.4985 29.8845 80.5066 27.7236C80.5255 22.7322 75.9526 22.4613 72.8134 22.446C68.5195 22.4334 65.4325 23.04 64.7755 26.739L72.2923 26.7732C74.9338 26.7786 75.292 27.1431 75.2893 28.6605C75.2812 29.9808 74.8051 30.3993 72.2806 30.3876L70.4851 30.3813L70.4725 33.9759L72.268 33.9813C74.986 33.9912 75.5188 34.4997 75.5161 35.8164C75.5071 37.8648 74.3839 37.8882 72.2536 37.8801L64.5352 37.8495Z" fill="#5BD240"/>
<path d="M101.432 37.6487L101.486 22.697L86.508 22.6421L86.4837 29.2607C86.463 35.1854 85.0509 36.3284 83.7 37.5839L82.4076 37.5812L82.3779 46.1096L87.2883 46.1285L87.3027 42.1154L98.361 42.1577L98.3466 46.1708L103.257 46.1897L103.287 37.6586L101.432 37.6487ZM96.2415 37.6289L89.2008 37.6019C90.1566 36.6569 91.3725 35.0018 91.3914 29.2814L91.4004 27.1754L96.2811 27.1943L96.2415 37.6289Z" fill="#5BD240"/>
<path d="M113.527 22.5971C108.279 22.5791 104.544 23.6879 104.522 29.6945L104.502 35.189C104.481 41.1965 108.207 42.3629 113.454 42.3791C118.733 42.398 122.462 41.2622 122.486 35.2547L122.506 29.7602C122.528 23.7536 118.803 22.6178 113.527 22.5971ZM117.154 34.6805C117.145 37.5695 116.193 37.871 113.466 37.8611C110.776 37.8521 109.828 37.5389 109.837 34.6499L109.848 30.2768C109.864 27.3824 110.815 27.1079 113.511 27.1169C116.232 27.1268 117.181 27.4121 117.174 30.3011L117.154 34.6805Z" fill="#5BD240"/>
<path d="M125.407 42.2549L130.6 42.2747L130.653 27.3212L134.187 27.3329C136.235 27.3419 136.549 27.9566 136.54 29.9771C136.53 32.4746 136.216 32.7815 134.166 32.7761L130.631 32.7635L131.771 37.286L135.19 37.2977C140.633 37.3166 141.843 35.4707 141.861 29.996C141.88 24.893 140.073 22.8347 135.242 22.8203L125.477 22.7834L125.407 42.2549Z" fill="#5BD240"/>
<path d="M152.836 22.7419C147.591 22.723 143.856 23.8318 143.832 29.8393L143.814 35.3338C143.793 41.3395 147.519 42.5041 152.762 42.5239C158.034 42.5428 161.777 41.4043 161.798 35.3959L161.818 29.9023C161.841 23.8957 158.111 22.759 152.836 22.7419ZM156.469 34.8217C156.46 37.7107 155.503 38.0149 152.781 38.0032C150.088 37.996 149.13 37.6846 149.142 34.7974L149.158 30.4171C149.167 27.5245 150.127 27.2473 152.821 27.2599C155.541 27.268 156.495 27.5515 156.483 30.445L156.469 34.8217Z" fill="#5BD240"/>
<path d="M178.111 32.6556V32.4612C180.692 32.0472 181.177 30.4515 181.18 27.9801C181.198 23.715 178.93 22.9797 175.055 22.9608L164.815 22.9248L164.746 42.3972L175.098 42.4368C179.219 42.4485 181.438 41.8158 181.46 37.0404C181.466 34.6023 181 32.8635 178.111 32.6556ZM173.881 38.1681L169.95 38.1537L169.978 30.7494L169.977 30.7431H169.978L169.993 27.2133L174.366 27.2277C175.828 27.2313 175.992 27.7371 175.987 28.8882C175.981 30.4605 175.531 30.7638 173.74 30.7584L169.978 30.7431V30.7494L170.861 34.3431L174.007 34.3539C175.691 34.3593 176.276 34.6113 176.274 36.2142C176.267 37.7838 175.561 38.1753 173.881 38.1681Z" fill="#5BD240"/>
<path d="M193.398 48.339L197.86 48.3534L197.918 32.7825L200.384 32.7951C202.267 32.8005 202.601 32.8554 202.587 35.7156C202.584 38.0178 202.444 38.6361 200.361 38.6307L197.892 38.6199L199.425 42.5241L201.865 42.5349C205.628 42.5457 207.031 40.8951 207.047 36.747L207.058 33.9345C207.075 30.3174 205.201 28.908 201.917 28.8981L193.47 28.8657L193.398 48.339Z" fill="#5BD240"/>
<path d="M211.192 48.5424C211.694 48.5712 212.196 48.6306 212.705 48.6342C216.492 48.6504 217.731 47.3337 218.584 43.8003L222.204 28.971L217.66 28.9539L215.518 38.8215C215.103 38.8215 214.684 37.9485 214.51 37.2465L212.692 28.935L208.031 28.917L210.774 38.8341C211.33 40.8555 212.755 42.5727 214.716 42.5826C214.208 44.1486 214.118 45.5256 212.264 45.5202C211.704 45.5175 211.424 45.4824 211.202 45.3996L211.192 48.5424Z" fill="#5BD240"/>
<path d="M184.432 43.3142L189.803 43.3335L189.823 37.974L184.451 37.9547L184.432 43.3142Z" fill="#ED1C24"/>
<path d="M50.039 19.2274C47.582 19.2175 45.3464 20.1427 43.6616 21.6727C41.9858 20.1328 39.7538 19.1878 37.3013 19.1797C32.0831 19.1617 27.836 23.3755 27.8189 28.5955C27.7955 34.7479 33.1163 42.2395 43.559 47.8492C43.559 47.8492 43.5671 47.8492 43.5725 47.8492C54.0539 42.3169 59.4305 34.8604 59.4539 28.708C59.471 23.4907 55.2536 19.2472 50.039 19.2274Z" fill="#ED1C24"/>
<path d="M43.0893 43.7174L33.9309 34.4915L36.567 32.1371L41.9364 35.9657C45.9324 31.1255 50.5017 27.4265 55.539 24.3413C55.8576 24.5843 56.4894 25.5779 56.6604 26.0252C50.9751 31.0238 46.6848 36.9584 43.0893 43.7174Z" fill="white"/>
</svg>
