<svg width="250" height="66" viewBox="0 0 250 66" fill="none" xmlns="http://www.w3.org/2000/svg">
<g clip-path="url(#clip0_402_2084)">
<mask id="mask0_402_2084" style="mask-type:luminance" maskUnits="userSpaceOnUse" x="26" y="8" width="198" height="50">
<path d="M224 8H26V57.9459H224V8Z" fill="white"/>
</mask>
<g mask="url(#mask0_402_2084)">
<path fill-rule="evenodd" clip-rule="evenodd" d="M189.81 28.3113L183.592 41.0751H66.3531L60.3589 28.3626C104.197 34.8085 145.987 35.1269 189.807 28.3113" fill="#C82B2B"/>
<path fill-rule="evenodd" clip-rule="evenodd" d="M69.8788 39.6807C69.5251 39.86 69.1272 39.9552 68.6925 39.9589C67.9557 39.9625 67.3478 39.7136 66.8689 39.2122C66.3825 38.7033 66.1431 38.0482 66.1431 37.2429C66.1431 36.4705 66.3789 35.8299 66.8504 35.3212C67.3368 34.8014 67.952 34.5452 68.7109 34.5452C69.1015 34.5452 69.4883 34.644 69.8788 34.8416V36.5583C69.6062 36.3314 69.3225 36.218 69.0278 36.218C68.7515 36.218 68.5267 36.3132 68.3536 36.4998C68.1694 36.6938 68.0772 36.9537 68.0772 37.2794C68.0772 37.5833 68.1694 37.8285 68.3536 38.0115C68.5378 38.1909 68.7773 38.2787 69.072 38.2787C69.3852 38.2787 69.6504 38.1799 69.8788 37.9786V39.677V39.6807ZM75.9172 37.6345H72.502C72.502 37.9054 72.5646 38.136 72.6936 38.33C72.8483 38.557 73.0693 38.6704 73.3567 38.6704C73.7436 38.6704 73.9941 38.5094 74.1083 38.1872L75.7404 38.5276C75.3204 39.483 74.5025 39.9625 73.2941 39.9625C72.4835 39.9625 71.8425 39.699 71.371 39.1719C70.9289 38.6741 70.7078 38.0299 70.7078 37.2429C70.7078 36.4376 70.9472 35.7861 71.4225 35.2919C71.8978 34.7941 72.5278 34.5488 73.3162 34.5488C74.2188 34.5488 74.8967 34.8599 75.3499 35.4785C75.7294 35.991 75.9172 36.6389 75.9172 37.4186V37.6382V37.6345ZM74.1746 36.6023C74.1562 36.379 74.0751 36.1887 73.9388 36.0312C73.7877 35.8629 73.5999 35.7751 73.3752 35.7751C72.9146 35.7751 72.6383 36.0533 72.5462 36.6023H74.1783H74.1746ZM80.6735 36.2984H79.5351V39.7612H77.6488V36.2984H76.5067V34.7355H80.6735V36.2984ZM86.1077 38.1177C86.1077 38.6338 85.9309 39.0365 85.5736 39.322C85.2015 39.6184 84.6636 39.7685 83.9599 39.7685H81.5688V34.7392H83.4477V36.4047H84.0482C84.7741 36.4047 85.3083 36.5767 85.6583 36.9207C85.9567 37.2173 86.1077 37.6162 86.1077 38.1177ZM84.2988 38.0482C84.2988 37.7333 84.1293 37.5797 83.783 37.5797H83.4477V38.5533H83.7866C84.1293 38.5533 84.2988 38.3849 84.2988 38.0482ZM93.0967 39.6807C92.7393 39.86 92.3451 39.9552 91.9104 39.9589C91.1698 39.9625 90.5657 39.7136 90.0867 39.2122C89.6004 38.7033 89.3572 38.0482 89.3572 37.2429C89.3572 36.4376 89.593 35.8299 90.0646 35.3212C90.5508 34.8014 91.1662 34.5452 91.9251 34.5452C92.312 34.5452 92.7024 34.644 93.093 34.8416V36.5583C92.8204 36.3314 92.5366 36.218 92.242 36.218C91.9657 36.218 91.7409 36.3132 91.564 36.4998C91.3799 36.6938 91.2877 36.9537 91.2877 37.2794C91.2877 37.5833 91.3799 37.8285 91.564 38.0115C91.7482 38.1909 91.9877 38.2787 92.2825 38.2787C92.5919 38.2787 92.8608 38.1799 93.0893 37.9786V39.677L93.0967 39.6807ZM99.474 37.2392C99.474 38.0078 99.2198 38.6521 98.715 39.1682C98.192 39.6916 97.5177 39.9589 96.6888 39.9589C95.8598 39.9589 95.1819 39.6953 94.6588 39.1682C94.154 38.6521 93.8998 38.0115 93.8998 37.2392C93.8998 36.4705 94.154 35.8336 94.6588 35.3285C95.1819 34.8051 95.8561 34.5452 96.6888 34.5452C97.5177 34.5452 98.192 34.8051 98.715 35.3285C99.2198 35.8336 99.474 36.4705 99.474 37.2392ZM97.5398 37.2392C97.5398 36.9793 97.4661 36.7597 97.315 36.5693C97.153 36.3607 96.943 36.2582 96.6888 36.2582C96.4346 36.2582 96.2245 36.3607 96.0587 36.5693C95.9114 36.7561 95.8377 36.9793 95.8377 37.2392C95.8377 37.5028 95.9114 37.7297 96.0625 37.92C96.2283 38.125 96.4382 38.2312 96.6962 38.2312C96.954 38.2312 97.164 38.1287 97.3224 37.92C97.4698 37.726 97.5435 37.5028 97.5435 37.2392H97.5398ZM105.984 40.8923H104.396V39.7649H100.513V34.7392H102.399V38.2056H103.549V34.7392H105.439V38.2056H105.984V40.8923ZM111.908 39.7649H110.066V37.2429L108.592 39.7649H106.828V34.7392H108.662V37.2136L110.136 34.7392H111.912V39.7649H111.908ZM118.485 39.7649H116.661V39.1207C116.341 39.677 115.836 39.9589 115.147 39.9589C114.528 39.9589 114.004 39.7099 113.581 39.2122C113.146 38.696 112.932 38.0408 112.932 37.2429C112.932 36.4449 113.146 35.7567 113.577 35.2553C113.986 34.7831 114.502 34.5452 115.128 34.5452C115.769 34.5452 116.263 34.8124 116.609 35.3431V34.7355H118.481V39.7612L118.485 39.7649ZM116.675 37.2392C116.675 36.9317 116.587 36.6829 116.414 36.4925C116.241 36.3021 116.02 36.2069 115.758 36.2069C115.471 36.2069 115.246 36.2984 115.08 36.4852C114.914 36.6719 114.833 36.9244 114.833 37.2429C114.833 37.5576 114.918 37.8065 115.08 37.9969C115.246 38.1836 115.468 38.2787 115.751 38.2787C116.035 38.2787 116.248 38.1836 116.421 37.9969C116.59 37.8065 116.675 37.554 116.675 37.2356V37.2392ZM124.623 39.7649H122.736V36.3021H121.745V37.9567C121.745 39.2561 121.16 39.904 119.991 39.904C119.748 39.904 119.486 39.8564 119.206 39.7576L119.303 38.1689C119.391 38.2056 119.49 38.2239 119.604 38.2239C119.752 38.2239 119.858 38.1726 119.918 38.0628C119.984 37.942 120.017 37.7187 120.017 37.3857V34.7392H124.626V39.7649H124.623ZM130.528 38.1177C130.528 38.6338 130.351 39.0365 129.994 39.322C129.625 39.6184 129.088 39.7685 128.384 39.7685H125.993V34.7392H127.872V36.4047H128.472C129.195 36.4047 129.732 36.5767 130.082 36.9207C130.381 37.2173 130.532 37.6162 130.532 38.1177H130.528ZM128.719 38.0482C128.719 37.7333 128.55 37.5797 128.204 37.5797H127.868V38.5533H128.204C128.546 38.5533 128.719 38.3849 128.719 38.0482ZM136.548 39.7649H134.662V37.8907H133.424V39.7649H131.538V34.7392H133.424V36.4852H134.662V34.7392H136.548V39.7649ZM144.639 39.7649H142.782V34.7392H144.639V39.7649ZM142.347 38.1177C142.347 38.6338 142.174 39.0365 141.827 39.322C141.459 39.6184 140.925 39.7685 140.225 39.7685H137.885V34.7392H139.739V36.4047H140.313C141.002 36.4047 141.525 36.5767 141.883 36.9207C142.196 37.2246 142.351 37.6235 142.351 38.1177H142.347ZM140.553 38.0482C140.553 37.7333 140.383 37.5797 140.048 37.5797H139.735V38.5533H140.048C140.383 38.5533 140.553 38.3849 140.553 38.0482ZM151.816 39.7649H149.476L148.533 38.4069L147.597 39.7649H145.254L147.346 37.0708L145.593 34.7392H147.884L148.529 35.8043L149.17 34.7392H151.495L149.719 37.0708L151.812 39.7649H151.816ZM160.219 39.7649H158.395V39.1207C158.079 39.677 157.574 39.9589 156.882 39.9589C156.263 39.9589 155.739 39.7099 155.319 39.2122C154.885 38.696 154.667 38.0408 154.667 37.2429C154.667 36.4156 154.881 35.7567 155.312 35.2553C155.72 34.7831 156.24 34.5452 156.866 34.5452C157.508 34.5452 158.001 34.8124 158.348 35.3431V34.7355H160.219V39.7612V39.7649ZM158.414 37.2392C158.414 36.9317 158.326 36.6829 158.153 36.4925C157.98 36.3021 157.758 36.2069 157.493 36.2069C157.205 36.2069 156.981 36.2984 156.815 36.4852C156.652 36.6719 156.568 36.9244 156.568 37.2429C156.568 37.5576 156.652 37.8065 156.815 37.9969C156.981 38.1836 157.202 38.2787 157.485 38.2787C157.769 38.2787 157.983 38.1836 158.156 37.9969C158.326 37.8065 158.41 37.554 158.41 37.2356L158.414 37.2392ZM166.523 39.7649H164.633V36.3021H163.439V39.7649H161.552V34.7392H166.523V39.7649ZM171.574 36.2984H170.436V39.7612H168.549V36.2984H167.407V34.7355H171.574V36.2984ZM177.376 37.6345H173.961C173.961 37.9054 174.024 38.136 174.153 38.33C174.311 38.557 174.532 38.6704 174.819 38.6704C175.206 38.6704 175.454 38.5094 175.571 38.1872L177.203 38.5276C176.783 39.483 175.965 39.9625 174.757 39.9625C173.946 39.9625 173.305 39.699 172.834 39.1719C172.392 38.6741 172.17 38.0299 172.17 37.2429C172.17 36.4376 172.41 35.7861 172.886 35.2919C173.36 34.7941 173.991 34.5488 174.779 34.5488C175.678 34.5488 176.356 34.8599 176.813 35.4785C177.192 35.991 177.38 36.6389 177.38 37.4186V37.6382L177.376 37.6345ZM175.634 36.6023C175.615 36.379 175.535 36.1887 175.398 36.0312C175.247 35.8629 175.059 35.7751 174.835 35.7751C174.37 35.7751 174.098 36.0533 174.002 36.6023H175.634ZM183.89 39.7649H181.628L180.287 37.3966V39.7649H178.419V34.7392H180.287V36.9061L181.602 34.7392H183.791L182.029 37.1001L183.89 39.7649Z" fill="#FEFEFE"/>
<path fill-rule="evenodd" clip-rule="evenodd" d="M91.2986 17.8062C91.6191 17.6818 91.9618 17.6158 92.3118 17.6122C93.6712 17.6122 94.4707 18.5346 94.4744 19.8524C94.4744 20.2111 94.4265 20.5917 94.3786 20.9468C94.3196 21.3751 94.2497 21.8033 94.1723 22.2279C94.4339 21.8838 94.6991 21.5435 94.9607 21.1994L94.9791 21.1737L95.0012 21.1481C95.6607 20.3721 96.5191 19.7645 97.5802 19.7608C98.0075 19.7608 98.4091 19.867 98.748 20.0902H98.877L99.2159 20.5185C99.5622 20.9578 99.6912 21.4995 99.6912 22.0449C99.6912 22.4036 99.6618 22.766 99.6249 23.121C99.5771 23.5786 99.5107 24.0325 99.437 24.4864C99.3744 24.889 99.3155 25.2953 99.2712 25.7053C99.2454 25.9652 99.2197 26.2324 99.2197 26.4886C99.2197 26.7229 99.2307 27.1658 99.3081 27.4696C99.6249 27.3488 100.019 27.0377 100.196 26.8803C100.889 26.2836 101.522 25.5077 102.075 24.7682C102.443 23.9446 102.882 23.1503 103.361 22.3853C103.361 22.3597 103.357 22.334 103.353 22.3121V22.2608H103.35C103.335 22.0668 103.324 21.8692 103.324 21.6752C103.324 20.5039 103.644 19.4168 104.197 18.4138C103.409 18.4467 102.602 18.3698 101.828 18.2381L101.607 18.2015L101.467 18.1283C101.426 18.1173 101.386 18.11 101.349 18.1026C101.183 18.0661 101.014 18.0441 100.844 18.0258C100.572 18.0148 100.292 17.9563 100.03 17.8867C99.7244 17.8062 99.4223 17.7037 99.1239 17.5976C97.6096 17.2425 95.9665 16.9607 94.4044 16.9863C93.4428 17.0009 92.3559 17.14 91.5012 17.6158L91.4681 17.6341C91.4349 17.6561 91.4018 17.6818 91.3723 17.711L91.3612 17.722C91.3354 17.7476 91.3133 17.7769 91.2912 17.8062M159.04 30.2771C158.852 30.4454 158.661 30.6102 158.466 30.7639C157.165 31.7998 155.647 32.5209 153.952 32.5209C151.185 32.5209 149.911 30.6944 149.911 28.0845C149.911 26.9242 150.117 25.7822 150.474 24.6767C150.647 24.1423 150.854 23.6152 151.09 23.1028C150.939 23.0369 150.791 22.96 150.651 22.8758C150.323 23.4248 149.977 23.9629 149.627 24.4973L149.612 24.5194C149.476 24.7316 149.336 24.9439 149.196 25.1526L148.68 25.9395C148.662 25.9725 148.643 26.0054 148.621 26.0383L148.548 26.1592L148.54 26.1665C148.308 26.5398 148.065 26.9022 147.811 27.2573L147.545 27.6599V27.616C146.875 28.5055 146.131 29.3364 145.306 30.0904L144.506 30.8189L144.476 30.7895C143.946 31.1995 143.382 31.5692 142.782 31.862C140.729 32.3891 138.696 33.2237 137.045 31.1739C136.68 30.7237 136.445 30.2003 136.294 29.6512C136.007 29.9184 135.701 30.1673 135.376 30.3796C134.754 30.7895 134.05 31.0677 133.295 31.0677C132.34 31.0677 131.545 30.6541 131.022 29.8891C130.775 30.127 130.521 30.3503 130.255 30.5626C129.025 31.5436 127.599 32.1915 126 32.1915C124.773 32.1915 123.66 31.7888 122.887 30.8189C122.227 29.9916 121.977 28.9374 121.926 27.9015C121.782 28.0735 121.638 28.2419 121.49 28.4103C121.129 28.8276 120.754 29.2412 120.359 29.6328L120.301 29.6914L120.286 29.7024C120.098 29.8781 119.906 30.0538 119.708 30.2185L119.737 30.2734L118.857 30.8518C118.374 31.1702 117.851 31.4374 117.294 31.6131C116.801 31.7669 116.285 31.8657 115.769 31.862C115.246 31.8547 114.734 31.7449 114.262 31.5106C113.286 31.0275 112.704 30.1417 112.394 29.1278C112.38 29.0765 112.365 29.0289 112.35 28.9777C112.243 29.018 112.136 29.0509 112.026 29.0838L111.042 29.384L111.009 29.3035C110.784 29.3327 110.556 29.3473 110.327 29.3473C109.919 29.3473 109.51 29.2998 109.112 29.1973C108.574 29.9221 107.955 30.6065 107.244 31.1519L105.693 32.0158C105.195 32.1952 104.669 32.294 104.12 32.294C102.616 32.294 101.67 31.5473 101.275 30.3796C101.006 30.57 100.734 30.7457 100.45 30.903C99.7723 31.2764 99.0207 31.5473 98.2397 31.5473C97.7754 31.5473 97.326 31.4558 96.9059 31.2544C95.5354 30.5992 94.9754 29.0436 94.7581 27.4989C94.3123 28.198 93.896 28.9227 93.5018 29.6476C93.0375 30.6615 92.3449 31.3349 91.376 31.5985C91.1623 31.6571 90.9376 31.69 90.7055 31.69C90.4254 31.69 90.1491 31.6351 89.8913 31.5216C89.6002 31.3935 89.3496 31.1959 89.1581 30.9396L88.9997 30.7237L88.9296 30.4784C88.856 30.2112 88.8081 29.9404 88.7786 29.6658C88.7491 29.3767 88.7344 29.0874 88.7344 28.7946C88.7344 28.1065 88.8117 27.389 88.8965 26.7046C88.9444 26.3239 88.996 25.9468 89.0512 25.5662C88.5244 26.2726 88.0123 26.9864 87.5075 27.7075C86.7854 28.7434 86.0818 29.7976 85.3929 30.8591L85.3781 30.881L85.3707 30.892C85.2307 31.0971 85.076 31.2947 84.8881 31.4594C84.5676 31.7449 84.1734 31.9206 83.7387 31.9206C83.0275 31.9206 82.4566 31.5179 82.1729 30.8774C82.0071 30.504 81.9555 30.0831 81.9555 29.6768C81.9555 29.5743 81.9592 29.4755 81.9702 29.3729V29.3656L81.9776 29.2998C81.996 29.1534 82.0255 29.0033 82.0734 28.8642V28.8532L82.1028 28.7873L82.1176 28.7544C82.2391 28.4688 82.357 28.176 82.4676 27.8869C80.3712 29.3767 79.5534 29.8671 76.8602 31.13C75.1986 31.9097 73.4671 32.5795 71.6839 33.0407C70.1218 33.447 68.5118 33.6959 66.8945 33.6959C65.7376 33.6959 64.566 33.5861 63.4424 33.3006C62.4182 33.0407 61.4418 32.6381 60.5613 32.056C59.4082 31.291 58.9145 30.8554 58.2182 29.4938C54.7993 22.8209 61.7771 15.8113 67.1303 12.4254L67.6681 12.0923C69.746 10.8258 71.9602 9.7643 74.2886 9.03955C76.4513 8.36604 78.6729 8 80.9276 8C82.5413 8 84.3539 8.22694 85.7134 9.16034C87.0507 10.0754 87.6512 11.4517 87.6512 13.044C87.6512 14.3947 87.2644 15.6575 86.5681 16.8142C85.3744 18.4504 85.9086 18.1722 83.9524 19.6986C83.8344 19.7938 83.7129 19.8889 83.5912 19.9804L83.5839 19.9877C82.4676 20.8589 81.2444 21.6056 79.9218 22.1181C78.6913 22.5939 77.4018 22.8575 76.0828 22.8575C73.4192 22.8575 71.2382 21.7448 71.2418 18.842C71.2418 18.1905 71.3081 17.4694 71.5771 16.8655C71.9345 16.0748 72.6123 15.5733 73.4965 15.5733C74.5723 15.5733 75.2318 16.353 75.2318 17.3925C75.2318 17.5024 75.2245 17.6122 75.2097 17.7183C75.1986 17.8245 75.1802 17.9342 75.1655 18.0405C75.1545 18.1063 75.1397 18.1795 75.136 18.2345C75.136 18.2893 75.1434 18.4175 75.1766 18.465C75.2982 18.6297 75.9539 18.659 76.1271 18.659C76.8491 18.659 77.575 18.454 78.2344 18.1759C79.1923 17.7696 80.0949 17.1839 80.9202 16.5616C81.6644 15.9979 82.4455 15.3098 82.9649 14.5301C83.2781 14.0616 83.5176 13.5235 83.5176 12.9525C83.5176 12.8537 83.5065 12.7439 83.4549 12.656C83.1529 12.1179 81.5244 12.063 81.016 12.063C80.7803 12.063 80.5481 12.0703 80.3124 12.085C80.0876 12.0996 79.8629 12.1179 79.6381 12.1472L79.5129 12.1619H79.4982C78.1755 12.3083 76.864 12.6707 75.6224 13.1282C74.0012 13.7212 72.4392 14.5008 70.9434 15.3574C69.0423 16.4482 67.1265 17.7696 65.4908 19.2228C63.995 20.5478 61.8176 22.8282 61.8618 24.9732C61.8839 26.1958 62.6466 27.1475 63.564 27.8832L63.6745 27.9711C64.0502 28.2639 64.4813 28.4726 64.9345 28.6116L65.0302 28.6409C65.675 28.8275 66.3676 28.8898 67.0382 28.8898C69.7718 28.8898 72.4171 28.3444 74.9482 27.3305C77.7923 26.1921 80.3971 24.5157 82.7512 22.572L82.7734 22.5537L82.8065 22.528C82.9686 22.4073 83.1491 22.3048 83.3407 22.2352C83.5581 22.151 83.7866 22.1108 84.0223 22.1071C84.0812 22.1071 84.1402 22.1071 84.1991 22.1145C84.2139 22.0522 84.2287 21.9936 84.2434 21.9314C84.2839 21.6642 84.3355 21.3934 84.3871 21.1298C84.4607 20.7565 84.5455 20.3868 84.6302 20.0171V20.0024L84.6449 19.9585V19.9439C84.7481 19.5961 84.9433 19.2922 85.1939 19.0324C85.4039 18.8164 85.647 18.6371 85.905 18.4796C86.1444 18.3333 86.3986 18.2051 86.6639 18.1136C86.9512 18.0111 87.2497 17.949 87.5554 17.949C87.6181 17.949 87.6807 17.949 87.7397 17.9563C87.7729 17.7 87.8208 17.4475 87.887 17.2022C87.9792 16.8471 88.1081 16.4994 88.2812 16.1736C88.5023 15.6868 88.8007 15.2439 89.1765 14.8596C89.5523 14.4752 89.9907 14.1641 90.4697 13.9188C91.3465 13.41 92.3118 13.0953 93.3138 12.9232C94.4192 12.7329 95.5576 12.7219 96.6739 12.8097C97.3001 12.8171 98.037 12.9342 98.6523 13.022C99.8275 13.1868 100.999 13.3734 102.167 13.5638H102.178L102.547 13.6224C103.059 13.7102 105 14.0104 105.512 13.7834C105.59 13.7395 105.674 13.6736 105.719 13.5967L105.73 13.5711C105.744 13.5382 105.77 13.4833 105.777 13.4393C105.685 13.1428 105.634 12.8317 105.641 12.5206C105.652 12.1728 105.733 11.8361 105.888 11.5213L106.102 11.1004L106.518 10.899L106.559 10.8807C106.982 10.6355 107.465 10.5476 107.936 10.727C108.894 11.093 109.02 12.1911 109.001 13.066C108.994 13.4759 108.964 13.8932 108.894 14.2959C108.839 14.6143 108.751 14.9364 108.622 15.2366V15.2659L108.541 15.4123L108.53 15.4306C108.566 15.4306 108.603 15.4306 108.64 15.4306C109.3 15.4306 109.911 15.6282 110.445 16.0126C110.943 16.3713 111.319 16.8618 111.606 17.3962L111.621 17.4219L111.65 17.4877C112.081 18.3845 112.306 19.3399 112.306 20.3355C112.306 21.3311 112.133 22.2389 111.882 23.1576V23.1687L111.75 23.6115C111.529 24.3289 111.26 25.0354 110.958 25.7272C111.138 25.6943 111.311 25.643 111.484 25.5698C111.845 25.4198 112.173 25.1965 112.464 24.9402C112.509 24.7792 112.564 24.6218 112.63 24.4681C112.789 24.0984 113.01 23.7616 113.315 23.4944C113.547 23.2894 113.809 23.1247 114.096 23.0076C114.399 22.8831 114.715 22.8209 115.04 22.8209C115.331 22.8209 115.622 22.8685 115.898 22.96C116.175 23.0551 116.432 23.1943 116.661 23.3736C116.867 23.5347 117.051 23.7214 117.206 23.93C117.368 24.1532 117.493 24.4058 117.571 24.673L117.703 25.1233L117.534 25.5625C117.339 26.064 117.154 26.5875 117.033 27.1108C116.967 27.3927 116.908 27.7075 116.9 28.004C116.934 27.982 116.967 27.9638 117 27.9418L117.125 27.8576C117.475 27.6197 117.799 27.3049 118.086 26.9974C118.521 26.5325 118.916 26.0237 119.287 25.5077L119.295 25.4929L119.737 24.9037L120.385 24.0252C120.695 23.6042 121.027 23.1979 121.362 22.7952L121.947 22.0998L121.959 22.1071C122.168 21.8692 122.382 21.6312 122.596 21.397C122.747 21.2177 122.901 21.0383 123.057 20.8589C123.207 20.6869 123.359 20.5148 123.51 20.3465C123.959 19.8487 124.412 19.3582 124.862 18.864L124.888 18.831L124.924 18.7945C125.392 18.3333 125.978 18.0697 126.641 18.0588H126.66H126.778H126.792C127.99 18.099 128.797 18.7359 129.062 19.7535L129.036 21.2359C128.973 21.4263 128.885 21.6093 128.785 21.785L128.767 21.8216L128.752 21.8399C128.052 22.9819 127.381 24.2009 126.899 25.4491C126.608 26.2031 126.332 27.1035 126.332 27.9161C126.332 27.993 126.339 28.1724 126.368 28.2712C126.442 28.2895 126.563 28.2931 126.615 28.2931C126.873 28.2931 127.139 28.2054 127.367 28.0955C127.746 27.9125 128.104 27.6453 128.42 27.3671L128.432 27.3524L128.52 27.2756C128.852 26.9901 129.162 26.6716 129.449 26.3422C129.814 25.9285 130.152 25.4893 130.473 25.0427V25.0354L130.514 24.9879C130.59 24.8781 130.672 24.7719 130.753 24.6657C130.937 24.0838 131.166 23.5163 131.423 22.9636L131.449 22.9088C131.799 22.1254 132.248 21.3055 132.849 20.6832C133.45 20.061 134.201 19.6473 135.086 19.6437C135.498 19.6437 135.911 19.7096 136.279 19.9035C136.858 20.2111 137.2 20.7601 137.2 21.4153C137.2 21.8143 136.942 22.2352 136.754 22.5793C136.448 23.1393 136.132 23.692 135.815 24.2411C135.516 24.7609 135.222 25.3136 135.011 25.8737C134.986 25.9432 134.956 26.0201 134.93 26.1042C135.082 25.9285 135.214 25.7675 135.288 25.6723C136.467 24.1826 137.517 22.4 138.46 20.7528C138.592 20.4893 138.732 20.2294 138.872 19.9695C139.064 19.6181 139.26 19.2666 139.455 18.9189L139.521 18.7945L139.621 18.6774C139.83 18.4358 140.081 18.2271 140.368 18.077C140.737 17.9453 140.991 17.8208 141.393 17.8208C143.456 17.8208 144.395 19.8194 143.349 21.796C143.065 22.3304 142.512 23.3736 142.097 24.1643C141.654 25.0025 141.234 25.8847 140.928 26.7815C140.759 27.2792 140.586 27.8942 140.586 28.4249C140.586 28.4762 140.586 28.5824 140.605 28.6556C140.648 28.6629 140.7 28.6629 140.729 28.6629C141.404 28.6629 142.296 27.9674 142.782 27.5428H142.785L142.815 27.5135C143.198 27.1841 143.555 26.8144 143.894 26.441C144.185 26.1189 144.469 25.7858 144.742 25.4454C144.812 25.3026 144.893 25.1636 144.985 25.0317L144.992 25.0135L145.051 24.9329C145.692 24.0691 146.274 23.154 146.812 22.2242C147.394 21.2177 147.936 20.189 148.444 19.1422C148.441 19.0983 148.434 19.0544 148.429 19.0141C148.408 18.7872 148.4 18.5565 148.4 18.326C148.4 17.8611 148.448 17.3962 148.525 16.935C148.61 16.4372 148.731 15.9467 148.879 15.4635C149.041 14.8596 149.273 14.219 149.638 13.7065C150.084 13.0843 150.718 12.6743 151.498 12.6743C152.051 12.6743 152.549 12.8903 152.95 13.2673C153.26 13.5565 153.488 13.9262 153.665 14.3105C153.956 14.8925 154.133 15.5221 154.133 16.1773C154.133 16.9203 153.83 17.6597 153.469 18.3003C153.219 18.7432 152.924 19.1715 152.611 19.5815C152.765 19.49 152.914 19.3435 153.031 19.2118C153.293 18.9152 153.576 18.6115 153.886 18.3625C154.269 18.0514 154.715 17.8208 155.219 17.8208C155.613 17.8208 155.983 17.916 156.31 18.088C158.023 19.9804 157.923 19.7315 156.932 22.0047C156.796 22.2792 156.667 22.5537 156.535 22.8282C156.329 23.2602 156.126 23.6957 155.919 24.1276L155.912 24.1459L155.901 24.1643C155.466 25.0025 155.05 25.8883 154.752 26.7815C154.582 27.2829 154.413 27.8978 154.413 28.4323C154.413 28.4835 154.416 28.5897 154.432 28.6629C154.475 28.6702 154.527 28.6702 154.556 28.6702C155.245 28.6702 156.152 27.9564 156.631 27.5282C157.006 27.1914 157.36 26.818 157.699 26.4447C158.153 25.9432 158.587 25.4235 159.007 24.8964L159.036 24.8597C159.324 24.4937 159.614 24.124 159.91 23.7616C160.271 23.3187 160.705 22.8721 161.328 22.8685C161.372 22.8685 161.416 22.8685 161.461 22.8721C163.442 18.2674 165.915 12.0923 170.237 9.59592C171.058 9.12007 171.971 8.80895 172.933 8.80895C173.836 8.80895 174.735 9.02124 175.431 9.62155C176.208 10.2877 176.624 11.2797 176.562 12.2936C176.503 13.2563 175.965 14.2849 174.916 14.4386C174.005 14.5704 173.324 13.9847 172.863 13.2783C172.664 13.3588 172.443 13.4759 172.333 13.5382C170.192 14.8413 168.847 17.5499 167.768 20.05C168.556 19.4094 169.422 18.8604 170.336 18.4211C171.394 17.9123 172.841 17.4109 174.027 17.4109C174.669 17.4109 175.269 17.6232 175.751 18.0478C176.09 18.3479 176.334 18.7322 176.488 19.1569C176.624 19.5339 176.687 19.9365 176.687 20.3355C176.687 21.3092 176.319 22.3121 175.667 23.0405L175.247 23.509H169.997L171.017 22.2682C170.925 22.3158 170.841 22.3634 170.763 22.4109C170.28 22.6928 169.82 23.0332 169.385 23.3992C169.404 23.4578 169.422 23.5163 169.433 23.5749L169.573 24.1716V24.1826L169.58 24.2009C169.776 25.094 170.118 26.2544 170.719 26.9718C171.055 27.3744 171.437 27.5904 171.968 27.5904C172.697 27.5904 173.427 27.2023 174.005 26.7888C174.414 26.4996 174.793 26.1665 175.151 25.8151C175.335 24.8231 175.7 23.8458 176.123 22.938L176.138 22.9088C176.488 22.1254 176.938 21.3055 177.539 20.6832C178.139 20.061 178.891 19.6473 179.775 19.6437C180.188 19.6437 180.6 19.7096 180.968 19.9035C181.547 20.2111 181.889 20.7601 181.889 21.4116C181.889 21.8106 181.632 22.2316 181.443 22.5757C181.137 23.132 180.821 23.6847 180.504 24.2374C180.361 24.4864 180.224 24.7353 180.095 24.9915C180.073 25.0867 180.04 25.1819 180.003 25.2734C179.977 25.3393 179.948 25.4051 179.915 25.4673V25.5296L179.742 25.7711C179.726 25.8041 179.716 25.837 179.705 25.87C179.679 25.9395 179.65 26.0164 179.624 26.1006C179.775 25.9249 179.908 25.7638 179.981 25.6686C181.16 24.1789 182.21 22.3963 183.153 20.7492C183.286 20.4856 183.426 20.2257 183.566 19.9658C183.757 19.6144 183.952 19.263 184.148 18.9152L184.214 18.7908L184.313 18.6737C186.027 16.7044 188.598 18.6297 188.62 20.3465C188.624 20.7382 188.23 21.4409 188.038 21.796C187.618 22.583 187.202 23.3736 186.789 24.1643C186.351 25.0025 185.927 25.8847 185.622 26.7815C185.452 27.2792 185.279 27.8942 185.279 28.4249C185.279 28.4762 185.283 28.5824 185.297 28.6556C185.342 28.6629 185.394 28.6629 185.423 28.6629C186.108 28.6629 187.021 27.9455 187.5 27.5208L187.515 27.5062H187.523C187.902 27.1731 188.256 26.8071 188.591 26.4374C189.037 25.9468 189.457 25.4308 189.862 24.9073L189.907 24.8487H189.91C190.204 24.4717 190.5 24.0947 190.806 23.736C191.177 23.3004 191.623 22.8685 192.242 22.8648C192.832 22.8648 193.336 23.176 193.602 23.692L193.609 23.7068C193.738 23.9666 193.793 24.2521 193.793 24.5413C193.793 24.8304 193.738 25.105 193.642 25.3685C193.565 25.5881 193.458 25.8005 193.34 26.0054V26.0127L193.306 26.0604C192.393 27.5538 191.295 28.9191 189.998 30.1051C188.017 31.917 183.812 33.7618 181.739 31.1886C181.374 30.7347 181.134 30.2149 180.987 29.6658C180.15 30.4454 179.133 31.0823 177.992 31.0823C177.067 31.0823 176.289 30.6944 175.766 29.9696C175.162 30.4821 174.513 30.9725 173.836 31.3606C173.118 31.7742 172.292 32.111 171.449 32.111C169.463 32.111 167.922 30.6468 166.829 29.1497L166.493 28.6885V28.6812C166.15 28.1833 165.833 27.6599 165.569 27.1181L165.019 27.7551C164.739 28.1248 164.504 28.5201 164.319 28.9447C164.125 29.395 163.98 29.8635 163.895 30.3466L163.771 31.075L163.1 31.3752C162.839 31.496 162.562 31.5875 162.282 31.6498C162.002 31.7083 161.715 31.7413 161.428 31.7413C160.971 31.7413 160.487 31.69 160.072 31.496C159.538 31.2544 159.166 30.8298 159.036 30.2918L159.04 30.2771Z" fill="#FEFEFE"/>
<path fill-rule="evenodd" clip-rule="evenodd" d="M109.222 21.331C109.222 20.998 109.197 20.6649 109.145 20.3318C109.093 19.9951 109.012 19.6546 108.909 19.3069C108.762 18.842 108.6 18.4979 108.419 18.2746C108.272 18.0916 108.113 18.0037 107.951 18.0037C107.653 18.0037 107.388 18.0953 107.155 18.2746C106.909 18.465 106.691 18.7578 106.507 19.1531C106.36 19.4753 106.253 19.8157 106.187 20.1671C106.161 20.3098 106.139 20.4599 106.124 20.6063C106.231 20.5184 106.338 20.4453 106.444 20.383C106.739 20.2073 107.038 20.1232 107.34 20.1232C107.612 20.1232 107.855 20.1708 108.066 20.2659C108.283 20.3648 108.463 20.5111 108.6 20.7089L108.651 20.782V21.0602C108.662 21.1041 108.673 21.1407 108.681 21.1774C108.692 21.2359 108.699 21.2908 108.699 21.3347C108.699 21.5178 108.592 21.6422 108.382 21.7045C108.279 21.7337 108.132 21.752 107.951 21.752C107.745 21.752 107.52 21.8728 107.277 22.1144C107.015 22.3743 106.746 22.7623 106.467 23.2747C106.658 23.7945 106.912 24.274 107.233 24.7023C107.509 25.0683 107.833 25.4088 108.205 25.7089C108.526 24.8707 108.773 24.1056 108.942 23.4102C109.134 22.6305 109.23 21.9387 109.23 21.3347M107.59 26.8912C107.141 26.5764 106.739 26.2397 106.385 25.8846C106.105 25.5991 105.851 25.299 105.634 24.9841C105.273 25.7638 104.993 26.4519 104.798 27.0413C104.573 27.7221 104.459 28.2676 104.459 28.6738C104.459 28.9227 104.499 29.1021 104.58 29.2119C104.643 29.2924 104.746 29.3363 104.886 29.3363C105.247 29.3363 105.763 28.9886 106.43 28.3005L106.441 28.2895C106.743 28.004 107.001 27.7258 107.211 27.4549C107.362 27.2609 107.487 27.0742 107.59 26.8948V26.8912ZM86.5277 12.8829C86.5277 13.992 86.2182 15.0572 85.6029 16.0748C84.9987 17.0777 84.0924 18.0331 82.8877 18.9445C81.7676 19.8194 80.6439 20.4746 79.5093 20.9138C78.3708 21.3567 77.2251 21.5763 76.0792 21.5763C73.6034 21.5763 72.3656 20.6099 72.3656 18.681C72.3656 18.0185 72.4467 17.5133 72.6014 17.1655C72.793 16.7446 73.0877 16.536 73.4893 16.536C73.8908 16.536 74.0971 16.7666 74.0971 17.2315C74.0971 17.2827 74.0934 17.3522 74.0824 17.4364C74.0751 17.5133 74.0603 17.6011 74.0455 17.7C74.0161 17.8684 74.0013 17.9928 74.0013 18.077C74.0013 19.1092 74.7088 19.6253 76.1271 19.6253C76.9229 19.6253 77.774 19.435 78.6766 19.0507C79.5977 18.659 80.5739 18.077 81.6056 17.2974C82.6334 16.5213 83.3997 15.7526 83.9082 14.9913C84.4018 14.2482 84.6487 13.5162 84.6487 12.7914C84.6487 11.448 83.4366 10.7745 81.0198 10.7745C80.7544 10.7745 80.4929 10.7819 80.2461 10.7965C79.9992 10.8111 79.7487 10.8331 79.4982 10.866H79.4945C78.1719 11.0015 76.7461 11.3529 75.2319 11.9092C73.7066 12.4693 72.0893 13.2416 70.3798 14.219C66.4377 16.4811 56.2362 23.4431 62.9708 28.6921C63.4608 29.0764 64.043 29.3657 64.7098 29.556C65.3877 29.75 66.1614 29.8488 67.0346 29.8488C69.8566 29.8488 72.6345 29.3034 75.3682 28.209C78.1093 27.1145 80.8134 25.4673 83.4735 23.2711L83.4845 23.2638C83.5693 23.2015 83.654 23.154 83.7424 23.121C83.8382 23.0844 83.934 23.0661 84.0261 23.0661C84.295 23.0661 84.505 23.1467 84.6524 23.3077C84.7813 23.4468 84.8514 23.6371 84.8661 23.8751C85.0281 23.2747 85.1903 22.6452 85.3561 21.9827C85.3892 21.7557 85.4371 21.4921 85.4998 21.181C85.5624 20.8735 85.6398 20.5111 85.7356 20.0976V20.0829C85.7835 19.9292 85.8755 19.7827 86.0119 19.64C86.1371 19.5118 86.2955 19.3874 86.4945 19.2666C86.6897 19.1458 86.874 19.058 87.0471 18.9957C87.2313 18.9299 87.4045 18.8969 87.5592 18.8969C87.9645 18.8969 88.1671 19.0836 88.1671 19.4533C88.1671 19.6364 87.9792 20.3318 87.5997 21.5434C87.3198 22.4402 86.9439 23.6079 86.4687 25.0537L87.1761 24.1129L88.9371 21.7666L90.6318 19.5228L90.6392 19.5118C90.8971 19.2081 91.1587 18.9738 91.4313 18.8201C91.7187 18.6554 92.0098 18.5712 92.3119 18.5712C92.9971 18.5712 93.3434 18.9445 93.3434 19.6876C93.3434 19.8962 93.3139 20.211 93.2587 20.6283C93.2034 21.0273 93.1223 21.5361 93.0082 22.1436C92.9013 22.7293 92.7834 23.4651 92.6582 24.3509C92.5734 24.9365 92.485 25.5918 92.3929 26.3129C92.7061 25.8809 93.056 25.4051 93.4466 24.889C94.1318 23.9739 94.935 22.916 95.8597 21.7191L95.8671 21.7081C96.4234 21.0492 96.9981 20.7198 97.5839 20.7198C97.9081 20.7198 98.1586 20.8296 98.3319 21.0492C98.4866 21.2469 98.5676 21.5288 98.5676 21.8838C98.5676 22.1363 98.5455 22.4585 98.505 22.8428C98.4681 23.2125 98.4055 23.6517 98.3245 24.1496C98.247 24.6327 98.1882 25.0574 98.1512 25.4271C98.1144 25.7821 98.0924 26.0859 98.0924 26.3275C98.0924 27.0925 98.1882 27.6599 98.3797 28.0259C98.5381 28.3297 98.7776 28.4835 99.0871 28.4835C99.6139 28.4835 100.233 28.1797 100.944 27.5684C101.589 27.012 102.296 26.2177 103.066 25.1745C103.438 24.3216 103.928 23.4248 104.54 22.4804C104.518 22.3377 104.495 22.1913 104.484 22.0485C104.466 21.8581 104.459 21.6788 104.459 21.5104C104.459 20.3281 104.853 19.1861 105.641 18.0806C106.039 17.517 106.489 17.096 106.99 16.8068C107.498 16.5177 108.047 16.3713 108.644 16.3713C109.064 16.3713 109.443 16.4921 109.782 16.741C110.11 16.9752 110.39 17.3266 110.63 17.7842V17.7915C110.998 18.5455 111.179 19.3361 111.179 20.1561C111.179 21.0236 111.009 22.0046 110.67 23.099C110.357 24.1166 109.896 25.2331 109.289 26.4483C109.436 26.5178 109.587 26.5728 109.745 26.613C109.989 26.6753 110.247 26.7082 110.523 26.7082C111.005 26.7082 111.47 26.613 111.923 26.4263C112.383 26.236 112.829 25.9468 113.257 25.5662L113.485 25.3648C113.533 25.1196 113.595 24.9109 113.669 24.7279C113.772 24.4863 113.901 24.296 114.06 24.1606C114.207 24.0287 114.365 23.9336 114.524 23.8678C114.693 23.7982 114.863 23.7652 115.04 23.7652C115.213 23.7652 115.375 23.7909 115.53 23.8457C115.684 23.897 115.828 23.9776 115.964 24.08C116.094 24.1825 116.201 24.2923 116.289 24.4095C116.381 24.5339 116.443 24.6656 116.484 24.8048L116.51 24.8926L116.476 24.9768C116.23 25.6064 116.045 26.1701 115.928 26.6716C115.813 27.1657 115.758 27.5977 115.765 27.96C115.772 28.3114 115.821 28.586 115.917 28.7836C115.994 28.9483 116.104 29.0581 116.244 29.1094C116.399 29.1643 116.59 29.1569 116.827 29.0875C117.095 29.0069 117.405 28.8459 117.759 28.6042C118.116 28.3591 118.503 28.015 118.912 27.5757C119.328 27.1255 119.77 26.5801 120.231 25.9359V25.9286L120.643 25.3794L121.295 24.501C121.557 24.1459 121.87 23.7542 122.228 23.326C122.581 22.9051 122.991 22.4402 123.444 21.9423C123.605 21.7484 123.76 21.569 123.904 21.4006C124.063 21.2176 124.21 21.0529 124.343 20.9065C124.618 20.6026 125.071 20.1049 125.709 19.4094L125.721 19.3984C125.989 19.1312 126.299 18.9957 126.653 18.9921H126.755C127.602 19.0214 128.03 19.4716 128.03 20.3427C128.03 20.4453 128.008 20.5624 127.967 20.6868C127.931 20.8004 127.875 20.9175 127.806 21.0419V21.0492C126.933 22.4695 126.28 23.7396 125.845 24.8634C125.418 25.9688 125.204 26.9278 125.204 27.7368C125.204 28.2565 125.322 28.6372 125.55 28.8788C125.779 29.1167 126.136 29.2375 126.623 29.2375C127.021 29.2375 127.437 29.135 127.868 28.9264C128.314 28.7104 128.782 28.3883 129.261 27.9527V27.9454C129.599 27.6599 129.945 27.3122 130.307 26.8985C130.671 26.4813 131.048 26.0054 131.43 25.4709C131.556 25.2952 131.674 25.1379 131.781 24.9951C131.947 24.4278 132.182 23.8274 132.488 23.1796C132.864 22.3377 133.258 21.7045 133.671 21.2762C134.12 20.8113 134.591 20.5843 135.093 20.5843C135.373 20.5843 135.594 20.6283 135.753 20.7125C135.969 20.826 136.076 21.0017 136.076 21.2359C136.076 21.3128 135.663 22.0705 134.838 23.5017C134.444 24.1825 134.15 24.7865 133.958 25.3026C133.77 25.8041 133.674 26.225 133.674 26.5691C133.674 27.0157 133.737 27.3451 133.858 27.5501C133.955 27.7074 134.098 27.788 134.29 27.788C134.702 27.788 135.333 27.2536 136.18 26.1847C137.075 25.0574 138.169 23.3626 139.462 21.1005C139.58 20.8698 139.716 20.6063 139.875 20.3171C140.041 20.0097 140.233 19.662 140.453 19.2776L140.468 19.2556L140.49 19.23C140.622 19.0799 140.762 18.9665 140.91 18.8896C141.068 18.8054 141.234 18.7652 141.404 18.7652C141.765 18.7652 142.085 18.9079 142.377 19.1971C142.52 19.3361 142.627 19.4936 142.7 19.662C142.726 19.7206 142.749 19.7827 142.763 19.8486C142.792 19.9145 142.807 20.028 142.811 20.1854V20.2073C142.712 20.383 142.657 20.5295 142.362 21.0968C142.056 21.6678 141.64 22.4585 141.109 23.4687C140.56 24.5156 140.148 25.4417 139.871 26.247C139.602 27.034 139.47 27.7038 139.47 28.2528C139.47 29.1606 139.897 29.6145 140.745 29.6145C141.555 29.6145 142.494 29.1387 143.574 28.187C143.938 27.8685 144.333 27.4769 144.749 27.0157C145.066 26.6643 145.398 26.2762 145.74 25.848C145.752 25.8223 145.762 25.7931 145.773 25.7638C145.818 25.6614 145.887 25.5515 145.975 25.4271C146.584 24.5998 147.196 23.6627 147.807 22.6086C148.408 21.5763 149.015 20.4196 149.627 19.1422C149.601 19.0141 149.583 18.8823 149.572 18.7359C149.553 18.5492 149.546 18.3552 149.546 18.1502C149.546 17.7769 149.583 17.3779 149.656 16.946C149.73 16.5213 149.837 16.0674 149.981 15.5916C150.147 14.9693 150.341 14.5008 150.574 14.1787C150.843 13.8017 151.156 13.6186 151.517 13.6186C151.764 13.6186 151.989 13.7138 152.191 13.9042C152.364 14.0652 152.519 14.3031 152.659 14.6106C152.898 15.0865 153.021 15.5477 153.021 15.9979C153.021 16.4335 152.847 16.9606 152.501 17.5719C152.187 18.1246 151.727 18.7615 151.119 19.4753C151.24 19.8377 151.41 20.1122 151.617 20.2952C151.838 20.4892 152.117 20.588 152.457 20.588C152.692 20.588 152.924 20.5221 153.156 20.3977C153.403 20.2586 153.65 20.0536 153.894 19.7717C154.169 19.457 154.409 19.2154 154.608 19.0543C154.847 18.8603 155.054 18.7652 155.231 18.7652C155.592 18.7652 155.912 18.9116 156.185 19.2044C156.318 19.3435 156.417 19.5009 156.487 19.6693C156.557 19.8413 156.59 20.0207 156.59 20.211C156.465 20.1268 155.459 22.312 154.91 23.4687C154.368 24.5156 153.96 25.4453 153.69 26.247C153.429 27.034 153.293 27.7038 153.293 28.2528C153.293 29.1606 153.72 29.6145 154.567 29.6145C155.374 29.6145 156.321 29.1387 157.397 28.187C157.75 27.8649 158.134 27.4769 158.554 27.0157C158.974 26.5508 159.427 26.0164 159.906 25.4161C160.3 24.9109 160.599 24.5376 160.801 24.2923C161.063 23.9739 161.243 23.8165 161.346 23.8165C161.509 23.8165 161.63 23.8824 161.718 24.0105C161.781 24.102 161.811 24.2228 161.811 24.3728C161.811 24.5266 161.781 24.6877 161.722 24.8488C161.667 25.0024 161.586 25.1598 161.479 25.3209C160.241 27.2755 159.003 28.747 157.762 29.7317C156.494 30.7383 155.223 31.2434 153.953 31.2434C152.011 31.2434 151.038 30.1379 151.038 27.9271C151.038 26.9352 151.207 25.9102 151.546 24.8634C151.83 23.9849 152.232 23.0844 152.755 22.1693H152.681C152.405 22.1693 152.129 22.1254 151.856 22.0412C151.591 21.9533 151.329 21.8289 151.074 21.6605C150.761 21.4702 150.526 21.2652 150.364 21.0382L150.327 20.987C150.198 21.2395 150.043 21.5141 149.874 21.8106C149.546 22.3743 149.148 23.0112 148.676 23.7286C148.356 24.2301 148.061 24.662 147.799 25.0281C147.756 25.1159 147.708 25.2111 147.649 25.3099C146.757 26.7668 145.721 28.0333 144.539 29.1131C143.765 29.8159 143.013 30.3466 142.284 30.7017C141.54 31.0604 140.814 31.2434 140.114 31.2434C139.149 31.2434 138.416 30.9359 137.923 30.321C137.444 29.7244 137.2 28.8495 137.2 27.6965C137.2 27.3927 137.281 26.9242 137.444 26.2946L137.06 26.8363C136.702 27.3304 136.441 27.6782 136.279 27.8722C135.745 28.5018 135.233 28.9739 134.75 29.2924C134.242 29.6255 133.756 29.7938 133.291 29.7938C132.668 29.7938 132.201 29.5304 131.887 29.0033C131.67 28.6372 131.538 28.1467 131.486 27.5244C130.849 28.3407 130.201 29.0106 129.544 29.534C128.387 30.4528 127.205 30.9176 125.993 30.9176C125.012 30.9176 124.269 30.6028 123.764 29.9695C123.278 29.3583 123.034 28.4579 123.034 27.2755C123.034 26.2726 123.152 25.3173 123.385 24.4132C123.428 24.2484 123.473 24.0837 123.525 23.9226L123.38 24.1056C122.939 24.6656 122.46 25.277 121.926 25.9468C121.45 26.5471 121.016 27.0742 120.625 27.5244C120.223 27.9856 119.866 28.3737 119.553 28.6848H119.549C119.1 29.1167 118.658 29.4754 118.227 29.7573C117.788 30.0428 117.361 30.2551 116.944 30.3869C116.524 30.5187 116.134 30.5845 115.772 30.5809C115.401 30.5772 115.062 30.4967 114.76 30.3466C114.155 30.0464 113.724 29.4754 113.467 28.6372C113.341 28.2272 113.275 27.766 113.271 27.2426V27.0999C113.205 27.1401 113.139 27.184 113.072 27.2243C112.608 27.4988 112.144 27.7074 111.687 27.8466C111.223 27.9856 110.766 28.0588 110.317 28.0588C109.981 28.0588 109.653 28.015 109.34 27.9344C109.112 27.8722 108.887 27.788 108.67 27.6818C107.977 28.7397 107.266 29.545 106.544 30.0977C105.748 30.7017 104.934 31.0091 104.105 31.0091C102.823 31.0091 102.182 30.2771 102.182 28.8166C102.182 28.5091 102.204 28.1943 102.248 27.8722C102.104 28.0186 101.953 28.1686 101.802 28.3114C101.11 28.952 100.472 29.4351 99.8865 29.7573C99.2787 30.0904 98.726 30.2624 98.2213 30.2624C96.5634 30.2624 95.7307 28.5494 95.7307 25.1233C95.7307 24.8926 95.7345 24.6254 95.7455 24.318L95.7529 24.1166C95.3476 24.5412 94.9239 25.0647 94.4818 25.687C93.8555 26.5728 93.1887 27.6562 92.4887 28.9447C92.2382 29.4095 91.9655 29.7646 91.6818 30.0062C91.3723 30.2661 91.0408 30.3978 90.6907 30.3978C90.5581 30.3978 90.4402 30.3759 90.3335 30.3283C90.2192 30.2771 90.1234 30.2038 90.0461 30.1014L90.0166 30.0574L90.0018 30.0062C89.9503 29.8195 89.9134 29.6108 89.8876 29.3803C89.8618 29.146 89.8508 28.8971 89.8508 28.6262C89.8508 28.1613 89.9024 27.5135 90.0055 26.6753C90.1087 25.8517 90.2597 24.834 90.4661 23.6261C90.5729 23.0258 90.6539 22.5317 90.7092 22.1363C90.7497 21.8545 90.7718 21.6349 90.7829 21.4738C90.2597 22.0083 89.5155 22.9087 88.554 24.1642C87.9166 24.9988 87.2497 25.9139 86.5607 26.9022C85.8755 27.8831 85.1645 28.9447 84.424 30.0867C84.3171 30.2478 84.2177 30.3722 84.1181 30.4564C83.9893 30.5735 83.8529 30.6321 83.7203 30.6321C83.4771 30.6321 83.2966 30.5076 83.1861 30.2588C83.1087 30.0794 83.0682 29.8342 83.0682 29.5157C83.0682 29.4315 83.0718 29.351 83.0829 29.2705C83.0903 29.1936 83.1087 29.1204 83.1308 29.0545L83.1382 29.0325C83.4955 28.198 83.8566 27.1951 84.2213 26.0201C84.3761 25.5186 84.5308 24.9915 84.6892 24.4314C84.656 24.479 84.6192 24.5229 84.575 24.5668L84.5676 24.5741C83.4145 25.6247 82.1508 26.602 80.7766 27.5025C79.4097 28.3993 77.9324 29.2155 76.3519 29.9513C74.6092 30.7675 72.9514 31.3825 71.3709 31.7925C69.7866 32.2024 68.2835 32.4111 66.865 32.4111C65.6972 32.4111 64.6398 32.2903 63.6893 32.0524C62.7351 31.8108 61.8877 31.4484 61.1546 30.9615C60.2851 30.3869 59.6293 29.6767 59.1908 28.8239C55.9561 22.5098 63.5345 15.6977 68.2282 12.8829C70.3651 11.5762 72.4871 10.5988 74.5982 9.94362C76.7129 9.28841 78.8129 8.95898 80.8945 8.95898C82.7255 8.95898 84.1072 9.28109 85.0392 9.92167C86.0045 10.5842 86.4908 11.5725 86.4908 12.8829H86.5277ZM187.088 21.0932C186.782 21.6678 186.366 22.4548 185.835 23.4651C185.286 24.512 184.874 25.438 184.601 26.2433C184.332 27.0303 184.199 27.7001 184.199 28.2492C184.199 29.1569 184.626 29.6108 185.474 29.6108C186.285 29.6108 187.228 29.135 188.304 28.1834C188.669 27.8649 189.063 27.4732 189.479 27.012C189.903 26.5471 190.344 26.0127 190.806 25.4161C191.207 24.9036 191.513 24.5266 191.719 24.285C191.988 23.9702 192.179 23.8128 192.294 23.8128C192.456 23.8128 192.57 23.886 192.647 24.0324C192.692 24.1203 192.71 24.2301 192.71 24.3655C192.71 24.501 192.68 24.6547 192.621 24.8194C192.57 24.9659 192.489 25.1306 192.386 25.3026C191.494 26.7595 190.455 28.0259 189.276 29.1058C188.503 29.8086 187.751 30.3393 187.021 30.6943C186.277 31.0567 185.555 31.236 184.851 31.236C183.886 31.236 183.153 30.9286 182.66 30.3136C182.181 29.7171 181.937 28.8422 181.937 27.6892C181.937 27.3854 182.019 26.9168 182.181 26.2873L181.794 26.829C181.44 27.3231 181.178 27.6709 181.016 27.8649C179.926 29.146 178.927 29.7865 178.028 29.7865C177.406 29.7865 176.938 29.523 176.624 28.996C176.451 28.7031 176.33 28.3297 176.264 27.8758C176.043 28.0808 175.815 28.2931 175.575 28.5018C174.727 29.2632 173.972 29.8342 173.306 30.2185C172.613 30.6175 172.004 30.8188 171.485 30.8188C170.229 30.8188 168.995 29.9843 167.779 28.3187C167.234 27.5867 166.806 26.8766 166.493 26.1884C166.272 25.6979 166.106 25.2221 165.999 24.7535L165.263 25.6064L164.172 26.8729C163.826 27.3231 163.542 27.8063 163.314 28.3224C163.089 28.8422 162.92 29.3949 162.813 29.9806L162.787 30.1197L162.654 30.1783C162.463 30.2661 162.268 30.3319 162.072 30.3722C161.873 30.4161 161.667 30.4382 161.46 30.4382C161.078 30.4382 160.779 30.3905 160.573 30.2954C160.293 30.1673 160.149 29.9695 160.149 29.695C160.149 29.3071 160.319 28.6336 160.661 27.6745C160.993 26.7412 161.49 25.5259 162.15 24.0214C164.142 19.4863 166.592 12.8353 170.844 10.3829C171.596 9.95095 172.31 9.74962 172.974 9.74962C173.769 9.74962 174.34 9.9546 174.735 10.2877C175.881 11.2687 175.545 13.033 174.79 13.1428C174.447 13.1904 174.013 12.9012 173.596 12.0337C173.519 11.9349 173.39 11.8909 173.209 11.8909C172.848 11.8909 172.377 12.0593 171.795 12.3924C168.656 14.2958 167.211 18.476 165.778 21.741C165.48 22.3706 165.204 22.9892 164.953 23.5932C164.854 23.8384 164.758 24.0837 164.666 24.3216C165.079 23.9263 165.465 23.5749 165.849 23.2235C166.449 22.6708 167.042 22.1254 167.827 21.3458L167.834 21.3384C168.836 20.394 169.893 19.7206 170.866 19.252C172.211 18.6041 173.401 18.3552 174.068 18.3552C174.47 18.3552 174.79 18.487 175.037 18.7066C175.229 18.8749 175.372 19.1019 175.464 19.3582C175.552 19.6034 175.597 19.8779 175.597 20.1561C175.597 20.8333 175.346 21.58 174.864 22.1144L174.783 22.2059H172.421L172.793 21.7557C172.948 21.569 173.026 21.3018 173.026 21.0455C173.026 20.9211 173.007 20.8077 172.97 20.7089C172.941 20.621 172.893 20.5514 172.837 20.5075C172.793 20.4709 172.73 20.449 172.657 20.449C172.296 20.449 171.452 20.5478 170.225 21.2652C169.525 21.6751 168.704 22.2864 167.787 23.1942C168.041 23.2125 168.283 23.2857 168.368 23.6554L168.512 24.263C168.833 25.7199 169.29 26.807 169.89 27.5171C170.461 28.198 171.169 28.5384 172.009 28.5384C172.848 28.5384 173.759 28.2016 174.705 27.5244C175.21 27.1657 175.725 26.7118 176.253 26.1664C176.37 25.2916 176.691 24.2996 177.214 23.1832C177.586 22.3414 177.985 21.7081 178.397 21.2798C178.843 20.815 179.318 20.588 179.819 20.588C180.099 20.588 180.32 20.632 180.478 20.7162C180.696 20.8296 180.803 21.0053 180.803 21.2395C180.803 21.3164 180.39 22.0742 179.565 23.5054C179.373 23.8384 179.2 24.1569 179.057 24.4534C179.049 24.5266 179.027 24.6035 178.993 24.684C178.953 24.7792 178.898 24.8853 178.824 24.9915L178.78 25.0537C178.747 25.1379 178.714 25.2221 178.684 25.3026C178.497 25.8041 178.4 26.225 178.4 26.5691C178.4 27.0157 178.464 27.3451 178.585 27.5501C178.68 27.7074 178.824 27.788 179.016 27.788C179.429 27.788 180.058 27.2536 180.906 26.1847C181.801 25.0574 182.895 23.3626 184.189 21.1005C184.306 20.8698 184.443 20.6063 184.601 20.3171C184.767 20.0097 184.958 19.662 185.179 19.2776L185.19 19.2556L185.212 19.23C185.345 19.0799 185.485 18.9665 185.633 18.8896C185.791 18.8054 185.957 18.7652 186.127 18.7652C186.483 18.7652 186.808 18.9079 187.099 19.1971C187.239 19.3361 187.349 19.4936 187.423 19.662C187.449 19.7206 187.471 19.7827 187.486 19.8486C187.515 19.9145 187.53 20.028 187.534 20.1854C187.534 20.1927 187.28 20.7271 187.085 21.0968L187.088 21.0932Z" fill="#C82B2B"/>
<path fill-rule="evenodd" clip-rule="evenodd" d="M99.4596 16.3565C97.507 15.8953 95.8196 15.6793 94.3975 15.7013C92.9938 15.7233 91.848 15.9831 90.9601 16.4736C90.8128 16.5542 90.6801 16.6566 90.5585 16.7848C90.4369 16.9129 90.3264 17.0666 90.2306 17.2423C90.1938 17.3302 90.168 17.4327 90.1496 17.5498C90.1275 17.6779 90.1201 17.8316 90.1201 18.011C90.1201 18.4246 90.0649 18.7504 89.9507 18.9773L89.9212 19.0359L89.8696 19.0762L89.6817 19.2153L89.6744 19.2226C89.5859 19.2848 89.4975 19.3251 89.4128 19.3434C89.2728 19.3726 89.1512 19.3434 89.048 19.2555C88.9669 19.186 88.9081 19.0908 88.8749 18.9627C88.8307 18.8053 88.8232 18.5857 88.8417 18.3038C88.8675 17.9525 88.919 17.6267 88.9965 17.3229C89.0775 17.0227 89.1806 16.7445 89.3133 16.4956C89.4828 16.1076 89.7112 15.7708 89.9986 15.4743C90.2822 15.1815 90.6249 14.9363 91.0227 14.7386C91.7412 14.3177 92.5738 14.0248 93.5169 13.8638C94.449 13.7027 95.488 13.6734 96.6338 13.7649C97.2233 13.7649 99.1316 14.0358 102.363 14.5629H102.366C104.271 14.8923 105.513 14.9033 106.087 14.5959C106.412 14.4055 106.64 14.1676 106.773 13.8784C106.854 13.6991 106.905 13.5343 106.92 13.3769C106.935 13.2269 106.92 13.0841 106.88 12.9487C106.817 12.751 106.787 12.5607 106.791 12.3813C106.799 12.191 106.839 12.0153 106.92 11.8542L106.961 11.77L107.045 11.7298L107.126 11.6895C107.657 11.3674 107.911 11.7591 107.889 12.8718C107.882 13.2781 107.848 13.6332 107.797 13.9297C107.742 14.2408 107.661 14.5043 107.554 14.7167C107.311 15.1852 107.056 15.5842 106.795 15.9099C106.526 16.2467 106.242 16.5066 105.955 16.6933L105.94 16.7006C105.513 16.9385 104.967 17.0813 104.304 17.1215C103.663 17.1618 102.908 17.1105 102.042 16.9678L102.002 16.9604L101.965 16.9385C101.895 16.9019 101.773 16.869 101.607 16.836C101.434 16.7994 101.213 16.7665 100.948 16.7372C100.801 16.7372 100.598 16.7006 100.344 16.6347C100.108 16.5725 99.817 16.4773 99.4706 16.3528" fill="#C82B2B"/>
<path d="M53.1599 47.3823L49.7926 39.2489L46.3994 47.3823H53.1599ZM73.5557 57.6424H57.4336L55.6063 53.2902H43.9752L42.1405 57.6424H26L38.4821 32.3711H61.0773L73.5593 57.6424H73.5557Z" fill="#006239"/>
<path d="M203.601 47.3823L200.233 39.2489L196.84 47.3823H203.601ZM224 57.6424H207.878L206.051 53.2902H194.42L192.581 57.6424H176.441L188.923 32.3711H211.518L224 57.6424Z" fill="#006239"/>
<path d="M100.06 57.6421H88.974V46.8184H84.8661V57.6421H73.7583V42.2942H100.06V57.6421Z" fill="#006239"/>
<path d="M123.105 46.8184H117.828V57.6421H106.632V46.8184H101.357V42.2942H123.105V46.8184Z" fill="#006239"/>
<path d="M138.279 48.1323C138.279 47.0122 137.41 46.4522 135.679 46.4522C133.946 46.4522 133.066 47.0159 133.066 48.1323H138.276H138.279ZM147.884 50.3908H133.07C133.07 51.2034 133.336 51.833 133.862 52.2869C134.33 52.6858 134.935 52.8872 135.682 52.8872C136.909 52.8872 137.719 52.5101 138.106 51.7598L147.512 52.3857C147.03 54.1207 145.692 55.4897 143.504 56.489C141.374 57.4626 138.77 57.9495 135.682 57.9495C132.385 57.9495 129.556 57.2138 127.208 55.7532C124.732 54.2049 123.494 52.2429 123.494 49.8673C123.494 47.4918 124.729 45.5773 127.19 44.0949C129.504 42.693 132.337 41.9939 135.679 41.9939C139.02 41.9939 141.846 42.715 144.141 44.1572C146.635 45.7165 147.884 47.7992 147.884 50.3944V50.3908Z" fill="#006239"/>
<path d="M178.372 57.6421H165.908L160.511 50.0725V57.6421H149.524V42.2942H160.511V49.1428L165.838 42.2942H177.734L171.117 49.571L178.372 57.6421Z" fill="#006239"/>
</g>
</g>
<defs>
<clipPath id="clip0_402_2084">
<rect width="198" height="49.9459" fill="white" transform="translate(26 8)"/>
</clipPath>
</defs>
</svg>
