<svg width="250" height="66" viewBox="0 0 250 66" fill="none" xmlns="http://www.w3.org/2000/svg">
<g clip-path="url(#clip0_402_2087)">
<mask id="mask0_402_2087" style="mask-type:luminance" maskUnits="userSpaceOnUse" x="8" y="22" width="234" height="23">
<path d="M242 22H8V44.75H242V22Z" fill="white"/>
</mask>
<g mask="url(#mask0_402_2087)">
<path d="M29.4617 44.1882H23.2741L34.6334 22H41.098L43.6839 44.1882H37.3116L37.1269 41.286H30.7546L29.4617 44.1882ZM36.9422 36.6049L36.5728 28.5535L32.9711 36.6049H36.9422ZM45.2539 44.1882L48.4862 28.0854H63.8165L60.5842 44.1882H54.9507L57.2595 32.7664H53.1038L50.795 44.1882H45.1615H45.2539ZM96.4169 36.2305L85.5192 37.6348C85.3344 38.571 85.4268 39.32 85.8885 39.9753C86.3504 40.537 86.9044 40.9115 87.6432 40.9115C88.6591 40.9115 89.3977 40.4434 90.0445 39.5072L95.7702 38.7582C95.1234 40.7243 93.2766 42.7839 91.5224 43.6266C90.0445 44.3755 88.382 44.8436 86.535 44.8436C84.2262 44.8436 82.3792 44.0946 81.271 42.6903C80.0704 41.1924 79.701 39.1327 80.1628 36.4177C80.7169 33.7963 81.8251 31.7366 83.6721 30.1451C85.5192 28.5535 87.5509 27.7109 89.86 27.7109C92.4454 27.7109 94.3848 28.5535 95.4005 30.426C96.4169 32.2984 96.5087 33.3282 96.4169 36.2305ZM86.0733 35.0134L91.4298 34.2644C91.4298 33.5154 91.2453 32.9537 90.783 32.4856C90.3215 32.0175 89.7674 31.8303 89.0285 31.9239C88.1973 32.0175 87.4585 32.392 86.9968 32.9537C86.535 33.5154 86.258 34.1708 86.0733 35.107V35.0134ZM67.2335 44.1882H72.867L75.1758 32.7664H80.0704L80.9939 28.0854H65.6635L64.7401 32.7664H69.6346L67.3259 44.1882H67.2335ZM105.19 38.4773L103.897 39.6945L102.974 44.1882H97.3399L100.573 28.0854H106.206L105.19 33.0473L109.715 28.0854H116.272L109.808 34.358L113.778 44.2819H107.037L105.19 38.571V38.4773ZM115.256 44.1882L118.488 28.0854H123.845L122.09 36.8858L128.647 28.0854H134.281L131.049 44.1882H125.692L127.354 35.6687L120.798 44.1882H115.164H115.256ZM140.745 44.1882H134.373L138.806 22H157.553L153.12 44.1882H146.748L149.981 28.0854H143.977L140.745 44.1882ZM-7.94067 41.4733H18.4718L17.0866 44.1882H-7.94067V41.4733ZM-7.94067 35.0134H21.7965L20.4113 37.7284H-7.94067V35.0134ZM-7.94067 28.5535H25.0288L23.6436 31.2685H-7.94067V28.5535ZM-7.94067 22.0936H28.3535L26.9682 24.8086H-7.94067V22.0936ZM258.125 41.4733H226.725C226.171 42.4094 225.432 43.3457 224.693 44.1882H258.125V41.4733ZM258.125 35.0134H229.034C228.941 35.9496 228.664 36.8858 228.387 37.7284H258.032V35.0134H258.125ZM258.125 28.5535H228.572L229.126 31.2685H258.125V28.5535ZM258.125 22.0936H224.97C225.801 22.9362 226.54 23.8724 227.095 24.8086H258.125V22.0936ZM161.155 44.2819H155.43L164.48 28.0854H169.836L173.438 44.2819H167.62L166.234 33.5154L161.155 44.2819ZM184.243 33.5154H185.906C186.737 31.643 188.03 30.1451 189.692 29.2088C191.354 28.179 193.294 27.7109 195.602 27.7109C198.373 27.7109 200.497 28.4599 201.882 30.0514C203.267 31.5494 203.729 33.6091 203.267 36.1369C202.806 38.9455 201.513 41.1924 199.574 42.6903C197.727 44.0946 195.418 44.8436 192.74 44.8436C190.43 44.8436 188.491 44.2819 187.198 43.1585C185.72 42.035 184.982 40.3498 184.982 38.1965H183.504L182.488 44.2819H176.208L178.795 29.0216L185.259 28.179L184.335 33.6091L184.243 33.5154ZM194.956 32.0175C193.94 32.0175 193.201 32.4856 192.554 33.3282C192 34.0772 191.631 35.0134 191.446 36.0433C191.169 37.5412 191.262 38.571 191.631 39.32C192 40.0689 192.554 40.4434 193.478 40.4434C194.402 40.4434 195.141 40.0689 195.695 39.4136C196.249 38.6646 196.71 37.6348 196.987 36.1369C197.173 34.9197 197.08 33.9836 196.803 33.2346C196.433 32.4856 195.879 32.1111 195.048 32.1111L194.956 32.0175ZM217.12 34.2644C217.12 33.8899 217.028 33.6091 216.936 33.3282C216.843 33.0473 216.751 32.8601 216.566 32.5792C216.196 32.1111 215.735 31.9239 214.996 31.9239C213.888 31.9239 213.057 32.392 212.503 33.4218C212.041 34.0772 211.763 35.107 211.486 36.3241C211.302 37.5412 211.302 38.571 211.672 39.32C212.041 40.0689 212.595 40.4434 213.611 40.4434C214.35 40.4434 214.996 40.2561 215.458 39.7881C215.919 39.32 216.382 38.7582 216.659 38.1029L222.384 39.6945C221.83 40.8179 220.722 41.9414 218.967 43.1585C217.305 44.1882 215.273 44.6564 212.872 44.6564C210.194 44.6564 208.162 43.9074 206.777 42.5031C205.299 41.0051 204.745 38.9455 205.207 36.2305C205.669 33.5154 206.869 31.3621 208.808 29.8642C210.748 28.3663 213.057 27.5237 215.735 27.5237C218.044 27.5237 219.891 27.9918 221.276 29.0216C222.384 29.8642 223.123 31.0813 223.216 32.5792L217.028 34.0772L217.12 34.2644Z" fill="#1068D7"/>
</g>
</g>
<defs>
<clipPath id="clip0_402_2087">
<rect width="234" height="22.75" fill="white" transform="translate(8 22)"/>
</clipPath>
</defs>
</svg>
