<svg width="250" height="66" viewBox="0 0 250 66" fill="none" xmlns="http://www.w3.org/2000/svg">
<g clip-path="url(#clip0_402_2088)">
<path d="M79.5488 21.3924C79.5488 34.8118 87.251 43.8588 104.733 55.4005L107.323 57.0901L116.222 62.7529L117.525 63.5878C122.63 66.7492 127.042 66.7954 132.266 63.7693L132.936 63.3634C134.436 62.4163 142.952 57.0027 145.374 55.4038L146.961 54.3445C163.326 43.2994 170.563 34.4026 170.563 21.394L170.555 20.7621C169.952 0.302082 140.102 -6.93482 125.371 7.79968L125.054 8.12473L125.109 8.17918C110.476 -7.23677 79.5488 0.241031 79.5488 21.3924Z" fill="white"/>
<path fill-rule="evenodd" clip-rule="evenodd" d="M127.318 10.4447C139.698 -2.57714 167.264 2.88107 167.264 21.2885C167.264 39.0326 149.721 48.5366 131.027 60.5057C126.63 63.182 123.439 63.2051 119.302 60.6459C100.525 48.6092 82.8486 39.0986 82.8486 21.2885C82.8486 2.88107 110.415 -2.57714 122.795 10.4463C124.252 11.8785 125.249 12.5022 127.316 10.4463L127.318 10.4447Z" fill="#EC1D24"/>
<path fill-rule="evenodd" clip-rule="evenodd" d="M167.546 49.6423C166.916 51.2098 165.335 51.6305 163.911 50.9573C152.192 45.6608 137.709 43.694 125 43.694C112.397 43.694 98.1425 45.6179 86.4886 50.7791L86.4556 50.7907L86.4226 50.8072C84.5267 51.5596 82.9823 50.9012 82.187 49.0169L74.3611 30.7102C73.4074 28.7698 74.437 26.534 76.3048 25.6711C91.3462 18.6124 108.534 15.5203 125.001 15.5203C141.854 15.5203 159.536 18.7691 174.836 26.2172C176.229 26.8904 176.63 28.3853 176.034 29.7796L167.546 49.6423Z" fill="#EC1D24"/>
<path fill-rule="evenodd" clip-rule="evenodd" d="M124.999 17.3972C143.499 17.3972 160.527 21.3275 174.061 27.916C174.559 28.1618 174.542 28.5974 174.364 29.0215L165.862 48.9106C165.644 49.4798 165.157 49.4831 164.664 49.2455C154.52 44.6585 140.493 41.8139 124.998 41.8139C109.725 41.8139 95.872 44.5793 85.7658 49.0492C84.624 49.5062 84.1868 49.0442 83.8601 48.2638L76.0127 29.9009C75.5474 29.0099 76.0127 27.8665 77.0588 27.3814C90.4072 21.1163 107.006 17.3972 124.999 17.3972Z" fill="white"/>
<path fill-rule="evenodd" clip-rule="evenodd" d="M97.0965 37.6169C97.0915 37.5888 97.0371 37.4667 96.9513 37.2489L96.5817 36.3629C96.4249 35.9999 96.2467 35.5758 96.052 35.1089C95.8524 34.6403 95.6346 34.1486 95.4118 33.6239L94.7238 32.0531C94.4928 31.5284 94.27 31.0218 94.0539 30.5367C93.8311 30.0516 93.6249 29.6127 93.4401 29.2167C93.3328 28.9989 93.2091 28.8372 93.0573 28.7349C92.9055 28.6293 92.7421 28.5699 92.5738 28.5468C92.4006 28.5303 92.2323 28.5303 92.0656 28.5567C91.8973 28.5914 91.7472 28.6244 91.6102 28.6706C91.5244 28.692 91.4155 28.725 91.2918 28.7696C91.1664 28.8141 91.0426 28.8686 90.9123 28.9478C90.7753 29.0204 90.6582 29.1161 90.5493 29.2266C90.4618 29.3223 90.3975 29.4329 90.3546 29.5616C90.3051 29.6886 90.2721 29.8124 90.2523 29.9345C90.2358 30.0566 90.2242 30.1589 90.2193 30.2298C90.2193 30.4031 90.2127 30.5978 90.2127 30.8057C90.2077 31.0218 90.2077 31.2396 90.2028 31.4657V32.1306L90.2193 32.7741C90.2292 33.0134 90.2292 33.2625 90.2242 33.5315C90.2193 33.7922 90.1962 34.0496 90.1582 34.3004C90.1219 34.5462 90.0559 34.7739 89.9685 34.9686C89.9586 34.9901 89.9421 35.0247 89.9157 35.0627C89.8942 35.1023 89.8612 35.1485 89.8233 35.1864C89.7853 35.2244 89.7358 35.2524 89.6814 35.2689C89.6286 35.2805 89.5741 35.2854 89.5197 35.2755C89.4652 35.264 89.4124 35.2475 89.3679 35.226C89.325 35.2029 89.292 35.193 89.2755 35.1749C89.0989 35.0577 88.929 34.9026 88.7673 34.7129C88.6105 34.5165 88.4538 34.3119 88.3119 34.0925C88.1716 33.8697 88.0413 33.6585 87.9225 33.4473C87.7971 33.2411 87.6948 33.0563 87.5974 32.8995C87.4935 32.7164 87.3813 32.5283 87.2674 32.3319L86.9209 31.7792L86.6074 31.2941C86.5678 31.233 86.5134 31.1555 86.4342 31.0598C86.3566 30.9723 86.2659 30.8816 86.1619 30.7991C86.0596 30.7166 85.9458 30.6539 85.827 30.6209C85.6752 30.5813 85.5234 30.5714 85.3765 30.5813C85.2264 30.5862 85.0845 30.6093 84.9591 30.6374C84.8287 30.6654 84.7215 30.6984 84.6406 30.7265C84.4938 30.7644 84.3486 30.8156 84.1902 30.8816C84.0334 30.9492 83.8882 31.0449 83.7529 31.1555C83.616 31.2611 83.5137 31.403 83.4378 31.5746C83.3619 31.7412 83.3404 31.9475 83.3619 32.1851C83.4114 32.6273 83.4658 33.1124 83.5302 33.642C83.5962 34.17 83.6655 34.7244 83.7414 35.297C83.8123 35.8712 83.8882 36.4404 83.9691 37.008L84.1902 38.6085C84.2611 39.1167 84.3255 39.5672 84.3865 39.9648C84.4393 40.3608 84.4888 40.6776 84.5268 40.9119C84.5647 41.1512 84.5862 41.2782 84.5928 41.3079C84.6555 41.5472 84.7429 41.7419 84.8518 41.892C84.9591 42.0372 85.1076 42.1379 85.2957 42.1709C85.4854 42.2105 85.7346 42.1874 86.0431 42.0999C86.3401 42.0092 86.5678 41.8986 86.7147 41.7633C86.8714 41.6247 86.9688 41.4564 87.0183 41.2518C87.0678 41.0505 87.0777 40.7997 87.0612 40.5093C87.0447 40.2189 87.0117 39.8807 86.9622 39.4847L86.8714 38.6762C86.8384 38.4287 86.817 38.1861 86.8005 37.9502C86.7856 37.7159 86.7906 37.4717 86.8005 37.2275C86.8071 37.1483 86.8285 37.0707 86.8665 36.9965C86.9028 36.9305 86.949 36.8694 86.9968 36.8249C87.0397 36.7754 87.0876 36.7473 87.1272 36.7308C87.2773 36.6912 87.4242 36.7193 87.571 36.8084C87.7113 36.9024 87.8581 37.0427 88.0033 37.2324C88.1502 37.4139 88.2954 37.6334 88.4422 37.8792C88.594 38.1284 88.7392 38.3858 88.8976 38.6547C89.0544 38.9204 89.2161 39.1827 89.3943 39.4385C89.5741 39.6909 89.7573 39.917 89.9553 40.115C90.1417 40.3031 90.343 40.4483 90.5493 40.5374C90.7555 40.6265 90.9552 40.643 91.1664 40.5869C91.3726 40.5209 91.5343 40.3988 91.6597 40.2074C91.7835 40.0193 91.8742 39.7949 91.9353 39.5226C92.0013 39.257 92.0392 38.9649 92.059 38.6547C92.0755 38.3412 92.0821 38.0228 92.0755 37.7109C92.0706 37.3991 92.0656 37.1037 92.0656 36.815C92.059 36.5229 92.0706 36.2622 92.0986 36.023C92.125 35.7821 92.1729 35.5874 92.2504 35.4257C92.3263 35.2706 92.4402 35.1683 92.5903 35.1188C92.6332 35.1072 92.6893 35.1072 92.7537 35.1254C92.8197 35.1419 92.884 35.1683 92.9434 35.2029C93.0144 35.2475 93.0622 35.297 93.1051 35.3646C93.247 35.5659 93.3708 35.7705 93.4846 35.9784C93.5935 36.183 93.7008 36.4025 93.8097 36.6252L94.1446 37.3661C94.308 37.7225 94.4598 38.0294 94.5901 38.2901C94.7238 38.5425 94.8657 38.7488 95.0109 38.894C95.1594 39.0375 95.326 39.1283 95.5257 39.1613C95.727 39.1943 95.9745 39.1662 96.2731 39.0788C96.5767 38.988 96.7995 38.8775 96.9397 38.7372C97.08 38.6019 97.1559 38.4353 97.179 38.2521C97.1938 38.064 97.1674 37.8512 97.0965 37.6169ZM108.123 34.8515C107.978 34.5611 107.815 34.2558 107.645 33.9324C107.473 33.6074 107.298 33.2856 107.127 32.9721C106.959 32.6603 106.797 32.3649 106.65 32.1042C106.503 31.8353 106.379 31.6191 106.282 31.4393C106.185 31.2677 106.125 31.1621 106.104 31.1159C106 30.9179 105.876 30.6819 105.736 30.408C105.587 30.1407 105.439 29.8619 105.279 29.5665C105.122 29.2662 104.965 28.9758 104.814 28.692C104.657 28.4132 104.523 28.1508 104.398 27.9215C104.272 27.6938 104.177 27.509 104.101 27.3704C104.023 27.2384 103.985 27.1641 103.985 27.1592C103.866 26.9414 103.715 26.7846 103.531 26.6856C103.347 26.5916 103.152 26.5289 102.941 26.5124C102.73 26.4959 102.523 26.5008 102.324 26.5239C102.117 26.5503 101.938 26.58 101.776 26.6064C101.608 26.6295 101.424 26.6625 101.23 26.6972C101.035 26.7302 100.855 26.7797 100.687 26.8407C100.525 26.9018 100.395 26.9859 100.307 27.0866C100.194 27.2252 100.098 27.3704 100.02 27.5205C99.946 27.6608 99.88 27.8274 99.8272 28.0073C99.7728 28.1904 99.7233 28.4082 99.6787 28.6524C99.6309 28.9049 99.583 29.2052 99.5236 29.55L99.3075 30.7941L98.8785 33.2741C98.824 33.5579 98.7696 33.8598 98.7102 34.1816C98.6508 34.5116 98.5963 34.835 98.532 35.1683C98.4775 35.4983 98.4165 35.8151 98.3637 36.122C98.3092 36.4289 98.2614 36.7011 98.2234 36.9536C98.1789 37.1978 98.1475 37.3991 98.1244 37.5558C98.0997 37.706 98.0931 37.8 98.0997 37.8297C98.131 38.0343 98.202 38.1911 98.3092 38.2917C98.4132 38.3907 98.5369 38.4584 98.6788 38.4815C98.824 38.5079 98.9659 38.5145 99.1161 38.5029C99.2646 38.4864 99.3933 38.4699 99.517 38.4468C99.8322 38.3907 100.08 38.3247 100.264 38.2356C100.449 38.1465 100.585 38.0459 100.682 37.9353C100.768 37.8231 100.839 37.701 100.887 37.5723C100.931 37.4436 100.969 37.3083 101.007 37.1763C101.052 37.0377 101.106 36.9024 101.18 36.7688C101.256 36.6368 101.365 36.5081 101.52 36.3843C101.674 36.2622 101.883 36.1517 102.16 36.0494C102.433 35.9504 102.789 35.8613 103.221 35.7887C103.634 35.7227 103.98 35.693 104.267 35.7095C104.543 35.7161 104.776 35.759 104.96 35.8266C105.14 35.8926 105.29 35.9784 105.409 36.084C105.525 36.183 105.627 36.2952 105.719 36.4058C105.8 36.5229 105.886 36.6368 105.978 36.7424C106.071 36.848 106.18 36.9404 106.308 37.0196C106.434 37.0922 106.597 37.1483 106.79 37.1714C106.992 37.1978 107.241 37.1879 107.544 37.1384C107.647 37.1252 107.765 37.0988 107.907 37.0707C109.104 36.7902 108.536 35.6715 108.123 34.8515ZM103.759 32.3649C103.791 32.6108 103.769 32.8236 103.688 32.9837C103.601 33.152 103.487 33.2741 103.335 33.3632C103.19 33.4523 103.038 33.5133 102.875 33.5364C102.697 33.5628 102.523 33.5628 102.35 33.5364C102.177 33.5084 102.025 33.4292 101.895 33.3087C101.759 33.185 101.674 32.9952 101.631 32.7444V32.5283C101.641 32.4161 101.65 32.2709 101.669 32.0993C101.685 31.931 101.712 31.7528 101.745 31.563C101.781 31.3782 101.824 31.2 101.878 31.0334C101.933 30.8601 102.004 30.7199 102.079 30.6093C102.16 30.4988 102.253 30.4311 102.367 30.408C102.475 30.3915 102.583 30.4245 102.692 30.5103C102.799 30.5862 102.906 30.6984 103.012 30.837C103.114 30.9773 103.205 31.1274 103.299 31.2941C103.385 31.4624 103.465 31.6191 103.53 31.7676L103.695 32.1636C103.731 32.2709 103.753 32.3385 103.759 32.3649ZM119.172 35.5329C119.079 34.4901 115.652 31.6059 115.565 30.3932C115.441 28.6293 120.373 24.2205 115.994 24.8657C114.271 25.1231 114.075 27.6212 112.958 28.692C112.265 29.3553 111.91 28.4297 111.849 27.8274C111.725 26.4678 111.623 25.0059 109.83 25.4861C109.32 25.6263 108.876 25.9893 108.909 26.5916L109.986 35.7441C110.102 37.1928 112.77 37.0806 112.775 35.4587C112.781 34.863 112.385 32.9292 113.28 32.8731C114.177 32.8121 115.456 35.7326 116.464 36.1401C116.984 36.3447 119.22 36.5312 119.172 35.5329ZM127.057 34.5165C127.057 34.3499 127.024 34.1766 126.958 34.0166C126.894 33.8532 126.796 33.7146 126.656 33.6074C126.528 33.5018 126.359 33.4473 126.153 33.4424C125.98 33.4473 125.833 33.4589 125.707 33.4968C125.584 33.5249 125.465 33.5628 125.351 33.6074C125.242 33.6536 125.123 33.6915 124.993 33.7212C124.863 33.7542 124.713 33.7707 124.533 33.7757C120.596 33.7922 120.589 27.0536 124.383 27.042C124.544 27.042 124.684 27.0536 124.803 27.08C124.922 27.1031 125.026 27.141 125.117 27.1823C125.216 27.2153 125.308 27.2532 125.406 27.2928C125.503 27.3374 125.617 27.3638 125.74 27.3918C125.872 27.4215 126.028 27.4314 126.212 27.4364C126.402 27.4314 126.554 27.3819 126.666 27.2879C126.787 27.1922 126.867 27.0585 126.922 26.8968C126.971 26.7351 126.996 26.5569 126.996 26.3556C126.993 26.0322 126.933 25.7484 126.803 25.524C126.678 25.2914 126.511 25.1066 126.303 24.963C126.094 24.8112 125.859 24.699 125.607 24.6231C125.346 24.539 125.09 24.4829 124.826 24.4548C124.566 24.4218 124.317 24.4053 124.089 24.4103C116.799 24.4664 116.538 36.3893 124.181 36.4058C124.323 36.4058 124.49 36.4025 124.684 36.3843C124.874 36.3728 125.08 36.3447 125.297 36.3068C125.513 36.2672 125.721 36.2078 125.93 36.122C126.136 36.0395 126.326 35.9273 126.499 35.7887C126.666 35.655 126.803 35.4752 126.9 35.2706C127.003 35.0627 127.057 34.8119 127.057 34.5165ZM138.31 35.7936C138.317 35.6831 138.294 35.5131 138.246 35.2805C138.198 35.0412 138.132 34.769 138.051 34.4505C137.965 34.1337 137.873 33.8037 137.771 33.4473C137.667 33.0959 137.564 32.7444 137.455 32.3996C137.352 32.0597 137.256 31.7363 137.162 31.4459L136.934 30.7199C136.881 30.5318 136.843 30.4146 136.832 30.3635C136.766 30.1473 136.698 29.8899 136.611 29.5946L136.335 28.6706C136.241 28.3455 136.15 28.0271 136.058 27.7218C135.959 27.41 135.88 27.1295 135.804 26.8754L135.624 26.2731C135.581 26.1213 135.56 26.0438 135.555 26.0438C135.485 25.8045 135.365 25.6148 135.208 25.4811C135.051 25.3458 134.867 25.2468 134.667 25.1841C134.466 25.1231 134.261 25.0851 134.06 25.062C133.854 25.0455 133.67 25.0356 133.507 25.029C133.334 25.0175 133.151 25.0059 132.954 25.001C132.756 24.9894 132.57 25.001 132.397 25.0241C132.223 25.0455 132.083 25.1016 131.974 25.1858C131.834 25.2963 131.71 25.4184 131.606 25.5422C131.502 25.6709 131.407 25.8161 131.319 25.9827C131.232 26.1494 131.136 26.3507 131.042 26.585C130.946 26.8127 130.837 27.0965 130.707 27.4265C130.582 27.7565 130.426 28.1442 130.247 28.598L129.326 30.9278L128.979 31.7858C128.854 32.0927 128.73 32.3996 128.607 32.7114C128.481 33.0167 128.362 33.3186 128.248 33.6074C128.135 33.8928 128.027 34.1552 127.94 34.3878C127.848 34.6188 127.778 34.8069 127.724 34.9521C127.669 35.1006 127.641 35.1864 127.641 35.2194C127.63 35.4257 127.669 35.5923 127.757 35.7144C127.838 35.8382 127.945 35.9273 128.075 35.9834C128.215 36.0395 128.351 36.0774 128.503 36.0956C128.649 36.1121 128.785 36.122 128.904 36.1286C129.224 36.1401 129.483 36.1286 129.679 36.084C129.879 36.0345 130.03 35.9669 130.144 35.8761C130.258 35.7821 130.349 35.6831 130.42 35.5659C130.491 35.4488 130.555 35.3267 130.621 35.2029C130.687 35.0808 130.771 34.9571 130.869 34.8465C130.973 34.731 131.108 34.6287 131.281 34.5396C131.454 34.4505 131.687 34.3878 131.974 34.3499C132.261 34.3053 132.624 34.2938 133.068 34.3218C133.486 34.3449 133.832 34.3878 134.103 34.4621C134.375 34.5347 134.596 34.6221 134.758 34.7294C134.921 34.835 135.051 34.9472 135.147 35.0759C135.241 35.198 135.315 35.3267 135.381 35.4587C135.441 35.5923 135.505 35.7161 135.571 35.8448C135.637 35.9669 135.728 36.0774 135.835 36.183C135.946 36.2837 136.091 36.3678 136.281 36.4355C136.469 36.5015 136.718 36.546 137.023 36.5642C137.125 36.5741 137.249 36.5741 137.391 36.5741C137.525 36.5691 137.667 36.546 137.802 36.5081C137.937 36.4685 138.049 36.3843 138.148 36.2738C138.247 36.1665 138.3 36.0048 138.312 35.7953L138.31 35.7936ZM134.281 31.0829C134.266 31.3337 134.2 31.535 134.088 31.6736C133.972 31.8204 133.832 31.9211 133.67 31.9706C133.507 32.0316 133.345 32.0531 133.182 32.0415C133.002 32.0316 132.835 31.9986 132.667 31.931C132.505 31.865 132.37 31.7577 132.266 31.6076C132.164 31.4574 132.121 31.2561 132.126 30.9987C132.126 30.9723 132.142 30.9047 132.169 30.7875C132.202 30.677 132.24 30.5417 132.294 30.375C132.344 30.215 132.403 30.045 132.474 29.8668C132.548 29.6952 132.624 29.5286 132.712 29.3784C132.802 29.2266 132.895 29.1045 132.999 29.0105C133.101 28.9148 133.203 28.8702 133.312 28.8752C133.426 28.8818 133.524 28.9362 133.616 29.0418C133.707 29.1441 133.789 29.2712 133.86 29.4279C133.934 29.5896 133.994 29.7612 134.048 29.9394C134.103 30.1193 134.147 30.2909 134.179 30.4542C134.217 30.6209 134.238 30.7595 134.261 30.8717C134.276 30.9888 134.281 31.0548 134.281 31.0829ZM148.25 35.0264C148.293 34.6518 148.288 34.3268 148.228 34.043C148.162 33.7641 148.072 33.5199 147.951 33.3087C147.832 33.0942 147.707 32.9061 147.583 32.7395C147.458 32.5662 147.355 32.4045 147.273 32.2527C147.194 32.0976 147.166 31.9425 147.182 31.7792C147.199 31.6571 147.248 31.5449 147.318 31.4393C147.387 31.3337 147.474 31.2231 147.572 31.106C147.676 30.9938 147.778 30.8601 147.88 30.7149C147.984 30.5664 148.08 30.3866 148.167 30.1869C148.253 29.9807 148.314 29.7348 148.357 29.4494C148.402 29.1029 148.378 28.7877 148.304 28.4858C148.222 28.1904 148.103 27.9165 147.93 27.6707C147.761 27.4314 147.56 27.2136 147.329 27.0354C147.1 26.8523 146.852 26.7021 146.596 26.5899C146.337 26.4777 146.077 26.4002 145.823 26.3672L141.43 25.7319C141.257 25.7039 141.084 25.7204 140.911 25.7814C140.732 25.8425 140.581 25.9547 140.445 26.1213C140.315 26.2847 140.227 26.5124 140.18 26.7978L138.96 35.7276C138.95 35.8332 138.955 35.9553 138.983 36.084C139.015 36.2127 139.059 36.3348 139.129 36.4586C139.2 36.5807 139.287 36.6863 139.389 36.7688C139.497 36.8529 139.62 36.909 139.762 36.9321L144.745 37.6548C145.222 37.7159 145.659 37.6878 146.06 37.5723C146.466 37.4568 146.819 37.2654 147.128 37.008C147.438 36.7589 147.685 36.4586 147.88 36.1104C148.072 35.7705 148.195 35.4092 148.25 35.0247V35.0264ZM145.54 29.6672C145.514 29.8668 145.45 30.0302 145.359 30.1622C145.265 30.2975 145.144 30.3965 145.016 30.4806C144.88 30.5598 144.739 30.6159 144.593 30.6539C144.447 30.6935 144.313 30.71 144.176 30.7149C144.046 30.7215 143.938 30.7215 143.846 30.7034C143.585 30.6654 143.369 30.5813 143.196 30.4476C143.023 30.3206 142.892 30.1523 142.816 29.946C142.742 29.7447 142.719 29.522 142.752 29.2662C142.79 29.0105 142.872 28.791 142.999 28.6128C143.125 28.4396 143.293 28.3125 143.494 28.2399C143.699 28.1624 143.932 28.1393 144.192 28.1789C144.333 28.1954 144.486 28.2449 144.654 28.3241C144.816 28.3967 144.973 28.4957 145.12 28.6244C145.265 28.7531 145.379 28.9049 145.46 29.0765C145.542 29.2497 145.567 29.4494 145.54 29.6672ZM145.313 34.2938C145.28 34.5165 145.215 34.7013 145.108 34.8515C145.006 34.9967 144.88 35.1138 144.729 35.198C144.582 35.2805 144.425 35.3415 144.258 35.3762C144.09 35.4092 143.927 35.4257 143.77 35.4257C143.608 35.4323 143.466 35.4207 143.343 35.4026C142.866 35.3316 142.524 35.1633 142.33 34.9026C142.135 34.6337 142.066 34.2888 142.125 33.8648C142.173 33.5249 142.27 33.2675 142.427 33.0893C142.579 32.9177 142.768 32.8005 142.991 32.7494C143.219 32.6999 143.466 32.6949 143.739 32.7395C143.912 32.7609 144.095 32.8121 144.283 32.8847C144.481 32.9556 144.664 33.0563 144.833 33.18C144.994 33.3087 145.13 33.4638 145.222 33.6486C145.313 33.8318 145.346 34.0496 145.313 34.2938ZM162.563 30.2975C162.704 30.314 162.823 30.3371 162.91 30.375L167.876 32.1306C168.114 32.2148 168.304 32.3319 168.456 32.4771C168.601 32.6223 168.695 32.8005 168.736 33.0068C168.774 33.213 168.753 33.4407 168.667 33.7031C168.581 33.9539 168.482 34.1436 168.37 34.2657C168.254 34.3878 168.136 34.472 168 34.505C167.865 34.5396 167.73 34.5512 167.578 34.5281C167.433 34.5165 167.281 34.4951 167.124 34.467C166.967 34.4406 166.802 34.4291 166.641 34.434C166.484 34.434 166.327 34.472 166.169 34.5512C166.019 34.6221 165.867 34.7574 165.727 34.9521C165.59 35.1419 165.463 35.4092 165.342 35.7606L163.494 41.2749C163.413 41.5142 163.299 41.6874 163.154 41.8095C163.006 41.925 162.851 41.9976 162.676 42.0323C162.504 42.0653 162.341 42.0702 162.177 42.0488C162.021 42.0257 161.887 41.9993 161.771 41.9531C161.658 41.9151 161.534 41.8541 161.404 41.7749C161.273 41.6924 161.156 41.5851 161.047 41.4531C160.938 41.3244 160.867 41.1677 160.831 40.9829C160.791 40.8014 160.814 40.5869 160.89 40.3476L162.737 34.8366C162.851 34.4835 162.91 34.1931 162.915 33.9539C162.922 33.7146 162.882 33.5133 162.808 33.3582C162.732 33.2015 162.628 33.0678 162.504 32.9622C162.379 32.855 162.243 32.7675 162.103 32.6817C161.961 32.6108 161.831 32.5332 161.707 32.4491C161.577 32.3699 161.476 32.2758 161.394 32.1587C161.308 32.0481 161.257 31.9079 161.242 31.7412C161.225 31.5746 161.263 31.3617 161.344 31.1109C161.425 30.8667 161.54 30.6885 161.681 30.5664C161.816 30.4427 161.961 30.3635 162.118 30.3305C162.276 30.2909 162.422 30.281 162.563 30.2975ZM152.046 27.4314C152.197 27.4314 152.315 27.443 152.403 27.4644C152.65 27.5321 152.865 27.6327 153.036 27.7664C153.21 27.8984 153.335 28.0683 153.404 28.2729C153.48 28.4742 153.48 28.7085 153.421 28.9692L152.695 31.9689C152.673 32.063 152.652 32.1801 152.642 32.327C152.626 32.4722 152.626 32.6157 152.642 32.7675C152.659 32.9226 152.692 33.0513 152.756 33.1685C152.815 33.284 152.906 33.3582 153.031 33.3912C153.162 33.4193 153.312 33.3912 153.492 33.3021C153.67 33.213 153.871 33.0893 154.078 32.9292C154.287 32.7675 154.493 32.5893 154.705 32.393C154.911 32.2032 155.105 32.0085 155.284 31.8303C155.464 31.6455 155.614 31.4904 155.734 31.3551C155.858 31.2281 155.935 31.1439 155.965 31.1076C156.069 30.9987 156.199 30.8766 156.341 30.738C156.487 30.5978 156.638 30.4476 156.812 30.2925C156.978 30.1292 157.151 29.9741 157.336 29.8173C157.515 29.6688 157.694 29.522 157.873 29.3933C158.041 29.2778 158.209 29.2052 158.376 29.1771C158.556 29.1441 158.729 29.1441 158.912 29.1656C159.092 29.1887 159.282 29.2266 159.47 29.2811C159.607 29.3108 159.75 29.3669 159.92 29.4494C160.084 29.5335 160.234 29.6391 160.382 29.7794C160.521 29.913 160.63 30.0797 160.701 30.2793C160.767 30.4757 160.77 30.7034 160.711 30.9723L158.674 39.384C158.608 39.6464 158.518 39.851 158.399 39.9962C158.278 40.148 158.143 40.2536 157.993 40.3146C157.841 40.3773 157.678 40.4037 157.51 40.3971C157.348 40.3971 157.18 40.3707 157.018 40.3262C156.577 40.209 156.275 40.0127 156.109 39.7305C155.939 39.4451 155.901 39.1101 155.998 38.7092L156.762 35.5428C156.79 35.4488 156.812 35.3366 156.833 35.2128C156.856 35.0973 156.861 34.9752 156.845 34.8564C156.838 34.736 156.795 34.6337 156.729 34.5396C156.665 34.4505 156.564 34.3829 156.422 34.3449C156.302 34.3169 156.183 34.3218 156.053 34.3664C155.929 34.406 155.805 34.467 155.68 34.5512C155.554 34.6337 155.436 34.7244 155.328 34.8234C155.219 34.9224 155.122 35.0198 155.035 35.1023L154.84 35.3085C154.472 35.6715 154.114 36.0395 153.757 36.4058C153.399 36.7754 153.031 37.1367 152.645 37.4882C152.256 37.8446 151.839 38.1861 151.378 38.5079C151.249 38.592 151.093 38.6432 150.929 38.6547C150.763 38.6646 150.588 38.6547 150.415 38.6201C150.236 38.5871 150.068 38.5475 149.906 38.5029C149.75 38.465 149.593 38.4089 149.43 38.3247C149.273 38.2455 149.126 38.1465 149.002 38.0228C148.878 37.8941 148.784 37.739 148.732 37.5608C148.677 37.3826 148.677 37.1714 148.732 36.9321L150.816 28.329C150.875 28.1013 150.972 27.9215 151.109 27.7944C151.245 27.6657 151.396 27.5766 151.563 27.5205C151.736 27.4661 151.893 27.438 152.046 27.4314Z" fill="#EC1D24"/>
</g>
<defs>
<clipPath id="clip0_402_2088">
<rect width="102.3" height="66" fill="white" transform="translate(74)"/>
</clipPath>
</defs>
</svg>
