<svg width="250" height="66" viewBox="0 0 250 66" fill="none" xmlns="http://www.w3.org/2000/svg">
<g clip-path="url(#clip0_402_2089)">
<path fill-rule="evenodd" clip-rule="evenodd" d="M61.1356 6.16577C49.0358 6.16577 39.2271 15.9746 39.2271 28.0743V60.1533H187.946C200.045 60.1533 209.854 50.3444 209.854 38.2447V6.16577H61.1356ZM57.0037 30.6368V42.6985H61.0242V30.6368H64.005V27.6977H61.0242V26.4915C61.0242 25.0773 61.7775 24.3703 63.2841 24.3703C63.7647 24.3703 64.1714 24.4119 64.5041 24.495L64.5457 21.3895C63.7416 21.2046 63.0622 21.1122 62.5077 21.1122C60.77 21.1122 59.416 21.579 58.4455 22.5125C57.4843 23.4367 57.0037 24.74 57.0037 26.4221V27.6977H54.7715V30.6368H57.0037ZM73.9256 42.6985C73.7408 42.338 73.6067 41.89 73.5235 41.3537C72.5531 42.4352 71.2914 42.9758 69.7386 42.9758C68.269 42.9758 67.049 42.5507 66.0785 41.7002C65.1173 40.85 64.6366 39.7778 64.6366 38.4839C64.6366 36.8941 65.2236 35.6741 66.3974 34.8237C67.5804 33.9734 69.2857 33.5436 71.5132 33.5344H73.357V32.6748C73.357 31.9816 73.1769 31.4271 72.8164 31.0111C72.4652 30.5952 71.906 30.3873 71.1389 30.3873C70.4642 30.3873 69.9327 30.549 69.5445 30.8725C69.1656 31.196 68.9761 31.6396 68.9761 32.2035H64.9694C64.9694 31.3347 65.2374 30.5305 65.7735 29.7911C66.3096 29.0517 67.0675 28.474 68.0472 28.0581C69.0269 27.6329 70.1268 27.4204 71.3469 27.4204C73.1952 27.4204 74.6603 27.8871 75.7418 28.8206C76.8324 29.7449 77.3777 31.0481 77.3777 32.7303V39.2325C77.387 40.6559 77.5857 41.7328 77.9739 42.4629V42.6985H73.9256ZM72.248 39.5238C71.7489 39.7824 71.2036 39.9119 70.612 39.9119C70.002 39.9119 69.5214 39.7501 69.1702 39.4266C68.8189 39.1031 68.6434 38.6918 68.6434 38.1927L68.6572 37.9571C68.7866 36.5706 69.8541 35.8774 71.8598 35.8774H73.357V38.4562C73.1167 38.8998 72.7472 39.2556 72.248 39.5238ZM86.5911 31.3439C87.0072 31.3439 87.4879 31.3809 88.0332 31.4548L88.0884 27.6006C87.7003 27.4804 87.2845 27.4204 86.8408 27.4204C85.4173 27.4204 84.3035 28.1089 83.4995 29.4861L83.3887 27.6977H79.6037V42.6985H83.6104V32.8828C84.0818 31.8569 85.0754 31.3439 86.5911 31.3439ZM92.8794 27.6977L93.0042 29.3752C94.0672 28.072 95.5042 27.4204 97.3158 27.4204C99.2476 27.4204 100.574 28.1829 101.295 29.7079C102.348 28.1829 103.85 27.4204 105.801 27.4204C107.427 27.4204 108.638 27.8964 109.433 28.8484C110.228 29.7911 110.625 31.2145 110.625 33.1185V42.6985H106.605V33.1324C106.605 32.282 106.438 31.6627 106.106 31.2746C105.773 30.8771 105.186 30.6784 104.345 30.6784C103.143 30.6784 102.312 31.2515 101.849 32.3975L101.863 42.6985H97.8564V33.1462C97.8564 32.2774 97.6857 31.6489 97.3435 31.2607C97.0016 30.8725 96.4194 30.6784 95.5968 30.6784C94.46 30.6784 93.6374 31.1498 93.1291 32.0925V42.6985H89.1221V27.6977H92.8794ZM113.073 42.6985H117.094V21.4034H113.073V42.6985ZM126.46 42.9758C124.26 42.9758 122.467 42.3011 121.081 40.9515C119.703 39.6023 119.015 37.8045 119.015 35.5586V35.1704C119.015 33.6638 119.306 32.319 119.888 31.1359C120.47 29.9436 121.293 29.0286 122.356 28.3908C123.428 27.7439 124.648 27.4204 126.016 27.4204C128.068 27.4204 129.681 28.0674 130.855 29.3613C132.038 30.6553 132.629 32.49 132.629 34.8654V36.5013H123.077C123.206 37.481 123.595 38.2667 124.241 38.8582C124.898 39.4497 125.725 39.7455 126.723 39.7455C128.267 39.7455 129.473 39.1863 130.342 38.0679L132.31 40.2724C131.709 41.1226 130.896 41.7881 129.87 42.2688C128.844 42.7402 127.707 42.9758 126.46 42.9758ZM124.061 31.4687C124.56 30.9326 125.207 30.6645 126.002 30.6645C126.853 30.6645 127.509 30.9095 127.971 31.3993C128.433 31.88 128.673 32.5639 128.692 33.4512V33.7701H123.119C123.257 32.7719 123.571 32.0047 124.061 31.4687ZM137.878 29.4306L137.753 27.6977H133.982V42.6985H137.988V32.1203C138.552 31.159 139.398 30.6784 140.526 30.6784C141.385 30.6784 142 30.8725 142.37 31.2607C142.739 31.6396 142.924 32.2543 142.924 33.1046V42.6985H146.931V33.0076C146.912 31.1498 146.515 29.7542 145.738 28.8206C144.962 27.8871 143.779 27.4204 142.19 27.4204C140.387 27.4204 138.95 28.0905 137.878 29.4306ZM148.505 35.0872C148.505 32.7488 149.027 30.8864 150.072 29.5C151.126 28.1136 152.563 27.4204 154.384 27.4204C155.844 27.4204 157.05 27.9657 158.002 29.0563V21.4034H162.023V42.6985H158.404L158.21 41.1043C157.212 42.352 155.927 42.9758 154.356 42.9758C152.591 42.9758 151.172 42.2828 150.1 40.8963C149.037 39.5005 148.505 37.5642 148.505 35.0872ZM153.247 38.6087C152.757 37.86 152.512 36.7832 152.512 35.3783C152.512 32.245 153.478 30.6784 155.41 30.6784C156.639 30.6784 157.503 31.2006 158.002 32.245V38.165C157.494 39.2094 156.62 39.7315 155.382 39.7315C154.448 39.7315 153.737 39.3573 153.247 38.6087ZM186.086 42.9758C187.833 42.9758 189.201 42.375 190.19 41.1736L190.301 42.6985H194.072V27.6977H190.051V38.3175C189.543 39.2603 188.609 39.7315 187.251 39.7315C185.828 39.7315 185.116 38.9506 185.116 37.3886V27.6977H181.109V37.5273C181.127 39.3111 181.557 40.6652 182.398 41.5894C183.249 42.5138 184.478 42.9758 186.086 42.9758ZM180.117 31.4548C179.572 31.3809 179.091 31.3439 178.675 31.3439C177.159 31.3439 176.166 31.8569 175.694 32.8828V42.6985H171.688V27.6977H175.473L175.583 29.4861C176.387 28.1089 177.501 27.4204 178.925 27.4204C179.368 27.4204 179.784 27.4804 180.172 27.6006L180.117 31.4548ZM165.122 39.1771C164.697 39.5744 164.485 40.092 164.485 40.7298C164.485 41.3583 164.697 41.8713 165.122 42.2688C165.547 42.6569 166.088 42.851 166.744 42.851C167.41 42.851 167.955 42.6569 168.38 42.2688C168.805 41.8713 169.018 41.3583 169.018 40.7298C169.018 40.092 168.801 39.5744 168.366 39.1771C167.941 38.7796 167.4 38.5809 166.744 38.5809C166.097 38.5809 165.556 38.7796 165.122 39.1771Z" fill="#00A052"/>
</g>
<defs>
<clipPath id="clip0_402_2089">
<rect width="170.773" height="54.2612" fill="white" transform="translate(39.2271 6.16577)"/>
</clipPath>
</defs>
</svg>
