<svg width="49" height="49" viewBox="0 0 49 49" fill="none" xmlns="http://www.w3.org/2000/svg">
<path d="M0 12C0 5.37258 5.37258 0 12 0H37C43.6274 0 49 5.37258 49 12V37C49 43.6274 43.6274 49 37 49H12C5.37258 49 0 43.6274 0 37V12Z" fill="white" fill-opacity="0.5"/>
<path d="M12.2929 24.2929C11.9024 24.6834 11.9024 25.3166 12.2929 25.7071L18.6569 32.0711C19.0474 32.4616 19.6805 32.4616 20.0711 32.0711C20.4616 31.6805 20.4616 31.0474 20.0711 30.6569L14.4142 25L20.0711 19.3431C20.4616 18.9526 20.4616 18.3195 20.0711 17.9289C19.6805 17.5384 19.0474 17.5384 18.6569 17.9289L12.2929 24.2929ZM36 24L13 24V26L36 26V24Z" fill="#ED2E71"/>
</svg>
