<svg width="168" height="21" viewBox="0 0 168 21" fill="none" xmlns="http://www.w3.org/2000/svg">
<path d="M25.4844 19.9609L23.2148 16.4336H9.13281L6.86328 19.9609H0L13.0977 0.355469H19.4824L32.5938 19.9609H25.4844ZM11.9902 12.0039H20.3574L16.1875 5.48242L11.9902 12.0039Z" fill="white"/>
<path d="M32.8672 15.2031C33.8333 15.1758 34.64 15.0391 35.2871 14.793C35.9342 14.5469 36.4538 14.1322 36.8457 13.5488C37.3743 12.7832 37.7161 11.776 37.8711 10.5273C38.026 9.27865 38.1582 6.99089 38.2676 3.66406L38.377 0.355469H62.6035V19.9609H56.4102V5.12695H44.4336C44.3698 6.88607 44.2878 8.32161 44.1875 9.43359C44.0964 10.5365 43.9505 11.6029 43.75 12.6328C43.5586 13.6628 43.2943 14.5378 42.957 15.2578C42.6289 15.9688 42.2051 16.6296 41.6855 17.2402C40.7559 18.3431 39.6439 19.127 38.3496 19.5918C37.0645 20.0566 35.3874 20.2617 33.3184 20.207L32.8672 15.2031Z" fill="white"/>
<path d="M68.5645 19.9609V0.355469H74.9492L85.4766 12.4004L95.9492 0.355469H102.279V19.9609H96.291V7.61523L88.0879 17.3633H82.7832L74.5801 7.83398V19.9609H68.5645Z" fill="white"/>
<path d="M130.758 19.9609L128.488 16.4336H114.406L112.137 19.9609H105.273L118.371 0.355469H124.756L137.867 19.9609H130.758ZM117.264 12.0039H125.631L121.461 5.48242L117.264 12.0039Z" fill="white"/>
<path d="M167.891 14.1914C167.891 16.2695 166.651 17.8145 164.172 18.8262C161.702 19.8288 157.933 20.3301 152.865 20.3301C148.609 20.3301 145.359 19.806 143.117 18.7578C140.875 17.7096 139.476 16.1055 138.92 13.9453L145.414 12.7148C145.678 13.8542 146.398 14.6836 147.574 15.2031C148.759 15.7227 150.523 15.9824 152.865 15.9824C155.627 15.9824 157.646 15.8138 158.922 15.4766C160.198 15.1302 160.836 14.6016 160.836 13.8906C160.836 13.3073 160.576 12.8835 160.057 12.6191C159.546 12.3457 158.676 12.209 157.445 12.209H148.189V7.91602H156.98C158.311 7.91602 159.255 7.7793 159.811 7.50586C160.367 7.23242 160.645 6.79948 160.645 6.20703C160.645 4.9401 158.061 4.30664 152.893 4.30664C150.614 4.30664 148.873 4.55273 147.67 5.04492C146.467 5.53711 145.706 6.31641 145.387 7.38281L139.303 6.09766C140.469 2.03255 144.99 0 152.865 0C162.527 0 167.357 1.86393 167.357 5.5918C167.357 6.63997 167.029 7.49674 166.373 8.16211C165.726 8.82747 164.664 9.37435 163.188 9.80273C164.773 10.1126 165.954 10.6276 166.729 11.3477C167.503 12.0677 167.891 13.0156 167.891 14.1914Z" fill="white"/>
</svg>
