<svg width="121" height="14" viewBox="0 0 121 14" fill="none" xmlns="http://www.w3.org/2000/svg">
<path d="M18.3668 13.7458L16.7311 11.3167H6.58208L4.94642 13.7458H0L9.43958 0.244788H14.0411L23.4906 13.7458H18.3668ZM8.64145 8.26631H14.6717L11.6664 3.77539L8.64145 8.26631Z" fill="#967C63"/>
<path d="M23.6876 10.4694C24.3839 10.4506 24.9653 10.3564 25.4317 10.187C25.8981 10.0175 26.2725 9.7319 26.555 9.3302C26.936 8.80296 27.1823 8.10939 27.294 7.2495C27.4056 6.3896 27.5009 4.81417 27.5797 2.5232L27.6586 0.244788H45.1188V13.7458H40.6552V3.5306H32.0236C31.9776 4.74199 31.9185 5.73055 31.8463 6.4963C31.7806 7.25577 31.6755 7.99014 31.5309 8.69939C31.393 9.40865 31.2025 10.0112 30.9594 10.5071C30.723 10.9966 30.4175 11.4517 30.0431 11.8722C29.373 12.6317 28.5716 13.1715 27.6388 13.4916C26.7126 13.8117 25.5039 13.9529 24.0128 13.9153L23.6876 10.4694Z" fill="#967C63"/>
<path d="M49.4149 13.7458V0.244788H54.0164L61.6036 8.53934L69.1513 0.244788H73.7134V13.7458H69.3976V5.24412L63.4856 11.957H59.6625L53.7504 5.39475V13.7458H49.4149Z" fill="#967C63"/>
<path d="M94.2381 13.7458L92.6024 11.3167H82.4534L80.8177 13.7458H75.8713L85.3109 0.244788H89.9125L99.3619 13.7458H94.2381ZM84.5128 8.26631H90.5431L87.5378 3.77539L84.5128 8.26631Z" fill="#967C63"/>
<path d="M121 9.7727C121 11.2038 120.107 12.2677 118.32 12.9644C116.54 13.6548 113.823 14 110.171 14C107.103 14 104.762 13.6391 103.146 12.9173C101.53 12.1955 100.521 11.0908 100.121 9.60323L104.801 8.75588C104.991 9.54046 105.51 10.1116 106.358 10.4694C107.212 10.8272 108.483 11.0061 110.171 11.0061C112.161 11.0061 113.616 10.8899 114.536 10.6577C115.456 10.4192 115.916 10.0551 115.916 9.56557C115.916 9.16387 115.728 8.872 115.354 8.68998C114.986 8.50168 114.359 8.40753 113.472 8.40753H106.801V5.45124H113.137C114.096 5.45124 114.776 5.3571 115.177 5.1688C115.577 4.9805 115.778 4.68236 115.778 4.27438C115.778 3.40193 113.915 2.9657 110.191 2.9657C108.549 2.9657 107.294 3.13517 106.427 3.47411C105.56 3.81305 105.011 4.3497 104.781 5.08406L100.396 4.19906C101.237 1.39969 104.496 0 110.171 0C117.134 0 120.616 1.28357 120.616 3.85071C120.616 4.57252 120.379 5.16252 119.906 5.62071C119.44 6.07891 118.675 6.4555 117.61 6.7505C118.753 6.96391 119.604 7.31854 120.162 7.81439C120.721 8.31024 121 8.96301 121 9.7727Z" fill="#967C63"/>
</svg>
