<svg width="20" height="17" viewBox="0 0 20 17" fill="none" xmlns="http://www.w3.org/2000/svg">
<path d="M10 1C14.4854 1 18.2172 4.23333 19 8.5C18.218 12.7667 14.4854 16 10 16C5.51456 16 1.78279 12.7667 1 8.5C1.78196 4.23333 5.51456 1 10 1ZM10 14.3333C11.6966 14.333 13.3428 13.7557 14.6692 12.696C15.9956 11.6363 16.9236 10.1569 17.3013 8.5C16.9222 6.84442 15.9936 5.36667 14.6673 4.30835C13.341 3.25004 11.6956 2.67377 10 2.67377C8.3044 2.67377 6.65895 3.25004 5.33269 4.30835C4.00643 5.36667 3.07782 6.84442 2.69868 8.5C3.07643 10.1569 4.00444 11.6363 5.33083 12.696C6.65723 13.7557 8.30343 14.333 10 14.3333V14.3333ZM10 12.25C9.00718 12.25 8.05503 11.8549 7.35301 11.1516C6.65098 10.4484 6.25659 9.49456 6.25659 8.5C6.25659 7.50544 6.65098 6.55161 7.35301 5.84835C8.05503 5.14509 9.00718 4.75 10 4.75C10.9928 4.75 11.945 5.14509 12.647 5.84835C13.349 6.55161 13.7434 7.50544 13.7434 8.5C13.7434 9.49456 13.349 10.4484 12.647 11.1516C11.945 11.8549 10.9928 12.25 10 12.25ZM10 10.5833C10.5516 10.5833 11.0805 10.3638 11.4706 9.97314C11.8606 9.58244 12.0797 9.05253 12.0797 8.5C12.0797 7.94747 11.8606 7.41756 11.4706 7.02686C11.0805 6.63616 10.5516 6.41667 10 6.41667C9.44844 6.41667 8.91946 6.63616 8.52945 7.02686C8.13943 7.41756 7.92033 7.94747 7.92033 8.5C7.92033 9.05253 8.13943 9.58244 8.52945 9.97314C8.91946 10.3638 9.44844 10.5833 10 10.5833Z" fill="#463199"/>
</svg>
