<svg width="20" height="17" viewBox="0 0 20 17" fill="none" xmlns="http://www.w3.org/2000/svg">
<path d="M14.8931 14.3475C13.43 15.2415 11.7326 15.7149 10 15.7122C5.51456 15.7122 1.78279 12.603 1 8.5C1.35773 6.63341 2.33235 4.92827 3.77845 3.63896L1.17552 1.13392L2.35262 0L18.8228 15.8669L17.6457 17L14.8922 14.3475H14.8931ZM4.95471 4.77369C3.8242 5.76384 3.03668 7.0646 2.69868 8.5C2.95847 9.59502 3.48002 10.6165 4.22183 11.4831C4.96365 12.3498 5.90523 13.0376 6.97162 13.4919C8.03802 13.9462 9.19978 14.1544 10.3644 14.1C11.5291 14.0455 12.6645 13.73 13.6802 13.1783L11.9932 11.5532C11.275 11.989 10.4244 12.1767 9.58094 12.0856C8.73745 11.9945 7.95114 11.63 7.35097 11.0519C6.7508 10.4737 6.3724 9.71624 6.27785 8.90369C6.18329 8.09115 6.37819 7.27177 6.83058 6.57995L4.95471 4.77369ZM10.7603 10.3656L8.06341 7.76756C7.91539 8.13052 7.88055 8.52721 7.96317 8.90897C8.04579 9.29073 8.24227 9.64096 8.52852 9.91671C8.81477 10.1925 9.17833 10.3817 9.57463 10.4613C9.97092 10.5409 10.3827 10.5073 10.7595 10.3648L10.7603 10.3656ZM17.3263 12.1798L16.1359 11.0339C16.692 10.2704 17.0879 9.40969 17.3013 8.5C17.0752 7.54616 16.6502 6.64658 16.052 5.85592C15.4538 5.06526 14.6949 4.40004 13.8215 3.90069C12.9481 3.40135 11.9784 3.07831 10.9714 2.95121C9.96437 2.82411 8.94103 2.89561 7.96358 3.16136L6.65089 1.89681C7.68823 1.50415 8.81874 1.28778 10 1.28778C14.4854 1.28778 18.2172 4.39705 19 8.5C18.7451 9.83482 18.1722 11.0945 17.3263 12.1798V12.1798ZM9.76957 4.9003C10.2991 4.86878 10.8295 4.94603 11.3256 5.12694C11.8218 5.30785 12.2723 5.58828 12.6475 5.94964C13.0226 6.311 13.3137 6.74505 13.5015 7.223C13.6893 7.70096 13.7695 8.2119 13.7368 8.72198L9.76874 4.9003H9.76957Z" fill="#463199"/>
</svg>
