<svg width="20" height="20" viewBox="0 0 20 20" fill="none" xmlns="http://www.w3.org/2000/svg">
<g clip-path="url(#clip0_1131_6955)">
<path d="M19.7879 10.2257C19.7879 9.56732 19.7296 8.94232 19.6296 8.33398H10.2129V12.0923H15.6046C15.3629 13.3257 14.6546 14.3673 13.6046 15.0757V17.5757H16.8212C18.7046 15.834 19.7879 13.2673 19.7879 10.2257Z" fill="#4285F4"/>
<path d="M10.2129 20C12.9129 20 15.1712 19.1007 16.8212 17.5757L13.6046 15.0757C12.7046 15.6757 11.5629 16.0417 10.2129 16.0417C7.60456 16.0417 5.39622 14.2833 4.60456 11.9083H1.28789V14.4833C2.92956 17.75 6.30456 20 10.2129 20Z" fill="#34A853"/>
<path d="M4.60456 11.9083C4.39622 11.3083 4.28789 10.6676 4.28789 10.0009C4.28789 9.33424 4.40456 8.69258 4.60456 8.09258V5.51758H1.28789C0.604556 6.86758 0.212891 8.38424 0.212891 10.0009C0.212891 11.6176 0.604557 13.1333 1.28789 14.4833L4.60456 11.9083Z" fill="#FBBC05"/>
<path d="M10.2129 3.95833C11.6879 3.95833 13.0046 4.46667 14.0462 5.45834L16.8962 2.60833C15.1712 0.991667 12.9129 0 10.2129 0C6.30456 0 2.92956 2.25091 1.28789 5.51758L4.60456 8.09258C5.39622 5.71758 7.60456 3.95833 10.2129 3.95833Z" fill="#EA4335"/>
</g>
<defs>
<clipPath id="clip0_1131_6955">
<rect width="20" height="20" fill="white"/>
</clipPath>
</defs>
</svg>
