<svg width="44" height="44" viewBox="0 0 44 44" fill="none" xmlns="http://www.w3.org/2000/svg">
<path d="M16.9183 17.0001L12.4346 17.0001L12.4346 28.8341H16.9183L16.9183 17.0001Z" fill="white"/>
<path d="M31.1573 21.9459C31.1573 21.519 31.0157 21.1247 30.777 20.8071C31.2538 20.4617 31.5649 19.9008 31.5649 19.2685C31.5649 18.2212 30.7129 17.3693 29.6657 17.3693L25.3484 17.3693L25.9492 15.294L25.9492 14.2996C25.9492 12.4673 24.4585 10.9766 22.6262 10.9766C22.1819 10.9766 21.8205 11.338 21.8205 11.7823V13.9868C21.5209 14.4663 19.857 16.3334 18.0391 18.2895L18.0391 28.0973L19.5903 28.679C20.5124 29.0247 21.4792 29.2001 22.464 29.2001L28.443 29.2001C29.4902 29.2001 30.3421 28.348 30.3421 27.3008C30.3421 26.8741 30.2007 26.4798 29.9622 26.1624C30.4389 25.817 30.7497 25.2558 30.7497 24.6234C30.7497 24.1965 30.6081 23.8021 30.3694 23.4846C30.8463 23.1393 31.1573 22.5784 31.1573 21.9459Z" fill="white"/>
</svg>
