<svg width="21" height="20" viewBox="0 0 21 20" fill="none" xmlns="http://www.w3.org/2000/svg">
<g filter="url(#filter0_ii_1012_7712)">
<path d="M9.46742 1.64486C9.88186 0.785046 11.1181 0.785046 11.5326 1.64486L13.5278 5.78425C13.6946 6.13029 14.0269 6.3693 14.4109 6.4194L19.0041 7.0188C19.9582 7.14331 20.3402 8.3073 19.6423 8.9632L16.2822 12.1209C16.0013 12.3849 15.8743 12.7716 15.9449 13.1486L16.7884 17.6584C16.9636 18.5952 15.9634 19.3146 15.1176 18.8601L11.0458 16.6723C10.7054 16.4894 10.2946 16.4894 9.95424 16.6723L5.88236 18.8601C5.03656 19.3146 4.03639 18.5952 4.2116 17.6584L5.05515 13.1486C5.12566 12.7716 4.99874 12.3849 4.71785 12.1209L1.35774 8.9632C0.659796 8.3073 1.04183 7.14331 1.99592 7.0188L6.58913 6.4194C6.97311 6.3693 7.3054 6.13029 7.47219 5.78425L9.46742 1.64486Z" fill="url(#paint0_linear_1012_7712)"/>
</g>
<path d="M13.753 5.6757L11.7578 1.53631C11.2524 0.487896 9.74756 0.487896 9.24221 1.53631L7.24699 5.6757C7.1172 5.94497 6.85789 6.13221 6.55678 6.1715L1.96357 6.77091C0.80398 6.92223 0.332076 8.34239 1.18654 9.14538L4.54664 12.3031C4.7658 12.509 4.86416 12.8099 4.80941 13.1026L3.96586 17.6125C3.75093 18.7616 4.97521 19.6313 6.00069 19.0804L10.0726 16.8925C10.3391 16.7493 10.6609 16.7493 10.9274 16.8925L14.9993 19.0804C16.0248 19.6313 17.2491 18.7616 17.0341 17.6125L16.1906 13.1026C16.1358 12.8099 16.2342 12.509 16.4534 12.3031L19.8135 9.14538C20.6679 8.34239 20.196 6.92223 19.0364 6.77091L14.4432 6.1715C14.1421 6.13221 13.8828 5.94497 13.753 5.6757Z" stroke="#FCBA32" stroke-width="0.5"/>
<defs>
<filter id="filter0_ii_1012_7712" x="0.499023" y="0.5" width="20.002" height="19" filterUnits="userSpaceOnUse" color-interpolation-filters="sRGB">
<feFlood flood-opacity="0" result="BackgroundImageFix"/>
<feBlend mode="normal" in="SourceGraphic" in2="BackgroundImageFix" result="shape"/>
<feColorMatrix in="SourceAlpha" type="matrix" values="0 0 0 0 0 0 0 0 0 0 0 0 0 0 0 0 0 0 127 0" result="hardAlpha"/>
<feOffset/>
<feGaussianBlur stdDeviation="1.5"/>
<feComposite in2="hardAlpha" operator="arithmetic" k2="-1" k3="1"/>
<feColorMatrix type="matrix" values="0 0 0 0 0.992157 0 0 0 0 0.843137 0 0 0 0 0.505882 0 0 0 1 0"/>
<feBlend mode="normal" in2="shape" result="effect1_innerShadow_1012_7712"/>
<feColorMatrix in="SourceAlpha" type="matrix" values="0 0 0 0 0 0 0 0 0 0 0 0 0 0 0 0 0 0 127 0" result="hardAlpha"/>
<feOffset/>
<feGaussianBlur stdDeviation="1"/>
<feComposite in2="hardAlpha" operator="arithmetic" k2="-1" k3="1"/>
<feColorMatrix type="matrix" values="0 0 0 0 1 0 0 0 0 0.5273 0 0 0 0 0.185 0 0 0 1 0"/>
<feBlend mode="normal" in2="effect1_innerShadow_1012_7712" result="effect2_innerShadow_1012_7712"/>
</filter>
<linearGradient id="paint0_linear_1012_7712" x1="10.5" y1="1" x2="10.5" y2="19" gradientUnits="userSpaceOnUse">
<stop offset="0.462651" stop-color="#FFFFEB"/>
<stop offset="0.763542" stop-color="#FDD938"/>
<stop offset="1" stop-color="#EF9914"/>
</linearGradient>
</defs>
</svg>
