<svg width="20" height="20" viewBox="0 0 20 20" fill="none" xmlns="http://www.w3.org/2000/svg">
<path fill-rule="evenodd" clip-rule="evenodd" d="M9.99997 3.46768L8.59233 7.60303C8.3854 8.21092 7.81448 8.61968 7.17234 8.61968H2.73502L6.26394 11.067C6.81428 11.4487 7.04492 12.149 6.82911 12.783L5.45935 16.807L9.14514 14.2509C9.65926 13.8943 10.3407 13.8943 10.8548 14.2509L14.5406 16.807L13.1708 12.783C12.955 12.149 13.1857 11.4487 13.736 11.067L17.2649 8.61968H12.8276C12.1855 8.61968 11.6145 8.21092 11.4076 7.60303L9.99997 3.46768ZM10.4733 1.7549C10.3195 1.30305 9.68044 1.30306 9.52664 1.7549L7.64567 7.28079C7.57669 7.48343 7.38639 7.61968 7.17234 7.61968H1.13668C0.646707 7.61968 0.449115 8.25131 0.85174 8.53054L5.69406 11.8888C5.87751 12.016 5.95439 12.2494 5.88245 12.4608L4.02351 17.9219C3.86809 18.3785 4.38545 18.7688 4.78178 18.4939L9.71503 15.0726C9.8864 14.9538 10.1135 14.9538 10.2849 15.0726L15.2182 18.4939C15.6145 18.7688 16.1318 18.3785 15.9764 17.9219L14.1175 12.4608C14.0455 12.2494 14.1224 12.016 14.3059 11.8888L19.1482 8.53054C19.5508 8.25131 19.3532 7.61968 18.8633 7.61968H12.8276C12.6135 7.61968 12.4232 7.48343 12.3543 7.28079L10.4733 1.7549Z" fill="#FCBA32"/>
</svg>
