<svg width="20" height="20" viewBox="0 0 20 20" fill="none" xmlns="http://www.w3.org/2000/svg">
<path d="M9.52444 1.81034C9.67411 1.34968 10.3258 1.34968 10.4755 1.81033L12.2451 7.25664C12.312 7.46265 12.504 7.60213 12.7206 7.60213H18.4472C18.9316 7.60213 19.133 8.22194 18.7411 8.50664L14.1082 11.8726C13.933 12 13.8596 12.2256 13.9266 12.4317L15.6962 17.878C15.8459 18.3386 15.3186 18.7217 14.9268 18.437L10.2939 15.071C10.1186 14.9437 9.88132 14.9437 9.70607 15.071L5.07317 18.437C4.68132 18.7217 4.15407 18.3386 4.30375 17.878L6.07336 12.4317C6.1403 12.2256 6.06697 12 5.89173 11.8726L1.25882 8.50664C0.866967 8.22194 1.06835 7.60213 1.55272 7.60213H7.2793C7.49591 7.60213 7.68789 7.46265 7.75483 7.25664L9.52444 1.81034Z" fill="#FCBA32"/>
</svg>
