<svg width="28" height="28" viewBox="0 0 28 28" fill="none" xmlns="http://www.w3.org/2000/svg">
<path fill-rule="evenodd" clip-rule="evenodd" d="M4.00409 3.6496C-0.0964153 7.7501 -0.0964153 14.3983 4.00409 18.4988C7.62098 22.1157 13.2201 22.5423 17.3045 19.7786L24.5101 26.9841C25.0959 27.5699 26.0457 27.5699 26.6314 26.9841C27.2172 26.3984 27.2172 25.4486 26.6314 24.8628L19.5272 17.7585C22.94 13.6336 22.7154 7.51162 18.8533 3.6496C14.7528 -0.450907 8.1046 -0.450908 4.00409 3.6496ZM6.12541 16.3775C3.19648 13.4486 3.19648 8.69985 6.12541 5.77092C9.05434 2.84199 13.8031 2.84199 16.732 5.77092C19.6609 8.69985 19.6609 13.4486 16.732 16.3775C13.8031 19.3065 9.05434 19.3065 6.12541 16.3775Z" fill="#8720F8"/>
</svg>
