<svg width="72" height="72" viewBox="0 0 72 72" fill="none" xmlns="http://www.w3.org/2000/svg">
<path fill-rule="evenodd" clip-rule="evenodd" d="M9.28921 8.34511C-1.66834 19.3027 -1.66834 37.0684 9.28921 48.0259C18.9548 57.6915 33.9179 58.8311 44.8327 51.4447L64.0863 70.6984C65.6517 72.2637 68.1897 72.2637 69.755 70.6984C71.3204 69.133 71.3204 66.595 69.755 65.0297L50.7717 46.0464C59.8904 35.0236 59.2899 18.665 48.97 8.34511C38.0124 -2.61243 20.2468 -2.61244 9.28921 8.34511ZM14.9579 42.3572C7.13107 34.5304 7.13107 21.8406 14.9579 14.0138C22.7847 6.18698 35.4745 6.18698 43.3013 14.0138C51.1281 21.8406 51.1281 34.5304 43.3013 42.3572C35.4745 50.184 22.7847 50.184 14.9579 42.3572Z" fill="#C9D8FF"/>
</svg>
