<svg width="17" height="18" viewBox="0 0 17 18" fill="none" xmlns="http://www.w3.org/2000/svg">
<path fill-rule="evenodd" clip-rule="evenodd" d="M2.38226 2.40179C-0.127419 4.91146 -0.127419 8.98045 2.38226 11.4901C4.59592 13.7038 8.02274 13.9649 10.5226 12.2734L14.9326 16.6835C15.2912 17.042 15.8724 17.042 16.231 16.6835C16.5895 16.3249 16.5895 15.7437 16.231 15.3851L11.8829 11.0371C13.9718 8.51251 13.8343 4.76553 11.4706 2.40179C8.96092 -0.107888 4.89193 -0.107888 2.38226 2.40179ZM3.68059 10.1918C1.88797 8.39917 1.88797 5.49275 3.68059 3.70012C5.47322 1.9075 8.37963 1.9075 10.1723 3.70012C11.9649 5.49275 11.9649 8.39917 10.1723 10.1918C8.37963 11.9844 5.47322 11.9844 3.68059 10.1918Z" fill="white"/>
</svg>
