<svg width="35" height="35" viewBox="0 0 35 35" fill="none" xmlns="http://www.w3.org/2000/svg">
<path d="M17.5 35C27.165 35 35 27.165 35 17.5C35 7.83502 27.165 0 17.5 0C7.83502 0 0 7.83502 0 17.5C0 27.165 7.83502 35 17.5 35Z" fill="#FC3F1D"/>
<path d="M20.0669 9.8H18.3169C15.2836 9.8 13.7669 11.3167 13.7669 13.65C13.7669 16.2167 14.8169 17.5 17.0336 19.0167L18.7836 20.3L13.7669 28.1167H9.68359L14.4669 21C11.6669 19.0167 10.1503 17.15 10.1503 13.8833C10.1503 9.8 12.9503 7 18.3169 7H23.6836V28H20.1836V9.8H20.0669Z" fill="white"/>
</svg>
