<svg width="290" height="354" viewBox="0 0 290 354" fill="none" xmlns="http://www.w3.org/2000/svg">
<path d="M201.195 0C155.932 27.5178 117.255 59.3616 88.8552 90.75C68.0102 113.789 53.63 135.611 46.1823 154.163C38.5891 173.077 39.3281 185.488 43.1267 192.835C46.6334 199.618 55.7721 207.793 79.2146 211.198C102.67 214.606 137.237 212.598 185.292 201.842C202.514 197.987 217.332 195.539 229.769 194.539C241.915 193.563 253.147 193.844 262.518 196.412C272.044 199.023 282.838 205.055 287.268 217.6C291.307 229.035 287.873 240.174 284.102 248.027C276.466 263.931 259.786 282.106 238.954 300.971C221.186 317.06 198.917 334.939 173.146 354H104.168C114.272 347.054 123.989 340.232 133.279 333.559C165.428 310.466 192.155 289.385 212.104 271.32C230.053 255.067 241.007 242.568 246.15 234.152C242.934 233.944 238.616 233.957 232.974 234.41C223.018 235.21 210.157 237.266 194.029 240.876C143.734 252.134 103.764 255.184 73.4646 250.782C43.1524 246.379 19.316 233.877 7.59444 211.205C-3.83534 189.097 -0.577988 163.272 9.06124 139.261C18.8461 114.887 36.4122 89.0926 59.194 63.9131C78.6471 42.4126 102.582 20.6534 130.016 0H201.195Z" fill="white"/>
</svg>
