<svg width="149" height="89" viewBox="0 0 149 89" fill="none" xmlns="http://www.w3.org/2000/svg">
<path d="M101.551 3.88423C107.014 0.625649 113.405 -0.200699 119.451 0.0385317C127.881 0.372225 137.783 2.8772 148.5 6.92232V30.7514C135.607 25.1717 125.463 22.4282 118.604 22.1567C114.767 22.0048 113.066 22.6789 112.567 22.976C112.535 22.9946 112.365 22.9002 112.197 23.8618C111.944 25.3115 111.993 28.3807 113.666 33.7153C115.302 38.9309 118.263 45.5893 122.941 53.8461C126.439 60.0189 129.688 67.8871 127.561 75.4877C124.858 85.1429 116.067 87.7883 110.234 88.2299C104.2 88.6867 97.1273 87.4064 90.0068 85.4047C82.6743 83.3434 74.3976 80.2544 65.6289 76.4204C50.5991 69.8487 17.051 53.3203 0 42.8223H46C50.2507 44.9144 70.2475 54.3443 74.2295 56.0854C82.4012 59.6584 89.7098 62.3553 95.8086 64.0698C99.4503 65.0935 102.391 65.6875 104.668 65.9741C104.49 65.6372 104.294 65.2773 104.078 64.896C98.9251 55.8023 95.1869 47.6529 92.9248 40.4419C90.7003 33.3507 89.6486 26.3733 90.7617 19.9946C91.9598 13.1294 95.6215 7.42098 101.551 3.88423Z" fill="#FFB1F3"/>
</svg>
