<svg width="285" height="158" viewBox="0 0 285 158" fill="none" xmlns="http://www.w3.org/2000/svg">
<g clip-path="url(#clip0_2249_773)">
<path d="M170.068 27.6845C154.091 19.2315 139.205 12.3427 126.237 7.64155C113.921 3.17679 101.009 -0.203232 89.9167 0.561476C84.1554 0.95869 76.7111 2.61631 70.4137 8.04976C63.5634 13.9606 60.8218 21.9247 60.5505 29.3134C60.3508 34.7539 77.2794 108.587 78.8868 113.5H123C122.6 112.827 106.381 43.6751 106.022 43.0449C107.994 43.646 110.186 44.3701 112.605 45.247C123.245 49.1042 136.357 55.1029 151.361 63.041C190.001 83.4846 238.528 115.14 285.111 151.5V101.5C244.567 71.5528 203.959 45.6152 170.068 27.6845Z" fill="#FFB1F3"/>
</g>
<defs>
<clipPath id="clip0_2249_773">
<rect width="285" height="158" fill="white"/>
</clipPath>
</defs>
</svg>
