<svg width="350" height="270" viewBox="0 0 350 270" fill="none" xmlns="http://www.w3.org/2000/svg">
<path d="M140.723 10.8807C174.445 4.07787 210.167 3.36799 238.225 19.7489C251.825 27.6892 261.662 37.7792 267.339 49.9559C272.987 62.0726 273.678 74.4572 272.112 85.6043C269.88 101.497 262.615 116.963 256.308 128.84C264.23 126.099 273.952 122.443 285.804 117.708C293.287 114.718 300.26 112.479 306.631 111.202C312.8 109.965 319.654 109.367 326.325 110.789C333.556 112.33 340.928 116.405 345.569 124.172C349.836 131.312 350.186 138.93 349.584 144.674C348.425 155.732 342.869 167.868 336.347 179.23C329.48 191.194 320.126 204.667 309.045 218.947C296.731 234.815 281.935 252.119 265.391 270H209.939C236.39 243.428 259.745 217.232 277.444 194.424C287.851 181.014 296.021 169.133 301.655 159.317C302.936 157.085 304.027 155.05 304.959 153.212C303.616 153.694 302.179 154.24 300.644 154.853C280.47 162.913 265.006 168.466 253.426 171.699C247.647 173.313 242.296 174.503 237.494 175.051C233.082 175.554 227.106 175.778 221.201 173.737C213.935 171.226 207.611 165.476 205.333 156.863C203.539 150.079 204.971 143.94 205.967 140.585C208.005 133.716 212.315 125.914 215.599 119.931C223.44 105.643 230.778 92.3122 232.502 80.0399C233.277 74.5217 232.697 70.3173 231.084 66.8563C229.498 63.4552 226.081 58.9763 218.058 54.2918C202.866 45.4228 179.3 43.9041 148.633 50.0907C140.916 51.6473 91.0444 67.1455 83 69.5H3.5C9.36053 66.5507 8.5 64 37.3926 47.2469C76 27.5 106.313 17.8222 140.723 10.8807Z" fill="white"/>
</svg>
