<svg width="305" height="162" viewBox="0 0 305 162" fill="none" xmlns="http://www.w3.org/2000/svg">
<path d="M0 0.300781C51.2937 41.8911 117.05 80.7352 168.539 102.878C183.553 109.335 196.982 114.207 208.188 117.306C214.879 119.156 220.282 120.228 224.465 120.746C224.138 120.137 223.778 119.488 223.381 118.799C213.913 102.366 207.045 87.6386 202.889 74.6074C198.801 61.7928 196.87 49.1844 198.915 37.6572C201.116 25.2511 207.844 14.9361 218.738 8.54492C228.776 2.65621 240.518 1.16329 251.628 1.5957C267.116 2.19872 285.308 6.72522 305 14.0352V57.0967C281.312 47.0136 262.674 42.0561 250.072 41.5654C243.018 41.2908 239.894 42.5092 238.979 43.0459C238.919 43.0795 238.608 42.9079 238.3 44.6455C237.835 47.265 237.922 52.8118 240.997 62.4531C244.003 71.8781 249.442 83.9093 258.039 98.8301C264.466 109.985 270.436 124.204 266.526 137.939C261.56 155.387 245.409 160.167 234.692 160.965C223.606 161.79 210.611 159.477 197.528 155.859C184.056 152.134 168.848 146.553 152.736 139.624C106.418 119.705 49.5447 87.2981 0 50.8145V0.300781Z" fill="#FFB1F3"/>
<path d="M0 0.300781C51.2937 41.8911 117.05 80.7352 168.539 102.878C183.553 109.335 196.982 114.207 208.188 117.306C214.879 119.156 220.282 120.228 224.465 120.746C224.138 120.137 223.778 119.488 223.381 118.799C213.913 102.366 207.045 87.6386 202.889 74.6074C198.801 61.7928 196.87 49.1844 198.915 37.6572C201.116 25.2511 207.844 14.9361 218.738 8.54492C228.776 2.65621 240.518 1.16329 251.628 1.5957C267.116 2.19872 285.308 6.72522 305 14.0352V57.0967C281.312 47.0136 262.674 42.0561 250.072 41.5654C243.018 41.2908 239.894 42.5092 238.979 43.0459C238.919 43.0795 238.608 42.9079 238.3 44.6455C237.835 47.265 237.922 52.8118 240.997 62.4531C244.003 71.8781 249.442 83.9093 258.039 98.8301C264.466 109.985 270.436 124.204 266.526 137.939C261.56 155.387 245.409 160.167 234.692 160.965C223.606 161.79 210.611 159.477 197.528 155.859C184.056 152.134 168.848 146.553 152.736 139.624C106.418 119.705 49.5447 87.2981 0 50.8145V0.300781Z" fill="#FFB1F3"/>
</svg>
