<svg width="1200" height="223" viewBox="0 0 1200 223" fill="none" xmlns="http://www.w3.org/2000/svg">
<path d="M591.6 6.85297C534 -0.601033 480.118 -1.54348 433.178 1.95606C386.652 5.42472 345.71 14.089 316.45 29.2245C286.896 44.5128 264.904 69.2795 269.127 104.193C272.215 129.716 289.205 155.984 317.59 183.054L353.219 219.3C356.707 218.284 360.726 216.759 364.436 214.293C368.112 211.85 372.962 207.467 375.143 200.376C377.465 192.823 375.635 185.944 372.988 181.113C370.532 176.63 367.091 173.255 364.127 170.823C324.573 138.373 310.665 114.512 308.837 99.4029C307.442 87.8684 312.87 76.058 334.851 64.6877C357.127 53.1644 391.837 45.0888 436.155 41.7847C480.059 38.5115 531.771 40.0317 586.92 46.5187C697.381 59.5121 819.737 92.2 918.777 144.275C937.493 154.115 1021.4 211.939 1038 223H1104C1073.97 197.82 974.155 128.253 937.415 108.935C833.08 54.0768 705.749 20.2802 591.6 6.85297Z" fill="#FFB1F3"/>
</svg>
