<svg width="360" height="129" viewBox="0 0 360 129" fill="none" xmlns="http://www.w3.org/2000/svg">
<g clip-path="url(#clip0_6010_292)">
<path d="M106.976 1.13153C134.219 -0.892865 165.491 -0.347683 198.92 3.96427C265.17 11.7316 339.069 31.2821 399.623 63.0164C420.946 74.1911 440.57 87.2459 458 101.812H419.695C410.061 95.4131 399.668 89.1519 388.806 83.4594C331.325 53.3354 260.313 34.4263 196.204 26.91C164.197 23.1574 134.184 22.278 108.704 24.1714C82.9828 26.0827 62.8378 30.7543 49.9091 37.4202C37.1521 43.9977 34.0017 50.8297 34.8114 57.5021C35.8723 66.2426 43.9442 80.0451 66.9004 98.8166C68.6209 100.224 70.6179 102.176 72.0433 104.769C73.5792 107.564 74.6412 111.544 73.2936 115.912C72.028 120.015 69.2131 122.55 67.0801 123.963C64.9269 125.39 62.5943 126.272 60.5695 126.86C52.8991 129.087 41.0903 129.421 27.5522 128.57C-0.343348 126.816 -41.4939 119.571 -86.9185 105.272C-90.6478 104.098 -94.2072 103.085 -98 101.812H-3.97912C8.52235 103.861 19.6701 104.924 29.0161 105.512C33.114 105.769 36.7375 105.885 39.8914 105.892C23.4175 90.2328 13.5567 75.0377 11.7647 60.2728C9.31357 40.0765 22.0773 25.7496 39.23 16.9057C56.2115 8.15013 79.9733 3.13807 106.976 1.13153Z" fill="#FFB1F3"/>
</g>
<defs>
<clipPath id="clip0_6010_292">
<rect width="360" height="129" fill="white"/>
</clipPath>
</defs>
</svg>
