<svg width="150" height="90" viewBox="0 0 150 90" fill="none" xmlns="http://www.w3.org/2000/svg">
<path d="M120.951 1.71627C114.905 1.47704 108.514 2.30338 103.051 5.56197C97.1215 9.09872 93.4599 14.8071 92.2618 21.6723C91.1487 28.0511 92.2004 35.0284 94.4248 42.1196C96.687 49.3306 100.425 57.4801 105.578 66.5737C105.794 66.9551 105.99 67.3149 106.168 67.6518C103.891 67.3652 100.95 66.7713 97.3086 65.7475L111.734 89.9077C117.567 89.4661 126.358 86.8207 129.061 77.1655C131.188 69.5648 127.939 61.6966 124.441 55.5239C119.763 47.2671 116.802 40.6086 115.166 35.393C113.493 30.0584 113.444 26.9892 113.697 25.5395C113.865 24.578 114.035 24.6723 114.067 24.6538C114.566 24.3567 116.267 23.6826 120.105 23.8344C126.963 24.1059 137.108 26.8494 150 32.4292V8.60006C139.283 4.55493 129.381 2.04996 120.951 1.71627Z" fill="#FFB1F3"/>
</svg>
