<svg width="191" height="231" viewBox="0 0 191 231" fill="none" xmlns="http://www.w3.org/2000/svg">
<path d="M132.577 0C102.976 17.9565 77.682 38.736 59.1093 59.2182C45.4771 74.2521 36.0728 88.4922 31.2022 100.598C26.2364 112.94 26.7196 121.038 29.2038 125.833C31.4972 130.259 37.4737 135.594 52.8046 137.816C68.1441 140.039 90.7503 138.729 122.177 131.71C133.44 129.195 143.13 127.597 151.264 126.945C159.207 126.308 166.552 126.491 172.681 128.167C178.911 129.871 185.97 133.807 188.867 141.993C191.508 149.455 189.263 156.723 186.797 161.848C181.803 172.226 170.894 184.086 157.271 196.396C145.651 206.895 131.087 218.562 114.234 231H69.1234C75.7315 226.467 82.086 222.016 88.1616 217.661C109.186 202.592 126.665 188.836 139.712 177.048C151.45 166.442 158.614 158.286 161.977 152.794C159.874 152.658 157.05 152.667 153.36 152.963C146.849 153.485 138.438 154.826 127.891 157.182C94.9992 164.528 68.8596 166.518 49.0442 163.646C29.2206 160.773 13.6321 152.615 5.96649 137.82C-1.50835 123.394 0.62189 106.542 6.92574 90.8735C13.3248 74.9688 24.8127 58.1367 39.7116 41.706C52.4335 27.676 68.0865 13.4772 86.0279 0H132.577Z" fill="white"/>
</svg>
