<svg width="400" height="270" viewBox="0 0 400 270" fill="none" xmlns="http://www.w3.org/2000/svg">
<path d="M366.602 37.3027C358.221 25.654 348.256 13.1507 336.808 0H282.525C303.874 22.1395 321.208 42.7004 334.131 60.6631C343.925 74.2764 350.841 85.9238 355.068 95.252C357.335 100.253 358.557 104.004 359.195 106.656C356.104 106.285 351.478 105.327 344.954 103.124C312.824 92.2752 288.287 84.876 269.91 80.46C252.535 76.2846 237.711 73.9759 226.75 75.8418C220.913 76.8355 212.534 79.6333 207.094 87.7607C201.602 95.9654 202.392 104.672 203.642 109.899C205.908 119.382 212.588 129.311 217.764 136.688C230.298 154.553 244.453 171.704 251.735 188.655C255.205 196.732 255.794 202.062 255.217 205.338C254.822 207.578 253.596 210.942 247.062 214.939C231.923 224.201 206.4 226.747 173.883 222.338L168.509 261.976C203.287 266.691 240.576 265.799 267.937 249.062C282.652 240.059 291.918 227.543 294.608 212.283C297.116 198.06 293.386 184.269 288.487 172.866C279.893 152.859 263.596 131.825 253.379 117.727C255.561 118.188 257.952 118.725 260.564 119.353C277.219 123.355 300.444 130.314 332.158 141.022C346.361 145.818 360.635 148.531 372.955 145.711C379.611 144.187 386.24 140.907 391.388 135.051C396.511 129.223 398.86 122.33 399.577 115.822C400.912 103.711 396.902 90.6567 391.502 78.7412C385.829 66.2229 377.341 52.2303 366.602 37.3027Z" fill="#FFB1F3"/>
</svg>
