<svg width="400" height="270" viewBox="0 0 400 270" fill="none" xmlns="http://www.w3.org/2000/svg">
<path d="M336.808 0C348.256 13.1507 358.221 25.654 366.602 37.3027C377.341 52.2303 385.829 66.2229 391.502 78.7412C396.902 90.6567 400.912 103.711 399.577 115.822C398.86 122.33 396.511 129.223 391.388 135.051C386.24 140.907 379.611 144.187 372.955 145.711C360.635 148.531 346.361 145.818 332.158 141.022C300.444 130.314 277.219 123.355 260.564 119.353C257.952 118.725 255.561 118.188 253.379 117.727C263.596 131.825 279.892 152.859 288.487 172.866C293.386 184.269 297.116 198.06 294.608 212.283C291.918 227.543 282.652 240.059 267.937 249.062C240.576 265.799 203.287 266.691 168.509 261.976C132.794 257.133 95.2691 245.738 63.9893 233.188C49.6683 227.441 9 211 0 198H100C117 211 161.75 220.693 173.883 222.338C206.4 226.747 231.923 224.201 247.062 214.939C253.596 210.942 254.822 207.578 255.217 205.338C255.794 202.062 255.205 196.732 251.735 188.655C244.453 171.704 230.298 154.553 217.764 136.688C212.588 129.311 205.908 119.382 203.642 109.899C202.392 104.672 201.602 95.9654 207.094 87.7607C212.534 79.6333 220.913 76.8355 226.75 75.8418C237.711 73.9759 252.535 76.2846 269.91 80.46C288.287 84.876 312.824 92.2752 344.954 103.124C351.478 105.327 356.104 106.285 359.195 106.656C358.557 104.004 357.335 100.253 355.068 95.252C350.841 85.9238 343.925 74.2764 334.131 60.6631C321.208 42.7004 303.874 22.1395 282.525 0H336.808Z" fill="#FFB1F3"/>
</svg>
