<svg width="1200" height="223" viewBox="0 0 1200 223" fill="none" xmlns="http://www.w3.org/2000/svg">
<path d="M308.837 99.4029C307.442 87.8684 312.87 76.058 334.851 64.6876L316.45 29.2245C286.896 44.5128 264.904 69.2795 269.127 104.193C272.215 129.716 289.205 155.984 317.59 183.054C312.156 183.042 305.912 182.841 298.852 182.396C282.748 181.38 176 170.823 130 149.5L26 146.5C32.5351 148.702 33.5 161.265 99.0937 181.981C177.361 206.701 248.265 219.224 296.329 222.257C319.656 223.728 340.002 223.15 353.219 219.3C356.707 218.284 360.727 216.759 364.437 214.293C368.112 211.85 372.962 207.467 375.143 200.376C377.465 192.823 375.635 185.944 372.988 181.113C370.532 176.63 367.091 173.255 364.127 170.823C324.573 138.373 310.665 114.512 308.837 99.4029Z" fill="#FFB1F3"/>
</svg>
