<svg width="350" height="270" viewBox="0 0 350 270" fill="none" xmlns="http://www.w3.org/2000/svg">
<path d="M267.339 49.9561C261.662 37.7794 251.825 27.6894 238.225 19.749L148.633 50.0908C179.3 43.9042 202.866 45.423 218.058 54.292C226.081 58.9764 229.498 63.4553 231.084 66.8564C232.697 70.3175 233.277 74.5219 232.502 80.04C230.785 92.258 223.505 105.525 215.703 119.742L215.599 119.932L215.441 120.219C212.179 126.163 207.973 133.826 205.967 140.585C204.971 143.94 203.539 150.079 205.333 156.863C207.611 165.476 213.935 171.226 221.201 173.737C227.106 175.778 233.082 175.554 237.494 175.051C242.296 174.503 247.647 173.313 253.426 171.699C265.006 168.466 280.47 162.913 300.644 154.854C302.179 154.24 303.616 153.694 304.959 153.212C304.027 155.051 302.936 157.085 301.655 159.317C296.021 169.133 287.851 181.014 277.444 194.424C259.745 217.232 236.39 243.428 209.939 270H265.391C281.935 252.119 296.731 234.815 309.045 218.947C320.126 204.667 329.48 191.194 336.347 179.23C342.869 167.868 348.425 155.732 349.584 144.674C350.186 138.93 349.836 131.312 345.569 124.172C340.928 116.405 333.556 112.33 326.325 110.789C319.654 109.367 312.8 109.965 306.631 111.202C300.26 112.48 293.287 114.719 285.804 117.708C273.952 122.443 264.23 126.099 256.308 128.84C262.615 116.963 269.88 101.497 272.112 85.6045C273.678 74.4573 272.987 62.0728 267.339 49.9561Z" fill="white"/>
</svg>
