<svg width="270" height="230" viewBox="0 0 270 230" fill="none" xmlns="http://www.w3.org/2000/svg">
<path d="M143.492 0C150.021 5.25263 156.71 10.9714 163.407 17.1338C195.951 47.0771 230.456 89.0355 247.902 141.101C252.12 153.687 254.837 167.135 251.084 178.812C248.944 185.472 244.758 191.323 238.519 195.276C232.656 198.991 226.396 200.139 221.251 200.327C211.473 200.684 201.052 197.699 192.314 194.536C183.079 191.194 173.232 186.695 163.927 182.226C152.841 176.901 142.959 171.893 134.549 167.938C135.326 171.824 135.83 175.613 136.036 179.284C136.569 188.784 135.166 198.924 129.742 207.626C123.921 216.965 114.745 222.55 104.319 224.152C94.5822 225.649 84.6186 223.607 75.4132 219.988C57.8891 213.1 20.7381 189.487 0 167.938H61.543C65.7169 170.548 86.8372 181.5 90.047 182.762C92.7566 183.827 94.7429 184.301 96.0861 184.504C96.145 183.749 96.1686 182.768 96.0988 181.523C95.8562 177.2 94.5612 170.938 91.3829 162.696C89.5378 157.911 87.9007 152.334 87.8185 146.597C87.7311 140.486 89.5071 132.053 96.9503 125.938C103.646 120.437 111.295 119.919 115.707 120.089C120.441 120.271 125.061 121.382 128.934 122.562C143.406 126.974 164.543 138.147 181.245 146.169C190.286 150.511 198.656 154.293 205.927 156.925C208.019 157.682 209.866 158.283 211.481 158.758C211.096 157.33 210.604 155.687 209.975 153.809C195.421 110.374 165.977 73.8541 136.323 46.5703C109.393 21.7922 83.6976 5.9083 71.6837 0H143.492Z" fill="white"/>
</svg>
