<svg width="270" height="230" viewBox="0 0 270 230" fill="none" xmlns="http://www.w3.org/2000/svg">
<path d="M163.407 17.1338C156.71 10.9714 150.021 5.25263 143.492 0H71.6837C83.6976 5.9083 109.393 21.7922 136.323 46.5703C165.977 73.8541 195.421 110.374 209.975 153.809C210.604 155.687 211.096 157.33 211.481 158.758C209.866 158.283 208.019 157.682 205.927 156.925C198.656 154.293 190.286 150.511 181.245 146.169C164.543 138.147 143.406 126.974 128.934 122.562C125.061 121.382 120.441 120.271 115.707 120.089C111.295 119.919 103.646 120.437 96.9503 125.938C89.5071 132.053 87.7311 140.486 87.8185 146.597C87.9007 152.334 89.5378 157.911 91.3829 162.696C94.5612 170.938 95.8562 177.2 96.0988 181.523C96.1686 182.768 96.1451 183.749 96.0861 184.504C94.7429 184.301 92.7566 183.827 90.047 182.762L75.4132 219.988C84.6186 223.607 94.5822 225.649 104.319 224.152C114.745 222.55 123.921 216.965 129.742 207.626C135.166 198.924 136.569 188.784 136.036 179.284C135.83 175.613 135.326 171.824 134.549 167.938C142.959 171.893 152.841 176.901 163.927 182.226C173.232 186.695 183.079 191.194 192.314 194.536C201.052 197.699 211.473 200.684 221.251 200.327C226.396 200.139 232.656 198.991 238.519 195.276C244.758 191.323 248.944 185.472 251.084 178.812C254.837 167.135 252.12 153.687 247.902 141.101C230.456 89.0355 195.951 47.0771 163.407 17.1338Z" fill="white"/>
</svg>
