<svg width="120" height="120" viewBox="0 0 120 120" fill="none" xmlns="http://www.w3.org/2000/svg">
<path d="M77.6082 10.9229C103.772 18.781 118.582 46.265 110.688 72.3098C107.737 82.0481 102.028 90.2055 94.67 96.1931C94.0858 96.8476 93.582 97.3815 93.1916 97.7507C89.3823 101.353 85.107 104.056 80.5633 105.956L79.6502 106.325C68.9465 110.517 56.7955 110.381 45.7675 107.069C32.4663 103.074 22.6375 95.4494 16.0994 82.818C15.802 82.2436 15.516 81.6861 15.238 81.1432C15.0232 80.7024 14.8098 80.2565 14.5989 79.8059L14.5681 79.8192C13.5907 77.8541 12.7548 76.006 12.0834 73.9807C10.8856 70.3701 8.8651 63.9992 10.3036 53.4863L10.3041 53.4844L10.4963 52.2419C11.0015 49.2922 11.8634 46.1003 12.3241 44.5803C16.116 32.0696 23.7538 21.4132 33.8503 14.912C38.3243 12.0307 45.0088 9.94021 52.4492 9.13235C55.5756 8.79291 58.8051 8.6838 62.0221 8.82876C67.1641 8.69585 72.4147 9.363 77.6082 10.9229Z" fill="white"/>
<path fill-rule="evenodd" clip-rule="evenodd" d="M77.4499 2.53763C93.0515 7.22375 104.719 16.6449 112.49 31.3246L112.491 31.3259C117.995 41.7283 121.525 60.2923 116.778 75.9529C115.966 78.6309 114.286 82.7755 112.448 86.4663C112.416 86.5316 112.382 86.5959 112.347 86.6593C110.879 89.5395 108.321 93.1845 106.011 96.2092C103.646 99.3042 100.998 102.459 99.2556 104.106L99.2549 104.105C98.4516 104.865 97.6333 105.584 96.8078 106.269C96.7212 106.35 96.6333 106.43 96.5406 106.505C96.5341 106.511 96.4761 106.561 96.2314 106.774C96.009 106.967 95.7098 107.227 95.343 107.533C94.6079 108.148 93.6126 108.945 92.3742 109.838C89.9025 111.62 86.4495 113.792 82.1228 115.67C73.4234 119.445 61.212 122.014 46.5664 117.899C36.1821 114.98 28.0594 110.645 21.5169 104.704C15.4149 99.1637 10.9905 92.5019 7.33676 85.0159C6.12022 82.6378 4.90295 80.1385 3.91603 77.3038L3.72037 76.7292C2.30299 72.4567 -0.111399 64.6487 1.57753 52.3041C1.58163 52.2741 1.58587 52.2436 1.59052 52.2137L1.7997 50.8676C1.80353 50.843 1.80771 50.8179 1.81191 50.7933C2.40209 47.3387 3.37534 43.7591 3.89381 42.0483C8.14337 28.0277 16.7318 15.709 28.5048 7.9189L29.0676 7.55062C35.0525 3.69652 43.19 1.31975 51.4954 0.417962C59.8795 -0.492162 69.0918 0.0273395 77.4499 2.53763ZM75.9914 7.34972C68.3896 5.06661 59.8736 4.5652 52.043 5.41524C44.2336 6.26316 36.9284 8.47505 31.8098 11.7714C20.8748 18.8126 12.7438 30.2503 8.72782 43.5002C8.24595 45.0902 7.33274 48.4551 6.78932 51.6361L6.58014 52.9822C5.03489 64.2764 7.22355 71.2605 8.51504 75.1536C9.41475 77.8675 10.5779 80.2779 11.8574 82.7775C15.3299 89.9011 19.416 95.9935 24.9199 100.991C30.7881 106.319 38.1757 110.318 47.9378 113.061C74.5584 120.542 91.9546 103.737 93.3578 102.603L93.3516 102.596C94.1773 101.919 94.9881 101.209 95.7785 100.462C97.2112 99.1069 99.6561 96.2233 101.991 93.1666C104.326 90.1107 106.699 86.6883 107.922 84.2332L107.924 84.2338C109.672 80.7235 111.234 76.8449 111.944 74.501C116.254 60.2819 113.002 43.0783 108.023 33.6683C100.888 20.1891 90.3095 11.6503 75.9914 7.34972Z" fill="white"/>
<path d="M69.5119 78.7983C70.394 78.2539 71.5521 78.5232 72.0996 79.4008C72.6466 80.2785 72.3756 81.4318 71.4938 81.9766L70.5024 80.3873L71.4913 81.9779L71.4864 81.9805C71.4844 81.9818 71.4812 81.9839 71.4788 81.9854C71.4735 81.9886 71.4669 81.9928 71.4597 81.9971C71.4443 82.0063 71.4234 82.0185 71.3996 82.0324C71.3516 82.0603 71.2868 82.0979 71.2054 82.1423C71.0412 82.232 70.8089 82.3519 70.5128 82.4915C69.9208 82.7707 69.069 83.1271 67.9807 83.4672C65.8022 84.1479 62.6731 84.7629 58.7892 84.5549C51.0867 84.1424 44.846 80.5069 41.2828 74.0536C40.783 73.1483 41.1166 72.0116 42.026 71.5139C42.9361 71.0164 44.0799 71.3464 44.5799 72.2519C47.4587 77.4654 52.461 80.47 58.9918 80.8198C62.3633 81.0003 65.0401 80.4647 66.8534 79.8981C67.7604 79.6147 68.4512 79.3237 68.9026 79.1109C69.1279 79.0047 69.2942 78.9181 69.3966 78.8622C69.4475 78.8344 69.4831 78.8138 69.5023 78.8026L69.5124 78.7964L69.5119 78.7983Z" fill="black"/>
<path d="M31.2301 31.4997C34.3767 32.3629 38.5756 33.581 42.7585 34.9936C46.9216 36.3996 51.1524 38.0264 54.3208 39.7186C55.343 40.2645 56.2983 40.8417 57.123 41.4462C57.1842 41.4853 57.2441 41.5278 57.3016 41.5747C57.5775 41.8 58.4806 42.2937 59.9769 42.9083C61.3929 43.4899 63.1461 44.1029 64.9401 44.6159C66.6388 45.1015 68.1481 45.2564 69.2239 45.2895C69.7596 45.3059 70.1836 45.2909 70.4648 45.2742C70.6051 45.2659 70.7107 45.2577 70.7748 45.2514C70.8065 45.2482 70.8295 45.2458 70.8408 45.2445L71.0336 45.2275C71.0563 45.2268 71.0789 45.2283 71.1014 45.2284C71.1398 45.2234 71.1782 45.218 71.2162 45.2136C72.6237 45.0495 74.3062 45.1752 76.0701 45.452C79.6222 46.0097 83.9809 47.2582 88.1515 48.6421C92.3415 50.0324 96.426 51.5885 99.4569 52.7933C100.973 53.3962 102.23 53.9131 103.109 54.2795C103.548 54.4627 103.893 54.6078 104.129 54.708C104.247 54.758 104.338 54.7966 104.4 54.823C104.43 54.8362 104.455 54.8477 104.471 54.8546C104.477 54.8575 104.483 54.8598 104.487 54.8616L104.492 54.8642L104.496 54.8653C104.988 55.0781 105.364 55.4901 105.532 55.9969C105.678 56.4408 105.652 56.9203 105.463 57.3428L105.373 57.5199L105.37 57.5231C105.369 57.5251 105.367 57.5283 105.365 57.531C105.362 57.5367 105.359 57.5448 105.353 57.5541C105.342 57.5736 105.323 57.6014 105.302 57.6363C105.26 57.7066 105.199 57.8087 105.12 57.9364C104.961 58.1918 104.731 58.5568 104.431 59.006C103.832 59.905 102.956 61.1486 101.846 62.5407C99.642 65.3047 96.4377 68.7461 92.5418 71.2059C84.6408 76.1929 77.073 72.0038 72.4959 69.8207C67.7117 67.5384 65.392 63.9927 64.7124 60.1681C63.9898 56.1075 65.1412 51.9268 66.6439 48.8032C65.8014 48.6775 64.8769 48.4906 63.9013 48.2117C62.5459 47.8242 61.2095 47.3814 59.9953 46.9313L59.9734 47.0889C59.3966 50.6574 57.7666 55.202 54.43 58.2743C51.5652 60.9122 47.5615 62.3404 42.3645 61.2815C37.3938 60.2683 28.8188 59.0539 25.5558 50.3289C23.9455 46.026 23.4812 41.3571 23.404 37.8295C23.3652 36.053 23.4242 34.5355 23.493 33.4591C23.5274 32.9206 23.5643 32.4893 23.5931 32.1903C23.6075 32.042 23.621 31.9256 23.63 31.8444C23.6345 31.8039 23.6389 31.771 23.6416 31.7484C23.6429 31.737 23.6431 31.727 23.6439 31.7203C23.6442 31.7176 23.644 31.7132 23.644 31.7132L23.6452 31.7094L25.5113 31.9373L25.9588 30.1214L25.9638 30.1218C25.9682 30.1229 25.9754 30.1258 25.9837 30.1278C26.0006 30.1319 26.0261 30.1382 26.0585 30.1462C26.1236 30.1622 26.2194 30.1854 26.3435 30.2163C26.5923 30.2783 26.9567 30.3694 27.418 30.4876C28.3405 30.7241 29.6555 31.0678 31.2301 31.4997Z" fill="black"/>
<path d="M25.5113 31.9373L23.6457 31.7075C23.7118 31.1779 24.0024 30.7012 24.4439 30.398C24.8853 30.0952 25.436 29.9943 25.9569 30.1208L25.5113 31.9373Z" fill="black"/>
<path d="M70.8408 45.2445L70.8423 45.2429L70.8442 45.2435L70.8467 45.2422L70.8486 45.2427C70.8486 45.2427 70.8444 45.2441 70.8408 45.2445Z" fill="black"/>
<path d="M89.1081 39.8735C92.2372 40.2027 95.7108 41.021 98.1955 43.1075C98.9884 43.7737 99.0881 44.9531 98.4192 45.7425C97.7496 46.5321 96.563 46.6331 95.7695 45.9668C94.166 44.6203 91.629 43.9007 88.7131 43.5939C85.8493 43.2926 82.9431 43.4165 80.812 43.5065C79.7749 43.5503 78.8975 42.7499 78.853 41.7181C78.809 40.6859 79.6149 39.8132 80.6523 39.7694C82.752 39.6807 85.9268 39.5388 89.1081 39.8735Z" fill="black"/>
<path fill-rule="evenodd" clip-rule="evenodd" d="M45.3765 26.7608C47.7753 27.446 50.1156 28.4194 51.8775 29.245C52.7621 29.6595 53.5149 30.0438 54.0721 30.345C54.3496 30.4949 54.5875 30.6294 54.7729 30.74C54.8645 30.7947 54.954 30.8498 55.034 30.9025C55.0802 30.933 55.2319 31.0337 55.3748 31.1659C56.1345 31.8698 56.1777 33.0525 55.4705 33.8087C54.8034 34.5216 53.709 34.5984 52.9489 34.015C52.9291 34.0022 52.8934 33.9805 52.8393 33.9482C52.7128 33.8728 52.5239 33.7651 52.2774 33.6318C51.7864 33.3665 51.0964 33.0157 50.2737 32.6301C48.6203 31.8554 46.478 30.9669 44.338 30.3557C42.1984 29.7446 40.0695 29.4055 38.4574 29.2222C37.6551 29.131 36.9905 29.0792 36.5292 29.0526C36.2985 29.0394 36.1225 29.032 36.0105 29.0292C35.9535 29.0278 35.9214 29.0283 35.9118 29.0283C35.1232 29.0611 34.3684 28.5951 34.0748 27.8203C33.7092 26.8532 34.2 25.7732 35.1718 25.4094L35.3813 25.344C35.4392 25.3297 35.4825 25.3233 35.5021 25.3198C35.5596 25.3094 35.6066 25.3028 35.6339 25.2998C35.6889 25.2938 35.7355 25.2912 35.7586 25.2901C35.8079 25.2876 35.8537 25.2879 35.884 25.2877C35.9494 25.2872 36.0251 25.286 36.1036 25.288C36.2648 25.292 36.4823 25.3014 36.7455 25.3165C37.2737 25.3469 38.009 25.4037 38.8849 25.5033C40.6307 25.7019 42.9768 26.0754 45.3765 26.7608ZM35.985 29.0216C36.0015 29.0204 36.023 29.0212 36.0467 29.0186C36.0588 29.0172 36.0763 29.0142 36.0974 29.0112C36.0601 29.0165 36.0222 29.0186 35.985 29.0216ZM36.1428 29.0043C36.1514 29.0029 36.1615 29.0021 36.1708 29.0004C36.1784 28.999 36.1896 28.9949 36.2043 28.992C36.1838 28.9961 36.1632 29.0009 36.1428 29.0043Z" fill="black"/>
<path fill-rule="evenodd" clip-rule="evenodd" d="M76.0064 7.32415C90.3376 11.6269 100.925 20.1695 108.067 33.6555C113.051 43.0702 116.306 60.282 111.992 74.5081C111.281 76.8531 109.718 80.7336 107.968 84.2456L107.966 84.245C106.742 86.7013 104.367 90.1253 102.03 93.1827C99.6926 96.2409 97.2455 99.1259 95.8115 100.481C95.0204 101.229 94.2089 101.939 93.3825 102.616L93.3886 102.623C91.9841 103.758 74.5721 120.571 47.9272 113.087C38.1562 110.342 30.7621 106.342 24.8884 101.011C19.3794 96.011 15.2898 89.9158 11.8141 82.7886C10.5334 80.2877 9.36922 77.8763 8.46866 75.1609C7.176 71.2661 4.98529 64.2788 6.53199 52.9788L6.74136 51.6321C7.28528 48.4494 8.19931 45.083 8.68162 43.4922C12.7012 30.2358 20.8396 18.7926 31.7846 11.748C36.9079 8.45 44.2196 6.23706 52.0362 5.38873C59.874 4.53827 68.3977 5.03986 76.0064 7.32415ZM74.9203 10.9058C67.8747 8.79058 59.8688 8.30174 52.4428 9.10765C44.9956 9.91589 38.305 12.0074 33.827 14.8901C23.7212 21.3946 16.0765 32.056 12.2811 44.5729C11.8201 46.0936 10.9574 49.2869 10.4518 52.2382L10.2594 53.4813L10.2588 53.4832C8.81899 64.0015 10.8414 70.3753 12.0402 73.9875C12.7123 76.0139 13.5489 77.8627 14.5272 79.8288L14.558 79.8155C14.7692 80.2665 14.9827 80.7124 15.1978 81.1535C15.476 81.6968 15.7622 82.2543 16.0599 82.8291C22.604 95.4667 32.4416 103.095 45.755 107.092C56.7931 110.406 68.9551 110.542 79.6685 106.347L80.5825 105.979C85.1303 104.077 89.4095 101.373 93.2222 97.769C94.4251 96.6322 96.7211 93.9479 99.0371 90.9176C101.354 87.8864 103.542 84.6999 104.598 82.5823L105.217 81.3053C106.635 78.3089 107.836 75.2613 108.392 73.4275C112.381 60.2748 109.332 44.077 104.74 35.4009C98.071 22.8084 88.2955 14.9215 74.9203 10.9058Z" fill="black"/>
</svg>
