<svg width="164" height="252" viewBox="0 0 164 252" fill="none" xmlns="http://www.w3.org/2000/svg">
<g clip-path="url(#clip0_4002_8987)">
<path d="M82.746 22.4187C105.758 22.4187 124.479 41.2772 124.479 64.4577V142.93C124.479 166.111 105.758 184.969 82.746 184.969C59.7344 184.969 41.0132 166.111 41.0132 142.93V64.4577C41.0133 41.2773 59.7344 22.4188 82.746 22.4187Z" fill="#C60E14"/>
<path fill-rule="evenodd" clip-rule="evenodd" d="M82.746 11.2116C111.892 11.2116 135.605 35.0976 135.605 64.4577V142.93C135.605 172.291 111.892 196.176 82.746 196.176C53.5998 196.176 29.8878 172.291 29.8878 142.93V64.4577C29.8879 35.0977 53.5998 11.2118 82.746 11.2116ZM82.746 16.8129C56.6671 16.813 35.4483 38.1875 35.4482 64.4577V142.926C35.4482 169.196 56.6671 190.571 82.746 190.571V190.576C108.825 190.576 130.044 169.201 130.044 142.93V64.4577C130.044 38.1874 108.825 16.8129 82.746 16.8129Z" fill="#C60E14"/>
<path fill-rule="evenodd" clip-rule="evenodd" d="M82.746 0C118.086 0 146.735 28.8587 146.735 64.4577V142.93C146.735 178.53 118.086 207.389 82.746 207.389C47.4063 207.388 18.7578 178.529 18.7578 142.93V64.4577C18.7579 28.8588 47.4064 0.00010862 82.746 0ZM82.746 5.60582C50.5325 5.60594 24.3229 32.0079 24.3228 64.4577V142.93C24.3228 175.38 50.5325 201.782 82.746 201.782C114.96 201.782 141.17 175.38 141.17 142.93V64.4577C141.17 32.0078 114.96 5.60582 82.746 5.60582Z" fill="#C60E14"/>
<path d="M82.7484 22.4187C105.76 22.4187 124.482 41.2772 124.482 64.4577V142.93C124.482 166.111 105.76 184.969 82.7484 184.969C59.7368 184.969 41.0156 166.111 41.0156 142.93V64.4577C41.0157 41.2773 59.7369 22.4188 82.7484 22.4187Z" fill="url(#paint0_linear_4002_8987)"/>
<path d="M108.584 142.329L108.622 146.905V146.952H108.612L108.604 146.957H108.57L105.988 147.337C105.942 147.638 105.891 147.939 105.872 148.066C105.83 148.329 105.788 148.593 105.736 148.856C105.69 149.119 105.634 149.383 105.578 149.646C105.522 149.905 105.456 150.169 105.391 150.427C105.325 150.686 105.251 150.944 105.177 151.203C105.102 151.461 105.022 151.715 104.938 151.969C104.854 152.223 104.765 152.478 104.672 152.727C104.579 152.976 104.481 153.221 104.383 153.465L106.483 155.083L106.507 155.101L106.512 155.111H106.517L106.507 155.121V155.129L106.493 155.158L104.019 159.555L104.005 159.583L103.995 159.593V159.602L103.986 159.597H103.977L103.948 159.583L101.483 158.596C101.325 158.812 101.161 159.019 100.998 159.226C100.83 159.433 100.662 159.64 100.489 159.842C100.317 160.044 100.139 160.246 99.957 160.444C99.7797 160.641 99.5929 160.834 99.4062 161.027C99.2195 161.22 99.0274 161.408 98.8359 161.591C98.6446 161.775 98.4488 161.959 98.248 162.137C98.0475 162.316 97.8468 162.49 97.6416 162.659C97.441 162.828 97.2354 162.993 97.0254 163.153L98.043 165.618L98.0566 165.645V165.665L98.0518 165.673H98.0469L98.0195 165.688L93.6914 168.25L93.6631 168.265L93.6592 168.274H93.6543L93.6494 168.26H93.6445L93.626 168.237L91.9824 166.139C91.7446 166.243 91.5021 166.346 91.2549 166.44C91.0076 166.539 90.7598 166.628 90.5078 166.717C90.2557 166.807 90.0029 166.891 89.7461 166.971C89.4941 167.051 89.2372 167.127 88.9805 167.198C88.7239 167.268 88.4673 167.334 88.2061 167.395C87.9493 167.461 87.6872 167.517 87.4258 167.569C87.1645 167.621 86.9029 167.672 86.6416 167.714C86.3849 167.757 86.1237 167.8 85.8623 167.833L85.5166 170.485V170.537H85.4697L80.4512 170.579H80.3994V170.57L80.3955 170.56V170.527L80.0078 167.865C79.7465 167.832 79.4851 167.795 79.2285 167.757C78.9671 167.715 78.7048 167.668 78.4434 167.621C78.1821 167.569 77.9207 167.513 77.6641 167.457C77.4026 167.4 77.1454 167.334 76.8887 167.268C76.6274 167.202 76.3757 167.126 76.1191 167.051C75.8624 166.971 75.6095 166.892 75.3574 166.807C75.1054 166.723 74.8577 166.633 74.6104 166.539C74.3631 166.445 74.1205 166.346 73.8779 166.248L72.2578 168.382L72.2393 168.406L72.2344 168.42H72.2295L72.2246 168.411H72.2158L72.1875 168.397L67.8223 165.904L67.7949 165.89L67.7852 165.88H67.7754L67.7803 165.872V165.862L67.79 165.833L68.7842 163.318C68.5741 163.163 68.3685 162.998 68.1631 162.833C67.9578 162.664 67.7573 162.495 67.5566 162.321C67.356 162.142 67.1598 161.968 66.9639 161.785C66.7725 161.601 66.5764 161.417 66.3896 161.229C66.203 161.041 66.016 160.849 65.834 160.656C65.6519 160.463 65.4743 160.265 65.2969 160.063C65.1242 159.865 64.9513 159.663 64.7832 159.457C64.6151 159.254 64.4517 159.047 64.293 158.84L61.8096 159.879L61.7812 159.894L61.7725 159.899H61.7627L61.7529 159.894V159.884L61.7393 159.856L59.1953 155.497L59.1807 155.468V155.455L59.1855 155.445H59.1904L59.2139 155.426L61.2822 153.78C61.1422 153.413 60.9599 152.91 60.8945 152.736C60.8012 152.487 60.7071 152.238 60.623 151.984C60.5344 151.73 60.4553 151.471 60.376 151.217C60.2966 150.959 60.2263 150.7 60.1562 150.441C60.0909 150.182 60.0255 149.924 59.9648 149.661C59.9042 149.402 59.8482 149.138 59.7969 148.875C59.7456 148.611 59.6992 148.348 59.6572 148.084C59.6152 147.821 59.5776 147.563 59.5449 147.299L56.9258 146.932H56.875V142.333H64.0508C63.9714 143.006 63.9238 143.688 63.9238 144.379C63.9239 145.644 64.0508 146.881 64.2842 148.081C64.3215 148.264 64.377 148.442 64.4189 148.625C64.489 148.936 64.5634 149.242 64.6475 149.547C64.7782 150.013 64.9372 150.469 65.1006 150.925C65.1613 151.085 65.2081 151.255 65.2734 151.415C65.4835 151.96 65.7171 152.501 65.9785 153.023C66.5294 154.123 67.1873 155.177 67.9482 156.16C68.6952 157.124 69.5404 158.022 70.4834 158.84C71.403 159.635 72.4116 160.355 73.5039 160.98C74.601 161.605 75.7314 162.104 76.8799 162.49C78.0609 162.885 79.2605 163.153 80.4648 163.303C81.6973 163.454 82.9302 163.482 84.1533 163.393C85.3858 163.304 86.6091 163.087 87.7949 162.758C88.9854 162.424 90.1386 161.977 91.2451 161.417C92.3376 160.863 93.3836 160.2 94.3594 159.433C95.3164 158.681 96.2082 157.829 97.0205 156.879C97.8095 155.953 98.5236 154.937 99.1445 153.836C99.6347 152.966 100.026 152.068 100.367 151.156C100.727 150.178 101.03 149.166 101.227 148.118C101.451 146.918 101.563 145.681 101.554 144.412C101.544 143.706 101.497 143.01 101.418 142.329H108.584ZM64.1064 131.22H56.875V95.5396H64.1064V131.22ZM108.624 131.22H101.393V95.5396H108.624V131.22ZM75.2363 123.061H68.0039V77.5132H75.2363V123.061ZM97.4912 123.061H90.2598V77.5132H97.4912V123.061ZM86.3613 117.271H79.1299V63.2212H86.3613V117.271ZM85.9795 45.8481L93.1777 46.897L87.9727 52.019L89.1914 59.2476L82.7529 55.8423L76.3057 59.2476L77.5381 52.019L72.3184 46.897L79.5312 45.8481L82.7529 39.2739L85.9795 45.8481Z" fill="white"/>
<g style="mix-blend-mode:multiply">
<path d="M8.15611 232.074H5.86848C4.79003 232.074 3.80494 231.806 2.9179 231.274C2.03086 230.743 1.32123 230.028 0.793669 229.135C0.266113 228.241 0 227.249 0 226.162C0 225.349 0.154065 224.582 0.457527 223.863C0.760988 223.143 1.18583 222.518 1.72273 221.977C2.25495 221.436 2.87588 221.013 3.58552 220.702C4.29515 220.392 5.05614 220.241 5.86848 220.241H8.15611C9.10852 220.241 9.98622 220.448 10.7892 220.867C11.5922 221.285 12.2692 221.85 12.8154 222.56C13.3616 223.27 13.7305 224.088 13.9172 225.001H11.5455C11.2934 224.272 10.8639 223.684 10.2523 223.232C9.64074 222.781 8.94511 222.555 8.15611 222.555H5.86848C5.37827 222.555 4.91608 222.649 4.4819 222.837C4.04771 223.025 3.66955 223.284 3.34275 223.613C3.01594 223.938 2.75917 224.319 2.57709 224.756C2.39501 225.193 2.30164 225.659 2.30164 226.158C2.30164 226.821 2.46037 227.423 2.78251 227.968C3.10465 228.514 3.53416 228.946 4.07572 229.271C4.61729 229.595 5.21487 229.755 5.87315 229.755H8.16078C8.65099 229.755 9.11785 229.661 9.55204 229.478C9.98622 229.294 10.3644 229.036 10.6865 228.707C11.074 228.316 11.3635 227.851 11.5502 227.319H13.9219C13.6698 228.504 13.1329 229.511 12.3112 230.338C11.7743 230.879 11.1534 231.303 10.4391 231.613C9.72478 231.923 8.96846 232.074 8.15611 232.074Z" fill="#C60E14"/>
<path d="M27.9941 232.074H25.6972V222.56H18.0079V232.074H15.7109V220.246H27.9941V232.074Z" fill="#C60E14"/>
<path d="M43.7398 232.074H41.4429L40.1403 228.735H32.8292L31.5313 232.074H29.2344L33.8377 220.246H39.1319L43.7445 232.074H43.7398ZM39.2439 226.421L37.7406 222.56H35.2289L33.7256 226.421H39.2393H39.2439Z" fill="#C60E14"/>
<path d="M47.5313 232.074H45.2344V220.246H53.7873C54.4783 220.246 55.1039 220.415 55.6688 220.754C56.2337 221.093 56.6819 221.544 57.018 222.113C57.3542 222.682 57.5222 223.312 57.5222 224.008C57.5222 224.526 57.4242 225.015 57.2328 225.466C57.0414 225.918 56.7706 226.322 56.4344 226.67C56.089 227.014 55.6921 227.282 55.2393 227.474C54.7864 227.667 54.3055 227.766 53.792 227.766H47.5407V232.074H47.5313ZM53.7827 225.452C54.1842 225.452 54.5203 225.311 54.8004 225.024C55.0805 224.737 55.2206 224.399 55.2206 223.994C55.2206 223.59 55.0805 223.261 54.8004 222.978C54.5203 222.696 54.1842 222.555 53.7827 222.555H47.5313V225.447H53.7827V225.452Z" fill="#C60E14"/>
<path d="M66.72 232.074H64.4324V222.56H58.5312V220.246H72.6212V222.56H66.72V232.074Z" fill="#C60E14"/>
<path d="M86.7867 232.074H84.4897L83.1872 228.735H75.8761L74.5782 232.074H72.2812L76.8845 220.246H82.1788L86.7914 232.074H86.7867ZM82.2908 226.421L80.7875 222.56H78.2758L76.7725 226.421H82.2861H82.2908Z" fill="#C60E14"/>
<path d="M101.918 232.074H99.6214L97.6045 226.872H90.5782V232.074H88.2812V220.246H90.5782V224.563H92.5624L97.2544 220.246H100.504L95.8024 224.563H98.9864L101.918 232.079V232.074Z" fill="#C60E14"/>
<path d="M116.048 232.074H113.751V223.195L105.899 232.074H103.289V220.246H105.586V229.125L113.429 220.246H116.048V232.074Z" fill="#C60E14"/>
<path d="M131.779 232.074H129.482L128.179 228.735H120.868L119.57 232.074H117.273L121.877 220.246H127.171L131.784 232.074H131.779ZM127.283 226.421L125.78 222.56H123.268L121.765 226.421H127.278H127.283Z" fill="#C60E14"/>
<path d="M148.598 234.059H146.311V232.064H134.649V234.059H132.352V229.751H134.681L138.383 220.246H146.558V229.751H148.603V234.059H148.598ZM144.257 229.751V222.551H139.775L136.969 229.751H144.257Z" fill="#C60E14"/>
<path d="M163.998 232.074H161.701L160.398 228.735H153.087L151.789 232.074H149.492L154.095 220.246H159.39L164.002 232.074H163.998ZM159.502 226.421L157.998 222.56H155.487L153.983 226.421H159.497H159.502Z" fill="#C60E14"/>
<path d="M43.609 252H41.3214V243.765L37.9506 249.164H34.776L31.5079 243.925V252H29.2109V240.172H31.8207L35.8918 246.85H36.8348L41.0039 240.172H43.6137V252H43.609Z" fill="#C60E14"/>
<path d="M53.328 252H51.0404C49.9619 252 48.9768 251.732 48.0898 251.2C47.2027 250.669 46.4931 249.954 45.9655 249.061C45.438 248.167 45.1719 247.175 45.1719 246.088C45.1719 245.275 45.3259 244.508 45.6294 243.789C45.9329 243.069 46.3577 242.444 46.8946 241.903C47.4268 241.362 48.0478 240.939 48.7574 240.628C49.467 240.318 50.228 240.167 51.0404 240.167H53.328C54.4111 240.167 55.3962 240.436 56.2832 240.967C57.1703 241.498 57.8752 242.213 58.4028 243.107C58.9304 244 59.1965 244.997 59.1965 246.088C59.1965 246.902 59.0424 247.669 58.7389 248.383C58.4355 249.098 58.0153 249.724 57.4784 250.265C56.9415 250.805 56.3206 251.229 55.6063 251.539C54.892 251.849 54.1357 252 53.3233 252H53.328ZM53.328 249.686C53.8182 249.686 54.2851 249.592 54.7192 249.409C55.1534 249.225 55.5316 248.967 55.8537 248.637C56.1805 248.308 56.4373 247.923 56.624 247.49C56.8108 247.057 56.9042 246.587 56.9042 246.093C56.9042 245.425 56.7408 244.823 56.4186 244.278C56.0965 243.732 55.6623 243.3 55.1207 242.975C54.5792 242.651 53.9816 242.486 53.3233 242.486H51.0357C50.5455 242.486 50.0833 242.58 49.6491 242.768C49.2149 242.956 48.8368 243.215 48.51 243.544C48.1831 243.869 47.9264 244.25 47.7443 244.687C47.5622 245.124 47.4688 245.59 47.4688 246.088C47.4688 246.752 47.6276 247.354 47.9497 247.899C48.2719 248.445 48.7014 248.877 49.2429 249.202C49.7845 249.526 50.3821 249.686 51.0404 249.686H53.328Z" fill="#C60E14"/>
<path d="M68.8202 252H66.5325C65.4541 252 64.469 251.732 63.582 251.2C62.6949 250.669 61.9853 249.954 61.4577 249.061C60.9302 248.167 60.6641 247.175 60.6641 246.088C60.6641 245.275 60.8181 244.508 61.1216 243.789C61.425 243.069 61.8499 242.444 62.3868 241.903C62.919 241.362 63.5399 240.939 64.2496 240.628C64.9592 240.318 65.7202 240.167 66.5325 240.167H68.8202C69.7726 240.167 70.6503 240.374 71.4533 240.793C72.2563 241.212 72.9332 241.776 73.4795 242.486C74.0257 243.196 74.3945 244.014 74.5813 244.927H72.2096C71.9575 244.198 71.528 243.61 70.9164 243.159C70.3048 242.707 69.6092 242.481 68.8202 242.481H66.5325C66.0423 242.481 65.5801 242.575 65.146 242.763C64.7118 242.952 64.3336 243.21 64.0068 243.539C63.68 243.864 63.4232 244.245 63.2412 244.682C63.0591 245.12 62.9657 245.585 62.9657 246.084C62.9657 246.747 63.1244 247.349 63.4466 247.894C63.7687 248.44 64.1982 248.873 64.7398 249.197C65.2813 249.522 65.8789 249.681 66.5372 249.681H68.8248C69.315 249.681 69.7819 249.587 70.2161 249.404C70.6503 249.221 71.0284 248.962 71.3506 248.633C71.7381 248.242 72.0275 247.777 72.2143 247.245H74.5859C74.3338 248.43 73.7969 249.437 72.9753 250.265C72.4384 250.805 71.8174 251.229 71.1031 251.539C70.3888 251.849 69.6325 252 68.8202 252Z" fill="#C60E14"/>
<path d="M88.6582 252H86.3612V242.486H78.672V252H76.375V240.172H88.6582V252Z" fill="#C60E14"/>
<path d="M92.8517 252H90.5547V240.172H99.1076C99.7986 240.172 100.424 240.342 100.989 240.68C101.554 241.019 102.002 241.47 102.338 242.039C102.674 242.608 102.843 243.239 102.843 243.935C102.843 244.452 102.745 244.941 102.553 245.392C102.362 245.844 102.091 246.248 101.755 246.596C101.409 246.94 101.012 247.208 100.56 247.401C100.107 247.593 99.6258 247.692 99.1123 247.692H92.861V252H92.8517ZM99.103 245.378C99.5045 245.378 99.8406 245.237 100.121 244.95C100.401 244.663 100.541 244.325 100.541 243.92C100.541 243.516 100.401 243.187 100.121 242.905C99.8406 242.622 99.5045 242.481 99.103 242.481H92.8517V245.374H99.103V245.378Z" fill="#C60E14"/>
<path d="M112.336 252H110.048C108.97 252 107.985 251.732 107.098 251.2C106.211 250.669 105.501 249.954 104.973 249.061C104.446 248.167 104.18 247.175 104.18 246.088C104.18 245.275 104.334 244.508 104.637 243.789C104.941 243.069 105.366 242.444 105.902 241.903C106.435 241.362 107.056 240.939 107.765 240.628C108.475 240.318 109.236 240.167 110.048 240.167H112.336C113.419 240.167 114.404 240.436 115.291 240.967C116.178 241.498 116.883 242.213 117.411 243.107C117.938 244 118.204 244.997 118.204 246.088C118.204 246.902 118.05 247.669 117.747 248.383C117.443 249.098 117.023 249.724 116.486 250.265C115.949 250.805 115.328 251.229 114.614 251.539C113.9 251.849 113.143 252 112.331 252H112.336ZM112.336 249.686C112.826 249.686 113.293 249.592 113.727 249.409C114.161 249.225 114.539 248.967 114.862 248.637C115.188 248.308 115.445 247.923 115.632 247.49C115.819 247.057 115.912 246.587 115.912 246.093C115.912 245.425 115.749 244.823 115.426 244.278C115.104 243.732 114.67 243.3 114.129 242.975C113.587 242.651 112.989 242.486 112.331 242.486H110.043C109.553 242.486 109.091 242.58 108.657 242.768C108.223 242.956 107.845 243.215 107.518 243.544C107.191 243.869 106.934 244.25 106.752 244.687C106.57 245.124 106.477 245.59 106.477 246.088C106.477 246.752 106.635 247.354 106.958 247.899C107.28 248.445 107.709 248.877 108.251 249.202C108.792 249.526 109.39 249.686 110.048 249.686H112.336Z" fill="#C60E14"/>
<path d="M134.398 252H132.11V243.765L128.74 249.164H125.565L122.297 243.925V252H120V240.172H122.61L126.681 246.85H127.624L131.793 240.172H134.403V252H134.398Z" fill="#C60E14"/>
</g>
</g>
<defs>
<linearGradient id="paint0_linear_4002_8987" x1="82.7487" y1="22.4187" x2="82.7487" y2="184.969" gradientUnits="userSpaceOnUse">
<stop stop-color="#0099A5"/>
<stop offset="1" stop-color="#00636B"/>
</linearGradient>
<clipPath id="clip0_4002_8987">
<rect width="164" height="252" fill="white"/>
</clipPath>
</defs>
</svg>
