<svg width="156" height="27" viewBox="0 0 156 27" fill="none" xmlns="http://www.w3.org/2000/svg">
<path d="M8.62082 11.032H6.46769C5.45472 11.032 4.52805 10.7822 3.69678 10.2872C2.86096 9.7921 2.19322 9.12446 1.69809 8.28877C1.20296 7.45308 0.953125 6.5311 0.953125 5.51828C0.953125 4.75526 1.09848 4.04219 1.38466 3.37455C1.67084 2.70691 2.06603 2.12102 2.57025 1.61688C3.06992 1.11274 3.65135 0.717595 4.3191 0.431462C4.98684 0.145329 5.70001 0 6.46314 0H8.61628C9.51114 0 10.3333 0.195297 11.0919 0.581349C11.846 0.971943 12.4819 1.49424 12.9952 2.16188C13.5085 2.82953 13.8537 3.58801 14.0264 4.43733H11.8005C11.5643 3.7606 11.1601 3.21104 10.5832 2.78865C10.0063 2.36627 9.35216 2.15735 8.61173 2.15735H6.4586C5.99527 2.15735 5.55919 2.24364 5.15491 2.42077C4.75063 2.59336 4.39178 2.83862 4.08289 3.14746C3.774 3.45176 3.53325 3.80602 3.36064 4.21478C3.18802 4.62355 3.10171 5.05956 3.10171 5.52282C3.10171 6.14051 3.25162 6.70369 3.55142 7.21237C3.85122 7.72105 4.2555 8.12526 4.7688 8.42502C5.27756 8.72478 5.84083 8.87466 6.4586 8.87466H8.61173C9.07507 8.87466 9.51114 8.78837 9.91997 8.61578C10.3288 8.4432 10.6831 8.20248 10.9874 7.89364C11.3508 7.5303 11.6234 7.09882 11.796 6.59923H14.0218C13.7856 7.70288 13.2814 8.64303 12.5092 9.4106C12.005 9.91474 11.419 10.3099 10.7512 10.596C10.0835 10.8821 9.37033 11.0275 8.60719 11.0275L8.62082 11.032Z" fill="#C60E14"/>
<path d="M27.2566 11.032H25.099V2.15735H17.8764V11.032H15.7188V0H27.2612V11.032H27.2566Z" fill="#C60E14"/>
<path d="M42.0493 11.032H39.8916L38.6651 7.91634H31.7969L30.5795 11.032H28.4219L32.7463 0H37.7203L42.0538 11.032H42.0493ZM37.8248 5.75899L36.4121 2.15735H34.0545L32.6418 5.75899H37.8248Z" fill="#C60E14"/>
<path d="M45.6108 11.032H43.4531V0H51.4888C52.1383 0 52.7243 0.158953 53.2558 0.472337C53.7872 0.790262 54.2097 1.21265 54.5231 1.7395C54.8411 2.27089 54.9955 2.85679 54.9955 3.50627C54.9955 3.9877 54.9047 4.44187 54.723 4.8688C54.5413 5.29119 54.2915 5.66816 53.9689 5.99063C53.6464 6.30855 53.2739 6.55835 52.847 6.74002C52.4245 6.92169 51.9703 7.01253 51.4842 7.01253H45.6108V11.0275V11.032ZM51.4842 4.85518C51.8612 4.85518 52.1792 4.72345 52.4381 4.46003C52.7016 4.19661 52.8333 3.87415 52.8333 3.50172C52.8333 3.12929 52.7016 2.81591 52.4381 2.55249C52.1747 2.28906 51.8567 2.15735 51.4842 2.15735H45.6108V4.85518H51.4842Z" fill="#C60E14"/>
<path d="M63.6448 11.032H61.4917V2.15735H55.9453V0H69.1821V2.15735H63.6403V11.032H63.6448Z" fill="#C60E14"/>
<path d="M82.4946 11.032H80.3369L79.1105 7.91634H72.2422L71.0249 11.032H68.8672L73.1916 0H78.1656L82.4991 11.032H82.4946ZM78.2701 5.75899L76.8574 2.15735H74.4998L73.0871 5.75899H78.2701Z" fill="#C60E14"/>
<path d="M96.7128 11.032H94.5551L92.6563 6.18137H86.0561V11.032H83.8984V0H86.0561V4.02402H87.9231L92.3338 0H95.3864L90.9665 4.02402H93.96L96.7128 11.032Z" fill="#C60E14"/>
<path d="M109.988 11.032H107.83V2.75233L100.453 11.032H98V0H100.158V8.27968L107.53 0H109.992V11.032H109.988Z" fill="#C60E14"/>
<path d="M124.768 11.032H122.61L121.384 7.91634H114.516L113.298 11.032H111.141L115.465 0H120.439L124.773 11.032H124.768ZM120.544 5.75899L119.131 2.15735H116.773L115.361 5.75899H120.544Z" fill="#C60E14"/>
<path d="M140.572 12.8854H138.419V11.0278H127.462V12.8854H125.305V8.87047H127.494L130.974 0.00488281H138.655V8.87047H140.576V12.8854H140.572ZM136.493 8.87047V2.1577H132.282L129.643 8.87047H136.488H136.493Z" fill="#C60E14"/>
<path d="M155.041 11.032H152.884L151.657 7.91634H144.789L143.572 11.032H141.414L145.739 0H150.713L155.046 11.032H155.041ZM150.817 5.75899L149.404 2.15735H147.047L145.634 5.75899H150.817Z" fill="#C60E14"/>
<path d="M42.2039 26.207H40.0508V18.5268L36.8801 23.5591H33.8957L30.8296 18.6721V26.2025H28.6719V15.1704H31.1248L34.9496 21.3972H35.8354L39.751 15.1704H42.2039V26.2025V26.207Z" fill="#C60E14"/>
<path d="M51.3318 26.2073H49.1786C48.1657 26.2073 47.2435 25.9575 46.4077 25.4625C45.5719 24.9674 44.9087 24.2998 44.409 23.4641C43.9094 22.6284 43.6641 21.7064 43.6641 20.6936C43.6641 19.9306 43.8094 19.2175 44.0956 18.5498C44.3818 17.8822 44.777 17.2963 45.2812 16.7922C45.7809 16.288 46.3623 15.8929 47.03 15.6068C47.6978 15.3206 48.4109 15.1753 49.1741 15.1753H51.3272C52.3447 15.1753 53.2714 15.4251 54.1027 15.9202C54.9339 16.4152 55.6017 17.0828 56.0968 17.9185C56.5919 18.7542 56.8418 19.6808 56.8418 20.6981C56.8418 21.4566 56.701 22.1697 56.4148 22.8373C56.1286 23.5049 55.7334 24.0863 55.2292 24.5904C54.725 25.0946 54.139 25.4897 53.4713 25.7759C52.8035 26.062 52.0904 26.2073 51.3272 26.2073H51.3318ZM51.3318 24.0499C51.7951 24.0499 52.2312 23.9637 52.64 23.7911C53.0488 23.6185 53.4031 23.3778 53.7075 23.0689C54.0164 22.7601 54.2571 22.4013 54.4297 21.9971C54.6023 21.5929 54.6932 21.1568 54.6932 20.6936C54.6932 20.0714 54.5433 19.5082 54.2389 18.9995C53.9346 18.4908 53.5303 18.0866 53.0216 17.7868C52.5128 17.4825 51.9495 17.3326 51.3318 17.3326H49.1786C48.7153 17.3326 48.2792 17.4189 47.8749 17.5961C47.4707 17.7687 47.1118 18.0139 46.8029 18.3228C46.494 18.6271 46.2533 18.9813 46.0807 19.3901C45.908 19.7989 45.8217 20.2349 45.8217 20.6981C45.8217 21.3158 45.9716 21.879 46.2714 22.3877C46.5712 22.8963 46.9755 23.3006 47.4843 23.6003C47.993 23.9001 48.5563 24.0499 49.1741 24.0499H51.3272H51.3318Z" fill="#C60E14"/>
<path d="M65.8864 26.2073H63.7333C62.7203 26.2073 61.7982 25.9575 60.9624 25.4625C60.1266 24.9674 59.4634 24.2998 58.9637 23.4641C58.464 22.6284 58.2188 21.7064 58.2188 20.6936C58.2188 19.9306 58.3641 19.2175 58.6503 18.5498C58.9365 17.8822 59.3317 17.2963 59.8359 16.7922C60.3355 16.288 60.917 15.8929 61.5847 15.6068C62.2525 15.3206 62.9656 15.1753 63.7288 15.1753H65.8819C66.7768 15.1753 67.599 15.3706 68.3575 15.7567C69.1116 16.1473 69.7475 16.6695 70.2608 17.3372C70.7741 18.0048 71.1194 18.7633 71.292 19.6126H69.0662C68.83 18.9359 68.4257 18.3863 67.8533 17.964C67.281 17.5416 66.6223 17.3326 65.8819 17.3326H63.7288C63.2654 17.3326 62.8294 17.4189 62.4251 17.5961C62.0208 17.7687 61.6619 18.0139 61.3531 18.3228C61.0442 18.6271 60.8034 18.9813 60.6308 19.3901C60.4582 19.7989 60.3719 20.2349 60.3719 20.6981C60.3719 21.3158 60.5218 21.879 60.8216 22.3877C61.1214 22.8963 61.5257 23.3006 62.0344 23.6003C62.5432 23.9001 63.1065 24.0499 63.7242 24.0499H65.8774C66.3407 24.0499 66.7768 23.9637 67.1856 23.7911C67.5944 23.6185 67.9487 23.3778 68.2531 23.0689C68.6165 22.7056 68.889 22.2741 69.0616 21.7745H71.2874C71.0512 22.8782 70.547 23.8183 69.7748 24.5859C69.2706 25.09 68.6846 25.4852 68.0169 25.7713C67.3491 26.0574 66.636 26.2028 65.8728 26.2028L65.8864 26.2073Z" fill="#C60E14"/>
<path d="M84.5301 26.2073H82.3724V17.3326H75.1499V26.2073H72.9922V15.1753H84.5346V26.2073H84.5301Z" fill="#C60E14"/>
<path d="M88.4624 26.2073H86.3047V15.1753H94.3403C94.9899 15.1753 95.5759 15.3342 96.1073 15.6476C96.6388 15.9656 97.0613 16.388 97.3747 16.9148C97.6927 17.4462 97.8471 18.0321 97.8471 18.6816C97.8471 19.163 97.7563 19.6172 97.5746 20.0441C97.3929 20.4665 97.143 20.8435 96.8205 21.1659C96.498 21.4838 96.1255 21.7337 95.6985 21.9153C95.2761 22.097 94.8218 22.1878 94.3358 22.1878H88.4624V26.2028V26.2073ZM94.3358 20.0305C94.7128 20.0305 95.0308 19.8988 95.2897 19.6353C95.5532 19.3719 95.6849 19.0495 95.6849 18.677C95.6849 18.3046 95.5532 17.9912 95.2897 17.7278C95.0262 17.4644 94.7083 17.3326 94.3358 17.3326H88.4624V20.0305H94.3358Z" fill="#C60E14"/>
<path d="M106.769 26.2073H104.616C103.603 26.2073 102.681 25.9575 101.845 25.4625C101.009 24.9674 100.346 24.2998 99.8465 23.4641C99.3469 22.6284 99.1016 21.7064 99.1016 20.6936C99.1016 19.9306 99.2469 19.2175 99.5331 18.5498C99.8193 17.8822 100.214 17.2963 100.719 16.7922C101.218 16.288 101.8 15.8929 102.468 15.6068C103.135 15.3206 103.848 15.1753 104.612 15.1753H106.765C107.782 15.1753 108.709 15.4251 109.54 15.9202C110.371 16.4152 111.039 17.0828 111.534 17.9185C112.029 18.7542 112.279 19.6808 112.279 20.6981C112.279 21.4566 112.138 22.1697 111.852 22.8373C111.566 23.5049 111.171 24.0863 110.667 24.5904C110.162 25.0946 109.577 25.4897 108.909 25.7759C108.241 26.062 107.528 26.2073 106.765 26.2073H106.769ZM106.769 24.0499C107.233 24.0499 107.669 23.9637 108.077 23.7911C108.486 23.6185 108.841 23.3778 109.145 23.0689C109.454 22.7601 109.695 22.4013 109.867 21.9971C110.04 21.5929 110.131 21.1568 110.131 20.6936C110.131 20.0714 109.981 19.5082 109.676 18.9995C109.372 18.4908 108.968 18.0866 108.459 17.7868C107.95 17.4825 107.387 17.3326 106.769 17.3326H104.616C104.153 17.3326 103.717 17.4189 103.312 17.5961C102.908 17.7687 102.549 18.0139 102.24 18.3228C101.932 18.6271 101.691 18.9813 101.518 19.3901C101.346 19.7989 101.259 20.2349 101.259 20.6981C101.259 21.3158 101.409 21.879 101.709 22.3877C102.009 22.8963 102.413 23.3006 102.922 23.6003C103.431 23.9001 103.994 24.0499 104.612 24.0499H106.765H106.769Z" fill="#C60E14"/>
<path d="M127.501 26.207H125.348V18.5268L122.177 23.5591H119.193L116.126 18.6721V26.2025H113.969V15.1704H116.422L120.246 21.3972H121.132L125.048 15.1704H127.501V26.2025V26.207Z" fill="#C60E14"/>
</svg>
