<svg width="154" height="27" viewBox="0 0 154 27" fill="none" xmlns="http://www.w3.org/2000/svg">
<g clip-path="url(#clip0_4014_2409)">
<path d="M7.62082 11.032H5.46769C4.45472 11.032 3.52805 10.7822 2.69678 10.2872C1.86096 9.7921 1.19322 9.12446 0.69809 8.28877C0.202961 7.45308 -0.046875 6.5311 -0.046875 5.51828C-0.046875 4.75526 0.0984841 4.04219 0.38466 3.37455C0.670836 2.70691 1.06603 2.12102 1.57025 1.61688C2.06992 1.11274 2.65135 0.717595 3.3191 0.431462C3.98684 0.145329 4.70001 0 5.46314 0H7.61628C8.51114 0 9.33333 0.195297 10.0919 0.581349C10.846 0.971943 11.4819 1.49424 11.9952 2.16188C12.5085 2.82953 12.8537 3.58801 13.0264 4.43733H10.8005C10.5643 3.7606 10.1601 3.21104 9.58317 2.78865C9.00627 2.36627 8.35216 2.15735 7.61173 2.15735H5.4586C4.99527 2.15735 4.55919 2.24364 4.15491 2.42077C3.75063 2.59336 3.39178 2.83862 3.08289 3.14746C2.774 3.45176 2.53325 3.80602 2.36064 4.21478C2.18802 4.62355 2.10171 5.05956 2.10171 5.52282C2.10171 6.14051 2.25162 6.70369 2.55142 7.21237C2.85122 7.72105 3.2555 8.12526 3.7688 8.42502C4.27756 8.72478 4.84083 8.87465 5.4586 8.87465H7.61173C8.07507 8.87465 8.51114 8.78837 8.91997 8.61578C9.32879 8.4432 9.6831 8.20248 9.98745 7.89364C10.3508 7.5303 10.6234 7.09882 10.796 6.59923H13.0218C12.7856 7.70288 12.2814 8.64303 11.5092 9.4106C11.005 9.91474 10.419 10.3099 9.75124 10.596C9.08349 10.8821 8.37033 11.0275 7.60719 11.0275L7.62082 11.032Z" fill="white"/>
<path d="M26.2566 11.0321H24.099V2.15744H16.8764V11.0321H14.7188V9.15527e-05H26.2612V11.0321H26.2566Z" fill="white"/>
<path d="M41.0493 11.0321H38.8916L37.6651 7.91643H30.7969L29.5795 11.0321H27.4219L31.7463 9.15527e-05H36.7203L41.0538 11.0321H41.0493ZM36.8248 5.75908L35.4121 2.15744H33.0545L31.6418 5.75908H36.8248Z" fill="white"/>
<path d="M44.6108 11.0321H42.4531V9.15527e-05H50.4888C51.1383 9.15527e-05 51.7243 0.159044 52.2558 0.472428C52.7872 0.790354 53.2097 1.21274 53.5231 1.73959C53.8411 2.27098 53.9955 2.85688 53.9955 3.50636C53.9955 3.98779 53.9047 4.44197 53.723 4.8689C53.5413 5.29128 53.2915 5.66825 52.9689 5.99072C52.6464 6.30864 52.2739 6.55844 51.847 6.74011C51.4245 6.92178 50.9703 7.01262 50.4842 7.01262H44.6108V11.0276V11.0321ZM50.4842 4.85527C50.8612 4.85527 51.1792 4.72355 51.4381 4.46012C51.7016 4.1967 51.8333 3.87424 51.8333 3.50181C51.8333 3.12938 51.7016 2.816 51.4381 2.55258C51.1747 2.28915 50.8567 2.15744 50.4842 2.15744H44.6108V4.85527H50.4842Z" fill="white"/>
<path d="M62.6448 11.0321H60.4917V2.15744H54.9453V9.15527e-05H68.1821V2.15744H62.6403V11.0321H62.6448Z" fill="white"/>
<path d="M81.4946 11.0321H79.3369L78.1105 7.91643H71.2422L70.0249 11.0321H67.8672L72.1916 9.15527e-05H77.1656L81.4991 11.0321H81.4946ZM77.2701 5.75908L75.8574 2.15744H73.4998L72.0871 5.75908H77.2701Z" fill="white"/>
<path d="M95.7128 11.0321H93.5551L91.6563 6.18147H85.0561V11.0321H82.8984V9.15527e-05H85.0561V4.02411H86.9231L91.3338 9.15527e-05H94.3864L89.9665 4.02411H92.96L95.7128 11.0321Z" fill="white"/>
<path d="M108.988 11.0321H106.83V2.75242L99.4529 11.0321H97V9.15527e-05H99.1577V8.27977L106.53 9.15527e-05H108.992V11.0321H108.988Z" fill="white"/>
<path d="M123.768 11.0321H121.61L120.384 7.91643H113.516L112.298 11.0321H110.141L114.465 9.15527e-05H119.439L123.773 11.0321H123.768ZM119.544 5.75908L118.131 2.15744H115.773L114.361 5.75908H119.544Z" fill="white"/>
<path d="M139.572 12.8855H137.419V11.0279H126.462V12.8855H124.305V8.87053H126.494L129.974 0.00494385H137.655V8.87053H139.576V12.8855H139.572ZM135.493 8.87053V2.15776H131.282L128.643 8.87053H135.488H135.493Z" fill="white"/>
<path d="M154.041 11.0321H151.884L150.657 7.91643H143.789L142.572 11.0321H140.414L144.739 9.15527e-05H149.713L154.046 11.0321H154.041ZM149.817 5.75908L148.404 2.15744H146.047L144.634 5.75908H149.817Z" fill="white"/>
<path d="M41.2039 26.2069H39.0508V18.5268L35.8801 23.5591H32.8957L29.8296 18.6721V26.2024H27.6719V15.1704H30.1248L33.9496 21.3972H34.8354L38.751 15.1704H41.2039V26.2024V26.2069Z" fill="white"/>
<path d="M50.3318 26.2072H48.1786C47.1657 26.2072 46.2435 25.9575 45.4077 25.4624C44.5719 24.9674 43.9087 24.2997 43.409 23.464C42.9094 22.6283 42.6641 21.7063 42.6641 20.6935C42.6641 19.9305 42.8094 19.2174 43.0956 18.5498C43.3818 17.8821 43.777 17.2962 44.2812 16.7921C44.7809 16.288 45.3623 15.8928 46.03 15.6067C46.6978 15.3206 47.4109 15.1752 48.1741 15.1752H50.3272C51.3447 15.1752 52.2714 15.425 53.1027 15.9201C53.9339 16.4151 54.6017 17.0828 55.0968 17.9185C55.5919 18.7542 55.8418 19.6807 55.8418 20.6981C55.8418 21.4565 55.701 22.1696 55.4148 22.8372C55.1286 23.5049 54.7334 24.0862 54.2292 24.5904C53.725 25.0945 53.139 25.4897 52.4713 25.7758C51.8035 26.0619 51.0904 26.2072 50.3272 26.2072H50.3318ZM50.3318 24.0499C50.7951 24.0499 51.2312 23.9636 51.64 23.791C52.0488 23.6184 52.4031 23.3777 52.7075 23.0689C53.0164 22.76 53.2571 22.4012 53.4297 21.997C53.6023 21.5928 53.6932 21.1568 53.6932 20.6935C53.6932 20.0713 53.5433 19.5081 53.2389 18.9994C52.9346 18.4907 52.5303 18.0865 52.0216 17.7868C51.5128 17.4825 50.9495 17.3326 50.3318 17.3326H48.1786C47.7153 17.3326 47.2792 17.4189 46.8749 17.596C46.4707 17.7686 46.1118 18.0138 45.8029 18.3227C45.494 18.627 45.2533 18.9813 45.0807 19.39C44.908 19.7988 44.8217 20.2348 44.8217 20.6981C44.8217 21.3158 44.9716 21.8789 45.2714 22.3876C45.5712 22.8963 45.9755 23.3005 46.4843 23.6003C46.993 23.9 47.5563 24.0499 48.1741 24.0499H50.3272H50.3318Z" fill="white"/>
<path d="M64.8864 26.2072H62.7333C61.7203 26.2072 60.7982 25.9575 59.9624 25.4624C59.1266 24.9674 58.4634 24.2997 57.9637 23.464C57.464 22.6283 57.2188 21.7063 57.2188 20.6935C57.2188 19.9305 57.3641 19.2174 57.6503 18.5498C57.9365 17.8821 58.3317 17.2962 58.8359 16.7921C59.3355 16.288 59.917 15.8928 60.5847 15.6067C61.2525 15.3206 61.9656 15.1752 62.7288 15.1752H64.8819C65.7768 15.1752 66.599 15.3705 67.3575 15.7566C68.1116 16.1472 68.7475 16.6695 69.2608 17.3371C69.7741 18.0048 70.1194 18.7633 70.292 19.6126H68.0662C67.83 18.9358 67.4257 18.3863 66.8533 17.9639C66.281 17.5415 65.6223 17.3326 64.8819 17.3326H62.7288C62.2654 17.3326 61.8294 17.4189 61.4251 17.596C61.0208 17.7686 60.6619 18.0138 60.3531 18.3227C60.0442 18.627 59.8034 18.9813 59.6308 19.39C59.4582 19.7988 59.3719 20.2348 59.3719 20.6981C59.3719 21.3158 59.5218 21.8789 59.8216 22.3876C60.1214 22.8963 60.5257 23.3005 61.0344 23.6003C61.5432 23.9 62.1065 24.0499 62.7242 24.0499H64.8774C65.3407 24.0499 65.7768 23.9636 66.1856 23.791C66.5944 23.6184 66.9487 23.3777 67.2531 23.0689C67.6165 22.7055 67.889 22.2741 68.0616 21.7745H70.2874C70.0512 22.8781 69.547 23.8183 68.7748 24.5858C68.2706 25.09 67.6846 25.4851 67.0169 25.7712C66.3491 26.0574 65.636 26.2027 64.8728 26.2027L64.8864 26.2072Z" fill="white"/>
<path d="M83.5301 26.2072H81.3724V17.3326H74.1499V26.2072H71.9922V15.1752H83.5346V26.2072H83.5301Z" fill="white"/>
<path d="M87.4624 26.2072H85.3047V15.1752H93.3403C93.9899 15.1752 94.5759 15.3342 95.1073 15.6476C95.6388 15.9655 96.0613 16.3879 96.3747 16.9147C96.6927 17.4461 96.8471 18.032 96.8471 18.6815C96.8471 19.1629 96.7563 19.6171 96.5746 20.044C96.3929 20.4664 96.143 20.8434 95.8205 21.1659C95.498 21.4838 95.1255 21.7336 94.6985 21.9153C94.2761 22.0969 93.8218 22.1878 93.3358 22.1878H87.4624V26.2027V26.2072ZM93.3358 20.0304C93.7128 20.0304 94.0308 19.8987 94.2897 19.6353C94.5532 19.3719 94.6849 19.0494 94.6849 18.677C94.6849 18.3045 94.5532 17.9911 94.2897 17.7277C94.0262 17.4643 93.7083 17.3326 93.3358 17.3326H87.4624V20.0304H93.3358Z" fill="white"/>
<path d="M105.769 26.2072H103.616C102.603 26.2072 101.681 25.9575 100.845 25.4624C100.009 24.9674 99.3462 24.2997 98.8465 23.464C98.3469 22.6283 98.1016 21.7063 98.1016 20.6935C98.1016 19.9305 98.2469 19.2174 98.5331 18.5498C98.8193 17.8821 99.2145 17.2962 99.7187 16.7921C100.218 16.288 100.8 15.8928 101.468 15.6067C102.135 15.3206 102.848 15.1752 103.612 15.1752H105.765C106.782 15.1752 107.709 15.425 108.54 15.9201C109.371 16.4151 110.039 17.0828 110.534 17.9185C111.029 18.7542 111.279 19.6807 111.279 20.6981C111.279 21.4565 111.138 22.1696 110.852 22.8372C110.566 23.5049 110.171 24.0862 109.667 24.5904C109.162 25.0945 108.577 25.4897 107.909 25.7758C107.241 26.0619 106.528 26.2072 105.765 26.2072H105.769ZM105.769 24.0499C106.233 24.0499 106.669 23.9636 107.077 23.791C107.486 23.6184 107.841 23.3777 108.145 23.0689C108.454 22.76 108.695 22.4012 108.867 21.997C109.04 21.5928 109.131 21.1568 109.131 20.6935C109.131 20.0713 108.981 19.5081 108.676 18.9994C108.372 18.4907 107.968 18.0865 107.459 17.7868C106.95 17.4825 106.387 17.3326 105.769 17.3326H103.616C103.153 17.3326 102.717 17.4189 102.312 17.596C101.908 17.7686 101.549 18.0138 101.24 18.3227C100.932 18.627 100.691 18.9813 100.518 19.39C100.346 19.7988 100.259 20.2348 100.259 20.6981C100.259 21.3158 100.409 21.8789 100.709 22.3876C101.009 22.8963 101.413 23.3005 101.922 23.6003C102.431 23.9 102.994 24.0499 103.612 24.0499H105.765H105.769Z" fill="white"/>
<path d="M126.501 26.207H124.348V18.5268L121.177 23.5591H118.193L115.126 18.6721V26.2025H112.969V15.1704H115.422L119.246 21.3972H120.132L124.048 15.1704H126.501V26.2025V26.207Z" fill="white"/>
</g>
<defs>
<clipPath id="clip0_4014_2409">
<rect width="154" height="27" fill="white"/>
</clipPath>
</defs>
</svg>
