<svg width="246" height="42" viewBox="0 0 246 42" fill="none" xmlns="http://www.w3.org/2000/svg">
<path d="M12.2409 17.6428H8.80358C7.18645 17.6428 5.7071 17.2433 4.38004 16.4516C3.04572 15.6599 1.97972 14.5922 1.18928 13.2557C0.398844 11.9192 0 10.4448 0 8.82503C0 7.60478 0.232055 6.46442 0.688913 5.3967C1.14577 4.32898 1.77667 3.39201 2.58161 2.58577C3.3793 1.77953 4.30752 1.1476 5.37352 0.69001C6.43952 0.232416 7.57804 0 8.79633 0H12.2336C13.6622 0 14.9748 0.312325 16.1858 0.929714C17.3896 1.55437 18.4049 2.38964 19.2243 3.45736C20.0437 4.52508 20.5949 5.73808 20.8704 7.09633H17.3171C16.94 6.01409 16.2946 5.13521 15.3736 4.45972C14.4527 3.78422 13.4084 3.45011 12.2264 3.45011H8.78908C8.04941 3.45011 7.35324 3.58811 6.70784 3.87138C6.06244 4.14739 5.48955 4.53962 4.99643 5.03353C4.50332 5.52018 4.11898 6.08673 3.84341 6.74043C3.56784 7.39414 3.43006 8.09143 3.43006 8.8323C3.43006 9.82012 3.66937 10.7208 4.14798 11.5343C4.6266 12.3478 5.272 12.9942 6.09144 13.4736C6.90363 13.953 7.80285 14.1927 8.78908 14.1927H12.2264C12.9661 14.1927 13.6622 14.0547 14.3149 13.7787C14.9675 13.5027 15.5332 13.1177 16.019 12.6238C16.5992 12.0427 17.0343 11.3527 17.3098 10.5537H20.8632C20.4861 12.3187 19.6812 13.8223 18.4484 15.0498C17.6434 15.856 16.708 16.4879 15.642 16.9455C14.576 17.4031 13.4374 17.6355 12.2191 17.6355L12.2409 17.6428Z" fill="white"/>
<path d="M41.9975 17.6428H38.5529V3.45011H27.0227V17.6428H23.5781V0H42.0047V17.6428H41.9975Z" fill="white"/>
<path d="M65.6145 17.6428H62.17L60.212 12.6601H49.2474L47.3039 17.6428H43.8594L50.763 0H58.7036L65.6218 17.6428H65.6145ZM58.8704 9.20999L56.6151 3.45011H52.8515L50.5962 9.20999H58.8704Z" fill="white"/>
<path d="M71.3039 17.6428H67.8594V0H80.6877C81.7247 0 82.6601 0.254203 83.5086 0.755378C84.357 1.26382 85.0314 1.93932 85.5318 2.78187C86.0394 3.63169 86.286 4.56868 86.286 5.60735C86.286 6.37727 86.141 7.10361 85.8509 7.78637C85.5608 8.46186 85.162 9.06472 84.6471 9.58043C84.1322 10.0889 83.5376 10.4883 82.8559 10.7789C82.1815 11.0694 81.4563 11.2147 80.6804 11.2147H71.3039V17.6355V17.6428ZM80.6804 7.76458C81.2823 7.76458 81.7899 7.55392 82.2033 7.13264C82.6239 6.71136 82.8342 6.19567 82.8342 5.60008C82.8342 5.00448 82.6239 4.5033 82.2033 4.08203C81.7827 3.66075 81.2751 3.45011 80.6804 3.45011H71.3039V7.76458H80.6804Z" fill="white"/>
<path d="M100.081 17.6428H96.6434V3.45011H87.7891V0H108.921V3.45011H100.073V17.6428H100.081Z" fill="white"/>
<path d="M130.177 17.6428H126.732L124.774 12.6601H113.81L111.866 17.6428H108.422L115.326 0H123.266L130.184 17.6428H130.177ZM123.433 9.20999L121.178 3.45011H117.414L115.159 9.20999H123.433Z" fill="white"/>
<path d="M152.879 17.6428H149.434L146.403 9.88548H135.866V17.6428H132.422V0H135.866V6.43536H138.847L145.888 0H150.761L143.706 6.43536H148.484L152.879 17.6428Z" fill="white"/>
<path d="M174.067 17.6428H170.622V4.40162L158.846 17.6428H154.93V0H158.374V13.2412L170.144 0H174.074V17.6428H174.067Z" fill="white"/>
<path d="M197.661 17.6428H194.217L192.259 12.6601H181.294L179.351 17.6428H175.906L182.81 0H190.751L197.669 17.6428H197.661ZM190.917 9.20999L188.662 3.45011H184.898L182.643 9.20999H190.917Z" fill="white"/>
<path d="M222.889 20.6063H219.451V17.6356H201.96V20.6063H198.516V14.1855H202.011L207.566 0.00732422H219.828V14.1855H222.896V20.6063H222.889ZM216.377 14.1855V3.45019H209.654L205.441 14.1855H216.369H216.377Z" fill="white"/>
<path d="M245.99 17.6428H242.545L240.587 12.6601H229.622L227.679 17.6428H224.234L231.138 0H239.079L245.997 17.6428H245.99ZM239.245 9.20999L236.99 3.45011H233.227L230.971 9.20999H239.245Z" fill="white"/>
<path d="M21.6029 41.9113H18.1655V29.6289L13.1039 37.6768H8.33948L3.44457 29.8613V41.9041H0V24.2612H3.91593L10.0219 34.2194H11.436L17.6869 24.2612H21.6029V41.9041V41.9113Z" fill="white"/>
<path d="M36.1784 41.9113H32.7411C31.124 41.9113 29.6519 41.5119 28.3175 40.7202C26.9832 39.9285 25.9245 38.8607 25.1268 37.5243C24.3291 36.1878 23.9375 34.7133 23.9375 33.0936C23.9375 31.8734 24.1696 30.733 24.6264 29.6653C25.0833 28.5975 25.7142 27.6606 26.5191 26.8543C27.3168 26.0481 28.245 25.4162 29.311 24.9586C30.377 24.501 31.5155 24.2686 32.7338 24.2686H36.1712C37.7955 24.2686 39.2749 24.6681 40.602 25.4598C41.929 26.2515 42.995 27.3192 43.7855 28.6556C44.5759 29.9921 44.9747 31.4739 44.9747 33.1009C44.9747 34.3139 44.7499 35.4542 44.2931 36.5219C43.8362 37.5896 43.2053 38.5193 42.4004 39.3256C41.5954 40.1318 40.66 40.7638 39.594 41.2213C38.528 41.6789 37.3894 41.9113 36.1712 41.9113H36.1784ZM36.1784 38.4612C36.9181 38.4612 37.6142 38.3233 38.2669 38.0472C38.9196 37.7712 39.4852 37.3863 39.9711 36.8923C40.4642 36.3984 40.8485 35.8246 41.1241 35.1782C41.3996 34.5318 41.5447 33.8345 41.5447 33.0936C41.5447 32.0985 41.3054 31.1978 40.8195 30.3843C40.3336 29.5708 39.6882 28.9244 38.876 28.445C38.0638 27.9584 37.1646 27.7187 36.1784 27.7187H32.7411C32.0014 27.7187 31.3052 27.8567 30.6598 28.14C30.0144 28.416 29.4416 28.8082 28.9484 29.3021C28.4553 29.7887 28.071 30.3553 27.7954 31.009C27.5198 31.6627 27.3821 32.36 27.3821 33.1009C27.3821 34.0887 27.6214 34.9893 28.1 35.8028C28.5786 36.6163 29.224 37.2628 30.0362 37.7422C30.8484 38.2215 31.7476 38.4612 32.7338 38.4612H36.1712H36.1784Z" fill="white"/>
<path d="M59.4128 41.9113H55.9755C54.3583 41.9113 52.8862 41.5119 51.5519 40.7202C50.2176 39.9285 49.1588 38.8607 48.3612 37.5243C47.5635 36.1878 47.1719 34.7133 47.1719 33.0936C47.1719 31.8734 47.4039 30.733 47.8608 29.6653C48.3176 28.5975 48.9485 27.6606 49.7535 26.8543C50.5512 26.0481 51.4794 25.4162 52.5454 24.9586C53.6114 24.501 54.7499 24.2686 55.9682 24.2686H59.4055C60.8341 24.2686 62.1467 24.5809 63.3577 25.1983C64.5615 25.8229 65.5767 26.6582 66.3962 27.7259C67.2156 28.7937 67.7668 30.0067 68.0423 31.3649H64.489C64.1119 30.2827 63.4665 29.4038 62.5528 28.7283C61.6391 28.0528 60.5876 27.7187 59.4055 27.7187H55.9682C55.2285 27.7187 54.5324 27.8567 53.887 28.14C53.2416 28.416 52.6687 28.8082 52.1756 29.3021C51.6824 29.7887 51.2981 30.3553 51.0225 31.009C50.747 31.6627 50.6092 32.36 50.6092 33.1009C50.6092 34.0887 50.8485 34.9893 51.3271 35.8028C51.8057 36.6163 52.4511 37.2628 53.2633 37.7422C54.0755 38.2215 54.9747 38.4612 55.961 38.4612H59.3983C60.138 38.4612 60.8341 38.3233 61.4868 38.0472C62.1394 37.7712 62.7051 37.3863 63.1909 36.8923C63.7711 36.3113 64.2062 35.6213 64.4817 34.8223H68.0351C67.658 36.5873 66.853 38.0908 65.6202 39.3183C64.8153 40.1246 63.8798 40.7565 62.8138 41.2141C61.7478 41.6717 60.6093 41.9041 59.391 41.9041L59.4128 41.9113Z" fill="white"/>
<path d="M89.1693 41.9113H85.7248V27.7187H74.1946V41.9113H70.75V24.2686H89.1766V41.9113H89.1693Z" fill="white"/>
<path d="M95.4524 41.9113H92.0078V24.2686H104.836C105.873 24.2686 106.809 24.5228 107.657 25.0239C108.505 25.5324 109.18 26.2079 109.68 27.0504C110.188 27.9003 110.434 28.8373 110.434 29.8759C110.434 30.6458 110.289 31.3722 109.999 32.0549C109.709 32.7304 109.31 33.3333 108.796 33.849C108.281 34.3574 107.686 34.7569 107.004 35.0475C106.33 35.338 105.605 35.4832 104.829 35.4832H95.4524V41.9041V41.9113ZM104.829 32.0331C105.431 32.0331 105.938 31.8225 106.352 31.4012C106.772 30.9799 106.983 30.4643 106.983 29.8687C106.983 29.2731 106.772 28.7719 106.352 28.3506C105.931 27.9293 105.423 27.7187 104.829 27.7187H95.4524V32.0331H104.829Z" fill="white"/>
<path d="M124.678 41.9113H121.241C119.624 41.9113 118.152 41.5119 116.818 40.7202C115.483 39.9285 114.424 38.8607 113.627 37.5243C112.829 36.1878 112.438 34.7133 112.438 33.0936C112.438 31.8734 112.67 30.733 113.126 29.6653C113.583 28.5975 114.214 27.6606 115.019 26.8543C115.817 26.0481 116.745 25.4162 117.811 24.9586C118.877 24.501 120.016 24.2686 121.234 24.2686H124.671C126.296 24.2686 127.775 24.6681 129.102 25.4598C130.429 26.2515 131.495 27.3192 132.285 28.6556C133.076 29.9921 133.475 31.4739 133.475 33.1009C133.475 34.3139 133.25 35.4542 132.793 36.5219C132.336 37.5896 131.705 38.5193 130.9 39.3256C130.095 40.1318 129.16 40.7638 128.094 41.2213C127.028 41.6789 125.889 41.9113 124.671 41.9113H124.678ZM124.678 38.4612C125.418 38.4612 126.114 38.3233 126.767 38.0472C127.42 37.7712 127.985 37.3863 128.471 36.8923C128.964 36.3984 129.348 35.8246 129.624 35.1782C129.9 34.5318 130.045 33.8345 130.045 33.0936C130.045 32.0985 129.805 31.1978 129.319 30.3843C128.834 29.5708 128.188 28.9244 127.376 28.445C126.564 27.9584 125.665 27.7187 124.678 27.7187H121.241C120.501 27.7187 119.805 27.8567 119.16 28.14C118.514 28.416 117.942 28.8082 117.448 29.3021C116.955 29.7887 116.571 30.3553 116.295 31.009C116.02 31.6627 115.882 32.36 115.882 33.1009C115.882 34.0887 116.121 34.9893 116.6 35.8028C117.079 36.6163 117.724 37.2628 118.536 37.7422C119.348 38.2215 120.248 38.4612 121.234 38.4612H124.671H124.678Z" fill="white"/>
<path d="M157.775 41.9118H154.337V29.6294L149.276 37.6773H144.511L139.616 29.8618V41.9046H136.172V24.2617H140.088L146.194 34.2199H147.608L153.859 24.2617H157.775V41.9046V41.9118Z" fill="white"/>
</svg>
