<svg width="180" height="180" viewBox="0 0 180 180" fill="none" xmlns="http://www.w3.org/2000/svg">
<path d="M0 58.4045C0 26.1486 26.1486 0 58.4045 0H121.595C153.851 0 180 26.1486 180 58.4045V121.595C180 153.851 153.851 180 121.595 180H58.4045C26.1486 180 0 153.851 0 121.595V58.4045Z" fill="white"/>
<path d="M78.8981 36.9712L41.0195 58.7624L62.7158 71.2441L78.8981 61.9345V36.9712Z" fill="#24BAFE"/>
<path d="M116.745 71.2441L138.441 58.7624L100.562 36.9712V61.9345L116.745 71.2441Z" fill="#24BAFE"/>
<path d="M62.6557 71.3315L41.0195 58.8306V114.963L89.5952 143.028V118.027L62.6557 102.462V71.3315Z" fill="#413FB5"/>
<path d="M89.5952 118.027V143.028L138.441 114.963V58.8306L116.684 71.3315V102.462L89.5952 118.027Z" fill="#8720F8"/>
</svg>
