<svg width="199" height="42" viewBox="0 0 199 42" fill="none" xmlns="http://www.w3.org/2000/svg">
<path d="M149.33 7.83646L151.842 9.30403V12.2392L149.33 13.7068L146.818 12.2392L146.818 9.30403L149.33 7.83646Z" fill="#8720F8"/>
<path d="M179.615 7.83646L182.127 9.30403V12.2392L179.615 13.7068L177.104 12.2392L177.104 9.30403L179.615 7.83646Z" fill="#8720F8"/>
<path d="M63.8391 34.2305C63.0759 34.2305 62.3004 33.9819 61.5126 33.4849C60.7248 32.9878 60.0848 32.3416 59.5924 31.5463V33.9322H54.9395V7.83646H59.9617V16.7836C60.454 16.2617 61.0572 15.8392 61.7711 15.5161C62.5097 15.193 63.2113 15.0314 63.876 15.0314H66.461C67.8889 15.0314 69.1444 15.3421 70.2276 15.9634C71.3355 16.5599 72.1848 17.4173 72.7757 18.5357C73.3911 19.6541 73.6989 20.9465 73.6989 22.4128V26.6627C73.6989 28.1539 73.3911 29.4711 72.7757 30.6143C72.1602 31.7576 71.2986 32.6523 70.1907 33.2985C69.0829 33.9198 67.815 34.2305 66.3871 34.2305H63.8391ZM65.7963 29.7942C66.6579 29.7942 67.3473 29.4711 67.8643 28.8249C68.4059 28.1787 68.6767 27.3337 68.6767 26.2899V22.7856C68.6767 21.7915 68.4182 20.9962 67.9012 20.3997C67.3842 19.7784 66.7072 19.4677 65.8701 19.4677H63.5806C62.5959 19.4677 61.7711 19.8157 61.1064 20.5115C60.4417 21.2074 60.0601 22.127 59.9617 23.2702V26.4763C60.134 27.4704 60.5279 28.2781 61.1434 28.8995C61.7834 29.4959 62.5343 29.7942 63.396 29.7942H65.7963Z" fill="#2B303E"/>
<path d="M84.3901 41.5C82.396 41.5 80.7466 40.9284 79.4418 39.7851C78.1616 38.6667 77.4476 37.188 77.2999 35.3488H82.2483C82.2975 35.8956 82.5191 36.3305 82.913 36.6536C83.3069 37.0016 83.7993 37.1756 84.3901 37.1756H87.4182C88.1814 37.1756 88.7969 36.8525 89.2646 36.2063C89.757 35.5849 90.0032 34.7648 90.0032 33.7458V31.3226C89.4369 32.0931 88.7845 32.702 88.046 33.1493C87.332 33.5718 86.6181 33.7831 85.9042 33.7831H83.4669C81.522 33.7831 79.9588 33.1369 78.7771 31.8446C77.5954 30.5273 77.0045 28.7876 77.0045 26.6254V15.3297H82.0267V26.7C82.0267 27.5201 82.2237 28.1912 82.6176 28.7131C83.0361 29.2101 83.5777 29.4587 84.2424 29.4587H86.3842C87.1966 29.4587 87.9352 29.1231 88.5999 28.4521C89.2646 27.7562 89.7324 26.8491 90.0032 25.7307V15.3297H95.0254V33.7458C95.0254 35.2867 94.7053 36.6412 94.0653 37.8093C93.4498 38.9774 92.5635 39.8845 91.4064 40.5307C90.2494 41.1769 88.92 41.5 87.4182 41.5H84.3901Z" fill="#2B303E"/>
<path d="M107.347 33.9322C105.18 33.9322 103.592 33.4352 102.583 32.441C101.574 31.4469 101.069 29.906 101.069 27.8184V19.6541H97.8192V15.3297H101.217V9.70044H106.091V15.3297H110.892V19.6541H106.091V27.5947C106.091 28.2906 106.214 28.8001 106.46 29.1231C106.731 29.4462 107.15 29.6078 107.716 29.6078H110.892V33.9322H107.347Z" fill="#2B303E"/>
<path d="M121.03 34.2305C119.479 34.2305 118.1 33.9446 116.894 33.373C115.712 32.7765 114.789 31.9564 114.124 30.9126C113.459 29.8439 113.127 28.6261 113.127 27.2592V22.4501C113.127 20.9838 113.459 19.6914 114.124 18.573C114.789 17.4546 115.712 16.5848 116.894 15.9634C118.1 15.3421 119.479 15.0314 121.03 15.0314H123.984C126.347 15.0314 128.243 15.7025 129.671 17.0445C131.099 18.3866 131.813 20.176 131.813 22.4128V26.3644H118.149V27.2592C118.149 28.0793 118.408 28.7379 118.925 29.235C119.442 29.732 120.143 29.9806 121.03 29.9806H123.91C124.772 29.9806 125.461 29.7942 125.978 29.4214C126.52 29.0237 126.79 28.5142 126.79 27.8929H131.739C131.739 29.1356 131.406 30.2415 130.742 31.2108C130.077 32.1801 129.141 32.9257 127.935 33.4476C126.753 33.9695 125.387 34.2305 123.836 34.2305H121.03ZM126.864 22.711V22.4128C126.864 21.4435 126.606 20.6731 126.089 20.1015C125.572 19.505 124.882 19.2068 124.021 19.2068H121.03C120.143 19.2068 119.429 19.5174 118.888 20.1387C118.346 20.7601 118.075 21.5802 118.075 22.5992V22.711H126.864Z" fill="#2B303E"/>
<path d="M141.566 33.9322C139.375 33.9322 137.763 33.4724 136.729 32.5529C135.719 31.6085 135.215 30.1545 135.215 28.1911V7.83646H140.237V27.8929C140.237 28.4894 140.372 28.9243 140.643 29.1977C140.914 29.4711 141.345 29.6078 141.935 29.6078H143.93V33.9322H141.566Z" fill="#2B303E"/>
<path d="M146.806 15.3297H151.828V33.9322H146.806V15.3297Z" fill="#2B303E"/>
<path d="M161.544 24.5005L154.786 15.3297H160.399L164.461 20.8471L168.523 15.3297H174.136L167.378 24.5005L174.358 33.9322H168.745L164.461 28.1166L160.177 33.9322H154.564L161.544 24.5005Z" fill="#2B303E"/>
<path d="M177.099 15.3297H182.121V33.9322H177.099V15.3297Z" fill="#2B303E"/>
<path d="M187.072 15.3297H191.725V17.7156C192.193 16.9948 192.858 16.4108 193.72 15.9634C194.606 15.4912 195.529 15.2551 196.489 15.2551H199V19.6541H196.489C195.184 19.6541 194.126 20.0518 193.313 20.8471C192.501 21.6424 192.095 22.6613 192.095 23.904V33.9322H187.072V15.3297Z" fill="#2B303E"/>
<path d="M15.3378 0.46729L0.880859 8.91386L9.16158 13.7519L15.3378 10.1434V0.46729Z" fill="#24BAFE"/>
<path d="M29.7826 13.7519L38.0633 8.91386L23.6063 0.467285V10.1434L29.7826 13.7519Z" fill="#24BAFE"/>
<path d="M9.16158 13.752L0.880859 8.91394V30.638L19.4721 41.5V31.8239L9.16158 25.7999V13.752Z" fill="#413FB5"/>
<path d="M19.4722 31.8239V41.5L38.0634 30.638V8.91394L29.7827 13.752V25.7999L19.4722 31.8239Z" fill="#8720F8"/>
</svg>
