<svg width="250" height="53" viewBox="0 0 250 53" fill="none" xmlns="http://www.w3.org/2000/svg">
<path d="M187.536 10.3048L190.695 12.1661V15.8887L187.536 17.75L184.377 15.8887V12.1661L187.536 10.3048Z" fill="white"/>
<path d="M225.622 10.3048L228.781 12.1661V15.8887L225.622 17.75L222.464 15.8887V12.1661L225.622 10.3048Z" fill="white"/>
<path d="M80.0247 43.7801C79.0649 43.7801 78.0897 43.4649 77.099 42.8345C76.1082 42.2041 75.3033 41.3845 74.6841 40.3758V43.4018H68.8327V10.3048H75.1485V21.6524C75.7677 20.9904 76.5262 20.4546 77.424 20.0448C78.3528 19.635 79.2352 19.4301 80.0711 19.4301H83.3219C85.1176 19.4301 86.6965 19.8241 88.0587 20.6122C89.4519 21.3687 90.52 22.4561 91.2631 23.8746C92.0371 25.293 92.4241 26.9321 92.4241 28.7919V34.182C92.4241 36.0732 92.0371 37.7438 91.2631 39.1938C90.4891 40.6438 89.4055 41.7785 88.0123 42.5981C86.6191 43.3861 85.0247 43.7801 83.229 43.7801H80.0247ZM82.486 38.1536C83.5696 38.1536 84.4364 37.7438 85.0866 36.9243C85.7677 36.1047 86.1083 35.033 86.1083 33.7091V29.2647C86.1083 28.0038 85.7832 26.9952 85.133 26.2387C84.4829 25.4506 83.6315 25.0566 82.5788 25.0566H79.6996C78.4612 25.0566 77.424 25.4979 76.5881 26.3805C75.7522 27.2631 75.2723 28.4294 75.1485 29.8793V33.9455C75.3652 35.2064 75.8606 36.2308 76.6346 37.0188C77.4395 37.7753 78.3838 38.1536 79.4674 38.1536H82.486Z" fill="white"/>
<path d="M105.869 53C103.361 53 101.287 52.275 99.6462 50.8251C98.0363 49.4066 97.1384 47.5311 96.9527 45.1985H103.176C103.238 45.892 103.516 46.4436 104.012 46.8534C104.507 47.2947 105.126 47.5153 105.869 47.5153H109.677C110.637 47.5153 111.411 47.1056 111.999 46.286C112.618 45.498 112.928 44.4578 112.928 43.1654V40.0921C112.216 41.0693 111.395 41.8416 110.467 42.4089C109.569 42.9448 108.671 43.2127 107.773 43.2127H104.708C102.262 43.2127 100.296 42.3932 98.8103 40.7541C97.3242 39.0835 96.5812 36.877 96.5812 34.1347V19.8084H102.897V34.2292C102.897 35.2694 103.145 36.1205 103.64 36.7824C104.166 37.4129 104.847 37.7281 105.683 37.7281H108.377C109.399 37.7281 110.327 37.3025 111.163 36.4515C111.999 35.5689 112.587 34.4184 112.928 32.9999V19.8084H119.244V43.1654C119.244 45.1197 118.841 46.8376 118.036 48.3191C117.262 49.8006 116.148 50.9511 114.693 51.7707C113.238 52.5902 111.566 53 109.677 53H105.869Z" fill="white"/>
<path d="M134.739 43.4018C132.014 43.4018 130.017 42.7714 128.748 41.5106C127.479 40.2497 126.844 38.2954 126.844 35.6477V25.293H122.757V19.8084H127.03V12.6689H133.16V19.8084H139.197V25.293H133.16V35.364C133.16 36.2466 133.315 36.8928 133.624 37.3025C133.965 37.7123 134.491 37.9172 135.203 37.9172H139.197V43.4018H134.739Z" fill="white"/>
<path d="M151.946 43.7801C149.996 43.7801 148.262 43.4176 146.745 42.6926C145.259 41.9361 144.098 40.8959 143.262 39.572C142.426 38.2166 142.008 36.6721 142.008 34.9385V28.8391C142.008 26.9794 142.426 25.3403 143.262 23.9219C144.098 22.5034 145.259 21.4002 146.745 20.6122C148.262 19.8241 149.996 19.4301 151.946 19.4301H155.661C158.633 19.4301 161.017 20.2812 162.813 21.9833C164.609 23.6855 165.506 25.955 165.506 28.7919V33.8037H148.324V34.9385C148.324 35.9787 148.649 36.814 149.299 37.4444C149.949 38.0748 150.832 38.39 151.946 38.39H155.568C156.652 38.39 157.519 38.1536 158.169 37.6808C158.85 37.1764 159.191 36.5303 159.191 35.7422H165.414C165.414 37.3183 164.996 38.721 164.16 39.9503C163.324 41.1796 162.147 42.1252 160.63 42.7872C159.144 43.4491 157.426 43.7801 155.475 43.7801H151.946ZM159.284 29.1701V28.7919C159.284 27.5625 158.958 26.5854 158.308 25.8604C157.658 25.1039 156.791 24.7257 155.708 24.7257H151.946C150.832 24.7257 149.934 25.1197 149.253 25.9077C148.571 26.6957 148.231 27.7359 148.231 29.0283V29.1701H159.284Z" fill="white"/>
<path d="M177.772 43.4018C175.017 43.4018 172.989 42.8187 171.689 41.6524C170.419 40.4546 169.785 38.6107 169.785 36.1205V10.3048H176.101V35.7422C176.101 36.4987 176.271 37.0504 176.611 37.3971C176.952 37.7438 177.494 37.9172 178.237 37.9172H180.745V43.4018H177.772Z" fill="white"/>
<path d="M184.362 19.8084H190.678V43.4018H184.362V19.8084Z" fill="white"/>
<path d="M202.896 31.4396L194.397 19.8084H201.456L206.564 26.806L211.673 19.8084H218.732L210.233 31.4396L219.01 43.4018H211.951L206.564 36.0259L201.177 43.4018H194.118L202.896 31.4396Z" fill="white"/>
<path d="M222.457 19.8084H228.773V43.4018H222.457V19.8084Z" fill="white"/>
<path d="M235 19.8084H240.851V22.8344C241.44 21.9203 242.276 21.1795 243.359 20.6122C244.474 20.0133 245.635 19.7138 246.842 19.7138H250V25.293H246.842C245.201 25.293 243.87 25.7974 242.848 26.806C241.827 27.8147 241.316 29.1071 241.316 30.6831V43.4018H235V19.8084Z" fill="white"/>
<path d="M19.0308 0.958991L0.850098 11.6717L11.2637 17.8078L19.0308 13.2311V0.958991Z" fill="white"/>
<path d="M37.1962 17.8078L47.6098 11.6717L29.4291 0.958984V13.2311L37.1962 17.8078Z" fill="white"/>
<path d="M11.2637 17.8078L0.850098 11.6717V39.2234L24.23 52.9996V40.7274L11.2637 33.0873L11.2637 17.8078Z" fill="white"/>
<path d="M24.23 40.7274V52.9996L47.6098 39.2234L47.6098 11.6717L37.1962 17.8078L37.1962 33.0873L24.23 40.7274Z" fill="white"/>
</svg>
